$MeshFormat
4.1 0 8
$EndMeshFormat
$PhysicalNames
3
1 101 "outer_boundary"
2 1 "material_1"
2 2 "material_2"
$EndPhysicalNames
$Entities
5 5 2 0
1 0 0 0 0 
2 1 0 0 0 
3 0 1 0 0 
4 1 1 0 0 
5 0.5929554585882544 0.4216413007335464 0 0 
1 -9.999999994736442e-08 -1e-07 -1e-07 1.0000001 1e-07 1e-07 1 101 2 1 -2 
2 -1e-07 -9.999999994736442e-08 -1e-07 1e-07 1.0000001 1e-07 1 101 2 3 -1 
3 0.9999999000000001 -9.999999994736442e-08 -1e-07 1.0000001 1.0000001 1e-07 1 101 2 2 -4 
4 -9.999999994736442e-08 0.9999999000000001 -1e-07 1.0000001 1.0000001 1e-07 1 101 2 4 -3 
5 0.2058401460972306 0.2280835944880344 -1e-07 0.5929555585882543 0.6151990069790583 1e-07 0 2 5 -5 
2 0.2058401460972306 0.2280835944880344 -1e-07 0.5929555585882543 0.6151990069790583 1e-07 1 2 1 5 
3 -9.999999994736442e-08 -9.999999994736442e-08 -1e-07 1.0000001 1.0000001 1e-07 1 1 5 1 3 4 2 -5 
$EndEntities
$Nodes
12 161 1 161
0 1 0 1
1
0 0 0
0 2 0 1
2
1 0 0
0 3 0 1
3
0 1 0
0 4 0 1
4
1 1 0
0 5 0 1
5
0.5929554585882544 0.4216413007335464 0
1 1 0 7
6
7
8
9
10
11
12
0.1249999999999999 0 0
0.2499999999999998 0 0
0.3749999999999993 0 0
0.4999999999999988 0 0
0.6249999999999988 0 0
0.7499999999999991 0 0
0.8749999999999997 0 0
1 2 0 7
13
14
15
16
17
18
19
0 0.8750000000000001 0
0 0.7500000000000002 0
0 0.6250000000000007 0
0 0.5000000000000012 0
0 0.3750000000000012 0
0 0.2500000000000009 0
0 0.1250000000000003 0
1 3 0 7
20
21
22
23
24
25
26
1 0.1249999999999999 0
1 0.2499999999999998 0
1 0.3749999999999993 0
1 0.4999999999999988 0
1 0.6249999999999988 0
1 0.7499999999999991 0
1 0.8749999999999997 0
1 4 0 7
27
28
29
30
31
32
33
0.8750000000000001 1 0
0.7500000000000002 1 0
0.6250000000000007 1 0
0.5000000000000012 1 0
0.3750000000000012 1 0
0.2500000000000009 1 0
0.1250000000000003 1 0
1 5 0 17
34
35
36
37
38
39
40
41
42
43
44
45
46
47
48
49
50
0.5812825066286346 0.4878419009634097 0
0.5476715810305282 0.5460577317887474 0
0.4961766554654985 0.5892671048378653 0
0.433008777940849 0.6122583320186107 0
0.3657869267446362 0.6122583320186108 0
0.3026190492199866 0.5892671048378653 0
0.251124123654957 0.5460577317887475 0
0.2175131980568505 0.4878419009634098 0
0.2058402460972306 0.4216413007335464 0
0.2175131980568505 0.355440700503683 0
0.2511241236549568 0.2972248696783455 0
0.3026190492199866 0.2540154966292275 0
0.3657869267446361 0.2310242694484821 0
0.4330087779408488 0.231024269448482 0
0.4961766554654985 0.2540154966292275 0
0.547671581030528 0.2972248696783453 0
0.5812825066286346 0.355440700503683 0
2 2 0 27
51
52
53
54
55
56
57
58
59
60
61
62
63
64
65
66
67
68
69
70
71
72
73
74
75
76
77
0.4432471266853047 0.2947549501531669 0
0.353525720046889 0.5476068861346939 0
0.5276472060632338 0.4518262350436567 0
0.284015127679009 0.3642020555615561 0
0.4458842500152676 0.5492397500068811 0
0.3541139747850162 0.2972248696783454 0
0.5140606554324217 0.355440700503683 0
0.2849408880854661 0.4860195140357258 0
0.399429832006251 0.5711749239871706 0
0.3970830067705337 0.5143431660251266 0
0.4572639083624001 0.4726555409146174 0
0.3929346098690323 0.4494762054088175 0
0.4373748454413872 0.4144984536143674 0
0.3865117903896692 0.3908844307794668 0
0.3274600575844585 0.4246693232802436 0
0.4519343525495468 0.3573358901474621 0
0.4961766554654985 0.5192285856646803 0
0.341956344151095 0.4857160882509233 0
0.2679500163252863 0.4277336415929803 0
0.3407066776597455 0.353095568026523 0
0.3054024359198125 0.3111960697748666 0
0.3977817967345178 0.2759252421034075 0
0.3041548275770173 0.5347750457765821 0
0.4933406446324176 0.3090852057502091 0
0.5439911881294018 0.3970745982254114 0
0.3957159531339667 0.3282034918147286 0
0.4909798266066312 0.4070075404216734 0
2 3 0 84
78
79
80
81
82
83
84
85
86
87
88
89
90
91
92
93
94
95
96
97
98
99
100
101
102
103
104
105
106
107
108
109
110
111
112
113
114
115
116
117
118
119
120
121
122
123
124
125
126
127
128
129
130
131
132
133
134
135
136
137
138
139
140
141
142
143
144
145
146
147
148
149
150
151
152
153
154
155
156
157
158
159
160
161
0.5556549493674106 0.6134959624179241 0
0.6155952109559381 0.3008332947663783 0
0.6436671676438275 0.4610459885600414 0
0.3181516676820164 0.6553004180439291 0
0.8916807689004886 0.6895941112206295 0
0.6876157250652245 0.9031037044593628 0
0.2330500799771615 0.2340140776301413 0
0.4402820655485284 0.9041405234276552 0
0.88771388462273 0.3220363811393537 0
0.1897639777000346 0.8910831553113092 0
0.1839022724587442 0.5460577317887475 0
0.6937692532533006 0.09030427225266474 0
0.4840388355650513 0.1890775287783852 0
0.6395782151738953 0.3792303844348921 0
0.710971318416451 0.4216413007335464 0
0.7155701862269044 0.5015305249222748 0
0.6967479008371592 0.3264725703614784 0
0.7876159497950247 0.4533456940767625 0
0.3997437483293418 0.6678613281159826 0
0.3555163759695943 0.7290152954247107 0
0.2655090851960036 0.7193164735852418 0
0.4833484967495995 0.652974719104414 0
0.5456670809377856 0.6952351973844988 0
0.6265711192892234 0.6554964653071549 0
0.5639659565850033 0.2297432096738298 0
0.3010738661577352 0.1766122909378072 0
0.1854903775338378 0.2989961822420366 0
0.1587839142789241 0.2197422340480836 0
0.156910667378875 0.4689350664172202 0
0.4541895875999875 0.7326778441586884 0
0.5480775818259793 0.7860290307953528 0
0.3993978523427425 0.1728084386231445 0
0.1554365557580034 0.3792417690145872 0
0.7928439667192299 0.5466182912788733 0
0.6170437911887026 0.5474066098515807 0
0.2393269322721799 0.6147692184103601 0
0.1781669784519403 0.6848076868721119 0
0.5571678935347335 0.1483755734767832 0
0.2885861098406837 0.8031779235357024 0
0.633549611965193 0.7442617476004432 0
0.7133643211727549 0.6925899505528572 0
0.7822014715534006 0.3618735078796622 0
0.77216777637593 0.2697055271858172 0
0.8643522203653714 0.2026444398767634 0
0.6698730103480882 0.2413022299563043 0
0.6970380408620187 0.594500269071345 0
0.5567427569657893 0.892355136142847 0
0.2076217618180021 0.1538685408182578 0
0.1002206699615113 0.5504666955959883 0
0.09294171336304458 0.3082712749756787 0
0.4542995219586354 0.1021760839135062 0
0.8088742278215691 0.8989289490094819 0
0.357644956564139 0.1073949542510837 0
0.8747849627568385 0.4902159357526785 0
0.1884267687913863 0.7775222965728941 0
0.8801834434328708 0.8064695306092562 0
0.804025673833447 0.09755758356113975 0
0.736450552353998 0.7998488711455884 0
0.1178612132724434 0.1363878915851079 0
0.3923518203904631 0.8123879730380692 0
0.322663995579952 0.9017982625521226 0
0.796258800594374 0.6401728231011889 0
0.09855897938388553 0.8295313460838383 0
0.07634645000086382 0.4255371098094219 0
0.8559174351044794 0.403076428440207 0
0.8925947498284885 0.581933526892228 0
0.09247123174022565 0.6489929584490735 0
0.739701481982094 0.1779653465514949 0
0.8055939901712845 0.7250610287422178 0
0.1115247916734876 0.7381708575955835 0
0.9086755788397636 0.08504040468758062 0
0.6259725468490898 0.8285271870455005 0
0.1619457193256191 0.6105349913459769 0
0.9054133135944988 0.9060675235557447 0
0.6340209577164264 0.16627802647628 0
0.6109595465196143 0.091366195457035 0
0.1765079548601657 0.07107679292744601 0
0.2779747565666736 0.08482542982243246 0
0.07391736818288241 0.2078802801217743 0
0.9273020511682327 0.4229892677224483 0
0.5426805872733715 0.07036285206977788 0
0.08036108715664675 0.9196389128433533 0
0.47602093875345 0.8252802174438184 0
0.06525353728242084 0.06525353728242106 0
$EndNodes
$Elements
6 320 1 320
1 1 1 8
1 1 6 
2 6 7 
3 7 8 
4 8 9 
5 9 10 
6 10 11 
7 11 12 
8 12 2 
1 2 1 8
9 3 13 
10 13 14 
11 14 15 
12 15 16 
13 16 17 
14 17 18 
15 18 19 
16 19 1 
1 3 1 8
17 2 20 
18 20 21 
19 21 22 
20 22 23 
21 23 24 
22 24 25 
23 25 26 
24 26 4 
1 4 1 8
25 4 27 
26 27 28 
27 28 29 
28 29 30 
29 30 31 
30 31 32 
31 32 33 
32 33 3 
2 2 2 70
33 34 67 53 
34 61 77 53 
35 63 77 61 
36 35 67 34 
37 54 69 43 
38 53 67 61 
39 43 69 42 
40 65 69 54 
41 54 70 65 
42 66 74 57 
43 57 77 66 
44 42 69 41 
45 41 69 58 
46 70 71 56 
47 58 69 65 
48 56 76 70 
49 51 74 66 
50 39 52 38 
51 48 51 47 
52 50 57 49 
53 37 55 36 
54 44 54 43 
55 41 58 40 
56 34 53 5 
57 46 56 45 
58 62 65 64 
59 62 64 63 
60 65 68 58 
61 62 63 61 
62 66 77 63 
63 55 67 36 
64 36 67 35 
65 60 62 61 
66 60 68 62 
67 54 71 70 
68 52 68 60 
69 52 73 68 
70 64 66 63 
71 51 76 72 
72 62 68 65 
73 66 76 51 
74 60 61 55 
75 68 73 58 
76 61 67 55 
77 65 70 64 
78 45 71 44 
79 52 59 38 
80 46 72 56 
81 57 74 49 
82 48 74 51 
83 38 59 37 
84 58 73 40 
85 44 71 54 
86 53 75 5 
87 56 71 45 
88 50 75 57 
89 47 72 46 
90 39 73 52 
91 51 72 47 
92 49 74 48 
93 40 73 39 
94 5 75 50 
95 37 59 55 
96 70 76 64 
97 72 76 56 
98 64 76 66 
99 59 60 55 
100 52 60 59 
101 53 77 75 
102 75 77 57 
2 3 2 218
103 93 112 80 
104 116 138 87 
105 78 112 101 
106 103 109 46 
107 135 149 117 
108 118 135 117 
109 126 141 106 
110 21 121 20 
111 98 113 81 
112 93 123 112 
113 87 132 116 
114 121 148 20 
115 106 110 42 
116 23 143 131 
117 112 123 101 
118 102 122 79 
119 119 120 86 
120 24 143 23 
121 128 130 8 
122 98 114 113 
123 130 155 8 
124 135 146 133 
125 91 94 92 
126 100 107 99 
127 96 107 97 
128 129 135 133 
129 86 121 21 
130 120 121 86 
131 87 138 32 
132 100 108 107 
133 94 119 92 
134 85 124 30 
135 111 123 93 
136 9 128 8 
137 102 152 122 
138 107 137 97 
139 16 141 126 
140 103 130 109 
141 137 138 116 
142 109 130 128 
143 139 143 82 
144 124 160 108 
145 85 160 124 
146 2 148 12 
147 120 145 121 
148 45 103 46 
149 106 141 110 
150 8 155 7 
151 16 126 15 
152 90 128 115 
153 104 127 105 
154 41 106 42 
155 101 123 118 
156 29 124 83 
157 110 141 127 
158 11 89 10 
159 20 148 2 
160 18 127 17 
161 82 146 139 
162 121 145 134 
163 31 85 30 
164 111 139 123 
165 80 112 34 
166 108 149 124 
167 35 112 78 
168 38 96 81 
169 83 149 135 
170 29 83 28 
171 22 86 21 
172 144 147 14 
173 83 129 28 
174 25 82 24 
175 5 91 80 
176 78 100 99 
177 86 142 119 
178 78 99 36 
179 91 92 80 
180 85 138 137 
181 81 113 39 
182 96 97 81 
183 37 99 96 
184 30 124 29 
185 25 133 82 
186 15 144 14 
187 11 134 89 
188 100 117 108 
189 79 91 50 
190 79 94 91 
191 82 143 24 
192 123 139 118 
193 99 107 96 
194 86 157 142 
195 117 149 108 
196 83 135 129 
197 33 87 32 
198 92 119 95 
199 127 156 105 
200 28 129 27 
201 49 102 79 
202 94 122 120 
203 40 113 88 
204 127 141 17 
205 44 104 84 
206 26 133 25 
207 22 157 86 
208 133 146 82 
209 12 134 11 
210 32 138 31 
211 97 137 116 
212 104 105 84 
213 111 143 139 
214 116 132 98 
215 14 140 13 
216 90 102 48 
217 31 138 85 
218 126 144 15 
219 87 140 132 
220 47 109 90 
221 90 115 102 
222 118 146 135 
223 43 110 104 
224 115 152 102 
225 4 151 26 
226 27 151 4 
227 92 93 80 
228 94 120 119 
229 125 155 103 
230 103 155 130 
231 14 147 140 
232 109 128 90 
233 78 101 100 
234 5 80 34 
235 119 142 95 
236 110 127 104 
237 38 81 39 
238 35 78 36 
239 89 153 10 
240 34 112 35 
241 122 152 145 
242 37 96 38 
243 124 149 83 
244 18 156 127 
245 97 98 81 
246 10 158 9 
247 122 145 120 
248 98 132 114 
249 153 158 10 
250 49 79 50 
251 128 158 115 
252 79 122 94 
253 44 84 45 
254 50 91 5 
255 36 99 37 
256 84 125 103 
257 139 146 118 
258 39 113 40 
259 134 145 89 
260 108 160 107 
261 9 158 128 
262 12 148 134 
263 95 111 93 
264 107 160 137 
265 101 118 117 
266 40 88 41 
267 131 157 23 
268 17 141 16 
269 47 90 48 
270 43 104 44 
271 48 102 49 
272 101 117 100 
273 92 95 93 
274 46 109 47 
275 95 142 131 
276 95 131 111 
277 105 125 84 
278 136 156 19 
279 113 150 88 
280 42 110 43 
281 19 156 18 
282 84 103 45 
283 97 116 98 
284 33 159 87 
285 133 151 129 
286 131 143 111 
287 129 151 27 
288 126 150 144 
289 114 150 113 
290 3 159 33 
291 13 159 3 
292 145 152 89 
293 134 148 121 
294 88 150 126 
295 88 106 41 
296 26 151 133 
297 7 154 6 
298 105 136 125 
299 140 147 132 
300 23 157 22 
301 88 126 106 
302 87 159 140 
303 114 147 144 
304 132 147 114 
305 144 150 114 
306 1 161 19 
307 6 161 1 
308 19 161 136 
309 136 161 154 
310 142 157 131 
311 105 156 136 
312 136 154 125 
313 137 160 85 
314 140 159 13 
315 154 161 6 
316 7 155 154 
317 115 158 153 
318 154 155 125 
319 115 153 152 
320 152 153 89 
$EndElements
