$MeshFormat
4.1 0 8
$EndMeshFormat
$PhysicalNames
3
1 101 "outer_boundary"
2 1 "material_1"
2 2 "material_2"
$EndPhysicalNames
$Entities
5 5 2 0
1 0 0 0 0 
2 1 0 0 0 
3 0 1 0 0 
4 1 1 0 0 
5 0.6444311688119065 0.2989806735066687 0 0 
1 -9.999999994736442e-08 -1e-07 -1e-07 1.0000001 1e-07 1e-07 1 101 2 1 -2 
2 -1e-07 -9.999999994736442e-08 -1e-07 1e-07 1.0000001 1e-07 1 101 2 3 -1 
3 0.9999999000000001 -9.999999994736442e-08 -1e-07 1.0000001 1.0000001 1e-07 1 101 2 2 -4 
4 -9.999999994736442e-08 0.9999999000000001 -1e-07 1.0000001 1.0000001 1e-07 1 101 2 4 -3 
5 0.272320927752438 0.1129255029769344 -1e-07 0.6444312688119065 0.4850358440364029 1e-07 0 2 5 -5 
2 0.272320927752438 0.1129255029769344 -1e-07 0.6444312688119065 0.4850358440364029 1e-07 1 2 1 5 
3 -9.999999994736442e-08 -9.999999994736442e-08 -1e-07 1.0000001 1.0000001 1e-07 1 1 5 1 3 4 2 -5 
$EndEntities
$Nodes
12 159 1 159
0 1 0 1
1
0 0 0
0 2 0 1
2
1 0 0
0 3 0 1
3
0 1 0
0 4 0 1
4
1 1 0
0 5 0 1
5
0.6444311688119065 0.2989806735066687 0
1 1 0 7
6
7
8
9
10
11
12
0.1249999999999999 0 0
0.2499999999999998 0 0
0.3749999999999993 0 0
0.4999999999999988 0 0
0.6249999999999988 0 0
0.7499999999999991 0 0
0.8749999999999997 0 0
1 2 0 7
13
14
15
16
17
18
19
0 0.8750000000000001 0
0 0.7500000000000002 0
0 0.6250000000000007 0
0 0.5000000000000012 0
0 0.3750000000000012 0
0 0.2500000000000009 0
0 0.1250000000000003 0
1 3 0 7
20
21
22
23
24
25
26
1 0.1249999999999999 0
1 0.2499999999999998 0
1 0.3749999999999993 0
1 0.4999999999999988 0
1 0.6249999999999988 0
1 0.7499999999999991 0
1 0.8749999999999997 0
1 4 0 7
27
28
29
30
31
32
33
0.8750000000000001 1 0
0.7500000000000002 1 0
0.6250000000000007 1 0
0.5000000000000012 1 0
0.3750000000000012 1 0
0.2500000000000009 1 0
0.1250000000000003 1 0
1 5 0 16
34
35
36
37
38
39
40
41
42
43
44
45
46
47
48
49
0.6318672846910183 0.3661915171873981 0
0.5958724544977647 0.4243251640009035 0
0.5413079795039841 0.4655303428153638 0
0.47554309440978 0.4842420659061082 0
0.4074597113629332 0.4779332113844946 0
0.3462528685069691 0.4474558250122367 0
0.3001888891284104 0.3969260466999359 0
0.2754889688916524 0.3331682030038354 0
0.2754889688916524 0.2647931440095022 0
0.3001888891284102 0.2010353003134017 0
0.346252868506969 0.1505055220011007 0
0.4074597113629331 0.1200281356288428 0
0.4755430944097799 0.1137192811072292 0
0.5413079795039839 0.1324310041979735 0
0.5958724544977647 0.1736361830124339 0
0.6318672846910184 0.2317698298259395 0
2 2 0 26
50
51
52
53
54
55
56
57
58
59
60
61
62
63
64
65
66
67
68
69
70
71
72
73
74
75
0.5867887446413493 0.2803663155648053 0
0.3430548413413718 0.343656366455404 0
0.4469650311708542 0.1758356476621921 0
0.4904436605613638 0.4236623838291809 0
0.5635246546392635 0.364085903241886 0
0.3430548413413718 0.2543049805579336 0
0.4039727299176861 0.4169363871083538 0
0.5329054853800713 0.2002878150939785 0
0.445183266077623 0.4413540069506268 0
0.3631669814213055 0.3907419023782078 0
0.394642968430324 0.1709872945497504 0
0.4072933224817338 0.2317656242738962 0
0.4770687377735954 0.2286859297841238 0
0.4490948205002963 0.2898711146370602 0
0.5207829606211134 0.2740690241347998 0
0.4953212102892202 0.3510450523011091 0
0.4189839311286643 0.3508042196948178 0
0.381664787531965 0.2957290089756328 0
0.5393650719708702 0.4078309180497058 0
0.4961036639352469 0.1659129597026764 0
0.5989248112011819 0.32525378132306 0
0.3153928233947861 0.2989806735066687 0
0.3547423969938837 0.2023131872197046 0
0.5736433859662634 0.2320258335263914 0
0.4501986597469947 0.392992823259651 0
0.5518009030366473 0.317832626018861 0
2 3 0 84
76
77
78
79
80
81
82
83
84
85
86
87
88
89
90
91
92
93
94
95
96
97
98
99
100
101
102
103
104
105
106
107
108
109
110
111
112
113
114
115
116
117
118
119
120
121
122
123
124
125
126
127
128
129
130
131
132
133
134
135
136
137
138
139
140
141
142
143
144
145
146
147
148
149
150
151
152
153
154
155
156
157
158
159
0.6020514111061803 0.498758312139197 0
0.3433954812875985 0.5166799851270563 0
0.690717724338106 0.8995703770754679 0
0.4375000000000012 0.8917468245269454 0
0.6936284169167219 0.2549755654909983 0
0.09022724112870872 0.6862965391412986 0
0.9024468481990725 0.5585057550884601 0
0.2261782614083663 0.2219172722446739 0
0.2349711722671047 0.3854978366399787 0
0.9053079383760235 0.1846872828646312 0
0.6719406909164893 0.4238150339501455 0
0.6853893189486582 0.5055793565096237 0
0.6352981989333948 0.5736866567217729 0
0.7504075131454528 0.4514998912631432 0
0.7157428903162482 0.5843935736057142 0
0.6619824033729448 0.6506839942417831 0
0.5785063541519595 0.6368334518976537 0
0.7372944817922014 0.6581104143183636 0
0.6033102143599224 0.7210860495338982 0
0.5122815237588322 0.7027369899086495 0
0.8818011765903522 0.8060488235945382 0
0.436037774601859 0.5400495779394575 0
0.3844121014387459 0.5934298606869944 0
0.2921289533752947 0.5798329546115146 0
0.3248819486195045 0.6599703133807726 0
0.664521136151168 0.1734093876014092 0
0.2592660758317892 0.1454894163754487 0
0.2165434084907312 0.3034766575571947 0
0.1863406917594891 0.8826879381032876 0
0.2809180559048478 0.4549139328166481 0
0.1930685438350947 0.4672296949653498 0
0.6930586047964143 0.3374159889379803 0
0.7640725873724397 0.2989806735066687 0
0.1679598583051473 0.1648640428256485 0
0.7451207099437567 0.1878952191409275 0
0.1546921720601572 0.3557490377985124 0
0.5204977057347897 0.5284188169493983 0
0.5357296576233244 0.7999300597674149 0
0.2355632431037947 0.6490501820159127 0
0.2597308508341821 0.7295361661546842 0
0.3484045532397483 0.7472134515310217 0
0.1312558274011446 0.2588917580705653 0
0.4896589638731412 0.606224958803134 0
0.9007779967905376 0.6771056118875112 0
0.4179902618791198 0.6806034596388548 0
0.886101950241855 0.3089767376778462 0
0.9048489153004058 0.4370607570465321 0
0.3136969958636686 0.9040241472204398 0
0.1068715874192642 0.5561734666225083 0
0.08795193156537223 0.430873435192768 0
0.6081529721953978 0.1071164505182842 0
0.817513568606385 0.1148046201076887 0
0.09014292029545845 0.8085645207259746 0
0.8093274886573537 0.9010473260163664 0
0.7535235780818685 0.8133598751371195 0
0.2077829980927574 0.5665908872444478 0
0.7130613491866321 0.1028327685582856 0
0.5709377744573965 0.9002492896364471 0
0.8201383726484088 0.3791314965425639 0
0.3074754347115373 0.08161880909380015 0
0.4450069960057059 0.7743742581467049 0
0.08024645728438129 0.1782343782013912 0
0.8226886410031419 0.4894330989362883 0
0.6404243513631052 0.8110985103754329 0
0.8211406971503716 0.2256602915657593 0
0.4429552159973179 0.05236175535287713 0
0.8061313011493598 0.5922302560568315 0
0.09668004469284369 0.09029803359740812 0
0.6883271593180131 0.7323954111022503 0
0.9090462062431168 0.0924634080719372 0
0.5321598770177461 0.06760474852939402 0
0.2695074483186061 0.8110992274052834 0
0.2010635689235529 0.08037838364871763 0
0.807129019533285 0.7244201055712194 0
0.07307928607771697 0.3310884117702348 0
0.1838750391095801 0.7417477962209202 0
0.9084936490538902 0.90849364905389 0
0.09150635094610998 0.9084936490538902 0
0.3687742937495299 0.8261963299398929 0
0.7560719329125722 0.5246272352743202 0
0.7460400891035486 0.3798260142993177 0
0.5683881615917481 0.5704020635480318 0
0.1580210268701367 0.6288972756791492 0
0.2634558559671131 0.5196010995889531 0
$EndNodes
$Elements
6 316 1 316
1 1 1 8
1 1 6 
2 6 7 
3 7 8 
4 8 9 
5 9 10 
6 10 11 
7 11 12 
8 12 2 
1 2 1 8
9 3 13 
10 13 14 
11 14 15 
12 15 16 
13 16 17 
14 17 18 
15 18 19 
16 19 1 
1 3 1 8
17 2 20 
18 20 21 
19 21 22 
20 22 23 
21 23 24 
22 24 25 
23 25 26 
24 26 4 
1 4 1 8
25 4 27 
26 27 28 
27 28 29 
28 29 30 
29 30 31 
30 31 32 
31 32 33 
32 33 3 
2 2 2 67
33 57 73 64 
34 64 73 50 
35 54 68 65 
36 65 68 53 
37 57 64 62 
38 51 66 59 
39 59 66 56 
40 51 67 66 
41 61 67 55 
42 65 75 54 
43 37 53 36 
44 41 51 40 
45 39 56 38 
46 43 55 42 
47 48 57 47 
48 46 52 45 
49 35 54 34 
50 5 50 49 
51 55 72 61 
52 64 65 63 
53 63 67 61 
54 62 64 63 
55 62 63 61 
56 65 66 63 
57 64 75 65 
58 51 71 67 
59 52 69 62 
60 62 69 57 
61 67 71 55 
62 52 62 61 
63 61 72 60 
64 66 67 63 
65 53 74 65 
66 52 61 60 
67 49 73 48 
68 35 68 54 
69 36 68 35 
70 34 70 5 
71 44 72 43 
72 45 60 44 
73 48 73 57 
74 39 59 56 
75 52 60 45 
76 38 58 37 
77 55 71 42 
78 46 69 52 
79 57 69 47 
80 37 58 53 
81 54 70 34 
82 42 71 41 
83 43 72 55 
84 47 69 46 
85 51 59 40 
86 41 71 51 
87 53 68 36 
88 40 59 39 
89 56 58 38 
90 50 73 49 
91 5 70 50 
92 65 74 66 
93 50 75 64 
94 66 74 56 
95 60 72 44 
96 56 74 58 
97 58 74 53 
98 70 75 50 
99 54 75 70 
2 3 2 217
100 44 135 45 
101 83 117 109 
102 127 140 110 
103 113 133 79 
104 124 125 106 
105 10 132 126 
106 106 131 124 
107 45 135 8 
108 97 118 98 
109 79 136 113 
110 8 141 45 
111 142 149 93 
112 103 117 83 
113 85 140 127 
114 118 120 98 
115 108 140 121 
116 80 110 108 
117 121 134 108 
118 134 138 89 
119 119 149 142 
120 116 154 147 
121 129 130 96 
122 126 132 101 
123 22 122 121 
124 79 133 30 
125 106 111 84 
126 130 149 96 
127 21 121 85 
128 11 132 10 
129 119 142 82 
130 151 158 114 
131 15 124 81 
132 95 118 92 
133 104 151 147 
134 107 156 86 
135 16 125 124 
136 117 137 109 
137 24 119 82 
138 122 134 121 
139 95 120 118 
140 106 125 111 
141 110 140 108 
142 76 112 36 
143 128 151 104 
144 116 147 115 
145 37 112 97 
146 31 123 79 
147 35 86 76 
148 38 97 77 
149 100 120 116 
150 112 118 97 
151 82 122 23 
152 121 140 85 
153 18 137 117 
154 43 102 44 
155 86 87 76 
156 21 85 20 
157 22 121 21 
158 16 124 15 
159 77 105 39 
160 126 146 10 
161 34 107 86 
162 97 98 77 
163 115 151 114 
164 117 150 18 
165 122 138 134 
166 98 120 100 
167 76 157 112 
168 80 107 5 
169 124 158 81 
170 15 81 14 
171 93 149 144 
172 24 82 23 
173 96 119 25 
174 31 79 30 
175 29 78 28 
176 147 154 123 
177 23 122 22 
178 78 130 129 
179 80 108 107 
180 40 105 84 
181 104 123 32 
182 120 136 116 
183 86 156 89 
184 26 96 25 
185 49 101 80 
186 25 119 24 
187 1 143 19 
188 81 128 14 
189 95 136 120 
190 17 125 16 
191 32 123 31 
192 42 103 83 
193 101 110 80 
194 77 159 105 
195 33 104 32 
196 110 132 127 
197 78 129 28 
198 144 149 130 
199 105 106 84 
200 84 103 41 
201 89 156 134 
202 102 135 44 
203 6 143 1 
204 78 139 130 
205 28 129 27 
206 81 158 151 
207 14 128 13 
208 30 133 29 
209 91 92 88 
210 118 157 92 
211 10 146 9 
212 84 111 103 
213 12 127 11 
214 112 157 118 
215 9 141 8 
216 29 133 78 
217 82 138 122 
218 94 95 92 
219 87 88 76 
220 2 145 12 
221 113 139 133 
222 20 145 2 
223 48 126 101 
224 98 99 77 
225 123 154 79 
226 114 131 99 
227 8 135 7 
228 100 116 115 
229 36 112 37 
230 91 94 92 
231 96 149 119 
232 127 132 11 
233 35 76 36 
234 86 89 87 
235 127 145 85 
236 38 77 39 
237 88 157 76 
238 4 152 26 
239 27 152 4 
240 34 86 35 
241 37 97 38 
242 125 150 111 
243 3 153 33 
244 13 153 3 
245 49 80 5 
246 94 113 95 
247 90 91 88 
248 5 107 34 
249 39 105 40 
250 42 83 43 
251 139 144 130 
252 45 141 46 
253 99 159 77 
254 100 114 99 
255 113 136 95 
256 133 139 78 
257 40 84 41 
258 17 150 125 
259 90 93 91 
260 105 159 106 
261 100 115 114 
262 87 90 88 
263 98 100 99 
264 79 154 136 
265 134 156 108 
266 85 145 20 
267 48 101 49 
268 111 117 103 
269 47 146 126 
270 41 103 42 
271 94 139 113 
272 141 146 46 
273 19 137 18 
274 101 132 110 
275 104 147 123 
276 106 159 131 
277 108 156 107 
278 18 150 17 
279 7 148 6 
280 102 148 135 
281 93 144 91 
282 90 142 93 
283 129 152 27 
284 81 151 128 
285 26 152 96 
286 47 126 48 
287 92 157 88 
288 128 153 13 
289 96 152 129 
290 94 144 139 
291 46 146 47 
292 83 102 43 
293 33 153 104 
294 91 144 94 
295 137 143 109 
296 147 151 115 
297 12 145 127 
298 104 153 128 
299 143 148 109 
300 83 109 102 
301 131 158 124 
302 6 148 143 
303 90 155 142 
304 131 159 99 
305 82 142 138 
306 114 158 131 
307 138 155 89 
308 142 155 138 
309 19 143 137 
310 135 148 7 
311 111 150 117 
312 109 148 102 
313 136 154 116 
314 87 155 90 
315 89 155 87 
316 9 146 141 
$EndElements
