$MeshFormat
4.1 0 8
$EndMeshFormat
$PhysicalNames
3
1 101 "outer_boundary"
2 1 "material_1"
2 2 "material_2"
$EndPhysicalNames
$Entities
7 7 2 0
1 0 0 0 0 
2 1 0 0 0 
3 0 1 0 0 
4 1 1 0 0 
5 0.2906134351761922 0.8780664520795821 0 0 
6 0.1726770884554232 0.6247298688128863 0 0 
7 0.451041178632718 0.6492622881565188 0 0 
1 -9.999999994736442e-08 -1e-07 -1e-07 1.0000001 1e-07 1e-07 1 101 2 1 -2 
2 -1e-07 -9.999999994736442e-08 -1e-07 1e-07 1.0000001 1e-07 1 101 2 3 -1 
3 0.9999999000000001 -9.999999994736442e-08 -1e-07 1.0000001 1.0000001 1e-07 1 101 2 2 -4 
4 -9.999999994736442e-08 0.9999999000000001 -1e-07 1.0000001 1.0000001 1e-07 1 101 2 4 -3 
5 0.1726769884554232 0.6247297688128863 -1e-07 0.2906135351761922 0.8780665520795821 1e-07 0 2 5 -6 
6 0.1726769884554232 0.6247297688128863 -1e-07 0.451041278632718 0.6492623881565187 1e-07 0 2 6 -7 
7 0.2906133351761922 0.6492621881565188 -1e-07 0.451041278632718 0.8780665520795821 1e-07 0 2 7 -5 
2 0.1726769884554232 0.6247297688128863 -1e-07 0.451041278632718 0.8780665520795821 1e-07 1 2 3 5 6 7 
3 -9.999999994736442e-08 -9.999999994736442e-08 -1e-07 1.0000001 1.0000001 1e-07 1 1 7 1 3 4 2 -5 -7 -6 
$EndEntities
$Nodes
16 234 1 234
0 1 0 1
1
0 0 0
0 2 0 1
2
1 0 0
0 3 0 1
3
0 1 0
0 4 0 1
4
1 1 0
0 5 0 1
5
0.2906134351761922 0.8780664520795821 0
0 6 0 1
6
0.1726770884554232 0.6247298688128863 0
0 7 0 1
7
0.451041178632718 0.6492622881565188 0
1 1 0 9
8
9
10
11
12
13
14
15
16
0.09999999999999996 0 0
0.1999999999999999 0 0
0.3000000000000001 0 0
0.4000000000000004 0 0
0.5000000000000003 0 0
0.5999999999999999 0 0
0.6999999999999995 0 0
0.7999999999999992 0 0
0.899999999999999 0 0
1 2 0 9
17
18
19
20
21
22
23
24
25
0 0.9 0
0 0.8 0
0 0.7 0
0 0.5999999999999996 0
0 0.4999999999999997 0
0 0.4000000000000001 0
0 0.3000000000000005 0
0 0.2000000000000008 0
0 0.100000000000001 0
1 3 0 9
26
27
28
29
30
31
32
33
34
1 0.09999999999999996 0
1 0.1999999999999999 0
1 0.3000000000000001 0
1 0.4000000000000004 0
1 0.5000000000000003 0
1 0.5999999999999999 0
1 0.6999999999999995 0
1 0.7999999999999992 0
1 0.899999999999999 0
1 4 0 9
35
36
37
38
39
40
41
42
43
0.9 1 0
0.8 1 0
0.7 1 0
0.5999999999999996 1 0
0.4999999999999997 1 0
0.4000000000000001 1 0
0.3000000000000005 1 0
0.2000000000000008 1 0
0.100000000000001 1 0
1 5 0 5
44
45
46
47
48
0.2709573773893974 0.8358436882017996 0
0.2513013196026026 0.7936209243240169 0
0.2316452618158077 0.7513981604462343 0
0.2119892040290129 0.7091753965684515 0
0.1923331462422181 0.666952632690669 0
1 6 0 5
49
50
51
52
53
0.2190711034849723 0.6288186053701583 0
0.2654651185145214 0.6329073419274305 0
0.3118591335440705 0.6369960784847025 0
0.3582531485736197 0.6410848150419746 0
0.4046471636031689 0.6451735515992467 0
1 7 0 5
54
55
56
57
58
0.4243032213899637 0.6873963154770293 0
0.3975652641472094 0.7255303427975398 0
0.3708273069044551 0.7636643701180503 0
0.3440893496617008 0.801798397438561 0
0.3173513924189465 0.8399324247590716 0
2 2 0 10
59
60
61
62
63
64
65
66
67
68
0.258383219058562 0.7132641331257237 0
0.3511712491176603 0.7214416062402678 0
0.2976953346321517 0.7977096608812889 0
0.2387271612717671 0.671041369247941 0
0.3779092063604146 0.6833075789197572 0
0.2780392768453568 0.7554868970035062 0
0.2851211763013162 0.675130105805213 0
0.3047772340881111 0.7173528696829957 0
0.324433291874906 0.7595756335607783 0
0.3315151913308654 0.6792188423624851 0
2 3 0 166
69
70
71
72
73
74
75
76
77
78
79
80
81
82
83
84
85
86
87
88
89
90
91
92
93
94
95
96
97
98
99
100
101
102
103
104
105
106
107
108
109
110
111
112
113
114
115
116
117
118
119
120
121
122
123
124
125
126
127
128
129
130
131
132
133
134
135
136
137
138
139
140
141
142
143
144
145
146
147
148
149
150
151
152
153
154
155
156
157
158
159
160
161
162
163
164
165
166
167
168
169
170
171
172
173
174
175
176
177
178
179
180
181
182
183
184
185
186
187
188
189
190
191
192
193
194
195
196
197
198
199
200
201
202
203
204
205
206
207
208
209
210
211
212
213
214
215
216
217
218
219
220
221
222
223
224
225
226
227
228
229
230
231
232
233
234
0.4308153533546065 0.6056322697040151 0
0.2922030757572757 0.5947733146069198 0
0.4804103598639152 0.6099901343896872 0
0.4588449901601767 0.5632585891443088 0
0.5110547724544452 0.5682494946054909 0
0.4888600270893346 0.5163419337199227 0
0.5284906589097074 0.6194420103073979 0
0.5550937362468975 0.5250433477401465 0
0.5201021177298983 0.4634411568936246 0
0.4571648003034028 0.4616113058531653 0
0.5892339968740331 0.4678446740717951 0
0.5548239026849709 0.4048477463566316 0
0.4462808760451794 0.7297867536801299 0
0.9032717980136853 0.7506934250089179 0
0.6282305316641037 0.4136318600418344 0
0.6571828614696293 0.4810199820124371 0
0.3489538834099846 0.0862334342314483 0
0.08693434695005753 0.3479203625702839 0
0.201046056471423 0.5839057969977445 0
0.39048336469125 0.8058871339958329 0
0.5972668257810313 0.345642714419478 0
0.5177603117377233 0.3390169892797983 0
0.6736614023505275 0.3536541063357355 0
0.6472813523201723 0.9174003878842135 0
0.6408183346030456 0.280332401536969 0
0.2229941866644515 0.8324854535187209 0
0.727320987739525 0.2886222899358694 0
0.9184877000678983 0.5441971142347727 0
0.7533334683231512 0.3717458477166735 0
0.1811462535630204 0.7510781666872689 0
0.4106564063966603 0.5616934405888833 0
0.5430790579458908 0.08205516952931385 0
0.1457889014553541 0.5740312133293954 0
0.1798746618031541 0.5324589659478334 0
0.6884304989837192 0.2148042555503761 0
0.7743994728139707 0.2195272664788642 0
0.0828299795653572 0.1506782447426047 0
0.145939131212669 0.6628638961333968 0
0.3370074502057413 0.8821551886368542 0
0.8433187234195567 0.9053448190786613 0
0.07199275685404716 0.8410562176378995 0
0.9156655250447934 0.3515166835008761 0
0.9077410649073989 0.1498061123778469 0
0.4586899526191733 0.9229195106813024 0
0.07589357127411372 0.7662202957714839 0
0.2337124875416272 0.5410231908286778 0
0.2174955860220135 0.4867923124953834 0
0.2831185854541641 0.5035279758972639 0
0.2615610941097005 0.4358527667313338 0
0.3269592461583126 0.4449231138956949 0
0.3043085890030885 0.3774137348327068 0
0.1503960837625408 0.4709141458414128 0
0.3711975264968461 0.3923639388783033 0
0.3506381792655294 0.3187653176814305 0
0.2745089223738312 0.3051312655932965 0
0.3250848815744888 0.2420880397523947 0
0.4033912370042507 0.2607083188470114 0
0.242834025952252 0.2273051208045879 0
0.7203212238460188 0.1464546354329072 0
0.6038147857065982 0.217287389223572 0
0.345921970819353 0.5071050759959875 0
0.18232526906472 0.2971466101747576 0
0.5514870776256324 0.920005647720991 0
0.598505113772785 0.8407133097570256 0
0.6876095046095766 0.8381009280445288 0
0.6414694659107805 0.7662927771782126 0
0.7243617094705886 0.7614222479215768 0
0.6797515640611436 0.6932833742209219 0
0.7606631048123929 0.6876336080717202 0
0.717031726802146 0.6202327601628304 0
0.5498475534901704 0.7657848441088031 0
0.6425823696727027 0.6298267347199802 0
0.7837314649230149 0.6204132844885328 0
0.7612125526355839 0.5448044808257761 0
0.5004447436855822 0.8427544827818976 0
0.7715482944989362 0.8293317837090841 0
0.5948445150983211 0.6950304381415734 0
0.526346189149181 0.7028488183697589 0
0.9181871216498823 0.6406709296991195 0
0.4448921820651012 0.08570418245082156 0
0.4845101662319945 0.1569548633534368 0
0.9172257562194452 0.450523524789369 0
0.8392487558789796 0.494842121267846 0
0.9177783144488967 0.250470858302224 0
0.8288124874088668 0.2996207278490179 0
0.3941918832105097 0.1731090664702868 0
0.08516857046633763 0.2492862391006108 0
0.160509689840901 0.3904346069742267 0
0.4934139424148822 0.7755642214062095 0
0.2538055284561143 0.08144272942189823 0
0.6464266197741145 0.08529256639853366 0
0.6733249520996003 0.5499357554792453 0
0.1533689432407943 0.9282405611814369 0
0.2410253857058405 0.9257563232030028 0
0.7424522317096648 0.9169215658087848 0
0.07848559336300048 0.5639183310516896 0
0.0768756827624747 0.6420591598716792 0
0.8353391991107946 0.4037799748591349 0
0.7667768957580239 0.4562910106709387 0
0.393529772298574 0.4662296895304638 0
0.9198836217174601 0.8502394412236334 0
0.6048852716604221 0.5735062541530009 0
0.3844559312414965 0.6025259145289249 0
0.1404743202813699 0.7984128040751558 0
0.1556438628465731 0.0942704534283591 0
0.3385970907868249 0.5988620511641919 0
0.4316009657853938 0.342638828559772 0
0.4818170659873563 0.2767326113407838 0
0.07959607135851832 0.433726778158971 0
0.48468532954318 0.4054218475804534 0
0.2976024710888517 0.1607955487736203 0
0.4712500911812048 0.6918301563901749 0
0.8492109411479247 0.07095910484907514 0
0.248172118981951 0.5894865577864229 0
0.5603564819893346 0.2809198977173713 0
0.8077485272249423 0.7551334231169377 0
0.4235074650595161 0.7690554716479689 0
0.4433090091147084 0.810731029548162 0
0.4086955297223114 0.8603938379089011 0
0.2429620334601452 0.869209418158464 0
0.2008202096395701 0.7925064234266062 0
0.4353103482122063 0.516484975118553 0
0.1589218272178908 0.1999722171160169 0
0.1627221947589271 0.7075439393240013 0
0.3874940472475803 0.9195112621765653 0
0.4980153994314955 0.6539909840498838 0
0.8396824641473801 0.6797262469676995 0
0.35952541733999 0.8380333965478441 0
0.3163096697810402 0.9271528710874277 0
0.3193347608731187 0.5521717417241633 0
0.1106281088298507 0.70498896166 0
0.6991051188146556 0.4290414668569447 0
0.23368419868937 0.3716554576360214 0
0.07718080253553949 0.922008654294928 0
0.1909601546884738 0.8740304859761853 0
0.125616094562616 0.618745141546698 0
0.8522599836283545 0.201479867683685 0
0.126856309596332 0.5268828419476468 0
0.2217615431123364 0.1527572139088965 0
0.5797871232784269 0.631738055780549 0
0.8491541929749162 0.8181485784274469 0
0.3650767991999433 0.5570837637389943 0
0.7522389094455443 0.06745256516897902 0
0.9282566158935261 0.07130854270092046 0
0.9267949192431124 0.9267949192431122 0
0.1342519766682874 0.7485443239313936 0
0.1785943972784519 0.83203806278938 0
0.07320508075688781 0.07320508075688797 0
0.4913446644759013 0.73239667227462 0
0.810370790311548 0.1415306723194987 0
0.8457981297899526 0.5715957133674139 0
0.6443705207940936 0.1632227857125286 0
0.4569143841108729 0.218802428103029 0
0.2047293304849052 0.4311298579356757 0
0.5558623125099798 0.5835958325173171 0
0.7144238235310052 0.4964255031117111 0
0.4266598790176906 0.4209750585397285 0
0.2759443961217012 0.5559949964026658 0
0.5237928718065216 0.2198321124885893 0
0.5743323370432022 0.1541074811176624 0
0.3900990593853474 0.5217193889945764 0
0.616061646560415 0.5175701125100732 0
0.08706681161607827 0.499088419399944 0
0.1371258242399542 0.8635905585952752 0
0.3509509292571553 0.9616660333159983 0
0.5454967771734264 0.6606100613298326 0
$EndNodes
$Elements
6 466 1 466
1 1 1 10
1 1 8 
2 8 9 
3 9 10 
4 10 11 
5 11 12 
6 12 13 
7 13 14 
8 14 15 
9 15 16 
10 16 2 
1 2 1 10
11 3 17 
12 17 18 
13 18 19 
14 19 20 
15 20 21 
16 21 22 
17 22 23 
18 23 24 
19 24 25 
20 25 1 
1 3 1 10
21 2 26 
22 26 27 
23 27 28 
24 28 29 
25 29 30 
26 30 31 
27 31 32 
28 32 33 
29 33 34 
30 34 4 
1 4 1 10
31 4 35 
32 35 36 
33 36 37 
34 37 38 
35 38 39 
36 39 40 
37 40 41 
38 41 42 
39 42 43 
40 43 3 
2 2 2 36
41 5 44 58 
42 6 49 48 
43 54 53 7 
44 63 68 52 
45 60 67 66 
46 47 59 46 
47 45 61 44 
48 53 63 52 
49 66 68 60 
50 64 67 61 
51 49 62 48 
52 55 63 54 
53 56 60 55 
54 59 64 46 
55 47 62 59 
56 50 62 49 
57 61 67 57 
58 65 66 59 
59 54 63 53 
60 44 61 58 
61 51 65 50 
62 57 67 56 
63 58 61 57 
64 62 65 59 
65 45 64 61 
66 60 63 55 
67 66 67 64 
68 46 64 45 
69 59 66 64 
70 48 62 47 
71 56 67 60 
72 60 68 63 
73 65 68 66 
74 52 68 51 
75 50 65 62 
76 51 68 65 
2 3 2 390
77 149 154 148 
78 132 143 139 
79 165 199 19 
80 77 178 80 
81 120 177 156 
82 149 221 154 
83 141 219 195 
84 143 157 139 
85 86 155 130 
86 112 143 131 
87 112 187 143 
88 157 185 81 
89 162 188 5 
90 130 156 86 
91 195 219 147 
92 19 199 113 
93 78 178 77 
94 5 197 162 
95 101 204 164 
96 131 143 132 
97 112 131 39 
98 108 163 144 
99 148 154 85 
100 95 153 97 
101 153 166 97 
102 90 178 175 
103 136 145 140 
104 157 186 185 
105 104 153 95 
106 156 177 86 
107 175 176 90 
108 110 166 153 
109 107 196 187 
110 162 197 41 
111 139 217 146 
112 18 113 109 
113 106 199 165 
114 80 178 90 
115 208 223 170 
116 184 195 82 
117 155 191 130 
118 139 146 145 
119 131 132 92 
120 132 139 134 
121 157 217 139 
122 144 209 108 
123 40 112 39 
124 139 145 134 
125 142 167 151 
126 165 204 106 
127 18 109 17 
128 98 189 172 
129 100 149 148 
130 147 219 96 
131 38 131 92 
132 156 222 120 
133 113 172 109 
134 36 163 108 
135 31 147 96 
136 82 209 184 
137 19 113 18 
138 140 208 170 
139 145 208 140 
140 173 207 191 
141 164 206 101 
142 173 191 105 
143 134 145 136 
144 96 150 30 
145 132 134 133 
146 164 204 165 
147 96 151 150 
148 42 162 41 
149 100 148 12 
150 175 225 121 
151 39 131 38 
152 136 140 138 
153 133 163 92 
154 23 155 86 
155 144 163 133 
156 118 129 116 
157 13 159 100 
158 27 152 111 
159 132 133 92 
160 178 225 175 
161 38 92 37 
162 82 147 32 
163 110 153 152 
164 20 165 19 
165 11 148 85 
166 33 82 32 
167 159 228 100 
168 150 166 110 
169 29 150 110 
170 134 136 135 
171 85 158 10 
172 31 96 30 
173 23 86 22 
174 11 85 10 
175 40 193 112 
176 110 152 28 
177 129 198 116 
178 13 100 12 
179 220 228 159 
180 29 110 28 
181 104 205 153 
182 166 167 97 
183 14 159 13 
184 32 147 31 
185 140 160 138 
186 105 155 24 
187 30 150 29 
188 82 195 147 
189 27 111 26 
190 12 148 11 
191 24 155 23 
192 22 177 21 
193 134 135 133 
194 130 201 156 
195 130 191 126 
196 10 158 9 
197 36 108 35 
198 187 193 107 
199 28 152 27 
200 151 167 166 
201 151 219 142 
202 81 217 157 
203 25 105 24 
204 138 160 142 
205 154 179 85 
206 136 138 137 
207 159 211 127 
208 78 190 168 
209 43 161 42 
210 85 179 158 
211 92 163 37 
212 33 169 82 
213 9 173 8 
214 37 163 36 
215 118 168 129 
216 90 183 89 
217 151 166 150 
218 34 169 33 
219 136 137 135 
220 153 205 152 
221 123 201 130 
222 138 142 141 
223 89 183 93 
224 158 173 9 
225 121 168 118 
226 140 170 160 
227 124 125 122 
228 122 175 121 
229 119 121 118 
230 193 197 107 
231 93 128 103 
232 177 231 21 
233 142 219 141 
234 86 177 22 
235 138 141 137 
236 143 186 157 
237 146 234 145 
238 53 69 7 
239 14 211 159 
240 21 164 20 
241 125 175 122 
242 95 97 91 
243 80 90 89 
244 176 183 90 
245 97 200 91 
246 161 162 42 
247 123 130 126 
248 117 118 116 
249 135 144 133 
250 181 218 211 
251 16 181 15 
252 52 171 53 
253 119 122 121 
254 124 154 125 
255 3 202 43 
256 167 200 97 
257 198 226 116 
258 103 104 95 
259 83 84 79 
260 17 202 3 
261 103 127 104 
262 93 103 95 
263 51 174 52 
264 190 229 168 
265 102 114 87 
266 93 183 128 
267 117 119 118 
268 172 214 98 
269 93 95 91 
270 69 99 72 
271 50 70 51 
272 123 126 124 
273 2 212 16 
274 74 78 77 
275 125 176 175 
276 123 124 122 
277 80 89 83 
278 89 93 91 
279 111 218 181 
280 4 213 34 
281 35 213 4 
282 89 91 83 
283 75 223 208 
284 49 182 50 
285 26 212 2 
286 119 123 122 
287 105 191 155 
288 1 216 25 
289 8 216 1 
290 127 220 159 
291 115 116 114 
292 80 83 79 
293 54 81 55 
294 6 87 49 
295 69 71 7 
296 137 184 135 
297 77 80 79 
298 124 179 154 
299 7 180 54 
300 169 209 82 
301 76 230 170 
302 74 77 76 
303 142 224 167 
304 126 179 124 
305 55 185 56 
306 77 79 76 
307 53 171 69 
308 72 74 73 
309 74 76 73 
310 69 72 71 
311 135 184 144 
312 181 211 15 
313 56 88 57 
314 109 202 17 
315 164 165 20 
316 72 73 71 
317 115 117 116 
318 120 231 177 
319 205 218 111 
320 152 205 111 
321 46 98 47 
322 52 174 171 
323 45 189 46 
324 44 94 45 
325 158 207 173 
326 141 195 137 
327 73 75 71 
328 180 194 146 
329 69 171 99 
330 108 209 169 
331 41 233 40 
332 47 192 48 
333 74 190 78 
334 102 120 115 
335 57 196 58 
336 70 174 51 
337 137 195 184 
338 102 115 114 
339 114 182 87 
340 48 106 6 
341 79 230 76 
342 154 221 125 
343 99 190 72 
344 170 223 76 
345 50 182 70 
346 91 200 83 
347 116 226 114 
348 109 232 202 
349 72 190 74 
350 5 188 44 
351 211 218 127 
352 103 220 127 
353 189 215 172 
354 119 201 123 
355 160 230 84 
356 168 229 129 
357 87 182 49 
358 186 187 88 
359 70 198 174 
360 58 107 5 
361 54 180 81 
362 100 228 149 
363 173 216 8 
364 81 185 55 
365 101 102 87 
366 160 224 142 
367 84 224 160 
368 202 232 161 
369 6 101 87 
370 170 230 160 
371 227 228 128 
372 83 200 84 
373 71 194 7 
374 56 185 88 
375 34 213 169 
376 96 219 151 
377 145 234 208 
378 117 201 119 
379 161 203 162 
380 43 202 161 
381 183 227 128 
382 127 218 104 
383 111 212 26 
384 15 211 14 
385 108 213 35 
386 102 206 120 
387 7 194 180 
388 185 186 88 
389 121 225 168 
390 25 216 105 
391 76 223 73 
392 46 189 98 
393 206 231 120 
394 94 189 45 
395 88 196 57 
396 75 194 71 
397 169 213 108 
398 78 225 178 
399 105 216 173 
400 98 192 47 
401 191 207 126 
402 21 231 164 
403 193 233 197 
404 112 193 187 
405 200 224 84 
406 162 203 188 
407 179 207 158 
408 174 210 171 
409 187 196 88 
410 126 207 179 
411 48 192 106 
412 44 188 94 
413 101 206 102 
414 181 212 111 
415 146 217 180 
416 117 222 201 
417 120 222 115 
418 84 230 79 
419 184 209 144 
420 16 212 181 
421 104 218 205 
422 113 214 172 
423 128 220 103 
424 98 214 192 
425 192 199 106 
426 58 196 107 
427 171 210 99 
428 107 197 5 
429 168 225 78 
430 188 203 94 
431 198 210 174 
432 128 228 220 
433 167 224 200 
434 125 221 176 
435 149 228 227 
436 129 210 198 
437 182 226 70 
438 201 222 156 
439 176 227 183 
440 115 222 117 
441 192 214 199 
442 172 232 109 
443 6 204 101 
444 106 204 6 
445 129 229 210 
446 40 233 193 
447 73 223 75 
448 194 234 146 
449 70 226 198 
450 180 217 81 
451 210 229 99 
452 99 229 190 
453 114 226 182 
454 197 233 41 
455 94 215 189 
456 203 215 94 
457 215 232 172 
458 208 234 75 
459 221 227 176 
460 75 234 194 
461 199 214 113 
462 149 227 221 
463 164 231 206 
464 161 232 203 
465 203 232 215 
466 143 187 186 
$EndElements
