$MeshFormat
4.1 0 8
$EndMeshFormat
$PhysicalNames
3
1 101 "outer_boundary"
2 1 "material_1"
2 2 "material_2"
$EndPhysicalNames
$Entities
5 5 2 0
1 0 0 0 0 
2 1 0 0 0 
3 0 1 0 0 
4 1 1 0 0 
5 0.8782541019511941 0.7725237483774718 0 0 
1 -9.999999994736442e-08 -1e-07 -1e-07 1.0000001 1e-07 1e-07 1 101 2 1 -2 
2 -1e-07 -9.999999994736442e-08 -1e-07 1e-07 1.0000001 1e-07 1 101 2 3 -1 
3 0.9999999000000001 -9.999999994736442e-08 -1e-07 1.0000001 1.0000001 1e-07 1 101 2 2 -4 
4 -9.999999994736442e-08 0.9999999000000001 -1e-07 1.0000001 1.0000001 1e-07 1 101 2 4 -3 
5 0.6654744592490727 0.6661338770264111 -1e-07 0.8782542019511941 0.8789136197285325 1e-07 0 2 5 -5 
2 0.6654744592490727 0.6661338770264111 -1e-07 0.8782542019511941 0.8789136197285325 1e-07 1 2 1 5 
3 -9.999999994736442e-08 -9.999999994736442e-08 -1e-07 1.0000001 1.0000001 1e-07 1 1 5 1 3 4 2 -5 
$EndEntities
$Nodes
12 213 1 213
0 1 0 1
1
0 0 0
0 2 0 1
2
1 0 0
0 3 0 1
3
0 1 0
0 4 0 1
4
1 1 0
0 5 0 1
5
0.8782541019511941 0.7725237483774718 0
1 1 0 9
6
7
8
9
10
11
12
13
14
0.09999999999999996 0 0
0.1999999999999999 0 0
0.3000000000000001 0 0
0.4000000000000004 0 0
0.5000000000000003 0 0
0.5999999999999999 0 0
0.6999999999999995 0 0
0.7999999999999992 0 0
0.899999999999999 0 0
1 2 0 9
15
16
17
18
19
20
21
22
23
0 0.9 0
0 0.8 0
0 0.7 0
0 0.5999999999999996 0
0 0.4999999999999997 0
0 0.4000000000000001 0
0 0.3000000000000005 0
0 0.2000000000000008 0
0 0.100000000000001 0
1 3 0 9
24
25
26
27
28
29
30
31
32
1 0.09999999999999996 0
1 0.1999999999999999 0
1 0.3000000000000001 0
1 0.4000000000000004 0
1 0.5000000000000003 0
1 0.5999999999999999 0
1 0.6999999999999995 0
1 0.7999999999999992 0
1 0.899999999999999 0
1 4 0 9
33
34
35
36
37
38
39
40
41
0.9 1 0
0.8 1 0
0.7 1 0
0.5999999999999996 1 0
0.4999999999999997 1 0
0.4000000000000001 1 0
0.3000000000000005 1 0
0.2000000000000008 1 0
0.100000000000001 1 0
1 5 0 12
42
43
44
45
46
47
48
49
50
51
52
53
0.8660677947107973 0.8219655403927482 0
0.8323006091174592 0.86008081369551 0
0.784688200451913 0.8781378185109328 0
0.7341379977477092 0.8719999126463011 0
0.6922304432483984 0.8430732163654175 0
0.6685660526489923 0.7979844871817522 0
0.6685660526489923 0.7470630095731913 0
0.6922304432483986 0.7019742803895259 0
0.7341379977477094 0.6730475841086425 0
0.7846882004519132 0.6669096782440109 0
0.8323006091174593 0.6849666830594338 0
0.8660677947107974 0.7230819563621956 0
2 2 0 15
54
55
56
57
58
59
60
61
62
63
64
65
66
67
68
0.7194462328461063 0.8000348883494215 0
0.8299819551562099 0.7584957106264275 0
0.7647286815046198 0.7137563908846201 0
0.7931674729034695 0.8311471274743658 0
0.7194462328461064 0.7450126084055221 0
0.7282421609657519 0.8357213715550326 0
0.7584238398297503 0.8107105021540225 0
0.7935923768874176 0.7839275067803712 0
0.7579060711066796 0.766180866589285 0
0.8279737800723252 0.8064834186460533 0
0.7936827398488749 0.7487349611022849 0
0.8119083301316458 0.7159908967131621 0
0.7276358388367086 0.7084477159470777 0
0.6940061427475493 0.7725237483774717 0
0.7626082175540065 0.848754697670925 0
2 3 0 145
69
70
71
72
73
74
75
76
77
78
79
80
81
82
83
84
85
86
87
88
89
90
91
92
93
94
95
96
97
98
99
100
101
102
103
104
105
106
107
108
109
110
111
112
113
114
115
116
117
118
119
120
121
122
123
124
125
126
127
128
129
130
131
132
133
134
135
136
137
138
139
140
141
142
143
144
145
146
147
148
149
150
151
152
153
154
155
156
157
158
159
160
161
162
163
164
165
166
167
168
169
170
171
172
173
174
175
176
177
178
179
180
181
182
183
184
185
186
187
188
189
190
191
192
193
194
195
196
197
198
199
200
201
202
203
204
205
206
207
208
209
210
211
212
213
0.6873928553575346 0.6503865501715471 0
0.08187648410878595 0.4501063941177902 0
0.4604533764671781 0.08938443127253748 0
0.3476413918952401 0.9142161277230607 0
0.923723043390022 0.3531847594694146 0
0.6247934436025249 0.7809340100962976 0
0.6445279714809172 0.08602958797143634 0
0.08660254037844389 0.6499999999999997 0
0.08773872763081547 0.2509403140171667 0
0.8240327487786623 0.6312620010100671 0
0.2518771229505521 0.06788052137370637 0
0.7219721676858303 0.6205095719780601 0
0.6793197888415166 0.5964099554018467 0
0.6354581417144999 0.6293195223188197 0
0.6266993491559354 0.5712886719393042 0
0.5772318276931143 0.6089655360184775 0
0.5686488420493339 0.5445548815902354 0
0.5148757819739272 0.5855120189970431 0
0.5047530967620567 0.5155759217848958 0
0.6287800720485174 0.5094070623264149 0
0.4467892081126371 0.5596610765919806 0
0.4368768251887422 0.4852663122753408 0
0.4987064877522838 0.4400930645419142 0
0.4267468417997846 0.406891558101277 0
0.7341472839675187 0.565584664742582 0
0.3756161198973401 0.5321507405651571 0
0.3869751784664886 0.6095637370481891 0
0.4942060364827611 0.3599699547978065 0
0.4172462927482801 0.3252382830936588 0
0.5277887301320318 0.6477710339164907 0
0.3497457814261645 0.3749934566879456 0
0.3118596219248515 0.5812795440073772 0
0.3238401643016698 0.6627791662668765 0
0.644934856878588 0.8403312614208918 0
0.5825112851113998 0.8191950823881315 0
0.8760274078489242 0.6535591173633123 0
0.3389200941151531 0.2897442419708081 0
0.2660452488184272 0.3407728881650675 0
0.4852501645549689 0.2757894646917334 0
0.564123240061023 0.3123035075427807 0
0.1529027616466844 0.9219845221764371 0
0.8499999999999992 0.08660254037844362 0
0.8681077468290956 0.591024636431827 0
0.4023500912731544 0.6918683140974584 0
0.3383229379355754 0.7445499793144097 0
0.4115987273830337 0.7862652945715474 0
0.2573243322761729 0.7173524434770882 0
0.2820287198736159 0.4261072011012086 0
0.2561408877413744 0.2508583270694398 0
0.555268354338129 0.2256743721262255 0
0.6341399357271711 0.2627474595318166 0
0.6426008530486742 0.3487588142900263 0
0.7126311334644999 0.3007396145068727 0
0.7228848052386047 0.3776653932408994 0
0.5661221798727796 0.7625603003576438 0
0.3344116752701556 0.198814468023815 0
0.2738059628144676 0.7981939589321572 0
0.1810823450059631 0.7738434400720176 0
0.607570966958946 0.7243449215635933 0
0.8807006789784388 0.8689742091604047 0
0.7102144365108864 0.2155832845946929 0
0.7878752372906479 0.252263358088006 0
0.5208273745281652 0.8065576729461292 0
0.5410426444471413 0.8747129541668102 0
0.4668791103683226 0.8521662377571169 0
0.6852062295201753 0.8883089522893943 0
0.212008766427625 0.3904176566964298 0
0.2154260219236287 0.4693953412204143 0
0.5009760115642293 0.7434194729045969 0
0.7477812359298963 0.9237412611383314 0
0.8216968802745483 0.9111573057253413 0
0.8055267498019801 0.5727380322293484 0
0.8495663226350788 0.5225837616415241 0
0.7783002661171954 0.5098876150074976 0
0.8234594967241826 0.4575425418469441 0
0.9128641771325551 0.454451311297328 0
0.7034855158537789 0.4999329337595612 0
0.6140519591388149 0.902878717634039 0
0.4759740669235941 0.1878597389120084 0
0.5520648841567314 0.137363502561403 0
0.9321935824436847 0.746710617925295 0
0.2517056907971587 0.9253592462254165 0
0.9242506626896262 0.2544444411642984 0
0.07940475786599011 0.5501939093751198 0
0.160853616528096 0.5962622856384711 0
0.3448328221200006 0.09403127316895332 0
0.07863292776826797 0.3501317094739773 0
0.1725029181187154 0.312505048416953 0
0.1698136900320389 0.2031028924805409 0
0.08468136993738057 0.15174377617066 0
0.7491671247222241 0.07910678125173426 0
0.6549911014260531 0.4371047387680675 0
0.5757839326534714 0.398975890518604 0
0.08789241704633932 0.7425167154760706 0
0.9155749824203215 0.8089918383154178 0
0.7898125918919521 0.3384152854102445 0
0.5908117723014694 0.666178940386473 0
0.9075884189070995 0.1559646003539002 0
0.9271699276013635 0.5469436436895261 0
0.4593558042195336 0.6302193352171832 0
0.3654877293811689 0.454946254581589 0
0.100703645022206 0.8446711799856237 0
0.6327762945839261 0.1778439041821961 0
0.408696941232859 0.2384645655475046 0
0.3498131275076752 0.8272105067601873 0
0.244707347447901 0.6335378747167862 0
0.1697437664471528 0.6855854598967388 0
0.8000325915627078 0.162343340852923 0
0.1604545557979464 0.09178107042654821 0
0.5614359580859776 0.4779736373203528 0
0.9210331768109297 0.6136774208526308 0
0.3032391979600844 0.5041583247173971 0
0.4035896556548275 0.1593195528729751 0
0.7499665730533478 0.4470194399206139 0
0.9338608017752652 0.6768597067784883 0
0.2530057866215171 0.1565306472368316 0
0.6470050387049735 0.686544537400525 0
0.2291153151010979 0.5476120792220442 0
0.4281247193274335 0.9260271588064612 0
0.5451042493647364 0.7052024166301225 0
0.7729139572968293 0.6204842615778813 0
0.5541371305293497 0.9398875872108275 0
0.8841052332466859 0.9341559441197372 0
0.6743072380978519 0.546744291354294 0
0.8579217123156071 0.3026337916793972 0
0.4781860650728288 0.6881509148028628 0
0.9463984725960988 0.8641263325244 0
0.2100079143046565 0.8554080853188207 0
0.4980367209344494 0.9185587875882432 0
0.55 0.05949216880527336 0
0.8499186915802799 0.3844930909004672 0
0.07461548879818192 0.07461548879818214 0
0.8545357343534562 0.2225661615411459 0
0.926794919243112 0.07320508075688781 0
0.1386060848220259 0.50103910503182 0
0.07320508075688797 0.9267949192431122 0
0.7894236298999694 0.4008820263955763 0
0.7004421852897224 0.1396652183076026 0
0.4028794717305296 0.8645299124204837 0
0.6694078849177771 0.942985786212353 0
0.2930857218283879 0.866192807618546 0
0.9523487018351446 0.9499999999999995 0
0.4695955624513139 0.7838964189140676 0
0.1405835757533224 0.4061339893161713 0
0.450168375727152 0.7349747769354162 0
$EndNodes
$Elements
6 424 1 424
1 1 1 10
1 1 6 
2 6 7 
3 7 8 
4 8 9 
5 9 10 
6 10 11 
7 11 12 
8 12 13 
9 13 14 
10 14 2 
1 2 1 10
11 3 15 
12 15 16 
13 16 17 
14 17 18 
15 18 19 
16 19 20 
17 20 21 
18 21 22 
19 22 23 
20 23 1 
1 3 1 10
21 2 24 
22 24 25 
23 25 26 
24 26 27 
25 27 28 
26 28 29 
27 29 30 
28 30 31 
29 31 32 
30 32 4 
1 4 1 10
31 4 33 
32 33 34 
33 34 35 
34 35 36 
35 36 37 
36 37 38 
37 38 39 
38 39 40 
39 40 41 
40 41 3 
2 2 2 41
41 51 65 56 
42 52 65 51 
43 5 63 55 
44 42 63 5 
45 56 62 58 
46 47 54 46 
47 5 55 53 
48 44 57 43 
49 49 58 48 
50 51 56 50 
51 56 65 64 
52 57 63 43 
53 43 63 42 
54 58 62 54 
55 56 64 62 
56 54 67 58 
57 58 66 56 
58 53 65 52 
59 55 65 53 
60 55 63 61 
61 49 66 58 
62 58 67 48 
63 45 68 44 
64 56 66 50 
65 54 59 46 
66 50 66 49 
67 47 67 54 
68 44 68 57 
69 48 67 47 
70 46 59 45 
71 54 62 60 
72 60 62 61 
73 60 61 57 
74 62 64 61 
75 61 63 57 
76 61 64 55 
77 57 68 60 
78 60 68 59 
79 54 60 59 
80 64 65 55 
81 59 68 45 
2 3 2 343
82 144 199 73 
83 102 146 103 
84 177 184 157 
85 27 144 73 
86 124 184 154 
87 126 196 170 
88 31 163 149 
89 103 146 132 
90 160 182 145 
91 88 178 160 
92 79 184 177 
93 126 170 162 
94 48 185 49 
95 154 184 79 
96 160 178 161 
97 104 183 53 
98 153 203 186 
99 28 144 27 
100 31 149 30 
101 186 203 136 
102 114 211 133 
103 50 189 51 
104 88 160 145 
105 71 148 147 
106 170 196 109 
107 122 182 160 
108 52 104 53 
109 139 191 34 
110 203 212 136 
111 136 212 135 
112 138 208 134 
113 158 177 157 
114 123 188 127 
115 138 139 34 
116 193 199 164 
117 53 183 149 
118 127 185 48 
119 140 189 93 
120 35 138 34 
121 128 195 191 
122 47 102 74 
123 135 156 106 
124 133 207 114 
125 127 188 165 
126 75 171 148 
127 96 161 91 
128 102 103 74 
129 80 189 50 
130 162 175 126 
131 148 198 75 
132 106 156 117 
133 76 175 162 
134 108 161 96 
135 154 181 124 
136 93 189 80 
137 123 127 74 
138 93 142 140 
139 71 198 148 
140 39 150 72 
141 199 205 164 
142 166 176 110 
143 95 168 112 
144 28 167 144 
145 23 158 22 
146 70 152 19 
147 129 176 130 
148 71 154 9 
149 27 73 26 
150 20 155 70 
151 39 72 38 
152 35 208 138 
153 142 143 141 
154 152 153 76 
155 166 201 176 
156 29 183 179 
157 73 151 26 
158 140 142 141 
159 121 122 120 
160 120 161 108 
161 12 159 75 
162 129 206 176 
163 10 71 9 
164 161 178 91 
165 22 158 77 
166 20 70 19 
167 122 160 120 
168 135 212 156 
169 18 152 76 
170 77 156 155 
171 109 150 40 
172 40 150 39 
173 119 120 108 
174 8 154 79 
175 76 162 17 
176 12 75 11 
177 77 155 21 
178 18 76 17 
179 147 181 71 
180 19 152 18 
181 112 114 113 
182 9 154 8 
183 21 155 20 
184 110 159 13 
185 95 112 101 
186 156 157 117 
187 145 192 88 
188 121 164 122 
189 77 158 157 
190 77 157 156 
191 13 159 12 
192 34 191 33 
193 17 162 16 
194 14 110 13 
195 26 151 25 
196 25 166 24 
197 116 180 136 
198 46 134 102 
199 8 79 7 
200 30 183 29 
201 22 77 21 
202 73 199 193 
203 41 109 40 
204 152 203 153 
205 99 169 116 
206 168 194 112 
207 29 167 28 
208 119 121 120 
209 156 212 155 
210 116 136 135 
211 153 175 76 
212 160 161 120 
213 195 210 191 
214 42 163 128 
215 151 166 25 
216 99 116 106 
217 16 170 15 
218 103 123 74 
219 128 139 43 
220 84 98 86 
221 107 108 96 
222 112 113 101 
223 38 187 37 
224 149 163 5 
225 93 145 142 
226 116 135 106 
227 10 198 71 
228 149 183 30 
229 129 130 121 
230 118 119 108 
231 117 124 105 
232 7 177 6 
233 162 170 16 
234 107 147 118 
235 130 164 121 
236 49 69 50 
237 92 99 97 
238 97 107 96 
239 89 95 94 
240 107 118 108 
241 84 165 98 
242 114 173 113 
243 180 186 136 
244 119 129 121 
245 92 96 91 
246 90 91 87 
247 75 198 11 
248 99 106 105 
249 146 190 132 
250 114 207 173 
251 147 148 118 
252 92 97 96 
253 134 146 102 
254 45 138 134 
255 95 101 100 
256 113 125 115 
257 99 105 97 
258 106 117 105 
259 89 94 90 
260 82 185 165 
261 98 168 86 
262 125 126 115 
263 44 139 138 
264 89 168 95 
265 90 92 91 
266 95 100 94 
267 110 176 159 
268 124 172 105 
269 69 82 81 
270 1 200 23 
271 6 200 1 
272 89 90 87 
273 119 171 129 
274 107 172 147 
275 113 115 101 
276 187 197 37 
277 118 171 119 
278 47 74 48 
279 165 185 127 
280 79 177 7 
281 92 169 99 
282 86 89 87 
283 97 172 107 
284 101 174 100 
285 94 169 90 
286 148 171 118 
287 115 175 174 
288 71 181 154 
289 90 169 92 
290 142 182 143 
291 82 165 84 
292 86 87 85 
293 169 180 116 
294 115 174 101 
295 105 172 97 
296 2 202 14 
297 24 202 2 
298 144 167 141 
299 3 204 41 
300 15 204 3 
301 86 168 89 
302 131 137 123 
303 113 173 125 
304 84 86 85 
305 126 175 115 
306 82 83 81 
307 69 81 80 
308 146 208 36 
309 69 80 50 
310 176 206 159 
311 85 88 83 
312 174 175 153 
313 31 195 163 
314 172 181 147 
315 78 140 111 
316 82 84 83 
317 36 190 146 
318 143 144 141 
319 84 85 83 
320 124 181 172 
321 150 209 72 
322 74 127 48 
323 51 78 52 
324 72 187 38 
325 91 178 87 
326 103 131 123 
327 70 212 203 
328 94 180 169 
329 100 180 94 
330 140 141 111 
331 81 93 80 
332 128 191 139 
333 109 196 150 
334 70 203 152 
335 103 132 131 
336 163 195 128 
337 87 178 85 
338 23 200 158 
339 32 195 31 
340 141 167 111 
341 132 133 131 
342 46 102 47 
343 73 193 151 
344 188 194 98 
345 166 202 24 
346 157 184 117 
347 155 212 70 
348 112 213 114 
349 29 179 167 
350 164 205 122 
351 137 194 188 
352 85 178 88 
353 117 184 124 
354 100 186 180 
355 42 128 43 
356 130 193 164 
357 145 182 142 
358 37 190 36 
359 69 185 82 
360 159 206 75 
361 174 186 100 
362 53 149 5 
363 88 192 83 
364 49 185 69 
365 137 188 123 
366 111 179 104 
367 36 208 35 
368 93 192 145 
369 78 104 52 
370 170 204 15 
371 78 189 140 
372 153 186 174 
373 5 163 42 
374 151 201 166 
375 45 134 46 
376 165 188 98 
377 44 138 45 
378 78 111 104 
379 177 200 6 
380 81 192 93 
381 43 139 44 
382 83 192 81 
383 4 210 32 
384 11 198 10 
385 33 210 4 
386 75 206 171 
387 14 202 110 
388 125 209 196 
389 110 202 166 
390 133 211 131 
391 171 206 129 
392 41 204 109 
393 98 194 168 
394 167 179 111 
395 130 201 193 
396 125 196 126 
397 173 207 72 
398 109 204 170 
399 196 209 150 
400 158 200 177 
401 176 201 130 
402 179 183 104 
403 143 205 199 
404 51 189 78 
405 72 209 173 
406 194 213 112 
407 122 205 182 
408 182 205 143 
409 143 199 144 
410 37 197 190 
411 193 201 151 
412 132 197 133 
413 133 197 187 
414 173 209 125 
415 32 210 195 
416 187 207 133 
417 131 211 137 
418 190 197 132 
419 72 207 187 
420 134 208 146 
421 191 210 33 
422 137 213 194 
423 211 213 137 
424 114 213 211 
$EndElements
