$MeshFormat
4.1 0 8
$EndMeshFormat
$PhysicalNames
3
1 101 "outer_boundary"
2 1 "material_1"
2 2 "material_2"
$EndPhysicalNames
$Entities
7 7 2 0
1 0 0 0 0 
2 1 0 0 0 
3 0 1 0 0 
4 1 1 0 0 
5 0.481394603348545 0.8458288451799856 0 0 
6 0.4862438407812555 0.5679788117640531 0 0 
7 0.724444409445453 0.711103391277729 0 0 
1 -9.999999994736442e-08 -1e-07 -1e-07 1.0000001 1e-07 1e-07 1 101 2 1 -2 
2 -1e-07 -9.999999994736442e-08 -1e-07 1e-07 1.0000001 1e-07 1 101 2 3 -1 
3 0.9999999000000001 -9.999999994736442e-08 -1e-07 1.0000001 1.0000001 1e-07 1 101 2 2 -4 
4 -9.999999994736442e-08 0.9999999000000001 -1e-07 1.0000001 1.0000001 1e-07 1 101 2 4 -3 
5 0.481394503348545 0.5679787117640531 -1e-07 0.4862439407812555 0.8458289451799855 1e-07 0 2 5 -6 
6 0.4862437407812555 0.5679787117640531 -1e-07 0.7244445094454529 0.711103491277729 1e-07 0 2 6 -7 
7 0.481394503348545 0.7111032912777291 -1e-07 0.7244445094454529 0.8458289451799855 1e-07 0 2 7 -5 
2 0.481394503348545 0.5679787117640531 -1e-07 0.7244445094454529 0.8458289451799855 1e-07 1 2 3 5 6 7 
3 -9.999999994736442e-08 -9.999999994736442e-08 -1e-07 1.0000001 1.0000001 1e-07 1 1 7 1 3 4 2 -5 -7 -6 
$EndEntities
$Nodes
16 246 1 246
0 1 0 1
1
0 0 0
0 2 0 1
2
1 0 0
0 3 0 1
3
0 1 0
0 4 0 1
4
1 1 0
0 5 0 1
5
0.481394603348545 0.8458288451799856 0
0 6 0 1
6
0.4862438407812555 0.5679788117640531 0
0 7 0 1
7
0.724444409445453 0.711103391277729 0
1 1 0 9
8
9
10
11
12
13
14
15
16
0.09999999999999996 0 0
0.1999999999999999 0 0
0.3000000000000001 0 0
0.4000000000000004 0 0
0.5000000000000003 0 0
0.5999999999999999 0 0
0.6999999999999995 0 0
0.7999999999999992 0 0
0.899999999999999 0 0
1 2 0 9
17
18
19
20
21
22
23
24
25
0 0.9 0
0 0.8 0
0 0.7 0
0 0.5999999999999996 0
0 0.4999999999999997 0
0 0.4000000000000001 0
0 0.3000000000000005 0
0 0.2000000000000008 0
0 0.100000000000001 0
1 3 0 9
26
27
28
29
30
31
32
33
34
1 0.09999999999999996 0
1 0.1999999999999999 0
1 0.3000000000000001 0
1 0.4000000000000004 0
1 0.5000000000000003 0
1 0.5999999999999999 0
1 0.6999999999999995 0
1 0.7999999999999992 0
1 0.899999999999999 0
1 4 0 9
35
36
37
38
39
40
41
42
43
0.9 1 0
0.8 1 0
0.7 1 0
0.5999999999999996 1 0
0.4999999999999997 1 0
0.4000000000000001 1 0
0.3000000000000005 1 0
0.2000000000000008 1 0
0.100000000000001 1 0
1 5 0 5
44
45
46
47
48
0.4822028095873301 0.7995205062773302 0
0.4830110158261152 0.7532121673746748 0
0.4838192220649002 0.7069038284720193 0
0.4846274283036853 0.6605954895693639 0
0.4854356345424704 0.6142871506667084 0
1 6 0 5
49
50
51
52
53
0.5259439355586217 0.5918329083496657 0
0.565644030335988 0.6156870049352784 0
0.6053441251133543 0.6395411015208911 0
0.6450442198907205 0.6633951981065037 0
0.6847443146680868 0.6872492946921165 0
1 7 0 5
54
55
56
57
58
0.6839361084293016 0.7335576335947718 0
0.6434278074131503 0.7560118759118145 0
0.6029195063969989 0.7784661182288574 0
0.5624112053808477 0.8009203605459001 0
0.5219029043646962 0.8233746028629428 0
2 2 0 10
59
60
61
62
63
64
65
66
67
68
0.6037277126357841 0.732157779326202 0
0.5243275230810516 0.6844495861549765 0
0.5227111106034814 0.7770662639602876 0
0.6442360136519355 0.7097035370091591 0
0.5251357293198367 0.6381412472523211 0
0.5235193168422665 0.730757925057632 0
0.6045359188745693 0.6858494404235465 0
0.5640276178584178 0.7083036827405892 0
0.564835824097203 0.6619953438379338 0
0.5632194116196327 0.7546120216432447 0
2 3 0 178
69
70
71
72
73
74
75
76
77
78
79
80
81
82
83
84
85
86
87
88
89
90
91
92
93
94
95
96
97
98
99
100
101
102
103
104
105
106
107
108
109
110
111
112
113
114
115
116
117
118
119
120
121
122
123
124
125
126
127
128
129
130
131
132
133
134
135
136
137
138
139
140
141
142
143
144
145
146
147
148
149
150
151
152
153
154
155
156
157
158
159
160
161
162
163
164
165
166
167
168
169
170
171
172
173
174
175
176
177
178
179
180
181
182
183
184
185
186
187
188
189
190
191
192
193
194
195
196
197
198
199
200
201
202
203
204
205
206
207
208
209
210
211
212
213
214
215
216
217
218
219
220
221
222
223
224
225
226
227
228
229
230
231
232
233
234
235
236
237
238
239
240
241
242
243
244
245
246
0.5288894085964156 0.5455966563482104 0
0.4860684736256603 0.5194759031960636 0
0.5321552545498975 0.4956279971134027 0
0.6396797544893174 0.6187980995198036 0
0.4857379580852494 0.4674585238642287 0
0.4530672316588296 0.6372489545298461 0
0.5322367535366221 0.4397017859734097 0
0.4421561814454149 0.7727562451046435 0
0.4395326323983796 0.494998987739047 0
0.4358141822555337 0.4401356917313148 0
0.384864862863648 0.4709055084397083 0
0.3824211055545835 0.4076580908438655 0
0.9133974596215562 0.3500000000000003 0
0.6435934753604875 0.08117144971404833 0
0.08595958528162878 0.6331501890405818 0
0.5815828200863072 0.4721906047999403 0
0.58306434820278 0.4104210630847318 0
0.2459732550084394 0.08277195803866877 0
0.7269459595425353 0.6588731937385333 0
0.6376788749584076 0.4472930307894532 0
0.6407549477049987 0.3809295048120196 0
0.5827116994096008 0.3443251431606453 0
0.326920394628331 0.4397686379949746 0
0.3300278032500336 0.5081141778947993 0
0.3260970133057677 0.3706515307818403 0
0.396585469273609 0.3359160526602933 0
0.7245754165715288 0.758470882807841 0
0.6432456486783933 0.8034496281514025 0
0.2490099244604045 0.912729662875307 0
0.7704793997861255 0.7347108535007532 0
0.2677604220738196 0.4756196278824131 0
0.644790633613489 0.311261595459433 0
0.5785648946112807 0.2541540309765761 0
0.6971881249638868 0.4177207534822016 0
0.9300991898463298 0.5422141366419519 0
0.272257484155066 0.5465266430026972 0
0.770057486408434 0.7910920247835869 0
0.4446121324226263 0.08538289243013492 0
0.07469356537956207 0.2609963322032347 0
0.326855682051593 0.2958996852482297 0
0.6921878683000153 0.4861593237869045 0
0.7538879723423628 0.456649395920132 0
0.2049422166539897 0.5148808264775079 0
0.2013775418871535 0.4375380024694699 0
0.7460762768316725 0.5250322500480276 0
0.8235419606808059 0.7626143318922619 0
0.8213502966753035 0.699076280428652 0
0.8239310988192619 0.8277740045248306 0
0.5616029991420625 0.8472286994485555 0
0.8486617816598996 0.09715081149724103 0
0.3908900714958654 0.2540205232216937 0
0.7630020268755335 0.3862373149036665 0
0.3344418464628472 0.575766828435784 0
0.2781026451625483 0.6158771682948799 0
0.3485601428754339 0.6435434212953949 0
0.2845485683818668 0.6844328369520445 0
0.08823373974128063 0.8432417647932495 0
0.3452738873674451 0.7129266330445718 0
0.2890853301686766 0.7517101942536357 0
0.2218138706513335 0.7243395255133281 0
0.6534281642073567 0.2265038767150132 0
0.5207794459633051 0.3064708746137852 0
0.5027026726366619 0.2332745509383652 0
0.7538093413652542 0.8551664152094354 0
0.3303149474212817 0.2153061894506163 0
0.2538104434334463 0.2574991190863012 0
0.7135756902900425 0.2768859103803271 0
0.7279565468817339 0.1910415304595344 0
0.7882648798847836 0.2415322892025503 0
0.3501515071272785 0.7734976708547094 0
0.6532147292924302 0.9207269592927175 0
0.8376536084961472 0.4276063117570315 0
0.1348432702524393 0.479538562338132 0
0.1327008408979919 0.3965033534501766 0
0.2304503981575244 0.7904128904369517 0
0.8806011604317606 0.7279605303711096 0
0.8729537473519224 0.6564045871252429 0
0.8110090915087483 0.6284669285083891 0
0.6854721176720101 0.5474136938117424 0
0.7266233215988198 0.5956567678831383 0
0.2034180173708592 0.341624042146264 0
0.1542977923399128 0.7677733409872541 0
0.3961865132663993 0.1672602454500934 0
0.6321897752466351 0.5082204096598031 0
0.9257638376667653 0.4535241879067609 0
0.4477561451142461 0.9338972928463244 0
0.3544191334725953 0.9155110841321054 0
0.4202656919624675 0.8644641363279404 0
0.1413016755896423 0.561818778240804 0
0.5339317098144356 0.923164236109657 0
0.9134685382687029 0.8480600493947462 0
0.3087301345563275 0.8588538340883093 0
0.5429447216071459 0.09570900642644342 0
0.3474834138755264 0.08514958870204015 0
0.3889453120554002 0.6823522961192918 0
0.8194688908106613 0.9034852976245711 0
0.603761835026402 0.1647706586171612 0
0.3965676015331689 0.5405876207689622 0
0.3861447118063817 0.5976420542053785 0
0.7400801481877243 0.09747018563026422 0
0.9221608417146092 0.2485160651518348 0
0.1516720942577561 0.0825184507206369 0
0.196571324835786 0.1628890527650863 0
0.1457139803095786 0.9206694032665347 0
0.0920302666634335 0.1586385148177206 0
0.5793725632637018 0.527235679297412 0
0.6239791839651552 0.5678834033483409 0
0.4013549743512335 0.7343623479244299 0
0.9254225042268902 0.1538620161143444 0
0.2132199704142076 0.5870884938447635 0
0.4375339493515812 0.6841055181904203 0
0.4395373994093773 0.5911158777907837 0
0.5276972869966521 0.3772998095388641 0
0.4701651371828245 0.3503971800355317 0
0.8312401938871689 0.3487106488728682 0
0.4780094081005076 0.1627918558032235 0
0.6840148265060262 0.7813601468284247 0
0.6874452469490158 0.8319674929240051 0
0.4450376036097448 0.8161282138149235 0
0.6850823449168976 0.6388697826377026 0
0.2657317521048242 0.3999752801684378 0
0.4495899895495683 0.5428314402517819 0
0.7940012533683851 0.1589838318331471 0
0.6029979838145003 0.826374067928787 0
0.515845543566868 0.8664102547158427 0
0.8105281017612456 0.5096624856606281 0
0.7051134140937284 0.3483298914385888 0
0.4805852409815531 0.4106974864273064 0
0.569327638764655 0.5737878632268818 0
0.4541735718156503 0.2830102848468276 0
0.7857055318121924 0.5789869203461072 0
0.2184991880256695 0.6539378186446401 0
0.1528634297590777 0.6893354849557953 0
0.07680880402452878 0.7330367510390845 0
0.7456041802511797 0.9348735486900909 0
0.1284306808292661 0.3191448063431687 0
0.4484122057575108 0.7300189765158369 0
0.7682293475444648 0.6808184023173549 0
0.1627973113666457 0.2464000008556183 0
0.597636340346367 0.884270389017068 0
0.2758033659603571 0.1584597638512367 0
0.8764989873331304 0.7858618433597473 0
0.2751825816532981 0.3331299314862146 0
0.0672995570046061 0.4424511125473507 0
0.1864887692164715 0.8481784404910332 0
0.8584545042582995 0.5785890110974461 0
0.06371214661607705 0.354087779141811 0
0.07156734802138609 0.536159773694478 0
0.8937037469487363 0.923398930556423 0
0.7752278335418924 0.3135457450199559 0
0.3991687317049666 0.7980713361847176 0
0.6964301021687698 0.8783684309652122 0
0.3627355523921646 0.8394404201718526 0
0.8547803428457775 0.1966039048534753 0
0.7239804635600517 0.8036113925106586 0
0.9375024656795183 0.7606906409691178 0
0.07308870945113344 0.07378403107687198 0
0.6468283418749127 0.8575261613798653 0
0.6757618991230725 0.5947505880378158 0
0.07320508075688781 0.9267949192431124 0
0.926794919243112 0.07320508075688781 0
0.669050623589183 0.1533051424965539 0
0.7632229452923465 0.6311664078462802 0
0.8501707962200977 0.279578415321734 0
0.4801114387139434 0.8895457384769895 0
0.932883759202187 0.6242412515790468 0
0.1623687698140452 0.625066152945317 0
0.9247882265330778 0.6938594020089033 0
0.6007949465336939 0.6031394945102392 0
0.443918634341636 0.2179825276112964 0
0.596195694863308 0.9320403961048607 0
0.4323171610748509 0.389107733877914 0
0.8734327680365586 0.5013246790415811 0
0.5411967063963996 0.1821400205523539 0
0.3009637217126022 0.8079876810573883 0
0.3388570753203818 0.1484132373614446 0
0.2532174993363207 0.8488297648740939 0
0.408964791192834 0.6393346870218526 0
$EndNodes
$Elements
6 490 1 490
1 1 1 10
1 1 8 
2 8 9 
3 9 10 
4 10 11 
5 11 12 
6 12 13 
7 13 14 
8 14 15 
9 15 16 
10 16 2 
1 2 1 10
11 3 17 
12 17 18 
13 18 19 
14 19 20 
15 20 21 
16 21 22 
17 22 23 
18 23 24 
19 24 25 
20 25 1 
1 3 1 10
21 2 26 
22 26 27 
23 27 28 
24 28 29 
25 29 30 
26 30 31 
27 31 32 
28 32 33 
29 33 34 
30 34 4 
1 4 1 10
31 4 35 
32 35 36 
33 36 37 
34 37 38 
35 38 39 
36 39 40 
37 40 41 
38 41 42 
39 42 43 
40 43 3 
2 2 2 36
41 5 44 58 
42 6 49 48 
43 54 53 7 
44 53 62 52 
45 58 61 57 
46 59 68 66 
47 59 66 65 
48 64 68 61 
49 63 67 60 
50 59 65 62 
51 56 59 55 
52 66 67 65 
53 60 66 64 
54 54 62 53 
55 52 65 51 
56 44 61 58 
57 57 68 56 
58 56 68 59 
59 46 64 45 
60 60 64 46 
61 65 67 51 
62 62 65 52 
63 61 68 57 
64 59 62 55 
65 45 61 44 
66 45 64 61 
67 47 63 60 
68 50 63 49 
69 51 67 50 
70 60 67 66 
71 50 67 63 
72 49 63 48 
73 66 68 64 
74 48 63 47 
75 55 62 54 
76 47 60 46 
2 3 2 414
77 81 153 140 
78 83 216 157 
79 101 165 129 
80 101 242 165 
81 166 190 180 
82 149 207 134 
83 97 160 155 
84 87 188 148 
85 20 216 83 
86 4 217 34 
87 140 183 81 
88 131 242 101 
89 175 227 72 
90 166 180 167 
91 97 155 41 
92 171 207 173 
93 159 164 116 
94 35 217 4 
95 5 233 156 
96 156 187 5 
97 147 227 175 
98 151 162 106 
99 158 193 117 
100 125 202 150 
101 136 230 168 
102 117 208 158 
103 164 217 36 
104 204 207 149 
105 213 245 97 
106 18 202 125 
107 147 175 152 
108 173 207 107 
109 188 227 148 
110 194 214 199 
111 134 211 149 
112 148 231 87 
113 139 220 203 
114 171 173 170 
115 168 191 136 
116 88 152 84 
117 171 209 134 
118 121 167 123 
119 155 156 154 
120 158 239 38 
121 29 153 81 
122 36 217 35 
123 172 213 97 
124 159 217 164 
125 179 205 176 
126 38 139 37 
127 118 222 191 
128 161 184 106 
129 151 244 162 
130 82 161 13 
131 94 198 182 
132 115 206 146 
133 77 166 79 
134 194 241 214 
135 82 165 161 
136 109 152 88 
137 106 162 11 
138 152 174 84 
139 163 179 176 
140 147 152 109 
141 206 231 146 
142 113 147 109 
143 177 222 118 
144 106 184 151 
145 31 103 30 
146 126 176 138 
147 139 203 37 
148 161 242 184 
149 14 168 82 
150 103 153 30 
151 168 230 82 
152 92 166 121 
153 79 166 92 
154 42 97 41 
155 167 246 123 
156 113 148 147 
157 134 207 171 
158 71 174 69 
159 123 163 126 
160 166 167 121 
161 41 155 40 
162 116 210 159 
163 20 83 19 
164 12 161 106 
165 134 209 133 
166 34 217 159 
167 92 121 104 
168 10 162 86 
169 40 155 154 
170 121 123 122 
171 39 158 38 
172 14 82 13 
173 86 171 170 
174 119 198 94 
175 162 244 209 
176 29 81 28 
177 38 239 139 
178 12 106 11 
179 81 169 28 
180 42 172 97 
181 75 181 85 
182 32 236 234 
183 10 86 9 
184 162 209 86 
185 74 246 180 
186 34 159 33 
187 86 170 9 
188 77 190 166 
189 13 161 12 
190 118 168 15 
191 155 221 156 
192 11 162 10 
193 18 125 17 
194 15 168 14 
195 157 235 83 
196 30 153 29 
197 150 213 125 
198 24 107 23 
199 123 126 124 
200 84 174 71 
201 40 154 39 
202 176 219 138 
203 28 169 27 
204 126 138 127 
205 115 146 145 
206 107 215 23 
207 9 170 8 
208 16 118 15 
209 76 219 176 
210 153 241 140 
211 27 177 26 
212 85 181 90 
213 102 109 88 
214 121 122 104 
215 156 219 187 
216 43 172 42 
217 160 221 155 
218 110 113 109 
219 25 173 24 
220 154 158 39 
221 24 173 107 
222 156 233 154 
223 199 231 148 
224 154 233 158 
225 32 234 31 
226 152 175 174 
227 169 177 27 
228 142 149 112 
229 149 189 112 
230 163 176 126 
231 90 130 101 
232 79 92 91 
233 19 202 18 
234 180 246 167 
235 21 216 20 
236 204 215 107 
237 165 230 129 
238 123 124 122 
239 8 225 1 
240 186 223 132 
241 6 69 49 
242 92 104 99 
243 123 246 163 
244 179 246 74 
245 1 225 25 
246 181 196 182 
247 47 74 48 
248 111 157 141 
249 108 134 133 
250 90 181 130 
251 208 239 158 
252 175 197 174 
253 102 110 109 
254 126 127 124 
255 48 180 6 
256 118 191 168 
257 174 197 69 
258 129 135 100 
259 133 151 119 
260 46 179 47 
261 108 119 94 
262 81 232 169 
263 93 94 80 
264 51 72 52 
265 75 84 71 
266 130 131 101 
267 85 90 89 
268 6 70 69 
269 108 133 119 
270 90 101 100 
271 120 183 140 
272 111 178 157 
273 165 242 161 
274 3 228 43 
275 17 228 3 
276 181 182 130 
277 70 77 73 
278 136 137 135 
279 92 99 91 
280 148 227 147 
281 49 197 50 
282 141 142 112 
283 2 229 16 
284 26 229 2 
285 111 112 99 
286 93 108 94 
287 85 88 84 
288 52 188 53 
289 140 241 194 
290 104 111 99 
291 129 136 135 
292 83 202 19 
293 122 178 104 
294 36 203 164 
295 70 73 71 
296 89 102 88 
297 101 129 100 
298 146 231 199 
299 98 115 114 
300 90 100 89 
301 120 140 110 
302 103 241 153 
303 70 71 69 
304 7 95 54 
305 44 76 45 
306 31 234 103 
307 91 93 80 
308 73 75 71 
309 143 150 128 
310 146 214 145 
311 72 237 175 
312 111 141 112 
313 127 143 128 
314 110 194 113 
315 53 87 7 
316 75 85 84 
317 156 221 219 
318 79 91 80 
319 159 224 33 
320 102 120 110 
321 54 185 55 
322 85 89 88 
323 77 79 78 
324 150 202 201 
325 77 78 73 
326 55 96 56 
327 127 128 124 
328 104 178 111 
329 79 80 78 
330 69 197 49 
331 130 198 131 
332 5 187 44 
333 220 226 186 
334 115 145 144 
335 214 234 145 
336 116 132 105 
337 74 180 48 
338 194 199 113 
339 176 205 76 
340 136 191 137 
341 45 205 46 
342 47 179 74 
343 183 232 81 
344 75 196 181 
345 163 246 179 
346 56 192 57 
347 135 195 100 
348 150 201 128 
349 108 211 134 
350 182 240 94 
351 86 209 171 
352 201 202 83 
353 113 199 148 
354 149 211 189 
355 6 190 70 
356 182 198 130 
357 129 230 136 
358 57 117 58 
359 112 189 99 
360 91 189 93 
361 99 189 91 
362 22 212 21 
363 142 204 149 
364 102 195 120 
365 72 188 52 
366 140 194 110 
367 132 220 186 
368 116 164 132 
369 94 240 80 
370 70 190 77 
371 195 218 120 
372 37 203 36 
373 89 195 102 
374 180 190 6 
375 135 218 195 
376 177 229 26 
377 46 205 179 
378 164 203 132 
379 115 144 114 
380 114 116 105 
381 58 193 5 
382 100 195 89 
383 33 224 32 
384 210 224 159 
385 73 196 75 
386 139 226 220 
387 7 98 95 
388 196 240 182 
389 124 200 122 
390 78 196 73 
391 122 200 178 
392 128 201 200 
393 53 188 87 
394 43 228 172 
395 131 238 184 
396 98 114 105 
397 23 215 22 
398 132 223 105 
399 98 206 115 
400 76 205 45 
401 137 218 135 
402 170 225 8 
403 51 237 72 
404 95 185 54 
405 128 200 124 
406 175 237 197 
407 127 243 143 
408 197 237 50 
409 125 213 172 
410 82 230 165 
411 125 228 17 
412 143 245 213 
413 198 238 131 
414 137 232 218 
415 44 187 76 
416 189 211 93 
417 93 211 108 
418 25 225 173 
419 55 185 96 
420 172 228 125 
421 98 105 95 
422 141 212 142 
423 218 232 183 
424 157 216 141 
425 169 222 177 
426 16 229 118 
427 143 213 150 
428 173 225 170 
429 120 218 183 
430 96 192 56 
431 118 229 177 
432 103 234 214 
433 114 210 116 
434 212 215 142 
435 144 210 114 
436 212 216 21 
437 185 186 96 
438 141 216 212 
439 107 207 204 
440 214 241 103 
441 50 237 51 
442 57 192 117 
443 87 206 7 
444 151 238 119 
445 97 245 160 
446 243 245 143 
447 7 206 98 
448 199 214 146 
449 201 235 200 
450 191 222 137 
451 142 215 204 
452 221 243 138 
453 192 208 117 
454 87 231 206 
455 184 242 131 
456 78 240 196 
457 117 193 58 
458 83 235 201 
459 187 219 76 
460 133 244 151 
461 184 238 151 
462 22 215 212 
463 178 235 157 
464 200 235 178 
465 203 220 132 
466 138 243 127 
467 80 240 78 
468 145 236 144 
469 72 227 188 
470 224 236 32 
471 144 224 210 
472 119 238 198 
473 193 233 5 
474 158 233 193 
475 160 243 221 
476 234 236 145 
477 105 223 95 
478 95 223 185 
479 144 236 224 
480 219 221 138 
481 209 244 133 
482 222 232 137 
483 208 226 139 
484 185 223 186 
485 169 232 222 
486 160 245 243 
487 96 226 192 
488 186 226 96 
489 192 226 208 
490 139 239 208 
$EndElements
