$MeshFormat
4.1 0 8
$EndMeshFormat
$PhysicalNames
3
1 101 "outer_boundary"
2 1 "material_1"
2 2 "material_2"
$EndPhysicalNames
$Entities
8 8 2 0
1 0 0 0 0 
2 1 0 0 0 
3 0 1 0 0 
4 1 1 0 0 
5 0.4677139181925293 0.5071126595718576 0 0 
6 0.38486360790087 0.6905604589458 0 0 
7 0.2014158085269276 0.6077101486541406 0 0 
8 0.2842661188185869 0.4242623492801982 0 0 
1 -9.999999994736442e-08 -1e-07 -1e-07 1.0000001 1e-07 1e-07 1 101 2 1 -2 
2 -1e-07 -9.999999994736442e-08 -1e-07 1e-07 1.0000001 1e-07 1 101 2 3 -1 
3 0.9999999000000001 -9.999999994736442e-08 -1e-07 1.0000001 1.0000001 1e-07 1 101 2 2 -4 
4 -9.999999994736442e-08 0.9999999000000001 -1e-07 1.0000001 1.0000001 1e-07 1 101 2 4 -3 
5 0.38486350790087 0.5071125595718576 -1e-07 0.4677140181925293 0.6905605589457999 1e-07 0 2 5 -6 
6 0.2014157085269276 0.6077100486541407 -1e-07 0.38486370790087 0.6905605589457999 1e-07 0 2 6 -7 
7 0.2014157085269276 0.4242622492801982 -1e-07 0.2842662188185869 0.6077102486541406 1e-07 0 2 7 -8 
8 0.2842660188185869 0.4242622492801982 -1e-07 0.4677140181925293 0.5071127595718575 1e-07 0 2 8 -5 
2 0.2014157085269276 0.4242622492801982 -1e-07 0.4677140181925293 0.6905605589457999 1e-07 1 2 4 5 6 7 8 
3 -9.999999994736442e-08 -9.999999994736442e-08 -1e-07 1.0000001 1.0000001 1e-07 1 1 8 1 3 4 2 -5 -8 -7 -6 
$EndEntities
$Nodes
18 149 1 149
0 1 0 1
1
0 0 0
0 2 0 1
2
1 0 0
0 3 0 1
3
0 1 0
0 4 0 1
4
1 1 0
0 5 0 1
5
0.4677139181925293 0.5071126595718576 0
0 6 0 1
6
0.38486360790087 0.6905604589458 0
0 7 0 1
7
0.2014158085269276 0.6077101486541406 0
0 8 0 1
8
0.2842661188185869 0.4242623492801982 0
1 1 0 7
9
10
11
12
13
14
15
0.1249999999999999 0 0
0.2499999999999998 0 0
0.3749999999999993 0 0
0.4999999999999988 0 0
0.6249999999999988 0 0
0.7499999999999991 0 0
0.8749999999999997 0 0
1 2 0 7
16
17
18
19
20
21
22
0 0.8750000000000001 0
0 0.7500000000000002 0
0 0.6250000000000007 0
0 0.5000000000000012 0
0 0.3750000000000012 0
0 0.2500000000000009 0
0 0.1250000000000003 0
1 3 0 7
23
24
25
26
27
28
29
1 0.1249999999999999 0
1 0.2499999999999998 0
1 0.3749999999999993 0
1 0.4999999999999988 0
1 0.6249999999999988 0
1 0.7499999999999991 0
1 0.8749999999999997 0
1 4 0 7
30
31
32
33
34
35
36
0.8750000000000001 1 0
0.7500000000000002 1 0
0.6250000000000007 1 0
0.5000000000000012 1 0
0.3750000000000012 1 0
0.2500000000000009 1 0
0.1250000000000003 1 0
1 5 0 2
37
38
0.4400971480953095 0.5682619260298385 0
0.4124803779980897 0.6294111924878194 0
1 6 0 2
39
40
0.3237143414428891 0.6629436888485801 0
0.2625650749849082 0.6353269187513604 0
1 7 0 2
41
42
0.2290325786241474 0.5465608821961597 0
0.2566493487213672 0.4854116157381788 0
1 8 0 2
43
44
0.3454153852765678 0.451879119377418 0
0.4065646517345488 0.4794958894746379 0
2 2 0 8
45
46
47
48
49
50
51
52
0.3515332940433674 0.5198397733395631 0
0.3175763554765772 0.5950274899772506 0
0.3808931083603322 0.578343494432268 0
0.2882299259592873 0.5364941321573354 0
0.4031846255408933 0.5314894184649717 0
0.2659451011785636 0.5833333897610266 0
0.360486849007756 0.6260311662941642 0
0.3086428777117009 0.488791641931834 0
2 3 0 97
53
54
55
56
57
58
59
60
61
62
63
64
65
66
67
68
69
70
71
72
73
74
75
76
77
78
79
80
81
82
83
84
85
86
87
88
89
90
91
92
93
94
95
96
97
98
99
100
101
102
103
104
105
106
107
108
109
110
111
112
113
114
115
116
117
118
119
120
121
122
123
124
125
126
127
128
129
130
131
132
133
134
135
136
137
138
139
140
141
142
143
144
145
146
147
148
149
0.4804046015379643 0.6223241632182251 0
0.4624527765118007 0.4400927977995953 0
0.5284773460445745 0.4705231791524109 0
0.5217673279285876 0.3939405300413809 0
0.5936467347098549 0.424745493475778 0
0.8867124968764019 0.6928978082820644 0
0.3420107433411393 0.3826972658778801 0
0.2728428105009754 0.3591522591354495 0
0.5997058439522243 0.5087724505914456 0
0.5843383112207681 0.3412955469522218 0
0.492275787096257 0.3117817529440565 0
0.2612761728098424 0.7090806646098354 0
0.6717249898855866 0.4602307294413953 0
0.5719606772179956 0.8832057851569632 0
0.676347118297036 0.5494593427452066 0
0.3371553806110846 0.3076489003136026 0
0.2574002495434581 0.2776300701027519 0
0.9126868829123275 0.3114246313062902 0
0.2205308846992626 0.4208616546719733 0
0.6996550508111254 0.09866187418190897 0
0.7561695105635349 0.4999492593455623 0
0.2040983891822549 0.9025861474484891 0
0.3261749361263547 0.218233901424561 0
0.8133699709815313 0.8943866804523763 0
0.1535354917991842 0.5536030540161595 0
0.5737740795477504 0.2498982859890503 0
0.6631701240958168 0.2833270790687444 0
0.4818916165716585 0.1928700690932485 0
0.1812810213738039 0.112062807881488 0
0.7515094790003521 0.4083681731186408 0
0.1901758225831462 0.3421772581508378 0
0.1690362248894848 0.247033891314752 0
0.60435887742063 0.5918222448458925 0
0.6780263604580723 0.6400326746622126 0
0.6047214550694211 0.6744366895270117 0
0.6821387226505411 0.730910458328786 0
0.8213172285021684 0.4516574874792568 0
0.1036104840843671 0.7028671953026616 0
0.8578978959421805 0.5309194438837178 0
0.1432208674387316 0.4182636747277744 0
0.5647782633195735 0.1608676797337856 0
0.1019495619504286 0.8017103179944622 0
0.7666520321947907 0.6835656783588342 0
0.406490575168595 0.3422545929747749 0
0.7008833736402827 0.8964034399971287 0
0.3108982001365557 0.898556890845319 0
0.4297742673633636 0.8885765964463332 0
0.4906826432034859 0.8099278392909044 0
0.3641196446726297 0.8147578839953864 0
0.2633168252012034 0.8031774678355934 0
0.3153807107021338 0.1145208827501065 0
0.4303018262512695 0.09601953942241609 0
0.8151313495195209 0.1202191439635638 0
0.7399866013839127 0.2084880833346241 0
0.5770498505388211 0.7609777095272829 0
0.9106327972152175 0.1913115368516068 0
0.8960119117079917 0.8122461517412046 0
0.5292406708008914 0.5528476799240714 0
0.7741515148462983 0.7892420498226275 0
0.09646391705400592 0.325777160329684 0
0.4037722618397681 0.4126572758347721 0
0.4516288111248749 0.6839026501914764 0
0.422903866157911 0.7514154745628592 0
0.1821810358590865 0.7479195035250464 0
0.3348913831736495 0.7360996404490784 0
0.1900845442800947 0.6701670715435598 0
0.4078952579769065 0.2591449629581513 0
0.1867172807679436 0.4878987767921668 0
0.7607398103320178 0.5890502311678972 0
0.6706457119358314 0.3705889379010975 0
0.09961628793116278 0.493379579458282 0
0.2494572101557145 0.1895117116217711 0
0.08766620946757686 0.1898483255023487 0
0.5255777729019322 0.6804892337231978 0
0.1294586894154363 0.6180979984183144 0
0.6476246990066362 0.1894018394887104 0
0.7457318975622723 0.3138650496752113 0
0.1035533557805877 0.899821459632574 0
0.06168769075686853 0.5644976454138906 0
0.90849364905389 0.09150635094610993 0
0.9084936490538905 0.9084936490538904 0
0.8317477288888108 0.3620890727455126 0
0.8274849018055668 0.2497190948936773 0
0.836439542440317 0.6202272290771822 0
0.9039416227075812 0.421848439235796 0
0.5442889219575099 0.6186415138877909 0
0.9101954768561943 0.604702983693397 0
0.4596994390059572 0.3795239895043261 0
0.07921609348816683 0.07921609348816699 0
0.06786021448478008 0.4224840829031485 0
0.514575892791776 0.10037582094252 0
0.4017433146221252 0.1828573862092427 0
0.6612368277787878 0.8121478885665577 0
0.4273193229258866 0.8166495970285846 0
0.1832560210303865 0.8237907059584475 0
0.493568588785405 0.7373425814591441 0
0.6005250714341761 0.08644971291845427 0
$EndNodes
$Elements
6 296 1 296
1 1 1 8
1 1 9 
2 9 10 
3 10 11 
4 11 12 
5 12 13 
6 13 14 
7 14 15 
8 15 2 
1 2 1 8
9 3 16 
10 16 17 
11 17 18 
12 18 19 
13 19 20 
14 20 21 
15 21 22 
16 22 1 
1 3 1 8
17 2 23 
18 23 24 
19 24 25 
20 25 26 
21 26 27 
22 27 28 
23 28 29 
24 29 4 
1 4 1 8
25 4 30 
26 30 31 
27 31 32 
28 32 33 
29 33 34 
30 34 35 
31 35 36 
32 36 3 
2 2 2 26
33 45 47 46 
34 46 48 45 
35 40 46 39 
36 44 45 43 
37 38 47 37 
38 42 48 41 
39 5 49 44 
40 37 49 5 
41 7 50 40 
42 41 50 7 
43 6 51 38 
44 39 51 6 
45 8 52 42 
46 43 52 8 
47 40 50 46 
48 44 49 45 
49 46 51 39 
50 45 52 43 
51 47 51 46 
52 45 49 47 
53 48 52 45 
54 46 50 48 
55 38 51 47 
56 42 52 48 
57 47 49 37 
58 48 50 41 
2 3 2 238
59 58 111 95 
60 107 148 126 
61 26 139 91 
62 91 137 26 
63 81 124 84 
64 21 125 112 
65 109 111 58 
66 99 100 66 
67 5 110 37 
68 107 126 87 
69 37 110 53 
70 84 125 81 
71 33 99 66 
72 64 117 102 
73 102 116 64 
74 98 101 99 
75 18 127 90 
76 102 117 101 
77 96 119 63 
78 74 102 98 
79 98 102 101 
80 89 137 91 
81 107 145 66 
82 115 117 6 
83 105 135 106 
84 18 90 17 
85 66 97 32 
86 97 111 76 
87 66 145 97 
88 8 71 60 
89 74 98 35 
90 118 127 7 
91 98 99 34 
92 100 107 66 
93 99 146 100 
94 55 110 5 
95 90 94 17 
96 70 137 134 
97 100 148 107 
98 36 74 35 
99 34 99 33 
100 108 135 105 
101 103 144 75 
102 104 143 80 
103 105 106 72 
104 12 104 11 
105 14 105 72 
106 90 127 118 
107 11 104 103 
108 18 131 127 
109 33 66 32 
110 97 145 111 
111 79 129 122 
112 122 129 82 
113 90 118 116 
114 10 81 9 
115 35 98 34 
116 3 130 36 
117 134 137 89 
118 28 58 27 
119 14 72 13 
120 31 97 76 
121 25 70 24 
122 60 83 69 
123 71 83 60 
124 10 103 81 
125 80 143 93 
126 32 97 31 
127 90 116 94 
128 116 118 64 
129 83 84 69 
130 63 119 80 
131 63 140 96 
132 104 144 103 
133 101 117 115 
134 15 105 14 
135 74 147 102 
136 84 124 69 
137 61 110 55 
138 11 103 10 
139 31 76 30 
140 17 94 16 
141 16 130 3 
142 76 111 109 
143 70 108 24 
144 28 109 58 
145 27 139 26 
146 67 85 61 
147 101 146 99 
148 25 137 70 
149 24 108 23 
150 29 109 28 
151 95 136 58 
152 12 143 104 
153 22 125 21 
154 130 147 74 
155 71 120 92 
156 85 110 61 
157 110 138 53 
158 12 149 143 
159 106 129 79 
160 21 112 20 
161 79 128 106 
162 13 149 12 
163 86 87 85 
164 94 147 130 
165 80 144 104 
166 87 138 85 
167 67 86 85 
168 75 124 103 
169 44 54 5 
170 89 91 73 
171 37 53 38 
172 43 113 44 
173 68 96 59 
174 88 107 87 
175 57 61 55 
176 8 59 43 
177 65 67 61 
178 2 132 15 
179 23 132 2 
180 86 95 88 
181 36 130 74 
182 4 133 29 
183 30 133 4 
184 92 142 112 
185 56 63 62 
186 78 79 62 
187 126 138 87 
188 63 80 78 
189 65 82 73 
190 86 88 87 
191 39 64 40 
192 71 92 83 
193 106 128 72 
194 127 131 77 
195 95 111 88 
196 65 73 67 
197 82 89 73 
198 38 114 6 
199 6 117 39 
200 80 93 78 
201 63 78 62 
202 40 118 7 
203 57 65 61 
204 96 113 59 
205 54 55 5 
206 91 121 73 
207 93 149 128 
208 103 124 81 
209 56 57 55 
210 77 131 123 
211 56 62 57 
212 120 123 92 
213 68 119 96 
214 69 75 68 
215 67 121 86 
216 44 113 54 
217 81 141 9 
218 7 77 41 
219 41 120 42 
220 42 71 8 
221 54 56 55 
222 59 113 43 
223 73 121 67 
224 83 112 84 
225 86 121 95 
226 128 149 72 
227 94 130 16 
228 69 124 75 
229 56 140 63 
230 60 69 68 
231 65 122 82 
232 72 149 13 
233 79 122 62 
234 53 114 38 
235 93 128 78 
236 8 60 59 
237 75 119 68 
238 58 139 27 
239 78 128 79 
240 92 112 83 
241 57 122 65 
242 20 142 19 
243 112 142 20 
244 62 122 57 
245 114 115 6 
246 39 117 64 
247 108 132 23 
248 53 126 114 
249 64 118 40 
250 19 131 18 
251 1 141 22 
252 9 141 1 
253 60 68 59 
254 29 133 109 
255 15 132 105 
256 125 141 81 
257 76 133 30 
258 105 132 108 
259 111 145 88 
260 129 135 134 
261 7 127 77 
262 70 135 108 
263 26 137 25 
264 109 133 76 
265 134 135 70 
266 123 131 19 
267 77 123 120 
268 77 120 41 
269 42 120 71 
270 102 147 116 
271 119 144 80 
272 113 140 54 
273 19 142 123 
274 116 147 94 
275 53 138 126 
276 82 134 89 
277 85 138 110 
278 54 140 56 
279 129 134 82 
280 88 145 107 
281 91 136 121 
282 96 140 113 
283 106 135 129 
284 22 141 125 
285 121 136 95 
286 143 149 93 
287 114 148 115 
288 115 146 101 
289 75 144 119 
290 126 148 114 
291 115 148 100 
292 100 146 115 
293 123 142 92 
294 91 139 136 
295 136 139 58 
296 112 125 84 
$EndElements
