$MeshFormat
4.1 0 8
$EndMeshFormat
$PhysicalNames
3
1 101 "outer_boundary"
2 1 "material_1"
2 2 "material_2"
$EndPhysicalNames
$Entities
5 5 2 0
1 0 0 0 0 
2 1 0 0 0 
3 0 1 0 0 
4 1 1 0 0 
5 0.6858879242081639 0.2234959962877146 0 0 
1 -9.999999994736442e-08 -1e-07 -1e-07 1.0000001 1e-07 1e-07 1 101 2 1 -2 
2 -1e-07 -9.999999994736442e-08 -1e-07 1e-07 1.0000001 1e-07 1 101 2 3 -1 
3 0.9999999000000001 -9.999999994736442e-08 -1e-07 1.0000001 1.0000001 1e-07 1 101 2 2 -4 
4 -9.999999994736442e-08 0.9999999000000001 -1e-07 1.0000001 1.0000001 1e-07 1 101 2 4 -3 
5 0.4739021604158427 0.1175030643915539 -1e-07 0.6858880242081639 0.3294889281838752 1e-07 0 2 5 -5 
2 0.4739021604158427 0.1175030643915539 -1e-07 0.6858880242081639 0.3294889281838752 1e-07 1 2 1 5 
3 -9.999999994736442e-08 -9.999999994736442e-08 -1e-07 1.0000001 1.0000001 1e-07 1 1 5 1 3 4 2 -5 
$EndEntities
$Nodes
12 139 1 139
0 1 0 1
1
0 0 0
0 2 0 1
2
1 0 0
0 3 0 1
3
0 1 0
0 4 0 1
4
1 1 0
0 5 0 1
5
0.6858879242081639 0.2234959962877146 0
1 1 0 7
6
7
8
9
10
11
12
0.1249999999999999 0 0
0.2499999999999998 0 0
0.3749999999999993 0 0
0.4999999999999988 0 0
0.6249999999999988 0 0
0.7499999999999991 0 0
0.8749999999999997 0 0
1 2 0 7
13
14
15
16
17
18
19
0 0.8750000000000001 0
0 0.7500000000000002 0
0 0.6250000000000007 0
0 0.5000000000000012 0
0 0.3750000000000012 0
0 0.2500000000000009 0
0 0.1250000000000003 0
1 3 0 7
20
21
22
23
24
25
26
1 0.1249999999999999 0
1 0.2499999999999998 0
1 0.3749999999999993 0
1 0.4999999999999988 0
1 0.6249999999999988 0
1 0.7499999999999991 0
1 0.8749999999999997 0
1 4 0 7
27
28
29
30
31
32
33
0.8750000000000001 1 0
0.7500000000000002 1 0
0.6250000000000007 1 0
0.5000000000000012 1 0
0.3750000000000012 1 0
0.2500000000000009 1 0
0.1250000000000003 1 0
1 5 0 9
34
35
36
37
38
39
40
41
42
0.6656450945979242 0.2857970197249931 0
0.6126486786498438 0.3243011697431349 0
0.5471415059741627 0.3243011697431349 0
0.4941450900260824 0.285797019724993 0
0.4739022604158427 0.2234959962877146 0
0.4941450900260823 0.1611949728504363 0
0.5471415059741624 0.1226908228322943 0
0.6126486786498435 0.1226908228322941 0
0.665645094597924 0.1611949728504357 0
2 2 0 5
43
44
45
46
47
0.5557572550249976 0.195753668225565 0
0.6023909961938904 0.2605205640547543 0
0.6298208645140607 0.2116378952380115 0
0.537457749197516 0.2554841458727906 0
0.5992532131324019 0.1696124147128376 0
2 3 0 92
48
49
50
51
52
53
54
55
56
57
58
59
60
61
62
63
64
65
66
67
68
69
70
71
72
73
74
75
76
77
78
79
80
81
82
83
84
85
86
87
88
89
90
91
92
93
94
95
96
97
98
99
100
101
102
103
104
105
106
107
108
109
110
111
112
113
114
115
116
117
118
119
120
121
122
123
124
125
126
127
128
129
130
131
132
133
134
135
136
137
138
139
0.4304349489753923 0.8969965287952595 0
0.103724590292562 0.5645833191661014 0
0.8977982972149252 0.5583357664643941 0
0.1039719831408297 0.3089549600149188 0
0.6905147237569671 0.8775271214320457 0
0.8960225874481773 0.3124645069118746 0
0.3201012782063496 0.09613397562239068 0
0.195489325676069 0.8774287231723782 0
0.8293985569477725 0.09741224323602005 0
0.8831328133471236 0.8025270037122967 0
0.7307169123110181 0.1831296287533993 0
0.7603661620271742 0.2412680480405404 0
0.9041339476270284 0.437522468271498 0
0.7982733700613069 0.500222099849393 0
0.7998863627616544 0.6075360599441088 0
0.7025374106086459 0.5628635399115364 0
0.675066606952462 0.3521806587474104 0
0.6138703009083407 0.3970100103911138 0
0.7051437360900129 0.6537512389105069 0
0.6181508445171251 0.6031269409609177 0
0.6167326467069243 0.6981165168253618 0
0.5336736161077076 0.6442009990715978 0
0.5344384580610479 0.5516867546520257 0
0.4521263909816239 0.591750411834054 0
0.4500569557233393 0.5043751096467695 0
0.3713908715578774 0.5409586394253323 0
0.3714955928157688 0.4317638893070168 0
0.4300694062425098 0.2721773126933011 0
0.3665790996176813 0.632757001430573 0
0.291743857170752 0.48579892454933 0
0.2831487480769547 0.3838096349561094 0
0.4766114434232664 0.3376081411707578 0
0.2199917173820796 0.4323362012369735 0
0.5392579005146839 0.7545300539607021 0
0.6821763009390278 0.421521093174908 0
0.7441251748357409 0.3742407315063866 0
0.4117569642434045 0.2061833131272628 0
0.3592437131972611 0.2669877855704602 0
0.409585562054842 0.1326971630335706 0
0.6094960733579563 0.4601153276478726 0
0.5521789736479549 0.4347913305237031 0
0.4064006104543373 0.3495471157315633 0
0.7902496981183516 0.7092279124892297 0
0.6654009831645042 0.08165882333516361 0
0.897600939823045 0.1875217194510834 0
0.194116055502093 0.1011743357478735 0
0.2332849564401677 0.1849747572880475 0
0.115329549215398 0.1884399394577122 0
0.5518606680913958 0.8764146074938578 0
0.1046176316121731 0.6835006310774437 0
0.1993096102549183 0.6305612455019102 0
0.1944649072589627 0.7460305734027801 0
0.317376700824633 0.8944333702924405 0
0.3771754904029386 0.7937224032659584 0
0.1930908673173362 0.346960081989869 0
0.4917458077754748 0.08973332257461963 0
0.1186013853148833 0.4369505670556087 0
0.6152607630875215 0.8001032488490365 0
0.8985672997677279 0.6756865903511976 0
0.09767970258221909 0.8067422627844154 0
0.8119855433517217 0.897765337052677 0
0.4409241758267367 0.705263777618537 0
0.6997974937856349 0.7494953158253657 0
0.4730146295700569 0.4177959510522217 0
0.2868894071114837 0.5840342627806153 0
0.209430539071375 0.5308194069813958 0
0.8162596290102481 0.3955716565824885 0
0.7225461223151364 0.296490753981042 0
0.8006750370856142 0.3063723325836383 0
0.8031143975186201 0.1802965079009027 0
0.3318338307243227 0.1907236112673034 0
0.2802256737280269 0.6849040858816395 0
0.5736561625939971 0.06946229859572867 0
0.1837098819763641 0.2615486819381174 0
0.9203998993541634 0.08198679253742069 0
0.2743775880854339 0.2811002972004806 0
0.0977079353812943 0.09451444806589238 0
0.2844592846893645 0.7899074058508356 0
0.7751360544719598 0.8073085381023231 0
0.7454348634998846 0.4360085810480389 0
0.3363311188656307 0.3326975273934573 0
0.462556340305204 0.8057452994199605 0
0.7421974921643361 0.1055764003976628 0
0.09150635094610998 0.9084936490538902 0
0.9084936490538902 0.90849364905389 0
0.5361589965741257 0.3801617988472735 0
0.6903548676857552 0.4855480961939622 0
0.6062897643994049 0.5305760060544038 0
0.3524332255081501 0.7177987745829315 0
0.4192865296073329 0.0637128922461162 0
0.835256651408625 0.2450179916654411 0
0.5232444272577791 0.4855170931308574 0
$EndNodes
$Elements
6 276 1 276
1 1 1 8
1 1 6 
2 6 7 
3 7 8 
4 8 9 
5 9 10 
6 10 11 
7 11 12 
8 12 2 
1 2 1 8
9 3 13 
10 13 14 
11 14 15 
12 15 16 
13 16 17 
14 17 18 
15 18 19 
16 19 1 
1 3 1 8
17 2 20 
18 20 21 
19 21 22 
20 22 23 
21 23 24 
22 24 25 
23 25 26 
24 26 4 
1 4 1 8
25 4 27 
26 27 28 
27 28 29 
28 29 30 
29 30 31 
30 31 32 
31 32 33 
32 33 3 
2 2 2 18
33 43 45 44 
34 43 46 38 
35 36 46 44 
36 44 46 43 
37 39 43 38 
38 36 44 35 
39 44 45 34 
40 34 45 5 
41 43 47 45 
42 38 46 37 
43 37 46 36 
44 40 43 39 
45 35 44 34 
46 40 47 43 
47 41 47 40 
48 42 47 41 
49 5 45 42 
50 45 47 42 
2 3 2 226
51 35 133 36 
52 80 113 104 
53 104 113 49 
54 5 115 34 
55 38 84 39 
56 111 133 88 
57 96 129 81 
58 37 79 75 
59 65 133 35 
60 94 121 95 
61 81 105 96 
62 94 95 93 
63 74 128 89 
64 80 104 102 
65 88 139 111 
66 84 86 39 
67 102 104 51 
68 61 127 114 
69 59 115 5 
70 79 89 75 
71 90 106 57 
72 99 125 55 
73 22 60 53 
74 55 107 99 
75 87 139 88 
76 16 104 49 
77 78 128 74 
78 61 114 60 
79 84 118 86 
80 79 133 111 
81 86 118 54 
82 50 61 60 
83 105 110 52 
84 135 139 87 
85 60 114 53 
86 110 126 52 
87 54 137 86 
88 61 134 127 
89 123 128 78 
90 11 91 10 
91 75 89 85 
92 57 126 90 
93 11 130 91 
94 12 56 11 
95 8 54 7 
96 109 129 101 
97 54 94 93 
98 57 106 25 
99 50 60 23 
100 63 134 61 
101 54 93 7 
102 53 92 21 
103 22 53 21 
104 100 101 48 
105 41 120 91 
106 103 120 40 
107 62 63 61 
108 31 100 48 
109 102 123 78 
110 24 50 23 
111 50 62 61 
112 29 96 52 
113 50 106 62 
114 18 51 17 
115 42 130 58 
116 49 98 97 
117 16 49 15 
118 18 95 51 
119 23 60 22 
120 69 70 67 
121 111 139 72 
122 49 97 15 
123 62 106 90 
124 71 72 70 
125 63 135 134 
126 31 48 30 
127 101 136 109 
128 48 96 30 
129 66 67 63 
130 67 135 63 
131 48 129 96 
132 21 92 20 
133 73 74 72 
134 55 100 32 
135 96 105 52 
136 7 93 6 
137 89 111 74 
138 2 122 12 
139 91 130 42 
140 32 100 31 
141 114 127 83 
142 56 130 11 
143 92 117 56 
144 29 52 28 
145 19 95 18 
146 30 96 29 
147 15 97 14 
148 98 99 97 
149 33 55 32 
150 26 57 25 
151 62 66 63 
152 20 122 2 
153 14 107 13 
154 8 137 54 
155 69 71 70 
156 85 123 118 
157 17 104 16 
158 24 106 50 
159 89 128 85 
160 51 104 17 
161 1 124 19 
162 77 78 74 
163 71 73 72 
164 25 106 24 
165 81 129 109 
166 68 69 67 
167 66 68 67 
168 55 125 100 
169 6 124 1 
170 28 108 27 
171 73 77 74 
172 58 130 117 
173 97 107 14 
174 52 108 28 
175 88 133 65 
176 115 116 83 
177 53 138 92 
178 99 107 97 
179 87 88 65 
180 79 111 89 
181 80 102 78 
182 83 116 114 
183 74 111 72 
184 12 122 56 
185 68 81 69 
186 91 120 10 
187 49 113 98 
188 119 136 125 
189 56 122 92 
190 34 64 35 
191 36 79 37 
192 9 120 103 
193 71 76 73 
194 68 105 81 
195 77 80 78 
196 70 139 135 
197 62 90 66 
198 10 120 9 
199 54 118 94 
200 3 131 33 
201 13 131 3 
202 52 126 108 
203 4 132 26 
204 27 132 4 
205 39 103 40 
206 118 123 94 
207 95 124 93 
208 64 65 35 
209 72 139 70 
210 37 75 38 
211 86 103 39 
212 95 121 51 
213 81 109 69 
214 82 87 65 
215 59 116 115 
216 69 109 71 
217 42 58 5 
218 64 82 65 
219 73 112 77 
220 66 110 68 
221 71 109 76 
222 70 135 67 
223 76 112 73 
224 64 83 82 
225 92 122 20 
226 107 131 13 
227 119 125 99 
228 134 135 87 
229 68 110 105 
230 90 110 66 
231 98 119 99 
232 58 59 5 
233 93 124 6 
234 101 129 48 
235 51 121 102 
236 76 119 112 
237 77 113 80 
238 75 84 38 
239 100 125 101 
240 9 137 8 
241 19 124 95 
242 41 91 42 
243 34 115 64 
244 108 126 57 
245 112 113 77 
246 55 131 107 
247 117 130 56 
248 75 85 84 
249 125 136 101 
250 59 138 116 
251 112 119 98 
252 108 132 27 
253 85 118 84 
254 33 131 55 
255 94 123 121 
256 121 123 102 
257 26 132 57 
258 58 117 59 
259 117 138 59 
260 40 120 41 
261 114 116 53 
262 64 115 83 
263 98 113 112 
264 57 132 108 
265 109 136 76 
266 85 128 123 
267 90 126 110 
268 36 133 79 
269 83 127 82 
270 127 134 82 
271 82 134 87 
272 103 137 9 
273 116 138 53 
274 76 136 119 
275 92 138 117 
276 86 137 103 
$EndElements
