$MeshFormat
4.1 0 8
$EndMeshFormat
$PhysicalNames
3
1 101 "outer_boundary"
2 1 "material_1"
2 2 "material_2"
$EndPhysicalNames
$Entities
8 8 2 0
1 0 0 0 0 
2 1 0 0 0 
3 0 1 0 0 
4 1 1 0 0 
5 0.8605321678541833 0.4308743792361733 0 0 
6 0.5955250268048002 0.6288846214486855 0 0 
7 0.397514784592288 0.3638774803993026 0 0 
8 0.662521925641671 0.1658672381867904 0 0 
1 -9.999999994736442e-08 -1e-07 -1e-07 1.0000001 1e-07 1e-07 1 101 2 1 -2 
2 -1e-07 -9.999999994736442e-08 -1e-07 1e-07 1.0000001 1e-07 1 101 2 3 -1 
3 0.9999999000000001 -9.999999994736442e-08 -1e-07 1.0000001 1.0000001 1e-07 1 101 2 2 -4 
4 -9.999999994736442e-08 0.9999999000000001 -1e-07 1.0000001 1.0000001 1e-07 1 101 2 4 -3 
5 0.5955249268048003 0.4308742792361733 -1e-07 0.8605322678541832 0.6288847214486855 1e-07 0 2 5 -6 
6 0.397514684592288 0.3638773803993026 -1e-07 0.5955251268048002 0.6288847214486855 1e-07 0 2 6 -7 
7 0.397514684592288 0.1658671381867904 -1e-07 0.662522025641671 0.3638775803993026 1e-07 0 2 7 -8 
8 0.6625218256416711 0.1658671381867904 -1e-07 0.8605322678541832 0.4308744792361733 1e-07 0 2 8 -5 
2 0.397514684592288 0.1658671381867904 -1e-07 0.8605322678541832 0.6288847214486855 1e-07 1 2 4 5 6 7 8 
3 -9.999999994736442e-08 -9.999999994736442e-08 -1e-07 1.0000001 1.0000001 1e-07 1 1 8 1 3 4 2 -5 -8 -7 -6 
$EndEntities
$Nodes
18 281 1 281
0 1 0 1
1
0 0 0
0 2 0 1
2
1 0 0
0 3 0 1
3
0 1 0
0 4 0 1
4
1 1 0
0 5 0 1
5
0.8605321678541833 0.4308743792361733 0
0 6 0 1
6
0.5955250268048002 0.6288846214486855 0
0 7 0 1
7
0.397514784592288 0.3638774803993026 0
0 8 0 1
8
0.662521925641671 0.1658672381867904 0
1 1 0 9
9
10
11
12
13
14
15
16
17
0.09999999999999996 0 0
0.1999999999999999 0 0
0.3000000000000001 0 0
0.4000000000000004 0 0
0.5000000000000003 0 0
0.5999999999999999 0 0
0.6999999999999995 0 0
0.7999999999999992 0 0
0.899999999999999 0 0
1 2 0 9
18
19
20
21
22
23
24
25
26
0 0.9 0
0 0.8 0
0 0.7 0
0 0.5999999999999996 0
0 0.4999999999999997 0
0 0.4000000000000001 0
0 0.3000000000000005 0
0 0.2000000000000008 0
0 0.100000000000001 0
1 3 0 9
27
28
29
30
31
32
33
34
35
1 0.09999999999999996 0
1 0.1999999999999999 0
1 0.3000000000000001 0
1 0.4000000000000004 0
1 0.5000000000000003 0
1 0.5999999999999999 0
1 0.6999999999999995 0
1 0.7999999999999992 0
1 0.899999999999999 0
1 4 0 9
36
37
38
39
40
41
42
43
44
0.9 1 0
0.8 1 0
0.7 1 0
0.5999999999999996 1 0
0.4999999999999997 1 0
0.4000000000000001 1 0
0.3000000000000005 1 0
0.2000000000000008 1 0
0.100000000000001 1 0
1 5 0 6
45
46
47
48
49
50
0.8226740048471285 0.4591615566951037 0
0.7848158418400738 0.487448734154034 0
0.746957678833019 0.5157359116129644 0
0.7090995158259643 0.5440230890718947 0
0.6712413528189095 0.5723102665308251 0
0.6333831898118548 0.6005974439897552 0
1 6 0 6
51
52
53
54
55
56
0.5672378493458698 0.5910264584416307 0
0.5389506718869396 0.553168295434576 0
0.5106634944280092 0.5153101324275212 0
0.4823763169690789 0.4774519694204666 0
0.4540891395101485 0.4395938064134118 0
0.4258019620512182 0.4017356434063571 0
1 7 0 6
57
58
59
60
61
62
0.4353729475993427 0.3355903029403723 0
0.4732311106063974 0.307303125481442 0
0.5110892736134521 0.2790159480225116 0
0.5489474366205069 0.2507287705635812 0
0.5868055996275618 0.2224415931046508 0
0.6246637626346165 0.1941544156457205 0
1 8 0 6
63
64
65
66
67
68
0.6908091031006013 0.2037254011938451 0
0.7190962805595317 0.2415835642008997 0
0.747383458018462 0.2794417272079545 0
0.7756706354773925 0.3172998902150093 0
0.8039578129363228 0.3551580532220642 0
0.8322449903952531 0.3930162162291188 0
2 2 0 46
69
70
71
72
73
74
75
76
77
78
79
80
81
82
83
84
85
86
87
88
89
90
91
92
93
94
95
96
97
98
99
100
101
102
103
104
105
106
107
108
109
110
111
112
113
114
0.7035311830486994 0.4970933694377079 0
0.5551544239014136 0.2981127153832608 0
0.5331892123145446 0.4695521533779825 0
0.7283532177834925 0.3239106054398351 0
0.5865053258138762 0.5490816418418145 0
0.7792475090628089 0.4405190145198472 0
0.4806474497202035 0.3536525429421801 0
0.6737349672921685 0.2520233520350185 0
0.666115914006945 0.5253279963806099 0
0.6601785029252634 0.4784420688431134 0
0.6979628502714346 0.4501636498035211 0
0.6553737809818839 0.4314217448058204 0
0.6174544719377595 0.458335753070791 0
0.6113788098615401 0.4126165829798668 0
0.6499775418700574 0.384433260692259 0
0.6054290732821465 0.3654431526268163 0
0.5677094460043693 0.3941080773335607 0
0.6432236689888463 0.337115356714742 0
0.6889106058409147 0.3548435045175936 0
0.6799484590818027 0.3063779373662476 0
0.7336426880662252 0.3735884835333408 0
0.6365039871697964 0.2866348659016926 0
0.5618232078453539 0.3468376338187874 0
0.5241820903275569 0.374944312476824 0
0.5301298740901885 0.4208257969118767 0
0.4795478780383521 0.4004199810084594 0
0.6958542166571131 0.4022232519266638 0
0.5181780198903123 0.3276334646413659 0
0.5980200059690086 0.3164050768075639 0
0.5932822800813072 0.2689348060303327 0
0.742197413615705 0.4679019286176713 0
0.5623536162940405 0.5122031032487933 0
0.5737380472119917 0.4391344592272602 0
0.6150923601239749 0.5080159109048579 0
0.7383164612228218 0.4215273152418792 0
0.7809940896636437 0.3947675630502311 0
0.6295241603646947 0.5552192788350077 0
0.6284239110756673 0.2397032676186038 0
0.7097032765470914 0.2806674372499911 0
0.5803655415764623 0.477448275965937 0
0.496048096071818 0.4413038368095287 0
0.7663913622404213 0.3537302607514238 0
0.8121104179491405 0.4238679315364388 0
0.4459365344973306 0.370883928099037 0
0.6025314745045348 0.5804628715436428 0
0.6555528696485536 0.2140305729942077 0
2 3 0 167
115
116
117
118
119
120
121
122
123
124
125
126
127
128
129
130
131
132
133
134
135
136
137
138
139
140
141
142
143
144
145
146
147
148
149
150
151
152
153
154
155
156
157
158
159
160
161
162
163
164
165
166
167
168
169
170
171
172
173
174
175
176
177
178
179
180
181
182
183
184
185
186
187
188
189
190
191
192
193
194
195
196
197
198
199
200
201
202
203
204
205
206
207
208
209
210
211
212
213
214
215
216
217
218
219
220
221
222
223
224
225
226
227
228
229
230
231
232
233
234
235
236
237
238
239
240
241
242
243
244
245
246
247
248
249
250
251
252
253
254
255
256
257
258
259
260
261
262
263
264
265
266
267
268
269
270
271
272
273
274
275
276
277
278
279
280
281
0.4933519799553842 0.5618748711866345 0
0.4104109452747989 0.4491844618275836 0
0.6768418057231301 0.620033797872461 0
0.07390567211134397 0.6501850873586834 0
0.3924833193876103 0.3156737373594035 0
0.3495523264430682 0.3482099308972115 0
0.3517976118990815 0.9264001371861816 0
0.3454093021292376 0.2891504968383538 0
0.5470232820637309 0.6337450163213679 0
0.5798684924669404 0.6758999548656106 0
0.5223523435863537 0.6804059453856297 0
0.7550270313414674 0.5655531918862473 0
0.8282423376243934 0.5060912763292905 0
0.2964111468183147 0.3255036323098727 0
0.7577864815537578 0.9039259068281638 0
0.5048113536094661 0.2255752736262275 0
0.7637335303002672 0.2311188101153212 0
0.5576966715086658 0.727978797246954 0
0.2879260402335732 0.2627567122885008 0
0.344152159578242 0.224267952230581 0
0.305249305367456 0.3871453681570705 0
0.6184591316507588 0.7197645913570097 0
0.4979448863805837 0.7354772046435918 0
0.4627676820004133 0.6835233898974185 0
0.2453693447257356 0.3641274166553563 0
0.2593652670653845 0.432044777226391 0
0.9234645465726893 0.7521873431928022 0
0.5949838342098137 0.7787834052420843 0
0.8239421315324508 0.3107289977593913 0
0.5785422684110296 0.1727476380250942 0
0.7136983922451235 0.1596194823084606 0
0.434022797170329 0.7422612683128677 0
0.3953815354965663 0.6847793061194658 0
0.2807656943018439 0.1936671767396044 0
0.2222571293028018 0.2344015809686264 0
0.364756873654438 0.7493246151067621 0
0.3251001510930555 0.6894065125446621 0
0.2931657393147247 0.75543945697253 0
0.3571691100626411 0.6249618059908982 0
0.2862329512872568 0.6285015840878592 0
0.6600280753781205 0.7682889956486878 0
0.4732233349069209 0.7968798708637046 0
0.1927329480854489 0.4063445318007494 0
0.2043737776659461 0.4776935301374178 0
0.8501479286130253 0.0780236640502151 0
0.1545608801093422 0.9167858656734219 0
0.3205175855341533 0.5664781561846955 0
0.4588514515969382 0.07568425995469424 0
0.6296612791218096 0.8385995600455728 0
0.1493585952053446 0.09290151952962306 0
0.8857842039310829 0.3843677380935883 0
0.3856424124044373 0.5652486750880891 0
0.3525817935221924 0.1578419284946213 0
0.4033624946148996 0.1937657525958373 0
0.1771583250898791 0.3429001365253286 0
0.3216526584812499 0.4506239654101571 0
0.1337536285785295 0.4529512476377898 0
0.5633313762578348 0.84425872130888 0
0.6817446764865491 0.1153815673167681 0
0.7390768070869811 0.1112443861074621 0
0.6786968589057849 0.7098668898049634 0
0.7262659154215302 0.7555768648589485 0
0.7428724139625376 0.6870982316080674 0
0.1390740496394551 0.5228127397908292 0
0.07990466540813024 0.2451074526927068 0
0.9133974596215562 0.2500000000000001 0
0.2895426888747723 0.1102359736785747 0
0.5466125441613839 0.06948319485139709 0
0.2618029282150962 0.5739428076082819 0
0.2159759620296657 0.6223210499181404 0
0.7951590890952653 0.7424306248097525 0
0.8206807800353133 0.6709964977989571 0
0.6281458384837049 0.139714641769486 0
0.7814901804894046 0.1731263573919203 0
0.9293470531270679 0.5490425284369963 0
0.9184171132890682 0.6414884662230633 0
0.513445626622985 0.1529682769401245 0
0.4226244016498567 0.6236379470664769 0
0.9112475190195582 0.1505138249857112 0
0.7743934590907007 0.8144009885527294 0
0.9133326325496214 0.427826296145831 0
0.880209388098662 0.4857748228615159 0
0.08561171804914725 0.3442012462578337 0
0.8515926058351697 0.2018446744651654 0
0.4871931041425111 0.6225317284450937 0
0.2556960706190256 0.9078706227457389 0
0.1930103773772758 0.8296341378033951 0
0.09173634593156726 0.8389077211041976 0
0.1479733941430593 0.763818456128508 0
0.8529793118681891 0.9222400430629006 0
0.4464434775258199 0.92957744459255 0
0.341214926638899 0.8094400371707877 0
0.3492809014533979 0.509902128663945 0
0.4083471816961325 0.5074956817175549 0
0.2741748668686825 0.50646522283762 0
0.9103260429253561 0.8510574375844333 0
0.07788654261331862 0.1534743245124174 0
0.6603014332010194 0.9193449948532035 0
0.7717749607883689 0.6242220821060322 0
0.8427878836095922 0.6111486516681579 0
0.4013458269022572 0.2535782502288139 0
0.3624896575509517 0.4075872743771981 0
0.6381800530287103 0.6645316249079873 0
0.4632053420948785 0.5177504336057136 0
0.9084915975958899 0.3280224650265027 0
0.7178843030859292 0.5946922880563646 0
0.4644894233526609 0.2605217690790211 0
0.3738505904118714 0.08126297697407997 0
0.7945451121320235 0.2734133519750797 0
0.8442605029869504 0.2621493478209616 0
0.7951686719767284 0.5349122986578527 0
0.6334306265500482 0.07359351960218946 0
0.5307937092657941 0.9212774471302194 0
0.5465104569783099 0.2048923104519356 0
0.2495224005372839 0.6875962812493743 0
0.7349007331663577 0.2007839645776582 0
0.4417908735379617 0.5667709507671583 0
0.2316595458377768 0.299730021930691 0
0.1502196408369847 0.2005157428660403 0
0.5267513774788871 0.5924692739658606 0
0.2187767213475681 0.1502170455725603 0
0.7233211520177352 0.642011300870728 0
0.8468547129018423 0.7901469040049811 0
0.8541046253814351 0.346158482077468 0
0.4549303889299323 0.205037503697769 0
0.4024851021604489 0.7932464846845431 0
0.4333845255696537 0.2945334370178105 0
0.7014061072944897 0.8333562184645509 0
0.5353116361642936 0.7814201720804878 0
0.0748111897838315 0.5704232183197261 0
0.075252471719847 0.74157886038111 0
0.160835288856356 0.2686906528364613 0
0.4968619655583867 0.8614604512703066 0
0.9304956663009631 0.07027382651599884 0
0.1615181168251572 0.6890562570887678 0
0.1445859900091673 0.5982282578514331 0
0.2197728525221074 0.756527050740341 0
0.8517149050518291 0.552052607329742 0
0.9239190849616193 0.925222508460444 0
0.06544902756373261 0.06927516880840823 0
0.2676430479349701 0.8207436257048032 0
0.07859371137493587 0.4947240891372939 0
0.4436857851090075 0.4782952705969461 0
0.7988895683983908 0.5802984578795901 0
0.7962766576884257 0.111941646771937 0
0.7038961185631769 0.06956199267312657 0
0.07320508075688797 0.9267949192431122 0
0.07077299187963437 0.4237259710591839 0
0.2233849212759362 0.06986417909668163 0
0.4261703909498031 0.1444267831095211 0
0.5960635499720057 0.9034997717459976 0
0.3663183229576409 0.4634256112355177 0
0.4004517161379622 0.8645897902736348 0
0.8688392634236566 0.2994118585368647 0
0.5800353808458303 0.1217014542376582 0
0.7648995853252679 0.06179528160045689 0
0.1320059223365277 0.394024626656177 0
0.9415216868153189 0.3680432998531845 0
0.8609152483788357 0.7194499672059113 0
0.9461227580928957 0.4735635718587466 0
0.8084827596499427 0.2291651175646327 0
0.6919824567275796 0.6647083690128415 0
0.8381509783291167 0.1430900335329898 0
0.321224192238514 0.8643759849043419 0
0.826382347415095 0.8565590827114204 0
0.8855667387693893 0.5884330634144899 0
0.2053978397173015 0.5457660089597149 0
$EndNodes
$Elements
6 560 1 560
1 1 1 10
1 1 9 
2 9 10 
3 10 11 
4 11 12 
5 12 13 
6 13 14 
7 14 15 
8 15 16 
9 16 17 
10 17 2 
1 2 1 10
11 3 18 
12 18 19 
13 19 20 
14 20 21 
15 21 22 
16 22 23 
17 23 24 
18 24 25 
19 25 26 
20 26 1 
1 3 1 10
21 2 27 
22 27 28 
23 28 29 
24 29 30 
25 30 31 
26 31 32 
27 32 33 
28 33 34 
29 34 35 
30 35 4 
1 4 1 10
31 4 36 
32 36 37 
33 37 38 
34 38 39 
35 39 40 
36 40 41 
37 41 42 
38 42 43 
39 43 44 
40 44 3 
2 2 2 118
41 100 102 73 
42 88 90 76 
43 100 108 102 
44 76 107 88 
45 56 94 55 
46 56 112 94 
47 79 103 99 
48 90 106 76 
49 72 89 87 
50 87 88 72 
51 93 101 71 
52 83 95 80 
53 101 108 71 
54 95 103 79 
55 102 105 73 
56 59 96 58 
57 92 94 75 
58 60 98 70 
59 84 97 86 
60 80 95 79 
61 87 95 83 
62 98 106 90 
63 99 103 74 
64 89 104 103 
65 61 98 60 
66 70 97 91 
67 91 96 70 
68 70 96 59 
69 58 96 75 
70 75 96 92 
71 70 98 97 
72 91 97 84 
73 86 97 90 
74 68 104 67 
75 89 95 87 
76 71 108 100 
77 94 112 75 
78 97 98 90 
79 53 100 52 
80 52 100 73 
81 49 77 48 
82 85 101 93 
83 78 80 79 
84 58 75 57 
85 46 99 74 
86 48 77 69 
87 46 74 45 
88 47 99 46 
89 60 70 59 
90 81 101 82 
91 86 90 88 
92 79 99 69 
93 92 96 91 
94 93 94 92 
95 54 71 53 
96 78 102 81 
97 85 91 84 
98 85 93 92 
99 69 99 47 
100 78 79 69 
101 77 78 69 
102 82 83 80 
103 82 85 84 
104 82 101 85 
105 85 92 91 
106 48 69 47 
107 52 73 51 
108 71 100 53 
109 81 82 80 
110 84 86 83 
111 86 88 87 
112 64 76 63 
113 82 84 83 
114 66 72 65 
115 78 81 80 
116 86 87 83 
117 77 102 78 
118 50 105 49 
119 77 105 102 
120 89 110 104 
121 88 107 72 
122 89 103 95 
123 72 110 89 
124 49 105 77 
125 103 104 74 
126 61 106 98 
127 62 106 61 
128 64 107 76 
129 72 107 65 
130 102 108 81 
131 66 110 72 
132 45 111 5 
133 51 113 6 
134 5 111 68 
135 57 112 7 
136 7 112 56 
137 6 113 50 
138 68 111 104 
139 71 109 93 
140 8 114 62 
141 63 114 8 
142 54 109 71 
143 94 109 55 
144 55 109 54 
145 65 107 64 
146 104 110 67 
147 81 108 101 
148 93 109 94 
149 104 111 74 
150 50 113 105 
151 67 110 66 
152 76 114 63 
153 74 111 45 
154 73 113 51 
155 75 112 57 
156 105 113 73 
157 106 114 76 
158 62 114 106 
2 3 2 402
159 144 228 191 
160 11 222 181 
161 199 231 115 
162 167 264 168 
163 226 269 182 
164 56 216 7 
165 187 269 226 
166 222 264 167 
167 212 242 129 
168 191 228 130 
169 191 269 144 
170 116 216 56 
171 50 217 6 
172 19 202 18 
173 130 239 191 
174 181 263 11 
175 163 242 212 
176 164 235 233 
177 117 217 50 
178 247 267 156 
179 140 209 158 
180 186 214 190 
181 156 267 240 
182 5 196 45 
183 62 187 8 
184 197 246 169 
185 188 275 131 
186 144 187 62 
187 190 273 186 
188 14 226 182 
189 45 196 127 
190 192 231 199 
191 182 191 162 
192 202 261 18 
193 129 242 194 
194 215 239 221 
195 29 272 219 
196 170 209 140 
197 229 251 249 
198 192 199 138 
199 115 234 199 
200 196 252 127 
201 164 233 211 
202 147 192 138 
203 190 280 189 
204 13 182 162 
205 141 190 33 
206 179 246 197 
207 125 199 123 
208 118 249 245 
209 184 281 183 
210 213 220 126 
211 131 230 188 
212 208 266 116 
213 250 281 184 
214 198 275 188 
215 7 216 120 
216 141 273 190 
217 209 281 158 
218 245 249 203 
219 6 217 124 
220 29 180 28 
221 122 215 119 
222 181 222 167 
223 180 198 193 
224 165 238 219 
225 32 189 31 
226 180 193 28 
227 13 162 12 
228 138 199 125 
229 17 159 16 
230 153 192 147 
231 42 200 121 
232 162 264 222 
233 207 208 166 
234 161 166 153 
235 14 182 13 
236 32 190 189 
237 229 249 184 
238 252 258 225 
239 166 192 153 
240 218 231 208 
241 121 205 41 
242 161 207 166 
243 179 197 24 
244 38 129 37 
245 208 231 166 
246 160 201 200 
247 129 204 37 
248 127 252 225 
249 183 281 209 
250 42 121 41 
251 25 179 24 
252 30 272 29 
253 21 118 20 
254 10 164 9 
255 221 241 215 
256 207 209 170 
257 214 280 190 
258 120 216 135 
259 2 248 17 
260 41 205 40 
261 134 215 122 
262 160 200 43 
263 24 197 23 
264 34 141 33 
265 168 215 134 
266 164 263 235 
267 202 203 201 
268 182 269 191 
269 29 219 180 
270 25 211 179 
271 151 153 147 
272 207 266 208 
273 168 239 215 
274 43 200 42 
275 34 210 141 
276 124 217 136 
277 189 252 196 
278 154 161 153 
279 28 193 27 
280 116 257 208 
281 135 170 140 
282 33 190 32 
283 193 277 159 
284 167 168 134 
285 194 279 129 
286 37 204 36 
287 249 251 203 
288 188 277 198 
289 227 265 39 
290 175 276 177 
291 40 227 39 
292 38 212 129 
293 177 276 236 
294 160 202 201 
295 116 266 216 
296 39 212 38 
297 135 216 170 
298 44 160 43 
299 243 247 156 
300 199 234 123 
301 27 248 2 
302 35 210 34 
303 118 245 20 
304 136 175 155 
305 26 211 25 
306 30 274 195 
307 177 213 186 
308 238 268 219 
309 213 236 220 
310 9 254 1 
311 22 262 256 
312 23 262 22 
313 12 222 11 
314 151 154 153 
315 136 217 175 
316 172 247 243 
317 215 241 119 
318 19 245 202 
319 39 265 212 
320 162 222 12 
321 161 209 207 
322 180 224 198 
323 169 271 197 
324 175 177 176 
325 205 267 247 
326 22 244 21 
327 1 254 26 
328 201 255 200 
329 11 263 10 
330 154 183 161 
331 177 186 185 
332 4 253 35 
333 159 270 16 
334 189 274 31 
335 183 209 161 
336 36 253 4 
337 205 227 40 
338 196 274 189 
339 195 272 30 
340 166 231 192 
341 137 138 125 
342 159 248 193 
343 213 214 186 
344 55 116 56 
345 52 115 53 
346 6 123 51 
347 53 218 54 
348 17 248 159 
349 15 226 14 
350 146 147 138 
351 120 135 128 
352 200 278 121 
353 150 151 147 
354 49 117 50 
355 126 258 213 
356 232 246 149 
357 7 119 57 
358 48 220 49 
359 158 178 171 
360 135 140 139 
361 3 261 44 
362 18 261 3 
363 150 206 152 
364 239 264 191 
365 175 176 155 
366 154 184 183 
367 47 126 48 
368 160 261 202 
369 150 152 151 
370 51 234 52 
371 58 221 59 
372 211 233 179 
373 129 279 204 
374 140 158 157 
375 133 149 148 
376 169 246 232 
377 59 130 60 
378 212 265 163 
379 204 279 210 
380 133 134 122 
381 124 136 132 
382 174 188 145 
383 46 225 47 
384 136 155 142 
385 146 150 147 
386 148 167 134 
387 163 172 142 
388 202 245 203 
389 137 146 138 
390 57 241 58 
391 60 228 61 
392 64 131 65 
393 121 267 205 
394 235 263 181 
395 157 169 139 
396 259 270 159 
397 177 185 176 
398 22 256 244 
399 21 244 118 
400 6 124 123 
401 117 276 217 
402 45 127 46 
403 140 157 139 
404 170 266 207 
405 210 237 141 
406 158 171 157 
407 61 144 62 
408 63 230 64 
409 115 218 53 
410 137 156 146 
411 152 229 151 
412 185 194 176 
413 132 137 125 
414 133 148 134 
415 7 120 119 
416 144 269 187 
417 135 139 128 
418 151 229 154 
419 255 278 200 
420 65 223 66 
421 178 281 250 
422 155 163 142 
423 148 181 167 
424 124 125 123 
425 8 145 63 
426 203 251 201 
427 219 272 165 
428 31 274 30 
429 191 264 162 
430 52 234 115 
431 193 248 27 
432 123 234 51 
433 219 268 180 
434 124 132 125 
435 120 128 122 
436 136 142 132 
437 128 133 122 
438 66 143 67 
439 185 237 194 
440 154 229 184 
441 115 231 218 
442 198 277 193 
443 49 220 117 
444 164 254 9 
445 20 245 19 
446 197 262 23 
447 16 270 15 
448 216 266 170 
449 67 238 68 
450 126 220 48 
451 233 235 149 
452 10 263 164 
453 150 240 206 
454 133 232 149 
455 119 241 57 
456 195 196 5 
457 188 230 145 
458 120 122 119 
459 149 235 148 
460 8 187 173 
461 58 241 221 
462 204 253 36 
463 59 221 130 
464 172 243 142 
465 55 257 116 
466 177 236 213 
467 218 257 54 
468 47 225 126 
469 68 165 5 
470 163 265 172 
471 155 242 163 
472 210 279 237 
473 169 232 139 
474 210 253 204 
475 220 236 117 
476 35 253 210 
477 26 254 211 
478 176 242 155 
479 213 258 214 
480 130 228 60 
481 139 232 128 
482 148 235 181 
483 128 232 133 
484 178 256 171 
485 137 243 156 
486 221 239 130 
487 146 240 150 
488 211 254 164 
489 194 242 176 
490 227 247 172 
491 214 258 252 
492 127 225 46 
493 156 240 146 
494 149 246 233 
495 8 173 145 
496 61 228 144 
497 44 261 160 
498 64 230 131 
499 240 267 206 
500 132 243 137 
501 178 250 244 
502 131 223 65 
503 168 264 239 
504 173 174 145 
505 259 277 188 
506 54 257 55 
507 208 257 218 
508 145 230 63 
509 142 243 132 
510 180 268 224 
511 251 255 201 
512 244 256 178 
513 205 247 227 
514 172 265 227 
515 233 246 179 
516 157 271 169 
517 165 195 5 
518 152 255 251 
519 66 223 143 
520 185 273 237 
521 244 250 118 
522 223 224 143 
523 152 251 229 
524 158 281 178 
525 187 226 173 
526 206 255 152 
527 249 250 184 
528 267 278 206 
529 143 238 67 
530 15 270 260 
531 15 260 226 
532 174 259 188 
533 256 262 171 
534 186 273 185 
535 68 238 165 
536 171 271 157 
537 237 273 141 
538 121 278 267 
539 225 258 126 
540 118 250 249 
541 217 276 175 
542 236 276 117 
543 237 279 194 
544 223 275 224 
545 195 274 196 
546 174 270 259 
547 173 260 174 
548 224 275 198 
549 260 270 174 
550 131 275 223 
551 224 268 143 
552 262 271 171 
553 226 260 173 
554 165 272 195 
555 143 268 238 
556 197 271 262 
557 252 280 214 
558 159 277 259 
559 189 280 252 
560 206 278 255 
$EndElements
