$MeshFormat
4.1 0 8
$EndMeshFormat
$PhysicalNames
3
1 101 "outer_boundary"
2 1 "material_1"
2 2 "material_2"
$EndPhysicalNames
$Entities
5 5 2 0
1 0 0 0 0 
2 1 0 0 0 
3 0 1 0 0 
4 1 1 0 0 
5 0.9198530513959308 0.4744872741464319 0 0 
1 -9.999999994736442e-08 -1e-07 -1e-07 1.0000001 1e-07 1e-07 1 101 2 1 -2 
2 -1e-07 -9.999999994736442e-08 -1e-07 1e-07 1.0000001 1e-07 1 101 2 3 -1 
3 0.9999999000000001 -9.999999994736442e-08 -1e-07 1.0000001 1.0000001 1e-07 1 101 2 2 -4 
4 -9.999999994736442e-08 0.9999999000000001 -1e-07 1.0000001 1.0000001 1e-07 1 101 2 4 -3 
5 0.4934016440195105 0.2612615204582218 -1e-07 0.9198531513959307 0.6877130278346419 1e-07 0 2 5 -5 
2 0.4934016440195105 0.2612615204582218 -1e-07 0.9198531513959307 0.6877130278346419 1e-07 1 2 1 5 
3 -9.999999994736442e-08 -9.999999994736442e-08 -1e-07 1.0000001 1.0000001 1e-07 1 1 5 1 3 4 2 -5 
$EndEntities
$Nodes
12 169 1 169
0 1 0 1
1
0 0 0
0 2 0 1
2
1 0 0
0 3 0 1
3
0 1 0
0 4 0 1
4
1 1 0
0 5 0 1
5
0.9198530513959308 0.4744872741464319 0
1 1 0 7
6
7
8
9
10
11
12
0.1249999999999999 0 0
0.2499999999999998 0 0
0.3749999999999993 0 0
0.4999999999999988 0 0
0.6249999999999988 0 0
0.7499999999999991 0 0
0.8749999999999997 0 0
1 2 0 7
13
14
15
16
17
18
19
0 0.8750000000000001 0
0 0.7500000000000002 0
0 0.6250000000000007 0
0 0.5000000000000012 0
0 0.3750000000000012 0
0 0.2500000000000009 0
0 0.1250000000000003 0
1 3 0 7
20
21
22
23
24
25
26
1 0.1249999999999999 0
1 0.2499999999999998 0
1 0.3749999999999993 0
1 0.4999999999999988 0
1 0.6249999999999988 0
1 0.7499999999999991 0
1 0.8749999999999997 0
1 4 0 7
27
28
29
30
31
32
33
0.8750000000000001 1 0
0.7500000000000002 1 0
0.6250000000000007 1 0
0.5000000000000012 1 0
0.3750000000000012 1 0
0.2500000000000009 1 0
0.1250000000000003 1 0
1 5 0 19
34
35
36
37
38
39
40
41
42
43
44
45
46
47
48
49
50
51
52
0.9094170450891865 0.5403776247727961 0
0.8791305751781897 0.5998181687947841 0
0.8319582923560724 0.6469904516169013 0
0.7725177483340844 0.677276921527898 0
0.7066273977077201 0.687712927834642 0
0.640737047081356 0.6772769215278978 0
0.581296503059368 0.6469904516169007 0
0.5341242202372511 0.5998181687947834 0
0.5038377503262544 0.5403776247727954 0
0.4934017440195105 0.474487274146431 0
0.503837750326255 0.4085969235200669 0
0.534124220237252 0.3491563794980791 0
0.5812965030593695 0.301984096675962 0
0.6407370470813576 0.2716976267649656 0
0.706627397707722 0.2612616204582218 0
0.7725177483340858 0.2716976267649662 0
0.8319582923560735 0.3019840966759634 0
0.8791305751781903 0.3491563794980804 0
0.9094170450891866 0.4085969235200679 0
2 2 0 34
53
54
55
56
57
58
59
60
61
62
63
64
65
66
67
68
69
70
71
72
73
74
75
76
77
78
79
80
81
82
83
84
85
86
0.777319498706212 0.3342104344339197 0
0.6372456274042384 0.6106566654345904 0
0.5721525171210563 0.4076719114639502 0
0.8427967889958792 0.5438690444499138 0
0.6847218130308125 0.3340771280577651 0
0.8575723307358638 0.4505799454089449 0
0.5683407124118649 0.5449502338460056 0
0.7305347264452073 0.6254322071745747 0
0.7835376825577913 0.6254322071745748 0
0.7687109320570369 0.5687517854016926 0
0.689579223880977 0.5746499178467652 0
0.7215565259918801 0.5129959651577893 0
0.6567086792792546 0.5130383063466262 0
0.6831031372402199 0.4567318777080139 0
0.7459316826841796 0.4521989416586835 0
0.7100286521361109 0.3995007175935453 0
0.6387744130352124 0.3948249032139075 0
0.8019365252316818 0.4958677813101702 0
0.6183929968857649 0.4578063175631187 0
0.5521970192664144 0.4777039082612758 0
0.6251747781549974 0.3322993728731982 0
0.7653903306032852 0.3924719811824179 0
0.819777774243747 0.3703916285080476 0
0.8059463642153992 0.4343947043715511 0
0.6807108374031936 0.6370500975070593 0
0.7338479628410813 0.3091956512080442 0
0.8212268542289939 0.5969723314875733 0
0.8663151482897085 0.5010363340176514 0
0.5868368206104595 0.5942778512436923 0
0.6244797290644164 0.5587126775141378 0
0.6054156637741945 0.5100370725165631 0
0.8598890338295971 0.4027814174336401 0
0.7342616514635004 0.3538911824951384 0
0.5839739876561881 0.358284182208649 0
2 3 0 83
87
88
89
90
91
92
93
94
95
96
97
98
99
100
101
102
103
104
105
106
107
108
109
110
111
112
113
114
115
116
117
118
119
120
121
122
123
124
125
126
127
128
129
130
131
132
133
134
135
136
137
138
139
140
141
142
143
144
145
146
147
148
149
150
151
152
153
154
155
156
157
158
159
160
161
162
163
164
165
166
167
168
169
0.4692086085736588 0.5997961147959719 0
0.4653381925315069 0.3518911955006323 0
0.09849519441721694 0.6907875632041358 0
0.1041050356306465 0.4393056118650143 0
0.5762353253971384 0.7208111365690082 0
0.3167735309874795 0.1028416161989474 0
0.7475986775292606 0.7395519934177304 0
0.3081602411248097 0.9076041354461016 0
0.5916687053442915 0.2333042794187603 0
0.8398735723345484 0.2464453349862684 0
0.1007244403659678 0.1854382214293414 0
0.5600902937255398 0.9005416586009876 0
0.4367588394930304 0.5347546452541725 0
0.3937899432191051 0.597163956760165 0
0.4335608524005774 0.6668271173216185 0
0.3652232619517838 0.5236755479861659 0
0.3483606614354087 0.6654818730691394 0
0.4969443231518072 0.2910119794790925 0
0.4210422541751603 0.2864111740083903 0
0.4573955240029923 0.2135990079221491 0
0.390314594651558 0.3761905778283362 0
0.336953423087289 0.2898021882128169 0
0.297128300104771 0.3746800659175724 0
0.3912489647809564 0.7391969920634557 0
0.2981859094557222 0.7386474940772698 0
0.6646443758188429 0.739557642187965 0
0.7060592708086184 0.8110037386444262 0
0.7944459798186114 0.808825664246076 0
0.6468240427892022 0.2010805340810254 0
0.7183597203409401 0.1887452654316102 0
0.5788834211478171 0.1648197912310984 0
0.2466793163060228 0.3036910090608557 0
0.2557058367933899 0.6511083431789839 0
0.8228641111080425 0.7191441112738702 0
0.9082802028983135 0.6753166738868943 0
0.4116045069713681 0.4610697779837024 0
0.479610245742391 0.7365202360822304 0
0.4353069635261063 0.80363634466346 0
0.657452579035511 0.1054533898204954 0
0.9017543424782807 0.8069747541787305 0
0.4332494939881515 0.1042208444583367 0
0.8275308657438871 0.09806240780914632 0
0.6158931822164719 0.8143558077678341 0
0.1112529565265533 0.5727566769725384 0
0.2051916459917622 0.4998689848449028 0
0.1217251143209427 0.3102258705012355 0
0.1188618772701096 0.810598196094823 0
0.9004013300843888 0.2801298779999775 0
0.8983176615458554 0.1878230472516491 0
0.2769375580175461 0.2010129188896188 0
0.1907495163842897 0.9072349050973599 0
0.1935637029977091 0.1152417182937168 0
0.5123392925683975 0.6617938708634188 0
0.2061964458298301 0.3940460025675596 0
0.1998277911884196 0.7392893813816148 0
0.6664284729019617 0.9039124763692348 0
0.8546759842203 0.8885227105415768 0
0.3350409722837338 0.4460962807932173 0
0.3736567144237539 0.1896011007914811 0
0.3173564650415673 0.591342027380239 0
0.5219013546467306 0.8103081942353827 0
0.7610245725400048 0.9019953018042496 0
0.1964121970486993 0.5904555927887187 0
0.435247586497663 0.8906673288453171 0
0.9201697054579485 0.08217709101215909 0
0.1879260264016377 0.2231219476349536 0
0.2859643534964165 0.506708837410015 0
0.500203834769813 0.1500396933636554 0
0.5489847807375602 0.08385990060009441 0
0.2436765979806339 0.8193258468447429 0
0.9377897900703531 0.332576636203625 0
0.3491807787022191 0.8145871193210006 0
0.4463301602901718 0.4094354836262165 0
0.09180474924489346 0.9090063228091024 0
0.7450351129480032 0.1117934792994592 0
0.09150635094610987 0.09150635094610998 0
0.798176484516002 0.1809660586146077 0
0.5258180958203318 0.2284400850321981 0
0.9412377435155723 0.5914910937172004 0
0.9290916427909724 0.9228740038135974 0
0.2659043435413027 0.4442800343066534 0
0.1797640146300475 0.6643162054656367 0
0.2550940130577433 0.5663264064126091 0
$EndNodes
$Elements
6 336 1 336
1 1 1 8
1 1 6 
2 6 7 
3 7 8 
4 8 9 
5 9 10 
6 10 11 
7 11 12 
8 12 2 
1 2 1 8
9 3 13 
10 13 14 
11 14 15 
12 15 16 
13 16 17 
14 17 18 
15 18 19 
16 19 1 
1 3 1 8
17 2 20 
18 20 21 
19 21 22 
20 22 23 
21 23 24 
22 24 25 
23 25 26 
24 26 4 
1 4 1 8
25 4 27 
26 27 28 
27 28 29 
28 29 30 
29 30 31 
30 31 32 
31 32 33 
32 33 3 
2 2 2 86
33 42 72 59 
34 58 80 70 
35 68 69 57 
36 70 76 58 
37 43 72 42 
38 62 70 56 
39 56 79 62 
40 70 80 56 
41 69 73 57 
42 69 71 55 
43 72 83 59 
44 55 86 69 
45 57 85 68 
46 55 72 44 
47 44 72 43 
48 47 73 46 
49 57 73 47 
50 69 86 73 
51 64 70 62 
52 66 71 69 
53 40 54 39 
54 50 53 49 
55 48 57 47 
56 42 59 41 
57 5 58 52 
58 35 56 34 
59 38 60 37 
60 45 55 44 
61 66 69 68 
62 66 68 67 
63 67 70 64 
64 65 71 66 
65 66 67 64 
66 65 66 64 
67 63 65 64 
68 63 64 62 
69 71 72 55 
70 51 75 50 
71 50 75 53 
72 62 79 61 
73 75 84 76 
74 60 63 62 
75 63 77 54 
76 60 77 63 
77 75 76 74 
78 67 76 70 
79 63 82 65 
80 54 82 63 
81 68 74 67 
82 71 83 72 
83 76 84 58 
84 60 62 61 
85 53 75 74 
86 38 77 60 
87 36 79 35 
88 48 78 57 
89 54 77 39 
90 34 80 5 
91 59 81 41 
92 49 78 48 
93 60 61 37 
94 37 61 36 
95 40 81 54 
96 56 80 34 
97 41 81 40 
98 53 78 49 
99 35 79 56 
100 39 77 38 
101 5 80 58 
102 46 86 45 
103 52 84 51 
104 65 83 71 
105 58 84 52 
106 45 86 55 
107 74 76 67 
108 73 86 46 
109 68 85 74 
110 74 85 53 
111 51 84 75 
112 59 82 81 
113 59 83 82 
114 78 85 57 
115 61 79 36 
116 81 82 54 
117 82 83 65 
118 53 85 78 
2 3 2 218
119 108 145 105 
120 25 126 121 
121 11 161 125 
122 121 126 120 
123 113 142 129 
124 5 23 34 
125 91 147 123 
126 23 165 34 
127 135 163 128 
128 48 116 49 
129 123 139 91 
130 105 145 106 
131 118 140 132 
132 126 166 143 
133 98 150 147 
134 129 142 98 
135 107 159 122 
136 136 138 92 
137 11 125 10 
138 129 147 91 
139 147 150 124 
140 122 144 107 
141 116 163 49 
142 136 152 138 
143 26 166 126 
144 150 158 124 
145 25 121 24 
146 27 148 143 
147 132 152 118 
148 26 126 25 
149 96 163 135 
150 141 156 133 
151 132 140 90 
152 49 163 96 
153 93 120 114 
154 104 164 46 
155 94 158 150 
156 128 151 135 
157 28 148 27 
158 136 145 108 
159 24 165 23 
160 15 130 89 
161 42 99 43 
162 133 156 137 
163 46 164 95 
164 90 131 130 
165 45 104 46 
166 99 122 43 
167 17 132 90 
168 149 168 130 
169 87 139 101 
170 130 168 89 
171 113 129 112 
172 8 127 92 
173 47 115 48 
174 106 145 127 
175 30 98 29 
176 2 151 12 
177 22 157 21 
178 90 130 16 
179 8 92 7 
180 127 154 106 
181 12 128 11 
182 90 140 131 
183 43 159 44 
184 30 150 98 
185 41 139 87 
186 15 89 14 
187 101 139 123 
188 17 90 16 
189 9 127 8 
190 89 133 14 
191 125 155 10 
192 97 132 18 
193 120 126 114 
194 102 122 99 
195 92 138 7 
196 20 151 2 
197 16 130 15 
198 91 139 40 
199 32 94 31 
200 18 132 17 
201 21 135 20 
202 115 116 48 
203 19 97 18 
204 107 144 109 
205 52 157 22 
206 89 141 133 
207 32 137 94 
208 14 133 13 
209 29 142 28 
210 39 112 91 
211 102 144 122 
212 33 137 32 
213 51 157 52 
214 122 159 43 
215 9 155 127 
216 94 150 31 
217 113 148 142 
218 117 155 125 
219 93 112 38 
220 98 142 29 
221 7 138 6 
222 98 147 129 
223 112 129 91 
224 127 155 154 
225 97 152 132 
226 127 145 92 
227 37 120 93 
228 93 113 112 
229 101 123 110 
230 114 148 113 
231 95 164 117 
232 134 135 21 
233 3 160 33 
234 13 160 3 
235 41 87 42 
236 142 148 28 
237 128 161 11 
238 111 119 103 
239 138 152 97 
240 115 125 116 
241 121 165 24 
242 44 88 45 
243 12 151 128 
244 6 162 1 
245 1 162 19 
246 36 121 120 
247 40 139 41 
248 117 164 154 
249 131 149 130 
250 39 91 40 
251 92 145 136 
252 109 140 118 
253 146 153 102 
254 87 99 42 
255 118 136 108 
256 37 93 38 
257 21 157 134 
258 88 107 105 
259 111 141 119 
260 107 109 108 
261 46 95 47 
262 123 124 110 
263 96 134 50 
264 87 101 100 
265 100 102 99 
266 96 135 134 
267 38 112 39 
268 109 118 108 
269 119 146 103 
270 135 151 20 
271 87 100 99 
272 88 104 45 
273 101 110 103 
274 49 96 50 
275 36 120 37 
276 110 111 103 
277 101 103 100 
278 107 108 105 
279 105 106 104 
280 93 114 113 
281 88 105 104 
282 126 143 114 
283 140 167 131 
284 10 155 9 
285 95 115 47 
286 35 121 36 
287 31 150 30 
288 137 156 94 
289 138 162 6 
290 35 165 121 
291 143 148 114 
292 133 160 13 
293 123 147 124 
294 100 146 102 
295 50 134 51 
296 117 125 115 
297 95 117 115 
298 33 160 137 
299 137 160 133 
300 103 146 100 
301 19 162 97 
302 118 152 136 
303 102 153 144 
304 88 159 107 
305 97 162 138 
306 111 156 141 
307 146 169 153 
308 124 158 110 
309 125 161 116 
310 154 155 117 
311 4 166 26 
312 27 166 4 
313 119 169 146 
314 111 158 156 
315 34 165 35 
316 110 158 111 
317 44 159 88 
318 109 167 140 
319 154 164 106 
320 161 163 116 
321 106 164 104 
322 149 169 119 
323 141 168 119 
324 89 168 141 
325 156 158 94 
326 134 157 51 
327 143 166 27 
328 144 167 109 
329 153 167 144 
330 131 169 149 
331 131 167 153 
332 128 163 161 
333 119 168 149 
334 153 169 131 
335 22 23 5 
336 52 22 5 
$EndElements
