$MeshFormat
4.1 0 8
$EndMeshFormat
$PhysicalNames
3
1 101 "outer_boundary"
2 1 "material_1"
2 2 "material_2"
$EndPhysicalNames
$Entities
5 5 2 0
1 0 0 0 0 
2 1 0 0 0 
3 0 1 0 0 
4 1 1 0 0 
5 0.5824124873766087 0.564072857235965 0 0 
1 -9.999999994736442e-08 -1e-07 -1e-07 1.0000001 1e-07 1e-07 1 101 2 1 -2 
2 -1e-07 -9.999999994736442e-08 -1e-07 1e-07 1.0000001 1e-07 1 101 2 3 -1 
3 0.9999999000000001 -9.999999994736442e-08 -1e-07 1.0000001 1.0000001 1e-07 1 101 2 2 -4 
4 -9.999999994736442e-08 0.9999999000000001 -1e-07 1.0000001 1.0000001 1e-07 1 101 2 4 -3 
5 0.1328760672265284 0.3393045971609249 -1e-07 0.5824125873766086 0.7888411173110051 1e-07 0 2 5 -5 
2 0.1328760672265284 0.3393045971609249 -1e-07 0.5824125873766086 0.7888411173110051 1e-07 1 2 1 5 
3 -9.999999994736442e-08 -9.999999994736442e-08 -1e-07 1.0000001 1.0000001 1e-07 1 1 5 1 3 4 2 -5 
$EndEntities
$Nodes
12 176 1 176
0 1 0 1
1
0 0 0
0 2 0 1
2
1 0 0
0 3 0 1
3
0 1 0
0 4 0 1
4
1 1 0
0 5 0 1
5
0.5824124873766087 0.564072857235965 0
1 1 0 7
6
7
8
9
10
11
12
0.1249999999999999 0 0
0.2499999999999998 0 0
0.3749999999999993 0 0
0.4999999999999988 0 0
0.6249999999999988 0 0
0.7499999999999991 0 0
0.8749999999999997 0 0
1 2 0 7
13
14
15
16
17
18
19
0 0.8750000000000001 0
0 0.7500000000000002 0
0 0.6250000000000007 0
0 0.5000000000000012 0
0 0.3750000000000012 0
0 0.2500000000000009 0
0 0.1250000000000003 0
1 3 0 7
20
21
22
23
24
25
26
1 0.1249999999999999 0
1 0.2499999999999998 0
1 0.3749999999999993 0
1 0.4999999999999988 0
1 0.6249999999999988 0
1 0.7499999999999991 0
1 0.8749999999999997 0
1 4 0 7
27
28
29
30
31
32
33
0.8750000000000001 1 0
0.7500000000000002 1 0
0.6250000000000007 1 0
0.5000000000000012 1 0
0.3750000000000012 1 0
0.2500000000000009 1 0
0.1250000000000003 1 0
1 5 0 20
34
35
36
37
38
39
40
41
42
43
44
45
46
47
48
49
50
51
52
53
0.572426668675863 0.6303244354609017 0
0.5433564963872308 0.6906892702202903 0
0.4977849828909072 0.7398036810390453 0
0.4397613571483332 0.7733036369808783 0
0.3744412729392241 0.7882125199482224 0
0.3076287063980275 0.7832056102628737 0
0.2452602472640478 0.7587277938228366 0
0.1928776068308138 0.7169540320379367 0
0.1551352125782496 0.6615961069638966 0
0.1353866418654645 0.5975728131777974 0
0.1353866418654647 0.5305729012941314 0
0.1551352125782501 0.4665496075080324 0
0.1928776068308145 0.4111916824339925 0
0.2452602472640485 0.369417920649093 0
0.3076287063980284 0.3449401042090562 0
0.3744412729392249 0.3399331945237077 0
0.4397613571483338 0.3548420774910519 0
0.4977849828909077 0.3883420334328852 0
0.543356496387231 0.4374564442516399 0
0.5724266686758631 0.4978212790110288 0
2 2 0 40
54
55
56
57
58
59
60
61
62
63
64
65
66
67
68
69
70
71
72
73
74
75
76
77
78
79
80
81
82
83
84
85
86
87
88
89
90
91
92
93
0.5200440282426292 0.5395950407959282 0
0.182823975525485 0.5638583478748532 0
0.3972636055511132 0.7264053364197072 0
0.3434551875620669 0.3976563832847532 0
0.2545288256653738 0.6944987844102866 0
0.4780364121781225 0.452365327218984 0
0.2294054971692616 0.4713496368638611 0
0.5056141021346665 0.6353313451462501 0
0.5200440282426291 0.4858652831608173 0
0.4668461448303816 0.5101527437597115 0
0.416257326024533 0.4730090356159934 0
0.4045810568828977 0.5349533389643665 0
0.3530990589372568 0.4949239129475795 0
0.3384117077947705 0.5568797003059027 0
0.3883285750482299 0.6007224333732413 0
0.3261310741552304 0.6203844014981424 0
0.2803701885458597 0.5757202912503198 0
0.466975772707795 0.5784400817840311 0
0.2876085292542249 0.5123475198305174 0
0.3014036660674315 0.4485457222220982 0
0.4412268803618453 0.6374941818375619 0
0.3741709226733054 0.6632670522504955 0
0.3082464182528349 0.6801047195671628 0
0.4325324499547369 0.4164265681809648 0
0.4750718047238237 0.6855720400082201 0
0.2683211616461826 0.6377484439190236 0
0.2130991001489159 0.6543088389415417 0
0.3416040737946646 0.7287446000200662 0
0.2324777608807222 0.5355638167910022 0
0.2522270345316633 0.4206394768469452 0
0.5294946118275125 0.5895527520846152 0
0.1870458176038367 0.513578862066376 0
0.2267868315656079 0.598827442353716 0
0.2918854706788725 0.3955719565074007 0
0.2904307578974162 0.7296894616324425 0
0.3707743514804376 0.4441503142561635 0
0.426757422537869 0.6869470692389752 0
0.392580270006087 0.3858506210707107 0
0.1826463523367446 0.615232709862361 0
0.4473278345704093 0.7224063527373652 0
2 3 0 83
94
95
96
97
98
99
100
101
102
103
104
105
106
107
108
109
110
111
112
113
114
115
116
117
118
119
120
121
122
123
124
125
126
127
128
129
130
131
132
133
134
135
136
137
138
139
140
141
142
143
144
145
146
147
148
149
150
151
152
153
154
155
156
157
158
159
160
161
162
163
164
165
166
167
168
169
170
171
172
173
174
175
176
0.5607993581381404 0.3699890682340952 0
0.614215400750508 0.6782758921200662 0
0.633442678788994 0.5325853802092542 0
0.2492603166273154 0.3034289218456463 0
0.4127764834574321 0.2878842665897069 0
0.8917468245269456 0.3124999999999996 0
0.6966574993107089 0.1012610303565186 0
0.9047101444114227 0.7063792129145607 0
0.1847893562266837 0.7887343161386724 0
0.6721204703232958 0.897832691553539 0
0.497244765459636 0.8059239017850517 0
0.1673638865854146 0.1015981063314679 0
0.4312457563627911 0.1170808272841028 0
0.6101264582200621 0.42200602773319 0
0.634563867873476 0.3526621579659865 0
0.6908724592958694 0.4055100898159435 0
0.5795280644135276 0.2966275054967837 0
0.7180168315993445 0.3242657809378925 0
0.3366988786866595 0.8435704450222625 0
0.644106346225054 0.5968728946458891 0
0.7059931090454415 0.5453090014472383 0
0.690068459256994 0.6624132810802054 0
0.1834007637371229 0.3470190233874031 0
0.1836438326337216 0.2681955011926141 0
0.327932059575664 0.2717784635875482 0
0.6667445946175937 0.7403882340012928 0
0.1298629851458972 0.4086381431848333 0
0.1225242158650081 0.7340789600139555 0
0.2555025377304483 0.8247918817693235 0
0.5706044887106163 0.7565251588733863 0
0.4198475917395616 0.8367124517055432 0
0.7956231081248601 0.3885769758272898 0
0.7487457480498585 0.7201476264002384 0
0.7658605166157719 0.6205773641655769 0
0.789215435644258 0.5369404654403889 0
0.1873080673332795 0.8938422514395052 0
0.3810019262747166 0.2014077144337723 0
0.4638544550183295 0.2198723193365476 0
0.530301607237468 0.1422974089902249 0
0.3347320507558968 0.1087383507931434 0
0.5742602831538645 0.8425259397189984 0
0.9023873570103478 0.4371937340804371 0
0.0953373624259814 0.3320637870194507 0
0.2526333997767297 0.2273314379913799 0
0.805371854590728 0.8861836083780433 0
0.9016308938253411 0.8147564219282049 0
0.8144110538175504 0.1177638232262421 0
0.7357483141681634 0.2241202415911578 0
0.6334021205044881 0.2019525440981421 0
0.498825380632143 0.3134990831381472 0
0.09299456148990765 0.1685014223838547 0
0.9066819851317627 0.1880011666058198 0
0.4906963387468492 0.8876227647629642 0
0.07736301612289098 0.5640728572359642 0
0.1005220775795109 0.8258210322138613 0
0.8757330036319808 0.5729733657836227 0
0.729544509988995 0.8092280225272248 0
0.2980534645133748 0.9125752440578647 0
0.7442769798415749 0.4678111228276145 0
0.08981512836914085 0.6466872239965521 0
0.09229915167619623 0.4814441291168867 0
0.797809844847116 0.3015430720654375 0
0.4033827122810746 0.9134134842581058 0
0.5690140887981727 0.9273274092520942 0
0.08679927143725341 0.08663641138681932 0
0.5434621374970494 0.2269952225191836 0
0.6509879228876406 0.8170336049719745 0
0.9104764447057911 0.9105031150983061 0
0.08256602898255816 0.9189326567306733 0
0.6550917155951768 0.280202705169494 0
0.8150941594000611 0.7772426616305002 0
0.1776313781954698 0.1944716382837257 0
0.90849364905389 0.09150635094610993 0
0.6013573723234298 0.08581886110212067 0
0.6594870584402905 0.4716348930634996 0
0.8229464579321746 0.473525963683107 0
0.3102090247899197 0.1907393505431873 0
0.2487616233505717 0.1371464806571507 0
0.1121183938901282 0.2495604809352837 0
0.8292796044983077 0.2287856606977314 0
0.7015071077858154 0.6062931353347274 0
0.822028714421819 0.6794640461788998 0
0.06349989984961502 0.4194292118642347 0
$EndNodes
$Elements
6 350 1 350
1 1 1 8
1 1 6 
2 6 7 
3 7 8 
4 8 9 
5 9 10 
6 10 11 
7 11 12 
8 12 2 
1 2 1 8
9 3 13 
10 13 14 
11 14 15 
12 15 16 
13 16 17 
14 17 18 
15 18 19 
16 19 1 
1 3 1 8
17 2 20 
18 20 21 
19 21 22 
20 22 23 
21 23 24 
22 24 25 
23 25 26 
24 26 4 
1 4 1 8
25 4 27 
26 27 28 
27 28 29 
28 29 30 
29 30 31 
30 31 32 
31 32 33 
32 33 3 
2 2 2 99
33 65 71 68 
34 60 73 72 
35 71 74 68 
36 60 83 73 
37 63 71 65 
38 56 81 75 
39 75 81 76 
40 70 86 82 
41 74 75 68 
42 82 86 55 
43 67 72 66 
44 46 60 45 
45 35 61 34 
46 41 58 40 
47 5 54 53 
48 52 59 51 
49 49 57 48 
50 44 55 43 
51 38 56 37 
52 70 72 67 
53 69 70 67 
54 68 69 67 
55 65 68 67 
56 72 82 60 
57 65 67 66 
58 65 66 64 
59 63 65 64 
60 61 74 71 
61 72 73 66 
62 51 77 50 
63 59 77 51 
64 71 84 61 
65 68 75 69 
66 36 78 35 
67 35 78 61 
68 54 71 63 
69 63 64 59 
70 42 80 41 
71 41 80 58 
72 54 84 71 
73 70 82 72 
74 57 89 73 
75 73 89 66 
76 39 81 38 
77 38 81 56 
78 76 79 69 
79 58 79 76 
80 75 76 69 
81 74 90 75 
82 89 91 77 
83 64 89 77 
84 64 77 59 
85 69 79 70 
86 47 83 46 
87 46 83 60 
88 61 78 74 
89 54 63 62 
90 53 62 52 
91 62 63 59 
92 34 84 5 
93 52 62 59 
94 61 84 34 
95 54 62 53 
96 5 84 54 
97 44 85 55 
98 60 85 45 
99 48 87 47 
100 40 88 39 
101 50 91 49 
102 45 85 44 
103 56 93 37 
104 57 87 48 
105 55 92 43 
106 43 92 42 
107 58 88 40 
108 66 89 64 
109 73 87 57 
110 49 91 57 
111 58 80 79 
112 37 93 36 
113 75 90 56 
114 76 88 58 
115 77 91 50 
116 57 91 89 
117 81 88 76 
118 39 88 81 
119 79 86 70 
120 80 86 79 
121 82 85 60 
122 55 85 82 
123 47 87 83 
124 83 87 73 
125 42 92 80 
126 78 90 74 
127 36 93 78 
128 86 92 55 
129 90 93 56 
130 80 92 86 
131 78 93 90 
2 3 2 219
132 33 129 32 
133 33 162 129 
134 14 153 121 
135 34 113 95 
136 129 151 32 
137 99 135 125 
138 133 171 7 
139 149 169 135 
140 149 175 127 
141 49 118 98 
142 125 155 99 
143 9 132 106 
144 111 163 141 
145 128 149 127 
146 23 149 135 
147 30 156 146 
148 119 123 95 
149 113 115 95 
150 131 143 98 
151 128 169 149 
152 8 133 7 
153 9 167 132 
154 106 131 130 
155 131 159 143 
156 134 160 103 
157 103 157 134 
158 119 160 123 
159 7 171 105 
160 121 148 14 
161 101 175 149 
162 141 155 111 
163 118 130 98 
164 130 133 106 
165 132 167 142 
166 107 168 53 
167 127 174 114 
168 114 128 127 
169 53 168 96 
170 143 159 110 
171 142 159 132 
172 140 141 100 
173 106 133 8 
174 141 163 142 
175 31 156 30 
176 15 153 14 
177 106 132 131 
178 52 107 53 
179 14 148 13 
180 5 113 34 
181 11 140 100 
182 121 153 42 
183 151 156 31 
184 141 142 100 
185 48 118 49 
186 18 136 17 
187 9 106 8 
188 13 162 3 
189 29 103 28 
190 7 105 6 
191 103 138 28 
192 22 135 99 
193 123 160 134 
194 142 167 100 
195 32 151 31 
196 11 100 10 
197 25 101 24 
198 22 99 21 
199 110 159 142 
200 18 172 136 
201 25 139 101 
202 135 169 125 
203 94 143 110 
204 116 136 117 
205 23 135 22 
206 12 140 11 
207 114 168 152 
208 41 121 42 
209 103 150 138 
210 99 145 21 
211 29 157 103 
212 28 138 27 
213 51 143 94 
214 164 175 101 
215 134 146 104 
216 139 164 101 
217 26 139 25 
218 3 162 33 
219 98 143 50 
220 19 144 18 
221 96 168 114 
222 142 163 110 
223 95 123 35 
224 21 145 20 
225 24 149 23 
226 47 116 97 
227 140 173 141 
228 105 165 144 
229 10 167 9 
230 116 117 97 
231 4 161 26 
232 138 164 139 
233 150 164 138 
234 115 119 95 
235 27 161 4 
236 122 151 129 
237 101 149 24 
238 130 131 98 
239 1 158 19 
240 123 134 104 
241 16 147 15 
242 6 158 1 
243 36 123 104 
244 114 152 128 
245 112 156 151 
246 51 94 52 
247 146 156 124 
248 34 95 35 
249 53 96 5 
250 2 166 12 
251 20 166 2 
252 134 157 146 
253 145 173 140 
254 97 137 118 
255 148 162 13 
256 46 120 116 
257 40 122 102 
258 144 158 105 
259 49 98 50 
260 47 97 48 
261 122 129 102 
262 104 124 37 
263 115 127 126 
264 50 143 51 
265 112 122 39 
266 120 136 116 
267 144 172 18 
268 130 170 133 
269 94 107 52 
270 38 124 112 
271 117 137 97 
272 96 113 5 
273 111 125 109 
274 132 159 131 
275 104 146 124 
276 139 161 138 
277 46 116 47 
278 108 109 107 
279 35 123 36 
280 105 158 6 
281 136 172 117 
282 40 102 41 
283 100 167 10 
284 112 151 122 
285 120 176 136 
286 108 111 109 
287 36 104 37 
288 94 110 108 
289 97 118 48 
290 125 152 109 
291 115 126 119 
292 38 112 39 
293 126 150 119 
294 124 156 112 
295 115 174 127 
296 94 108 107 
297 152 168 109 
298 138 161 27 
299 39 122 40 
300 99 173 145 
301 96 114 113 
302 146 157 30 
303 45 120 46 
304 141 173 155 
305 17 176 16 
306 37 124 38 
307 30 157 29 
308 45 154 120 
309 118 170 130 
310 129 148 102 
311 26 161 139 
312 136 176 17 
313 145 166 20 
314 12 166 140 
315 137 170 118 
316 102 148 121 
317 111 155 125 
318 16 154 147 
319 140 166 145 
320 113 174 115 
321 19 158 144 
322 147 153 15 
323 117 172 165 
324 102 121 41 
325 44 154 45 
326 42 153 43 
327 147 154 44 
328 43 147 44 
329 43 153 147 
330 108 163 111 
331 150 160 119 
332 109 168 107 
333 126 164 150 
334 165 172 144 
335 155 173 99 
336 117 165 137 
337 110 163 108 
338 125 169 152 
339 129 162 148 
340 103 160 150 
341 16 176 154 
342 152 169 128 
343 126 175 164 
344 154 176 120 
345 165 171 137 
346 127 175 126 
347 114 174 113 
348 105 171 165 
349 137 171 170 
350 170 171 133 
$EndElements
