$MeshFormat
4.1 0 8
$EndMeshFormat
$PhysicalNames
3
1 101 "outer_boundary"
2 1 "material_1"
2 2 "material_2"
$EndPhysicalNames
$Entities
7 7 2 0
1 0 0 0 0 
2 1 0 0 0 
3 0 1 0 0 
4 1 1 0 0 
5 0.4907648283026627 0.6953972603679108 0 0 
6 0.6819398917313161 0.7805100334681521 0 0 
7 0.5126425363256396 0.9035161084173466 0 0 
1 -9.999999994736442e-08 -1e-07 -1e-07 1.0000001 1e-07 1e-07 1 101 2 1 -2 
2 -1e-07 -9.999999994736442e-08 -1e-07 1e-07 1.0000001 1e-07 1 101 2 3 -1 
3 0.9999999000000001 -9.999999994736442e-08 -1e-07 1.0000001 1.0000001 1e-07 1 101 2 2 -4 
4 -9.999999994736442e-08 0.9999999000000001 -1e-07 1.0000001 1.0000001 1e-07 1 101 2 4 -3 
5 0.4907647283026627 0.6953971603679109 -1e-07 0.681939991731316 0.780510133468152 1e-07 0 2 5 -6 
6 0.5126424363256397 0.7805099334681521 -1e-07 0.681939991731316 0.9035162084173466 1e-07 0 2 6 -7 
7 0.4907647283026627 0.6953971603679109 -1e-07 0.5126426363256396 0.9035162084173466 1e-07 0 2 7 -5 
2 0.4907647283026627 0.6953971603679109 -1e-07 0.681939991731316 0.9035162084173466 1e-07 1 2 3 5 6 7 
3 -9.999999994736442e-08 -9.999999994736442e-08 -1e-07 1.0000001 1.0000001 1e-07 1 1 7 1 3 4 2 -5 -7 -6 
$EndEntities
$Nodes
16 205 1 205
0 1 0 1
1
0 0 0
0 2 0 1
2
1 0 0
0 3 0 1
3
0 1 0
0 4 0 1
4
1 1 0
0 5 0 1
5
0.4907648283026627 0.6953972603679108 0
0 6 0 1
6
0.6819398917313161 0.7805100334681521 0
0 7 0 1
7
0.5126425363256396 0.9035161084173466 0
1 1 0 9
8
9
10
11
12
13
14
15
16
0.09999999999999996 0 0
0.1999999999999999 0 0
0.3000000000000001 0 0
0.4000000000000004 0 0
0.5000000000000003 0 0
0.5999999999999999 0 0
0.6999999999999995 0 0
0.7999999999999992 0 0
0.899999999999999 0 0
1 2 0 9
17
18
19
20
21
22
23
24
25
0 0.9 0
0 0.8 0
0 0.7 0
0 0.5999999999999996 0
0 0.4999999999999997 0
0 0.4000000000000001 0
0 0.3000000000000005 0
0 0.2000000000000008 0
0 0.100000000000001 0
1 3 0 9
26
27
28
29
30
31
32
33
34
1 0.09999999999999996 0
1 0.1999999999999999 0
1 0.3000000000000001 0
1 0.4000000000000004 0
1 0.5000000000000003 0
1 0.5999999999999999 0
1 0.6999999999999995 0
1 0.7999999999999992 0
1 0.899999999999999 0
1 4 0 9
35
36
37
38
39
40
41
42
43
0.9 1 0
0.8 1 0
0.7 1 0
0.5999999999999996 1 0
0.4999999999999997 1 0
0.4000000000000001 1 0
0.3000000000000005 1 0
0.2000000000000008 1 0
0.100000000000001 1 0
1 5 0 3
44
45
46
0.5385585941598261 0.7166754536429711 0
0.5863523600169894 0.7379536469180314 0
0.6341461258741528 0.7592318401930918 0
1 6 0 3
47
48
49
0.6396155528798969 0.8112615522054507 0
0.5972912140284778 0.8420130709427494 0
0.5549668751770587 0.872764589680048 0
1 7 0 3
50
51
52
0.5071731093198953 0.8514863964049876 0
0.5017036823141511 0.7994566843926287 0
0.4962342553084069 0.7474269723802698 0
2 2 0 3
53
54
55
0.5494974481713144 0.820734877667689 0
0.5918217870227336 0.7899833589303904 0
0.5440280211655703 0.7687051656553301 0
2 3 0 150
56
57
58
59
60
61
62
63
64
65
66
67
68
69
70
71
72
73
74
75
76
77
78
79
80
81
82
83
84
85
86
87
88
89
90
91
92
93
94
95
96
97
98
99
100
101
102
103
104
105
106
107
108
109
110
111
112
113
114
115
116
117
118
119
120
121
122
123
124
125
126
127
128
129
130
131
132
133
134
135
136
137
138
139
140
141
142
143
144
145
146
147
148
149
150
151
152
153
154
155
156
157
158
159
160
161
162
163
164
165
166
167
168
169
170
171
172
173
174
175
176
177
178
179
180
181
182
183
184
185
186
187
188
189
190
191
192
193
194
195
196
197
198
199
200
201
202
203
204
205
0.5344914212808539 0.6634073432973909 0
0.4832992573564728 0.6404772369330329 0
0.5301947600519429 0.6061898267982231 0
0.4744974480065951 0.5818228718044709 0
0.5254091782747273 0.5440929143211769 0
0.4609601627582816 0.5181151360033097 0
0.6763027013485824 0.726089663707413 0
0.4494467960549871 0.7260408106984154 0
0.519007861425364 0.477834819691287 0
0.4507746477296457 0.4495233815907225 0
0.5793269013857277 0.5065996505826466 0
0.5766243456710283 0.4369408753964563 0
0.4201296316065431 0.5623631003707049 0
0.0848617579259493 0.747198595632113 0
0.08233569316584938 0.3446643770776116 0
0.3484256930324559 0.08407435887873249 0
0.6412447947646343 0.4679886451418807 0
0.6377752312637197 0.3916126306823685 0
0.4475604869025391 0.8326670885680001 0
0.570074939413466 0.36134215603859 0
0.7287158649584469 0.7493533059304516 0
0.7225708789202159 0.6898203558611681 0
0.0940203029469916 0.5451857240206891 0
0.7499999999999993 0.08660254037844356 0
0.7081286482539821 0.42544157700179 0
0.7033043143968981 0.3445087941415614 0
0.5496096451791017 0.08393189047615957 0
0.9164355363001276 0.5550252584677021 0
0.2503367939470758 0.9111919269417668 0
0.781117451094191 0.7148993004336734 0
0.7889725389011105 0.779519859787924 0
0.7129865302467387 0.5055612733544617 0
0.6653708024297729 0.669545922344694 0
0.922703682829945 0.2668409192708358 0
0.7746574686789213 0.6474139078544566 0
0.687937502905042 0.8332532469331244 0
0.7781791843187885 0.380193808187147 0
0.09618292271776346 0.155593276246496 0
0.8388450323546306 0.6769188868992398 0
0.7713271045223076 0.2947141517387365 0
0.6943607220071127 0.2576984126666483 0
0.8496019093241289 0.9067124810212973 0
0.5811660829460158 0.6342001658853639 0
0.6031610185884984 0.8856934443971105 0
0.7639824557908118 0.2024485620439186 0
0.6771827969388422 0.1663873796973132 0
0.6144167298149421 0.2263113692161828 0
0.8310014374649042 0.1386234002385324 0
0.9098565000181755 0.7452443620008329 0
0.8479454036147143 0.3302900031713062 0
0.8451066522564074 0.4225732198105641 0
0.08423473949007265 0.6512612062450251 0
0.1629763221586308 0.7011837036769909 0
0.1708641082996371 0.7852786086231507 0
0.2415730659224133 0.7423810521937626 0
0.2368357291115608 0.6603633575928172 0
0.307349673314958 0.698262898185248 0
0.3133485010018079 0.7736969371022566 0
0.3046421530274884 0.6229883303244983 0
0.2367477861544424 0.5801216456274318 0
0.3756557180438023 0.6636474620398357 0
0.3073765051301142 0.5428982346036062 0
0.2384086806684296 0.5003611595102954 0
0.3090093974528266 0.4597308198646325 0
0.2389199761543149 0.4184557132870536 0
0.3117448532950425 0.3776019470611907 0
0.2394530768564608 0.3341582448437818 0
0.3160391615163885 0.2963198263460136 0
0.2435056213992577 0.2429032853835441 0
0.3860079272733054 0.3363919191952013 0
0.3913363996997653 0.2556253072256058 0
0.4623738085156809 0.2968913313568655 0
0.472796783888998 0.2248324299290791 0
0.1660774652599488 0.4601802022134994 0
0.3664893018638521 0.7328785952899506 0
0.3872186962915907 0.7990705848751962 0
0.3215686477162979 0.8505080785071051 0
0.3910162903589766 0.8721325091671293 0
0.09634435986958723 0.8469382381523367 0
0.2516716342912283 0.8224554495675314 0
0.8385652216209778 0.6018931007907091 0
0.4479739802540226 0.07931444878078125 0
0.7484029851955125 0.9186348787812129 0
0.3810610079551845 0.4194801661296638 0
0.08260129411310435 0.2515621898561384 0
0.2514512267056778 0.08355254022309466 0
0.2943076696948942 0.1611776127653319 0
0.9234071831063924 0.8474995589040845 0
0.7571088128201506 0.5806624260202176 0
0.8221097302983261 0.5212198575173058 0
0.6908134798135881 0.5748297365962983 0
0.1520175173043936 0.923156766769065 0
0.45597824875892 0.8905347656228981 0
0.6460131688227301 0.080483711143086 0
0.1626056985568809 0.6138621857793999 0
0.5808829330112452 0.6859239349056725 0
0.4539099164569879 0.7781784911175683 0
0.9179772827501811 0.6443852230881461 0
0.3954854380286064 0.1671132539927852 0
0.5811209650171734 0.5747941758587635 0
0.1541030589090967 0.07929908556085125 0
0.6286766988684086 0.7072021281807329 0
0.1988231631114067 0.1567280177103316 0
0.3846884868261872 0.5069314249220159 0
0.4260609058201925 0.6201081449028094 0
0.4554408210472388 0.3733640710037872 0
0.6290918016945759 0.3102979971298831 0
0.1615573272361809 0.2946905179437743 0
0.5422390417577702 0.2810802315768126 0
0.1680597986406627 0.3770127044188991 0
0.3414667287869085 0.9266462771418923 0
0.08054764367406986 0.4437961741267601 0
0.6465094577083792 0.8637661792091931 0
0.6559936609265387 0.925545708772745 0
0.4429491591374441 0.6740889208408876 0
0.5129251622889359 0.4095198089128245 0
0.7733021490748486 0.4509979471742537 0
0.7081319912917396 0.6298824917733825 0
0.5570674794619099 0.9335533579863012 0
0.7945112887698381 0.8520375016476603 0
0.9134997931812969 0.1716425048442018 0
0.1795719867173386 0.5399421834302631 0
0.7297913275574504 0.8017821644054921 0
0.638270505087789 0.6170226019634605 0
0.8346978181000841 0.7457026769955167 0
0.6323583623568376 0.5406598956017099 0
0.3635080551507147 0.5964091358914718 0
0.9232902620334484 0.3670409926615957 0
0.9226558722523965 0.4668976838890138 0
0.8417433129006633 0.2340932568845886 0
0.5456035666585686 0.2042886330086995 0
0.5001948721458074 0.1460344168635335 0
0.4717428448295505 0.9439428447616021 0
0.5939550533566492 0.148663675912499 0
0.9346018184861042 0.9308424079850761 0
0.8535201867211757 0.8121535647607896 0
0.9104663096106775 0.07976074908928732 0
0.07488844626414043 0.9251115537358598 0
0.4084790177553427 0.9312561236836983 0
0.7381675291960984 0.8579027019776579 0
0.07320508075688781 0.07320508075688797 0
0.15338847924175 0.2178423060826711 0
0.1860436316004336 0.857202679088958 0
0.4134869224541562 0.748002688622601 0
0.5082761504420805 0.3396034597388266 0
0.6954022271863142 0.8798205431347867 0
0.6188734044686462 0.6627789506559847 0
0.3281493999573045 0.2274551467030084 0
0.8382935494151159 0.06099733794125262 0
0.4096055795108484 0.708931695498338 0
$EndNodes
$Elements
6 408 1 408
1 1 1 10
1 1 8 
2 8 9 
3 9 10 
4 10 11 
5 11 12 
6 12 13 
7 13 14 
8 14 15 
9 15 16 
10 16 2 
1 2 1 10
11 3 17 
12 17 18 
13 18 19 
14 19 20 
15 20 21 
16 21 22 
17 22 23 
18 23 24 
19 24 25 
20 25 1 
1 3 1 10
21 2 26 
22 26 27 
23 27 28 
24 28 29 
25 29 30 
26 30 31 
27 31 32 
28 32 33 
29 33 34 
30 34 4 
1 4 1 10
31 4 35 
32 35 36 
33 36 37 
34 37 38 
35 38 39 
36 39 40 
37 40 41 
38 41 42 
39 42 43 
40 43 3 
2 2 2 16
41 49 7 50 
42 52 5 44 
43 46 6 47 
44 49 53 48 
45 45 55 44 
46 46 54 45 
47 53 54 48 
48 54 55 45 
49 44 55 52 
50 47 54 46 
51 50 53 49 
52 48 54 47 
53 52 55 51 
54 51 53 50 
55 53 55 54 
56 51 55 53 
2 3 2 352
57 174 188 7 
58 131 152 74 
59 68 182 159 
60 176 185 103 
61 89 185 176 
62 61 159 65 
63 87 145 144 
64 26 192 2 
65 159 182 117 
66 94 153 104 
67 74 133 131 
68 2 192 16 
69 128 164 127 
70 100 101 79 
71 79 103 100 
72 87 172 145 
73 129 177 78 
74 28 183 89 
75 78 167 129 
76 89 183 105 
77 106 184 145 
78 68 159 61 
79 128 186 164 
80 38 174 169 
81 104 153 32 
82 165 167 70 
83 129 167 165 
84 65 159 139 
85 7 148 50 
86 145 184 83 
87 131 199 152 
88 36 138 97 
89 101 149 79 
90 130 131 113 
91 112 130 113 
92 139 161 65 
93 145 172 106 
94 104 180 94 
95 87 181 72 
96 156 158 93 
97 39 174 38 
98 116 130 112 
99 146 181 87 
100 158 197 93 
101 154 187 128 
102 78 107 20 
103 137 187 154 
104 111 112 110 
105 37 169 138 
106 107 108 69 
107 18 134 17 
108 78 150 107 
109 103 185 100 
110 37 138 36 
111 50 148 74 
112 114 116 112 
113 79 149 14 
114 84 135 132 
115 144 146 87 
116 74 148 133 
117 125 161 139 
118 108 111 110 
119 112 113 110 
120 108 110 109 
121 83 153 136 
122 155 181 179 
123 82 137 12 
124 39 188 174 
125 136 145 83 
126 33 104 32 
127 136 153 94 
128 19 107 69 
129 110 135 109 
130 124 158 142 
131 36 97 35 
132 19 69 18 
133 169 201 138 
134 23 140 70 
135 111 114 112 
136 108 150 111 
137 125 139 121 
138 71 142 141 
139 108 109 69 
140 132 166 84 
141 33 143 104 
142 11 137 71 
143 21 78 20 
144 69 134 18 
145 42 84 41 
146 111 150 115 
147 11 71 10 
148 31 83 30 
149 23 70 22 
150 71 141 10 
151 13 82 12 
152 15 79 14 
153 28 89 27 
154 20 107 19 
155 137 154 71 
156 93 140 24 
157 138 175 97 
158 21 167 78 
159 175 178 86 
160 12 137 11 
161 123 125 121 
162 24 140 23 
163 121 139 119 
164 175 191 97 
165 42 147 84 
166 119 159 117 
167 175 195 178 
168 70 167 22 
169 97 191 143 
170 155 179 98 
171 10 141 9 
172 140 163 70 
173 41 166 40 
174 160 170 116 
175 88 179 173 
176 38 169 37 
177 34 143 33 
178 96 102 101 
179 126 127 125 
180 25 93 24 
181 32 153 31 
182 142 158 141 
183 43 147 42 
184 106 172 92 
185 107 150 108 
186 35 190 4 
187 80 87 72 
188 9 156 8 
189 14 149 13 
190 115 117 114 
191 96 162 102 
192 123 126 125 
193 118 119 117 
194 144 173 146 
195 13 149 82 
196 120 121 119 
197 89 176 27 
198 71 154 142 
199 29 183 28 
200 78 177 150 
201 90 144 136 
202 141 156 9 
203 122 123 121 
204 81 96 95 
205 4 190 34 
206 126 128 127 
207 105 185 89 
208 96 101 100 
209 75 162 73 
210 105 106 92 
211 31 153 83 
212 73 162 81 
213 113 135 110 
214 115 118 117 
215 118 120 119 
216 111 115 114 
217 109 134 69 
218 90 173 144 
219 120 122 121 
220 187 189 186 
221 96 100 95 
222 166 194 40 
223 134 193 17 
224 126 154 128 
225 122 124 123 
226 170 205 116 
227 139 159 119 
228 5 56 44 
229 29 184 183 
230 52 63 5 
231 30 184 29 
232 95 105 92 
233 81 95 92 
234 131 133 132 
235 131 132 113 
236 64 66 60 
237 67 75 73 
238 3 193 43 
239 17 193 3 
240 44 151 45 
241 173 179 146 
242 127 161 125 
243 163 165 70 
244 109 198 134 
245 58 98 56 
246 162 164 102 
247 81 92 80 
248 45 157 46 
249 176 192 26 
250 134 198 147 
251 164 200 127 
252 144 145 136 
253 46 62 6 
254 142 203 124 
255 122 163 124 
256 117 182 114 
257 61 64 60 
258 118 129 120 
259 75 164 162 
260 73 81 80 
261 84 166 41 
262 179 181 146 
263 81 162 96 
264 61 65 64 
265 59 60 58 
266 59 68 61 
267 51 152 52 
268 73 80 72 
269 16 204 15 
270 141 158 156 
271 67 72 66 
272 57 160 59 
273 62 88 77 
274 67 73 72 
275 64 67 66 
276 130 199 131 
277 59 61 60 
278 22 167 21 
279 1 196 25 
280 8 196 1 
281 60 155 58 
282 50 74 51 
283 67 171 75 
284 58 155 98 
285 57 59 58 
286 66 155 60 
287 150 177 115 
288 57 58 56 
289 116 205 130 
290 120 165 122 
291 5 57 56 
292 122 165 163 
293 59 160 68 
294 56 151 44 
295 92 172 80 
296 115 177 118 
297 143 191 104 
298 72 181 66 
299 151 157 45 
300 40 188 39 
301 82 187 137 
302 80 172 87 
303 62 76 6 
304 93 197 140 
305 129 165 120 
306 161 171 65 
307 102 189 101 
308 116 182 160 
309 64 171 67 
310 46 157 62 
311 90 136 94 
312 52 152 63 
313 27 176 26 
314 65 171 64 
315 82 189 187 
316 62 157 88 
317 132 135 113 
318 98 151 56 
319 95 185 105 
320 192 204 16 
321 101 189 149 
322 6 91 47 
323 114 182 116 
324 133 166 132 
325 77 90 85 
326 183 184 106 
327 124 203 123 
328 90 94 85 
329 62 77 76 
330 97 190 35 
331 77 85 76 
332 83 184 30 
333 124 197 158 
334 126 203 154 
335 63 170 5 
336 88 173 77 
337 47 168 48 
338 85 86 76 
339 118 177 129 
340 74 152 51 
341 57 170 160 
342 154 203 142 
343 163 197 124 
344 84 198 135 
345 5 170 57 
346 160 182 68 
347 135 198 109 
348 147 193 134 
349 147 198 84 
350 77 173 90 
351 48 99 49 
352 79 204 103 
353 7 188 148 
354 156 196 8 
355 105 183 106 
356 49 174 7 
357 34 190 143 
358 86 191 175 
359 100 185 95 
360 143 190 97 
361 43 193 147 
362 104 191 180 
363 75 200 164 
364 149 189 82 
365 66 181 155 
366 186 189 102 
367 15 204 79 
368 25 196 93 
369 94 180 85 
370 40 194 188 
371 93 196 156 
372 171 200 75 
373 180 191 86 
374 76 178 6 
375 164 186 102 
376 91 168 47 
377 85 180 86 
378 133 194 166 
379 86 178 76 
380 161 200 171 
381 123 203 126 
382 6 178 91 
383 168 169 99 
384 103 192 176 
385 48 168 99 
386 140 197 163 
387 148 194 133 
388 127 200 161 
389 128 187 186 
390 188 194 148 
391 99 174 49 
392 179 202 98 
393 152 199 63 
394 138 195 175 
395 151 202 157 
396 98 202 151 
397 88 202 179 
398 178 195 91 
399 199 205 63 
400 157 202 88 
401 63 205 170 
402 168 201 169 
403 103 204 192 
404 91 201 168 
405 130 205 199 
406 195 201 91 
407 138 201 195 
408 169 174 99 
$EndElements
