$MeshFormat
4.1 0 8
$EndMeshFormat
$PhysicalNames
3
1 101 "outer_boundary"
2 1 "material_1"
2 2 "material_2"
$EndPhysicalNames
$Entities
5 5 2 0
1 0 0 0 0 
2 1 0 0 0 
3 0 1 0 0 
4 1 1 0 0 
5 0.7267020336456114 0.4211470297458823 0 0 
1 -9.999999994736442e-08 -1e-07 -1e-07 1.0000001 1e-07 1e-07 1 101 2 1 -2 
2 -1e-07 -9.999999994736442e-08 -1e-07 1e-07 1.0000001 1e-07 1 101 2 3 -1 
3 0.9999999000000001 -9.999999994736442e-08 -1e-07 1.0000001 1.0000001 1e-07 1 101 2 2 -4 
4 -9.999999994736442e-08 0.9999999000000001 -1e-07 1.0000001 1.0000001 1e-07 1 101 2 4 -3 
5 0.5047221208957741 0.3101570233709636 -1e-07 0.7267021336456113 0.5321370361208009 1e-07 0 2 5 -5 
2 0.5047221208957741 0.3101570233709636 -1e-07 0.7267021336456113 0.5321370361208009 1e-07 1 2 1 5 
3 -9.999999994736442e-08 -9.999999994736442e-08 -1e-07 1.0000001 1.0000001 1e-07 1 1 5 1 3 4 2 -5 
$EndEntities
$Nodes
12 144 1 144
0 1 0 1
1
0 0 0
0 2 0 1
2
1 0 0
0 3 0 1
3
0 1 0
0 4 0 1
4
1 1 0
0 5 0 1
5
0.7267020336456114 0.4211470297458823 0
1 1 0 7
6
7
8
9
10
11
12
0.1249999999999999 0 0
0.2499999999999998 0 0
0.3749999999999993 0 0
0.4999999999999988 0 0
0.6249999999999988 0 0
0.7499999999999991 0 0
0.8749999999999997 0 0
1 2 0 7
13
14
15
16
17
18
19
0 0.8750000000000001 0
0 0.7500000000000002 0
0 0.6250000000000007 0
0 0.5000000000000012 0
0 0.3750000000000012 0
0 0.2500000000000009 0
0 0.1250000000000003 0
1 3 0 7
20
21
22
23
24
25
26
1 0.1249999999999999 0
1 0.2499999999999998 0
1 0.3749999999999993 0
1 0.4999999999999988 0
1 0.6249999999999988 0
1 0.7499999999999991 0
1 0.8749999999999997 0
1 4 0 7
27
28
29
30
31
32
33
0.8750000000000001 1 0
0.7500000000000002 1 0
0.6250000000000007 1 0
0.5000000000000012 1 0
0.3750000000000012 1 0
0.2500000000000009 1 0
0.1250000000000003 1 0
1 5 0 9
34
35
36
37
38
39
40
41
42
0.7055048477320862 0.4863852598663818 0
0.6500098945446268 0.5267047034467376 0
0.5814143599967583 0.5267047034467376 0
0.5259194068092991 0.4863852598663815 0
0.504722220895774 0.4211470297458818 0
0.5259194068092996 0.3559087996253822 0
0.5814143599967593 0.3155893560450266 0
0.6500098945446275 0.3155893560450271 0
0.7055048477320864 0.3559087996253831 0
2 2 0 5
43
44
45
46
47
0.6391882716564722 0.3827364816263723 0
0.5900637063647914 0.4500878283701392 0
0.6679531552297919 0.4335854531570422 0
0.5712093538445886 0.387686515348945 0
0.6359828944444136 0.477570974338663 0
2 3 0 97
48
49
50
51
52
53
54
55
56
57
58
59
60
61
62
63
64
65
66
67
68
69
70
71
72
73
74
75
76
77
78
79
80
81
82
83
84
85
86
87
88
89
90
91
92
93
94
95
96
97
98
99
100
101
102
103
104
105
106
107
108
109
110
111
112
113
114
115
116
117
118
119
120
121
122
123
124
125
126
127
128
129
130
131
132
133
134
135
136
137
138
139
140
141
142
143
144
0.1012744377672996 0.6945541016140889 0
0.09188803753196723 0.3128688431827965 0
0.4345612115014498 0.9063559880079259 0
0.6859253875564513 0.8915050058775484 0
0.7171561239466036 0.2928618643586593 0
0.8913813203377122 0.686220678966824 0
0.3135900509018106 0.09316978155588174 0
0.659540687358371 0.2390644473378925 0
0.771757464376663 0.3686456391867851 0
0.7726014052711363 0.4721234462959865 0
0.7560114839629347 0.5420305404406183 0
0.7280149658488263 0.1907565901363573 0
0.1927874042298979 0.8824695021222773 0
0.8007910279561451 0.2649415526349613 0
0.8314891035404016 0.5194326336547727 0
0.840890509315669 0.4248195544108886 0
0.819256971788936 0.1721178342701296 0
0.5557705957899655 0.09447472948056368 0
0.8133780110837805 0.6083975023544512 0
0.7206278505399533 0.6168758809423117 0
0.7825065023922337 0.6944770599227601 0
0.6906129539106607 0.7054272372370616 0
0.8409163573743142 0.7774789315572237 0
0.6338737746555071 0.6378332389156427 0
0.6016564419557047 0.7201416937038224 0
0.5397379611744036 0.6413296021863499 0
0.5110470934718633 0.7288945830518275 0
0.4511455618010708 0.6597402054107602 0
0.4182091091220129 0.7414828568049585 0
0.3632746841806063 0.6690958477234081 0
0.4001445612481908 0.5805502866255059 0
0.3081411313852337 0.5990852197856031 0
0.3416375734324179 0.5077060516377807 0
0.458822849270249 0.3701706131957773 0
0.4825807108040097 0.3022899076757942 0
0.4002043008364873 0.3153472562207367 0
0.2527719034544751 0.5151903659100732 0
0.2891731188900042 0.4292031501942276 0
0.3228879082766653 0.7570313036447889 0
0.4256272727086678 0.2331396251253539 0
0.3357186230584558 0.2503699718044543 0
0.567815003305003 0.8038106578052956 0
0.5370929974383357 0.2424459973156702 0
0.1966429941317009 0.4391500245430953 0
0.1629508414476344 0.5281467483135658 0
0.456778506173363 0.4565785794719255 0
0.2372635824756831 0.3516571874737329 0
0.5261771495044364 0.5639609159827409 0
0.3847248936104938 0.4191484021361725 0
0.6748605965318083 0.1040950549436637 0
0.4331786609869619 0.08937050664311796 0
0.3134922745790508 0.8990451348757669 0
0.1171705038392334 0.1874292624653308 0
0.8192558711624263 0.8904502007334183 0
0.8996214187729712 0.3124999999999996 0
0.9060548048434162 0.576178431051059 0
0.0986968825507577 0.8100722396755702 0
0.2066131023612388 0.7499161852631647 0
0.1998845092739834 0.6240836076808991 0
0.1913675182663589 0.09167014717696598 0
0.1895849040021426 0.2647580560748349 0
0.1001369135429983 0.4457404810054532 0
0.5625000000000009 0.9115885088150815 0
0.651437588925094 0.7919382820655723 0
0.9036806791227485 0.207485198602289 0
0.8916291756693154 0.1048882866749538 0
0.3190785937459371 0.3424153669382615 0
0.7451091102201967 0.7918794528989307 0
0.9001535666462543 0.4844741882048894 0
0.4794089544282343 0.8191186276796887 0
0.9008161022034353 0.8560239299985863 0
0.4862419375608072 0.1690970278449391 0
0.5968873697499513 0.1831602847657247 0
0.3715409786412382 0.8238204624649123 0
0.4648254257781419 0.5311465996362159 0
0.5917539309059181 0.5862158224439697 0
0.2801602670955455 0.6798424328195728 0
0.7842230219576705 0.09374484969477087 0
0.08837932040980129 0.5969225267118152 0
0.3742157915212838 0.1688437335113701 0
0.2550795410095851 0.1902613837893801 0
0.2682585421024075 0.8208245977041281 0
0.09150635094610993 0.09150635094610998 0
0.6672052290433457 0.5837521466782016 0
0.09150635094610998 0.9084936490538902 0
0.6666220955393084 0.1760374019985116 0
0.8353168188921329 0.3356050388558625 0
0.601296740589858 0.25861873331707 0
0.9154264893932512 0.4044113754821648 0
0.4752047660474363 0.5965837352866199 0
0.4096221920485215 0.4990259839015201 0
0.2639093954778102 0.275588733936822 0
0.9241392295089909 0.7812895066466825 0
0.7001058117719066 0.5474240715565467 0
0.9277129974607947 0.9304070951512173 0
0.1610972012798835 0.3680952242868971 0
0.6169194949466372 0.8497106136408745 0
$EndNodes
$Elements
6 286 1 286
1 1 1 8
1 1 6 
2 6 7 
3 7 8 
4 8 9 
5 9 10 
6 10 11 
7 11 12 
8 12 2 
1 2 1 8
9 3 13 
10 13 14 
11 14 15 
12 15 16 
13 16 17 
14 17 18 
15 18 19 
16 19 1 
1 3 1 8
17 2 20 
18 20 21 
19 21 22 
20 22 23 
21 23 24 
22 24 25 
23 25 26 
24 26 4 
1 4 1 8
25 4 27 
26 27 28 
27 28 29 
28 29 30 
29 30 31 
30 31 32 
31 32 33 
32 33 3 
2 2 2 18
33 43 45 44 
34 38 46 44 
35 43 46 40 
36 44 46 43 
37 41 43 40 
38 38 44 37 
39 5 45 42 
40 42 45 43 
41 45 47 44 
42 39 46 38 
43 40 46 39 
44 37 44 36 
45 42 43 41 
46 44 47 36 
47 36 47 35 
48 35 47 34 
49 34 45 5 
50 34 47 45 
2 3 2 236
51 39 82 40 
52 38 93 81 
53 52 61 56 
54 51 115 101 
55 52 56 42 
56 56 57 5 
57 92 126 109 
58 79 106 84 
59 82 90 40 
60 84 106 92 
61 93 96 81 
62 35 123 36 
63 35 131 123 
64 109 126 16 
65 87 90 82 
66 81 96 83 
67 97 125 59 
68 96 114 83 
69 59 133 97 
70 53 68 66 
71 104 105 60 
72 61 112 102 
73 111 115 51 
74 56 63 57 
75 102 134 61 
76 101 115 70 
77 50 117 110 
78 105 129 60 
79 100 128 108 
80 8 98 54 
81 20 113 2 
82 110 117 89 
83 59 125 64 
84 85 96 80 
85 2 113 12 
86 49 109 17 
87 31 99 50 
88 61 134 56 
89 10 97 65 
90 106 126 92 
91 134 136 63 
92 10 65 9 
93 107 128 100 
94 65 98 9 
95 110 144 51 
96 87 119 90 
97 18 100 49 
98 64 112 61 
99 25 53 24 
100 85 114 96 
101 49 143 109 
102 57 63 62 
103 37 122 93 
104 97 120 65 
105 113 125 12 
106 119 120 90 
107 95 123 73 
108 29 51 28 
109 31 50 30 
110 95 122 37 
111 18 49 17 
112 15 48 14 
113 66 103 53 
114 53 70 68 
115 69 71 67 
116 24 103 23 
117 29 110 51 
118 50 110 30 
119 51 101 28 
120 97 133 120 
121 73 137 95 
122 60 99 32 
123 11 97 10 
124 103 116 23 
125 87 127 119 
126 48 106 105 
127 77 78 75 
128 8 54 7 
129 32 99 31 
130 9 98 8 
131 98 127 54 
132 48 105 104 
133 19 100 18 
134 79 80 78 
135 72 73 71 
136 48 126 106 
137 33 60 32 
138 12 125 11 
139 48 104 14 
140 65 120 119 
141 28 101 27 
142 22 102 21 
143 69 111 72 
144 102 136 134 
145 118 140 26 
146 54 107 7 
147 26 140 25 
148 7 107 6 
149 14 104 13 
150 77 79 78 
151 119 127 98 
152 66 67 58 
153 69 72 71 
154 74 75 73 
155 94 143 108 
156 100 108 49 
157 88 128 127 
158 63 116 62 
159 101 142 27 
160 65 119 98 
161 21 112 20 
162 84 85 80 
163 72 111 89 
164 99 121 50 
165 53 103 24 
166 79 124 106 
167 67 141 58 
168 16 126 15 
169 72 74 73 
170 76 77 75 
171 79 84 80 
172 91 94 85 
173 96 138 80 
174 118 142 101 
175 68 69 67 
176 64 125 113 
177 123 131 71 
178 83 114 88 
179 62 116 103 
180 112 113 20 
181 37 93 38 
182 121 129 86 
183 56 134 63 
184 40 135 41 
185 108 143 49 
186 62 103 66 
187 36 95 37 
188 1 130 19 
189 6 130 1 
190 105 124 86 
191 74 76 75 
192 76 86 77 
193 84 91 85 
194 3 132 33 
195 13 132 3 
196 23 136 22 
197 84 92 91 
198 38 81 39 
199 41 52 42 
200 17 109 16 
201 116 136 23 
202 131 141 67 
203 66 68 67 
204 71 131 67 
205 72 89 74 
206 93 138 96 
207 5 57 34 
208 99 129 121 
209 30 110 29 
210 42 56 5 
211 57 58 34 
212 25 140 53 
213 11 125 97 
214 92 109 91 
215 36 123 95 
216 62 66 58 
217 83 88 87 
218 75 137 73 
219 73 123 71 
220 70 118 101 
221 77 124 79 
222 102 112 21 
223 106 124 105 
224 80 138 78 
225 64 113 112 
226 78 137 75 
227 41 55 52 
228 90 135 40 
229 59 61 52 
230 60 129 99 
231 94 114 85 
232 83 87 82 
233 88 139 128 
234 86 129 105 
235 15 126 48 
236 41 135 55 
237 81 83 82 
238 70 115 68 
239 59 64 61 
240 81 82 39 
241 55 59 52 
242 74 117 76 
243 57 62 58 
244 89 117 74 
245 107 130 6 
246 104 132 13 
247 69 115 111 
248 127 128 54 
249 19 130 100 
250 114 139 88 
251 68 115 69 
252 33 132 60 
253 22 136 102 
254 109 143 91 
255 100 130 107 
256 54 128 107 
257 60 132 104 
258 76 121 86 
259 86 124 77 
260 117 121 76 
261 55 135 120 
262 4 142 26 
263 27 142 4 
264 89 144 110 
265 58 141 34 
266 108 139 94 
267 88 127 87 
268 120 135 90 
269 34 141 35 
270 50 121 117 
271 94 139 114 
272 78 138 122 
273 91 143 94 
274 53 140 70 
275 120 133 55 
276 128 139 108 
277 63 136 116 
278 122 137 78 
279 111 144 89 
280 55 133 59 
281 70 140 118 
282 95 137 122 
283 51 144 111 
284 122 138 93 
285 35 141 131 
286 26 142 118 
$EndElements
