$MeshFormat
4.1 0 8
$EndMeshFormat
$PhysicalNames
3
1 101 "outer_boundary"
2 1 "material_1"
2 2 "material_2"
$EndPhysicalNames
$Entities
8 8 2 0
1 0 0 0 0 
2 1 0 0 0 
3 0 1 0 0 
4 1 1 0 0 
5 0.4021354136180374 0.3862896060860365 0 0 
6 0.4732651357684758 0.6020576523508866 0 0 
7 0.2574970895036258 0.6731873745013252 0 0 
8 0.1863673673531873 0.457419328236475 0 0 
1 -9.999999994736442e-08 -1e-07 -1e-07 1.0000001 1e-07 1e-07 1 101 2 1 -2 
2 -1e-07 -9.999999994736442e-08 -1e-07 1e-07 1.0000001 1e-07 1 101 2 3 -1 
3 0.9999999000000001 -9.999999994736442e-08 -1e-07 1.0000001 1.0000001 1e-07 1 101 2 2 -4 
4 -9.999999994736442e-08 0.9999999000000001 -1e-07 1.0000001 1.0000001 1e-07 1 101 2 4 -3 
5 0.4021353136180374 0.3862895060860365 -1e-07 0.4732652357684758 0.6020577523508865 1e-07 0 2 5 -6 
6 0.2574969895036258 0.6020575523508866 -1e-07 0.4732652357684758 0.6731874745013251 1e-07 0 2 6 -7 
7 0.1863672673531873 0.457419228236475 -1e-07 0.2574971895036258 0.6731874745013251 1e-07 0 2 7 -8 
8 0.1863672673531873 0.3862895060860365 -1e-07 0.4021355136180374 0.457419428236475 1e-07 0 2 8 -5 
2 0.1863672673531873 0.3862895060860365 -1e-07 0.4732652357684758 0.6731874745013251 1e-07 1 2 4 5 6 7 8 
3 -9.999999994736442e-08 -9.999999994736442e-08 -1e-07 1.0000001 1.0000001 1e-07 1 1 8 1 3 4 2 -5 -8 -7 -6 
$EndEntities
$Nodes
18 170 1 170
0 1 0 1
1
0 0 0
0 2 0 1
2
1 0 0
0 3 0 1
3
0 1 0
0 4 0 1
4
1 1 0
0 5 0 1
5
0.4021354136180374 0.3862896060860365 0
0 6 0 1
6
0.4732651357684758 0.6020576523508866 0
0 7 0 1
7
0.2574970895036258 0.6731873745013252 0
0 8 0 1
8
0.1863673673531873 0.457419328236475 0
1 1 0 7
9
10
11
12
13
14
15
0.1249999999999999 0 0
0.2499999999999998 0 0
0.3749999999999993 0 0
0.4999999999999988 0 0
0.6249999999999988 0 0
0.7499999999999991 0 0
0.8749999999999997 0 0
1 2 0 7
16
17
18
19
20
21
22
0 0.8750000000000001 0
0 0.7500000000000002 0
0 0.6250000000000007 0
0 0.5000000000000012 0
0 0.3750000000000012 0
0 0.2500000000000009 0
0 0.1250000000000003 0
1 3 0 7
23
24
25
26
27
28
29
1 0.1249999999999999 0
1 0.2499999999999998 0
1 0.3749999999999993 0
1 0.4999999999999988 0
1 0.6249999999999988 0
1 0.7499999999999991 0
1 0.8749999999999997 0
1 4 0 7
30
31
32
33
34
35
36
0.8750000000000001 1 0
0.7500000000000002 1 0
0.6250000000000007 1 0
0.5000000000000012 1 0
0.3750000000000012 1 0
0.2500000000000009 1 0
0.1250000000000003 1 0
1 5 0 3
37
38
39
0.419917844155647 0.4402316176522489 0
0.4377002746932566 0.4941736292184614 0
0.4554827052308662 0.548115640784674 0
1 6 0 3
40
41
42
0.4193231242022635 0.6198400828884962 0
0.365381112636051 0.6376225134261059 0
0.3114391010698384 0.6554049439637155 0
1 7 0 3
43
44
45
0.2397146589660162 0.6192453629351128 0
0.2219322284284066 0.5653033513689002 0
0.204149797890797 0.5113613398026875 0
1 8 0 3
46
47
48
0.2403093789193997 0.4396368976988654 0
0.2942513904856122 0.4218544671612558 0
0.3481934020518248 0.4040720366236462 0
2 2 0 14
49
50
51
52
53
54
55
56
57
58
59
60
61
62
0.4013588036525191 0.5386650483519477 0
0.268690898053623 0.5224746632605446 0
0.334739518475202 0.4544246070503918 0
0.3234707359332892 0.6009538002827068 0
0.377533358788111 0.5862704454139991 0
0.3359569342328814 0.5442657880772666 0
0.3751929112021666 0.4875108301207413 0
0.2829794548554198 0.4707166987575299 0
0.2778651987971066 0.5776526859595429 0
0.3195119433638586 0.4958785174532948 0
0.3756647631246963 0.4387955418505667 0
0.2364993794144853 0.4803217855512205 0
0.4207592000039456 0.5755870018575455 0
0.2839677399969669 0.6206814387367949 0
2 3 0 108
63
64
65
66
67
68
69
70
71
72
73
74
75
76
77
78
79
80
81
82
83
84
85
86
87
88
89
90
91
92
93
94
95
96
97
98
99
100
101
102
103
104
105
106
107
108
109
110
111
112
113
114
115
116
117
118
119
120
121
122
123
124
125
126
127
128
129
130
131
132
133
134
135
136
137
138
139
140
141
142
143
144
145
146
147
148
149
150
151
152
153
154
155
156
157
158
159
160
161
162
163
164
165
166
167
168
169
170
0.4604991687012552 0.3983354124865455 0
0.513277053781013 0.5575099427423511 0
0.5282161019277911 0.6179928942925075 0
0.5773474934572755 0.5670965127598829 0
0.5997338919306263 0.6359761116038855 0
0.9027590225864679 0.3151480849293024 0
0.3055706148447676 0.351187564509561 0
0.1988788875254061 0.3965906369487429 0
0.4366364011230729 0.3413232317039782 0
0.5048059286066259 0.3522171615057491 0
0.4077521550057593 0.675446450504875 0
0.3030600074237447 0.7139959431889902 0
0.6509666015145231 0.5799468389534946 0
0.6735930444463174 0.6523256906989696 0
0.2418609611236746 0.7353183574012073 0
0.5377334717656703 0.6824761112685304 0
0.6243438888107231 0.5091360534340345 0
0.7056014344869446 0.5190599342359454 0
0.6746642028774326 0.4408690176614863 0
0.4830024220572773 0.2872492475013172 0
0.556817993842742 0.3014935484598218 0
0.4110502562336115 0.2745538398258942 0
0.1914387265100033 0.6753146842266476 0
0.2932328148966489 0.7822662292356111 0
0.6885531875915087 0.09677509261323974 0
0.5381537977075977 0.211146816779808 0
0.1094582544322255 0.1883668046639524 0
0.9010109638975358 0.8123888825559564 0
0.6801718318484677 0.896451101922204 0
0.2162510985611441 0.8057504049781472 0
0.1581811450632 0.5576430565357071 0
0.4379534870151655 0.8914443086152992 0
0.7626252908827981 0.4521083877093763 0
0.729330555010626 0.3678284140737574 0
0.7953519099896523 0.5388444792634293 0
0.3004301669302266 0.1080779057983842 0
0.5203384873876896 0.4135566428238869 0
0.6236196406833596 0.2443315617693816 0
0.1356068951598913 0.4161265932592874 0
0.1503736950830929 0.3462969449685641 0
0.3698733662258805 0.74488309584645 0
0.2779152057769428 0.8676037378975504 0
0.2313592381401807 0.3275737179950972 0
0.8644887017885398 0.4719722850785253 0
0.1392232180617343 0.4885576066682402 0
0.560633890865964 0.1049750142900098 0
0.4587543517793509 0.09936740834973196 0
0.5618771810697111 0.8972302183580003 0
0.6179343490430688 0.7973659777854717 0
0.7209138817219422 0.8106751455514234 0
0.5102494909483664 0.8103701913322917 0
0.1154045243269778 0.8136248358532632 0
0.1858074739389906 0.8968246432707635 0
0.6382630995847361 0.354398847856734 0
0.8121673556856281 0.1056397429373195 0
0.7323066645989615 0.1968520895085392 0
0.1895167078291719 0.1004239702927467 0
0.2408754952559561 0.2025014549111647 0
0.3473691073340086 0.2122078766920387 0
0.3029678832577896 0.2768601523997546 0
0.08297183609452347 0.542748648804126 0
0.1210656812237175 0.6202567178833825 0
0.8978184139006388 0.5806396557027244 0
0.8234661434026785 0.6399844102524415 0
0.8825449128980094 0.1958280477485134 0
0.8064550095247316 0.8849040311037334 0
0.5531351969642809 0.5083090287583983 0
0.1733415645001696 0.2701959024085086 0
0.4755242117720258 0.4518025868487531 0
0.4933066423096354 0.5057445984149657 0
0.5884974021687925 0.4439962962837872 0
0.371949799240832 0.3435465021199082 0
0.4698374152833147 0.6531674714994831 0
0.4694919035373309 0.7316189037135723 0
0.4277726416685815 0.8012387048007039 0
0.3529686729704171 0.6904015152784696 0
0.7019866096896483 0.2912432351671488 0
0.2540739019830733 0.3873686568627044 0
0.7948470679995896 0.2914350648492876 0
0.1847221492964906 0.6076426988331893 0
0.1096940883249409 0.7131595239952051 0
0.7284427916608501 0.5951849117785869 0
0.8281251995060634 0.3827058671184478 0
0.4423740732845088 0.196014698080398 0
0.6138373484448384 0.7083299725649667 0
0.3512949606161645 0.8278770244959065 0
0.9053546041680358 0.6908772180565413 0
0.8062157531651578 0.7410875603332732 0
0.5642934193184242 0.3718425369623165 0
0.08387709576658919 0.2902024064700686 0
0.06896853462559316 0.4430704009058728 0
0.08524239965319375 0.9170898958248054 0
0.35017165048147 0.9157255633733302 0
0.1749298797693482 0.7486335612908941 0
0.90849364905389 0.09150635094610993 0
0.7519003736807588 0.6686053353243795 0
0.09150635094610987 0.09150635094610998 0
0.9084936490538902 0.90849364905389 0
0.9147005587683592 0.3977429660704374 0
0.690260887120394 0.7270224432552466 0
0.6262445297612034 0.1597047524837676 0
0.08776524412703335 0.3741392691207588 0
0.5566668475797399 0.7503332612650792 0
0.238100866727537 0.2687498442207267 0
0.354864970653883 0.2919489756493237 0
0.5231116101665757 0.4659311244210407 0
0.4999790284093554 0.152875984374987 0
0.3855445686457929 0.1396431525624421 0
$EndNodes
$Elements
6 338 1 338
1 1 1 8
1 1 9 
2 9 10 
3 10 11 
4 11 12 
5 12 13 
6 13 14 
7 14 15 
8 15 2 
1 2 1 8
9 3 16 
10 16 17 
11 17 18 
12 18 19 
13 19 20 
14 20 21 
15 21 22 
16 22 1 
1 3 1 8
17 2 23 
18 23 24 
19 24 25 
20 25 26 
21 26 27 
22 27 28 
23 28 29 
24 29 4 
1 4 1 8
25 4 30 
26 30 31 
27 31 32 
28 32 33 
29 33 34 
30 34 35 
31 35 36 
32 36 3 
2 2 2 42
33 54 57 50 
34 54 55 49 
35 50 58 54 
36 54 58 55 
37 52 57 54 
38 53 54 49 
39 55 58 51 
40 39 49 38 
41 42 52 41 
42 48 51 47 
43 45 50 44 
44 56 58 50 
45 38 55 37 
46 41 53 40 
47 44 57 43 
48 47 56 46 
49 52 54 53 
50 52 53 41 
51 49 55 38 
52 51 56 47 
53 50 57 44 
54 7 62 42 
55 37 59 5 
56 5 59 48 
57 8 60 45 
58 46 60 8 
59 6 61 39 
60 43 62 7 
61 40 61 6 
62 57 62 43 
63 53 61 40 
64 55 59 37 
65 56 60 46 
66 45 60 50 
67 39 61 49 
68 48 59 51 
69 42 62 52 
70 50 60 56 
71 49 61 53 
72 52 62 57 
73 51 59 55 
74 51 58 56 
2 3 2 264
75 112 150 128 
76 127 141 118 
77 105 122 69 
78 78 165 136 
79 100 163 118 
80 120 130 89 
81 73 136 103 
82 118 139 100 
83 128 150 90 
84 78 136 135 
85 124 143 18 
86 69 167 134 
87 68 141 127 
88 110 111 91 
89 35 115 104 
90 100 116 83 
91 103 138 73 
92 119 120 89 
93 104 155 35 
94 136 165 113 
95 71 134 84 
96 92 115 114 
97 27 149 125 
98 117 127 118 
99 125 149 126 
100 78 135 65 
101 82 146 88 
102 26 125 106 
103 94 113 110 
104 7 85 43 
105 106 161 26 
106 81 133 116 
107 45 107 8 
108 32 110 91 
109 69 140 105 
110 18 143 17 
111 110 113 111 
112 5 134 71 
113 84 146 82 
114 122 167 69 
115 123 153 107 
116 11 170 98 
117 109 170 11 
118 136 137 103 
119 114 156 92 
120 85 142 43 
121 65 135 6 
122 100 139 116 
123 118 163 87 
124 93 107 45 
125 88 169 108 
126 108 163 88 
127 134 167 84 
128 98 120 119 
129 117 118 87 
130 133 151 116 
131 94 137 113 
132 112 128 91 
133 36 115 35 
134 94 110 33 
135 108 109 12 
136 123 124 18 
137 14 117 87 
138 34 94 33 
139 87 108 13 
140 111 112 91 
141 11 98 10 
142 12 109 11 
143 98 121 120 
144 14 87 13 
145 25 68 24 
146 13 108 12 
147 32 91 31 
148 98 119 10 
149 16 154 3 
150 84 167 121 
151 33 110 32 
152 27 125 26 
153 15 117 14 
154 17 114 16 
155 22 89 21 
156 68 127 24 
157 150 162 158 
158 121 122 120 
159 88 163 100 
160 17 143 114 
161 29 90 28 
162 91 128 31 
163 3 154 36 
164 113 137 136 
165 81 116 96 
166 121 146 84 
167 124 142 85 
168 113 165 111 
169 10 119 9 
170 24 127 23 
171 94 148 137 
172 31 128 30 
173 116 151 83 
174 19 123 18 
175 112 162 150 
176 126 144 97 
177 105 166 122 
178 85 143 124 
179 35 155 34 
180 115 154 114 
181 79 133 81 
182 28 149 27 
183 121 167 122 
184 26 161 25 
185 36 154 115 
186 108 169 109 
187 125 126 97 
188 19 153 123 
189 5 63 37 
190 87 163 108 
191 111 162 112 
192 79 81 80 
193 21 152 20 
194 66 79 75 
195 39 64 6 
196 66 129 79 
197 64 129 66 
198 38 132 39 
199 81 96 95 
200 2 157 15 
201 23 157 2 
202 37 131 38 
203 9 159 1 
204 1 159 22 
205 34 155 94 
206 4 160 29 
207 30 160 4 
208 120 166 130 
209 72 99 63 
210 47 69 48 
211 99 151 133 
212 40 73 41 
213 89 152 21 
214 41 138 42 
215 81 95 80 
216 95 97 80 
217 116 139 96 
218 143 156 114 
219 42 74 7 
220 93 123 107 
221 102 105 70 
222 46 140 47 
223 94 155 148 
224 48 134 5 
225 147 162 111 
226 146 169 88 
227 74 103 86 
228 106 125 97 
229 6 135 40 
230 79 80 75 
231 95 106 97 
232 8 70 46 
233 67 78 65 
234 90 149 28 
235 71 84 82 
236 152 164 20 
237 93 124 123 
238 88 100 83 
239 68 145 141 
240 114 154 16 
241 130 152 89 
242 75 76 67 
243 66 75 67 
244 129 133 79 
245 5 71 63 
246 63 131 37 
247 39 132 64 
248 64 132 129 
249 131 132 38 
250 99 131 63 
251 105 140 70 
252 82 88 83 
253 137 148 103 
254 25 161 68 
255 44 93 45 
256 71 72 63 
257 66 67 65 
258 64 66 65 
259 64 65 6 
260 74 138 103 
261 20 153 19 
262 96 145 95 
263 82 83 72 
264 43 142 44 
265 139 141 96 
266 97 144 80 
267 72 151 99 
268 71 82 72 
269 104 115 92 
270 119 159 9 
271 127 157 23 
272 141 145 96 
273 93 142 124 
274 102 130 105 
275 90 150 149 
276 73 138 41 
277 118 141 139 
278 47 140 69 
279 126 158 144 
280 15 157 117 
281 69 134 48 
282 80 144 75 
283 86 104 92 
284 75 144 76 
285 86 92 77 
286 42 138 74 
287 128 160 30 
288 95 145 106 
289 22 159 89 
290 102 152 130 
291 117 157 127 
292 74 77 7 
293 89 159 119 
294 149 150 126 
295 40 135 73 
296 133 168 99 
297 129 168 133 
298 83 151 72 
299 76 147 67 
300 103 148 86 
301 77 85 7 
302 67 147 78 
303 29 160 90 
304 70 140 46 
305 74 86 77 
306 135 136 73 
307 85 156 143 
308 90 160 128 
309 8 107 101 
310 8 101 70 
311 101 102 70 
312 86 148 104 
313 122 166 120 
314 68 161 145 
315 111 165 147 
316 44 142 93 
317 148 155 104 
318 98 170 121 
319 150 158 126 
320 145 161 106 
321 107 153 101 
322 102 164 152 
323 144 158 76 
324 147 165 78 
325 158 162 76 
326 92 156 77 
327 130 166 105 
328 76 162 147 
329 131 168 132 
330 77 156 85 
331 121 170 146 
332 101 164 102 
333 132 168 129 
334 99 168 131 
335 109 169 146 
336 153 164 101 
337 146 170 109 
338 20 164 153 
$EndElements
