$MeshFormat
4.1 0 8
$EndMeshFormat
$PhysicalNames
3
1 101 "outer_boundary"
2 1 "material_1"
2 2 "material_2"
$EndPhysicalNames
$Entities
8 8 2 0
1 0 0 0 0 
2 1 0 0 0 
3 0 1 0 0 
4 1 1 0 0 
5 0.5849768793835416 0.4963225498414822 0 0 
6 0.8754109800633146 0.5719176997941003 0 0 
7 0.7998158301106965 0.8623518004738734 0 0 
8 0.5093817294309234 0.7867566505212552 0 0 
1 -9.999999994736442e-08 -1e-07 -1e-07 1.0000001 1e-07 1e-07 1 101 2 1 -2 
2 -1e-07 -9.999999994736442e-08 -1e-07 1e-07 1.0000001 1e-07 1 101 2 3 -1 
3 0.9999999000000001 -9.999999994736442e-08 -1e-07 1.0000001 1.0000001 1e-07 1 101 2 2 -4 
4 -9.999999994736442e-08 0.9999999000000001 -1e-07 1.0000001 1.0000001 1e-07 1 101 2 4 -3 
5 0.5849767793835416 0.4963224498414822 -1e-07 0.8754110800633146 0.5719177997941003 1e-07 0 2 5 -6 
6 0.7998157301106965 0.5719175997941004 -1e-07 0.8754110800633146 0.8623519004738733 1e-07 0 2 6 -7 
7 0.5093816294309235 0.7867565505212553 -1e-07 0.7998159301106964 0.8623519004738733 1e-07 0 2 7 -8 
8 0.5093816294309235 0.4963224498414822 -1e-07 0.5849769793835415 0.7867567505212552 1e-07 0 2 8 -5 
2 0.5093816294309235 0.4963224498414822 -1e-07 0.8754110800633146 0.8623519004738733 1e-07 1 2 4 5 6 7 8 
3 -9.999999994736442e-08 -9.999999994736442e-08 -1e-07 1.0000001 1.0000001 1e-07 1 1 8 1 3 4 2 -5 -8 -7 -6 
$EndEntities
$Nodes
18 178 1 178
0 1 0 1
1
0 0 0
0 2 0 1
2
1 0 0
0 3 0 1
3
0 1 0
0 4 0 1
4
1 1 0
0 5 0 1
5
0.5849768793835416 0.4963225498414822 0
0 6 0 1
6
0.8754109800633146 0.5719176997941003 0
0 7 0 1
7
0.7998158301106965 0.8623518004738734 0
0 8 0 1
8
0.5093817294309234 0.7867566505212552 0
1 1 0 7
9
10
11
12
13
14
15
0.1249999999999999 0 0
0.2499999999999998 0 0
0.3749999999999993 0 0
0.4999999999999988 0 0
0.6249999999999988 0 0
0.7499999999999991 0 0
0.8749999999999997 0 0
1 2 0 7
16
17
18
19
20
21
22
0 0.8750000000000001 0
0 0.7500000000000002 0
0 0.6250000000000007 0
0 0.5000000000000012 0
0 0.3750000000000012 0
0 0.2500000000000009 0
0 0.1250000000000003 0
1 3 0 7
23
24
25
26
27
28
29
1 0.1249999999999999 0
1 0.2499999999999998 0
1 0.3749999999999993 0
1 0.4999999999999988 0
1 0.6249999999999988 0
1 0.7499999999999991 0
1 0.8749999999999997 0
1 4 0 7
30
31
32
33
34
35
36
0.8750000000000001 1 0
0.7500000000000002 1 0
0.6250000000000007 1 0
0.5000000000000012 1 0
0.3750000000000012 1 0
0.2500000000000009 1 0
0.1250000000000003 1 0
1 5 0 4
37
38
39
40
0.6430636995194963 0.5114415798320058 0
0.7011505196554509 0.5265606098225295 0
0.7592373397914054 0.5416796398130531 0
0.81732415992736 0.5567986698035767 0
1 6 0 4
41
42
43
44
0.860291950072791 0.630004519930055 0
0.8451729200822673 0.6880913400660097 0
0.8300538900917437 0.7461781602019641 0
0.8149348601012201 0.8042649803379187 0
1 7 0 4
45
46
47
48
0.7417290099747418 0.8472327704833498 0
0.6836421898387871 0.832113740492826 0
0.6255553697028327 0.8169947105023024 0
0.5674685495668781 0.8018756805117788 0
1 8 0 4
49
50
51
52
0.524500759421447 0.7286698303853005 0
0.5396197894119708 0.6705830102493459 0
0.5547388194024944 0.6124961901133914 0
0.569857849393018 0.5544093699774368 0
2 2 0 24
53
54
55
56
57
58
59
60
61
62
63
64
65
66
67
68
69
70
71
72
73
74
75
76
0.7166970631418895 0.584027124657245 0
0.6670299479186279 0.7863874867309331 0
0.7894623850787438 0.707093052455944 0
0.5938684225097116 0.6572070716964091 0
0.6595263708531529 0.568227301790745 0
0.6751443382001308 0.6219002599865273 0
0.7347702589936749 0.6359321225322119 0
0.6909135375663116 0.6850341104061733 0
0.7981382346354262 0.6481472060305354 0
0.7224796293534776 0.7838935283689308 0
0.5812632107690667 0.7123979023336806 0
0.6143198808394382 0.759949734324695 0
0.6157184152928176 0.6024300779090602 0
0.7746646058082026 0.5949928446843559 0
0.77596972674529 0.7612615841011675 0
0.6348289917911577 0.6998983503774147 0
0.7362740878634917 0.7251241813747946 0
0.6854124103323178 0.7340534249375859 0
0.6164314848589545 0.5499129515453369 0
0.8218205783594599 0.6033723052695132 0
0.7683612246352836 0.8087613987700186 0
0.5629721311347782 0.7553020450458423 0
0.6404616218322607 0.6528574002535745 0
0.7506719712069703 0.6815189296665972 0
2 3 0 102
77
78
79
80
81
82
83
84
85
86
87
88
89
90
91
92
93
94
95
96
97
98
99
100
101
102
103
104
105
106
107
108
109
110
111
112
113
114
115
116
117
118
119
120
121
122
123
124
125
126
127
128
129
130
131
132
133
134
135
136
137
138
139
140
141
142
143
144
145
146
147
148
149
150
151
152
153
154
155
156
157
158
159
160
161
162
163
164
165
166
167
168
169
170
171
172
173
174
175
176
177
178
0.5237954939880656 0.5121753552217028 0
0.4744622119138549 0.6872681907535402 0
0.6852005736398459 0.4686964329644736 0
0.5453765934585959 0.4517622639159377 0
0.4746192578697223 0.4680276236142653 0
0.4931093578900084 0.3972176251852954 0
0.4182728554815979 0.416970641791324 0
0.8013702338099398 0.4989497843668889 0
0.4024485481544712 0.494800656622943 0
0.1093171083068241 0.6886981538877821 0
0.7021102082195493 0.1232436129329375 0
0.4378674576590503 0.3367927554999007 0
0.3532778548259596 0.3590943095176015 0
0.5668802406617748 0.3839187096095379 0
0.3111823861789166 0.8831660007766041 0
0.3762353259539642 0.2702071285315893 0
0.2820784513653413 0.294804960854203 0
0.260806520987567 0.391015166024031 0
0.8965746157984676 0.3186109877969662 0
0.4677118802494026 0.2480833732650554 0
0.1793623803329153 0.098993872839368 0
0.1987473226734021 0.3293438481704311 0
0.524154869987867 0.847443529126764 0
0.4596376171440626 0.8330245862416484 0
0.3993048607211639 0.1761320785121789 0
0.1644095406697644 0.420339028981036 0
0.2534372208079161 0.49438726689178 0
0.86174882667456 0.8475876658292966 0
0.1323764216792324 0.5095647794297907 0
0.1952834572286787 0.6006071396939274 0
0.4485263572594436 0.7597948206369168 0
0.4051125488922784 0.6983293447952281 0
0.4309102834218039 0.63568219367874 0
0.3582859032588553 0.6412207058697896 0
0.3145156288419295 0.7175739681184419 0
0.5018450247301682 0.157912742786842 0
0.5632247837871581 0.2389531798966941 0
0.6871173769576093 0.9086519248253123 0
0.8962032890084325 0.4297811770959377 0
0.8095529684515449 0.3808877176554909 0
0.7995008973411525 0.276302843234507 0
0.7210464572263788 0.3285472069937975 0
0.8801245740136393 0.2089564583364933 0
0.7147403430714141 0.2338834472310168 0
0.9230754942476516 0.6773182598115419 0
0.3890592851856449 0.8183937542369005 0
0.8118264138506539 0.1057134240166094 0
0.1868913802878452 0.879387561207398 0
0.250000000000001 0.7972234621927272 0
0.6166608569794472 0.9077524893777009 0
0.3063597057989884 0.1047080749631975 0
0.4029313663135592 0.8873625602340005 0
0.09392526823278891 0.8103398239645363 0
0.20819484813312 0.2177986572609265 0
0.5119936725349621 0.5703593159930419 0
0.09283551381565575 0.1819604300241014 0
0.3041480641139108 0.5716381428058491 0
0.4968746425444385 0.6284461361289964 0
0.612033051771212 0.4478718751131248 0
0.6478530266788136 0.3786015903722899 0
0.9062005744203885 0.7512302538085855 0
0.3934585623929499 0.5672621877762001 0
0.8594610340477096 0.5140535229360443 0
0.7436748275572449 0.4823269550023395 0
0.7321511467873325 0.4132559398320592 0
0.644701494651335 0.2825128259298384 0
0.3414347705157085 0.4406648207413844 0
0.3144346383945156 0.2127301800244191 0
0.8445346535767531 0.9116488976850021 0
0.5139251292788181 0.3257361727338277 0
0.7602155515200893 0.9054176949187023 0
0.4576228370641448 0.5319975619530132 0
0.5973718536942043 0.1381847920451983 0
0.917522416307073 0.6112522774522572 0
0.4797775430591705 0.9022284599148496 0
0.4351723230159135 0.08312917568029171 0
0.09357212893136702 0.314281484288375 0
0.9236873824309755 0.5313374588380548 0
0.2741931089349087 0.6443321648619649 0
0.2094566730493718 0.6967667855371988 0
0.9170779475839986 0.910186345898554 0
0.9063123352600133 0.1081265794953493 0
0.7855790271701673 0.4404757360039639 0
0.5867975291953501 0.8579330942470342 0
0.09214109854532943 0.9013869181830828 0
0.7833830523687366 0.1886921011878718 0
0.8668244713081182 0.7952285144109583 0
0.08747005004431141 0.08747005004431152 0
0.06867777818870502 0.4375000000000012 0
0.5435700786340542 0.9058582646775644 0
0.08645200931853125 0.593193014852641 0
0.9211842052526791 0.8268815118770263 0
0.6433754503010214 0.8676738912860953 0
0.5873169350115799 0.3219444957084376 0
0.3234715842669651 0.7889245334459907 0
0.4581719995916598 0.5867494791059983 0
0.5318778402880567 0.07584534210246641 0
0.3389854331969913 0.5137506149676313 0
0.1725061363988935 0.7710953140033289 0
0.8341187783974552 0.4539856124911031 0
0.6425168468711372 0.2007003099703705 0
0.3761370808892523 0.7566032842466957 0
$EndNodes
$Elements
6 354 1 354
1 1 1 8
1 1 9 
2 9 10 
3 10 11 
4 11 12 
5 12 13 
6 13 14 
7 14 15 
8 15 2 
1 2 1 8
9 3 16 
10 16 17 
11 17 18 
12 18 19 
13 19 20 
14 20 21 
15 21 22 
16 22 1 
1 3 1 8
17 2 23 
18 23 24 
19 24 25 
20 25 26 
21 26 27 
22 27 28 
23 28 29 
24 29 4 
1 4 1 8
25 4 30 
26 30 31 
27 31 32 
28 32 33 
29 33 34 
30 34 35 
31 35 36 
32 36 3 
2 2 2 66
33 68 70 64 
34 64 70 54 
35 58 65 57 
36 62 70 69 
37 59 66 61 
38 63 68 64 
39 62 69 67 
40 58 75 65 
41 61 76 59 
42 54 70 62 
43 38 57 37 
44 42 61 41 
45 46 62 45 
46 50 63 49 
47 39 53 38 
48 43 55 42 
49 47 54 46 
50 51 56 50 
51 53 58 57 
52 53 59 58 
53 53 57 38 
54 55 61 42 
55 54 62 46 
56 56 63 50 
57 59 60 58 
58 53 66 59 
59 52 65 51 
60 40 66 39 
61 44 67 43 
62 48 64 47 
63 39 66 53 
64 43 67 55 
65 47 64 54 
66 51 65 56 
67 56 68 63 
68 5 71 52 
69 6 72 40 
70 7 73 44 
71 8 74 48 
72 37 71 5 
73 41 72 6 
74 45 73 7 
75 49 74 8 
76 60 70 68 
77 55 76 61 
78 67 69 55 
79 59 76 60 
80 60 75 58 
81 65 75 56 
82 60 76 69 
83 68 75 60 
84 40 72 66 
85 44 73 67 
86 48 74 64 
87 52 71 65 
88 57 71 37 
89 61 72 41 
90 62 73 45 
91 63 74 49 
92 65 71 57 
93 66 72 61 
94 67 73 62 
95 64 74 63 
96 69 70 60 
97 56 75 68 
98 69 76 55 
2 3 2 256
99 125 156 111 
100 111 156 155 
101 42 137 43 
102 106 156 86 
103 49 107 78 
104 98 153 130 
105 128 151 34 
106 135 136 79 
107 130 153 132 
108 127 144 130 
109 90 135 80 
110 86 167 106 
111 136 141 79 
112 8 107 49 
113 127 130 97 
114 32 126 114 
115 32 114 31 
116 31 147 145 
117 115 116 95 
118 24 119 23 
119 80 135 5 
120 90 136 135 
121 114 147 31 
122 34 151 33 
123 105 167 19 
124 25 115 95 
125 107 108 78 
126 106 167 105 
127 2 158 15 
128 121 137 42 
129 35 124 91 
130 124 125 91 
131 87 149 13 
132 150 154 27 
133 28 121 27 
134 119 158 23 
135 87 162 120 
136 28 137 121 
137 94 143 103 
138 102 153 98 
139 113 146 96 
140 19 165 105 
141 102 165 153 
142 32 166 126 
143 26 115 25 
144 23 158 2 
145 35 91 34 
146 30 157 4 
147 25 95 24 
148 31 145 30 
149 143 174 103 
150 95 119 24 
151 113 170 146 
152 149 173 13 
153 26 154 115 
154 116 141 118 
155 18 86 17 
156 14 87 13 
157 116 118 117 
158 118 141 136 
159 33 166 32 
160 111 171 125 
161 127 152 101 
162 14 123 87 
163 91 128 34 
164 116 117 95 
165 36 124 35 
166 115 154 139 
167 120 177 87 
168 86 129 17 
169 103 106 105 
170 10 97 9 
171 94 103 102 
172 126 169 114 
173 10 127 97 
174 112 113 96 
175 11 127 10 
176 108 109 78 
177 91 171 122 
178 15 123 14 
179 27 154 26 
180 123 162 87 
181 115 176 116 
182 17 129 16 
183 124 175 125 
184 11 152 127 
185 103 133 106 
186 3 161 36 
187 132 153 21 
188 122 128 91 
189 103 105 102 
190 118 120 117 
191 4 157 29 
192 16 161 3 
193 125 171 91 
194 130 132 97 
195 22 132 21 
196 19 167 18 
197 129 175 124 
198 137 163 43 
199 145 147 7 
200 133 138 110 
201 89 94 93 
202 110 155 133 
203 52 77 5 
204 119 162 123 
205 94 102 98 
206 49 78 50 
207 50 134 51 
208 125 175 156 
209 131 148 77 
210 51 131 52 
211 98 130 93 
212 81 85 83 
213 117 119 95 
214 101 112 96 
215 92 96 88 
216 121 150 27 
217 6 154 150 
218 109 134 78 
219 148 172 138 
220 77 148 81 
221 29 168 28 
222 94 98 93 
223 37 79 38 
224 101 144 127 
225 136 142 118 
226 105 165 102 
227 118 142 120 
228 5 135 37 
229 15 158 123 
230 89 143 94 
231 82 90 80 
232 108 110 109 
233 100 107 8 
234 110 138 109 
235 145 157 30 
236 92 101 96 
237 89 93 92 
238 123 158 119 
239 38 140 39 
240 139 176 115 
241 90 170 136 
242 77 80 5 
243 130 144 93 
244 1 164 22 
245 9 164 1 
246 83 89 88 
247 89 92 88 
248 52 131 77 
249 78 134 50 
250 83 88 82 
251 96 146 88 
252 51 134 131 
253 39 84 40 
254 81 83 82 
255 85 148 138 
256 77 81 80 
257 40 139 6 
258 81 82 80 
259 112 149 113 
260 85 143 83 
261 138 172 109 
262 86 175 129 
263 108 111 110 
264 18 167 86 
265 81 148 85 
266 36 161 124 
267 93 144 92 
268 48 99 8 
269 136 170 142 
270 92 144 101 
271 133 155 106 
272 103 174 133 
273 12 152 11 
274 153 165 20 
275 44 104 7 
276 116 176 159 
277 83 143 89 
278 21 153 20 
279 13 173 12 
280 37 135 79 
281 97 164 9 
282 99 100 8 
283 100 128 122 
284 129 161 16 
285 79 140 38 
286 101 152 112 
287 82 146 90 
288 100 122 107 
289 28 168 137 
290 116 159 141 
291 117 162 119 
292 88 146 82 
293 124 161 129 
294 79 141 140 
295 45 114 46 
296 7 147 45 
297 47 160 48 
298 20 165 19 
299 151 166 33 
300 39 140 84 
301 41 121 42 
302 6 150 41 
303 138 174 85 
304 132 164 97 
305 84 139 40 
306 43 163 44 
307 155 156 106 
308 120 162 117 
309 133 174 138 
310 111 155 110 
311 142 170 113 
312 156 175 86 
313 152 173 112 
314 46 169 47 
315 99 151 100 
316 104 145 7 
317 139 154 6 
318 113 177 142 
319 87 177 149 
320 100 151 128 
321 142 177 120 
322 22 164 132 
323 12 173 152 
324 131 172 148 
325 108 178 111 
326 48 160 99 
327 104 157 145 
328 107 178 108 
329 44 163 104 
330 141 159 140 
331 85 174 143 
332 140 159 84 
333 47 169 160 
334 134 172 131 
335 149 177 113 
336 146 170 90 
337 114 169 46 
338 45 147 114 
339 109 172 134 
340 112 173 149 
341 122 178 107 
342 41 150 121 
343 111 178 171 
344 84 176 139 
345 171 178 122 
346 99 166 151 
347 160 166 99 
348 163 168 104 
349 104 168 157 
350 159 176 84 
351 157 168 29 
352 137 168 163 
353 126 166 160 
354 160 169 126 
$EndElements
