$MeshFormat
4.1 0 8
$EndMeshFormat
$PhysicalNames
3
1 101 "outer_boundary"
2 1 "material_1"
2 2 "material_2"
$EndPhysicalNames
$Entities
8 8 2 0
1 0 0 0 0 
2 1 0 0 0 
3 0 1 0 0 
4 1 1 0 0 
5 0.8081836782882863 0.5060599243476626 0 0 
6 0.5073699179381905 0.5542848094199165 0 0 
7 0.4591450328659366 0.2534710490698208 0 0 
8 0.7599587932160323 0.2052461639975668 0 0 
1 -9.999999994736442e-08 -1e-07 -1e-07 1.0000001 1e-07 1e-07 1 101 2 1 -2 
2 -1e-07 -9.999999994736442e-08 -1e-07 1e-07 1.0000001 1e-07 1 101 2 3 -1 
3 0.9999999000000001 -9.999999994736442e-08 -1e-07 1.0000001 1.0000001 1e-07 1 101 2 2 -4 
4 -9.999999994736442e-08 0.9999999000000001 -1e-07 1.0000001 1.0000001 1e-07 1 101 2 4 -3 
5 0.5073698179381906 0.5060598243476626 -1e-07 0.8081837782882862 0.5542849094199165 1e-07 0 2 5 -6 
6 0.4591449328659366 0.2534709490698208 -1e-07 0.5073700179381905 0.5542849094199165 1e-07 0 2 6 -7 
7 0.4591449328659366 0.2052460639975668 -1e-07 0.7599588932160323 0.2534711490698208 1e-07 0 2 7 -8 
8 0.7599586932160324 0.2052460639975668 -1e-07 0.8081837782882862 0.5060600243476625 1e-07 0 2 8 -5 
2 0.4591449328659366 0.2052460639975668 -1e-07 0.8081837782882862 0.5542849094199165 1e-07 1 2 4 5 6 7 8 
3 -9.999999994736442e-08 -9.999999994736442e-08 -1e-07 1.0000001 1.0000001 1e-07 1 1 8 1 3 4 2 -5 -8 -7 -6 
$EndEntities
$Nodes
18 253 1 253
0 1 0 1
1
0 0 0
0 2 0 1
2
1 0 0
0 3 0 1
3
0 1 0
0 4 0 1
4
1 1 0
0 5 0 1
5
0.8081836782882863 0.5060599243476626 0
0 6 0 1
6
0.5073699179381905 0.5542848094199165 0
0 7 0 1
7
0.4591450328659366 0.2534710490698208 0
0 8 0 1
8
0.7599587932160323 0.2052461639975668 0
1 1 0 9
9
10
11
12
13
14
15
16
17
0.09999999999999996 0 0
0.1999999999999999 0 0
0.3000000000000001 0 0
0.4000000000000004 0 0
0.5000000000000003 0 0
0.5999999999999999 0 0
0.6999999999999995 0 0
0.7999999999999992 0 0
0.899999999999999 0 0
1 2 0 9
18
19
20
21
22
23
24
25
26
0 0.9 0
0 0.8 0
0 0.7 0
0 0.5999999999999996 0
0 0.4999999999999997 0
0 0.4000000000000001 0
0 0.3000000000000005 0
0 0.2000000000000008 0
0 0.100000000000001 0
1 3 0 9
27
28
29
30
31
32
33
34
35
1 0.09999999999999996 0
1 0.1999999999999999 0
1 0.3000000000000001 0
1 0.4000000000000004 0
1 0.5000000000000003 0
1 0.5999999999999999 0
1 0.6999999999999995 0
1 0.7999999999999992 0
1 0.899999999999999 0
1 4 0 9
36
37
38
39
40
41
42
43
44
0.9 1 0
0.8 1 0
0.7 1 0
0.5999999999999996 1 0
0.4999999999999997 1 0
0.4000000000000001 1 0
0.3000000000000005 1 0
0.2000000000000008 1 0
0.100000000000001 1 0
1 5 0 5
45
46
47
48
49
0.7580480515632703 0.5140974051930383 0
0.7079124248382543 0.5221348860384138 0
0.6577767981132383 0.5301723668837895 0
0.6076411713882225 0.5382098477291652 0
0.5575055446632065 0.5462473285745408 0
1 6 0 5
50
51
52
53
54
0.4993324370928149 0.5041491826949005 0
0.4912949562474392 0.4540135559698846 0
0.4832574754020635 0.4038779292448686 0
0.4752199945566879 0.3537423025198527 0
0.4671825137113122 0.3036066757948366 0
1 7 0 5
55
56
57
58
59
0.5092806595909526 0.2454335682244451 0
0.5594162863159685 0.2373960873790694 0
0.6095519130409845 0.2293586065336937 0
0.6596875397660005 0.2213211256883181 0
0.7098231664910164 0.2132836448429424 0
1 8 0 5
60
61
62
63
64
0.767996274061408 0.2553817907225828 0
0.7760337549067836 0.3055174174475987 0
0.7840712357521593 0.3556530441726147 0
0.792108716597535 0.4057886708976306 0
0.8001461974429106 0.4559242976226466 0
2 2 0 34
65
66
67
68
69
70
71
72
73
74
75
76
77
78
79
80
81
82
83
84
85
86
87
88
89
90
91
92
93
94
95
96
97
98
0.6755121159329569 0.4830371652320395 0
0.592306664950925 0.2786650071074988 0
0.5329096395691018 0.4260898247231147 0
0.7325977594373186 0.3400137991547932 0
0.5759798870977407 0.4997410832053257 0
0.7499817112423681 0.4335322735772981 0
0.5128550139908157 0.3212890595430459 0
0.6883298311468571 0.2634146864253228 0
0.6257475486092524 0.4909779620248673 0
0.6437933718416502 0.4434195551678146 0
0.6945227751738304 0.4367095696528025 0
0.6620408860991832 0.3961469102276292 0
0.6131493398235647 0.4029178616280119 0
0.6303095036379942 0.3572547964741574 0
0.5797985210101178 0.3645349422150943 0
0.679347274195847 0.3495325732009203 0
0.6469105544991957 0.3074683868011643 0
0.712165980098484 0.3903400124338022 0
0.530040425894245 0.3719786053774022 0
0.5854439835927648 0.4483674145161579 0
0.537113571475117 0.472832797841606 0
0.7248413897218148 0.4771880555564728 0
0.5400855617303871 0.2827501117229617 0
0.7307235818768918 0.2873998255845107 0
0.6011916629546058 0.3273406812356139 0
0.6393573006807926 0.2600455625111995 0
0.6955818002312221 0.3095658542333423 0
0.5593796417551827 0.3244264012002695 0
0.7545054744423564 0.3861049487893702 0
0.5696092660561327 0.4055359058156847 0
0.7655980079125899 0.4752419426593195 0
0.5017307032416329 0.2842890307581638 0
0.7291408115276893 0.2478318343732631 0
0.5381878996265336 0.5116991390442202 0
2 3 0 155
99
100
101
102
103
104
105
106
107
108
109
110
111
112
113
114
115
116
117
118
119
120
121
122
123
124
125
126
127
128
129
130
131
132
133
134
135
136
137
138
139
140
141
142
143
144
145
146
147
148
149
150
151
152
153
154
155
156
157
158
159
160
161
162
163
164
165
166
167
168
169
170
171
172
173
174
175
176
177
178
179
180
181
182
183
184
185
186
187
188
189
190
191
192
193
194
195
196
197
198
199
200
201
202
203
204
205
206
207
208
209
210
211
212
213
214
215
216
217
218
219
220
221
222
223
224
225
226
227
228
229
230
231
232
233
234
235
236
237
238
239
240
241
242
243
244
245
246
247
248
249
250
251
252
253
0.4599324511369849 0.5361776586519347 0
0.4364634556525168 0.3870295200096511 0
0.6873273205164344 0.5636803658023251 0
0.469987860223408 0.5880311516572132 0
0.4113506700120277 0.5659568404291188 0
0.4228996302907198 0.6292895063528031 0
0.4853902849041725 0.6428153088255218 0
0.3647151365800128 0.6060412601831093 0
0.08926307172992909 0.2547634867833141 0
0.7509929096606819 0.9204092342006734 0
0.4192847007044108 0.2862364844506095 0
0.7890674804947386 0.556763988456102 0
0.37396361799468 0.6728002918117748 0
0.3563094680448378 0.5474303455827303 0
0.3076896343747946 0.6482260421016927 0
0.4137255307244493 0.232100683126083 0
0.3643385480344475 0.2705917898721756 0
0.5895340206202406 0.5856473145303708 0
0.07672089154424677 0.4460029730936439 0
0.3198560983966711 0.7178142964120349 0
0.3918118701376581 0.7425563540879118 0
0.5485338037254344 0.9168018581185796 0
0.3551534884894687 0.2088414367190076 0
0.2475115971136773 0.6918944583624302 0
0.3029194428678917 0.2482554209358272 0
0.3157464043470091 0.3154097955325604 0
0.9170025536098653 0.7379306406696676 0
0.5271603538939793 0.196577289653412 0
0.8114292080178174 0.2248274929547035 0
0.2367025985961651 0.616483586786035 0
0.2594679086757601 0.7726390721359954 0
0.6274317498196208 0.1805032166868922 0
0.2902541019783532 0.1860250532058833 0
0.8168222134600527 0.3236327669372305 0
0.7959914775173043 0.1695121394679574 0
0.7341805881166403 0.164844022190958 0
0.2489871547784569 0.2927118493329007 0
0.2642159791936577 0.3644858860912439 0
0.8457509490149775 0.4267696955627269 0
0.4155447611643505 0.1759703742046974 0
0.8434104056509661 0.5466807010476237 0
0.8236999764539484 0.603765049788837 0
0.08435920223991755 0.8495762630719125 0
0.1965852890376708 0.3402897514693346 0
0.3560782799939368 0.9158911095272428 0
0.1718706867997624 0.6642474178803535 0
0.1495109166184886 0.09774910688717231 0
0.2090307270910094 0.4164969306878156 0
0.2839212059114864 0.4310314087063339 0
0.160530183697862 0.5806695814446898 0
0.8591504584671097 0.1896580858212237 0
0.7619817129426248 0.613550867354537 0
0.7988193666232573 0.6654544467328033 0
0.7290140308207365 0.6735525883756418 0
0.7802342735216121 0.7449506025346591 0
0.6981445252357925 0.7375105202047511 0
0.6579437607049976 0.6803078419272003 0
0.6230877078876409 0.7455761378097499 0
0.6623967059404123 0.8019941285703991 0
0.5833021736916771 0.678720968592807 0
0.5450522150457727 0.7588240371642354 0
0.5476913868004123 0.08581994706156415 0
0.844443072461518 0.1258089539797764 0
0.7680645867150746 0.1150777696485204 0
0.6438887600722125 0.07776477290147787 0
0.8556173369052728 0.4798571319438747 0
0.232594756561564 0.5412440031088608 0
0.8665767537815232 0.2534957229860004 0
0.4692018332308251 0.06935722059239829 0
0.8896552733567378 0.5907988635267505 0
0.9316785819893424 0.3541879046151124 0
0.3329840652863776 0.07756313418042282 0
0.9209920993954106 0.4365045309430976 0
0.2464194892285616 0.07704891688082394 0
0.0741897912841547 0.3506829246212765 0
0.6503937013342925 0.9047364547449588 0
0.2137295702254343 0.1585985367421063 0
0.4524456498356896 0.9171425167191047 0
0.5005777924171949 0.8349854113643869 0
0.40508277560311 0.8248337903473217 0
0.1781230887321482 0.2647127548533472 0
0.8473148559464136 0.9174267714991611 0
0.7991170932958118 0.8390200027332959 0
0.3405752525479819 0.3844429619040345 0
0.3442093180132858 0.4456044446237479 0
0.2607808804591175 0.9174032758717556 0
0.1006555542856471 0.7398870669664452 0
0.1679694914549678 0.8000000000000002 0
0.3770125666575706 0.327865806523605 0
0.9063239459993759 0.8443596333144678 0
0.08563969297769036 0.6374536887190811 0
0.08074657743967606 0.1549560562206848 0
0.159499169556343 0.9050201580682147 0
0.5873315231850533 0.829713931058603 0
0.4663416509199716 0.7591289506765957 0
0.3085762324836032 0.8411342027052685 0
0.9218070257957753 0.1465232734827493 0
0.4576138132826192 0.4852804804309794 0
0.4434597596476064 0.437671184708054 0
0.6396696473452566 0.5776098336849952 0
0.7399409007952884 0.5615348719942439 0
0.07936541262130248 0.5438367995680788 0
0.5340335460801519 0.5976748940475161 0
0.1618912771406023 0.4843680688316446 0
0.4698247518632777 0.2090408116744628 0
0.4859698123875144 0.1447884901196016 0
0.5772179729555735 0.188053218149814 0
0.8154337408626136 0.2734889414905645 0
0.8330317415399837 0.368817712663039 0
0.3010991188460284 0.5762801358209153 0
0.3085831189187958 0.4982555771630638 0
0.3969717349068373 0.4918141509123327 0
0.2318484699109314 0.2253487298140167 0
0.428193527018487 0.3389025934702943 0
0.6785151175673085 0.1717125455709458 0
0.4413626169585366 0.691202472470724 0
0.8435802357236977 0.7214950728308863 0
0.5943501508637995 0.1345341349436567 0
0.7335593076845752 0.7954760409158242 0
0.8688631443133604 0.6615744013046498 0
0.6231405772384435 0.6297213009568969 0
0.9146959462398467 0.2146866722393488 0
0.9391183723211498 0.6473489204125891 0
0.392612908599442 0.4202495056135052 0
0.6913021508710365 0.6178997252290155 0
0.699493673266948 0.1204984385319613 0
0.5363685907512861 0.6487786450101783 0
0.5091026531286974 0.697734404536599 0
0.141649525498296 0.3906869127931205 0
0.9233902653525037 0.5094408370834087 0
0.9259454931548259 0.2837562789067707 0
0.710858596377567 0.8558269575537294 0
0.9135181929702643 0.07282728365634017 0
0.1468094211972288 0.2002369177049341 0
0.1894950476659629 0.7337336030690449 0
0.2312587365259584 0.8472393417562468 0
0.924896181695023 0.9251560044810541 0
0.5461692063570651 0.1499532896189098 0
0.3489755144829139 0.1470125171422426 0
0.8511617110067713 0.7813891399598818 0
0.8817034010330114 0.3792048160837508 0
0.07320508075688781 0.9267949192431124 0
0.07320508075688753 0.07320508075688781 0
0.7377176799364211 0.06299540925957919 0
0.8272905886805459 0.06278490275736937 0
0.2375308530804754 0.4735249358211892 0
0.8673131322601932 0.319512020526067 0
0.6487358903179778 0.1370026217269868 0
0.1367179601181621 0.3165130480404872 0
0.5751278214650921 0.6285902664079317 0
0.9455537519966154 0.5660242942768219 0
0.3943527454300183 0.373755218309292 0
0.404225606413715 0.1102742501321093 0
0.2935682241933879 0.1233826438189884 0
0.3383838135296423 0.7772857195887433 0
$EndNodes
$Elements
6 504 1 504
1 1 1 10
1 1 9 
2 9 10 
3 10 11 
4 11 12 
5 12 13 
6 13 14 
7 14 15 
8 15 16 
9 16 17 
10 17 2 
1 2 1 10
11 3 18 
12 18 19 
13 19 20 
14 20 21 
15 21 22 
16 22 23 
17 23 24 
18 24 25 
19 25 26 
20 26 1 
1 3 1 10
21 2 27 
22 27 28 
23 28 29 
24 29 30 
25 30 31 
26 31 32 
27 32 33 
28 33 34 
29 34 35 
30 35 4 
1 4 1 10
31 4 36 
32 36 37 
33 37 38 
34 38 39 
35 39 40 
36 40 41 
37 41 42 
38 42 43 
39 43 44 
40 44 3 
2 2 2 90
41 84 85 67 
42 67 94 84 
43 75 82 70 
44 81 90 72 
45 81 89 66 
46 66 90 81 
47 72 91 81 
48 82 93 70 
49 68 82 80 
50 66 92 87 
51 89 92 66 
52 69 85 84 
53 79 94 83 
54 70 86 75 
55 80 91 68 
56 83 92 79 
57 83 94 67 
58 68 93 82 
59 49 69 48 
60 54 71 53 
61 69 73 48 
62 74 77 76 
63 76 82 75 
64 77 79 78 
65 64 70 63 
66 74 75 65 
67 71 83 53 
68 74 84 77 
69 52 67 51 
70 53 83 52 
71 77 78 76 
72 78 80 76 
73 73 84 74 
74 57 66 56 
75 73 74 65 
76 78 81 80 
77 48 73 47 
78 52 83 67 
79 47 73 65 
80 80 82 76 
81 59 72 58 
82 74 76 75 
83 69 84 73 
84 62 68 61 
85 47 65 46 
86 71 92 83 
87 46 86 45 
88 51 85 50 
89 61 88 60 
90 75 86 65 
91 56 87 55 
92 68 91 88 
93 57 90 66 
94 72 90 58 
95 78 89 81 
96 67 85 51 
97 66 87 56 
98 65 86 46 
99 68 88 61 
100 70 93 63 
101 62 93 68 
102 84 94 77 
103 55 96 7 
104 45 95 5 
105 60 97 8 
106 7 96 54 
107 50 98 6 
108 8 97 59 
109 5 95 64 
110 6 98 49 
111 79 89 78 
112 58 90 57 
113 87 92 71 
114 81 91 80 
115 88 91 72 
116 63 93 62 
117 77 94 79 
118 86 95 45 
119 87 96 55 
120 85 98 50 
121 88 97 60 
122 49 98 69 
123 54 96 71 
124 64 95 70 
125 59 97 72 
126 79 92 89 
127 71 96 87 
128 69 98 85 
129 70 95 86 
130 72 97 88 
2 3 2 374
131 156 192 159 
132 199 223 101 
133 185 189 144 
134 210 222 197 
135 159 192 177 
136 174 192 157 
137 102 201 105 
138 164 228 139 
139 139 228 168 
140 103 210 99 
141 31 228 171 
142 196 210 197 
143 144 233 185 
144 153 238 181 
145 138 204 203 
146 181 217 153 
147 177 193 159 
148 150 223 199 
149 99 210 196 
150 20 189 185 
151 157 230 174 
152 138 251 204 
153 157 192 156 
154 31 171 30 
155 165 209 208 
156 202 227 146 
157 171 239 169 
158 138 203 114 
159 30 171 169 
160 137 164 64 
161 119 193 178 
162 64 164 5 
163 6 201 102 
164 175 232 145 
165 181 188 180 
166 181 238 188 
167 186 234 191 
168 175 252 131 
169 186 191 141 
170 218 221 125 
171 201 225 105 
172 120 192 174 
173 215 238 153 
174 183 210 209 
175 28 229 220 
176 184 194 143 
177 178 193 177 
178 209 210 112 
179 114 203 7 
180 27 231 2 
181 145 232 190 
182 14 163 160 
183 170 172 11 
184 198 223 219 
185 160 204 167 
186 12 251 170 
187 167 251 12 
188 143 178 176 
189 207 245 239 
190 204 251 167 
191 170 252 172 
192 117 227 202 
193 160 167 13 
194 23 173 117 
195 120 174 39 
196 101 223 198 
197 21 189 20 
198 183 222 210 
199 228 249 168 
200 215 218 125 
201 184 234 194 
202 109 187 115 
203 14 160 13 
204 143 176 41 
205 112 210 103 
206 165 208 128 
207 132 245 207 
208 2 231 17 
209 176 177 120 
210 172 252 175 
211 182 183 147 
212 146 244 202 
213 12 170 11 
214 30 169 29 
215 29 229 28 
216 42 184 143 
217 108 181 180 
218 15 163 14 
219 172 175 145 
220 136 182 147 
221 8 134 133 
222 185 186 141 
223 107 173 24 
224 38 174 108 
225 176 178 177 
226 19 185 141 
227 163 216 160 
228 40 176 120 
229 10 172 145 
230 25 107 24 
231 38 108 37 
232 208 209 112 
233 156 158 155 
234 179 232 211 
235 13 167 12 
236 40 120 39 
237 108 180 37 
238 23 117 22 
239 115 187 124 
240 11 172 10 
241 42 143 41 
242 178 253 119 
243 185 233 186 
244 154 155 152 
245 124 187 182 
246 143 194 178 
247 43 184 42 
248 20 185 19 
249 34 125 33 
250 124 182 136 
251 24 173 23 
252 39 174 38 
253 158 226 225 
254 19 141 18 
255 21 200 189 
256 41 176 40 
257 182 222 183 
258 136 147 146 
259 108 230 181 
260 211 232 175 
261 148 165 128 
262 10 145 9 
263 125 221 33 
264 25 190 107 
265 34 188 125 
266 177 192 120 
267 137 171 164 
268 191 234 184 
269 37 180 36 
270 231 243 17 
271 152 223 150 
272 134 162 133 
273 165 244 209 
274 35 188 34 
275 131 211 175 
276 28 195 27 
277 43 191 184 
278 154 156 155 
279 173 227 117 
280 159 226 158 
281 160 236 204 
282 133 162 161 
283 44 191 43 
284 26 190 25 
285 22 200 21 
286 109 212 187 
287 181 230 217 
288 17 243 16 
289 189 200 148 
290 117 200 22 
291 105 214 104 
292 156 159 158 
293 148 202 165 
294 15 242 163 
295 194 234 129 
296 6 99 50 
297 122 128 113 
298 115 124 123 
299 4 235 35 
300 36 235 4 
301 52 100 53 
302 46 101 47 
303 51 197 52 
304 144 148 128 
305 140 150 110 
306 54 109 7 
307 50 196 51 
308 153 154 152 
309 104 214 111 
310 111 119 118 
311 136 146 142 
312 106 112 103 
313 47 198 48 
314 124 136 135 
315 119 214 193 
316 182 250 222 
317 158 219 155 
318 53 212 54 
319 206 245 132 
320 194 253 178 
321 151 152 150 
322 186 233 129 
323 102 105 104 
324 154 157 156 
325 48 116 49 
326 45 199 46 
327 3 240 44 
328 18 240 3 
329 105 226 214 
330 49 201 6 
331 1 241 26 
332 9 241 1 
333 144 189 148 
334 200 202 148 
335 122 144 128 
336 142 179 135 
337 155 223 152 
338 118 129 122 
339 128 208 113 
340 136 142 135 
341 183 209 147 
342 193 226 159 
343 169 229 29 
344 5 110 45 
345 118 122 113 
346 195 231 27 
347 151 153 152 
348 6 102 99 
349 111 113 106 
350 111 118 113 
351 174 230 108 
352 124 135 123 
353 214 226 193 
354 219 223 155 
355 55 126 56 
356 129 234 186 
357 134 224 162 
358 202 244 165 
359 99 196 50 
360 8 127 60 
361 56 205 57 
362 52 197 100 
363 60 206 61 
364 196 197 51 
365 179 247 107 
366 57 130 58 
367 117 202 200 
368 239 245 169 
369 104 111 106 
370 7 203 55 
371 140 151 150 
372 61 132 62 
373 115 123 121 
374 100 212 53 
375 101 198 47 
376 107 247 173 
377 54 212 109 
378 104 106 103 
379 62 207 63 
380 111 214 119 
381 102 103 99 
382 151 215 153 
383 209 244 147 
384 16 242 15 
385 150 199 110 
386 63 137 64 
387 102 104 103 
388 154 217 157 
389 106 208 112 
390 46 199 101 
391 121 138 114 
392 58 213 59 
393 149 166 127 
394 123 131 121 
395 109 115 114 
396 109 114 7 
397 161 243 231 
398 153 217 154 
399 48 198 116 
400 16 243 242 
401 107 232 179 
402 113 208 106 
403 59 134 8 
404 179 211 135 
405 163 242 224 
406 116 201 49 
407 115 121 114 
408 28 220 195 
409 187 250 182 
410 135 211 123 
411 110 199 45 
412 161 195 149 
413 242 243 162 
414 33 221 32 
415 123 211 131 
416 188 238 125 
417 5 164 139 
418 198 219 116 
419 197 222 100 
420 139 140 110 
421 129 233 122 
422 5 139 110 
423 32 249 31 
424 166 245 206 
425 166 206 127 
426 129 253 194 
427 190 232 107 
428 44 240 191 
429 180 235 36 
430 162 243 161 
431 26 241 190 
432 118 253 129 
433 141 240 18 
434 139 168 140 
435 133 161 149 
436 35 235 188 
437 188 235 180 
438 126 205 56 
439 145 241 9 
440 140 218 151 
441 168 249 221 
442 55 203 126 
443 127 206 60 
444 146 227 142 
445 8 133 127 
446 191 240 141 
447 57 205 130 
448 168 221 218 
449 61 206 132 
450 171 228 164 
451 149 220 166 
452 132 207 62 
453 190 241 145 
454 130 213 58 
455 63 207 137 
456 151 218 215 
457 195 220 149 
458 133 149 127 
459 203 204 126 
460 147 244 146 
461 217 230 157 
462 205 216 130 
463 122 233 144 
464 168 218 140 
465 131 237 121 
466 225 226 105 
467 59 213 134 
468 161 231 195 
469 213 224 134 
470 100 250 212 
471 224 242 162 
472 121 237 138 
473 137 239 171 
474 227 247 142 
475 220 229 166 
476 116 248 201 
477 201 248 225 
478 158 248 219 
479 163 246 216 
480 212 250 187 
481 142 247 179 
482 221 249 32 
483 31 249 228 
484 119 253 118 
485 216 236 160 
486 207 239 137 
487 173 247 227 
488 126 236 205 
489 237 251 138 
490 219 248 116 
491 204 236 126 
492 125 238 215 
493 205 236 216 
494 222 250 100 
495 216 246 130 
496 130 246 213 
497 213 246 224 
498 229 245 166 
499 225 248 158 
500 131 252 237 
501 170 251 237 
502 169 245 229 
503 237 252 170 
504 224 246 163 
$EndElements
