$MeshFormat
4.1 0 8
$EndMeshFormat
$PhysicalNames
3
1 101 "outer_boundary"
2 1 "material_1"
2 2 "material_2"
$EndPhysicalNames
$Entities
5 5 2 0
1 0 0 0 0 
2 1 0 0 0 
3 0 1 0 0 
4 1 1 0 0 
5 0.6073714870931219 0.3942548516410601 0 0 
1 -9.999999994736442e-08 -1e-07 -1e-07 1.0000001 1e-07 1e-07 1 101 2 1 -2 
2 -1e-07 -9.999999994736442e-08 -1e-07 1e-07 1.0000001 1e-07 1 101 2 3 -1 
3 0.9999999000000001 -9.999999994736442e-08 -1e-07 1.0000001 1.0000001 1e-07 1 101 2 2 -4 
4 -9.999999994736442e-08 0.9999999000000001 -1e-07 1.0000001 1.0000001 1e-07 1 101 2 4 -3 
5 0.1722276958243654 0.1766829060066817 -1e-07 0.6073715870931219 0.6118267972754383 1e-07 0 2 5 -5 
2 0.1722276958243654 0.1766829060066817 -1e-07 0.6073715870931219 0.6118267972754383 1e-07 1 2 1 5 
3 -9.999999994736442e-08 -9.999999994736442e-08 -1e-07 1.0000001 1.0000001 1e-07 1 1 5 1 3 4 2 -5 
$EndEntities
$Nodes
12 253 1 253
0 1 0 1
1
0 0 0
0 2 0 1
2
1 0 0
0 3 0 1
3
0 1 0
0 4 0 1
4
1 1 0
0 5 0 1
5
0.6073714870931219 0.3942548516410601 0
1 1 0 9
6
7
8
9
10
11
12
13
14
0.09999999999999996 0 0
0.1999999999999999 0 0
0.3000000000000001 0 0
0.4000000000000004 0 0
0.5000000000000003 0 0
0.5999999999999999 0 0
0.6999999999999995 0 0
0.7999999999999992 0 0
0.899999999999999 0 0
1 2 0 9
15
16
17
18
19
20
21
22
23
0 0.9 0
0 0.8 0
0 0.7 0
0 0.5999999999999996 0
0 0.4999999999999997 0
0 0.4000000000000001 0
0 0.3000000000000005 0
0 0.2000000000000008 0
0 0.100000000000001 0
1 3 0 9
24
25
26
27
28
29
30
31
32
1 0.09999999999999996 0
1 0.1999999999999999 0
1 0.3000000000000001 0
1 0.4000000000000004 0
1 0.5000000000000003 0
1 0.5999999999999999 0
1 0.6999999999999995 0
1 0.7999999999999992 0
1 0.899999999999999 0
1 4 0 9
33
34
35
36
37
38
39
40
41
0.9 1 0
0.8 1 0
0.7 1 0
0.5999999999999996 1 0
0.4999999999999997 1 0
0.4000000000000001 1 0
0.3000000000000005 1 0
0.2000000000000008 1 0
0.100000000000001 1 0
1 5 0 24
42
43
44
45
46
47
48
49
50
51
52
53
54
55
56
57
58
59
60
61
62
63
64
65
0.6005360674758804 0.4483627693821228 0
0.5804593031776217 0.499070887656513 0
0.5484026911363797 0.543193028901637 0
0.5063804661826777 0.5779568367131793 0
0.4570330392572894 0.6011779731939988 0
0.403461090681078 0.6113973689376395 0
0.3490307430069317 0.6079729017252202 0
0.2971620551600329 0.5911197434260065 0
0.2511141275574925 0.5618968399575186 0
0.2137803208430093 0.5221403738190026 0
0.1875064553965906 0.4743483899919962 0
0.1739434148127529 0.4215238345869716 0
0.1739434148127526 0.3669858686951512 0
0.1875064553965897 0.3141613132901264 0
0.2137803208430077 0.2663693294631196 0
0.2511141275574905 0.2266128633246032 0
0.2971620551600307 0.1973899598561147 0
0.3490307430069298 0.1805368015569003 0
0.4034610906810762 0.1771123343444805 0
0.4570330392572882 0.1873317300881209 0
0.5063804661826766 0.2105528665689402 0
0.5484026911363792 0.2453166743804825 0
0.5804593031776214 0.2894388156256065 0
0.6005360674758803 0.340146933899997 0
2 2 0 55
66
67
68
69
70
71
72
73
74
75
76
77
78
79
80
81
82
83
84
85
86
87
88
89
90
91
92
93
94
95
96
97
98
99
100
101
102
103
104
105
106
107
108
109
110
111
112
113
114
115
116
117
118
119
120
0.3769878065452255 0.5691058331123228 0
0.4170424409965542 0.2204103098815318 0
0.2285836660873748 0.3553681755770395 0
0.5570949459748622 0.4153891634775337 0
0.2419415181504692 0.4765729398879933 0
0.2996368545567438 0.2441364063218337 0
0.5262201019693578 0.2951395853900224 0
0.4986329653535438 0.5261126514591382 0
0.2974348563640477 0.5342589066009851 0
0.5040372866640557 0.2569725278907358 0
0.4766245115263755 0.2995114078911204 0
0.5011994877123074 0.3428918101535464 0
0.4486957227499834 0.3462620609897595 0
0.4759106562225319 0.3912177726680974 0
0.4229578224604288 0.394367591677997 0
0.3940065908989115 0.3484563304165521 0
0.3686891531770645 0.3968089571721589 0
0.3979336330550109 0.4428340718726755 0
0.3395300721152203 0.3508326826991409 0
0.3434468459955353 0.4444682815164963 0
0.3660351291476382 0.3032772871545245 0
0.3732228662965349 0.4869190031972492 0
0.4284164958175207 0.4825840642366294 0
0.4224198904884489 0.3026681254683631 0
0.4524278140426634 0.4398725771872614 0
0.5118979398337417 0.4353883000770524 0
0.3142320264120165 0.3990402341244096 0
0.2848802955097874 0.3529428590348215 0
0.2578576281112296 0.3962100530859146 0
0.2478094891911546 0.3098914868555059 0
0.2856282808671123 0.4467431271020152 0
0.3064056642043269 0.297211022523957 0
0.3205858030339962 0.4873767439193147 0
0.5501848396334089 0.3379607481253507 0
0.2215039347991651 0.4314542462482482 0
0.4814307145417094 0.4788500919129476 0
0.5303435079861069 0.4896081970310213 0
0.3922568848215177 0.2623458341066479 0
0.3747021944662092 0.2188676467977696 0
0.3451772608669191 0.2570477737433321 0
0.5263153077350988 0.3835588761604396 0
0.4569098944069297 0.2526445754724838 0
0.3495127831868887 0.5285156439345415 0
0.2586358291252286 0.5174258699235466 0
0.4684912022133804 0.5586869525963092 0
0.4285669194965727 0.5644566151542618 0
0.4022668541648102 0.5247950013466797 0
0.3338108725424115 0.5667741749104012 0
0.2105314680911735 0.3933466999226287 0
0.5687259028280348 0.3745355634502021 0
0.452898971468836 0.5210403110683501 0
0.2623425292188478 0.2667419444032851 0
0.5593529291418656 0.4559561031358401 0
0.3331418216113665 0.2195957176551901 0
0.2799761556125582 0.4869538404324669 0
2 3 0 133
121
122
123
124
125
126
127
128
129
130
131
132
133
134
135
136
137
138
139
140
141
142
143
144
145
146
147
148
149
150
151
152
153
154
155
156
157
158
159
160
161
162
163
164
165
166
167
168
169
170
171
172
173
174
175
176
177
178
179
180
181
182
183
184
185
186
187
188
189
190
191
192
193
194
195
196
197
198
199
200
201
202
203
204
205
206
207
208
209
210
211
212
213
214
215
216
217
218
219
220
221
222
223
224
225
226
227
228
229
230
231
232
233
234
235
236
237
238
239
240
241
242
243
244
245
246
247
248
249
250
251
252
253
0.5546536297694735 0.5980838761864828 0
0.6346289942607436 0.4881250648654513 0
0.6320756369096798 0.2950831629284998 0
0.3105494414598571 0.6445689646765491 0
0.9024355446193923 0.7475277278680489 0
0.4328436332239562 0.6590734146247186 0
0.6546977338916247 0.910510094336163 0
0.9230141681126398 0.5524134252094071 0
0.9240070688177329 0.3486464157879268 0
0.2545310934421515 0.8996972735109792 0
0.4423585926600814 0.9179179112305181 0
0.08559863002529167 0.7442404634105046 0
0.1941000415474417 0.2151002886907609 0
0.7499999999999993 0.08660254037844356 0
0.1963013152259694 0.5711548561322616 0
0.5574979193566032 0.1915424561412609 0
0.4390359574055223 0.136088294523936 0
0.9231301977423315 0.1495470844379331 0
0.3063922262317434 0.1439123934527016 0
0.8398685522720192 0.9117867145271772 0
0.1335745483838 0.4634094617839669 0
0.1335243787524176 0.3303143531836282 0
0.1498231489012242 0.07756096131916473 0
0.6496453619933655 0.4294076277856633 0
0.6959558979931864 0.4738477005012218 0
0.6768649399450628 0.5323801165477837 0
0.7099437603543878 0.4102304244465573 0
0.7599732723699302 0.4603587646179462 0
0.7785212312913887 0.3933599102180316 0
0.728126737163591 0.3437178460849113 0
0.8291131842430931 0.4493240436598746 0
0.7974455917573315 0.3239757465895916 0
0.744149765263069 0.2735414743043539 0
0.813220351627441 0.2462423969772167 0
0.805258378408917 0.5178429329896557 0
0.601220501524673 0.2401332578842044 0
0.6231639695504966 0.1815485234848937 0
0.5617209218867545 0.1315722771736559 0
0.5018168468171188 0.6323035302823714 0
0.5534464638873324 0.6614280678917734 0
0.610244737997601 0.6258831126880968 0
0.6125781750061963 0.6926047752360167 0
0.6730036772994639 0.6591165396943208 0
0.5515120640621548 0.7279234587753822 0
0.6742456168332013 0.732387282678247 0
0.7393647829466672 0.6934107851925903 0
0.7417224877419808 0.7731982191208218 0
0.7332358354315649 0.6253916214624111 0
0.79972741949084 0.6558492307858063 0
0.3678038532365074 0.6550680789891519 0
0.3298114631704522 0.7031133249899497 0
0.2668315238727179 0.6904434800011585 0
0.2916652785664797 0.7557551990300663 0
0.3670861791337671 0.7592571474863528 0
0.2150850039627152 0.7569445993159678 0
0.1991722511833512 0.682649054393919 0
0.2454555266704288 0.173017350816777 0
0.1592543160283559 0.2675114864444108 0
0.1327867527951849 0.2075240577814813 0
0.1599916779277408 0.5203449486738747 0
0.1280784155687931 0.5766571738795 0
0.1253821611133518 0.3973626048358045 0
0.3732802412436206 0.1316865041280604 0
0.6054014499234743 0.5509675808735861 0
0.3193828281865845 0.8285597952022361 0
0.2459485334150421 0.09340551596518293 0
0.6750959625506945 0.2394202228897329 0
0.7007454348995985 0.1520734927913984 0
0.5016301005365096 0.1581278713542568 0
0.6574303335265552 0.3593439559981028 0
0.6215144062679897 0.09772294201916937 0
0.245164548847552 0.6202388329738138 0
0.3514854454827793 0.9132158231688017 0
0.6681330324700858 0.8148258790667576 0
0.7411740730503346 0.856074670483368 0
0.5849986302218153 0.8480985955650917 0
0.8251155771825313 0.8109022015048875 0
0.7833586911061885 0.1613153547035432 0
0.4890681327519194 0.6923962239561881 0
0.4886173373367025 0.7587044366782232 0
0.4303033740301109 0.7225225239152541 0
0.3948024058496274 0.8363365079126652 0
0.0833587314192723 0.6495174845289656 0
0.9216914765997837 0.650796094021328 0
0.09335970236447072 0.2789590901904794 0
0.9106852555879732 0.2478032673574699 0
0.09434579710599889 0.5112333039272756 0
0.07549577578919431 0.8474102085732584 0
0.1491220203560948 0.9010478502978541 0
0.2000984201121424 0.8355098370756024 0
0.4943154898591253 0.09309388405943109 0
0.9186220327960979 0.4590492261861676 0
0.8478150206283508 0.09391265667415671 0
0.06886402373792833 0.3529129697360914 0
0.9159601842619632 0.8473440148191723 0
0.1773063321014509 0.1511950683767999 0
0.3347076131072774 0.07728129426660318 0
0.8092641294386083 0.7317296875975758 0
0.08641359589612763 0.1459266705893982 0
0.4898876969205039 0.8359521585106044 0
0.5369392537856379 0.9209380849642357 0
0.0703610883901799 0.4374863900471897 0
0.6662445320998058 0.5953537124587072 0
0.6119596530815586 0.7686864122168542 0
0.4235565502692578 0.07302499616300512 0
0.1556889145338017 0.731872939288025 0
0.8487027617080947 0.3771814400037565 0
0.4341393986541424 0.7825545549006199 0
0.5536358437564242 0.05753106045541917 0
0.7422513247653649 0.5206881289019368 0
0.7767478987443772 0.5829036726249297 0
0.688937751775262 0.300770218581543 0
0.5453950763245471 0.7878730123492312 0
0.1703871817331686 0.6257234330034014 0
0.7499999999999999 0.936451778417231 0
0.06299007565463077 0.5708985494601766 0
0.8504621223357792 0.5924384907734829 0
0.07515830792965583 0.9242556523616924 0
0.8544360270437052 0.1817511190049853 0
0.8608721056818044 0.3061732416764485 0
0.138570545219518 0.800461980563447 0
0.06724734895947043 0.06469752638171272 0
0.9267949192431122 0.07320508075688753 0
0.06455646420610778 0.2194968816193517 0
0.9267949192431124 0.9267949192431122 0
0.2561525248540146 0.8152933408269704 0
0.8652939771793053 0.5142136237637176 0
0.1397117593910135 0.6781225544436765 0
0.8599208689116485 0.6893036110616688 0
0.7415286337170885 0.213521975731542 0
0.3798670777369407 0.7052753511705785 0
0.7190689061972351 0.5713434503991537 0
0.6819792984936711 0.06548347006074751 0
$EndNodes
$Elements
6 504 1 504
1 1 1 10
1 1 6 
2 6 7 
3 7 8 
4 8 9 
5 9 10 
6 10 11 
7 11 12 
8 12 13 
9 13 14 
10 14 2 
1 2 1 10
11 3 15 
12 15 16 
13 16 17 
14 17 18 
15 18 19 
16 19 20 
17 20 21 
18 21 22 
19 22 23 
20 23 1 
1 3 1 10
21 2 24 
22 24 25 
23 25 26 
24 26 27 
25 27 28 
26 28 29 
27 29 30 
28 30 31 
29 31 32 
30 32 4 
1 4 1 10
31 4 33 
32 33 34 
33 34 35 
34 35 36 
35 36 37 
36 37 38 
37 38 39 
38 39 40 
39 40 41 
40 41 3 
2 2 2 133
41 62 107 61 
42 56 95 55 
43 55 95 68 
44 103 107 89 
45 70 100 96 
46 96 100 94 
47 67 107 103 
48 61 107 67 
49 73 102 44 
50 93 94 68 
51 44 102 43 
52 97 105 86 
53 68 95 93 
54 75 107 62 
55 87 112 108 
56 108 112 66 
57 71 105 97 
58 112 116 111 
59 97 117 71 
60 95 117 97 
61 111 116 110 
62 95 97 93 
63 86 89 81 
64 81 89 78 
65 83 90 88 
66 80 90 83 
67 92 93 84 
68 92 96 94 
69 82 92 84 
70 92 94 93 
71 61 67 60 
72 58 71 57 
73 45 73 44 
74 50 74 49 
75 55 68 54 
76 64 72 63 
77 48 66 47 
78 52 70 51 
79 42 69 5 
80 85 96 92 
81 83 88 87 
82 85 92 82 
83 83 87 85 
84 83 85 82 
85 84 86 81 
86 80 83 82 
87 82 84 81 
88 80 82 81 
89 79 91 90 
90 80 81 78 
91 79 90 80 
92 79 80 78 
93 78 89 76 
94 77 79 78 
95 93 97 84 
96 84 97 86 
97 77 78 76 
98 89 107 76 
99 72 77 76 
100 87 98 85 
101 65 99 64 
102 64 99 72 
103 90 101 88 
104 53 100 52 
105 52 100 70 
106 94 114 68 
107 91 106 69 
108 79 106 91 
109 85 98 96 
110 69 118 91 
111 101 102 73 
112 72 99 77 
113 60 104 59 
114 67 104 60 
115 88 112 87 
116 99 106 77 
117 91 118 102 
118 56 117 95 
119 91 101 90 
120 72 76 75 
121 91 102 101 
122 86 103 89 
123 99 115 106 
124 74 120 98 
125 87 108 98 
126 77 106 79 
127 63 75 62 
128 51 109 50 
129 72 75 63 
130 50 109 74 
131 45 110 73 
132 66 111 47 
133 70 109 51 
134 46 110 45 
135 47 111 46 
136 74 113 49 
137 48 113 66 
138 54 114 53 
139 5 115 65 
140 57 117 56 
141 43 118 42 
142 58 119 71 
143 101 116 88 
144 86 105 103 
145 109 120 74 
146 76 107 75 
147 100 114 94 
148 49 113 48 
149 68 114 54 
150 69 115 5 
151 98 108 74 
152 71 117 57 
153 96 120 70 
154 42 118 69 
155 59 119 58 
156 102 118 43 
157 103 104 67 
158 66 113 108 
159 103 105 104 
160 65 115 99 
161 53 114 100 
162 88 116 112 
163 106 115 69 
164 73 116 101 
165 46 111 110 
166 71 119 105 
167 108 113 74 
168 66 112 111 
169 98 120 96 
170 104 119 59 
171 105 119 104 
172 110 116 73 
173 70 120 109 
2 3 2 331
174 7 186 143 
175 185 193 130 
176 220 233 196 
177 196 221 220 
178 191 253 188 
179 155 247 237 
180 8 186 7 
181 130 246 185 
182 155 237 231 
183 191 229 11 
184 211 225 10 
185 195 197 140 
186 188 253 134 
187 11 253 191 
188 147 190 150 
189 197 218 125 
190 186 216 143 
191 134 198 188 
192 176 192 172 
193 146 223 184 
194 184 223 161 
195 8 217 186 
196 212 227 129 
197 125 215 197 
198 189 211 158 
199 146 184 122 
200 140 235 195 
201 121 184 161 
202 158 229 191 
203 151 227 212 
204 144 190 147 
205 237 247 128 
206 194 195 127 
207 127 221 196 
208 209 241 210 
209 36 221 127 
210 172 192 124 
211 177 216 186 
212 23 219 22 
213 127 196 194 
214 181 234 203 
215 27 212 129 
216 190 232 150 
217 126 251 170 
218 193 202 131 
219 208 241 209 
220 123 232 190 
221 10 225 9 
222 134 213 198 
223 164 199 160 
224 58 177 139 
225 130 193 39 
226 160 199 159 
227 219 244 22 
228 192 234 135 
229 176 234 192 
230 29 204 128 
231 185 202 193 
232 213 239 198 
233 210 241 175 
234 197 215 140 
235 210 246 130 
236 195 235 127 
237 54 182 142 
238 220 221 131 
239 174 251 201 
240 9 225 217 
241 234 248 203 
242 201 251 126 
243 25 206 138 
244 9 217 8 
245 21 244 205 
246 182 222 214 
247 175 241 226 
248 7 143 6 
249 136 189 158 
250 200 201 199 
251 17 203 132 
252 153 232 187 
253 200 233 220 
254 38 193 131 
255 13 134 12 
256 201 228 174 
257 17 132 16 
258 157 187 156 
259 125 204 30 
260 129 206 26 
261 157 188 187 
262 187 250 153 
263 38 131 37 
264 211 229 158 
265 209 210 130 
266 132 208 16 
267 202 220 131 
268 40 130 39 
269 29 128 28 
270 27 129 26 
271 18 203 17 
272 36 127 35 
273 218 249 125 
274 203 236 181 
275 57 177 58 
276 31 125 30 
277 121 160 159 
278 40 209 130 
279 177 186 139 
280 44 184 121 
281 13 213 134 
282 39 193 38 
283 121 159 45 
284 144 145 122 
285 122 184 43 
286 30 204 29 
287 42 144 122 
288 123 190 65 
289 164 200 199 
290 46 159 126 
291 53 182 54 
292 207 236 19 
293 26 206 25 
294 159 199 126 
295 170 171 124 
296 126 170 47 
297 5 190 144 
298 25 138 24 
299 196 224 194 
300 48 170 124 
301 124 192 49 
302 34 140 33 
303 16 208 15 
304 205 214 21 
305 128 212 28 
306 50 192 135 
307 28 212 27 
308 154 239 206 
309 203 248 132 
310 41 209 40 
311 31 215 125 
312 64 156 123 
313 127 235 35 
314 204 237 128 
315 12 253 11 
316 14 213 13 
317 214 222 20 
318 206 239 138 
319 231 252 230 
320 1 242 23 
321 163 168 166 
322 156 187 123 
323 32 215 31 
324 37 221 36 
325 182 214 142 
326 22 244 21 
327 200 228 201 
328 154 250 198 
329 147 150 149 
330 138 239 213 
331 157 191 188 
332 135 180 51 
333 136 157 156 
334 175 176 172 
335 131 221 37 
336 175 246 210 
337 150 153 152 
338 34 235 140 
339 153 250 154 
340 181 207 180 
341 3 238 41 
342 163 223 168 
343 136 156 63 
344 186 217 139 
345 15 238 3 
346 168 169 166 
347 18 236 203 
348 44 121 45 
349 145 146 122 
350 135 181 180 
351 121 161 160 
352 42 122 43 
353 64 123 65 
354 6 242 1 
355 162 224 164 
356 23 242 219 
357 167 197 195 
358 167 194 165 
359 46 126 47 
360 62 189 136 
361 48 124 49 
362 198 250 188 
363 21 214 20 
364 19 222 207 
365 43 184 44 
366 144 147 145 
367 5 144 42 
368 45 159 46 
369 151 155 148 
370 65 190 5 
371 188 250 187 
372 199 201 126 
373 47 170 48 
374 178 205 179 
375 19 236 18 
376 50 135 51 
377 49 192 50 
378 206 240 154 
379 171 174 173 
380 20 222 19 
381 171 172 124 
382 150 152 149 
383 167 195 194 
384 56 178 133 
385 2 243 14 
386 24 243 2 
387 132 248 226 
388 52 180 141 
389 165 224 162 
390 4 245 32 
391 33 245 4 
392 155 231 230 
393 166 167 165 
394 163 166 165 
395 153 154 152 
396 169 218 166 
397 162 164 160 
398 174 202 185 
399 134 253 12 
400 145 230 146 
401 137 189 61 
402 142 214 205 
403 167 218 197 
404 178 179 133 
405 137 225 211 
406 166 218 167 
407 63 156 64 
408 142 178 55 
409 147 149 148 
410 161 163 162 
411 56 133 57 
412 62 136 63 
413 161 162 160 
414 174 185 173 
415 147 148 145 
416 139 183 59 
417 148 230 145 
418 163 165 162 
419 217 225 183 
420 61 189 62 
421 51 180 52 
422 173 175 172 
423 171 173 172 
424 149 151 148 
425 137 211 189 
426 180 207 141 
427 60 183 137 
428 136 158 157 
429 125 249 204 
430 52 141 53 
431 58 139 59 
432 10 229 211 
433 54 142 55 
434 129 240 206 
435 194 224 165 
436 133 216 177 
437 220 228 200 
438 55 178 56 
439 161 223 163 
440 142 205 178 
441 60 137 61 
442 132 241 208 
443 174 228 202 
444 139 217 183 
445 143 242 6 
446 187 232 123 
447 179 219 216 
448 198 239 154 
449 183 225 137 
450 179 216 133 
451 158 191 157 
452 59 183 60 
453 212 247 151 
454 181 236 207 
455 133 177 57 
456 150 232 153 
457 175 226 176 
458 196 233 224 
459 155 230 148 
460 209 238 208 
461 11 229 10 
462 208 238 15 
463 152 227 149 
464 149 227 151 
465 202 228 220 
466 168 252 231 
467 179 244 219 
468 14 243 213 
469 141 182 53 
470 35 235 34 
471 41 238 209 
472 168 231 169 
473 32 245 215 
474 171 251 174 
475 138 243 24 
476 216 219 143 
477 140 245 33 
478 128 247 212 
479 213 243 138 
480 205 244 179 
481 164 233 200 
482 141 222 182 
483 173 246 175 
484 215 245 140 
485 223 252 168 
486 135 234 181 
487 224 233 164 
488 207 222 141 
489 152 240 227 
490 154 240 152 
491 185 246 173 
492 146 252 223 
493 151 247 155 
494 170 251 171 
495 237 249 169 
496 169 249 218 
497 219 242 143 
498 231 237 169 
499 226 241 132 
500 227 240 129 
501 204 249 237 
502 226 248 176 
503 230 252 146 
504 176 248 234 
$EndElements
