$MeshFormat
4.1 0 8
$EndMeshFormat
$PhysicalNames
3
1 101 "outer_boundary"
2 1 "material_1"
2 2 "material_2"
$EndPhysicalNames
$Entities
5 5 2 0
1 0 0 0 0 
2 1 0 0 0 
3 0 1 0 0 
4 1 1 0 0 
5 0.7836636615678778 0.5985295426833173 0 0 
1 -9.999999994736442e-08 -1e-07 -1e-07 1.0000001 1e-07 1e-07 1 101 2 1 -2 
2 -1e-07 -9.999999994736442e-08 -1e-07 1e-07 1.0000001 1e-07 1 101 2 3 -1 
3 0.9999999000000001 -9.999999994736442e-08 -1e-07 1.0000001 1.0000001 1e-07 1 101 2 2 -4 
4 -9.999999994736442e-08 0.9999999000000001 -1e-07 1.0000001 1.0000001 1e-07 1 101 2 4 -3 
5 0.5386063684643593 0.476000846131558 -1e-07 0.7836637615678778 0.7210582392350765 1e-07 0 2 5 -5 
2 0.5386063684643593 0.476000846131558 -1e-07 0.7836637615678778 0.7210582392350765 1e-07 1 2 1 5 
3 -9.999999994736442e-08 -9.999999994736442e-08 -1e-07 1.0000001 1.0000001 1e-07 1 1 5 1 3 4 2 -5 
$EndEntities
$Nodes
12 145 1 145
0 1 0 1
1
0 0 0
0 2 0 1
2
1 0 0
0 3 0 1
3
0 1 0
0 4 0 1
4
1 1 0
0 5 0 1
5
0.7836636615678778 0.5985295426833173 0
1 1 0 7
6
7
8
9
10
11
12
0.1249999999999999 0 0
0.2499999999999998 0 0
0.3749999999999993 0 0
0.4999999999999988 0 0
0.6249999999999988 0 0
0.7499999999999991 0 0
0.8749999999999997 0 0
1 2 0 7
13
14
15
16
17
18
19
0 0.8750000000000001 0
0 0.7500000000000002 0
0 0.6250000000000007 0
0 0.5000000000000012 0
0 0.3750000000000012 0
0 0.2500000000000009 0
0 0.1250000000000003 0
1 3 0 7
20
21
22
23
24
25
26
1 0.1249999999999999 0
1 0.2499999999999998 0
1 0.3749999999999993 0
1 0.4999999999999988 0
1 0.6249999999999988 0
1 0.7499999999999991 0
1 0.8749999999999997 0
1 4 0 7
27
28
29
30
31
32
33
0.8750000000000001 1 0
0.7500000000000002 1 0
0.6250000000000007 1 0
0.5000000000000012 1 0
0.3750000000000012 1 0
0.2500000000000009 1 0
0.1250000000000003 1 0
1 5 0 10
34
35
36
37
38
39
40
41
42
43
0.7642126797381326 0.6647735032847474 0
0.7120352835457707 0.7099854744526827 0
0.6436974276140026 0.7198109747938267 0
0.5808958983489479 0.6911304773735342 0
0.5435697375578601 0.6330498374760366 0
0.54356973755786 0.5640092478905984 0
0.5808958983489476 0.5059286079931007 0
0.6436974276140022 0.4772481105728079 0
0.7120352835457703 0.4870736109139517 0
0.7642126797381323 0.5322855820818868 0
2 2 0 8
44
45
46
47
48
49
50
51
0.6693015085195702 0.6630893263360813 0
0.6347649650627043 0.5442190373124941 0
0.7225489619609177 0.5804967955057375 0
0.595742576769353 0.5828438170391449 0
0.6615985798698667 0.5992049412965507 0
0.6158009547799335 0.648188229052529 0
0.6898096496318989 0.5367546796139048 0
0.719119709349331 0.6357940108712575 0
2 3 0 94
52
53
54
55
56
57
58
59
60
61
62
63
64
65
66
67
68
69
70
71
72
73
74
75
76
77
78
79
80
81
82
83
84
85
86
87
88
89
90
91
92
93
94
95
96
97
98
99
100
101
102
103
104
105
106
107
108
109
110
111
112
113
114
115
116
117
118
119
120
121
122
123
124
125
126
127
128
129
130
131
132
133
134
135
136
137
138
139
140
141
142
143
144
145
0.5067043919129997 0.5158390755771929 0
0.685346737000804 0.4198533108230931 0
0.1110197841164581 0.3091883695132351 0
0.1111546238393437 0.6997176045038165 0
0.5008600112999679 0.6834294752850645 0
0.441219572011351 0.1069064519575443 0
0.4837788330846151 0.5985295426833176 0
0.4337300045962531 0.5317573923157952 0
0.4506861991880335 0.4535966379768391 0
0.428800292529069 0.6657133698788369 0
0.3666703568056928 0.480295411307673 0
0.7683351111126639 0.4482788225621869 0
0.7326719440960381 0.3595410985072567 0
0.6518333990208389 0.3509707832959 0
0.6018799035720815 0.7685176387798934 0
0.3863523950230121 0.3921705096648412 0
0.6868572416945741 0.7692112367629216 0
0.7702027174215045 0.745288909050786 0
0.698267021736742 0.2767195870173254 0
0.4447440522943127 0.7476732087307192 0
0.3680140945225054 0.7235533945073919 0
0.6077437172507481 0.2734296393052216 0
0.2970437654250108 0.4196722530205101 0
0.3155684388750918 0.3248716798745702 0
0.2794738724500438 0.5144111209534918 0
0.8801949435168483 0.1932485870027771 0
0.4108333126879289 0.296809586211594 0
0.1875000000000006 0.8917468245269449 0
0.1901498007261229 0.09339370573774158 0
0.5401845230036439 0.4391423562633441 0
0.7497457673324048 0.8305275879005757 0
0.8508589888472489 0.639459141733785 0
0.8209115819740092 0.3727388926356556 0
0.8443038586047238 0.4533604187075168 0
0.2059171754699707 0.4507842601873112 0
0.6553631256869743 0.1879245688583757 0
0.3824745041670065 0.8112530525807883 0
0.3372655017500154 0.2263970910013489 0
0.8586695684381691 0.5748365379003729 0
0.6368809429216066 0.8377417938294947 0
0.4784967979701327 0.8416017344122511 0
0.1918657605295295 0.5463921574021789 0
0.2724100285038643 0.614958322483365 0
0.8627134021358402 0.7814658819676159 0
0.2843384576474022 0.782655614130818 0
0.5361312809380201 0.1883810394398708 0
0.2245393383233809 0.263367193514002 0
0.4777390814052213 0.3705773809329472 0
0.7558040558150938 0.1903193829549353 0
0.3175126827578788 0.1073889616641867 0
0.3138388522298811 0.8986754209605177 0
0.5076288258518444 0.2831670271834619 0
0.1792757495312 0.7816871513812602 0
0.1243367325992421 0.1859655723869348 0
0.8997455030621224 0.2986458823836623 0
0.8352508301638979 0.8989418654078611 0
0.3545392949302014 0.5643221148779468 0
0.8124999999999993 0.09687904026317606 0
0.0994888913002312 0.4223198145206985 0
0.208929565585024 0.3650339284383878 0
0.4387892247970908 0.2077352781577289 0
0.4064870525431267 0.8940805722596543 0
0.5683161835040752 0.3578760401843236 0
0.6935278635836772 0.09249540418076341 0
0.5667524924295843 0.9059155482276611 0
0.797932508366809 0.2818689050836021 0
0.234534557119127 0.7032280303565993 0
0.9227225686677367 0.6874999999999989 0
0.6812524238555148 0.9115538394629862 0
0.08960397708630469 0.5614759952761292 0
0.6117123614153853 0.4251698681887615 0
0.913057399278949 0.4191872715375359 0
0.5715764097880973 0.09135072662571159 0
0.5220697695537956 0.7622860928404331 0
0.0914226778243607 0.821257647806067 0
0.3569649314959699 0.6423921504983066 0
0.5599441574258106 0.8234795551415262 0
0.9090262124722247 0.0924287778449171 0
0.4148827633262117 0.5980273112914108 0
0.1843218888034859 0.6307961703261098 0
0.09150635094610948 0.09150635094610954 0
0.9207378970371144 0.8489914050752605 0
0.8341420713620926 0.7036974872073867 0
0.8285151883547026 0.5174382836579732 0
0.8960069200811553 0.5091533848181856 0
0.2493983506332018 0.1708650065995437 0
0.4826251083486117 0.9188726533447145 0
0.9356597597994332 0.9356597597994329 0
0.07787629499651438 0.9209704407402532 0
0.1467189510965091 0.4952430568465794 0
0.9213763410057183 0.58932484407539 0
0.3031715665107517 0.6892306786963087 0
0.3811736954211416 0.1609904998606664 0
0.7540622553379543 0.9102558231928557 0
$EndNodes
$Elements
6 288 1 288
1 1 1 8
1 1 6 
2 6 7 
3 7 8 
4 8 9 
5 9 10 
6 10 11 
7 11 12 
8 12 2 
1 2 1 8
9 3 13 
10 13 14 
11 14 15 
12 15 16 
13 16 17 
14 17 18 
15 18 19 
16 19 1 
1 3 1 8
17 2 20 
18 20 21 
19 21 22 
20 22 23 
21 23 24 
22 24 25 
23 25 26 
24 26 4 
1 4 1 8
25 4 27 
26 27 28 
27 28 29 
28 29 30 
29 30 31 
30 31 32 
31 32 33 
32 33 3 
2 2 2 25
33 45 47 40 
34 40 47 39 
35 41 45 40 
36 5 46 43 
37 36 44 35 
38 37 49 36 
39 36 49 44 
40 34 51 5 
41 5 51 46 
42 44 51 35 
43 43 50 42 
44 41 50 45 
45 46 50 43 
46 35 51 34 
47 42 50 41 
48 38 49 37 
49 39 47 38 
50 47 49 38 
51 46 51 48 
52 48 50 46 
53 48 51 44 
54 45 50 48 
55 45 48 47 
56 48 49 47 
57 44 49 48 
2 3 2 231
58 82 120 91 
59 77 117 100 
60 63 135 43 
61 106 117 77 
62 95 119 25 
63 87 124 115 
64 40 122 41 
65 55 126 14 
66 42 63 43 
67 54 105 98 
68 104 126 55 
69 23 136 123 
70 25 133 95 
71 39 58 52 
72 105 137 98 
73 97 124 87 
74 96 102 79 
75 56 58 38 
76 79 104 96 
77 58 59 52 
78 54 111 110 
79 95 134 119 
80 97 112 57 
81 57 124 97 
82 36 68 66 
83 110 111 86 
84 56 61 58 
85 81 122 40 
86 98 111 54 
87 23 123 22 
88 78 99 67 
89 123 136 85 
90 35 69 68 
91 100 109 77 
92 110 141 121 
93 80 137 105 
94 82 145 120 
95 37 125 56 
96 60 81 52 
97 85 135 63 
98 115 124 10 
99 60 99 81 
100 32 102 31 
101 66 125 37 
102 91 120 116 
103 68 91 66 
104 73 114 103 
105 43 135 5 
106 28 107 27 
107 90 142 83 
108 110 121 16 
109 28 145 107 
110 78 103 99 
111 67 99 60 
112 83 142 119 
113 79 102 32 
114 69 82 68 
115 121 131 55 
116 103 112 97 
117 7 101 80 
118 103 114 99 
119 84 117 106 
120 15 55 14 
121 9 57 8 
122 18 54 17 
123 57 101 8 
124 21 77 20 
125 59 108 62 
126 83 134 34 
127 55 118 104 
128 34 134 69 
129 15 121 55 
130 73 103 97 
131 33 79 32 
132 7 80 6 
133 8 101 7 
134 113 138 31 
135 9 124 57 
136 22 106 21 
137 18 105 54 
138 55 131 118 
139 62 108 76 
140 92 128 116 
141 14 126 13 
142 21 106 77 
143 76 94 93 
144 19 105 18 
145 59 60 52 
146 17 110 16 
147 65 114 73 
148 102 113 31 
149 31 138 30 
150 93 131 121 
151 100 115 109 
152 11 115 10 
153 76 108 94 
154 56 71 61 
155 54 110 17 
156 116 120 29 
157 87 115 100 
158 5 135 90 
159 75 78 67 
160 62 76 74 
161 39 52 40 
162 26 133 25 
163 12 109 11 
164 41 53 42 
165 2 129 12 
166 89 112 78 
167 20 129 2 
168 75 98 89 
169 76 93 86 
170 75 89 78 
171 6 132 1 
172 1 132 19 
173 22 123 106 
174 73 97 87 
175 62 74 67 
176 37 56 38 
177 71 92 88 
178 59 62 60 
179 76 86 74 
180 38 58 39 
181 87 100 70 
182 74 75 67 
183 65 73 70 
184 99 114 81 
185 62 67 60 
186 36 66 37 
187 101 144 89 
188 84 85 63 
189 73 87 70 
190 78 112 103 
191 53 65 64 
192 101 137 80 
193 116 138 92 
194 88 102 96 
195 104 118 96 
196 88 96 72 
197 71 72 61 
198 35 68 36 
199 89 137 101 
200 30 116 29 
201 52 81 40 
202 29 120 28 
203 108 127 94 
204 75 111 98 
205 25 119 24 
206 33 140 79 
207 71 88 72 
208 5 83 34 
209 69 95 82 
210 65 70 64 
211 53 63 42 
212 74 111 75 
213 86 111 74 
214 106 123 84 
215 16 121 15 
216 34 69 35 
217 116 128 91 
218 53 64 63 
219 57 144 101 
220 95 107 82 
221 59 130 108 
222 24 142 23 
223 71 125 92 
224 109 115 11 
225 100 117 70 
226 41 122 53 
227 10 124 9 
228 64 84 63 
229 92 113 88 
230 77 129 20 
231 61 130 58 
232 119 134 83 
233 109 129 77 
234 88 113 102 
235 58 130 59 
236 19 132 105 
237 53 122 65 
238 107 139 27 
239 79 126 104 
240 96 143 72 
241 70 117 64 
242 80 132 6 
243 5 90 83 
244 114 122 81 
245 79 140 126 
246 98 137 89 
247 105 132 80 
248 56 125 71 
249 64 117 84 
250 86 141 110 
251 3 140 33 
252 13 140 3 
253 84 123 85 
254 127 143 94 
255 121 141 93 
256 72 127 61 
257 94 131 93 
258 4 139 26 
259 27 139 4 
260 23 142 136 
261 12 129 109 
262 85 136 135 
263 91 128 66 
264 118 143 96 
265 89 144 112 
266 65 122 114 
267 125 128 92 
268 120 145 28 
269 133 139 107 
270 118 131 94 
271 135 136 90 
272 95 133 107 
273 69 134 95 
274 94 143 118 
275 127 130 61 
276 107 145 82 
277 119 142 24 
278 93 141 86 
279 66 128 125 
280 92 138 113 
281 108 130 127 
282 30 138 116 
283 136 142 90 
284 112 144 57 
285 126 140 13 
286 72 143 127 
287 26 139 133 
288 82 91 68 
$EndElements
