$MeshFormat
4.1 0 8
$EndMeshFormat
$PhysicalNames
3
1 101 "outer_boundary"
2 1 "material_1"
2 2 "material_2"
$EndPhysicalNames
$Entities
8 8 2 0
1 0 0 0 0 
2 1 0 0 0 
3 0 1 0 0 
4 1 1 0 0 
5 0.4565658206126696 0.3590285018281719 0 0 
6 0.3127299604088138 0.4733026265588287 0 0 
7 0.198455835678157 0.3294667663549728 0 0 
8 0.3422916958820129 0.215192641624316 0 0 
1 -9.999999994736442e-08 -1e-07 -1e-07 1.0000001 1e-07 1e-07 1 101 2 1 -2 
2 -1e-07 -9.999999994736442e-08 -1e-07 1e-07 1.0000001 1e-07 1 101 2 3 -1 
3 0.9999999000000001 -9.999999994736442e-08 -1e-07 1.0000001 1.0000001 1e-07 1 101 2 2 -4 
4 -9.999999994736442e-08 0.9999999000000001 -1e-07 1.0000001 1.0000001 1e-07 1 101 2 4 -3 
5 0.3127298604088138 0.3590284018281719 -1e-07 0.4565659206126697 0.4733027265588287 1e-07 0 2 5 -6 
6 0.198455735678157 0.3294666663549728 -1e-07 0.3127300604088138 0.4733027265588287 1e-07 0 2 6 -7 
7 0.198455735678157 0.215192541624316 -1e-07 0.3422917958820129 0.3294668663549728 1e-07 0 2 7 -8 
8 0.3422915958820129 0.215192541624316 -1e-07 0.4565659206126697 0.3590286018281719 1e-07 0 2 8 -5 
2 0.198455735678157 0.215192541624316 -1e-07 0.4565659206126697 0.4733027265588287 1e-07 1 2 4 5 6 7 8 
3 -9.999999994736442e-08 -9.999999994736442e-08 -1e-07 1.0000001 1.0000001 1e-07 1 1 8 1 3 4 2 -5 -8 -7 -6 
$EndEntities
$Nodes
18 151 1 151
0 1 0 1
1
0 0 0
0 2 0 1
2
1 0 0
0 3 0 1
3
0 1 0
0 4 0 1
4
1 1 0
0 5 0 1
5
0.4565658206126696 0.3590285018281719 0
0 6 0 1
6
0.3127299604088138 0.4733026265588287 0
0 7 0 1
7
0.198455835678157 0.3294667663549728 0
0 8 0 1
8
0.3422916958820129 0.215192641624316 0
1 1 0 7
9
10
11
12
13
14
15
0.1249999999999999 0 0
0.2499999999999998 0 0
0.3749999999999993 0 0
0.4999999999999988 0 0
0.6249999999999988 0 0
0.7499999999999991 0 0
0.8749999999999997 0 0
1 2 0 7
16
17
18
19
20
21
22
0 0.8750000000000001 0
0 0.7500000000000002 0
0 0.6250000000000007 0
0 0.5000000000000012 0
0 0.3750000000000012 0
0 0.2500000000000009 0
0 0.1250000000000003 0
1 3 0 7
23
24
25
26
27
28
29
1 0.1249999999999999 0
1 0.2499999999999998 0
1 0.3749999999999993 0
1 0.4999999999999988 0
1 0.6249999999999988 0
1 0.7499999999999991 0
1 0.8749999999999997 0
1 4 0 7
30
31
32
33
34
35
36
0.8750000000000001 1 0
0.7500000000000002 1 0
0.6250000000000007 1 0
0.5000000000000012 1 0
0.3750000000000012 1 0
0.2500000000000009 1 0
0.1250000000000003 1 0
1 5 0 2
37
38
0.4086205338780511 0.3971198767383908 0
0.3606752471434326 0.4352112516486096 0
1 6 0 2
39
40
0.2746385854985949 0.4253573398242101 0
0.2365472105883761 0.3774120530895916 0
1 7 0 2
41
42
0.2464011224127755 0.2913753914447539 0
0.294346409147394 0.2532840165345351 0
1 8 0 2
43
44
0.3803830707922318 0.2631379283589346 0
0.4184744457024506 0.311083215093553 0
2 2 0 8
45
46
47
48
49
50
51
52
0.3506172464349755 0.3733314845147789 0
0.3043501332139081 0.3150954661249041 0
0.2911745854316308 0.3730973301143398 0
0.3638289786452149 0.3153751655543176 0
0.3940206723385662 0.3518651093353158 0
0.2610009839522604 0.3366301588478288 0
0.3198933529016698 0.4107574782847254 0
0.3351283033891568 0.2777377898984192 0
2 3 0 99
53
54
55
56
57
58
59
60
61
62
63
64
65
66
67
68
69
70
71
72
73
74
75
76
77
78
79
80
81
82
83
84
85
86
87
88
89
90
91
92
93
94
95
96
97
98
99
100
101
102
103
104
105
106
107
108
109
110
111
112
113
114
115
116
117
118
119
120
121
122
123
124
125
126
127
128
129
130
131
132
133
134
135
136
137
138
139
140
141
142
143
144
145
146
147
148
149
150
151
0.4668483603266126 0.4221099257675195 0
0.5143111044061039 0.3787848778799795 0
0.5274922597286299 0.4490541646636858 0
0.6831945223032441 0.8976252951111305 0
0.4451920464600798 0.8995396297970073 0
0.5841311703846891 0.4042032332259892 0
0.5964186304533712 0.4791490291599746 0
0.5383031129505736 0.5245215320765829 0
0.6085395961574503 0.5597981330051887 0
0.09875194776064533 0.6751487078449085 0
0.5666936548602304 0.3269154407047541 0
0.647176988960608 0.3548859394406958 0
0.6750944329688885 0.512157185372153 0
0.4541485231700992 0.24774036792066 0
0.6908281159778329 0.598644642094718 0
0.2482197665958891 0.4912212378777788 0
0.300564709292641 0.5354025753829704 0
0.5388540064213013 0.6094119928216635 0
0.2355654713658188 0.2338227863481463 0
0.631413325110441 0.2709046754232964 0
0.71811998484457 0.2996875017412234 0
0.3625333306445546 0.502593270819635 0
0.3673791854817341 0.5761139585083452 0
0.2906349413267755 0.6113421438975363 0
0.3692568631437083 0.6551077658051431 0
0.283070628773253 0.6979192637725318 0
0.1750344173582797 0.3868712739489349 0
0.7659582819381708 0.5431500509819035 0
0.7807698838968303 0.6380646169258622 0
0.2238110790279946 0.563856055847802 0
0.1739535353088949 0.5073385643481243 0
0.8035142967879352 0.1144589601946984 0
0.1838023144966596 0.9046824337707812 0
0.8781631285837014 0.804899807111833 0
0.7116337713192071 0.6884273815284048 0
0.5538045192832032 0.09414499393095654 0
0.3591044691361528 0.7289460244813373 0
0.8943496626658861 0.3086278877965147 0
0.7342923568455353 0.3927341925504156 0
0.1313119851783104 0.3358872674272401 0
0.08793665828527852 0.1981913679223942 0
0.4520522297087514 0.7113344616597053 0
0.7055287306675599 0.2010962837483947 0
0.4275891725250091 0.5366085297807742 0
0.5386823348599642 0.2520682529604641 0
0.1660714406231473 0.2627881741691721 0
0.3150261906743083 0.09078375402947858 0
0.4247360105670773 0.1006143744487449 0
0.2980552050519868 0.7812866959354562 0
0.8652046862493799 0.5777344150987382 0
0.8195084998778147 0.4614956412833605 0
0.2108777585459818 0.09198487213075801 0
0.5606138661322584 0.8983491426445621 0
0.5068164721455884 0.8043986866575131 0
0.6143257182926529 0.805822224545849 0
0.8040517837352392 0.2407402817108711 0
0.8876893737649083 0.6868436748180589 0
0.1382465026125248 0.5853169652143597 0
0.09773533227780429 0.4127943534951989 0
0.1116428514697723 0.8095765827000336 0
0.5516998436102079 0.7093922785837747 0
0.3110062412870279 0.8872706216633097 0
0.9013426539656786 0.188162450834284 0
0.807436066979365 0.9015800508026166 0
0.1984024902750203 0.7377991345622545 0
0.7322398770051026 0.7927916075080219 0
0.41699754152302 0.4639937090451709 0
0.6749837323754898 0.09902741728363357 0
0.2791760802264161 0.1786789349276772 0
0.5988590552233268 0.1829264385182554 0
0.491479313935253 0.3126034427312638 0
0.4946683481956801 0.1777688080534702 0
0.410730065734055 0.1864766816836047 0
0.6175135945476766 0.6442069831546824 0
0.2140710617395769 0.4343727947942275 0
0.4521758329788743 0.6159654522453193 0
0.6626810778613743 0.4352230243499591 0
0.4769319272771022 0.4927731769978326 0
0.2054862649627023 0.6452303785232321 0
0.8137040374131639 0.3509793045159335 0
0.1013132693115822 0.09846637823364057 0
0.1034804993830126 0.5032252662677525 0
0.07876381240345753 0.2751516103380061 0
0.3543920086167739 0.1543492773427642 0
0.1840651990382329 0.1756220293486908 0
0.4012528693627118 0.8042276633959504 0
0.9097229829175881 0.08846270172569615 0
0.8019985438595389 0.7253632097719223 0
0.09150635094610998 0.9084936490538902 0
0.9075178415224135 0.4178191997205332 0
0.9084936490538902 0.90849364905389 0
0.1528549692135137 0.4489204505708476 0
0.7315069298983568 0.4689520189075583 0
0.06809578995123661 0.5777381878654045 0
0.4849883796819154 0.5591810986465914 0
0.4986954781797837 0.6615260463276157 0
0.2090368568099703 0.8159121536684009 0
0.9175448491776168 0.5108123647273919 0
0.6454825609549695 0.7281280950641466 0
$EndNodes
$Elements
6 300 1 300
1 1 1 8
1 1 9 
2 9 10 
3 10 11 
4 11 12 
5 12 13 
6 13 14 
7 14 15 
8 15 2 
1 2 1 8
9 3 16 
10 16 17 
11 17 18 
12 18 19 
13 19 20 
14 20 21 
15 21 22 
16 22 1 
1 3 1 8
17 2 23 
18 23 24 
19 24 25 
20 25 26 
21 26 27 
22 27 28 
23 28 29 
24 29 4 
1 4 1 8
25 4 30 
26 30 31 
27 31 32 
28 32 33 
29 33 34 
30 34 35 
31 35 36 
32 36 3 
2 2 2 26
33 46 48 45 
34 45 47 46 
35 42 46 41 
36 38 45 37 
37 44 48 43 
38 40 47 39 
39 7 50 40 
40 37 49 5 
41 5 49 44 
42 6 51 38 
43 39 51 6 
44 41 50 7 
45 8 52 42 
46 43 52 8 
47 38 51 45 
48 46 50 41 
49 45 49 37 
50 42 52 46 
51 48 49 45 
52 46 52 48 
53 45 51 47 
54 47 50 46 
55 44 49 48 
56 48 52 43 
57 47 51 39 
58 40 50 47 
2 3 2 242
59 99 121 104 
60 95 120 84 
61 75 128 77 
62 96 128 75 
63 84 108 95 
64 91 132 103 
65 121 137 104 
66 92 111 20 
67 97 123 66 
68 20 135 92 
69 101 138 114 
70 54 123 63 
71 107 151 118 
72 88 124 100 
73 118 151 87 
74 88 100 12 
75 7 98 41 
76 89 138 101 
77 103 145 91 
78 41 98 71 
79 8 125 43 
80 94 148 113 
81 107 118 56 
82 6 74 69 
83 94 113 106 
84 111 134 19 
85 5 123 54 
86 63 123 97 
87 97 124 122 
88 71 137 121 
89 27 109 102 
90 132 142 103 
91 66 124 97 
92 84 120 14 
93 69 82 68 
94 74 75 69 
95 102 150 27 
96 114 149 101 
97 78 131 76 
98 86 109 28 
99 106 138 94 
100 105 107 56 
101 85 149 114 
102 20 111 19 
103 28 109 27 
104 85 114 35 
105 82 83 68 
106 32 105 56 
107 118 140 86 
108 98 137 71 
109 116 118 86 
110 22 93 21 
111 76 131 82 
112 108 115 90 
113 43 125 66 
114 84 115 108 
115 57 106 105 
116 11 100 99 
117 74 119 96 
118 94 138 89 
119 11 99 10 
120 18 62 17 
121 1 133 22 
122 62 146 110 
123 122 124 88 
124 99 104 10 
125 57 105 33 
126 77 128 94 
127 90 115 24 
128 119 130 96 
129 34 57 33 
130 13 88 12 
131 100 136 99 
132 62 112 17 
133 106 107 105 
134 12 100 11 
135 32 56 31 
136 25 90 24 
137 114 138 57 
138 15 84 14 
139 9 133 1 
140 33 105 32 
141 62 117 112 
142 36 85 35 
143 10 104 9 
144 106 113 107 
145 86 140 109 
146 29 86 28 
147 34 114 57 
148 18 146 62 
149 56 116 31 
150 27 150 26 
151 35 114 34 
152 17 112 16 
153 83 127 68 
154 14 120 13 
155 93 137 98 
156 31 116 30 
157 99 136 121 
158 22 133 93 
159 93 135 21 
160 74 96 75 
161 21 135 20 
162 13 120 88 
163 24 115 23 
164 90 142 132 
165 56 118 116 
166 81 87 67 
167 77 94 89 
168 117 131 78 
169 63 97 72 
170 70 126 113 
171 26 142 25 
172 80 103 102 
173 121 136 8 
174 66 125 124 
175 5 53 37 
176 23 139 2 
177 133 137 93 
178 90 132 108 
179 110 134 83 
180 37 119 38 
181 2 139 15 
182 59 60 55 
183 124 125 100 
184 3 141 36 
185 16 141 3 
186 61 70 60 
187 73 91 64 
188 4 143 29 
189 30 143 4 
190 6 68 39 
191 101 117 78 
192 102 109 81 
193 80 102 81 
194 95 122 120 
195 38 74 6 
196 75 76 69 
197 80 81 67 
198 76 82 69 
199 53 130 119 
200 55 130 53 
201 26 150 142 
202 5 54 53 
203 98 135 93 
204 87 126 67 
205 95 108 73 
206 77 89 78 
207 59 61 60 
208 72 95 73 
209 113 148 70 
210 44 123 5 
211 104 133 9 
212 59 65 61 
213 110 131 62 
214 41 71 42 
215 104 137 133 
216 65 80 67 
217 54 55 53 
218 54 58 55 
219 87 140 118 
220 6 69 68 
221 89 101 78 
222 80 145 103 
223 43 66 44 
224 54 63 58 
225 75 77 76 
226 65 67 61 
227 39 127 40 
228 58 59 55 
229 97 122 72 
230 53 119 37 
231 72 73 64 
232 77 78 76 
233 82 110 83 
234 57 138 106 
235 42 121 8 
236 120 122 88 
237 81 140 87 
238 8 136 125 
239 63 72 64 
240 63 64 58 
241 61 126 70 
242 91 129 64 
243 92 98 7 
244 60 130 55 
245 38 119 74 
246 40 79 7 
247 117 149 112 
248 108 132 73 
249 72 122 95 
250 82 131 110 
251 67 126 61 
252 25 142 90 
253 112 141 16 
254 62 131 117 
255 15 139 84 
256 116 143 30 
257 112 149 85 
258 73 132 91 
259 36 141 85 
260 68 127 39 
261 85 141 112 
262 19 146 18 
263 59 129 65 
264 29 143 86 
265 66 123 44 
266 79 92 7 
267 58 129 59 
268 91 145 129 
269 64 129 58 
270 125 136 100 
271 129 145 65 
272 86 143 116 
273 71 121 42 
274 84 139 115 
275 70 147 60 
276 83 144 127 
277 110 146 134 
278 109 140 81 
279 115 139 23 
280 40 127 79 
281 79 111 92 
282 92 135 98 
283 130 147 96 
284 113 151 107 
285 134 144 83 
286 87 151 126 
287 65 145 80 
288 142 150 103 
289 103 150 102 
290 96 147 128 
291 128 147 70 
292 126 151 113 
293 60 147 130 
294 101 149 117 
295 111 144 134 
296 79 144 111 
297 70 148 128 
298 127 144 79 
299 128 148 94 
300 134 146 19 
$EndElements
