$MeshFormat
4.1 0 8
$EndMeshFormat
$PhysicalNames
3
1 101 "outer_boundary"
2 1 "material_1"
2 2 "material_2"
$EndPhysicalNames
$Entities
5 5 2 0
1 0 0 0 0 
2 1 0 0 0 
3 0 1 0 0 
4 1 1 0 0 
5 0.7561116925813528 0.2713486594729934 0 0 
1 -9.999999994736442e-08 -1e-07 -1e-07 1.0000001 1e-07 1e-07 1 101 2 1 -2 
2 -1e-07 -9.999999994736442e-08 -1e-07 1e-07 1.0000001 1e-07 1 101 2 3 -1 
3 0.9999999000000001 -9.999999994736442e-08 -1e-07 1.0000001 1.0000001 1e-07 1 101 2 2 -4 
4 -9.999999994736442e-08 0.9999999000000001 -1e-07 1.0000001 1.0000001 1e-07 1 101 2 4 -3 
5 0.4349818626111847 0.1107836944879093 -1e-07 0.7561117925813527 0.4319136244580774 1e-07 0 2 5 -5 
2 0.4349818626111847 0.1107836944879093 -1e-07 0.7561117925813527 0.4319136244580774 1e-07 1 2 1 5 
3 -9.999999994736442e-08 -9.999999994736442e-08 -1e-07 1.0000001 1.0000001 1e-07 1 1 5 1 3 4 2 -5 
$EndEntities
$Nodes
12 162 1 162
0 1 0 1
1
0 0 0
0 2 0 1
2
1 0 0
0 3 0 1
3
0 1 0
0 4 0 1
4
1 1 0
0 5 0 1
5
0.7561116925813528 0.2713486594729934 0
1 1 0 7
6
7
8
9
10
11
12
0.1249999999999999 0 0
0.2499999999999998 0 0
0.3749999999999993 0 0
0.4999999999999988 0 0
0.6249999999999988 0 0
0.7499999999999991 0 0
0.8749999999999997 0 0
1 2 0 7
13
14
15
16
17
18
19
0 0.8750000000000001 0
0 0.7500000000000002 0
0 0.6250000000000007 0
0 0.5000000000000012 0
0 0.3750000000000012 0
0 0.2500000000000009 0
0 0.1250000000000003 0
1 3 0 7
20
21
22
23
24
25
26
1 0.1249999999999999 0
1 0.2499999999999998 0
1 0.3749999999999993 0
1 0.4999999999999988 0
1 0.6249999999999988 0
1 0.7499999999999991 0
1 0.8749999999999997 0
1 4 0 7
27
28
29
30
31
32
33
0.8750000000000001 1 0
0.7500000000000002 1 0
0.6250000000000007 1 0
0.5000000000000012 1 0
0.3750000000000012 1 0
0.2500000000000009 1 0
0.1250000000000003 1 0
1 5 0 14
34
35
36
37
38
39
40
41
42
43
44
45
46
47
0.7422301306603897 0.3366562736529457 0
0.702985693063666 0.3906716080401352 0
0.645164099576178 0.4240549206051092 0
0.5787632290045989 0.4310339333275099 0
0.515264395103726 0.4104019115052941 0
0.4656471231238162 0.3657263191475569 0
0.4384906901489611 0.3047319720379661 0
0.4384906901489617 0.2379653469080177 0
0.4656471231238177 0.1769709997984276 0
0.515264395103728 0.1322954074406913 0
0.5787632290046009 0.1116633856184766 0
0.6451640995761796 0.118642398340878 0
0.7029856930636667 0.1520257109058522 0
0.7422301306603899 0.2060410452930415 0
2 2 0 21
48
49
50
51
52
53
54
55
56
57
58
59
60
61
62
63
64
65
66
67
68
0.6056925274104644 0.1706334585365847 0
0.5656336555925447 0.3662317560745884 0
0.6894397095075979 0.2840091334708338 0
0.5032290925127374 0.2297774927830521 0
0.678627384194923 0.2176493612087141 0
0.4994442465864484 0.3121356720944353 0
0.6535153318926717 0.3723023108672665 0
0.7166022292360659 0.2447620498613957 0
0.6276630064442542 0.2645221549230859 0
0.5152643951037262 0.3605113337201398 0
0.5705170094816709 0.2991470887149639 0
0.5168872191968366 0.1823728716101163 0
0.5676381478909914 0.2238882296627931 0
0.6296385352077547 0.3312507587387481 0
0.5584709028751549 0.1572406963332688 0
0.6145429702547497 0.3849747359226444 0
0.4755666148700762 0.2713486594729922 0
0.6861478739561485 0.3426618004186651 0
0.6542432614276439 0.1701978936138466 0
0.62721325912238 0.2136271192507019 0
0.5271487159118404 0.2692623171631226 0
2 3 0 94
69
70
71
72
73
74
75
76
77
78
79
80
81
82
83
84
85
86
87
88
89
90
91
92
93
94
95
96
97
98
99
100
101
102
103
104
105
106
107
108
109
110
111
112
113
114
115
116
117
118
119
120
121
122
123
124
125
126
127
128
129
130
131
132
133
134
135
136
137
138
139
140
141
142
143
144
145
146
147
148
149
150
151
152
153
154
155
156
157
158
159
160
161
162
0.5283847083779807 0.4769064256143988 0
0.0996403519078688 0.6770986911713708 0
0.3887309534853763 0.3505184260816845 0
0.6749420171942326 0.8854389263819502 0
0.7110315073801184 0.4533366778388643 0
0.438939444124537 0.9100960572472413 0
0.09726424907212977 0.4227824708042996 0
0.910548224866776 0.6892968958025373 0
0.3981674991278977 0.1787854144686738 0
0.1085519916733856 0.1826540700782238 0
0.4639789757916855 0.4528312165233658 0
0.4771646152429066 0.5301896080954651 0
0.5532037904997066 0.5526919750891789 0
0.4016983037116233 0.5052666215442725 0
0.4184439964006787 0.5889456616981807 0
0.3357361391420064 0.5597355771967789 0
0.3544764374331638 0.6506991779970315 0
0.4431015754271568 0.6787528304085084 0
0.3252833528545216 0.478996448778939 0
0.7724238944911652 0.3965417758443543 0
0.781024087266659 0.4773420252791535 0
0.7245316151252005 0.5358990002032544 0
0.8052533659410598 0.3111410608428816 0
0.3818524719844055 0.2707493386856369 0
0.3182060519758645 0.3121028182626501 0
0.320294024889164 0.2209658032856056 0
0.8036979745960917 0.2267877322186974 0
0.7698154512636901 0.1463989568860429 0
0.1951406261980924 0.8914989428424022 0
0.2570966563219685 0.5367374589103138 0
0.2461966768169271 0.2719197315013528 0
0.3746735842706339 0.7446665609823889 0
0.2840503284448583 0.7203681170842545 0
0.8460749336099525 0.4271470671041993 0
0.2454068320301912 0.3585044157628647 0
0.8523286030152639 0.1598334597656911 0
0.8077809622798886 0.5593936235719568 0
0.7357170241985378 0.6200325709134016 0
0.6633232914183875 0.4965256212890153 0
0.6432760969975497 0.5712282218406775 0
0.6519624709573102 0.6701178620245009 0
0.7419454602244624 0.7122920765330296 0
0.166098445920998 0.3279066831345632 0
0.4656665345374219 0.104975239759909 0
0.3294911968087148 0.1418051853066146 0
0.2398399347607411 0.1702803228189532 0
0.4694746027152138 0.7667555742848275 0
0.550401651290268 0.7036821450011503 0
0.5698987702646525 0.8040430118878497 0
0.2943579938619602 0.8162351532153012 0
0.8691293816208652 0.2613999692159319 0
0.09341896895575907 0.5567897532052557 0
0.8109395891853231 0.8811986332695454 0
0.909723599110104 0.8085196547716209 0
0.1122298484448977 0.7987524755707707 0
0.1850874294568943 0.6044064032432656 0
0.7046301494058468 0.07910127118473892 0
0.3957685714527624 0.4256272616562614 0
0.6633227376687957 0.7750163600899308 0
0.5625000000000009 0.9098226164770624 0
0.5797430591955456 0.6244966920949143 0
0.5019287496750936 0.6130076778974982 0
0.9083652462402179 0.5651253419487686 0
0.8785204589158406 0.3581896136652802 0
0.1870896937976289 0.08340092005626587 0
0.2127244771683873 0.7859787905037778 0
0.8190959208122081 0.07548475878173944 0
0.9145199505468834 0.08716907285615483 0
0.2509536312720158 0.446413172019571 0
0.7447290236575146 0.8058247028038279 0
0.3151664960050429 0.9167374942977171 0
0.2686329446157356 0.6292169969122317 0
0.320724898845122 0.3953604237603284 0
0.1752453762282551 0.4957690133546436 0
0.927896124150915 0.1975452607560497 0
0.9063649483491206 0.9064288745076452 0
0.5503687035652542 0.068540058928373 0
0.08924110687709785 0.08864247607212244 0
0.5939579206652861 0.490310451243907 0
0.09150635094610998 0.9084936490538902 0
0.8536960229758069 0.4975877686711944 0
0.9197287076632621 0.4563342785367644 0
0.8230386174065918 0.6467517969697277 0
0.08483108653176635 0.30270490257336 0
0.1691036271407636 0.2510931420212905 0
0.3890086748185348 0.8300589359874035 0
0.1937275633397736 0.7026369124142785 0
0.8254878228420646 0.7549938357464627 0
0.9321213550611953 0.2929343963023391 0
0.619851758149062 0.07179425079639828 0
0.4993552571133841 0.8461096165312788 0
0.1869937069047179 0.4102751510151884 0
0.3931296739751135 0.07860379524213601 0
0.3036060705111629 0.06385204192601274 0
$EndNodes
$Elements
6 322 1 322
1 1 1 8
1 1 6 
2 6 7 
3 7 8 
4 8 9 
5 9 10 
6 10 11 
7 11 12 
8 12 2 
1 2 1 8
9 3 13 
10 13 14 
11 14 15 
12 15 16 
13 16 17 
14 17 18 
15 18 19 
16 19 1 
1 3 1 8
17 2 20 
18 20 21 
19 21 22 
20 22 23 
21 23 24 
22 24 25 
23 25 26 
24 26 4 
1 4 1 8
25 4 27 
26 27 28 
27 28 29 
28 29 30 
29 30 31 
30 31 32 
31 32 33 
32 33 3 
2 2 2 55
33 58 60 56 
34 50 56 52 
35 52 55 50 
36 57 58 49 
37 53 58 57 
38 50 65 61 
39 58 68 60 
40 61 65 54 
41 61 63 49 
42 50 61 56 
43 54 63 61 
44 60 67 56 
45 36 54 35 
46 40 53 39 
47 42 51 41 
48 34 50 5 
49 47 52 46 
50 38 49 37 
51 45 48 44 
52 58 61 49 
53 56 67 52 
54 60 68 51 
55 48 67 60 
56 56 61 58 
57 59 62 60 
58 60 62 48 
59 41 64 40 
60 59 60 51 
61 50 55 5 
62 39 57 38 
63 37 63 36 
64 35 65 34 
65 43 59 42 
66 54 65 35 
67 38 57 49 
68 42 59 51 
69 44 62 43 
70 53 57 39 
71 45 66 48 
72 40 64 53 
73 46 66 45 
74 49 63 37 
75 52 66 46 
76 36 63 54 
77 5 55 47 
78 51 64 41 
79 34 65 50 
80 48 62 44 
81 47 55 52 
82 53 68 58 
83 66 67 48 
84 52 67 66 
85 64 68 53 
86 51 68 64 
87 43 62 59 
2 3 2 235
88 109 127 116 
89 108 147 107 
90 81 147 108 
91 79 126 39 
92 91 132 88 
93 93 94 92 
94 117 127 72 
95 72 128 117 
96 114 162 113 
97 116 127 117 
98 133 162 114 
99 39 126 71 
100 93 99 94 
101 125 135 96 
102 112 161 9 
103 38 79 39 
104 111 160 75 
105 88 132 102 
106 104 119 95 
107 138 156 121 
108 75 152 111 
109 152 153 111 
110 36 147 37 
111 15 120 70 
112 116 129 109 
113 78 133 114 
114 121 156 122 
115 77 161 112 
116 78 153 152 
117 124 142 98 
118 71 92 40 
119 35 88 73 
120 9 145 112 
121 22 150 132 
122 120 124 70 
123 108 129 81 
124 75 120 16 
125 71 93 92 
126 118 139 97 
127 88 89 73 
128 17 75 16 
129 70 155 123 
130 106 109 108 
131 34 91 88 
132 41 92 77 
133 29 72 28 
134 31 74 30 
135 15 70 14 
136 107 147 36 
137 72 121 28 
138 11 125 10 
139 123 155 134 
140 92 94 77 
141 120 142 124 
142 11 135 125 
143 5 95 91 
144 16 120 15 
145 74 128 30 
146 29 128 72 
147 25 76 24 
148 19 78 18 
149 106 108 90 
150 90 108 107 
151 10 158 145 
152 77 112 42 
153 114 153 78 
154 47 96 95 
155 76 131 24 
156 125 158 10 
157 33 97 32 
158 17 152 75 
159 28 121 27 
160 97 134 118 
161 25 122 76 
162 9 161 8 
163 70 123 14 
164 104 143 119 
165 90 107 73 
166 93 103 99 
167 86 116 115 
168 76 151 131 
169 26 122 25 
170 31 139 74 
171 86 130 116 
172 94 114 113 
173 14 123 13 
174 113 161 77 
175 103 141 137 
176 95 119 91 
177 131 151 105 
178 96 104 95 
179 78 152 18 
180 93 141 103 
181 139 154 74 
182 84 87 82 
183 109 129 108 
184 97 139 32 
185 115 159 154 
186 10 145 9 
187 46 125 96 
188 132 150 102 
189 116 117 115 
190 81 130 80 
191 83 86 85 
192 4 144 26 
193 27 144 4 
194 37 69 38 
195 74 159 128 
196 86 115 100 
197 99 114 94 
198 132 157 22 
199 6 146 1 
200 106 151 110 
201 1 146 19 
202 80 130 83 
203 87 126 82 
204 39 71 40 
205 106 110 109 
206 100 101 85 
207 112 145 43 
208 3 148 33 
209 13 148 3 
210 101 155 140 
211 116 130 129 
212 100 118 101 
213 86 100 85 
214 84 98 87 
215 89 90 73 
216 35 73 36 
217 151 156 110 
218 154 159 74 
219 78 146 133 
220 69 79 38 
221 69 81 80 
222 2 136 12 
223 83 85 84 
224 140 155 124 
225 137 141 87 
226 83 84 82 
227 20 136 2 
228 30 128 29 
229 105 106 90 
230 34 88 35 
231 75 142 120 
232 103 111 99 
233 71 141 93 
234 41 77 42 
235 40 92 41 
236 129 130 81 
237 83 130 86 
238 24 131 23 
239 136 143 104 
240 127 138 72 
241 69 80 79 
242 5 91 34 
243 126 141 71 
244 45 158 125 
245 80 82 79 
246 73 107 36 
247 88 102 89 
248 12 135 11 
249 98 140 124 
250 80 83 82 
251 47 95 5 
252 7 133 6 
253 72 138 121 
254 110 127 109 
255 89 105 90 
256 46 96 47 
257 23 150 22 
258 96 135 104 
259 123 134 97 
260 42 112 43 
261 82 126 79 
262 145 158 44 
263 94 113 77 
264 101 140 85 
265 7 162 133 
266 118 134 101 
267 21 143 20 
268 22 157 21 
269 84 140 98 
270 32 139 31 
271 121 144 27 
272 115 154 100 
273 45 125 46 
274 19 146 78 
275 123 148 13 
276 8 162 7 
277 118 154 139 
278 20 143 136 
279 26 144 122 
280 122 144 121 
281 33 148 97 
282 103 160 111 
283 105 149 131 
284 69 147 81 
285 122 156 76 
286 98 137 87 
287 119 132 91 
288 43 145 44 
289 18 152 17 
290 87 141 126 
291 97 148 123 
292 85 140 84 
293 110 156 138 
294 135 136 104 
295 149 150 131 
296 110 138 127 
297 128 159 117 
298 124 155 70 
299 44 158 45 
300 131 150 23 
301 37 147 69 
302 100 154 118 
303 105 151 106 
304 76 156 151 
305 117 159 115 
306 133 146 6 
307 98 142 137 
308 89 149 105 
309 111 153 99 
310 99 153 114 
311 12 136 135 
312 134 155 101 
313 102 149 89 
314 142 160 137 
315 102 150 149 
316 137 160 103 
317 143 157 119 
318 75 160 142 
319 21 157 143 
320 119 157 132 
321 113 162 161 
322 161 162 8 
$EndElements
