$MeshFormat
4.1 0 8
$EndMeshFormat
$PhysicalNames
3
1 101 "outer_boundary"
2 1 "material_1"
2 2 "material_2"
$EndPhysicalNames
$Entities
8 8 2 0
1 0 0 0 0 
2 1 0 0 0 
3 0 1 0 0 
4 1 1 0 0 
5 0.5808849559571985 0.382230450145895 0 0 
6 0.5002018667987935 0.6783889084918641 0 0 
7 0.2040434084528246 0.5977058193334591 0 0 
8 0.2847264976112294 0.3015473609874901 0 0 
1 -9.999999994736442e-08 -1e-07 -1e-07 1.0000001 1e-07 1e-07 1 101 2 1 -2 
2 -1e-07 -9.999999994736442e-08 -1e-07 1e-07 1.0000001 1e-07 1 101 2 3 -1 
3 0.9999999000000001 -9.999999994736442e-08 -1e-07 1.0000001 1.0000001 1e-07 1 101 2 2 -4 
4 -9.999999994736442e-08 0.9999999000000001 -1e-07 1.0000001 1.0000001 1e-07 1 101 2 4 -3 
5 0.5002017667987936 0.382230350145895 -1e-07 0.5808850559571984 0.678389008491864 1e-07 0 2 5 -6 
6 0.2040433084528246 0.5977057193334592 -1e-07 0.5002019667987935 0.678389008491864 1e-07 0 2 6 -7 
7 0.2040433084528246 0.3015472609874901 -1e-07 0.2847265976112294 0.5977059193334591 1e-07 0 2 7 -8 
8 0.2847263976112294 0.3015472609874901 -1e-07 0.5808850559571984 0.382230550145895 1e-07 0 2 8 -5 
2 0.2040433084528246 0.3015472609874901 -1e-07 0.5808850559571984 0.678389008491864 1e-07 1 2 4 5 6 7 8 
3 -9.999999994736442e-08 -9.999999994736442e-08 -1e-07 1.0000001 1.0000001 1e-07 1 1 8 1 3 4 2 -5 -8 -7 -6 
$EndEntities
$Nodes
18 175 1 175
0 1 0 1
1
0 0 0
0 2 0 1
2
1 0 0
0 3 0 1
3
0 1 0
0 4 0 1
4
1 1 0
0 5 0 1
5
0.5808849559571985 0.382230450145895 0
0 6 0 1
6
0.5002018667987935 0.6783889084918641 0
0 7 0 1
7
0.2040434084528246 0.5977058193334591 0
0 8 0 1
8
0.2847264976112294 0.3015473609874901 0
1 1 0 7
9
10
11
12
13
14
15
0.1249999999999999 0 0
0.2499999999999998 0 0
0.3749999999999993 0 0
0.4999999999999988 0 0
0.6249999999999988 0 0
0.7499999999999991 0 0
0.8749999999999997 0 0
1 2 0 7
16
17
18
19
20
21
22
0 0.8750000000000001 0
0 0.7500000000000002 0
0 0.6250000000000007 0
0 0.5000000000000012 0
0 0.3750000000000012 0
0 0.2500000000000009 0
0 0.1250000000000003 0
1 3 0 7
23
24
25
26
27
28
29
1 0.1249999999999999 0
1 0.2499999999999998 0
1 0.3749999999999993 0
1 0.4999999999999988 0
1 0.6249999999999988 0
1 0.7499999999999991 0
1 0.8749999999999997 0
1 4 0 7
30
31
32
33
34
35
36
0.8750000000000001 1 0
0.7500000000000002 1 0
0.6250000000000007 1 0
0.5000000000000012 1 0
0.3750000000000012 1 0
0.2500000000000009 1 0
0.1250000000000003 1 0
1 5 0 4
37
38
39
40
0.5647483381255175 0.4414621418150887 0
0.5486117202938365 0.5006938334842825 0
0.5324751024621556 0.5599255251534764 0
0.5163384846304745 0.6191572168226702 0
1 6 0 4
41
42
43
44
0.4409701751295998 0.6622522906601831 0
0.3817384834604061 0.6461156728285021 0
0.3225067917912122 0.6299790549968212 0
0.2632751001220184 0.6138424371651401 0
1 7 0 4
45
46
47
48
0.2201800262845056 0.5384741276642654 0
0.2363166441161865 0.4792424359950717 0
0.2524532619478674 0.4200107443258778 0
0.2685898797795485 0.360779052656684 0
1 8 0 4
49
50
51
52
0.3439581892804232 0.3176839788191711 0
0.4031898809496169 0.333820596650852 0
0.4624215726188107 0.349957214482533 0
0.5216532642880046 0.366093832314214 0
2 2 0 24
53
54
55
56
57
58
59
60
61
62
63
64
65
66
67
68
69
70
71
72
73
74
75
76
0.2832749743668053 0.4627831340287204 0
0.489247261683347 0.5163349583454827 0
0.4162404408761537 0.3894574675142057 0
0.3623909944160721 0.5890660112895421 0
0.4743194296681725 0.575626347555723 0
0.4346275600004969 0.5344012883113775 0
0.4519461674706965 0.4733730985334537 0
0.3866549622940492 0.4883855163986893 0
0.5064067469267114 0.4575317362572925 0
0.2851822768106115 0.5195220967799428 0
0.3599413972032151 0.3759254059297577 0
0.3076413320561846 0.574508154273343 0
0.3109252013960951 0.4091817294656493 0
0.4730867314071883 0.4108715551194472 0
0.4217510619387288 0.5971743004448525 0
0.372103573306741 0.4308537357260618 0
0.3450228866843787 0.5343394857859225 0
0.336580753628563 0.4821918099272635 0
0.259216840288041 0.5661580357284675 0
0.316274281216221 0.3567207928227066 0
0.4686540831938019 0.6232154766566476 0
0.5257115241219821 0.4137782337508866 0
0.4201483912441311 0.4371601748860431 0
0.3895567077025525 0.5495430158119927 0
2 3 0 99
77
78
79
80
81
82
83
84
85
86
87
88
89
90
91
92
93
94
95
96
97
98
99
100
101
102
103
104
105
106
107
108
109
110
111
112
113
114
115
116
117
118
119
120
121
122
123
124
125
126
127
128
129
130
131
132
133
134
135
136
137
138
139
140
141
142
143
144
145
146
147
148
149
150
151
152
153
154
155
156
157
158
159
160
161
162
163
164
165
166
167
168
169
170
171
172
173
174
175
0.5627281983820229 0.6619799569724309 0
0.6079761789043259 0.4850527086230823 0
0.275249603299577 0.6801057395604474 0
0.3992745854863721 0.7069798360367433 0
0.5659990360941116 0.3215194913728766 0
0.6327472797524023 0.3412058302974622 0
0.4467804477576105 0.2905927558720436 0
0.8947742479085781 0.6824706284349702 0
0.5400436937230352 0.7253761224826609 0
0.6342181659617193 0.7058341271627581 0
0.3312548949454113 0.2552914236827122 0
0.2606607227356184 0.2473152855069244 0
0.891567689576516 0.4463113534158247 0
0.6131710110194701 0.2680055230252567 0
0.6876489401023924 0.287010912842129 0
0.2260357748127697 0.3084682384761501 0
0.6309738642274039 0.6340085983828216 0
0.2040951908958531 0.9046172534506848 0
0.7053565987984112 0.3708855939004588 0
0.7721433074560706 0.3089338499440301 0
0.1833876827550309 0.4328571893975055 0
0.5932728534064811 0.7911217832159273 0
0.6700563134626802 0.7786636418840972 0
0.5153315320781815 0.799670326774639 0
0.6574621004025225 0.1979731639933255 0
0.1772234663248594 0.2468574139715684 0
0.3060509691074323 0.1846667842630981 0
0.5605639838803657 0.1936771534969227 0
0.8127793920512668 0.9074073998815351 0
0.1594635988744496 0.5540741513704374 0
0.82007922320226 0.113294542784536 0
0.2221218434289551 0.1737762215104801 0
0.1425268820349013 0.6131720636230172 0
0.4449681832973877 0.07835431397397369 0
0.1482456614726425 0.3184319425994093 0
0.3913664714395093 0.2136087760799038 0
0.1906817843640839 0.6667700748634791 0
0.2274807631625174 0.7399887019711562 0
0.3072122675351522 0.7486822351536733 0
0.1496532330057116 0.7408799200718144 0
0.6520867395156047 0.8502291000436401 0
0.1265653711434445 0.1679897325232201 0
0.4395721765620867 0.8864995630250559 0
0.320273569030483 0.8963154920568863 0
0.8969158865473638 0.5639688644903608 0
0.7989742548721709 0.5110312609400783 0
0.7913064927938456 0.6321990911085931 0
0.7128337434174734 0.564578671168289 0
0.8077793354238545 0.7311007316276041 0
0.7193803372095257 0.4618466321602355 0
0.7930582512072408 0.4054170385633674 0
0.8686655158957246 0.3390334800752964 0
0.8380919486875131 0.2351309411129212 0
0.8810799672124909 0.8116085955930545 0
0.2691588088399284 0.8193931485955719 0
0.3634518642539285 0.8161292357919474 0
0.5513154853906451 0.8921206157590549 0
0.7006065231233083 0.1006861208196725 0
0.703523935537345 0.6513698845058455 0
0.634447883218877 0.5590409402135454 0
0.09833520375453236 0.4355953687952027 0
0.08185278143498775 0.5808009731837628 0
0.2820920172627186 0.0931133043124367 0
0.5767121702205775 0.5960121286160089 0
0.6392023973615217 0.4270947964023469 0
0.5065182204566591 0.3051093305644316 0
0.492510291678447 0.2395124020285649 0
0.3833099768745142 0.2821995062209365 0
0.4686178812557846 0.7257427452539991 0
0.3408718741115749 0.6931804460904126 0
0.5338725854731751 0.09416438130828331 0
0.2029421271236554 0.3716055641909255 0
0.1748713002320956 0.4940615132320515 0
0.08672951981234911 0.6836715668223509 0
0.1824720709931996 0.08839898217008213 0
0.7482490219181654 0.8213433605387087 0
0.7460053404956778 0.2071715885827691 0
0.08336835206424037 0.7999893747072986 0
0.9174027745603639 0.1762866007146149 0
0.1411820694211437 0.3811440911219674 0
0.09371030170343497 0.9061273897687014 0
0.4308711906055149 0.7847035462689345 0
0.5477525086258107 0.2655647800976105 0
0.08744911862640031 0.08177399772028771 0
0.3704285599914953 0.1230573556036111 0
0.7176230306970076 0.9157959720927767 0
0.5800446110199544 0.5401450272180791 0
0.1782699801605887 0.8115572970837185 0
0.9084936490538905 0.9084936490538904 0
0.4656183459600633 0.1570623970818765 0
0.08689252083596477 0.2460689112138281 0
0.6179540259616517 0.115163863409102 0
0.6633230927832716 0.5069802178742057 0
0.07910924258071395 0.3343733856217349 0
0.1112698070835638 0.511129238418795 0
0.3664506265234457 0.7547384083556088 0
0.9248320478287204 0.2750902043805663 0
0.9267020692000101 0.07527046296192669 0
0.7269706623797485 0.7193454388447774 0
$EndNodes
$Elements
6 348 1 348
1 1 1 8
1 1 9 
2 9 10 
3 10 11 
4 11 12 
5 12 13 
6 13 14 
7 14 15 
8 15 2 
1 2 1 8
9 3 16 
10 16 17 
11 17 18 
12 18 19 
13 19 20 
14 20 21 
15 21 22 
16 22 1 
1 3 1 8
17 2 23 
18 23 24 
19 24 25 
20 25 26 
21 26 27 
22 27 28 
23 28 29 
24 29 4 
1 4 1 8
25 4 30 
26 30 31 
27 31 32 
28 32 33 
29 33 34 
30 34 35 
31 35 36 
32 36 3 
2 2 2 66
33 68 70 65 
34 65 70 53 
35 57 67 58 
36 59 66 61 
37 62 70 69 
38 63 68 65 
39 62 69 64 
40 59 75 66 
41 67 76 58 
42 53 70 62 
43 39 54 38 
44 57 58 54 
45 54 61 38 
46 40 57 39 
47 46 62 45 
48 58 60 59 
49 50 63 49 
50 39 57 54 
51 51 55 50 
52 58 59 54 
53 47 53 46 
54 55 63 50 
55 59 61 54 
56 38 61 37 
57 43 56 42 
58 53 62 46 
59 44 64 43 
60 52 66 51 
61 42 67 41 
62 48 65 47 
63 56 67 42 
64 43 64 56 
65 51 66 55 
66 47 65 53 
67 55 68 63 
68 6 73 40 
69 5 74 52 
70 41 73 6 
71 7 71 44 
72 49 72 8 
73 37 74 5 
74 8 72 48 
75 45 71 7 
76 60 70 68 
77 64 69 56 
78 58 76 60 
79 60 75 59 
80 66 75 55 
81 56 76 67 
82 60 76 69 
83 68 75 60 
84 52 74 66 
85 48 72 65 
86 44 71 64 
87 67 73 41 
88 40 73 57 
89 63 72 49 
90 62 71 45 
91 61 74 37 
92 66 74 61 
93 64 71 62 
94 65 72 63 
95 57 73 67 
96 69 70 60 
97 55 75 68 
98 69 76 56 
2 3 2 250
99 93 135 86 
100 143 166 104 
101 107 153 134 
102 118 167 22 
103 112 143 83 
104 32 133 117 
105 93 136 124 
106 5 141 37 
107 98 133 100 
108 135 175 86 
109 104 166 147 
110 123 124 122 
111 115 132 131 
112 79 113 44 
113 83 144 112 
114 117 133 98 
115 44 113 7 
116 129 153 107 
117 97 149 137 
118 94 131 120 
119 124 135 93 
120 117 162 32 
121 121 122 89 
122 130 152 125 
123 134 153 101 
124 100 145 85 
125 121 123 122 
126 119 158 100 
127 94 120 35 
128 37 141 78 
129 113 150 109 
130 22 167 21 
131 95 127 126 
132 100 133 119 
133 86 175 99 
134 105 152 130 
135 145 158 80 
136 122 127 89 
137 131 132 120 
138 82 141 5 
139 126 127 122 
140 126 141 95 
141 26 121 89 
142 11 161 139 
143 124 126 122 
144 85 145 6 
145 115 172 132 
146 8 92 88 
147 89 128 25 
148 29 130 28 
149 84 123 121 
150 112 166 143 
151 158 172 80 
152 123 175 135 
153 161 166 112 
154 128 173 25 
155 116 150 113 
156 11 139 10 
157 116 154 150 
158 12 110 11 
159 34 120 119 
160 79 114 113 
161 109 150 138 
162 84 121 27 
163 36 94 35 
164 120 132 119 
165 22 160 118 
166 26 89 25 
167 149 171 137 
168 84 125 123 
169 95 141 82 
170 34 119 33 
171 28 84 27 
172 137 156 97 
173 92 102 88 
174 127 128 89 
175 157 164 94 
176 141 169 78 
177 15 107 14 
178 29 165 130 
179 35 120 34 
180 31 105 30 
181 125 175 123 
182 28 130 84 
183 27 121 26 
184 100 158 145 
185 154 164 157 
186 110 161 11 
187 123 135 124 
188 104 159 143 
189 147 166 110 
190 14 134 13 
191 107 155 129 
192 96 128 127 
193 33 133 32 
194 24 155 23 
195 88 108 103 
196 107 134 14 
197 25 173 24 
198 96 129 128 
199 13 147 12 
200 119 133 33 
201 79 115 114 
202 110 166 161 
203 108 139 103 
204 12 147 110 
205 13 168 147 
206 150 154 17 
207 132 158 119 
208 9 160 1 
209 24 173 155 
210 124 169 126 
211 19 138 18 
212 137 171 19 
213 92 148 111 
214 118 151 108 
215 84 130 125 
216 134 168 13 
217 16 157 3 
218 20 137 19 
219 19 171 138 
220 3 157 36 
221 93 140 136 
222 1 160 22 
223 152 175 125 
224 40 77 6 
225 4 165 29 
226 30 165 4 
227 103 161 112 
228 101 168 134 
229 91 95 82 
230 126 169 141 
231 32 162 31 
232 136 163 78 
233 37 78 38 
234 130 165 105 
235 99 175 152 
236 39 140 40 
237 138 150 18 
238 52 81 5 
239 43 79 44 
240 51 142 52 
241 42 146 43 
242 15 174 107 
243 50 83 51 
244 41 80 42 
245 77 93 86 
246 49 144 50 
247 8 87 49 
248 111 167 102 
249 96 127 95 
250 6 145 41 
251 90 104 101 
252 21 170 20 
253 98 100 85 
254 36 157 94 
255 103 112 87 
256 48 92 8 
257 102 167 118 
258 47 148 48 
259 79 146 115 
260 46 97 47 
261 92 111 102 
262 7 113 109 
263 94 164 131 
264 81 82 5 
265 10 151 9 
266 104 168 101 
267 108 151 139 
268 17 154 16 
269 45 149 46 
270 77 85 6 
271 31 162 105 
272 91 96 95 
273 40 140 77 
274 115 131 114 
275 8 88 87 
276 7 106 45 
277 167 170 21 
278 114 116 113 
279 77 140 93 
280 96 153 129 
281 90 159 104 
282 90 91 82 
283 78 169 136 
284 102 108 88 
285 131 164 114 
286 105 165 30 
287 116 164 154 
288 140 163 136 
289 107 174 155 
290 77 86 85 
291 139 151 10 
292 99 152 117 
293 52 142 81 
294 148 156 111 
295 86 99 98 
296 18 150 17 
297 43 146 79 
298 118 160 151 
299 81 90 82 
300 83 142 51 
301 112 144 87 
302 90 101 91 
303 86 98 85 
304 80 146 42 
305 114 164 116 
306 99 117 98 
307 50 144 83 
308 102 118 108 
309 87 144 49 
310 41 145 80 
311 88 103 87 
312 78 163 38 
313 39 163 140 
314 136 169 124 
315 7 109 106 
316 38 163 39 
317 83 143 142 
318 139 161 103 
319 80 172 146 
320 48 148 92 
321 2 174 15 
322 23 174 2 
323 97 148 47 
324 91 153 96 
325 46 149 97 
326 155 173 129 
327 147 168 104 
328 132 172 158 
329 101 153 91 
330 106 149 45 
331 109 138 106 
332 152 162 117 
333 97 156 148 
334 105 162 152 
335 146 172 115 
336 20 170 137 
337 154 157 16 
338 81 159 90 
339 142 159 81 
340 111 170 167 
341 151 160 9 
342 129 173 128 
343 143 159 142 
344 137 170 156 
345 156 170 111 
346 155 174 23 
347 138 171 106 
348 106 171 149 
$EndElements
