$MeshFormat
4.1 0 8
$EndMeshFormat
$PhysicalNames
3
1 101 "outer_boundary"
2 1 "material_1"
2 2 "material_2"
$EndPhysicalNames
$Entities
7 7 2 0
1 0 0 0 0 
2 1 0 0 0 
3 0 1 0 0 
4 1 1 0 0 
5 0.3250431324394691 0.6736094217864598 0 0 
6 0.2092508558518457 0.4044555495671724 0 0 
7 0.5002410850145109 0.4387534325899001 0 0 
1 -9.999999994736442e-08 -1e-07 -1e-07 1.0000001 1e-07 1e-07 1 101 2 1 -2 
2 -1e-07 -9.999999994736442e-08 -1e-07 1e-07 1.0000001 1e-07 1 101 2 3 -1 
3 0.9999999000000001 -9.999999994736442e-08 -1e-07 1.0000001 1.0000001 1e-07 1 101 2 2 -4 
4 -9.999999994736442e-08 0.9999999000000001 -1e-07 1.0000001 1.0000001 1e-07 1 101 2 4 -3 
5 0.2092507558518457 0.4044554495671724 -1e-07 0.3250432324394691 0.6736095217864597 1e-07 0 2 5 -6 
6 0.2092507558518457 0.4044554495671724 -1e-07 0.5002411850145109 0.4387535325899001 1e-07 0 2 6 -7 
7 0.3250430324394691 0.4387533325899001 -1e-07 0.5002411850145109 0.6736095217864597 1e-07 0 2 7 -5 
2 0.2092507558518457 0.4044554495671724 -1e-07 0.5002411850145109 0.6736095217864597 1e-07 1 2 3 5 6 7 
3 -9.999999994736442e-08 -9.999999994736442e-08 -1e-07 1.0000001 1.0000001 1e-07 1 1 7 1 3 4 2 -5 -7 -6 
$EndEntities
$Nodes
16 164 1 164
0 1 0 1
1
0 0 0
0 2 0 1
2
1 0 0
0 3 0 1
3
0 1 0
0 4 0 1
4
1 1 0
0 5 0 1
5
0.3250431324394691 0.6736094217864598 0
0 6 0 1
6
0.2092508558518457 0.4044555495671724 0
0 7 0 1
7
0.5002410850145109 0.4387534325899001 0
1 1 0 7
8
9
10
11
12
13
14
0.1249999999999999 0 0
0.2499999999999998 0 0
0.3749999999999993 0 0
0.4999999999999988 0 0
0.6249999999999988 0 0
0.7499999999999991 0 0
0.8749999999999997 0 0
1 2 0 7
15
16
17
18
19
20
21
0 0.8750000000000001 0
0 0.7500000000000002 0
0 0.6250000000000007 0
0 0.5000000000000012 0
0 0.3750000000000012 0
0 0.2500000000000009 0
0 0.1250000000000003 0
1 3 0 7
22
23
24
25
26
27
28
1 0.1249999999999999 0
1 0.2499999999999998 0
1 0.3749999999999993 0
1 0.4999999999999988 0
1 0.6249999999999988 0
1 0.7499999999999991 0
1 0.8749999999999997 0
1 4 0 7
29
30
31
32
33
34
35
0.8750000000000001 1 0
0.7500000000000002 1 0
0.6250000000000007 1 0
0.5000000000000012 1 0
0.3750000000000012 1 0
0.2500000000000009 1 0
0.1250000000000003 1 0
1 5 0 4
36
37
38
39
0.3018846771219444 0.6197786473426024 0
0.2787262218044197 0.5659478728987448 0
0.2555677664868951 0.5121170984548874 0
0.2324093111693704 0.4582863240110299 0
1 6 0 4
40
41
42
43
0.2674489016843787 0.4113151261717179 0
0.3256469475169118 0.4181747027762635 0
0.3838449933494448 0.425034279380809 0
0.4420430391819778 0.4318938559853545 0
1 7 0 4
44
45
46
47
0.4652014944995025 0.485724630429212 0
0.4301619039844942 0.5326958282685239 0
0.3951223134694858 0.5796670261078359 0
0.3600827229544775 0.6266382239471479 0
2 2 0 6
48
49
50
51
52
53
0.3137658123194281 0.5189766750594329 0
0.4070034486669695 0.4788650538246665 0
0.3369242676369528 0.5728074495032904 0
0.3719638581519611 0.5258362516639784 0
0.3488054028344365 0.4720054772201209 0
0.2906073570019034 0.4651459006155754 0
2 3 0 111
54
55
56
57
58
59
60
61
62
63
64
65
66
67
68
69
70
71
72
73
74
75
76
77
78
79
80
81
82
83
84
85
86
87
88
89
90
91
92
93
94
95
96
97
98
99
100
101
102
103
104
105
106
107
108
109
110
111
112
113
114
115
116
117
118
119
120
121
122
123
124
125
126
127
128
129
130
131
132
133
134
135
136
137
138
139
140
141
142
143
144
145
146
147
148
149
150
151
152
153
154
155
156
157
158
159
160
161
162
163
164
0.4890114143223923 0.5398138406817596 0
0.4137833344875943 0.3802399603458972 0
0.3791036950731477 0.6778670085627194 0
0.8849279829277596 0.6875102552475412 0
0.9118150520444658 0.3141736771923558 0
0.2467352841697675 0.3540859552871116 0
0.5564793577542251 0.1046355230630866 0
0.2625366634601564 0.6663003434049168 0
0.5625000000000009 0.8917468245269456 0
0.2889829666377094 0.7284813404989942 0
0.3192023326113365 0.1053388756115727 0
0.2274355699842524 0.5573167941655889 0
0.2206408254604844 0.7182301794326595 0
0.1687645912733235 0.3451951704954396 0
0.2228205234319628 0.2914872326001949 0
0.2945435548722259 0.3003842347608996 0
0.2506462107576783 0.7992720490655781 0
0.3291052253176465 0.7955634685874766 0
0.1868762925185405 0.4496822466029217 0
0.8103681701251366 0.1145973960778769 0
0.8125000000000002 0.8917468245269454 0
0.1638799675501825 0.7813764474155949 0
0.1052525646985988 0.1952841224925861 0
0.1944806829120097 0.6482764895104738 0
0.2717027399923495 0.2295714805536619 0
0.3536212885915013 0.2444767484675289 0
0.0863121099098888 0.560756679576763 0
0.1985532691164886 0.8901705094969037 0
0.4444692088941607 0.09929262000008865 0
0.5047027183520053 0.1933465695845743 0
0.5995254286136971 0.2021789150402493 0
0.5500861399330917 0.2805904249421759 0
0.6435062659757833 0.2884941802887905 0
0.5866582155624874 0.3670067634718691 0
0.6805486874138311 0.3668483327121296 0
0.6349882979539114 0.4387796479220619 0
0.721653878139538 0.4428245062250343 0
0.6735619227669303 0.5173567815816749 0
0.7638619936738035 0.5217969737450849 0
0.713052761985843 0.5972548493929219 0
0.611494817267305 0.5873099423292033 0
0.6613209797178656 0.6725974575037617 0
0.5719245878933195 0.6663739386414707 0
0.7215886463137785 0.281300773866365 0
0.610829822431791 0.7458437171656285 0
0.5231474735175355 0.7367932848675172 0
0.7054684303308971 0.7524714828240235 0
0.8113184145424531 0.4468896256690421 0
0.4557373458222974 0.2793451175860333 0
0.483012101669589 0.6615454915000678 0
0.8681387821385783 0.5193227379091311 0
0.6733604785525087 0.1192669284834582 0
0.5089451952934753 0.3424680578492655 0
0.6901177551929217 0.9027405508431696 0
0.1940986204246615 0.1044434601945959 0
0.5912024958991033 0.5039273300436101 0
0.4312367134741458 0.9084896447652731 0
0.3125126135570815 0.8949509818556055 0
0.08811736659047747 0.3070667605075629 0
0.9081851617565395 0.1910073459108504 0
0.5308044119399503 0.6025283652838397 0
0.9026762383476504 0.8103613772679632 0
0.09708866598514398 0.66391065058387 0
0.4307470166465259 0.7175244460813666 0
0.3758642038995998 0.3253860258120875 0
0.5249044811349911 0.4926254391899075 0
0.561482411967414 0.4443037638682752 0
0.4577321523621537 0.5916247253989534 0
0.3117617002288915 0.3639272305481648 0
0.7451071736110454 0.1891713855946464 0
0.09530190638655195 0.387260865695472 0
0.4182807687870105 0.6334978005516934 0
0.2436866312894114 0.6129190707380567 0
0.4691605673953682 0.8131386038987138 0
0.2012585226633927 0.5083193581612668 0
0.8159101673912723 0.6009638538068076 0
0.8037818306782125 0.7680555016168494 0
0.9055445206520631 0.4211160430108338 0
0.1945840531986316 0.2127013090525147 0
0.7640770255053083 0.6798089000653176 0
0.7659231001520379 0.3599900178359678 0
0.4001937468637948 0.1835120306083888 0
0.105160140202229 0.8757967292122426 0
0.3581422043392222 0.7284504396390086 0
0.8149974541699836 0.2602215448246483 0
0.3621802358964884 0.3825524397726444 0
0.3932445208639735 0.780620960862638 0
0.08487023702465202 0.08494551653743637 0
0.08111454142218816 0.457648952067407 0
0.5266090938822794 0.3978055415739312 0
0.5616523586273507 0.8024942281737493 0
0.90849364905389 0.09150635094610993 0
0.9084936490538905 0.9084936490538904 0
0.6468220813490442 0.8212287767602109 0
0.1705281241256034 0.5762386173690398 0
0.5441610429489969 0.5437532073879374 0
0.3831412322030122 0.8433895225797452 0
0.4742726663964272 0.3901720663419188 0
0.9139747944924812 0.6009999733294225 0
0.7370597629390976 0.8286278358038137 0
0.3191438673001291 0.1836354956667285 0
0.2597463227054216 0.1671381242158148 0
0.08321030020380721 0.7720271930148273 0
0.147457145597929 0.4210690105459453 0
0.6769724930530181 0.2211009704670185 0
0.8419197083122008 0.3604781817065695 0
0.4470987071552642 0.3410001333367258 0
0.1559078198385988 0.2703469190296596 0
0.1518600884223256 0.7167641919914851 0
0.05754003505055738 0.9376991823030607 0
0.1449749979716477 0.4917768968519959 0
$EndNodes
$Elements
6 326 1 326
1 1 1 8
1 1 8 
2 8 9 
3 9 10 
4 10 11 
5 11 12 
6 12 13 
7 13 14 
8 14 2 
1 2 1 8
9 3 15 
10 15 16 
11 16 17 
12 17 18 
13 18 19 
14 19 20 
15 20 21 
16 21 1 
1 3 1 8
17 2 22 
18 22 23 
19 23 24 
20 24 25 
21 25 26 
22 26 27 
23 27 28 
24 28 4 
1 4 1 8
25 4 29 
26 29 30 
27 30 31 
28 31 32 
29 32 33 
30 33 34 
31 34 35 
32 35 3 
2 2 2 25
33 6 40 39 
34 5 36 47 
35 44 43 7 
36 51 52 49 
37 48 52 51 
38 39 53 38 
39 48 53 52 
40 37 50 36 
41 48 51 50 
42 36 50 47 
43 38 53 48 
44 49 52 42 
45 45 51 49 
46 50 51 46 
47 43 49 42 
48 44 49 43 
49 48 50 37 
50 42 52 41 
51 47 50 46 
52 45 49 44 
53 46 51 45 
54 40 53 39 
55 38 48 37 
56 52 53 41 
57 41 53 40 
2 3 2 269
58 102 118 79 
59 111 150 110 
60 73 105 13 
61 56 125 117 
62 148 164 128 
63 57 133 129 
64 71 111 70 
65 35 81 34 
66 79 135 102 
67 35 136 81 
68 82 135 64 
69 135 154 64 
70 87 106 85 
71 116 148 77 
72 117 125 103 
73 80 148 116 
74 110 127 62 
75 33 111 110 
76 10 82 64 
77 73 123 105 
78 130 133 57 
79 87 143 106 
80 97 138 134 
81 35 163 136 
82 13 105 12 
83 138 159 134 
84 32 110 62 
85 117 137 56 
86 85 106 102 
87 60 83 82 
88 114 149 94 
89 73 138 123 
90 70 111 81 
91 25 152 104 
92 77 162 116 
93 85 102 83 
94 127 144 62 
95 62 107 31 
96 81 111 34 
97 74 153 130 
98 84 85 83 
99 103 121 114 
100 67 124 112 
101 80 116 17 
102 102 160 118 
103 112 161 67 
104 99 103 96 
105 86 87 85 
106 113 138 73 
107 89 120 87 
108 94 109 91 
109 74 130 115 
110 104 131 25 
111 91 109 89 
112 60 82 11 
113 24 131 58 
114 114 121 54 
115 96 114 94 
116 67 157 124 
117 60 84 83 
118 131 159 58 
119 102 135 83 
120 33 110 32 
121 94 149 109 
122 21 76 20 
123 10 64 9 
124 124 142 19 
125 32 62 31 
126 64 108 9 
127 12 60 11 
128 65 148 128 
129 80 164 148 
130 12 105 60 
131 24 58 23 
132 109 120 89 
133 18 80 17 
134 84 86 85 
135 27 57 26 
136 30 107 74 
137 11 82 10 
138 112 124 19 
139 20 112 19 
140 103 125 121 
141 93 94 91 
142 120 143 87 
143 31 107 30 
144 88 89 87 
145 58 113 23 
146 76 112 20 
147 118 160 55 
148 117 140 137 
149 103 114 96 
150 9 108 8 
151 27 115 57 
152 108 132 76 
153 14 73 13 
154 86 88 87 
155 30 74 29 
156 95 96 94 
157 19 142 18 
158 98 99 96 
159 1 141 21 
160 62 147 107 
161 118 139 122 
162 132 161 76 
163 76 161 112 
164 34 111 33 
165 23 113 22 
166 118 122 69 
167 28 115 27 
168 72 164 157 
169 106 160 102 
170 129 152 57 
171 8 141 1 
172 99 117 103 
173 157 164 142 
174 71 150 111 
175 90 91 89 
176 93 95 94 
177 26 152 25 
178 79 118 69 
179 83 135 82 
180 58 159 138 
181 17 116 16 
182 60 105 84 
183 16 156 15 
184 92 93 91 
185 126 148 65 
186 44 54 45 
187 88 90 89 
188 95 98 96 
189 15 156 136 
190 64 155 108 
191 45 121 46 
192 78 79 69 
193 2 145 14 
194 22 145 2 
195 4 146 28 
196 29 146 4 
197 90 92 91 
198 7 119 44 
199 42 55 43 
200 55 139 118 
201 6 59 40 
202 46 125 47 
203 21 141 76 
204 124 157 142 
205 86 97 88 
206 18 142 80 
207 115 130 57 
208 40 122 41 
209 63 71 70 
210 47 56 5 
211 68 69 59 
212 5 61 36 
213 95 100 98 
214 90 101 92 
215 119 120 109 
216 76 141 108 
217 101 104 92 
218 36 126 37 
219 123 138 97 
220 37 65 38 
221 54 149 114 
222 25 131 24 
223 7 120 119 
224 54 121 45 
225 58 138 113 
226 38 128 39 
227 44 119 54 
228 41 139 42 
229 92 129 93 
230 66 77 61 
231 101 131 104 
232 39 72 6 
233 108 141 8 
234 57 152 26 
235 107 153 74 
236 77 148 126 
237 121 125 46 
238 68 78 69 
239 99 127 117 
240 69 122 59 
241 127 150 140 
242 105 158 84 
243 68 132 78 
244 99 144 127 
245 5 63 61 
246 108 155 132 
247 93 133 95 
248 63 137 71 
249 129 133 93 
250 104 129 92 
251 59 122 40 
252 79 154 135 
253 42 139 55 
254 47 125 56 
255 95 133 100 
256 113 145 22 
257 28 146 115 
258 97 158 123 
259 88 134 90 
260 100 153 147 
261 6 67 59 
262 104 152 129 
263 90 134 101 
264 122 139 41 
265 97 134 88 
266 70 81 75 
267 63 70 66 
268 14 145 73 
269 123 158 105 
270 74 146 29 
271 100 133 130 
272 77 126 61 
273 55 160 151 
274 61 126 36 
275 81 136 75 
276 70 75 66 
277 55 151 43 
278 73 145 113 
279 67 68 59 
280 63 66 61 
281 130 153 100 
282 101 159 131 
283 98 144 99 
284 115 146 74 
285 110 150 127 
286 100 147 98 
287 37 126 65 
288 86 158 97 
289 127 140 117 
290 144 147 62 
291 3 163 35 
292 15 163 3 
293 65 128 38 
294 43 151 7 
295 56 137 5 
296 156 162 75 
297 5 137 63 
298 39 128 72 
299 7 143 120 
300 142 164 80 
301 147 153 107 
302 68 161 132 
303 84 158 86 
304 132 155 78 
305 7 151 143 
306 116 162 156 
307 116 156 16 
308 151 160 106 
309 78 154 79 
310 6 157 67 
311 137 140 71 
312 75 162 66 
313 72 157 6 
314 136 156 75 
315 119 149 54 
316 109 149 119 
317 98 147 144 
318 66 162 77 
319 143 151 106 
320 140 150 71 
321 134 159 101 
322 67 161 68 
323 78 155 154 
324 136 163 15 
325 154 155 64 
326 128 164 72 
$EndElements
