$MeshFormat
4.1 0 8
$EndMeshFormat
$PhysicalNames
3
1 101 "outer_boundary"
2 1 "material_1"
2 2 "material_2"
$EndPhysicalNames
$Entities
8 8 2 0
1 0 0 0 0 
2 1 0 0 0 
3 0 1 0 0 
4 1 1 0 0 
5 0.6191784938076161 0.2295968097146885 0 0 
6 0.8060937907644252 0.2648237599609809 0 0 
7 0.7708668405181329 0.45173905691779 0 0 
8 0.5839515435613238 0.4165121066714976 0 0 
1 -9.999999994736442e-08 -1e-07 -1e-07 1.0000001 1e-07 1e-07 1 101 2 1 -2 
2 -1e-07 -9.999999994736442e-08 -1e-07 1e-07 1.0000001 1e-07 1 101 2 3 -1 
3 0.9999999000000001 -9.999999994736442e-08 -1e-07 1.0000001 1.0000001 1e-07 1 101 2 2 -4 
4 -9.999999994736442e-08 0.9999999000000001 -1e-07 1.0000001 1.0000001 1e-07 1 101 2 4 -3 
5 0.6191783938076162 0.2295967097146885 -1e-07 0.8060938907644252 0.2648238599609809 1e-07 0 2 5 -6 
6 0.770866740518133 0.2648236599609809 -1e-07 0.8060938907644252 0.45173915691779 1e-07 0 2 6 -7 
7 0.5839514435613239 0.4165120066714976 -1e-07 0.7708669405181329 0.45173915691779 1e-07 0 2 7 -8 
8 0.5839514435613239 0.2295967097146885 -1e-07 0.6191785938076161 0.4165122066714976 1e-07 0 2 8 -5 
2 0.5839514435613239 0.2295967097146885 -1e-07 0.8060938907644252 0.45173915691779 1e-07 1 2 4 5 6 7 8 
3 -9.999999994736442e-08 -9.999999994736442e-08 -1e-07 1.0000001 1.0000001 1e-07 1 1 8 1 3 4 2 -5 -8 -7 -6 
$EndEntities
$Nodes
18 238 1 238
0 1 0 1
1
0 0 0
0 2 0 1
2
1 0 0
0 3 0 1
3
0 1 0
0 4 0 1
4
1 1 0
0 5 0 1
5
0.6191784938076161 0.2295968097146885 0
0 6 0 1
6
0.8060937907644252 0.2648237599609809 0
0 7 0 1
7
0.7708668405181329 0.45173905691779 0
0 8 0 1
8
0.5839515435613238 0.4165121066714976 0
1 1 0 9
9
10
11
12
13
14
15
16
17
0.09999999999999996 0 0
0.1999999999999999 0 0
0.3000000000000001 0 0
0.4000000000000004 0 0
0.5000000000000003 0 0
0.5999999999999999 0 0
0.6999999999999995 0 0
0.7999999999999992 0 0
0.899999999999999 0 0
1 2 0 9
18
19
20
21
22
23
24
25
26
0 0.9 0
0 0.8 0
0 0.7 0
0 0.5999999999999996 0
0 0.4999999999999997 0
0 0.4000000000000001 0
0 0.3000000000000005 0
0 0.2000000000000008 0
0 0.100000000000001 0
1 3 0 9
27
28
29
30
31
32
33
34
35
1 0.09999999999999996 0
1 0.1999999999999999 0
1 0.3000000000000001 0
1 0.4000000000000004 0
1 0.5000000000000003 0
1 0.5999999999999999 0
1 0.6999999999999995 0
1 0.7999999999999992 0
1 0.899999999999999 0
1 4 0 9
36
37
38
39
40
41
42
43
44
0.9 1 0
0.8 1 0
0.7 1 0
0.5999999999999996 1 0
0.4999999999999997 1 0
0.4000000000000001 1 0
0.3000000000000005 1 0
0.2000000000000008 1 0
0.100000000000001 1 0
1 5 0 3
45
46
47
0.6659073180468182 0.2384035472762616 0
0.7126361422860205 0.2472102848378346 0
0.7593649665252227 0.2560170223994078 0
1 6 0 3
48
49
50
0.7972870532028522 0.3115525842001831 0
0.7884803156412791 0.3582814084393852 0
0.7796735780797061 0.4050102326785875 0
1 7 0 3
51
52
53
0.7241380162789308 0.4429323193562169 0
0.6774091920397286 0.4341255817946438 0
0.6306803678005264 0.4253188442330707 0
1 8 0 3
54
55
56
0.5927582811228969 0.3697832824322954 0
0.60156501868447 0.3230544581930933 0
0.610371756246043 0.276325633953891 0
2 2 0 14
57
58
59
60
61
62
63
64
65
66
67
68
69
70
0.6649534300398743 0.3825210473587903 0
0.7305277142940272 0.2918540426701189 0
0.744641665309192 0.3741490617604715 0
0.6418243691769641 0.3065697774625837 0
0.7557682931573722 0.3285864901033043 0
0.7081545594779629 0.3420491977245363 0
0.632808829111684 0.3510962755812993 0
0.6824478529265701 0.290319484013952 0
0.7091030864047295 0.3981363766953727 0
0.6660378081466111 0.3345111564282323 0
0.6469393879846715 0.2702516625797375 0
0.7431059463410775 0.4110842040527409 0
0.7654389378993762 0.2925846541380363 0
0.6210304903272611 0.3890463112553907 0
2 3 0 168
71
72
73
74
75
76
77
78
79
80
81
82
83
84
85
86
87
88
89
90
91
92
93
94
95
96
97
98
99
100
101
102
103
104
105
106
107
108
109
110
111
112
113
114
115
116
117
118
119
120
121
122
123
124
125
126
127
128
129
130
131
132
133
134
135
136
137
138
139
140
141
142
143
144
145
146
147
148
149
150
151
152
153
154
155
156
157
158
159
160
161
162
163
164
165
166
167
168
169
170
171
172
173
174
175
176
177
178
179
180
181
182
183
184
185
186
187
188
189
190
191
192
193
194
195
196
197
198
199
200
201
202
203
204
205
206
207
208
209
210
211
212
213
214
215
216
217
218
219
220
221
222
223
224
225
226
227
228
229
230
231
232
233
234
235
236
237
238
0.5466214236217415 0.3845535925671693 0
0.5367763708919967 0.4350557222103659 0
0.6507432448108206 0.4695240880656033 0
0.4972188270721662 0.4004634246649298 0
0.4864392181959992 0.4549113336250295 0
0.5711575024510694 0.2463132310515115 0
0.4432812187090601 0.4171619467329573 0
0.4320174237491616 0.4752607338655652 0
0.4785629404593755 0.5140496225015763 0
0.4215002626591235 0.5359124705524694 0
0.4716969011744295 0.577375847602389 0
0.4068192478453427 0.6021189254142409 0
0.3860981679950354 0.4348029284333658 0
0.3981233850171075 0.3738544233624048 0
0.6476813053863094 0.9048375167645885 0
0.08954886102884763 0.7507333979773068 0
0.7390629924699315 0.4882035184713107 0
0.3342740455013253 0.3909720228765109 0
0.4625029574322586 0.6518466043132383 0
0.3956443087584599 0.6735210082519436 0
0.5342025811917153 0.6218802238341803 0
0.3472354175118206 0.323411272039555 0
0.3368445190751911 0.6256310614418022 0
0.9218930450995271 0.7501790970810546 0
0.7886521855875059 0.4957925043232811 0
0.7515842477259187 0.5410002565629045 0
0.4464366334877983 0.7169920896974071 0
0.3235842180525565 0.7019283643523615 0
0.2794036002833759 0.3442729305821545 0
0.2797065226353105 0.4196039763395665 0
0.7890761401953573 0.2162171279010277 0
0.2950310631641881 0.2686493785548819 0
0.3708949592898603 0.24671527093298 0
0.69836059043454 0.1907359862132453 0
0.5850898497031467 0.1943203226672527 0
0.5080088013691957 0.3498776275489424 0
0.2666822291423043 0.651640240806744 0
0.8132952322506718 0.5479822941671522 0
0.7713412822787511 0.5998142624798176 0
0.707025708575356 0.5859573459138085 0
0.72593987353718 0.6503555478456751 0
0.8152465180410644 0.44361092555923 0
0.2467915661508151 0.9085915360255701 0
0.5283711264676404 0.2126877559001683 0
0.8394153580111221 0.3403655571267568 0
0.2246283481878772 0.300232887372001 0
0.1604501956970523 0.0883241545367518 0
0.08417641878220955 0.5489537065540925 0
0.8483776401790488 0.2307377727627627 0
0.8250508539779513 0.1711045442913117 0
0.3132121881900002 0.1900496575509312 0
0.3934030440881096 0.1545274191466343 0
0.453915665111657 0.9139756466361996 0
0.248742844636595 0.7302288379556698 0
0.2851352509975588 0.5757839141840339 0
0.6624275484553634 0.6329577958716802 0
0.6799721970744821 0.7027461959861288 0
0.752132141022435 0.7147943150854708 0
0.836141988556131 0.6194014686855679 0
0.5330701003695681 0.1465603519948081 0
0.8500000000000001 0.9133974596215562 0
0.3166021098213478 0.780457216045003 0
0.6028556699993446 0.1325119592423984 0
0.6456382534322112 0.5700046765849555 0
0.6967701125452523 0.7765893847934684 0
0.6215408801621884 0.7513615818169668 0
0.5766863708853033 0.462539848950708 0
0.09280390065764837 0.3446042984169124 0
0.8494269473679491 0.4932897955083533 0
0.8719276926856145 0.4312908248474346 0
0.7749478303608272 0.788429647682431 0
0.1847944942440641 0.6766745163140682 0
0.7507319034861348 0.07977043806784834 0
0.5208241116027337 0.266281167388559 0
0.4730474427257583 0.2373980854856929 0
0.7582495489560479 0.1607335127667734 0
0.8521699133825582 0.2911756797334057 0
0.901615315264812 0.3289258370536119 0
0.8999409409249249 0.1854908362819855 0
0.8710947627488975 0.1205630283781087 0
0.3148911780043293 0.1001989681312356 0
0.881008913501881 0.5600535477095663 0
0.2433031159342307 0.1392673653591411 0
0.4737662944694291 0.3011295532423511 0
0.4633591692082321 0.08867984435367116 0
0.2404963333901052 0.8116912005913841 0
0.5524039423552232 0.9147853763874605 0
0.5021391578831395 0.8353734051297123 0
0.404998689772136 0.8310484531248417 0
0.351092560524304 0.9185729689892317 0
0.08754288171719105 0.644273158224535 0
0.08512272221431605 0.4502603060218427 0
0.1587100358920919 0.4967288832831739 0
0.1553017201720016 0.4099839481419757 0
0.694667905575684 0.5289787943496728 0
0.7487726134722337 0.9206579990668433 0
0.07986559108040636 0.8542991915482983 0
0.08304823723376453 0.2443884808916668 0
0.5609350188012769 0.07415489213501913 0
0.5292581621543148 0.5472973413080743 0
0.91895151378523 0.6399019137870865 0
0.1624065791199007 0.5819215765334386 0
0.1437605378402497 0.9203994214194552 0
0.8389797992024696 0.7046513422460186 0
0.6044364654704183 0.6240832792732242 0
0.5700406800764385 0.6834070557460799 0
0.08301017341390249 0.153882964942399 0
0.1630194302338666 0.1889887480218186 0
0.3504458896662171 0.5536758421691377 0
0.2958199857042037 0.4969981814358012 0
0.6527141595965033 0.08089544122554759 0
0.5566933010235563 0.3387920118599095 0
0.5882614697092147 0.8365735635194492 0
0.565250651175444 0.2924916060760492 0
0.9255081328127253 0.8482865604366017 0
0.919621176440208 0.2598252943710567 0
0.3907907257886653 0.7482890340577466 0
0.1846706887348761 0.7606684085678936 0
0.7436274128584066 0.2111453047384939 0
0.7024520832827633 0.1310472772728765 0
0.6409528060052454 0.1896602409859107 0
0.926793963439968 0.4758917361458673 0
0.4545971020469648 0.3597051234604001 0
0.3693183453223349 0.4911793933838043 0
0.8245452957406199 0.3892726790117711 0
0.6932312102885951 0.4785491277482172 0
0.5297931645115981 0.4885788055200809 0
0.4691474629870827 0.1749745906621711 0
0.57565018376271 0.5147125162343593 0
0.2349500139954686 0.2225817754436039 0
0.5479137125787843 0.7743893549811127 0
0.789671513461865 0.6619918813653181 0
0.2242857894093075 0.5359149476475826 0
0.7132517819970843 0.8476072399319662 0
0.6411342722522072 0.5178450004628675 0
0.3008494421112153 0.8578221781487791 0
0.40718408564483 0.3157437652108148 0
0.1597709103747684 0.834014090001039 0
0.1691401323861653 0.3386453701867339 0
0.9403694440377386 0.1318104261018176 0
0.8515772654918639 0.8116832975780153 0
0.333043413431642 0.4467113004938097 0
0.5103649830925302 0.7116548786583659 0
0.06798520682738141 0.9322402906930574 0
0.07320508075688753 0.07320508075688781 0
0.948911007811848 0.5526475890822774 0
0.8743490971321929 0.3770522618154268 0
0.9316257631399024 0.3903657812447862 0
0.5923460845532305 0.5634910729226653 0
0.2209095900030316 0.3790461104931718 0
0.8062636616039496 0.118439213342609 0
0.2468004581260829 0.06143667275550702 0
0.9267949192431124 0.9267949192431122 0
0.6276835542477782 0.678911181738816 0
0.4297053354386131 0.262196152392778 0
0.6149788879023135 0.4779880595893218 0
0.156224300662363 0.2691773580908162 0
0.4643561964545616 0.7742424036367858 0
0.2209760670314581 0.4578531152558463 0
0.794335628328684 0.8619484810154928 0
0.8310897322753479 0.06074733237796215 0
0.932676424682212 0.06355441935859324 0
0.6522042139405904 0.1431010080909679 0
0.226365668388632 0.6025195801124495 0
0.6535011099600099 0.8233938573652879 0
0.379525652476886 0.06757938145807724 0
0.5249086319280718 0.3097143932231622 0
0.4272396489058848 0.2151623037240513 0
$EndNodes
$Elements
6 474 1 474
1 1 1 10
1 1 9 
2 9 10 
3 10 11 
4 11 12 
5 12 13 
6 13 14 
7 14 15 
8 15 16 
9 16 17 
10 17 2 
1 2 1 10
11 3 18 
12 18 19 
13 19 20 
14 20 21 
15 21 22 
16 22 23 
17 23 24 
18 24 25 
19 25 26 
20 26 1 
1 3 1 10
21 2 27 
22 27 28 
23 28 29 
24 29 30 
25 30 31 
26 31 32 
27 32 33 
28 33 34 
29 34 35 
30 35 4 
1 4 1 10
31 4 36 
32 36 37 
33 37 38 
34 38 39 
35 39 40 
36 40 41 
37 41 42 
38 42 43 
39 43 44 
40 44 3 
2 2 2 42
41 62 65 57 
42 62 64 58 
43 57 66 62 
44 62 66 64 
45 59 65 62 
46 61 62 58 
47 64 66 60 
48 47 58 46 
49 53 57 52 
50 50 59 49 
51 56 60 55 
52 63 66 57 
53 49 61 48 
54 55 63 54 
55 52 65 51 
56 46 64 45 
57 59 62 61 
58 58 64 46 
59 57 65 52 
60 59 61 49 
61 60 63 55 
62 6 69 47 
63 8 70 53 
64 5 67 56 
65 7 68 50 
66 51 68 7 
67 45 67 5 
68 48 69 6 
69 54 70 8 
70 64 67 45 
71 65 68 51 
72 61 69 48 
73 63 70 54 
74 50 68 59 
75 56 67 60 
76 47 69 58 
77 53 70 57 
78 59 68 65 
79 60 67 64 
80 57 70 63 
81 58 69 61 
82 60 66 63 
2 3 2 392
83 152 171 129 
84 169 181 133 
85 29 218 148 
86 119 186 147 
87 86 161 142 
88 128 174 141 
89 130 198 155 
90 152 216 171 
91 91 213 89 
92 28 186 149 
93 155 169 130 
94 192 218 30 
95 53 137 8 
96 53 226 137 
97 73 226 53 
98 153 178 117 
99 142 188 86 
100 149 186 119 
101 14 181 169 
102 176 213 91 
103 174 211 141 
104 159 206 132 
105 136 201 176 
106 155 198 122 
107 6 147 48 
108 31 192 30 
109 113 208 156 
110 48 147 115 
111 170 219 91 
112 113 160 42 
113 199 226 205 
114 148 186 29 
115 201 213 176 
116 231 232 150 
117 173 208 113 
118 161 172 142 
119 132 187 159 
120 133 191 105 
121 149 210 28 
122 146 189 104 
123 13 169 155 
124 117 178 177 
125 96 165 87 
126 91 219 175 
127 160 206 159 
128 42 160 41 
129 118 172 161 
130 123 158 157 
131 11 236 151 
132 7 112 95 
133 205 219 199 
134 176 224 136 
135 30 218 29 
136 138 164 162 
137 171 216 32 
138 16 143 15 
139 123 157 40 
140 104 190 146 
141 105 191 5 
142 191 233 104 
143 118 161 21 
144 122 236 155 
145 138 162 23 
146 110 165 96 
147 162 163 118 
148 117 222 153 
149 151 222 11 
150 17 232 231 
151 86 208 167 
152 196 205 73 
153 134 165 110 
154 188 208 86 
155 171 174 129 
156 123 159 158 
157 162 164 163 
158 24 168 138 
159 13 155 12 
160 140 218 192 
161 131 230 211 
162 157 183 85 
163 39 157 85 
164 126 134 110 
165 41 160 123 
166 20 161 86 
167 22 162 118 
168 37 166 131 
169 39 85 38 
170 41 123 40 
171 131 211 185 
172 22 118 21 
173 20 86 19 
174 14 169 13 
175 201 228 213 
176 86 167 19 
177 43 113 42 
178 85 166 38 
179 24 138 23 
180 25 168 24 
181 165 196 87 
182 163 172 118 
183 112 139 95 
184 82 179 80 
185 180 229 100 
186 168 227 138 
187 89 213 97 
188 33 171 32 
189 113 206 160 
190 40 157 39 
191 10 117 9 
192 106 193 154 
193 21 161 20 
194 183 235 85 
195 23 162 22 
196 15 181 14 
197 29 186 28 
198 138 227 209 
199 143 181 15 
200 81 170 91 
201 177 178 168 
202 34 94 33 
203 19 167 18 
204 165 205 196 
205 38 166 37 
206 37 131 36 
207 43 173 113 
208 93 179 82 
209 133 233 191 
210 116 227 200 
211 79 170 81 
212 153 200 178 
213 151 236 122 
214 44 173 43 
215 158 183 157 
216 123 160 159 
217 154 237 106 
218 147 148 115 
219 163 203 172 
220 126 175 134 
221 102 103 92 
222 25 177 168 
223 141 230 204 
224 128 202 174 
225 26 177 25 
226 81 91 89 
227 95 139 108 
228 94 171 33 
229 107 125 93 
230 180 194 179 
231 121 122 103 
232 100 212 180 
233 35 185 34 
234 141 204 135 
235 104 233 190 
236 79 197 170 
237 139 152 108 
238 109 110 96 
239 125 179 93 
240 200 227 178 
241 10 222 117 
242 103 207 92 
243 198 238 122 
244 12 236 11 
245 18 214 3 
246 135 136 127 
247 34 185 94 
248 90 93 82 
249 8 71 54 
250 144 154 145 
251 112 195 140 
252 111 126 110 
253 125 180 179 
254 3 214 44 
255 98 132 124 
256 7 87 51 
257 88 100 99 
258 193 207 154 
259 75 79 78 
260 94 211 174 
261 98 107 93 
262 124 142 107 
263 102 121 103 
264 52 73 53 
265 54 182 55 
266 94 174 171 
267 203 234 172 
268 213 228 97 
269 132 156 124 
270 51 196 52 
271 121 153 151 
272 98 124 107 
273 72 197 75 
274 55 184 56 
275 90 98 93 
276 85 235 204 
277 76 144 114 
278 74 106 71 
279 89 97 90 
280 79 81 80 
281 146 190 143 
282 121 151 122 
283 1 215 26 
284 9 215 1 
285 81 89 82 
286 89 90 82 
287 111 127 126 
288 156 206 113 
289 137 197 72 
290 75 78 77 
291 56 76 5 
292 81 82 80 
293 4 223 35 
294 36 223 4 
295 108 152 129 
296 109 111 110 
297 175 176 91 
298 8 72 71 
299 99 116 102 
300 72 75 74 
301 8 137 72 
302 75 77 74 
303 78 83 77 
304 99 102 92 
305 79 80 78 
306 144 237 154 
307 88 99 92 
308 153 222 151 
309 83 84 77 
310 181 233 133 
311 203 229 180 
312 98 187 132 
313 128 141 135 
314 100 229 220 
315 134 219 205 
316 124 188 142 
317 71 182 54 
318 179 194 80 
319 88 92 84 
320 72 74 71 
321 16 231 143 
322 47 101 6 
323 156 188 124 
324 28 210 27 
325 46 189 47 
326 128 135 127 
327 138 209 164 
328 45 104 46 
329 97 187 90 
330 87 196 51 
331 90 187 98 
332 111 128 127 
333 83 88 84 
334 136 224 127 
335 52 196 73 
336 76 184 144 
337 144 145 114 
338 143 190 181 
339 48 115 49 
340 182 184 55 
341 158 228 201 
342 172 234 142 
343 130 133 105 
344 84 207 193 
345 108 109 96 
346 5 191 45 
347 88 212 100 
348 180 212 194 
349 75 197 79 
350 101 146 120 
351 164 229 163 
352 106 182 71 
353 112 140 139 
354 49 195 50 
355 220 229 164 
356 187 228 159 
357 183 201 136 
358 17 231 16 
359 174 202 129 
360 142 234 107 
361 7 95 87 
362 50 112 7 
363 78 194 83 
364 80 194 78 
365 121 200 153 
366 56 184 76 
367 134 205 165 
368 108 129 109 
369 85 204 166 
370 126 224 175 
371 74 193 106 
372 103 225 207 
373 204 230 166 
374 95 96 87 
375 77 193 74 
376 166 230 131 
377 155 236 12 
378 84 193 77 
379 197 199 170 
380 159 228 158 
381 116 200 102 
382 97 228 187 
383 195 217 140 
384 175 224 176 
385 130 169 133 
386 158 201 183 
387 99 220 116 
388 101 189 146 
389 150 232 210 
390 147 186 148 
391 95 108 96 
392 132 206 156 
393 119 147 6 
394 120 150 149 
395 139 192 152 
396 26 215 177 
397 167 214 18 
398 167 208 173 
399 122 238 103 
400 145 198 114 
401 76 105 5 
402 114 130 105 
403 137 199 197 
404 76 114 105 
405 140 192 139 
406 117 215 9 
407 101 119 6 
408 32 216 31 
409 47 189 101 
410 44 214 173 
411 129 202 109 
412 125 203 180 
413 102 200 121 
414 178 227 168 
415 111 202 128 
416 35 223 185 
417 109 202 111 
418 104 189 46 
419 175 219 134 
420 143 221 146 
421 177 215 117 
422 11 222 10 
423 131 223 36 
424 173 214 167 
425 2 232 17 
426 27 232 2 
427 45 191 104 
428 114 198 130 
429 199 219 170 
430 194 212 83 
431 101 120 119 
432 148 218 217 
433 92 207 84 
434 115 195 49 
435 120 149 119 
436 185 211 94 
437 125 234 203 
438 185 223 131 
439 136 235 183 
440 83 212 88 
441 50 195 112 
442 116 220 209 
443 120 221 150 
444 156 208 188 
445 100 220 99 
446 127 224 126 
447 211 230 141 
448 154 225 145 
449 150 210 149 
450 107 234 125 
451 145 238 198 
452 217 218 140 
453 148 217 115 
454 190 233 181 
455 143 231 221 
456 135 235 136 
457 137 226 199 
458 192 216 152 
459 31 216 192 
460 146 221 120 
461 182 237 184 
462 207 225 154 
463 205 226 73 
464 209 220 164 
465 204 235 135 
466 115 217 195 
467 209 227 116 
468 106 237 182 
469 221 231 150 
470 184 237 144 
471 103 238 225 
472 163 229 203 
473 210 232 27 
474 225 238 145 
$EndElements
