$MeshFormat
4.1 0 8
$EndMeshFormat
$PhysicalNames
3
1 101 "outer_boundary"
2 1 "material_1"
2 2 "material_2"
$EndPhysicalNames
$Entities
7 7 2 0
1 0 0 0 0 
2 1 0 0 0 
3 0 1 0 0 
4 1 1 0 0 
5 0.5854533910994951 0.3620889263622663 0 0 
6 0.8367713354214303 0.4461857168281553 0 0 
7 0.6382824063402659 0.6217850458048897 0 0 
1 -9.999999994736442e-08 -1e-07 -1e-07 1.0000001 1e-07 1e-07 1 101 2 1 -2 
2 -1e-07 -9.999999994736442e-08 -1e-07 1e-07 1.0000001 1e-07 1 101 2 3 -1 
3 0.9999999000000001 -9.999999994736442e-08 -1e-07 1.0000001 1.0000001 1e-07 1 101 2 2 -4 
4 -9.999999994736442e-08 0.9999999000000001 -1e-07 1.0000001 1.0000001 1e-07 1 101 2 4 -3 
5 0.5854532910994952 0.3620888263622662 -1e-07 0.8367714354214303 0.4461858168281553 1e-07 0 2 5 -6 
6 0.6382823063402659 0.4461856168281553 -1e-07 0.8367714354214303 0.6217851458048896 1e-07 0 2 6 -7 
7 0.5854532910994952 0.3620888263622662 -1e-07 0.6382825063402658 0.6217851458048896 1e-07 0 2 7 -5 
2 0.5854532910994952 0.3620888263622662 -1e-07 0.8367714354214303 0.6217851458048896 1e-07 1 2 3 5 6 7 
3 -9.999999994736442e-08 -9.999999994736442e-08 -1e-07 1.0000001 1.0000001 1e-07 1 1 7 1 3 4 2 -5 -7 -6 
$EndEntities
$Nodes
16 145 1 145
0 1 0 1
1
0 0 0
0 2 0 1
2
1 0 0
0 3 0 1
3
0 1 0
0 4 0 1
4
1 1 0
0 5 0 1
5
0.5854533910994951 0.3620889263622663 0
0 6 0 1
6
0.8367713354214303 0.4461857168281553 0
0 7 0 1
7
0.6382824063402659 0.6217850458048897 0
1 1 0 7
8
9
10
11
12
13
14
0.1249999999999999 0 0
0.2499999999999998 0 0
0.3749999999999993 0 0
0.4999999999999988 0 0
0.6249999999999988 0 0
0.7499999999999991 0 0
0.8749999999999997 0 0
1 2 0 7
15
16
17
18
19
20
21
0 0.8750000000000001 0
0 0.7500000000000002 0
0 0.6250000000000007 0
0 0.5000000000000012 0
0 0.3750000000000012 0
0 0.2500000000000009 0
0 0.1250000000000003 0
1 3 0 7
22
23
24
25
26
27
28
1 0.1249999999999999 0
1 0.2499999999999998 0
1 0.3749999999999993 0
1 0.4999999999999988 0
1 0.6249999999999988 0
1 0.7499999999999991 0
1 0.8749999999999997 0
1 4 0 7
29
30
31
32
33
34
35
0.8750000000000001 1 0
0.7500000000000002 1 0
0.6250000000000007 1 0
0.5000000000000012 1 0
0.3750000000000012 1 0
0.2500000000000009 1 0
0.1250000000000003 1 0
1 5 0 3
36
37
38
0.648282877179979 0.3831131239787385 0
0.711112363260463 0.4041373215952109 0
0.7739418493409467 0.4251615192116831 0
1 6 0 3
39
40
41
0.7871491031511392 0.4900855490723389 0
0.7375268708808479 0.5339853813165227 0
0.6879046386105568 0.5778852135607062 0
1 7 0 3
42
43
44
0.6250751525300732 0.5568610159442338 0
0.6118678987198805 0.4919369860835777 0
0.5986606449096877 0.4270129562229219 0
2 2 0 3
45
46
47
0.7243196170706554 0.4690613514558667 0
0.6746973848003642 0.5129611837000502 0
0.6614901309901716 0.4480371538393944 0
2 3 0 98
48
49
50
51
52
53
54
55
56
57
58
59
60
61
62
63
64
65
66
67
68
69
70
71
72
73
74
75
76
77
78
79
80
81
82
83
84
85
86
87
88
89
90
91
92
93
94
95
96
97
98
99
100
101
102
103
104
105
106
107
108
109
110
111
112
113
114
115
116
117
118
119
120
121
122
123
124
125
126
127
128
129
130
131
132
133
134
135
136
137
138
139
140
141
142
143
144
145
0.5729384009678182 0.6000516170875697 0
0.5352953357488075 0.4068117031343031 0
0.1064647256982209 0.6688502306252594 0
0.108253175473055 0.3125000000000011 0
0.5203556156973902 0.3387761683745136 0
0.4631438812815 0.3889342538155062 0
0.6950694250551304 0.6363885322121602 0
0.6974210502063724 0.3382328966059847 0
0.5707870648673253 0.2911406929455351 0
0.5873833348660542 0.6705627091589172 0
0.5162908067238888 0.6470989764717449 0
0.4470425930830284 0.3102032865866446 0
0.3848137515427049 0.3635054763674835 0
0.4040195012783526 0.4469557985767011 0
0.3658906742787977 0.2777249368120301 0
0.5314419258667865 0.7248908960183786 0
0.4538932768925274 0.702129041754403 0
0.6107592217631594 0.7463526982705835 0
0.3194731538690638 0.4216257056230725 0
0.3414195599110741 0.5108097255839485 0
0.8048769236249085 0.1057793738285334 0
0.8315025241402317 0.371315770616857 0
0.8050075028303136 0.5618062696966503 0
0.3110718874817613 0.9027166810916477 0
0.2541845682329908 0.4839442093618826 0
0.8786483489772338 0.8136637145247804 0
0.4302341530529781 0.2213982624192719 0
0.2745600006917116 0.579001483927167 0
0.4674119770074954 0.8015713354742597 0
0.5059432678059643 0.5749305169551024 0
0.341291032553535 0.1894216222143917 0
0.187782754900236 0.1094401013892842 0
0.2744399889154557 0.249490191612704 0
0.3708002458060677 0.7476280977559323 0
0.5611418623481547 0.1127951905542456 0
0.6854581332347338 0.9070025083413809 0
0.1720227816390984 0.5469697343514907 0
0.3667980155914957 0.6015988379425815 0
0.2103314208170252 0.3917229488386313 0
0.2952488614423215 0.6787046103637906 0
0.6893595244637747 0.10307551715767 0
0.7461329364026805 0.2083318410472308 0
0.8611175560284056 0.2144501634307517 0
0.6435640479241789 0.1913105873353178 0
0.4266158716259449 0.1121185294688588 0
0.4295735899302892 0.9054966510007842 0
0.5505345602858007 0.8910265544454024 0
0.8082514174266502 0.2937599064260191 0
0.1878163783085961 0.8942719881083824 0
0.2606945181542011 0.800431330111429 0
0.1059288271024549 0.4334741105276317 0
0.8960820250843455 0.6959136603242385 0
0.7935161299760364 0.7476689070577345 0
0.4367689170041087 0.5343050729473131 0
0.8937011657187004 0.573314665067005 0
0.8023735405864995 0.6527460190957937 0
0.8078587121590355 0.9093996301421001 0
0.4831776612834678 0.4607943870707017 0
0.09653670375834944 0.183765352974764 0
0.9094528110146489 0.3124999999999996 0
0.8960386345748865 0.394325689421711 0
0.10825694494549 0.8059283785632833 0
0.5622456664495893 0.5358368183277614 0
0.6352772199777341 0.3176744468306136 0
0.5616793367025045 0.2106102626843486 0
0.205154377112161 0.6442719504176253 0
0.7507341246910405 0.5989094111771783 0
0.292370710556213 0.3345403920874218 0
0.5502921558172318 0.4732165671162663 0
0.8450191218839411 0.5076038320655386 0
0.7606647336951179 0.358801744368895 0
0.6844432534824268 0.2668734883279344 0
0.4453305481694337 0.6199733355756102 0
0.2920998001093579 0.0964751145746704 0
0.6619230983367319 0.6884318696123536 0
0.6989988647235063 0.7557944810098044 0
0.5582879091134142 0.7984612451825783 0
0.9119217095998264 0.4660716505637347 0
0.2034764852543645 0.3024720172449373 0
0.5027738361201362 0.2561446982549576 0
0.6312918606438287 0.8284647417042672 0
0.7495521416883548 0.82723790893255 0
0.07749155546696185 0.5586014362759579 0
0.9055659974408006 0.1242847846468439 0
0.3826406733094507 0.6747379850710696 0
0.191677941230696 0.2141456655131876 0
0.09150635094610948 0.09150635094610954 0
0.09150635094610998 0.9084936490538901 0
0.9084936490538902 0.90849364905389 0
0.7402254610835547 0.6881307143314226 0
0.1951638854704789 0.7196373000162775 0
0.3734231148066753 0.837665334993396 0
0.1856168994478923 0.4640277507699091 0
0.7393826782426496 0.2931999753552128 0
0.2594810369815551 0.1703238154814397 0
0.4936476523549855 0.177506568060078 0
0.5097716081230997 0.5166228473146773 0
0.622292164271103 0.2562719626777832 0
$EndNodes
$Elements
6 288 1 288
1 1 1 8
1 1 8 
2 8 9 
3 9 10 
4 10 11 
5 11 12 
6 12 13 
7 13 14 
8 14 2 
1 2 1 8
9 3 15 
10 15 16 
11 16 17 
12 17 18 
13 18 19 
14 19 20 
15 20 21 
16 21 1 
1 3 1 8
17 2 22 
18 22 23 
19 23 24 
20 24 25 
21 25 26 
22 26 27 
23 27 28 
24 28 4 
1 4 1 8
25 4 29 
26 29 30 
27 30 31 
28 31 32 
29 32 33 
30 33 34 
31 34 35 
32 35 3 
2 2 2 16
33 41 7 42 
34 38 6 39 
35 44 5 36 
36 46 47 45 
37 43 47 46 
38 45 47 37 
39 37 47 36 
40 39 45 38 
41 40 45 39 
42 38 45 37 
43 43 46 42 
44 36 47 44 
45 41 46 40 
46 40 46 45 
47 42 46 41 
48 44 47 43 
2 3 2 240
49 81 97 87 
50 90 131 23 
51 86 98 51 
52 102 103 70 
53 84 113 50 
54 23 107 90 
55 51 126 86 
56 95 107 69 
57 24 125 108 
58 76 94 93 
59 50 130 84 
60 82 92 11 
61 86 140 98 
62 76 124 94 
63 81 139 97 
64 31 94 83 
65 2 131 14 
66 82 143 92 
67 88 91 82 
68 73 129 100 
69 92 121 10 
70 96 109 97 
71 109 138 97 
72 23 131 22 
73 97 138 87 
74 90 107 95 
75 84 130 98 
76 22 131 2 
77 11 92 10 
78 94 128 83 
79 98 140 84 
80 117 125 102 
81 12 88 82 
82 102 125 25 
83 68 89 88 
84 99 103 102 
85 87 138 113 
86 73 100 99 
87 78 121 92 
88 104 129 73 
89 25 125 24 
90 89 91 88 
91 96 97 71 
92 68 88 13 
93 93 94 32 
94 107 108 69 
95 100 103 99 
96 34 96 71 
97 70 117 102 
98 73 99 27 
99 32 94 31 
100 49 105 53 
101 97 139 71 
102 114 137 54 
103 14 68 13 
104 69 118 95 
105 91 112 82 
106 31 83 30 
107 27 99 26 
108 12 82 11 
109 51 98 19 
110 71 93 33 
111 34 71 33 
112 20 51 19 
113 68 90 89 
114 26 102 25 
115 17 50 16 
116 13 88 12 
117 90 95 89 
118 77 120 101 
119 83 104 30 
120 9 79 8 
121 33 93 32 
122 103 114 70 
123 19 98 18 
124 35 96 34 
125 53 105 61 
126 67 101 85 
127 28 73 27 
128 98 130 18 
129 123 129 128 
130 20 106 51 
131 14 131 68 
132 99 102 26 
133 54 137 122 
134 89 119 91 
135 50 109 16 
136 67 85 75 
137 93 139 76 
138 69 108 6 
139 17 130 50 
140 87 132 81 
141 106 133 51 
142 61 105 101 
143 21 106 20 
144 30 104 29 
145 51 133 126 
146 16 109 15 
147 61 101 67 
148 103 137 114 
149 10 121 9 
150 122 137 123 
151 101 120 85 
152 24 107 23 
153 85 87 75 
154 49 116 105 
155 53 61 60 
156 95 141 89 
157 7 48 42 
158 44 49 5 
159 101 144 77 
160 42 110 43 
161 43 116 44 
162 58 77 48 
163 67 75 72 
164 87 113 75 
165 1 134 21 
166 8 134 1 
167 62 80 78 
168 61 67 66 
169 72 86 66 
170 3 135 35 
171 15 135 3 
172 128 129 83 
173 4 136 28 
174 29 136 4 
175 36 55 37 
176 75 84 72 
177 76 139 81 
178 89 141 119 
179 75 113 84 
180 41 54 7 
181 9 121 79 
182 86 126 115 
183 53 60 59 
184 61 66 60 
185 67 72 66 
186 127 143 112 
187 76 81 64 
188 37 118 38 
189 115 126 80 
190 74 143 127 
191 112 145 56 
192 48 110 42 
193 62 74 59 
194 44 116 49 
195 40 114 41 
196 78 92 74 
197 7 57 48 
198 60 62 59 
199 110 116 43 
200 62 78 74 
201 5 111 36 
202 49 53 52 
203 77 110 48 
204 57 65 63 
205 49 52 5 
206 105 144 101 
207 63 76 64 
208 63 64 58 
209 57 58 48 
210 39 70 40 
211 38 69 6 
212 6 117 39 
213 53 59 52 
214 58 120 77 
215 62 115 80 
216 86 115 66 
217 57 63 58 
218 66 115 60 
219 24 108 107 
220 60 115 62 
221 123 137 100 
222 52 56 5 
223 71 139 93 
224 64 120 58 
225 56 127 112 
226 83 129 104 
227 79 133 106 
228 50 138 109 
229 100 129 123 
230 55 118 37 
231 21 134 106 
232 100 137 103 
233 104 136 29 
234 109 135 15 
235 79 134 8 
236 18 130 17 
237 36 111 55 
238 123 128 65 
239 91 145 112 
240 106 134 79 
241 41 114 54 
242 35 135 96 
243 111 119 55 
244 28 136 73 
245 108 125 6 
246 74 127 59 
247 96 135 109 
248 64 132 120 
249 56 111 5 
250 73 136 104 
251 124 128 94 
252 84 140 72 
253 63 124 76 
254 122 123 65 
255 57 122 65 
256 7 122 57 
257 38 118 69 
258 65 124 63 
259 70 114 40 
260 54 122 7 
261 68 131 90 
262 85 132 87 
263 120 132 85 
264 118 141 95 
265 39 117 70 
266 81 132 64 
267 65 128 124 
268 59 127 52 
269 78 142 121 
270 80 142 78 
271 112 143 82 
272 6 125 117 
273 52 127 56 
274 79 142 133 
275 113 138 50 
276 92 143 74 
277 121 142 79 
278 126 133 80 
279 72 140 86 
280 110 144 116 
281 55 141 118 
282 119 141 55 
283 116 144 105 
284 111 145 119 
285 77 144 110 
286 119 145 91 
287 133 142 80 
288 56 145 111 
$EndElements
