$MeshFormat
4.1 0 8
$EndMeshFormat
$PhysicalNames
3
1 101 "outer_boundary"
2 1 "material_1"
2 2 "material_2"
$EndPhysicalNames
$Entities
5 5 2 0
1 0 0 0 0 
2 1 0 0 0 
3 0 1 0 0 
4 1 1 0 0 
5 0.813432878051737 0.5674991947528727 0 0 
1 -9.999999994736442e-08 -1e-07 -1e-07 1.0000001 1e-07 1e-07 1 101 2 1 -2 
2 -1e-07 -9.999999994736442e-08 -1e-07 1e-07 1.0000001 1e-07 1 101 2 3 -1 
3 0.9999999000000001 -9.999999994736442e-08 -1e-07 1.0000001 1.0000001 1e-07 1 101 2 2 -4 
4 -9.999999994736442e-08 0.9999999000000001 -1e-07 1.0000001 1.0000001 1e-07 1 101 2 4 -3 
5 0.3802741557498606 0.3509197836019344 -1e-07 0.813432978051737 0.7840786059038108 1e-07 0 2 5 -5 
2 0.3802741557498606 0.3509197836019344 -1e-07 0.813432978051737 0.7840786059038108 1e-07 1 2 1 5 
3 -9.999999994736442e-08 -9.999999994736442e-08 -1e-07 1.0000001 1.0000001 1e-07 1 1 5 1 3 4 2 -5 
$EndEntities
$Nodes
12 169 1 169
0 1 0 1
1
0 0 0
0 2 0 1
2
1 0 0
0 3 0 1
3
0 1 0
0 4 0 1
4
1 1 0
0 5 0 1
5
0.813432878051737 0.5674991947528727 0
1 1 0 7
6
7
8
9
10
11
12
0.1249999999999999 0 0
0.2499999999999998 0 0
0.3749999999999993 0 0
0.4999999999999988 0 0
0.6249999999999988 0 0
0.7499999999999991 0 0
0.8749999999999997 0 0
1 2 0 7
13
14
15
16
17
18
19
0 0.8750000000000001 0
0 0.7500000000000002 0
0 0.6250000000000007 0
0 0.5000000000000012 0
0 0.3750000000000012 0
0 0.2500000000000009 0
0 0.1250000000000003 0
1 3 0 7
20
21
22
23
24
25
26
1 0.1249999999999999 0
1 0.2499999999999998 0
1 0.3749999999999993 0
1 0.4999999999999988 0
1 0.6249999999999988 0
1 0.7499999999999991 0
1 0.8749999999999997 0
1 4 0 7
27
28
29
30
31
32
33
0.8750000000000001 1 0
0.7500000000000002 1 0
0.6250000000000007 1 0
0.5000000000000012 1 0
0.3750000000000012 1 0
0.2500000000000009 1 0
0.1250000000000003 1 0
1 5 0 19
34
35
36
37
38
39
40
41
42
43
44
45
46
47
48
49
50
51
52
0.8028327320656143 0.634425882528532 0
0.7720699102519276 0.6948013197990568 0
0.7241556919469834 0.7427155381040011 0
0.6637802546764587 0.773478359917688 0
0.5968535669007994 0.7840785059038109 0
0.5299268791251399 0.7734783599176883 0
0.4695514418546151 0.7427155381040017 0
0.4216372235496707 0.6948013197990577 0
0.3908744017359836 0.6344258825285329 0
0.3802742557498606 0.5674991947528735 0
0.3908744017359832 0.5005725069772138 0
0.4216372235496699 0.4401970697066888 0
0.4695514418546141 0.3922828514017445 0
0.5299268791251389 0.3615200295880574 0
0.5968535669007984 0.3509198836019344 0
0.663780254676458 0.3615200295880571 0
0.7241556919469829 0.3922828514017439 0
0.7720699102519274 0.4401970697066884 0
0.8028327320656142 0.5005725069772131 0
2 2 0 34
53
54
55
56
57
58
59
60
61
62
63
64
65
66
67
68
69
70
71
72
73
74
75
76
77
78
79
80
81
82
83
84
85
86
0.7501725932538053 0.5917825429328963 0
0.4389309585933776 0.5399246079625368 0
0.5693187657967828 0.7272079503489821 0
0.6184766768575241 0.4094850404276852 0
0.7066178708449004 0.6772634986969739 0
0.7369731113407471 0.4959199692073572 0
0.4669339571794071 0.6345059287110976 0
0.4910550650894824 0.4586568392647657 0
0.76680901684344 0.5405808959336027 0
0.7078003738453124 0.5492067160095671 0
0.6702056934485399 0.5010722149947781 0
0.641476322755398 0.557984123698761 0
0.6025674384717478 0.5074149192325924 0
0.5741797830122832 0.5654240564981842 0
0.6135507052011525 0.618463601139279 0
0.5424838276150641 0.6236713857543967 0
0.537078547516582 0.5112111939058002 0
0.6889262392399671 0.6143998167328177 0
0.4959799515957625 0.5693503163082483 0
0.511258181015005 0.6921097451665464 0
0.5643597165875344 0.4493354143477079 0
0.700993076054097 0.4504741515974748 0
0.6463178397753222 0.672022807490865 0
0.6721187160658235 0.7208978952452855 0
0.5838981435410977 0.6752979609746677 0
0.522511474095575 0.4131166535995263 0
0.4297044536974873 0.5924946409775786 0
0.7458520760234035 0.6434159059761642 0
0.4449887429085091 0.4906295813619147 0
0.5684969762993128 0.3962945193320381 0
0.6213833216858775 0.7293578253240307 0
0.6337639919300764 0.4608716472755714 0
0.483988647717214 0.5154436702051368 0
0.6702111960792534 0.4103237204236871 0
2 3 0 83
87
88
89
90
91
92
93
94
95
96
97
98
99
100
101
102
103
104
105
106
107
108
109
110
111
112
113
114
115
116
117
118
119
120
121
122
123
124
125
126
127
128
129
130
131
132
133
134
135
136
137
138
139
140
141
142
143
144
145
146
147
148
149
150
151
152
153
154
155
156
157
158
159
160
161
162
163
164
165
166
167
168
169
0.3971472899289011 0.3733107511568966 0
0.3539691502019591 0.6912549863465424 0
0.7131415039997656 0.3199709443992408 0
0.3197567184614446 0.5328608515609657 0
0.5548800115356263 0.2966505065725186 0
0.09905253362544597 0.3115779996605879 0
0.3124999999999996 0.1082531754730544 0
0.794204164377263 0.7573917391316476 0
0.1052069820865928 0.6679933794659827 0
0.8098297679899786 0.1070313431031641 0
0.4767783703149211 0.814501452162386 0
0.3176132939708501 0.9036759983701963 0
0.5624999999999988 0.1082531754730546 0
0.839737983599639 0.4437434031592039 0
0.3507754084006414 0.4493513132526216 0
0.2716849979142998 0.4616532386840607 0
0.2405963809301316 0.5267108513113707 0
0.3044854296389528 0.3812193869838111 0
0.3439257664864614 0.3101619896934239 0
0.1924739068124799 0.4740497227798648 0
0.4259630061797622 0.2940500013536359 0
0.6356183583123405 0.2814396207616842 0
0.7065846552613538 0.2439274531625358 0
0.7813669147962896 0.2746378830898759 0
0.6394969064964352 0.8367386447156199 0
0.8385811733457584 0.6899913073455792 0
0.7340483083085921 0.8233715774740209 0
0.8203080564410556 0.8242917174013601 0
0.8777151764803559 0.5102644884345822 0
0.7924846011995617 0.3705166039643225 0
0.8660930168635461 0.6101425343485084 0
0.3952553184113331 0.7672693844994398 0
0.5544576850555032 0.836370185605586 0
0.2580541526575839 0.3071824560550473 0
0.8496160553158794 0.3147971469118012 0
0.3303456672934397 0.6171703813894032 0
0.2745330542586264 0.6727010411223067 0
0.2979453761830008 0.7493354112845667 0
0.1624507251311733 0.5623743094701169 0
0.3724262538818458 0.204690899784654 0
0.4517190081900229 0.2049191127944679 0
0.8630512847540576 0.226727583129087 0
0.6921375740415626 0.09482291760731737 0
0.5766342257675096 0.2244641755425374 0
0.2021076694309979 0.725986036950663 0
0.1878968615974586 0.9047073141931266 0
0.1912484691121389 0.1207892242217516 0
0.0946939496155898 0.1914200768073865 0
0.8807610632121475 0.7578648434044299 0
0.442353523413713 0.1146146786677964 0
0.2769128562279588 0.2163501155813083 0
0.1114390929681524 0.8061729133993825 0
0.6945298398563747 0.909845293526085 0
0.4073116721620596 0.8557881770032996 0
0.4935626772365719 0.8925980546980687 0
0.09836947673108931 0.420380931612212 0
0.2010632846585108 0.3718695262907862 0
0.1923338269891968 0.642705421225642 0
0.9222810135920941 0.4391987942790226 0
0.7546998341090352 0.1829334513649078 0
0.5845078514408145 0.9125920297575598 0
0.9221034399120365 0.6731792846914753 0
0.645662866171247 0.1749771003257422 0
0.185115885920105 0.2501736037920069 0
0.905009421961179 0.8441698575274208 0
0.2423657831974095 0.8178585745352653 0
0.9388549008547603 0.5652215377870725 0
0.4919002497653497 0.3092279195167541 0
0.9047475146737871 0.133448642461686 0
0.8164817437647529 0.9054507179592794 0
0.3371924050339972 0.8172737730136574 0
0.09454019972623062 0.09413028870205936 0
0.08694545023660999 0.9126648662798107 0
0.2581378883907113 0.6022256602263537 0
0.06738574673784647 0.5625000000000009 0
0.5039043172103994 0.2509163504882096 0
0.5147236942181067 0.1784553215594812 0
0.8680171168242978 0.3793516255818977 0
0.9291127895008333 0.329356289916505 0
0.4186975286738968 0.9304124460143128 0
0.1041359710825178 0.5038609927724392 0
0.9320049152085801 0.9334693784406065 0
0.4554133792844667 0.3446874900002918 0
$EndNodes
$Elements
6 336 1 336
1 1 1 8
1 1 6 
2 6 7 
3 7 8 
4 8 9 
5 9 10 
6 10 11 
7 11 12 
8 12 2 
1 2 1 8
9 3 13 
10 13 14 
11 14 15 
12 15 16 
13 16 17 
14 17 18 
15 18 19 
16 19 1 
1 3 1 8
17 2 20 
18 20 21 
19 21 22 
20 22 23 
21 23 24 
22 24 25 
23 25 26 
24 26 4 
1 4 1 8
25 4 27 
26 27 28 
27 28 29 
28 29 30 
29 30 31 
30 31 32 
31 32 33 
32 33 3 
2 2 2 86
33 59 71 68 
34 39 72 55 
35 75 83 77 
36 40 72 39 
37 68 72 59 
38 59 72 41 
39 41 72 40 
40 76 83 75 
41 59 79 71 
42 71 79 54 
43 60 73 69 
44 77 83 55 
45 72 77 55 
46 68 77 72 
47 53 80 70 
48 70 80 57 
49 64 70 67 
50 66 71 69 
51 39 55 38 
52 36 57 35 
53 49 56 48 
54 44 54 43 
55 34 53 5 
56 42 59 41 
57 46 60 45 
58 52 58 51 
59 68 71 66 
60 67 68 66 
61 64 67 66 
62 66 69 65 
63 64 66 65 
64 69 73 65 
65 64 65 63 
66 62 70 64 
67 62 64 63 
68 53 70 62 
69 58 74 51 
70 51 74 50 
71 60 78 73 
72 73 84 65 
73 56 84 73 
74 84 86 74 
75 62 63 58 
76 36 76 57 
77 37 76 36 
78 63 84 74 
79 57 75 70 
80 69 85 60 
81 63 74 58 
82 70 75 67 
83 75 77 67 
84 54 85 71 
85 67 77 68 
86 71 85 69 
87 47 78 46 
88 46 78 60 
89 44 81 54 
90 5 61 52 
91 54 79 43 
92 45 81 44 
93 52 61 58 
94 34 80 53 
95 60 81 45 
96 57 80 35 
97 42 79 59 
98 35 80 34 
99 43 79 42 
100 53 61 5 
101 56 82 48 
102 73 82 56 
103 38 83 37 
104 50 86 49 
105 48 82 47 
106 55 83 38 
107 65 84 63 
108 49 86 56 
109 61 62 58 
110 53 62 61 
111 57 76 75 
112 56 86 84 
113 74 86 50 
114 37 83 76 
115 60 85 81 
116 78 82 73 
117 47 82 78 
118 81 85 54 
2 3 2 218
119 93 136 126 
120 49 108 89 
121 118 124 88 
122 143 150 120 
123 2 155 12 
124 126 136 127 
125 41 118 88 
126 105 137 126 
127 101 104 87 
128 120 137 105 
129 20 155 2 
130 128 155 21 
131 110 116 89 
132 92 150 143 
133 125 144 95 
134 104 105 87 
135 37 113 111 
136 108 109 89 
137 131 152 138 
138 137 150 133 
139 95 161 125 
140 126 137 93 
141 122 160 90 
142 151 156 114 
143 99 136 9 
144 99 163 136 
145 21 165 128 
146 151 168 156 
147 10 129 99 
148 131 138 95 
149 115 117 5 
150 25 151 135 
151 128 165 121 
152 110 121 116 
153 108 149 109 
154 133 150 134 
155 130 149 108 
156 129 149 99 
157 32 132 98 
158 90 160 103 
159 114 156 113 
160 141 147 30 
161 92 143 142 
162 21 155 20 
163 99 149 130 
164 135 148 25 
165 118 157 124 
166 48 108 49 
167 29 147 139 
168 29 139 28 
169 96 129 11 
170 113 139 111 
171 138 152 132 
172 113 156 139 
173 40 118 41 
174 136 163 127 
175 93 137 133 
176 109 149 146 
177 12 155 96 
178 10 99 9 
179 32 98 31 
180 130 163 99 
181 156 168 27 
182 12 96 11 
183 15 95 14 
184 102 143 104 
185 36 113 37 
186 8 93 7 
187 18 92 17 
188 93 133 7 
189 52 115 5 
190 46 169 47 
191 95 138 14 
192 103 160 125 
193 11 129 10 
194 33 132 32 
195 128 146 96 
196 142 143 106 
197 18 134 92 
198 45 101 87 
199 105 107 87 
200 139 147 111 
201 115 145 23 
202 88 122 42 
203 90 101 44 
204 90 102 101 
205 43 122 90 
206 15 161 95 
207 8 136 93 
208 30 147 29 
209 26 151 25 
210 140 166 98 
211 132 152 98 
212 88 123 122 
213 9 136 8 
214 106 143 102 
215 7 133 6 
216 107 162 154 
217 23 153 115 
218 14 138 13 
219 19 134 18 
220 17 142 16 
221 146 149 129 
222 89 116 50 
223 96 146 129 
224 3 159 33 
225 125 160 144 
226 110 146 128 
227 92 142 17 
228 115 153 117 
229 109 110 89 
230 112 148 135 
231 98 166 31 
232 35 112 94 
233 13 159 3 
234 119 147 141 
235 1 158 19 
236 47 169 154 
237 142 167 16 
238 51 116 100 
239 6 158 1 
240 95 144 131 
241 117 153 148 
242 127 162 107 
243 104 120 105 
244 102 104 101 
245 45 87 46 
246 96 155 128 
247 34 117 112 
248 41 88 42 
249 112 135 94 
250 43 90 44 
251 90 103 102 
252 39 119 97 
253 126 127 107 
254 47 91 48 
255 49 89 50 
256 111 119 38 
257 120 150 137 
258 44 101 45 
259 42 122 43 
260 116 164 100 
261 110 128 121 
262 105 126 107 
263 104 143 120 
264 134 150 92 
265 35 94 36 
266 119 141 97 
267 88 124 123 
268 25 148 24 
269 23 145 22 
270 152 157 98 
271 111 147 119 
272 50 116 51 
273 109 146 110 
274 28 156 27 
275 51 100 52 
276 91 108 48 
277 117 148 112 
278 34 112 35 
279 107 169 87 
280 39 97 40 
281 121 164 116 
282 37 111 38 
283 164 165 145 
284 103 125 106 
285 124 157 152 
286 103 106 102 
287 131 144 123 
288 33 159 132 
289 94 135 114 
290 5 117 34 
291 134 158 133 
292 38 119 39 
293 97 118 40 
294 91 130 108 
295 124 131 123 
296 135 151 114 
297 133 158 6 
298 94 113 36 
299 24 153 23 
300 97 141 140 
301 19 158 134 
302 138 159 13 
303 98 157 140 
304 132 159 138 
305 124 152 131 
306 94 114 113 
307 100 115 52 
308 31 166 30 
309 97 140 118 
310 22 165 21 
311 16 161 15 
312 139 156 28 
313 47 154 91 
314 16 167 161 
315 106 167 142 
316 140 157 118 
317 145 165 22 
318 100 145 115 
319 144 160 123 
320 148 153 24 
321 4 168 26 
322 27 168 4 
323 123 160 122 
324 30 166 141 
325 91 162 130 
326 87 169 46 
327 100 164 145 
328 154 162 91 
329 125 167 106 
330 141 166 140 
331 161 167 125 
332 162 163 130 
333 26 168 151 
334 121 165 164 
335 127 163 162 
336 154 169 107 
$EndElements
