$MeshFormat
4.1 0 8
$EndMeshFormat
$PhysicalNames
3
1 101 "outer_boundary"
2 1 "material_1"
2 2 "material_2"
$EndPhysicalNames
$Entities
8 8 2 0
1 0 0 0 0 
2 1 0 0 0 
3 0 1 0 0 
4 1 1 0 0 
5 0.8945041514502924 0.5090725311713786 0 0 
6 0.6256712813935027 0.598563373524772 0 0 
7 0.5361804390401094 0.3297305034679823 0 0 
8 0.8050133090968991 0.240239661114589 0 0 
1 -9.999999994736442e-08 -1e-07 -1e-07 1.0000001 1e-07 1e-07 1 101 2 1 -2 
2 -1e-07 -9.999999994736442e-08 -1e-07 1e-07 1.0000001 1e-07 1 101 2 3 -1 
3 0.9999999000000001 -9.999999994736442e-08 -1e-07 1.0000001 1.0000001 1e-07 1 101 2 2 -4 
4 -9.999999994736442e-08 0.9999999000000001 -1e-07 1.0000001 1.0000001 1e-07 1 101 2 4 -3 
5 0.6256711813935028 0.5090724311713787 -1e-07 0.8945042514502923 0.5985634735247719 1e-07 0 2 5 -6 
6 0.5361803390401094 0.3297304034679823 -1e-07 0.6256713813935026 0.5985634735247719 1e-07 0 2 6 -7 
7 0.5361803390401094 0.240239561114589 -1e-07 0.805013409096899 0.3297306034679823 1e-07 0 2 7 -8 
8 0.8050132090968991 0.240239561114589 -1e-07 0.8945042514502923 0.5090726311713786 1e-07 0 2 8 -5 
2 0.5361803390401094 0.240239561114589 -1e-07 0.8945042514502923 0.5985634735247719 1e-07 1 2 4 5 6 7 8 
3 -9.999999994736442e-08 -9.999999994736442e-08 -1e-07 1.0000001 1.0000001 1e-07 1 1 8 1 3 4 2 -5 -8 -7 -6 
$EndEntities
$Nodes
18 187 1 187
0 1 0 1
1
0 0 0
0 2 0 1
2
1 0 0
0 3 0 1
3
0 1 0
0 4 0 1
4
1 1 0
0 5 0 1
5
0.8945041514502924 0.5090725311713786 0
0 6 0 1
6
0.6256712813935027 0.598563373524772 0
0 7 0 1
7
0.5361804390401094 0.3297305034679823 0
0 8 0 1
8
0.8050133090968991 0.240239661114589 0
1 1 0 7
9
10
11
12
13
14
15
0.1249999999999999 0 0
0.2499999999999998 0 0
0.3749999999999993 0 0
0.4999999999999988 0 0
0.6249999999999988 0 0
0.7499999999999991 0 0
0.8749999999999997 0 0
1 2 0 7
16
17
18
19
20
21
22
0 0.8750000000000001 0
0 0.7500000000000002 0
0 0.6250000000000007 0
0 0.5000000000000012 0
0 0.3750000000000012 0
0 0.2500000000000009 0
0 0.1250000000000003 0
1 3 0 7
23
24
25
26
27
28
29
1 0.1249999999999999 0
1 0.2499999999999998 0
1 0.3749999999999993 0
1 0.4999999999999988 0
1 0.6249999999999988 0
1 0.7499999999999991 0
1 0.8749999999999997 0
1 4 0 7
30
31
32
33
34
35
36
0.8750000000000001 1 0
0.7500000000000002 1 0
0.6250000000000007 1 0
0.5000000000000012 1 0
0.3750000000000012 1 0
0.2500000000000009 1 0
0.1250000000000003 1 0
1 5 0 4
37
38
39
40
0.8407375774389343 0.5269706996420573 0
0.7869710034275764 0.544868868112736 0
0.7332044294162184 0.5627670365834146 0
0.6794378554048606 0.5806652050540932 0
1 6 0 4
41
42
43
44
0.607773112922824 0.5447967995134139 0
0.5898749444521453 0.491030225502056 0
0.5719767759814667 0.437263651490698 0
0.554078607510788 0.3834970774793401 0
1 7 0 4
45
46
47
48
0.5899470130514675 0.3118323349973036 0
0.6437135870628253 0.2939341665266249 0
0.6974801610741833 0.2760359980559463 0
0.7512467350855412 0.2581378295852676 0
1 8 0 4
49
50
51
52
0.8229114775675778 0.294006235125947 0
0.8408096460382565 0.347772809137305 0
0.8587078145089351 0.4015393831486629 0
0.8766059829796138 0.4553059571600208 0
2 2 0 24
53
54
55
56
57
58
59
60
61
62
63
64
65
66
67
68
69
70
71
72
73
74
75
76
0.7481216711796187 0.5091988275891582 0
0.6882943142115459 0.3279804296304745 0
0.6274890791850981 0.4486466699195556 0
0.8145878279428983 0.388768524980345 0
0.6086315647266323 0.3954525245954024 0
0.6602212379779728 0.406827805251938 0
0.6781237754770471 0.4625819186037097 0
0.7206155171216824 0.4176461327659128 0
0.8157284691186545 0.4411594472018908 0
0.7394910656545901 0.3126325656538715 0
0.6443820425061213 0.5026073795548878 0
0.6380828327749364 0.3520229351679858 0
0.7978380320030685 0.4929846889129906 0
0.7863657598909091 0.3407792795206655 0
0.6938126243572544 0.5214606726276652 0
0.7310878023115676 0.3638785870241779 0
0.76133329265756 0.4578728544542669 0
0.7664500264096453 0.4093796621240907 0
0.651928776635765 0.5461011409165814 0
0.7787558138546369 0.2927018937227794 0
0.5886426716482999 0.3559879987102444 0
0.8420419188421019 0.4828150359291165 0
0.6871294407458108 0.372145286463913 0
0.7210653502774691 0.4741602021454186 0
2 3 0 111
77
78
79
80
81
82
83
84
85
86
87
88
89
90
91
92
93
94
95
96
97
98
99
100
101
102
103
104
105
106
107
108
109
110
111
112
113
114
115
116
117
118
119
120
121
122
123
124
125
126
127
128
129
130
131
132
133
134
135
136
137
138
139
140
141
142
143
144
145
146
147
148
149
150
151
152
153
154
155
156
157
158
159
160
161
162
163
164
165
166
167
168
169
170
171
172
173
174
175
176
177
178
179
180
181
182
183
184
185
186
187
0.5690264225664594 0.5862326681666462 0
0.5197835178595521 0.4334128179036401 0
0.105286466056872 0.6878147059620827 0
0.7218214109873609 0.6182793397870461 0
0.09173204585915301 0.3126090958014733 0
0.5907917639450857 0.6466260130219923 0
0.522304433177599 0.6299511047133268 0
0.54503796639809 0.6986540939182588 0
0.4720467133874891 0.6843048072745714 0
0.4497264192688412 0.608859787075005 0
0.5468807615425073 0.2731417063459416 0
0.4890952827790286 0.2945897944848144 0
0.6199381906217309 0.7122318482899213 0
0.3930539721549293 0.667328942361588 0
0.3717223625576787 0.5871966774032209 0
0.3068208682169363 0.0971555238145842 0
0.8302181950696736 0.5850773885334346 0
0.6552102689532291 0.2344149313973474 0
0.4180556426250897 0.7489364635740325 0
0.5002222261943839 0.2240942881163877 0
0.573094277313557 0.7721557869014347 0
0.650787703991745 0.7844793231985785 0
0.3340600840169312 0.7308043437183271 0
0.7626297535143987 0.2026255263816362 0
0.9063265451362488 0.8195608529400419 0
0.4301783652428137 0.2456902359850566 0
0.420155797480656 0.3207046723705195 0
0.3473142556987087 0.2698123666242615 0
0.3459639008998457 0.350270231847161 0
0.822607629148644 0.1861952809848414 0
0.1870952136090639 0.8970593239099953 0
0.4298743570987979 0.5323583430953484 0
0.3514869808452999 0.5065768236263036 0
0.2860385863795765 0.5653207104633415 0
0.2679452090335697 0.4792309949059375 0
0.1946195345937409 0.5383731745268088 0
0.452198574274982 0.1623262316973388 0
0.3580138428723904 0.8206794211431618 0
0.4445275448428258 0.8302463237698334 0
0.53451248006761 0.1637687973425268 0
0.4169014280224 0.4595158732894112 0
0.2629925724322256 0.3045738658160583 0
0.8574840662662379 0.2433081792776174 0
0.7014831455720736 0.7219566601569127 0
0.7365759382514978 0.7945205832583324 0
0.7877321134953883 0.7213772837169939 0
0.5989644455534409 0.8511407784565475 0
0.1843960965819186 0.4509704424516903 0
0.683667439861275 0.08193237602730319 0
0.2183069410952068 0.636474629970022 0
0.9096414201890348 0.1761769944859909 0
0.1913810204899469 0.1006348213477042 0
0.1166236154289559 0.1920803521696881 0
0.9073987821116511 0.3588843128585987 0
0.8906527757685776 0.7052883165766425 0
0.2545256462160367 0.203154305421019 0
0.5021693294781516 0.5631858713348386 0
0.2587815541530145 0.8000428141951927 0
0.1195857631769141 0.8067978583183997 0
0.7551850859734603 0.1240249743052 0
0.8397616839001791 0.09337688028101593 0
0.488949025811552 0.4894058257917605 0
0.8132848059164846 0.8884332470928396 0
0.6767304133875957 0.893629317729502 0
0.4985663043071566 0.3721140590504826 0
0.6678285959509684 0.6524670407625228 0
0.7740052674696418 0.6063417473106205 0
0.6008593659114151 0.2545044688154591 0
0.6075320970606791 0.1913338142607875 0
0.09717869650154309 0.5816815602460118 0
0.7073702535213036 0.2278926121733895 0
0.8173468566170206 0.6524828019533493 0
0.9394097230865098 0.4669846003670099 0
0.3135517748512595 0.646958496651443 0
0.2996227948342522 0.9025047111109396 0
0.3655316529710538 0.177663963648493 0
0.5506511852298078 0.5276030576828016 0
0.5861815880279336 0.09770820991187729 0
0.8777723714184171 0.5584867645769774 0
0.2640022949602645 0.3938378059257877 0
0.1933888062166128 0.7272074790870349 0
0.8819515848755608 0.3020608758217911 0
0.9164244605373419 0.4115428507068583 0
0.1818806482425093 0.2736594191326854 0
0.4972270165803025 0.7583581418651082 0
0.9406851930477003 0.5482130144701305 0
0.4201428415538782 0.3928694571975074 0
0.5442470898669048 0.4757431156741913 0
0.3444071092192097 0.4303835311320181 0
0.3963651691379559 0.1031638850932379 0
0.390137091937545 0.8949108630355979 0
0.09574024835122497 0.0943505458477521 0
0.183529361276175 0.3558794764551881 0
0.09697514793460682 0.4166308176252843 0
0.9089422395857558 0.9077166674609042 0
0.9447362811066053 0.3081475471979621 0
0.5580013861553191 0.2213686149762205 0
0.09150635094610998 0.9084936490538902 0
0.7481153537150858 0.671733350878479 0
0.6796823552731828 0.1657046349225059 0
0.9261359680899368 0.07386403191006286 0
0.9187626704874878 0.2559387193566722 0
0.8269144357136394 0.78583605671697 0
0.5647987978545639 0.9262429680254267 0
0.4688686235109078 0.4294636066465604 0
0.1167937490560854 0.4997582538480714 0
0.5253555598804909 0.8432113096954008 0
0.4780748616339197 0.08334418982706093 0
0.4700086352748111 0.9183915725555793 0
0.2632659489748502 0.7047101709565025 0
0.8927792319868981 0.6124247143517555 0
$EndNodes
$Elements
6 372 1 372
1 1 1 8
1 1 9 
2 9 10 
3 10 11 
4 11 12 
5 12 13 
6 13 14 
7 14 15 
8 15 2 
1 2 1 8
9 3 16 
10 16 17 
11 17 18 
12 18 19 
13 19 20 
14 20 21 
15 21 22 
16 22 1 
1 3 1 8
17 2 23 
18 23 24 
19 24 25 
20 25 26 
21 26 27 
22 27 28 
23 28 29 
24 29 4 
1 4 1 8
25 4 30 
26 30 31 
27 31 32 
28 32 33 
29 33 34 
30 34 35 
31 35 36 
32 36 3 
2 2 2 66
33 66 70 68 
34 56 70 66 
35 59 67 63 
36 57 64 58 
37 69 70 61 
38 66 68 62 
39 65 69 61 
40 64 75 58 
41 59 76 67 
42 61 70 56 
43 39 53 38 
44 42 63 41 
45 59 63 55 
46 55 63 42 
47 44 57 43 
48 47 54 46 
49 52 61 51 
50 48 62 47 
51 43 55 42 
52 58 59 55 
53 51 56 50 
54 47 62 54 
55 57 58 55 
56 58 60 59 
57 51 61 56 
58 43 57 55 
59 38 65 37 
60 50 66 49 
61 46 64 45 
62 40 67 39 
63 54 64 46 
64 53 65 38 
65 39 67 53 
66 56 66 50 
67 62 68 54 
68 41 71 6 
69 6 71 40 
70 49 72 8 
71 45 73 7 
72 37 74 5 
73 8 72 48 
74 5 74 52 
75 7 73 44 
76 68 70 60 
77 53 69 65 
78 60 76 59 
79 58 75 60 
80 54 75 64 
81 67 76 53 
82 69 76 60 
83 60 75 68 
84 40 71 67 
85 64 73 45 
86 66 72 49 
87 65 74 37 
88 44 73 57 
89 52 74 61 
90 63 71 41 
91 48 72 62 
92 62 72 66 
93 57 73 64 
94 61 74 65 
95 67 71 63 
96 60 70 69 
97 68 75 54 
98 53 76 69 
2 3 2 274
99 14 137 136 
100 147 176 100 
101 135 157 134 
102 131 179 122 
103 132 152 104 
104 100 176 136 
105 88 141 103 
106 154 184 12 
107 118 132 104 
108 14 136 125 
109 107 135 134 
110 40 142 6 
111 128 132 129 
112 132 160 129 
113 162 187 155 
114 140 180 123 
115 13 154 12 
116 80 142 40 
117 98 140 123 
118 121 140 98 
119 101 179 131 
120 15 137 14 
121 117 165 163 
122 79 146 126 
123 169 170 81 
124 7 141 88 
125 80 175 142 
126 124 170 169 
127 126 146 112 
128 139 140 121 
129 83 133 77 
130 6 142 82 
131 141 163 103 
132 163 165 105 
133 27 187 162 
134 24 178 127 
135 24 127 23 
136 32 180 140 
137 116 184 154 
138 92 152 132 
139 117 181 138 
140 14 125 13 
141 117 138 108 
142 26 149 25 
143 138 164 153 
144 101 131 28 
145 11 92 10 
146 149 159 25 
147 92 128 10 
148 86 133 83 
149 121 179 139 
150 21 81 20 
151 122 148 131 
152 106 119 8 
153 138 153 133 
154 18 79 17 
155 131 187 27 
156 21 129 81 
157 29 101 28 
158 108 133 86 
159 92 132 128 
160 11 184 166 
161 91 108 86 
162 136 176 125 
163 81 170 20 
164 35 151 34 
165 10 128 9 
166 27 162 26 
167 36 107 35 
168 125 154 13 
169 79 135 17 
170 109 117 108 
171 82 142 89 
172 32 140 31 
173 22 129 21 
174 103 163 105 
175 133 153 77 
176 142 175 120 
177 89 120 98 
178 137 177 127 
179 28 131 27 
180 17 135 16 
181 78 181 141 
182 19 146 18 
183 89 142 120 
184 1 168 22 
185 12 184 11 
186 126 157 79 
187 106 137 127 
188 9 168 1 
189 31 139 30 
190 92 166 152 
191 79 157 135 
192 108 138 133 
193 152 166 113 
194 127 177 23 
195 106 127 119 
196 91 109 108 
197 19 182 146 
198 124 156 111 
199 151 167 34 
200 141 181 163 
201 129 160 81 
202 6 77 41 
203 110 126 112 
204 143 175 80 
205 18 146 79 
206 43 78 44 
207 120 122 121 
208 85 86 83 
209 95 161 115 
210 30 171 4 
211 31 140 139 
212 4 171 29 
213 90 91 86 
214 95 115 114 
215 25 159 130 
216 88 103 102 
217 3 174 36 
218 16 174 3 
219 112 124 111 
220 39 80 40 
221 110 111 109 
222 148 175 143 
223 41 153 42 
224 11 166 92 
225 118 160 132 
226 110 150 126 
227 25 172 24 
228 44 141 7 
229 110 112 111 
230 34 185 33 
231 149 162 5 
232 105 118 104 
233 107 151 35 
234 103 105 104 
235 145 173 116 
236 120 121 98 
237 114 134 99 
238 85 90 86 
239 7 87 45 
240 91 110 109 
241 78 164 138 
242 45 144 46 
243 180 185 183 
244 82 89 84 
245 85 95 90 
246 6 82 77 
247 46 94 47 
248 134 151 107 
249 95 99 90 
250 89 98 97 
251 116 154 145 
252 129 168 128 
253 47 147 48 
254 95 114 99 
255 77 153 41 
256 48 100 8 
257 82 83 77 
258 103 104 102 
259 38 143 39 
260 167 185 34 
261 114 151 134 
262 84 85 83 
263 113 116 96 
264 88 102 96 
265 118 169 160 
266 98 123 97 
267 78 141 44 
268 82 84 83 
269 7 88 87 
270 90 150 91 
271 124 169 156 
272 42 164 43 
273 139 179 101 
274 156 169 118 
275 128 168 9 
276 89 97 84 
277 91 150 110 
278 120 175 122 
279 43 164 78 
280 180 183 123 
281 154 176 145 
282 102 113 96 
283 22 168 129 
284 29 171 101 
285 111 165 109 
286 153 164 42 
287 105 156 118 
288 99 150 90 
289 8 119 49 
290 135 174 16 
291 170 182 19 
292 100 106 8 
293 104 152 102 
294 20 170 19 
295 134 186 99 
296 37 93 38 
297 156 165 111 
298 109 165 117 
299 36 174 107 
300 2 177 15 
301 23 177 2 
302 101 171 139 
303 102 152 113 
304 49 158 50 
305 116 173 96 
306 138 181 78 
307 33 180 32 
308 88 96 87 
309 87 144 45 
310 85 161 95 
311 5 155 37 
312 94 176 147 
313 39 143 80 
314 107 174 135 
315 114 167 151 
316 136 137 106 
317 130 172 25 
318 105 165 156 
319 46 144 94 
320 113 184 116 
321 52 149 5 
322 51 159 52 
323 50 130 51 
324 161 183 115 
325 115 167 114 
326 94 147 47 
327 100 136 106 
328 139 171 30 
329 84 161 85 
330 15 177 137 
331 145 176 94 
332 166 184 113 
333 48 147 100 
334 144 145 94 
335 97 161 84 
336 125 176 154 
337 183 185 115 
338 5 162 155 
339 157 186 134 
340 93 148 143 
341 122 175 148 
342 146 182 112 
343 160 169 81 
344 150 186 126 
345 93 143 38 
346 122 179 121 
347 112 182 124 
348 97 183 161 
349 26 162 149 
350 123 183 97 
351 119 158 49 
352 163 181 117 
353 96 173 87 
354 37 155 93 
355 126 186 157 
356 87 173 144 
357 158 172 130 
358 144 173 145 
359 50 158 130 
360 148 187 131 
361 127 178 119 
362 124 182 170 
363 52 159 149 
364 130 159 51 
365 115 185 167 
366 99 186 150 
367 158 178 172 
368 119 178 158 
369 93 187 148 
370 33 185 180 
371 155 187 93 
372 172 178 24 
$EndElements
