$MeshFormat
4.1 0 8
$EndMeshFormat
$PhysicalNames
3
1 101 "outer_boundary"
2 1 "material_1"
2 2 "material_2"
$EndPhysicalNames
$Entities
7 7 2 0
1 0 0 0 0 
2 1 0 0 0 
3 0 1 0 0 
4 1 1 0 0 
5 0.3954050688214962 0.4401088241875576 0 0 
6 0.6122973804455101 0.7238331266498386 0 0 
7 0.2581387710301481 0.7698052271706251 0 0 
1 -9.999999994736442e-08 -1e-07 -1e-07 1.0000001 1e-07 1e-07 1 101 2 1 -2 
2 -1e-07 -9.999999994736442e-08 -1e-07 1e-07 1.0000001 1e-07 1 101 2 3 -1 
3 0.9999999000000001 -9.999999994736442e-08 -1e-07 1.0000001 1.0000001 1e-07 1 101 2 2 -4 
4 -9.999999994736442e-08 0.9999999000000001 -1e-07 1.0000001 1.0000001 1e-07 1 101 2 4 -3 
5 0.3954049688214962 0.4401087241875576 -1e-07 0.61229748044551 0.7238332266498385 1e-07 0 2 5 -6 
6 0.2581386710301481 0.7238330266498386 -1e-07 0.61229748044551 0.769805327170625 1e-07 0 2 6 -7 
7 0.2581386710301481 0.4401087241875576 -1e-07 0.3954051688214962 0.769805327170625 1e-07 0 2 7 -5 
2 0.2581386710301481 0.4401087241875576 -1e-07 0.61229748044551 0.769805327170625 1e-07 1 2 3 5 6 7 
3 -9.999999994736442e-08 -9.999999994736442e-08 -1e-07 1.0000001 1.0000001 1e-07 1 1 7 1 3 4 2 -5 -7 -6 
$EndEntities
$Nodes
16 235 1 235
0 1 0 1
1
0 0 0
0 2 0 1
2
1 0 0
0 3 0 1
3
0 1 0
0 4 0 1
4
1 1 0
0 5 0 1
5
0.3954050688214962 0.4401088241875576 0
0 6 0 1
6
0.6122973804455101 0.7238331266498386 0
0 7 0 1
7
0.2581387710301481 0.7698052271706251 0
1 1 0 9
8
9
10
11
12
13
14
15
16
0.09999999999999996 0 0
0.1999999999999999 0 0
0.3000000000000001 0 0
0.4000000000000004 0 0
0.5000000000000003 0 0
0.5999999999999999 0 0
0.6999999999999995 0 0
0.7999999999999992 0 0
0.899999999999999 0 0
1 2 0 9
17
18
19
20
21
22
23
24
25
0 0.9 0
0 0.8 0
0 0.7 0
0 0.5999999999999996 0
0 0.4999999999999997 0
0 0.4000000000000001 0
0 0.3000000000000005 0
0 0.2000000000000008 0
0 0.100000000000001 0
1 3 0 9
26
27
28
29
30
31
32
33
34
1 0.09999999999999996 0
1 0.1999999999999999 0
1 0.3000000000000001 0
1 0.4000000000000004 0
1 0.5000000000000003 0
1 0.5999999999999999 0
1 0.6999999999999995 0
1 0.7999999999999992 0
1 0.899999999999999 0
1 4 0 9
35
36
37
38
39
40
41
42
43
0.9 1 0
0.8 1 0
0.7 1 0
0.5999999999999996 1 0
0.4999999999999997 1 0
0.4000000000000001 1 0
0.3000000000000005 1 0
0.2000000000000008 1 0
0.100000000000001 1 0
1 5 0 6
44
45
46
47
48
49
0.4263896847677838 0.4806408673964548 0
0.4573743007140715 0.521172910605352 0
0.4883589166603591 0.5617049538142493 0
0.5193435326066469 0.6022369970231467 0
0.5503281485529345 0.6427690402320438 0
0.5813127644992223 0.6833010834409412 0
1 6 0 6
50
51
52
53
54
55
0.5617032933861728 0.7304005695813794 0
0.5111092063268354 0.7369680125129204 0
0.460515119267498 0.7435354554444613 0
0.4099210322081605 0.7501028983760023 0
0.3593269451488231 0.7566703413075432 0
0.3087328580894856 0.7632377842390841 0
1 7 0 6
56
57
58
59
60
61
0.2777482421431978 0.7227057410301869 0
0.2973577132562475 0.6756062548897488 0
0.3169671843692972 0.6285067687493106 0
0.3365766554823469 0.5814072826088723 0
0.3561861265953967 0.5343077964684342 0
0.3757955977084464 0.4872083103279959 0
2 2 0 15
62
63
64
65
66
67
68
69
70
71
72
73
74
75
76
0.4295305033212102 0.7030034122355641 0
0.3871707425416844 0.5748398396773313 0
0.4687494455473095 0.6088044399546875 0
0.3479518003155849 0.6690388119582078 0
0.530718677439885 0.6898685263724821 0
0.4067802136547341 0.5277403535368931 0
0.3283423292025353 0.7161382980986459 0
0.4997340614935973 0.6493364831635848 0
0.3675612714286347 0.6219393258177696 0
0.3985458873749224 0.6624713690266668 0
0.4181553584879721 0.6153718828862286 0
0.4491399744342598 0.6559039260951258 0
0.4377648296010218 0.5682723967457903 0
0.4801245903805476 0.6964359693040231 0
0.3789364162618727 0.7095708551671051 0
2 3 0 159
77
78
79
80
81
82
83
84
85
86
87
88
89
90
91
92
93
94
95
96
97
98
99
100
101
102
103
104
105
106
107
108
109
110
111
112
113
114
115
116
117
118
119
120
121
122
123
124
125
126
127
128
129
130
131
132
133
134
135
136
137
138
139
140
141
142
143
144
145
146
147
148
149
150
151
152
153
154
155
156
157
158
159
160
161
162
163
164
165
166
167
168
169
170
171
172
173
174
175
176
177
178
179
180
181
182
183
184
185
186
187
188
189
190
191
192
193
194
195
196
197
198
199
200
201
202
203
204
205
206
207
208
209
210
211
212
213
214
215
216
217
218
219
220
221
222
223
224
225
226
227
228
229
230
231
232
233
234
235
0.4805559265921194 0.476690377110574 0
0.5690291710654306 0.5924809673623241 0
0.9134425253292651 0.3377823764334982 0
0.6493098023364103 0.07843674511853987 0
0.3425141235582572 0.4469077797838152 0
0.3672284955459594 0.3957719029701567 0
0.306950234646492 0.4030382891410027 0
0.3296787355765756 0.3465349495826356 0
0.3950171099153449 0.3407254891816849 0
0.9214131774589833 0.5352880927654261 0
0.2886846771994663 0.5843085152494782 0
0.6327252571499379 0.6763815529408024 0
0.6664370737731292 0.7182800143268933 0
0.247050327329051 0.6822930634031568 0
0.3553193465311882 0.2860734251385414 0
0.4224722797153828 0.2810552042127683 0
0.2866917270178637 0.2935520169833156 0
0.68871574026738 0.66610327888987 0
0.7260722363470351 0.7133269373724442 0
0.64373524555649 0.7681109586812012 0
0.5415592701599886 0.7701420019046126 0
0.4402219014327776 0.784184891670808 0
0.3397174740357733 0.8037698274479814 0
0.07978301087360501 0.4525118079187024 0
0.4613076007176251 0.3377257025863315 0
0.4915214443983439 0.2766223480439671 0
0.5309410550043933 0.3379543651732297 0
0.563001958618537 0.2719491234500158 0
0.6037447297394365 0.3364488837266408 0
0.6351330103024835 0.2684699708341428 0
0.6786798189014693 0.3310551799661176 0
0.7091629460054479 0.2690358027863349 0
0.6417789307849343 0.3986364839128461 0
0.7183060929207343 0.396129226579839 0
0.682163956945488 0.4616656873232655 0
0.3144622248485797 0.2263053707762169 0
0.2391209218280644 0.235200965098441 0
0.4538732765790203 0.2166528620133106 0
0.2846911853074018 0.4588462308636556 0
0.08341915602401484 0.8434474159945242 0
0.7503392626460016 0.6548438165740795 0
0.7929406825785881 0.7076593490206391 0
0.763728149702397 0.7710270204616633 0
0.2437832849621528 0.4135390813046964 0
0.8455636144309286 0.08341483951923861 0
0.7579951883288316 0.4605743573683261 0
0.6108105201030141 0.4649629802528191 0
0.08762127183192792 0.6650179441487707 0
0.7097916629436649 0.6062173708715116 0
0.2190905458994335 0.480254243188243 0
0.9047583005196309 0.8438473546729753 0
0.09241863180152121 0.1612152667918214 0
0.2500000000000006 0.9133974596215564 0
0.7749575672577033 0.5919161533207284 0
0.2701045062553428 0.1623225968045868 0
0.6577095969470941 0.9071560749196588 0
0.214517079181966 0.3036263172973553 0
0.3505953016639658 0.1592681013961089 0
0.4494774522872377 0.9128765318780323 0
0.6481237268221929 0.5220413138373292 0
0.5904215930505279 0.2035124522208182 0
0.7937028186703456 0.3957009238911025 0
0.4532587359048062 0.07615535024268122 0
0.158818132664396 0.2451755330421651 0
0.149806217071629 0.328176507277543 0
0.8415276729703547 0.7689280753036649 0
0.8075493831860058 0.8440776505373032 0
0.8691703092219054 0.7000347931603609 0
0.4926073519340736 0.3938180143043277 0
0.8424659578153453 0.4756835148692412 0
0.3451482655282569 0.915558284594626 0
0.08056812499260735 0.7548593027688131 0
0.1514426681301057 0.8023588994625057 0
0.1545975567236743 0.7203750576984929 0
0.1699551426954267 0.6375015937634907 0
0.1140328822011937 0.5809048632093833 0
0.1923487085541926 0.5530500943240055 0
0.1646623549583849 0.8773335759913985 0
0.2301744957144475 0.8293030459856936 0
0.5518389343028702 0.9060513189323873 0
0.6071220547718119 0.8371512614664385 0
0.5784676773655347 0.5255411875013208 0
0.724623866283858 0.8410143887912136 0
0.5445923954330814 0.4698005404882638 0
0.5023554366375167 0.8527715716337645 0
0.5618988140110632 0.4060522640580418 0
0.159627350651882 0.4169677293110761 0
0.5499855080776608 0.07293743684267484 0
0.2663330222939045 0.5251736566645295 0
0.7196108442832416 0.5332699012835991 0
0.7492450801219732 0.08318326559652867 0
0.8000081788855435 0.1701971095112994 0
0.7003512915135037 0.1566716270375489 0
0.9073858019819558 0.1613296626626435 0
0.8569740291769216 0.252366189102607 0
0.395170469848679 0.8634853031764287 0
0.8493048579559517 0.9186874471764404 0
0.1459637064927956 0.5010050021248071 0
0.2924406945718643 0.8566047568611523 0
0.4263888123593926 0.3912680859218398 0
0.9169533488125036 0.759143232107274 0
0.5097143509931119 0.515586151258551 0
0.601496872913076 0.6351607327231998 0
0.6200960331042248 0.5787390646313673 0
0.3233151795754594 0.4976370258464251 0
0.1510961760187019 0.0804005337230429 0
0.2231020956519701 0.7268887702626634 0
0.2670532821677716 0.6347870186878957 0
0.7613534516838423 0.9209616168178618 0
0.4930222916676774 0.7915661700760076 0
0.588055289673639 0.7747877982101501 0
0.3907760295057576 0.8052174711361101 0
0.7519744087996495 0.331085085305877 0
0.7883447006631903 0.528142645797348 0
0.2477230866286042 0.07692084959869983 0
0.9235503907032843 0.4413555714027533 0
0.5387048637041543 0.5553272008779268 0
0.07745937929196967 0.2649909775748817 0
0.1932135758661051 0.1602059575097929 0
0.5129879714959472 0.1527796489917367 0
0.383024686727999 0.2253436308639519 0
0.8261876724533562 0.6445082156765802 0
0.9230242673851095 0.6333258798388277 0
0.3496072418444215 0.07964508375850976 0
0.8460655571722813 0.5681440837113586 0
0.2642927580408762 0.3546812427688634 0
0.6541031373259837 0.6217153441390385 0
0.6978142334279279 0.7734350725185704 0
0.5223612488284752 0.2243032869439697 0
0.2057345169901572 0.7777564475842224 0
0.6642848342581165 0.8270768480277058 0
0.8270519150687796 0.330847489656389 0
0.9355604712976284 0.2502956456397498 0
0.3098438274125899 0.5426454351786517 0
0.08970455614973333 0.9262261091678201 0
0.2880315340747076 0.8070005167276878 0
0.4550272599255625 0.4372117915781533 0
0.4229297276527422 0.152188948204412 0
0.4451705968966077 0.8350169899285251 0
0.0761642407933622 0.3646217475851501 0
0.9268127023373437 0.9267641180203873 0
0.1990487638188175 0.6851088158983222 0
0.2337834048993682 0.5962537971427546 0
0.0679559199135189 0.5268843346505784 0
0.07284620833139532 0.07382666603127663 0
0.6712654963962201 0.5694052740249614 0
0.6020834044348073 0.1372072517584206 0
0.926794919243112 0.07320508075688781 0
0.8625455662332013 0.3982477136275966 0
0.5083272405107957 0.4396955428971105 0
0.2233781841820869 0.6471888577791239 0
0.7823734821036741 0.2601659030531204 0
0.2064053379817012 0.3633981755919068 0
0.3458914675082197 0.8532232057026656 0
0.5490254614700572 0.8251459270661304 0
0.6554167224886094 0.2084962023383148 0
0.1608733822216242 0.9433914289561549 0
0.9306083800634826 0.6967469698453117 0
0.7439655802192439 0.208882314162876 0
$EndNodes
$Elements
6 468 1 468
1 1 1 10
1 1 8 
2 8 9 
3 9 10 
4 10 11 
5 11 12 
6 12 13 
7 13 14 
8 14 15 
9 15 16 
10 16 2 
1 2 1 10
11 3 17 
12 17 18 
13 18 19 
14 19 20 
15 20 21 
16 21 22 
17 22 23 
18 23 24 
19 24 25 
20 25 1 
1 3 1 10
21 2 26 
22 26 27 
23 27 28 
24 28 29 
25 29 30 
26 30 31 
27 31 32 
28 32 33 
29 33 34 
30 34 4 
1 4 1 10
31 4 35 
32 35 36 
33 36 37 
34 37 38 
35 38 39 
36 39 40 
37 40 41 
38 41 42 
39 42 43 
40 43 3 
2 2 2 49
41 6 50 49 
42 55 7 56 
43 5 44 61 
44 51 75 66 
45 68 76 54 
46 51 66 50 
47 65 76 68 
48 69 73 64 
49 62 75 52 
50 67 74 63 
51 47 69 64 
52 72 74 64 
53 52 75 51 
54 59 70 58 
55 63 72 70 
56 45 74 67 
57 71 76 65 
58 58 70 65 
59 63 70 59 
60 71 73 62 
61 49 66 48 
62 60 67 63 
63 53 62 52 
64 46 74 45 
65 61 67 60 
66 50 66 49 
67 63 74 72 
68 70 72 71 
69 48 69 47 
70 72 73 71 
71 44 67 61 
72 65 68 57 
73 66 75 69 
74 64 74 46 
75 57 68 56 
76 73 75 62 
77 53 76 62 
78 60 63 59 
79 62 76 71 
80 69 75 73 
81 47 64 46 
82 58 65 57 
83 70 71 65 
84 45 67 44 
85 64 73 72 
86 54 76 53 
87 56 68 55 
88 55 68 54 
89 66 69 48 
2 3 2 379
90 86 201 146 
91 127 143 142 
92 126 165 153 
93 131 200 134 
94 159 185 132 
95 146 192 86 
96 20 220 152 
97 124 150 148 
98 103 162 145 
99 20 152 124 
100 158 180 78 
101 191 200 131 
102 128 195 140 
103 163 216 141 
104 147 172 135 
105 105 162 103 
106 140 194 128 
107 124 151 150 
108 135 161 156 
109 40 147 135 
110 157 187 96 
111 137 205 196 
112 17 211 3 
113 27 170 26 
114 135 156 39 
115 142 177 127 
116 7 212 155 
117 82 176 5 
118 124 148 19 
119 136 180 158 
120 141 229 163 
121 191 195 182 
122 132 185 37 
123 196 223 137 
124 153 174 126 
125 198 201 199 
126 148 149 116 
127 100 216 163 
128 79 208 171 
129 85 176 82 
130 141 216 194 
131 132 207 159 
132 127 173 143 
133 3 211 43 
134 86 192 30 
135 158 178 160 
136 171 209 79 
137 155 206 7 
138 198 199 144 
139 170 224 26 
140 87 219 165 
141 154 155 129 
142 194 216 23 
143 156 157 132 
144 131 195 191 
145 109 162 105 
146 165 219 153 
147 78 193 158 
148 182 195 128 
149 158 193 178 
150 129 147 41 
151 148 150 149 
152 169 232 223 
153 139 214 200 
154 200 214 134 
155 183 206 150 
156 125 166 130 
157 18 148 116 
158 21 220 20 
159 96 207 157 
160 38 156 132 
161 80 164 13 
162 42 129 41 
163 169 223 80 
164 136 158 123 
165 160 178 77 
166 40 135 39 
167 129 175 147 
168 150 206 149 
169 18 116 17 
170 168 169 167 
171 111 123 109 
172 162 226 145 
173 167 169 80 
174 20 124 19 
175 128 194 24 
176 38 132 37 
177 151 218 150 
178 149 155 154 
179 14 167 80 
180 158 160 123 
181 111 166 136 
182 98 215 188 
183 111 136 123 
184 101 176 85 
185 152 153 151 
186 156 231 157 
187 163 174 100 
188 149 154 116 
189 41 147 40 
190 219 227 151 
191 103 145 101 
192 12 164 139 
193 39 156 38 
194 22 100 21 
195 19 148 18 
196 186 215 98 
197 116 211 17 
198 161 231 156 
199 31 86 30 
200 34 127 33 
201 143 185 159 
202 121 168 167 
203 153 219 151 
204 14 80 13 
205 12 139 11 
206 211 233 43 
207 157 207 132 
208 173 185 143 
209 29 79 28 
210 159 204 119 
211 110 111 109 
212 25 128 24 
213 124 152 151 
214 97 231 186 
215 121 167 15 
216 13 164 12 
217 33 177 32 
218 107 109 105 
219 123 162 109 
220 188 230 99 
221 145 176 101 
222 170 171 168 
223 126 174 163 
224 115 181 165 
225 15 167 14 
226 159 207 204 
227 155 175 129 
228 115 165 126 
229 139 200 11 
230 127 177 33 
231 152 174 153 
232 122 166 111 
233 166 190 130 
234 121 170 168 
235 161 215 186 
236 77 226 160 
237 16 121 15 
238 145 213 176 
239 145 226 213 
240 149 206 155 
241 92 101 85 
242 43 233 42 
243 79 209 28 
244 188 215 172 
245 107 110 109 
246 37 185 36 
247 102 103 101 
248 171 228 168 
249 155 212 175 
250 32 199 31 
251 80 223 164 
252 186 231 161 
253 30 192 29 
254 160 162 123 
255 36 173 35 
256 165 210 87 
257 204 207 96 
258 110 122 111 
259 164 223 196 
260 168 235 169 
261 125 222 166 
262 129 233 154 
263 160 226 162 
264 157 231 187 
265 9 191 182 
266 176 213 5 
267 104 105 103 
268 42 233 129 
269 27 209 170 
270 143 159 119 
271 223 232 137 
272 23 216 22 
273 92 102 101 
274 9 182 8 
275 164 196 139 
276 44 77 45 
277 187 231 97 
278 228 235 168 
279 45 178 46 
280 106 107 105 
281 94 125 117 
282 47 78 48 
283 175 212 99 
284 46 193 47 
285 181 210 165 
286 48 179 49 
287 102 104 103 
288 49 88 6 
289 84 85 82 
290 29 192 79 
291 172 230 188 
292 133 141 140 
293 93 202 133 
294 131 134 112 
295 93 133 113 
296 61 81 5 
297 166 222 136 
298 10 200 191 
299 104 137 106 
300 106 108 107 
301 31 199 86 
302 8 221 1 
303 60 181 61 
304 35 217 4 
305 138 146 122 
306 4 217 34 
307 91 92 85 
308 58 87 59 
309 104 106 105 
310 1 221 25 
311 110 138 122 
312 57 184 58 
313 199 201 86 
314 2 224 16 
315 26 224 2 
316 56 90 57 
317 135 215 161 
318 10 191 9 
319 133 140 113 
320 232 235 108 
321 133 229 141 
322 24 194 23 
323 121 224 170 
324 150 218 183 
325 177 234 32 
326 36 185 173 
327 118 144 142 
328 118 119 95 
329 92 114 102 
330 77 178 45 
331 7 183 56 
332 81 115 83 
333 32 234 199 
334 115 126 120 
335 52 98 53 
336 88 89 6 
337 213 226 77 
338 142 143 119 
339 51 186 52 
340 141 194 140 
341 53 188 54 
342 81 82 5 
343 125 130 117 
344 84 93 91 
345 50 97 51 
346 178 193 46 
347 54 99 55 
348 108 189 107 
349 93 113 112 
350 84 91 85 
351 89 96 6 
352 94 203 125 
353 100 220 21 
354 107 189 110 
355 6 187 50 
356 113 131 112 
357 5 213 44 
358 93 112 91 
359 47 193 78 
360 134 197 112 
361 122 190 166 
362 78 179 48 
363 118 142 119 
364 49 179 88 
365 144 177 142 
366 170 209 171 
367 197 214 114 
368 94 95 89 
369 117 118 95 
370 190 201 130 
371 94 117 95 
372 169 235 232 
373 88 94 89 
374 83 84 82 
375 110 189 138 
376 11 200 10 
377 146 190 122 
378 126 163 120 
379 78 180 179 
380 134 214 197 
381 61 181 81 
382 115 120 83 
383 22 216 100 
384 81 83 82 
385 104 205 137 
386 140 195 113 
387 203 222 125 
388 58 184 87 
389 91 197 92 
390 114 214 196 
391 81 181 115 
392 99 230 175 
393 172 215 135 
394 55 212 7 
395 175 230 147 
396 92 197 114 
397 90 184 57 
398 28 209 27 
399 113 195 131 
400 59 210 60 
401 7 206 183 
402 102 205 104 
403 180 222 203 
404 119 204 95 
405 118 198 144 
406 34 217 127 
407 112 197 91 
408 196 205 114 
409 56 183 90 
410 114 205 102 
411 154 233 211 
412 136 222 180 
413 60 210 181 
414 87 210 59 
415 96 187 6 
416 84 202 93 
417 130 198 117 
418 25 221 128 
419 52 186 98 
420 117 198 118 
421 98 188 53 
422 147 230 172 
423 97 186 51 
424 54 188 99 
425 130 201 198 
426 106 232 108 
427 154 211 116 
428 50 187 97 
429 127 217 173 
430 79 225 208 
431 44 213 77 
432 202 229 133 
433 83 202 84 
434 16 224 121 
435 88 203 94 
436 189 208 138 
437 179 203 88 
438 99 212 55 
439 95 204 89 
440 180 203 179 
441 120 202 83 
442 128 221 182 
443 89 204 96 
444 173 217 35 
445 152 220 174 
446 196 214 139 
447 208 225 138 
448 182 221 8 
449 146 225 192 
450 184 219 87 
451 138 225 146 
452 174 220 100 
453 108 228 189 
454 192 225 79 
455 183 218 90 
456 120 229 202 
457 189 228 208 
458 163 229 120 
459 137 232 106 
460 199 234 144 
461 90 227 184 
462 208 228 171 
463 144 234 177 
464 184 227 219 
465 218 227 90 
466 151 227 218 
467 108 235 228 
468 146 201 190 
$EndElements
