$MeshFormat
4.1 0 8
$EndMeshFormat
$PhysicalNames
3
1 101 "outer_boundary"
2 1 "material_1"
2 2 "material_2"
$EndPhysicalNames
$Entities
7 7 2 0
1 0 0 0 0 
2 1 0 0 0 
3 0 1 0 0 
4 1 1 0 0 
5 0.5329399829447162 0.464003525458438 0 0 
6 0.6617544842434443 0.1711083880183462 0 0 
7 0.8510018632621345 0.4291125872389143 0 0 
1 -9.999999994736442e-08 -1e-07 -1e-07 1.0000001 1e-07 1e-07 1 101 2 1 -2 
2 -1e-07 -9.999999994736442e-08 -1e-07 1e-07 1.0000001 1e-07 1 101 2 3 -1 
3 0.9999999000000001 -9.999999994736442e-08 -1e-07 1.0000001 1.0000001 1e-07 1 101 2 2 -4 
4 -9.999999994736442e-08 0.9999999000000001 -1e-07 1.0000001 1.0000001 1e-07 1 101 2 4 -3 
5 0.5329398829447163 0.1711082880183462 -1e-07 0.6617545842434442 0.464003625458438 1e-07 0 2 5 -6 
6 0.6617543842434443 0.1711082880183462 -1e-07 0.8510019632621344 0.4291126872389143 1e-07 0 2 6 -7 
7 0.5329398829447163 0.4291124872389143 -1e-07 0.8510019632621344 0.464003625458438 1e-07 0 2 7 -5 
2 0.5329398829447163 0.1711082880183462 -1e-07 0.8510019632621344 0.464003625458438 1e-07 1 2 3 5 6 7 
3 -9.999999994736442e-08 -9.999999994736442e-08 -1e-07 1.0000001 1.0000001 1e-07 1 1 7 1 3 4 2 -5 -7 -6 
$EndEntities
$Nodes
16 153 1 153
0 1 0 1
1
0 0 0
0 2 0 1
2
1 0 0
0 3 0 1
3
0 1 0
0 4 0 1
4
1 1 0
0 5 0 1
5
0.5329399829447162 0.464003525458438 0
0 6 0 1
6
0.6617544842434443 0.1711083880183462 0
0 7 0 1
7
0.8510018632621345 0.4291125872389143 0
1 1 0 7
8
9
10
11
12
13
14
0.1249999999999999 0 0
0.2499999999999998 0 0
0.3749999999999993 0 0
0.4999999999999988 0 0
0.6249999999999988 0 0
0.7499999999999991 0 0
0.8749999999999997 0 0
1 2 0 7
15
16
17
18
19
20
21
0 0.8750000000000001 0
0 0.7500000000000002 0
0 0.6250000000000007 0
0 0.5000000000000012 0
0 0.3750000000000012 0
0 0.2500000000000009 0
0 0.1250000000000003 0
1 3 0 7
22
23
24
25
26
27
28
1 0.1249999999999999 0
1 0.2499999999999998 0
1 0.3749999999999993 0
1 0.4999999999999988 0
1 0.6249999999999988 0
1 0.7499999999999991 0
1 0.8749999999999997 0
1 4 0 7
29
30
31
32
33
34
35
0.8750000000000001 1 0
0.7500000000000002 1 0
0.6250000000000007 1 0
0.5000000000000012 1 0
0.3750000000000012 1 0
0.2500000000000009 1 0
0.1250000000000003 1 0
1 5 0 4
36
37
38
39
0.5587028832044618 0.4054244979704196 0
0.5844657834642075 0.3468454704824012 0
0.6102286837239531 0.2882664429943829 0
0.6359915839836988 0.2296874155063643 0
1 6 0 4
40
41
42
43
0.6996039600471824 0.2227092278624599 0
0.7374534358509204 0.2743100677065735 0
0.7753029116546585 0.3259109075506872 0
0.8131523874583966 0.3775117473948009 0
1 7 0 4
44
45
46
47
0.7873894871986508 0.436090774882819 0
0.7237771111351671 0.4430689625267238 0
0.6601647350716834 0.4500471501706285 0
0.5965523590081996 0.4570253378145333 0
2 2 0 6
48
49
50
51
52
53
0.6480781595276911 0.3398672828384964 0
0.6223152592679454 0.3984463103265149 0
0.7495400113949128 0.3844899350387055 0
0.6738410597874368 0.2812882553504781 0
0.6859276353314291 0.3914681226826102 0
0.7116905355911748 0.3328890951945919 0
2 3 0 100
54
55
56
57
58
59
60
61
62
63
64
65
66
67
68
69
70
71
72
73
74
75
76
77
78
79
80
81
82
83
84
85
86
87
88
89
90
91
92
93
94
95
96
97
98
99
100
101
102
103
104
105
106
107
108
109
110
111
112
113
114
115
116
117
118
119
120
121
122
123
124
125
126
127
128
129
130
131
132
133
134
135
136
137
138
139
140
141
142
143
144
145
146
147
148
149
150
151
152
153
0.4935198882687001 0.410456364660352 0
0.6943254187705085 0.5030218872380211 0
0.4657956704285133 0.4725457944950737 0
0.5076534102760063 0.5266700405516042 0
0.4351793923191281 0.5383626092206139 0
0.4250697533005023 0.415508031674422 0
0.4853013441104112 0.5999267996681434 0
0.4022651891916558 0.611612087490935 0
0.5541612247836857 0.2981504899095592 0
0.6952754348302703 0.9036354936505766 0
0.3527184224595293 0.5438559059047956 0
0.3141455602878213 0.6236272314351757 0
0.1120047102308085 0.2987446074997296 0
0.4540836873274833 0.6794074034765146 0
0.5425434776703111 0.6647683070935754 0
0.8903916397783964 0.6842506379605049 0
0.7567596077095375 0.2194873664045513 0
0.3151971431121182 0.1011105701411376 0
0.8327286355493344 0.4992391574470504 0
0.5914865606016393 0.1785528314396871 0
0.2634571662573062 0.5460698950066943 0
0.301571036525727 0.8998975631070796 0
0.5102221435278123 0.7484954373373409 0
0.2062112315304458 0.6276533526152097 0
0.6017043704450249 0.7310132090245478 0
0.6303214246404486 0.6474395290414321 0
0.7050135006110646 0.7188158071657844 0
0.8411052326674604 0.3173263842614491 0
0.1186758317119816 0.8063164205904301 0
0.3061714866320298 0.4580315476395528 0
0.2119318351621091 0.4543048377728748 0
0.257502345128116 0.3692224381701236 0
0.7233863902740136 0.6255034932184044 0
0.4525653746377366 0.346520638838233 0
0.2789279121308298 0.7150861952018832 0
0.4254213727841623 0.7751788609257813 0
0.3815138374300365 0.3522959951176439 0
0.4097865395504229 0.2765956722292016 0
0.3168698955244479 0.2910960308777646 0
0.9182834384132535 0.1998484482967481 0
0.4883729941098599 0.8501380029002871 0
0.8949751636544899 0.5690558559105904 0
0.09961540654524143 0.5675522232510936 0
0.8986894559100314 0.4839196041181015 0
0.7989567271538398 0.5749663134285941 0
0.1022256001124386 0.6826989209531014 0
0.2183965063135029 0.2881557121200213 0
0.8792513006341056 0.8126214754962771 0
0.8011140342693286 0.746748648944212 0
0.09756502015423324 0.1787150312380857 0
0.5644079208994108 0.5867209407372885 0
0.4359204406248147 0.1179502609559572 0
0.6498384099508338 0.5659166027664246 0
0.6236997179645815 0.1146729566261241 0
0.6997201770858251 0.09091243213598166 0
0.7965736910694751 0.08607718524687835 0
0.8097718124604032 0.9083451357823705 0
0.1061806238075511 0.4354442127461565 0
0.1909665943978257 0.109763662750287 0
0.5483563926939593 0.1021835040311996 0
0.5118095636561856 0.1841931328570984 0
0.1895651118758156 0.9044483923888742 0
0.5902149996227243 0.8947592221196461 0
0.5208534074007238 0.353823658126306 0
0.3644763512553966 0.1976827449921728 0
0.5734264854035269 0.5161610686727915 0
0.761952815569875 0.4986388119288298 0
0.7391199817639529 0.159875009280805 0
0.7999303222692956 0.2627409448078434 0
0.8890698369618215 0.3707290179005255 0
0.5723792079202153 0.2366656031502693 0
0.9190643513665364 0.2953901821257213 0
0.3678591183857245 0.6980270307897612 0
0.6348614816409505 0.4984344093324798 0
0.390238908309233 0.4746015824458745 0
0.6518703631001653 0.8143888235950805 0
0.7287567061101918 0.5549516643982695 0
0.7937923547766625 0.6606483613780696 0
0.2349836686206186 0.8047784177930698 0
0.2692483500334195 0.1946886129779355 0
0.9052956308012799 0.09459860729393094 0
0.5684559480715852 0.8091961030299711 0
0.4944844366623037 0.2715149311259583 0
0.1883895008400344 0.7251251950967774 0
0.9277522312267974 0.4317522418515079 0
0.4067889209943923 0.9025871818573987 0
0.7506104902441535 0.8253201964934798 0
0.3359253382402425 0.7992592082791623 0
0.441600905861987 0.2071716623940185 0
0.9084936490538901 0.90849364905389 0
0.09150635094610993 0.09150635094610998 0
0.3590749117476365 0.4172854052049343 0
0.824362509120672 0.1790959265788652 0
0.09150635094610954 0.9084936490538905 0
0.8645275508571104 0.257209820106549 0
0.1812032041284175 0.3691743616617811 0
0.1774792526605307 0.5262049042784058 0
0.1854866298601869 0.2053676737426986 0
0.3242264952924533 0.3775862834020038 0
0.8445289713408471 0.6222302921694397 0
$EndNodes
$Elements
6 304 1 304
1 1 1 8
1 1 8 
2 8 9 
3 9 10 
4 10 11 
5 11 12 
6 12 13 
7 13 14 
8 14 2 
1 2 1 8
9 3 15 
10 15 16 
11 16 17 
12 17 18 
13 18 19 
14 19 20 
15 20 21 
16 21 1 
1 3 1 8
17 2 22 
18 22 23 
19 23 24 
20 24 25 
21 25 26 
22 26 27 
23 27 28 
24 28 4 
1 4 1 8
25 4 29 
26 29 30 
27 30 31 
28 31 32 
29 32 33 
30 33 34 
31 34 35 
32 35 3 
2 2 2 25
33 6 40 39 
34 5 36 47 
35 44 43 7 
36 47 49 46 
37 51 53 48 
38 36 49 47 
39 41 53 51 
40 37 49 36 
41 44 50 43 
42 43 50 42 
43 48 49 37 
44 40 51 39 
45 45 50 44 
46 39 51 38 
47 41 51 40 
48 38 48 37 
49 48 53 52 
50 46 52 45 
51 49 52 46 
52 38 51 48 
53 48 52 49 
54 42 53 41 
55 50 53 42 
56 45 52 50 
57 52 53 50 
2 3 2 247
58 139 141 89 
59 107 113 12 
60 94 116 32 
61 32 139 94 
62 95 98 72 
63 72 97 95 
64 94 139 89 
65 12 113 11 
66 84 150 111 
67 125 148 93 
68 77 99 96 
69 109 121 108 
70 111 150 96 
71 92 152 85 
72 75 141 139 
73 119 127 106 
74 98 120 72 
75 82 137 132 
76 12 108 107 
77 87 136 117 
78 117 136 62 
79 101 140 102 
80 13 108 12 
81 18 111 96 
82 95 97 25 
83 13 109 108 
84 85 100 92 
85 104 119 106 
86 86 131 80 
87 27 101 69 
88 57 104 60 
89 24 138 123 
90 110 140 101 
91 69 95 26 
92 23 125 93 
93 79 106 86 
94 23 93 22 
95 113 114 105 
96 11 113 105 
97 70 146 122 
98 123 125 24 
99 96 150 77 
100 146 148 122 
101 66 151 100 
102 20 103 66 
103 101 102 69 
104 109 146 121 
105 10 105 71 
106 102 140 80 
107 80 131 102 
108 116 135 129 
109 26 95 25 
110 55 130 106 
111 62 136 124 
112 114 142 105 
113 82 132 115 
114 27 69 26 
115 16 99 82 
116 116 129 63 
117 103 151 66 
118 60 104 68 
119 105 118 71 
120 106 130 86 
121 96 99 17 
122 68 104 79 
123 20 66 19 
124 31 63 30 
125 11 105 10 
126 80 140 129 
127 98 130 120 
128 18 96 17 
129 28 101 27 
130 68 79 78 
131 34 75 33 
132 21 103 20 
133 10 71 9 
134 17 99 16 
135 63 110 30 
136 83 128 64 
137 79 86 80 
138 16 82 15 
139 104 106 79 
140 97 138 25 
141 99 137 82 
142 66 111 19 
143 57 119 104 
144 19 111 18 
145 30 110 29 
146 14 109 13 
147 32 116 31 
148 121 146 70 
149 71 112 9 
150 34 115 75 
151 9 112 8 
152 31 116 63 
153 25 138 24 
154 35 115 34 
155 74 83 64 
156 24 125 23 
157 79 80 78 
158 2 134 14 
159 84 85 83 
160 33 139 32 
161 124 136 114 
162 93 146 134 
163 60 68 67 
164 22 134 2 
165 106 127 55 
166 69 153 95 
167 134 146 109 
168 45 55 46 
169 77 137 99 
170 68 78 76 
171 5 54 36 
172 98 131 86 
173 65 88 77 
174 5 57 56 
175 74 84 83 
176 105 142 118 
177 36 117 37 
178 47 119 5 
179 4 143 28 
180 29 143 4 
181 91 136 87 
182 44 120 45 
183 100 133 92 
184 1 144 21 
185 8 144 1 
186 37 62 38 
187 100 149 66 
188 3 147 35 
189 15 147 3 
190 73 114 113 
191 71 133 112 
192 93 134 22 
193 86 130 98 
194 5 56 54 
195 83 145 128 
196 85 149 100 
197 7 72 44 
198 102 131 69 
199 68 76 67 
200 61 64 58 
201 65 74 64 
202 76 89 67 
203 59 87 54 
204 65 77 74 
205 46 127 47 
206 40 70 41 
207 76 94 89 
208 61 65 64 
209 38 124 39 
210 60 67 61 
211 57 60 58 
212 56 59 54 
213 5 119 57 
214 111 149 84 
215 92 133 118 
216 90 91 87 
217 60 61 58 
218 41 122 42 
219 92 118 91 
220 57 58 56 
221 73 124 114 
222 65 126 88 
223 45 120 55 
224 54 117 36 
225 55 127 46 
226 59 90 87 
227 42 81 43 
228 39 73 6 
229 6 121 40 
230 37 117 62 
231 47 127 119 
232 85 152 83 
233 90 92 91 
234 93 148 146 
235 75 139 33 
236 132 137 88 
237 115 132 75 
238 89 126 67 
239 72 120 44 
240 87 117 54 
241 84 149 85 
242 80 129 78 
243 61 126 65 
244 94 135 116 
245 110 143 29 
246 126 141 88 
247 107 108 6 
248 64 128 58 
249 43 123 7 
250 67 126 61 
251 63 140 110 
252 120 130 55 
253 28 143 101 
254 89 141 126 
255 112 144 8 
256 62 124 38 
257 101 143 110 
258 21 144 103 
259 14 134 109 
260 35 147 115 
261 76 135 94 
262 103 144 112 
263 7 97 72 
264 129 135 78 
265 108 121 6 
266 83 152 145 
267 56 128 59 
268 118 133 71 
269 132 141 75 
270 58 128 56 
271 82 147 15 
272 70 122 41 
273 77 150 74 
274 133 151 112 
275 78 135 76 
276 112 151 103 
277 66 149 111 
278 115 147 82 
279 40 121 70 
280 39 124 73 
281 95 153 98 
282 42 122 81 
283 73 113 107 
284 88 137 77 
285 73 107 6 
286 118 142 91 
287 90 152 92 
288 128 145 59 
289 59 145 90 
290 81 123 43 
291 131 153 69 
292 81 125 123 
293 88 141 132 
294 129 140 63 
295 91 142 136 
296 74 150 84 
297 136 142 114 
298 7 138 97 
299 123 138 7 
300 122 148 81 
301 98 153 131 
302 81 148 125 
303 100 151 133 
304 145 152 90 
$EndElements
