$MeshFormat
4.1 0 8
$EndMeshFormat
$PhysicalNames
3
1 101 "outer_boundary"
2 1 "material_1"
2 2 "material_2"
$EndPhysicalNames
$Entities
7 7 2 0
1 0 0 0 0 
2 1 0 0 0 
3 0 1 0 0 
4 1 1 0 0 
5 0.2396678449131533 0.2678615125693605 0 0 
6 0.5041990612762469 0.07843994355006584 0 0 
7 0.5359773438901166 0.40224148152415 0 0 
1 -9.999999994736442e-08 -1e-07 -1e-07 1.0000001 1e-07 1e-07 1 101 2 1 -2 
2 -1e-07 -9.999999994736442e-08 -1e-07 1e-07 1.0000001 1e-07 1 101 2 3 -1 
3 0.9999999000000001 -9.999999994736442e-08 -1e-07 1.0000001 1.0000001 1e-07 1 101 2 2 -4 
4 -9.999999994736442e-08 0.9999999000000001 -1e-07 1.0000001 1.0000001 1e-07 1 101 2 4 -3 
5 0.2396677449131533 0.07843984355006584 -1e-07 0.5041991612762469 0.2678616125693605 1e-07 0 2 5 -6 
6 0.504198961276247 0.07843984355006584 -1e-07 0.5359774438901166 0.40224158152415 1e-07 0 2 6 -7 
7 0.2396677449131533 0.2678614125693605 -1e-07 0.5359774438901166 0.40224158152415 1e-07 0 2 7 -5 
2 0.2396677449131533 0.07843984355006584 -1e-07 0.5359774438901166 0.40224158152415 1e-07 1 2 3 5 6 7 
3 -9.999999994736442e-08 -9.999999994736442e-08 -1e-07 1.0000001 1.0000001 1e-07 1 1 7 1 3 4 2 -5 -7 -6 
$EndEntities
$Nodes
16 149 1 149
0 1 0 1
1
0 0 0
0 2 0 1
2
1 0 0
0 3 0 1
3
0 1 0
0 4 0 1
4
1 1 0
0 5 0 1
5
0.2396678449131533 0.2678615125693605 0
0 6 0 1
6
0.5041990612762469 0.07843994355006584 0
0 7 0 1
7
0.5359773438901166 0.40224148152415 0
1 1 0 7
8
9
10
11
12
13
14
0.1249999999999999 0 0
0.2499999999999998 0 0
0.3749999999999993 0 0
0.4999999999999988 0 0
0.6249999999999988 0 0
0.7499999999999991 0 0
0.8749999999999997 0 0
1 2 0 7
15
16
17
18
19
20
21
0 0.8750000000000001 0
0 0.7500000000000002 0
0 0.6250000000000007 0
0 0.5000000000000012 0
0 0.3750000000000012 0
0 0.2500000000000009 0
0 0.1250000000000003 0
1 3 0 7
22
23
24
25
26
27
28
1 0.1249999999999999 0
1 0.2499999999999998 0
1 0.3749999999999993 0
1 0.4999999999999988 0
1 0.6249999999999988 0
1 0.7499999999999991 0
1 0.8749999999999997 0
1 4 0 7
29
30
31
32
33
34
35
0.8750000000000001 1 0
0.7500000000000002 1 0
0.6250000000000007 1 0
0.5000000000000012 1 0
0.3750000000000012 1 0
0.2500000000000009 1 0
0.1250000000000003 1 0
1 5 0 4
36
37
38
39
0.2925740881857721 0.2299771987655015 0
0.3454803314583908 0.1920928849616426 0
0.3983865747310095 0.1542085711577837 0
0.4512928180036282 0.1163242573539247 0
1 6 0 4
40
41
42
43
0.5105547177990208 0.1432002511448827 0
0.5169103743217948 0.2079605587396995 0
0.5232660308445688 0.2727208663345163 0
0.5296216873673427 0.3374811739293331 0
1 7 0 4
44
45
46
47
0.4767154440947239 0.3753654877331921 0
0.4174535442993313 0.3484894939422342 0
0.3581916445039387 0.3216135001512763 0
0.298929744708546 0.2947375063603184 0
2 2 0 6
48
49
50
51
52
53
0.4110978877765574 0.2837291863474174 0
0.47035978757195 0.3106051801383753 0
0.3518359879811647 0.2568531925564594 0
0.4576484745264022 0.1810845649487416 0
0.4640041310491761 0.2458448725435584 0
0.4047422312537834 0.2189688787526005 0
2 3 0 96
54
55
56
57
58
59
60
61
62
63
64
65
66
67
68
69
70
71
72
73
74
75
76
77
78
79
80
81
82
83
84
85
86
87
88
89
90
91
92
93
94
95
96
97
98
99
100
101
102
103
104
105
106
107
108
109
110
111
112
113
114
115
116
117
118
119
120
121
122
123
124
125
126
127
128
129
130
131
132
133
134
135
136
137
138
139
140
141
142
143
144
145
146
147
148
149
0.4820828102560232 0.4404122239185032 0
0.5454266828321402 0.4708827484124409 0
0.4833383741502898 0.5135673241638015 0
0.5554174056301987 0.5453844366999983 0
0.5810380310594105 0.2983531307739283 0
0.30528540123132 0.3594978139551352 0
0.4904055257896254 0.5940437286703157 0
0.4130702683608899 0.5567122292187829 0
0.5695162565734643 0.6264981014612527 0
0.6206801248135716 0.5001812020131773 0
0.4196833358319515 0.6451861894315002 0
0.3363318029721616 0.6034831550798483 0
0.8937295867298486 0.3177648313684494 0
0.5610799313528848 0.1762305715107231 0
0.8826669318082737 0.6707558335210209 0
0.3425808839838205 0.7001647196229589 0
0.6838354787811375 0.8820322890054084 0
0.4315338896320516 0.7415383799980588 0
0.232754341498711 0.1978576207515078 0
0.1040469911031414 0.803055470232279 0
0.2540286609718423 0.6559754707538468 0
0.2529247838869351 0.5573177696880893 0
0.8136069789033246 0.09676257823182788 0
0.3613153395688543 0.8090312708709191 0
0.09865825176375564 0.4504425491680601 0
0.1752911851239376 0.2414874876374846 0
0.1641736535884066 0.1542603944005436 0
0.3430342757176947 0.133137570754041 0
0.1841431643777248 0.3134453672507807 0
0.1696536485207373 0.6076443305809986 0
0.4613533968742846 0.8427151129468993 0
0.5300824031600083 0.781060963509547 0
0.23482323830311 0.1135588639589121 0
0.4445045594976218 0.05684249289339149 0
0.8939325306615256 0.4331122748892652 0
0.7966718028593608 0.3752670513785481 0
0.7934752631218561 0.4877054481111485 0
0.7927066636653393 0.2703861489462036 0
0.7010207800904448 0.3214474857055286 0
0.7067235578845952 0.2214141222847903 0
0.889672692619389 0.5500780073556525 0
0.7874188484068508 0.602810461664519 0
0.7744602493244095 0.7131074379567376 0
0.8523285424840533 0.7879665708307131 0
0.6719298871389767 0.6474803542365686 0
0.6763798885980717 0.7581796494315923 0
0.6907721607207165 0.4342706571336355 0
0.6400156534137904 0.3738230937613517 0
0.5681568633364437 0.8950128160970097 0
0.6963863363836464 0.113899578063384 0
0.8835358323784933 0.1943231433411278 0
0.3349706445455334 0.5140527448410536 0
0.2562511429902085 0.4599229932604283 0
0.1787265318938322 0.7161198034394067 0
0.4093128067958198 0.475600560044212 0
0.09300679441427051 0.2895679107810255 0
0.3451727642290004 0.4307445544275531 0
0.2176630980451752 0.377088135418239 0
0.6987454461471314 0.5499130349410341 0
0.5772994572932102 0.23434249683218 0
0.1774825102833691 0.9039016081827222 0
0.8014746743268013 0.8981122992722701 0
0.2862184316629982 0.1652168911706847 0
0.2719069544335295 0.7656547960150467 0
0.2936028303445135 0.8928620502042426 0
0.175449848951846 0.5112065127152554 0
0.4165077397444985 0.4081152305353085 0
0.4984310631354048 0.6764654149969737 0
0.3920309182082358 0.08944826356296698 0
0.5765030537523683 0.1002299860094868 0
0.7576957667028946 0.8078796492993443 0
0.08756988904732566 0.1936394839440599 0
0.08851791715984197 0.5593787613564224 0
0.091087273265336 0.09047636900887113 0
0.5943181789562472 0.4292674299553921 0
0.6432010467258207 0.2609502958368604 0
0.6260281213801582 0.5772687553613958 0
0.2491378506551838 0.3225260671107668 0
0.593288549763975 0.7179577430600654 0
0.9005988464486979 0.8853665702734257 0
0.08878032569050837 0.6695746953650175 0
0.3685222188016177 0.3736921186023014 0
0.6133917999779241 0.8180619747244589 0
0.0875038755246883 0.9108780188537975 0
0.90849364905389 0.09150635094610987 0
0.6353245058510678 0.1884525360595917 0
0.5816370225647949 0.3626977738184952 0
0.1261380823443049 0.3680118659713707 0
0.3076713283284347 0.07817768719615592 0
0.7785918738430797 0.1793571141734667 0
0.3915549136784539 0.9019972949593116 0
0.1957266917592255 0.8128333980257876 0
0.1697800969562839 0.06995833570862248 0
0.6372626633995399 0.3185774560649027 0
0.174832084819058 0.4333344113066707 0
0.4592130347778369 0.9279450448006441 0
$EndNodes
$Elements
6 296 1 296
1 1 1 8
1 1 8 
2 8 9 
3 9 10 
4 10 11 
5 11 12 
6 12 13 
7 13 14 
8 14 2 
1 2 1 8
9 3 15 
10 15 16 
11 16 17 
12 17 18 
13 18 19 
14 19 20 
15 20 21 
16 21 1 
1 3 1 8
17 2 22 
18 22 23 
19 23 24 
20 24 25 
21 25 26 
22 26 27 
23 27 28 
24 28 4 
1 4 1 8
25 4 29 
26 29 30 
27 30 31 
28 31 32 
29 32 33 
30 33 34 
31 34 35 
32 35 3 
2 2 2 25
33 5 36 47 
34 44 43 7 
35 6 40 39 
36 50 53 48 
37 48 52 49 
38 41 52 51 
39 44 49 43 
40 48 53 52 
41 52 53 51 
42 51 53 38 
43 49 52 42 
44 37 53 50 
45 40 51 39 
46 47 50 46 
47 37 50 36 
48 39 51 38 
49 48 49 45 
50 42 52 41 
51 45 49 44 
52 38 53 37 
53 43 49 42 
54 46 48 45 
55 36 50 47 
56 46 50 48 
57 41 51 40 
2 3 2 239
58 59 110 106 
59 27 133 97 
60 100 112 63 
61 68 95 94 
62 123 139 67 
63 28 133 27 
64 98 132 62 
65 106 111 59 
66 90 112 100 
67 68 96 95 
68 103 139 123 
69 68 94 26 
70 63 128 100 
71 77 118 117 
72 11 87 10 
73 118 145 117 
74 99 132 98 
75 73 134 107 
76 16 134 73 
77 27 97 68 
78 100 128 101 
79 103 123 12 
80 89 100 92 
81 100 101 92 
82 109 141 19 
83 88 89 66 
84 70 136 99 
85 26 94 25 
86 85 102 84 
87 62 130 98 
88 29 133 4 
89 20 109 19 
90 99 124 70 
91 96 98 95 
92 24 88 66 
93 89 92 91 
94 23 104 22 
95 90 100 89 
96 4 133 28 
97 56 108 54 
98 88 90 89 
99 95 112 90 
100 106 110 105 
101 24 66 23 
102 89 91 66 
103 92 93 91 
104 19 78 18 
105 25 88 24 
106 76 103 13 
107 103 143 93 
108 25 94 88 
109 8 127 1 
110 31 70 30 
111 111 141 82 
112 75 105 65 
113 96 99 98 
114 27 68 26 
115 31 102 70 
116 66 104 23 
117 102 149 84 
118 65 105 61 
119 16 73 15 
120 75 106 105 
121 68 97 96 
122 71 121 85 
123 111 148 141 
124 105 108 61 
125 93 139 103 
126 14 76 13 
127 32 102 31 
128 1 127 21 
129 61 108 56 
130 144 149 33 
131 98 112 95 
132 94 95 90 
133 104 138 22 
134 13 103 12 
135 74 75 65 
136 99 136 132 
137 33 149 32 
138 71 85 84 
139 116 142 81 
140 114 145 118 
141 110 120 108 
142 19 141 78 
143 81 142 122 
144 88 94 90 
145 76 143 103 
146 34 118 33 
147 30 115 29 
148 79 125 80 
149 70 115 30 
150 108 120 54 
151 105 110 108 
152 109 125 79 
153 35 114 34 
154 78 126 18 
155 74 83 75 
156 7 54 44 
157 91 104 66 
158 9 142 86 
159 92 129 93 
160 6 87 11 
161 64 71 69 
162 42 58 43 
163 60 61 56 
164 110 135 120 
165 44 120 45 
166 122 142 10 
167 3 137 35 
168 71 84 77 
169 74 107 83 
170 2 138 14 
171 22 138 2 
172 69 74 65 
173 15 137 3 
174 86 146 9 
175 83 119 75 
176 71 77 69 
177 75 119 106 
178 17 134 16 
179 55 63 57 
180 64 65 61 
181 57 60 56 
182 46 59 47 
183 64 69 65 
184 121 132 85 
185 132 136 85 
186 57 62 60 
187 60 64 61 
188 74 117 107 
189 5 72 36 
190 115 133 29 
191 55 57 56 
192 114 118 34 
193 112 130 63 
194 54 120 44 
195 86 142 116 
196 85 136 102 
197 69 117 74 
198 55 56 54 
199 102 136 70 
200 119 126 78 
201 7 55 54 
202 36 116 37 
203 41 113 42 
204 77 144 118 
205 64 121 71 
206 84 144 77 
207 77 117 69 
208 18 126 17 
209 59 135 110 
210 97 124 96 
211 5 82 79 
212 37 81 38 
213 101 147 92 
214 10 142 9 
215 96 124 99 
216 21 125 20 
217 76 138 104 
218 98 130 112 
219 62 121 60 
220 38 122 39 
221 80 86 72 
222 70 124 115 
223 60 121 64 
224 32 149 102 
225 111 131 59 
226 9 146 8 
227 47 131 5 
228 39 87 6 
229 83 126 119 
230 63 130 57 
231 118 144 33 
232 104 143 76 
233 40 67 41 
234 120 135 45 
235 5 131 82 
236 42 113 58 
237 5 79 72 
238 91 143 104 
239 58 147 140 
240 20 125 109 
241 73 137 15 
242 107 145 73 
243 45 135 46 
244 58 140 43 
245 115 124 97 
246 14 138 76 
247 57 130 62 
248 83 134 126 
249 6 123 40 
250 55 128 63 
251 46 135 59 
252 126 134 17 
253 59 131 47 
254 125 127 80 
255 113 129 58 
256 72 116 36 
257 86 116 72 
258 141 148 78 
259 82 131 111 
260 82 109 79 
261 79 80 72 
262 7 128 55 
263 97 133 115 
264 107 134 83 
265 114 137 73 
266 117 145 107 
267 43 140 7 
268 73 145 114 
269 37 116 81 
270 80 146 86 
271 35 137 114 
272 62 132 121 
273 7 140 128 
274 93 143 91 
275 81 122 38 
276 113 139 129 
277 127 146 80 
278 92 147 129 
279 67 113 41 
280 87 122 10 
281 21 127 125 
282 140 147 101 
283 39 122 87 
284 67 139 113 
285 119 148 106 
286 82 141 109 
287 40 123 67 
288 106 148 111 
289 8 146 127 
290 128 140 101 
291 129 147 58 
292 84 149 144 
293 78 148 119 
294 129 139 93 
295 11 123 6 
296 12 123 11 
$EndElements
