$MeshFormat
4.1 0 8
$EndMeshFormat
$PhysicalNames
3
1 101 "outer_boundary"
2 1 "material_1"
2 2 "material_2"
$EndPhysicalNames
$Entities
5 5 2 0
1 0 0 0 0 
2 1 0 0 0 
3 0 1 0 0 
4 1 1 0 0 
5 0.7208200602638857 0.6549114568158798 0 0 
1 -9.999999994736442e-08 -1e-07 -1e-07 1.0000001 1e-07 1e-07 1 101 2 1 -2 
2 -1e-07 -9.999999994736442e-08 -1e-07 1e-07 1.0000001 1e-07 1 101 2 3 -1 
3 0.9999999000000001 -9.999999994736442e-08 -1e-07 1.0000001 1.0000001 1e-07 1 101 2 2 -4 
4 -9.999999994736442e-08 0.9999999000000001 -1e-07 1.0000001 1.0000001 1e-07 1 101 2 4 -3 
5 0.4689670521897816 0.5289849027788278 -1e-07 0.7208201602638856 0.7808380108529318 1e-07 0 2 5 -5 
2 0.4689670521897816 0.5289849027788278 -1e-07 0.7208201602638856 0.7808380108529318 1e-07 1 2 1 5 
3 -9.999999994736442e-08 -9.999999994736442e-08 -1e-07 1.0000001 1.0000001 1e-07 1 1 5 1 3 4 2 -5 
$EndEntities
$Nodes
12 232 1 232
0 1 0 1
1
0 0 0
0 2 0 1
2
1 0 0
0 3 0 1
3
0 1 0
0 4 0 1
4
1 1 0
0 5 0 1
5
0.7208200602638857 0.6549114568158798 0
1 1 0 9
6
7
8
9
10
11
12
13
14
0.09999999999999996 0 0
0.1999999999999999 0 0
0.3000000000000001 0 0
0.4000000000000004 0 0
0.5000000000000003 0 0
0.5999999999999999 0 0
0.6999999999999995 0 0
0.7999999999999992 0 0
0.899999999999999 0 0
1 2 0 9
15
16
17
18
19
20
21
22
23
0 0.9 0
0 0.8 0
0 0.7 0
0 0.5999999999999996 0
0 0.4999999999999997 0
0 0.4000000000000001 0
0 0.3000000000000005 0
0 0.2000000000000008 0
0 0.100000000000001 0
1 3 0 9
24
25
26
27
28
29
30
31
32
1 0.09999999999999996 0
1 0.1999999999999999 0
1 0.3000000000000001 0
1 0.4000000000000004 0
1 0.5000000000000003 0
1 0.5999999999999999 0
1 0.6999999999999995 0
1 0.7999999999999992 0
1 0.899999999999999 0
1 4 0 9
33
34
35
36
37
38
39
40
41
0.9 1 0
0.8 1 0
0.7 1 0
0.5999999999999996 1 0
0.4999999999999997 1 0
0.4000000000000001 1 0
0.3000000000000005 1 0
0.2000000000000008 1 0
0.100000000000001 1 0
1 5 0 14
42
43
44
45
46
47
48
49
50
51
52
53
54
55
0.7099331463094223 0.7061303600053493 0
0.6791548507732672 0.7484930495242318 0
0.6338070205656586 0.7746746315017602 0
0.5817307075015962 0.7801480725618146 0
0.5319303792083079 0.7639669650204606 0
0.4930169648694831 0.7289291693723453 0
0.4717189473415754 0.6810930387934085 0
0.4717189473415753 0.6287298748383519 0
0.4930169648694826 0.580893744259415 0
0.5319303792083072 0.5458559486112995 0
0.5817307075015954 0.5296748410699451 0
0.6338070205656581 0.5351482821299992 0
0.6791548507732669 0.5613298641075275 0
0.7099331463094222 0.6036925536264101 0
2 2 0 22
56
57
58
59
60
61
62
63
64
65
66
67
68
69
70
71
72
73
74
75
76
77
0.523795260405638 0.6865664798534626 0
0.6835001266442491 0.6362119096176382 0
0.5700328869779793 0.5787368475190127 0
0.6022423570225974 0.7346663074855279 0
0.6338070205656583 0.5875114460850559 0
0.6578568332453598 0.7006569189452951 0
0.5194303672411864 0.6212338677562469 0
0.5650578174412642 0.7428121285807644 0
0.5708437935471325 0.6965669542896366 0
0.6146529778446933 0.6918047035279222 0
0.5870932358882507 0.6532779468765808 0
0.6418112623281476 0.6441786249337143 0
0.5468782734613061 0.6549114568158799 0
0.5319303792083078 0.7248392047166866 0
0.6047294279633887 0.5613298641075276 0
0.5996257466187431 0.6098881484787037 0
0.5007965399438448 0.6549114568158801 0
0.5319303792083073 0.5849837089150735 0
0.6839700400694747 0.6701485634647729 0
0.6419421393683282 0.7364019066385363 0
0.6700351243659912 0.6045899394731212 0
0.5591651482326289 0.6171719960602495 0
2 3 0 155
78
79
80
81
82
83
84
85
86
87
88
89
90
91
92
93
94
95
96
97
98
99
100
101
102
103
104
105
106
107
108
109
110
111
112
113
114
115
116
117
118
119
120
121
122
123
124
125
126
127
128
129
130
131
132
133
134
135
136
137
138
139
140
141
142
143
144
145
146
147
148
149
150
151
152
153
154
155
156
157
158
159
160
161
162
163
164
165
166
167
168
169
170
171
172
173
174
175
176
177
178
179
180
181
182
183
184
185
186
187
188
189
190
191
192
193
194
195
196
197
198
199
200
201
202
203
204
205
206
207
208
209
210
211
212
213
214
215
216
217
218
219
220
221
222
223
224
225
226
227
228
229
230
231
232
0.4729064170566073 0.5344579606719292 0
0.6125090030377504 0.4873121515510624 0
0.4247505503687333 0.6549072748070983 0
0.3574862656724322 0.08814159948396771 0
0.0713998462624465 0.4506673339374989 0
0.553096817183123 0.08146707369578671 0
0.09064386004362601 0.754191146604815 0
0.9241707761555739 0.3352308694531253 0
0.7324388062341868 0.5549137464646767 0
0.7374000804091044 0.7500174414514863 0
0.7513107961701669 0.08623377233549689 0
0.09504796125463438 0.2624923922013052 0
0.4802966119537015 0.7821727080357956 0
0.2437825966508062 0.9091651289384791 0
0.9179926402885938 0.8525075306637074 0
0.9403367544321997 0.6456566801178361 0
0.6122507104004422 0.8201456794493028 0
0.44094065180542 0.5863671853194694 0
0.4190738184655639 0.5287854363376326 0
0.4548468980924848 0.4731381332271897 0
0.3907240476686727 0.4753304262999287 0
0.3571378203630216 0.5267749862379478 0
0.4222687609223989 0.4154121694279763 0
0.3566004398542167 0.4147942768943904 0
0.3924772052010727 0.3551089538194681 0
0.4610393992381184 0.356975905592855 0
0.3189657104658855 0.3518861537276192 0
0.431241869362028 0.2932575477442089 0
0.5055065034301719 0.2983018516589073 0
0.2782686114440779 0.4294307273033355 0
0.5302356922169967 0.3773169202128751 0
0.5788465431030054 0.3070606420056398 0
0.6591468727502191 0.4856357459502833 0
0.6389950242583822 0.4384457717970567 0
0.7064785938103064 0.4498631927739665 0
0.443245956741147 0.722500656969939 0
0.3832841492069884 0.7096274806588594 0
0.4115055217404642 0.7771934797541471 0
0.3479681182862496 0.7661687292046281 0
0.3131247198446342 0.7056821323202151 0
0.7614728424914119 0.6003084814617824 0
0.788945581904745 0.546160813313838 0
0.6776786766999429 0.385315815469217 0
0.2755644249148035 0.7723356716290688 0
0.2402608048884571 0.7030298277258288 0
0.749475419810676 0.3896984545613165 0
0.7189861354984832 0.3228712618073367 0
0.7616761641640177 0.6956017025263659 0
0.7994261517262088 0.7481897660421977 0
0.7716426908609334 0.8029061411394171 0
0.5432264160060134 0.8135433707737838 0
0.4912812502098319 0.8537287610208142 0
0.2395147544480754 0.3518587157255114 0
0.2831757544532485 0.281148617404478 0
0.4731942637125408 0.2302551874468972 0
0.2804356030106646 0.6385412309883833 0
0.2052469618526911 0.634953033771045 0
0.2433284383375174 0.5698267691718352 0
0.548961956135867 0.4905660961011343 0
0.3773686070070814 0.8464557902174847 0
0.9133974596215562 0.1499999999999999 0
0.1499999999999999 0.08660254037844384 0
0.6747143147606258 0.8065127859912139 0
0.3980238145090632 0.2242159096779623 0
0.6490520723171433 0.8660160571341959 0
0.1667200891042526 0.5644468197579312 0
0.5719480693010438 0.8732236577256731 0
0.3849850272587616 0.6102940110053867 0
0.7925739682971699 0.3315343483721788 0
0.7613146758248934 0.255986222987395 0
0.6810718352945645 0.2511510234836962 0
0.1143931596753687 0.6200104816263522 0
0.8488297989760067 0.2710134036203825 0
0.2020399165655454 0.7667513087006301 0
0.816366111825273 0.4081290255279073 0
0.4383730331129622 0.1563085145550905 0
0.2165862888648478 0.4973682884647918 0
0.5731124365504612 0.4404213688354722 0
0.829981091011269 0.590295755122982 0
0.8553714010402393 0.5371117876446034 0
0.8313094370901751 0.6983014876984823 0
0.863622873238719 0.749367184748905 0
0.1958145197002397 0.2755642905285411 0
0.2422051483174357 0.209910866643921 0
0.1569223549808398 0.3454009644636044 0
0.8136599968528671 0.173516457173315 0
0.7591368960643942 0.9250359333139362 0
0.9029331096499993 0.4272314490697105 0
0.5125547519914304 0.4440457195243518 0
0.6078532110883084 0.3784549566969445 0
0.8481820083548182 0.9113521950545913 0
0.6508929000253034 0.08291391717161567 0
0.609269062058428 0.1754059034112717 0
0.7517750489886863 0.498814508165879 0
0.08158068211831587 0.8526860437707529 0
0.2506719565631509 0.07683173146009536 0
0.3430416209085494 0.9218661102305306 0
0.4352659910593025 0.9117283282327328 0
0.5087614645199059 0.9187113872475361 0
0.1465631950934411 0.9189775103758436 0
0.2856571311634553 0.5040531891483686 0
0.7080531018334946 0.168445924386869 0
0.08060862411349706 0.5396182324927988 0
0.548629314055767 0.2368581008627584 0
0.8492135745863454 0.08142934380129196 0
0.08154164915282325 0.1544955676820344 0
0.3586785864001983 0.290160556892442 0
0.2026460361374889 0.4184657748104961 0
0.1535357971441759 0.6933441688698965 0
0.5167531736932293 0.1647559678801033 0
0.7244148020211959 0.8462754993222327 0
0.646470494503057 0.3155263186324828 0
0.1581539256293125 0.2023219137343289 0
0.2403536381747994 0.8316693132228326 0
0.6239179142831448 0.9282159478742477 0
0.9215832925957564 0.5729717117889574 0
0.4555875246311011 0.07629844811999165 0
0.3283512070483704 0.5817490763551427 0
0.8291378982671548 0.4815177469104288 0
0.1633111914530105 0.8359870361521315 0
0.3468396849623308 0.6545630379399725 0
0.928022887866395 0.2454123478408825 0
0.07330957567589236 0.3561722197379407 0
0.3217684249840582 0.2163410987155642 0
0.9287376580847999 0.776570003136527 0
0.3620801386856701 0.1660307179403461 0
0.6128574498029644 0.2572003976791698 0
0.7888494061134723 0.8591319662281418 0
0.8454933469525066 0.8142892552876411 0
0.9332349297286824 0.9327719451436596 0
0.7938681227434411 0.6470419237714087 0
0.4355051387871256 0.8362787950123575 0
0.7731661365736469 0.4443012263595618 0
0.1461822796481507 0.4807651771632148 0
0.06562877544235152 0.9343327108293193 0
0.3050961577819815 0.8465805758883704 0
0.6974630514355837 0.5177446749186666 0
0.2947491551498345 0.1451464672691458 0
0.3327784966465527 0.469894551376171 0
0.2191560371319467 0.144162703897187 0
0.9267949192431122 0.07320508075688753 0
0.07320508075688753 0.07320508075688781 0
0.6913043369371756 0.9131086875289225 0
0.5000389906259161 0.4905156106317468 0
0.06863007983936709 0.6811292147907078 0
0.9076910750891809 0.7054251268620233 0
0.9052788767426129 0.5054397442872647 0
0.4737884876865893 0.4101392487918002 0
0.870794962160337 0.6432821142269483 0
0.3860977049882275 0.5667941390511159 0
0.8547977850033419 0.3521742866821967 0
0.7213726041407368 0.795278480350438 0
0.5609254896208188 0.9440301985694914 0
0.135838050379619 0.4126651676363181 0
0.8757491717996432 0.206956366927201 0
$EndNodes
$Elements
6 462 1 462
1 1 1 10
1 1 6 
2 6 7 
3 7 8 
4 8 9 
5 9 10 
6 10 11 
7 11 12 
8 12 13 
9 13 14 
10 14 2 
1 2 1 10
11 3 15 
12 15 16 
13 16 17 
14 17 18 
15 18 19 
16 19 20 
17 20 21 
18 21 22 
19 22 23 
20 23 1 
1 3 1 10
21 2 24 
22 24 25 
23 25 26 
24 26 27 
25 27 28 
26 28 29 
27 29 30 
28 30 31 
29 31 32 
30 32 4 
1 4 1 10
31 4 33 
32 33 34 
33 34 35 
34 35 36 
35 36 37 
36 37 38 
37 38 39 
38 39 40 
39 40 41 
40 41 3 
2 2 2 57
41 60 76 67 
42 67 76 57 
43 67 74 61 
44 57 74 67 
45 67 71 60 
46 5 57 55 
47 50 62 49 
48 45 59 44 
49 43 61 42 
50 48 56 47 
51 52 58 51 
52 54 60 53 
53 65 67 61 
54 64 66 65 
55 65 75 59 
56 61 75 65 
57 64 68 66 
58 66 67 65 
59 64 65 59 
60 63 64 59 
61 64 69 56 
62 63 69 64 
63 46 63 45 
64 42 74 5 
65 57 76 55 
66 49 72 48 
67 60 70 53 
68 45 63 59 
69 52 70 58 
70 56 69 47 
71 55 76 54 
72 53 70 52 
73 5 74 57 
74 62 72 49 
75 48 72 56 
76 43 75 61 
77 44 75 43 
78 47 69 46 
79 59 75 44 
80 50 73 62 
81 61 74 42 
82 54 76 60 
83 58 73 51 
84 51 73 50 
85 56 68 64 
86 66 71 67 
87 70 71 58 
88 60 71 70 
89 56 72 68 
90 68 72 62 
91 58 77 73 
92 73 77 62 
93 66 77 71 
94 71 77 58 
95 46 69 63 
96 62 77 68 
97 68 77 66 
2 3 2 365
98 113 115 114 
99 165 196 152 
100 18 180 149 
101 148 204 170 
102 116 213 121 
103 151 197 84 
104 160 162 89 
105 137 213 116 
106 170 179 148 
107 147 179 163 
108 137 209 175 
109 115 116 114 
110 149 222 18 
111 196 224 157 
112 152 228 165 
113 107 178 154 
114 155 166 108 
115 84 186 151 
116 163 179 88 
117 195 227 145 
118 137 175 174 
119 165 224 196 
120 193 226 156 
121 148 179 147 
122 162 200 89 
123 187 194 83 
124 142 144 94 
125 165 228 85 
126 128 144 129 
127 99 227 195 
128 153 194 187 
129 168 206 92 
130 157 193 156 
131 81 194 153 
132 154 185 107 
133 55 118 5 
134 205 206 168 
135 114 198 80 
136 88 182 163 
137 158 226 223 
138 80 198 145 
139 145 198 195 
140 91 197 191 
141 153 203 81 
142 108 167 155 
143 50 95 78 
144 95 96 78 
145 52 136 79 
146 80 95 49 
147 136 155 79 
148 84 197 172 
149 118 208 5 
150 53 214 54 
151 158 223 159 
152 80 145 95 
153 150 199 85 
154 177 197 91 
155 48 113 80 
156 144 176 129 
157 166 225 108 
158 113 114 80 
159 109 167 108 
160 112 214 110 
161 171 214 112 
162 89 190 160 
163 163 182 138 
164 90 209 115 
165 169 170 83 
166 139 217 190 
167 149 180 143 
168 42 125 87 
169 38 175 37 
170 90 113 47 
171 142 192 144 
172 85 228 150 
173 79 155 111 
174 35 164 34 
175 30 93 29 
176 78 221 51 
177 175 176 37 
178 109 189 167 
179 11 169 83 
180 154 211 185 
181 90 115 113 
182 139 190 183 
183 169 179 170 
184 110 214 53 
185 125 126 87 
186 164 168 34 
187 32 92 31 
188 27 165 85 
189 129 209 90 
190 51 221 136 
191 46 128 90 
192 27 85 26 
193 195 198 133 
194 155 167 111 
195 44 140 94 
196 121 213 191 
197 17 84 16 
198 20 82 19 
199 11 83 10 
200 174 175 38 
201 99 195 178 
202 84 172 16 
203 94 128 45 
204 7 173 139 
205 9 81 8 
206 211 231 185 
207 116 117 114 
208 93 226 193 
209 129 176 175 
210 28 165 27 
211 81 173 8 
212 88 169 12 
213 106 108 103 
214 138 232 163 
215 40 91 39 
216 5 208 125 
217 12 169 11 
218 39 174 38 
219 128 129 90 
220 34 168 33 
221 85 199 26 
222 83 194 10 
223 140 142 94 
224 175 209 129 
225 13 88 12 
226 9 194 81 
227 40 177 91 
228 16 172 15 
229 4 207 32 
230 22 89 21 
231 8 173 7 
232 87 229 43 
233 20 200 82 
234 192 220 35 
235 108 225 103 
236 25 138 24 
237 36 192 35 
238 7 139 6 
239 97 225 166 
240 41 177 40 
241 202 206 159 
242 91 174 39 
243 167 189 120 
244 126 206 127 
245 170 187 83 
246 94 144 128 
247 92 206 202 
248 19 180 18 
249 106 109 108 
250 29 193 28 
251 122 133 117 
252 88 179 169 
253 33 207 4 
254 31 202 30 
255 84 222 186 
256 102 103 100 
257 223 226 93 
258 96 97 78 
259 202 223 30 
260 14 182 13 
261 23 183 22 
262 43 229 140 
263 82 180 19 
264 115 137 116 
265 159 206 126 
266 178 195 135 
267 107 216 178 
268 89 200 21 
269 136 166 155 
270 111 167 120 
271 154 178 135 
272 143 154 135 
273 25 199 138 
274 13 182 88 
275 124 148 147 
276 181 187 170 
277 134 135 133 
278 105 106 103 
279 146 152 123 
280 22 183 89 
281 18 222 17 
282 50 78 51 
283 52 79 53 
284 200 231 82 
285 193 224 28 
286 48 80 49 
287 3 212 41 
288 15 212 3 
289 102 105 103 
290 93 193 29 
291 130 162 160 
292 101 107 104 
293 160 161 131 
294 124 189 148 
295 166 221 97 
296 54 86 55 
297 112 210 171 
298 49 95 50 
299 121 122 117 
300 51 136 52 
301 130 131 104 
302 37 230 36 
303 134 143 135 
304 196 210 152 
305 122 134 133 
306 105 132 106 
307 30 223 93 
308 101 102 100 
309 105 141 132 
310 35 220 164 
311 186 222 149 
312 134 149 143 
313 107 130 104 
314 106 181 109 
315 147 163 150 
316 141 153 132 
317 133 198 117 
318 130 160 131 
319 100 225 97 
320 2 218 14 
321 24 218 2 
322 1 219 23 
323 6 219 1 
324 125 158 126 
325 98 100 97 
326 126 127 87 
327 42 87 43 
328 101 104 102 
329 96 99 98 
330 116 121 117 
331 174 213 137 
332 147 150 146 
333 79 110 53 
334 170 204 181 
335 46 90 47 
336 47 113 48 
337 164 205 168 
338 124 147 146 
339 98 101 100 
340 92 202 31 
341 5 125 42 
342 130 185 162 
343 188 220 142 
344 124 146 123 
345 121 151 122 
346 96 98 97 
347 32 207 92 
348 86 171 119 
349 131 201 184 
350 132 181 106 
351 120 124 123 
352 184 201 141 
353 107 185 130 
354 28 224 165 
355 44 94 45 
356 102 184 105 
357 109 204 189 
358 135 195 133 
359 131 184 104 
360 189 204 148 
361 86 118 55 
362 160 190 161 
363 43 140 44 
364 153 187 132 
365 117 198 114 
366 120 123 112 
367 121 191 151 
368 10 194 9 
369 111 112 110 
370 120 189 124 
371 104 184 102 
372 132 187 181 
373 92 207 168 
374 122 186 134 
375 79 111 110 
376 105 184 141 
377 111 120 112 
378 45 128 46 
379 127 205 188 
380 178 216 99 
381 101 216 107 
382 151 186 122 
383 26 199 25 
384 21 200 20 
385 158 159 126 
386 183 190 89 
387 134 186 149 
388 172 197 177 
389 86 119 118 
390 173 217 139 
391 119 157 156 
392 119 156 118 
393 81 215 173 
394 168 207 33 
395 176 230 37 
396 123 210 112 
397 140 188 142 
398 164 220 188 
399 199 232 138 
400 161 201 131 
401 17 222 84 
402 162 231 200 
403 91 213 174 
404 152 210 123 
405 172 212 15 
406 191 197 151 
407 188 205 164 
408 150 228 146 
409 161 217 215 
410 156 208 118 
411 171 196 119 
412 86 214 171 
413 41 212 177 
414 180 211 143 
415 177 212 172 
416 14 218 182 
417 23 219 183 
418 103 225 100 
419 119 196 157 
420 99 216 98 
421 127 206 205 
422 138 218 24 
423 139 219 6 
424 96 227 99 
425 156 226 208 
426 181 204 109 
427 143 211 154 
428 215 217 173 
429 82 211 180 
430 115 209 137 
431 125 208 158 
432 141 203 153 
433 182 218 138 
434 183 219 139 
435 95 227 96 
436 97 221 78 
437 136 221 166 
438 98 216 101 
439 145 227 95 
440 54 214 86 
441 208 226 158 
442 82 231 211 
443 190 217 161 
444 191 213 91 
445 201 203 141 
446 142 220 192 
447 171 210 196 
448 161 215 201 
449 203 215 81 
450 127 229 87 
451 146 228 152 
452 157 224 193 
453 144 230 176 
454 163 232 150 
455 140 229 188 
456 201 215 203 
457 150 232 199 
458 159 223 202 
459 185 231 162 
460 192 230 144 
461 36 230 192 
462 188 229 127 
$EndElements
