$MeshFormat
4.1 0 8
$EndMeshFormat
$PhysicalNames
3
1 101 "outer_boundary"
2 1 "material_1"
2 2 "material_2"
$EndPhysicalNames
$Entities
7 7 2 0
1 0 0 0 0 
2 1 0 0 0 
3 0 1 0 0 
4 1 1 0 0 
5 0.571438079504611 0.3096814127882322 0 0 
6 0.8903412478483882 0.2476546441734274 0 0 
7 0.7846064210115798 0.5548462736138863 0 0 
1 -9.999999994736442e-08 -1e-07 -1e-07 1.0000001 1e-07 1e-07 1 101 2 1 -2 
2 -1e-07 -9.999999994736442e-08 -1e-07 1e-07 1.0000001 1e-07 1 101 2 3 -1 
3 0.9999999000000001 -9.999999994736442e-08 -1e-07 1.0000001 1.0000001 1e-07 1 101 2 2 -4 
4 -9.999999994736442e-08 0.9999999000000001 -1e-07 1.0000001 1.0000001 1e-07 1 101 2 4 -3 
5 0.5714379795046111 0.2476545441734274 -1e-07 0.8903413478483881 0.3096815127882322 1e-07 0 2 5 -6 
6 0.7846063210115799 0.2476545441734274 -1e-07 0.8903413478483881 0.5548463736138862 1e-07 0 2 6 -7 
7 0.5714379795046111 0.3096813127882322 -1e-07 0.7846065210115798 0.5548463736138862 1e-07 0 2 7 -5 
2 0.5714379795046111 0.2476545441734274 -1e-07 0.8903413478483881 0.5548463736138862 1e-07 1 2 3 5 6 7 
3 -9.999999994736442e-08 -9.999999994736442e-08 -1e-07 1.0000001 1.0000001 1e-07 1 1 7 1 3 4 2 -5 -7 -6 
$EndEntities
$Nodes
16 149 1 149
0 1 0 1
1
0 0 0
0 2 0 1
2
1 0 0
0 3 0 1
3
0 1 0
0 4 0 1
4
1 1 0
0 5 0 1
5
0.571438079504611 0.3096814127882322 0
0 6 0 1
6
0.8903412478483882 0.2476546441734274 0
0 7 0 1
7
0.7846064210115798 0.5548462736138863 0
1 1 0 7
8
9
10
11
12
13
14
0.1249999999999999 0 0
0.2499999999999998 0 0
0.3749999999999993 0 0
0.4999999999999988 0 0
0.6249999999999988 0 0
0.7499999999999991 0 0
0.8749999999999997 0 0
1 2 0 7
15
16
17
18
19
20
21
0 0.8750000000000001 0
0 0.7500000000000002 0
0 0.6250000000000007 0
0 0.5000000000000012 0
0 0.3750000000000012 0
0 0.2500000000000009 0
0 0.1250000000000003 0
1 3 0 7
22
23
24
25
26
27
28
1 0.1249999999999999 0
1 0.2499999999999998 0
1 0.3749999999999993 0
1 0.4999999999999988 0
1 0.6249999999999988 0
1 0.7499999999999991 0
1 0.8749999999999997 0
1 4 0 7
29
30
31
32
33
34
35
0.8750000000000001 1 0
0.7500000000000002 1 0
0.6250000000000007 1 0
0.5000000000000012 1 0
0.3750000000000012 1 0
0.2500000000000009 1 0
0.1250000000000003 1 0
1 5 0 4
36
37
38
39
0.6352187131733664 0.2972760590652712 0
0.6989993468421217 0.2848707053423103 0
0.762779980510877 0.2724653516193494 0
0.8265606141796324 0.2600599978963885 0
1 6 0 4
40
41
42
43
0.8691942824810265 0.3090929700615191 0
0.8480473171136649 0.3705312959496108 0
0.8269003517463033 0.4319696218377025 0
0.8057533863789417 0.4934079477257941 0
1 7 0 4
44
45
46
47
0.741972752710186 0.5058133014487555 0
0.6993390844087923 0.4567803292836247 0
0.6567054161073986 0.407747357118494 0
0.614071747806005 0.3587143849533633 0
2 2 0 6
48
49
50
51
52
53
0.7842666834449095 0.3829366496725719 0
0.6778523814747603 0.3463090312304021 0
0.7631197180775477 0.4443749755606637 0
0.8054136488122711 0.3214983237844801 0
0.720486049776154 0.3953420033955329 0
0.7416330151435158 0.3339036775074412 0
2 3 0 96
54
55
56
57
58
59
60
61
62
63
64
65
66
67
68
69
70
71
72
73
74
75
76
77
78
79
80
81
82
83
84
85
86
87
88
89
90
91
92
93
94
95
96
97
98
99
100
101
102
103
104
105
106
107
108
109
110
111
112
113
114
115
116
117
118
119
120
121
122
123
124
125
126
127
128
129
130
131
132
133
134
135
136
137
138
139
140
141
142
143
144
145
146
147
148
149
0.5929247824386434 0.4201527108414549 0
0.7208257873428244 0.5672516273368472 0
0.1079746235651527 0.5663607551660484 0
0.4375000000000012 0.8917468245269454 0
0.1029917941887215 0.3121352655002757 0
0.7656116513628896 0.6226722306766646 0
0.6885054188292417 0.6363857811916829 0
0.7437846940299105 0.6991723074260545 0
0.6601261831668291 0.7164593359974163 0
0.6034060909070762 0.6481253495917726 0
0.5914252133440485 0.246173307518924 0
0.5232897896909707 0.2584667779489975 0
0.5020867935855149 0.3288448474850462 0
0.4486818836305497 0.2726536072412605 0
0.4267272668499399 0.3518848990334555 0
0.3667860916899012 0.2895863602413373 0
0.3452123756996344 0.3742771791810518 0
0.4071276250889553 0.436692826504253 0
0.7198867749494663 0.2220979998569725 0
0.3209908400016414 0.4626174059267207 0
0.3863028243957731 0.5268191086150548 0
0.2023001737626442 0.8897403387460165 0
0.8510163606482231 0.1821464304135223 0
0.5717769894735225 0.7331946952774692 0
0.5147464608164393 0.6608736084567106 0
0.5456178389555283 0.577645172298746 0
0.7218974228406834 0.7948793636131559 0
0.4727249131606867 0.1942693377318732 0
0.2934365254503256 0.5543590297434881 0
0.1874999999999998 0.1082531754730546 0
0.3627535303972846 0.6211612570699921 0
0.2656913178121879 0.6532950474360399 0
0.853065207458753 0.5440594342132175 0
0.82723562542525 0.6732382484491348 0
0.3356165527857127 0.7236961546472296 0
0.283472859371603 0.3167886803711912 0
0.3023622205274564 0.2205448148146755 0
0.9017379975846377 0.8126167692324251 0
0.4883533331748547 0.7417687517560478 0
0.2144395790315152 0.4825059509150814 0
0.5339125451463851 0.8203034300845394 0
0.9103237422120649 0.4354241631139414 0
0.6819375683890402 0.1011250119598692 0
0.210658045996483 0.2384731566672046 0
0.2337705377132476 0.7621699981318448 0
0.3186873359521529 0.8337569422420829 0
0.4876692367859335 0.5001331205094137 0
0.7966801812327562 0.1040862158251327 0
0.1040268379639865 0.4358444174964476 0
0.5775404835206115 0.100005574159129 0
0.1667453733129826 0.6738506984624683 0
0.637053085253158 0.5749321887701254 0
0.5883124613551606 0.5021460355264128 0
0.6875000000000004 0.8984053535241652 0
0.805721716285274 0.8820127033483464 0
0.4546039653974441 0.5941565153827705 0
0.488997705699975 0.4107626140586946 0
0.3118704982455898 0.1080897906692642 0
0.19875503099853 0.3790645333972779 0
0.4232446892952876 0.09968895106429176 0
0.09991042259042238 0.1902689508017986 0
0.1087107217690188 0.7923935263420314 0
0.5502911141372495 0.3711197386763241 0
0.674458754678674 0.5152336124077364 0
0.9265232823990515 0.17938184906564 0
0.6557905390883728 0.2335296153582682 0
0.9404966020378953 0.3032271511589227 0
0.7839269458782386 0.2110270257312579 0
0.6276817283035425 0.8120380311975184 0
0.3876117160915786 0.1974721436271171 0
0.611788880886966 0.1768143952262656 0
0.6423480997977338 0.4604120090355446 0
0.8207479001014097 0.7582365653448526 0
0.9136123887689304 0.3586551160567987 0
0.8623998487180865 0.4872401709342902 0
0.9033620181758074 0.09662786965277331 0
0.2096574838344328 0.5860742963446253 0
0.4261238944049615 0.6897544036696438 0
0.9146277054748675 0.6986789714128289 0
0.829161248294715 0.5989255927588516 0
0.8900077237413258 0.6118736557691379 0
0.5908772291938346 0.9089860086883647 0
0.540339106771847 0.4485982944094051 0
0.4122491597692466 0.7900508913969333 0
0.7377801304514011 0.156528155958493 0
0.5456070911576253 0.1832368757816225 0
0.906900206139389 0.9100706676427232 0
0.6814367787530493 0.1780190356719736 0
0.09150635094610948 0.09150635094610954 0
0.09150635094610998 0.9084936490538902 0
0.3125000000000011 0.9294478655221252 0
0.2723195141352394 0.4009455414444981 0
0.9192994203550383 0.5339329040050974 0
0.5004192709773529 0.1194818037590548 0
0.07177176311818956 0.684449487752097 0
0.2530976911923823 0.1688402344060497 0
$EndNodes
$Elements
6 296 1 296
1 1 1 8
1 1 8 
2 8 9 
3 9 10 
4 10 11 
5 11 12 
6 12 13 
7 13 14 
8 14 2 
1 2 1 8
9 3 15 
10 15 16 
11 16 17 
12 17 18 
13 18 19 
14 19 20 
15 20 21 
16 21 1 
1 3 1 8
17 2 22 
18 22 23 
19 23 24 
20 24 25 
21 25 26 
22 26 27 
23 27 28 
24 28 4 
1 4 1 8
25 4 29 
26 29 30 
27 30 31 
28 31 32 
29 32 33 
30 33 34 
31 34 35 
32 35 3 
2 2 2 25
33 6 40 39 
34 44 43 7 
35 5 36 47 
36 42 50 48 
37 37 49 36 
38 37 53 49 
39 51 53 38 
40 36 49 47 
41 50 52 48 
42 46 52 45 
43 43 50 42 
44 49 52 46 
45 44 50 43 
46 49 53 52 
47 48 53 51 
48 39 51 38 
49 47 49 46 
50 38 53 37 
51 52 53 48 
52 45 52 50 
53 42 48 41 
54 45 50 44 
55 41 51 40 
56 40 51 39 
57 48 51 41 
2 3 2 239
58 100 106 79 
59 94 135 57 
60 87 132 126 
61 94 137 92 
62 100 136 106 
63 80 126 108 
64 57 135 32 
65 56 102 93 
66 76 121 101 
67 89 112 97 
68 97 112 58 
69 113 123 111 
70 126 132 91 
71 80 108 107 
72 111 123 90 
73 57 137 94 
74 25 146 95 
75 98 99 75 
76 25 95 24 
77 6 118 23 
78 101 129 76 
79 106 125 117 
80 16 115 15 
81 106 117 105 
82 108 126 91 
83 93 130 56 
84 121 138 101 
85 60 105 55 
86 79 109 100 
87 22 129 2 
88 75 115 98 
89 76 129 118 
90 18 102 56 
91 133 134 87 
92 23 120 6 
93 96 103 12 
94 97 114 83 
95 81 123 113 
96 83 149 97 
97 102 112 93 
98 99 144 75 
99 13 96 12 
100 115 143 15 
101 2 129 14 
102 57 144 99 
103 13 101 96 
104 63 105 60 
105 66 110 68 
106 96 124 103 
107 79 105 63 
108 58 114 97 
109 107 122 80 
110 23 118 22 
111 58 102 19 
112 134 146 26 
113 28 91 27 
114 95 127 24 
115 14 101 13 
116 33 57 32 
117 79 106 105 
118 20 58 19 
119 12 103 11 
120 18 56 17 
121 99 137 57 
122 9 111 83 
123 68 110 71 
124 71 110 100 
125 91 132 27 
126 71 100 74 
127 78 79 63 
128 104 148 56 
129 58 112 102 
130 105 117 55 
131 103 147 11 
132 19 102 18 
133 92 137 131 
134 11 113 10 
135 131 137 88 
136 9 83 8 
137 11 147 113 
138 54 136 116 
139 30 108 29 
140 35 75 34 
141 107 108 30 
142 74 109 84 
143 100 109 74 
144 31 107 30 
145 87 134 132 
146 4 140 28 
147 107 135 122 
148 33 144 57 
149 10 111 9 
150 26 146 25 
151 24 120 23 
152 20 114 58 
153 54 125 106 
154 56 148 17 
155 78 109 79 
156 21 114 20 
157 56 130 104 
158 29 140 4 
159 66 116 110 
160 98 115 104 
161 62 63 60 
162 14 129 101 
163 96 141 124 
164 10 113 111 
165 32 135 31 
166 68 71 70 
167 101 138 96 
168 71 74 73 
169 88 99 98 
170 46 54 47 
171 74 84 82 
172 98 104 85 
173 84 88 85 
174 77 78 63 
175 6 120 40 
176 44 117 45 
177 75 144 34 
178 116 136 110 
179 7 55 44 
180 122 135 94 
181 82 93 73 
182 88 98 85 
183 74 82 73 
184 84 85 82 
185 71 73 70 
186 62 77 63 
187 8 142 1 
188 1 142 21 
189 47 116 5 
190 77 94 92 
191 106 136 54 
192 5 66 65 
193 3 143 35 
194 15 143 3 
195 16 148 115 
196 118 129 22 
197 77 92 78 
198 68 70 69 
199 89 90 69 
200 66 68 67 
201 70 89 69 
202 68 69 67 
203 45 125 46 
204 61 62 60 
205 5 64 36 
206 90 149 111 
207 36 119 37 
208 109 131 84 
209 37 72 38 
210 84 131 88 
211 113 147 81 
212 104 130 85 
213 111 149 83 
214 89 97 90 
215 55 117 44 
216 38 121 39 
217 5 65 64 
218 61 80 62 
219 46 125 54 
220 39 76 6 
221 66 67 65 
222 89 145 112 
223 54 116 47 
224 117 125 45 
225 59 87 61 
226 115 148 104 
227 28 140 91 
228 78 131 109 
229 5 116 66 
230 59 61 60 
231 110 136 100 
232 112 145 93 
233 82 130 93 
234 67 81 65 
235 59 60 55 
236 77 122 94 
237 62 122 77 
238 75 143 115 
239 43 86 7 
240 93 145 73 
241 7 59 55 
242 27 132 26 
243 90 123 69 
244 80 122 62 
245 21 142 114 
246 69 123 67 
247 85 130 82 
248 42 128 43 
249 114 142 83 
250 108 140 29 
251 91 140 108 
252 124 139 103 
253 31 135 107 
254 139 147 103 
255 86 134 133 
256 88 137 99 
257 41 95 42 
258 70 145 89 
259 61 126 80 
260 40 127 41 
261 83 142 8 
262 64 119 36 
263 92 131 78 
264 87 126 61 
265 37 119 72 
266 35 143 75 
267 67 123 81 
268 72 121 38 
269 34 144 33 
270 39 121 76 
271 64 124 119 
272 17 148 16 
273 76 118 6 
274 81 147 139 
275 81 139 65 
276 59 133 87 
277 73 145 70 
278 72 138 121 
279 120 127 40 
280 7 133 59 
281 43 128 86 
282 65 139 64 
283 24 127 120 
284 86 133 7 
285 97 149 90 
286 95 128 42 
287 41 127 95 
288 86 146 134 
289 132 134 26 
290 64 139 124 
291 124 141 119 
292 119 141 72 
293 72 141 138 
294 128 146 86 
295 138 141 96 
296 95 146 128 
$EndElements
