$MeshFormat
4.1 0 8
$EndMeshFormat
$PhysicalNames
3
1 101 "outer_boundary"
2 1 "material_1"
2 2 "material_2"
$EndPhysicalNames
$Entities
8 8 2 0
1 0 0 0 0 
2 1 0 0 0 
3 0 1 0 0 
4 1 1 0 0 
5 0.3827904129430729 0.3231896137045546 0 0 
6 0.6768103862954454 0.3827904129430729 0 0 
7 0.6172095870569271 0.6768103862954454 0 0 
8 0.3231896137045546 0.6172095870569271 0 0 
1 -9.999999994736442e-08 -1e-07 -1e-07 1.0000001 1e-07 1e-07 1 101 2 1 -2 
2 -1e-07 -9.999999994736442e-08 -1e-07 1e-07 1.0000001 1e-07 1 101 2 3 -1 
3 0.9999999000000001 -9.999999994736442e-08 -1e-07 1.0000001 1.0000001 1e-07 1 101 2 2 -4 
4 -9.999999994736442e-08 0.9999999000000001 -1e-07 1.0000001 1.0000001 1e-07 1 101 2 4 -3 
5 0.3827903129430729 0.3231895137045546 -1e-07 0.6768104862954454 0.3827905129430729 1e-07 0 2 5 -6 
6 0.6172094870569271 0.3827903129430729 -1e-07 0.6768104862954454 0.6768104862954454 1e-07 0 2 6 -7 
7 0.3231895137045546 0.6172094870569271 -1e-07 0.617209687056927 0.6768104862954454 1e-07 0 2 7 -8 
8 0.3231895137045546 0.3231895137045546 -1e-07 0.3827905129430729 0.617209687056927 1e-07 0 2 8 -5 
2 0.3231895137045546 0.3231895137045546 -1e-07 0.6768104862954454 0.6768104862954454 1e-07 1 2 4 5 6 7 8 
3 -9.999999994736442e-08 -9.999999994736442e-08 -1e-07 1.0000001 1.0000001 1e-07 1 1 8 1 3 4 2 -5 -8 -7 -6 
$EndEntities
$Nodes
18 430 1 430
0 1 0 1
1
0 0 0
0 2 0 1
2
1 0 0
0 3 0 1
3
0 1 0
0 4 0 1
4
1 1 0
0 5 0 1
5
0.3827904129430729 0.3231896137045546 0
0 6 0 1
6
0.6768103862954454 0.3827904129430729 0
0 7 0 1
7
0.6172095870569271 0.6768103862954454 0
0 8 0 1
8
0.3231896137045546 0.6172095870569271 0
1 1 0 12
9
10
11
12
13
14
15
16
17
18
19
20
0.07692307692307693 0 0
0.1538461538461539 0 0
0.2307692307692308 0 0
0.3076923076923077 0 0
0.3846153846153846 0 0
0.4615384615384615 0 0
0.5384615384615384 0 0
0.6153846153846154 0 0
0.6923076923076923 0 0
0.7692307692307692 0 0
0.8461538461538461 0 0
0.923076923076923 0 0
1 2 0 12
21
22
23
24
25
26
27
28
29
30
31
32
0 0.9230769230769231 0
0 0.8461538461538461 0
0 0.7692307692307693 0
0 0.6923076923076923 0
0 0.6153846153846154 0
0 0.5384615384615385 0
0 0.4615384615384616 0
0 0.3846153846153846 0
0 0.3076923076923077 0
0 0.2307692307692308 0
0 0.1538461538461539 0
0 0.07692307692307698 0
1 3 0 12
33
34
35
36
37
38
39
40
41
42
43
44
1 0.07692307692307693 0
1 0.1538461538461539 0
1 0.2307692307692308 0
1 0.3076923076923077 0
1 0.3846153846153846 0
1 0.4615384615384615 0
1 0.5384615384615384 0
1 0.6153846153846154 0
1 0.6923076923076923 0
1 0.7692307692307692 0
1 0.8461538461538461 0
1 0.923076923076923 0
1 4 0 12
45
46
47
48
49
50
51
52
53
54
55
56
0.9230769230769231 1 0
0.8461538461538461 1 0
0.7692307692307693 1 0
0.6923076923076923 1 0
0.6153846153846154 1 0
0.5384615384615385 1 0
0.4615384615384616 1 0
0.3846153846153846 1 0
0.3076923076923077 1 0
0.2307692307692308 1 0
0.1538461538461539 1 0
0.07692307692307698 1 0
1 5 0 7
57
58
59
60
61
62
63
0.4195429096121194 0.3306397136093693 0
0.4562954062811659 0.3380898135141842 0
0.4930479029502124 0.3455399134189989 0
0.529800399619259 0.3529900133238137 0
0.5665528962883055 0.3604401132286285 0
0.6033053929573522 0.3678902131334433 0
0.6400578896263988 0.3753403130382581 0
1 6 0 7
64
65
66
67
68
69
70
0.6693602863906306 0.4195429096121194 0
0.6619101864858159 0.4562954062811659 0
0.6544600865810011 0.4930479029502124 0
0.6470099866761863 0.529800399619259 0
0.6395598867713714 0.5665528962883055 0
0.6321097868665567 0.6033053929573522 0
0.6246596869617419 0.6400578896263988 0
1 7 0 7
71
72
73
74
75
76
77
0.5804570903878805 0.6693602863906306 0
0.5437045937188341 0.6619101864858159 0
0.5069520970497876 0.6544600865810011 0
0.470199600380741 0.6470099866761863 0
0.4334471037116944 0.6395598867713714 0
0.3966946070426478 0.6321097868665567 0
0.3599421103736012 0.6246596869617419 0
1 8 0 7
78
79
80
81
82
83
84
0.3306397136093693 0.5804570903878805 0
0.3380898135141842 0.5437045937188341 0
0.3455399134189989 0.5069520970497876 0
0.3529900133238137 0.470199600380741 0
0.3604401132286285 0.4334471037116944 0
0.3678902131334433 0.3966946070426478 0
0.3753403130382581 0.3599421103736012 0
2 2 0 66
85
86
87
88
89
90
91
92
93
94
95
96
97
98
99
100
101
102
103
104
105
106
107
108
109
110
111
112
113
114
115
116
117
118
119
120
121
122
123
124
125
126
127
128
129
130
131
132
133
134
135
136
137
138
139
140
141
142
143
144
145
146
147
148
149
150
0.5420462746912637 0.3893654620579345 0
0.6114563409558816 0.5417246721754807 0
0.4571749904431362 0.6072521439878301 0
0.3885436590441184 0.4582753278245194 0
0.3725564751163807 0.5314648219814738 0
0.5317803211626124 0.6263565407655113 0
0.4729960327237259 0.3776756015482945 0
0.6268720741619341 0.467514847980625 0
0.5972953189732692 0.6152173710592244 0
0.3853426589671183 0.5928408781754103 0
0.403443858853748 0.3847703344864261 0
0.6104983526277725 0.4028618966044438 0
0.6189884130862109 0.5048429262777032 0
0.5833625071707548 0.5168631291052634 0
0.5765343518154586 0.5529302395103198 0
0.5485360820966159 0.5279822311939312 0
0.5558161405954526 0.4914396330871826 0
0.5198064729878523 0.5038677447809169 0
0.5130451258870733 0.5372546324017086 0
0.4839149499860576 0.5141849424981868 0
0.4915727013699441 0.4788548426783571 0
0.4559973513492364 0.4907483355696229 0
0.4481648775676951 0.5263663944801771 0
0.4634848423223342 0.4542965901235334 0
0.4990383200155144 0.4423536277455578 0
0.4204847663484981 0.5030128175056708 0
0.4709386118784323 0.4175835516113562 0
0.4369242748003175 0.4300701540362704 0
0.4153149996799819 0.5397321089448142 0
0.4429248396277431 0.5667353548086359 0
0.5053908335390034 0.4054577671331004 0
0.5345958034142269 0.4304875031679594 0
0.5711776144623222 0.415824876573938 0
0.5653777521894656 0.4524866550028561 0
0.5999876402208364 0.4393338992616264 0
0.3959937589489333 0.4215228311554727 0
0.4215228311554727 0.6040062410510668 0
0.4756583342025019 0.57998523356717 0
0.4965421621236991 0.6103762954199244 0
0.5288180417807923 0.5907136299451379 0
0.5277011984287426 0.466581667743805 0
0.5911271880420447 0.4795898909503467 0
0.3810935591393036 0.4950278244935659 0
0.6042347134522166 0.5783553355652385 0
0.5641873772454253 0.594192752334507 0
0.4279348662533129 0.4662603208366243 0
0.3619462455705748 0.5663392039983186 0
0.5681941101305497 0.6350292147383843 0
0.4334790417172897 0.365120449633248 0
0.6351855191244 0.4328588709873493 0
0.4109211962847242 0.5714247357728546 0
0.4443319110001703 0.3972183498209003 0
0.5425247436436291 0.5615300302264395 0
0.5063857559267915 0.3741201479965833 0
0.4773276356295096 0.548005248642314 0
0.580319764561939 0.3869039489018476 0
0.4042412561580325 0.3555481602230911 0
0.3555481602230911 0.5957587438419676 0
0.6444518397769089 0.4042412561580325 0
0.5957587438419676 0.6444518397769089 0
0.5056526738778676 0.5713108450337825 0
0.3970641127914937 0.5173965693341415 0
0.4119643126011229 0.4438915759960486 0
0.4045142126963082 0.4806440726650952 0
0.4188283111591835 0.4101305185211739 0
0.3895006519933051 0.5538090958843457 0
2 3 0 280
151
152
153
154
155
156
157
158
159
160
161
162
163
164
165
166
167
168
169
170
171
172
173
174
175
176
177
178
179
180
181
182
183
184
185
186
187
188
189
190
191
192
193
194
195
196
197
198
199
200
201
202
203
204
205
206
207
208
209
210
211
212
213
214
215
216
217
218
219
220
221
222
223
224
225
226
227
228
229
230
231
232
233
234
235
236
237
238
239
240
241
242
243
244
245
246
247
248
249
250
251
252
253
254
255
256
257
258
259
260
261
262
263
264
265
266
267
268
269
270
271
272
273
274
275
276
277
278
279
280
281
282
283
284
285
286
287
288
289
290
291
292
293
294
295
296
297
298
299
300
301
302
303
304
305
306
307
308
309
310
311
312
313
314
315
316
317
318
319
320
321
322
323
324
325
326
327
328
329
330
331
332
333
334
335
336
337
338
339
340
341
342
343
344
345
346
347
348
349
350
351
352
353
354
355
356
357
358
359
360
361
362
363
364
365
366
367
368
369
370
371
372
373
374
375
376
377
378
379
380
381
382
383
384
385
386
387
388
389
390
391
392
393
394
395
396
397
398
399
400
401
402
403
404
405
406
407
408
409
410
411
412
413
414
415
416
417
418
419
420
421
422
423
424
425
426
427
428
429
430
0.3472367672227683 0.3351138862607762 0
0.6648861137392238 0.3472367672227683 0
0.6527632327772317 0.6648861137392238 0
0.3351138862607762 0.6527632327772317 0
0.6760278962107772 0.5512093307419647 0
0.5512093307419647 0.3239721037892227 0
0.4487906692580353 0.6760278962107773 0
0.3239721037892227 0.4487906692580353 0
0.2983748198866281 0.5576890959569696 0
0.5576890959569695 0.7016251801133718 0
0.4423109040430304 0.2983748198866281 0
0.7016251801133718 0.4423109040430305 0
0.7033186505431226 0.3536937882064271 0
0.6888000004556942 0.3116126106669223 0
0.3536937882064271 0.2966813494568774 0
0.3116126106669223 0.3111999995443058 0
0.6463062117935731 0.7033186505431226 0
0.6883873893330779 0.6888000004556941 0
0.2966813494568774 0.6463062117935731 0
0.3111999995443058 0.6883873893330779 0
0.6789484103307116 0.7339770000929132 0
0.7232640621950708 0.7198129556248829 0
0.2660229999070867 0.6789484103307116 0
0.2801870443751171 0.7232640621950708 0
0.3210515896692885 0.2660229999070867 0
0.2767359378049293 0.280187044375117 0
0.7339770000929133 0.3210515896692885 0
0.719812955624883 0.2767359378049293 0
0.9401434402115563 0.586488776351282 0
0.586488776351282 0.05985655978844362 0
0.4135112236487181 0.9401434402115565 0
0.05985655978844345 0.4135112236487181 0
0.2688500948177919 0.3324719929941639 0
0.667528007005836 0.268850094817792 0
0.332471992994164 0.7311499051822081 0
0.7311499051822081 0.667528007005836 0
0.2313397935121126 0.7128466965910072 0
0.2183727571929224 0.6628355558232868 0
0.7128466965910072 0.7686602064878874 0
0.6628355558232867 0.7816272428070776 0
0.2871533034089931 0.2313397935121126 0
0.3371644441767135 0.2183727571929225 0
0.7686602064878874 0.2871533034089931 0
0.7816272428070774 0.3371644441767134 0
0.7530364163338412 0.2359013773818543 0
0.2359013773818543 0.2469635836661588 0
0.764098622618146 0.7530364163338409 0
0.2469635836661591 0.764098622618146 0
0.1929273004492772 0.7542842004706832 0
0.7542842004706832 0.8070726995507229 0
0.807072699550723 0.2457157995293173 0
0.2457157995293173 0.192927300449277 0
0.7897215570139872 0.1909222966118212 0
0.7303097974046895 0.181545927805247 0
0.1909222966118212 0.2102784429860128 0
0.181545927805247 0.2696902025953105 0
0.8090777033881793 0.7897215570139868 0
0.8184540721947534 0.730309797404689 0
0.2102784429860133 0.8090777033881793 0
0.2696902025953111 0.8184540721947533 0
0.5736209009083967 0.9339058429797913 0
0.0660941570202086 0.5736209009083966 0
0.4263790990916037 0.06609415702020849 0
0.9339058429797914 0.4263790990916037 0
0.7966730387301013 0.8496245482104554 0
0.1503754517895447 0.7966730387301014 0
0.8496245482104557 0.2033269612698994 0
0.2033269612698994 0.1503754517895443 0
0.2686214353722723 0.1325404268685086 0
0.7313785646277282 0.8674595731314911 0
0.1325404268685089 0.7313785646277284 0
0.8674595731314914 0.2686214353722722 0
0.8310027964965736 0.136055464744927 0
0.136055464744927 0.1689972035034263 0
0.1689972035034268 0.8639445352550733 0
0.8639445352550733 0.8310027964965733 0
0.7316087381448195 0.06637837583394463 0
0.0663783758339444 0.2683912618551804 0
0.2683912618551806 0.9336216241660555 0
0.9336216241660555 0.7316087381448194 0
0.285879533569216 0.6045135858883478 0
0.2544733384718224 0.5691933212249491 0
0.2679564093143919 0.5254419405006947 0
0.2217375852915902 0.537240098783941 0
0.235332930768312 0.4895611717691151 0
0.1854303280426026 0.503424393493162 0
0.199425575214408 0.4526765698527297 0
0.1745550687961517 0.5554652864443351 0
0.2512734784798423 0.4400520804252727 0
0.2141538487375235 0.401805794565367 0
0.1323847137726005 0.5194490067343276 0
0.6045135858883478 0.714120466430784 0
0.5691933212249491 0.7455266615281775 0
0.5254419405006948 0.7320435906856082 0
0.5372400987839411 0.7782624147084098 0
0.4895611717691152 0.7646670692316879 0
0.5034243934931621 0.8145696719573974 0
0.4526765698527298 0.8005744247855922 0
0.5554652864443352 0.8254449312038483 0
0.4400520804252728 0.7487265215201577 0
0.4018057945653671 0.7858461512624765 0
0.5194490067343277 0.8676152862273995 0
0.714120466430784 0.3954864141116522 0
0.7455266615281776 0.4308066787750509 0
0.7320435906856081 0.4745580594993052 0
0.7782624147084098 0.462759901216059 0
0.7646670692316878 0.510438828230885 0
0.8145696719573974 0.4965756065068381 0
0.8005744247855919 0.5473234301472704 0
0.8254449312038484 0.4445347135556651 0
0.7487265215201576 0.5599479195747273 0
0.7858461512624764 0.598194205434633 0
0.8676152862273995 0.4805509932656727 0
0.3954864141116521 0.285879533569216 0
0.4308066787750507 0.2544733384718224 0
0.4745580594993052 0.2679564093143918 0
0.462759901216059 0.2217375852915901 0
0.5104388282308849 0.2353329307683121 0
0.4965756065068381 0.1854303280426027 0
0.5473234301472704 0.1994255752144081 0
0.4445347135556651 0.1745550687961515 0
0.5599479195747272 0.2512734784798424 0
0.598194205434633 0.2141538487375239 0
0.4805509932656729 0.1323847137726005 0
0.5860840213777802 0.1621835978447779 0
0.8378164021552222 0.58608402137778 0
0.1621835978447775 0.4139159786222201 0
0.41391597862222 0.8378164021552225 0
0.05728130128316744 0.8869316257517721 0
0.8869316257517721 0.9427186987168326 0
0.942718698716833 0.1130683742482281 0
0.1130683742482281 0.057281301283167 0
0.1751168757275217 0.3617162299495922 0
0.6382837700504078 0.1751168757275222 0
0.8248831242724779 0.6382837700504077 0
0.3617162299495924 0.8248831242724781 0
0.6147872397626575 0.2594174284479127 0
0.2594174284479124 0.3852127602373425 0
0.7405825715520875 0.6147872397626576 0
0.3852127602373425 0.7405825715520875 0
0.7831406439760036 0.9134321298954842 0
0.08656787010451594 0.7831406439760041 0
0.9134321298954844 0.2168593560239972 0
0.2168593560239972 0.08656787010451561 0
0.6250789150922825 0.1185926062288484 0
0.8814073937711517 0.6250789150922824 0
0.3749210849077176 0.881407393771152 0
0.1185926062288479 0.3749210849077177 0
0.2358254132670272 0.612500285975122 0
0.1788126563663006 0.6100961609408107 0
0.1571354775459081 0.6686249519980079 0
0.612500285975122 0.7641745867329728 0
0.6100961609408107 0.8211873436336994 0
0.6686249519980078 0.8428645224540917 0
0.7641745867329728 0.3874997140248782 0
0.8211873436336994 0.3899038390591896 0
0.8428645224540917 0.3313750480019927 0
0.3874997140248781 0.2358254132670272 0
0.3899038390591896 0.1788126563663005 0
0.3313750480019927 0.1571354775459082 0
0.1137852280434029 0.6226859249180662 0
0.8862147719565971 0.3773140750819343 0
0.6226859249180662 0.886214771956597 0
0.3773140750819343 0.1137852280434027 0
0.5044036641624745 0.06407488206302386 0
0.06407488206302386 0.4955963358375257 0
0.4955963358375257 0.9359251179369763 0
0.9359251179369762 0.5044036641624745 0
0.1020966243401151 0.6779355898018802 0
0.3220644101981202 0.1020966243401147 0
0.6779355898018802 0.8979033756598849 0
0.8979033756598851 0.3220644101981202 0
0.2853000009713083 0.4764663495173074 0
0.7146999990286914 0.5235336504826926 0
0.4764663495173074 0.7146999990286917 0
0.5235336504826925 0.2853000009713083 0
0.1953348826674048 0.9331759755296904 0
0.0668240244703095 0.1953348826674046 0
0.9331759755296904 0.8046651173325952 0
0.8046651173325954 0.06682402447030966 0
0.1365019045118364 0.3121664562706169 0
0.6878335437293828 0.1365019045118376 0
0.8634980954881628 0.6878335437293825 0
0.3121664562706175 0.8634980954881628 0
0.1171014866731893 0.924397807194587 0
0.9243978071945869 0.8828985133268107 0
0.07560219280541319 0.117101486673189 0
0.882898513326811 0.07560219280541325 0
0.6558260953689261 0.6277494075917974 0
0.6277494075917974 0.3441739046310739 0
0.3441739046310739 0.3722505924082026 0
0.3722505924082026 0.6558260953689261 0
0.5922365682789589 0.332088245329851 0
0.332088245329851 0.4077634317210411 0
0.667911754670149 0.5922365682789589 0
0.4077634317210411 0.667911754670149 0
0.4845257029773355 0.3091675357779146 0
0.6908324642220853 0.4845257029773355 0
0.5154742970226645 0.6908324642220854 0
0.3091675357779146 0.5154742970226645 0
0.6598722925329722 0.06234279888957839 0
0.9376572011104217 0.6598722925329722 0
0.3401277074670278 0.9376572011104218 0
0.06234279888957817 0.3401277074670277 0
0.7625235916870079 0.1297046656630145 0
0.2374764083129924 0.8702953343369857 0
0.1297046656630143 0.237476408312992 0
0.8702953343369857 0.7625235916870077 0
0.7029828812350919 0.2305778854535329 0
0.2305778854535329 0.2970171187649081 0
0.7694221145464668 0.7029828812350917 0
0.2970171187649083 0.7694221145464668 0
0.2227797154571887 0.3488294811895963 0
0.3488294811895965 0.7772202845428111 0
0.6511705188104037 0.2227797154571889 0
0.7772202845428111 0.6511705188104036 0
0.7083138467723502 0.5801385383459805 0
0.4198614616540196 0.7083138467723504 0
0.2916861532276496 0.4198614616540196 0
0.5801385383459804 0.2916861532276497 0
0.4693823648464369 0.8569014253295619 0
0.1430985746704381 0.4693823648464369 0
0.8569014253295619 0.5306176351535633 0
0.5306176351535633 0.1430985746704382 0
0.3078664577634242 0.3662677321171217 0
0.3662677321171217 0.6921335422365757 0
0.6337322678828783 0.3078664577634243 0
0.6921335422365757 0.6337322678828783 0
0.4835766026457072 0.6766060865437484 0
0.5164233973542929 0.3233939134562516 0
0.3233939134562516 0.4835766026457072 0
0.6766060865437482 0.5164233973542929 0
0.8937455741326654 0.1524743996028821 0
0.1524743996028821 0.1062544258673346 0
0.1062544258673352 0.8475256003971186 0
0.8475256003971183 0.8937455741326649 0
0.1246938984077911 0.5698587763949482 0
0.4301412236050522 0.1246938984077909 0
0.8753061015922089 0.4301412236050521 0
0.5698587763949484 0.8753061015922086 0
0.05940964957338191 0.7195307964864994 0
0.7195307964864994 0.9405903504266184 0
0.2804692035135008 0.05940964957338135 0
0.9405903504266185 0.2804692035135008 0
0.05689760982951808 0.6502442533011916 0
0.6502442533011916 0.9431023901704819 0
0.943102390170482 0.3497557466988085 0
0.3497557466988085 0.05689760982951791 0
0.4216993347068367 0.2106521060678589 0
0.789347893932141 0.4216993347068368 0
0.578300665293163 0.7893478939321406 0
0.2106521060678592 0.578300665293163 0
0.9436883994177787 0.9436883994177787 0
0.05631160058222134 0.9436883994177787 0
0.05631160058222134 0.05631160058222134 0
0.9436883994177787 0.05631160058222134 0
0.9499792805489966 0.1734035028980984 0
0.1734035028980984 0.05002071945100339 0
0.826596497101902 0.9499792805489964 0
0.05002071945100378 0.8265964971019021 0
0.2605564106786259 0.6410208099622082 0
0.6410208099622082 0.739443589321374 0
0.739443589321374 0.3589791900377919 0
0.3589791900377919 0.260556410678626 0
0.5665346024274764 0.1095612441191064 0
0.8904387558808937 0.5665346024274764 0
0.1095612441191062 0.4334653975725237 0
0.4334653975725237 0.8904387558808937 0
0.2924230257163679 0.1861321845050659 0
0.7075769742836326 0.8138678154949341 0
0.8138678154949341 0.2924230257163679 0
0.1861321845050658 0.7075769742836326 0
0.6836496077779792 0.1889408851875312 0
0.1889408851875309 0.3163503922220208 0
0.8110591148124688 0.683649607777979 0
0.3163503922220212 0.8110591148124687 0
0.4603687450312008 0.09681191281590595 0
0.9031880871840939 0.4603687450312007 0
0.09681191281590606 0.5396312549687995 0
0.5396312549687996 0.9031880871840939 0
$EndNodes
$Elements
6 858 1 858
1 1 1 13
1 1 9 
2 9 10 
3 10 11 
4 11 12 
5 12 13 
6 13 14 
7 14 15 
8 15 16 
9 16 17 
10 17 18 
11 18 19 
12 19 20 
13 20 2 
1 2 1 13
14 3 21 
15 21 22 
16 22 23 
17 23 24 
18 24 25 
19 25 26 
20 26 27 
21 27 28 
22 28 29 
23 29 30 
24 30 31 
25 31 32 
26 32 1 
1 3 1 13
27 2 33 
28 33 34 
29 34 35 
30 35 36 
31 36 37 
32 37 38 
33 38 39 
34 39 40 
35 40 41 
36 41 42 
37 42 43 
38 43 44 
39 44 4 
1 4 1 13
40 4 45 
41 45 46 
42 46 47 
43 47 48 
44 48 49 
45 49 50 
46 50 51 
47 51 52 
48 52 53 
49 53 54 
50 54 55 
51 55 56 
52 56 3 
2 2 2 162
53 129 132 90 
54 124 129 90 
55 87 121 114 
56 91 115 111 
57 114 122 87 
58 91 138 115 
59 74 123 73 
60 96 119 117 
61 92 126 119 
62 117 140 96 
63 73 123 90 
64 87 123 74 
65 85 117 116 
66 85 116 115 
67 101 125 118 
68 119 126 118 
69 93 132 129 
70 122 123 87 
71 118 125 116 
72 118 126 101 
73 122 145 123 
74 123 145 124 
75 121 135 114 
76 111 136 91 
77 117 118 116 
78 133 136 95 
79 136 149 95 
80 124 137 129 
81 123 124 90 
82 117 119 118 
83 119 134 92 
84 98 126 97 
85 97 126 92 
86 101 126 98 
87 94 121 76 
88 68 128 86 
89 99 100 98 
90 116 125 109 
91 61 85 60 
92 69 128 68 
93 70 93 69 
94 86 97 67 
95 107 110 106 
96 86 98 97 
97 100 101 98 
98 63 96 62 
99 68 86 67 
100 93 129 128 
101 100 102 101 
102 103 104 102 
103 88 127 81 
104 93 128 69 
105 95 120 83 
106 128 129 99 
107 82 120 88 
108 108 112 111 
109 81 127 80 
110 105 125 102 
111 104 106 105 
112 66 97 92 
113 77 94 76 
114 80 127 89 
115 66 92 65 
116 104 105 102 
117 108 111 109 
118 111 115 109 
119 76 121 75 
120 104 107 106 
121 59 91 58 
122 110 130 106 
123 108 130 112 
124 80 89 79 
125 83 120 82 
126 115 116 109 
127 84 95 83 
128 109 125 105 
129 75 121 87 
130 86 128 99 
131 82 88 81 
132 73 90 72 
133 107 114 113 
134 75 87 74 
135 106 108 105 
136 107 113 110 
137 67 97 66 
138 106 130 108 
139 108 109 105 
140 102 125 101 
141 86 99 98 
142 100 103 102 
143 114 139 122 
144 131 150 94 
145 94 150 135 
146 79 131 78 
147 58 133 57 
148 72 132 71 
149 115 138 85 
150 65 134 64 
151 92 134 65 
152 85 140 117 
153 91 133 58 
154 89 131 79 
155 90 132 72 
156 103 145 139 
157 96 134 119 
158 129 137 99 
159 100 137 103 
160 85 138 60 
161 59 138 91 
162 107 139 114 
163 103 139 104 
164 96 140 62 
165 61 140 85 
166 5 141 84 
167 57 141 5 
168 78 142 8 
169 71 144 7 
170 64 143 6 
171 6 143 63 
172 7 144 70 
173 8 142 77 
174 137 145 103 
175 114 135 113 
176 94 135 121 
177 112 136 111 
178 139 145 122 
179 99 137 100 
180 91 136 133 
181 60 138 59 
182 104 139 107 
183 124 145 137 
184 133 141 57 
185 132 144 71 
186 131 142 78 
187 62 140 61 
188 63 143 96 
189 84 141 95 
190 77 142 94 
191 70 144 93 
192 134 143 64 
193 147 149 112 
194 113 146 110 
195 120 147 88 
196 130 148 147 
197 147 148 88 
198 127 146 89 
199 110 148 130 
200 130 147 112 
201 88 148 127 
202 146 148 110 
203 127 148 146 
204 120 149 147 
205 95 149 120 
206 93 144 132 
207 94 142 131 
208 95 141 133 
209 113 150 146 
210 146 150 89 
211 96 143 134 
212 89 150 131 
213 112 149 136 
214 135 150 113 
2 3 2 644
215 367 378 345 
216 370 377 343 
217 369 375 344 
218 368 376 346 
219 64 253 162 
220 78 231 159 
221 71 242 160 
222 57 264 161 
223 337 384 224 
224 338 383 223 
225 335 385 225 
226 336 386 226 
227 315 374 274 
228 318 373 263 
229 316 372 241 
230 317 371 252 
231 315 415 374 
232 318 416 373 
233 316 417 372 
234 317 418 371 
235 346 376 342 
236 344 375 341 
237 343 377 340 
238 345 378 339 
239 325 368 157 
240 326 370 156 
241 323 369 158 
242 324 367 155 
243 227 355 332 
244 230 358 333 
245 229 356 334 
246 228 357 331 
247 6 253 64 
248 7 242 71 
249 5 264 57 
250 8 231 78 
251 328 337 224 
252 330 338 223 
253 327 335 225 
254 329 336 226 
255 394 397 322 
256 393 398 320 
257 392 396 321 
258 391 395 319 
259 309 388 271 
260 300 387 238 
261 306 389 260 
262 303 390 249 
263 151 375 166 
264 154 376 170 
265 152 377 164 
266 153 378 168 
267 315 427 213 
268 318 428 214 
269 316 429 212 
270 317 430 211 
271 250 368 325 
272 272 370 326 
273 239 369 323 
274 261 367 324 
275 242 243 160 
276 231 232 159 
277 253 254 162 
278 264 265 161 
279 179 352 296 
280 180 351 295 
281 181 353 297 
282 182 354 298 
283 341 375 151 
284 340 377 152 
285 339 378 153 
286 342 376 154 
287 12 398 393 
288 36 397 394 
289 48 396 392 
290 24 395 391 
291 52 353 181 
292 16 351 180 
293 28 354 182 
294 40 352 179 
295 332 351 227 
296 333 352 230 
297 334 353 229 
298 331 354 228 
299 281 383 338 
300 282 384 337 
301 280 386 336 
302 279 385 335 
303 314 388 309 
304 312 389 306 
305 311 387 300 
306 313 390 303 
307 330 355 227 
308 328 357 228 
309 327 356 229 
310 329 358 230 
311 333 358 208 
312 332 355 204 
313 331 357 206 
314 334 356 210 
315 38 318 214 
316 14 315 213 
317 50 317 211 
318 26 316 212 
319 287 377 370 
320 289 378 367 
321 288 375 369 
322 290 376 368 
323 184 377 287 
324 183 375 288 
325 185 376 290 
326 186 378 289 
327 219 393 320 
328 222 394 322 
329 220 392 321 
330 221 391 319 
331 292 410 23 
332 291 409 47 
333 294 408 11 
334 293 407 35 
335 324 348 255 
336 323 350 233 
337 325 349 244 
338 326 347 266 
339 223 355 330 
340 224 357 328 
341 225 356 327 
342 226 358 329 
343 157 379 325 
344 156 380 326 
345 158 381 323 
346 155 382 324 
347 261 324 257 
348 239 323 235 
349 272 326 268 
350 250 325 246 
351 182 417 316 
352 179 416 318 
353 180 415 315 
354 181 418 317 
355 295 351 332 
356 296 352 333 
357 297 353 334 
358 298 354 331 
359 288 363 183 
360 287 365 184 
361 290 364 185 
362 289 366 186 
363 257 324 255 
364 235 323 233 
365 268 326 266 
366 246 325 244 
367 30 328 228 
368 18 330 227 
369 54 327 229 
370 42 329 230 
371 220 321 304 
372 221 319 301 
373 219 320 310 
374 222 322 307 
375 23 391 292 
376 47 392 291 
377 11 393 294 
378 35 394 293 
379 294 393 219 
380 293 394 222 
381 292 391 221 
382 291 392 220 
383 16 180 15 
384 40 179 39 
385 52 181 51 
386 28 182 27 
387 14 213 13 
388 38 214 37 
389 26 212 25 
390 50 211 49 
391 182 316 27 
392 181 317 51 
393 179 318 39 
394 180 315 15 
395 166 375 183 
396 170 376 185 
397 168 378 186 
398 164 377 184 
399 18 227 17 
400 30 228 29 
401 42 230 41 
402 54 229 53 
403 251 290 250 
404 240 288 239 
405 273 287 272 
406 262 289 261 
407 314 398 213 
408 313 396 211 
409 311 395 212 
410 312 397 214 
411 55 327 54 
412 31 328 30 
413 43 329 42 
414 19 330 18 
415 301 422 221 
416 304 420 220 
417 307 421 222 
418 310 419 219 
419 270 272 268 
420 237 239 235 
421 259 261 257 
422 248 250 246 
423 10 282 9 
424 34 281 33 
425 22 279 21 
426 46 280 45 
427 51 317 50 
428 15 315 14 
429 39 318 38 
430 27 316 26 
431 188 300 299 
432 190 303 302 
433 192 309 308 
434 194 306 305 
435 254 255 162 
436 232 233 159 
437 243 244 160 
438 265 266 161 
439 238 402 300 
440 260 400 306 
441 271 399 309 
442 249 401 303 
443 19 338 330 
444 31 337 328 
445 43 336 329 
446 55 335 327 
447 44 336 43 
448 56 335 55 
449 20 338 19 
450 32 337 31 
451 29 354 28 
452 17 351 16 
453 41 352 40 
454 53 353 52 
455 23 410 22 
456 47 409 46 
457 11 408 10 
458 35 407 34 
459 211 390 313 
460 212 387 311 
461 213 388 314 
462 214 389 312 
463 184 365 359 
464 185 364 362 
465 183 363 360 
466 186 366 361 
467 237 240 239 
468 259 262 261 
469 270 273 272 
470 248 251 250 
471 290 368 250 
472 288 369 239 
473 289 367 261 
474 287 370 272 
475 323 381 350 
476 325 379 349 
477 324 382 348 
478 326 380 347 
479 37 397 36 
480 49 396 48 
481 13 398 12 
482 25 395 24 
483 299 411 188 
484 302 412 190 
485 308 414 192 
486 305 413 194 
487 253 305 254 
488 231 299 232 
489 242 302 243 
490 264 308 265 
491 227 351 17 
492 229 353 53 
493 228 354 29 
494 230 352 41 
495 84 151 5 
496 63 152 6 
497 70 153 7 
498 77 154 8 
499 215 220 200 
500 216 221 199 
501 218 219 202 
502 217 222 201 
503 67 155 68 
504 60 156 61 
505 74 157 75 
506 81 158 82 
507 198 210 209 
508 196 206 205 
509 197 208 207 
510 195 204 203 
511 365 423 359 
512 363 424 360 
513 366 425 361 
514 364 426 362 
515 68 345 69 
516 61 343 62 
517 75 346 76 
518 82 344 83 
519 62 340 63 
520 69 339 70 
521 83 341 84 
522 76 342 77 
523 170 185 174 
524 166 183 176 
525 164 184 178 
526 168 186 172 
527 64 162 65 
528 57 161 58 
529 78 159 79 
530 71 160 72 
531 255 348 162 
532 233 350 159 
533 266 347 161 
534 244 349 160 
535 58 347 59 
536 79 350 80 
537 72 349 73 
538 65 348 66 
539 321 396 313 
540 320 398 314 
541 322 397 312 
542 319 395 311 
543 193 194 177 
544 187 188 173 
545 191 192 175 
546 189 190 171 
547 236 237 235 
548 247 248 246 
549 269 270 268 
550 258 259 257 
551 277 283 240 
552 278 286 251 
553 275 284 273 
554 276 285 262 
555 295 415 180 
556 296 416 179 
557 297 418 181 
558 298 417 182 
559 2 406 20 
560 3 404 56 
561 4 403 44 
562 1 405 32 
563 9 405 1 
564 21 404 3 
565 33 406 2 
566 45 403 4 
567 298 331 283 
568 295 332 284 
569 296 333 285 
570 297 334 286 
571 245 246 244 
572 267 268 266 
573 234 235 233 
574 256 257 255 
575 207 226 215 
576 205 224 218 
577 209 225 216 
578 203 223 217 
579 263 428 318 
580 241 429 316 
581 252 430 317 
582 274 427 315 
583 217 293 222 
584 216 292 221 
585 218 294 219 
586 215 291 220 
587 190 304 303 
588 188 301 300 
589 194 307 306 
590 192 310 309 
591 197 361 208 
592 198 362 210 
593 195 359 204 
594 196 360 206 
595 245 249 247 
596 267 271 269 
597 234 238 236 
598 256 260 258 
599 207 215 200 
600 209 216 199 
601 203 217 201 
602 205 218 202 
603 259 276 262 
604 248 278 251 
605 237 277 240 
606 270 275 273 
607 254 256 255 
608 265 267 266 
609 243 245 244 
610 232 234 233 
611 169 231 8 
612 167 242 7 
613 163 253 6 
614 165 264 5 
615 275 295 284 
616 277 298 283 
617 278 297 286 
618 276 296 285 
619 151 165 5 
620 152 163 6 
621 154 169 8 
622 153 167 7 
623 195 203 201 
624 198 209 199 
625 196 205 202 
626 197 207 200 
627 172 197 189 
628 176 196 191 
629 174 198 187 
630 178 195 193 
631 304 313 303 
632 307 312 306 
633 310 314 309 
634 301 311 300 
635 206 357 205 
636 210 356 209 
637 204 355 203 
638 208 358 207 
639 245 247 246 
640 267 269 268 
641 234 236 235 
642 256 258 257 
643 307 322 312 
644 310 320 314 
645 301 319 311 
646 304 321 313 
647 197 200 189 
648 198 199 187 
649 195 201 193 
650 196 202 191 
651 63 340 152 
652 84 341 151 
653 70 339 153 
654 77 342 154 
655 251 364 290 
656 262 366 289 
657 240 363 288 
658 273 365 287 
659 156 343 61 
660 157 346 75 
661 155 345 68 
662 158 344 82 
663 285 366 262 
664 283 363 240 
665 286 364 251 
666 284 365 273 
667 176 191 175 
668 178 193 177 
669 174 187 173 
670 172 189 171 
671 69 345 339 
672 76 346 342 
673 62 343 340 
674 83 344 341 
675 238 241 236 
676 260 263 258 
677 249 252 247 
678 271 274 269 
679 184 359 178 
680 183 360 176 
681 185 362 174 
682 186 361 172 
683 170 174 173 
684 166 176 175 
685 168 172 171 
686 164 178 177 
687 203 355 223 
688 205 357 224 
689 207 358 226 
690 209 356 225 
691 73 379 74 
692 59 380 60 
693 80 381 81 
694 66 382 67 
695 161 347 58 
696 159 350 79 
697 162 348 65 
698 160 349 72 
699 151 166 165 
700 152 164 163 
701 153 168 167 
702 154 170 169 
703 212 395 25 
704 211 396 49 
705 214 397 37 
706 213 398 13 
707 166 175 165 
708 170 173 169 
709 164 177 163 
710 168 171 167 
711 222 421 201 
712 219 419 202 
713 221 422 199 
714 220 420 200 
715 155 367 345 
716 156 370 343 
717 157 368 346 
718 158 369 344 
719 215 386 291 
720 218 384 294 
721 217 383 293 
722 216 385 292 
723 74 379 157 
724 81 381 158 
725 67 382 155 
726 60 380 156 
727 176 360 196 
728 172 361 197 
729 174 362 198 
730 178 359 195 
731 194 413 177 
732 188 411 173 
733 190 412 171 
734 192 414 175 
735 247 371 248 
736 258 373 259 
737 236 372 237 
738 269 374 270 
739 347 380 59 
740 350 381 80 
741 348 382 66 
742 349 379 73 
743 237 372 277 
744 248 371 278 
745 270 374 275 
746 259 373 276 
747 24 391 23 
748 48 392 47 
749 36 394 35 
750 12 393 11 
751 284 423 365 
752 285 425 366 
753 283 424 363 
754 286 426 364 
755 305 400 254 
756 308 399 265 
757 299 402 232 
758 302 401 243 
759 223 383 217 
760 225 385 216 
761 224 384 218 
762 226 386 215 
763 300 402 299 
764 303 401 302 
765 306 400 305 
766 309 399 308 
767 265 399 267 
768 254 400 256 
769 232 402 234 
770 243 401 245 
771 263 373 258 
772 252 371 247 
773 241 372 236 
774 274 374 269 
775 56 404 335 
776 44 403 336 
777 32 405 337 
778 20 406 338 
779 22 410 279 
780 46 409 280 
781 10 408 282 
782 34 407 281 
783 281 406 33 
784 279 404 21 
785 280 403 45 
786 282 405 9 
787 187 422 188 
788 191 419 192 
789 193 421 194 
790 189 420 190 
791 275 415 295 
792 276 416 296 
793 277 417 298 
794 278 418 297 
795 338 406 281 
796 335 404 279 
797 337 405 282 
798 336 403 280 
799 190 420 304 
800 188 422 301 
801 192 419 310 
802 194 421 307 
803 331 424 283 
804 333 425 285 
805 334 426 286 
806 332 423 284 
807 238 387 241 
808 271 388 274 
809 249 390 252 
810 260 389 263 
811 206 424 331 
812 210 426 334 
813 204 423 332 
814 208 425 333 
815 267 399 271 
816 234 402 238 
817 245 401 249 
818 256 400 260 
819 242 412 302 
820 253 413 305 
821 231 411 299 
822 264 414 308 
823 167 412 242 
824 169 411 231 
825 163 413 253 
826 165 414 264 
827 200 420 189 
828 199 422 187 
829 201 421 193 
830 202 419 191 
831 173 411 169 
832 171 412 167 
833 175 414 165 
834 177 413 163 
835 361 425 208 
836 362 426 210 
837 360 424 206 
838 359 423 204 
839 384 408 294 
840 383 407 293 
841 386 409 291 
842 385 410 292 
843 374 415 275 
844 372 417 277 
845 373 416 276 
846 371 418 278 
847 282 408 384 
848 281 407 383 
849 280 409 386 
850 279 410 385 
851 214 428 389 
852 212 429 387 
853 213 427 388 
854 211 430 390 
855 389 428 263 
856 388 427 274 
857 387 429 241 
858 390 430 252 
$EndElements
