$MeshFormat
4.1 0 8
$EndMeshFormat
$PhysicalNames
3
1 101 "outer_boundary"
2 1 "material_1"
2 2 "material_2"
$EndPhysicalNames
$Entities
7 7 2 0
1 0 0 0 0 
2 1 0 0 0 
3 0 1 0 0 
4 1 1 0 0 
5 0.5666450597222541 0.6175516104173671 0 0 
6 0.638147603661384 0.2446071015803961 0 0 
7 0.9253757505465461 0.4930023754853811 0 0 
1 -9.999999994736442e-08 -1e-07 -1e-07 1.0000001 1e-07 1e-07 1 101 2 1 -2 
2 -1e-07 -9.999999994736442e-08 -1e-07 1e-07 1.0000001 1e-07 1 101 2 3 -1 
3 0.9999999000000001 -9.999999994736442e-08 -1e-07 1.0000001 1.0000001 1e-07 1 101 2 2 -4 
4 -9.999999994736442e-08 0.9999999000000001 -1e-07 1.0000001 1.0000001 1e-07 1 101 2 4 -3 
5 0.5666449597222541 0.2446070015803961 -1e-07 0.638147703661384 0.617551710417367 1e-07 0 2 5 -6 
6 0.6381475036613841 0.2446070015803961 -1e-07 0.925375850546546 0.4930024754853811 1e-07 0 2 6 -7 
7 0.5666449597222541 0.4930022754853811 -1e-07 0.925375850546546 0.617551710417367 1e-07 0 2 7 -5 
2 0.5666449597222541 0.2446070015803961 -1e-07 0.925375850546546 0.617551710417367 1e-07 1 2 3 5 6 7 
3 -9.999999994736442e-08 -9.999999994736442e-08 -1e-07 1.0000001 1.0000001 1e-07 1 1 7 1 3 4 2 -5 -7 -6 
$EndEntities
$Nodes
16 228 1 228
0 1 0 1
1
0 0 0
0 2 0 1
2
1 0 0
0 3 0 1
3
0 1 0
0 4 0 1
4
1 1 0
0 5 0 1
5
0.5666450597222541 0.6175516104173671 0
0 6 0 1
6
0.638147603661384 0.2446071015803961 0
0 7 0 1
7
0.9253757505465461 0.4930023754853811 0
1 1 0 9
8
9
10
11
12
13
14
15
16
0.09999999999999996 0 0
0.1999999999999999 0 0
0.3000000000000001 0 0
0.4000000000000004 0 0
0.5000000000000003 0 0
0.5999999999999999 0 0
0.6999999999999995 0 0
0.7999999999999992 0 0
0.899999999999999 0 0
1 2 0 9
17
18
19
20
21
22
23
24
25
0 0.9 0
0 0.8 0
0 0.7 0
0 0.5999999999999996 0
0 0.4999999999999997 0
0 0.4000000000000001 0
0 0.3000000000000005 0
0 0.2000000000000008 0
0 0.100000000000001 0
1 3 0 9
26
27
28
29
30
31
32
33
34
1 0.09999999999999996 0
1 0.1999999999999999 0
1 0.3000000000000001 0
1 0.4000000000000004 0
1 0.5000000000000003 0
1 0.5999999999999999 0
1 0.6999999999999995 0
1 0.7999999999999992 0
1 0.899999999999999 0
1 4 0 9
35
36
37
38
39
40
41
42
43
0.9 1 0
0.8 1 0
0.7 1 0
0.5999999999999996 1 0
0.4999999999999997 1 0
0.4000000000000001 1 0
0.3000000000000005 1 0
0.2000000000000008 1 0
0.100000000000001 1 0
1 5 0 6
44
45
46
47
48
49
0.5768597088564155 0.5642738234406569 0
0.5870743579905769 0.5109960364639468 0
0.5972890071247383 0.4577182494872366 0
0.6075036562588998 0.4044404625105265 0
0.6177183053930612 0.3511626755338165 0
0.6279329545272225 0.2978848885571063 0
1 6 0 6
50
51
52
53
54
55
0.6791801960735501 0.2800921407096797 0
0.7202127884857161 0.3155771798389633 0
0.7612453808978821 0.3510622189682469 0
0.8022779733100481 0.3865472580975304 0
0.843310565722214 0.4220322972268139 0
0.88434315813438 0.4575173363560975 0
1 7 0 6
56
57
58
59
60
61
0.8741285090002187 0.5107951233328076 0
0.8228812674538912 0.5285878711802342 0
0.7716340259075638 0.5463806190276608 0
0.7203867843612364 0.5641733668750873 0
0.6691395428149089 0.5819661147225139 0
0.6178923012685815 0.5997588625699405 0
2 2 0 15
62
63
64
65
66
67
68
69
70
71
72
73
74
75
76
0.6485362486710657 0.4399255016398101 0
0.7920633241758868 0.4398250450742405 0
0.7306014334953979 0.5108955798983772 0
0.7099981393515548 0.3688549668156734 0
0.6689655469393887 0.3333699276863898 0
0.6281069504027429 0.5464810755932303 0
0.7510307317637208 0.404340005944957 0
0.6997834902173934 0.4221327537923836 0
0.6587508978052272 0.3866477146630999 0
0.7818486750417253 0.4931028320509507 0
0.8330959165880527 0.4753100842035241 0
0.6895688410832319 0.4754105407690936 0
0.6383215995369044 0.4932032886165202 0
0.6793541919490704 0.5286883277458038 0
0.7408160826295593 0.4576177929216671 0
2 3 0 152
77
78
79
80
81
82
83
84
85
86
87
88
89
90
91
92
93
94
95
96
97
98
99
100
101
102
103
104
105
106
107
108
109
110
111
112
113
114
115
116
117
118
119
120
121
122
123
124
125
126
127
128
129
130
131
132
133
134
135
136
137
138
139
140
141
142
143
144
145
146
147
148
149
150
151
152
153
154
155
156
157
158
159
160
161
162
163
164
165
166
167
168
169
170
171
172
173
174
175
176
177
178
179
180
181
182
183
184
185
186
187
188
189
190
191
192
193
194
195
196
197
198
199
200
201
202
203
204
205
206
207
208
209
210
211
212
213
214
215
216
217
218
219
220
221
222
223
224
225
226
227
228
0.570371387183589 0.3698212906718868 0
0.5363521866738157 0.5273503481201234 0
0.09953369605882012 0.3519447239405715 0
0.08148601941064693 0.6469130500209446 0
0.7107521779876906 0.6176365041022926 0
0.3417138240656598 0.9176474423793288 0
0.357519201643513 0.06882937325085114 0
0.5844853778785143 0.2629960168346152 0
0.8131681303343037 0.5833101291048632 0
0.6092810558875303 0.6545500510032299 0
0.5547640733856667 0.6738591737355075 0
0.7305004341106143 0.2622149844657734 0
0.5102973668439633 0.632818190905138 0
0.5999556323149574 0.7136596332354546 0
0.4965559932185491 0.6945576872380401 0
0.4484594415122881 0.6488496434051104 0
0.7491289169317645 0.9214111814809027 0
0.8135023717808422 0.3321018626304493 0
0.9150160105083942 0.7538333482178428 0
0.4332595023330132 0.7170012508992685 0
0.3817882211538998 0.6697251312697865 0
0.3995299618561905 0.6012254613331525 0
0.3299284928457481 0.6203944647408737 0
0.3479990903859862 0.5472480546874852 0
0.300865282898487 0.6955760070971607 0
0.4998144508948398 0.7695570054052385 0
0.595451819764672 0.2033461144944459 0
0.5379035200532434 0.2255034682898467 0
0.2749224917701684 0.5680825394047295 0
0.293685580202992 0.4941728913558495 0
0.3674651487854634 0.4737069902415052 0
0.3145602692934973 0.4207221957041457 0
0.3883016193862868 0.4016771672798194 0
0.3342400429290648 0.3473677658871146 0
0.6549222671508678 0.1845041412216905 0
0.2165067543501462 0.5139820423799789 0
0.4075497424525323 0.3291307507149977 0
0.3525291962457507 0.2736974654842721 0
0.27614551312069 0.2921341682359646 0
0.1544479234692586 0.9166401141827542 0
0.08155161705260111 0.1620183860227831 0
0.8497853109702798 0.08492937182764793 0
0.5494631767542424 0.1578612964605663 0
0.4873841968597363 0.1814402937712558 0
0.5499999999999996 0.9133974596215564 0
0.438886755654268 0.451240587935308 0
0.4233014490511536 0.7841837547991076 0
0.5268311431590424 0.2885078185879781 0
0.9129312230492792 0.2546643063220265 0
0.6554329367955634 0.6926615112734186 0
0.6489284314347172 0.7545286651225155 0
0.7123072092742617 0.7303941193140659 0
0.2983786482276476 0.2154958764367088 0
0.216606430236887 0.2341050894319692 0
0.2386808782562462 0.1487899887515869 0
0.5824933123787168 0.7755804597719658 0
0.6397262253948318 0.8263294641022143 0
0.9069809943259376 0.4029550896744158 0
0.2079250302533965 0.5961760032080039 0
0.1352329131438449 0.5501229604071953 0
0.1578856727246572 0.4525443819493298 0
0.3792523365836277 0.1975470750520769 0
0.9302361215532595 0.5505869383195233 0
0.9254948430787724 0.6221224970450544 0
0.8359338270094541 0.7008386771163253 0
0.6510580945607802 0.07456304491726629 0
0.4711678209951197 0.844889227970935 0
0.1954090559331132 0.3150056025942263 0
0.1352247006509097 0.2478100430822321 0
0.4965786075049224 0.1056182908453986 0
0.4291306797800609 0.5260987360109528 0
0.7424979097781017 0.08853601130776412 0
0.8016371884817457 0.1640611308880603 0
0.4540669542727597 0.3823004862232322 0
0.4998678133217595 0.4306189667342617 0
0.467335691081145 0.5882722293548515 0
0.9151969179025011 0.8498636394312175 0
0.8349544321379616 0.7999999999999992 0
0.2493862110356732 0.9137518308453364 0
0.2004825051404048 0.8321449336063906 0
0.2914483838311571 0.8334148227034889 0
0.09289194772121345 0.8394825615333235 0
0.1499362722806573 0.7353373373192154 0
0.6487479960065982 0.9138422806573014 0
0.2432132259883198 0.7574033505394874 0
0.9067742487361778 0.1551078366735761 0
0.8448840047786385 0.9073569711665674 0
0.4795182172348522 0.2485195306411983 0
0.7235260515648698 0.1574551504854195 0
0.5766857129808951 0.3156776364045328 0
0.5247457070603121 0.5781401625708015 0
0.5460417655784109 0.4755109973346632 0
0.4902105716987656 0.4915657348869968 0
0.4390550505729772 0.9197165291195148 0
0.2381636273497896 0.4389226215088272 0
0.2106348610902994 0.6787664851993003 0
0.7618841962579501 0.6007496427094355 0
0.7591415576195526 0.6705063599736519 0
0.6609497354892402 0.6356942901562361 0
0.7766113954978018 0.7404455141625197 0
0.7431336346508131 0.7995146179890097 0
0.5678403305698989 0.0794345732349413 0
0.6919928556718076 0.2248590384682616 0
0.1557055595529067 0.08663525414391138 0
0.4679815199241057 0.3140217278243367 0
0.9245488291969506 0.3324409792425641 0
0.4202159144343873 0.1380532498355532 0
0.7726502370065709 0.296408154020024 0
0.82833082364246 0.2734889741171134 0
0.557593656338724 0.4224895921409409 0
0.2578078001479364 0.3671236194736343 0
0.3695881185143378 0.7460768671463057 0
0.8535252148563754 0.3687545102501041 0
0.9411258146240398 0.4475605683618911 0
0.8704232065347677 0.5701992780984827 0
0.07416022171472275 0.462453817416321 0
0.5467166924385459 0.7254427918772413 0
0.8582897667398668 0.6340200773160969 0
0.8536902794373289 0.2113341129792568 0
0.5188177782324523 0.3602056957069746 0
0.5544167270868255 0.8360698191220253 0
0.06486284788250352 0.7443465897746967 0
0.2648552317716199 0.6317990999300136 0
0.378166258807508 0.8306056590667277 0
0.8056834955922254 0.6378849772440746 0
0.6126763086224833 0.1389523622086024 0
0.2534194260955285 0.06888433607472233 0
0.1628357799782428 0.1737864565038417 0
0.4172381453956051 0.2658381998845784 0
0.7813582560918563 0.8556353995234691 0
0.707965838583609 0.8520774090871619 0
0.7879090140702455 0.2360875754820203 0
0.742328791837793 0.2089966156680446 0
0.4348627447165647 0.06250018278636049 0
0.1897599704428633 0.3851081898933179 0
0.05817583085384281 0.551897965568892 0
0.8665676925051815 0.3122901265124515 0
0.926794919243112 0.9267949192431117 0
0.7007120590755201 0.6688683113359584 0
0.926794919243112 0.07320508075688781 0
0.3263034574087728 0.1480263054051706 0
0.07320508075688797 0.9267949192431122 0
0.07284620833139532 0.07382666603127663 0
0.4349342113229751 0.2114967875186406 0
0.05941691959817785 0.2512013421475093 0
0.3108891646221507 0.7683109693484123 0
0.157043019235769 0.6414631672309319 0
0.5982227371220638 0.8724097558757744 0
0.489963327808951 0.5412252510452957 0
0.6750430904684986 0.1324438617778692 0
0.9039227399510683 0.688594303882068 0
0.6857000024257899 0.7957315107700744 0
$EndNodes
$Elements
6 454 1 454
1 1 1 10
1 1 8 
2 8 9 
3 9 10 
4 10 11 
5 11 12 
6 12 13 
7 13 14 
8 14 15 
9 15 16 
10 16 2 
1 2 1 10
11 3 17 
12 17 18 
13 18 19 
14 19 20 
15 20 21 
16 21 22 
17 22 23 
18 23 24 
19 24 25 
20 25 1 
1 3 1 10
21 2 26 
22 26 27 
23 27 28 
24 28 29 
25 29 30 
26 30 31 
27 31 32 
28 32 33 
29 33 34 
30 34 4 
1 4 1 10
31 4 35 
32 35 36 
33 36 37 
34 37 38 
35 38 39 
36 39 40 
37 40 41 
38 41 42 
39 42 43 
40 43 3 
2 2 2 49
41 5 44 61 
42 6 50 49 
43 55 7 56 
44 62 70 69 
45 65 70 66 
46 69 76 73 
47 53 68 52 
48 69 70 65 
49 73 76 64 
50 52 68 65 
51 55 72 54 
52 69 73 62 
53 63 72 71 
54 49 66 48 
55 65 66 51 
56 58 71 57 
57 54 72 63 
58 59 64 58 
59 68 69 65 
60 52 65 51 
61 64 71 58 
62 73 74 62 
63 71 72 57 
64 44 67 61 
65 45 74 67 
66 56 72 55 
67 66 70 48 
68 50 66 49 
69 54 63 53 
70 73 75 74 
71 45 67 44 
72 74 75 67 
73 46 74 45 
74 64 75 73 
75 48 70 47 
76 47 62 46 
77 57 72 56 
78 63 68 53 
79 62 74 46 
80 60 75 59 
81 63 76 68 
82 61 67 60 
83 64 76 71 
84 47 70 62 
85 71 76 63 
86 59 75 64 
87 51 66 50 
88 68 76 69 
89 67 75 60 
2 3 2 365
90 31 139 30 
91 174 201 141 
92 79 211 137 
93 95 154 141 
94 154 176 141 
95 141 176 174 
96 162 195 149 
97 102 193 132 
98 29 190 134 
99 132 197 102 
100 136 223 80 
101 137 192 79 
102 170 200 143 
103 134 182 29 
104 121 170 143 
105 80 212 136 
106 151 196 186 
107 118 162 149 
108 174 176 128 
109 166 196 124 
110 12 178 146 
111 7 190 30 
112 18 158 17 
113 77 196 166 
114 163 206 154 
115 153 163 154 
116 186 196 77 
117 143 200 123 
118 140 191 139 
119 80 223 159 
120 31 140 139 
121 144 211 79 
122 161 172 101 
123 159 198 80 
124 79 145 144 
125 172 199 101 
126 39 170 121 
127 158 218 17 
128 14 148 142 
129 123 200 188 
130 200 222 188 
131 121 160 38 
132 30 190 29 
133 150 151 122 
134 147 152 98 
135 83 217 203 
136 121 224 160 
137 155 157 82 
138 122 169 147 
139 118 149 148 
140 92 152 89 
141 13 178 12 
142 143 197 121 
143 109 150 122 
144 100 147 98 
145 153 154 95 
146 203 217 131 
147 140 194 191 
148 102 197 143 
149 33 153 95 
150 148 226 142 
151 98 152 92 
152 32 140 31 
153 14 142 13 
154 150 196 151 
155 41 155 82 
156 32 227 140 
157 145 221 117 
158 136 192 137 
159 128 215 174 
160 169 225 147 
161 28 125 27 
162 165 179 111 
163 180 203 131 
164 109 122 107 
165 113 150 109 
166 136 212 192 
167 146 210 12 
168 82 200 170 
169 117 204 145 
170 33 95 32 
171 156 157 155 
172 135 223 136 
173 107 147 100 
174 118 148 15 
175 131 204 180 
176 37 93 36 
177 41 82 40 
178 154 177 176 
179 39 121 38 
180 11 83 10 
181 125 162 27 
182 122 147 107 
183 133 197 132 
184 116 156 155 
185 15 148 14 
186 159 223 172 
187 159 161 156 
188 149 165 148 
189 138 217 183 
190 20 80 19 
191 34 153 33 
192 23 79 22 
193 124 196 181 
194 116 155 42 
195 156 161 157 
196 134 189 182 
197 37 160 93 
198 29 182 28 
199 108 109 107 
200 93 163 36 
201 151 169 122 
202 42 155 41 
203 79 221 145 
204 106 107 100 
205 80 198 19 
206 16 118 15 
207 142 178 13 
208 158 159 156 
209 183 217 83 
210 125 213 185 
211 38 160 37 
212 110 113 109 
213 43 116 42 
214 25 117 24 
215 159 172 161 
216 79 192 22 
217 116 158 156 
218 165 226 148 
219 152 167 89 
220 83 203 10 
221 36 163 35 
222 28 182 125 
223 95 227 32 
224 129 138 114 
225 141 227 95 
226 195 208 149 
227 27 162 26 
228 40 170 39 
229 106 108 107 
230 147 225 152 
231 20 212 80 
232 82 170 40 
233 97 98 92 
234 157 200 82 
235 83 210 183 
236 99 100 98 
237 108 110 109 
238 23 221 79 
239 115 144 130 
240 84 124 104 
241 176 177 128 
242 181 205 164 
243 47 77 48 
244 113 181 150 
245 124 181 164 
246 44 78 45 
247 105 106 100 
248 136 137 112 
249 45 168 46 
250 185 195 125 
251 133 224 197 
252 154 206 177 
253 110 114 113 
254 48 166 49 
255 11 210 83 
256 97 99 98 
257 144 145 130 
258 18 198 158 
259 59 81 60 
260 49 84 6 
261 138 205 114 
262 106 171 108 
263 60 175 61 
264 130 131 129 
265 9 180 8 
266 105 135 112 
267 61 86 5 
268 99 105 100 
269 117 221 24 
270 115 130 129 
271 5 167 44 
272 137 171 112 
273 105 112 106 
274 115 129 114 
275 208 209 149 
276 46 186 47 
277 4 214 34 
278 35 214 4 
279 58 173 59 
280 86 126 90 
281 168 169 151 
282 115 187 144 
283 135 136 112 
284 165 209 179 
285 2 216 16 
286 26 216 2 
287 96 97 92 
288 8 219 1 
289 110 115 114 
290 185 208 195 
291 87 89 5 
292 50 88 51 
293 3 218 43 
294 17 218 3 
295 112 171 106 
296 1 219 25 
297 78 168 45 
298 125 195 162 
299 133 207 160 
300 77 166 48 
301 97 101 99 
302 91 92 89 
303 91 102 96 
304 104 164 120 
305 126 128 127 
306 116 218 158 
307 57 85 58 
308 86 87 5 
309 9 203 180 
310 113 205 181 
311 6 179 50 
312 124 164 104 
313 47 186 77 
314 104 120 119 
315 91 96 92 
316 189 213 182 
317 84 166 124 
318 102 123 96 
319 182 213 125 
320 168 186 46 
321 51 184 52 
322 102 143 123 
323 49 166 84 
324 78 169 168 
325 126 127 90 
326 44 167 78 
327 127 132 90 
328 81 175 60 
329 157 222 200 
330 103 111 6 
331 103 202 111 
332 93 206 163 
333 52 94 53 
334 61 175 86 
335 87 91 89 
336 171 187 108 
337 160 224 133 
338 22 192 21 
339 146 178 119 
340 101 222 161 
341 89 167 5 
342 86 90 87 
343 127 133 132 
344 84 104 103 
345 59 173 81 
346 86 175 126 
347 108 187 110 
348 192 212 21 
349 105 199 135 
350 145 204 130 
351 56 191 57 
352 180 204 117 
353 135 199 172 
354 110 187 115 
355 120 146 119 
356 111 179 6 
357 151 186 168 
358 97 188 101 
359 53 189 54 
360 104 119 103 
361 84 103 6 
362 96 188 97 
363 120 183 146 
364 19 198 18 
365 158 198 159 
366 131 217 129 
367 149 209 165 
368 111 226 165 
369 160 207 93 
370 194 227 141 
371 119 202 103 
372 206 207 177 
373 123 188 96 
374 173 174 81 
375 85 173 58 
376 91 193 102 
377 120 220 183 
378 54 134 55 
379 12 210 11 
380 101 199 99 
381 10 203 9 
382 50 179 88 
383 163 214 35 
384 162 216 26 
385 126 215 128 
386 88 184 51 
387 7 139 56 
388 34 214 153 
389 99 199 105 
390 55 190 7 
391 140 227 194 
392 153 214 163 
393 132 193 90 
394 138 220 205 
395 118 216 162 
396 181 196 150 
397 130 204 131 
398 16 216 118 
399 187 211 144 
400 87 193 91 
401 161 222 157 
402 191 194 85 
403 21 212 20 
404 114 205 113 
405 52 184 94 
406 90 193 87 
407 184 185 94 
408 178 202 119 
409 57 191 85 
410 177 228 128 
411 43 218 116 
412 93 207 206 
413 25 219 117 
414 183 220 138 
415 141 201 194 
416 128 228 127 
417 24 221 23 
418 171 211 187 
419 188 222 101 
420 129 217 138 
421 94 189 53 
422 81 215 175 
423 167 225 78 
424 137 211 171 
425 172 223 135 
426 142 202 178 
427 183 210 146 
428 173 201 174 
429 117 219 180 
430 152 225 167 
431 180 219 8 
432 194 201 85 
433 85 201 173 
434 54 189 134 
435 139 191 56 
436 202 226 111 
437 175 215 126 
438 174 215 81 
439 88 208 184 
440 184 208 185 
441 179 209 88 
442 134 190 55 
443 78 225 169 
444 164 220 120 
445 127 228 133 
446 185 213 94 
447 88 209 208 
448 207 228 177 
449 133 228 207 
450 205 220 164 
451 94 213 189 
452 142 226 202 
453 197 224 121 
454 30 139 7 
$EndElements
