$MeshFormat
4.1 0 8
$EndMeshFormat
$PhysicalNames
3
1 101 "outer_boundary"
2 1 "material_1"
2 2 "material_2"
$EndPhysicalNames
$Entities
7 7 2 0
1 0 0 0 0 
2 1 0 0 0 
3 0 1 0 0 
4 1 1 0 0 
5 0.483714798614146 0.4905654118580316 0 0 
6 0.7703356328920573 0.6261230332877846 0 0 
7 0.5096288719183418 0.8065651463114688 0 0 
1 -9.999999994736442e-08 -1e-07 -1e-07 1.0000001 1e-07 1e-07 1 101 2 1 -2 
2 -1e-07 -9.999999994736442e-08 -1e-07 1e-07 1.0000001 1e-07 1 101 2 3 -1 
3 0.9999999000000001 -9.999999994736442e-08 -1e-07 1.0000001 1.0000001 1e-07 1 101 2 2 -4 
4 -9.999999994736442e-08 0.9999999000000001 -1e-07 1.0000001 1.0000001 1e-07 1 101 2 4 -3 
5 0.483714698614146 0.4905653118580316 -1e-07 0.7703357328920573 0.6261231332877846 1e-07 0 2 5 -6 
6 0.5096287719183419 0.6261229332877847 -1e-07 0.7703357328920573 0.8065652463114688 1e-07 0 2 6 -7 
7 0.483714698614146 0.4905653118580316 -1e-07 0.5096289719183418 0.8065652463114688 1e-07 0 2 7 -5 
2 0.483714698614146 0.4905653118580316 -1e-07 0.7703357328920573 0.8065652463114688 1e-07 1 2 3 5 6 7 
3 -9.999999994736442e-08 -9.999999994736442e-08 -1e-07 1.0000001 1.0000001 1e-07 1 1 7 1 3 4 2 -5 -7 -6 
$EndEntities
$Nodes
16 230 1 230
0 1 0 1
1
0 0 0
0 2 0 1
2
1 0 0
0 3 0 1
3
0 1 0
0 4 0 1
4
1 1 0
0 5 0 1
5
0.483714798614146 0.4905654118580316 0
0 6 0 1
6
0.7703356328920573 0.6261230332877846 0
0 7 0 1
7
0.5096288719183418 0.8065651463114688 0
1 1 0 9
8
9
10
11
12
13
14
15
16
0.09999999999999996 0 0
0.1999999999999999 0 0
0.3000000000000001 0 0
0.4000000000000004 0 0
0.5000000000000003 0 0
0.5999999999999999 0 0
0.6999999999999995 0 0
0.7999999999999992 0 0
0.899999999999999 0 0
1 2 0 9
17
18
19
20
21
22
23
24
25
0 0.9 0
0 0.8 0
0 0.7 0
0 0.5999999999999996 0
0 0.4999999999999997 0
0 0.4000000000000001 0
0 0.3000000000000005 0
0 0.2000000000000008 0
0 0.100000000000001 0
1 3 0 9
26
27
28
29
30
31
32
33
34
1 0.09999999999999996 0
1 0.1999999999999999 0
1 0.3000000000000001 0
1 0.4000000000000004 0
1 0.5000000000000003 0
1 0.5999999999999999 0
1 0.6999999999999995 0
1 0.7999999999999992 0
1 0.899999999999999 0
1 4 0 9
35
36
37
38
39
40
41
42
43
0.9 1 0
0.8 1 0
0.7 1 0
0.5999999999999996 1 0
0.4999999999999997 1 0
0.4000000000000001 1 0
0.3000000000000005 1 0
0.2000000000000008 1 0
0.100000000000001 1 0
1 5 0 5
44
45
46
47
48
0.5314849376604646 0.5131583487629905 0
0.5792550767067831 0.5357512856679493 0
0.6270252157531017 0.5583442225729082 0
0.6747953547994203 0.5809371594778669 0
0.7225654938457388 0.6035300963828257 0
1 6 0 5
49
50
51
52
53
0.7268845060631047 0.656196718791732 0
0.6834333792341521 0.6862704042956794 0
0.6399822524051996 0.7163440897996267 0
0.5965311255762469 0.7464177753035741 0
0.5530799987472944 0.7764914608075214 0
1 7 0 5
54
55
56
57
58
0.5053098597009759 0.7538985239025626 0
0.5009908474836099 0.7012319014936563 0
0.4966718352662439 0.6485652790847503 0
0.492352823048878 0.595898656675844 0
0.488033810831512 0.5432320342669379 0
2 2 0 10
59
60
61
62
63
64
65
66
67
68
0.5401229620951964 0.6184915935808029 0
0.6313442279704676 0.6110108449818143 0
0.5922121133588809 0.6937511528946678 0
0.6791143670167862 0.6336037818867731 0
0.5358039498778305 0.5658249711718966 0
0.583574088924149 0.5884179080768555 0
0.5487609865299284 0.7238248383986152 0
0.5444419743125624 0.6711582159897089 0
0.5878931011415149 0.6410845304857616 0
0.6356632401878336 0.6636774673907205 0
2 3 0 162
69
70
71
72
73
74
75
76
77
78
79
80
81
82
83
84
85
86
87
88
89
90
91
92
93
94
95
96
97
98
99
100
101
102
103
104
105
106
107
108
109
110
111
112
113
114
115
116
117
118
119
120
121
122
123
124
125
126
127
128
129
130
131
132
133
134
135
136
137
138
139
140
141
142
143
144
145
146
147
148
149
150
151
152
153
154
155
156
157
158
159
160
161
162
163
164
165
166
167
168
169
170
171
172
173
174
175
176
177
178
179
180
181
182
183
184
185
186
187
188
189
190
191
192
193
194
195
196
197
198
199
200
201
202
203
204
205
206
207
208
209
210
211
212
213
214
215
216
217
218
219
220
221
222
223
224
225
226
227
228
229
230
0.6310169053941663 0.5097414780489417 0
0.4576543683949205 0.7315636119260822 0
0.4445826840025595 0.5733057197708852 0
0.3421741094662712 0.0874643205177883 0
0.07913206422810493 0.3487227618472732 0
0.55 0.08660254037844345 0
0.08094284636011251 0.7504645400334564 0
0.7659944906761256 0.5702702872608889 0
0.7311657645097981 0.709592014253285 0
0.07826016060028407 0.5514293843361877 0
0.9184940986372131 0.3494676894511511 0
0.5296912343764623 0.4602075973984113 0
0.4759976280920576 0.4374140882614446 0
0.5275968222329537 0.4031426469351365 0
0.4713794816064664 0.3763493581994852 0
0.4193479033247373 0.4144830596991749 0
0.6443012646225654 0.7690107122085329 0
0.4132316493145767 0.348623450268378 0
0.3604155559984853 0.3881514152031727 0
0.7486476098276361 0.07902184410491708 0
0.5226306238810379 0.3407848672871321 0
0.5831760356537403 0.3703176649303484 0
0.3507203003384723 0.3189530969022415 0
0.5795522554675276 0.3016774959615446 0
0.6437420377952825 0.3346954664512134 0
0.4090395468318775 0.2774964296394716 0
0.3478190316129943 0.919500215696535 0
0.3683331341229585 0.4553987319371079 0
0.3060684275206836 0.4296867280225782 0
0.3152316877340114 0.4995101662493719 0
0.5611023722208084 0.831030255947441 0
0.6400976383062884 0.2592870798830236 0
0.7082567807585252 0.2947675648171298 0
0.7118104452919498 0.3761599494809494 0
0.8169740973031732 0.5957879649700437 0
0.8217877185158984 0.6542081817729285 0
0.8135584719680646 0.534060435631896 0
0.767529591283046 0.9165544577489302 0
0.248221141120747 0.4729226930982114 0
0.2610806775988865 0.5447557109524828 0
0.09378331175472071 0.1579179595498199 0
0.7558491271394319 0.5092979799134777 0
0.8018007125654365 0.4629989975072292 0
0.3421037341509168 0.2451644143955498 0
0.2794631364096483 0.2904005030027251 0
0.2706988048065992 0.2142261107346958 0
0.3255992911233917 0.5708331705792702 0
0.2731529398596017 0.6165345397281757 0
0.3372707166307972 0.6401986715477634 0
0.2838802169774378 0.6877515498938722 0
0.9056619001651751 0.8483787848942923 0
0.217893393602824 0.6581444433153512 0
0.2269213138782684 0.7387062440583878 0
0.3011548279082684 0.7605611233811957 0
0.2428738468803406 0.8163574435114599 0
0.9053632025015212 0.1558906643073951 0
0.5126521408042111 0.8651737949022141 0
0.45891935685042 0.8371227191254923 0
0.2045744520319102 0.2602090646709165 0
0.2216050769935993 0.3342346770789957 0
0.5659803098548473 0.2357919966825779 0
0.6356369497190735 0.1806942664064707 0
0.4052493131795402 0.2028348178342362 0
0.7793078632742128 0.3350397124130362 0
0.7811031709781352 0.2533348347196233 0
0.8717901334460723 0.5587916575444949 0
0.1496232687596281 0.9239982412077394 0
0.4616991026415271 0.9009393276972536 0
0.5746797699921847 0.8984854256092333 0
0.6273886100469939 0.8471503032608643 0
0.1971513516995704 0.5251897380981679 0
0.1758940192348865 0.4561243622923635 0
0.4811213082715443 0.2330514032178218 0
0.4706715906108129 0.1532581058804247 0
0.250227331364458 0.9072056202031237 0
0.2002448000364638 0.1674647974586732 0
0.9131962060485085 0.6619329460929946 0
0.9171381385366877 0.7481070659137395 0
0.8375349040412428 0.7909150433371237 0
0.07988484209888913 0.6529286570599526 0
0.6466403105102096 0.08466282274711973 0
0.9199041199864156 0.2524938571682331 0
0.07817254944596019 0.2568507409575282 0
0.927486037472772 0.4441618990797422 0
0.08368762351221204 0.4550487841121524 0
0.3867076021216965 0.5290731780155803 0
0.2457786629060476 0.08108654224524664 0
0.7417993367197708 0.4436919262413314 0
0.6901147101212632 0.4881191851541025 0
0.8527211352332418 0.9248280292248785 0
0.6435988262506513 0.4009961095029351 0
0.09316046843809689 0.8498437992988668 0
0.6385109761788963 0.9267199365560219 0
0.1539198955242748 0.08143619556782838 0
0.389344347231443 0.5996676765745093 0
0.3991310562403486 0.6611661401142385 0
0.350495062800978 0.707197769374986 0
0.3748107831511093 0.777637813311242 0
0.3181758367765304 0.8374062134528132 0
0.5841951539747825 0.4297761694966216 0
0.1639680759040812 0.7873045417676898 0
0.4240873166083311 0.4809699801153724 0
0.4622145454538746 0.7828918179040154 0
0.4516285159622045 0.6806084312782748 0
0.4456185436252796 0.6265353172497503 0
0.1528278729829535 0.598815403055226 0
0.8461260849850085 0.3963622969225375 0
0.8467782812533776 0.07851512123271326 0
0.7908727621647684 0.1635415285861949 0
0.78071236906608 0.6853182367182138 0
0.784248079458218 0.7420601124601034 0
0.7370860207221788 0.7738136907820843 0
0.6877523914515181 0.7389370267045855 0
0.7144891853498854 0.5483890740967097 0
0.5964806742427818 0.7940201015055868 0
0.6901141165004745 0.8090883211979487 0
0.7519246194305897 0.8380852017176741 0
0.2975573823492298 0.3614961856281272 0
0.7093754175003444 0.2157248423400998 0
0.3386630433710009 0.1717006333685798 0
0.3945968793744014 0.8491589362896275 0
0.4696921484555415 0.3091609062791468 0
0.4434404931103262 0.07690188791563624 0
0.5837287231670709 0.4847275520303688 0
0.1537397241378549 0.6977273048816772 0
0.8492073663783503 0.30072984052925 0
0.6674882742835674 0.5371062238701058 0
0.2342148875387747 0.405213634655968 0
0.865432613859617 0.486199575952654 0
0.8448127353845984 0.7178306814635919 0
0.4064212921681788 0.7151513128711295 0
0.445425242435649 0.5234292648053614 0
0.5486725228406806 0.1664666457605809 0
0.5237953291860997 0.2840933338856446 0
0.5170801299946125 0.9241672314754934 0
0.9318342427203483 0.5208221690300241 0
0.7002852030752762 0.1427237796281561 0
0.1480857408736977 0.303170610853017 0
0.7786947650012771 0.4009681567262671 0
0.6399565881740178 0.4581043018425248 0
0.8492901244018382 0.2251981450621393 0
0.6959113189066667 0.8895997034135732 0
0.07320508075688797 0.9267949192431122 0
0.4245592674413678 0.7629114962112865 0
0.2204212471487673 0.5886879670298807 0
0.926794919243112 0.9267949192431117 0
0.07320508075688781 0.07320508075688797 0
0.9267949192431122 0.07320508075688753 0
0.922008325717818 0.5907697433921045 0
0.816234728769742 0.8557874905891198 0
0.6880888137883524 0.4324093841075624 0
0.8691512962062941 0.6122980987545132 0
0.1565350930050208 0.3803555852803772 0
0.4000397099475903 0.138431953103333 0
0.1815823593018743 0.856594718077798 0
0.7854056704843944 0.8001323077772211 0
0.2779242143802848 0.1449711366212969 0
0.4086958095016823 0.9372444451244196 0
0.5986335706004381 0.1283776835145453 0
0.1472821478836148 0.2235101526002023 0
0.130917477832897 0.5070982156851297 0
0.4223712758017554 0.8045739615359886 0
$EndNodes
$Elements
6 458 1 458
1 1 1 10
1 1 8 
2 8 9 
3 9 10 
4 10 11 
5 11 12 
6 12 13 
7 13 14 
8 14 15 
9 15 16 
10 16 2 
1 2 1 10
11 3 17 
12 17 18 
13 18 19 
14 19 20 
15 20 21 
16 21 22 
17 22 23 
18 23 24 
19 24 25 
20 25 1 
1 3 1 10
21 2 26 
22 26 27 
23 27 28 
24 28 29 
25 29 30 
26 30 31 
27 31 32 
28 32 33 
29 33 34 
30 34 4 
1 4 1 10
31 4 35 
32 35 36 
33 36 37 
34 37 38 
35 38 39 
36 39 40 
37 40 41 
38 41 42 
39 42 43 
40 43 3 
2 2 2 36
41 6 49 48 
42 5 44 58 
43 54 53 7 
44 67 68 61 
45 47 62 60 
46 55 65 54 
47 55 66 65 
48 60 68 67 
49 65 66 61 
50 66 67 61 
51 57 59 56 
52 45 64 63 
53 50 62 49 
54 52 61 51 
55 49 62 48 
56 50 68 62 
57 63 64 59 
58 48 62 47 
59 57 63 59 
60 54 65 53 
61 61 68 51 
62 62 68 60 
63 56 66 55 
64 44 63 58 
65 47 60 46 
66 60 64 46 
67 51 68 50 
68 64 67 59 
69 45 63 44 
70 58 63 57 
71 46 64 45 
72 53 65 52 
73 60 67 64 
74 59 66 56 
75 59 67 66 
76 52 65 61 
2 3 2 382
77 71 163 154 
78 145 198 104 
79 154 200 71 
80 38 203 137 
81 104 220 145 
82 132 194 175 
83 142 191 74 
84 181 184 85 
85 120 193 174 
86 138 183 85 
87 123 167 143 
88 141 201 129 
89 119 147 146 
90 137 161 38 
91 39 226 136 
92 74 191 12 
93 174 193 148 
94 178 198 179 
95 104 198 178 
96 161 210 37 
97 143 167 95 
98 192 208 69 
99 37 210 106 
100 5 170 81 
101 175 194 79 
102 180 184 181 
103 81 170 84 
104 85 184 138 
105 168 208 192 
106 136 189 126 
107 187 205 177 
108 133 187 177 
109 175 197 111 
110 136 203 39 
111 136 226 189 
112 175 207 132 
113 73 221 153 
114 29 152 79 
115 154 163 115 
116 73 153 22 
117 119 146 33 
118 146 198 145 
119 174 229 139 
120 78 148 20 
121 142 201 141 
122 163 173 164 
123 135 143 42 
124 71 173 163 
125 39 203 38 
126 153 221 140 
127 144 162 155 
128 124 177 176 
129 37 106 36 
130 129 202 141 
131 23 151 73 
132 41 95 40 
133 98 154 115 
134 165 166 122 
135 88 149 14 
136 124 209 177 
137 30 152 29 
138 109 162 144 
139 41 143 95 
140 82 168 80 
141 19 148 75 
142 78 174 148 
143 27 150 124 
144 102 159 93 
145 29 79 28 
146 74 201 142 
147 106 158 36 
148 23 73 22 
149 110 182 157 
150 152 175 79 
151 13 149 74 
152 21 78 20 
153 11 72 10 
154 13 74 12 
155 19 75 18 
156 79 150 28 
157 93 159 90 
158 78 229 174 
159 72 155 10 
160 32 146 145 
161 96 154 98 
162 110 157 156 
163 115 117 116 
164 119 218 147 
165 84 170 96 
166 32 145 31 
167 118 165 122 
168 98 115 108 
169 21 153 78 
170 43 135 42 
171 38 161 37 
172 20 148 19 
173 109 151 24 
174 189 226 95 
175 34 119 33 
176 159 168 90 
177 152 197 175 
178 24 151 23 
179 155 225 144 
180 33 146 32 
181 40 226 39 
182 14 149 13 
183 157 195 69 
184 90 168 82 
185 75 160 18 
186 22 153 21 
187 15 88 14 
188 10 155 9 
189 31 217 204 
190 28 150 27 
191 42 143 41 
192 101 102 93 
193 25 109 24 
194 163 164 117 
195 27 124 26 
196 75 169 160 
197 165 199 166 
198 115 163 117 
199 141 190 94 
200 9 162 8 
201 147 198 146 
202 113 186 128 
203 36 158 35 
204 102 207 156 
205 18 160 17 
206 148 193 75 
207 115 116 108 
208 135 223 143 
209 129 201 130 
210 169 223 160 
211 182 195 157 
212 96 170 154 
213 144 228 109 
214 113 128 127 
215 143 223 123 
216 155 162 9 
217 84 96 87 
218 117 118 116 
219 131 141 94 
220 16 176 15 
221 12 191 11 
222 118 122 121 
223 96 98 97 
224 31 204 30 
225 117 165 118 
226 95 226 40 
227 101 132 102 
228 69 208 157 
229 15 176 88 
230 79 194 150 
231 160 223 135 
232 164 165 117 
233 122 167 123 
234 54 70 55 
235 98 108 107 
236 57 71 58 
237 56 173 57 
238 55 172 56 
239 76 110 105 
240 166 167 122 
241 110 156 111 
242 81 84 83 
243 5 80 44 
244 151 206 73 
245 139 213 174 
246 177 205 88 
247 45 69 46 
248 96 97 87 
249 150 209 124 
250 131 142 141 
251 167 189 95 
252 92 129 100 
253 158 218 119 
254 111 207 175 
255 72 225 155 
256 11 191 72 
257 168 192 80 
258 47 182 48 
259 91 94 86 
260 122 123 121 
261 89 90 82 
262 112 131 94 
263 3 211 43 
264 17 211 3 
265 98 107 97 
266 4 214 34 
267 35 214 4 
268 91 113 112 
269 5 81 80 
270 84 87 86 
271 49 77 50 
272 113 127 114 
273 5 200 170 
274 7 171 54 
275 127 144 114 
276 118 121 120 
277 100 101 93 
278 176 177 88 
279 44 192 45 
280 101 133 132 
281 50 181 51 
282 118 120 116 
283 125 126 7 
284 1 215 25 
285 8 215 1 
286 123 169 121 
287 139 140 107 
288 2 216 16 
289 26 216 2 
290 92 93 90 
291 48 76 6 
292 140 221 196 
293 88 205 149 
294 108 139 107 
295 51 85 52 
296 129 130 100 
297 81 83 82 
298 106 218 158 
299 180 185 184 
300 113 114 112 
301 91 112 94 
302 84 86 83 
303 132 207 102 
304 170 200 154 
305 92 100 93 
306 110 111 105 
307 184 210 138 
308 87 91 86 
309 70 172 55 
310 83 89 82 
311 57 173 71 
312 172 173 56 
313 159 208 168 
314 196 221 128 
315 81 82 80 
316 188 225 72 
317 52 183 53 
318 149 205 130 
319 89 92 90 
320 185 210 184 
321 156 207 111 
322 99 138 137 
323 179 180 77 
324 126 171 7 
325 164 173 172 
326 58 200 5 
327 130 227 149 
328 156 219 102 
329 201 227 130 
330 109 228 151 
331 53 99 7 
332 186 196 128 
333 30 204 152 
334 141 202 190 
335 70 199 172 
336 80 192 44 
337 76 182 110 
338 185 218 106 
339 140 229 153 
340 179 198 147 
341 54 171 70 
342 6 178 49 
343 45 192 69 
344 101 187 133 
345 94 190 86 
346 169 193 121 
347 97 186 87 
348 91 186 113 
349 121 193 120 
350 133 194 132 
351 100 187 101 
352 112 188 131 
353 199 212 166 
354 166 189 167 
355 174 213 120 
356 46 195 47 
357 130 187 100 
358 92 202 129 
359 87 186 91 
360 114 188 112 
361 149 227 74 
362 48 182 76 
363 162 215 8 
364 77 181 50 
365 69 195 46 
366 86 190 83 
367 83 190 89 
368 76 105 103 
369 99 183 138 
370 172 199 164 
371 75 193 169 
372 76 103 6 
373 180 181 77 
374 47 195 182 
375 138 161 137 
376 140 196 107 
377 102 219 159 
378 51 181 85 
379 106 210 185 
380 103 104 6 
381 108 213 139 
382 138 210 161 
383 153 229 78 
384 177 209 133 
385 99 125 7 
386 158 214 35 
387 105 134 103 
388 145 217 31 
389 160 211 17 
390 85 183 52 
391 43 211 135 
392 125 136 126 
393 120 213 116 
394 144 225 114 
395 34 214 119 
396 119 214 158 
397 49 178 77 
398 135 211 160 
399 178 179 77 
400 164 199 165 
401 111 197 105 
402 107 196 97 
403 97 196 186 
404 157 219 156 
405 16 216 176 
406 53 183 99 
407 71 200 58 
408 109 215 162 
409 99 137 125 
410 128 206 127 
411 25 215 109 
412 147 224 179 
413 131 222 142 
414 190 202 89 
415 151 228 206 
416 104 178 6 
417 124 216 26 
418 105 197 134 
419 89 202 92 
420 139 229 140 
421 142 222 191 
422 133 209 194 
423 176 216 124 
424 116 213 108 
425 130 205 187 
426 206 228 127 
427 197 204 134 
428 189 230 126 
429 188 222 131 
430 72 222 188 
431 185 224 218 
432 123 223 169 
433 191 222 72 
434 218 224 147 
435 166 230 189 
436 127 228 144 
437 134 220 103 
438 217 220 134 
439 180 224 185 
440 194 209 150 
441 171 212 70 
442 152 204 197 
443 208 219 157 
444 125 203 136 
445 137 203 125 
446 103 220 104 
447 70 212 199 
448 179 224 180 
449 206 221 73 
450 145 220 217 
451 114 225 188 
452 204 217 134 
453 128 221 206 
454 126 230 171 
455 159 219 208 
456 74 227 201 
457 212 230 166 
458 171 230 212 
$EndElements
