$MeshFormat
4.1 0 8
$EndMeshFormat
$PhysicalNames
3
1 101 "outer_boundary"
2 1 "material_1"
2 2 "material_2"
$EndPhysicalNames
$Entities
7 7 2 0
1 0 0 0 0 
2 1 0 0 0 
3 0 1 0 0 
4 1 1 0 0 
5 0.4748712722632188 0.1589479784560336 0 0 
6 0.7185978495550289 0.3095704736045184 0 0 
7 0.4662916537291377 0.4453326335424151 0 0 
1 -9.999999994736442e-08 -1e-07 -1e-07 1.0000001 1e-07 1e-07 1 101 2 1 -2 
2 -1e-07 -9.999999994736442e-08 -1e-07 1e-07 1.0000001 1e-07 1 101 2 3 -1 
3 0.9999999000000001 -9.999999994736442e-08 -1e-07 1.0000001 1.0000001 1e-07 1 101 2 2 -4 
4 -9.999999994736442e-08 0.9999999000000001 -1e-07 1.0000001 1.0000001 1e-07 1 101 2 4 -3 
5 0.4748711722632188 0.1589478784560336 -1e-07 0.7185979495550289 0.3095705736045185 1e-07 0 2 5 -6 
6 0.4662915537291377 0.3095703736045184 -1e-07 0.7185979495550289 0.4453327335424151 1e-07 0 2 6 -7 
7 0.4662915537291377 0.1589478784560336 -1e-07 0.4748713722632188 0.4453327335424151 1e-07 0 2 7 -5 
2 0.4662915537291377 0.1589478784560336 -1e-07 0.7185979495550289 0.4453327335424151 1e-07 1 2 3 5 6 7 
3 -9.999999994736442e-08 -9.999999994736442e-08 -1e-07 1.0000001 1.0000001 1e-07 1 1 7 1 3 4 2 -5 -7 -6 
$EndEntities
$Nodes
16 235 1 235
0 1 0 1
1
0 0 0
0 2 0 1
2
1 0 0
0 3 0 1
3
0 1 0
0 4 0 1
4
1 1 0
0 5 0 1
5
0.4748712722632188 0.1589479784560336 0
0 6 0 1
6
0.7185978495550289 0.3095704736045184 0
0 7 0 1
7
0.4662916537291377 0.4453326335424151 0
1 1 0 9
8
9
10
11
12
13
14
15
16
0.09999999999999996 0 0
0.1999999999999999 0 0
0.3000000000000001 0 0
0.4000000000000004 0 0
0.5000000000000003 0 0
0.5999999999999999 0 0
0.6999999999999995 0 0
0.7999999999999992 0 0
0.899999999999999 0 0
1 2 0 9
17
18
19
20
21
22
23
24
25
0 0.9 0
0 0.8 0
0 0.7 0
0 0.5999999999999996 0
0 0.4999999999999997 0
0 0.4000000000000001 0
0 0.3000000000000005 0
0 0.2000000000000008 0
0 0.100000000000001 0
1 3 0 9
26
27
28
29
30
31
32
33
34
1 0.09999999999999996 0
1 0.1999999999999999 0
1 0.3000000000000001 0
1 0.4000000000000004 0
1 0.5000000000000003 0
1 0.5999999999999999 0
1 0.6999999999999995 0
1 0.7999999999999992 0
1 0.899999999999999 0
1 4 0 9
35
36
37
38
39
40
41
42
43
0.9 1 0
0.8 1 0
0.7 1 0
0.5999999999999996 1 0
0.4999999999999997 1 0
0.4000000000000001 1 0
0.3000000000000005 1 0
0.2000000000000008 1 0
0.100000000000001 1 0
1 5 0 5
44
45
46
47
48
0.5154923684785204 0.1840517276474477 0
0.5561134646938222 0.2091554768388619 0
0.5967345609091238 0.234259226030276 0
0.6373556571244254 0.2593629752216902 0
0.6779767533397272 0.2844667244131043 0
1 6 0 5
49
50
51
52
53
0.6765468169173804 0.3321975002608346 0
0.6344957842797319 0.3548245269171507 0
0.5924447516420833 0.3774515535734668 0
0.5503937190044348 0.4000785802297828 0
0.5083426863667863 0.422705606886099 0
1 7 0 5
54
55
56
57
58
0.4677215901514845 0.3976018576946849 0
0.4691515265738314 0.3498710818469546 0
0.4705814629961782 0.3021403059992244 0
0.4720113994185251 0.2544095301514941 0
0.4734413358408719 0.2066787543037639 0
2 2 0 10
59
60
61
62
63
64
65
66
67
68
0.595304624486777 0.2819900018780063 0
0.5112025592114799 0.3272440551906385 0
0.5140624320561736 0.231782503495178 0
0.6359257207020786 0.3070937510694204 0
0.509772622789133 0.3749748310383688 0
0.5126324956338268 0.2795132793429082 0
0.5546835282714753 0.2568862526865922 0
0.5938746880644301 0.3297207777257365 0
0.5532535918491285 0.3046170285343224 0
0.5518236554267816 0.3523478043820526 0
2 3 0 167
69
70
71
72
73
74
75
76
77
78
79
80
81
82
83
84
85
86
87
88
89
90
91
92
93
94
95
96
97
98
99
100
101
102
103
104
105
106
107
108
109
110
111
112
113
114
115
116
117
118
119
120
121
122
123
124
125
126
127
128
129
130
131
132
133
134
135
136
137
138
139
140
141
142
143
144
145
146
147
148
149
150
151
152
153
154
155
156
157
158
159
160
161
162
163
164
165
166
167
168
169
170
171
172
173
174
175
176
177
178
179
180
181
182
183
184
185
186
187
188
189
190
191
192
193
194
195
196
197
198
199
200
201
202
203
204
205
206
207
208
209
210
211
212
213
214
215
216
217
218
219
220
221
222
223
224
225
226
227
228
229
230
231
232
233
234
235
0.5469040000059511 0.4508420416802457 0
0.6751168804950335 0.3799282761085648 0
0.432630592124187 0.2862016666490199 0
0.4246074043649474 0.417903426648816 0
0.4225743872034555 0.4703218091682613 0
0.664367595853025 0.9225958340583618 0
0.9133974596215565 0.6499999999999997 0
0.3416453762571456 0.9192699817914824 0
0.3771083647880931 0.4397841138242613 0
0.3748960391457418 0.4973659399189642 0
0.4244839162890177 0.5260370136603816 0
0.3726129797983876 0.5575882672571476 0
0.4295986207946932 0.5885537021731344 0
0.3260265194716231 0.466654472018773 0
0.07851054491907361 0.2479472289228234 0
0.4289856169189437 0.1834334688644662 0
0.3294427062042629 0.4040861473622986 0
0.3706734706107923 0.6231576564415333 0
0.4300045380549452 0.6572146436954511 0
0.4887058394904639 0.6200281924914395 0
0.7201583607336706 0.2587136604066529 0
0.6387855935467723 0.2116321993739599 0
0.3124721700038129 0.5877476924742433 0
0.308767555805934 0.6596104407046925 0
0.2717322243559762 0.4320256029278965 0
0.4916393352678927 0.6919213305740902 0
0.5559641043967521 0.6518515500441792 0
0.7649469064050911 0.2863654316318345 0
0.7644803497846574 0.3407206732701817 0
0.7682334539283238 0.2177842893774398 0
0.2771358178832082 0.3647901446112323 0
0.2454147222425055 0.6199672881888336 0
0.2423685867465629 0.6972668122860213 0
0.2408092131917307 0.08976727834753617 0
0.2141249513694324 0.3954211576716056 0
0.5578807225597048 0.7286023619485066 0
0.6224280136852235 0.687299774719343 0
0.6202277977935959 0.6106334678176891 0
0.6863516370645444 0.6449036588213626 0
0.6823442042518031 0.5691713295468315 0
0.6894426009626671 0.7232308015913629 0
0.9272300386663308 0.4610081629621626 0
0.4911763402686969 0.7695422918096683 0
0.5607704830915198 0.1536233222972441 0
0.2185161323352532 0.4666236808774679 0
0.817484771799057 0.3159198110725348 0
0.1565002036000283 0.9162267487619495 0
0.9165992725280243 0.8455744649581735 0
0.3065346119517606 0.7353369777828958 0
0.7497875829044107 0.6038937366821018 0
0.744481922190294 0.5296124726177445 0
0.9046525725158765 0.1501594129837857 0
0.2193291750639809 0.3237199855182009 0
0.2849255437576377 0.2953912542492105 0
0.2253751157731575 0.2502365514739262 0
0.2893675490408813 0.2214557552226816 0
0.1730341086731088 0.6556881930734628 0
0.1763054759736469 0.7535543251826209 0
0.6780125452905279 0.5002458434255137 0
0.7357035182956093 0.4579439354854314 0
0.7549750156511804 0.07769760872332176 0
0.8091362331556715 0.5596990382981146 0
0.4299886373247925 0.1247078278452227 0
0.1624588772198383 0.3555073511312562 0
0.8078405406528989 0.3798859083377483 0
0.8693097822599143 0.3517917513497254 0
0.8662449589068718 0.2807736703174769 0
0.3792274910427984 0.1564319819848093 0
0.08396769722172137 0.5476663711849957 0
0.5583769831588711 0.8118529968547987 0
0.4903166400748142 0.8508911662544818 0
0.430746695040073 0.8133569907339708 0
0.701280599852917 0.2039983749481168 0
0.3826176087940443 0.2188942968802433 0
0.4748401361869904 0.1063991284987796 0
0.6108819818244827 0.5310721844296816 0
0.6237370160239162 0.4649491781497593 0
0.5518701225654506 0.5790719762984219 0
0.9299753203895675 0.5512281300296893 0
0.4871735557251292 0.5412836826418147 0
0.8186980561805771 0.6389231971153301 0
0.543806212033164 0.5117558000729918 0
0.662000682848897 0.08321501257192665 0
0.5732807564162615 0.08381962395738002 0
0.2477311757825199 0.5421258137486096 0
0.8462592961613918 0.07822237336279386 0
0.9136156478312695 0.7526537243139351 0
0.831120452882849 0.8048485774096346 0
0.8392674156955466 0.9079005402907944 0
0.738065297031733 0.8529529713365769 0
0.09166397439899349 0.150891222608675 0
0.2500101962630101 0.9152136714519361 0
0.2981699137546601 0.8258894743182645 0
0.2062132076366332 0.8344707178710955 0
0.09884282588300347 0.8388738009058382 0
0.8070261007345043 0.147400000140464 0
0.07549421448457461 0.4559440821802716 0
0.3797199365669896 0.09027590522531825 0
0.3438963292504735 0.3320106450664716 0
0.7996318626976049 0.4873357515856102 0
0.6677477878553217 0.4382497676583976 0
0.2344594756042052 0.1742250100721743 0
0.5542547110470882 0.9066297329654711 0
0.3380927360061324 0.2567313988564626 0
0.3827773024502711 0.379613998547218 0
0.3992829004279567 0.3267213235840166 0
0.1470903791285955 0.07642211414379663 0
0.0860840021391106 0.6370344952388243 0
0.3061104933613126 0.1446079162024575 0
0.5870926123030311 0.429674775430378 0
0.5069127499444394 0.4704363827338293 0
0.4297372647443723 0.2387193932318692 0
0.8475710895506013 0.2134195611100386 0
0.7174408258122358 0.3621319944987302 0
0.6309515318401002 0.4060965243420752 0
0.1581643781253667 0.2066458214041837 0
0.1642193432140386 0.5855203704996066 0
0.4309984594359411 0.7306658174288649 0
0.6250398861467015 0.764592977190607 0
0.6751113929195025 0.2436347868727048 0
0.6562557641704444 0.1594115463609628 0
0.08636766242643523 0.7337760194140192 0
0.4614872525782359 0.4906823043493404 0
0.4387547630177269 0.9129569764748697 0
0.7540492764451751 0.6830753393046169 0
0.3699325368947033 0.693476006602082 0
0.5192901005710185 0.1238954411360267 0
0.6025905877264215 0.1825140898955133 0
0.6098093705924624 0.1309413045752253 0
0.8315279620478536 0.7161103335295603 0
0.4300708731863306 0.3661215492952932 0
0.1589270232053174 0.2810375521327539 0
0.32021429154373 0.5238536228529918 0
0.7558781360391985 0.7628722337744253 0
0.7583015830470141 0.3962105323209445 0
0.08970493835485022 0.3525420392429751 0
0.6385279500170554 0.8426066486467692 0
0.7483400617160609 0.9366898691371467 0
0.1531631246828896 0.5073575793730488 0
0.6893907740394711 0.7892511265079483 0
0.7110733636648309 0.4089705041323919 0
0.1525439086551472 0.4273580603337201 0
0.2462909715766499 0.7705181649318479 0
0.9253762757471813 0.2434065443791409 0
0.9301823737354535 0.06567635726931592 0
0.7265212548542974 0.1470629483814424 0
0.2758841948867755 0.4875455468441439 0
0.4403434710616968 0.3262111854749018 0
0.4461039533052274 0.06084344902016103 0
0.8700049491526045 0.5928267804632582 0
0.07320508075688797 0.0732050807568882 0
0.8649404964058177 0.5103133670559054 0
0.8478655405622344 0.4354071847731503 0
0.3667046228283585 0.7745312290774778 0
0.07320508075688797 0.9267949192431122 0
0.9337890335097387 0.3160866218635441 0
0.9267949192431122 0.926794919243112 0
0.579313413342423 0.4798693430047851 0
0.812896236117989 0.2628525527018649 0
0.9207537650110573 0.3905818460804656 0
0.3253279286240067 0.06493021995506243 0
0.3390307863674468 0.1924592669651622 0
0.3668022968314187 0.8486544292565421 0
0.788364307505714 0.4351563284267435 0
0.3882128193092194 0.2795597708598059 0
0.5177272047227547 0.05957274069198742 0
0.175130776185259 0.1410413789822467 0
$EndNodes
$Elements
6 468 1 468
1 1 1 10
1 1 8 
2 8 9 
3 9 10 
4 10 11 
5 11 12 
6 12 13 
7 13 14 
8 14 15 
9 15 16 
10 16 2 
1 2 1 10
11 3 17 
12 17 18 
13 18 19 
14 19 20 
15 20 21 
16 21 22 
17 22 23 
18 23 24 
19 24 25 
20 25 1 
1 3 1 10
21 2 26 
22 26 27 
23 27 28 
24 28 29 
25 29 30 
26 30 31 
27 31 32 
28 32 33 
29 33 34 
30 34 4 
1 4 1 10
31 4 35 
32 35 36 
33 36 37 
34 37 38 
35 38 39 
36 39 40 
37 40 41 
38 41 42 
39 42 43 
40 43 3 
2 2 2 36
41 54 53 7 
42 6 49 48 
43 5 44 58 
44 59 67 65 
45 56 64 60 
46 61 64 57 
47 66 67 59 
48 45 61 44 
49 47 59 46 
50 58 61 57 
51 60 68 63 
52 66 68 67 
53 45 65 61 
54 53 63 52 
55 55 63 54 
56 56 60 55 
57 57 64 56 
58 63 68 52 
59 48 62 47 
60 61 65 64 
61 44 61 58 
62 54 63 53 
63 60 63 55 
64 59 65 46 
65 50 66 62 
66 64 67 60 
67 47 62 59 
68 51 66 50 
69 67 68 60 
70 50 62 49 
71 51 68 66 
72 52 68 51 
73 65 67 64 
74 46 65 45 
75 62 66 59 
76 49 62 48 
2 3 2 392
77 141 214 98 
78 120 181 164 
79 148 191 179 
80 126 190 125 
81 125 190 176 
82 18 163 17 
83 148 179 150 
84 74 205 158 
85 205 208 158 
86 163 223 17 
87 120 164 154 
88 141 188 90 
89 155 198 75 
90 132 210 204 
91 137 185 176 
92 75 198 149 
93 176 185 125 
94 98 214 164 
95 36 157 35 
96 153 207 113 
97 132 204 200 
98 171 192 139 
99 200 204 83 
100 39 192 171 
101 144 145 127 
102 88 148 146 
103 204 210 165 
104 138 205 171 
105 166 229 11 
106 90 196 189 
107 112 195 152 
108 158 206 74 
109 192 231 140 
110 139 192 140 
111 146 150 144 
112 185 207 153 
113 150 226 144 
114 157 225 35 
115 134 228 221 
116 79 148 81 
117 88 146 95 
118 108 144 127 
119 151 214 189 
120 138 171 139 
121 172 230 142 
122 178 183 145 
123 75 147 31 
124 90 189 141 
125 71 233 180 
126 167 233 174 
127 127 169 128 
128 129 151 14 
129 145 183 169 
130 81 148 88 
131 196 197 189 
132 162 163 126 
133 117 222 161 
134 11 229 10 
135 129 214 151 
136 106 144 108 
137 120 212 181 
138 108 127 119 
139 221 228 110 
140 21 165 137 
141 95 146 106 
142 160 161 76 
143 32 155 75 
144 79 191 148 
145 180 233 142 
146 30 147 110 
147 124 230 172 
148 24 159 83 
149 148 150 146 
150 150 179 69 
151 77 173 72 
152 134 221 133 
153 122 167 99 
154 18 190 163 
155 152 197 112 
156 14 151 13 
157 41 160 76 
158 30 110 29 
159 15 129 14 
160 136 177 166 
161 130 220 218 
162 27 120 26 
163 99 167 85 
164 75 218 147 
165 106 146 144 
166 15 154 129 
167 127 128 119 
168 151 152 13 
169 24 83 23 
170 124 172 122 
171 144 226 145 
172 172 233 167 
173 171 205 74 
174 32 75 31 
175 145 169 127 
176 169 209 128 
177 22 165 21 
178 116 156 155 
179 222 231 161 
180 167 173 85 
181 41 76 40 
182 164 181 98 
183 38 74 37 
184 106 108 107 
185 21 137 20 
186 154 164 129 
187 31 147 30 
188 10 102 9 
189 85 173 77 
190 29 228 224 
191 115 162 160 
192 116 155 33 
193 83 204 23 
194 95 106 105 
195 115 160 42 
196 115 163 162 
197 74 206 37 
198 33 155 32 
199 25 159 24 
200 157 158 156 
201 22 204 165 
202 160 162 161 
203 42 160 41 
204 163 190 126 
205 16 154 15 
206 108 119 118 
207 122 172 167 
208 121 122 99 
209 153 201 91 
210 159 184 83 
211 38 171 74 
212 43 115 42 
213 34 116 33 
214 116 157 156 
215 39 171 38 
216 156 198 155 
217 26 213 2 
218 176 190 19 
219 102 175 9 
220 152 234 13 
221 20 176 19 
222 106 107 105 
223 9 175 8 
224 195 234 152 
225 28 224 212 
226 69 226 150 
227 137 176 20 
228 218 220 147 
229 108 118 107 
230 174 199 173 
231 143 234 195 
232 28 212 27 
233 123 124 122 
234 165 207 137 
235 2 213 16 
236 40 192 39 
237 29 224 28 
238 167 174 173 
239 161 211 117 
240 115 223 163 
241 81 88 87 
242 76 231 192 
243 139 140 111 
244 100 153 91 
245 181 212 135 
246 19 190 18 
247 119 130 118 
248 92 117 101 
249 88 95 94 
250 52 69 53 
251 113 215 153 
252 95 105 104 
253 128 168 119 
254 51 178 52 
255 36 206 157 
256 76 192 40 
257 56 71 57 
258 7 72 54 
259 126 211 162 
260 53 179 7 
261 173 199 72 
262 137 207 185 
263 88 94 87 
264 178 226 69 
265 50 183 51 
266 169 183 70 
267 84 142 136 
268 140 186 111 
269 119 168 130 
270 107 109 105 
271 104 111 94 
272 13 234 12 
273 95 104 94 
274 82 85 77 
275 49 70 50 
276 174 216 199 
277 7 73 72 
278 93 99 85 
279 104 138 111 
280 138 139 111 
281 121 123 122 
282 1 219 25 
283 8 219 1 
284 101 125 100 
285 103 121 99 
286 101 126 125 
287 168 220 130 
288 193 202 109 
289 81 87 86 
290 3 223 43 
291 17 223 3 
292 73 79 78 
293 86 91 80 
294 4 225 34 
295 35 225 4 
296 177 229 166 
297 100 185 153 
298 130 149 118 
299 79 81 80 
300 92 101 100 
301 57 180 58 
302 147 220 110 
303 94 186 87 
304 198 202 193 
305 116 225 157 
306 48 89 6 
307 54 199 55 
308 81 86 80 
309 149 218 75 
310 47 188 48 
311 71 216 174 
312 92 100 91 
313 105 187 104 
314 52 178 69 
315 109 187 105 
316 142 233 172 
317 212 224 135 
318 46 90 47 
319 93 113 103 
320 86 92 91 
321 69 179 53 
322 93 103 99 
323 27 212 120 
324 158 202 156 
325 103 132 121 
326 123 170 124 
327 145 226 178 
328 110 228 29 
329 104 187 138 
330 92 194 117 
331 120 213 26 
332 170 177 124 
333 84 180 142 
334 111 186 94 
335 73 77 72 
336 153 215 201 
337 82 93 85 
338 123 184 170 
339 151 197 152 
340 125 185 100 
341 58 84 5 
342 102 177 170 
343 51 183 178 
344 79 80 78 
345 6 182 49 
346 45 196 46 
347 114 135 134 
348 118 193 107 
349 89 141 98 
350 73 78 77 
351 162 211 161 
352 131 217 143 
353 70 183 50 
354 107 193 109 
355 78 82 77 
356 72 199 54 
357 73 191 79 
358 44 112 45 
359 170 235 102 
360 189 197 151 
361 7 191 73 
362 165 210 207 
363 70 209 169 
364 23 204 22 
365 12 217 11 
366 149 193 118 
367 87 194 86 
368 114 133 97 
369 71 180 57 
370 157 206 158 
371 154 213 120 
372 102 235 175 
373 37 206 36 
374 101 211 126 
375 186 194 87 
376 10 229 102 
377 96 97 6 
378 89 96 6 
379 207 210 113 
380 91 201 80 
381 86 194 92 
382 114 134 133 
383 179 191 7 
384 161 231 76 
385 5 195 44 
386 149 198 193 
387 16 213 154 
388 217 234 143 
389 112 197 196 
390 159 235 184 
391 164 214 129 
392 132 200 121 
393 121 200 123 
394 182 209 70 
395 56 216 71 
396 123 200 184 
397 175 235 159 
398 48 188 89 
399 89 188 141 
400 114 227 135 
401 49 182 70 
402 11 217 166 
403 175 219 8 
404 131 143 5 
405 93 215 113 
406 90 188 47 
407 133 203 97 
408 25 219 159 
409 58 180 84 
410 199 216 55 
411 166 217 131 
412 89 98 96 
413 174 233 71 
414 203 209 182 
415 184 200 83 
416 96 114 97 
417 103 210 132 
418 159 219 175 
419 117 211 101 
420 80 201 78 
421 46 196 90 
422 97 182 6 
423 187 205 138 
424 55 216 56 
425 128 209 203 
426 78 201 82 
427 140 231 222 
428 43 223 115 
429 34 225 116 
430 109 208 187 
431 113 210 103 
432 84 136 131 
433 136 230 177 
434 189 214 141 
435 156 202 198 
436 84 131 5 
437 97 203 182 
438 112 196 45 
439 136 166 131 
440 143 195 5 
441 181 227 98 
442 202 208 109 
443 177 230 124 
444 194 222 117 
445 12 234 217 
446 221 232 133 
447 201 215 82 
448 82 215 93 
449 187 208 205 
450 140 222 186 
451 130 218 149 
452 135 227 181 
453 158 208 202 
454 44 195 112 
455 186 222 194 
456 128 232 168 
457 203 232 128 
458 133 232 203 
459 135 224 134 
460 168 221 220 
461 96 227 114 
462 142 230 136 
463 98 227 96 
464 220 221 110 
465 184 235 170 
466 102 229 177 
467 168 232 221 
468 224 228 134 
$EndElements
