$MeshFormat
4.1 0 8
$EndMeshFormat
$PhysicalNames
3
1 101 "outer_boundary"
2 1 "material_1"
2 2 "material_2"
$EndPhysicalNames
$Entities
8 8 2 0
1 0 0 0 0 
2 1 0 0 0 
3 0 1 0 0 
4 1 1 0 0 
5 0.4545826952192147 0.6032390172888749 0 0 
6 0.4230806750652764 0.8954771115166744 0 0 
7 0.1308425808374769 0.863975091362736 0 0 
8 0.1623446009914152 0.5717369971349364 0 0 
1 -9.999999994736442e-08 -1e-07 -1e-07 1.0000001 1e-07 1e-07 1 101 2 1 -2 
2 -1e-07 -9.999999994736442e-08 -1e-07 1e-07 1.0000001 1e-07 1 101 2 3 -1 
3 0.9999999000000001 -9.999999994736442e-08 -1e-07 1.0000001 1.0000001 1e-07 1 101 2 2 -4 
4 -9.999999994736442e-08 0.9999999000000001 -1e-07 1.0000001 1.0000001 1e-07 1 101 2 4 -3 
5 0.4230805750652764 0.6032389172888749 -1e-07 0.4545827952192147 0.8954772115166744 1e-07 0 2 5 -6 
6 0.1308424808374768 0.863974991362736 -1e-07 0.4230807750652764 0.8954772115166744 1e-07 0 2 6 -7 
7 0.1308424808374768 0.5717368971349365 -1e-07 0.1623447009914152 0.8639751913627359 1e-07 0 2 7 -8 
8 0.1623445009914152 0.5717368971349365 -1e-07 0.4545827952192147 0.6032391172888748 1e-07 0 2 8 -5 
2 0.1308424808374768 0.5717368971349365 -1e-07 0.4545827952192147 0.8954772115166744 1e-07 1 2 4 5 6 7 8 
3 -9.999999994736442e-08 -9.999999994736442e-08 -1e-07 1.0000001 1.0000001 1e-07 1 1 8 1 3 4 2 -5 -8 -7 -6 
$EndEntities
$Nodes
18 255 1 255
0 1 0 1
1
0 0 0
0 2 0 1
2
1 0 0
0 3 0 1
3
0 1 0
0 4 0 1
4
1 1 0
0 5 0 1
5
0.4545826952192147 0.6032390172888749 0
0 6 0 1
6
0.4230806750652764 0.8954771115166744 0
0 7 0 1
7
0.1308425808374769 0.863975091362736 0
0 8 0 1
8
0.1623446009914152 0.5717369971349364 0
1 1 0 9
9
10
11
12
13
14
15
16
17
0.09999999999999996 0 0
0.1999999999999999 0 0
0.3000000000000001 0 0
0.4000000000000004 0 0
0.5000000000000003 0 0
0.5999999999999999 0 0
0.6999999999999995 0 0
0.7999999999999992 0 0
0.899999999999999 0 0
1 2 0 9
18
19
20
21
22
23
24
25
26
0 0.9 0
0 0.8 0
0 0.7 0
0 0.5999999999999996 0
0 0.4999999999999997 0
0 0.4000000000000001 0
0 0.3000000000000005 0
0 0.2000000000000008 0
0 0.100000000000001 0
1 3 0 9
27
28
29
30
31
32
33
34
35
1 0.09999999999999996 0
1 0.1999999999999999 0
1 0.3000000000000001 0
1 0.4000000000000004 0
1 0.5000000000000003 0
1 0.5999999999999999 0
1 0.6999999999999995 0
1 0.7999999999999992 0
1 0.899999999999999 0
1 4 0 9
36
37
38
39
40
41
42
43
44
0.9 1 0
0.8 1 0
0.7 1 0
0.5999999999999996 1 0
0.4999999999999997 1 0
0.4000000000000001 1 0
0.3000000000000005 1 0
0.2000000000000008 1 0
0.100000000000001 1 0
1 5 0 5
45
46
47
48
49
0.4493323585268917 0.6519453663268414 0
0.4440820218345686 0.700651715364808 0
0.4388316851422456 0.7493580644027745 0
0.4335813484499226 0.7980644134407409 0
0.4283310117575995 0.8467707624787075 0
1 6 0 5
50
51
52
53
54
0.3743743260273099 0.8902267748243513 0
0.3256679769893434 0.8849764381320283 0
0.2769616279513769 0.8797261014397052 0
0.2282552789134104 0.8744757647473822 0
0.1795489298754437 0.8692254280550591 0
1 7 0 5
55
56
57
58
59
0.1360929175297999 0.8152687423247694 0
0.141343254222123 0.7665623932868029 0
0.146593590914446 0.7178560442488363 0
0.151843927606769 0.66914969521087 0
0.1570942642990921 0.6204433461729033 0
1 8 0 5
60
61
62
63
64
0.2110509500293817 0.5769873338272595 0
0.2597572990673482 0.5822376705195825 0
0.3084636481053147 0.5874880072119056 0
0.3571699971432812 0.5927383439042286 0
0.4058763461812478 0.5979886805965517 0
2 2 0 34
65
66
67
68
69
70
71
72
73
74
75
76
77
78
79
80
81
82
83
84
85
86
87
88
89
90
91
92
93
94
95
96
97
98
0.1980623909734332 0.6998054088914867 0
0.3275324066641388 0.6341377348823163 0
0.3920958660055564 0.7732294724984023 0
0.2575286815030864 0.8351927389483461 0
0.4062057008218027 0.6712545502162814 0
0.180327520497138 0.7970283941365965 0
0.3542606030593195 0.8463361840806934 0
0.2342538340579713 0.6242203031725343 0
0.3058726990432899 0.8403683766337706 0
0.2861195236486028 0.7954426942360385 0
0.2305157655619594 0.7853730992918682 0
0.2662492282943136 0.7505581263161316 0
0.313641384644288 0.7548535705492975 0
0.2948375879145961 0.7117032419228075 0
0.3438556768052365 0.7162526957621456 0
0.2491475973209332 0.705967287432808 0
0.2764967920633605 0.6645459892359505 0
0.1872316201583671 0.751325471341229 0
0.3921687291680663 0.7209496586020658 0
0.3425877848641429 0.7973017318954566 0
0.3903706361831304 0.8184755555810855 0
0.2085917890319089 0.831975377427663 0
0.1949635117641769 0.6504637553575783 0
0.3780515436905076 0.635476150572289 0
0.3214239785122742 0.6814579585617419 0
0.2813007959916267 0.6185259410044579 0
0.230584825235975 0.6690005488180716 0
0.3615396726103377 0.6765881247661399 0
0.2264675761448832 0.740619030898708 0
0.3557127244530151 0.7552509809645594 0
0.1941566099227665 0.611236032497535 0
0.3912686661339251 0.8559780761540758 0
0.1703416162000755 0.8321630824313846 0
0.4150836598566161 0.6350510262202262 0
2 3 0 157
99
100
101
102
103
104
105
106
107
108
109
110
111
112
113
114
115
116
117
118
119
120
121
122
123
124
125
126
127
128
129
130
131
132
133
134
135
136
137
138
139
140
141
142
143
144
145
146
147
148
149
150
151
152
153
154
155
156
157
158
159
160
161
162
163
164
165
166
167
168
169
170
171
172
173
174
175
176
177
178
179
180
181
182
183
184
185
186
187
188
189
190
191
192
193
194
195
196
197
198
199
200
201
202
203
204
205
206
207
208
209
210
211
212
213
214
215
216
217
218
219
220
221
222
223
224
225
226
227
228
229
230
231
232
233
234
235
236
237
238
239
240
241
242
243
244
245
246
247
248
249
250
251
252
253
254
255
0.4341847722777784 0.5568933716926493 0
0.2895636753791127 0.543438004617016 0
0.4870533723778613 0.5622685015586419 0
0.488888125773201 0.680845465799798 0
0.4646905417312909 0.512775405112324 0
0.5221445180312485 0.5185033882342375 0
0.4975274850638249 0.4639028864898425 0
0.5606502510857319 0.4703593940250834 0
0.592635547517639 0.5326982055657848 0
0.5332566147329441 0.4094691678472637 0
0.4666861448420498 0.406220760910092 0
0.6023673822998266 0.4171886274021945 0
0.7512774411653178 0.08539212965396364 0
0.5728256470242163 0.3512699264277288 0
0.6461062837997041 0.3596543704127267 0
0.1933354416153465 0.528513041091952 0
0.6756896483564511 0.4286382632809531 0
0.9135269237697127 0.6447584301209877 0
0.4783874523885547 0.7782581638757311 0
0.08296736402030724 0.2513290374461182 0
0.3478534770863206 0.07221548077484585 0
0.7535571482817359 0.9176636727070038 0
0.7230216958108624 0.3679135209393956 0
0.7532890510809407 0.4414135121113191 0
0.6158732254388806 0.2901881300273741 0
0.538941391173704 0.2829743550879694 0
0.461630242688438 0.8756153612442676 0
0.4111699967863379 0.5109102388488361 0
0.9161465099064541 0.2499951928303648 0
0.5832064112835795 0.2197078846428393 0
0.5023913961803883 0.213849470771829 0
0.7043974142744762 0.4955569886306185 0
0.7824304994800563 0.5166984262155773 0
0.7198806966981285 0.5737884426350611 0
0.4571482924701394 0.2794930121610811 0
0.6618142197235838 0.2249331362214551 0
0.7995638549130586 0.3764232306910537 0
0.1384458605365799 0.5233534789504838 0
0.1727075643194051 0.4730564669611505 0
0.9049563703094257 0.8441267680084331 0
0.1516008571018853 0.0760651219262316 0
0.7697401669276873 0.3009822062200216 0
0.6204339350602153 0.1536543915587382 0
0.4206055262049396 0.2091523074186654 0
0.3739306825473611 0.276398915588091 0
0.5039058378676119 0.6040208492769921 0
0.1078409467995395 0.6362635645420491 0
0.4757552617421814 0.1454271159747482 0
0.3385421331161548 0.2036473484150317 0
0.2951328885483472 0.2696291466816311 0
0.328046390637238 0.343128086146432 0
0.2498660693943652 0.3390445290171207 0
0.2899208926088622 0.4068760429275682 0
0.2543838675311547 0.2000459116180787 0
0.3551495399560625 0.409156643840152 0
0.2279568556410659 0.4853230921216855 0
0.9133974596215564 0.4500000000000004 0
0.1114139985020099 0.4641894739675432 0
0.1463773644026467 0.3970411071571748 0
0.1017874869758137 0.7376622938138465 0
0.3212533112763551 0.4652469677334331 0
0.1509171253396538 0.9255829294821997 0
0.8259966589016086 0.5913771306985354 0
0.759996512905673 0.6585439237070609 0
0.676894917250277 0.6461506532938746 0
0.7083521732183673 0.7194925837252661 0
0.6296601928807017 0.708721639482722 0
0.6634658910500564 0.7763680433915818 0
0.7910981230427189 0.7401463337597776 0
0.6034225980888712 0.6392804660999705 0
0.5862150128030044 0.7684937676702767 0
0.6038914023133833 0.8474401728975871 0
0.4138398898173479 0.3536498099485106 0
0.1197790680576591 0.5798691454379397 0
0.07190623675201996 0.8325656569202234 0
0.641653294003057 0.5824368481827722 0
0.2502233273036049 0.932127600593186 0
0.5690368286114112 0.7043719542956866 0
0.5576537103048003 0.9290947031491732 0
0.08928845799272833 0.909201794603726 0
0.5313356273224427 0.8100055224585676 0
0.2209555719212266 0.4171326779430561 0
0.9173990472990182 0.5509893241598759 0
0.924628965838698 0.3493081024730483 0
0.917756604876619 0.7412529335884368 0
0.2501421205536994 0.07191861406833244 0
0.5500000000000002 0.08490233933794977 0
0.8509705716854593 0.09716713790544929 0
0.7877580552490976 0.1684417207903814 0
0.3484984593542267 0.9391280495162833 0
0.07954918572475589 0.3425005705677268 0
0.1633400328200663 0.309628349989884 0
0.6576643692720296 0.9192335993930962 0
0.9260674943753266 0.1529411501348754 0
0.3860700966162379 0.5531825766579195 0
0.3372598284809559 0.5499871646238512 0
0.2426449835944869 0.5359906367692225 0
0.167972691866461 0.2196944675701761 0
0.8475449969245445 0.9203890665428398 0
0.8001981567500097 0.832902186015319 0
0.09290376750429619 0.1527687829007381 0
0.5020567235449883 0.3448409662546204 0
0.6927625620676812 0.295628978847979 0
0.4828505745916083 0.7294669564733136 0
0.4731371156962317 0.8269645129136974 0
0.4650734613720237 0.9307413911946469 0
0.4406530945596627 0.462941330321436 0
0.6316696634147261 0.4784646692722662 0
0.8279884184266927 0.4500741494851501 0
0.7048463525654384 0.1564773682621201 0
0.1127137884547494 0.6839392301693705 0
0.09833130611079488 0.7829825669242575 0
0.5419106427037421 0.5728693484364614 0
0.7031239822547138 0.8452769224452468 0
0.2017889322864227 0.9202823445755655 0
0.4022053843637673 0.9311146654103912 0
0.3002702783197105 0.9271916379362406 0
0.3846223673588555 0.4631110166234147 0
0.8417495800431569 0.6883568321094644 0
0.6677746834890474 0.07634032208128139 0
0.7378398507766526 0.231298171201416 0
0.8504534215408651 0.2997440782547056 0
0.06048389528357617 0.6702107709202316 0
0.5275371137393968 0.7565613204739794 0
0.5383089523818738 0.6423285645778978 0
0.5463574008532729 0.1635082404572209 0
0.2261391100320789 0.2676084809753781 0
0.04705726437204893 0.7555146325710687 0
0.4463439553933894 0.0677008487913715 0
0.3640368049582067 0.5128746433169722 0
0.1951347596345762 0.3657116660268089 0
0.2957448325676058 0.1398221143402908 0
0.2806711216558231 0.4959864468896936 0
0.4130087774701265 0.4176907069787053 0
0.20015122052055 0.1431096951383527 0
0.8016568919822478 0.2395491331566149 0
0.3844577189466056 0.1458260278582995 0
0.9267949192431117 0.07320508075688797 0
0.9267949192431122 0.926794919243112 0
0.07320508075688753 0.07320508075688781 0
0.06940982218041436 0.5334015126272258 0
0.0783085307228637 0.4105300762441972 0
0.8534424167457864 0.5118278061118278 0
0.5935636666257601 0.5855139462847466 0
0.8502425244718106 0.7754792201458653 0
0.2667131461812707 0.4526537501943617 0
0.8677764039633128 0.3961093437532183 0
0.5164580026172996 0.8728320124657822 0
0.862492965416936 0.1972794893165497 0
0.3163953409571134 0.513907240274324 0
0.04732211449818224 0.9523004486509316 0
0.7351674540054289 0.7814705414101396 0
0.5213243190194983 0.7027148523241351 0
0.4867864276108171 0.6383241778207552 0
0.05182647028105758 0.4616242125677932 0
0.07150274646423777 0.6039489987054891 0
0.6542777369542313 0.5263465367289628 0
$EndNodes
$Elements
6 508 1 508
1 1 1 10
1 1 9 
2 9 10 
3 10 11 
4 11 12 
5 12 13 
6 13 14 
7 14 15 
8 15 16 
9 16 17 
10 17 2 
1 2 1 10
11 3 18 
12 18 19 
13 19 20 
14 20 21 
15 21 22 
16 22 23 
17 23 24 
18 24 25 
19 25 26 
20 26 1 
1 3 1 10
21 2 27 
22 27 28 
23 28 29 
24 29 30 
25 30 31 
26 31 32 
27 32 33 
28 33 34 
29 34 35 
30 35 4 
1 4 1 10
31 4 36 
32 36 37 
33 37 38 
34 38 39 
35 39 40 
36 40 41 
37 41 42 
38 42 43 
39 43 44 
40 44 3 
2 2 2 90
41 70 82 75 
42 67 85 84 
43 82 93 75 
44 84 94 67 
45 72 90 81 
46 81 90 66 
47 66 89 81 
48 81 91 72 
49 88 92 66 
50 66 92 89 
51 84 85 71 
52 80 93 65 
53 83 94 79 
54 75 86 70 
55 65 91 80 
56 79 92 83 
57 65 93 82 
58 67 94 83 
59 47 83 46 
60 56 82 70 
61 57 82 56 
62 67 83 47 
63 46 69 45 
64 56 70 55 
65 68 74 73 
66 53 68 52 
67 63 66 62 
68 52 73 51 
69 77 84 74 
70 51 71 50 
71 68 75 74 
72 76 78 77 
73 80 81 78 
74 46 83 69 
75 51 73 71 
76 73 84 71 
77 76 77 74 
78 61 72 60 
79 75 76 74 
80 78 79 77 
81 74 84 73 
82 68 73 52 
83 48 67 47 
84 58 65 57 
85 76 80 78 
86 65 82 57 
87 83 92 69 
88 59 87 58 
89 49 85 48 
90 68 86 75 
91 64 88 63 
92 54 86 53 
93 87 91 65 
94 81 89 78 
95 61 90 72 
96 66 90 62 
97 58 87 65 
98 48 85 67 
99 63 88 66 
100 53 86 68 
101 75 93 76 
102 77 94 84 
103 7 97 54 
104 5 98 64 
105 6 96 49 
106 55 97 7 
107 8 95 59 
108 45 98 5 
109 50 96 6 
110 60 95 8 
111 62 90 61 
112 78 89 79 
113 69 92 88 
114 80 91 81 
115 72 91 87 
116 76 93 80 
117 79 94 77 
118 59 95 87 
119 49 96 85 
120 54 97 86 
121 64 98 88 
122 71 96 50 
123 72 95 60 
124 70 97 55 
125 69 98 45 
126 89 92 79 
127 88 98 69 
128 86 97 70 
129 85 96 71 
130 87 95 72 
2 3 2 378
131 173 178 18 
132 171 200 109 
133 133 200 171 
134 161 181 116 
135 190 229 157 
136 160 213 43 
137 19 173 18 
138 170 191 177 
139 44 160 43 
140 170 212 191 
141 239 254 21 
142 189 190 157 
143 166 212 170 
144 158 226 221 
145 172 254 239 
146 151 180 150 
147 185 218 141 
148 44 178 160 
149 14 218 185 
150 177 191 39 
151 223 251 102 
152 170 246 179 
153 169 176 165 
154 133 171 143 
155 177 246 170 
156 59 172 8 
157 22 239 21 
158 116 217 161 
159 43 175 42 
160 102 252 223 
161 175 215 42 
162 169 222 176 
163 153 159 151 
164 117 222 179 
165 165 168 163 
166 174 255 132 
167 165 176 168 
168 145 172 59 
169 199 233 196 
170 43 213 175 
171 227 235 119 
172 161 241 181 
173 149 151 150 
174 149 153 151 
175 180 229 150 
176 163 174 132 
177 211 242 223 
178 116 181 32 
179 197 198 138 
180 19 226 173 
181 179 203 117 
182 164 165 163 
183 146 235 227 
184 211 223 144 
185 155 182 30 
186 166 169 165 
187 132 255 130 
188 41 214 204 
189 139 233 199 
190 143 171 149 
191 33 183 116 
192 176 251 223 
193 186 187 111 
194 40 204 177 
195 222 251 176 
196 198 243 138 
197 183 217 116 
198 183 243 217 
199 16 186 111 
200 42 188 41 
201 41 204 40 
202 162 163 132 
203 186 247 187 
204 143 149 148 
205 31 181 155 
206 29 182 127 
207 40 177 39 
208 168 174 163 
209 10 184 139 
210 33 116 32 
211 12 119 11 
212 109 232 171 
213 170 179 169 
214 31 155 30 
215 16 111 15 
216 149 150 148 
217 119 184 11 
218 146 227 185 
219 29 127 28 
220 32 181 31 
221 138 183 34 
222 30 182 29 
223 34 183 33 
224 14 185 13 
225 17 186 16 
226 24 189 23 
227 162 164 163 
228 133 143 142 
229 179 222 169 
230 118 190 189 
231 124 133 129 
232 192 247 186 
233 38 120 37 
234 25 118 24 
235 164 166 165 
236 149 171 153 
237 39 191 38 
238 11 184 10 
239 122 130 115 
240 35 138 34 
241 10 139 9 
242 204 246 177 
243 124 200 133 
244 130 206 115 
245 188 214 41 
246 127 192 28 
247 217 243 167 
248 174 242 107 
249 137 154 114 
250 28 192 27 
251 190 225 150 
252 12 227 119 
253 109 200 108 
254 191 212 120 
255 141 224 185 
256 133 142 129 
257 118 189 24 
258 131 132 130 
259 143 148 147 
260 37 197 36 
261 26 199 25 
262 166 170 169 
263 107 255 174 
264 106 206 107 
265 185 227 13 
266 108 200 112 
267 143 147 142 
268 38 191 120 
269 150 229 190 
270 122 131 130 
271 112 124 123 
272 161 162 132 
273 118 199 196 
274 120 197 37 
275 25 199 118 
276 15 218 14 
277 220 245 135 
278 64 99 5 
279 61 100 62 
280 187 208 111 
281 126 216 205 
282 121 140 135 
283 62 194 63 
284 113 115 110 
285 110 206 106 
286 204 214 6 
287 63 193 64 
288 234 247 220 
289 105 109 108 
290 128 134 123 
291 131 161 132 
292 45 102 46 
293 124 129 128 
294 7 178 173 
295 120 198 197 
296 162 167 164 
297 118 196 190 
298 121 122 115 
299 148 152 147 
300 99 126 103 
301 153 216 159 
302 112 123 113 
303 106 107 104 
304 142 146 129 
305 140 220 135 
306 113 121 115 
307 124 128 123 
308 121 135 122 
309 185 224 146 
310 220 247 127 
311 128 141 134 
312 181 241 155 
313 112 113 110 
314 108 112 110 
315 2 236 17 
316 27 236 2 
317 221 226 20 
318 101 211 144 
319 112 200 124 
320 46 202 47 
321 60 195 61 
322 104 211 101 
323 203 246 125 
324 4 237 35 
325 36 237 4 
326 1 238 26 
327 9 238 1 
328 152 233 230 
329 101 144 5 
330 141 218 208 
331 134 201 123 
332 99 101 5 
333 105 205 109 
334 108 110 106 
335 223 242 168 
336 155 245 182 
337 100 194 62 
338 121 201 140 
339 64 193 99 
340 115 206 110 
341 137 180 154 
342 105 108 106 
343 103 105 104 
344 63 194 193 
345 176 223 168 
346 189 240 23 
347 105 106 104 
348 150 225 148 
349 216 228 159 
350 103 104 101 
351 157 180 137 
352 134 219 201 
353 47 117 48 
354 99 103 101 
355 161 217 162 
356 122 207 131 
357 216 232 205 
358 141 208 134 
359 135 207 122 
360 123 201 113 
361 99 193 126 
362 154 195 114 
363 228 248 159 
364 201 219 140 
365 159 244 151 
366 42 215 188 
367 8 114 60 
368 182 220 127 
369 113 201 121 
370 126 205 103 
371 125 246 204 
372 208 218 111 
373 195 231 100 
374 48 203 49 
375 230 233 184 
376 61 195 100 
377 111 218 15 
378 138 243 183 
379 178 249 18 
380 157 240 189 
381 223 252 144 
382 179 246 203 
383 187 219 208 
384 102 202 46 
385 21 221 20 
386 49 125 6 
387 171 232 153 
388 103 205 105 
389 156 157 137 
390 107 211 104 
391 182 245 220 
392 5 252 45 
393 184 233 139 
394 120 212 198 
395 20 226 19 
396 44 249 178 
397 206 255 107 
398 146 224 129 
399 168 242 174 
400 58 145 59 
401 155 241 207 
402 57 209 58 
403 151 244 180 
404 164 250 166 
405 56 158 57 
406 128 224 141 
407 142 235 146 
408 162 217 167 
409 136 156 137 
410 136 137 114 
411 198 250 167 
412 131 241 161 
413 55 210 56 
414 119 230 184 
415 47 202 117 
416 130 255 206 
417 54 160 7 
418 7 173 55 
419 18 249 3 
420 166 250 212 
421 53 213 54 
422 114 195 60 
423 192 236 27 
424 144 252 5 
425 3 249 44 
426 208 219 134 
427 52 175 53 
428 13 227 12 
429 154 231 195 
430 23 253 22 
431 17 236 186 
432 51 215 52 
433 197 237 36 
434 26 238 199 
435 50 188 51 
436 117 203 48 
437 196 225 190 
438 35 237 138 
439 139 238 9 
440 186 236 192 
441 6 214 50 
442 167 243 198 
443 152 225 196 
444 129 224 128 
445 8 172 136 
446 202 222 117 
447 148 225 152 
448 49 203 125 
449 8 136 114 
450 196 233 152 
451 153 232 216 
452 138 237 197 
453 199 238 139 
454 152 230 147 
455 127 247 192 
456 147 235 142 
457 125 204 6 
458 180 244 154 
459 205 232 109 
460 126 228 216 
461 187 234 219 
462 230 235 147 
463 157 229 180 
464 167 250 164 
465 194 228 193 
466 212 250 198 
467 145 254 172 
468 207 241 131 
469 58 209 145 
470 231 244 159 
471 107 242 211 
472 158 209 57 
473 160 178 7 
474 56 210 158 
475 119 235 230 
476 140 234 220 
477 45 252 102 
478 173 210 55 
479 202 251 222 
480 193 228 126 
481 54 213 160 
482 135 245 207 
483 209 221 145 
484 156 240 157 
485 219 234 140 
486 22 253 239 
487 175 213 53 
488 21 254 221 
489 210 226 158 
490 52 215 175 
491 194 248 228 
492 100 248 194 
493 207 245 155 
494 188 215 51 
495 240 253 23 
496 136 239 156 
497 50 214 188 
498 102 251 202 
499 239 253 156 
500 172 239 136 
501 231 248 100 
502 154 244 231 
503 187 247 234 
504 159 248 231 
505 156 253 240 
506 221 254 145 
507 158 221 209 
508 173 226 210 
$EndElements
