$MeshFormat
4.1 0 8
$EndMeshFormat
$PhysicalNames
3
1 101 "outer_boundary"
2 1 "material_1"
2 2 "material_2"
$EndPhysicalNames
$Entities
8 8 2 0
1 0 0 0 0 
2 1 0 0 0 
3 0 1 0 0 
4 1 1 0 0 
5 0.7395051734488163 0.4288991915083943 0 0 
6 0.7770204232917761 0.7551732657693572 0 0 
7 0.4507463490308132 0.792688515612317 0 0 
8 0.4132310991878534 0.4664144413513541 0 0 
1 -9.999999994736442e-08 -1e-07 -1e-07 1.0000001 1e-07 1e-07 1 101 2 1 -2 
2 -1e-07 -9.999999994736442e-08 -1e-07 1e-07 1.0000001 1e-07 1 101 2 3 -1 
3 0.9999999000000001 -9.999999994736442e-08 -1e-07 1.0000001 1.0000001 1e-07 1 101 2 2 -4 
4 -9.999999994736442e-08 0.9999999000000001 -1e-07 1.0000001 1.0000001 1e-07 1 101 2 4 -3 
5 0.7395050734488163 0.4288990915083943 -1e-07 0.7770205232917761 0.7551733657693571 1e-07 0 2 5 -6 
6 0.4507462490308132 0.7551731657693572 -1e-07 0.7770205232917761 0.792688615612317 1e-07 0 2 6 -7 
7 0.4132309991878534 0.4664143413513541 -1e-07 0.4507464490308132 0.792688615612317 1e-07 0 2 7 -8 
8 0.4132309991878534 0.4288990915083943 -1e-07 0.7395052734488162 0.4664145413513541 1e-07 0 2 8 -5 
2 0.4132309991878534 0.4288990915083943 -1e-07 0.7770205232917761 0.792688615612317 1e-07 1 2 4 5 6 7 8 
3 -9.999999994736442e-08 -9.999999994736442e-08 -1e-07 1.0000001 1.0000001 1e-07 1 1 8 1 3 4 2 -5 -8 -7 -6 
$EndEntities
$Nodes
18 172 1 172
0 1 0 1
1
0 0 0
0 2 0 1
2
1 0 0
0 3 0 1
3
0 1 0
0 4 0 1
4
1 1 0
0 5 0 1
5
0.7395051734488163 0.4288991915083943 0
0 6 0 1
6
0.7770204232917761 0.7551732657693572 0
0 7 0 1
7
0.4507463490308132 0.792688515612317 0
0 8 0 1
8
0.4132310991878534 0.4664144413513541 0
1 1 0 7
9
10
11
12
13
14
15
0.1249999999999999 0 0
0.2499999999999998 0 0
0.3749999999999993 0 0
0.4999999999999988 0 0
0.6249999999999988 0 0
0.7499999999999991 0 0
0.8749999999999997 0 0
1 2 0 7
16
17
18
19
20
21
22
0 0.8750000000000001 0
0 0.7500000000000002 0
0 0.6250000000000007 0
0 0.5000000000000012 0
0 0.3750000000000012 0
0 0.2500000000000009 0
0 0.1250000000000003 0
1 3 0 7
23
24
25
26
27
28
29
1 0.1249999999999999 0
1 0.2499999999999998 0
1 0.3749999999999993 0
1 0.4999999999999988 0
1 0.6249999999999988 0
1 0.7499999999999991 0
1 0.8749999999999997 0
1 4 0 7
30
31
32
33
34
35
36
0.8750000000000001 1 0
0.7500000000000002 1 0
0.6250000000000007 1 0
0.5000000000000012 1 0
0.3750000000000012 1 0
0.2500000000000009 1 0
0.1250000000000003 1 0
1 5 0 4
37
38
39
40
0.7470082234174082 0.4941540063605868 0
0.7545112733860002 0.5594088212127792 0
0.7620143233545922 0.6246636360649717 0
0.7695173733231842 0.6899184509171641 0
1 6 0 4
41
42
43
44
0.7117656084395837 0.7626763157379491 0
0.6465107935873912 0.7701793657065411 0
0.5812559787351987 0.7776824156751331 0
0.5160011638830062 0.785185465643725 0
1 7 0 4
45
46
47
48
0.4432432990622213 0.7274337007601246 0
0.4357402490936293 0.6621788859079321 0
0.4282371991250374 0.5969240710557396 0
0.4207341491564454 0.5316692562035472 0
1 8 0 4
49
50
51
52
0.4784859140400459 0.4589113913827622 0
0.5437407288922383 0.4514083414141702 0
0.6089955437444308 0.4439052914455783 0
0.6742503585966233 0.4364022414769863 0
2 2 0 24
53
54
55
56
57
58
59
60
61
62
63
64
65
66
67
68
69
70
71
72
73
74
75
76
0.7017504709890474 0.5985340605175401 0
0.4752470238096239 0.6219157188991851 0
0.6040436030527645 0.7209428995347582 0
0.579319549750277 0.5011222982337741 0
0.6955355885730233 0.5334112955006277 0
0.6468967443340853 0.5706055269395933 0
0.6553598858693886 0.6379513550880881 0
0.58872581622655 0.6115297242748695 0
0.7104045917609877 0.6635008549139987 0
0.5423112149792146 0.7261646777455029 0
0.4864264339161213 0.562211139701008 0
0.5190602930131204 0.5076792461944533 0
0.6434137529977831 0.5021315080163619 0
0.66762758148798 0.7074727031317715 0
0.4958371349970171 0.6830745909285627 0
0.5640447859920763 0.6700311285798528 0
0.5521122732930852 0.5562017591616049 0
0.5347623893487485 0.6099949253343622 0
0.7237579695927334 0.7128960396477892 0
0.466493552886896 0.508691667472922 0
0.4930235751523812 0.7394260619132744 0
0.6972279473272485 0.4821616452074367 0
0.6158799385032624 0.671118989740436 0
0.6016705386587935 0.5473122573105369 0
2 3 0 96
77
78
79
80
81
82
83
84
85
86
87
88
89
90
91
92
93
94
95
96
97
98
99
100
101
102
103
104
105
106
107
108
109
110
111
112
113
114
115
116
117
118
119
120
121
122
123
124
125
126
127
128
129
130
131
132
133
134
135
136
137
138
139
140
141
142
143
144
145
146
147
148
149
150
151
152
153
154
155
156
157
158
159
160
161
162
163
164
165
166
167
168
169
170
171
172
0.4405546164764117 0.4030569404331935 0
0.3685825068448292 0.7069138809031672 0
0.6381803250668654 0.376211361080056 0
0.3669828606929164 0.4086378090210255 0
0.3653830104242454 0.5601835665751821 0
0.3990827094334635 0.3391689536732339 0
0.3174795079923006 0.3489716544085764 0
0.2897066782405008 0.4289012463542392 0
0.5624999999999988 0.1082531754730546 0
0.106551062607614 0.6789320674618498 0
0.3524252813333663 0.267791071761737 0
0.4731554302923215 0.3347742659844584 0
0.2599568217148434 0.2789659402889238 0
0.8053965539997292 0.4517019759364629 0
0.7959883562869894 0.3831979471443716 0
0.8130644043543021 0.1126437891114312 0
0.8285977925948877 0.5961969939472701 0
0.6880202263889612 0.8316059442663735 0
0.3134019334808825 0.8962207543171872 0
0.5551264031877672 0.8379462680406777 0
0.8375897170819689 0.7136371419969784 0
0.8446946306910746 0.7872152150889755 0
0.2982154729192976 0.1894228898354807 0
0.1974201393442219 0.2022777064869308 0
0.1096927550787625 0.4449962707844907 0
0.3986815301993904 0.1842589069037735 0
0.7204654233091961 0.3607813004065784 0
0.6627385917285982 0.3034268222419417 0
0.7898175832050238 0.3083653619336434 0
0.7748813934034686 0.8325770310470028 0
0.5896462412479839 0.3199004864404384 0
0.6091426662241972 0.2434690724089602 0
0.6895790119660909 0.2315860917899967 0
0.1725384947909824 0.2992435913390382 0
0.8613769864437888 0.3393252986994179 0
0.8690262048613504 0.2424032120313073 0
0.4353355395669633 0.9152499086131052 0
0.852991028235961 0.8660169381450904 0
0.6855361685830696 0.09022915331068732 0
0.1037128509344175 0.5637476441284951 0
0.1985658091136988 0.622798539829555 0
0.205771089941974 0.7240974674584937 0
0.206452295934884 0.513015053470061 0
0.1234628933964469 0.7932481831070708 0
0.2887251014471732 0.6702802410106463 0
0.2971646004995301 0.7533559636444404 0
0.1885738619495507 0.8985035898573451 0
0.5264480682651711 0.2686465423440875 0
0.3772322412823372 0.7767126205610241 0
0.2817761955075506 0.5834382765608631 0
0.7135634031664821 0.9165663259117284 0
0.5046154895874775 0.3986475390172174 0
0.3614073770737442 0.629986487002255 0
0.3127017282546183 0.508468289030185 0
0.5698703044396699 0.3911444890486255 0
0.6271437946331904 0.8913438087111279 0
0.9081589469754652 0.5599802981854867 0
0.9040723183067019 0.4588685003721847 0
0.9004475728878039 0.6622037579578832 0
0.8246241847800322 0.5200517660024617 0
0.8196333558484874 0.6573239961768536 0
0.4439937185015149 0.09499452695026611 0
0.2275293723744802 0.1019144072690811 0
0.107815437317064 0.1080035537733967 0
0.3322366823324471 0.09509845515976689 0
0.481824861875645 0.8468165895436663 0
0.6196114393065018 0.8217515604799707 0
0.4392840132811637 0.2623247736279462 0
0.2355197094915984 0.3623475698517244 0
0.8991263253751294 0.7461559057913532 0
0.5374050998772613 0.9152260958180962 0
0.09694311218368157 0.218829208884368 0
0.4859110601632691 0.1793089011003865 0
0.2422121897373949 0.8152396513920568 0
0.09756743284184155 0.8882441674755269 0
0.9201773339447109 0.8247733463985865 0
0.401604210196537 0.8388777610429596 0
0.7778508678112349 0.2267983870357498 0
0.9167540824774946 0.1587354562096439 0
0.2066025781704086 0.4313276905263581 0
0.3712322965815565 0.5043022574502696 0
0.9242520193661008 0.9242520193661008 0
0.8067182187348378 0.9325354375618136 0
0.6356744912614603 0.1682485403399931 0
0.08875772776952423 0.3348032377794999 0
0.8580164517060915 0.4036543587854559 0
0.912349659951414 0.3762368547969585 0
0.5619681352317173 0.1934240412132424 0
0.7340946718718603 0.1607002111181658 0
0.1626222530602552 0.3745436720562223 0
0.5327471067665248 0.3426226645669654 0
0.7272328793995624 0.288806655850756 0
0.9333172509284589 0.310589665606205 0
0.3263230350393364 0.8160813501915336 0
0.9251965983938949 0.0749256191727245 0
0.3474837849424944 0.4619188559644579 0
$EndNodes
$Elements
6 342 1 342
1 1 1 8
1 1 9 
2 9 10 
3 10 11 
4 11 12 
5 12 13 
6 13 14 
7 14 15 
8 15 2 
1 2 1 8
9 3 16 
10 16 17 
11 17 18 
12 18 19 
13 19 20 
14 20 21 
15 21 22 
16 22 1 
1 3 1 8
17 2 23 
18 23 24 
19 24 25 
20 25 26 
21 26 27 
22 27 28 
23 28 29 
24 29 4 
1 4 1 8
25 4 30 
26 30 31 
27 31 32 
28 32 33 
29 33 34 
30 34 35 
31 35 36 
32 36 3 
2 2 2 66
33 67 70 68 
34 54 70 67 
35 61 66 59 
36 58 65 57 
37 69 70 63 
38 67 68 62 
39 64 69 63 
40 66 75 59 
41 58 76 65 
42 63 70 54 
43 47 54 46 
44 53 57 38 
45 53 58 57 
46 47 63 54 
47 51 56 50 
48 38 57 37 
49 44 62 43 
50 39 61 53 
51 43 62 55 
52 59 60 58 
53 39 53 38 
54 40 61 39 
55 43 55 42 
56 48 63 47 
57 53 59 58 
58 53 61 59 
59 46 67 45 
60 42 66 41 
61 50 64 49 
62 52 65 51 
63 51 65 56 
64 56 64 50 
65 55 66 42 
66 54 67 46 
67 62 68 55 
68 6 71 40 
69 7 73 44 
70 8 72 48 
71 49 72 8 
72 5 74 52 
73 37 74 5 
74 41 71 6 
75 45 73 7 
76 68 70 60 
77 56 69 64 
78 60 76 58 
79 59 75 60 
80 55 75 66 
81 65 76 56 
82 69 76 60 
83 60 75 68 
84 66 71 41 
85 52 74 65 
86 67 73 45 
87 64 72 49 
88 40 71 61 
89 48 72 63 
90 57 74 37 
91 44 73 62 
92 65 74 57 
93 63 72 64 
94 61 71 66 
95 62 73 67 
96 60 70 69 
97 68 75 55 
98 56 76 69 
2 3 2 244
99 135 137 93 
100 78 122 121 
101 79 103 52 
102 81 129 126 
103 1 140 22 
104 9 140 1 
105 84 130 119 
106 126 129 121 
107 32 132 127 
108 133 136 134 
109 52 103 5 
110 93 136 133 
111 78 125 122 
112 134 136 90 
113 121 129 78 
114 116 117 86 
115 133 135 93 
116 119 130 126 
117 6 106 41 
118 41 106 94 
119 112 154 92 
120 17 120 16 
121 7 125 45 
122 139 140 9 
123 119 156 84 
124 112 155 24 
125 10 139 9 
126 32 127 31 
127 24 169 112 
128 79 104 103 
129 18 116 86 
130 101 119 116 
131 45 125 78 
132 120 151 16 
133 92 155 112 
134 116 119 117 
135 95 113 34 
136 119 126 117 
137 3 151 36 
138 92 115 14 
139 117 121 118 
140 32 147 132 
141 117 118 86 
142 132 147 96 
143 35 95 34 
144 96 143 132 
145 86 120 17 
146 134 163 25 
147 34 113 33 
148 101 116 19 
149 16 151 3 
150 13 115 85 
151 18 86 17 
152 113 147 33 
153 13 85 12 
154 35 123 95 
155 148 161 21 
156 20 101 19 
157 95 153 113 
158 140 148 22 
159 126 130 81 
160 121 122 118 
161 19 116 18 
162 150 170 95 
163 28 146 135 
164 117 126 121 
165 101 156 119 
166 14 115 13 
167 26 134 25 
168 15 92 14 
169 92 165 115 
170 28 135 27 
171 142 147 113 
172 33 147 32 
173 11 141 10 
174 106 127 94 
175 123 150 95 
176 90 162 134 
177 24 155 23 
178 22 148 21 
179 36 123 35 
180 110 161 148 
181 79 107 104 
182 10 141 139 
183 12 138 11 
184 88 144 124 
185 138 141 11 
186 124 167 88 
187 82 144 88 
188 97 137 135 
189 118 120 86 
190 21 161 20 
191 120 150 123 
192 102 141 138 
193 85 138 12 
194 142 153 7 
195 95 170 153 
196 100 140 139 
197 99 102 87 
198 89 110 100 
199 160 165 109 
200 8 77 49 
201 154 165 92 
202 87 144 82 
203 29 152 28 
204 45 78 46 
205 106 159 127 
206 51 79 52 
207 46 129 47 
208 47 81 48 
209 50 131 51 
210 107 167 124 
211 49 128 50 
212 114 159 106 
213 107 124 108 
214 82 88 77 
215 27 133 26 
216 5 103 91 
217 80 84 83 
218 115 160 85 
219 127 132 94 
220 79 131 107 
221 158 159 114 
222 89 100 99 
223 123 151 120 
224 36 151 123 
225 100 139 99 
226 107 108 104 
227 99 141 102 
228 15 171 92 
229 89 99 87 
230 100 148 140 
231 133 134 26 
232 89 145 110 
233 108 109 104 
234 5 90 37 
235 37 136 38 
236 102 144 87 
237 41 94 42 
238 38 93 39 
239 8 80 77 
240 83 89 87 
241 39 137 40 
242 42 143 43 
243 83 87 82 
244 40 97 6 
245 77 128 49 
246 78 129 46 
247 135 146 97 
248 130 157 81 
249 5 91 90 
250 80 83 82 
251 47 129 81 
252 51 131 79 
253 144 149 124 
254 128 131 50 
255 43 96 44 
256 98 106 6 
257 139 141 99 
258 88 128 77 
259 44 142 7 
260 118 150 120 
261 80 82 77 
262 7 153 125 
263 122 170 150 
264 113 153 142 
265 20 161 101 
266 115 165 160 
267 103 105 91 
268 85 149 138 
269 84 145 83 
270 97 98 6 
271 110 148 100 
272 108 160 109 
273 132 143 94 
274 83 145 89 
275 27 135 133 
276 105 111 91 
277 92 171 155 
278 31 159 30 
279 4 158 29 
280 30 158 4 
281 105 112 111 
282 81 157 48 
283 8 172 80 
284 122 150 118 
285 25 169 24 
286 30 159 158 
287 102 149 144 
288 98 114 106 
289 138 149 102 
290 97 146 98 
291 28 152 146 
292 157 172 8 
293 48 157 8 
294 90 136 37 
295 38 136 93 
296 2 171 15 
297 23 171 2 
298 152 158 114 
299 93 137 39 
300 94 143 42 
301 85 164 149 
302 40 137 97 
303 43 143 96 
304 29 158 152 
305 80 172 84 
306 96 142 44 
307 112 169 111 
308 101 166 156 
309 109 168 104 
310 84 172 130 
311 104 168 103 
312 96 147 142 
313 111 162 91 
314 105 154 112 
315 84 156 145 
316 154 168 109 
317 98 152 114 
318 145 166 110 
319 105 168 154 
320 153 170 125 
321 127 159 31 
322 124 164 108 
323 146 152 98 
324 91 162 90 
325 125 170 122 
326 131 167 107 
327 103 168 105 
328 149 164 124 
329 128 167 131 
330 88 167 128 
331 155 171 23 
332 108 164 160 
333 160 164 85 
334 109 165 154 
335 111 163 162 
336 110 166 161 
337 156 166 145 
338 111 169 163 
339 161 166 101 
340 163 169 25 
341 162 163 134 
342 130 172 157 
$EndElements
