$MeshFormat
4.1 0 8
$EndMeshFormat
$PhysicalNames
3
1 101 "outer_boundary"
2 1 "material_1"
2 2 "material_2"
$EndPhysicalNames
$Entities
8 8 2 0
1 0 0 0 0 
2 1 0 0 0 
3 0 1 0 0 
4 1 1 0 0 
5 0.3467786960762346 0.1111933619535117 0 0 
6 0.3976559310706176 0.2897151744284718 0 0 
7 0.2191341185956575 0.3405924094228548 0 0 
8 0.1682568836012745 0.1620705969478947 0 0 
1 -9.999999994736442e-08 -1e-07 -1e-07 1.0000001 1e-07 1e-07 1 101 2 1 -2 
2 -1e-07 -9.999999994736442e-08 -1e-07 1e-07 1.0000001 1e-07 1 101 2 3 -1 
3 0.9999999000000001 -9.999999994736442e-08 -1e-07 1.0000001 1.0000001 1e-07 1 101 2 2 -4 
4 -9.999999994736442e-08 0.9999999000000001 -1e-07 1.0000001 1.0000001 1e-07 1 101 2 4 -3 
5 0.3467785960762346 0.1111932619535117 -1e-07 0.3976560310706176 0.2897152744284718 1e-07 0 2 5 -6 
6 0.2191340185956575 0.2897150744284718 -1e-07 0.3976560310706176 0.3405925094228548 1e-07 0 2 6 -7 
7 0.1682567836012745 0.1620704969478947 -1e-07 0.2191342185956575 0.3405925094228548 1e-07 0 2 7 -8 
8 0.1682567836012745 0.1111932619535117 -1e-07 0.3467787960762346 0.1620706969478947 1e-07 0 2 8 -5 
2 0.1682567836012745 0.1111932619535117 -1e-07 0.3976560310706176 0.3405925094228548 1e-07 1 2 4 5 6 7 8 
3 -9.999999994736442e-08 -9.999999994736442e-08 -1e-07 1.0000001 1.0000001 1e-07 1 1 8 1 3 4 2 -5 -8 -7 -6 
$EndEntities
$Nodes
18 222 1 222
0 1 0 1
1
0 0 0
0 2 0 1
2
1 0 0
0 3 0 1
3
0 1 0
0 4 0 1
4
1 1 0
0 5 0 1
5
0.3467786960762346 0.1111933619535117 0
0 6 0 1
6
0.3976559310706176 0.2897151744284718 0
0 7 0 1
7
0.2191341185956575 0.3405924094228548 0
0 8 0 1
8
0.1682568836012745 0.1620705969478947 0
1 1 0 9
9
10
11
12
13
14
15
16
17
0.09999999999999996 0 0
0.1999999999999999 0 0
0.3000000000000001 0 0
0.4000000000000004 0 0
0.5000000000000003 0 0
0.5999999999999999 0 0
0.6999999999999995 0 0
0.7999999999999992 0 0
0.899999999999999 0 0
1 2 0 9
18
19
20
21
22
23
24
25
26
0 0.9 0
0 0.8 0
0 0.7 0
0 0.5999999999999996 0
0 0.4999999999999997 0
0 0.4000000000000001 0
0 0.3000000000000005 0
0 0.2000000000000008 0
0 0.100000000000001 0
1 3 0 9
27
28
29
30
31
32
33
34
35
1 0.09999999999999996 0
1 0.1999999999999999 0
1 0.3000000000000001 0
1 0.4000000000000004 0
1 0.5000000000000003 0
1 0.5999999999999999 0
1 0.6999999999999995 0
1 0.7999999999999992 0
1 0.899999999999999 0
1 4 0 9
36
37
38
39
40
41
42
43
44
0.9 1 0
0.8 1 0
0.7 1 0
0.5999999999999996 1 0
0.4999999999999997 1 0
0.4000000000000001 1 0
0.3000000000000005 1 0
0.2000000000000008 1 0
0.100000000000001 1 0
1 5 0 3
45
46
47
0.3594980048248304 0.1558238150722518 0
0.3722173135734261 0.2004542681909919 0
0.3849366223220219 0.2450847213097319 0
1 6 0 3
48
49
50
0.3530254779518775 0.3024344831770676 0
0.3083950248331375 0.3151537919256633 0
0.2637645717143975 0.3278731006742591 0
1 7 0 3
51
52
53
0.2064148098470617 0.2959619563041147 0
0.193695501098466 0.2513315031853747 0
0.1809761923498702 0.2067010500666347 0
1 8 0 3
54
55
56
0.2128873367200146 0.1493512881992989 0
0.2575177898387547 0.1366319794507032 0
0.3021482429574947 0.1239126707021074 0
2 2 0 14
57
58
59
60
61
62
63
64
65
66
67
68
69
70
0.2441040785991369 0.181612964291497 0
0.2377138334183088 0.2628498997715878 0
0.315906096395788 0.2638917616826492 0
0.3316226748139826 0.1880175334558137 0
0.2228437157677908 0.2195594369795998 0
0.270316839965307 0.2284044339330568 0
0.2906950120212188 0.1758410123864647 0
0.2743884384118777 0.2829985385134377 0
0.3443488399318671 0.2304890139151241 0
0.3105778926256327 0.2173287510746217 0
0.2102398230901406 0.1854311759545059 0
0.2424946976022687 0.2986094699339888 0
0.3591745935344344 0.2663230309026089 0
0.3234181170696235 0.1531763014423778 0
2 3 0 152
71
72
73
74
75
76
77
78
79
80
81
82
83
84
85
86
87
88
89
90
91
92
93
94
95
96
97
98
99
100
101
102
103
104
105
106
107
108
109
110
111
112
113
114
115
116
117
118
119
120
121
122
123
124
125
126
127
128
129
130
131
132
133
134
135
136
137
138
139
140
141
142
143
144
145
146
147
148
149
150
151
152
153
154
155
156
157
158
159
160
161
162
163
164
165
166
167
168
169
170
171
172
173
174
175
176
177
178
179
180
181
182
183
184
185
186
187
188
189
190
191
192
193
194
195
196
197
198
199
200
201
202
203
204
205
206
207
208
209
210
211
212
213
214
215
216
217
218
219
220
221
222
0.3860803399175289 0.3360714143787872 0
0.2548446611687323 0.375471280367532 0
0.4331509295182254 0.3229798649321017 0
0.421205185755899 0.3719521892387606 0
0.4721587806235276 0.3578970923761982 0
0.4591611778511438 0.4116423998517451 0
0.515301628900075 0.3961443025121659 0
0.5009172119597654 0.4549904579886395 0
0.4405633802493288 0.4700156790286372 0
0.484558446714579 0.5175358984466125 0
0.4150513036619696 0.5324689012709273 0
0.5484507701614795 0.4993505645562095 0
0.5328426515957976 0.567854030657958 0
0.5281095901435771 0.3369889563919612 0
0.4216267728964513 0.2151485147452618 0
0.6035843740314597 0.546512852963878 0
0.9026546792011836 0.245285285303369 0
0.7430992520258948 0.9143417044589042 0
0.3477251786528521 0.9142876904247563 0
0.09322437335067446 0.6467517824503644 0
0.5852978303207299 0.6207017112592642 0
0.511633104173648 0.6402042751535423 0
0.6598881662612001 0.6000049971487859 0
0.6780442607519698 0.5217069925044999 0
0.5660650034317662 0.6970082403845461 0
0.6560673131364536 0.07670226527133717 0
0.1969299446249575 0.3885741510142828 0
0.2447043563854898 0.4305542535688642 0
0.736530558363386 0.5773109458118336 0
0.7552547609373075 0.4964744737435023 0
0.7284351883766798 0.6636905997959177 0
0.696855916991283 0.4414971880856496 0
0.4879178708587805 0.7165399499271067 0
0.1765185381864619 0.4462119377428904 0
0.2315449646524628 0.4943161039767822 0
0.3956212036829231 0.1188292749197861 0
0.545109329764089 0.7771248558905184 0
0.1642182662869793 0.3453865934745947 0
0.7719021819765591 0.4142820092664781 0
0.7145313777861356 0.3564231990047501 0
0.3672816909988402 0.3863448567174458 0
0.9133659680423116 0.7469071379044316 0
0.1451917562208679 0.2349389998963425 0
0.1519620335417677 0.9055305080245031 0
0.3027416658612476 0.4747779094543327 0
0.285886502695784 0.5423612908208491 0
0.8183478593872061 0.5536755530004661 0
0.4336092801439807 0.658615994539021 0
0.408159803589815 0.736147879969122 0
0.352416319975367 0.6771535175216188 0
0.3264087376658799 0.7563271413243993 0
0.2676217059127388 0.6942264404619111 0
0.1623070042554587 0.5144201364306202 0
0.8513726296970004 0.08318322643451759 0
0.6224176703897466 0.7542356843135226 0
0.5674588090121448 0.374098686791149 0
0.5900850581401793 0.3137196155993203 0
0.5370097692599365 0.2699853957456694 0
0.6030059463290112 0.2415521229628847 0
0.5459020837179719 0.1946968759471628 0
0.2402125524339515 0.7748745833379471 0
0.6015607977816702 0.8410991062332658 0
0.787367801237904 0.3303502566215457 0
0.730304484264084 0.2708207610999283 0
0.1847610220332911 0.1100656891274562 0
0.128779616739893 0.1282359878691223 0
0.9182294387485888 0.4419823595008784 0
0.5260289637957644 0.8505810830755074 0
0.4319974083586031 0.2677331738178239 0
0.1183621489539063 0.4625231116492857 0
0.2658850423745527 0.09826283519412216 0
0.6915463634477577 0.8151782108742849 0
0.1291125573798536 0.1852966749849889 0
0.1739293936833586 0.7141162016557308 0
0.1998071876817429 0.6368497647925204 0
0.1529835575404337 0.7999978264602691 0
0.08291919426598826 0.2397220132585496 0
0.08226053142149814 0.3339948031900898 0
0.8070589318647123 0.2503718617709687 0
0.7449892413118547 0.1888973666214421 0
0.4753578631938405 0.2244596198354583 0
0.4967477862736128 0.1529821468737733 0
0.5516911405291064 0.1265683873226971 0
0.38222234489911 0.8262736104124919 0
0.9207132835851248 0.3460700497650001 0
0.7516612249330753 0.09429645292044259 0
0.3723911066125445 0.4821198772176027 0
0.6142627692308871 0.1521291747054431 0
0.9151308741521129 0.546997637962498 0
0.91953592405588 0.6497867084700728 0
0.8293301276334171 0.6952955231116977 0
0.835402538134951 0.7975753593280506 0
0.9164764632620948 0.8466041120844044 0
0.1474397872007757 0.2902850858811188 0
0.2522849490079181 0.9176180335028723 0
0.08185936369811525 0.5340887775260287 0
0.3865336223997662 0.6016832111710545 0
0.3080450972215315 0.4011397411712419 0
0.6217275892436578 0.4723340091426325 0
0.7561256990665697 0.7554367398626287 0
0.4564988905797202 0.9012769389506343 0
0.3381028409310989 0.3494258839067212 0
0.6517692055206648 0.9154407322062408 0
0.9165816285599442 0.1511004128963156 0
0.8406629070934031 0.9026938835354978 0
0.2946304391737795 0.3538127596090835 0
0.4651069268416487 0.7957708170706953 0
0.2967839642718895 0.6105131508614199 0
0.6398480309651089 0.6745522181627122 0
0.2934836277651472 0.8395080320660883 0
0.08232520427389362 0.7469007682303117 0
0.4391614548056736 0.06482764766342297 0
0.4607047347816235 0.5863937185398526 0
0.1521995077436744 0.05894226982313744 0
0.07659417522760403 0.8476060476387084 0
0.8375165681607635 0.4734293395589759 0
0.4014208848246948 0.4258825156544841 0
0.4055582931581537 0.1670012043885514 0
0.3803416525115321 0.0727981580565209 0
0.06615655551463889 0.1426180448005557 0
0.5577999108154185 0.4366724496801039 0
0.1260374435696977 0.3975074686450971 0
0.1451393358772245 0.584746419014308 0
0.6292993241170642 0.3831920464985769 0
0.8290530559279616 0.1688557676578426 0
0.479630723516285 0.2966740171832021 0
0.2306349652473202 0.1083677760006096 0
0.313448225022003 0.07890191014457082 0
0.8469060972184101 0.3865183805867172 0
0.3503760891037717 0.4340529800430215 0
0.6566401901769188 0.2967403204319983 0
0.6726149504250385 0.2147341774265293 0
0.7955670251079534 0.6282452844346724 0
0.06753277241887334 0.06782485391077886 0
0.5696106862119357 0.9209947954544702 0
0.3499829414184362 0.5421720495498251 0
0.2205037738387176 0.5613996249354174 0
0.767582629419479 0.8374862446500464 0
0.4504889603464494 0.1245474959965512 0
0.8556229766871265 0.3055347566490877 0
0.9241151940545878 0.9226945470824526 0
0.2181853440578437 0.8475057966783359 0
0.686838551296526 0.1461621804656884 0
0.926794919243112 0.07320508075688781 0
0.07253830254993415 0.9274616974500661 0
0.5172594702952463 0.06789301434404071 0
0.6876745904491726 0.7326186906018133 0
0.2337317486468776 0.05640834634558001 0
0.5878561386383386 0.08465856832870355 0
0.4493091658180686 0.1777329087516837 0
0.8564212296100648 0.6124892837517303 0
0.06037666525810365 0.4295832344046505 0
$EndNodes
$Elements
6 442 1 442
1 1 1 10
1 1 9 
2 9 10 
3 10 11 
4 11 12 
5 12 13 
6 13 14 
7 14 15 
8 15 16 
9 16 17 
10 17 2 
1 2 1 10
11 3 18 
12 18 19 
13 19 20 
14 20 21 
15 21 22 
16 22 23 
17 23 24 
18 24 25 
19 25 26 
20 26 1 
1 3 1 10
21 2 27 
22 27 28 
23 28 29 
24 29 30 
25 30 31 
26 31 32 
27 32 33 
28 33 34 
29 34 35 
30 35 4 
1 4 1 10
31 4 36 
32 36 37 
33 37 38 
34 38 39 
35 39 40 
36 40 41 
37 41 42 
38 42 43 
39 43 44 
40 44 3 
2 2 2 42
41 59 64 62 
42 57 63 62 
43 62 66 59 
44 63 66 62 
45 62 64 58 
46 57 62 61 
47 60 66 63 
48 52 58 51 
49 55 57 54 
50 49 59 48 
51 46 60 45 
52 59 66 65 
53 47 65 46 
54 53 61 52 
55 56 63 55 
56 50 64 49 
57 61 62 58 
58 52 61 58 
59 46 65 60 
60 55 63 57 
61 49 64 59 
62 48 69 6 
63 51 68 7 
64 6 69 47 
65 54 67 8 
66 45 70 5 
67 7 68 50 
68 8 67 53 
69 5 70 56 
70 47 69 65 
71 53 67 61 
72 50 68 64 
73 56 70 63 
74 60 70 45 
75 57 67 54 
76 59 69 48 
77 58 68 51 
78 61 67 57 
79 64 68 58 
80 63 70 60 
81 65 69 59 
82 65 66 60 
2 3 2 360
83 90 145 144 
84 104 192 97 
85 168 172 111 
86 90 193 145 
87 154 177 171 
88 135 218 197 
89 189 198 11 
90 126 194 191 
91 138 205 171 
92 168 176 172 
93 128 196 151 
94 171 205 40 
95 209 216 152 
96 85 139 47 
97 141 218 198 
98 191 194 169 
99 149 195 87 
100 127 201 194 
101 161 170 101 
102 101 203 161 
103 113 164 147 
104 171 177 138 
105 47 139 6 
106 175 208 162 
107 87 195 174 
108 21 166 90 
109 182 216 209 
110 166 222 140 
111 88 173 142 
112 184 218 135 
113 147 164 148 
114 163 175 162 
115 147 190 143 
116 7 108 51 
117 53 143 8 
118 154 171 89 
119 194 201 110 
120 147 148 24 
121 192 222 148 
122 51 164 52 
123 166 193 90 
124 111 200 168 
125 127 194 126 
126 144 181 90 
127 117 186 159 
128 128 151 130 
129 25 147 24 
130 113 143 53 
131 148 222 23 
132 157 206 115 
133 148 164 108 
134 145 207 178 
135 167 183 118 
136 85 151 139 
137 24 148 23 
138 22 222 166 
139 12 189 11 
140 25 190 147 
141 81 183 167 
142 178 207 116 
143 159 186 137 
144 153 219 158 
145 112 161 160 
146 142 208 88 
147 156 195 150 
148 151 152 130 
149 112 160 33 
150 108 164 51 
151 145 178 122 
152 142 173 132 
153 140 192 104 
154 15 156 96 
155 114 185 146 
156 182 209 106 
157 137 155 30 
158 22 166 21 
159 35 163 34 
160 115 206 116 
161 152 216 153 
162 106 189 182 
163 52 164 113 
164 82 169 86 
165 42 165 89 
166 15 96 14 
167 88 208 175 
168 108 192 148 
169 181 185 19 
170 29 155 87 
171 124 195 156 
172 112 162 161 
173 33 160 32 
174 32 160 159 
175 29 87 28 
176 21 90 20 
177 124 156 16 
178 198 218 11 
179 158 219 96 
180 146 212 114 
181 31 137 30 
182 14 219 216 
183 42 89 41 
184 34 163 112 
185 38 88 37 
186 146 185 181 
187 16 156 15 
188 31 159 137 
189 34 112 33 
190 144 145 122 
191 30 155 29 
192 114 165 43 
193 116 206 178 
194 86 169 94 
195 43 165 42 
196 157 187 79 
197 162 170 161 
198 17 124 16 
199 146 181 144 
200 178 206 167 
201 32 159 31 
202 94 102 100 
203 118 183 92 
204 84 196 128 
205 94 169 102 
206 44 114 43 
207 169 194 102 
208 102 110 109 
209 89 180 154 
210 41 171 40 
211 40 205 39 
212 120 167 118 
213 39 173 38 
214 89 171 41 
215 87 174 28 
216 103 118 92 
217 112 163 162 
218 165 180 89 
219 37 175 36 
220 137 199 155 
221 110 134 133 
222 28 174 27 
223 119 120 118 
224 88 175 37 
225 102 109 100 
226 98 168 115 
227 87 210 149 
228 38 173 88 
229 110 201 134 
230 84 128 127 
231 10 184 9 
232 128 130 129 
233 20 181 19 
234 36 211 4 
235 81 157 79 
236 14 216 13 
237 110 133 109 
238 150 213 156 
239 4 211 35 
240 134 150 149 
241 121 122 120 
242 103 119 118 
243 6 71 48 
244 82 191 169 
245 125 142 132 
246 131 144 122 
247 134 149 133 
248 115 200 157 
249 119 121 120 
250 98 115 105 
251 91 92 83 
252 132 138 107 
253 90 181 20 
254 86 94 93 
255 94 100 99 
256 122 178 120 
257 157 200 187 
258 119 154 121 
259 95 125 107 
260 131 146 144 
261 99 101 93 
262 121 131 122 
263 95 103 92 
264 100 117 99 
265 95 107 103 
266 48 172 49 
267 94 99 93 
268 91 95 92 
269 5 198 189 
270 125 132 107 
271 72 168 98 
272 86 91 83 
273 170 208 142 
274 136 204 184 
275 86 93 91 
276 156 213 96 
277 113 147 143 
278 78 82 80 
279 10 218 184 
280 13 182 12 
281 130 158 129 
282 26 190 25 
283 78 79 76 
284 103 177 119 
285 82 86 83 
286 6 73 71 
287 138 177 107 
288 167 206 81 
289 161 221 160 
290 152 153 130 
291 128 129 127 
292 2 214 17 
293 27 214 2 
294 190 204 136 
295 115 116 105 
296 80 81 79 
297 119 177 154 
298 49 176 50 
299 82 83 80 
300 120 178 167 
301 107 177 103 
302 162 208 170 
303 78 80 79 
304 74 111 71 
305 3 215 44 
306 18 215 3 
307 19 185 18 
308 142 217 170 
309 77 78 76 
310 95 179 125 
311 92 183 83 
312 101 179 93 
313 154 180 121 
314 125 217 142 
315 73 74 71 
316 100 186 117 
317 91 179 95 
318 75 76 74 
319 121 180 131 
320 73 75 74 
321 93 179 91 
322 71 172 48 
323 75 77 76 
324 109 186 100 
325 123 207 193 
326 123 140 104 
327 174 195 124 
328 50 72 7 
329 9 204 1 
330 102 194 110 
331 1 204 26 
332 173 205 132 
333 186 199 137 
334 35 211 163 
335 6 139 73 
336 83 183 80 
337 168 200 115 
338 81 206 157 
339 151 220 152 
340 153 158 130 
341 80 183 81 
342 75 84 77 
343 84 127 126 
344 99 203 101 
345 46 85 47 
346 134 202 150 
347 123 166 140 
348 132 205 138 
349 187 200 111 
350 72 176 168 
351 105 123 104 
352 52 113 53 
353 45 188 46 
354 114 212 165 
355 84 126 77 
356 158 202 129 
357 150 195 149 
358 172 176 49 
359 96 219 14 
360 39 205 173 
361 79 187 76 
362 11 218 10 
363 111 172 71 
364 159 221 117 
365 5 106 45 
366 78 191 82 
367 133 199 109 
368 109 199 186 
369 182 189 12 
370 23 222 22 
371 98 105 104 
372 203 221 161 
373 155 210 87 
374 117 203 99 
375 76 187 74 
376 165 212 180 
377 77 191 78 
378 170 217 101 
379 160 221 159 
380 123 193 166 
381 74 187 111 
382 193 207 145 
383 105 207 123 
384 129 201 127 
385 180 212 131 
386 8 135 54 
387 50 176 72 
388 126 191 77 
389 8 143 136 
390 97 108 7 
391 72 97 7 
392 201 202 134 
393 72 98 97 
394 98 104 97 
395 174 214 27 
396 175 211 36 
397 129 202 201 
398 54 197 55 
399 116 207 105 
400 75 196 84 
401 17 214 124 
402 55 141 56 
403 133 210 199 
404 56 198 5 
405 85 220 151 
406 44 215 114 
407 73 196 75 
408 124 214 174 
409 149 210 133 
410 114 215 185 
411 163 211 175 
412 131 212 146 
413 46 188 85 
414 8 136 135 
415 139 196 73 
416 96 213 158 
417 199 210 155 
418 106 188 45 
419 143 190 136 
420 184 204 9 
421 136 184 135 
422 158 213 202 
423 101 217 179 
424 5 189 106 
425 185 215 18 
426 179 217 125 
427 26 204 190 
428 13 216 182 
429 106 209 188 
430 135 197 54 
431 202 213 150 
432 55 197 141 
433 141 198 56 
434 117 221 203 
435 197 218 141 
436 188 220 85 
437 216 219 153 
438 209 220 188 
439 140 222 192 
440 152 220 209 
441 97 192 108 
442 151 196 139 
$EndElements
