$MeshFormat
4.1 0 8
$EndMeshFormat
$PhysicalNames
3
1 101 "outer_boundary"
2 1 "material_1"
2 2 "material_2"
$EndPhysicalNames
$Entities
5 5 2 0
1 0 0 0 0 
2 1 0 0 0 
3 0 1 0 0 
4 1 1 0 0 
5 0.5927720105525691 0.2754780443400364 0 0 
1 -9.999999994736442e-08 -1e-07 -1e-07 1.0000001 1e-07 1e-07 1 101 2 1 -2 
2 -1e-07 -9.999999994736442e-08 -1e-07 1e-07 1.0000001 1e-07 1 101 2 3 -1 
3 0.9999999000000001 -9.999999994736442e-08 -1e-07 1.0000001 1.0000001 1e-07 1 101 2 2 -4 
4 -9.999999994736442e-08 0.9999999000000001 -1e-07 1.0000001 1.0000001 1e-07 1 101 2 4 -3 
5 0.2357586269302934 0.09697130252889852 -1e-07 0.5927721105525691 0.4539847861511742 1e-07 0 2 5 -5 
2 0.2357586269302934 0.09697130252889852 -1e-07 0.5927721105525691 0.4539847861511742 1e-07 1 2 1 5 
3 -9.999999994736442e-08 -9.999999994736442e-08 -1e-07 1.0000001 1.0000001 1e-07 1 1 5 1 3 4 2 -5 
$EndEntities
$Nodes
12 243 1 243
0 1 0 1
1
0 0 0
0 2 0 1
2
1 0 0
0 3 0 1
3
0 1 0
0 4 0 1
4
1 1 0
0 5 0 1
5
0.5927720105525691 0.2754780443400364 0
1 1 0 9
6
7
8
9
10
11
12
13
14
0.09999999999999996 0 0
0.1999999999999999 0 0
0.3000000000000001 0 0
0.4000000000000004 0 0
0.5000000000000003 0 0
0.5999999999999999 0 0
0.6999999999999995 0 0
0.7999999999999992 0 0
0.899999999999999 0 0
1 2 0 9
15
16
17
18
19
20
21
22
23
0 0.9 0
0 0.8 0
0 0.7 0
0 0.5999999999999996 0
0 0.4999999999999997 0
0 0.4000000000000001 0
0 0.3000000000000005 0
0 0.2000000000000008 0
0 0.100000000000001 0
1 3 0 9
24
25
26
27
28
29
30
31
32
1 0.09999999999999996 0
1 0.1999999999999999 0
1 0.3000000000000001 0
1 0.4000000000000004 0
1 0.5000000000000003 0
1 0.5999999999999999 0
1 0.6999999999999995 0
1 0.7999999999999992 0
1 0.899999999999999 0
1 4 0 9
33
34
35
36
37
38
39
40
41
0.9 1 0
0.8 1 0
0.7 1 0
0.5999999999999996 1 0
0.4999999999999997 1 0
0.4000000000000001 1 0
0.3000000000000005 1 0
0.2000000000000008 1 0
0.100000000000001 1 0
1 5 0 20
42
43
44
45
46
47
48
49
50
51
52
53
54
55
56
57
58
59
60
61
0.5848414613083619 0.3280938006805831 0
0.5617544776787302 0.3760344161698286 0
0.5255624394747257 0.4150401567376277 0
0.4794811681169177 0.4416451911606584 0
0.4276051867897761 0.4534855453761638 0
0.3745439040882118 0.4495091519515576 0
0.3250120478358625 0.4300693308927312 0
0.2834107408277205 0.396893395611011 0
0.2534364417557879 0.3529291735463719 0
0.2377524986326509 0.3020830787630675 0
0.2377524986326507 0.2488730099170061 0
0.2534364417557875 0.1980269151337018 0
0.2834107408277199 0.1540626930690624 0
0.3250120478358617 0.1208867577873419 0
0.3745439040882106 0.1014469367285153 0
0.4276051867897747 0.09747054330390881 0
0.4794811681169164 0.1093108975194138 0
0.5255624394747249 0.1359159319424444 0
0.5617544776787299 0.1749216725102436 0
0.5848414613083618 0.2228622879994894 0
2 2 0 40
62
63
64
65
66
67
68
69
70
71
72
73
74
75
76
77
78
79
80
81
82
83
84
85
86
87
88
89
90
91
92
93
94
95
96
97
98
99
100
101
0.5282529043455345 0.3301665155445737 0
0.2824756525657385 0.2341754543803079 0
0.4422088608540068 0.1447739703349822 0
0.3633600520452814 0.3983284521313863 0
0.5317801786067973 0.2188858945748832 0
0.2829100766650255 0.3100574928224425 0
0.3386243695755271 0.1745167771313259 0
0.4469688257487156 0.3976631295901413 0
0.55581770013688 0.2541424632738213 0
0.5118821363391284 0.269834056044968 0
0.4797665342322023 0.2198127969089926 0
0.45381893958452 0.2645986602643458 0
0.4263118057438451 0.2209046929241425 0
0.3997064572053801 0.2639903338512272 0
0.4249469176567842 0.308639970088969 0
0.3748484956294738 0.3080489904647571 0
0.3526731298570884 0.2634421188072633 0
0.4749728432566294 0.3143069953292524 0
0.4841417530146198 0.3618558072841866 0
0.3731780070779646 0.2175283233967588 0
0.4014465382578868 0.3618256729661264 0
0.3993713622938586 0.1737691218824504 0
0.3484631823532737 0.3519578018945885 0
0.5056637631510242 0.1808464300375148 0
0.4446500629045587 0.349762320351626 0
0.3679359979735474 0.1417403499655545 0
0.3261794234697225 0.2233913981775078 0
0.3240445077459946 0.3858855117156341 0
0.270539191913828 0.2743863484108817 0
0.4032824014573176 0.4160181216210484 0
0.5550288018508907 0.2930488758137836 0
0.3272121017351042 0.3100863863453202 0
0.3009850746250514 0.3525038330983713 0
0.2968253256388991 0.1968346475783812 0
0.4038617579903904 0.1319895841098557 0
0.4887042625028147 0.4014634088908008 0
0.4535136746968707 0.1856690518177071 0
0.4821602715831865 0.1491378006139972 0
0.5210974507729056 0.3765994747651671 0
0.3085125153389607 0.270917905009237 0
2 3 0 142
102
103
104
105
106
107
108
109
110
111
112
113
114
115
116
117
118
119
120
121
122
123
124
125
126
127
128
129
130
131
132
133
134
135
136
137
138
139
140
141
142
143
144
145
146
147
148
149
150
151
152
153
154
155
156
157
158
159
160
161
162
163
164
165
166
167
168
169
170
171
172
173
174
175
176
177
178
179
180
181
182
183
184
185
186
187
188
189
190
191
192
193
194
195
196
197
198
199
200
201
202
203
204
205
206
207
208
209
210
211
212
213
214
215
216
217
218
219
220
221
222
223
224
225
226
227
228
229
230
231
232
233
234
235
236
237
238
239
240
241
242
243
0.5278769941136119 0.4648027743741193 0
0.4010757601483012 0.4962807769496734 0
0.6161485173957313 0.3803563212966763 0
0.6499999999999997 0.9133974596215562 0
0.9119410976078077 0.6617674407963335 0
0.6321326538285883 0.2426036778985524 0
0.450395636113274 0.9091708360090343 0
0.2754801915835134 0.4495091519515577 0
0.2500000000000007 0.9133974596215564 0
0.09082434448362647 0.6624543634988178 0
0.9203620607308953 0.4509401160352667 0
0.9205061758170876 0.2543325826884521 0
0.2027890299294665 0.3407004864436649 0
0.1985743558457388 0.2133981393864314 0
0.7579056452166972 0.08077499147392142 0
0.9120217296846225 0.8418187406868678 0
0.07644052732979778 0.4620304843856487 0
0.0741493961518882 0.8529317490960997 0
0.5779754961778742 0.1246282583165271 0
0.5728079735871285 0.4292956676181393 0
0.5838434438888896 0.4872965900446662 0
0.5384085982780351 0.5262289673067417 0
0.5987306306302735 0.5481203417348984 0
0.5470532825754186 0.5899035133283381 0
0.6141334329208754 0.6139117910250897 0
0.6476688510909566 0.5063163852712806 0
0.5610542620307967 0.658508440960049 0
0.4961127125794998 0.6292409161650591 0
0.6296524353314117 0.6840522094796166 0
0.6857443019053987 0.6343829799709205 0
0.7035656319030901 0.7096138604003772 0
0.5739369231969643 0.7295151810984984 0
0.7617750548978532 0.6553508343815542 0
0.7331993298341547 0.5811478621417723 0
0.7816641031335845 0.7355660817157306 0
0.3385061988157748 0.4919758895970583 0
0.278766254845556 0.5157397454943022 0
0.3291470989663104 0.5598103395201242 0
0.2673602777743342 0.5797834433148534 0
0.3227534774818814 0.6280801659966164 0
0.2545209589229101 0.6537000385078997 0
0.313141699783858 0.7043188138904617 0
0.2349823183606312 0.731543596972472 0
0.2122943352968139 0.5349726636289732 0
0.1466298576630712 0.08607337045717639 0
0.6343733175607111 0.3086539796217567 0
0.6748750264501224 0.3521183725060951 0
0.6900280319009456 0.2697751049718589 0
0.7363139109233141 0.3231568510715485 0
0.7294758849513134 0.3912239589655804 0
0.7644501003600505 0.2488633658664856 0
0.7942312707183719 0.3611350637777746 0
0.7818945317723091 0.4390407480160233 0
0.6124951345226163 0.1799180496987685 0
0.6728671785197795 0.1956095039220926 0
0.2300751811809731 0.4001533419649961 0
0.2163844802503812 0.1552536044143387 0
0.1931569844388861 0.2758482847690321 0
0.1399873614826491 0.2417928182690984 0
0.146600649086257 0.3170394910049427 0
0.3000786469890382 0.7830016321592941 0
0.3785088810066019 0.7551207660099813 0
0.7184367904274575 0.7861944654462442 0
0.3909006560144975 0.600403780449891 0
0.2705110187276886 0.1054641117223189 0
0.4653176996989583 0.4934755108377452 0
0.5361589841595901 0.07050769983055705 0
0.6476736315657278 0.1308806414364116 0
0.6712442041806754 0.4073199331539275 0
0.7028883234765773 0.4610044680197483 0
0.1681776991736635 0.3879257800529201 0
0.3642442726560669 0.8382780527662076 0
0.447386609256519 0.8087699771056092 0
0.5129756917434668 0.8450496509552377 0
0.4814811908773682 0.5587946089618867 0
0.8211597206165968 0.5960803946335528 0
0.798578049842009 0.8297395374849683 0
0.4468478674114096 0.7273356312324529 0
0.07708817765120679 0.5546363696568386 0
0.2191700777381867 0.8258900989403452 0
0.1546315663513091 0.7483772160252482 0
0.8649824924262334 0.752251369584875 0
0.1929847969781381 0.4544423142752713 0
0.9243174203923253 0.3510827344010872 0
0.9150370558985685 0.549971763430805 0
0.8500501717087239 0.08173602703761196 0
0.7987393504166388 0.1647553431218879 0
0.8431485416431328 0.4911263603250059 0
0.1428984990480612 0.1707971390676096 0
0.1516856518320841 0.589622781275092 0
0.7520238621710557 0.9189739141078509 0
0.90551352113336 0.1578400607631035 0
0.0940033411304656 0.3727555185830703 0
0.3825550462984165 0.6788580633438811 0
0.8467260766743561 0.9181407547879947 0
0.07963503013700013 0.2756283726907053 0
0.1523473171207055 0.9062258751802494 0
0.8546445332284163 0.3160006258176153 0
0.07967436755744906 0.1269677636096391 0
0.1836811255899878 0.6652687704138356 0
0.6452419162441956 0.7583691739321143 0
0.331433864468332 0.06046965078957794 0
0.6643822852391854 0.5685803643323197 0
0.346497862224066 0.9228011831488528 0
0.8283044937364151 0.6802032242224092 0
0.5885663794876783 0.8258545293075574 0
0.8530997264142417 0.4015542747287955 0
0.07614057148907721 0.2012971382689732 0
0.1376701737488968 0.5030735211237808 0
0.7639757846806107 0.5120691836878569 0
0.5097833218751983 0.7719505028529718 0
0.4568103688456507 0.05510141032100457 0
0.715115989090642 0.1410893170814633 0
0.8388141069244137 0.2407457751083694 0
0.214498270401431 0.08691136538188982 0
0.5557907768576473 0.9181656450452238 0
0.07268244027417509 0.757511073807891 0
0.4277792591737415 0.5499454256183799 0
0.6297186230053173 0.4474777253066213 0
0.6607550699910796 0.8343920298942504 0
0.4478903029474715 0.5992547907358201 0
0.7026835548119782 0.5244454669260008 0
0.6094004741620841 0.07845994502158432 0
0.3805155316473111 0.5433627736681891 0
0.2398813946760053 0.4886659688375261 0
0.5051521305310198 0.6957399824654857 0
0.9275432689679535 0.07603351837591199 0
0.7952165490480608 0.2993238609181624 0
0.6783005672908832 0.06913228724779535 0
0.2959981719214717 0.8566736853272512 0
0.9267949192431122 0.926794919243112 0
0.07320508075688781 0.9267949192431124 0
0.9425927582197703 0.7499999999999993 0
0.3980786648383937 0.0628977082286013 0
0.2523532066189401 0.04217042801672177 0
0.06093909725196101 0.05997239964600609 0
0.7282401300576113 0.2040185269927577 0
0.4440614154144283 0.6564859766921565 0
0.213908469883226 0.6046695394281307 0
0.1420951827129119 0.8213119520388643 0
0.1385888288210155 0.4398452709310172 0
0.7194028833060001 0.8562145058126309 0
$EndNodes
$Elements
6 484 1 484
1 1 1 10
1 1 6 
2 6 7 
3 7 8 
4 8 9 
5 9 10 
6 10 11 
7 11 12 
8 12 13 
9 13 14 
10 14 2 
1 2 1 10
11 3 15 
12 15 16 
13 16 17 
14 17 18 
15 18 19 
16 19 20 
17 20 21 
18 21 22 
19 22 23 
20 23 1 
1 3 1 10
21 2 24 
22 24 25 
23 25 26 
24 26 27 
25 27 28 
26 28 29 
27 29 30 
28 30 31 
29 31 32 
30 32 4 
1 4 1 10
31 4 33 
32 33 34 
33 34 35 
34 35 36 
35 36 37 
36 37 38 
37 38 39 
38 39 40 
39 40 41 
40 41 3 
2 2 2 99
41 62 79 71 
42 71 92 62 
43 68 83 81 
44 69 91 82 
45 84 94 93 
46 68 87 83 
47 82 86 69 
48 93 94 67 
49 82 91 65 
50 62 80 79 
51 70 92 71 
52 73 79 76 
53 69 86 80 
54 75 81 74 
55 55 68 54 
56 46 69 45 
57 61 66 60 
58 48 65 47 
59 58 64 57 
60 51 67 50 
61 53 63 52 
62 43 62 42 
63 78 81 75 
64 77 78 75 
65 76 77 75 
66 73 76 75 
67 73 75 74 
68 76 82 77 
69 71 79 73 
70 73 74 72 
71 71 73 72 
72 60 85 59 
73 66 85 60 
74 71 72 66 
75 80 86 79 
76 81 83 74 
77 79 86 76 
78 81 88 68 
79 80 97 69 
80 78 101 88 
81 88 101 63 
82 89 94 84 
83 64 98 83 
84 83 98 74 
85 82 84 77 
86 65 84 82 
87 78 88 81 
88 72 85 66 
89 98 99 85 
90 55 87 68 
91 56 87 55 
92 72 98 85 
93 84 93 77 
94 70 71 66 
95 76 86 82 
96 49 89 48 
97 48 89 65 
98 62 100 80 
99 5 70 61 
100 61 70 66 
101 52 90 51 
102 51 90 67 
103 42 92 5 
104 65 91 47 
105 46 91 69 
106 63 90 52 
107 47 91 46 
108 62 92 42 
109 77 93 78 
110 50 94 49 
111 68 95 54 
112 53 95 63 
113 57 96 56 
114 69 97 45 
115 59 99 58 
116 43 100 62 
117 67 94 50 
118 54 95 53 
119 64 96 57 
120 45 97 44 
121 74 98 72 
122 58 99 64 
123 44 100 43 
124 83 96 64 
125 65 89 84 
126 85 99 59 
127 64 99 98 
128 56 96 87 
129 63 95 88 
130 88 95 68 
131 90 101 67 
132 67 101 93 
133 49 94 89 
134 5 92 70 
135 87 96 83 
136 97 100 44 
137 80 100 97 
138 63 101 90 
139 93 101 78 
2 3 2 345
140 48 137 109 
141 123 167 102 
142 152 238 188 
143 111 201 182 
144 207 221 105 
145 21 197 194 
146 105 217 207 
147 177 186 106 
148 188 215 152 
149 123 176 167 
150 104 220 121 
151 154 208 189 
152 137 138 109 
153 182 218 111 
154 193 215 188 
155 173 174 108 
156 21 194 20 
157 171 220 170 
158 127 220 171 
159 189 208 112 
160 187 193 188 
161 169 214 156 
162 191 210 145 
163 108 217 37 
164 109 184 157 
165 11 224 168 
166 169 230 214 
167 175 217 108 
168 135 211 177 
169 170 220 104 
170 147 149 148 
171 183 206 106 
172 215 229 152 
173 158 166 54 
174 118 180 19 
175 177 211 189 
176 158 190 146 
177 177 189 186 
178 110 198 181 
179 108 205 173 
180 11 168 10 
181 149 150 148 
182 207 217 175 
183 107 156 149 
184 129 176 125 
185 146 216 158 
186 174 175 108 
187 106 234 183 
188 178 183 117 
189 117 196 178 
190 199 208 153 
191 109 226 184 
192 194 197 161 
193 187 188 116 
194 198 241 181 
195 178 196 192 
196 112 185 27 
197 165 225 219 
198 141 195 143 
199 165 195 141 
200 13 187 116 
201 186 189 112 
202 106 186 29 
203 47 137 48 
204 118 210 180 
205 156 238 149 
206 125 176 123 
207 145 210 184 
208 180 210 191 
209 121 122 102 
210 7 146 6 
211 18 180 111 
212 185 208 199 
213 20 118 19 
214 114 172 161 
215 20 194 118 
216 219 222 165 
217 102 167 45 
218 44 121 102 
219 53 158 54 
220 22 209 197 
221 9 235 203 
222 155 169 156 
223 106 206 177 
224 46 167 103 
225 13 116 12 
226 22 197 21 
227 11 230 224 
228 104 121 43 
229 26 185 113 
230 180 191 111 
231 28 186 112 
232 147 148 104 
233 42 147 104 
234 18 111 17 
235 107 149 147 
236 107 147 5 
237 26 113 25 
238 28 112 27 
239 19 180 18 
240 163 179 174 
241 159 161 160 
242 184 226 145 
243 151 171 170 
244 30 106 29 
245 23 200 22 
246 172 194 161 
247 38 108 37 
248 14 187 13 
249 36 105 35 
250 113 215 193 
251 214 230 116 
252 182 241 218 
253 143 195 163 
254 105 192 35 
255 151 170 148 
256 112 208 185 
257 27 185 26 
258 7 216 146 
259 9 203 8 
260 113 193 25 
261 29 186 28 
262 200 209 22 
263 192 243 178 
264 218 241 119 
265 38 205 108 
266 191 201 111 
267 109 157 49 
268 161 197 160 
269 154 171 151 
270 111 218 17 
271 35 192 34 
272 61 155 107 
273 163 195 179 
274 12 230 11 
275 40 110 39 
276 32 117 31 
277 199 229 215 
278 154 211 171 
279 158 216 166 
280 25 193 24 
281 16 119 15 
282 34 196 33 
283 155 156 107 
284 50 157 114 
285 131 135 134 
286 183 234 117 
287 185 199 113 
288 137 139 138 
289 149 238 152 
290 129 222 176 
291 2 228 14 
292 189 211 154 
293 157 172 114 
294 163 174 173 
295 143 163 162 
296 192 196 34 
297 114 159 51 
298 165 239 195 
299 30 234 106 
300 110 205 39 
301 174 212 175 
302 139 165 141 
303 52 159 115 
304 128 129 125 
305 41 198 40 
306 167 219 103 
307 150 151 148 
308 222 239 165 
309 131 204 135 
310 149 152 150 
311 171 223 127 
312 24 228 2 
313 122 123 102 
314 168 224 120 
315 135 177 134 
316 103 225 137 
317 44 102 45 
318 114 161 159 
319 46 103 47 
320 37 217 36 
321 163 173 162 
322 159 160 115 
323 188 214 116 
324 16 218 119 
325 126 131 130 
326 40 198 110 
327 181 182 144 
328 190 200 146 
329 148 170 104 
330 136 183 178 
331 137 225 139 
332 136 164 132 
333 42 104 43 
334 10 213 9 
335 45 167 46 
336 43 121 44 
337 166 236 203 
338 131 134 132 
339 61 107 5 
340 120 169 155 
341 146 237 6 
342 117 234 31 
343 127 204 124 
344 175 212 207 
345 124 204 126 
346 181 231 110 
347 5 147 42 
348 143 162 144 
349 134 136 132 
350 136 178 164 
351 131 132 130 
352 48 109 49 
353 120 155 60 
354 130 133 128 
355 126 128 125 
356 126 130 128 
357 116 230 12 
358 141 143 142 
359 122 127 124 
360 162 181 144 
361 4 232 32 
362 33 232 4 
363 143 144 142 
364 3 233 41 
365 15 233 3 
366 182 201 144 
367 103 137 47 
368 153 154 151 
369 207 212 133 
370 124 126 125 
371 124 125 123 
372 176 219 167 
373 50 114 51 
374 157 184 172 
375 136 206 183 
376 145 240 191 
377 150 153 151 
378 122 124 123 
379 49 157 50 
380 52 115 53 
381 39 205 38 
382 177 206 134 
383 139 141 140 
384 164 202 132 
385 140 145 138 
386 139 140 138 
387 176 222 219 
388 115 190 158 
389 141 142 140 
390 126 204 131 
391 200 237 146 
392 179 212 174 
393 160 209 190 
394 144 201 142 
395 110 231 205 
396 51 159 52 
397 172 242 194 
398 132 202 130 
399 60 155 61 
400 130 202 133 
401 212 227 133 
402 134 206 136 
403 105 243 192 
404 188 238 214 
405 36 217 105 
406 190 209 200 
407 168 213 10 
408 160 190 115 
409 153 208 154 
410 204 223 135 
411 115 158 53 
412 59 120 60 
413 14 228 187 
414 202 207 133 
415 139 225 165 
416 59 168 120 
417 166 203 55 
418 133 227 128 
419 17 218 16 
420 196 232 33 
421 197 209 160 
422 205 231 173 
423 8 236 7 
424 54 166 55 
425 213 235 9 
426 138 226 109 
427 7 236 216 
428 162 231 181 
429 164 221 202 
430 201 240 142 
431 121 220 122 
432 55 203 56 
433 193 228 24 
434 202 221 207 
435 199 215 113 
436 153 229 199 
437 178 243 164 
438 191 240 201 
439 122 220 127 
440 179 227 212 
441 57 213 58 
442 41 233 198 
443 58 168 59 
444 194 242 118 
445 187 228 193 
446 58 213 168 
447 203 235 56 
448 119 241 198 
449 195 239 179 
450 32 232 117 
451 1 237 23 
452 6 237 1 
453 224 230 169 
454 31 234 30 
455 227 239 129 
456 127 223 204 
457 56 235 57 
458 119 233 15 
459 57 235 213 
460 179 239 227 
461 117 232 196 
462 203 236 8 
463 120 224 169 
464 221 243 105 
465 140 240 145 
466 128 227 129 
467 198 233 119 
468 211 223 171 
469 145 226 138 
470 135 223 211 
471 173 231 162 
472 210 242 184 
473 150 229 153 
474 152 229 150 
475 219 225 103 
476 142 240 140 
477 181 241 182 
478 214 238 156 
479 216 236 166 
480 118 242 210 
481 184 242 172 
482 23 237 200 
483 164 243 221 
484 129 239 222 
$EndElements
