$MeshFormat
4.1 0 8
$EndMeshFormat
$PhysicalNames
3
1 101 "outer_boundary"
2 1 "material_1"
2 2 "material_2"
$EndPhysicalNames
$Entities
7 7 2 0
1 0 0 0 0 
2 1 0 0 0 
3 0 1 0 0 
4 1 1 0 0 
5 0.3418008796166004 0.09330607015261197 0 0 
6 0.5682651394505893 0.1948387469706261 0 0 
7 0.3671031320949593 0.3401962106270933 0 0 
1 -9.999999994736442e-08 -1e-07 -1e-07 1.0000001 1e-07 1e-07 1 101 2 1 -2 
2 -1e-07 -9.999999994736442e-08 -1e-07 1e-07 1.0000001 1e-07 1 101 2 3 -1 
3 0.9999999000000001 -9.999999994736442e-08 -1e-07 1.0000001 1.0000001 1e-07 1 101 2 2 -4 
4 -9.999999994736442e-08 0.9999999000000001 -1e-07 1.0000001 1.0000001 1e-07 1 101 2 4 -3 
5 0.3418007796166004 0.09330597015261197 -1e-07 0.5682652394505893 0.1948388469706261 1e-07 0 2 5 -6 
6 0.3671030320949593 0.1948386469706261 -1e-07 0.5682652394505893 0.3401963106270933 1e-07 0 2 6 -7 
7 0.3418007796166004 0.09330597015261197 -1e-07 0.3671032320949593 0.3401963106270933 1e-07 0 2 7 -5 
2 0.3418007796166004 0.09330597015261197 -1e-07 0.5682652394505893 0.3401963106270933 1e-07 1 2 3 5 6 7 
3 -9.999999994736442e-08 -9.999999994736442e-08 -1e-07 1.0000001 1.0000001 1e-07 1 1 7 1 3 4 2 -5 -7 -6 
$EndEntities
$Nodes
16 216 1 216
0 1 0 1
1
0 0 0
0 2 0 1
2
1 0 0
0 3 0 1
3
0 1 0
0 4 0 1
4
1 1 0
0 5 0 1
5
0.3418008796166004 0.09330607015261197 0
0 6 0 1
6
0.5682651394505893 0.1948387469706261 0
0 7 0 1
7
0.3671031320949593 0.3401962106270933 0
1 1 0 9
8
9
10
11
12
13
14
15
16
0.09999999999999996 0 0
0.1999999999999999 0 0
0.3000000000000001 0 0
0.4000000000000004 0 0
0.5000000000000003 0 0
0.5999999999999999 0 0
0.6999999999999995 0 0
0.7999999999999992 0 0
0.899999999999999 0 0
1 2 0 9
17
18
19
20
21
22
23
24
25
0 0.9 0
0 0.8 0
0 0.7 0
0 0.5999999999999996 0
0 0.4999999999999997 0
0 0.4000000000000001 0
0 0.3000000000000005 0
0 0.2000000000000008 0
0 0.100000000000001 0
1 3 0 9
26
27
28
29
30
31
32
33
34
1 0.09999999999999996 0
1 0.1999999999999999 0
1 0.3000000000000001 0
1 0.4000000000000004 0
1 0.5000000000000003 0
1 0.5999999999999999 0
1 0.6999999999999995 0
1 0.7999999999999992 0
1 0.899999999999999 0
1 4 0 9
35
36
37
38
39
40
41
42
43
0.9 1 0
0.8 1 0
0.7 1 0
0.5999999999999996 1 0
0.4999999999999997 1 0
0.4000000000000001 1 0
0.3000000000000005 1 0
0.2000000000000008 1 0
0.100000000000001 1 0
1 5 0 4
44
45
46
47
0.3870937315833982 0.1136126055162148 0
0.4323865835501961 0.1339191408798177 0
0.4776794355169939 0.1542256762434205 0
0.5229722874837914 0.1745322116070233 0
1 6 0 4
48
49
50
51
0.5280327379794633 0.2239102397019195 0
0.4878003365083372 0.252981732433213 0
0.4475679350372112 0.2820532251645065 0
0.4073355335660853 0.3111247178957998 0
1 7 0 4
52
53
54
55
0.3620426815992875 0.290818182532197 0
0.3569822311036157 0.2414401544373006 0
0.3519217806079439 0.1920621263424044 0
0.3468613301122722 0.1426840982475083 0
2 2 0 6
56
57
58
59
60
61
0.4425074845415394 0.2326751970696102 0
0.39215418207907 0.162990633611111 0
0.4827398860126655 0.2036037043383167 0
0.4022750830704135 0.2617466898009036 0
0.4374470340458677 0.1832971689747139 0
0.3972146325747417 0.2123686617060072 0
2 3 0 155
62
63
64
65
66
67
68
69
70
71
72
73
74
75
76
77
78
79
80
81
82
83
84
85
86
87
88
89
90
91
92
93
94
95
96
97
98
99
100
101
102
103
104
105
106
107
108
109
110
111
112
113
114
115
116
117
118
119
120
121
122
123
124
125
126
127
128
129
130
131
132
133
134
135
136
137
138
139
140
141
142
143
144
145
146
147
148
149
150
151
152
153
154
155
156
157
158
159
160
161
162
163
164
165
166
167
168
169
170
171
172
173
174
175
176
177
178
179
180
181
182
183
184
185
186
187
188
189
190
191
192
193
194
195
196
197
198
199
200
201
202
203
204
205
206
207
208
209
210
211
212
213
214
215
216
0.4137908589341533 0.3612916126734015 0
0.5320281102743583 0.2733547212407745 0
0.372598483770188 0.3910502257583711 0
0.4207191690664952 0.4143692961104813 0
0.6484425656006603 0.9157698140485273 0
0.3760631102742019 0.4481349125691836 0
0.428680289300477 0.473244295792254 0
0.3766377759907716 0.509659637981152 0
0.916467863881783 0.5495144407109445 0
0.4360432451074183 0.5365395519061236 0
0.487837635443232 0.4967884255177808 0
0.3821982843264468 0.5831054617668373 0
0.4975387222001265 0.5639164826429774 0
0.9202783225165286 0.3391662618179601 0
0.3257579210363167 0.3063556329205281 0
0.5535829084124372 0.5199194334261736 0
0.3066289286411463 0.1717555909788016 0
0.5630413443311174 0.5921775470589064 0
0.247635521393024 0.9159216127631622 0
0.5039828571756655 0.6353856834515175 0
0.321053121546746 0.4816050303466803 0
0.6209773536901489 0.5472312459600875 0
0.6269488925689969 0.6271042569343509 0
0.6105997534797111 0.4736840498087666 0
0.9171590297258764 0.7455701478566227 0
0.08660254037844389 0.6499999999999997 0
0.7409970193558069 0.07976150166094831 0
0.4542712114198297 0.9155207951172492 0
0.6795498451496976 0.5011482452892125 0
0.6668951398197647 0.4298816302628181 0
0.09045519726277995 0.2567386890370952 0
0.4635668847717002 0.3801178720847612 0
0.0831906015110721 0.444803738737593 0
0.7417474627843119 0.4561624458446003 0
0.7207700203580699 0.3699950100981553 0
0.5983355501222561 0.406536589662394 0
0.743816964175487 0.5238435219534069 0
0.5633241167978752 0.138576955190065 0
0.6138837546275784 0.1634062439857105 0
0.6178025880815885 0.2210431681072621 0
0.6696976664938714 0.1881175706366588 0
0.6717109258278759 0.2515588993055131 0
0.7445076130361008 0.2092949887586907 0
0.9023941360549989 0.1505246580774017 0
0.1553717402415107 0.08026300254547714 0
0.09373978670863548 0.8417713135808134 0
0.8453955507554451 0.9194160060726807 0
0.6150225893446296 0.2829711497888746 0
0.8082884300811819 0.409013061543393 0
0.787868023525206 0.3261545379192325 0
0.2438651558305155 0.08360186521961321 0
0.2001278538018756 0.1537308119770359 0
0.472618985021322 0.1048476481485243 0
0.6690482015705168 0.1242544244402447 0
0.08367232948367798 0.346843379915512 0
0.1611574421107442 0.3948048994253845 0
0.1635756297116447 0.4837035502727456 0
0.2314200211799877 0.431491824057712 0
0.2330937745796144 0.3574296363373243 0
0.2483410657586917 0.5077806072825588 0
0.1753535436851774 0.5650425695455439 0
0.2494090142633901 0.5979388196093846 0
0.1649624287647754 0.3108136253733507 0
0.2328052806952675 0.2806703483364419 0
0.2818514056408798 0.3893427225143797 0
0.183184661163409 0.649500633814915 0
0.2595682838733312 0.6830350246244616 0
0.1910914537511761 0.7328446667880892 0
0.2702727678003634 0.7665893366421938 0
0.3383004748332977 0.7169745031923034 0
0.3475766223807766 0.8033762344484058 0
0.4121643253937571 0.7475428041754646 0
0.409288368335324 0.6629671455254882 0
0.1979399591173922 0.8283988459929774 0
0.5429694223222209 0.4520179598039434 0
0.5298220620344851 0.3821874786139161 0
0.904160498412623 0.4360970820982147 0
0.6616627937844908 0.3164110064807346 0
0.916620396408924 0.2449639339296331 0
0.8319795251995037 0.2093491762830027 0
0.5508364153307646 0.9163191979812226 0
0.5991195890567376 0.8341339256521515 0
0.6929043921757218 0.8331004302775311 0
0.6498475861519128 0.7596328985091244 0
0.7487751105755358 0.7485200513893068 0
0.5579728801060079 0.750543873549113 0
0.7982860773025025 0.8397944218764932 0
0.5116607213276003 0.8357113513761818 0
0.3509654284377856 0.90124841590508 0
0.3239088785964396 0.632579724168902 0
0.9161633573363505 0.649455624486092 0
0.8374659427180787 0.6061095510877051 0
0.8356032759800388 0.6961113285576579 0
0.7531067434531402 0.6503954888136722 0
0.07668237892243529 0.7447036800487785 0
0.8174799125680761 0.5101433422388955 0
0.08330929239868862 0.5442959271771404 0
0.8445786836197927 0.0740217596496443 0
0.1003953541075044 0.156280468503298 0
0.5948272382433979 0.3394282902667487 0
0.7454632622642081 0.9160167463745581 0
0.173118669487591 0.2282265059162136 0
0.2547783166889476 0.2087260007290605 0
0.2890280400062679 0.2675590904226003 0
0.4526283855328829 0.3314312532594026 0
0.4789325771564351 0.4331208879871895 0
0.1528916063498024 0.918075656418442 0
0.4921476486584714 0.3016295775505492 0
0.5722179716682749 0.2483890815223599 0
0.9040835784425982 0.844027514680208 0
0.3015684781454742 0.1223775628839052 0
0.4458102954289962 0.5963828650585888 0
0.6977336052237441 0.5901808468709484 0
0.537960276418516 0.07195244619189439 0
0.5679829338172289 0.6648992488421496 0
0.3169246900804142 0.5521115468592525 0
0.7291748432205385 0.2836135976483283 0
0.6074094870042058 0.1069339934656417 0
0.5168182448815526 0.1264926689217694 0
0.4273261330545243 0.08454111278492138 0
0.480740919631765 0.7029276044857182 0
0.4268684897605102 0.8285593695006798 0
0.3785887488139366 0.06707274197555424 0
0.6634909415861058 0.062189983913367 0
0.5359750505597856 0.3230549513018184 0
0.2581616987730319 0.1500372459357937 0
0.7255678070723697 0.1491059214649021 0
0.6873397079309669 0.6864886686673276 0
0.8462355483299487 0.2824765733024572 0
0.7972860270648405 0.1406393174026281 0
0.2828780598258683 0.8431068891503639 0
0.3047915026815499 0.06863788393603065 0
0.6484981484655958 0.3724505053541701 0
0.494828006311465 0.3436842265620895 0
0.8407814144053104 0.7748046928720578 0
0.7879531106622595 0.2621777747823423 0
0.2820055905548559 0.3274611804199261 0
0.3184646885967386 0.2220101391745731 0
0.4797932279180377 0.7715997478643646 0
0.3388870008582815 0.04439835545901288 0
0.9267949192431122 0.07320508075688753 0
0.07320508075688753 0.07320508075688781 0
0.07320508075688781 0.9267949192431124 0
0.9267949192431124 0.9267949192431122 0
0.8533661645730977 0.3585815033362515 0
0.3275008336899476 0.362602517565791 0
0.3330565692750703 0.4204627727513795 0
0.5713758803087102 0.2939333640169086 0
0.1360946647840371 0.7035750634298621 0
0.2831444366802751 0.4461365913905421 0
0.6268709271603647 0.6929632685081102 0
0.469131382992453 0.05035374812223492 0
0.1426185124366083 0.7784330725567195 0
0.3305763403084575 0.2673240219285398 0
0.7700610885692371 0.5801713336903765 0
$EndNodes
$Elements
6 430 1 430
1 1 1 10
1 1 8 
2 8 9 
3 9 10 
4 10 11 
5 11 12 
6 12 13 
7 13 14 
8 14 15 
9 15 16 
10 16 2 
1 2 1 10
11 3 17 
12 17 18 
13 18 19 
14 19 20 
15 20 21 
16 21 22 
17 22 23 
18 23 24 
19 24 25 
20 25 1 
1 3 1 10
21 2 26 
22 26 27 
23 27 28 
24 28 29 
25 29 30 
26 30 31 
27 31 32 
28 32 33 
29 33 34 
30 34 4 
1 4 1 10
31 4 35 
32 35 36 
33 36 37 
34 37 38 
35 38 39 
36 39 40 
37 40 41 
38 41 42 
39 42 43 
40 43 3 
2 2 2 25
41 6 48 47 
42 5 44 55 
43 7 52 51 
44 56 60 58 
45 46 60 45 
46 47 58 46 
47 58 60 46 
48 48 58 47 
49 52 59 51 
50 44 57 55 
51 45 60 57 
52 60 61 57 
53 45 57 44 
54 54 61 53 
55 56 61 60 
56 53 61 59 
57 59 61 56 
58 50 59 56 
59 55 57 54 
60 56 58 49 
61 57 61 54 
62 49 58 48 
63 53 59 52 
64 51 59 50 
65 50 56 49 
2 3 2 365
66 137 167 93 
67 138 157 110 
68 110 206 138 
69 25 160 24 
70 174 189 84 
71 148 196 171 
72 87 158 122 
73 147 182 176 
74 122 127 87 
75 148 171 108 
76 136 167 137 
77 155 189 174 
78 117 124 120 
79 139 161 109 
80 134 151 73 
81 141 197 104 
82 124 125 120 
83 25 203 160 
84 110 157 95 
85 157 216 98 
86 104 191 141 
87 176 182 81 
88 132 183 150 
89 134 173 81 
90 95 157 98 
91 139 194 161 
92 153 216 157 
93 146 155 154 
94 116 124 117 
95 116 117 94 
96 141 191 105 
97 10 193 112 
98 24 160 92 
99 165 215 76 
100 198 207 126 
101 139 178 96 
102 76 198 165 
103 115 185 88 
104 135 168 107 
105 78 199 164 
106 73 177 69 
107 81 182 134 
108 160 163 92 
109 150 183 89 
110 73 173 134 
111 188 191 104 
112 112 113 106 
113 92 163 124 
114 151 177 73 
115 76 207 198 
116 105 191 159 
117 154 196 146 
118 121 211 82 
119 13 179 175 
120 9 112 106 
121 175 180 114 
122 72 167 136 
123 153 157 70 
124 120 126 119 
125 10 112 9 
126 22 116 94 
127 92 124 116 
128 122 158 118 
129 80 168 135 
130 117 120 119 
131 138 206 75 
132 140 141 105 
133 131 151 134 
134 150 192 132 
135 118 158 94 
136 13 185 179 
137 69 177 82 
138 120 198 126 
139 72 136 77 
140 20 158 87 
141 117 119 118 
142 143 149 147 
143 96 178 111 
144 108 162 148 
145 107 214 135 
146 93 195 137 
147 117 118 94 
148 152 153 70 
149 88 188 115 
150 154 155 153 
151 70 138 30 
152 136 137 97 
153 119 211 121 
154 152 154 153 
155 113 163 160 
156 89 149 142 
157 27 140 105 
158 70 157 138 
159 15 88 14 
160 142 149 143 
161 92 116 23 
162 89 142 39 
163 40 150 89 
164 112 187 113 
165 77 136 85 
166 85 97 91 
167 82 177 121 
168 24 92 23 
169 31 152 70 
170 164 199 165 
171 85 136 97 
172 131 134 133 
173 99 180 175 
174 142 143 66 
175 29 138 75 
176 125 198 120 
177 36 162 108 
178 75 140 28 
179 143 147 145 
180 15 159 88 
181 18 156 107 
182 29 75 28 
183 86 154 152 
184 146 196 148 
185 22 94 21 
186 128 151 131 
187 176 212 147 
188 38 142 66 
189 80 150 41 
190 119 121 118 
191 96 194 139 
192 147 200 182 
193 137 161 97 
194 20 87 19 
195 143 145 144 
196 38 66 37 
197 86 152 32 
198 87 156 19 
199 164 165 125 
200 23 116 22 
201 42 80 41 
202 31 70 30 
203 123 177 151 
204 144 162 66 
205 75 190 140 
206 40 89 39 
207 114 213 175 
208 88 185 14 
209 27 105 26 
210 123 151 128 
211 33 86 32 
212 9 106 8 
213 94 158 21 
214 143 144 66 
215 30 138 29 
216 148 162 144 
217 28 140 27 
218 39 142 38 
219 41 150 40 
220 32 152 31 
221 124 163 125 
222 146 189 155 
223 145 146 144 
224 135 192 80 
225 128 131 130 
226 18 107 17 
227 19 156 18 
228 85 91 90 
229 21 158 20 
230 165 198 125 
231 163 164 125 
232 36 108 35 
233 174 216 155 
234 131 133 132 
235 77 85 83 
236 175 179 99 
237 66 162 37 
238 16 159 15 
239 121 123 122 
240 37 162 36 
241 123 128 127 
242 42 168 80 
243 147 212 145 
244 43 168 42 
245 164 187 78 
246 34 171 33 
247 103 109 101 
248 181 184 11 
249 131 132 130 
250 33 171 86 
251 128 130 129 
252 75 206 190 
253 146 148 144 
254 85 90 83 
255 113 160 106 
256 91 96 95 
257 161 194 97 
258 123 127 122 
259 96 111 110 
260 68 72 71 
261 62 93 65 
262 51 62 7 
263 91 194 96 
264 121 122 118 
265 80 192 150 
266 128 129 127 
267 50 166 51 
268 49 169 50 
269 113 164 163 
270 130 135 129 
271 48 63 49 
272 91 95 90 
273 172 187 112 
274 100 101 6 
275 109 170 101 
276 72 77 74 
277 68 167 72 
278 171 196 86 
279 79 81 74 
280 77 83 79 
281 121 177 123 
282 11 213 181 
283 96 110 95 
284 89 183 149 
285 72 74 71 
286 77 79 74 
287 65 68 67 
288 7 76 52 
289 83 84 79 
290 68 71 69 
291 54 78 55 
292 2 202 16 
293 26 202 2 
294 6 170 48 
295 1 203 25 
296 8 203 1 
297 103 139 109 
298 95 98 90 
299 3 204 43 
300 17 204 3 
301 4 205 34 
302 35 205 4 
303 71 73 69 
304 51 166 62 
305 65 167 68 
306 93 167 65 
307 50 169 166 
308 140 190 141 
309 62 65 64 
310 134 182 133 
311 13 175 12 
312 149 200 147 
313 69 82 67 
314 63 169 49 
315 68 69 67 
316 62 166 93 
317 65 67 64 
318 90 174 83 
319 62 64 7 
320 137 186 161 
321 55 172 5 
322 160 203 106 
323 83 174 84 
324 81 173 74 
325 74 173 71 
326 156 214 107 
327 130 192 135 
328 101 170 6 
329 98 174 90 
330 71 173 73 
331 79 176 81 
332 84 176 79 
333 48 170 63 
334 189 212 84 
335 11 201 10 
336 102 103 101 
337 99 100 6 
338 47 99 6 
339 159 191 88 
340 133 183 132 
341 97 194 91 
342 145 189 146 
343 115 188 102 
344 103 178 139 
345 127 210 87 
346 12 213 11 
347 100 115 102 
348 46 180 47 
349 14 185 13 
350 102 104 103 
351 155 216 153 
352 102 188 104 
353 113 187 164 
354 126 211 119 
355 100 102 101 
356 45 114 46 
357 133 200 183 
358 86 196 154 
359 16 202 159 
360 78 172 55 
361 104 178 103 
362 87 210 156 
363 132 192 130 
364 82 208 67 
365 178 197 111 
366 105 202 26 
367 159 202 105 
368 137 195 186 
369 106 203 8 
370 43 204 168 
371 54 199 78 
372 63 186 169 
373 34 205 171 
374 44 181 45 
375 183 200 149 
376 76 215 52 
377 78 187 172 
378 107 204 17 
379 161 209 109 
380 108 205 35 
381 5 184 44 
382 64 207 7 
383 99 179 100 
384 98 216 174 
385 100 179 115 
386 53 199 54 
387 64 208 207 
388 168 204 107 
389 112 193 172 
390 190 206 111 
391 171 205 108 
392 111 197 190 
393 179 185 115 
394 47 180 99 
395 111 206 110 
396 169 195 166 
397 186 195 169 
398 109 209 170 
399 172 193 5 
400 170 209 63 
401 52 215 53 
402 175 213 12 
403 7 207 76 
404 114 180 46 
405 84 212 176 
406 53 215 199 
407 104 197 178 
408 166 195 93 
409 129 210 127 
410 135 214 129 
411 88 191 188 
412 67 208 64 
413 129 214 210 
414 182 200 133 
415 210 214 156 
416 45 181 114 
417 207 208 126 
418 184 201 11 
419 190 197 141 
420 63 209 186 
421 82 211 208 
422 44 184 181 
423 199 215 165 
424 145 212 189 
425 186 209 161 
426 181 213 114 
427 193 201 5 
428 10 201 193 
429 5 201 184 
430 208 211 126 
$EndElements
