$MeshFormat
4.1 0 8
$EndMeshFormat
$PhysicalNames
3
1 101 "outer_boundary"
2 1 "material_1"
2 2 "material_2"
$EndPhysicalNames
$Entities
7 7 2 0
1 0 0 0 0 
2 1 0 0 0 
3 0 1 0 0 
4 1 1 0 0 
5 0.3627943057002477 0.419738914650175 0 0 
6 0.4813707368424988 0.2240849568572172 0 0 
7 0.5915238190710429 0.4246021374129818 0 0 
1 -9.999999994736442e-08 -1e-07 -1e-07 1.0000001 1e-07 1e-07 1 101 2 1 -2 
2 -1e-07 -9.999999994736442e-08 -1e-07 1e-07 1.0000001 1e-07 1 101 2 3 -1 
3 0.9999999000000001 -9.999999994736442e-08 -1e-07 1.0000001 1.0000001 1e-07 1 101 2 2 -4 
4 -9.999999994736442e-08 0.9999999000000001 -1e-07 1.0000001 1.0000001 1e-07 1 101 2 4 -3 
5 0.3627942057002477 0.2240848568572172 -1e-07 0.4813708368424988 0.419739014650175 1e-07 0 2 5 -6 
6 0.4813706368424988 0.2240848568572172 -1e-07 0.5915239190710428 0.4246022374129818 1e-07 0 2 6 -7 
7 0.3627942057002477 0.419738814650175 -1e-07 0.5915239190710428 0.4246022374129818 1e-07 0 2 7 -5 
2 0.3627942057002477 0.2240848568572172 -1e-07 0.5915239190710428 0.4246022374129818 1e-07 1 2 3 5 6 7 
3 -9.999999994736442e-08 -9.999999994736442e-08 -1e-07 1.0000001 1.0000001 1e-07 1 1 7 1 3 4 2 -5 -7 -6 
$EndEntities
$Nodes
16 329 1 329
0 1 0 1
1
0 0 0
0 2 0 1
2
1 0 0
0 3 0 1
3
0 1 0
0 4 0 1
4
1 1 0
0 5 0 1
5
0.3627943057002477 0.419738914650175 0
0 6 0 1
6
0.4813707368424988 0.2240849568572172 0
0 7 0 1
7
0.5915238190710429 0.4246021374129818 0
1 1 0 11
8
9
10
11
12
13
14
15
16
17
18
0.08333333333333318 0 0
0.1666666666666664 0 0
0.2499999999999997 0 0
0.333333333333333 0 0
0.4166666666666664 0 0
0.4999999999999998 0 0
0.5833333333333331 0 0
0.6666666666666665 0 0
0.7499999999999999 0 0
0.8333333333333331 0 0
0.9166666666666666 0 0
1 2 0 11
19
20
21
22
23
24
25
26
27
28
29
0 0.9166666666666669 0
0 0.8333333333333337 0
0 0.7500000000000003 0
0 0.666666666666667 0
0 0.5833333333333337 0
0 0.5000000000000002 0
0 0.4166666666666669 0
0 0.3333333333333335 0
0 0.2500000000000001 0
0 0.1666666666666669 0
0 0.08333333333333337 0
1 3 0 11
30
31
32
33
34
35
36
37
38
39
40
1 0.08333333333333318 0
1 0.1666666666666664 0
1 0.2499999999999997 0
1 0.333333333333333 0
1 0.4166666666666664 0
1 0.4999999999999998 0
1 0.5833333333333331 0
1 0.6666666666666665 0
1 0.7499999999999999 0
1 0.8333333333333331 0
1 0.9166666666666666 0
1 4 0 11
41
42
43
44
45
46
47
48
49
50
51
0.9166666666666669 1 0
0.8333333333333337 1 0
0.7500000000000003 1 0
0.666666666666667 1 0
0.5833333333333337 1 0
0.5000000000000002 1 0
0.4166666666666669 1 0
0.3333333333333335 1 0
0.2500000000000001 1 0
0.1666666666666669 1 0
0.08333333333333337 1 0
1 5 0 5
52
53
54
55
56
0.3825570442239562 0.387129921684682 0
0.4023197827476647 0.3545209287191891 0
0.4220825212713731 0.3219119357536963 0
0.4418452597950816 0.2893029427882033 0
0.4616079983187902 0.2566939498227103 0
1 6 0 5
57
58
59
60
61
0.4997295838805894 0.2575044869498446 0
0.5180884309186802 0.2909240170424721 0
0.5364472779567707 0.3243435471350994 0
0.5548061249948615 0.3577630772277268 0
0.5731649720329521 0.3911826073203543 0
1 7 0 5
62
63
64
65
66
0.5534022335092437 0.4237916002858473 0
0.5152806479474445 0.4229810631587129 0
0.4771590623856455 0.4221705260315784 0
0.4390374768238463 0.4213599889044439 0
0.4009158912620471 0.4205494517773095 0
2 2 0 10
67
68
69
70
71
72
73
74
75
76
0.4588002153475547 0.388750995938951 0
0.4983256923949717 0.323533010007965 0
0.535043386471153 0.3903720701932198 0
0.4799668453568809 0.2901134799153376 0
0.4206786297857554 0.3879404588118165 0
0.4602041068331724 0.3227224728808306 0
0.4785629538712631 0.356142002973458 0
0.4404413683094639 0.3553314658463235 0
0.4969218009093538 0.3895615330660854 0
0.5166845394330624 0.3569525401005924 0
2 3 0 253
77
78
79
80
81
82
83
84
85
86
87
88
89
90
91
92
93
94
95
96
97
98
99
100
101
102
103
104
105
106
107
108
109
110
111
112
113
114
115
116
117
118
119
120
121
122
123
124
125
126
127
128
129
130
131
132
133
134
135
136
137
138
139
140
141
142
143
144
145
146
147
148
149
150
151
152
153
154
155
156
157
158
159
160
161
162
163
164
165
166
167
168
169
170
171
172
173
174
175
176
177
178
179
180
181
182
183
184
185
186
187
188
189
190
191
192
193
194
195
196
197
198
199
200
201
202
203
204
205
206
207
208
209
210
211
212
213
214
215
216
217
218
219
220
221
222
223
224
225
226
227
228
229
230
231
232
233
234
235
236
237
238
239
240
241
242
243
244
245
246
247
248
249
250
251
252
253
254
255
256
257
258
259
260
261
262
263
264
265
266
267
268
269
270
271
272
273
274
275
276
277
278
279
280
281
282
283
284
285
286
287
288
289
290
291
292
293
294
295
296
297
298
299
300
301
302
303
304
305
306
307
308
309
310
311
312
313
314
315
316
317
318
319
320
321
322
323
324
325
326
327
328
329
0.3815207871476877 0.4534960088187907 0
0.5334798263955581 0.4525144151191526 0
0.5929277105566607 0.3585736143548612 0
0.3859098452214475 0.3187643878079133 0
0.2960792870850207 0.9175484436956917 0
0.6199965039044947 0.9334641201956286 0
0.9335376613969708 0.6251265615555436 0
0.3401275447268585 0.4535730031597915 0
0.3620865277914785 0.4910593239544521 0
0.5390434001378681 0.2557620903536513 0
0.3221212672636536 0.4173506235547706 0
0.3156552987509915 0.4900286273306878 0
0.3384972714014687 0.5305454366292179 0
0.9247019658367082 0.4670638845776508 0
0.9364193294370329 0.2918141086882144 0
0.3866191766594717 0.5306678990198668 0
0.3622874463842718 0.5732209643688506 0
0.4128921865388093 0.5725409563262758 0
0.3876723477792257 0.6177931827556488 0
0.4424041935599123 0.6164586450601812 0
0.337917151595542 0.618361230698664 0
0.06377667775713569 0.212731673878664 0
0.440687643560314 0.2230347814720994 0
0.4145564378528049 0.6649988585228698 0
0.4726480525170649 0.6635696465959345 0
0.7057631750454291 0.07434381372003085 0
0.4429879758259004 0.7153105775913444 0
0.9331880133858022 0.7891665482342927 0
0.5022566873074823 0.7140427318015027 0
0.5321059660241776 0.6612379997391512 0
0.5623089839180665 0.7120445525784225 0
0.590259848305806 0.6585454474173047 0
0.6232899329509441 0.710655393754459 0
0.6515691885206815 0.6561061823042551 0
0.2904913006576598 0.5293546318943452 0
0.07216878364870322 0.7083333333333337 0
0.3833021605662569 0.7154788842804608 0
0.06401521799284637 0.3765351363621957 0
0.2654998001797629 0.4850693066945661 0
0.2713693503402081 0.07157780577455342 0
0.2362219895952547 0.5314828694902771 0
0.6867148396134647 0.7093530520899611 0
0.6189948145947807 0.6049272273659682 0
0.6787351978780279 0.6026210716765881 0
0.4131622863615274 0.7697219586331334 0
0.4622939866978974 0.1861539050124359 0
0.5046734606491946 0.1860732718339723 0
0.4172564575450708 0.1850857078798699 0
0.4627489157544141 0.5700393959090806 0
0.6461480375785366 0.551813865478669 0
0.7051544377454397 0.5460096508648102 0
0.7392864351748392 0.5986379058323776 0
0.5335956449835124 0.7639855645649518 0
0.3492828993201211 0.7690116039950849 0
0.792985134525398 0.9288584721438793 0
0.7661169245110095 0.5438400522385212 0
0.7313206481805286 0.4902724028521774 0
0.2108045313217652 0.4788667400084329 0
0.1780153751896864 0.5278708231239502 0
0.2061837855855577 0.5834448539648072 0
0.4581826445967045 0.4547248930260293 0
0.5908935369964992 0.5567564699717515 0
0.3951110534531843 0.2259819692084879 0
0.3677468767211846 0.1854820966615903 0
0.3438933147382507 0.2335838912049473 0
0.6560774405376522 0.7670219913161952 0
0.7234004636064649 0.7625313803690096 0
0.3141381482663085 0.1876311013569082 0
0.2883015134534164 0.2399015858630696 0
0.2559134418078263 0.1896501921022522 0
0.2294315148180042 0.2434342564973243 0
0.2631815115302292 0.2939296862345486 0
0.2035732225668472 0.2981805237294061 0
0.2390327804677218 0.3444455291411464 0
0.4580126656883962 0.9305285158478112 0
0.4399445849343089 0.1397516955152756 0
0.1286287955885086 0.9302993979955191 0
0.8712555956245628 0.06943164906989424 0
0.7925112200635553 0.4873026922023291 0
0.7566302634763833 0.4368223037188992 0
0.6983724226919852 0.4404533733998988 0
0.7201841500039556 0.3877842914742424 0
0.7799131445704708 0.3821409567324705 0
0.7414054798571366 0.3320494975988026 0
0.1349885629328983 0.5835012682465796 0
0.1748085319879943 0.6425142641347136 0
0.6148186377762592 0.5080197928341073 0
0.75249852509203 0.7058239766686456 0
0.8044546134947043 0.3245399980277961 0
0.7650686045938815 0.2747972802716288 0
0.7021693857993444 0.2831697728171796 0
0.7263418025846553 0.2212295386183637 0
0.6644548788359534 0.2353829874204098 0
0.7957404486059712 0.2091525939679824 0
0.3255070537385349 0.7116136305367731 0
0.2832897409797044 0.768057628873706 0
0.3814557682511847 0.8266030105281921 0
0.1942881391470641 0.1910488871883491 0
0.1242896679779742 0.07036007205765793 0
0.8280266827588586 0.5378559964938148 0
0.5446647283893806 0.06759845920475538 0
0.1483477718428158 0.4704380391695669 0
0.8049442243263616 0.7720742114530011 0
0.6582447825859821 0.3970315649513663 0
0.2971050657693586 0.3406951404081613 0
0.8433102207662009 0.3760211829891078 0
0.6971727789961494 0.8324142426093937 0
0.642216097244934 0.2914714670535854 0
0.8153329033769938 0.6973275330926674 0
0.2459534561147791 0.641049763069198 0
0.1761948368076885 0.3617019508374434 0
0.1419980853699538 0.2993315791217845 0
0.2055743468508895 0.6942694143190893 0
0.6849825666450819 0.1772402849890652 0
0.6258735768377564 0.1895839180725883 0
0.4484363768787697 0.8236531732997947 0
0.6226514922700597 0.8194215336813644 0
0.564508534660154 0.5155691208779984 0
0.5397762229367173 0.5610550856857779 0
0.513692691110927 0.5150108926921538 0
0.2413091556019593 0.4367643168279003 0
0.2237815793200018 0.1335789251238149 0
0.6480261701841464 0.1299370611703524 0
0.6545312589241425 0.4434080086313932 0
0.6675786230313427 0.4932451825803701 0
0.3396358886667966 0.1492097236699359 0
0.3188673759851984 0.2834331907266086 0
0.4641900767195925 0.08317606637654829 0
0.5837206157704455 0.1404639389340507 0
0.610826540847656 0.2471581918426752 0
0.5940864322995529 0.291450246020633 0
0.571111641497398 0.2127754534325982 0
0.3914234993364495 0.07049972195399279 0
0.6730097855963413 0.3394865827972645 0
0.06658925605494787 0.6211321676910453 0
0.07582463654343885 0.4620566981154133 0
0.06690736754583443 0.5450786441245217 0
0.934618576244463 0.5493096633731813 0
0.9210122061954069 0.3751394123057691 0
0.5845914244108779 0.4740726626954214 0
0.5378864493769058 0.9341486711735071 0
0.3783387617170009 0.9340031395125281 0
0.7914695525048614 0.07100742512384561 0
0.8333405848636832 0.1414203202214863 0
0.7551246261621603 0.1408487677316617 0
0.8654811330579594 0.2051703852383648 0
0.9210486652378209 0.1339847361241828 0
0.5627453903176467 0.6088429776254061 0
0.934099433368109 0.7077909324181556 0
0.5021262810310718 0.6060958099094317 0
0.37507918290268 0.2723165729577969 0
0.7057256099079642 0.9186825937124812 0
0.2090908511489825 0.9272364190880517 0
0.1679858670251678 0.8590207951150275 0
0.2460369065166868 0.8517290025016782 0
0.2070396368868469 0.7911740954699721 0
0.1293859393015665 0.7787594594096049 0
0.4383022102248961 0.5243208551990648 0
0.07798130216812316 0.8640023569473013 0
0.4050342174644419 0.4897009179201656 0
0.07223604774000503 0.2966143574277593 0
0.07477100386233082 0.1314114411645005 0
0.8744046274916095 0.9297316593590709 0
0.8333318567981842 0.8566561244220359 0
0.853121086905814 0.479078815841946 0
0.2647862438871934 0.5814936012587045 0
0.6136805581533898 0.06563350085148667 0
0.5234079215844936 0.1305072376001487 0
0.5018045486563828 0.4639202448185596 0
0.4721884554336683 0.4957272082924393 0
0.311607937254366 0.8321477479890564 0
0.6120400781858026 0.3916941893990126 0
0.3650492511749538 0.3536398158988491 0
0.6298147193564216 0.36278415830888 0
0.3451033329774119 0.3861549284758503 0
0.7577457648100825 0.8684525474240983 0
0.7998072637826072 0.5940940160614508 0
0.157890187431958 0.1315295499203233 0
0.9221085554317443 0.8686386776620603 0
0.5234601760392772 0.2175155442262895 0
0.1849027172587213 0.4256877546800942 0
0.4217473295250139 0.2577527979174686 0
0.2738046116515711 0.3917485775434479 0
0.8684687338670269 0.5930058594209793 0
0.8173734289477875 0.4313473572945817 0
0.4211809464696526 0.4541437467935422 0
0.198999575289468 0.06784105881272495 0
0.472558350015683 0.7657280227836176 0
0.7132967919716189 0.6535712553102389 0
0.5940818344586641 0.7628641913967362 0
0.141223637232932 0.7005507364844651 0
0.8293899849396493 0.2654395633456226 0
0.3140933339467402 0.5747091773309732 0
0.126909240356925 0.4103373935702483 0
0.8690441399965444 0.31608955108215 0
0.8703283263019765 0.7453416648909006 0
0.1687122198410759 0.2468440017013388 0
0.3600161123134649 0.665053786642626 0
0.3875415891142722 0.1318474201860925 0
0.9362600511809966 0.2146365351958917 0
0.4881186349036305 0.8747471306959177 0
0.2852850120232335 0.1415660434027822 0
0.5661918665407435 0.8679267439415695 0
0.05590720502367857 0.7868856966047147 0
0.2930862796957995 0.4457557425185274 0
0.5549669938249018 0.292337733269975 0
0.1306531089998696 0.1953349881693892 0
0.7727385136122735 0.6475812770103413 0
0.4174268664396895 0.8775176339211462 0
0.4077668972749038 0.2910029532516765 0
0.4784345607597303 0.5320686679260093 0
0.8736385124116669 0.6598660021027607 0
0.2676980699350645 0.703706468737197 0
0.3452400716218134 0.3206301854553274 0
0.5743476299150115 0.3252671763416984 0
0.8738803358404327 0.4248117798958969 0
0.6128512398573218 0.3271348400418952 0
0.3046430096246309 0.6604171411315997 0
0.5126566674723307 0.8177650573380675 0
0.6506089295450296 0.8752528790184543 0
0.2216293355112727 0.3917790565019669 0
0.1210525305832486 0.3528128454243549 0
0.4807314033532949 0.1467917127571879 0
0.567039131511645 0.8105497087425544 0
0.699559910345824 0.1272573297499909 0
0.06100423396407301 0.0610042339640729 0
0.5439061945671517 0.1711249101565463 0
0.5740070017214753 0.2598967429839065 0
0.6225709307093548 0.4607263918108342 0
0.3550438004493675 0.8769945204188405 0
0.4406513111735373 0.4843640284429501 0
0.9387570271837316 0.9387570271837317 0
0.9389957660359267 0.0610042339640734 0
0.115475227941608 0.2501713200597872 0
0.06100423396407328 0.9389957660359266 0
0.1765065381867833 0.7441360961800616 0
0.4993557343185721 0.5568539704244907 0
0.1208167428109348 0.5177890945560063 0
0.332233228473591 0.3570516720744357 0
0.3125291925406317 0.3801825031892352 0
0.2280216665678577 0.7402687407160051 0
0.5422969012075834 0.4818934068077392 0
0.5610588409188612 0.4513748444642285 0
0.2927036604670978 0.6173524068142027 0
0.4207749375261557 0.1063187260079773 0
0.6262392159373217 0.4227833465181501 0
0.1200763170270487 0.6493832651547384 0
0.7614550631516614 0.8121688537341331 0
0.8807420353998527 0.5263852513504966 0
0.8246930283085865 0.6411237572688357 0
0.8727801952488137 0.8063754453324581 0
0.8841596318993828 0.2610475764769097 0
0.3347647788023821 0.09411678583122612 0
$EndNodes
$Elements
6 656 1 656
1 1 1 12
1 1 8 
2 8 9 
3 9 10 
4 10 11 
5 11 12 
6 12 13 
7 13 14 
8 14 15 
9 15 16 
10 16 17 
11 17 18 
12 18 2 
1 2 1 12
13 3 19 
14 19 20 
15 20 21 
16 21 22 
17 22 23 
18 23 24 
19 24 25 
20 25 26 
21 26 27 
22 27 28 
23 28 29 
24 29 1 
1 3 1 12
25 2 30 
26 30 31 
27 31 32 
28 32 33 
29 33 34 
30 34 35 
31 35 36 
32 36 37 
33 37 38 
34 38 39 
35 39 40 
36 40 4 
1 4 1 12
37 4 41 
38 41 42 
39 42 43 
40 43 44 
41 44 45 
42 45 46 
43 46 47 
44 47 48 
45 48 49 
46 49 50 
47 50 51 
48 51 3 
2 2 2 36
49 5 52 66 
50 62 61 7 
51 57 56 6 
52 68 72 70 
53 67 74 73 
54 70 72 55 
55 65 71 67 
56 71 74 67 
57 68 73 72 
58 73 76 75 
59 59 76 68 
60 62 69 61 
61 73 75 67 
62 73 74 72 
63 53 74 71 
64 75 76 69 
65 66 71 65 
66 52 71 66 
67 63 69 62 
68 63 75 69 
69 65 67 64 
70 68 70 58 
71 68 76 73 
72 61 69 60 
73 67 75 64 
74 58 70 57 
75 54 74 53 
76 72 74 54 
77 64 75 63 
78 56 70 55 
79 55 72 54 
80 59 68 58 
81 53 71 52 
82 57 70 56 
83 69 76 60 
84 60 76 59 
2 3 2 572
85 163 201 126 
86 244 299 204 
87 126 201 127 
88 245 318 196 
89 196 246 245 
90 87 281 259 
91 204 299 152 
92 199 243 102 
93 190 221 168 
94 185 288 272 
95 198 263 116 
96 231 232 172 
97 228 296 183 
98 183 252 228 
99 7 322 305 
100 7 305 216 
101 272 288 225 
102 168 221 170 
103 112 267 233 
104 250 293 210 
105 179 327 240 
106 180 210 158 
107 240 324 179 
108 78 318 245 
109 172 247 231 
110 211 213 161 
111 141 227 203 
112 31 223 30 
113 231 247 81 
114 102 243 15 
115 224 226 195 
116 257 270 187 
117 127 201 133 
118 20 235 19 
119 116 278 198 
120 210 293 184 
121 177 244 204 
122 116 263 10 
123 208 304 86 
124 247 306 81 
125 158 210 160 
126 237 298 114 
127 259 281 197 
128 86 256 208 
129 233 280 112 
130 182 271 215 
131 141 203 145 
132 177 243 205 
133 254 283 238 
134 170 221 220 
135 226 313 195 
136 96 226 101 
137 223 309 30 
138 26 237 114 
139 23 213 211 
140 125 226 96 
141 188 298 237 
142 80 290 227 
143 272 327 179 
144 219 221 102 
145 235 311 19 
146 102 301 199 
147 227 290 203 
148 215 271 91 
149 184 207 206 
150 157 200 180 
151 35 214 90 
152 240 255 239 
153 138 224 195 
154 33 215 91 
155 167 184 169 
156 206 208 191 
157 220 222 170 
158 238 283 98 
159 119 224 138 
160 205 244 177 
161 270 298 187 
162 205 243 199 
163 138 163 126 
164 148 181 150 
165 160 210 167 
166 163 305 201 
167 204 209 12 
168 16 219 102 
169 138 194 163 
170 180 250 210 
171 145 203 148 
172 209 329 11 
173 191 208 205 
174 177 204 13 
175 133 157 156 
176 184 206 169 
177 119 138 126 
178 178 314 212 
179 169 206 191 
180 279 296 82 
181 248 250 180 
182 180 322 248 
183 267 312 233 
184 259 316 87 
185 101 226 106 
186 229 231 81 
187 45 217 82 
188 148 203 181 
189 47 218 151 
190 12 209 11 
191 157 180 158 
192 152 321 204 
193 14 177 13 
194 234 307 246 
195 77 236 85 
196 193 296 279 
197 220 221 219 
198 202 329 275 
199 240 327 255 
200 194 216 163 
201 167 210 184 
202 11 116 10 
203 215 292 182 
204 83 214 36 
205 217 279 82 
206 114 212 25 
207 133 201 157 
208 90 215 34 
209 256 303 208 
210 106 226 224 
211 82 228 44 
212 318 319 216 
213 16 102 15 
214 214 325 90 
215 49 229 81 
216 26 114 25 
217 212 213 24 
218 295 300 279 
219 106 224 108 
220 123 303 256 
221 11 329 116 
222 111 242 117 
223 220 223 222 
224 104 225 38 
225 119 126 120 
226 246 287 234 
227 175 254 238 
228 35 90 34 
229 230 232 231 
230 108 224 119 
231 154 220 219 
232 37 83 36 
233 13 204 12 
234 22 211 112 
235 94 234 125 
236 28 98 27 
237 230 231 229 
238 167 169 168 
239 33 91 32 
240 24 213 23 
241 108 119 110 
242 206 304 208 
243 157 158 156 
244 81 218 48 
245 151 217 46 
246 37 225 83 
247 186 320 294 
248 172 289 171 
249 195 196 194 
250 277 295 279 
251 9 175 8 
252 160 167 166 
253 153 230 229 
254 45 82 44 
255 85 236 92 
256 49 81 48 
257 154 219 17 
258 22 112 21 
259 47 151 46 
260 83 260 214 
261 277 285 192 
262 36 214 35 
263 17 219 16 
264 34 215 33 
265 104 272 225 
266 139 258 227 
267 25 212 24 
268 212 314 213 
269 23 211 22 
270 145 148 147 
271 92 236 234 
272 148 150 149 
273 169 191 190 
274 131 240 239 
275 28 238 98 
276 43 228 131 
277 275 329 209 
278 92 234 94 
279 194 318 216 
280 254 263 198 
281 46 217 45 
282 48 218 47 
283 153 229 50 
284 228 252 131 
285 221 301 102 
286 139 227 141 
287 44 228 43 
288 190 301 221 
289 50 229 49 
290 133 156 155 
291 94 125 96 
292 117 242 136 
293 157 201 200 
294 127 133 132 
295 252 324 240 
296 181 259 150 
297 138 195 194 
298 203 290 181 
299 212 270 178 
300 136 186 162 
301 98 237 27 
302 38 225 37 
303 200 322 180 
304 101 106 105 
305 27 237 26 
306 43 131 42 
307 18 154 17 
308 305 322 200 
309 131 239 42 
310 258 286 227 
311 106 108 107 
312 154 223 220 
313 39 104 38 
314 51 153 50 
315 130 247 172 
316 187 297 257 
317 230 233 232 
318 153 235 230 
319 14 243 177 
320 90 325 241 
321 230 235 233 
322 42 239 41 
323 29 238 28 
324 119 120 110 
325 15 243 14 
326 126 127 120 
327 216 319 7 
328 167 168 166 
329 91 276 32 
330 208 303 205 
331 171 274 113 
332 136 242 186 
333 31 276 223 
334 186 294 289 
335 173 247 130 
336 161 323 211 
337 169 190 168 
338 213 314 161 
339 204 321 209 
340 10 263 9 
341 175 263 254 
342 112 280 21 
343 134 197 115 
344 227 286 80 
345 77 262 236 
346 130 171 113 
347 148 149 147 
348 108 110 109 
349 40 255 39 
350 191 205 199 
351 133 155 132 
352 151 285 277 
353 183 193 142 
354 197 281 115 
355 106 107 105 
356 186 189 162 
357 118 164 143 
358 278 329 202 
359 131 252 240 
360 172 317 289 
361 164 185 179 
362 150 187 149 
363 223 276 222 
364 90 292 215 
365 85 92 89 
366 66 77 5 
367 62 78 63 
368 63 245 64 
369 64 137 65 
370 164 284 185 
371 39 255 104 
372 108 109 107 
373 158 160 159 
374 92 94 93 
375 191 199 190 
376 130 172 171 
377 193 266 142 
378 121 192 173 
379 94 96 95 
380 114 270 212 
381 232 317 172 
382 60 79 61 
383 184 293 207 
384 65 262 66 
385 96 101 100 
386 127 132 128 
387 20 280 235 
388 218 285 151 
389 101 105 103 
390 164 179 143 
391 53 80 54 
392 160 166 165 
393 139 141 140 
394 9 263 175 
395 158 159 156 
396 81 306 218 
397 110 118 109 
398 155 241 176 
399 134 257 197 
400 136 162 161 
401 222 268 170 
402 225 288 83 
403 121 130 113 
404 52 249 53 
405 145 147 146 
406 151 277 217 
407 155 176 132 
408 120 265 110 
409 107 129 105 
410 99 139 124 
411 103 113 100 
412 143 183 142 
413 94 95 93 
414 61 248 7 
415 118 143 142 
416 82 296 228 
417 125 313 226 
418 116 329 278 
419 1 302 29 
420 8 302 1 
421 118 142 109 
422 117 136 135 
423 118 265 164 
424 156 261 155 
425 96 100 95 
426 141 145 144 
427 201 305 200 
428 127 128 120 
429 5 251 52 
430 159 261 156 
431 101 103 100 
432 290 315 181 
433 92 93 89 
434 103 121 113 
435 121 173 130 
436 160 165 159 
437 4 308 40 
438 41 308 4 
439 168 170 166 
440 165 182 159 
441 2 309 18 
442 30 309 2 
443 55 258 56 
444 78 245 63 
445 19 311 3 
446 3 311 51 
447 128 265 120 
448 121 264 192 
449 147 174 146 
450 187 188 149 
451 57 86 58 
452 64 245 137 
453 84 87 5 
454 111 269 242 
455 174 254 198 
456 84 281 87 
457 211 323 112 
458 174 198 146 
459 132 253 128 
460 85 89 88 
461 209 321 275 
462 66 262 77 
463 95 97 93 
464 153 311 235 
465 154 309 223 
466 137 262 65 
467 207 304 206 
468 189 267 162 
469 56 99 6 
470 117 134 115 
471 135 178 134 
472 111 115 88 
473 176 253 132 
474 149 273 147 
475 185 272 179 
476 166 268 165 
477 234 287 125 
478 176 260 253 
479 136 161 135 
480 145 146 144 
481 195 313 196 
482 32 276 31 
483 141 144 140 
484 77 85 84 
485 110 265 118 
486 77 84 5 
487 260 325 214 
488 91 328 276 
489 182 261 159 
490 129 264 105 
491 117 135 134 
492 170 268 166 
493 245 246 137 
494 155 261 241 
495 88 281 84 
496 105 264 103 
497 178 257 134 
498 85 88 84 
499 87 251 5 
500 123 299 244 
501 188 273 149 
502 111 117 115 
503 144 202 140 
504 139 140 124 
505 89 111 88 
506 244 303 123 
507 235 280 233 
508 79 248 61 
509 53 249 80 
510 103 264 121 
511 7 319 62 
512 109 266 107 
513 113 274 100 
514 147 273 174 
515 107 266 129 
516 236 307 234 
517 178 270 257 
518 6 256 57 
519 142 266 109 
520 58 282 59 
521 52 251 249 
522 54 286 55 
523 93 269 89 
524 196 287 246 
525 21 280 20 
526 237 310 188 
527 196 318 194 
528 165 271 182 
529 99 258 139 
530 174 283 254 
531 268 271 165 
532 100 274 95 
533 78 319 318 
534 196 313 287 
535 80 286 54 
536 171 294 274 
537 79 250 248 
538 97 269 93 
539 198 278 146 
540 60 291 79 
541 183 324 252 
542 95 274 97 
543 162 323 161 
544 197 297 259 
545 122 123 6 
546 89 269 111 
547 259 297 150 
548 99 124 122 
549 29 302 238 
550 56 258 99 
551 124 152 122 
552 59 291 60 
553 99 122 6 
554 291 293 79 
555 115 281 88 
556 150 297 187 
557 175 302 8 
558 186 289 189 
559 241 292 90 
560 55 286 258 
561 143 324 183 
562 86 282 58 
563 192 285 173 
564 128 284 265 
565 238 302 175 
566 265 284 164 
567 181 316 259 
568 284 326 185 
569 253 284 128 
570 176 325 260 
571 140 275 124 
572 112 323 267 
573 276 328 222 
574 146 278 144 
575 202 275 140 
576 233 312 232 
577 255 327 104 
578 277 279 217 
579 216 305 163 
580 144 278 202 
581 57 256 86 
582 40 308 255 
583 282 291 59 
584 273 283 174 
585 137 307 262 
586 98 310 237 
587 124 275 152 
588 260 326 253 
589 161 314 135 
590 18 309 154 
591 239 308 41 
592 51 311 153 
593 193 300 266 
594 123 256 6 
595 192 295 277 
596 205 303 244 
597 249 290 80 
598 97 320 269 
599 183 296 193 
600 257 297 197 
601 83 288 260 
602 242 320 186 
603 187 298 188 
604 255 308 239 
605 173 306 247 
606 262 307 236 
607 269 320 242 
608 129 300 295 
609 264 295 192 
610 199 301 190 
611 188 310 273 
612 129 295 264 
613 79 293 250 
614 261 292 241 
615 207 293 291 
616 285 306 173 
617 182 292 261 
618 274 294 97 
619 246 307 137 
620 288 326 260 
621 189 312 267 
622 62 319 78 
623 135 314 178 
624 289 294 171 
625 114 298 270 
626 279 300 193 
627 266 300 129 
628 179 324 143 
629 152 299 122 
630 207 291 282 
631 86 304 282 
632 241 325 176 
633 218 306 285 
634 267 323 162 
635 289 317 189 
636 249 315 290 
637 122 299 123 
638 248 322 7 
639 273 310 283 
640 282 304 207 
641 251 315 249 
642 87 316 251 
643 268 328 271 
644 315 316 181 
645 271 328 91 
646 189 317 312 
647 283 310 98 
648 104 327 272 
649 222 328 268 
650 287 313 125 
651 185 326 288 
652 312 317 232 
653 275 321 152 
654 253 326 284 
655 251 316 315 
656 294 320 97 
$EndElements
