$MeshFormat
4.1 0 8
$EndMeshFormat
$PhysicalNames
3
1 101 "outer_boundary"
2 1 "material_1"
2 2 "material_2"
$EndPhysicalNames
$Entities
8 8 2 0
1 0 0 0 0 
2 1 0 0 0 
3 0 1 0 0 
4 1 1 0 0 
5 0.3313758415028689 0.4854543698717942 0 0 
6 0.4372274440374142 0.7565066594805936 0 0 
7 0.1661751544286147 0.8623582620151391 0 0 
8 0.06032355189406935 0.5913059724063396 0 0 
1 -9.999999994736442e-08 -1e-07 -1e-07 1.0000001 1e-07 1e-07 1 101 2 1 -2 
2 -1e-07 -9.999999994736442e-08 -1e-07 1e-07 1.0000001 1e-07 1 101 2 3 -1 
3 0.9999999000000001 -9.999999994736442e-08 -1e-07 1.0000001 1.0000001 1e-07 1 101 2 2 -4 
4 -9.999999994736442e-08 0.9999999000000001 -1e-07 1.0000001 1.0000001 1e-07 1 101 2 4 -3 
5 0.3313757415028689 0.4854542698717942 -1e-07 0.4372275440374142 0.7565067594805935 1e-07 0 2 5 -6 
6 0.1661750544286147 0.7565065594805936 -1e-07 0.4372275440374142 0.862358362015139 1e-07 0 2 6 -7 
7 0.06032345189406935 0.5913058724063397 -1e-07 0.1661752544286147 0.862358362015139 1e-07 0 2 7 -8 
8 0.06032345189406935 0.4854542698717942 -1e-07 0.3313759415028689 0.5913060724063396 1e-07 0 2 8 -5 
2 0.06032345189406935 0.4854542698717942 -1e-07 0.4372275440374142 0.862358362015139 1e-07 1 2 4 5 6 7 8 
3 -9.999999994736442e-08 -9.999999994736442e-08 -1e-07 1.0000001 1.0000001 1e-07 1 1 8 1 3 4 2 -5 -8 -7 -6 
$EndEntities
$Nodes
18 257 1 257
0 1 0 1
1
0 0 0
0 2 0 1
2
1 0 0
0 3 0 1
3
0 1 0
0 4 0 1
4
1 1 0
0 5 0 1
5
0.3313758415028689 0.4854543698717942 0
0 6 0 1
6
0.4372274440374142 0.7565066594805936 0
0 7 0 1
7
0.1661751544286147 0.8623582620151391 0
0 8 0 1
8
0.06032355189406935 0.5913059724063396 0
1 1 0 9
9
10
11
12
13
14
15
16
17
0.09999999999999996 0 0
0.1999999999999999 0 0
0.3000000000000001 0 0
0.4000000000000004 0 0
0.5000000000000003 0 0
0.5999999999999999 0 0
0.6999999999999995 0 0
0.7999999999999992 0 0
0.899999999999999 0 0
1 2 0 9
18
19
20
21
22
23
24
25
26
0 0.9 0
0 0.8 0
0 0.7 0
0 0.5999999999999996 0
0 0.4999999999999997 0
0 0.4000000000000001 0
0 0.3000000000000005 0
0 0.2000000000000008 0
0 0.100000000000001 0
1 3 0 9
27
28
29
30
31
32
33
34
35
1 0.09999999999999996 0
1 0.1999999999999999 0
1 0.3000000000000001 0
1 0.4000000000000004 0
1 0.5000000000000003 0
1 0.5999999999999999 0
1 0.6999999999999995 0
1 0.7999999999999992 0
1 0.899999999999999 0
1 4 0 9
36
37
38
39
40
41
42
43
44
0.9 1 0
0.8 1 0
0.7 1 0
0.5999999999999996 1 0
0.4999999999999997 1 0
0.4000000000000001 1 0
0.3000000000000005 1 0
0.2000000000000008 1 0
0.100000000000001 1 0
1 5 0 5
45
46
47
48
49
0.3490177752586264 0.5306297514732607 0
0.3666597090143839 0.5758051330747271 0
0.3843016427701414 0.6209805146761938 0
0.4019435765258991 0.6661558962776604 0
0.4195855102816566 0.711331277879127 0
1 6 0 5
50
51
52
53
54
0.3920520624359476 0.7741485932363512 0
0.3468766808344812 0.7917905269921087 0
0.3017012992330146 0.8094324607478662 0
0.256525917631548 0.8270743945036239 0
0.2113505360300814 0.8447163282593815 0
1 7 0 5
55
56
57
58
59
0.1485332206728572 0.8171828804136726 0
0.1308912869170997 0.7720074988122061 0
0.1132493531613421 0.7268321172107395 0
0.0956074194055845 0.6816567356092729 0
0.07796548564982694 0.6364813540078063 0
1 8 0 5
60
61
62
63
64
0.1054989334955359 0.5736640386505821 0
0.1506743150970024 0.5560221048948245 0
0.195849696698469 0.538380171139067 0
0.2410250782999356 0.5207382373833094 0
0.2862004599014022 0.5030963036275518 0
2 2 0 34
65
66
67
68
69
70
71
72
73
74
75
76
77
78
79
80
81
82
83
84
85
86
87
88
89
90
91
92
93
94
95
96
97
98
0.263640631775 0.7771742811478694 0
0.2332632842285482 0.5686132513905801 0
0.3473459261728936 0.6603487591507106 0
0.1433888975009823 0.6845141650019935 0
0.3500941057215082 0.7432669874209972 0
0.318502205034764 0.566859435653948 0
0.1775874002999172 0.7805206864781733 0
0.1432167453956214 0.6030215666494029 0
0.1884402507387642 0.5861552470796452 0
0.2263143249674785 0.6165865773252925 0
0.279749224469702 0.6000258772933723 0
0.2642724759123071 0.6469282885387667 0
0.2206875640959996 0.6648084300281165 0
0.2569167140441659 0.6941143012041975 0
0.2117877663144755 0.7125142172649293 0
0.2996648338595704 0.6782769844754571 0
0.2945699237891728 0.7271508104693027 0
0.3333195008920102 0.6101526180824985 0
0.1758714294714753 0.640753216712774 0
0.1672106262073381 0.730462464100759 0
0.2777123114045693 0.5490805157646527 0
0.3726108601145534 0.7022674912285417 0
0.2186604474448876 0.7990801099067749 0
0.1242319551635175 0.6439883382629201 0
0.2473856172840618 0.7328242243145815 0
0.3113765282706353 0.7697630133556288 0
0.3328571299315397 0.7022622065490018 0
0.2143787482209467 0.7554293305355145 0
0.3037519084615841 0.6374818166505485 0
0.1835566287600554 0.683681052450662 0
0.311219958772262 0.5314398363083589 0
0.1863310371592216 0.8163727955785745 0
0.3912419776008496 0.7363507767499867 0
0.106309018330634 0.6114618551369465 0
2 3 0 159
99
100
101
102
103
104
105
106
107
108
109
110
111
112
113
114
115
116
117
118
119
120
121
122
123
124
125
126
127
128
129
130
131
132
133
134
135
136
137
138
139
140
141
142
143
144
145
146
147
148
149
150
151
152
153
154
155
156
157
158
159
160
161
162
163
164
165
166
167
168
169
170
171
172
173
174
175
176
177
178
179
180
181
182
183
184
185
186
187
188
189
190
191
192
193
194
195
196
197
198
199
200
201
202
203
204
205
206
207
208
209
210
211
212
213
214
215
216
217
218
219
220
221
222
223
224
225
226
227
228
229
230
231
232
233
234
235
236
237
238
239
240
241
242
243
244
245
246
247
248
249
250
251
252
253
254
255
256
257
0.3808526435786839 0.4929253716604436 0
0.4322456377405465 0.6282898426725587 0
0.9187184394264634 0.3582654882648105 0
0.3625308881259033 0.4450527954065218 0
0.417383826451755 0.4542535499079573 0
0.9235939355817837 0.6501636992467161 0
0.3955461725044003 0.4007201497421164 0
0.4559337753948358 0.4105517226333757 0
0.2497681052267749 0.466790227392446 0
0.6430282529524975 0.097743134999001 0
0.431198646592068 0.3517337719671251 0
0.3733129308527445 0.3485198536775107 0
0.4938531350367697 0.3611456216726721 0
0.5188581207625698 0.424907529129153 0
0.5615452348748103 0.3717678138931352 0
0.5848418500419401 0.4396134317323757 0
0.6498796927037249 0.9238972379293261 0
0.4694647301164063 0.716594776396893 0
0.1622168761913698 0.5128609301227846 0
0.4700720221394161 0.2988151931088075 0
0.6307123605072674 0.3835747018662712 0
0.6512673781046222 0.4534549326830373 0
0.6056145236311491 0.5081447899006262 0
0.08863606828349252 0.2558511206479627 0
0.6751868906015372 0.5243637821230388 0
0.6291477537805448 0.5763094621950595 0
0.4891650777986171 0.7654677931215754 0
0.5243460082566783 0.7222815292345295 0
0.362189227320963 0.08209544468314001 0
0.6064264370929737 0.3140433938973282 0
0.681119628705609 0.3252704696137375 0
0.7003537248312985 0.5944400730925972 0
0.7528320562383418 0.5328556618605129 0
0.4320449064756846 0.5040519660965629 0
0.4540664510243667 0.8079075940171113 0
0.6539490829670264 0.6438435539102343 0
0.72562523319943 0.6659464389561301 0
0.5564472393782817 0.7751579841550399 0
0.3382809424312524 0.846114398736915 0
0.5600170383744861 0.5589566762976113 0
0.665153063341095 0.72034284464 0
0.7510202919219406 0.7399033521390623 0
0.8457436601334656 0.9053828003045161 0
0.8590963607601103 0.07724442150759647 0
0.6544890547101618 0.2519691050098808 0
0.735546542824976 0.2644662206498298 0
0.5719977962986621 0.2300612098572765 0
0.1504851788015452 0.08944165434339302 0
0.7672566713357893 0.3478346619336198 0
0.2527769050677736 0.8800316506290207 0
0.1127104373001728 0.8615105642375829 0
0.4991406516890446 0.66966489858468 0
0.306042848164453 0.4421955789832255 0
0.2548280147683089 0.4096995624319491 0
0.2009700973075408 0.433048931450052 0
0.2056499299774462 0.3706443703060314 0
0.1442955799471317 0.3931330309161609 0
0.2680540361096725 0.3463369623819358 0
0.214536157154172 0.3017878963835999 0
0.2795579512757877 0.2714651621802566 0
0.2163872612890498 0.2299972910699813 0
0.6951965455439254 0.798490241498119 0
0.8247285401762149 0.2720737745139816 0
0.5591042103228643 0.6744600178848649 0
0.4476072158912014 0.9256896013817452 0
0.2767481687928698 0.1886609045664878 0
0.3594110927925483 0.2457494868690727 0
0.7898992092678636 0.1963676677621304 0
0.7744678414716688 0.8297580164609932 0
0.8290210154690536 0.7540317322854717 0
0.8865522865224503 0.2077035179684795 0
0.5502996786942285 0.925868579733061 0
0.1386887620246615 0.9039463257042626 0
0.1967811022383567 0.9133705842742554 0
0.7448389109338447 0.9210385210917719 0
0.5995214719803217 0.8427837884818559 0
0.5370335222690539 0.4964962496879775 0
0.4905583033014779 0.5395441352936742 0
0.3946423152424183 0.8296435587730742 0
0.3818087274098238 0.885287259750198 0
0.09229194827883558 0.7662553792438012 0
0.2630996412342304 0.09428555692029827 0
0.7630028676481238 0.1021164243684815 0
0.5189589145665268 0.6117919032590824 0
0.3116711009938212 0.8947565791201528 0
0.5452131768158041 0.0830502726556005 0
0.4546521464099544 0.08317672707401891 0
0.5032132667971644 0.1681124122404994 0
0.4149497977913271 0.1677109633948318 0
0.9169671533911764 0.5496393070529634 0
0.8378126439874942 0.6022557028912401 0
0.9171546185595122 0.4504787469878097 0
0.8376146450441766 0.4029124291918372 0
0.7661966851081734 0.4403424019400569 0
0.8380963003881456 0.49641404165407 0
0.6267721609581274 0.1797883608012062 0
0.05863095281451403 0.5418356076871748 0
0.0687930150284482 0.4673299734617805 0
0.07656798626188638 0.1532753116829357 0
0.3979627901296647 0.539133813150342 0
0.07969697008703275 0.3380392014000386 0
0.4148761852791369 0.5833901307660423 0
0.9245896118313679 0.8514437190382012 0
0.5039752786423036 0.8620373870775099 0
0.7964486375997875 0.6787644722017468 0
0.4497503665053519 0.670684422854678 0
0.7021230147269584 0.1820751522650883 0
0.5354499402272364 0.3035073186170536 0
0.4798854112658028 0.4719466929023331 0
0.1157345292669189 0.5175764682580564 0
0.1997371561164554 0.4875941087031417 0
0.9191421725395266 0.7521822861017097 0
0.5834053957003525 0.7299855249583543 0
0.4639539072836726 0.5900131425310626 0
0.4060383018390777 0.2929249526356181 0
0.1005892257024523 0.8098735524173077 0
0.4438357883250579 0.2336633925516671 0
0.2564906512746679 0.9414848351874225 0
0.05523944962561211 0.8493818295745007 0
0.05717666610046979 0.7360189397487283 0
0.5857944641966479 0.6217727391182781 0
0.6235957616636536 0.7746382730907264 0
0.1516861841464919 0.3310645826657391 0
0.3421548106999259 0.3915492447740185 0
0.05154345508560038 0.6757408530822363 0
0.2045788807027228 0.1502250470854938 0
0.1470815897293929 0.2011540143493685 0
0.08042316551406614 0.9250588904793006 0
0.507386920744664 0.2458015050755653 0
0.700201677501899 0.4006402660383407 0
0.9192373151765518 0.1353570891022453 0
0.03796649852589934 0.6407056358992763 0
0.4398792184939274 0.5512266375675368 0
0.3509159258685856 0.9483908318841249 0
0.7626144591712705 0.6148524698004454 0
0.2921912330714819 0.8514818967475157 0
0.143771856588337 0.4562835972565391 0
0.9233663904581126 0.2750269210714372 0
0.85087679523774 0.8261257222560892 0
0.9282280300391751 0.9282500828493463 0
0.07320508075688753 0.07320508075688781 0
0.928724151753304 0.0702042516651134 0
0.4761220926785584 0.6320698453171489 0
0.1636654521205199 0.2639709810233303 0
0.3280926757817673 0.3246379570629097 0
0.6094812433055972 0.6780809361023463 0
0.6989422712942092 0.8671930718557959 0
0.4364199976420228 0.8621130801999277 0
0.3424265906019597 0.154507542949912 0
0.5206351037647782 0.8106709093706185 0
0.7102834824281758 0.4739230504513215 0
0.1496169261313837 0.9544008843759038 0
0.8632227334385024 0.6905357253864075 0
0.2998344771048255 0.3828838611268077 0
0.5700479864282149 0.148762381599054 0
0.08483586797802534 0.4053422337728931 0
0.05830661779315177 0.7953730825875849 0
0.8489057911315306 0.3382644164855492 0
0.843526593670352 0.1489146045793194 0
$EndNodes
$Elements
6 512 1 512
1 1 1 10
1 1 9 
2 9 10 
3 10 11 
4 11 12 
5 12 13 
6 13 14 
7 14 15 
8 15 16 
9 16 17 
10 17 2 
1 2 1 10
11 3 18 
12 18 19 
13 19 20 
14 20 21 
15 21 22 
16 22 23 
17 23 24 
18 24 25 
19 25 26 
20 26 1 
1 3 1 10
21 2 27 
22 27 28 
23 28 29 
24 29 30 
25 30 31 
26 31 32 
27 32 33 
28 33 34 
29 34 35 
30 35 4 
1 4 1 10
31 4 36 
32 36 37 
33 37 38 
34 38 39 
35 39 40 
36 40 41 
37 41 42 
38 42 43 
39 43 44 
40 44 3 
2 2 2 90
41 70 82 75 
42 68 88 83 
43 82 93 75 
44 83 94 68 
45 69 90 81 
46 65 89 81 
47 81 90 65 
48 81 91 69 
49 87 92 65 
50 65 92 89 
51 83 88 72 
52 80 93 67 
53 84 94 79 
54 75 85 70 
55 67 91 80 
56 79 92 84 
57 67 93 82 
58 68 94 84 
59 47 82 46 
60 61 73 72 
61 68 84 57 
62 74 83 73 
63 63 66 62 
64 56 84 71 
65 80 81 78 
66 77 83 74 
67 46 82 70 
68 61 72 60 
69 53 65 52 
70 76 77 74 
71 76 80 78 
72 57 84 56 
73 46 70 45 
74 48 67 47 
75 76 78 77 
76 66 73 62 
77 56 71 55 
78 62 73 61 
79 67 82 47 
80 58 68 57 
81 78 79 77 
82 66 74 73 
83 75 76 74 
84 51 69 50 
85 73 83 72 
86 66 75 74 
87 84 92 71 
88 49 86 48 
89 66 85 75 
90 54 87 53 
91 59 88 58 
92 64 85 63 
93 86 91 67 
94 51 90 69 
95 65 90 52 
96 81 89 78 
97 48 86 67 
98 63 85 66 
99 58 88 68 
100 53 87 65 
101 77 94 83 
102 75 93 76 
103 45 95 5 
104 55 96 7 
105 60 98 8 
106 50 97 6 
107 7 96 54 
108 5 95 64 
109 8 98 59 
110 6 97 49 
111 52 90 51 
112 78 89 79 
113 71 92 87 
114 80 91 81 
115 69 91 86 
116 76 93 80 
117 79 94 77 
118 64 95 85 
119 54 96 87 
120 49 97 86 
121 59 98 88 
122 70 95 45 
123 69 97 50 
124 71 96 55 
125 72 98 60 
126 89 92 79 
127 85 95 70 
128 87 96 71 
129 86 97 69 
130 88 98 72 
2 3 2 382
131 107 151 64 
132 141 173 167 
133 181 205 108 
134 202 248 174 
135 180 247 164 
136 174 248 136 
137 179 255 218 
138 22 195 21 
139 174 220 160 
140 132 207 176 
141 131 193 189 
142 192 193 131 
143 64 151 5 
144 166 205 181 
145 160 245 174 
146 176 231 132 
147 150 182 162 
148 164 224 180 
149 189 193 188 
150 108 205 194 
151 167 237 141 
152 6 133 50 
153 163 170 40 
154 131 249 192 
155 163 232 178 
156 50 177 51 
157 136 220 174 
158 182 219 162 
159 127 247 180 
160 163 202 170 
161 208 235 117 
162 181 257 166 
163 185 187 127 
164 110 243 213 
165 170 202 174 
166 222 252 243 
167 54 172 7 
168 107 152 151 
169 106 207 103 
170 218 255 19 
171 133 177 50 
172 213 243 165 
173 28 236 169 
174 183 232 216 
175 211 244 139 
176 12 185 127 
177 176 207 175 
178 148 172 54 
179 169 229 28 
180 114 175 112 
181 30 190 101 
182 103 207 132 
183 191 193 192 
184 170 174 115 
185 145 227 186 
186 222 243 110 
187 51 177 137 
188 139 220 211 
189 39 170 115 
190 211 220 136 
191 190 191 101 
192 196 235 208 
193 188 193 190 
194 224 225 146 
195 20 218 19 
196 174 245 115 
197 37 173 141 
198 186 253 145 
199 41 163 40 
200 138 176 175 
201 159 224 164 
202 187 215 165 
203 191 192 147 
204 171 250 226 
205 41 232 163 
206 184 186 185 
207 146 225 197 
208 39 115 38 
209 124 138 121 
210 121 175 114 
211 15 181 108 
212 189 233 131 
213 104 189 188 
214 186 187 185 
215 138 175 121 
216 187 247 127 
217 142 257 181 
218 138 182 176 
219 165 247 187 
220 122 242 221 
221 10 180 146 
222 122 221 199 
223 40 170 39 
224 115 173 38 
225 236 256 161 
226 184 185 13 
227 108 184 14 
228 175 207 112 
229 188 190 31 
230 104 188 32 
231 13 185 12 
232 15 108 14 
233 12 127 11 
234 33 104 32 
235 31 190 30 
236 127 180 11 
237 25 122 24 
238 189 251 203 
239 30 101 29 
240 173 245 167 
241 37 141 36 
242 194 253 108 
243 186 215 187 
244 104 251 189 
245 142 181 16 
246 14 184 13 
247 33 210 104 
248 16 181 15 
249 190 193 191 
250 32 188 31 
251 112 207 106 
252 201 237 210 
253 169 236 161 
254 138 219 182 
255 171 226 149 
256 210 237 168 
257 123 124 121 
258 10 146 9 
259 11 180 10 
260 196 208 195 
261 120 121 114 
262 108 253 184 
263 24 199 23 
264 17 142 16 
265 164 165 158 
266 3 226 44 
267 38 173 37 
268 130 134 124 
269 25 197 122 
270 134 219 124 
271 26 197 25 
272 120 123 121 
273 186 227 215 
274 122 199 24 
275 128 145 143 
276 135 139 134 
277 165 243 158 
278 123 130 124 
279 164 247 165 
280 128 206 145 
281 243 252 156 
282 144 147 129 
283 23 196 22 
284 165 215 213 
285 201 210 34 
286 111 112 106 
287 5 99 45 
288 47 100 48 
289 183 216 148 
290 140 160 139 
291 46 200 47 
292 130 135 134 
293 35 201 34 
294 45 198 46 
295 107 153 152 
296 18 226 3 
297 116 150 126 
298 216 232 42 
299 145 194 143 
300 113 114 112 
301 144 166 161 
302 166 169 161 
303 149 226 217 
304 22 196 195 
305 119 120 114 
306 134 244 219 
307 135 140 139 
308 145 253 194 
309 103 132 99 
310 144 161 147 
311 192 228 147 
312 140 168 167 
313 29 236 28 
314 113 128 119 
315 167 245 160 
316 140 167 160 
317 177 246 178 
318 159 164 158 
319 48 204 49 
320 113 119 114 
321 111 113 112 
322 123 131 130 
323 4 238 35 
324 128 143 129 
325 27 240 2 
326 143 144 129 
327 135 203 140 
328 128 129 119 
329 36 238 4 
330 2 240 17 
331 1 239 26 
332 9 239 1 
333 150 162 126 
334 124 219 138 
335 5 102 99 
336 109 111 106 
337 34 210 33 
338 180 224 146 
339 157 158 156 
340 47 200 100 
341 99 198 45 
342 235 254 155 
343 154 156 152 
344 63 107 64 
345 199 254 23 
346 148 216 172 
347 20 230 223 
348 49 116 6 
349 144 205 166 
350 182 212 176 
351 198 200 46 
352 109 118 111 
353 105 110 109 
354 147 256 191 
355 157 159 158 
356 229 257 142 
357 140 203 168 
358 147 228 129 
359 102 103 99 
360 19 217 18 
361 117 235 209 
362 196 254 235 
363 105 106 103 
364 62 209 63 
365 105 109 106 
366 194 205 143 
367 132 198 99 
368 177 178 137 
369 5 151 102 
370 8 230 21 
371 100 204 48 
372 102 105 103 
373 226 250 44 
374 143 205 144 
375 133 248 202 
376 178 183 137 
377 101 256 236 
378 178 246 163 
379 139 244 134 
380 219 244 162 
381 210 251 104 
382 111 206 113 
383 61 117 62 
384 199 221 155 
385 113 206 128 
386 200 212 100 
387 51 137 52 
388 116 204 150 
389 154 157 156 
390 43 216 42 
391 228 249 120 
392 172 216 43 
393 153 154 152 
394 150 241 182 
395 142 240 229 
396 44 250 43 
397 118 206 111 
398 126 136 125 
399 116 125 6 
400 116 126 125 
401 160 220 139 
402 209 235 153 
403 119 228 120 
404 125 133 6 
405 53 148 54 
406 153 155 154 
407 162 211 126 
408 202 246 133 
409 206 227 145 
410 107 209 153 
411 115 245 173 
412 7 149 55 
413 49 204 116 
414 184 253 186 
415 213 215 118 
416 141 237 201 
417 109 213 118 
418 135 233 203 
419 23 254 196 
420 203 233 189 
421 131 233 130 
422 101 236 29 
423 110 213 109 
424 55 214 56 
425 126 211 136 
426 42 232 41 
427 60 208 61 
428 52 234 53 
429 105 222 110 
430 197 225 122 
431 28 229 27 
432 148 234 183 
433 161 256 147 
434 123 249 131 
435 155 254 199 
436 63 209 107 
437 56 179 57 
438 26 239 197 
439 141 238 36 
440 118 227 206 
441 129 228 119 
442 198 231 200 
443 7 172 171 
444 192 249 228 
445 183 234 137 
446 146 239 9 
447 191 256 101 
448 117 209 62 
449 17 240 142 
450 154 221 157 
451 102 222 105 
452 130 233 135 
453 57 218 58 
454 157 242 159 
455 59 230 8 
456 8 195 60 
457 215 227 118 
458 197 239 146 
459 43 250 172 
460 159 225 224 
461 156 252 152 
462 7 171 149 
463 155 221 154 
464 201 238 141 
465 58 223 59 
466 151 222 102 
467 100 241 204 
468 158 243 156 
469 200 231 212 
470 168 251 210 
471 178 232 183 
472 132 231 198 
473 168 237 167 
474 137 234 52 
475 35 238 201 
476 61 208 117 
477 53 234 148 
478 169 257 229 
479 152 252 151 
480 153 235 155 
481 212 241 100 
482 120 249 123 
483 149 214 55 
484 212 231 176 
485 163 246 202 
486 133 246 177 
487 204 241 150 
488 159 242 225 
489 166 257 169 
490 136 248 125 
491 125 248 133 
492 149 217 214 
493 56 214 179 
494 162 244 211 
495 19 255 217 
496 217 226 18 
497 203 251 168 
498 195 208 60 
499 229 240 27 
500 225 242 122 
501 179 218 57 
502 182 241 212 
503 223 230 59 
504 221 242 157 
505 218 223 58 
506 172 250 171 
507 151 252 222 
508 20 223 218 
509 217 255 214 
510 214 255 179 
511 21 230 20 
512 21 195 8 
$EndElements
