$MeshFormat
4.1 0 8
$EndMeshFormat
$PhysicalNames
3
1 101 "outer_boundary"
2 1 "material_1"
2 2 "material_2"
$EndPhysicalNames
$Entities
8 8 2 0
1 0 0 0 0 
2 1 0 0 0 
3 0 1 0 0 
4 1 1 0 0 
5 0.5189672287876184 0.5294142657701397 0 0 
6 0.732605886512812 0.6577806388071841 0 0 
7 0.6042395134757677 0.8714192965323777 0 0 
8 0.3906008557505739 0.7430529234953334 0 0 
1 -9.999999994736442e-08 -1e-07 -1e-07 1.0000001 1e-07 1e-07 1 101 2 1 -2 
2 -1e-07 -9.999999994736442e-08 -1e-07 1e-07 1.0000001 1e-07 1 101 2 3 -1 
3 0.9999999000000001 -9.999999994736442e-08 -1e-07 1.0000001 1.0000001 1e-07 1 101 2 2 -4 
4 -9.999999994736442e-08 0.9999999000000001 -1e-07 1.0000001 1.0000001 1e-07 1 101 2 4 -3 
5 0.5189671287876184 0.5294141657701398 -1e-07 0.7326059865128119 0.657780738807184 1e-07 0 2 5 -6 
6 0.6042394134757677 0.6577805388071841 -1e-07 0.7326059865128119 0.8714193965323777 1e-07 0 2 6 -7 
7 0.3906007557505739 0.7430528234953334 -1e-07 0.6042396134757676 0.8714193965323777 1e-07 0 2 7 -8 
8 0.3906007557505739 0.5294141657701398 -1e-07 0.5189673287876183 0.7430530234953333 1e-07 0 2 8 -5 
2 0.3906007557505739 0.5294141657701398 -1e-07 0.7326059865128119 0.8714193965323777 1e-07 1 2 4 5 6 7 8 
3 -9.999999994736442e-08 -9.999999994736442e-08 -1e-07 1.0000001 1.0000001 1e-07 1 1 8 1 3 4 2 -5 -8 -7 -6 
$EndEntities
$Nodes
18 163 1 163
0 1 0 1
1
0 0 0
0 2 0 1
2
1 0 0
0 3 0 1
3
0 1 0
0 4 0 1
4
1 1 0
0 5 0 1
5
0.5189672287876184 0.5294142657701397 0
0 6 0 1
6
0.732605886512812 0.6577806388071841 0
0 7 0 1
7
0.6042395134757677 0.8714192965323777 0
0 8 0 1
8
0.3906008557505739 0.7430529234953334 0
1 1 0 7
9
10
11
12
13
14
15
0.1249999999999999 0 0
0.2499999999999998 0 0
0.3749999999999993 0 0
0.4999999999999988 0 0
0.6249999999999988 0 0
0.7499999999999991 0 0
0.8749999999999997 0 0
1 2 0 7
16
17
18
19
20
21
22
0 0.8750000000000001 0
0 0.7500000000000002 0
0 0.6250000000000007 0
0 0.5000000000000012 0
0 0.3750000000000012 0
0 0.2500000000000009 0
0 0.1250000000000003 0
1 3 0 7
23
24
25
26
27
28
29
1 0.1249999999999999 0
1 0.2499999999999998 0
1 0.3749999999999993 0
1 0.4999999999999988 0
1 0.6249999999999988 0
1 0.7499999999999991 0
1 0.8749999999999997 0
1 4 0 7
30
31
32
33
34
35
36
0.8750000000000001 1 0
0.7500000000000002 1 0
0.6250000000000007 1 0
0.5000000000000012 1 0
0.3750000000000012 1 0
0.2500000000000009 1 0
0.1250000000000003 1 0
1 5 0 3
37
38
39
0.5723768932189166 0.5615058590294008 0
0.6257865576502151 0.5935974522886618 0
0.6791962220815135 0.6256890455479229 0
1 6 0 3
40
41
42
0.700514293253551 0.7111903032384823 0
0.6684226999942899 0.7645999676697808 0
0.6363311067350288 0.8180096321010792 0
1 7 0 3
43
44
45
0.5508298490444694 0.8393277032731167 0
0.4974201846131709 0.8072361100138556 0
0.4440105201818724 0.7751445167545945 0
1 8 0 3
46
47
48
0.4226924490098349 0.6896432590640351 0
0.4547840422690961 0.6362335946327367 0
0.4868756355283572 0.5828239302014382 0
2 2 0 14
49
50
51
52
53
54
55
56
57
58
59
60
61
62
0.627716772150831 0.6505699787718022 0
0.6054224077235831 0.7662631933291746 0
0.4978773899344363 0.7461463562383185 0
0.5238631371851595 0.6444180976051651 0
0.5487980346105137 0.7805576697935539 0
0.5539286941228363 0.7159239518196183 0
0.5771082745588028 0.6192242836123829 0
0.6291932337371643 0.7078832469031345 0
0.4845794390634651 0.6915594239534285 0
0.5823620223509588 0.6676039117424206 0
0.4531921204911028 0.7274470122780327 0
0.6700146217722832 0.6733865500244848 0
0.5886336022584669 0.8088280317918489 0
0.5358382338557709 0.5874772872437053 0
2 3 0 101
63
64
65
66
67
68
69
70
71
72
73
74
75
76
77
78
79
80
81
82
83
84
85
86
87
88
89
90
91
92
93
94
95
96
97
98
99
100
101
102
103
104
105
106
107
108
109
110
111
112
113
114
115
116
117
118
119
120
121
122
123
124
125
126
127
128
129
130
131
132
133
134
135
136
137
138
139
140
141
142
143
144
145
146
147
148
149
150
151
152
153
154
155
156
157
158
159
160
161
162
163
0.563054945801421 0.494202088030099 0
0.4538819701748963 0.532143480567794 0
0.3098716627112658 0.1122158979742187 0
0.358096435690591 0.6850785989027135 0
0.6840194948202901 0.5577430223383024 0
0.6942055522564856 0.1031659970364782 0
0.3297043595682433 0.7480853901035854 0
0.09501597609230744 0.4306707061468638 0
0.730722622829027 0.7656872704645691 0
0.2864222264091232 0.6809368212402004 0
0.9087076471335943 0.3180243751810956 0
0.4935610424826442 0.4766540352796256 0
0.5428750653026952 0.4236531503706825 0
0.4169943896118457 0.4740415305092717 0
0.6194735451391086 0.4456242185730049 0
0.5997680273302473 0.3672557573696931 0
0.5165023116167891 0.348810201098403 0
0.2509539231276339 0.7529711378830053 0
0.3805148928155168 0.8031007094161127 0
0.3281397772298449 0.6173665311973806 0
0.2513358287286372 0.6083891258382366 0
0.6805795933895548 0.3868918766949326 0
0.5765935209733112 0.28501007812969 0
0.4903744439984252 0.2689360374034643 0
0.8909196482947916 0.5463984619550033 0
0.2970400061208696 0.5400071511513681 0
0.1019393246034848 0.1845304602800274 0
0.429662613252462 0.3334861414060847 0
0.8871116777126513 0.8149612194273509 0
0.5488956809167848 0.1983592643883531 0
0.6610090933510413 0.8812335020809767 0
0.3990068252022242 0.253493632714607 0
0.3413380714082135 0.3202520789626407 0
0.3035514862918904 0.8241811960536836 0
0.1970461949947095 0.8385447953540088 0
0.1067967871423718 0.6825555666632805 0
0.4962983275453212 0.8644045336672836 0
0.2132423466631789 0.5388251769739231 0
0.2616117338219336 0.4578430968768529 0
0.7001254613570905 0.4794258563971486 0
0.7513885414464214 0.4122975079394429 0
0.7425475765170876 0.3298984300890264 0
0.896581286474158 0.7051016704014896 0
0.7939066004661821 0.4909467713313382 0
0.8995832057018981 0.4439186151018118 0
0.7956482972351535 0.5880868229287309 0
0.3110248563613738 0.2309035813070311 0
0.2381408863001224 0.3122298689126659 0
0.6451501088110552 0.2097816984970408 0
0.1063001450962758 0.5621740988339093 0
0.113461652944341 0.3076411991282917 0
0.8122601245567188 0.1003879201267086 0
0.4209382105957739 0.1010848401882904 0
0.09346427073363528 0.7989379351989672 0
0.3800798510196409 0.5542812536545334 0
0.8215035523554213 0.9068718903158974 0
0.8132160952709769 0.7493074027816482 0
0.1841650517743011 0.1020713053444203 0
0.8849312475848164 0.1915595749276181 0
0.3701898655427165 0.8856256288480184 0
0.6274728163311736 0.5220164161094363 0
0.7535242407999768 0.1922051086135943 0
0.7254720388787578 0.5921266585658854 0
0.81006014414748 0.6723582023351924 0
0.3946386153264811 0.6299375556258247 0
0.7628142160882879 0.7122776060332707 0
0.2054122341189853 0.6795042422807845 0
0.5821511253566087 0.09690759295853718 0
0.3813914540966276 0.3999140047420539 0
0.6994003895263324 0.8211318120793182 0
0.6565763049624471 0.3082638212104793 0
0.7782801794426746 0.8252593591865947 0
0.4381682718551331 0.8453163813420208 0
0.5328417409622238 0.9081306505151356 0
0.2097672391158147 0.2082653854911092 0
0.4634978127271773 0.4094265105676869 0
0.3420277270080951 0.4749783559568444 0
0.28031137200479 0.9128435286119736 0
0.4340520228636944 0.5870839629364654 0
0.9117778104413894 0.9119622776969629 0
0.4520830343175661 0.9172461990620764 0
0.8108476899752832 0.2697786761903907 0
0.1876608687754362 0.9295251783712826 0
0.4578006416385096 0.1906139149738786 0
0.09710150381197891 0.9036468328256099 0
0.3753683913336759 0.1715490812906504 0
0.7379025819110989 0.536605223975141 0
0.168642196937385 0.7496090030261082 0
0.1861225616165029 0.3830782407548544 0
0.7360636460947344 0.8945709910715873 0
0.90849364905389 0.09150635094610993 0
0.09150635094610987 0.09150635094610998 0
0.1867890635904063 0.4538862547575239 0
0.1757420931310544 0.6115777815581989 0
0.3020174192029119 0.389572916217217 0
0.8309954531920558 0.3795617865148593 0
0.6835155787802232 0.9485515187489746 0
0.8786418752303167 0.627389031524083 0
0.601100987761543 0.9348891613129108 0
0.5019571317015351 0.1173931225018119 0
0.7104041853244194 0.2580633904624516 0
$EndNodes
$Elements
6 324 1 324
1 1 1 8
1 1 9 
2 9 10 
3 10 11 
4 11 12 
5 12 13 
6 13 14 
7 14 15 
8 15 2 
1 2 1 8
9 3 16 
10 16 17 
11 17 18 
12 18 19 
13 19 20 
14 20 21 
15 21 22 
16 22 1 
1 3 1 8
17 2 23 
18 23 24 
19 24 25 
20 25 26 
21 26 27 
22 27 28 
23 28 29 
24 29 4 
1 4 1 8
25 4 30 
26 30 31 
27 31 32 
28 32 33 
29 33 34 
30 34 35 
31 35 36 
32 36 3 
2 2 2 42
33 54 57 52 
34 54 56 50 
35 52 58 54 
36 54 58 56 
37 51 57 54 
38 53 54 50 
39 56 58 49 
40 39 49 38 
41 42 50 41 
42 45 51 44 
43 48 52 47 
44 55 58 52 
45 44 53 43 
46 41 56 40 
47 38 55 37 
48 47 57 46 
49 51 54 53 
50 51 53 44 
51 49 55 38 
52 50 56 41 
53 52 57 47 
54 8 59 45 
55 40 60 6 
56 43 61 7 
57 46 59 8 
58 37 62 5 
59 6 60 39 
60 7 61 42 
61 5 62 48 
62 57 59 46 
63 56 60 40 
64 53 61 43 
65 55 62 37 
66 45 59 51 
67 39 60 49 
68 42 61 50 
69 48 62 52 
70 49 60 56 
71 50 61 53 
72 51 59 57 
73 52 62 55 
74 49 58 55 
2 3 2 250
75 109 137 65 
76 67 123 102 
77 112 155 100 
78 106 107 87 
79 87 108 106 
80 102 123 77 
81 65 137 120 
82 6 125 108 
83 70 155 112 
84 27 160 87 
85 105 160 27 
86 151 157 101 
87 5 74 63 
88 91 134 119 
89 108 126 6 
90 92 130 111 
91 111 130 68 
92 74 75 63 
93 103 158 106 
94 64 117 76 
95 70 112 19 
96 113 137 110 
97 121 144 124 
98 118 134 91 
99 106 158 107 
100 25 107 73 
101 121 124 114 
102 136 143 99 
103 107 158 73 
104 91 105 28 
105 74 138 75 
106 110 157 151 
107 75 138 79 
108 27 87 26 
109 87 107 26 
110 101 155 151 
111 20 113 70 
112 11 115 65 
113 102 149 67 
114 117 139 76 
115 97 147 116 
116 77 123 63 
117 144 158 104 
118 29 91 28 
119 136 161 33 
120 14 114 68 
121 91 119 105 
122 28 105 27 
123 18 98 17 
124 145 147 97 
125 89 137 113 
126 18 112 98 
127 20 70 19 
128 14 68 13 
129 12 115 11 
130 11 65 10 
131 119 134 71 
132 130 162 12 
133 8 81 69 
134 89 113 21 
135 68 124 111 
136 34 140 122 
137 98 116 17 
138 26 107 25 
139 21 113 20 
140 25 73 24 
141 12 162 115 
142 19 112 18 
143 110 151 113 
144 104 158 103 
145 15 114 14 
146 71 128 119 
147 22 89 21 
148 65 120 10 
149 3 147 36 
150 17 116 16 
151 117 127 82 
152 114 124 68 
153 31 118 30 
154 65 148 109 
155 88 117 82 
156 96 97 80 
157 73 121 24 
158 33 143 136 
159 108 149 106 
160 81 96 69 
161 16 147 3 
162 24 121 23 
163 10 120 9 
164 69 96 80 
165 13 130 12 
166 35 140 34 
167 79 90 86 
168 100 156 112 
169 75 77 63 
170 84 102 77 
171 64 141 117 
172 117 141 127 
173 88 139 117 
174 93 161 7 
175 103 106 102 
176 115 148 65 
177 113 151 70 
178 90 95 94 
179 79 138 90 
180 30 142 4 
181 5 63 37 
182 68 130 13 
183 4 142 29 
184 116 150 97 
185 48 64 5 
186 33 161 32 
187 72 82 66 
188 125 149 108 
189 90 94 86 
190 37 123 38 
191 112 156 98 
192 119 126 105 
193 83 88 82 
194 95 110 109 
195 92 111 85 
196 2 153 15 
197 23 153 2 
198 38 67 39 
199 75 79 78 
200 9 154 1 
201 1 154 22 
202 100 101 88 
203 8 66 46 
204 46 127 47 
205 73 158 144 
206 84 103 102 
207 79 86 85 
208 95 109 94 
209 97 150 80 
210 40 71 41 
211 135 143 122 
212 39 125 6 
213 76 139 131 
214 99 143 135 
215 91 142 118 
216 83 100 88 
217 29 142 91 
218 79 85 78 
219 131 138 76 
220 120 137 89 
221 86 92 85 
222 75 78 77 
223 126 128 6 
224 64 74 5 
225 31 152 118 
226 72 83 82 
227 78 84 77 
228 84 104 103 
229 81 135 122 
230 63 123 37 
231 90 131 95 
232 41 132 42 
233 6 128 40 
234 81 122 96 
235 139 157 131 
236 96 140 97 
237 38 123 67 
238 111 133 85 
239 95 157 110 
240 82 127 66 
241 98 156 129 
242 110 137 109 
243 64 76 74 
244 47 141 48 
245 116 147 16 
246 72 129 83 
247 98 150 116 
248 66 127 46 
249 32 159 31 
250 42 93 7 
251 76 138 74 
252 48 141 64 
253 101 139 88 
254 69 80 72 
255 73 144 121 
256 67 125 39 
257 69 72 66 
258 45 81 8 
259 106 149 102 
260 80 129 72 
261 44 135 45 
262 127 141 47 
263 121 153 23 
264 34 143 33 
265 90 138 131 
266 85 133 78 
267 120 154 9 
268 43 99 44 
269 7 136 43 
270 84 133 104 
271 87 160 108 
272 15 153 114 
273 109 148 94 
274 36 145 35 
275 78 133 84 
276 8 69 66 
277 86 146 92 
278 119 128 126 
279 22 154 89 
280 118 142 30 
281 104 163 144 
282 132 152 93 
283 114 153 121 
284 101 157 139 
285 71 132 41 
286 40 128 71 
287 122 140 96 
288 89 154 120 
289 122 143 34 
290 134 152 132 
291 94 146 86 
292 124 163 111 
293 144 163 124 
294 83 156 100 
295 140 145 97 
296 126 160 105 
297 159 161 93 
298 71 134 132 
299 42 132 93 
300 67 149 125 
301 100 155 101 
302 92 162 130 
303 31 159 152 
304 129 150 98 
305 80 150 129 
306 129 156 83 
307 94 148 146 
308 45 135 81 
309 36 147 145 
310 99 135 44 
311 108 160 126 
312 43 136 99 
313 131 157 95 
314 7 161 136 
315 35 145 140 
316 146 148 115 
317 152 159 93 
318 118 152 134 
319 111 163 133 
320 146 162 92 
321 151 155 70 
322 133 163 104 
323 115 162 146 
324 32 161 159 
$EndElements
