$MeshFormat
4.1 0 8
$EndMeshFormat
$PhysicalNames
3
1 101 "outer_boundary"
2 1 "material_1"
2 2 "material_2"
$EndPhysicalNames
$Entities
8 8 2 0
1 0 0 0 0 
2 1 0 0 0 
3 0 1 0 0 
4 1 1 0 0 
5 0.6588769540795144 0.3626825166318691 0 0 
6 0.8159555053268549 0.45964520520251 0 0 
7 0.718992816756214 0.6167237564498504 0 0 
8 0.5619142655088735 0.5197610678792095 0 0 
1 -9.999999994736442e-08 -1e-07 -1e-07 1.0000001 1e-07 1e-07 1 101 2 1 -2 
2 -1e-07 -9.999999994736442e-08 -1e-07 1e-07 1.0000001 1e-07 1 101 2 3 -1 
3 0.9999999000000001 -9.999999994736442e-08 -1e-07 1.0000001 1.0000001 1e-07 1 101 2 2 -4 
4 -9.999999994736442e-08 0.9999999000000001 -1e-07 1.0000001 1.0000001 1e-07 1 101 2 4 -3 
5 0.6588768540795145 0.3626824166318691 -1e-07 0.8159556053268548 0.45964530520251 1e-07 0 2 5 -6 
6 0.718992716756214 0.45964510520251 -1e-07 0.8159556053268548 0.6167238564498504 1e-07 0 2 6 -7 
7 0.5619141655088735 0.5197609678792096 -1e-07 0.7189929167562139 0.6167238564498504 1e-07 0 2 7 -8 
8 0.5619141655088735 0.3626824166318691 -1e-07 0.6588770540795144 0.5197611678792095 1e-07 0 2 8 -5 
2 0.5619141655088735 0.3626824166318691 -1e-07 0.8159556053268548 0.6167238564498504 1e-07 1 2 4 5 6 7 8 
3 -9.999999994736442e-08 -9.999999994736442e-08 -1e-07 1.0000001 1.0000001 1e-07 1 1 8 1 3 4 2 -5 -8 -7 -6 
$EndEntities
$Nodes
18 247 1 247
0 1 0 1
1
0 0 0
0 2 0 1
2
1 0 0
0 3 0 1
3
0 1 0
0 4 0 1
4
1 1 0
0 5 0 1
5
0.6588769540795144 0.3626825166318691 0
0 6 0 1
6
0.8159555053268549 0.45964520520251 0
0 7 0 1
7
0.718992816756214 0.6167237564498504 0
0 8 0 1
8
0.5619142655088735 0.5197610678792095 0
1 1 0 9
9
10
11
12
13
14
15
16
17
0.09999999999999996 0 0
0.1999999999999999 0 0
0.3000000000000001 0 0
0.4000000000000004 0 0
0.5000000000000003 0 0
0.5999999999999999 0 0
0.6999999999999995 0 0
0.7999999999999992 0 0
0.899999999999999 0 0
1 2 0 9
18
19
20
21
22
23
24
25
26
0 0.9 0
0 0.8 0
0 0.7 0
0 0.5999999999999996 0
0 0.4999999999999997 0
0 0.4000000000000001 0
0 0.3000000000000005 0
0 0.2000000000000008 0
0 0.100000000000001 0
1 3 0 9
27
28
29
30
31
32
33
34
35
1 0.09999999999999996 0
1 0.1999999999999999 0
1 0.3000000000000001 0
1 0.4000000000000004 0
1 0.5000000000000003 0
1 0.5999999999999999 0
1 0.6999999999999995 0
1 0.7999999999999992 0
1 0.899999999999999 0
1 4 0 9
36
37
38
39
40
41
42
43
44
0.9 1 0
0.8 1 0
0.7 1 0
0.5999999999999996 1 0
0.4999999999999997 1 0
0.4000000000000001 1 0
0.3000000000000005 1 0
0.2000000000000008 1 0
0.100000000000001 1 0
1 5 0 3
45
46
47
0.6981465918913494 0.3869231887745292 0
0.7374162297031844 0.4111638609171894 0
0.7766858675150196 0.4354045330598496 0
1 6 0 3
48
49
50
0.7917148331841948 0.498914843014345 0
0.7674741610415345 0.53818448082618 0
0.7432334888988743 0.5774541186380151 0
1 7 0 3
51
52
53
0.6797231789443789 0.5924830843071903 0
0.6404535411325439 0.5682424121645301 0
0.6011839033207088 0.5440017400218699 0
1 8 0 3
54
55
56
0.5861549376515336 0.4804914300673745 0
0.6103956097941938 0.4412217922555395 0
0.6346362819368541 0.4019521544437044 0
2 2 0 14
57
58
59
60
61
62
63
64
65
66
67
68
69
70
0.7307417467956218 0.4622502701702008 0
0.7252639360040064 0.5391082810884191 0
0.6397809719734762 0.5215704740786067 0
0.6556338075368446 0.4421026279372861 0
0.6296972741743996 0.479508341007748 0
0.6775186026809947 0.4838817308518537 0
0.6961781939281654 0.4327388592655899 0
0.7489273426853278 0.5019065294073524 0
0.6828053897839231 0.5396930135623895 0
0.7130514035899748 0.5053679650160431 0
0.6084070392000116 0.5087591014241651 0
0.7079908503011696 0.5702309827587122 0
0.6698789205345588 0.4091752903230073 0
0.7728050591014037 0.4716242761708515 0
2 3 0 177
71
72
73
74
75
76
77
78
79
80
81
82
83
84
85
86
87
88
89
90
91
92
93
94
95
96
97
98
99
100
101
102
103
104
105
106
107
108
109
110
111
112
113
114
115
116
117
118
119
120
121
122
123
124
125
126
127
128
129
130
131
132
133
134
135
136
137
138
139
140
141
142
143
144
145
146
147
148
149
150
151
152
153
154
155
156
157
158
159
160
161
162
163
164
165
166
167
168
169
170
171
172
173
174
175
176
177
178
179
180
181
182
183
184
185
186
187
188
189
190
191
192
193
194
195
196
197
198
199
200
201
202
203
204
205
206
207
208
209
210
211
212
213
214
215
216
217
218
219
220
221
222
223
224
225
226
227
228
229
230
231
232
233
234
235
236
237
238
239
240
241
242
243
244
245
246
247
0.539275930462991 0.4779011302527955 0
0.5144032402263495 0.5191474981573821 0
0.4898523699609358 0.4751915929421205 0
0.610299125387933 0.3611474620620921 0
0.4615966640773241 0.5194919586371249 0
0.599044645159296 0.5943916533972173 0
0.4352269101637325 0.4712856566848471 0
0.4046731723759578 0.5198133250752864 0
0.4345246270588086 0.570368471734917 0
0.692311977315923 0.3366562386219439 0
0.3756276880460293 0.4673921565616648 0
0.4104590475478962 0.416290287381326 0
0.3731788852165041 0.5715771422827133 0
0.3459084411596329 0.4108490752345065 0
0.4070578273542593 0.6291594854063147 0
0.3852786892843602 0.3529600239244056 0
0.3352825509515147 0.6280240192243279 0
0.6783649599699431 0.6386119243209833 0
0.7208036245223748 0.6623829504474422 0
0.67406630837213 0.6901502250368925 0
0.7830721855872633 0.3847445966610454 0
0.3123492219007917 0.348180751561102 0
0.7204429178237428 0.7205403524405786 0
0.3109906798638548 0.4631050527095328 0
0.3724103719024158 0.6905830650776281 0
0.297341614736803 0.6924625078449831 0
0.4456345360794031 0.6887710452601483 0
0.5548708406190971 0.08391602187974173 0
0.2590066025147341 0.6237457532724884 0
0.668478176012229 0.749486369784349 0
0.3533627710568965 0.2868575687792732 0
0.4286703555397925 0.2939509941997535 0
0.2757378114663329 0.2804531321380344 0
0.75104074257348 0.08747983403604431 0
0.7925117287607626 0.584358533032482 0
0.7721276765842793 0.6872514381245837 0
0.773338052621887 0.7543726735443832 0
0.410343866322823 0.7546153728327983 0
0.9279927431381447 0.2487580778794214 0
0.2335703742421741 0.347211849046041 0
0.5173126951970444 0.4361802151014953 0
0.4852798120348159 0.7508136978476619 0
0.6432946508638322 0.3209461673605089 0
0.6830487880248892 0.2831095251898338 0
0.7337107391341584 0.3023849445267134 0
0.6267702678589565 0.2719042760749663 0
0.3963816594446402 0.2241484684039978 0
0.21735588076531 0.6921583029510028 0
0.2581241357885468 0.7628875372735903 0
0.8378436731979879 0.5002730619887809 0
0.4725115422300216 0.2322393938103134 0
0.1938269582465934 0.2757028658296271 0
0.2392977495563029 0.2119303630809451 0
0.07823786450621817 0.5455985419361269 0
0.8521092448123899 0.9250338015209056 0
0.08015508509388986 0.8540276824695636 0
0.4502795321901349 0.8198875619433784 0
0.536312279648254 0.8191843409683015 0
0.7235180498084779 0.2387235627584071 0
0.6169173367796167 0.7081317448798788 0
0.8327739827663496 0.7204492304865604 0
0.6544722079270395 0.9087685337185551 0
0.5127720720551031 0.2946582999766689 0
0.866683876773863 0.4585254368031993 0
0.08892624949102401 0.1481794412283267 0
0.4404624212392919 0.1609804409999898 0
0.365222601601105 0.154544667992485 0
0.3716331408107126 0.8240743972532463 0
0.1491702803262677 0.3479767220326174 0
0.1926217151529117 0.4137017721023017 0
0.7777165885257782 0.261346297883886 0
0.5151749950432678 0.686563891055089 0
0.2497704362259431 0.9130482050653789 0
0.5323614587664258 0.5645459036467818 0
0.8396197915390037 0.7952126820419061 0
0.7664378364097658 0.8285084756800564 0
0.536848382827084 0.2369918654753738 0
0.5784405422570462 0.3187822360792416 0
0.5680520312242062 0.3663766710260643 0
0.8260629703633977 0.4102160294716456 0
0.8275243962034297 0.3506793104403569 0
0.8945621402245482 0.3859870937082922 0
0.8993556961308238 0.5068770185396637 0
0.1770774064906316 0.7617582527517821 0
0.1253027412412411 0.6927863802801316 0
0.8256840397291714 0.6400221518314934 0
0.7704724007343975 0.1822038199196925 0
0.6953574900994152 0.1632527451620747 0
0.8349782750962538 0.1287619285248091 0
0.2494617465176257 0.07816837378496017 0
0.6473247291323816 0.08388967961700639 0
0.6137724162359873 0.1568127177887048 0
0.6083493777283225 0.7805812107116209 0
0.663081872475989 0.8198599895929504 0
0.8907045204200782 0.6808344849138414 0
0.8861842337301935 0.6060006088800894 0
0.5502068358147182 0.9140389060592162 0
0.1052279728139963 0.2813694935526608 0
0.4603110956660988 0.3585546778016642 0
0.1037768859024768 0.414298352289061 0
0.4789639265828896 0.624751681802983 0
0.4139949669331539 0.8951300573735678 0
0.5474860056062771 0.6216288448184696 0
0.5969204748357475 0.6481683492463496 0
0.9167494921585293 0.1608722887660099 0
0.7538810842684434 0.9131816822473005 0
0.8457378905488806 0.2262096348443182 0
0.5254997135672322 0.1668489487303114 0
0.5556179288891953 0.7396078934505211 0
0.1520858072475173 0.07361728594708694 0
0.1530037204162158 0.9082842039736045 0
0.9090193391491944 0.8521922839674074 0
0.6024845147188647 0.8484865962101289 0
0.565125726053995 0.4399630059902917 0
0.5896027526153881 0.4023417697621615 0
0.1769116782825265 0.6243212362282712 0
0.2228343485212895 0.5475205501763996 0
0.3019661278564175 0.5665787465609741 0
0.9321203426258469 0.4502779098102312 0
0.639009562727972 0.6159862075810274 0
0.7372578075319303 0.3589298562204085 0
0.9177654119683223 0.761027375586645 0
0.0888278234724722 0.7727466165165957 0
0.3341705452236796 0.759066806022654 0
0.4644729272227476 0.07824659195042855 0
0.1491404001181394 0.2124599667715621 0
0.7622255625419461 0.6280321580873112 0
0.8149910196871737 0.5409998584047369 0
0.4665483918324193 0.4294793976569801 0
0.3199426144310168 0.218765372619673 0
0.2174637328277178 0.8362112374390805 0
0.3402476587561054 0.5164236530577028 0
0.4886062720781868 0.5608236799227825 0
0.148737914786952 0.4916229476443334 0
0.273179574483548 0.4078752532968267 0
0.3384281142917644 0.9103384359243116 0
0.8754114123603314 0.3055177770569134 0
0.7177346012201233 0.7859354706671882 0
0.3351375182559587 0.08238678210180472 0
0.06654966907168725 0.3486338910364148 0
0.7791353957060576 0.3302109468256714 0
0.9141729788204608 0.07461119170534114 0
0.07914653123200166 0.627723637287726 0
0.4874397318008419 0.8784006544019902 0
0.2949316841947274 0.8342711031630435 0
0.2372356053310709 0.4723168451809066 0
0.9261733339687248 0.9271537916686041 0
0.6602689024273148 0.2219764248110891 0
0.6410557285370819 0.6602096902130263 0
0.8380773228899462 0.5828294686896075 0
0.9343926715299909 0.5647173334566875 0
0.1965211055379038 0.1452589802292637 0
0.2858036619292725 0.1502659314982212 0
0.9395932591446049 0.3280525897289255 0
0.5014370458497106 0.3951148024159717 0
0.5679234693365561 0.6841208105616369 0
0.07320508075688781 0.9267949192431124 0
0.07320508075688797 0.0732050807568882 0
0.9430524191361913 0.6330785645967275 0
0.5939666895027992 0.2194801692323866 0
0.5242253882102546 0.3538100801230416 0
0.8684741028610192 0.5502828916599276 0
0.7119171664989659 0.859038663096517 0
0.1411736674657976 0.5673573826545714 0
0.512428364456498 0.5951858071495721 0
0.8197295329394643 0.2976853683951617 0
0.8241936317107482 0.8591143495259244 0
0.5442926065250998 0.3989644240698377 0
0.06697490820146518 0.4762817972574128 0
0.4703283069097428 0.937513923566955 0
0.1453415977598668 0.8269775371924029 0
0.2789297486104601 0.5116640024933196 0
0.4010590936638208 0.09523169660894171 0
0.5738207522203745 0.2688105720092206 0
0.5713981751125866 0.5672095205720058 0
0.8400383992980386 0.05817059085323889 0
0.06737684258517235 0.2201553021876541 0
$EndNodes
$Elements
6 492 1 492
1 1 1 10
1 1 9 
2 9 10 
3 10 11 
4 11 12 
5 12 13 
6 13 14 
7 14 15 
8 15 16 
9 16 17 
10 17 2 
1 2 1 10
11 3 18 
12 18 19 
13 19 20 
14 20 21 
15 21 22 
16 22 23 
17 23 24 
18 24 25 
19 25 26 
20 26 1 
1 3 1 10
21 2 27 
22 27 28 
23 28 29 
24 29 30 
25 30 31 
26 31 32 
27 32 33 
28 33 34 
29 34 35 
30 35 4 
1 4 1 10
31 4 36 
32 36 37 
33 37 38 
34 38 39 
35 39 40 
36 40 41 
37 41 42 
38 42 43 
39 43 44 
40 44 3 
2 2 2 42
41 62 63 57 
42 62 65 59 
43 57 66 62 
44 62 66 65 
45 60 63 62 
46 61 62 59 
47 65 66 58 
48 47 57 46 
49 53 59 52 
50 50 58 49 
51 56 60 55 
52 64 66 57 
53 46 63 45 
54 55 61 54 
55 49 64 48 
56 52 65 51 
57 60 62 61 
58 57 63 46 
59 60 61 55 
60 58 64 49 
61 59 65 52 
62 6 70 47 
63 54 67 8 
64 8 67 53 
65 51 68 7 
66 5 69 56 
67 7 68 50 
68 48 70 6 
69 45 69 5 
70 65 68 51 
71 63 69 45 
72 64 70 48 
73 61 67 54 
74 50 68 58 
75 47 70 57 
76 53 67 59 
77 56 69 60 
78 60 69 63 
79 57 70 64 
80 59 67 61 
81 58 68 65 
82 58 66 64 
2 3 2 410
83 158 161 104 
84 155 193 20 
85 20 213 155 
86 133 244 148 
87 150 152 134 
88 30 189 152 
89 157 158 104 
90 27 212 2 
91 152 189 134 
92 158 162 161 
93 148 231 133 
94 42 206 41 
95 41 206 172 
96 2 212 17 
97 156 197 105 
98 207 236 177 
99 89 197 106 
100 47 150 6 
101 91 150 47 
102 204 216 187 
103 152 224 30 
104 162 178 98 
105 104 159 157 
106 149 231 148 
107 106 197 156 
108 33 192 165 
109 161 162 98 
110 5 113 80 
111 173 245 76 
112 147 244 133 
113 7 197 89 
114 104 161 15 
115 131 192 145 
116 37 176 125 
117 76 174 173 
118 213 234 186 
119 169 199 82 
120 128 179 163 
121 105 220 156 
122 178 195 98 
123 86 169 82 
124 109 207 177 
125 145 192 182 
126 136 195 178 
127 113 114 80 
128 165 192 131 
129 144 245 173 
130 128 183 167 
131 176 237 125 
132 162 230 178 
133 79 171 85 
134 153 189 31 
135 177 236 141 
136 102 169 86 
137 178 230 147 
138 133 169 102 
139 165 229 33 
140 31 221 153 
141 163 183 128 
142 132 183 164 
143 182 237 145 
144 135 222 196 
145 97 171 142 
146 85 171 97 
147 79 203 171 
148 121 133 102 
149 14 161 98 
150 29 109 28 
151 124 234 213 
152 174 226 173 
153 113 148 116 
154 171 173 142 
155 164 233 132 
156 158 218 162 
157 146 237 176 
158 180 222 135 
159 39 167 132 
160 97 142 112 
161 16 104 15 
162 39 132 38 
163 14 98 13 
164 209 223 160 
165 140 216 204 
166 37 125 36 
167 115 191 80 
168 109 177 175 
169 24 247 168 
170 121 147 133 
171 87 188 83 
172 20 193 19 
173 143 206 42 
174 109 175 28 
175 15 161 14 
176 175 177 159 
177 91 151 150 
178 110 205 140 
179 173 226 142 
180 22 124 21 
181 170 239 23 
182 132 176 38 
183 167 214 128 
184 112 179 128 
185 174 219 130 
186 40 167 39 
187 11 160 10 
188 43 143 42 
189 19 126 18 
190 26 135 25 
191 155 213 186 
192 168 210 24 
193 137 223 209 
194 38 176 37 
195 195 243 12 
196 175 212 27 
197 121 178 147 
198 159 177 157 
199 169 225 199 
200 28 175 27 
201 99 188 87 
202 76 190 174 
203 34 192 33 
204 186 187 99 
205 141 211 115 
206 167 183 132 
207 117 121 102 
208 101 102 86 
209 142 179 112 
210 11 209 160 
211 110 140 139 
212 44 181 43 
213 10 180 9 
214 181 201 143 
215 160 180 10 
216 43 181 143 
217 148 244 116 
218 97 112 108 
219 85 97 95 
220 218 230 162 
221 13 195 12 
222 149 238 231 
223 166 232 221 
224 187 188 99 
225 35 182 34 
226 231 238 225 
227 173 235 144 
228 112 128 127 
229 106 156 131 
230 23 210 170 
231 98 195 13 
232 140 170 139 
233 19 193 126 
234 8 71 54 
235 21 213 20 
236 154 155 118 
237 12 243 209 
238 156 166 165 
239 125 237 182 
240 101 117 102 
241 23 239 22 
242 54 184 55 
243 187 234 204 
244 122 123 103 
245 114 115 80 
246 25 247 24 
247 115 211 191 
248 92 110 103 
249 118 186 99 
250 136 178 121 
251 130 226 174 
252 55 185 56 
253 97 108 95 
254 52 76 53 
255 110 139 122 
256 31 189 30 
257 96 99 87 
258 51 190 52 
259 172 240 41 
260 4 217 35 
261 96 119 118 
262 221 232 153 
263 56 74 5 
264 7 88 51 
265 119 154 118 
266 74 149 148 
267 100 130 90 
268 205 216 140 
269 117 136 121 
270 139 168 122 
271 73 111 71 
272 8 72 71 
273 81 82 77 
274 36 217 4 
275 5 80 45 
276 110 122 103 
277 113 116 114 
278 155 186 118 
279 3 227 44 
280 18 227 3 
281 1 228 26 
282 9 228 1 
283 75 79 78 
284 112 127 108 
285 8 144 72 
286 129 158 157 
287 130 219 90 
288 163 179 130 
289 96 118 99 
290 203 235 171 
291 30 224 29 
292 45 191 46 
293 29 224 109 
294 84 86 82 
295 72 75 73 
296 133 231 169 
297 122 196 123 
298 117 137 136 
299 92 103 101 
300 95 96 87 
301 127 138 108 
302 127 172 138 
303 75 78 77 
304 182 192 34 
305 92 101 86 
306 188 202 83 
307 208 233 164 
308 79 85 83 
309 140 204 170 
310 72 73 71 
311 116 230 218 
312 145 146 107 
313 216 242 187 
314 78 81 77 
315 85 95 87 
316 75 77 73 
317 154 193 155 
318 168 196 122 
319 181 241 201 
320 71 184 54 
321 123 200 103 
322 81 84 82 
323 81 94 84 
324 85 87 83 
325 84 92 86 
326 46 91 47 
327 79 83 78 
328 40 240 167 
329 7 89 88 
330 156 220 166 
331 141 236 211 
332 156 165 131 
333 50 197 7 
334 184 185 55 
335 119 201 154 
336 116 218 114 
337 100 163 130 
338 96 194 119 
339 49 105 50 
340 16 246 104 
341 201 215 143 
342 100 164 163 
343 74 185 149 
344 89 106 93 
345 111 184 71 
346 146 233 208 
347 101 200 117 
348 92 205 110 
349 176 233 146 
350 82 199 77 
351 52 190 76 
352 56 185 74 
353 89 93 90 
354 103 200 101 
355 132 233 176 
356 157 177 141 
357 88 190 51 
358 164 183 163 
359 129 141 115 
360 108 194 95 
361 48 198 49 
362 93 100 90 
363 124 213 21 
364 95 194 96 
365 89 90 88 
366 114 218 129 
367 74 113 5 
368 139 210 168 
369 91 211 151 
370 32 221 31 
371 117 200 137 
372 159 212 175 
373 143 215 206 
374 129 157 141 
375 114 129 115 
376 75 203 79 
377 138 194 108 
378 12 209 11 
379 191 211 91 
380 6 150 134 
381 53 245 8 
382 131 145 107 
383 172 206 138 
384 104 246 159 
385 73 199 111 
386 194 215 119 
387 6 120 48 
388 74 148 113 
389 80 191 45 
390 77 199 73 
391 24 210 23 
392 106 131 107 
393 125 217 36 
394 138 215 194 
395 171 235 173 
396 72 203 75 
397 170 210 139 
398 106 107 93 
399 146 208 107 
400 84 205 92 
401 78 202 81 
402 81 202 94 
403 83 202 78 
404 94 205 84 
405 144 203 72 
406 151 152 150 
407 46 191 91 
408 44 227 181 
409 154 241 193 
410 180 228 9 
411 127 214 172 
412 22 239 124 
413 182 217 125 
414 126 241 181 
415 33 229 32 
416 151 207 152 
417 17 246 16 
418 126 227 18 
419 41 240 40 
420 26 228 135 
421 8 245 144 
422 129 218 158 
423 167 240 214 
424 135 247 25 
425 100 208 164 
426 181 227 126 
427 128 214 127 
428 135 228 180 
429 6 134 120 
430 105 197 50 
431 119 215 201 
432 193 241 126 
433 179 226 130 
434 168 247 196 
435 222 223 123 
436 160 223 222 
437 160 222 180 
438 93 208 100 
439 225 238 111 
440 202 242 94 
441 142 226 179 
442 188 242 202 
443 49 198 105 
444 134 189 153 
445 35 217 182 
446 196 247 135 
447 190 219 174 
448 206 215 138 
449 107 208 93 
450 134 153 120 
451 94 216 205 
452 220 232 166 
453 90 219 88 
454 196 222 123 
455 120 198 48 
456 109 224 207 
457 186 234 187 
458 221 229 166 
459 187 242 188 
460 123 223 200 
461 204 239 170 
462 166 229 165 
463 199 225 111 
464 151 236 207 
465 124 239 204 
466 88 219 190 
467 198 220 105 
468 207 224 152 
469 136 243 195 
470 204 234 124 
471 200 223 137 
472 212 246 17 
473 145 237 146 
474 76 245 53 
475 137 243 136 
476 209 243 137 
477 201 241 154 
478 184 238 185 
479 111 238 184 
480 169 231 225 
481 211 236 151 
482 144 235 203 
483 214 240 172 
484 32 229 221 
485 153 232 120 
486 159 246 212 
487 185 238 149 
488 94 242 216 
489 116 244 230 
490 120 232 198 
491 198 232 220 
492 230 244 147 
$EndElements
