$MeshFormat
4.1 0 8
$EndMeshFormat
$PhysicalNames
3
1 101 "outer_boundary"
2 1 "material_1"
2 2 "material_2"
$EndPhysicalNames
$Entities
7 7 2 0
1 0 0 0 0 
2 1 0 0 0 
3 0 1 0 0 
4 1 1 0 0 
5 0.5585040053125472 0.4145177485597503 0 0 
6 0.9092491865063265 0.4879380506950845 0 0 
7 0.6702927491067084 0.7549821367962064 0 0 
1 -9.999999994736442e-08 -1e-07 -1e-07 1.0000001 1e-07 1e-07 1 101 2 1 -2 
2 -1e-07 -9.999999994736442e-08 -1e-07 1e-07 1.0000001 1e-07 1 101 2 3 -1 
3 0.9999999000000001 -9.999999994736442e-08 -1e-07 1.0000001 1.0000001 1e-07 1 101 2 2 -4 
4 -9.999999994736442e-08 0.9999999000000001 -1e-07 1.0000001 1.0000001 1e-07 1 101 2 4 -3 
5 0.5585039053125472 0.4145176485597503 -1e-07 0.9092492865063264 0.4879381506950845 1e-07 0 2 5 -6 
6 0.6702926491067085 0.4879379506950845 -1e-07 0.9092492865063264 0.7549822367962064 1e-07 0 2 6 -7 
7 0.5585039053125472 0.4145176485597503 -1e-07 0.6702928491067084 0.7549822367962064 1e-07 0 2 7 -5 
2 0.5585039053125472 0.4145176485597503 -1e-07 0.9092492865063264 0.7549822367962064 1e-07 1 2 3 5 6 7 
3 -9.999999994736442e-08 -9.999999994736442e-08 -1e-07 1.0000001 1.0000001 1e-07 1 1 7 1 3 4 2 -5 -7 -6 
$EndEntities
$Nodes
16 236 1 236
0 1 0 1
1
0 0 0
0 2 0 1
2
1 0 0
0 3 0 1
3
0 1 0
0 4 0 1
4
1 1 0
0 5 0 1
5
0.5585040053125472 0.4145177485597503 0
0 6 0 1
6
0.9092491865063265 0.4879380506950845 0
0 7 0 1
7
0.6702927491067084 0.7549821367962064 0
1 1 0 9
8
9
10
11
12
13
14
15
16
0.09999999999999996 0 0
0.1999999999999999 0 0
0.3000000000000001 0 0
0.4000000000000004 0 0
0.5000000000000003 0 0
0.5999999999999999 0 0
0.6999999999999995 0 0
0.7999999999999992 0 0
0.899999999999999 0 0
1 2 0 9
17
18
19
20
21
22
23
24
25
0 0.9 0
0 0.8 0
0 0.7 0
0 0.5999999999999996 0
0 0.4999999999999997 0
0 0.4000000000000001 0
0 0.3000000000000005 0
0 0.2000000000000008 0
0 0.100000000000001 0
1 3 0 9
26
27
28
29
30
31
32
33
34
1 0.09999999999999996 0
1 0.1999999999999999 0
1 0.3000000000000001 0
1 0.4000000000000004 0
1 0.5000000000000003 0
1 0.5999999999999999 0
1 0.6999999999999995 0
1 0.7999999999999992 0
1 0.899999999999999 0
1 4 0 9
35
36
37
38
39
40
41
42
43
0.9 1 0
0.8 1 0
0.7 1 0
0.5999999999999996 1 0
0.4999999999999997 1 0
0.4000000000000001 1 0
0.3000000000000005 1 0
0.2000000000000008 1 0
0.100000000000001 1 0
1 5 0 6
44
45
46
47
48
49
0.6086104597688013 0.4250063631505123 0
0.6587169142250554 0.4354949777412743 0
0.7088233686813096 0.4459835923320364 0
0.7589298231375636 0.4564722069227984 0
0.8090362775938178 0.4669608215135604 0
0.8591427320500722 0.4774494361043224 0
1 6 0 6
50
51
52
53
54
55
0.8751125525920954 0.5260872058523876 0
0.8409759186778643 0.5642363610096907 0
0.8068392847636332 0.6023855161669938 0
0.772702650849402 0.6405346713242968 0
0.738566016935171 0.6786838264815999 0
0.7044293830209397 0.7168329816389032 0
1 7 0 6
56
57
58
59
60
61
0.6543229285646854 0.7063443670481413 0
0.6383531080226624 0.6577065973000762 0
0.6223832874806394 0.6090688275520111 0
0.6064134669386163 0.560431057803946 0
0.5904436463965933 0.5117932880558809 0
0.5744738258545703 0.4631555183078156 0
2 2 0 15
62
63
64
65
66
67
68
69
70
71
72
73
74
75
76
0.7247931892233327 0.4946213620801014 0
0.7225961963931479 0.6300460567335349 0
0.6565199213948706 0.570919672394708 0
0.7908694642216101 0.5537477464189287 0
0.6884595624789167 0.6681952118908381 0
0.6245802803108244 0.4736441328985777 0
0.8250060981358411 0.5155985912616255 0
0.756732830307379 0.5918969015762318 0
0.7407630097653559 0.5432591318281667 0
0.6405501008528475 0.522281902646643 0
0.6906565553091016 0.5327705172374049 0
0.7066263758511248 0.5814082869854699 0
0.7748996436795869 0.5051099766708635 0
0.6746867347670785 0.4841327474893397 0
0.6724897419368936 0.619557442142773 0
2 3 0 160
77
78
79
80
81
82
83
84
85
86
87
88
89
90
91
92
93
94
95
96
97
98
99
100
101
102
103
104
105
106
107
108
109
110
111
112
113
114
115
116
117
118
119
120
121
122
123
124
125
126
127
128
129
130
131
132
133
134
135
136
137
138
139
140
141
142
143
144
145
146
147
148
149
150
151
152
153
154
155
156
157
158
159
160
161
162
163
164
165
166
167
168
169
170
171
172
173
174
175
176
177
178
179
180
181
182
183
184
185
186
187
188
189
190
191
192
193
194
195
196
197
198
199
200
201
202
203
204
205
206
207
208
209
210
211
212
213
214
215
216
217
218
219
220
221
222
223
224
225
226
227
228
229
230
231
232
233
234
235
236
0.5746881699784476 0.6029765446391391 0
0.5230971380253484 0.4539101829959505 0
0.5057499001702715 0.4023721534244882 0
0.4676291926796435 0.4448625990313968 0
0.4487631090776152 0.3878088394816602 0
0.6892225236809857 0.3965622335968514 0
0.08527165083374522 0.6496552781457987 0
0.4057839484118866 0.4346445418043146 0
0.3855919705796855 0.3713072641498161 0
0.3408770408598489 0.9076209139673057 0
0.5450142954737249 0.3598482091556652 0
0.6177998052845187 0.7441605784616711 0
0.4309190952065646 0.4973508349379869 0
0.3383938996739447 0.4230541243289681 0
0.3163125389874037 0.3540424662105704 0
0.7963689321716139 0.4119055180155706 0
0.7538458008000806 0.09551006673655049 0
0.754535837477194 0.7273215962296651 0
0.4336597957370456 0.3228596150250416 0
0.5592813801362873 0.09294904503058915 0
0.2663686074607531 0.4092965388483693 0
0.2908416646457128 0.481047218156097 0
0.25 0.08660254037844389 0
0.2416368805875253 0.3358865201591343 0
0.9167052838251798 0.2543909613883386 0
0.6349215130585989 0.796580237226177 0
0.690274145762483 0.8071231780590733 0
0.5780548350575951 0.7855568543208806 0
0.8576696042927063 0.9203590890373997 0
0.8228091053056561 0.6510232859150589 0
0.5616427074982785 0.7280728817208635 0
0.5169919033989124 0.7716721905573594 0
0.5001011684423113 0.7071575587497981 0
0.453071205411768 0.7547716599884222 0
0.434847882742075 0.6870892575980202 0
0.3820631352954129 0.7350999232576669 0
0.3628566206381951 0.6646854152541312 0
0.3024694140624121 0.7141566235535195 0
0.2142626868983654 0.4674519189970989 0
0.2410693713700001 0.5433298367793128 0
0.2955930175223543 0.2786613307465076 0
0.2195297939657624 0.2574030191661258 0
0.1487949222626433 0.9217792335643106 0
0.4643606087556989 0.8258440692016744 0
0.8908811438144117 0.4364019609494006 0
0.5994569296696399 0.8324856118301451 0
0.09411394999918687 0.1597132457617071 0
0.1567229480061313 0.3151821305581075 0
0.9124502556099188 0.7436816274792937 0
0.1714103880812192 0.5260804061349948 0
0.4173752883095105 0.6182711197325761 0
0.137019952626175 0.4565650017585405 0
0.318893168175899 0.5470056437924266 0
0.8879155239161 0.5690614778892999 0
0.3325500998165996 0.8016410380610944 0
0.2463920610423886 0.7767096979877606 0
0.2242146299013035 0.6933631870434862 0
0.1627280928771916 0.7543598671317373 0
0.2744282179616154 0.192664828729143 0
0.3542574103088671 0.2187839059559447 0
0.9226205058863661 0.3373405764965146 0
0.8449886105682995 0.2969465993746486 0
0.8363765198273698 0.2192181978319563 0
0.770209660823403 0.262631592644229 0
0.7767941936581439 0.3434398639126093 0
0.712945197222417 0.3028437791457577 0
0.7036309149817941 0.2327661023140235 0
0.6464566730257466 0.2746538319381737 0
0.6366158183443986 0.2040143805399385 0
0.5676583686891998 0.2400537680779843 0
0.9052079706316358 0.1649466812176409 0
0.548948752393581 0.6609645717566917 0
0.3341585782224582 0.1370923564409879 0
0.4110781563315261 0.1557477309209547 0
0.9159293886783688 0.6679986572581726 0
0.4478777865289315 0.9097540302442186 0
0.1910693931906154 0.1691413257140209 0
0.6565517385705644 0.08223934071960864 0
0.2711611512811073 0.851921903439206 0
0.5322561143178037 0.9183867579622678 0
0.9097545712982427 0.8487348210642975 0
0.8396579309333375 0.7997827576438276 0
0.7741986127453309 0.859275465300564 0
0.850377257688963 0.08320991479812823 0
0.1753306423357621 0.6094641668493777 0
0.6647944200586288 0.9235433556468685 0
0.4344087054972282 0.247357764095477 0
0.4989890408476202 0.1783681386062882 0
0.4845088628230544 0.6372260395335279 0
0.4635221807962699 0.5609813420372695 0
0.8287763106852392 0.7242772775839423 0
0.6554682734647154 0.3422356374890377 0
0.5923743917824864 0.3175696083749208 0
0.7620776081419093 0.1879249422718863 0
0.5294395189777275 0.2977143271113086 0
0.07993170527728072 0.2599313954235624 0
0.8576020751295931 0.3789854993173999 0
0.2835243419876917 0.6247851137118428 0
0.5574056158208943 0.5504464047712163 0
0.4889402663760271 0.4976405308067609 0
0.1531151677565003 0.08258376011967933 0
0.5406994113290169 0.5018738065753664 0
0.6023198742435161 0.6904924781698214 0
0.7429312807869997 0.4057570624246775 0
0.4608053046594212 0.08036409482465096 0
0.3944719841793106 0.8450776888692628 0
0.7229094081401624 0.768074235038829 0
0.08869966488815362 0.8438308473089385 0
0.5954699954474515 0.3757137673383544 0
0.1921083931149176 0.3941326583878423 0
0.3615324904061844 0.4882095748690624 0
0.390360533187363 0.5502080045868218 0
0.08947484873776052 0.5416806932698158 0
0.07046759058825269 0.3516696391477575 0
0.7769019267101647 0.7832520516642572 0
0.3699705731054307 0.2988353910305596 0
0.7834779842505324 0.6843681315069126 0
0.5737715812141827 0.1637479799143534 0
0.5393440967672718 0.8404292614376202 0
0.1882363362113801 0.8392209829071908 0
0.07967158540488478 0.7406210872360256 0
0.9356002775094707 0.5481034343033814 0
0.8692457385576657 0.619734689470433 0
0.692812966576219 0.160020033695618 0
0.5206288604919178 0.5885977434336125 0
0.8430254002220883 0.4302509054295064 0
0.7283162768303271 0.9267550233816199 0
0.6414976333174018 0.3950025958632061 0
0.4901109236095313 0.351354627615622 0
0.5973386384237693 0.6442418038835479 0
0.9508823805756738 0.4473274602996977 0
0.7241089385832604 0.3583700913421137 0
0.3843556728111917 0.08912381494782168 0
0.2469065506933302 0.9310845381798292 0
0.6495158904385019 0.8543780027599108 0
0.7107736525020476 0.8650885903015288 0
0.9334848351181898 0.9338187820203392 0
0.1504002337779714 0.6815964346273369 0
0.9254425650030571 0.08463548843814284 0
0.3546019904597318 0.6009910594155596 0
0.5142392669628252 0.5399079655248451 0
0.8215770314179918 0.1501619605712324 0
0.06427040007537588 0.4444574526429411 0
0.5020172021739412 0.2531051843795113 0
0.07320508075688781 0.07320508075688797 0
0.06930684560190725 0.9314168091729227 0
0.8698421597673698 0.6813431075413802 0
0.1534405866494623 0.234692996221558 0
0.7350115491720377 0.8165627040728505 0
0.4964911870230261 0.8738864108423956 0
0.6258917533391821 0.1410778405747149 0
0.7938059141650974 0.9152620237743186 0
0.8337120606912567 0.8633161315073301 0
0.9243972210812089 0.4000110994126027 0
0.4779272291990947 0.2944783036453921 0
0.3157363248425525 0.07241489255251499 0
0.4067401939486565 0.7899426720745527 0
0.9389400796666829 0.6098885258186588 0
0.5975612418753076 0.894870498272802 0
0.1254726357611738 0.3902593571864197 0
$EndNodes
$Elements
6 470 1 470
1 1 1 10
1 1 8 
2 8 9 
3 9 10 
4 10 11 
5 11 12 
6 12 13 
7 13 14 
8 14 15 
9 15 16 
10 16 2 
1 2 1 10
11 3 17 
12 17 18 
13 18 19 
14 19 20 
15 20 21 
16 21 22 
17 22 23 
18 23 24 
19 24 25 
20 25 1 
1 3 1 10
21 2 26 
22 26 27 
23 27 28 
24 28 29 
25 29 30 
26 30 31 
27 31 32 
28 32 33 
29 33 34 
30 34 4 
1 4 1 10
31 4 35 
32 35 36 
33 36 37 
34 37 38 
35 38 39 
36 39 40 
37 40 41 
38 41 42 
39 42 43 
40 43 3 
2 2 2 49
41 6 50 49 
42 55 7 56 
43 5 44 61 
44 46 75 45 
45 68 74 48 
46 45 75 67 
47 45 67 44 
48 44 67 61 
49 70 72 62 
50 66 76 63 
51 63 76 73 
52 67 75 71 
53 71 72 64 
54 72 73 64 
55 57 66 56 
56 72 75 62 
57 70 73 72 
58 49 68 48 
59 73 76 64 
60 62 74 70 
61 70 74 65 
62 71 75 72 
63 63 69 53 
64 56 66 55 
65 65 74 68 
66 48 74 47 
67 52 69 65 
68 69 73 70 
69 67 71 60 
70 60 71 59 
71 63 73 69 
72 59 64 58 
73 51 68 50 
74 65 68 51 
75 59 71 64 
76 47 74 62 
77 53 69 52 
78 55 66 54 
79 62 75 46 
80 64 76 58 
81 69 70 65 
82 52 65 51 
83 47 62 46 
84 54 63 53 
85 54 66 63 
86 61 67 60 
87 50 68 49 
88 58 76 57 
89 57 76 66 
2 3 2 381
90 94 193 167 
91 167 191 94 
92 114 174 113 
93 148 201 77 
94 126 189 128 
95 131 182 86 
96 189 219 128 
97 141 173 92 
98 166 188 89 
99 83 189 161 
100 89 176 166 
101 86 155 131 
102 134 196 184 
103 92 180 141 
104 164 181 96 
105 165 201 148 
106 184 197 134 
107 161 189 126 
108 174 216 113 
109 135 153 99 
110 133 174 114 
111 146 220 164 
112 164 194 146 
113 30 198 6 
114 99 149 135 
115 163 192 136 
116 95 192 163 
117 151 234 32 
118 155 210 196 
119 96 194 164 
120 137 138 101 
121 196 210 119 
122 6 207 30 
123 150 181 164 
124 159 191 158 
125 27 147 26 
126 168 208 82 
127 28 137 101 
128 31 198 30 
129 157 158 125 
130 13 154 96 
131 138 141 140 
132 158 191 167 
133 152 182 120 
134 127 188 166 
135 161 214 83 
136 109 165 148 
137 125 151 32 
138 138 173 141 
139 153 177 99 
140 170 200 93 
141 83 214 197 
142 168 185 169 
143 2 215 16 
144 124 190 172 
145 197 214 134 
146 33 125 32 
147 141 142 140 
148 122 235 195 
149 123 177 153 
150 77 206 148 
151 93 200 154 
152 29 137 28 
153 158 167 125 
154 168 204 185 
155 130 234 199 
156 153 224 123 
157 33 157 125 
158 180 208 141 
159 173 230 121 
160 21 219 189 
161 86 152 40 
162 36 105 35 
163 29 230 137 
164 28 101 27 
165 152 156 39 
166 93 218 170 
167 93 154 14 
168 39 156 38 
169 138 140 139 
170 154 227 96 
171 26 215 2 
172 147 215 26 
173 176 217 166 
174 101 147 27 
175 161 174 133 
176 167 193 106 
177 13 96 12 
178 15 93 14 
179 121 202 173 
180 41 86 40 
181 120 226 152 
182 137 173 138 
183 111 165 109 
184 87 171 169 
185 127 166 165 
186 158 229 159 
187 142 208 168 
188 136 192 117 
189 40 152 39 
190 32 234 31 
191 15 160 93 
192 156 235 38 
193 125 223 151 
194 20 83 19 
195 127 165 111 
196 142 168 144 
197 14 154 13 
198 109 148 107 
199 86 210 155 
200 138 139 101 
201 10 99 9 
202 129 216 174 
203 86 182 152 
204 123 172 24 
205 31 234 198 
206 148 179 107 
207 144 169 146 
208 113 127 111 
209 24 172 23 
210 209 232 11 
211 146 194 145 
212 199 234 151 
213 35 213 4 
214 150 163 136 
215 34 157 33 
216 172 190 23 
217 195 235 156 
218 83 197 19 
219 98 129 116 
220 142 144 143 
221 168 169 144 
222 98 187 129 
223 25 123 24 
224 123 224 172 
225 43 119 42 
226 16 160 15 
227 38 162 37 
228 11 232 10 
229 150 164 163 
230 41 210 86 
231 184 196 119 
232 135 136 117 
233 82 204 168 
234 4 213 34 
235 99 177 9 
236 12 181 11 
237 37 203 36 
238 129 174 116 
239 9 177 8 
240 167 223 125 
241 149 150 136 
242 89 187 84 
243 21 189 20 
244 96 227 194 
245 142 143 140 
246 96 181 12 
247 169 171 146 
248 144 146 145 
249 159 225 191 
250 132 133 114 
251 187 188 129 
252 87 205 171 
253 90 98 97 
254 30 207 29 
255 84 187 90 
256 169 185 87 
257 116 174 161 
258 172 224 124 
259 105 229 157 
260 58 77 59 
261 163 231 95 
262 116 161 126 
263 100 117 91 
264 135 149 136 
265 61 78 5 
266 140 170 139 
267 89 188 187 
268 38 235 162 
269 119 210 42 
270 60 178 61 
271 166 201 165 
272 190 236 219 
273 98 116 115 
274 59 175 60 
275 173 202 92 
276 132 134 133 
277 144 145 143 
278 118 135 117 
279 20 189 83 
280 112 113 111 
281 104 107 88 
282 203 228 36 
283 7 88 56 
284 45 82 46 
285 78 176 80 
286 18 184 17 
287 157 229 158 
288 148 206 179 
289 160 218 93 
290 126 128 115 
291 56 179 57 
292 80 89 84 
293 137 230 173 
294 139 147 101 
295 100 124 118 
296 18 197 184 
297 106 223 167 
298 110 111 109 
299 98 115 97 
300 116 126 115 
301 131 155 132 
302 108 109 107 
303 118 153 135 
304 112 114 113 
305 112 131 114 
306 131 132 114 
307 151 223 199 
308 100 118 117 
309 5 185 44 
310 80 176 89 
311 147 218 160 
312 97 100 91 
313 17 222 3 
314 90 97 91 
315 90 187 98 
316 85 95 81 
317 46 180 47 
318 23 190 22 
319 1 221 25 
320 8 221 1 
321 3 222 43 
322 90 91 85 
323 141 208 142 
324 117 192 91 
325 110 112 111 
326 54 94 55 
327 84 90 85 
328 77 175 59 
329 79 87 5 
330 61 178 78 
331 108 120 110 
332 36 228 105 
333 78 79 5 
334 171 220 146 
335 175 178 60 
336 105 213 35 
337 143 170 140 
338 108 110 109 
339 47 92 48 
340 152 226 156 
341 211 212 162 
342 80 84 81 
343 78 80 79 
344 19 197 18 
345 53 193 54 
346 155 196 132 
347 104 108 107 
348 190 219 22 
349 100 186 124 
350 84 85 81 
351 150 209 181 
352 80 81 79 
353 149 209 150 
354 132 196 134 
355 44 204 45 
356 78 178 176 
357 157 213 105 
358 88 179 56 
359 128 186 115 
360 16 215 160 
361 52 106 53 
362 97 186 100 
363 107 179 88 
364 133 214 161 
365 115 186 97 
366 55 183 7 
367 91 192 85 
368 87 185 5 
369 85 192 95 
370 58 206 77 
371 82 180 46 
372 102 104 88 
373 7 102 88 
374 162 203 37 
375 45 204 82 
376 139 218 147 
377 160 215 147 
378 181 209 11 
379 51 199 52 
380 57 206 58 
381 95 205 81 
382 48 202 49 
383 179 206 57 
384 34 213 157 
385 185 204 44 
386 77 201 175 
387 99 232 149 
388 162 212 203 
389 156 226 195 
390 7 103 102 
391 102 122 104 
392 219 236 128 
393 112 233 131 
394 50 130 51 
395 47 180 92 
396 104 195 108 
397 108 195 120 
398 145 200 143 
399 134 214 133 
400 164 220 163 
401 182 233 120 
402 124 224 118 
403 54 193 94 
404 42 210 41 
405 131 233 182 
406 143 200 170 
407 10 232 99 
408 177 221 8 
409 113 216 127 
410 49 121 6 
411 94 183 55 
412 211 235 122 
413 199 223 106 
414 122 195 104 
415 6 198 50 
416 200 227 154 
417 25 221 123 
418 106 193 53 
419 94 191 183 
420 22 219 21 
421 79 205 87 
422 81 205 79 
423 43 222 119 
424 220 231 163 
425 7 183 103 
426 162 235 211 
427 120 233 110 
428 82 208 180 
429 123 221 177 
430 92 202 48 
431 52 199 106 
432 121 207 6 
433 124 236 190 
434 203 212 159 
435 170 218 139 
436 127 216 188 
437 201 217 175 
438 119 222 184 
439 184 222 17 
440 198 234 130 
441 205 231 171 
442 118 224 153 
443 130 199 51 
444 175 217 178 
445 188 216 129 
446 191 225 183 
447 166 217 201 
448 194 227 145 
449 102 211 122 
450 186 236 124 
451 49 202 121 
452 110 233 112 
453 103 212 211 
454 178 217 176 
455 103 211 102 
456 50 198 130 
457 145 227 200 
458 183 225 103 
459 159 228 203 
460 128 236 186 
461 95 231 205 
462 159 229 228 
463 171 231 220 
464 207 230 29 
465 195 226 120 
466 103 225 212 
467 228 229 105 
468 149 232 209 
469 121 230 207 
470 212 225 159 
$EndElements
