$MeshFormat
4.1 0 8
$EndMeshFormat
$PhysicalNames
3
1 101 "outer_boundary"
2 1 "material_1"
2 2 "material_2"
$EndPhysicalNames
$Entities
5 5 2 0
1 0 0 0 0 
2 1 0 0 0 
3 0 1 0 0 
4 1 1 0 0 
5 0.4999362976310377 0.4450368255998126 0 0 
1 -9.999999994736442e-08 -1e-07 -1e-07 1.0000001 1e-07 1e-07 1 101 2 1 -2 
2 -1e-07 -9.999999994736442e-08 -1e-07 1e-07 1.0000001 1e-07 1 101 2 3 -1 
3 0.9999999000000001 -9.999999994736442e-08 -1e-07 1.0000001 1.0000001 1e-07 1 101 2 2 -4 
4 -9.999999994736442e-08 0.9999999000000001 -1e-07 1.0000001 1.0000001 1e-07 1 101 2 4 -3 
5 0.1674075303145212 0.2787723919415543 -1e-07 0.4999363976310377 0.6113012592580708 1e-07 0 2 5 -5 
2 0.1674075303145212 0.2787723919415543 -1e-07 0.4999363976310377 0.6113012592580708 1e-07 1 2 1 5 
3 -9.999999994736442e-08 -9.999999994736442e-08 -1e-07 1.0000001 1.0000001 1e-07 1 1 5 1 3 4 2 -5 
$EndEntities
$Nodes
12 155 1 155
0 1 0 1
1
0 0 0
0 2 0 1
2
1 0 0
0 3 0 1
3
0 1 0
0 4 0 1
4
1 1 0
0 5 0 1
5
0.4999362976310377 0.4450368255998126 0
1 1 0 7
6
7
8
9
10
11
12
0.1249999999999999 0 0
0.2499999999999998 0 0
0.3749999999999993 0 0
0.4999999999999988 0 0
0.6249999999999988 0 0
0.7499999999999991 0 0
0.8749999999999997 0 0
1 2 0 7
13
14
15
16
17
18
19
0 0.8750000000000001 0
0 0.7500000000000002 0
0 0.6250000000000007 0
0 0.5000000000000012 0
0 0.3750000000000012 0
0 0.2500000000000009 0
0 0.1250000000000003 0
1 3 0 7
20
21
22
23
24
25
26
1 0.1249999999999999 0
1 0.2499999999999998 0
1 0.3749999999999993 0
1 0.4999999999999988 0
1 0.6249999999999988 0
1 0.7499999999999991 0
1 0.8749999999999997 0
1 4 0 7
27
28
29
30
31
32
33
0.8750000000000001 1 0
0.7500000000000002 1 0
0.6250000000000007 1 0
0.5000000000000012 1 0
0.3750000000000012 1 0
0.2500000000000009 1 0
0.1250000000000003 1 0
1 5 0 14
34
35
36
37
38
39
40
41
42
43
44
45
46
47
0.4855619907542551 0.5126626225352072 0
0.4449245183693815 0.568595304819394 0
0.3850504686316082 0.6031636035529706 0
0.3162926086792619 0.6103903458417667 0
0.2505397971436508 0.5890259622911567 0
0.1991612924848224 0.5427645489063726 0
0.1710409049173494 0.4796051243333901 0
0.1710409049173489 0.4104685268662372 0
0.1991612924848214 0.3473091022932541 0
0.2505397971436496 0.3010476889084693 0
0.3162926086792606 0.2796833053578587 0
0.3850504686316072 0.2869100476466543 0
0.444924518369381 0.3214783463802308 0
0.485561990754255 0.3774110286644177 0
2 2 0 22
48
49
50
51
52
53
54
55
56
57
58
59
60
61
62
63
64
65
66
67
68
69
0.4170598826112344 0.5114398683869896 0
0.2397987648696954 0.4032417845774408 0
0.3850504686316075 0.3560466451138076 0
0.3016403812572533 0.5461698904704372 0
0.2397987648696957 0.4868318666221856 0
0.4389347194325885 0.4204958168446384 0
0.3019183018024783 0.3473091022932536 0
0.2054198348935224 0.4450368255998134 0
0.3034628836104444 0.4491522311473349 0
0.2505397971436507 0.5373644504651122 0
0.4422677902200823 0.4684722001164432 0
0.3837895162320696 0.4522393189662813 0
0.3472945875036133 0.5104795356969452 0
0.3409178638022787 0.3962078089261764 0
0.387762005459295 0.552547309406018 0
0.2505397971436498 0.352709200734514 0
0.4341834860954265 0.3720109302231576 0
0.3462439216395509 0.3274747930574347 0
0.2888022909926696 0.5026173128962912 0
0.2894398112820147 0.3959120432636142 0
0.3444805701806374 0.5690582345737905 0
0.3943778264424939 0.4009779793968771 0
2 3 0 86
70
71
72
73
74
75
76
77
78
79
80
81
82
83
84
85
86
87
88
89
90
91
92
93
94
95
96
97
98
99
100
101
102
103
104
105
106
107
108
109
110
111
112
113
114
115
116
117
118
119
120
121
122
123
124
125
126
127
128
129
130
131
132
133
134
135
136
137
138
139
140
141
142
143
144
145
146
147
148
149
150
151
152
153
154
155
0.5136823783217279 0.5758220471081897 0
0.5552349297668477 0.4027363587473252 0
0.9029337074872206 0.6773806958025834 0
0.2657509660395467 0.6609455508122384 0
0.8881426778026978 0.3154538382853852 0
0.5659693747772955 0.8986313148724995 0
0.4532307676873649 0.2532688757734541 0
0.6962894939553649 0.09942795133751758 0
0.2560402765678526 0.2348350217920254 0
0.1918513249406474 0.8907325013172354 0
0.5126873932438261 0.3155512343275555 0
0.588076049090567 0.319462284252615 0
0.6371610893815023 0.4004401631729632 0
0.6786018896259011 0.323596066112939 0
0.7237678215627888 0.4048688981550902 0
0.6723482280594204 0.4806136829742931 0
0.7633972663715072 0.4890410124195723 0
0.7050749525008965 0.5668178109521416 0
0.4706002676918086 0.6329908142986458 0
0.4119216564940829 0.6865078871242605 0
0.5506339234934011 0.6395694430174284 0
0.1841886407113894 0.6415599319668924 0
0.3287277638574221 0.210110580767112 0
0.1777964019926906 0.2804948578844367 0
0.5330121301002034 0.2400918297316889 0
0.1837363194247235 0.1842467497299438 0
0.8120582814293581 0.8945405842612764 0
0.2087302886525115 0.7163600326686121 0
0.2907573316500042 0.7361996410887921 0
0.4950148973023414 0.7081815836461905 0
0.4297732870418435 0.7767095149144114 0
0.5862040638422281 0.7182740526491719 0
0.4761322683044319 0.1819342957993033 0
0.6177138626137859 0.2380277043262173 0
0.7163090433356418 0.2187343216976454 0
0.8036524496925715 0.1534295156196522 0
0.5451531222234322 0.4925099270405379 0
0.6045600107024028 0.5505287532952842 0
0.12465868658449 0.5294845951096965 0
0.1253601817603002 0.3575059104747884 0
0.814417566122601 0.5986817268770668 0
0.7446961106110763 0.6550899351912554 0
0.5542014492371212 0.145491207964233 0
0.2617661785409907 0.1461731868411295 0
0.1038124442312773 0.6877774623655232 0
0.09868344636324816 0.4420106927973524 0
0.8654789454515917 0.4958289804934788 0
0.6407473539437195 0.6391966730208829 0
0.1434481076096422 0.7824196133917868 0
0.7757505561684875 0.3207430288957146 0
0.6901422885325628 0.8978660454123077 0
0.7543289185265878 0.8074037285206085 0
0.3065452571344385 0.9018859966269245 0
0.4341763761633515 0.8881426976665909 0
0.3505000562273509 0.1160472148549198 0
0.8895233135625252 0.8057492474782818 0
0.1087004597622995 0.2332340773750517 0
0.110614599684508 0.1355653144783374 0
0.5248230161640485 0.7991529791688783 0
0.8992310942644509 0.2004631354429093 0
0.6956501620316118 0.7246993545297316 0
0.6378000978572312 0.8049787112644051 0
0.8180915147360297 0.4086349935154993 0
0.2510770467826947 0.8091252818943949 0
0.9165660438122827 0.5793782806346253 0
0.3387086921225298 0.6735632370666933 0
0.9106899059179419 0.4098112928525285 0
0.09536119488132466 0.8653342287894794 0
0.3458014033355012 0.8093725876952076 0
0.08910646090051266 0.606965857196011 0
0.8130425318044907 0.2387093230354455 0
0.8876649582900495 0.100165157338689 0
0.4601501097523388 0.1000064781484497 0
0.1841059151236536 0.08256024383230953 0
0.8065288986119773 0.7189701383643748 0
0.3629451176121632 0.7402428937748978 0
0.4027169944974708 0.1970147081100836 0
0.9084936490538905 0.9084936490538904 0
0.06394651153963749 0.3038337297471574 0
0.6046397933310256 0.4642167580197904 0
0.168604424899525 0.5824424616482585 0
0.06249999999999994 0.0619137692300098 0
0.5680030582303688 0.06849030797137778 0
0.2856208705615843 0.07069285725290364 0
0.629961297759981 0.1594847148603622 0
0.8075928524014556 0.065036628021023 0
$EndNodes
$Elements
6 308 1 308
1 1 1 8
1 1 6 
2 6 7 
3 7 8 
4 8 9 
5 9 10 
6 10 11 
7 11 12 
8 12 2 
1 2 1 8
9 3 13 
10 13 14 
11 14 15 
12 15 16 
13 16 17 
14 17 18 
15 18 19 
16 19 1 
1 3 1 8
17 2 20 
18 20 21 
19 21 22 
20 22 23 
21 23 24 
22 24 25 
23 25 26 
24 26 4 
1 4 1 8
25 4 27 
26 27 28 
27 28 29 
28 29 30 
29 30 31 
30 31 32 
31 32 33 
32 33 3 
2 2 2 57
33 49 56 52 
34 59 60 56 
35 60 66 56 
36 52 55 49 
37 48 59 58 
38 58 59 53 
39 42 49 41 
40 40 52 39 
41 38 51 37 
42 44 54 43 
43 5 53 47 
44 35 48 34 
45 46 50 45 
46 54 65 61 
47 61 65 50 
48 56 61 59 
49 48 60 59 
50 56 66 52 
51 49 67 56 
52 51 66 60 
53 59 69 53 
54 35 62 48 
55 36 62 35 
56 49 55 41 
57 5 58 53 
58 41 55 40 
59 38 57 51 
60 43 63 42 
61 50 65 45 
62 45 65 44 
63 44 65 54 
64 39 57 38 
65 42 63 49 
66 47 64 46 
67 54 63 43 
68 40 55 52 
69 46 64 50 
70 34 58 5 
71 48 58 34 
72 52 57 39 
73 53 64 47 
74 37 68 36 
75 51 68 37 
76 60 68 51 
77 61 67 54 
78 48 62 60 
79 56 67 61 
80 61 69 59 
81 50 69 61 
82 63 67 49 
83 52 66 57 
84 57 66 51 
85 54 67 63 
86 62 68 60 
87 53 69 64 
88 64 69 50 
89 36 68 62 
2 3 2 219
90 98 138 133 
91 109 115 17 
92 87 107 85 
93 80 94 81 
94 72 144 110 
95 16 115 108 
96 3 137 33 
97 108 139 16 
98 114 118 14 
99 13 137 3 
100 19 127 126 
101 118 137 14 
102 15 139 114 
103 15 114 14 
104 94 103 81 
105 102 142 112 
106 87 117 107 
107 133 138 122 
108 109 148 93 
109 100 128 123 
110 123 128 75 
111 19 126 18 
112 107 149 85 
113 102 146 142 
114 17 115 16 
115 35 88 36 
116 30 123 75 
117 77 105 104 
118 121 125 96 
119 110 134 72 
120 121 144 125 
121 36 135 37 
122 142 146 124 
123 88 89 36 
124 142 152 112 
125 44 92 45 
126 111 117 87 
127 71 106 5 
128 34 106 70 
129 101 131 128 
130 106 107 70 
131 20 141 2 
132 47 80 71 
133 93 148 126 
134 17 148 109 
135 106 149 107 
136 89 135 36 
137 104 154 77 
138 98 145 138 
139 14 137 13 
140 111 144 130 
141 23 134 116 
142 79 133 122 
143 75 120 29 
144 80 81 71 
145 92 146 45 
146 71 149 106 
147 81 103 83 
148 2 141 12 
149 139 150 91 
150 116 136 23 
151 128 131 75 
152 76 80 46 
153 33 137 79 
154 79 122 32 
155 88 99 89 
156 122 123 31 
157 74 132 119 
158 16 139 15 
159 94 112 103 
160 33 79 32 
161 120 121 96 
162 76 94 80 
163 31 123 30 
164 123 138 100 
165 99 100 89 
166 130 144 121 
167 30 75 29 
168 75 131 120 
169 103 104 83 
170 22 74 21 
171 25 72 24 
172 70 107 90 
173 111 130 117 
174 43 93 78 
175 28 120 96 
176 77 154 152 
177 32 122 31 
178 95 143 113 
179 107 117 90 
180 29 120 28 
181 11 77 10 
182 103 154 104 
183 101 128 99 
184 93 95 78 
185 28 96 27 
186 25 125 72 
187 120 131 121 
188 45 146 76 
189 114 139 91 
190 83 119 84 
191 77 152 10 
192 26 125 25 
193 127 143 95 
194 42 109 93 
195 81 82 71 
196 84 85 82 
197 118 133 79 
198 21 129 20 
199 74 136 132 
200 90 117 101 
201 86 87 85 
202 104 119 83 
203 108 115 40 
204 74 129 21 
205 41 115 109 
206 77 155 105 
207 121 131 130 
208 38 150 39 
209 24 134 23 
210 113 124 92 
211 78 113 92 
212 110 111 87 
213 47 71 5 
214 34 70 35 
215 23 136 22 
216 82 149 71 
217 5 106 34 
218 11 155 77 
219 125 144 72 
220 37 73 38 
221 119 132 84 
222 86 110 87 
223 84 86 85 
224 117 130 101 
225 4 147 26 
226 27 147 4 
227 122 138 123 
228 83 84 82 
229 119 140 74 
230 99 128 100 
231 152 154 112 
232 76 102 94 
233 112 154 103 
234 72 134 24 
235 124 146 92 
236 45 76 46 
237 70 88 35 
238 127 151 143 
239 86 116 110 
240 46 80 47 
241 73 98 97 
242 43 78 44 
243 79 137 118 
244 81 83 82 
245 95 113 78 
246 124 153 8 
247 129 141 20 
248 130 131 101 
249 105 140 104 
250 8 142 124 
251 90 101 99 
252 84 132 86 
253 22 136 74 
254 90 99 88 
255 9 152 142 
256 42 93 43 
257 70 90 88 
258 116 134 110 
259 93 126 95 
260 97 118 114 
261 102 112 94 
262 98 133 97 
263 74 140 129 
264 91 150 38 
265 78 92 44 
266 37 135 73 
267 86 132 116 
268 126 127 95 
269 39 108 40 
270 8 153 7 
271 40 115 41 
272 41 109 42 
273 73 91 38 
274 143 151 6 
275 9 142 8 
276 97 133 118 
277 18 148 17 
278 97 114 91 
279 73 97 91 
280 73 135 98 
281 7 143 6 
282 85 149 82 
283 26 147 125 
284 100 145 89 
285 96 147 27 
286 10 152 9 
287 105 141 129 
288 125 147 96 
289 6 151 1 
290 1 151 19 
291 89 145 135 
292 104 140 119 
293 129 140 105 
294 12 155 11 
295 143 153 113 
296 76 146 102 
297 132 136 116 
298 108 150 139 
299 126 148 18 
300 138 145 100 
301 19 151 127 
302 113 153 124 
303 135 145 98 
304 7 153 143 
305 105 155 141 
306 39 150 108 
307 141 155 12 
308 110 144 111 
$EndElements
