$MeshFormat
4.1 0 8
$EndMeshFormat
$PhysicalNames
3
1 101 "outer_boundary"
2 1 "material_1"
2 2 "material_2"
$EndPhysicalNames
$Entities
5 5 2 0
1 0 0 0 0 
2 1 0 0 0 
3 0 1 0 0 
4 1 1 0 0 
5 0.8977282772772295 0.5954184676812843 0 0 
1 -9.999999994736442e-08 -1e-07 -1e-07 1.0000001 1e-07 1e-07 1 101 2 1 -2 
2 -1e-07 -9.999999994736442e-08 -1e-07 1e-07 1.0000001 1e-07 1 101 2 3 -1 
3 0.9999999000000001 -9.999999994736442e-08 -1e-07 1.0000001 1.0000001 1e-07 1 101 2 2 -4 
4 -9.999999994736442e-08 0.9999999000000001 -1e-07 1.0000001 1.0000001 1e-07 1 101 2 4 -3 
5 0.6940229034809881 0.4935657307831636 -1e-07 0.8977283772772294 0.6972712045794048 1e-07 0 2 5 -5 
2 0.6940229034809881 0.4935657307831636 -1e-07 0.8977283772772294 0.6972712045794048 1e-07 1 2 1 5 
3 -9.999999994736442e-08 -9.999999994736442e-08 -1e-07 1.0000001 1.0000001 1e-07 1 1 5 1 3 4 2 -5 
$EndEntities
$Nodes
12 141 1 141
0 1 0 1
1
0 0 0
0 2 0 1
2
1 0 0
0 3 0 1
3
0 1 0
0 4 0 1
4
1 1 0
0 5 0 1
5
0.8977282772772295 0.5954184676812843 0
1 1 0 7
6
7
8
9
10
11
12
0.1249999999999999 0 0
0.2499999999999998 0 0
0.3749999999999993 0 0
0.4999999999999988 0 0
0.6249999999999988 0 0
0.7499999999999991 0 0
0.8749999999999997 0 0
1 2 0 7
13
14
15
16
17
18
19
0 0.8750000000000001 0
0 0.7500000000000002 0
0 0.6250000000000007 0
0 0.5000000000000012 0
0 0.3750000000000012 0
0 0.2500000000000009 0
0 0.1250000000000003 0
1 3 0 7
20
21
22
23
24
25
26
1 0.1249999999999999 0
1 0.2499999999999998 0
1 0.3749999999999993 0
1 0.4999999999999988 0
1 0.6249999999999988 0
1 0.7499999999999991 0
1 0.8749999999999997 0
1 4 0 7
27
28
29
30
31
32
33
0.8750000000000001 1 0
0.7500000000000002 1 0
0.6250000000000007 1 0
0.5000000000000012 1 0
0.3750000000000012 1 0
0.2500000000000009 1 0
0.1250000000000003 1 0
1 5 0 9
34
35
36
37
38
39
40
41
42
0.8782761545515891 0.6552859455570998 0
0.8273498361025288 0.6922860817050862 0
0.7644014446556885 0.6922860817050861 0
0.7134751262066281 0.6552859455570996 0
0.694023003480988 0.5954184676812839 0
0.7134751262066286 0.5355509898054684 0
0.764401444655689 0.4985508536574823 0
0.8273498361025293 0.4985508536574825 0
0.8782761545515895 0.5355509898054691 0
2 2 0 5
43
44
45
46
47
0.8174191057985277 0.6306668586246819 0
0.7723387316018863 0.5688602269358518 0
0.8438159137399043 0.5840040403278413 0
0.7550365679735782 0.6261243375626709 0
0.8144776119999977 0.5436396372572336 0
2 3 0 94
48
49
50
51
52
53
54
55
56
57
58
59
60
61
62
63
64
65
66
67
68
69
70
71
72
73
74
75
76
77
78
79
80
81
82
83
84
85
86
87
88
89
90
91
92
93
94
95
96
97
98
99
100
101
102
103
104
105
106
107
108
109
110
111
112
113
114
115
116
117
118
119
120
121
122
123
124
125
126
127
128
129
130
131
132
133
134
135
136
137
138
139
140
141
0.09654019669411118 0.4381518203558598 0
0.4511872981703169 0.1071187221406453 0
0.4371993555497273 0.8949263573168609 0
0.6718253089138271 0.1056846450511563 0
0.1029195332300287 0.6852517080134783 0
0.8881274338580997 0.3130773694608865 0
0.6875000000000004 0.8917468245269455 0
0.7958077448582973 0.7497234323586709 0
0.1146467202028759 0.1932733332330228 0
0.7288048270001918 0.7491810692376144 0
0.1924112873846091 0.8807780902954234 0
0.8872059432735909 0.4753719370458835 0
0.8264246561341659 0.4358080264598795 0
0.7488904249633194 0.4218735880952396 0
0.8625963913533307 0.7452017193759874 0
0.8340686887400985 0.8210794770228459 0
0.8061293573854471 0.3650041828834366 0
0.7205648858900907 0.3498640720956089 0
0.6741378714983709 0.4119125605079925 0
0.6411888556488312 0.3417788117222912 0
0.5936307041450649 0.4084089189124693 0
0.558154202794529 0.3338553324665998 0
0.5103623052757019 0.4061272569560168 0
0.5479640535248719 0.4760759510325349 0
0.4607501189858138 0.4785061887793667 0
0.4304666324442746 0.3989680386469915 0
0.5109010654438889 0.5569994240444608 0
0.4107831613506731 0.5543786048367628 0
0.6499773714500958 0.6289850005242046 0
0.4512828189669021 0.6368063060244982 0
0.3474051002296287 0.6335614749151397 0
0.3109910654338032 0.5452490087714937 0
0.7815902486529435 0.2856620102374656 0
0.6043353810185362 0.261004414826766 0
0.850938503921304 0.2138746831878867 0
0.6519023081428492 0.5486386963054389 0
0.409376039607234 0.724825867647605 0
0.5033434731711793 0.7252632639690713 0
0.3010254923245087 0.7259319253933033 0
0.5151675799996087 0.2650058291504773 0
0.5593156533014182 0.1707463552856323 0
0.5602877514639093 0.8995385178866899 0
0.6142596823730808 0.8132921613157612 0
0.5846486899395195 0.5941665263063539 0
0.3162323677604546 0.900289677601262 0
0.1048971946785426 0.5599442184482127 0
0.2239543981431272 0.6284853332214909 0
0.7975280811202771 0.1075782156046434 0
0.3174438255475828 0.1048812076368707 0
0.370095395528758 0.2014653386643722 0
0.2531115825317909 0.2017082703578541 0
0.3164817158447878 0.3031196302523554 0
0.2019726695204603 0.298615448949832 0
0.259564727687818 0.3985251991291062 0
0.5844378754353028 0.6712118406399971 0
0.2072090553763067 0.4942199716882358 0
0.6675671063266919 0.7109248014738185 0
0.1919514132047265 0.09856152702897625 0
0.6303193265171739 0.4752086644926605 0
0.4159762225469725 0.2993208725618189 0
0.09704740953689778 0.8081845337419602 0
0.6971877503306718 0.481955892144047 0
0.8970181999185863 0.4000500067713859 0
0.3744465026350682 0.4746388336640283 0
0.7990935650259812 0.9028174176903148 0
0.9036185687398663 0.9030730361917618 0
0.6889063351789517 0.2722865247124241 0
0.740543540922975 0.1960684210580505 0
0.09448569490306902 0.3152161800319914 0
0.4980951920240469 0.8137001170022244 0
0.1954472856606387 0.7495837550889695 0
0.9195831232916666 0.8063642796810955 0
0.3746075595358708 0.8170497945786981 0
0.9013946242234754 0.1290591382707912 0
0.9333479275715997 0.7039966085465158 0
0.6924860171202358 0.7936638159173421 0
0.9398489726153683 0.5486386963054398 0
0.5251376160482617 0.6293997467786883 0
0.5624999999999988 0.07498241699026564 0
0.6528388221195431 0.198348465149069 0
0.5865613257839142 0.5304992190103085 0
0.5737872407884868 0.7453532197508512 0
0.2737251429787311 0.813085841398691 0
0.934636166727984 0.6337298683757069 0
0.7562934737908008 0.8180353394589556 0
0.4860253886122173 0.3406554659563809 0
0.4600820498348082 0.1996077930584499 0
0.09150635094610987 0.09150635094610998 0
0.09150635094610998 0.9084936490538902 0
0.3415509951429148 0.3991008334722583 0
0.1733377610098442 0.3858210889431588 0
0.2961226912258319 0.4663303703311133 0
0.9514581057201126 0.4480389523598851 0
0.7178837197564708 0.7027651371691055 0
$EndNodes
$Elements
6 280 1 280
1 1 1 8
1 1 6 
2 6 7 
3 7 8 
4 8 9 
5 9 10 
6 10 11 
7 11 12 
8 12 2 
1 2 1 8
9 3 13 
10 13 14 
11 14 15 
12 15 16 
13 16 17 
14 17 18 
15 18 19 
16 19 1 
1 3 1 8
17 2 20 
18 20 21 
19 21 22 
20 22 23 
21 23 24 
22 24 25 
23 25 26 
24 26 4 
1 4 1 8
25 4 27 
26 27 28 
27 28 29 
28 29 30 
29 30 31 
30 31 32 
31 32 33 
32 33 3 
2 2 2 18
33 44 45 43 
34 36 46 43 
35 44 46 38 
36 43 46 44 
37 39 44 38 
38 36 43 35 
39 34 45 5 
40 43 45 34 
41 44 47 45 
42 37 46 36 
43 38 46 37 
44 40 44 39 
45 35 43 34 
46 41 47 40 
47 40 47 44 
48 42 47 41 
49 5 45 42 
50 45 47 42 
2 3 2 230
51 40 60 41 
52 57 123 104 
53 82 121 21 
54 83 109 39 
55 98 100 56 
56 40 61 60 
57 53 82 21 
58 78 94 79 
59 86 94 78 
60 88 134 49 
61 89 90 54 
62 76 83 38 
63 85 117 84 
64 104 123 90 
65 2 121 12 
66 49 126 88 
67 117 120 84 
68 106 109 83 
69 64 80 53 
70 20 121 2 
71 34 62 35 
72 29 89 54 
73 123 132 54 
74 76 91 83 
75 90 129 104 
76 4 113 26 
77 80 82 53 
78 56 105 98 
79 117 129 90 
80 73 137 107 
81 104 129 102 
82 100 116 56 
83 89 117 90 
84 27 113 4 
85 94 103 79 
86 21 121 20 
87 88 126 51 
88 107 137 99 
89 54 132 112 
90 64 110 60 
91 51 127 88 
92 86 118 94 
93 122 131 24 
94 82 115 95 
95 76 104 102 
96 31 92 50 
97 29 54 28 
98 50 89 30 
99 53 110 64 
100 22 53 21 
101 93 94 52 
102 59 124 42 
103 80 115 82 
104 93 103 94 
105 49 97 96 
106 74 128 91 
107 31 50 30 
108 118 130 58 
109 15 93 52 
110 11 51 10 
111 108 118 58 
112 30 89 29 
113 40 109 61 
114 9 49 8 
115 49 96 8 
116 90 123 54 
117 11 95 51 
118 34 122 62 
119 107 134 87 
120 124 131 5 
121 17 48 16 
122 94 118 52 
123 97 99 98 
124 48 93 16 
125 58 92 32 
126 32 92 31 
127 95 115 51 
128 85 125 102 
129 48 103 93 
130 77 85 84 
131 51 126 10 
132 24 124 23 
133 50 120 117 
134 22 110 53 
135 84 120 86 
136 17 116 48 
137 97 98 96 
138 15 52 14 
139 9 126 49 
140 68 106 71 
141 16 93 15 
142 12 95 11 
143 8 96 7 
144 25 122 24 
145 61 66 65 
146 12 121 95 
147 99 101 100 
148 68 71 70 
149 19 56 18 
150 33 58 32 
151 96 105 7 
152 28 112 27 
153 98 105 96 
154 7 105 6 
155 99 100 98 
156 77 125 85 
157 97 107 99 
158 112 132 63 
159 56 116 18 
160 50 117 89 
161 14 108 13 
162 112 113 27 
163 54 112 28 
164 71 72 70 
165 71 74 72 
166 103 138 101 
167 71 128 74 
168 52 108 14 
169 85 129 117 
170 120 130 86 
171 76 102 91 
172 59 140 124 
173 87 134 88 
174 66 68 67 
175 66 106 68 
176 92 120 50 
177 62 122 119 
178 61 109 66 
179 97 134 107 
180 66 109 106 
181 68 70 69 
182 78 79 75 
183 61 65 64 
184 74 77 75 
185 61 64 60 
186 91 125 74 
187 48 138 103 
188 77 84 78 
189 39 109 40 
190 38 83 39 
191 66 67 65 
192 72 73 70 
193 87 133 107 
194 26 119 25 
195 74 75 72 
196 63 113 112 
197 84 86 78 
198 77 78 75 
199 1 135 19 
200 6 135 1 
201 3 136 33 
202 13 136 3 
203 68 69 67 
204 58 130 92 
205 116 138 48 
206 69 87 81 
207 18 116 17 
208 87 88 81 
209 35 55 36 
210 37 76 38 
211 69 81 67 
212 79 111 75 
213 95 121 82 
214 119 122 25 
215 99 137 101 
216 83 128 106 
217 103 139 79 
218 24 131 124 
219 65 80 64 
220 55 57 36 
221 106 128 71 
222 23 140 22 
223 72 111 73 
224 113 119 26 
225 75 111 72 
226 107 133 73 
227 49 134 97 
228 67 114 65 
229 52 118 108 
230 102 129 85 
231 37 104 76 
232 41 59 42 
233 101 139 103 
234 41 60 59 
235 73 133 70 
236 91 128 83 
237 114 115 80 
238 69 133 87 
239 105 135 6 
240 65 114 80 
241 81 114 67 
242 10 126 9 
243 108 136 13 
244 5 131 34 
245 63 119 113 
246 100 138 116 
247 62 63 55 
248 19 135 56 
249 60 110 59 
250 33 136 58 
251 74 125 77 
252 114 127 115 
253 62 119 63 
254 34 131 122 
255 56 135 105 
256 42 124 5 
257 102 125 91 
258 115 127 51 
259 92 130 120 
260 58 136 108 
261 35 62 55 
262 88 127 81 
263 81 127 114 
264 101 138 100 
265 70 133 69 
266 86 130 118 
267 104 141 57 
268 36 141 37 
269 63 132 55 
270 57 132 123 
271 57 141 36 
272 111 137 73 
273 55 132 57 
274 37 141 104 
275 79 139 111 
276 22 140 110 
277 124 140 23 
278 110 140 59 
279 111 139 137 
280 137 139 101 
$EndElements
