$MeshFormat
4.1 0 8
$EndMeshFormat
$PhysicalNames
3
1 101 "outer_boundary"
2 1 "material_1"
2 2 "material_2"
$EndPhysicalNames
$Entities
7 7 2 0
1 0 0 0 0 
2 1 0 0 0 
3 0 1 0 0 
4 1 1 0 0 
5 0.2737331277753867 0.9143218734135168 0 0 
6 0.2525949687777123 0.7133339388183979 0 0 
7 0.4372247054900878 0.7955217234347367 0 0 
1 -9.999999994736442e-08 -1e-07 -1e-07 1.0000001 1e-07 1e-07 1 101 2 1 -2 
2 -1e-07 -9.999999994736442e-08 -1e-07 1e-07 1.0000001 1e-07 1 101 2 3 -1 
3 0.9999999000000001 -9.999999994736442e-08 -1e-07 1.0000001 1.0000001 1e-07 1 101 2 2 -4 
4 -9.999999994736442e-08 0.9999999000000001 -1e-07 1.0000001 1.0000001 1e-07 1 101 2 4 -3 
5 0.2525948687777123 0.713333838818398 -1e-07 0.2737332277753867 0.9143219734135167 1e-07 0 2 5 -6 
6 0.2525948687777123 0.713333838818398 -1e-07 0.4372248054900878 0.7955218234347367 1e-07 0 2 6 -7 
7 0.2737330277753867 0.7955216234347368 -1e-07 0.4372248054900878 0.9143219734135167 1e-07 0 2 7 -5 
2 0.2525948687777123 0.713333838818398 -1e-07 0.4372248054900878 0.9143219734135167 1e-07 1 2 3 5 6 7 
3 -9.999999994736442e-08 -9.999999994736442e-08 -1e-07 1.0000001 1.0000001 1e-07 1 1 7 1 3 4 2 -5 -7 -6 
$EndEntities
$Nodes
16 135 1 135
0 1 0 1
1
0 0 0
0 2 0 1
2
1 0 0
0 3 0 1
3
0 1 0
0 4 0 1
4
1 1 0
0 5 0 1
5
0.2737331277753867 0.9143218734135168 0
0 6 0 1
6
0.2525949687777123 0.7133339388183979 0
0 7 0 1
7
0.4372247054900878 0.7955217234347367 0
1 1 0 7
8
9
10
11
12
13
14
0.1249999999999999 0 0
0.2499999999999998 0 0
0.3749999999999993 0 0
0.4999999999999988 0 0
0.6249999999999988 0 0
0.7499999999999991 0 0
0.8749999999999997 0 0
1 2 0 7
15
16
17
18
19
20
21
0 0.8750000000000001 0
0 0.7500000000000002 0
0 0.6250000000000007 0
0 0.5000000000000012 0
0 0.3750000000000012 0
0 0.2500000000000009 0
0 0.1250000000000003 0
1 3 0 7
22
23
24
25
26
27
28
1 0.1249999999999999 0
1 0.2499999999999998 0
1 0.3749999999999993 0
1 0.4999999999999988 0
1 0.6249999999999988 0
1 0.7499999999999991 0
1 0.8749999999999997 0
1 4 0 7
29
30
31
32
33
34
35
0.8750000000000001 1 0
0.7500000000000002 1 0
0.6250000000000007 1 0
0.5000000000000012 1 0
0.3750000000000012 1 0
0.2500000000000009 1 0
0.1250000000000003 1 0
1 5 0 2
36
37
0.2666870747761619 0.8473258952151439 0
0.2596410217769372 0.7803299170167712 0
1 6 0 2
38
39
0.3141382143485041 0.7407298670238441 0
0.3756814599192957 0.7681257952292904 0
1 7 0 2
40
41
0.3827275129185208 0.8351217734276634 0
0.328230320346954 0.8747218234205899 0
2 2 0 1
42
0.3211842673477289 0.8077258452222171 0
2 3 0 93
43
44
45
46
47
48
49
50
51
52
53
54
55
56
57
58
59
60
61
62
63
64
65
66
67
68
69
70
71
72
73
74
75
76
77
78
79
80
81
82
83
84
85
86
87
88
89
90
91
92
93
94
95
96
97
98
99
100
101
102
103
104
105
106
107
108
109
110
111
112
113
114
115
116
117
118
119
120
121
122
123
124
125
126
127
128
129
130
131
132
133
134
135
0.429718588765704 0.7276647425982496 0
0.5591875273291187 0.1053684685046254 0
0.4980172158907145 0.7561297512023275 0
0.4873427399005726 0.6789915744804638 0
0.879799327997568 0.4467117164081968 0
0.563644876861397 0.7126393014674396 0
0.5541945562625439 0.6291712052328324 0
0.4726998390900211 0.5956840669131985 0
0.5434025487575022 0.5404193597919635 0
0.4560996139044483 0.5063910464771967 0
0.3294704917407157 0.1000042611982641 0
0.6351036040499205 0.6638160604382746 0
0.5311849384626599 0.4464496985071325 0
0.09027166615047755 0.4453152782604164 0
0.4399125586058005 0.4106774940584402 0
0.3070921613492792 0.6737338888254712 0
0.2436319986638495 0.639512686157179 0
0.6195868223854135 0.4825606729330996 0
0.6091936465635656 0.3840816779772899 0
0.3676030376006654 0.4713184422298612 0
0.3461117520714217 0.3756339889949124 0
0.6422082131540819 0.7505900145328351 0
0.7212129665277438 0.7026882083030215 0
0.1984399265582819 0.8243482596687712 0
0.4230460389196711 0.3093199874171575 0
0.8113998419743962 0.09274299606701841 0
0.1822842743836681 0.6848957224519047 0
0.8111079868781221 0.8870853712218623 0
0.5042306046324481 0.8312013144529973 0
0.1062239968791993 0.1869935990557881 0
0.1695302340013318 0.6040460238969976 0
0.7115637350287085 0.6067248363145179 0
0.7033274032477976 0.4249475850523424 0
0.6920896545353687 0.3197941853954167 0
0.8041953827824546 0.6450744732220055 0
0.2426971709711501 0.5542284995638698 0
0.5979257853229994 0.2835128245932785 0
0.3240206482722354 0.2759589052820476 0
0.2430671859836562 0.3407708124147487 0
0.684162995779221 0.2195118156882832 0
0.7849042289148264 0.264208625574071 0
0.8135756352350328 0.749518090713416 0
0.3875626643750009 0.2035752469528039 0
0.796906301866682 0.5413143288663331 0
0.8916667437944957 0.3157007456315581 0
0.6883729405928951 0.9037912789803874 0
0.1216578867796453 0.3198472903579609 0
0.1049467305567829 0.8149346468591288 0
0.2144084177295709 0.2367737707300838 0
0.4103333082440499 0.9164220326586097 0
0.3811884258657408 0.5688851736617897 0
0.4150172480117343 0.6512415606806428 0
0.8968056330676318 0.5743982916074125 0
0.7920799776425982 0.3619176449164903 0
0.5802007621714205 0.9019663643314761 0
0.2020657546498146 0.11537654916661 0
0.8786647054740164 0.1872798946622322 0
0.2656872187915366 0.4558049166159183 0
0.5167817964014488 0.3462860835018968 0
0.6281792823968944 0.5730344950911792 0
0.1875000000000006 0.9365611496516402 0
0.6822251745105257 0.1115770822818109 0
0.09300266918450095 0.6600479789266452 0
0.1867914475667042 0.758573084277173 0
0.4417747489964716 0.108770465852296 0
0.7188772736662007 0.804355696044706 0
0.9028228537243544 0.8174444814579532 0
0.9028999174682455 0.6935725561667976 0
0.08335974337516316 0.5627501063629045 0
0.3654119419519813 0.6993172625814861 0
0.1734078512253605 0.5048877900139745 0
0.5025594204650214 0.2212069754454198 0
0.3274593512732785 0.9410931458985432 0
0.4482688647784975 0.8558283944967897 0
0.3031953831279797 0.5999035736513983 0
0.09560975371397984 0.908537761517188 0
0.707236038725146 0.513922587524394 0
0.1228417633468427 0.7335960208480641 0
0.5708965409953233 0.7906844702873603 0
0.7886805534122652 0.4511322109401094 0
0.3098943893178769 0.5263137913918567 0
0.09150635094610987 0.09150635094610998 0
0.90849364905389 0.09150635094610987 0
0.2157857784445597 0.8779001372646371 0
0.6052121806813773 0.1882354333026836 0
0.1816991367222405 0.4115699883472144 0
0.9144775286581364 0.9144775286581364 0
0.6401111461159843 0.8302775648353531 0
0.1525687631129673 0.8669435083741132 0
0.4938128464344542 0.9010240518513938 0
0.2955385507998857 0.1901639425676336 0
0.7578543728390688 0.1726500702492856 0
0.3526388021459279 0.6365549511052649 0
$EndNodes
$Elements
6 268 1 268
1 1 1 8
1 1 8 
2 8 9 
3 9 10 
4 10 11 
5 11 12 
6 12 13 
7 13 14 
8 14 2 
1 2 1 8
9 3 15 
10 15 16 
11 16 17 
12 17 18 
13 18 19 
14 19 20 
15 20 21 
16 21 1 
1 3 1 8
17 2 22 
18 22 23 
19 23 24 
20 24 25 
21 25 26 
22 26 27 
23 27 28 
24 28 4 
1 4 1 8
25 4 29 
26 29 30 
27 30 31 
28 31 32 
29 32 33 
30 33 34 
31 34 35 
32 35 3 
2 2 2 9
33 37 6 38 
34 41 5 36 
35 39 7 40 
36 36 42 41 
37 41 42 40 
38 38 42 37 
39 40 42 39 
40 37 42 36 
41 39 42 38 
2 3 2 227
42 44 114 107 
43 92 132 32 
44 90 106 66 
45 47 95 86 
46 116 132 92 
47 44 127 114 
48 107 114 85 
49 25 95 47 
50 33 92 32 
51 78 113 100 
52 89 91 81 
53 70 108 84 
54 86 122 47 
55 53 107 85 
56 90 120 106 
57 5 115 34 
58 84 109 70 
59 72 91 89 
60 10 107 53 
61 105 120 16 
62 81 128 89 
63 34 115 33 
64 30 88 70 
65 34 103 5 
66 113 128 100 
67 43 94 46 
68 100 123 78 
69 35 103 34 
70 17 105 16 
71 72 98 91 
72 66 131 90 
73 98 133 91 
74 26 95 25 
75 83 99 87 
76 109 110 27 
77 83 134 99 
78 88 108 70 
79 19 89 56 
80 31 88 30 
81 104 127 44 
82 71 121 97 
83 25 47 24 
84 47 96 87 
85 30 70 29 
86 84 110 109 
87 12 44 11 
88 47 87 24 
89 56 111 18 
90 19 56 18 
91 10 53 9 
92 82 127 104 
93 72 89 20 
94 52 93 62 
95 12 104 44 
96 85 133 53 
97 32 97 31 
98 20 89 19 
99 99 134 68 
100 16 120 90 
101 21 72 20 
102 14 68 13 
103 24 87 23 
104 50 93 52 
105 87 96 83 
106 23 99 22 
107 50 94 93 
108 53 133 98 
109 46 94 50 
110 52 62 57 
111 68 104 13 
112 15 118 3 
113 16 90 15 
114 9 98 8 
115 53 98 9 
116 31 97 88 
117 62 63 57 
118 87 99 23 
119 56 113 111 
120 62 100 63 
121 11 107 10 
122 3 118 35 
123 43 112 94 
124 61 79 76 
125 27 110 26 
126 89 128 56 
127 39 43 7 
128 55 60 51 
129 28 109 27 
130 32 132 97 
131 82 83 76 
132 63 67 57 
133 79 82 76 
134 63 80 67 
135 63 81 80 
136 76 96 75 
137 80 85 67 
138 74 86 77 
139 52 55 51 
140 52 57 55 
141 44 107 11 
142 54 74 65 
143 61 75 60 
144 61 76 75 
145 6 58 38 
146 83 96 76 
147 81 91 80 
148 47 122 96 
149 55 61 60 
150 38 112 39 
151 13 104 12 
152 46 50 49 
153 61 101 79 
154 63 100 81 
155 86 95 77 
156 50 52 51 
157 50 51 49 
158 77 84 65 
159 1 124 21 
160 8 124 1 
161 2 125 14 
162 22 125 2 
163 46 49 48 
164 67 101 57 
165 57 101 55 
166 74 77 65 
167 49 54 48 
168 60 102 51 
169 60 119 102 
170 67 114 101 
171 55 101 61 
172 101 114 79 
173 26 110 95 
174 54 64 48 
175 39 112 43 
176 54 65 64 
177 51 102 49 
178 121 130 97 
179 36 66 37 
180 43 45 7 
181 18 111 17 
182 65 108 64 
183 54 102 74 
184 84 108 65 
185 46 48 45 
186 6 59 58 
187 49 102 54 
188 58 112 38 
189 102 119 74 
190 103 126 5 
191 73 78 59 
192 43 46 45 
193 95 110 77 
194 77 110 84 
195 4 129 28 
196 29 129 4 
197 37 106 6 
198 85 114 67 
199 62 123 100 
200 48 121 45 
201 97 132 71 
202 105 111 73 
203 6 69 59 
204 99 125 22 
205 80 133 85 
206 93 123 62 
207 117 123 93 
208 74 119 86 
209 70 129 29 
210 75 119 60 
211 68 134 104 
212 69 105 73 
213 17 111 105 
214 59 117 58 
215 90 118 15 
216 73 113 78 
217 7 116 40 
218 40 92 41 
219 111 113 73 
220 78 117 59 
221 98 124 8 
222 69 73 59 
223 45 71 7 
224 75 122 119 
225 41 115 5 
226 93 135 117 
227 21 124 72 
228 119 122 86 
229 14 125 68 
230 114 127 79 
231 45 121 71 
232 68 125 99 
233 94 135 93 
234 96 122 75 
235 66 106 37 
236 64 121 48 
237 56 128 113 
238 108 130 64 
239 109 129 70 
240 72 124 98 
241 6 106 69 
242 104 134 82 
243 97 130 88 
244 5 126 36 
245 79 127 82 
246 58 135 112 
247 91 133 80 
248 36 126 66 
249 69 120 105 
250 82 134 83 
251 88 130 108 
252 100 128 81 
253 33 115 92 
254 28 129 109 
255 112 135 94 
256 35 118 103 
257 106 120 69 
258 71 116 7 
259 40 116 92 
260 118 131 103 
261 92 115 41 
262 117 135 58 
263 126 131 66 
264 90 131 118 
265 78 123 117 
266 64 130 121 
267 103 131 126 
268 71 132 116 
$EndElements
