$MeshFormat
4.1 0 8
$EndMeshFormat
$PhysicalNames
3
1 101 "outer_boundary"
2 1 "material_1"
2 2 "material_2"
$EndPhysicalNames
$Entities
7 7 2 0
1 0 0 0 0 
2 1 0 0 0 
3 0 1 0 0 
4 1 1 0 0 
5 0.3614424967054372 0.6180084950494722 0 0 
6 0.5298261573418142 0.3448039276927859 0 0 
7 0.6822364227844528 0.6272307390644494 0 0 
1 -9.999999994736442e-08 -1e-07 -1e-07 1.0000001 1e-07 1e-07 1 101 2 1 -2 
2 -1e-07 -9.999999994736442e-08 -1e-07 1e-07 1.0000001 1e-07 1 101 2 3 -1 
3 0.9999999000000001 -9.999999994736442e-08 -1e-07 1.0000001 1.0000001 1e-07 1 101 2 2 -4 
4 -9.999999994736442e-08 0.9999999000000001 -1e-07 1.0000001 1.0000001 1e-07 1 101 2 4 -3 
5 0.3614423967054372 0.3448038276927859 -1e-07 0.5298262573418141 0.6180085950494721 1e-07 0 2 5 -6 
6 0.5298260573418142 0.3448038276927859 -1e-07 0.6822365227844528 0.6272308390644493 1e-07 0 2 6 -7 
7 0.3614423967054372 0.6180083950494722 -1e-07 0.6822365227844528 0.6272308390644493 1e-07 0 2 7 -5 
2 0.3614423967054372 0.3448038276927859 -1e-07 0.6822365227844528 0.6272308390644493 1e-07 1 2 3 5 6 7 
3 -9.999999994736442e-08 -9.999999994736442e-08 -1e-07 1.0000001 1.0000001 1e-07 1 1 7 1 3 4 2 -5 -7 -6 
$EndEntities
$Nodes
16 225 1 225
0 1 0 1
1
0 0 0
0 2 0 1
2
1 0 0
0 3 0 1
3
0 1 0
0 4 0 1
4
1 1 0
0 5 0 1
5
0.3614424967054372 0.6180084950494722 0
0 6 0 1
6
0.5298261573418142 0.3448039276927859 0
0 7 0 1
7
0.6822364227844528 0.6272307390644494 0
1 1 0 9
8
9
10
11
12
13
14
15
16
0.09999999999999996 0 0
0.1999999999999999 0 0
0.3000000000000001 0 0
0.4000000000000004 0 0
0.5000000000000003 0 0
0.5999999999999999 0 0
0.6999999999999995 0 0
0.7999999999999992 0 0
0.899999999999999 0 0
1 2 0 9
17
18
19
20
21
22
23
24
25
0 0.9 0
0 0.8 0
0 0.7 0
0 0.5999999999999996 0
0 0.4999999999999997 0
0 0.4000000000000001 0
0 0.3000000000000005 0
0 0.2000000000000008 0
0 0.100000000000001 0
1 3 0 9
26
27
28
29
30
31
32
33
34
1 0.09999999999999996 0
1 0.1999999999999999 0
1 0.3000000000000001 0
1 0.4000000000000004 0
1 0.5000000000000003 0
1 0.5999999999999999 0
1 0.6999999999999995 0
1 0.7999999999999992 0
1 0.899999999999999 0
1 4 0 9
35
36
37
38
39
40
41
42
43
0.9 1 0
0.8 1 0
0.7 1 0
0.5999999999999996 1 0
0.4999999999999997 1 0
0.4000000000000001 1 0
0.3000000000000005 1 0
0.2000000000000008 1 0
0.100000000000001 1 0
1 5 0 5
44
45
46
47
48
0.3895064401448334 0.5724744004900244 0
0.4175703835842296 0.5269403059305766 0
0.4456343270236258 0.4814062113711289 0
0.4736982704630219 0.4358721168116813 0
0.501762213902418 0.3903380222522336 0
1 6 0 5
49
50
51
52
53
0.5552278682489207 0.3918750629213965 0
0.5806295791560272 0.4389461981500072 0
0.6060312900631336 0.4860173333786177 0
0.63143300097024 0.5330884686072284 0
0.6568347118773464 0.5801596038358389 0
1 7 0 5
54
55
56
57
58
0.6287707684379502 0.6256936983952865 0
0.5753051140914474 0.6241566577261236 0
0.5218394597449448 0.6226196170569608 0
0.4683738053984423 0.621082576387798 0
0.4149081510519397 0.619545535718635 0
2 2 0 10
59
60
61
62
63
64
65
66
67
68
0.5499034031843411 0.5770855224975131 0
0.4990999813701283 0.4829432520402918 0
0.6033690575308437 0.5786225631666759 0
0.4429720944913359 0.5740114411591872 0
0.5271639248095246 0.4374091574808442 0
0.552565635716631 0.4844802927094549 0
0.5245016922772346 0.5300143872689024 0
0.5779673466237373 0.5315514279380654 0
0.4964377488378385 0.5755484818283502 0
0.4710360379307321 0.5284773465997396 0
2 3 0 157
69
70
71
72
73
74
75
76
77
78
79
80
81
82
83
84
85
86
87
88
89
90
91
92
93
94
95
96
97
98
99
100
101
102
103
104
105
106
107
108
109
110
111
112
113
114
115
116
117
118
119
120
121
122
123
124
125
126
127
128
129
130
131
132
133
134
135
136
137
138
139
140
141
142
143
144
145
146
147
148
149
150
151
152
153
154
155
156
157
158
159
160
161
162
163
164
165
166
167
168
169
170
171
172
173
174
175
176
177
178
179
180
181
182
183
184
185
186
187
188
189
190
191
192
193
194
195
196
197
198
199
200
201
202
203
204
205
206
207
208
209
210
211
212
213
214
215
216
217
218
219
220
221
222
223
224
225
0.4531470790201634 0.3929628231021692 0
0.5854716311733782 0.3463182017568249 0
0.3668623891690312 0.526069411343623 0
0.655926326746793 0.4835457227449085 0
0.07984250974173845 0.2551496407756116 0
0.4403098619590461 0.6666166709472455 0
0.6533195439508943 0.673395889878133 0
0.7121826745448302 0.6766494620229733 0
0.9133974596215562 0.25 0
0.712711723026191 0.5803049758700317 0
0.5486201942297795 0.6703568783521459 0
0.5586760613089446 0.2957627231756168 0
0.6181455439843382 0.2971305494999877 0
0.258221425200614 0.9223379024367767 0
0.3471856068187236 0.08815528667624151 0
0.4991315767547813 0.2943599167557517 0
0.08995174659926181 0.4469924068466996 0
0.676883742968698 0.7303540578171602 0
0.09475415192525055 0.6487547274711987 0
0.7444750156752195 0.7309706771828763 0
0.7824604258308614 0.6745626838489307 0
0.9093770261897178 0.4442996747267378 0
0.5303669659543391 0.2401398067409336 0
0.4499999999999999 0.9133974596215566 0
0.7499999999999993 0.08660254037844356 0
0.6459729364702713 0.3520713139390038 0
0.6824857574617115 0.2993983959022785 0
0.7112084160044498 0.3601504964039559 0
0.466645917488576 0.2406626306791016 0
0.7091906702316432 0.7907211743355085 0
0.6362554005121437 0.7873213340236958 0
0.7784419459762595 0.7939746385834066 0
0.6548927293011336 0.2409793113253928 0
0.7222716473300212 0.2393650564672622 0
0.5004685401176492 0.1790917549284922 0
0.08059436106687246 0.8570216177107284 0
0.1509725032211571 0.08378832305752604 0
0.6761068281876556 0.8521047053245976 0
0.5926753686570734 0.8497907491405561 0
0.5604414328247116 0.7847714608407976 0
0.4324329114729228 0.2975304949925488 0
0.402594449161829 0.2388058203510685 0
0.3616967992019833 0.3038903797991078 0
0.3282451762008276 0.2386033991802658 0
0.2904969652031506 0.3097917309052728 0
0.3278530392102598 0.3711416256439115 0
0.2555915865335939 0.3782612098463741 0
0.2331849667337764 0.2494511162858567 0
0.2993236268605411 0.4478648972657292 0
0.2232161608024402 0.4454114960025152 0
0.2604012408369226 0.5115896629847689 0
0.1933592719181779 0.5117003566417483 0
0.2319752120735105 0.5736109844140472 0
0.9113646383581329 0.6448431687563499 0
0.9079961692777745 0.8503314945180211 0
0.1694786959745245 0.3843620330977666 0
0.5674765668641235 0.1800917328656983 0
0.3625672450427821 0.4288785230231998 0
0.2919607153820469 0.1657376951087303 0
0.5370636042484552 0.1131771632644986 0
0.6147770132265644 0.1264475413133664 0
0.4519990136532137 0.1088520460359709 0
0.1551307300707111 0.5702966175211928 0
0.2033212662593178 0.6497417977238108 0
0.1484623715712279 0.7179864522267227 0
0.235494750835234 0.7258835695664767 0
0.1877258516269635 0.7831408182840286 0
0.2712948592910329 0.7876152259078804 0
0.310436036175564 0.730132049378414 0
0.34871470289803 0.7910429581437756 0
0.277243615612455 0.6286474727256071 0
0.3856406197786306 0.7205782107400104 0
0.4210162120272951 0.7882965788728802 0
0.2908291522119251 0.5710874782862816 0
0.6715700783778527 0.4190398215996834 0
0.7420049498440493 0.4267471500620683 0
0.7827092132844996 0.3660898292524851 0
0.8179045764358633 0.4355999426116276 0
0.7755438863922697 0.4944297658811728 0
0.8537014914785204 0.3743166411403005 0
0.8374430340743377 0.2950357237202565 0
0.8507013334509967 0.5117425677872912 0
0.7883389845772908 0.5695654104682574 0
0.3508844773750169 0.923925165079214 0
0.08261585286530931 0.3477106312738904 0
0.5159153649917779 0.8494116616532623 0
0.9148578731548527 0.7525295104397295 0
0.6882979189915962 0.1647135340343919 0
0.75 0.9137063275995122 0
0.1948938056368232 0.1611011250178639 0
0.772543671112712 0.1746084043110432 0
0.8326759241482327 0.1165667161456724 0
0.6008409934339586 0.7211619721187781 0
0.2475021051764585 0.08313040497672697 0
0.4593692899674 0.7249669772308444 0
0.849415805031109 0.9245296965281027 0
0.5474651904169039 0.9226430829657565 0
0.1578094477794424 0.9148202452560908 0
0.09056001205816477 0.1567601786749794 0
0.3886883094421808 0.1598052132579021 0
0.0785472602792221 0.5457090732849152 0
0.4763605029953116 0.343266887023623 0
0.611465458534532 0.3984977711371804 0
0.9182084215115602 0.1583328304267647 0
0.3866530494974614 0.6579188880809925 0
0.4929055860639464 0.6716306135241811 0
0.5264550201949351 0.7258172720175294 0
0.6844017205156261 0.5338893594988233 0
0.9205674742458878 0.5502540883976476 0
0.1565014021446546 0.2992034507929937 0
0.3309641179922532 0.6648455279495995 0
0.8522914732371143 0.7021455398148368 0
0.8345734814226823 0.6282449650290999 0
0.405081335294544 0.3675420269033588 0
0.7544195458729636 0.3001622877674124 0
0.601371322828806 0.6629530192940934 0
0.3925153286001146 0.4794563303859947 0
0.421511770118385 0.4351234547389516 0
0.6443745645436054 0.9230408108384037 0
0.09107236107006123 0.7653558672852349 0
0.7388745006396037 0.6272576123966032 0
0.847254254145045 0.2005687791183761 0
0.3074090200775906 0.8540978754915194 0
0.5933300680142383 0.2398382802720058 0
0.9253281434178673 0.3293354494957502 0
0.3469959642686468 0.4806444715745648 0
0.3881670349550639 0.8534982021269165 0
0.6251245465756676 0.4452093694020794 0
0.4890291862264284 0.7872488543613113 0
0.1614905616749027 0.4593353960918262 0
0.7111220256269952 0.4823994517386635 0
0.8448939037308869 0.7821939259896287 0
0.221222839745194 0.3197884269887391 0
0.7344236680276746 0.5321177926913897 0
0.9080491981200804 0.07928774263940669 0
0.786786430507016 0.2419480502768701 0
0.3149354987509317 0.5204611173067065 0
0.2242927861204461 0.8521037240302164 0
0.926794919243112 0.9267949192431117 0
0.7450886372122653 0.8413704567301992 0
0.07320508075688781 0.9267949192431124 0
0.154014511537396 0.2292749118174411 0
0.07320508075688753 0.07320508075688781 0
0.6553450008834194 0.07336178177008956 0
0.812044728742644 0.854403863044915 0
0.4514587850366611 0.8471422783676911 0
0.3429023192127786 0.5737177386498976 0
0.4408294793049793 0.1870130168593963 0
0.8005125528900683 0.7367694930839358 0
0.3206763403469698 0.6112613425321716 0
0.6304225406725503 0.1849255580244055 0
0.1482989615327572 0.8344884545132598 0
0.8611091824109982 0.5809300400877292 0
0.2714919573749648 0.6798500834687816 0
0.7872553041643167 0.6212016357658949 0
0.5814371236716879 0.06259729726959085 0
0.1344819195289276 0.5072078894467408 0
$EndNodes
$Elements
6 448 1 448
1 1 1 10
1 1 8 
2 8 9 
3 9 10 
4 10 11 
5 11 12 
6 12 13 
7 13 14 
8 14 15 
9 15 16 
10 16 2 
1 2 1 10
11 3 17 
12 17 18 
13 18 19 
14 19 20 
15 20 21 
16 21 22 
17 22 23 
18 23 24 
19 24 25 
20 25 1 
1 3 1 10
21 2 26 
22 26 27 
23 27 28 
24 28 29 
25 29 30 
26 30 31 
27 31 32 
28 32 33 
29 33 34 
30 34 4 
1 4 1 10
31 4 35 
32 35 36 
33 36 37 
34 37 38 
35 38 39 
36 39 40 
37 40 41 
38 41 42 
39 42 43 
40 43 3 
2 2 2 36
41 6 49 48 
42 5 44 58 
43 54 53 7 
44 50 64 63 
45 53 61 52 
46 59 66 61 
47 63 64 60 
48 51 64 50 
49 62 67 57 
50 59 61 55 
51 57 67 56 
52 60 68 46 
53 50 63 49 
54 46 68 45 
55 45 62 44 
56 54 61 53 
57 55 61 54 
58 65 68 60 
59 52 66 51 
60 65 66 59 
61 64 65 60 
62 44 62 58 
63 51 66 64 
64 58 62 57 
65 47 60 46 
66 45 68 62 
67 56 59 55 
68 62 68 67 
69 61 66 52 
70 64 66 65 
71 56 67 59 
72 59 67 65 
73 67 68 65 
74 48 63 47 
75 47 63 60 
76 49 63 48 
2 3 2 372
77 11 130 83 
78 157 187 106 
79 12 130 11 
80 131 132 87 
81 15 203 160 
82 161 175 79 
83 69 182 170 
84 128 130 12 
85 127 168 112 
86 132 133 87 
87 85 153 124 
88 124 198 85 
89 37 187 157 
90 148 193 90 
91 135 220 188 
92 143 199 72 
93 87 169 131 
94 16 203 15 
95 83 168 127 
96 112 168 110 
97 90 193 29 
98 140 179 173 
99 170 182 109 
100 151 189 78 
101 139 222 132 
102 182 186 126 
103 69 186 182 
104 90 177 150 
105 144 199 143 
106 133 188 87 
107 87 188 19 
108 90 150 146 
109 30 177 90 
110 137 179 140 
111 20 169 87 
112 135 188 133 
113 188 220 104 
114 105 162 158 
115 74 163 140 
116 158 167 105 
117 15 160 93 
118 127 162 83 
119 79 184 161 
120 146 148 90 
121 108 175 161 
122 132 222 134 
123 158 210 167 
124 78 202 151 
125 12 224 128 
126 140 173 74 
127 150 151 147 
128 130 168 83 
129 146 150 147 
130 77 193 149 
131 82 152 41 
132 149 190 77 
133 26 203 2 
134 194 205 117 
135 74 174 163 
136 151 223 189 
137 132 134 133 
138 86 161 75 
139 158 162 127 
140 156 212 93 
141 32 155 122 
142 22 153 85 
143 116 201 178 
144 93 159 156 
145 121 142 139 
146 178 210 116 
147 114 126 117 
148 119 142 121 
149 114 182 126 
150 2 203 16 
151 181 221 122 
152 149 193 148 
153 117 205 119 
154 134 137 136 
155 9 162 105 
156 137 140 138 
157 154 165 92 
158 40 152 92 
159 72 196 143 
160 153 178 124 
161 129 212 156 
162 121 139 132 
163 99 161 86 
164 20 87 19 
165 92 165 39 
166 40 92 39 
167 42 82 41 
168 30 90 29 
169 123 155 33 
170 32 122 31 
171 73 153 23 
172 174 175 163 
173 22 85 21 
174 108 161 99 
175 11 83 10 
176 28 77 27 
177 82 191 152 
178 37 157 36 
179 24 73 23 
180 122 221 177 
181 149 204 190 
182 114 117 115 
183 117 119 118 
184 34 123 33 
185 41 152 40 
186 137 138 136 
187 155 180 122 
188 107 108 99 
189 33 155 32 
190 39 165 38 
191 83 162 10 
192 23 153 22 
193 15 93 14 
194 42 166 82 
195 111 114 113 
196 200 217 180 
197 18 104 17 
198 157 164 36 
199 96 143 94 
200 119 121 120 
201 9 105 8 
202 143 171 94 
203 146 147 144 
204 161 184 75 
205 10 162 9 
206 24 167 73 
207 166 206 82 
208 38 187 37 
209 140 141 138 
210 109 182 111 
211 134 136 135 
212 21 169 20 
213 36 164 35 
214 134 135 133 
215 140 163 141 
216 31 177 30 
217 106 208 157 
218 92 214 154 
219 43 166 42 
220 73 178 153 
221 152 195 92 
222 25 167 24 
223 93 160 159 
224 107 154 108 
225 114 115 113 
226 117 118 115 
227 85 169 21 
228 147 199 144 
229 167 210 73 
230 155 200 180 
231 27 172 26 
232 77 172 27 
233 151 202 147 
234 84 109 97 
235 19 188 18 
236 122 177 31 
237 164 213 123 
238 96 144 143 
239 119 120 118 
240 29 193 28 
241 89 181 180 
242 121 132 131 
243 212 224 13 
244 123 213 200 
245 166 220 206 
246 109 111 110 
247 14 212 13 
248 47 69 48 
249 111 182 114 
250 142 218 139 
251 6 70 49 
252 119 205 142 
253 44 71 45 
254 121 131 120 
255 111 113 112 
256 145 149 148 
257 51 72 52 
258 98 99 86 
259 57 74 58 
260 49 171 50 
261 56 174 57 
262 55 79 56 
263 7 75 54 
264 52 176 53 
265 53 78 7 
266 4 207 34 
267 35 207 4 
268 58 173 5 
269 106 107 99 
270 109 110 97 
271 113 116 112 
272 95 96 94 
273 143 196 171 
274 54 184 55 
275 116 127 112 
276 197 214 141 
277 134 222 137 
278 3 209 43 
279 17 209 3 
280 79 175 174 
281 160 190 159 
282 1 211 25 
283 8 211 1 
284 81 94 70 
285 116 210 158 
286 48 170 6 
287 116 158 127 
288 84 170 109 
289 111 112 110 
290 145 146 144 
291 126 194 117 
292 145 183 149 
293 118 124 115 
294 45 185 46 
295 165 187 38 
296 71 215 205 
297 46 186 47 
298 96 145 144 
299 103 130 128 
300 76 89 88 
301 103 125 91 
302 81 101 95 
303 163 197 141 
304 6 80 70 
305 107 165 154 
306 18 188 104 
307 128 129 125 
308 145 148 146 
309 6 84 80 
310 81 95 94 
311 172 203 26 
312 98 106 99 
313 13 224 12 
314 84 97 91 
315 28 193 77 
316 173 179 5 
317 101 102 95 
318 70 171 49 
319 156 219 129 
320 123 200 155 
321 156 159 102 
322 47 186 69 
323 106 187 107 
324 97 103 91 
325 88 98 86 
326 129 224 212 
327 57 174 74 
328 79 174 56 
329 72 176 52 
330 80 81 70 
331 71 185 45 
332 101 156 102 
333 103 128 125 
334 69 170 48 
335 74 173 58 
336 55 184 79 
337 53 176 78 
338 168 216 110 
339 88 100 98 
340 172 190 160 
341 75 184 54 
342 94 171 70 
343 76 88 86 
344 95 183 96 
345 77 190 172 
346 7 76 75 
347 96 183 145 
348 185 186 46 
349 50 196 51 
350 84 91 80 
351 107 187 165 
352 157 213 164 
353 113 201 116 
354 76 86 75 
355 6 170 84 
356 180 181 122 
357 178 201 124 
358 51 196 72 
359 171 196 50 
360 125 192 91 
361 138 191 136 
362 154 197 108 
363 102 183 95 
364 164 207 35 
365 103 216 130 
366 141 195 138 
367 154 214 197 
368 34 207 123 
369 82 206 191 
370 180 217 89 
371 124 201 115 
372 169 225 131 
373 123 207 164 
374 43 209 166 
375 118 198 124 
376 195 214 92 
377 93 212 14 
378 130 216 168 
379 108 197 175 
380 81 192 101 
381 44 215 71 
382 192 219 101 
383 25 211 167 
384 76 189 89 
385 183 204 149 
386 205 215 142 
387 78 189 7 
388 177 221 150 
389 125 219 192 
390 104 209 17 
391 110 216 97 
392 175 197 163 
393 105 211 8 
394 138 195 191 
395 191 206 136 
396 166 209 104 
397 120 198 118 
398 115 201 113 
399 98 208 106 
400 167 211 105 
401 139 218 179 
402 89 217 88 
403 7 189 76 
404 102 204 183 
405 160 203 172 
406 179 218 5 
407 100 217 200 
408 80 192 81 
409 136 206 135 
410 181 223 151 
411 89 223 181 
412 91 192 80 
413 71 194 185 
414 104 220 166 
415 129 219 125 
416 126 186 185 
417 150 221 151 
418 85 225 169 
419 159 204 102 
420 131 225 120 
421 72 199 176 
422 5 215 44 
423 176 202 78 
424 73 210 178 
425 151 221 181 
426 191 195 152 
427 190 204 159 
428 100 208 98 
429 208 213 157 
430 185 194 126 
431 199 202 176 
432 179 222 139 
433 88 217 100 
434 97 216 103 
435 101 219 156 
436 141 214 195 
437 200 213 100 
438 71 205 194 
439 128 224 129 
440 5 218 215 
441 137 222 179 
442 100 213 208 
443 147 202 199 
444 198 225 85 
445 189 223 89 
446 120 225 198 
447 206 220 135 
448 215 218 142 
$EndElements
