$MeshFormat
4.1 0 8
$EndMeshFormat
$PhysicalNames
3
1 101 "outer_boundary"
2 1 "material_1"
2 2 "material_2"
$EndPhysicalNames
$Entities
5 5 2 0
1 0 0 0 0 
2 1 0 0 0 
3 0 1 0 0 
4 1 1 0 0 
5 0.8335599404896787 0.6634192636357434 0 0 
1 -9.999999994736442e-08 -1e-07 -1e-07 1.0000001 1e-07 1e-07 1 101 2 1 -2 
2 -1e-07 -9.999999994736442e-08 -1e-07 1e-07 1.0000001 1e-07 1 101 2 3 -1 
3 0.9999999000000001 -9.999999994736442e-08 -1e-07 1.0000001 1.0000001 1e-07 1 101 2 2 -4 
4 -9.999999994736442e-08 0.9999999000000001 -1e-07 1.0000001 1.0000001 1e-07 1 101 2 4 -3 
5 0.540599790983049 0.5169391388824286 -1e-07 0.8335600404896787 0.8098993883890583 1e-07 0 2 5 -5 
2 0.540599790983049 0.5169391388824286 -1e-07 0.8335600404896787 0.8098993883890583 1e-07 1 2 1 5 
3 -9.999999994736442e-08 -9.999999994736442e-08 -1e-07 1.0000001 1.0000001 1e-07 1 1 5 1 3 4 2 -5 
$EndEntities
$Nodes
12 160 1 160
0 1 0 1
1
0 0 0
0 2 0 1
2
1 0 0
0 3 0 1
3
0 1 0
0 4 0 1
4
1 1 0
0 5 0 1
5
0.8335599404896787 0.6634192636357434 0
1 1 0 7
6
7
8
9
10
11
12
0.1249999999999999 0 0
0.2499999999999998 0 0
0.3749999999999993 0 0
0.4999999999999988 0 0
0.6249999999999988 0 0
0.7499999999999991 0 0
0.8749999999999997 0 0
1 2 0 7
13
14
15
16
17
18
19
0 0.8750000000000001 0
0 0.7500000000000002 0
0 0.6250000000000007 0
0 0.5000000000000012 0
0 0.3750000000000012 0
0 0.2500000000000009 0
0 0.1250000000000003 0
1 3 0 7
20
21
22
23
24
25
26
1 0.1249999999999999 0
1 0.2499999999999998 0
1 0.3749999999999993 0
1 0.4999999999999988 0
1 0.6249999999999988 0
1 0.7499999999999991 0
1 0.8749999999999997 0
1 4 0 7
27
28
29
30
31
32
33
0.8750000000000001 1 0
0.7500000000000002 1 0
0.6250000000000007 1 0
0.5000000000000012 1 0
0.3750000000000012 1 0
0.2500000000000009 1 0
0.1250000000000003 1 0
1 5 0 13
34
35
36
37
38
39
40
41
42
43
44
45
46
0.8190538578086763 0.7269745644817441 0
0.7784087173460706 0.7779419585405812 0
0.7196747876504158 0.8062267283448346 0
0.6544850438223125 0.8062267283448348 0
0.5957511141266575 0.7779419585405817 0
0.5551059736640515 0.7269745644817445 0
0.5405998909830489 0.6634192636357438 0
0.5551059736640512 0.5998639627897429 0
0.5957511141266569 0.5488965687309056 0
0.6544850438223119 0.5206117989266523 0
0.7196747876504153 0.5206117989266522 0
0.7784087173460704 0.5488965687309054 0
0.8190538578086763 0.5998639627897426 0
2 2 0 17
47
48
49
50
51
52
53
54
55
56
57
58
59
60
61
62
63
0.7222687182691013 0.7403015436719171 0
0.6496134081651628 0.5856192590093054 0
0.7712663940713782 0.6442042493238886 0
0.5976252238185726 0.6818006452573427 0
0.6496134081651632 0.7412192682621817 0
0.7245464233075646 0.5856192590093054 0
0.5833008027687535 0.6386012091056263 0
0.631309366790074 0.6393945424224728 0
0.6550822886420153 0.6889365197508692 0
0.6969275317742192 0.6417183610223436 0
0.7288722941781557 0.6829282975319717 0
0.7755716536938435 0.705961646197641 0
0.6865104894767482 0.773493567155942 0
0.6028934374013496 0.7305557398116427 0
0.6028934374013493 0.5962827874598445 0
0.6870799157363636 0.5531155289679789 0
0.7733188481334223 0.5946460099634605 0
2 3 0 97
64
65
66
67
68
69
70
71
72
73
74
75
76
77
78
79
80
81
82
83
84
85
86
87
88
89
90
91
92
93
94
95
96
97
98
99
100
101
102
103
104
105
106
107
108
109
110
111
112
113
114
115
116
117
118
119
120
121
122
123
124
125
126
127
128
129
130
131
132
133
134
135
136
137
138
139
140
141
142
143
144
145
146
147
148
149
150
151
152
153
154
155
156
157
158
159
160
0.5236152382731064 0.544793482079046 0
0.6870799157363634 0.464155824705315 0
0.4879893874203343 0.6996441653567678 0
0.3057097610011272 0.09373110383611782 0
0.1062130743005877 0.4493693237743183 0
0.5694957460555196 0.09770912676951682 0
0.0997823507067685 0.6872109025810951 0
0.3189033509760364 0.892562706808023 0
0.8917468245269456 0.3124999999999996 0
0.4928124272457509 0.6190789771015979 0
0.4523614879558013 0.5518427238445692 0
0.4791979384712698 0.4810349456471149 0
0.4285050504954958 0.663419263635744 0
0.401574497235552 0.4903963266756095 0
0.4342455429152387 0.4131010797704547 0
0.5093309052457685 0.4103816758356315 0
0.4692078404941773 0.3318785985093973 0
0.3777019900636772 0.3405568096211742 0
0.5700776671667727 0.3433531344029043 0
0.754770594041394 0.4664084808842899 0
0.7112651214193575 0.4009786620149083 0
0.5499320112937895 0.7967396855387079 0
0.6006227497838069 0.8429494186232347 0
0.4195520376247756 0.7396849109576403 0
0.3538369461672232 0.7007845060552567 0
0.7981569758242382 0.1036939734280952 0
0.8474590101793864 0.7823295278089779 0
0.8011206555387487 0.8431752091920125 0
0.122965811195527 0.1931030919164742 0
0.8303889131066947 0.4840019513149871 0
0.4171867912062471 0.251487434713932 0
0.3172804920156337 0.2655902562454534 0
0.2903358920304313 0.3607508289606229 0
0.3773079574443295 0.5620617518816509 0
0.319286261842754 0.5034554195505473 0
0.2946545868066477 0.5836577390659059 0
0.6829398627490894 0.8609597685826162 0
0.613757573362403 0.4765285771589609 0
0.6365676072860154 0.4084389820799922 0
0.6644243605407451 0.3310930139288512 0
0.6215362441489238 0.2512830062457606 0
0.7145855972836912 0.2640973639680761 0
0.2195059204932405 0.5144942174867446 0
0.800084810763664 0.3908033451173764 0
0.5078106337621644 0.8503803666109485 0
0.6752559487630133 0.1656173076458057 0
0.8739137559368247 0.705412068123909 0
0.8889560099273963 0.4105635043556609 0
0.1025695076289803 0.5669185200368905 0
0.2160729364996015 0.2909577868566762 0
0.8796032294125716 0.625255444274762 0
0.519114826109371 0.2527484710333005 0
0.4760473934936096 0.1621408939479914 0
0.3391947649416328 0.7868790639530818 0
0.269559723983998 0.7335211703869382 0
0.417438724077264 0.8264030977654986 0
0.1875000000000006 0.8917468245269449 0
0.881197543037352 0.8592399720955003 0
0.1082547385610264 0.329701635351531 0
0.8984030360853378 0.1848828405194981 0
0.09288853428280586 0.8090677018654039 0
0.1920496420779722 0.0942997509307526 0
0.7948437064098085 0.3016248741079554 0
0.2074693638387851 0.642400921610371 0
0.3514869827618318 0.4258750926795266 0
0.8642293523667575 0.5517252554885962 0
0.2039272078105805 0.4139366074157338 0
0.7992578657485403 0.2051812066840465 0
0.4454956103756867 0.9186792631851912 0
0.2522708598393683 0.1869817887396568 0
0.2561522280494866 0.8144727445671437 0
0.9234535616850923 0.777250812079648 0
0.1779077564447363 0.7490615659013004 0
0.3612436091302918 0.1743228739879408 0
0.660788915211979 0.9254256000289007 0
0.8276339497189441 0.9273980633213046 0
0.7403596951448628 0.8938642282449447 0
0.08107770685656135 0.9151629052784698 0
0.90849364905389 0.09150635094610987 0
0.6874999999999989 0.07105226055605585 0
0.09150635094610987 0.09150635094610998 0
0.5416819061048694 0.4810959263827503 0
0.9341668073750241 0.5759853647908402 0
0.4037222219837301 0.08577790504869703 0
0.2960759263657551 0.6596615720874757 0
0.573581823064983 0.4312260842815296 0
0.3703994621493847 0.6333819958664124 0
0.277223528143581 0.4387250026763856 0
0.9319928981167853 0.9319928981167851 0
0.7370407192834533 0.3377194518274335 0
0.4896381279737299 0.7733044651185512 0
0.9351895590682521 0.6764839482115261 0
0.4320969304535954 0.6061929966342617 0
0.9204623673513213 0.4850601686643266 0
0.5722900317140874 0.185899761128475 0
0.5566196515222731 0.9229057747413792 0
0.4873163403832145 0.08640698144155134 0
$EndNodes
$Elements
6 318 1 318
1 1 1 8
1 1 6 
2 6 7 
3 7 8 
4 8 9 
5 9 10 
6 10 11 
7 11 12 
8 12 2 
1 2 1 8
9 3 13 
10 13 14 
11 14 15 
12 15 16 
13 16 17 
14 17 18 
15 18 19 
16 19 1 
1 3 1 8
17 2 20 
18 20 21 
19 21 22 
20 22 23 
21 23 24 
22 24 25 
23 25 26 
24 26 4 
1 4 1 8
25 4 27 
26 27 28 
27 28 29 
28 29 30 
29 30 31 
30 31 32 
31 32 33 
32 33 3 
2 2 2 46
33 47 58 35 
34 55 57 47 
35 51 55 47 
36 35 58 34 
37 52 56 48 
38 49 56 52 
39 56 57 55 
40 57 58 47 
41 48 56 54 
42 47 59 51 
43 48 62 52 
44 52 63 49 
45 43 48 42 
46 38 51 37 
47 36 47 35 
48 40 50 39 
49 5 49 46 
50 45 52 44 
51 49 57 56 
52 54 56 55 
53 55 60 50 
54 51 60 55 
55 34 58 5 
56 5 58 49 
57 39 60 38 
58 38 60 51 
59 52 62 44 
60 45 63 52 
61 51 59 37 
62 48 61 42 
63 43 62 48 
64 37 59 36 
65 40 53 50 
66 42 61 41 
67 41 53 40 
68 36 59 47 
69 49 63 46 
70 44 62 43 
71 46 63 45 
72 50 60 39 
73 54 55 50 
74 53 61 54 
75 54 61 48 
76 53 54 50 
77 49 58 57 
78 41 61 53 
2 3 2 240
79 113 130 122 
80 108 154 85 
81 106 112 68 
82 102 149 82 
83 89 131 109 
84 82 103 102 
85 96 130 113 
86 138 140 28 
87 100 140 138 
88 126 131 72 
89 92 133 113 
90 127 148 118 
91 109 143 89 
92 118 136 127 
93 119 132 71 
94 44 83 45 
95 119 154 108 
96 120 136 134 
97 72 111 107 
98 117 119 71 
99 36 140 100 
100 91 140 36 
101 113 122 92 
102 68 130 106 
103 43 101 65 
104 107 126 72 
105 72 131 123 
106 41 73 64 
107 122 130 68 
108 125 133 92 
109 82 149 79 
110 73 74 64 
111 22 157 111 
112 124 136 120 
113 109 131 105 
114 66 73 40 
115 45 129 46 
116 101 102 65 
117 94 115 80 
118 35 91 36 
119 29 138 28 
120 66 76 73 
121 32 120 71 
122 22 111 72 
123 106 127 112 
124 68 112 16 
125 116 158 115 
126 83 93 45 
127 80 115 82 
128 71 132 31 
129 64 145 42 
130 82 104 103 
131 69 158 116 
132 92 122 18 
133 22 72 21 
134 42 145 101 
135 32 71 31 
136 69 143 109 
137 15 112 70 
138 10 69 9 
139 15 70 14 
140 17 68 16 
141 8 67 7 
142 110 155 135 
143 72 123 21 
144 121 135 26 
145 33 120 32 
146 99 127 106 
147 94 116 115 
148 23 157 22 
149 65 102 84 
150 39 154 66 
151 16 112 15 
152 70 124 14 
153 12 89 11 
154 83 107 93 
155 17 122 68 
156 34 110 90 
157 19 92 18 
158 102 103 84 
159 67 125 7 
160 71 134 117 
161 10 143 69 
162 38 86 85 
163 93 129 45 
164 14 124 13 
165 18 122 17 
166 21 123 20 
167 107 111 93 
168 127 136 70 
169 3 141 33 
170 37 100 86 
171 7 125 6 
172 9 160 147 
173 85 154 39 
174 5 114 110 
175 78 79 75 
176 89 143 11 
177 112 127 70 
178 13 141 3 
179 120 134 71 
180 74 75 64 
181 86 159 108 
182 81 128 96 
183 86 108 85 
184 104 105 103 
185 81 96 95 
186 80 82 79 
187 82 115 104 
188 9 147 8 
189 109 158 69 
190 41 64 42 
191 66 87 76 
192 43 65 44 
193 26 135 25 
194 42 101 43 
195 108 132 119 
196 138 159 86 
197 96 113 95 
198 81 95 94 
199 2 142 12 
200 20 142 2 
201 78 80 79 
202 6 144 1 
203 1 144 19 
204 39 66 40 
205 81 94 80 
206 78 81 80 
207 40 73 41 
208 74 97 77 
209 117 134 118 
210 99 148 127 
211 97 99 98 
212 77 78 75 
213 87 119 117 
214 99 106 98 
215 104 109 105 
216 97 150 99 
217 87 88 76 
218 74 77 75 
219 110 135 90 
220 65 83 44 
221 97 98 77 
222 117 118 88 
223 79 145 75 
224 87 117 88 
225 100 138 86 
226 78 128 81 
227 34 90 35 
228 135 155 25 
229 69 160 9 
230 67 133 125 
231 38 85 39 
232 108 159 132 
233 33 141 120 
234 28 139 27 
235 94 137 116 
236 25 155 24 
237 36 100 37 
238 70 136 124 
239 77 128 78 
240 84 107 83 
241 99 150 148 
242 107 153 126 
243 105 131 126 
244 84 153 107 
245 8 147 67 
246 5 110 34 
247 123 131 89 
248 31 132 30 
249 134 136 118 
250 65 84 83 
251 37 86 38 
252 116 160 69 
253 98 128 77 
254 87 154 119 
255 46 114 5 
256 123 142 20 
257 111 157 93 
258 24 146 23 
259 30 159 29 
260 113 133 95 
261 124 141 13 
262 125 144 6 
263 12 142 89 
264 93 157 129 
265 89 142 123 
266 120 141 124 
267 19 144 92 
268 106 151 98 
269 90 135 121 
270 11 143 10 
271 26 152 121 
272 133 137 95 
273 128 151 96 
274 137 147 116 
275 90 91 35 
276 92 144 125 
277 95 137 94 
278 74 156 97 
279 46 129 114 
280 105 153 103 
281 4 152 26 
282 27 152 4 
283 114 155 110 
284 130 151 106 
285 76 156 73 
286 67 137 133 
287 73 156 74 
288 75 145 64 
289 28 140 139 
290 104 158 109 
291 90 121 91 
292 101 149 102 
293 132 159 30 
294 79 149 145 
295 67 147 137 
296 118 148 88 
297 121 139 91 
298 121 152 139 
299 126 153 105 
300 103 153 84 
301 66 154 87 
302 88 150 76 
303 148 150 88 
304 96 151 130 
305 115 158 104 
306 139 140 91 
307 146 155 114 
308 97 156 150 
309 98 151 128 
310 129 146 114 
311 139 152 27 
312 150 156 76 
313 129 157 146 
314 145 149 101 
315 147 160 116 
316 146 157 23 
317 29 159 138 
318 24 155 146 
$EndElements
