$MeshFormat
4.1 0 8
$EndMeshFormat
$PhysicalNames
3
1 101 "outer_boundary"
2 1 "material_1"
2 2 "material_2"
$EndPhysicalNames
$Entities
5 5 2 0
1 0 0 0 0 
2 1 0 0 0 
3 0 1 0 0 
4 1 1 0 0 
5 0.9017213991112919 0.5445582743025918 0 0 
1 -9.999999994736442e-08 -1e-07 -1e-07 1.0000001 1e-07 1e-07 1 101 2 1 -2 
2 -1e-07 -9.999999994736442e-08 -1e-07 1e-07 1.0000001 1e-07 1 101 2 3 -1 
3 0.9999999000000001 -9.999999994736442e-08 -1e-07 1.0000001 1.0000001 1e-07 1 101 2 2 -4 
4 -9.999999994736442e-08 0.9999999000000001 -1e-07 1.0000001 1.0000001 1e-07 1 101 2 4 -3 
5 0.4654168686874464 0.3264059590906691 -1e-07 0.9017214991112918 0.7627105895145145 1e-07 0 2 5 -5 
2 0.4654168686874464 0.3264059590906691 -1e-07 0.9017214991112918 0.7627105895145145 1e-07 1 2 1 5 
3 -9.999999994736442e-08 -9.999999994736442e-08 -1e-07 1.0000001 1.0000001 1e-07 1 1 5 1 3 4 2 -5 
$EndEntities
$Nodes
12 167 1 167
0 1 0 1
1
0 0 0
0 2 0 1
2
1 0 0
0 3 0 1
3
0 1 0
0 4 0 1
4
1 1 0
0 5 0 1
5
0.9017213991112919 0.5445582743025918 0
1 1 0 7
6
7
8
9
10
11
12
0.1249999999999999 0 0
0.2499999999999998 0 0
0.3749999999999993 0 0
0.4999999999999988 0 0
0.6249999999999988 0 0
0.7499999999999991 0 0
0.8749999999999997 0 0
1 2 0 7
13
14
15
16
17
18
19
0 0.8750000000000001 0
0 0.7500000000000002 0
0 0.6250000000000007 0
0 0.5000000000000012 0
0 0.3750000000000012 0
0 0.2500000000000009 0
0 0.1250000000000003 0
1 3 0 7
20
21
22
23
24
25
26
1 0.1249999999999999 0
1 0.2499999999999998 0
1 0.3749999999999993 0
1 0.4999999999999988 0
1 0.6249999999999988 0
1 0.7499999999999991 0
1 0.8749999999999997 0
1 4 0 7
27
28
29
30
31
32
33
0.8750000000000001 1 0
0.7500000000000002 1 0
0.6250000000000007 1 0
0.5000000000000012 1 0
0.3750000000000012 1 0
0.2500000000000009 1 0
0.1250000000000003 1 0
1 5 0 19
34
35
36
37
38
39
40
41
42
43
44
45
46
47
48
49
50
51
52
0.891044269720891 0.611971016163617 0
0.8600580333663554 0.6727849291590939 0
0.8117958387558708 0.7210471237695785 0
0.7509819257603938 0.7520333601241138 0
0.6835691838993686 0.7627104895145146 0
0.6161564420383434 0.7520333601241135 0
0.5553425290428666 0.7210471237695778 0
0.5070803344323822 0.672784929159093 0
0.4760940980778471 0.6119710161636162 0
0.4654169686874464 0.5445582743025913 0
0.4760940980778475 0.4771455324415663 0
0.507080334432383 0.4163316194460895 0
0.5553425290428673 0.3680694248356053 0
0.6161564420383443 0.3370831884810699 0
0.6835691838993693 0.3264060590906691 0
0.7509819257603946 0.3370831884810701 0
0.8117958387558714 0.3680694248356056 0
0.8600580333663558 0.4163316194460902 0
0.8910442697208911 0.4771455324415669 0
2 2 0 34
53
54
55
56
57
58
59
60
61
62
63
64
65
66
67
68
69
70
71
72
73
74
75
76
77
78
79
80
81
82
83
84
85
86
0.8270871086747805 0.4722328380145361 0
0.5442536098127342 0.6155431048106583 0
0.6125843533913022 0.4052427002159571 0
0.7519337440621561 0.6821414823544334 0
0.7080288895383012 0.3901257707762799 0
0.8272234950839992 0.5669699857459427 0
0.6114820325431035 0.6860415474578182 0
0.5291366803730572 0.5200985686636596 0
0.5291366803730574 0.4658709835267975 0
0.5871266987175715 0.4810403049015309 0
0.5810922903982636 0.5620003448100185 0
0.6441707526893836 0.5292842097140281 0
0.6441358097854757 0.5956323256642577 0
0.7017411940105064 0.568627276414259 0
0.7063735492892886 0.504346069577168 0
0.7602895386990776 0.5410786705131114 0
0.7650782809051812 0.6139801504403725 0
0.6616948336682551 0.4470470660180692 0
0.70064378874403 0.6348337473906038 0
0.6802836433360789 0.7025584208463999 0
0.8290435518427998 0.627893080803699 0
0.7674798173707706 0.4844377017392846 0
0.7900700149944759 0.4287935796391373 0
0.7245882306200788 0.4429445780325446 0
0.8526798564486966 0.516708780208199 0
0.6564067405071145 0.3811809569164091 0
0.5610108551839389 0.6671166030180212 0
0.5582541191914363 0.4273110065851961 0
0.5172503596218647 0.5710736346417984 0
0.5974016405632071 0.6286051381899677 0
0.6472183863051573 0.6481149589592018 0
0.7569318093349876 0.3877555424820586 0
0.8069519632554649 0.5162855952442148 0
0.8024580714090372 0.6700457768811768 0
2 3 0 81
87
88
89
90
91
92
93
94
95
96
97
98
99
100
101
102
103
104
105
106
107
108
109
110
111
112
113
114
115
116
117
118
119
120
121
122
123
124
125
126
127
128
129
130
131
132
133
134
135
136
137
138
139
140
141
142
143
144
145
146
147
148
149
150
151
152
153
154
155
156
157
158
159
160
161
162
163
164
165
166
167
0.4374225891564858 0.4091332490369621 0
0.436869565132457 0.6717203004796535 0
0.106250342221532 0.3082584017934415 0
0.1188559448415735 0.5525064373036643 0
0.5525494735490728 0.3017692676037441 0
0.7164546163064549 0.2681282397075272 0
0.3080942755272258 0.1063181289450829 0
0.3137785087678368 0.8879012051098953 0
0.8136920612005695 0.788159534121567 0
0.5512314681179382 0.7861107569033174 0
0.1180005121848663 0.8068711700763462 0
0.5435630200903373 0.109707197469353 0
0.895374400525516 0.1748616139532908 0
0.4123743863922368 0.5016052380804981 0
0.3610535638806258 0.4382410218909631 0
0.3721250367853739 0.3469686086456885 0
0.3340679208235783 0.5142410793100792 0
0.2772489380377076 0.4490330866005114 0
0.4911251037441136 0.7409914504232685 0
0.4667889944738963 0.81949299925856 0
0.4115490344493148 0.7667429413628138 0
0.3559076236613434 0.7042556570849089 0
0.6291667874264044 0.2604547381578667 0
0.6797436333611442 0.1895628788073633 0
0.8000766996770932 0.2981986896008222 0
0.741139207672995 0.8199134688416769 0
0.6766894477176181 0.8430993279695265 0
0.8832746890353147 0.7373710099339638 0
0.4123743863922366 0.5875113105246842 0
0.4946116101265006 0.3466511954638474 0
0.4815444347217048 0.2683254006088605 0
0.8752775693006213 0.3491177307342768 0
0.2402401021101316 0.53583145411499 0
0.1886426635802923 0.461041473007584 0
0.208387843404237 0.6314645073954038 0
0.3189210894626463 0.600639327343983 0
0.5346868592603464 0.8725788514634636 0
0.2202686593734713 0.3694943566391196 0
0.810842555240083 0.8928420801338632 0
0.7804968616825054 0.2022150921208735 0
0.5470232028481697 0.2159459991911034 0
0.4637557292731402 0.1840081162979774 0
0.391023990227954 0.2547210934280623 0
0.1192427310769038 0.1861952602478964 0
0.2150538454808224 0.2569023951106819 0
0.3007928168271911 0.2995323447916911 0
0.7339980761684856 0.1207058184905351 0
0.1913993382336507 0.8995924214976972 0
0.2403639061152574 0.7955893204628344 0
0.824244172954209 0.0988216222369282 0
0.8995582443113911 0.8259071636500799 0
0.1880767036550994 0.09298460901681271 0
0.4175953757470955 0.9032387646974784 0
0.1038598965479125 0.690063772661645 0
0.9282175451012429 0.6692128405120522 0
0.7091739769463345 0.9102853133162015 0
0.09550654834678823 0.4154221941921715 0
0.3091516590054789 0.2040460932301557 0
0.4151731190974247 0.09536274477378837 0
0.2823558745578919 0.6856746078580156 0
0.8830634327730206 0.2641158973802141 0
0.9308445516492811 0.4187806136822597 0
0.3304484135922425 0.7800084422952582 0
0.3063313541007927 0.3796450123871035 0
0.190593606562033 0.721932675690849 0
0.9170801599102948 0.9187498487567884 0
0.9165442817396032 0.08413966484342272 0
0.4340210178554457 0.3219573909708165 0
0.6167663876827346 0.9102556778942757 0
0.6081247392295452 0.1706022033332361 0
0.09150635094610993 0.09150635094610998 0
0.3663900112597088 0.6481058327380667 0
0.09150635094610954 0.9084936490538905 0
0.9447295253889241 0.3157949147044163 0
0.9438933562730228 0.5757182143766872 0
0.6416037765980893 0.09823569567651452 0
0.3787355340018108 0.8398869218930818 0
0.6131832981193915 0.8211314106448685 0
0.3779108313038144 0.1681268811295566 0
0.9360367748805586 0.5033338493381191 0
0.2279238429491061 0.1692892973101259 0
$EndNodes
$Elements
6 332 1 332
1 1 1 8
1 1 6 
2 6 7 
3 7 8 
4 8 9 
5 9 10 
6 10 11 
7 11 12 
8 12 2 
1 2 1 8
9 3 13 
10 13 14 
11 14 15 
12 15 16 
13 16 17 
14 17 18 
15 18 19 
16 19 1 
1 3 1 8
17 2 20 
18 20 21 
19 21 22 
20 22 23 
21 23 24 
22 24 25 
23 25 26 
24 26 4 
1 4 1 8
25 4 27 
26 27 28 
27 28 29 
28 29 30 
29 30 31 
30 31 32 
31 32 33 
32 33 3 
2 2 2 86
33 59 72 39 
34 70 78 57 
35 58 69 68 
36 57 76 70 
37 39 72 38 
38 55 70 62 
39 62 80 55 
40 55 78 70 
41 58 73 69 
42 56 71 69 
43 59 83 72 
44 69 86 56 
45 68 85 58 
46 37 72 56 
47 38 72 37 
48 35 73 34 
49 34 73 58 
50 73 86 69 
51 62 70 64 
52 66 71 65 
53 34 58 5 
54 49 57 48 
55 52 53 51 
56 47 55 46 
57 40 59 39 
58 42 54 41 
59 44 60 43 
60 37 56 36 
61 69 71 66 
62 68 69 66 
63 67 68 66 
64 64 70 67 
65 64 67 66 
66 64 66 65 
67 64 65 63 
68 62 64 63 
69 51 75 50 
70 53 75 51 
71 56 72 71 
72 61 80 62 
73 76 84 75 
74 62 63 60 
75 54 81 63 
76 63 81 60 
77 74 76 75 
78 70 76 67 
79 65 82 63 
80 63 82 54 
81 67 74 68 
82 57 84 76 
83 72 83 71 
84 61 62 60 
85 74 75 53 
86 41 79 40 
87 57 78 48 
88 45 61 44 
89 54 79 41 
90 46 80 45 
91 44 61 60 
92 60 81 43 
93 52 77 53 
94 55 80 46 
95 5 77 52 
96 58 77 5 
97 43 81 42 
98 47 78 55 
99 42 81 54 
100 48 78 47 
101 40 79 59 
102 36 86 35 
103 50 84 49 
104 71 83 65 
105 49 84 57 
106 56 86 36 
107 67 76 74 
108 35 86 73 
109 53 85 74 
110 74 85 68 
111 75 84 50 
112 79 82 59 
113 82 83 59 
114 58 85 77 
115 45 80 61 
116 54 82 79 
117 65 83 82 
118 77 85 53 
2 3 2 214
119 129 154 102 
120 119 122 121 
121 90 120 119 
122 119 121 90 
123 30 139 123 
124 128 145 98 
125 28 125 27 
126 123 155 30 
127 48 109 92 
128 99 147 126 
129 123 139 106 
130 125 152 27 
131 90 143 120 
132 102 132 129 
133 100 115 103 
134 98 145 9 
135 122 146 121 
136 105 107 88 
137 124 143 89 
138 28 142 125 
139 89 131 124 
140 87 154 116 
141 16 143 90 
142 111 118 50 
143 25 137 114 
144 115 122 103 
145 107 108 88 
146 109 110 92 
147 120 143 124 
148 133 162 11 
149 146 149 135 
150 97 135 134 
151 97 151 135 
152 121 140 90 
153 102 154 87 
154 26 137 25 
155 108 149 146 
156 30 155 29 
157 127 128 98 
158 90 140 15 
159 131 132 124 
160 126 136 99 
161 11 162 10 
162 114 141 25 
163 24 161 23 
164 12 136 11 
165 4 152 26 
166 47 109 48 
167 49 111 50 
168 130 131 89 
169 11 136 133 
170 21 99 20 
171 18 130 89 
172 37 112 38 
173 10 98 9 
174 32 94 31 
175 134 135 94 
176 21 147 99 
177 103 122 119 
178 100 101 87 
179 44 100 87 
180 111 147 118 
181 29 155 142 
182 18 89 17 
183 16 90 15 
184 135 151 146 
185 87 116 45 
186 43 115 100 
187 29 142 28 
188 88 115 42 
189 32 134 94 
190 27 152 4 
191 46 116 91 
192 8 93 7 
193 19 130 18 
194 23 148 22 
195 116 117 91 
196 14 97 13 
197 122 158 146 
198 112 113 38 
199 31 139 30 
200 41 105 88 
201 146 158 108 
202 25 141 24 
203 38 164 39 
204 118 160 148 
205 135 149 94 
206 15 140 14 
207 94 139 31 
208 33 134 32 
209 96 106 105 
210 26 152 137 
211 93 138 7 
212 96 105 40 
213 7 138 6 
214 132 144 129 
215 9 145 8 
216 106 163 107 
217 17 143 16 
218 139 163 106 
219 14 140 97 
220 130 167 131 
221 23 166 148 
222 131 144 132 
223 92 126 111 
224 2 153 12 
225 21 160 147 
226 98 156 127 
227 123 164 155 
228 109 156 110 
229 102 150 132 
230 127 156 109 
231 100 103 101 
232 91 127 109 
233 20 153 2 
234 110 126 92 
235 44 87 45 
236 120 124 104 
237 106 107 105 
238 36 114 95 
239 101 102 87 
240 43 100 44 
241 1 157 19 
242 6 157 1 
243 89 143 17 
244 3 159 33 
245 13 159 3 
246 41 88 42 
247 42 115 43 
248 138 167 130 
249 46 91 47 
250 45 116 46 
251 155 164 113 
252 48 92 49 
253 117 129 128 
254 140 151 97 
255 10 162 98 
256 156 162 110 
257 117 127 91 
258 113 164 38 
259 8 145 93 
260 114 137 95 
261 36 95 37 
262 40 105 41 
263 39 96 40 
264 103 119 104 
265 110 162 133 
266 103 104 101 
267 88 158 115 
268 12 153 136 
269 119 120 104 
270 125 142 112 
271 96 123 106 
272 132 150 124 
273 91 109 47 
274 99 153 20 
275 149 163 94 
276 92 111 49 
277 133 136 126 
278 161 166 23 
279 117 128 127 
280 118 148 51 
281 108 158 88 
282 101 150 102 
283 110 133 126 
284 22 160 21 
285 35 141 114 
286 95 112 37 
287 121 151 140 
288 96 164 123 
289 104 150 101 
290 115 158 122 
291 95 137 125 
292 50 118 51 
293 35 114 36 
294 107 149 108 
295 124 150 104 
296 33 159 134 
297 138 157 6 
298 148 166 52 
299 34 161 141 
300 142 155 113 
301 112 142 113 
302 19 157 130 
303 117 154 129 
304 51 148 52 
305 97 159 13 
306 148 160 22 
307 34 141 35 
308 95 125 112 
309 5 166 161 
310 134 159 97 
311 146 151 121 
312 130 157 138 
313 93 167 138 
314 136 153 99 
315 116 154 117 
316 94 163 139 
317 5 161 34 
318 128 165 145 
319 131 167 144 
320 129 165 128 
321 137 152 125 
322 52 166 5 
323 147 160 118 
324 144 167 93 
325 144 165 129 
326 141 161 24 
327 145 165 93 
328 39 164 96 
329 107 163 149 
330 93 165 144 
331 98 162 156 
332 126 147 111 
$EndElements
