$MeshFormat
4.1 0 8
$EndMeshFormat
$PhysicalNames
3
1 101 "outer_boundary"
2 1 "material_1"
2 2 "material_2"
$EndPhysicalNames
$Entities
8 8 2 0
1 0 0 0 0 
2 1 0 0 0 
3 0 1 0 0 
4 1 1 0 0 
5 0.5674927385257674 0.6147664739960967 0 0 
6 0.2828499277512764 0.8003217879313429 0 0 
7 0.09729461381603026 0.515678977156852 0 0 
8 0.3819374245905213 0.3301236632216058 0 0 
1 -9.999999994736442e-08 -1e-07 -1e-07 1.0000001 1e-07 1e-07 1 101 2 1 -2 
2 -1e-07 -9.999999994736442e-08 -1e-07 1e-07 1.0000001 1e-07 1 101 2 3 -1 
3 0.9999999000000001 -9.999999994736442e-08 -1e-07 1.0000001 1.0000001 1e-07 1 101 2 2 -4 
4 -9.999999994736442e-08 0.9999999000000001 -1e-07 1.0000001 1.0000001 1e-07 1 101 2 4 -3 
5 0.2828498277512764 0.6147663739960968 -1e-07 0.5674928385257674 0.8003218879313428 1e-07 0 2 5 -6 
6 0.09729451381603027 0.515678877156852 -1e-07 0.2828500277512764 0.8003218879313428 1e-07 0 2 6 -7 
7 0.09729451381603024 0.3301235632216058 -1e-07 0.3819375245905213 0.5156790771568519 1e-07 0 2 7 -8 
8 0.3819373245905213 0.3301235632216058 -1e-07 0.5674928385257674 0.6147665739960967 1e-07 0 2 8 -5 
2 0.09729451381603027 0.3301235632216058 -1e-07 0.5674928385257674 0.8003218879313428 1e-07 1 2 4 5 6 7 8 
3 -9.999999994736442e-08 -9.999999994736442e-08 -1e-07 1.0000001 1.0000001 1e-07 1 1 8 1 3 4 2 -5 -8 -7 -6 
$EndEntities
$Nodes
18 275 1 275
0 1 0 1
1
0 0 0
0 2 0 1
2
1 0 0
0 3 0 1
3
0 1 0
0 4 0 1
4
1 1 0
0 5 0 1
5
0.5674927385257674 0.6147664739960967 0
0 6 0 1
6
0.2828499277512764 0.8003217879313429 0
0 7 0 1
7
0.09729461381603026 0.515678977156852 0
0 8 0 1
8
0.3819374245905213 0.3301236632216058 0
1 1 0 9
9
10
11
12
13
14
15
16
17
0.09999999999999996 0 0
0.1999999999999999 0 0
0.3000000000000001 0 0
0.4000000000000004 0 0
0.5000000000000003 0 0
0.5999999999999999 0 0
0.6999999999999995 0 0
0.7999999999999992 0 0
0.899999999999999 0 0
1 2 0 9
18
19
20
21
22
23
24
25
26
0 0.9 0
0 0.8 0
0 0.7 0
0 0.5999999999999996 0
0 0.4999999999999997 0
0 0.4000000000000001 0
0 0.3000000000000005 0
0 0.2000000000000008 0
0 0.100000000000001 0
1 3 0 9
27
28
29
30
31
32
33
34
35
1 0.09999999999999996 0
1 0.1999999999999999 0
1 0.3000000000000001 0
1 0.4000000000000004 0
1 0.5000000000000003 0
1 0.5999999999999999 0
1 0.6999999999999995 0
1 0.7999999999999992 0
1 0.899999999999999 0
1 4 0 9
36
37
38
39
40
41
42
43
44
0.9 1 0
0.8 1 0
0.7 1 0
0.5999999999999996 1 0
0.4999999999999997 1 0
0.4000000000000001 1 0
0.3000000000000005 1 0
0.2000000000000008 1 0
0.100000000000001 1 0
1 5 0 6
45
46
47
48
49
50
0.5268294798436973 0.6412743759868462 0
0.4861662211616271 0.6677822779775957 0
0.4455029624795569 0.6942901799683452 0
0.4048397037974868 0.7207980819590946 0
0.3641764451154167 0.747305983949844 0
0.3235131864333465 0.7738138859405934 0
1 6 0 6
51
52
53
54
55
56
0.2563420257605269 0.7596585292492728 0
0.2298341237697775 0.7189952705672026 0
0.203326221779028 0.6783320118851324 0
0.1768183197882786 0.6376687532030623 0
0.1503104177975291 0.5970054945209922 0
0.1238025158067797 0.5563422358389221 0
1 7 0 6
57
58
59
60
61
62
0.1379578724981004 0.4891710751661025 0
0.1786211311801706 0.462663173175353 0
0.2192843898622407 0.4361552711846036 0
0.2599476485443109 0.4096473691938541 0
0.300610907226381 0.3831394672031047 0
0.3412741659084511 0.3566315652123553 0
1 8 0 6
63
64
65
66
67
68
0.4084453265812708 0.370786921903676 0
0.4349532285720202 0.4114501805857461 0
0.4614611305627697 0.4521134392678163 0
0.4879690325535191 0.4927766979498864 0
0.5144769345442686 0.5334399566319565 0
0.5409848365350179 0.5741032153140266 0
2 2 0 46
69
70
71
72
73
74
75
76
77
78
79
80
81
82
83
84
85
86
87
88
89
90
91
92
93
94
95
96
97
98
99
100
101
102
103
104
105
106
107
108
109
110
111
112
113
114
0.4022482222566884 0.6710995692660892 0
0.2625725357282929 0.4581167352085597 0
0.4373482010985548 0.4957520645850441 0
0.225737105754775 0.6339573208673945 0
0.486880262192404 0.572066850840326 0
0.3417344985122184 0.4052181539605894 0
0.1771621269908941 0.5581305917709831 0
0.3230351670702183 0.7252089489813027 0
0.2221165358996996 0.4842161101779983 0
0.2652319660545211 0.5065180133863801 0
0.3058664387847194 0.4800668512597017 0
0.3084922855004305 0.5285343259456049 0
0.3490939358061887 0.5020386506560846 0
0.3517087148494068 0.5505097392328613 0
0.3111007421168309 0.5770148430386048 0
0.3547539857168552 0.599332092462346 0
0.3140980099662412 0.6260128549398944 0
0.3955329394626564 0.5726560199254993 0
0.2240133724331269 0.5330241830804265 0
0.2704471972802389 0.6035248332526764 0
0.2730720844642209 0.651994199267382 0
0.2256508095387274 0.5807715115911477 0
0.3580467232587654 0.6486884026991553 0
0.3617561371175889 0.6983107311955423 0
0.3990973890706375 0.6212846324815458 0
0.4411924683580691 0.5959660329280054 0
0.4371156009358051 0.5476288100945258 0
0.4436879841290975 0.6445233822291276 0
0.3180038514832506 0.6759323831041579 0
0.2767806620262016 0.7090528929773845 0
0.3461549921024071 0.4535877742684876 0
0.3888079064513424 0.475333210161435 0
0.3875198425380246 0.420744477681837 0
0.3028145034830549 0.4316293918490496 0
0.2674893954873127 0.5548979517158068 0
0.3932678831006591 0.5239864157759083 0
0.1821165032462509 0.5087316290601394 0
0.4839091457331438 0.6210161167976007 0
0.4737106337089588 0.5310433058619769 0
0.2439650135868334 0.680431834156907 0
0.4212413110534809 0.449939595543899 0
0.1904463241749071 0.6013438598040642 0
0.1464673162319067 0.5260414174541588 0
0.3715749842932144 0.3792963656374823 0
0.2932123680485832 0.7511490855154666 0
0.5186984587139676 0.6044837808237035 0
2 3 0 161
115
116
117
118
119
120
121
122
123
124
125
126
127
128
129
130
131
132
133
134
135
136
137
138
139
140
141
142
143
144
145
146
147
148
149
150
151
152
153
154
155
156
157
158
159
160
161
162
163
164
165
166
167
168
169
170
171
172
173
174
175
176
177
178
179
180
181
182
183
184
185
186
187
188
189
190
191
192
193
194
195
196
197
198
199
200
201
202
203
204
205
206
207
208
209
210
211
212
213
214
215
216
217
218
219
220
221
222
223
224
225
226
227
228
229
230
231
232
233
234
235
236
237
238
239
240
241
242
243
244
245
246
247
248
249
250
251
252
253
254
255
256
257
258
259
260
261
262
263
264
265
266
267
268
269
270
271
272
273
274
275
0.5099304965774752 0.4494885520838343 0
0.5894704773982116 0.5694789178253755 0
0.4312511443019486 0.3277464362743954 0
0.6182880864999951 0.6157403915421494 0
0.6427369989876783 0.5630823640836926 0
0.2974560453986893 0.3338571173453312 0
0.5353467824460844 0.6922432260078902 0
0.9181871192628865 0.3454402870620999 0
0.6547375028419193 0.08667701830088764 0
0.6753551416020365 0.6125200570250018 0
0.2166595026782587 0.3876859051698979 0
0.4489931839143032 0.7440869731969268 0
0.3673559991641913 0.8025093003297382 0
0.7029631030227272 0.5587246746377227 0
0.6666510457228993 0.5065407455476947 0
0.3910122523385915 0.282510430337501 0
0.4585206466944511 0.2803421091875757 0
0.75 0.9133974596215562 0
0.2306874520819046 0.8033615519395768 0
0.6435486207687358 0.6680268171530752 0
0.7094339127375092 0.6650540773803211 0
0.2435632601793285 0.09443215461707832 0
0.731713099893901 0.5006533076066857 0
0.6924855430515824 0.4470825766734098 0
0.4274749302142223 0.231053759144236 0
0.3677431917216143 0.2332220345096747 0
0.7767780648146123 0.5716075664962389 0
0.489724790917785 0.2262655577691391 0
0.5237218676936608 0.2819431690613913 0
0.1868804039715179 0.7193066680914939 0
0.6736598695386974 0.7248153332190383 0
0.7504367514193042 0.7200708411079639 0
0.08302197062142724 0.2550973616247548 0
0.546327658428729 0.918233304285543 0
0.8034320192058224 0.4950591297408392 0
0.8432294067422342 0.08455129426622032 0
0.1353329853141183 0.4407017091513969 0
0.5575956054126979 0.2227353882957827 0
0.5918038457306036 0.2824987383587091 0
0.4541080767534445 0.1702634268160176 0
0.2601135655208678 0.8501940704015896 0
0.2027216949352084 0.8522332388571037 0
0.9224651587539718 0.6551242024090942 0
0.6272702035549285 0.454446677166381 0
0.5545844938959913 0.3397545080597055 0
0.6291184391168751 0.2210226148924713 0
0.6619897292394818 0.2821981272362172 0
0.706195026260698 0.2188550677667616 0
0.7394596909850548 0.2978209284617649 0
0.1221950524287946 0.641071242262754 0
0.9091490706834051 0.8473351402712963 0
0.788246001272747 0.2202024922420516 0
0.7119653027971808 0.784558293156783 0
0.638065864675478 0.7836025330447267 0
0.7899566309663777 0.7810383487787554 0
0.7774907724011113 0.6489975345599603 0
0.652717257988589 0.3944032908631457 0
0.3461430648526614 0.9136475564883029 0
0.8460438753670559 0.5459049634249038 0
0.07644950377188636 0.8308988562893568 0
0.06264612862070434 0.7551477492200773 0
0.8891127977991342 0.4894449910335071 0
0.1848989745049795 0.8045887372331102 0
0.3164066894981001 0.8443960282809906 0
0.7483925137954089 0.1411961119086382 0
0.7205879471129393 0.3841263858793459 0
0.8361957395260335 0.4265782237525458 0
0.4616197356837649 0.9167992427958546 0
0.4996770221496352 0.8371890859672015 0
0.6771886039973185 0.8479146114092392 0
0.4233022997731826 0.8408033051271536 0
0.2367043670174832 0.9182632690221821 0
0.1644064061305853 0.9186830864987563 0
0.840990670347658 0.2942301743402729 0
0.8636491795581698 0.2189676340051126 0
0.08013362512669531 0.33772702222465 0
0.151685709108857 0.2962015716458949 0
0.1598682554362499 0.219710148221233 0
0.227395006740331 0.2654268989173237 0
0.09605295667849134 0.1675419283189939 0
0.232132880832319 0.1853433444326066 0
0.1498998983058382 0.08411906830209082 0
0.5932803574622806 0.1569348156732492 0
0.9229318930895666 0.7487307550239332 0
0.3427766777937913 0.08138115250329298 0
0.2899225681689541 0.2266978419688723 0
0.5834093058966869 0.8385823920266234 0
0.5415081355172875 0.7767610660883376 0
0.5925405841757211 0.7265125568877517 0
0.440210663921747 0.0809506645584766 0
0.53175502971682 0.08600917092475502 0
0.4906276693639956 0.33143614715428 0
0.5191822324178413 0.3904019632777884 0
0.5838631147087767 0.4022132472175213 0
0.07018579083942739 0.5718954857343209 0
0.6091954137628898 0.5153939132101512 0
0.5674105690743108 0.4678084402293914 0
0.2981430698889795 0.1535807283541603 0
0.1509298531333643 0.3720922141292324 0
0.8512517509720974 0.9226297916922916 0
0.5830691339569646 0.6622899852572692 0
0.3762422237718496 0.1604062160684109 0
0.2566094919257383 0.360083844179357 0
0.3394981802481976 0.3081974396038752 0
0.489318975406444 0.7159714761747823 0
0.209633905661269 0.3323220247474504 0
0.4108034924363325 0.7758361805684999 0
0.917118165895209 0.5695063329932966 0
0.1801655724336305 0.4198596545620968 0
0.4561533228534144 0.7995134388482423 0
0.2066529792558079 0.7615652435095359 0
0.1548568557643225 0.6809568990691145 0
0.09108695688077006 0.6938965909957933 0
0.8378460577990099 0.7099282724363548 0
0.6329156702815999 0.9232611019833985 0
0.05024737906571231 0.4558376933132372 0
0.1035136931558698 0.6017212472254212 0
0.4586383854956162 0.3711949016130841 0
0.7620014811487137 0.4340009107880759 0
0.5208823284233189 0.1671227439046222 0
0.5597740312167054 0.5272452814675106 0
0.6183848728789711 0.340623089717418 0
0.7896519505780717 0.3582993969147902 0
0.72994175562422 0.6109108665576799 0
0.2923552887914405 0.2815897548367328 0
0.6663447678954364 0.1649371257084016 0
0.9182161575902786 0.1557900102532386 0
0.8462903491718283 0.6168448120533081 0
0.4768330947251445 0.4149298073656539 0
0.5279122127932558 0.4941517856725158 0
0.256071068468514 0.3140232955588839 0
0.06066199365252695 0.6369148610555438 0
0.08092613614429922 0.9164469465368272 0
0.3703613547221684 0.8563250951489316 0
0.7492718846759122 0.0624848848951492 0
0.9276747114051955 0.4252710745182832 0
0.7499184758459889 0.8403660300397758 0
0.9268702338042148 0.2733355294032674 0
0.07514385155476566 0.08652782589038654 0
0.4912074150282832 0.7644010464397777 0
0.1728684874250188 0.1505761610376442 0
0.8215665159060674 0.848251231017786 0
0.2914290976685926 0.8982027735652094 0
0.1385121587986404 0.7559657425027654 0
0.08850142712480913 0.4077244479799478 0
0.1413191457142666 0.8464694346529865 0
0.9267949192431122 0.926794919243112 0
0.9305276240456314 0.0694252345791132 0
0.6786278996410072 0.3398343644315783 0
0.8318894427621805 0.1621210701078862 0
0.09401802625244621 0.47109715458653 0
0.8562900336888855 0.7870567495056251 0
0.545096603194601 0.4274780507021338 0
0.8505268702101856 0.3579306399003045 0
0.5293539665445004 0.7341234804283367 0
0.3330438026417895 0.1975088096075862 0
0.5888809725662933 0.7813646370118599 0
0.4002852910063555 0.9055150399120486 0
0.4856412218944509 0.1223696575394593 0
0.3329539044614918 0.2644721066697251 0
0.05195763499560269 0.5190848851318232 0
$EndNodes
$Elements
6 548 1 548
1 1 1 10
1 1 9 
2 9 10 
3 10 11 
4 11 12 
5 12 13 
6 13 14 
7 14 15 
8 15 16 
9 16 17 
10 17 2 
1 2 1 10
11 3 18 
12 18 19 
13 19 20 
14 20 21 
15 21 22 
16 22 23 
17 23 24 
18 24 25 
19 25 26 
20 26 1 
1 3 1 10
21 2 27 
22 27 28 
23 28 29 
24 29 30 
25 30 31 
26 31 32 
27 32 33 
28 33 34 
29 34 35 
30 35 4 
1 4 1 10
31 4 36 
32 36 37 
33 37 38 
34 38 39 
35 39 40 
36 40 41 
37 41 42 
38 42 43 
39 43 44 
40 44 3 
2 2 2 118
41 94 95 73 
42 95 107 73 
43 87 90 75 
44 64 101 63 
45 52 98 51 
46 71 104 100 
47 73 106 94 
48 90 110 75 
49 101 112 63 
50 98 113 51 
51 72 90 88 
52 88 89 72 
53 95 104 71 
54 87 103 90 
55 69 96 47 
56 75 105 87 
57 90 103 88 
58 69 92 91 
59 97 98 89 
60 85 97 89 
61 86 93 84 
62 91 93 69 
63 93 96 69 
64 94 106 96 
65 47 96 46 
66 84 93 91 
67 86 94 93 
68 92 97 91 
69 91 97 85 
70 94 96 93 
71 86 95 94 
72 100 109 71 
73 76 97 92 
74 76 98 97 
75 82 84 83 
76 99 102 74 
77 82 86 84 
78 70 79 78 
79 85 88 83 
80 84 85 83 
81 76 92 49 
82 79 102 99 
83 99 100 81 
84 48 69 47 
85 50 76 49 
86 70 77 59 
87 62 74 61 
88 70 78 77 
89 74 101 99 
90 56 75 55 
91 59 77 58 
92 85 89 88 
93 68 73 67 
94 78 87 77 
95 48 92 69 
96 79 81 80 
97 74 102 61 
98 66 71 65 
99 49 92 48 
100 54 72 53 
101 61 102 60 
102 60 102 70 
103 79 99 81 
104 70 102 79 
105 80 103 78 
106 82 83 80 
107 99 101 100 
108 60 70 59 
109 79 80 78 
110 78 103 87 
111 83 103 80 
112 84 91 85 
113 81 82 80 
114 88 103 83 
115 86 104 95 
116 100 104 81 
117 82 104 86 
118 81 104 82 
119 87 105 77 
120 58 105 57 
121 89 108 72 
122 71 107 95 
123 72 110 90 
124 77 105 58 
125 66 107 71 
126 73 107 67 
127 71 109 65 
128 96 106 46 
129 46 106 45 
130 72 108 53 
131 54 110 72 
132 75 110 55 
133 76 113 98 
134 8 112 62 
135 6 113 50 
136 74 112 101 
137 57 111 7 
138 63 112 8 
139 51 113 6 
140 7 111 56 
141 5 114 68 
142 45 114 5 
143 98 108 89 
144 52 108 98 
145 64 109 101 
146 53 108 52 
147 67 107 66 
148 65 109 64 
149 101 109 100 
150 105 111 57 
151 55 110 54 
152 68 114 73 
153 62 112 74 
154 56 111 75 
155 50 113 76 
156 75 111 105 
157 73 114 106 
158 106 114 45 
2 3 2 390
159 170 238 141 
160 177 260 258 
161 141 242 170 
162 258 260 174 
163 197 205 123 
164 145 203 134 
165 146 228 169 
166 123 205 14 
167 175 258 174 
168 132 229 184 
169 5 215 45 
170 127 221 185 
171 203 215 134 
172 186 257 42 
173 176 250 31 
174 170 228 146 
175 45 215 121 
176 31 222 176 
177 154 216 204 
178 38 229 132 
179 241 252 189 
180 127 178 50 
181 50 178 6 
182 43 186 42 
183 173 242 141 
184 147 191 190 
185 180 263 163 
186 182 183 148 
187 140 216 139 
188 121 215 203 
189 26 194 25 
190 158 211 208 
191 28 252 241 
192 222 242 173 
193 8 218 130 
194 168 203 145 
195 184 229 201 
196 218 274 130 
197 195 255 136 
198 157 242 222 
199 179 249 150 
200 42 257 172 
201 150 264 179 
202 139 216 154 
203 20 227 175 
204 18 247 3 
205 19 175 174 
206 123 249 179 
207 11 199 136 
208 147 190 24 
209 44 187 43 
210 158 208 171 
211 163 237 180 
212 179 240 123 
213 9 253 1 
214 221 224 185 
215 204 216 199 
216 136 212 195 
217 226 258 227 
218 172 272 41 
219 184 201 168 
220 26 253 194 
221 41 272 182 
222 40 182 148 
223 144 258 226 
224 183 202 201 
225 118 215 5 
226 182 185 183 
227 42 172 41 
228 231 246 209 
229 233 237 181 
230 180 237 233 
231 211 267 208 
232 33 198 157 
233 131 206 117 
234 203 269 121 
235 1 253 26 
236 3 247 44 
237 192 193 191 
238 199 212 136 
239 20 175 19 
240 40 148 39 
241 213 220 125 
242 228 266 169 
243 14 205 13 
244 183 254 202 
245 25 147 24 
246 183 201 148 
247 201 229 148 
248 181 268 250 
249 116 210 119 
250 207 243 232 
251 24 190 23 
252 19 174 18 
253 193 220 191 
254 43 187 186 
255 25 194 147 
256 207 232 206 
257 12 199 11 
258 11 136 10 
259 41 182 40 
260 44 247 187 
261 191 213 190 
262 210 235 211 
263 147 192 191 
264 15 123 14 
265 190 259 23 
266 33 157 32 
267 30 122 29 
268 136 196 10 
269 143 206 131 
270 21 275 209 
271 38 132 37 
272 119 210 129 
273 159 206 143 
274 235 244 211 
275 13 205 204 
276 165 198 34 
277 195 200 193 
278 188 252 122 
279 153 159 143 
280 157 222 32 
281 12 204 199 
282 224 254 183 
283 185 248 127 
284 129 210 158 
285 34 198 33 
286 134 215 118 
287 136 255 196 
288 130 274 140 
289 208 236 171 
290 129 158 138 
291 13 204 12 
292 35 165 34 
293 210 211 158 
294 132 214 37 
295 10 196 9 
296 122 268 188 
297 17 150 16 
298 15 249 123 
299 159 207 206 
300 198 228 157 
301 192 195 193 
302 20 246 227 
303 191 220 213 
304 197 234 205 
305 181 250 176 
306 202 269 203 
307 37 214 36 
308 250 268 122 
309 213 223 151 
310 39 229 38 
311 158 171 138 
312 206 232 117 
313 184 251 132 
314 174 247 18 
315 200 239 193 
316 225 258 144 
317 125 223 213 
318 163 263 161 
319 159 236 208 
320 241 264 150 
321 148 229 39 
322 167 168 145 
323 31 250 30 
324 196 255 194 
325 159 208 207 
326 149 181 176 
327 185 224 183 
328 116 235 210 
329 150 249 16 
330 151 259 213 
331 65 115 66 
332 211 244 115 
333 247 260 187 
334 162 163 161 
335 195 212 200 
336 166 188 163 
337 29 252 28 
338 142 143 131 
339 199 216 212 
340 164 246 231 
341 209 246 21 
342 119 129 128 
343 160 161 153 
344 115 243 207 
345 193 245 220 
346 68 116 5 
347 152 153 143 
348 129 138 137 
349 166 189 188 
350 147 194 192 
351 132 256 214 
352 161 236 153 
353 61 120 62 
354 127 248 178 
355 27 262 2 
356 23 230 22 
357 162 179 166 
358 23 259 230 
359 22 275 21 
360 8 117 63 
361 63 232 64 
362 189 252 188 
363 162 166 163 
364 32 222 31 
365 204 273 154 
366 2 262 17 
367 45 121 46 
368 4 261 35 
369 36 261 4 
370 160 162 161 
371 67 235 68 
372 7 275 265 
373 123 240 197 
374 149 233 181 
375 167 184 168 
376 46 219 47 
377 124 134 118 
378 60 217 61 
379 152 197 160 
380 135 170 146 
381 47 126 48 
382 194 253 196 
383 129 137 128 
384 171 180 138 
385 62 218 8 
386 152 160 153 
387 116 118 5 
388 196 253 9 
389 146 167 145 
390 178 248 172 
391 48 221 49 
392 137 141 128 
393 227 246 164 
394 59 125 60 
395 6 133 51 
396 142 152 143 
397 135 145 134 
398 130 140 139 
399 156 177 133 
400 153 236 159 
401 51 225 52 
402 49 127 50 
403 146 169 167 
404 137 149 141 
405 149 176 173 
406 135 146 145 
407 52 144 53 
408 174 260 247 
409 119 124 118 
410 251 256 132 
411 149 173 141 
412 189 264 241 
413 176 222 173 
414 119 128 124 
415 203 271 202 
416 177 258 225 
417 116 119 118 
418 139 142 131 
419 227 258 175 
420 8 130 117 
421 188 237 163 
422 53 226 54 
423 207 267 115 
424 68 235 116 
425 170 242 228 
426 124 135 134 
427 126 224 221 
428 58 223 59 
429 30 250 122 
430 130 131 117 
431 115 267 211 
432 205 273 204 
433 202 271 201 
434 201 271 168 
435 239 245 193 
436 162 240 179 
437 165 266 198 
438 117 232 63 
439 130 139 131 
440 139 154 142 
441 54 164 55 
442 65 243 115 
443 214 256 165 
444 122 252 29 
445 138 233 137 
446 64 243 65 
447 115 244 66 
448 151 265 259 
449 180 233 138 
450 61 217 120 
451 28 241 27 
452 120 218 62 
453 121 219 46 
454 150 262 241 
455 135 238 170 
456 152 234 197 
457 232 243 64 
458 140 270 216 
459 66 244 67 
460 137 233 149 
461 57 151 58 
462 47 219 126 
463 21 246 20 
464 67 244 235 
465 186 187 156 
466 142 234 152 
467 197 240 160 
468 55 231 56 
469 6 178 155 
470 141 238 128 
471 125 217 60 
472 172 257 178 
473 126 221 48 
474 160 240 162 
475 16 249 15 
476 179 264 166 
477 177 225 133 
478 167 251 184 
479 214 261 36 
480 168 271 203 
481 120 239 218 
482 128 238 124 
483 154 234 142 
484 198 266 228 
485 125 220 217 
486 155 156 133 
487 140 274 270 
488 194 255 192 
489 49 221 127 
490 133 225 51 
491 56 209 7 
492 256 266 165 
493 6 155 133 
494 124 238 135 
495 35 261 165 
496 155 186 156 
497 52 225 144 
498 208 267 207 
499 270 274 200 
500 265 275 230 
501 17 262 150 
502 228 242 157 
503 59 223 125 
504 165 261 214 
505 187 260 156 
506 144 226 53 
507 161 263 236 
508 213 259 190 
509 169 251 167 
510 7 265 57 
511 192 255 195 
512 54 226 164 
513 182 272 185 
514 126 254 224 
515 212 270 200 
516 259 265 230 
517 166 264 189 
518 216 270 212 
519 226 227 164 
520 151 223 58 
521 171 263 180 
522 237 268 181 
523 217 245 120 
524 236 263 171 
525 164 231 55 
526 234 273 205 
527 120 245 239 
528 220 245 217 
529 156 260 177 
530 219 254 126 
531 57 265 151 
532 169 256 251 
533 56 231 209 
534 188 268 237 
535 241 262 27 
536 230 275 22 
537 155 257 186 
538 178 257 155 
539 121 269 219 
540 219 269 254 
541 169 266 256 
542 239 274 218 
543 209 275 7 
544 248 272 172 
545 200 274 239 
546 154 273 234 
547 254 269 202 
548 185 272 248 
$EndElements
