$MeshFormat
4.1 0 8
$EndMeshFormat
$PhysicalNames
3
1 101 "outer_boundary"
2 1 "material_1"
2 2 "material_2"
$EndPhysicalNames
$Entities
7 7 2 0
1 0 0 0 0 
2 1 0 0 0 
3 0 1 0 0 
4 1 1 0 0 
5 0.4751016451126336 0.5674960232756938 0 0 
6 0.730670575507272 0.7389305869174975 0 0 
7 0.4544194231094507 0.8745424912363694 0 0 
1 -9.999999994736442e-08 -1e-07 -1e-07 1.0000001 1e-07 1e-07 1 101 2 1 -2 
2 -1e-07 -9.999999994736442e-08 -1e-07 1e-07 1.0000001 1e-07 1 101 2 3 -1 
3 0.9999999000000001 -9.999999994736442e-08 -1e-07 1.0000001 1.0000001 1e-07 1 101 2 2 -4 
4 -9.999999994736442e-08 0.9999999000000001 -1e-07 1.0000001 1.0000001 1e-07 1 101 2 4 -3 
5 0.4751015451126336 0.5674959232756939 -1e-07 0.7306706755072719 0.7389306869174974 1e-07 0 2 5 -6 
6 0.4544193231094507 0.7389304869174975 -1e-07 0.7306706755072719 0.8745425912363693 1e-07 0 2 6 -7 
7 0.4544193231094507 0.5674959232756939 -1e-07 0.4751017451126336 0.8745425912363693 1e-07 0 2 7 -5 
2 0.4544193231094507 0.5674959232756939 -1e-07 0.7306706755072719 0.8745425912363693 1e-07 1 2 3 5 6 7 
3 -9.999999994736442e-08 -9.999999994736442e-08 -1e-07 1.0000001 1.0000001 1e-07 1 1 7 1 3 4 2 -5 -7 -6 
$EndEntities
$Nodes
16 312 1 312
0 1 0 1
1
0 0 0
0 2 0 1
2
1 0 0
0 3 0 1
3
0 1 0
0 4 0 1
4
1 1 0
0 5 0 1
5
0.4751016451126336 0.5674960232756938 0
0 6 0 1
6
0.730670575507272 0.7389305869174975 0
0 7 0 1
7
0.4544194231094507 0.8745424912363694 0
1 1 0 11
8
9
10
11
12
13
14
15
16
17
18
0.08333333333333318 0 0
0.1666666666666664 0 0
0.2499999999999997 0 0
0.333333333333333 0 0
0.4166666666666664 0 0
0.4999999999999998 0 0
0.5833333333333331 0 0
0.6666666666666665 0 0
0.7499999999999999 0 0
0.8333333333333331 0 0
0.9166666666666666 0 0
1 2 0 11
19
20
21
22
23
24
25
26
27
28
29
0 0.9166666666666669 0
0 0.8333333333333337 0
0 0.7500000000000003 0
0 0.666666666666667 0
0 0.5833333333333337 0
0 0.5000000000000002 0
0 0.4166666666666669 0
0 0.3333333333333335 0
0 0.2500000000000001 0
0 0.1666666666666669 0
0 0.08333333333333337 0
1 3 0 11
30
31
32
33
34
35
36
37
38
39
40
1 0.08333333333333318 0
1 0.1666666666666664 0
1 0.2499999999999997 0
1 0.333333333333333 0
1 0.4166666666666664 0
1 0.4999999999999998 0
1 0.5833333333333331 0
1 0.6666666666666665 0
1 0.7499999999999999 0
1 0.8333333333333331 0
1 0.9166666666666666 0
1 4 0 11
41
42
43
44
45
46
47
48
49
50
51
0.9166666666666669 1 0
0.8333333333333337 1 0
0.7500000000000003 1 0
0.666666666666667 1 0
0.5833333333333337 1 0
0.5000000000000002 1 0
0.4166666666666669 1 0
0.3333333333333335 1 0
0.2500000000000001 1 0
0.1666666666666669 1 0
0.08333333333333337 1 0
1 5 0 6
52
53
54
55
56
57
0.5116114923118676 0.5919866752245229 0
0.5481213395111016 0.616477327173352 0
0.5846311867103358 0.6409679791221811 0
0.6211410339095698 0.6654586310710101 0
0.6576508811088039 0.6899492830198393 0
0.694160728308038 0.7144399349686684 0
1 6 0 6
58
59
60
61
62
63
0.6912061251647261 0.7583037161059077 0
0.6517416748221803 0.777676845294318 0
0.6122772244796343 0.7970499744827283 0
0.5728127741370885 0.8164231036711386 0
0.5333483237945424 0.8357962328595488 0
0.4938838734519965 0.8551693620479591 0
1 7 0 6
64
65
66
67
68
69
0.4573740262527625 0.8306787100991301 0
0.4603286293960743 0.7868149289618906 0
0.4632832325393862 0.7429511478246513 0
0.4662378356826981 0.699087366687412 0
0.4691924388260099 0.6552235855501726 0
0.4721470419693217 0.6113598044129331 0
2 2 0 15
70
71
72
73
74
75
76
77
78
79
80
81
82
83
84
0.5757673772804003 0.7725593225338993 0
0.5057022860252439 0.6797142374990017 0
0.5816765835670239 0.6848317602594204 0
0.4997930797386203 0.7674417997734804 0
0.6546962779654921 0.7338130641570787 0
0.5086568891685558 0.6358504563617622 0
0.4968384765953084 0.8113055809107198 0
0.618186430766258 0.7093224122082495 0
0.6152318276229461 0.7531861933454889 0
0.5787219804237121 0.7286955413966598 0
0.5392575300811663 0.7480686705850701 0
0.5363029269378545 0.7919324517223095 0
0.5451667363677898 0.6603411083105913 0
0.5027476828819322 0.723578018636241 0
0.542212133224478 0.7042048894478308 0
2 3 0 228
85
86
87
88
89
90
91
92
93
94
95
96
97
98
99
100
101
102
103
104
105
106
107
108
109
110
111
112
113
114
115
116
117
118
119
120
121
122
123
124
125
126
127
128
129
130
131
132
133
134
135
136
137
138
139
140
141
142
143
144
145
146
147
148
149
150
151
152
153
154
155
156
157
158
159
160
161
162
163
164
165
166
167
168
169
170
171
172
173
174
175
176
177
178
179
180
181
182
183
184
185
186
187
188
189
190
191
192
193
194
195
196
197
198
199
200
201
202
203
204
205
206
207
208
209
210
211
212
213
214
215
216
217
218
219
220
221
222
223
224
225
226
227
228
229
230
231
232
233
234
235
236
237
238
239
240
241
242
243
244
245
246
247
248
249
250
251
252
253
254
255
256
257
258
259
260
261
262
263
264
265
266
267
268
269
270
271
272
273
274
275
276
277
278
279
280
281
282
283
284
285
286
287
288
289
290
291
292
293
294
295
296
297
298
299
300
301
302
303
304
305
306
307
308
309
310
311
312
0.5154621736291155 0.5476117074292692 0
0.6237284482947085 0.6221422426892671 0
0.4759755244085711 0.5191554274544082 0
0.5191633739111764 0.5018504713818916 0
0.4791598504105911 0.4724477937929537 0
0.5242142315967276 0.4515267873598301 0
0.4327416837719486 0.5804733102950832 0
0.4245713760305602 0.7185292885188307 0
0.4815384180288667 0.4223852664759119 0
0.4359909579938828 0.4440642777959887 0
0.528470107729877 0.3981795789931227 0
0.5735233803865355 0.4305956387448825 0
0.43680696515171 0.3929067898260735 0
0.5785964051062605 0.3729688823530345 0
0.3873475537092763 0.415751087318784 0
0.7364180669658547 0.6935242076592563 0
0.3893957762428337 0.3580101971895075 0
0.6279498472072855 0.4090519250581195 0
0.6335206311498874 0.3477909173668418 0
0.06761479407168508 0.6212891198375349 0
0.3346337556309029 0.3877637600514426 0
0.4170429653632557 0.8459074275603036 0
0.3422678009455617 0.4555539701730021 0
0.3361695348779825 0.3241307786024956 0
0.5817413239853064 0.3120014838084528 0
0.9319920721355793 0.2113760144271919 0
0.6842371684851862 0.3838272781053504 0
0.6387547862985018 0.2847292659299803 0
0.3948423152231169 0.2945651285752809 0
0.212161871561549 0.9271867553013131 0
0.9364016161518143 0.5390223483543313 0
0.06601986008947225 0.2084381055191346 0
0.2798576025640914 0.4182383514498551 0
0.2795215194490939 0.4850871497276829 0
0.7276622330826881 0.7853294600561065 0
0.7717715013128303 0.7639749576813464 0
0.3407427109476749 0.2551031170602048 0
0.6778093289169059 0.4466540164687695 0
0.5851238476407887 0.2477364038799297 0
0.7352496430527258 0.4214593486099573 0
0.7269577127627193 0.4843674302651487 0
0.743721794865682 0.3562890550579446 0
0.4002455857842706 0.2283357641057869 0
0.6450441717372895 0.2174735159421484 0
0.2789367479442439 0.2883709660222648 0
0.6487870716788683 0.8215406264315573 0
0.2213396345521207 0.4491915151590246 0
0.2831253760376141 0.2159691903052737 0
0.7683685300908887 0.8155067698786027 0
0.5585634406408482 0.5309375516441902 0
0.8194172018779593 0.7928731596470273 0
0.8197404479163286 0.7357499159674015 0
0.7924177305838405 0.07367816148318784 0
0.7981229706121902 0.3965862571400788 0
0.08371900925679543 0.8004187983742967 0
0.2216253175699442 0.5134117849881692 0
0.2776638035360241 0.5507125896081518 0
0.2112542231064117 0.5812378043729584 0
0.2750955928640577 0.6147476749652581 0
0.221626702264666 0.6460327370735305 0
0.276603790016632 0.6791153518737985 0
0.216100849052578 0.7121252225150634 0
0.2765495764062228 0.7444739046003233 0
0.5879999880027087 0.1784807299728007 0
0.5698581709937766 0.8602868848083779 0
0.3298255721400373 0.6493217148777266 0
0.8056229153106063 0.3273786125482442 0
0.07216878364870327 0.3750000000000002 0
0.6702505301155538 0.5068086494678933 0
0.7179234127364785 0.5440954428494893 0
0.7748118021686127 0.5229045578057113 0
0.7640297279117313 0.5818956460996616 0
0.4622772018541514 0.08076000364495323 0
0.2187755525775447 0.06870608143934243 0
0.811362085628922 0.8522660789527682 0
0.1649461102981556 0.4705926541076735 0
0.2153329870814812 0.7783392526253552 0
0.2758151614295918 0.8089251601916295 0
0.3295483650919496 0.7731798394393165 0
0.2192555963741023 0.2531538349589275 0
0.5263644676514323 0.2784342974621096 0
0.6518951514142173 0.1471355391542041 0
0.7086229797205487 0.1866184963079003 0
0.7100882857978907 0.9271060579526484 0
0.2172689308214452 0.3222546355941084 0
0.8677397040847196 0.3652511959982062 0
0.8732506653834387 0.7656329741990947 0
0.8727900771685275 0.7023780673905808 0
0.7023366319372856 0.6072451257022091 0
0.8539404451972292 0.4424150286193496 0
0.4113050176408839 0.9027332628970857 0
0.367144050437306 0.8683872247339056 0
0.817448324682615 0.6791225042540002 0
0.9244111516684372 0.8748268410352109 0
0.4909292703086846 0.8990331431851984 0
0.8704814828114206 0.6429217671205569 0
0.1567615160818349 0.2817785710889156 0
0.7107459748907708 0.8365448429816715 0
0.8228631463381475 0.5562051401963519 0
0.1567221877950253 0.6810888662926083 0
0.7501874421140526 0.2874992980552743 0
0.8202974776453664 0.2634894723900408 0
0.2135837954236554 0.1893019120529338 0
0.2745218177600431 0.1398398877989254 0
0.5893005325426659 0.1014520119693608 0
0.1718117738091535 0.4129060153405147 0
0.5250350331489935 0.1401904818946383 0
0.798614209500097 0.921712751870605 0
0.3286913062435572 0.7114419256424827 0
0.3855960099346038 0.6831471689139763 0
0.3843228278774107 0.6305120523925664 0
0.340682814311532 0.5885245637156169 0
0.3349427676351673 0.5247493268972768 0
0.387057863199155 0.5532038959212773 0
0.387597048672209 0.5028093750712752 0
0.7458897496469227 0.6418366945277276 0
0.6213623836715071 0.4672830635955574 0
0.6160123569199862 0.5294294591937072 0
0.6654691865841351 0.5623281342599713 0
0.6312055129641045 0.9382104808808666 0
0.07606136566829003 0.292787835407506 0
0.561068921700915 0.92954339237885 0
0.2156823932725996 0.8468346829128865 0
0.2902435337241229 0.8795443394590515 0
0.145899048896252 0.8770866980275109 0
0.7177645966145028 0.1153850364212096 0
0.7817368010504201 0.1536362868300458 0
0.8515726479478143 0.1230948029421464 0
0.08092699604477327 0.7019336082114374 0
0.06438984386410168 0.5405527838662735 0
0.1305789241659309 0.5781827932573962 0
0.06795232991459277 0.4569533540196516 0
0.9306735532249474 0.4550810339207205 0
0.8780766118376822 0.9354154324207871 0
0.3764975836674419 0.06757649536408206 0
0.4113547225948512 0.1433416945534045 0
0.9269867143935341 0.2954582442430397 0
0.0706228534014427 0.1252567698718922 0
0.1345330686405572 0.1707948040317059 0
0.462320482520741 0.2654316236688711 0
0.4631958447316454 0.1984835157787772 0
0.3795672619840404 0.7412456760987662 0
0.3816077671898574 0.8038928337068163 0
0.3514678385306397 0.923531853388012 0
0.6629807239141432 0.8775225770892424 0
0.1424010647774748 0.7489619497957141 0
0.5513922201703003 0.5733051372072231 0
0.4430382326313946 0.3318114589594647 0
0.4218079188955363 0.6534270403936263 0
0.423444878704773 0.7634501338656003 0
0.2985805718928206 0.06547746653678188 0
0.430267371716361 0.5341859075112232 0
0.7857180203166947 0.461522704743299 0
0.6606347056128317 0.6433605846217803 0
0.5873507700484512 0.5975050178607618 0
0.9335254395492546 0.8015293505551669 0
0.1310900199411535 0.07655398522309764 0
0.5289545307795298 0.3394946919037537 0
0.3413908928571692 0.1832219980736561 0
0.5283685989998732 0.2132724048073746 0
0.6995151272632893 0.6650593050832467 0
0.6541347664917256 0.06940041930851282 0
0.928740472245992 0.7349511045222519 0
0.6860286159278467 0.7958790981739122 0
0.933138866077188 0.1249999999999997 0
0.2805635943539146 0.3546698938166703 0
0.06701474688941644 0.8750000000000002 0
0.5688065278544635 0.4852704953200099 0
0.6908602109022348 0.3194709078658726 0
0.9253526969005583 0.6694399627315299 0
0.5291943354749606 0.8815828857615675 0
0.6122965440114928 0.8431695066197853 0
0.8749952328896848 0.8291316555098038 0
0.5319892201758287 0.06448049950179047 0
0.8560386351031549 0.1966572753284821 0
0.9380871064593427 0.3749999999999997 0
0.484803944831453 0.3656918498052477 0
0.8250578949113301 0.4967824941256012 0
0.7570168865677209 0.8704974937869792 0
0.7702224688152369 0.7195633477653264 0
0.2252258217465303 0.3858154086368656 0
0.8038121278822046 0.6198994851823068 0
0.6978638825623676 0.2544505556886492 0
0.9253847501526586 0.6052865777417406 0
0.1647885289138823 0.808811983655717 0
0.287441315429929 0.9460525896296753 0
0.3288717755745656 0.8267858795061439 0
0.4270957810182086 0.806238386906446 0
0.8797678602848724 0.06171584122082363 0
0.8611153161196683 0.2994290875412259 0
0.4562306278685232 0.942148876952082 0
0.146751018789472 0.3552564295038315 0
0.1243756347748149 0.9419026592348994 0
0.7612123607510228 0.225538065251852 0
0.6553250506498391 0.6033348288405659 0
0.4339636932238205 0.4887846369868042 0
0.1671257751003313 0.2287912616274088 0
0.5875550137199641 0.5625550445670968 0
0.6231114166887676 0.5801345314336207 0
0.9389957660359266 0.9389957660359267 0
0.8747331790126716 0.5819779010406317 0
0.7716266117331102 0.6778795486915031 0
0.06100423396407306 0.06100423396407306 0
0.6074819747168865 0.8897465683554244 0
0.715848318378968 0.05242992830630205 0
0.1672920974991277 0.5284308134393095 0
0.060532963958355 0.9393000479207511 0
0.1883042621818013 0.1290007431493334 0
0.3404691177544652 0.11989150846537 0
0.877948140490769 0.508757147677249 0
0.1708365142020734 0.6258032917135765 0
0.5056284150985135 0.9424524937302495 0
0.4344678719579351 0.6842521965241284 0
0.4342656343608067 0.6210009766942198 0
0.4897761698254953 0.3111432709422999 0
0.3938006968080094 0.953682798647436 0
0.394791406141308 0.4600450402949759 0
0.7102079677926314 0.8779177429526355 0
0.1158854184379303 0.2425960276016902 0
0.1104326465007378 0.4986678908552208 0
0.8820503170801076 0.2495036810262911 0
0.1213358832558976 0.6416595358625107 0
0.4654657005824104 0.1406939239679433 0
0.9500297604743387 0.04995058977466604 0
0.3985270774600955 0.5920914190050974 0
0.8571909113097267 0.8810381758507335 0
0.1182338236144816 0.4248074334438423 0
0.8983296442302796 0.4115981545414028 0
$EndNodes
$Elements
6 622 1 622
1 1 1 12
1 1 8 
2 8 9 
3 9 10 
4 10 11 
5 11 12 
6 12 13 
7 13 14 
8 14 15 
9 15 16 
10 16 17 
11 17 18 
12 18 2 
1 2 1 12
13 3 19 
14 19 20 
15 20 21 
16 21 22 
17 22 23 
18 23 24 
19 24 25 
20 25 26 
21 26 27 
22 27 28 
23 28 29 
24 29 1 
1 3 1 12
25 2 30 
26 30 31 
27 31 32 
28 32 33 
29 33 34 
30 34 35 
31 35 36 
32 36 37 
33 37 38 
34 38 39 
35 39 40 
36 40 4 
1 4 1 12
37 4 41 
38 41 42 
39 42 43 
40 43 44 
41 44 45 
42 45 46 
43 46 47 
44 47 48 
45 48 49 
46 49 50 
47 50 51 
48 51 3 
2 2 2 49
49 63 7 64 
50 5 52 69 
51 6 58 57 
52 80 81 73 
53 70 79 78 
54 77 79 72 
55 73 81 76 
56 55 77 72 
57 82 84 71 
58 56 77 55 
59 78 79 77 
60 73 76 65 
61 76 81 62 
62 61 81 70 
63 70 80 79 
64 80 84 79 
65 73 83 80 
66 72 82 54 
67 71 84 83 
68 70 78 60 
69 52 75 69 
70 62 81 61 
71 64 76 63 
72 75 82 71 
73 55 72 54 
74 59 78 74 
75 67 83 66 
76 71 83 67 
77 68 75 71 
78 83 84 80 
79 66 83 73 
80 70 81 80 
81 65 76 64 
82 79 84 72 
83 72 84 82 
84 74 77 56 
85 59 74 58 
86 66 73 65 
87 54 82 53 
88 53 82 75 
89 60 78 59 
90 61 70 60 
91 53 75 52 
92 58 74 57 
93 69 75 68 
94 57 74 56 
95 63 76 62 
96 74 78 77 
97 68 71 67 
2 3 2 525
98 176 228 208 
99 14 246 189 
100 173 245 238 
101 200 245 173 
102 139 269 209 
103 188 292 158 
104 130 248 182 
105 134 252 202 
106 179 275 7 
107 205 276 152 
108 182 229 130 
109 158 235 188 
110 202 252 201 
111 107 199 197 
112 209 251 139 
113 7 275 175 
114 92 226 194 
115 161 230 146 
116 181 276 205 
117 189 258 14 
118 224 244 165 
119 170 274 221 
120 208 271 176 
121 110 259 249 
122 221 260 170 
123 146 230 184 
124 206 255 149 
125 259 278 211 
126 100 245 200 
127 186 278 259 
128 176 227 106 
129 107 197 118 
130 249 259 212 
131 17 273 137 
132 187 292 188 
133 149 288 206 
134 225 244 224 
135 91 236 5 
136 150 194 193 
137 44 204 168 
138 184 230 213 
139 229 256 130 
140 183 294 285 
141 196 309 195 
142 15 246 14 
143 168 302 263 
144 132 243 121 
145 228 270 208 
146 173 203 154 
147 5 236 87 
148 262 294 183 
149 238 279 173 
150 213 306 184 
151 107 301 199 
152 247 254 37 
153 150 193 145 
154 159 310 192 
155 198 309 196 
156 194 226 193 
157 137 273 212 
158 198 236 91 
159 38 247 37 
160 204 229 168 
161 222 241 223 
162 37 268 36 
163 220 225 127 
164 91 309 198 
165 150 196 195 
166 254 268 37 
167 191 307 157 
168 192 263 159 
169 168 263 192 
170 194 297 92 
171 127 243 220 
172 118 197 141 
173 176 271 227 
174 150 195 194 
175 241 292 223 
176 121 243 127 
177 208 270 114 
178 102 201 96 
179 157 258 191 
180 201 252 96 
181 45 204 44 
182 215 304 290 
183 228 300 48 
184 214 215 104 
185 229 288 256 
186 266 285 180 
187 197 198 196 
188 44 168 43 
189 154 203 153 
190 153 202 201 
191 147 193 163 
192 207 208 114 
193 168 192 43 
194 276 311 152 
195 183 285 266 
196 143 150 145 
197 145 193 147 
198 24 216 214 
199 45 206 204 
200 137 211 210 
201 23 214 104 
202 141 196 143 
203 147 163 162 
204 173 279 203 
205 141 197 196 
206 122 201 102 
207 125 153 122 
208 156 173 154 
209 230 269 139 
210 191 244 225 
211 214 304 215 
212 188 243 132 
213 153 201 122 
214 46 296 206 
215 104 213 22 
216 137 212 211 
217 143 196 150 
218 116 205 27 
219 136 264 177 
220 36 115 35 
221 46 206 45 
222 153 203 202 
223 125 154 153 
224 32 221 110 
225 156 200 173 
226 157 220 219 
227 42 218 41 
228 192 218 42 
229 227 272 106 
230 114 270 49 
231 40 178 39 
232 197 199 198 
233 141 143 142 
234 217 260 34 
235 152 216 25 
236 161 269 230 
237 23 104 22 
238 226 234 227 
239 28 222 116 
240 222 223 116 
241 101 232 97 
242 24 214 23 
243 115 217 35 
244 118 141 140 
245 26 205 152 
246 192 310 218 
247 48 300 47 
248 157 219 12 
249 26 152 25 
250 219 235 11 
251 114 209 207 
252 212 259 211 
253 33 221 32 
254 304 311 160 
255 264 286 177 
256 13 157 12 
257 32 110 31 
258 225 307 191 
259 21 213 139 
260 43 192 42 
261 28 116 27 
262 215 290 142 
263 10 158 9 
264 143 145 144 
265 95 242 98 
266 25 216 24 
267 22 213 21 
268 10 235 158 
269 206 288 204 
270 193 226 163 
271 12 219 11 
272 145 147 146 
273 27 205 26 
274 29 222 28 
275 195 233 194 
276 17 137 16 
277 142 295 215 
278 92 234 226 
279 50 114 49 
280 21 139 20 
281 110 249 31 
282 35 217 34 
283 155 156 154 
284 141 142 140 
285 39 240 38 
286 33 260 221 
287 124 125 122 
288 195 298 233 
289 136 177 172 
290 226 227 163 
291 14 258 13 
292 113 232 101 
293 111 122 102 
294 255 296 179 
295 129 250 169 
296 127 224 113 
297 199 236 198 
298 98 242 109 
299 18 273 17 
300 227 271 163 
301 266 286 200 
302 182 302 229 
303 129 169 164 
304 195 309 298 
305 143 144 142 
306 213 230 139 
307 174 237 138 
308 9 241 8 
309 217 312 260 
310 139 251 20 
311 147 162 161 
312 223 303 116 
313 99 107 105 
314 158 241 9 
315 178 240 39 
316 148 191 189 
317 190 311 276 
318 126 185 151 
319 109 165 123 
320 170 174 138 
321 202 282 134 
322 126 253 185 
323 224 232 113 
324 107 118 117 
325 145 146 144 
326 171 257 135 
327 127 225 224 
328 125 155 154 
329 285 294 115 
330 177 266 180 
331 135 257 159 
332 104 306 213 
333 166 167 128 
334 36 268 115 
335 160 311 190 
336 162 271 208 
337 281 303 223 
338 5 85 52 
339 210 211 167 
340 169 181 164 
341 187 188 132 
342 11 235 10 
343 118 140 131 
344 52 231 53 
345 209 277 251 
346 108 129 121 
347 111 124 122 
348 53 239 54 
349 129 164 132 
350 69 91 5 
351 240 247 38 
352 66 92 67 
353 162 208 207 
354 185 186 151 
355 54 86 55 
356 177 180 172 
357 148 244 191 
358 164 187 132 
359 95 96 90 
360 160 190 131 
361 55 238 56 
362 88 134 85 
363 121 127 113 
364 166 210 167 
365 109 242 165 
366 107 117 105 
367 108 113 101 
368 98 109 103 
369 126 151 138 
370 129 132 121 
371 124 237 125 
372 5 87 85 
373 220 293 219 
374 89 94 93 
375 65 234 66 
376 31 249 30 
377 203 283 202 
378 109 123 112 
379 123 148 128 
380 118 131 117 
381 148 189 166 
382 155 183 156 
383 148 166 128 
384 140 160 131 
385 20 251 19 
386 151 170 138 
387 126 138 124 
388 56 245 57 
389 111 126 124 
390 123 128 112 
391 50 277 114 
392 165 244 123 
393 108 121 113 
394 147 161 146 
395 109 112 103 
396 87 89 88 
397 103 111 102 
398 98 102 96 
399 4 284 40 
400 41 284 4 
401 89 93 90 
402 236 280 87 
403 93 95 90 
404 138 237 124 
405 89 90 88 
406 233 297 194 
407 87 88 85 
408 216 304 214 
409 57 100 6 
410 94 99 97 
411 105 108 101 
412 98 103 102 
413 146 184 144 
414 85 231 52 
415 210 289 137 
416 218 284 41 
417 240 257 171 
418 99 105 101 
419 95 98 96 
420 200 286 100 
421 243 293 220 
422 94 97 93 
423 108 250 129 
424 114 277 209 
425 177 286 266 
426 171 247 240 
427 8 287 1 
428 1 287 29 
429 99 101 97 
430 120 136 135 
431 232 261 97 
432 190 276 265 
433 231 239 53 
434 125 237 155 
435 13 258 157 
436 99 301 107 
437 123 244 148 
438 206 296 255 
439 6 119 58 
440 167 267 128 
441 54 239 86 
442 187 281 223 
443 3 291 51 
444 162 207 161 
445 19 291 3 
446 58 248 59 
447 136 172 171 
448 134 231 85 
449 158 292 241 
450 250 265 169 
451 111 253 126 
452 166 246 210 
453 96 252 90 
454 189 246 166 
455 86 238 55 
456 34 260 33 
457 7 106 64 
458 59 130 60 
459 66 234 92 
460 133 182 119 
461 117 250 105 
462 95 261 242 
463 253 267 185 
464 265 276 169 
465 112 253 103 
466 105 250 108 
467 88 252 134 
468 190 265 131 
469 103 253 111 
470 191 258 189 
471 68 297 233 
472 87 280 89 
473 233 298 68 
474 60 256 61 
475 167 278 267 
476 238 245 56 
477 183 266 156 
478 178 257 240 
479 234 272 227 
480 90 252 88 
481 277 291 251 
482 61 149 62 
483 180 254 172 
484 67 297 68 
485 68 298 69 
486 172 247 171 
487 219 293 235 
488 178 284 218 
489 93 261 95 
490 116 303 205 
491 216 311 304 
492 174 262 237 
493 199 280 236 
494 136 171 135 
495 142 290 140 
496 97 261 93 
497 163 271 162 
498 151 274 170 
499 157 307 220 
500 217 294 174 
501 57 245 100 
502 137 289 16 
503 164 281 187 
504 209 269 207 
505 62 255 63 
506 205 303 181 
507 6 120 119 
508 218 310 178 
509 120 135 133 
510 211 278 167 
511 112 267 253 
512 156 266 200 
513 131 265 117 
514 49 270 48 
515 135 159 133 
516 117 265 250 
517 275 300 175 
518 267 278 185 
519 128 267 112 
520 63 179 7 
521 47 275 46 
522 215 306 104 
523 64 272 65 
524 202 283 282 
525 65 272 234 
526 221 305 110 
527 172 254 247 
528 120 133 119 
529 152 311 216 
530 120 264 136 
531 40 284 178 
532 237 262 155 
533 155 262 183 
534 119 248 58 
535 165 299 224 
536 48 270 228 
537 199 301 280 
538 182 248 119 
539 51 277 50 
540 144 295 142 
541 115 294 217 
542 223 292 187 
543 59 248 130 
544 186 274 151 
545 235 293 188 
546 133 263 182 
547 16 289 15 
548 204 288 229 
549 174 312 217 
550 212 273 249 
551 241 287 8 
552 106 272 64 
553 100 264 6 
554 169 276 181 
555 130 256 60 
556 175 228 176 
557 178 310 257 
558 185 278 186 
559 298 309 91 
560 180 268 254 
561 89 280 94 
562 6 264 120 
563 29 287 222 
564 232 299 261 
565 249 308 30 
566 159 263 133 
567 261 299 242 
568 61 256 149 
569 175 176 106 
570 207 269 161 
571 259 305 186 
572 181 281 164 
573 7 175 106 
574 2 308 18 
575 30 308 2 
576 222 287 241 
577 174 294 262 
578 149 255 62 
579 86 279 238 
580 15 289 246 
581 220 307 225 
582 280 301 94 
583 231 282 239 
584 140 290 160 
585 63 255 179 
586 239 283 86 
587 273 308 249 
588 224 299 232 
589 134 282 231 
590 268 285 115 
591 186 305 274 
592 290 304 160 
593 94 301 99 
594 251 291 19 
595 179 296 275 
596 184 295 144 
597 92 297 67 
598 188 293 243 
599 69 298 91 
600 86 283 279 
601 282 283 239 
602 170 312 174 
603 246 289 210 
604 260 312 170 
605 229 302 168 
606 180 285 268 
607 242 299 165 
608 263 302 182 
609 257 310 159 
610 256 288 149 
611 110 305 259 
612 279 283 203 
613 100 286 264 
614 51 291 277 
615 175 300 228 
616 274 305 221 
617 295 306 215 
618 275 296 46 
619 18 308 273 
620 181 303 281 
621 47 300 275 
622 184 306 295 
$EndElements
