$MeshFormat
4.1 0 8
$EndMeshFormat
$PhysicalNames
3
1 101 "outer_boundary"
2 1 "material_1"
2 2 "material_2"
$EndPhysicalNames
$Entities
8 8 2 0
1 0 0 0 0 
2 1 0 0 0 
3 0 1 0 0 
4 1 1 0 0 
5 0.9208725784968633 0.6093685536665747 0 0 
6 0.6104005344506848 0.6825972555481331 0 0 
7 0.5371718325691265 0.3721252115019545 0 0 
8 0.847643876615305 0.2988965096203963 0 0 
1 -9.999999994736442e-08 -1e-07 -1e-07 1.0000001 1e-07 1e-07 1 101 2 1 -2 
2 -1e-07 -9.999999994736442e-08 -1e-07 1e-07 1.0000001 1e-07 1 101 2 3 -1 
3 0.9999999000000001 -9.999999994736442e-08 -1e-07 1.0000001 1.0000001 1e-07 1 101 2 2 -4 
4 -9.999999994736442e-08 0.9999999000000001 -1e-07 1.0000001 1.0000001 1e-07 1 101 2 4 -3 
5 0.6104004344506848 0.6093684536665748 -1e-07 0.9208726784968633 0.6825973555481331 1e-07 0 2 5 -6 
6 0.5371717325691265 0.3721251115019545 -1e-07 0.6104006344506847 0.6825973555481331 1e-07 0 2 6 -7 
7 0.5371717325691265 0.2988964096203963 -1e-07 0.847643976615305 0.3721253115019545 1e-07 0 2 7 -8 
8 0.8476437766153051 0.2988964096203963 -1e-07 0.9208726784968633 0.6093686536665747 1e-07 0 2 8 -5 
2 0.5371717325691265 0.2988964096203963 -1e-07 0.9208726784968633 0.6825973555481331 1e-07 1 2 4 5 6 7 8 
3 -9.999999994736442e-08 -9.999999994736442e-08 -1e-07 1.0000001 1.0000001 1e-07 1 1 8 1 3 4 2 -5 -8 -7 -6 
$EndEntities
$Nodes
18 169 1 169
0 1 0 1
1
0 0 0
0 2 0 1
2
1 0 0
0 3 0 1
3
0 1 0
0 4 0 1
4
1 1 0
0 5 0 1
5
0.9208725784968633 0.6093685536665747 0
0 6 0 1
6
0.6104005344506848 0.6825972555481331 0
0 7 0 1
7
0.5371718325691265 0.3721252115019545 0
0 8 0 1
8
0.847643876615305 0.2988965096203963 0
1 1 0 7
9
10
11
12
13
14
15
0.1249999999999999 0 0
0.2499999999999998 0 0
0.3749999999999993 0 0
0.4999999999999988 0 0
0.6249999999999988 0 0
0.7499999999999991 0 0
0.8749999999999997 0 0
1 2 0 7
16
17
18
19
20
21
22
0 0.8750000000000001 0
0 0.7500000000000002 0
0 0.6250000000000007 0
0 0.5000000000000012 0
0 0.3750000000000012 0
0 0.2500000000000009 0
0 0.1250000000000003 0
1 3 0 7
23
24
25
26
27
28
29
1 0.1249999999999999 0
1 0.2499999999999998 0
1 0.3749999999999993 0
1 0.4999999999999988 0
1 0.6249999999999988 0
1 0.7499999999999991 0
1 0.8749999999999997 0
1 4 0 7
30
31
32
33
34
35
36
0.8750000000000001 1 0
0.7500000000000002 1 0
0.6250000000000007 1 0
0.5000000000000012 1 0
0.3750000000000012 1 0
0.2500000000000009 1 0
0.1250000000000003 1 0
1 5 0 4
37
38
39
40
0.8587781696876277 0.6240142940428863 0
0.7966837608783921 0.6386600344191981 0
0.7345893520691564 0.6533057747955097 0
0.6724949432599209 0.6679515151718214 0
1 6 0 4
41
42
43
44
0.5957547940743732 0.6205028467388974 0
0.5811090536980615 0.5584084379296619 0
0.5664633133217498 0.4963140291204262 0
0.5518175729454382 0.4342196203111907 0
1 7 0 4
45
46
47
48
0.5992662413783622 0.3574794711256429 0
0.6613606501875977 0.3428337307493313 0
0.7234550589968334 0.3281879903730197 0
0.7855494678060689 0.313542249996708 0
1 8 0 4
49
50
51
52
0.8622896169916167 0.3609909184296319 0
0.8769353573679283 0.4230853272388675 0
0.89158109774424 0.485179736048103 0
0.9062268381205516 0.5472741448573386 0
2 2 0 24
53
54
55
56
57
58
59
60
61
62
63
64
65
66
67
68
69
70
71
72
73
74
75
76
0.8326018600324812 0.4626013803342101 0
0.6236091413588387 0.5124412703328243 0
0.6996845948675101 0.3775511630082145 0
0.7529529732506569 0.5922075691455796 0
0.6914036610751348 0.60798677603937 0
0.7093611192645397 0.5512909896852602 0
0.7736823961154083 0.5368334894903757 0
0.7275858068044222 0.4846568982220312 0
0.8151634950530524 0.5787084435045794 0
0.6488171203707228 0.4074379665330634 0
0.8170323839369471 0.4044770196836089 0
0.8412449898961744 0.5251353209177613 0
0.7623487354581386 0.3762124363833523 0
0.6097449763243281 0.455222952185706 0
0.6456499695803761 0.5706704999674992 0
0.7729052426138363 0.4428303394014804 0
0.6649696210424658 0.4694340380866986 0
0.7084027988492734 0.4358571619502699 0
0.6451353704950749 0.6264195673638969 0
0.5933495207533624 0.4068600475463445 0
0.8646948903126274 0.5746337176221847 0
0.8129090405709151 0.3550741978046322 0
0.7909786351511555 0.4898327722216962 0
0.6731766470966097 0.5176436116825832 0
2 3 0 93
77
78
79
80
81
82
83
84
85
86
87
88
89
90
91
92
93
94
95
96
97
98
99
100
101
102
103
104
105
106
107
108
109
110
111
112
113
114
115
116
117
118
119
120
121
122
123
124
125
126
127
128
129
130
131
132
133
134
135
136
137
138
139
140
141
142
143
144
145
146
147
148
149
150
151
152
153
154
155
156
157
158
159
160
161
162
163
164
165
166
167
168
169
0.5346565884244431 0.602139225557397 0
0.4901888029095216 0.4169211621631409 0
0.4780199661669077 0.3492457572684841 0
0.419236185418611 0.4026171916867667 0
0.09756668985659184 0.6936055934330807 0
0.400037293549122 0.3158144992200235 0
0.7783201396968916 0.6997582400691281 0
0.6568707673009351 0.7320882715058766 0
0.339136027573222 0.37852133366844 0
0.3615189565071876 0.4637230507717709 0
0.6173792191896811 0.2936987871298926 0
0.4731091590026689 0.2654582121042016 0
0.3140527065919706 0.2873712546499706 0
0.5872791501270435 0.7435830439257847 0
0.7401577902836818 0.2614233399613226 0
0.3125000000000011 0.8917468245269451 0
0.2750152334618795 0.4405558882650902 0
0.3003417467904703 0.5280018173382197 0
0.1060341305338459 0.1877247501336798 0
0.6388818585600239 0.8019898643074554 0
0.7945620706548828 0.8919539328917077 0
0.3864084929210695 0.5473095910878291 0
0.3256773771740539 0.6150111802640792 0
0.199442077765409 0.5009688599561024 0
0.5607006427260858 0.8230766180163606 0
0.5140988975753112 0.7516749020335973 0
0.5550830635694448 0.1136610596795567 0
0.814885009849635 0.1056947704114705 0
0.1846013790542739 0.4050583972320628 0
0.4174307871687348 0.6386215214997486 0
0.3524565809474556 0.7103101299261516 0
0.3216809724988995 0.1026233989460265 0
0.4738058126711131 0.8237470593956528 0
0.7205407799390697 0.7751523637446105 0
0.262848627992902 0.6850068072336053 0
0.9177477350846314 0.6724515101941613 0
0.6977761045688036 0.8590731633705736 0
0.6892725540794042 0.1145887748175833 0
0.62400014322169 0.2046942478155646 0
0.1080088294439705 0.3139896066106994 0
0.2071979720416736 0.2547670931526169 0
0.434684557828572 0.1023580254634742 0
0.1160907796139304 0.5762463835630581 0
0.382042527329248 0.2041480305437464 0
0.09853643916011001 0.8112762081643399 0
0.4385937466108956 0.4778591998641796 0
0.468762786365632 0.5580715392436033 0
0.1941738091523759 0.8778585497495894 0
0.5339177533199209 0.2025129827733273 0
0.9386897521837815 0.4431082270401369 0
0.1986115509027602 0.1207641296747289 0
0.2832736694600507 0.7863839861316226 0
0.9062071277859567 0.1840721434772383 0
0.8982387027163447 0.8249642149158275 0
0.5454972350256216 0.6685008218176509 0
0.3776931044159421 0.8116775833173208 0
0.7511891897939464 0.1761149220255966 0
0.5465129056565561 0.3148199353320734 0
0.7125631964531948 0.7056512330573893 0
0.8057981844141474 0.7806222822542865 0
0.8024189573862175 0.2450508850743328 0
0.6772447544380098 0.2745589006592605 0
0.4780956913647718 0.6852981418202518 0
0.5062822170662128 0.4825459988419032 0
0.2522188757191218 0.3505911422020094 0
0.2364775148156626 0.5938323419096975 0
0.8406248505964766 0.6927866791237255 0
0.1865424470644373 0.7515262526933565 0
0.5374482848086728 0.9125510069344366 0
0.2847171458729104 0.1939347813934178 0
0.9233878226415466 0.3793545396111324 0
0.9267162134534628 0.2968820312622978 0
0.09629372809525555 0.4652915181946231 0
0.5314547917752198 0.5394958461385984 0
0.6182394414666944 0.8781353474883261 0
0.911908270983577 0.08810427002193288 0
0.9098462181946302 0.912382979372837 0
0.6963728863633465 0.2062760370558656 0
0.4294078669826219 0.9066204123623924 0
0.8265778124847376 0.1857584744372148 0
0.09355537665087227 0.9061259957020388 0
0.4757674122099709 0.1776276621128612 0
0.09150635094610993 0.09150635094611004 0
0.8907502429208486 0.7433217305733407 0
0.4825996430368139 0.6250442480240622 0
0.5589838360781034 0.2562368330310119 0
0.1799052118687048 0.6600434757665596 0
0.4374029092601134 0.7483596344383542 0
0.8619127975451359 0.242132008774296 0
0.184663758224684 0.3267629289493502 0
0.9428950444242393 0.5349884436020251 0
0.6703730925104536 0.9363630336635327 0
0.7557514254411837 0.8309193431777808 0
$EndNodes
$Elements
6 336 1 336
1 1 1 8
1 1 9 
2 9 10 
3 10 11 
4 11 12 
5 12 13 
6 13 14 
7 14 15 
8 15 2 
1 2 1 8
9 3 16 
10 16 17 
11 17 18 
12 18 19 
13 19 20 
14 20 21 
15 21 22 
16 22 1 
1 3 1 8
17 2 23 
18 23 24 
19 24 25 
20 25 26 
21 26 27 
22 27 28 
23 28 29 
24 29 4 
1 4 1 8
25 4 30 
26 30 31 
27 31 32 
28 32 33 
29 33 34 
30 34 35 
31 35 36 
32 36 3 
2 2 2 66
33 68 70 65 
34 65 70 55 
35 59 64 61 
36 57 67 58 
37 62 70 69 
38 63 68 65 
39 62 69 66 
40 59 75 64 
41 67 76 58 
42 55 70 62 
43 57 58 56 
44 58 60 59 
45 40 57 39 
46 51 53 50 
47 55 62 46 
48 56 61 38 
49 43 54 42 
50 46 62 45 
51 59 61 56 
52 38 61 37 
53 39 56 38 
54 47 55 46 
55 39 57 56 
56 53 63 50 
57 58 59 56 
58 50 63 49 
59 52 64 51 
60 44 66 43 
61 42 67 41 
62 48 65 47 
63 54 67 42 
64 47 65 55 
65 51 64 53 
66 43 66 54 
67 53 68 63 
68 6 71 40 
69 5 73 52 
70 7 72 44 
71 45 72 7 
72 8 74 48 
73 37 73 5 
74 41 71 6 
75 49 74 8 
76 60 70 68 
77 66 69 54 
78 58 76 60 
79 60 75 59 
80 64 75 53 
81 54 76 67 
82 60 76 69 
83 68 75 60 
84 44 72 66 
85 48 74 65 
86 52 73 64 
87 67 71 41 
88 40 71 57 
89 63 74 49 
90 61 73 37 
91 62 72 45 
92 64 73 61 
93 66 72 62 
94 65 74 63 
95 57 71 67 
96 69 70 60 
97 53 75 68 
98 69 76 54 
2 3 2 238
99 27 112 5 
100 97 168 113 
101 105 149 116 
102 82 120 88 
103 89 120 82 
104 115 138 87 
105 116 149 20 
106 127 146 117 
107 102 131 90 
108 88 162 134 
109 110 135 83 
110 124 144 128 
111 125 158 103 
112 95 127 117 
113 88 134 79 
114 31 168 97 
115 114 115 103 
116 124 128 92 
117 139 164 106 
118 8 148 49 
119 90 131 6 
120 13 114 103 
121 100 142 119 
122 103 158 118 
123 87 162 115 
124 83 143 136 
125 108 146 127 
126 102 139 131 
127 83 136 110 
128 79 134 7 
129 106 164 107 
130 89 141 117 
131 118 120 108 
132 125 162 88 
133 11 118 108 
134 28 160 112 
135 140 150 123 
136 78 122 80 
137 142 163 119 
138 104 114 14 
139 115 154 138 
140 122 140 123 
141 113 169 97 
142 145 155 109 
143 97 136 130 
144 15 104 14 
145 98 123 106 
146 133 137 91 
147 95 117 116 
148 31 97 30 
149 33 155 145 
150 114 154 115 
151 121 144 124 
152 103 118 12 
153 13 103 12 
154 80 122 86 
155 143 160 136 
156 95 116 21 
157 18 119 81 
158 119 149 100 
159 86 122 98 
160 18 81 17 
161 116 166 105 
162 14 114 13 
163 11 108 10 
164 81 121 17 
165 129 156 104 
166 22 95 21 
167 26 126 25 
168 86 98 94 
169 133 154 114 
170 145 151 32 
171 21 116 20 
172 117 146 89 
173 12 118 11 
174 35 92 34 
175 19 119 18 
176 104 133 114 
177 122 123 98 
178 115 125 103 
179 108 127 10 
180 128 132 92 
181 35 124 92 
182 131 161 77 
183 17 121 16 
184 148 165 129 
185 78 140 122 
186 98 106 99 
187 49 148 147 
188 24 129 23 
189 100 149 105 
190 36 124 35 
191 10 127 9 
192 20 149 19 
193 29 130 28 
194 89 146 120 
195 132 155 92 
196 123 161 106 
197 139 161 131 
198 120 158 88 
199 109 155 132 
200 34 155 33 
201 98 99 94 
202 33 145 32 
203 119 163 81 
204 80 86 85 
205 3 157 36 
206 24 148 129 
207 16 157 3 
208 123 150 77 
209 41 77 42 
210 23 152 2 
211 44 78 7 
212 4 153 29 
213 2 152 15 
214 86 94 93 
215 30 153 4 
216 8 165 148 
217 43 140 44 
218 106 107 99 
219 81 144 121 
220 1 159 22 
221 9 159 1 
222 141 166 117 
223 151 168 32 
224 120 146 108 
225 6 131 41 
226 100 105 93 
227 107 132 128 
228 101 102 90 
229 97 169 136 
230 45 87 46 
231 38 83 39 
232 130 160 28 
233 86 93 85 
234 107 128 111 
235 39 135 40 
236 107 111 99 
237 94 100 93 
238 46 138 47 
239 19 149 119 
240 40 84 6 
241 104 152 129 
242 47 91 48 
243 25 148 24 
244 133 156 137 
245 48 137 8 
246 7 134 45 
247 15 152 104 
248 109 164 102 
249 82 88 79 
250 80 85 82 
251 91 154 133 
252 84 110 96 
253 44 140 78 
254 97 153 30 
255 115 162 125 
256 130 153 97 
257 85 89 82 
258 99 142 94 
259 132 164 109 
260 84 90 6 
261 42 150 43 
262 77 161 123 
263 41 131 77 
264 111 142 99 
265 101 109 102 
266 78 79 7 
267 77 150 42 
268 80 82 79 
269 37 143 38 
270 117 166 116 
271 101 145 109 
272 92 155 34 
273 78 80 79 
274 118 158 120 
275 43 150 140 
276 128 144 111 
277 94 142 100 
278 96 101 90 
279 105 141 93 
280 136 160 130 
281 110 113 96 
282 93 141 85 
283 127 159 9 
284 22 159 95 
285 84 135 110 
286 95 159 127 
287 85 141 89 
288 88 158 125 
289 107 164 132 
290 83 135 39 
291 87 138 46 
292 84 96 90 
293 121 157 16 
294 40 135 84 
295 47 138 91 
296 45 134 87 
297 5 112 37 
298 36 157 124 
299 91 137 48 
300 129 152 23 
301 32 168 31 
302 124 157 121 
303 50 126 51 
304 29 153 130 
305 147 148 25 
306 81 163 144 
307 49 147 50 
308 38 143 83 
309 144 163 111 
310 101 151 145 
311 96 151 101 
312 113 151 96 
313 138 154 91 
314 51 167 52 
315 104 156 133 
316 112 143 37 
317 106 161 139 
318 137 165 8 
319 105 166 141 
320 156 165 137 
321 102 164 139 
322 134 162 87 
323 136 169 110 
324 111 163 142 
325 26 167 126 
326 112 160 143 
327 50 147 126 
328 126 147 25 
329 126 167 51 
330 110 169 113 
331 113 168 151 
332 129 165 156 
333 5 167 27 
334 52 167 5 
335 27 167 26 
336 28 112 27 
$EndElements
