$MeshFormat
4.1 0 8
$EndMeshFormat
$PhysicalNames
3
1 101 "outer_boundary"
2 1 "material_1"
2 2 "material_2"
$EndPhysicalNames
$Entities
7 7 2 0
1 0 0 0 0 
2 1 0 0 0 
3 0 1 0 0 
4 1 1 0 0 
5 0.7593749345074595 0.8321317650681006 0 0 
6 0.6820183778556227 0.58339072827747 0 0 
7 0.9361127130059069 0.6407685034630044 0 0 
1 -9.999999994736442e-08 -1e-07 -1e-07 1.0000001 1e-07 1e-07 1 101 2 1 -2 
2 -1e-07 -9.999999994736442e-08 -1e-07 1e-07 1.0000001 1e-07 1 101 2 3 -1 
3 0.9999999000000001 -9.999999994736442e-08 -1e-07 1.0000001 1.0000001 1e-07 1 101 2 2 -4 
4 -9.999999994736442e-08 0.9999999000000001 -1e-07 1.0000001 1.0000001 1e-07 1 101 2 4 -3 
5 0.6820182778556227 0.58339062827747 -1e-07 0.7593750345074595 0.8321318650681006 1e-07 0 2 5 -6 
6 0.6820182778556227 0.58339062827747 -1e-07 0.9361128130059069 0.6407686034630043 1e-07 0 2 6 -7 
7 0.7593748345074596 0.6407684034630045 -1e-07 0.9361128130059069 0.8321318650681006 1e-07 0 2 7 -5 
2 0.6820182778556227 0.58339062827747 -1e-07 0.9361128130059069 0.8321318650681006 1e-07 1 2 3 5 6 7 
3 -9.999999994736442e-08 -9.999999994736442e-08 -1e-07 1.0000001 1.0000001 1e-07 1 1 7 1 3 4 2 -5 -7 -6 
$EndEntities
$Nodes
16 137 1 137
0 1 0 1
1
0 0 0
0 2 0 1
2
1 0 0
0 3 0 1
3
0 1 0
0 4 0 1
4
1 1 0
0 5 0 1
5
0.7593749345074595 0.8321317650681006 0
0 6 0 1
6
0.6820183778556227 0.58339072827747 0
0 7 0 1
7
0.9361127130059069 0.6407685034630044 0
1 1 0 7
8
9
10
11
12
13
14
0.1249999999999999 0 0
0.2499999999999998 0 0
0.3749999999999993 0 0
0.4999999999999988 0 0
0.6249999999999988 0 0
0.7499999999999991 0 0
0.8749999999999997 0 0
1 2 0 7
15
16
17
18
19
20
21
0 0.8750000000000001 0
0 0.7500000000000002 0
0 0.6250000000000007 0
0 0.5000000000000012 0
0 0.3750000000000012 0
0 0.2500000000000009 0
0 0.1250000000000003 0
1 3 0 7
22
23
24
25
26
27
28
1 0.1249999999999999 0
1 0.2499999999999998 0
1 0.3749999999999993 0
1 0.4999999999999988 0
1 0.6249999999999988 0
1 0.7499999999999991 0
1 0.8749999999999997 0
1 4 0 7
29
30
31
32
33
34
35
0.8750000000000001 1 0
0.7500000000000002 1 0
0.6250000000000007 1 0
0.5000000000000012 1 0
0.3750000000000012 1 0
0.2500000000000009 1 0
0.1250000000000003 1 0
1 5 0 3
36
37
38
0.7400357953445003 0.7699465058704429 0
0.7206966561815411 0.7077612466727853 0
0.7013575170185818 0.6455759874751276 0
1 6 0 3
39
40
41
0.7455419616431938 0.5977351720738536 0
0.8090655454307648 0.6120796158702372 0
0.8725891292183359 0.6264240596666208 0
1 7 0 3
42
43
44
0.891928268381295 0.6886093188642785 0
0.8477438237566832 0.7364501342655525 0
0.8035593791320714 0.7842909496668266 0
2 2 0 3
45
46
47
0.7842202399691122 0.7221056904691689 0
0.828404684593724 0.6742648750678949 0
0.7648811008061529 0.6599204312715112 0
2 3 0 90
48
49
50
51
52
53
54
55
56
57
58
59
60
61
62
63
64
65
66
67
68
69
70
71
72
73
74
75
76
77
78
79
80
81
82
83
84
85
86
87
88
89
90
91
92
93
94
95
96
97
98
99
100
101
102
103
104
105
106
107
108
109
110
111
112
113
114
115
116
117
118
119
120
121
122
123
124
125
126
127
128
129
130
131
132
133
134
135
136
137
0.6344312405905278 0.6331645796448082 0
0.612930354127613 0.563698525241111 0
0.5613114705440214 0.6207449668233248 0
0.5372404468777585 0.5436865143083316 0
0.664068967657424 0.5153506039652651 0
0.4802258615585696 0.6119693380531157 0
0.4552496817780779 0.5251709112856845 0
0.5173495491906199 0.4605915053333769 0
0.428420546551626 0.4378347330974744 0
0.3899086085477524 0.6068963840769743 0
0.6874999999999989 0.108253175473055 0
0.6662104420380806 0.7679758454806254 0
0.790238331918066 0.5476273219656971 0
0.511818623190839 0.6870306392355192 0
0.4968988116384147 0.3696831269199417 0
0.400036727688871 0.3450382125587235 0
0.3320374206886081 0.4180823098483951 0
0.2997748301239611 0.3201558618603219 0
0.315556489697782 0.893904675041388 0
0.1082531754730544 0.6875000000000004 0
0.8764978584339993 0.3107033229867625 0
0.4701937368646895 0.2720967612803413 0
0.5713477322050817 0.2997480279797399 0
0.1906781585773414 0.1149812967045364 0
0.2287715467869 0.3986891328687178 0
0.2624909763737306 0.4971642511477021 0
0.5658015435865381 0.8914922538091914 0
0.1993497286609636 0.2990960336247342 0
0.8253158375218013 0.8462699907944602 0
0.5419277127017467 0.2132681654483325 0
0.4524179059150077 0.1679157537499008 0
0.1610310011033415 0.477943108445481 0
0.676422442552283 0.8998632990654637 0
0.2707881072623234 0.214586306791659 0
0.4380980529045896 0.8963594702539539 0
0.375037970841714 0.797000822153145 0
0.2672691058455873 0.7897663891377229 0
0.323719646046487 0.6972487979432386 0
0.4952901049467685 0.7943688152670794 0
0.9241758384147396 0.5769310684419806 0
0.1914731527309294 0.5844049389682598 0
0.6504156996970608 0.2115565554625885 0
0.6740962977924799 0.3280153693448957 0
0.7638838583970733 0.2625769495713366 0
0.777214940834277 0.3715027468352779 0
0.8694985155558039 0.1881617143443197 0
0.8738368366333282 0.4269470446438021 0
0.1922490753509421 0.8811376341682235 0
0.5921539700691745 0.3948503683116135 0
0.591556847957834 0.8000462710252407 0
0.6854846042536903 0.4437245337777267 0
0.09712664274827809 0.8116534926269356 0
0.3354273669843303 0.1170953643050625 0
0.6542991129221264 0.6973324807851145 0
0.09723462957964624 0.1831587250205505 0
0.3714397791398638 0.2394813767576682 0
0.1250003356378953 0.3786672641096488 0
0.6958513507198885 0.8177873212717169 0
0.7884524396653826 0.911583908115227 0
0.2277188337633441 0.6878364351259089 0
0.4215030849302479 0.7037269466111188 0
0.2943609013064326 0.596412051008759 0
0.3604113558743713 0.5135934400774982 0
0.8532499900553766 0.5642388004689632 0
0.7234252568132139 0.5271807557836673 0
0.7807283908000191 0.4696477764781853 0
0.9112674075442543 0.7507945780619361 0
0.9137301600447587 0.8351690674199403 0
0.5563944740448301 0.1106286277200869 0
0.8052153903337804 0.09434495343957872 0
0.08786769735806543 0.5591628882082363 0
0.5951301493670577 0.4860702903111907 0
0.5888906617845765 0.6876744031094331 0
0.8970866078901968 0.5138042338835371 0
0.8603233215999138 0.7905949440417432 0
0.9046064423321291 0.09227552367905767 0
0.9004164062053237 0.9113371610549378 0
0.09996053108530489 0.2834279149625143 0
0.09220869192178993 0.909539946916692 0
0.4391524233102954 0.07489602057485856 0
0.08874806471558949 0.0887145548496574 0
0.837640129427438 0.5034390984522953 0
0.6107694658055653 0.7402576263407906 0
0.5563468339231212 0.7450022025750054 0
0.9478616777862913 0.6910344800778434 0
0.1777213892436847 0.2143625021503864 0
0.07309001331243831 0.4498864817625504 0
0.7477472114345848 0.1712014458323942 0
0.6387945231143302 0.8406886173069407 0
0.1798571056219014 0.771098205925236 0
$EndNodes
$Elements
6 272 1 272
1 1 1 8
1 1 8 
2 8 9 
3 9 10 
4 10 11 
5 11 12 
6 12 13 
7 13 14 
8 14 2 
1 2 1 8
9 3 15 
10 15 16 
11 16 17 
12 17 18 
13 18 19 
14 19 20 
15 20 21 
16 21 1 
1 3 1 8
17 2 22 
18 22 23 
19 23 24 
20 24 25 
21 25 26 
22 26 27 
23 27 28 
24 28 4 
1 4 1 8
25 4 29 
26 29 30 
27 30 31 
28 31 32 
29 32 33 
30 33 34 
31 34 35 
32 35 3 
2 2 2 16
33 44 5 36 
34 41 7 42 
35 38 6 39 
36 45 46 43 
37 36 45 44 
38 45 47 46 
39 41 46 40 
40 37 45 36 
41 38 47 37 
42 42 46 41 
43 46 47 40 
44 37 47 45 
45 39 47 38 
46 43 46 42 
47 44 45 43 
48 40 47 39 
2 3 2 224
49 78 103 100 
50 52 119 98 
51 80 105 5 
52 78 116 77 
53 27 132 26 
54 23 93 22 
55 100 103 81 
56 78 127 116 
57 98 119 96 
58 25 121 94 
59 5 106 80 
60 68 92 91 
61 53 108 57 
62 4 124 28 
63 57 108 85 
64 91 93 68 
65 86 108 61 
66 7 87 26 
67 68 93 23 
68 98 112 52 
69 25 94 24 
70 93 123 22 
71 106 124 29 
72 89 116 58 
73 85 109 57 
74 61 108 53 
75 82 86 74 
76 83 108 86 
77 29 124 4 
78 77 116 89 
79 32 82 74 
80 83 86 82 
81 98 113 112 
82 94 113 92 
83 30 106 29 
84 80 106 30 
85 71 100 81 
86 100 127 78 
87 74 80 31 
88 67 118 88 
89 24 94 68 
90 68 94 92 
91 105 136 59 
92 73 110 109 
93 28 124 115 
94 31 80 30 
95 88 109 107 
96 32 74 31 
97 66 83 82 
98 116 127 11 
99 109 110 57 
100 107 109 85 
101 88 107 67 
102 90 98 96 
103 35 95 34 
104 26 132 7 
105 66 82 33 
106 62 96 55 
107 59 136 97 
108 61 131 86 
109 86 97 74 
110 92 113 98 
111 33 82 32 
112 27 115 114 
113 84 85 83 
114 13 58 12 
115 70 96 62 
116 17 67 16 
117 34 66 33 
118 90 96 70 
119 9 100 71 
120 89 90 70 
121 9 71 8 
122 24 68 23 
123 34 95 66 
124 66 84 83 
125 15 126 3 
126 17 118 67 
127 67 99 16 
128 92 98 90 
129 97 130 59 
130 91 92 90 
131 2 123 14 
132 22 123 2 
133 20 125 19 
134 19 125 104 
135 81 133 71 
136 16 99 15 
137 64 110 73 
138 28 115 27 
139 3 126 35 
140 64 73 72 
141 74 136 80 
142 73 88 79 
143 10 100 9 
144 89 91 90 
145 12 116 11 
146 75 81 65 
147 66 95 84 
148 96 119 55 
149 85 108 83 
150 84 107 85 
151 69 70 62 
152 77 89 70 
153 51 119 49 
154 73 109 88 
155 14 117 13 
156 73 79 72 
157 58 135 89 
158 54 55 51 
159 56 64 63 
160 21 102 20 
161 94 129 113 
162 69 78 77 
163 69 77 70 
164 64 72 65 
165 53 54 51 
166 72 75 65 
167 87 121 25 
168 64 65 63 
169 38 48 6 
170 63 69 62 
171 10 127 100 
172 56 63 62 
173 81 103 65 
174 1 128 21 
175 8 128 1 
176 37 101 38 
177 53 57 54 
178 56 62 55 
179 91 135 93 
180 13 117 58 
181 35 126 95 
182 54 56 55 
183 58 116 12 
184 50 61 53 
185 101 120 48 
186 36 59 37 
187 50 53 51 
188 65 103 63 
189 79 104 72 
190 69 103 78 
191 72 104 75 
192 63 103 69 
193 50 51 49 
194 49 119 52 
195 56 110 64 
196 48 120 50 
197 88 118 79 
198 5 105 36 
199 48 49 6 
200 39 60 40 
201 57 110 54 
202 54 110 56 
203 18 118 17 
204 6 112 39 
205 55 119 51 
206 49 52 6 
207 38 101 48 
208 99 137 95 
209 95 137 84 
210 44 76 5 
211 14 123 117 
212 48 50 49 
213 43 122 44 
214 40 111 41 
215 89 135 91 
216 59 101 37 
217 67 137 99 
218 76 124 106 
219 99 126 15 
220 41 87 7 
221 115 124 76 
222 104 134 19 
223 50 120 61 
224 71 128 8 
225 36 105 59 
226 97 136 74 
227 76 122 115 
228 19 134 18 
229 11 127 10 
230 95 126 99 
231 107 137 67 
232 102 125 20 
233 42 114 43 
234 118 134 79 
235 71 133 102 
236 52 112 6 
237 86 131 97 
238 7 132 42 
239 93 135 117 
240 112 113 60 
241 117 123 93 
242 102 128 71 
243 39 112 60 
244 76 106 5 
245 115 122 114 
246 60 111 40 
247 21 128 102 
248 104 125 75 
249 80 136 105 
250 18 134 118 
251 125 133 75 
252 44 122 76 
253 75 133 81 
254 102 133 125 
255 41 111 87 
256 111 121 87 
257 79 134 104 
258 84 137 107 
259 117 135 58 
260 101 130 120 
261 114 122 43 
262 59 130 101 
263 120 131 61 
264 113 129 60 
265 42 132 114 
266 60 129 111 
267 111 129 121 
268 97 131 130 
269 121 129 94 
270 130 131 120 
271 114 132 27 
272 26 87 25 
$EndElements
