$MeshFormat
4.1 0 8
$EndMeshFormat
$PhysicalNames
3
1 101 "outer_boundary"
2 1 "material_1"
2 2 "material_2"
$EndPhysicalNames
$Entities
5 5 2 0
1 0 0 0 0 
2 1 0 0 0 
3 0 1 0 0 
4 1 1 0 0 
5 0.7884002864442814 0.6059632960957557 0 0 
1 -9.999999994736442e-08 -1e-07 -1e-07 1.0000001 1e-07 1e-07 1 101 2 1 -2 
2 -1e-07 -9.999999994736442e-08 -1e-07 1e-07 1.0000001 1e-07 1 101 2 3 -1 
3 0.9999999000000001 -9.999999994736442e-08 -1e-07 1.0000001 1.0000001 1e-07 1 101 2 2 -4 
4 -9.999999994736442e-08 0.9999999000000001 -1e-07 1.0000001 1.0000001 1e-07 1 101 2 4 -3 
5 0.4506378481160541 0.4370820269316421 -1e-07 0.7884003864442813 0.7748445652598693 1e-07 0 2 5 -5 
2 0.4506378481160541 0.4370820269316421 -1e-07 0.7884003864442813 0.7748445652598693 1e-07 1 2 1 5 
3 -9.999999994736442e-08 -9.999999994736442e-08 -1e-07 1.0000001 1.0000001 1e-07 1 1 5 1 3 4 2 -5 
$EndEntities
$Nodes
12 164 1 164
0 1 0 1
1
0 0 0
0 2 0 1
2
1 0 0
0 3 0 1
3
0 1 0
0 4 0 1
4
1 1 0
0 5 0 1
5
0.7884002864442814 0.6059632960957557 0
1 1 0 7
6
7
8
9
10
11
12
0.1249999999999999 0 0
0.2499999999999998 0 0
0.3749999999999993 0 0
0.4999999999999988 0 0
0.6249999999999988 0 0
0.7499999999999991 0 0
0.8749999999999997 0 0
1 2 0 7
13
14
15
16
17
18
19
0 0.8750000000000001 0
0 0.7500000000000002 0
0 0.6250000000000007 0
0 0.5000000000000012 0
0 0.3750000000000012 0
0 0.2500000000000009 0
0 0.1250000000000003 0
1 3 0 7
20
21
22
23
24
25
26
1 0.1249999999999999 0
1 0.2499999999999998 0
1 0.3749999999999993 0
1 0.4999999999999988 0
1 0.6249999999999988 0
1 0.7499999999999991 0
1 0.8749999999999997 0
1 4 0 7
27
28
29
30
31
32
33
0.8750000000000001 1 0
0.7500000000000002 1 0
0.6250000000000007 1 0
0.5000000000000012 1 0
0.3750000000000012 1 0
0.2500000000000009 1 0
0.1250000000000003 1 0
1 5 0 15
34
35
36
37
38
39
40
41
42
43
44
45
46
47
48
0.7755449728974685 0.6705913215733081 0
0.7389361372108247 0.7253803160264131 0
0.6841471427577197 0.7619891517130567 0
0.6195191172801672 0.7748444652598694 0
0.5548910918026148 0.7619891517130563 0
0.5001020973495102 0.7253803160264125 0
0.4634932616628668 0.6705913215733077 0
0.4506379481160541 0.6059632960957554 0
0.4634932616628671 0.5413352706182031 0
0.5001020973495108 0.4865462761650982 0
0.5548910918026158 0.4499374404784547 0
0.619519117280168 0.4370821269316421 0
0.6841471427577204 0.4499374404784551 0
0.738936137210825 0.4865462761650986 0
0.7755449728974686 0.5413352706182034 0
2 2 0 25
49
50
51
52
53
54
55
56
57
58
59
60
61
62
63
64
65
66
67
68
69
70
71
72
73
0.5292463405503819 0.6662816370922566 0
0.7138476173185534 0.5450732795385533 0
0.5592007762836668 0.5156905193659699 0
0.6854869876550883 0.7043309212403488 0
0.6382104359664832 0.4977893667366531 0
0.5221241765679574 0.5777202547774557 0
0.5983381326465453 0.7124472966264747 0
0.7323569621846387 0.6287656824434978 0
0.6906694517149816 0.4994792955650368 0
0.6508523122166955 0.5594547948596363 0
0.6948039090734871 0.5994101273892052 0
0.640813217497887 0.6281691332730261 0
0.5855285633799912 0.5994432728375645 0
0.5848629824324126 0.6589154658352981 0
0.5968506454121887 0.5498696977983806 0
0.7451255601058586 0.5809786211951599 0
0.5112300779660005 0.5303230802316817 0
0.5939629930720381 0.4872975511216043 0
0.5483687828453536 0.7124472966264745 0
0.499535213387201 0.6290789884267127 0
0.6445037921807633 0.7315697389214465 0
0.7241972274554597 0.6761492377733295 0
0.6342824393519114 0.6801835281820073 0
0.5442594552635889 0.6262879237938576 0
0.6853234572030787 0.6528347717169024 0
2 3 0 91
74
75
76
77
78
79
80
81
82
83
84
85
86
87
88
89
90
91
92
93
94
95
96
97
98
99
100
101
102
103
104
105
106
107
108
109
110
111
112
113
114
115
116
117
118
119
120
121
122
123
124
125
126
127
128
129
130
131
132
133
134
135
136
137
138
139
140
141
142
143
144
145
146
147
148
149
150
151
152
153
154
155
156
157
158
159
160
161
162
163
164
0.433043535469388 0.4810776378081114 0
0.4011700914829758 0.6410786018700907 0
0.6566653784983928 0.3892086068526371 0
0.3175583241361619 0.09510909152416058 0
0.1132643276222947 0.4265456348955561 0
0.5600106388927262 0.08861686688498671 0
0.1018785287751527 0.6787363340310243 0
0.3279533854717239 0.8911670854897999 0
0.5013511846972935 0.7944165257742106 0
0.7505529773514142 0.7889925099947663 0
0.8907497328648712 0.3113782447173605 0
0.8010599526707755 0.4769750261942621 0
0.4725816494618731 0.4254526119979162 0
0.3939964142864355 0.4169591896577534 0
0.3570685609316386 0.4952394456242712 0
0.4370422145648071 0.3505102118774976 0
0.3533697386321585 0.3436656988011954 0
0.5864129849196765 0.3821194668387801 0
0.6196769878686381 0.3191507578220636 0
0.7011560674497483 0.3221037148082466 0
0.4387510036296807 0.7538129263840594 0
0.578522432063862 0.8393873965563317 0
0.8465698366389747 0.5290234957741371 0
0.8034876996136769 0.7282609689302253 0
0.6779041259979915 0.8346973405812441 0
0.8357600221322455 0.6596869570253595 0
0.7980569762095489 0.1239664781455748 0
0.4042102003823318 0.2688696661921437 0
0.8311506749667167 0.8024995461968882 0
0.1053331044006598 0.1882425901919544 0
0.6548315950828187 0.2447050267430645 0
0.5707781336311485 0.2559263439926884 0
0.7426840718367713 0.4157117880234876 0
0.3113887041860111 0.2620253764643417 0
0.2593288617187349 0.3363380176930025 0
0.4288467872880835 0.8361604705141505 0
0.3541658273186898 0.7849298206058319 0
0.2575277342943529 0.802544781041804 0
0.2961962563921992 0.7176269781682413 0
0.7442399054635577 0.235271971528867 0
0.696610298093067 0.1659057664433061 0
0.3790778153663852 0.579433989371362 0
0.5022616222738004 0.8672689124575046 0
0.8839400825896422 0.4774474087182299 0
0.8215093532836777 0.4039730600922461 0
0.1049139351038449 0.557323151862982 0
0.2021994290477286 0.5016739570944722 0
0.1926136680779417 0.6109078598692854 0
0.4387839556807931 0.09028286253492879 0
0.7662319343622416 0.8736462573631476 0
0.1014960669464899 0.3046535497759536 0
0.2865770115375267 0.5641487059556607 0
0.1196886699374859 0.8044432600298519 0
0.885108846711538 0.7319079368118269 0
0.202435898189622 0.2447629015430111 0
0.9043941807380013 0.1912306208178299 0
0.3322507796930936 0.6403357639802787 0
0.1895388616730777 0.8990823867017463 0
0.1937513524277414 0.1148396723419639 0
0.6250317980008593 0.9016339499596 0
0.7882975912155542 0.3214359933365306 0
0.2047767396051309 0.7103371284996352 0
0.8575747794744579 0.8982989034724587 0
0.9200039611269037 0.8208936312038535 0
0.4411249989623124 0.9215137592738247 0
0.3072059946162999 0.414217385755197 0
0.4919981416093375 0.1916739051822389 0
0.3773019896529171 0.1779824521703649 0
0.4953186491407232 0.2935036141464973 0
0.3795755076188402 0.7056662624832247 0
0.5134691021198504 0.3685386010055692 0
0.2246892410415532 0.4159548835744206 0
0.2758982638908179 0.180461862631552 0
0.9150291316892998 0.5613046770845843 0
0.9144865868958081 0.6503889811079273 0
0.9008768318349083 0.3922128702487366 0
0.6102881345515161 0.168751208987205 0
0.09052891256513274 0.9056205722772289 0
0.28230867382344 0.4823873603048861 0
0.829064726299698 0.245532651097934 0
0.90849364905389 0.09150635094610987 0
0.09150635094610987 0.09150635094610998 0
0.4087755532194536 0.5315835436780816 0
0.6888335716722187 0.9219955095807983 0
0.2619893736590283 0.6484119360269012 0
0.6823351583908434 0.07498232405008665 0
0.5475776618942397 0.9265935294116551 0
0.5571311715360073 0.3238477567611197 0
0.9370287907500402 0.93702879075004 0
0.1802428791037389 0.3456509974963888 0
0.8459651394496797 0.5912837796176612 0
$EndNodes
$Elements
6 326 1 326
1 1 1 8
1 1 6 
2 6 7 
3 7 8 
4 8 9 
5 9 10 
6 10 11 
7 11 12 
8 12 2 
1 2 1 8
9 3 13 
10 13 14 
11 14 15 
12 15 16 
13 16 17 
14 17 18 
15 18 19 
16 19 1 
1 3 1 8
17 2 20 
18 20 21 
19 21 22 
20 22 23 
21 23 24 
22 24 25 
23 25 26 
24 26 4 
1 4 1 8
25 4 27 
26 27 28 
27 28 29 
28 29 30 
29 30 31 
30 31 32 
31 32 33 
32 33 3 
2 2 2 64
33 51 63 54 
34 54 63 61 
35 54 65 51 
36 57 58 53 
37 50 58 57 
38 46 53 45 
39 34 56 5 
40 48 50 47 
41 42 54 41 
42 36 52 35 
43 40 49 39 
44 44 51 43 
45 38 55 37 
46 61 72 54 
47 60 61 58 
48 58 63 53 
49 63 66 53 
50 62 67 49 
51 55 67 62 
52 50 59 58 
53 51 66 63 
54 60 62 61 
55 59 60 58 
56 56 64 5 
57 37 69 36 
58 53 66 45 
59 52 70 35 
60 51 65 43 
61 55 69 37 
62 38 67 55 
63 43 65 42 
64 42 65 54 
65 54 68 41 
66 45 66 44 
67 50 57 47 
68 44 66 51 
69 47 57 46 
70 46 57 53 
71 40 68 49 
72 48 64 50 
73 36 69 52 
74 49 67 39 
75 41 68 40 
76 39 67 38 
77 5 64 48 
78 35 70 34 
79 34 70 56 
80 61 63 58 
81 59 73 60 
82 49 72 62 
83 62 72 61 
84 59 64 56 
85 50 64 59 
86 71 73 52 
87 60 73 71 
88 56 73 59 
89 60 71 62 
90 62 71 55 
91 55 71 69 
92 69 71 52 
93 68 72 49 
94 54 72 68 
95 70 73 56 
96 52 73 70 
2 3 2 230
97 37 98 95 
98 126 135 111 
99 93 106 76 
100 81 110 109 
101 111 131 126 
102 93 134 106 
103 115 125 88 
104 100 153 113 
105 109 138 81 
106 113 114 100 
107 88 156 115 
108 117 149 23 
109 132 146 128 
110 94 143 40 
111 123 136 28 
112 40 143 75 
113 101 141 140 
114 86 144 44 
115 103 132 128 
116 140 142 101 
117 150 159 114 
118 79 159 150 
119 119 121 80 
120 44 144 91 
121 43 86 44 
122 98 133 95 
123 106 134 118 
124 39 94 40 
125 15 119 80 
126 23 149 22 
127 8 122 77 
128 28 136 27 
129 127 148 25 
130 97 127 102 
131 78 120 119 
132 121 135 80 
133 41 156 42 
134 17 124 78 
135 81 111 110 
136 81 131 111 
137 95 160 116 
138 139 152 145 
139 36 98 37 
140 118 134 84 
141 115 130 125 
142 32 131 81 
143 111 112 110 
144 45 91 76 
145 120 121 119 
146 75 143 130 
147 80 135 126 
148 91 92 76 
149 120 125 121 
150 79 122 9 
151 78 119 16 
152 22 84 21 
153 76 106 46 
154 32 81 31 
155 10 79 9 
156 129 153 100 
157 133 160 95 
158 114 159 100 
159 15 80 14 
160 103 128 124 
161 80 126 14 
162 81 138 31 
163 17 78 16 
164 8 77 7 
165 47 106 85 
166 127 137 102 
167 84 129 21 
168 103 124 18 
169 124 163 78 
170 16 119 15 
171 122 141 77 
172 130 143 112 
173 78 163 145 
174 9 122 8 
175 38 95 82 
176 18 124 17 
177 48 164 5 
178 12 100 11 
179 115 156 41 
180 14 126 13 
181 19 103 18 
182 10 159 79 
183 25 148 24 
184 77 132 7 
185 145 152 120 
186 106 118 85 
187 116 160 138 
188 121 158 135 
189 35 97 83 
190 21 129 20 
191 28 157 123 
192 107 146 141 
193 23 147 117 
194 7 132 6 
195 140 141 122 
196 29 157 28 
197 33 131 32 
198 3 151 33 
199 95 116 82 
200 97 102 83 
201 100 159 11 
202 107 141 101 
203 137 162 136 
204 112 143 110 
205 34 99 97 
206 84 149 118 
207 117 147 96 
208 111 135 112 
209 13 151 3 
210 139 145 108 
211 79 140 122 
212 102 137 136 
213 88 139 87 
214 87 139 90 
215 42 74 43 
216 90 108 107 
217 99 127 97 
218 45 76 46 
219 40 75 41 
220 22 149 84 
221 2 154 12 
222 20 154 2 
223 1 155 19 
224 6 155 1 
225 125 152 88 
226 82 116 109 
227 92 93 76 
228 38 82 39 
229 105 142 140 
230 108 128 107 
231 25 137 127 
232 78 145 120 
233 90 107 101 
234 47 85 48 
235 44 91 45 
236 113 134 93 
237 90 101 89 
238 125 158 121 
239 92 105 104 
240 96 164 48 
241 85 118 117 
242 147 164 96 
243 130 158 125 
244 74 86 43 
245 74 88 87 
246 46 106 47 
247 133 157 29 
248 135 158 112 
249 75 115 41 
250 31 138 30 
251 116 138 109 
252 26 162 137 
253 35 83 36 
254 87 90 89 
255 104 114 113 
256 140 150 105 
257 90 139 108 
258 77 146 132 
259 37 95 38 
260 141 146 77 
261 83 123 98 
262 82 94 39 
263 104 113 93 
264 138 160 30 
265 34 97 35 
266 102 123 83 
267 109 110 94 
268 26 137 25 
269 87 89 86 
270 148 164 147 
271 84 153 129 
272 131 151 126 
273 74 87 86 
274 5 99 34 
275 92 104 93 
276 120 152 125 
277 75 130 115 
278 101 142 89 
279 24 147 23 
280 85 96 48 
281 82 109 94 
282 126 151 13 
283 129 154 20 
284 102 136 123 
285 132 155 6 
286 142 144 89 
287 30 160 29 
288 134 153 84 
289 142 161 144 
290 12 154 100 
291 128 163 124 
292 100 154 129 
293 83 98 36 
294 19 155 103 
295 33 151 131 
296 79 150 140 
297 74 156 88 
298 110 143 94 
299 104 150 114 
300 103 155 132 
301 105 161 142 
302 85 117 96 
303 11 159 10 
304 89 144 86 
305 99 164 148 
306 92 161 105 
307 128 146 107 
308 4 162 26 
309 27 162 4 
310 118 149 117 
311 99 148 127 
312 105 150 104 
313 112 158 130 
314 88 152 139 
315 113 153 134 
316 91 161 92 
317 42 156 74 
318 98 157 133 
319 108 163 128 
320 123 157 98 
321 29 160 133 
322 144 161 91 
323 136 162 27 
324 145 163 108 
325 5 164 99 
326 24 148 147 
$EndElements
