$MeshFormat
4.1 0 8
$EndMeshFormat
$PhysicalNames
3
1 101 "outer_boundary"
2 1 "material_1"
2 2 "material_2"
$EndPhysicalNames
$Entities
5 5 2 0
1 0 0 0 0 
2 1 0 0 0 
3 0 1 0 0 
4 1 1 0 0 
5 0.4323056925715619 0.7755796569800902 0 0 
1 -9.999999994736442e-08 -1e-07 -1e-07 1.0000001 1e-07 1e-07 1 101 2 1 -2 
2 -1e-07 -9.999999994736442e-08 -1e-07 1e-07 1.0000001 1e-07 1 101 2 3 -1 
3 0.9999999000000001 -9.999999994736442e-08 -1e-07 1.0000001 1.0000001 1e-07 1 101 2 2 -4 
4 -9.999999994736442e-08 0.9999999000000001 -1e-07 1.0000001 1.0000001 1e-07 1 101 2 4 -3 
5 0.2014550514660011 0.6601542864273099 -1e-07 0.4323057925715619 0.8910050275328706 1e-07 0 2 5 -5 
2 0.2014550514660011 0.6601542864273099 -1e-07 0.4323057925715619 0.8910050275328706 1e-07 1 2 1 5 
3 -9.999999994736442e-08 -9.999999994736442e-08 -1e-07 1.0000001 1.0000001 1e-07 1 1 5 1 3 4 2 -5 
$EndEntities
$Nodes
12 218 1 218
0 1 0 1
1
0 0 0
0 2 0 1
2
1 0 0
0 3 0 1
3
0 1 0
0 4 0 1
4
1 1 0
0 5 0 1
5
0.4323056925715619 0.7755796569800902 0
1 1 0 9
6
7
8
9
10
11
12
13
14
0.09999999999999996 0 0
0.1999999999999999 0 0
0.3000000000000001 0 0
0.4000000000000004 0 0
0.5000000000000003 0 0
0.5999999999999999 0 0
0.6999999999999995 0 0
0.7999999999999992 0 0
0.899999999999999 0 0
1 2 0 9
15
16
17
18
19
20
21
22
23
0 0.9 0
0 0.8 0
0 0.7 0
0 0.5999999999999996 0
0 0.4999999999999997 0
0 0.4000000000000001 0
0 0.3000000000000005 0
0 0.2000000000000008 0
0 0.100000000000001 0
1 3 0 9
24
25
26
27
28
29
30
31
32
1 0.09999999999999996 0
1 0.1999999999999999 0
1 0.3000000000000001 0
1 0.4000000000000004 0
1 0.5000000000000003 0
1 0.5999999999999999 0
1 0.6999999999999995 0
1 0.7999999999999992 0
1 0.899999999999999 0
1 4 0 9
33
34
35
36
37
38
39
40
41
0.9 1 0
0.8 1 0
0.7 1 0
0.5999999999999996 1 0
0.4999999999999997 1 0
0.4000000000000001 1 0
0.3000000000000005 1 0
0.2000000000000008 1 0
0.100000000000001 1 0
1 5 0 13
42
43
44
45
46
47
48
49
50
51
52
53
54
0.4208749973560506 0.8256608049561864 0
0.3888469010852252 0.865822767370644 0
0.3425649610243464 0.8881109750131346 0
0.2911958830132165 0.8881109750131346 0
0.2449139429523378 0.865822767370644 0
0.2128858466815125 0.8256608049561863 0
0.2014551514660011 0.7755796569800902 0
0.2128858466815125 0.7254985090039942 0
0.2449139429523378 0.6853365465895365 0
0.2911958830132165 0.6630483389470458 0
0.3425649610243466 0.663048338947046 0
0.3888469010852253 0.6853365465895366 0
0.4208749973560506 0.725498509003994 0
2 2 0 15
55
56
57
58
59
60
61
62
63
64
65
66
67
68
69
0.3700796695038818 0.8180046411580268 0
0.2652950658282454 0.7335054429701836 0
0.3488078192554834 0.7195141053870294 0
0.2636811745336812 0.8180046411580268 0
0.3158004456698072 0.8371169828991628 0
0.3832187985658194 0.7604383554315922 0
0.4016197894993284 0.7949208646314739 0
0.3358632736595009 0.7760219611794521 0
0.3092139962632171 0.741506972944574 0
0.2883874212921868 0.7805061212937296 0
0.2452120364124777 0.7729123210976554 0
0.3003319447228078 0.7009932909642359 0
0.3854371290656446 0.722696879103038 0
0.2788978615422607 0.852263841610242 0
0.3543229943208152 0.852263841610242 0
2 3 0 149
70
71
72
73
74
75
76
77
78
79
80
81
82
83
84
85
86
87
88
89
90
91
92
93
94
95
96
97
98
99
100
101
102
103
104
105
106
107
108
109
110
111
112
113
114
115
116
117
118
119
120
121
122
123
124
125
126
127
128
129
130
131
132
133
134
135
136
137
138
139
140
141
142
143
144
145
146
147
148
149
150
151
152
153
154
155
156
157
158
159
160
161
162
163
164
165
166
167
168
169
170
171
172
173
174
175
176
177
178
179
180
181
182
183
184
185
186
187
188
189
190
191
192
193
194
195
196
197
198
199
200
201
202
203
204
205
206
207
208
209
210
211
212
213
214
215
216
217
218
0.3790649759122696 0.6294481881299903 0
0.4669866974690033 0.7328556018285159 0
0.5471452474421566 0.08098421058862576 0
0.9173992823255371 0.4462897793901263 0
0.07742199654788962 0.3574303885682497 0
0.2414430558168694 0.6353498313660964 0
0.9215894666442681 0.6468345308048158 0
0.3642070872826558 0.09281400508668902 0
0.7374381094228938 0.08467861550177247 0
0.6537640152858013 0.9212463521280452 0
0.9182663509831163 0.254149808259539 0
0.08355850826989375 0.5373278379663636 0
0.3273223402671032 0.6167880487978425 0
0.3622276585317214 0.5763284456878214 0
0.4189984626069908 0.582246156608227 0
0.3980408800761218 0.5295821627544683 0
0.4609109682694783 0.536502782896388 0
0.4369064287395743 0.4786749831343716 0
0.502889148736178 0.4885734838913305 0
0.5268487652951115 0.5493957203083751 0
0.5711308265338222 0.499469286459544 0
0.5971699593835555 0.5629369204960879 0
0.4784532595427362 0.4239537521662304 0
0.407916313928778 0.415842681893717 0
0.3346529302110479 0.5265390868678439 0
0.4486562153059068 0.3565458022446907 0
0.5142620522234778 0.3583488176761199 0
0.3732316504728648 0.34711046141073 0
0.6439530592682325 0.5090707688391788 0
0.669407818019901 0.5811232185291609 0
0.6107780851426248 0.6341730575971547 0
0.6932261037873915 0.6529989343771301 0
0.4188740822368744 0.2832903818829177 0
0.3408765793241328 0.2673435770074068 0
0.6445041764402646 0.7104239007723492 0
0.7198086600646185 0.7276547678227934 0
0.291224563118499 0.3391441275191661 0
0.2571279648812056 0.2561631394097531 0
0.7204931642080863 0.5233053503794071 0
0.6924804373525466 0.4474298494905247 0
0.486458963419698 0.7905886837409131 0
0.1967023032482744 0.6682280946810668 0
0.153846191001041 0.09545291371024678 0
0.159259149585275 0.7463048989053164 0
0.1664850694334278 0.8105467289890731 0
0.1935340305625274 0.8721470195391643 0
0.9152488869056853 0.8511079433593564 0
0.4473910487878096 0.6828255279154676 0
0.5064542350133155 0.686983473466604 0
0.4759636385438865 0.8547722253325577 0
0.5299443978177769 0.8330792490512249 0
0.1842384623550485 0.6166382904253848 0
0.1370270349059856 0.6536233605249091 0
0.2256695014512476 0.5750663712688511 0
0.5282254768824375 0.738267128269913 0
0.776358434976641 0.6676417174620082 0
0.8007929913095256 0.7452618095769172 0
0.7440511055102894 0.8091585334384732 0
0.7720114644866005 0.4618543911431507 0
0.7398081373868538 0.38410041501711 0
0.8013843360415893 0.5406463739289026 0
0.662996400681404 0.3688114220677582 0
0.7085472152162469 0.3038828370431921 0
0.6290722510344193 0.28890487978724 0
0.677514628056781 0.2215601066937334 0
0.7658532740725952 0.2404234669788428 0
0.1276230574958983 0.8644986311863408 0
0.5916381219063771 0.2087911877014632 0
0.3917141653133978 0.2047464648109165 0
0.4816165831187386 0.6454614255557167 0
0.2104049435880499 0.331064900927848 0
0.2483029489120845 0.4128574375371866 0
0.1735386992646449 0.2528740014054448 0
0.1100579826082224 0.7755796569800903 0
0.4828277783742327 0.2224920115931818 0
0.6414525412086588 0.1382897431631421 0
0.2228895496690065 0.1790867832430991 0
0.525089187583012 0.8952070264128502 0
0.4610949232212013 0.1367556978739414 0
0.07982708609782385 0.4516902943396601 0
0.1390860991697429 0.494273131425972 0
0.537947610022662 0.6421536206726133 0
0.2472550231648979 0.9197429894621965 0
0.8287019450523991 0.3934390936051693 0
0.9057639564170866 0.5445752037024726 0
0.7511251291712155 0.9037048355318105 0
0.1601575546667472 0.4089521143542031 0
0.9018304122811246 0.7507710834011685 0
0.3294441732117616 0.410752437636649 0
0.4574061470273697 0.9206961870596735 0
0.3884862737840417 0.9139020854155331 0
0.2586779200223683 0.08901974513157629 0
0.9164508870158377 0.3506771028218969 0
0.904798224237928 0.154860056457352 0
0.5486923875103261 0.2887458814805843 0
0.8501618499919513 0.9168060114351719 0
0.2932822080092665 0.4762649228049362 0
0.8412265264732716 0.2968495265820084 0
0.1101057108186363 0.7102296982985862 0
0.6182007480471755 0.4354802872741028 0
0.3097687082773922 0.1706080069050914 0
0.8449017827936303 0.07966228422420168 0
0.6679287025297971 0.7854818697415611 0
0.5972765753930545 0.7587522321730774 0
0.599498524621028 0.8454218658403595 0
0.07607100473474121 0.1515834712593 0
0.08824926005133982 0.2508491942227444 0
0.8272017291949653 0.8294683694571496 0
0.5463337631245394 0.4262258077319647 0
0.7526078586390899 0.5939526579852387 0
0.1552837860230012 0.9324060123499406 0
0.06729666875219248 0.6689111436448684 0
0.3667071556960917 0.472942712515331 0
0.5708643598157265 0.6951255688252853 0
0.325001804027569 0.9342978557856448 0
0.07624280696610924 0.9241961840133632 0
0.7996332164787348 0.1549132197625654 0
0.06473995182926745 0.8315553367679356 0
0.8472005400050555 0.6034923043023099 0
0.1504163852236378 0.5651344920435606 0
0.2779187766660801 0.5391300860454578 0
0.2198846874784899 0.4998381043508766 0
0.8486005564959824 0.6833633830497756 0
0.5306752609147642 0.1613766327942984 0
0.8450521968646425 0.4773609683539643 0
0.5865929337702237 0.3610861826696283 0
0.6897514804918156 0.854714857758552 0
0.4319038385125987 0.6327498658933514 0
0.05389177710798249 0.7472359025121205 0
0.7232515411909333 0.1648077732116002 0
0.3156372493811939 0.5711078532763804 0
0.6499999999999997 0.05964810664361664 0
0.8459555184491292 0.2202392156080615 0
0.1429189409441547 0.185969272768167 0
0.4263155915593147 0.876170814026919 0
0.07382666603127519 0.07284620833139582 0
0.278003279258555 0.5984516377417846 0
0.4500000000000004 0.05812086236993658 0
0.9267949192431122 0.926794919243112 0
0.9266087966630234 0.07339120333697619 0
0.582968923491529 0.9324320764742826 0
0.4874213352954629 0.597623260403448 0
0.4816454821886745 0.3022726170198815 0
0.1037561765844597 0.606939187434181 0
0.1421222055165036 0.3182482184330847 0
0.1598952383177437 0.6992770676300657 0
0.774297758118359 0.3247248958278136 0
0.553723119242661 0.5948532508894649 0
0.5489062676011526 0.7863827530823404 0
$EndNodes
$Elements
6 434 1 434
1 1 1 10
1 1 6 
2 6 7 
3 7 8 
4 8 9 
5 9 10 
6 10 11 
7 11 12 
8 12 13 
9 13 14 
10 14 2 
1 2 1 10
11 3 15 
12 15 16 
13 16 17 
14 17 18 
15 18 19 
16 19 20 
17 20 21 
18 21 22 
19 22 23 
20 23 1 
1 3 1 10
21 2 24 
22 24 25 
23 25 26 
24 26 27 
25 27 28 
26 28 29 
27 29 30 
28 30 31 
29 31 32 
30 32 4 
1 4 1 10
31 4 33 
32 33 34 
33 34 35 
34 35 36 
35 36 37 
36 37 38 
37 38 39 
38 39 40 
39 40 41 
40 41 3 
2 2 2 42
41 59 64 62 
42 58 64 59 
43 60 62 57 
44 59 62 55 
45 50 66 56 
46 62 63 57 
47 51 66 50 
48 55 62 60 
49 47 65 58 
50 48 65 47 
51 57 67 60 
52 55 69 59 
53 60 61 55 
54 59 68 58 
55 49 65 48 
56 56 65 49 
57 5 60 54 
58 43 55 42 
59 53 57 52 
60 47 58 46 
61 45 59 44 
62 50 56 49 
63 56 66 63 
64 63 64 56 
65 52 66 51 
66 57 66 52 
67 64 65 56 
68 58 65 64 
69 62 64 63 
70 45 68 59 
71 59 69 44 
72 42 61 5 
73 43 69 55 
74 55 61 42 
75 46 68 45 
76 58 68 46 
77 5 61 60 
78 44 69 43 
79 53 67 57 
80 60 67 54 
81 54 67 53 
82 63 66 57 
2 3 2 352
83 141 191 156 
84 77 148 138 
85 189 191 123 
86 127 177 155 
87 179 188 125 
88 156 191 150 
89 120 174 147 
90 138 170 77 
91 38 184 160 
92 107 170 103 
93 157 177 126 
94 137 164 144 
95 166 182 94 
96 145 193 72 
97 5 110 42 
98 136 143 114 
99 112 161 146 
100 158 182 166 
101 144 193 137 
102 137 193 145 
103 155 177 165 
104 82 83 70 
105 54 117 71 
106 52 82 70 
107 130 188 179 
108 152 180 115 
109 117 118 71 
110 174 210 147 
111 147 210 37 
112 40 152 39 
113 118 183 124 
114 130 194 154 
115 150 191 189 
116 74 156 149 
117 50 111 75 
118 74 149 20 
119 178 195 169 
120 154 188 130 
121 151 183 118 
122 103 170 138 
123 72 193 148 
124 148 207 72 
125 126 192 157 
126 120 218 174 
127 40 180 152 
128 146 203 112 
129 149 150 81 
130 37 159 147 
131 70 197 53 
132 110 119 42 
133 81 213 18 
134 146 170 107 
135 111 121 75 
136 116 177 157 
137 18 213 181 
138 152 184 39 
139 188 192 125 
140 53 197 117 
141 166 191 141 
142 139 211 151 
143 141 156 140 
144 96 195 178 
145 121 189 123 
146 39 184 38 
147 19 149 81 
148 76 154 29 
149 145 201 78 
150 19 81 18 
151 151 217 100 
152 124 183 173 
153 75 206 51 
154 78 199 145 
155 153 162 73 
156 175 176 22 
157 168 198 181 
158 156 214 140 
159 84 211 197 
160 72 201 145 
161 36 79 35 
162 71 124 110 
163 30 157 76 
164 51 206 82 
165 93 158 97 
166 48 114 113 
167 174 218 173 
168 79 155 35 
169 211 217 151 
170 38 160 159 
171 155 196 127 
172 100 183 151 
173 106 158 141 
174 74 214 156 
175 175 203 176 
176 26 162 80 
177 7 161 112 
178 21 74 20 
179 28 154 73 
180 97 158 106 
181 161 170 146 
182 30 76 29 
183 77 207 148 
184 106 141 140 
185 149 156 150 
186 20 149 19 
187 28 73 27 
188 163 186 171 
189 136 187 143 
190 11 72 10 
191 163 202 186 
192 38 159 37 
193 93 182 158 
194 197 211 139 
195 164 195 96 
196 116 157 31 
197 29 154 28 
198 122 213 121 
199 73 162 27 
200 31 157 30 
201 77 170 161 
202 9 77 8 
203 7 112 6 
204 34 165 33 
205 77 161 8 
206 133 164 137 
207 90 169 98 
208 35 155 34 
209 162 167 80 
210 99 100 91 
211 153 167 162 
212 32 116 31 
213 49 215 111 
214 8 161 7 
215 155 165 34 
216 27 162 26 
217 83 84 70 
218 26 80 25 
219 13 78 12 
220 80 163 25 
221 15 185 3 
222 25 163 24 
223 114 143 113 
224 121 213 189 
225 158 166 141 
226 124 218 110 
227 47 115 114 
228 109 131 129 
229 3 185 41 
230 131 133 132 
231 37 210 36 
232 98 169 109 
233 133 137 134 
234 157 192 76 
235 117 139 118 
236 101 104 100 
237 113 215 49 
238 99 101 100 
239 154 194 73 
240 14 171 13 
241 106 140 107 
242 72 207 10 
243 133 195 164 
244 100 217 91 
245 97 106 103 
246 22 176 21 
247 11 201 72 
248 131 132 129 
249 88 89 86 
250 133 134 132 
251 138 144 102 
252 52 70 53 
253 109 169 131 
254 79 210 174 
255 142 146 107 
256 137 145 134 
257 90 91 89 
258 173 183 104 
259 185 187 136 
260 115 136 114 
261 54 71 5 
262 176 203 142 
263 21 176 74 
264 9 207 77 
265 118 124 71 
266 126 127 105 
267 13 171 78 
268 76 188 154 
269 140 142 107 
270 98 99 91 
271 128 130 108 
272 134 135 132 
273 43 204 160 
274 106 107 103 
275 46 152 115 
276 172 173 104 
277 109 129 128 
278 105 172 104 
279 23 175 22 
280 73 194 153 
281 98 109 108 
282 50 75 51 
283 15 187 185 
284 95 96 92 
285 138 148 144 
286 129 153 128 
287 53 117 54 
288 88 90 89 
289 172 174 173 
290 101 125 105 
291 98 108 99 
292 90 98 91 
293 150 189 81 
294 78 201 12 
295 181 198 17 
296 103 138 102 
297 97 103 102 
298 97 102 95 
299 45 184 152 
300 109 128 108 
301 87 93 92 
302 51 82 52 
303 127 172 105 
304 101 105 104 
305 87 92 88 
306 93 97 95 
307 125 126 105 
308 121 123 75 
309 169 195 131 
310 87 88 86 
311 130 179 108 
312 1 205 23 
313 83 85 84 
314 126 177 127 
315 85 87 86 
316 85 86 84 
317 6 205 1 
318 2 209 14 
319 24 209 2 
320 4 208 32 
321 33 208 4 
322 49 111 50 
323 96 212 164 
324 93 95 92 
325 139 151 118 
326 160 184 44 
327 79 196 155 
328 90 178 169 
329 71 110 5 
330 83 94 85 
331 110 120 119 
332 99 179 101 
333 108 179 99 
334 18 181 17 
335 96 178 92 
336 16 187 15 
337 111 122 121 
338 86 211 84 
339 101 179 125 
340 148 193 144 
341 104 183 100 
342 36 210 79 
343 164 212 144 
344 41 180 40 
345 123 191 190 
346 80 202 163 
347 167 216 135 
348 92 178 88 
349 88 178 90 
350 48 113 49 
351 144 212 102 
352 94 190 166 
353 165 177 116 
354 110 218 120 
355 173 218 124 
356 47 114 48 
357 165 208 33 
358 160 204 159 
359 143 168 113 
360 87 182 93 
361 153 194 128 
362 135 202 167 
363 153 216 167 
364 112 203 175 
365 134 199 135 
366 135 216 132 
367 187 198 143 
368 85 182 87 
369 129 216 153 
370 147 159 119 
371 45 152 46 
372 168 181 122 
373 120 147 119 
374 95 212 96 
375 131 195 133 
376 172 196 174 
377 94 182 85 
378 17 198 16 
379 171 186 78 
380 43 160 44 
381 115 180 136 
382 46 115 47 
383 82 200 83 
384 125 192 126 
385 174 196 79 
386 116 208 165 
387 135 199 186 
388 76 192 188 
389 112 205 6 
390 14 209 171 
391 167 202 80 
392 44 184 45 
393 89 217 211 
394 12 201 11 
395 32 208 116 
396 128 194 130 
397 10 207 9 
398 84 197 70 
399 89 211 86 
400 163 209 24 
401 180 185 136 
402 117 197 139 
403 159 204 119 
404 145 199 134 
405 176 214 74 
406 91 217 89 
407 142 203 146 
408 142 214 176 
409 171 209 163 
410 190 206 123 
411 83 200 94 
412 175 205 112 
413 41 185 180 
414 127 196 172 
415 123 206 75 
416 42 204 43 
417 23 205 175 
418 190 191 166 
419 119 204 42 
420 102 212 95 
421 140 214 142 
422 168 215 113 
423 16 198 187 
424 200 206 190 
425 143 198 168 
426 132 216 129 
427 186 202 135 
428 186 199 78 
429 181 213 122 
430 111 215 122 
431 122 215 168 
432 94 200 190 
433 82 206 200 
434 189 213 81 
$EndElements
