$MeshFormat
4.1 0 8
$EndMeshFormat
$PhysicalNames
3
1 101 "outer_boundary"
2 1 "material_1"
2 2 "material_2"
$EndPhysicalNames
$Entities
8 8 2 0
1 0 0 0 0 
2 1 0 0 0 
3 0 1 0 0 
4 1 1 0 0 
5 0.7461075556359847 0.6690123982224301 0 0 
6 0.8527261791627491 0.8167689725820322 0 0 
7 0.704969604803147 0.9233875961087965 0 0 
8 0.5983509812763826 0.7756310217491944 0 0 
1 -9.999999994736442e-08 -1e-07 -1e-07 1.0000001 1e-07 1e-07 1 101 2 1 -2 
2 -1e-07 -9.999999994736442e-08 -1e-07 1e-07 1.0000001 1e-07 1 101 2 3 -1 
3 0.9999999000000001 -9.999999994736442e-08 -1e-07 1.0000001 1.0000001 1e-07 1 101 2 2 -4 
4 -9.999999994736442e-08 0.9999999000000001 -1e-07 1.0000001 1.0000001 1e-07 1 101 2 4 -3 
5 0.7461074556359848 0.6690122982224301 -1e-07 0.852726279162749 0.8167690725820321 1e-07 0 2 5 -6 
6 0.704969504803147 0.8167688725820322 -1e-07 0.852726279162749 0.9233876961087965 1e-07 0 2 6 -7 
7 0.5983508812763827 0.7756309217491945 -1e-07 0.7049697048031469 0.9233876961087965 1e-07 0 2 7 -8 
8 0.5983508812763827 0.6690122982224301 -1e-07 0.7461076556359847 0.7756311217491944 1e-07 0 2 8 -5 
2 0.5983508812763827 0.6690122982224301 -1e-07 0.852726279162749 0.9233876961087965 1e-07 1 2 4 5 6 7 8 
3 -9.999999994736442e-08 -9.999999994736442e-08 -1e-07 1.0000001 1.0000001 1e-07 1 1 8 1 3 4 2 -5 -8 -7 -6 
$EndEntities
$Nodes
18 146 1 146
0 1 0 1
1
0 0 0
0 2 0 1
2
1 0 0
0 3 0 1
3
0 1 0
0 4 0 1
4
1 1 0
0 5 0 1
5
0.7461075556359847 0.6690123982224301 0
0 6 0 1
6
0.8527261791627491 0.8167689725820322 0
0 7 0 1
7
0.704969604803147 0.9233875961087965 0
0 8 0 1
8
0.5983509812763826 0.7756310217491944 0
1 1 0 7
9
10
11
12
13
14
15
0.1249999999999999 0 0
0.2499999999999998 0 0
0.3749999999999993 0 0
0.4999999999999988 0 0
0.6249999999999988 0 0
0.7499999999999991 0 0
0.8749999999999997 0 0
1 2 0 7
16
17
18
19
20
21
22
0 0.8750000000000001 0
0 0.7500000000000002 0
0 0.6250000000000007 0
0 0.5000000000000012 0
0 0.3750000000000012 0
0 0.2500000000000009 0
0 0.1250000000000003 0
1 3 0 7
23
24
25
26
27
28
29
1 0.1249999999999999 0
1 0.2499999999999998 0
1 0.3749999999999993 0
1 0.4999999999999988 0
1 0.6249999999999988 0
1 0.7499999999999991 0
1 0.8749999999999997 0
1 4 0 7
30
31
32
33
34
35
36
0.8750000000000001 1 0
0.7500000000000002 1 0
0.6250000000000007 1 0
0.5000000000000012 1 0
0.3750000000000012 1 0
0.2500000000000009 1 0
0.1250000000000003 1 0
1 5 0 2
37
38
0.7816470968115729 0.7182645896756308 0
0.817186637987161 0.7675167811288315 0
1 6 0 2
39
40
0.8034739877095484 0.8523085137576203 0
0.7542217962563477 0.8878480549332084 0
1 7 0 2
41
42
0.6694300636275589 0.8741354046555958 0
0.6338905224519708 0.8248832132023951 0
1 8 0 2
43
44
0.6476031727295833 0.7400914805736063 0
0.696855364182784 0.7045519393980182 0
2 2 0 8
45
46
47
48
49
50
51
52
0.7554152055731428 0.7746415339660624 0
0.6955917751056965 0.8178091008830177 0
0.6985992753224722 0.7588910247575693 0
0.7524544918632287 0.8335258497462751 0
0.7910860435705758 0.8068004344211183 0
0.6599911168685559 0.7855995599101083 0
0.7361390174750708 0.7306525338146034 0
0.7149381429640609 0.8617474605166232 0
2 3 0 94
53
54
55
56
57
58
59
60
61
62
63
64
65
66
67
68
69
70
71
72
73
74
75
76
77
78
79
80
81
82
83
84
85
86
87
88
89
90
91
92
93
94
95
96
97
98
99
100
101
102
103
104
105
106
107
108
109
110
111
112
113
114
115
116
117
118
119
120
121
122
123
124
125
126
127
128
129
130
131
132
133
134
135
136
137
138
139
140
141
142
143
144
145
146
0.6409837155028852 0.6724237123555541 0
0.4210058818886985 0.1200898685660838 0
0.1144592443944492 0.5681256197722405 0
0.686509573110657 0.1038499433759553 0
0.8917468245269456 0.4374999999999991 0
0.3135579748940124 0.89302335005228 0
0.1077561414999256 0.3129752940836689 0
0.8115672054853615 0.6622472537924438 0
0.7737936483783207 0.6056110660137843 0
0.5712244685500835 0.8356887389031672 0
0.5350361520737089 0.766306942045951 0
0.1005634404682048 0.8081638754273219 0
0.1947075678378483 0.1136328615808524 0
0.5004656512903284 0.8460602959154869 0
0.4524699905246602 0.7828327873686496 0
0.4815477153528806 0.7047296317106599 0
0.4058006153855055 0.7161717791441871 0
0.4405596197669813 0.6358669606836846 0
0.3541566195564496 0.64182490710174 0
0.3968611926499518 0.5613659555238275 0
0.4831084655085543 0.5561927705187231 0
0.4411965552673608 0.478993709511249 0
0.5347406157136739 0.4766451333697699 0
0.4882181869373752 0.3939401685623565 0
0.5874001994227072 0.394456213744579 0
0.3413519332541198 0.4841114524507669 0
0.5428830703044245 0.3058973008372765 0
0.4368019126948537 0.3095507910787742 0
0.6318808681749595 0.4748512134590888 0
0.6863140858361165 0.3956701576093393 0
0.3126405323800535 0.7234640435889244 0
0.881777911674685 0.1915793420481479 0
0.8465337253999976 0.5979191324197991 0
0.7360248265522805 0.481605264731339 0
0.2604528286630496 0.65150948565055 0
0.7005713063291612 0.62246430290512 0
0.632641955218169 0.6094013666532692 0
0.5782000293468655 0.6485945726316238 0
0.8641091143056692 0.871990401675144 0
0.8737943521771002 0.7660129830533243 0
0.8899120036019299 0.6592890973077772 0
0.7969464403243769 0.3790996812249867 0
0.7355765374985037 0.3045747027038503 0
0.897760611602171 0.3156031142797278 0
0.2044056624787557 0.7467760379422475 0
0.1076671592061301 0.4373191138429634 0
0.2085590388448317 0.3700024030282085 0
0.2073015632264514 0.2510694739810183 0
0.2112816714041729 0.49282631801933 0
0.3224524780281404 0.3090816207576271 0
0.3107847033520859 0.1896192254030757 0
0.556959800135895 0.108578534938176 0
0.625731312859489 0.2153108558700405 0
0.1000414171773844 0.6927865891665852 0
0.4906712707964365 0.2143594720650026 0
0.4137135867378111 0.8723444034448061 0
0.5921989315060806 0.7152076021708738 0
0.5605336288702694 0.9158278118184302 0
0.1946053980703161 0.8805758714846939 0
0.1002119372517225 0.1906973300986085 0
0.8085689420038171 0.09733679985892796 0
0.799144454659843 0.5330513752337096 0
0.3919690137186304 0.3985724735683345 0
0.6745581660781265 0.5477052658905438 0
0.921564505701598 0.8143963360290574 0
0.2933274468894787 0.5687788438006043 0
0.3625645096045286 0.7992350919193274 0
0.6108075420333343 0.8791752898241276 0
0.634148167866862 0.9185052204813899 0
0.6355810411842482 0.3231818461530171 0
0.8817215746235442 0.5218870887814338 0
0.5780597835322621 0.5628587863922844 0
0.7590427950390284 0.1955152177103593 0
0.8142285698328831 0.9410841160302461 0
0.3102996306157263 0.08466839111000235 0
0.8420705163898935 0.712112539905329 0
0.922585502676623 0.5915829338628219 0
0.2980067556187327 0.4052500600898596 0
0.2775548154855333 0.8086148789974946 0
0.4699425733796823 0.9268465022357446 0
0.200079467880578 0.5828425007428221 0
0.9256481416013269 0.9268441998363632 0
0.8151375778526996 0.2690288201543057 0
0.5127727465891503 0.6285238760452081 0
0.3977072625075314 0.2278342648208211 0
0.09150635094610954 0.9084936490538905 0
0.09150635094610948 0.09150635094610954 0
0.9084936490538904 0.09150635094610948 0
0.7568975198640069 0.9434538354522533 0
0.7393791391783184 0.5525981852348629 0
0.8211168241373981 0.4706286819942936 0
0.5399511149737372 0.6926725249208633 0
0.93024886382133 0.7199499043390134 0
0.1783036089861347 0.6534264736930008 0
$EndNodes
$Elements
6 290 1 290
1 1 1 8
1 1 9 
2 9 10 
3 10 11 
4 11 12 
5 12 13 
6 13 14 
7 14 15 
8 15 2 
1 2 1 8
9 3 16 
10 16 17 
11 17 18 
12 18 19 
13 19 20 
14 20 21 
15 21 22 
16 22 1 
1 3 1 8
17 2 23 
18 23 24 
19 24 25 
20 25 26 
21 26 27 
22 27 28 
23 28 29 
24 29 4 
1 4 1 8
25 4 30 
26 30 31 
27 31 32 
28 32 33 
29 33 34 
30 34 35 
31 35 36 
32 36 3 
2 2 2 26
33 46 47 45 
34 45 48 46 
35 38 45 37 
36 42 46 41 
37 40 48 39 
38 44 47 43 
39 37 51 5 
40 5 51 44 
41 6 49 38 
42 39 49 6 
43 7 52 40 
44 41 52 7 
45 8 50 42 
46 43 50 8 
47 45 51 37 
48 46 52 41 
49 38 49 45 
50 42 50 46 
51 47 51 45 
52 48 52 46 
53 45 49 48 
54 46 50 47 
55 48 49 39 
56 47 50 43 
57 40 52 48 
58 44 51 47 
2 3 2 232
59 53 88 44 
60 32 121 7 
61 65 103 100 
62 44 88 5 
63 97 131 111 
64 97 111 64 
65 39 126 40 
66 54 137 103 
67 94 96 57 
68 105 107 104 
69 79 107 105 
70 103 127 54 
71 78 118 101 
72 63 109 8 
73 65 127 103 
74 89 124 116 
75 101 130 78 
76 94 135 96 
77 53 89 88 
78 105 125 95 
79 108 132 34 
80 95 122 105 
81 58 108 34 
82 116 124 81 
83 100 112 65 
84 63 144 109 
85 57 96 25 
86 90 124 89 
87 104 107 54 
88 90 136 124 
89 95 135 94 
90 31 126 30 
91 98 101 55 
92 64 106 97 
93 91 126 39 
94 26 57 25 
95 80 115 102 
96 91 134 126 
97 19 98 55 
98 33 110 32 
99 7 141 31 
100 110 121 32 
101 12 104 54 
102 99 101 98 
103 17 106 64 
104 59 99 98 
105 84 125 113 
106 84 135 125 
107 56 105 104 
108 24 96 84 
109 19 55 18 
110 25 96 24 
111 12 54 11 
112 100 102 99 
113 117 134 91 
114 77 81 75 
115 82 86 81 
116 55 106 18 
117 59 98 20 
118 26 123 57 
119 105 122 79 
120 102 137 80 
121 81 124 75 
122 56 104 13 
123 99 130 101 
124 20 98 19 
125 59 100 99 
126 13 104 12 
127 118 133 101 
128 35 58 34 
129 21 59 20 
130 18 106 17 
131 100 103 102 
132 14 56 13 
133 54 127 11 
134 56 125 105 
135 17 64 16 
136 10 65 9 
137 24 84 23 
138 107 137 54 
139 86 116 81 
140 53 90 89 
141 59 112 100 
142 72 73 70 
143 26 129 123 
144 67 68 63 
145 27 145 93 
146 77 82 81 
147 36 111 35 
148 22 112 21 
149 15 113 14 
150 68 144 63 
151 74 75 73 
152 10 127 65 
153 35 111 58 
154 76 80 79 
155 72 74 73 
156 21 112 59 
157 103 137 102 
158 76 77 75 
159 43 53 44 
160 14 113 56 
161 82 94 86 
162 80 107 79 
163 6 117 91 
164 120 121 110 
165 69 70 68 
166 74 76 75 
167 76 79 77 
168 93 129 27 
169 34 132 33 
170 70 136 68 
171 29 117 28 
172 5 88 61 
173 71 72 70 
174 101 133 55 
175 72 78 74 
176 89 116 88 
177 57 143 94 
178 136 144 68 
179 8 109 43 
180 27 129 26 
181 55 146 106 
182 3 138 36 
183 16 138 3 
184 1 139 22 
185 9 139 1 
186 2 140 15 
187 23 140 2 
188 115 130 102 
189 76 115 80 
190 69 71 70 
191 67 69 68 
192 58 119 108 
193 124 136 73 
194 82 95 94 
195 53 109 90 
196 83 97 87 
197 74 115 76 
198 83 87 71 
199 79 122 77 
200 87 133 118 
201 78 115 74 
202 43 109 53 
203 11 127 10 
204 72 118 78 
205 69 83 71 
206 66 67 63 
207 75 124 73 
208 111 131 58 
209 71 118 72 
210 96 135 84 
211 62 63 8 
212 133 146 55 
213 126 141 40 
214 87 118 71 
215 5 60 37 
216 28 145 27 
217 5 61 60 
218 77 122 82 
219 102 130 99 
220 42 62 8 
221 113 125 56 
222 82 122 95 
223 41 120 42 
224 126 134 30 
225 128 145 92 
226 29 134 117 
227 67 119 69 
228 106 146 97 
229 37 128 38 
230 61 114 85 
231 73 136 70 
232 85 93 60 
233 66 108 67 
234 6 91 39 
235 7 121 41 
236 114 123 85 
237 38 92 6 
238 78 130 115 
239 36 138 111 
240 22 139 112 
241 15 140 113 
242 62 110 66 
243 62 66 63 
244 86 142 116 
245 94 143 86 
246 61 85 60 
247 92 145 117 
248 64 138 16 
249 58 131 119 
250 65 139 9 
251 4 134 29 
252 30 134 4 
253 69 119 83 
254 88 142 61 
255 84 140 23 
256 116 142 88 
257 108 119 67 
258 93 145 128 
259 83 131 97 
260 111 138 64 
261 112 139 65 
262 113 140 84 
263 80 137 107 
264 40 141 7 
265 114 143 123 
266 86 143 114 
267 93 128 60 
268 125 135 95 
269 60 128 37 
270 42 120 62 
271 90 144 136 
272 117 145 28 
273 62 120 110 
274 61 142 114 
275 92 117 6 
276 33 132 110 
277 97 146 87 
278 123 129 85 
279 41 121 120 
280 119 131 83 
281 31 141 126 
282 123 143 57 
283 85 129 93 
284 38 128 92 
285 114 142 86 
286 66 132 108 
287 110 132 66 
288 109 144 90 
289 87 146 133 
290 31 32 7 
$EndElements
