$MeshFormat
4.1 0 8
$EndMeshFormat
$PhysicalNames
3
1 101 "outer_boundary"
2 1 "material_1"
2 2 "material_2"
$EndPhysicalNames
$Entities
8 8 2 0
1 0 0 0 0 
2 1 0 0 0 
3 0 1 0 0 
4 1 1 0 0 
5 0.8304437609152209 0.5150283566317829 0 0 
6 0.8659379216509133 0.707120297752697 0 0 
7 0.6738459805299992 0.7426144584883895 0 0 
8 0.6383518197943068 0.5505225173674754 0 0 
1 -9.999999994736442e-08 -1e-07 -1e-07 1.0000001 1e-07 1e-07 1 101 2 1 -2 
2 -1e-07 -9.999999994736442e-08 -1e-07 1e-07 1.0000001 1e-07 1 101 2 3 -1 
3 0.9999999000000001 -9.999999994736442e-08 -1e-07 1.0000001 1.0000001 1e-07 1 101 2 2 -4 
4 -9.999999994736442e-08 0.9999999000000001 -1e-07 1.0000001 1.0000001 1e-07 1 101 2 4 -3 
5 0.8304436609152209 0.515028256631783 -1e-07 0.8659380216509133 0.707120397752697 1e-07 0 2 5 -6 
6 0.6738458805299993 0.7071201977526971 -1e-07 0.8659380216509133 0.7426145584883894 1e-07 0 2 6 -7 
7 0.6383517197943068 0.5505224173674754 -1e-07 0.6738460805299992 0.7426145584883894 1e-07 0 2 7 -8 
8 0.6383517197943068 0.515028256631783 -1e-07 0.8304438609152208 0.5505226173674753 1e-07 0 2 8 -5 
2 0.6383517197943068 0.515028256631783 -1e-07 0.8659380216509133 0.7426145584883894 1e-07 1 2 4 5 6 7 8 
3 -9.999999994736442e-08 -9.999999994736442e-08 -1e-07 1.0000001 1.0000001 1e-07 1 1 8 1 3 4 2 -5 -8 -7 -6 
$EndEntities
$Nodes
18 334 1 334
0 1 0 1
1
0 0 0
0 2 0 1
2
1 0 0
0 3 0 1
3
0 1 0
0 4 0 1
4
1 1 0
0 5 0 1
5
0.8304437609152209 0.5150283566317829 0
0 6 0 1
6
0.8659379216509133 0.707120297752697 0
0 7 0 1
7
0.6738459805299992 0.7426144584883895 0
0 8 0 1
8
0.6383518197943068 0.5505225173674754 0
1 1 0 11
9
10
11
12
13
14
15
16
17
18
19
0.08333333333333318 0 0
0.1666666666666664 0 0
0.2499999999999997 0 0
0.333333333333333 0 0
0.4166666666666664 0 0
0.4999999999999998 0 0
0.5833333333333331 0 0
0.6666666666666665 0 0
0.7499999999999999 0 0
0.8333333333333331 0 0
0.9166666666666666 0 0
1 2 0 11
20
21
22
23
24
25
26
27
28
29
30
0 0.9166666666666669 0
0 0.8333333333333337 0
0 0.7500000000000003 0
0 0.666666666666667 0
0 0.5833333333333337 0
0 0.5000000000000002 0
0 0.4166666666666669 0
0 0.3333333333333335 0
0 0.2500000000000001 0
0 0.1666666666666669 0
0 0.08333333333333337 0
1 3 0 11
31
32
33
34
35
36
37
38
39
40
41
1 0.08333333333333318 0
1 0.1666666666666664 0
1 0.2499999999999997 0
1 0.333333333333333 0
1 0.4166666666666664 0
1 0.4999999999999998 0
1 0.5833333333333331 0
1 0.6666666666666665 0
1 0.7499999999999999 0
1 0.8333333333333331 0
1 0.9166666666666666 0
1 4 0 11
42
43
44
45
46
47
48
49
50
51
52
0.9166666666666669 1 0
0.8333333333333337 1 0
0.7500000000000003 1 0
0.666666666666667 1 0
0.5833333333333337 1 0
0.5000000000000002 1 0
0.4166666666666669 1 0
0.3333333333333335 1 0
0.2500000000000001 1 0
0.1666666666666669 1 0
0.08333333333333337 1 0
1 5 0 4
53
54
55
56
0.8375425930623593 0.5534467448559658 0
0.8446414252094979 0.5918651330801487 0
0.8517402573566364 0.6302835213043314 0
0.8588390895037749 0.6687019095285143 0
1 6 0 4
57
58
59
60
0.8275195334267305 0.7142191298998355 0
0.7891011452025476 0.7213179620469741 0
0.7506827569783648 0.7284167941941125 0
0.712264368754182 0.735515626341251 0
1 7 0 4
61
62
63
64
0.6667471483828608 0.7041960702642066 0
0.6596483162357222 0.6657776820400237 0
0.6525494840885837 0.627359293815841 0
0.6454506519414452 0.5889409055916581 0
1 8 0 4
65
66
67
68
0.6767702080184896 0.5434236852203369 0
0.7151885962426725 0.5363248530731983 0
0.7536069844668553 0.5292260209260599 0
0.7920253726910381 0.5221271887789214 0
2 2 0 24
69
70
71
72
73
74
75
76
77
78
79
80
81
82
83
84
85
86
87
88
89
90
91
92
0.814919541108472 0.6172220961688636 0
0.6814590143447187 0.6402829934156297 0
0.7619039766065205 0.6938229805064899 0
0.7383175212956959 0.5643825450692797 0
0.8227279758925951 0.6553410151330814 0
0.788584993630588 0.6426585934121516 0
0.7816725366019304 0.6028826466850428 0
0.7483769407592815 0.6295176341221107 0
0.6856715845298603 0.6044004713526147 0
0.8085255843642899 0.5787669159094014 0
0.7254833029904292 0.6994252342297416 0
0.696157689039049 0.6757400618589618 0
0.7984802455698284 0.6821899356683798 0
0.7028251635278806 0.5707173540532421 0
0.7765693354966702 0.5611840203579467 0
0.7361036152669019 0.665233753828077 0
0.724406322947222 0.5981705129076228 0
0.7162924060820599 0.6307954086623351 0
0.8326170037197971 0.684192791433798 0
0.6967734868488983 0.7092935405572731 0
0.6716727377254231 0.5734500236863744 0
0.8075162545963218 0.5483492745628993 0
0.7669070905100202 0.6637770772463283 0
0.7534540358745021 0.5908855378436599 0
2 3 0 242
93
94
95
96
97
98
99
100
101
102
103
104
105
106
107
108
109
110
111
112
113
114
115
116
117
118
119
120
121
122
123
124
125
126
127
128
129
130
131
132
133
134
135
136
137
138
139
140
141
142
143
144
145
146
147
148
149
150
151
152
153
154
155
156
157
158
159
160
161
162
163
164
165
166
167
168
169
170
171
172
173
174
175
176
177
178
179
180
181
182
183
184
185
186
187
188
189
190
191
192
193
194
195
196
197
198
199
200
201
202
203
204
205
206
207
208
209
210
211
212
213
214
215
216
217
218
219
220
221
222
223
224
225
226
227
228
229
230
231
232
233
234
235
236
237
238
239
240
241
242
243
244
245
246
247
248
249
250
251
252
253
254
255
256
257
258
259
260
261
262
263
264
265
266
267
268
269
270
271
272
273
274
275
276
277
278
279
280
281
282
283
284
285
286
287
288
289
290
291
292
293
294
295
296
297
298
299
300
301
302
303
304
305
306
307
308
309
310
311
312
313
314
315
316
317
318
319
320
321
322
323
324
325
326
327
328
329
330
331
332
333
334
0.616963513109031 0.6181596699042065 0
0.636488540474573 0.7289933660983479 0
0.6517459795049041 0.512603882242695 0
0.6105443200181956 0.5199775328693056 0
0.7677965908238475 0.4877264896764493 0
0.6251266755505477 0.4798694524867602 0
0.5808030794502222 0.4876406425914297 0
0.07850388828256377 0.6335756260067752 0
0.07108196374916659 0.371561326578331 0
0.5966673228830629 0.4439578591189977 0
0.5501670524222422 0.4529324855782149 0
0.5339059331577466 0.4987674563372702 0
0.5005959059808945 0.4622866393235592 0
0.4840493581818175 0.5129381251849889 0
0.5636019829233849 0.4072657953380125 0
0.6149392970435307 0.3968348011531556 0
0.4479600096591244 0.4737338380285317 0
0.4309623207554288 0.5265513684593719 0
0.3741430497735749 0.07305133729829483 0
0.3722939684982155 0.9211984346061238 0
0.5840161902154404 0.355137300129203 0
0.6381047388633596 0.3449751592659868 0
0.3944520833698751 0.4843912883524558 0
0.4200173380293568 0.4339675074546683 0
0.3752553443820148 0.538853539453523 0
0.4151885010925098 0.5821832339712574 0
0.3570807969103069 0.5954628159887578 0
0.9283042425496322 0.2126753151598679 0
0.4009062606502899 0.6396670340075657 0
0.3388091870229223 0.6553577278698653 0
0.8161447103419872 0.7557824159168416 0
0.6036110664371246 0.2995031120287328 0
0.5414099312938447 0.3115615767248024 0
0.3365170778298693 0.488389547417753 0
0.1956576787185209 0.9337724101823749 0
0.6637971171600823 0.2907727117379309 0
0.06975287906470679 0.2096145947132373 0
0.7380532425685506 0.7595149856161789 0
0.6462874008657848 0.7700916016068077 0
0.5998534053768582 0.7538949304724747 0
0.5644211953395351 0.2507439427077193 0
0.4998055523406912 0.2627894463692395 0
0.7004687029952388 0.3419592201788107 0
0.2949382899398285 0.6083821074074141 0
0.2749186299729985 0.6716583160998237 0
0.3902169905935519 0.7014276744350959 0
0.9283936790342919 0.3712332125298179 0
0.7267436112225361 0.2822115878697184 0
0.6089360038797301 0.803609975707643 0
0.5597171614182639 0.7867097271736663 0
0.5516165408937117 0.7329553147583814 0
0.6603545784339306 0.8177252422558093 0
0.6890175798927756 0.2303127230362184 0
0.5200907211560382 0.5482865274338591 0
0.07862956817883909 0.8036157250726215 0
0.6670484814022509 0.4724340121109968 0
0.5230751274803518 0.1993440681870495 0
0.2161160525418538 0.07434619208629833 0
0.789370376919723 0.9275327016356749 0
0.7890598176662071 0.07624903805104938 0
0.5063558986372083 0.7665735031473929 0
0.7639967000998757 0.3333297458022452 0
0.5155716240973037 0.8253831126864244 0
0.4563323168818391 0.8030933142189144 0
0.456131194121751 0.2111113751868711 0
0.4337602179593443 0.2762933265430079 0
0.3889741520747757 0.2276117147125511 0
0.3660761504560654 0.2912985146880759 0
0.3200020063086854 0.2415454056054444 0
0.2965653626176755 0.306588423156393 0
0.2516044214965691 0.2532754007310395 0
0.752957611965236 0.2219533971957202 0
0.6310404118776054 0.06597485913908496 0
0.8747324986687874 0.5273577667519567 0
0.8642659535086773 0.4852250937826132 0
0.2296365765436226 0.3224667672239857 0
0.2289824888751145 0.621675021502524 0
0.2078089669267372 0.6879920868510692 0
0.2563438392716382 0.739393532483847 0
0.458356058086356 0.6209735611786547 0
0.6205405575628219 0.8556224083161131 0
0.6745464341517284 0.8738004145918639 0
0.7390073842981586 0.3906311439632467 0
0.7974165228357211 0.3826735006504142 0
0.8261476633855751 0.3248551015969388 0
0.2748741256341143 0.3751636563087316 0
0.1996768845264489 0.3862653494378104 0
0.8869905117154681 0.6059382096517092 0
0.9353237152334208 0.8785733973223691 0
0.2516622976540195 0.5606875362929002 0
0.4821291042427683 0.1443072779461656 0
0.183984533866153 0.5709584344981005 0
0.5885848829028085 0.1896147752258457 0
0.714422578063173 0.167087374208521 0
0.5016476594200067 0.7092802817489843 0
0.5469546570390765 0.6801685657885841 0
0.9015618777773404 0.6767038734688273 0
0.5943262368137431 0.5630030987961813 0
0.279906604244455 0.1832990337875131 0
0.1994333381625137 0.1978718664636908 0
0.1884045644610955 0.7554147505186475 0
0.2372796438004502 0.8072455050461049 0
0.3072241299828549 0.7901937026088673 0
0.9082773696966916 0.723560306945947 0
0.2100342730193286 0.5081038274272606 0
0.1342195685674793 0.5170113627385605 0
0.4671049643998574 0.8680230174130433 0
0.5253522023625439 0.8913907596026012 0
0.8146721694437726 0.4737810443253992 0
0.8576348551182718 0.4378318512212158 0
0.901664313841755 0.455259110516376 0
0.2902390425969548 0.8624523842088034 0
0.1628794135639343 0.8161183844352313 0
0.7141047658739864 0.8327742171554577 0
0.862717520945495 0.74457205346444 0
0.8443654454446706 0.7924614383007685 0
0.9031972631695122 0.7758274872657599 0
0.7919319296307203 0.7954751922295252 0
0.822063810357113 0.8321847681227406 0
0.4110159049800804 0.337363546698497 0
0.1368827960493176 0.7002206926453386 0
0.4032116871213144 0.8434978093817892 0
0.7778761199977262 0.4358008214713756 0
0.7346339840312117 0.4515792045438934 0
0.6919430257308767 0.4260225972594669 0
0.6263994834288974 0.9266151211901038 0
0.1489031684444633 0.3278758890352705 0
0.9336010580628513 0.2912182669129538 0
0.8615347341557467 0.2611663135371762 0
0.857072571309776 0.182047487843 0
0.9190930699290899 0.1304739206470293 0
0.5922139923471378 0.7067261921749911 0
0.3817484152054764 0.7766875148378625 0
0.2523698330770041 0.4433993821561659 0
0.4764421248840026 0.3246712175607017 0
0.708908670261215 0.06328946272251601 0
0.9318099614426913 0.5331358392629139 0
0.3431118792373819 0.3533536059297362 0
0.3225949054665369 0.4220562992878382 0
0.5877719187545123 0.6533345857941613 0
0.5453512007711872 0.6294607425839372 0
0.7291431994157227 0.8913515843583699 0
0.07219955630659708 0.2913987525259563 0
0.1364944291033201 0.24437114259225 0
0.2985580515504818 0.06874919268916185 0
0.07997823276729704 0.4564898352588171 0
0.5433032562075782 0.07122389823670483 0
0.8744595877543301 0.9252824994734203 0
0.8598928599162251 0.3791427978022748 0
0.1172315413434155 0.9357394024859409 0
0.4545093022022095 0.07318116354527093 0
0.07982086323184301 0.1249061445065467 0
0.1677600513364111 0.4506590359884354 0
0.7864964957168636 0.1577667870720628 0
0.4697742157952315 0.5645828722589974 0
0.4569935109907097 0.3860191562959235 0
0.5234540310350295 0.3674212665762745 0
0.5024858475293081 0.6531178138951358 0
0.4507289072687553 0.6775453735434693 0
0.4478383646678062 0.7391012769886198 0
0.6898316331539576 0.5066029689721724 0
0.8714379230435935 0.06567140484088635 0
0.4070619418971896 0.1533393865977271 0
0.3349891617963701 0.1372256220693375 0
0.7282500213781403 0.4995041368250339 0
0.0639638736958229 0.8831842735163702 0
0.1610905353357967 0.6352033681359152 0
0.3175148553568852 0.5516090354315047 0
0.1290255213250771 0.06291744167824648 0
0.6994647961819638 0.7779536099362484 0
0.7760397200670797 0.7581386782951384 0
0.9338988623450455 0.6352777343626783 0
0.06717814841806857 0.5503107004481692 0
0.3201198807995853 0.7188380128302979 0
0.6265966938950422 0.2408304494693552 0
0.790472169210899 0.274390345734682 0
0.5087028295635753 0.5998038117186314 0
0.5534071945422097 0.5808883585914869 0
0.8819999398532041 0.5650618634495395 0
0.6427554017539381 0.4342564473096878 0
0.8795489926794346 0.8455594336885792 0
0.2836070462105619 0.9340232344633941 0
0.8880521091042934 0.6433543444050775 0
0.7731795038881325 0.8500533765136777 0
0.5655129141896926 0.5330939361032555 0
0.6296415957584942 0.6889019917743995 0
0.6893530134808489 0.9331103516067702 0
0.4583333333333335 0.9402973381254914 0
0.07008797456571964 0.7195959130721367 0
0.549339238984232 0.1445117363714327 0
0.6293149655892687 0.6507066446657264 0
0.9438960242972888 0.6923296238838702 0
0.9049838120555628 0.4969334036646169 0
0.1305426975550152 0.1788023655576571 0
0.6519001170408861 0.1790251717086668 0
0.5711410814765561 0.8368362844784718 0
0.2776670938370362 0.502889085836465 0
0.5103539518510691 0.4177738980423014 0
0.1249953348940123 0.5814118983655041 0
0.5711450954486027 0.9386836157448711 0
0.2251734039609937 0.1358074269038123 0
0.8097067164717042 0.2194648662765282 0
0.6134121366113008 0.1318295177323856 0
0.6750885571569398 0.1210375192218384 0
0.8822574416800123 0.3256460479109542 0
0.9375245431229728 0.06440991993892553 0
0.6608076079133599 0.3864199617287498 0
0.9505566033835242 0.4737951564598363 0
0.4671841433022309 0.4347562078289968 0
0.5855590678118807 0.6048031434533475 0
0.9432125904543114 0.7489872558150288 0
0.3477254038051459 0.8388795586467322 0
0.9269398550712818 0.5845493960120348 0
0.8370100973378332 0.1205611035913146 0
0.9389957660359266 0.9389957660359267 0
0.131447166244527 0.3948294400882862 0
0.213694840289182 0.8665187680264081 0
0.06100423396407306 0.9389957660359269 0
0.1273768633637812 0.7589930931487952 0
0.06100423396407306 0.06100423396407306 0
0.3866937171094494 0.3961759432083019 0
0.7520764234244126 0.8031674866609771 0
0.7405531992558316 0.1163583117447277 0
0.9373978183708446 0.4254813441174197 0
0.8174248657453588 0.4220436268151214 0
0.3692993049773179 0.4446529790734822 0
0.7039375617999378 0.475435033426051 0
0.8290272544423922 0.8809231739573486 0
0.9440047445776016 0.8100320297986006 0
0.1652425910954427 0.1232993516316838 0
0.8969967052562777 0.4137896632374208 0
0.5829156840558845 0.8898296378664322 0
0.7409901854491154 0.9397802423970159 0
0.4236672552722941 0.8940141749790005 0
0.5276327928955629 0.9540743426945928 0
0.1950622904153229 0.2709486407714177 0
0.6161302578940814 0.5850858670225738 0
0.3464845801358323 0.1907471753926888 0
0.2974635128476113 0.4644583237084554 0
0.6991419247134669 0.3840499602324298 0
0.277631828627822 0.123950019419363 0
0.1299786686654446 0.8713803756576498 0
$EndNodes
$Elements
6 666 1 666
1 1 1 12
1 1 9 
2 9 10 
3 10 11 
4 11 12 
5 12 13 
6 13 14 
7 14 15 
8 15 16 
9 16 17 
10 17 18 
11 18 19 
12 19 2 
1 2 1 12
13 3 20 
14 20 21 
15 21 22 
16 22 23 
17 23 24 
18 24 25 
19 25 26 
20 26 27 
21 27 28 
22 28 29 
23 29 30 
24 30 1 
1 3 1 12
25 2 31 
26 31 32 
27 32 33 
28 33 34 
29 34 35 
30 35 36 
31 36 37 
32 37 38 
33 38 39 
34 39 40 
35 40 41 
36 41 4 
1 4 1 12
37 4 42 
38 42 43 
39 43 44 
40 44 45 
41 45 46 
42 46 47 
43 47 48 
44 48 49 
45 49 50 
46 50 51 
47 51 52 
48 52 3 
2 2 2 66
49 80 86 84 
50 70 86 80 
51 75 83 78 
52 73 81 74 
53 85 86 77 
54 80 84 79 
55 82 85 77 
56 81 91 74 
57 75 92 83 
58 77 86 70 
59 59 71 58 
60 67 72 66 
61 73 74 69 
62 55 69 54 
63 59 79 71 
64 63 70 62 
65 75 78 69 
66 74 76 75 
67 69 78 54 
68 56 73 55 
69 60 79 59 
70 64 77 63 
71 54 78 53 
72 74 75 69 
73 55 73 69 
74 63 77 70 
75 68 83 67 
76 58 81 57 
77 62 80 61 
78 66 82 65 
79 70 80 62 
80 67 83 72 
81 71 81 58 
82 72 82 66 
83 79 84 71 
84 6 87 56 
85 53 90 5 
86 57 87 6 
87 61 88 7 
88 65 89 8 
89 8 89 64 
90 5 90 68 
91 7 88 60 
92 84 86 76 
93 72 85 82 
94 76 92 75 
95 74 91 76 
96 71 91 81 
97 83 92 72 
98 85 92 76 
99 76 91 84 
100 68 90 83 
101 82 89 65 
102 81 87 57 
103 80 88 61 
104 78 90 53 
105 56 87 73 
106 60 88 79 
107 64 89 77 
108 83 90 78 
109 73 87 81 
110 77 89 82 
111 79 88 80 
112 76 86 85 
113 84 91 71 
114 72 92 85 
2 3 2 552
115 195 266 225 
116 207 209 208 
117 204 304 112 
118 215 216 175 
119 234 276 151 
120 189 275 264 
121 276 320 151 
122 97 201 68 
123 229 271 166 
124 211 320 276 
125 225 266 138 
126 243 255 111 
127 112 274 204 
128 209 273 208 
129 100 259 213 
130 176 215 175 
131 274 309 204 
132 68 201 5 
133 216 217 175 
134 197 245 226 
135 183 243 239 
136 57 207 123 
137 144 262 206 
138 127 309 274 
139 226 245 179 
140 6 207 57 
141 131 262 144 
142 46 218 45 
143 232 283 278 
144 183 255 243 
145 130 314 262 
146 213 281 100 
147 190 329 302 
148 101 235 219 
149 113 249 125 
150 239 282 183 
151 251 252 138 
152 112 304 214 
153 107 249 113 
154 262 314 206 
155 205 334 147 
156 240 320 273 
157 198 265 238 
158 166 285 229 
159 138 252 225 
160 264 284 189 
161 232 278 224 
162 7 262 131 
163 127 334 309 
164 220 221 120 
165 132 224 94 
166 147 311 205 
167 235 236 219 
168 255 256 111 
169 97 215 201 
170 225 304 195 
171 46 292 218 
172 190 302 270 
173 238 265 25 
174 238 245 198 
175 121 251 138 
176 217 319 148 
177 32 223 31 
178 240 273 181 
179 33 220 120 
180 229 305 271 
181 226 289 197 
182 264 275 180 
183 125 249 227 
184 270 277 190 
185 303 321 209 
186 214 326 112 
187 242 334 127 
188 143 224 132 
189 146 247 106 
190 146 277 270 
191 177 268 221 
192 239 243 14 
193 148 272 217 
194 200 280 199 
195 279 325 44 
196 106 247 110 
197 35 139 34 
198 239 295 282 
199 139 220 34 
200 188 224 143 
201 172 251 121 
202 165 295 239 
203 44 151 43 
204 249 290 248 
205 172 269 250 
206 212 230 160 
207 39 321 303 
208 154 175 135 
209 290 301 248 
210 152 228 17 
211 238 308 245 
212 216 319 217 
213 207 208 123 
214 218 279 45 
215 129 236 235 
216 178 231 226 
217 125 227 134 
218 209 321 273 
219 264 305 37 
220 37 305 229 
221 129 286 236 
222 236 286 192 
223 45 279 44 
224 187 188 143 
225 120 223 32 
226 176 317 215 
227 151 240 43 
228 221 297 177 
229 158 227 212 
230 230 231 178 
231 134 227 158 
232 162 230 178 
233 147 334 258 
234 200 327 280 
235 154 176 175 
236 188 232 224 
237 165 239 15 
238 51 242 127 
239 160 230 162 
240 16 228 165 
241 158 212 160 
242 101 238 26 
243 39 303 284 
244 100 291 259 
245 221 222 120 
246 129 235 28 
247 313 318 231 
248 230 313 231 
249 110 247 118 
250 224 278 94 
251 11 237 150 
252 33 120 32 
253 27 101 26 
254 24 100 23 
255 250 269 233 
256 16 165 15 
257 34 220 33 
258 18 152 17 
259 41 181 40 
260 13 111 12 
261 49 112 48 
262 27 235 101 
263 162 178 168 
264 51 127 50 
265 219 308 101 
266 111 237 12 
267 118 172 121 
268 178 226 179 
269 15 239 14 
270 17 228 16 
271 26 238 25 
272 227 248 212 
273 244 322 286 
274 97 216 215 
275 52 242 51 
276 111 256 237 
277 2 298 19 
278 104 146 106 
279 22 147 21 
280 116 313 248 
281 171 195 194 
282 214 304 225 
283 261 322 244 
284 112 280 48 
285 180 305 264 
286 13 243 111 
287 29 244 129 
288 101 308 238 
289 28 235 27 
290 14 243 13 
291 12 237 11 
292 144 206 174 
293 178 179 168 
294 11 150 10 
295 29 129 28 
296 118 247 172 
297 30 244 29 
298 100 281 23 
299 134 158 157 
300 49 274 112 
301 43 240 42 
302 237 333 150 
303 128 135 114 
304 31 298 2 
305 127 274 50 
306 40 321 39 
307 247 269 172 
308 104 277 146 
309 171 266 195 
310 158 160 159 
311 197 289 182 
312 110 118 117 
313 202 317 241 
314 39 284 38 
315 19 254 18 
316 37 229 36 
317 272 299 217 
318 169 182 136 
319 214 225 156 
320 227 249 248 
321 21 258 20 
322 223 298 31 
323 187 250 188 
324 18 254 152 
325 160 162 161 
326 22 281 147 
327 162 168 163 
328 25 265 24 
329 140 154 135 
330 222 223 120 
331 10 261 9 
332 195 204 194 
333 208 210 123 
334 220 297 221 
335 158 159 157 
336 248 313 212 
337 93 283 232 
338 184 197 182 
339 171 194 193 
340 225 252 156 
341 150 333 293 
342 188 233 232 
343 153 252 187 
344 198 245 197 
345 222 306 223 
346 182 260 136 
347 137 171 170 
348 63 93 64 
349 160 161 159 
350 147 258 21 
351 118 121 119 
352 179 219 168 
353 250 251 172 
354 142 143 132 
355 156 252 153 
356 162 163 161 
357 153 187 143 
358 281 311 147 
359 8 95 65 
360 118 119 117 
361 163 191 161 
362 128 140 135 
363 99 104 103 
364 190 277 96 
365 138 266 122 
366 194 205 193 
367 134 157 149 
368 135 299 114 
369 169 184 182 
370 171 193 170 
371 193 213 170 
372 104 106 105 
373 163 192 191 
374 232 302 93 
375 146 269 247 
376 187 251 250 
377 150 261 10 
378 137 169 136 
379 106 110 109 
380 184 198 197 
381 122 136 119 
382 65 253 66 
383 110 117 115 
384 125 134 133 
385 115 116 109 
386 149 185 133 
387 121 138 122 
388 96 277 99 
389 24 265 100 
390 113 125 124 
391 137 170 169 
392 8 190 96 
393 223 306 254 
394 122 266 137 
395 177 241 176 
396 231 318 126 
397 241 317 176 
398 146 270 269 
399 155 200 199 
400 157 183 149 
401 145 186 164 
402 159 255 157 
403 47 327 46 
404 186 246 164 
405 110 115 109 
406 106 109 105 
407 139 297 220 
408 117 126 115 
409 155 288 200 
410 145 164 140 
411 35 316 139 
412 269 270 233 
413 7 94 61 
414 134 149 133 
415 46 327 292 
416 206 234 174 
417 66 257 67 
418 122 137 136 
419 104 105 103 
420 8 96 95 
421 121 122 119 
422 175 332 135 
423 4 307 41 
424 42 307 4 
425 98 148 95 
426 154 177 176 
427 61 278 62 
428 213 311 281 
429 199 214 156 
430 157 255 183 
431 128 145 140 
432 107 108 102 
433 20 310 3 
434 3 310 52 
435 67 97 68 
436 97 257 216 
437 124 128 114 
438 57 123 58 
439 137 266 171 
440 58 263 59 
441 246 315 152 
442 263 314 130 
443 113 124 114 
444 213 259 170 
445 9 312 1 
446 1 312 30 
447 125 133 124 
448 59 130 60 
449 99 103 102 
450 103 107 102 
451 309 334 205 
452 169 259 184 
453 188 250 233 
454 170 259 169 
455 38 264 37 
456 152 306 246 
457 96 99 98 
458 113 114 108 
459 107 290 249 
460 136 260 119 
461 107 113 108 
462 119 260 117 
463 44 325 151 
464 142 153 143 
465 96 98 95 
466 99 102 98 
467 140 268 154 
468 95 253 65 
469 5 201 167 
470 187 252 251 
471 50 274 49 
472 117 260 126 
473 236 328 219 
474 206 276 234 
475 112 326 280 
476 155 199 156 
477 60 262 7 
478 23 281 22 
479 108 299 272 
480 185 267 133 
481 48 280 47 
482 126 331 231 
483 62 283 63 
484 164 268 140 
485 231 331 226 
486 99 277 104 
487 302 329 93 
488 63 283 93 
489 155 156 153 
490 267 287 145 
491 192 328 236 
492 152 315 228 
493 128 267 145 
494 185 287 267 
495 131 144 141 
496 253 257 66 
497 248 301 116 
498 241 297 139 
499 212 313 230 
500 210 263 123 
501 124 267 128 
502 245 308 179 
503 154 268 177 
504 244 286 129 
505 142 155 153 
506 183 282 149 
507 133 267 124 
508 148 253 95 
509 144 174 173 
510 64 329 8 
511 151 320 240 
512 7 131 94 
513 286 322 192 
514 94 278 61 
515 273 320 211 
516 204 309 194 
517 5 166 53 
518 149 282 185 
519 135 332 299 
520 196 207 6 
521 36 300 35 
522 228 296 165 
523 268 294 221 
524 219 328 168 
525 53 271 54 
526 179 308 219 
527 215 317 201 
528 208 211 210 
529 256 330 191 
530 108 272 102 
531 278 283 62 
532 222 294 246 
533 67 257 97 
534 191 330 161 
535 255 330 256 
536 54 180 55 
537 116 301 109 
538 163 328 192 
539 141 142 132 
540 181 321 40 
541 174 218 173 
542 246 294 164 
543 184 291 198 
544 198 291 265 
545 192 322 293 
546 233 302 232 
547 55 275 56 
548 131 132 94 
549 98 272 148 
550 205 311 193 
551 226 331 289 
552 144 173 141 
553 5 167 166 
554 102 272 98 
555 123 263 58 
556 56 189 6 
557 131 141 132 
558 202 203 167 
559 8 329 190 
560 59 263 130 
561 38 284 264 
562 208 273 211 
563 103 290 107 
564 285 300 229 
565 211 276 210 
566 221 294 222 
567 126 318 115 
568 201 202 167 
569 240 307 42 
570 145 287 186 
571 159 330 255 
572 210 314 263 
573 19 298 254 
574 130 262 60 
575 182 289 260 
576 234 279 174 
577 181 307 240 
578 41 307 181 
579 229 300 36 
580 258 310 20 
581 105 290 103 
582 261 312 9 
583 142 288 155 
584 174 279 218 
585 201 317 202 
586 52 310 242 
587 217 332 175 
588 273 321 181 
589 189 196 6 
590 192 293 191 
591 116 318 313 
592 270 302 233 
593 151 325 234 
594 196 209 207 
595 30 312 244 
596 260 289 126 
597 195 304 204 
598 241 323 202 
599 256 333 237 
600 265 291 100 
601 254 306 152 
602 139 323 241 
603 242 310 258 
604 300 316 35 
605 282 295 185 
606 254 298 223 
607 246 306 222 
608 259 291 184 
609 141 288 142 
610 109 301 105 
611 167 285 166 
612 194 309 205 
613 288 324 200 
614 173 288 141 
615 105 301 290 
616 114 299 108 
617 177 297 241 
618 166 271 53 
619 244 312 261 
620 203 285 167 
621 191 333 256 
622 54 271 180 
623 193 311 213 
624 280 326 199 
625 218 324 173 
626 180 275 55 
627 164 294 268 
628 168 328 163 
629 189 284 196 
630 296 315 186 
631 56 275 189 
632 186 315 246 
633 115 318 116 
634 258 334 242 
635 206 314 276 
636 150 322 261 
637 161 330 159 
638 93 329 64 
639 185 295 287 
640 276 314 210 
641 199 326 214 
642 165 296 295 
643 228 315 296 
644 287 296 186 
645 292 324 218 
646 203 300 285 
647 253 319 257 
648 295 296 287 
649 148 319 253 
650 257 319 216 
651 271 305 180 
652 280 327 47 
653 196 303 209 
654 234 325 279 
655 202 323 203 
656 292 327 200 
657 200 324 292 
658 284 303 196 
659 289 331 126 
660 293 322 150 
661 173 324 288 
662 293 333 191 
663 299 332 217 
664 316 323 139 
665 203 316 300 
666 203 323 316 
$EndElements
