$MeshFormat
4.1 0 8
$EndMeshFormat
$PhysicalNames
3
1 101 "outer_boundary"
2 1 "material_1"
2 2 "material_2"
$EndPhysicalNames
$Entities
5 5 2 0
1 0 0 0 0 
2 1 0 0 0 
3 0 1 0 0 
4 1 1 0 0 
5 0.5134911007046186 0.5906001320539916 0 0 
1 -9.999999994736442e-08 -1e-07 -1e-07 1.0000001 1e-07 1e-07 1 101 2 1 -2 
2 -1e-07 -9.999999994736442e-08 -1e-07 1e-07 1.0000001 1e-07 1 101 2 3 -1 
3 0.9999999000000001 -9.999999994736442e-08 -1e-07 1.0000001 1.0000001 1e-07 1 101 2 2 -4 
4 -9.999999994736442e-08 0.9999999000000001 -1e-07 1.0000001 1.0000001 1e-07 1 101 2 4 -3 
5 0.1579307247719491 0.412819894087657 -1e-07 0.5134912007046185 0.7683803700203263 1e-07 0 2 5 -5 
2 0.1579307247719491 0.412819894087657 -1e-07 0.5134912007046185 0.7683803700203263 1e-07 1 2 1 5 
3 -9.999999994736442e-08 -9.999999994736442e-08 -1e-07 1.0000001 1.0000001 1e-07 1 1 5 1 3 4 2 -5 
$EndEntities
$Nodes
12 340 1 340
0 1 0 1
1
0 0 0
0 2 0 1
2
1 0 0
0 3 0 1
3
0 1 0
0 4 0 1
4
1 1 0
0 5 0 1
5
0.5134911007046186 0.5906001320539916 0
1 1 0 11
6
7
8
9
10
11
12
13
14
15
16
0.08333333333333318 0 0
0.1666666666666664 0 0
0.2499999999999997 0 0
0.333333333333333 0 0
0.4166666666666664 0 0
0.4999999999999998 0 0
0.5833333333333331 0 0
0.6666666666666665 0 0
0.7499999999999999 0 0
0.8333333333333331 0 0
0.9166666666666666 0 0
1 2 0 11
17
18
19
20
21
22
23
24
25
26
27
0 0.9166666666666669 0
0 0.8333333333333337 0
0 0.7500000000000003 0
0 0.666666666666667 0
0 0.5833333333333337 0
0 0.5000000000000002 0
0 0.4166666666666669 0
0 0.3333333333333335 0
0 0.2500000000000001 0
0 0.1666666666666669 0
0 0.08333333333333337 0
1 3 0 11
28
29
30
31
32
33
34
35
36
37
38
1 0.08333333333333318 0
1 0.1666666666666664 0
1 0.2499999999999997 0
1 0.333333333333333 0
1 0.4166666666666664 0
1 0.4999999999999998 0
1 0.5833333333333331 0
1 0.6666666666666665 0
1 0.7499999999999999 0
1 0.8333333333333331 0
1 0.9166666666666666 0
1 4 0 11
39
40
41
42
43
44
45
46
47
48
49
0.9166666666666669 1 0
0.8333333333333337 1 0
0.7500000000000003 1 0
0.666666666666667 1 0
0.5833333333333337 1 0
0.5000000000000002 1 0
0.4166666666666669 1 0
0.3333333333333335 1 0
0.2500000000000001 1 0
0.1666666666666669 1 0
0.08333333333333337 1 0
1 5 0 24
50
51
52
53
54
55
56
57
58
59
60
61
62
63
64
65
66
67
68
69
70
71
72
73
0.5079058107556005 0.6348122545049917 0
0.4915008852173026 0.6762463667015831 0
0.4653071058943921 0.7122990109904489 0
0.4309703242757089 0.740704867138569 0
0.3906480466322043 0.7596790907347256 0
0.3468738699631832 0.7680294615280594 0
0.3023982867789207 0.7652312950111095 0
0.2600158615406372 0.7514604102770727 0
0.2223896378977106 0.7275820826595596 0
0.1918838098611967 0.6950966753011248 0
0.170415170799217 0.6560453658190697 0
0.1593326742601672 0.6128818916088214 0
0.1593326742601669 0.5683183724991641 0
0.1704151707992161 0.5251548982889157 0
0.1918838098611953 0.4861035888068603 0
0.2223896378977088 0.4536181814484251 0
0.2600158615406355 0.4297398538309115 0
0.3023982867789191 0.4159689690968741 0
0.3468738699631818 0.4131708025799238 0
0.3906480466322031 0.4215211733732573 0
0.430970324275708 0.4404953969694138 0
0.4653071058943915 0.4689012531175337 0
0.4915008852173024 0.5049538974063996 0
0.5079058107556004 0.5463880096029913 0
2 2 0 54
74
75
76
77
78
79
80
81
82
83
84
85
86
87
88
89
90
91
92
93
94
95
96
97
98
99
100
101
102
103
104
105
106
107
108
109
110
111
112
113
114
115
116
117
118
119
120
121
122
123
124
125
126
127
0.4427921476542759 0.667110756011513 0
0.2074921022144083 0.5255333661253978 0
0.2647843728207336 0.7060654726574667 0
0.394377025802598 0.46592840194906 0
0.1962850295332 0.6227622563390642 0
0.293133010172041 0.459558668394241 0
0.3622648585092809 0.7263648524768196 0
0.4675697790038077 0.540225248429528 0
0.4724096345323152 0.6078691902961401 0
0.2578715290693337 0.4671601136445811 0
0.2840075007977794 0.4992041746481293 0
0.3239243877680468 0.491060112719933 0
0.3132862225594308 0.5327127154873399 0
0.3550939021061646 0.5229148627279229 0
0.3441710451268822 0.5648607856311293 0
0.3011823741632264 0.5757666694619715 0
0.3323652250507071 0.6076503341428592 0
0.3755165536845824 0.5965453503171401 0
0.2892734267010397 0.6187016341830797 0
0.3635882888511016 0.6394564723452482 0
0.2590100506471156 0.5860961039216878 0
0.4066391306374945 0.6322378563817963 0
0.4236335224557146 0.5914618032375166 0
0.3940598854111824 0.6703101274143373 0
0.2727739165955377 0.542124635898928 0
0.3512130065894251 0.6836113721825788 0
0.3870723665800939 0.554528482011341 0
0.3985203396150716 0.5062557867382456 0
0.3203698885998374 0.6507650369244543 0
0.3038751536110409 0.69386795280129 0
0.2762790649269615 0.6618161410535163 0
0.2341588073501237 0.6796602889647512 0
0.239100145343876 0.6309222811780827 0
0.4179942700757848 0.7024849461790261 0
0.332461216371627 0.4517476252203703 0
0.3221247419805542 0.7307790293268989 0
0.428559466495513 0.5450372212988049 0
0.4462815775905287 0.5063488367057873 0
0.2338225672465528 0.5553834236978316 0
0.1956023212575524 0.5580472026601944 0
0.4443751637922919 0.6319372068703143 0
0.2177944776249121 0.5906352333084756 0
0.3619284172252608 0.4826797874419639 0
0.2426084910580872 0.5026908389180824 0
0.4558070460953256 0.5712197348255706 0
0.2897342730817366 0.7297176769615259 0
0.365800335358262 0.4464760979133499 0
0.395947926583305 0.7256698721521995 0
0.4717967283903572 0.6435951548769084 0
0.204095093515333 0.6575463671394262 0
0.4868628279892777 0.5715052108658636 0
0.4266703512143175 0.4752024305155366 0
0.1856694353871997 0.590528991283144 0
0.3802959146211501 0.6995629584842027 0
2 3 0 213
128
129
130
131
132
133
134
135
136
137
138
139
140
141
142
143
144
145
146
147
148
149
150
151
152
153
154
155
156
157
158
159
160
161
162
163
164
165
166
167
168
169
170
171
172
173
174
175
176
177
178
179
180
181
182
183
184
185
186
187
188
189
190
191
192
193
194
195
196
197
198
199
200
201
202
203
204
205
206
207
208
209
210
211
212
213
214
215
216
217
218
219
220
221
222
223
224
225
226
227
228
229
230
231
232
233
234
235
236
237
238
239
240
241
242
243
244
245
246
247
248
249
250
251
252
253
254
255
256
257
258
259
260
261
262
263
264
265
266
267
268
269
270
271
272
273
274
275
276
277
278
279
280
281
282
283
284
285
286
287
288
289
290
291
292
293
294
295
296
297
298
299
300
301
302
303
304
305
306
307
308
309
310
311
312
313
314
315
316
317
318
319
320
321
322
323
324
325
326
327
328
329
330
331
332
333
334
335
336
337
338
339
340
0.5083827795674817 0.4626844494275305 0
0.5357465296885375 0.668631198585422 0
0.5482866906113648 0.5587182609358947 0
0.422705278223006 0.3996674024411248 0
0.9192942724958478 0.2883084415714563 0
0.2653892006915494 0.3862894421841851 0
0.6230586075985534 0.06964389314580854 0
0.9281921717788713 0.7066641315094058 0
0.7083333333333337 0.9278312163512967 0
0.3785462598880623 0.06905387775218408 0
0.2109254365505796 0.06175100947432566 0
0.4803505912403625 0.7652848837886386 0
0.9198601977272196 0.5330755611103396 0
0.22052351140252 0.7721065119915653 0
0.7916666666666665 0.07216878364870316 0
0.1745223555133824 0.4450993129955407 0
0.0754428899618888 0.286401546008391 0
0.3800973172860006 0.8020454458618143 0
0.5480521110366652 0.9297083346987713 0
0.1476975520568458 0.697063622604192 0
0.2880586815107128 0.9378123924539146 0
0.1228380773242089 0.9300528539286683 0
0.9320152693886523 0.8792333468783265 0
0.123024928499702 0.5417772317134992 0
0.06700174846394991 0.7940791639994378 0
0.07216878364870322 0.1250000000000002 0
0.9353953298725732 0.1253967001431487 0
0.5376511019100594 0.5036963424904209 0
0.5550621656444259 0.4567112723778817 0
0.5252835721397264 0.4172858239845931 0
0.5771407192667889 0.41102912450016 0
0.6089353033709597 0.4546706755464052 0
0.5454783246232345 0.3697653773961432 0
0.5998075268499664 0.3612512668174913 0
0.5637323324467181 0.3152778641564735 0
0.6231987071491565 0.307676420358342 0
0.6585591615753552 0.3567999573525841 0
0.6845199654703981 0.2994676226143981 0
0.7213669871664763 0.3535979430780834 0
0.5863001725892965 0.2595612312016208 0
0.5251461637454079 0.2693031085144728 0
0.7468177192347711 0.2900506999828962 0
0.7092649960132607 0.2403464560642155 0
0.5496571007198937 0.2071510841838679 0
0.4854865974174293 0.2222592668561577 0
0.7749434038916378 0.2265727000010663 0
0.7954918862766569 0.339847820865201 0
0.7606333007031527 0.4081280476841097 0
0.8286634037456995 0.400399424700698 0
0.799569424034186 0.4630318389016934 0
0.4629036965759886 0.2787552570666088 0
0.4236312603612961 0.2346172460962996 0
0.4016784509151567 0.2875176901891459 0
0.3632700369313809 0.2435882374694635 0
0.7308000785542053 0.4712973620276734 0
0.7689078903632687 0.5232560424063736 0
0.7039021381367179 0.5283541339648323 0
0.7406932735348292 0.5812146113607939 0
0.6807474574674311 0.5859737650818042 0
0.71402424891967 0.6373435795862723 0
0.7730748190102156 0.6341743297193285 0
0.7460286804219137 0.6928280339716296 0
0.6814894095149184 0.6941629967389429 0
0.7164209720333098 0.7495533311935745 0
0.652016026022304 0.7505194691791621 0
0.7833955927312255 0.7496649644960039 0
0.5125858318339666 0.1569314169327636 0
0.343022498667523 0.2912466831263859 0
0.3048615902093337 0.2506822172759134 0
0.3241640428125151 0.1949698026654023 0
0.261811590342069 0.2069527044638939 0
0.2470885471557216 0.2713709185408563 0
0.1988659945410845 0.2203489491558109 0
0.6130240102281029 0.2000564244639402 0
0.7527463622240294 0.8085608978192843 0
0.5840047650567927 0.524859396229839 0
0.1785285605745399 0.2829825880549507 0
0.6186665383169522 0.6902345369347221 0
0.5902760717144521 0.7537780379028962 0
0.6222419819426197 0.8060167551866982 0
0.5611440209478279 0.8092165757457772 0
0.8264363855002711 0.8048895438797337 0
0.7268529138654793 0.18081675769991 0
0.3784507967034387 0.3838780633025308 0
0.5922558826407224 0.5768159924247929 0
0.5542525801075083 0.6172613877303111 0
0.5132980489618272 0.7148721846559608 0
0.3222127950833525 0.3760529009526995 0
0.07653773697468758 0.4444873457512436 0
0.42853088994439 0.7891310225073297 0
0.4172762048716883 0.8381777363401599 0
0.4711971991426733 0.8283603814224691 0
0.4540327431315875 0.880580689336662 0
0.3658506675008463 0.8553952584553161 0
0.282779393825477 0.1454951331896001 0
0.2695383421791834 0.7942799209885187 0
0.2295566977013226 0.8255514514179925 0
0.1767214404937628 0.8028808198737338 0
0.2118446944893354 0.4020641238876842 0
0.1604796765464475 0.3956858978930163 0
0.2287156249133293 0.3557594466609015 0
0.1230135884538022 0.6533873866480745 0
0.1037262969983302 0.6958039564464882 0
0.1090278600566767 0.6043117136094937 0
0.1358571882474812 0.4834730709294735 0
0.2722541918015662 0.3328394934209261 0
0.6061733441279283 0.6304503245590724 0
0.8699594202800245 0.457453363258624 0
0.9070791177347737 0.4059756428769123 0
0.5002730209902897 0.3809150086426371 0
0.7834177275734403 0.8720349068542527 0
0.3248152566903343 0.8161628554385203 0
0.283734944976536 0.8424811793657812 0
0.1809758011382117 0.739538270348429 0
0.1331216735954235 0.2339678455781246 0
0.1427438556908321 0.1610125111215098 0
0.06569800812000903 0.3675058739573452 0
0.8052384106713831 0.1488643377472216 0
0.8504875225771062 0.2300439379097408 0
0.1820358283567315 0.8679090847681696 0
0.6394929786091654 0.5415051567591482 0
0.589758560100796 0.8646035038573594 0
0.4351185396454923 0.3252818482798147 0
0.6638612777010455 0.4817315720044339 0
0.6872485967115435 0.4228830113316078 0
0.06648893330431144 0.6492406963355551 0
0.656944582720125 0.860910397734954 0
0.3648751828690419 0.9276801311656875 0
0.6255147645318201 0.9305089087737302 0
0.2084913442775825 0.9359033329950145 0
0.07176383192684893 0.5579436435111498 0
0.928345012012726 0.6236197342218774 0
0.8626294687454689 0.5908309924594718 0
0.868570338619103 0.6640656377104607 0
0.1286965526188656 0.3339606771426588 0
0.8560101172617968 0.7339997204030025 0
0.9140252162663656 0.7966117141636639 0
0.7057738683389053 0.06634133995728159 0
0.4538725183383266 0.06721876048982062 0
0.4129886890046886 0.127832626050095 0
0.5319883398521478 0.07870272415259572 0
0.1130913113929912 0.8483104822264012 0
0.2924118562929614 0.07467758926236673 0
0.4726389906567376 0.4200850713946141 0
0.1284363989212057 0.4344755181094585 0
0.9297834311876846 0.2059339238393568 0
0.845139566123118 0.2977092142368304 0
0.5232346946341042 0.8623535089696375 0
0.1266388551172343 0.7424999096603989 0
0.1310319323797705 0.07546711472073481 0
0.8370109962122022 0.5238621971260721 0
0.498314704504813 0.3299920898908023 0
0.5808660775788956 0.1426066358991913 0
0.663099517662774 0.1402542063985316 0
0.5375723166856521 0.759818574338518 0
0.8704817835028885 0.08089164655490744 0
0.5675912810205289 0.7063141156253281 0
0.8780832220634651 0.9382251480635879 0
0.06701828930857101 0.1994124154521284 0
0.6464162715420209 0.2525983947716632 0
0.6575872539129712 0.6373443988730947 0
0.3473532043338297 0.1337775918315883 0
0.6292367005759766 0.4048924167402758 0
0.6865177176825052 0.8062323639052539 0
0.218256729261275 0.1603861333576408 0
0.2522396206652784 0.8823164206514043 0
0.3861589898585017 0.186479406325562 0
0.8017423153723274 0.5798802363473882 0
0.9393797471484036 0.4626342467825084 0
0.3723742776743023 0.3369412394314131 0
0.7184028700214695 0.8580387637272503 0
0.8550675813446525 0.8697108153334504 0
0.791666666666667 0.9434778400540862 0
0.4800974765796386 0.9403967503132324 0
0.8092028320687058 0.6834459885521191 0
0.5764860546522911 0.6625783126869711 0
0.0900512936051906 0.5046018579063223 0
0.3132623923687916 0.8769747062551039 0
0.06411193585054104 0.9042014620307006 0
0.1227326282990494 0.7960330645158075 0
0.8782772955623273 0.158226109238875 0
0.1842284416501001 0.3471665512585023 0
0.6352513833516437 0.5944179275395824 0
0.614987235833649 0.4972261407137586 0
0.4480750643310209 0.1754100518057478 0
0.6717315418623275 0.2028144478796521 0
0.4240115811032371 0.9262936214172321 0
0.3209765025666499 0.3266695779130366 0
0.0610042339640734 0.06100423396407328 0
0.05909919950735687 0.7224594675791887 0
0.9389957660359272 0.06100423396407301 0
0.9415026271314852 0.9415197804991231 0
0.5132752081523857 0.8082901757335041 0
0.4128399491505598 0.3632829437268698 0
0.4052092758952802 0.8856254873430115 0
0.2209127835374305 0.315384508975921 0
0.8730486014960122 0.346936632565899 0
0.7413383949895545 0.11922965804538 0
0.9419103877315238 0.3516868553348826 0
0.8008476290250024 0.2767240526798975 0
0.1119696746362431 0.3952230625707445 0
0.2976406660801588 0.2945617780554237 0
0.4569817471951497 0.3698707273959772 0
0.1865628580809182 0.1156915030652658 0
0.6482500017996231 0.441565939063493 0
0.8230439547631642 0.6304794369577537 0
0.05038652637848617 0.8549314020228821 0
0.1289474191876795 0.2843281641960312 0
0.4719020886720301 0.1212191158862045 0
0.5801281143631773 0.4874327654716611 0
0.04618197374937449 0.9554901580502779 0
0.2422196190755608 0.1122196558121805 0
0.06182015632195931 0.598707346697383 0
$EndNodes
$Elements
6 678 1 678
1 1 1 12
1 1 6 
2 6 7 
3 7 8 
4 8 9 
5 9 10 
6 10 11 
7 11 12 
8 12 13 
9 13 14 
10 14 15 
11 15 16 
12 16 2 
1 2 1 12
13 3 17 
14 17 18 
15 18 19 
16 19 20 
17 20 21 
18 21 22 
19 22 23 
20 23 24 
21 24 25 
22 25 26 
23 26 27 
24 27 1 
1 3 1 12
25 2 28 
26 28 29 
27 29 30 
28 30 31 
29 31 32 
30 32 33 
31 33 34 
32 34 35 
33 35 36 
34 36 37 
35 37 38 
36 38 4 
1 4 1 12
37 4 39 
38 39 40 
39 40 41 
40 41 42 
41 42 43 
42 43 44 
43 44 45 
44 45 46 
45 46 47 
46 47 48 
47 48 49 
48 49 3 
2 2 2 131
49 74 97 95 
50 95 114 74 
51 82 114 96 
52 96 118 82 
53 65 117 64 
54 59 105 58 
55 58 105 76 
56 112 117 98 
57 80 109 99 
58 99 109 103 
59 75 117 112 
60 64 117 75 
61 96 114 95 
62 81 111 72 
63 76 104 103 
64 72 111 71 
65 106 115 94 
66 76 105 104 
67 83 117 65 
68 74 107 97 
69 78 115 106 
70 106 123 78 
71 105 123 106 
72 105 106 104 
73 94 98 89 
74 89 98 86 
75 91 100 96 
76 88 100 91 
77 102 104 92 
78 99 102 93 
79 99 103 102 
80 93 102 90 
81 103 104 102 
82 67 79 66 
83 55 80 54 
84 52 74 51 
85 58 76 57 
86 61 78 60 
87 73 81 72 
88 50 82 5 
89 70 77 69 
90 64 75 63 
91 97 99 93 
92 95 97 93 
93 91 96 95 
94 91 95 93 
95 90 102 92 
96 91 93 90 
97 92 94 89 
98 88 91 90 
99 90 92 89 
100 88 90 89 
101 87 101 100 
102 88 89 86 
103 87 100 88 
104 87 88 86 
105 85 87 86 
106 86 98 84 
107 104 106 92 
108 92 106 94 
109 85 86 84 
110 98 117 84 
111 79 85 84 
112 53 107 52 
113 52 107 74 
114 67 108 79 
115 68 108 67 
116 100 110 96 
117 56 109 55 
118 55 109 80 
119 110 118 96 
120 103 119 76 
121 101 116 77 
122 87 116 101 
123 77 125 101 
124 110 111 81 
125 79 108 85 
126 75 113 63 
127 63 113 62 
128 108 116 85 
129 101 125 111 
130 59 123 105 
131 81 118 110 
132 101 110 100 
133 79 84 83 
134 101 111 110 
135 94 112 98 
136 108 120 116 
137 85 116 87 
138 66 83 65 
139 79 83 66 
140 57 119 56 
141 69 120 68 
142 54 121 53 
143 50 122 82 
144 74 122 51 
145 60 123 59 
146 73 124 81 
147 82 124 5 
148 71 125 70 
149 61 126 78 
150 94 115 112 
151 84 117 83 
152 109 119 103 
153 76 119 57 
154 77 120 69 
155 80 121 54 
156 51 122 50 
157 78 123 60 
158 5 124 73 
159 99 127 80 
160 70 125 77 
161 62 126 61 
162 107 127 97 
163 97 127 99 
164 111 125 71 
165 112 113 75 
166 112 115 113 
167 53 121 107 
168 68 120 108 
169 56 119 109 
170 116 120 77 
171 121 127 107 
172 114 122 74 
173 82 122 114 
174 78 126 115 
175 81 124 118 
176 118 124 82 
177 113 126 62 
178 115 126 113 
179 80 127 121 
2 3 2 499
180 264 299 209 
181 140 278 235 
182 215 297 211 
183 142 283 245 
184 283 308 245 
185 73 155 130 
186 234 288 205 
187 214 284 282 
188 212 213 130 
189 225 276 241 
190 230 317 253 
191 239 305 240 
192 139 219 217 
193 275 301 220 
194 132 274 246 
195 277 331 243 
196 62 231 151 
197 215 315 297 
198 221 305 239 
199 22 304 258 
200 282 284 206 
201 153 277 243 
202 155 203 130 
203 212 234 213 
204 52 214 139 
205 235 296 140 
206 150 299 264 
207 247 257 149 
208 194 336 268 
209 263 264 209 
210 246 273 132 
211 268 280 194 
212 166 252 164 
213 205 303 234 
214 175 252 166 
215 139 320 219 
216 186 248 184 
217 54 217 145 
218 269 307 225 
219 247 269 225 
220 23 244 216 
221 66 226 133 
222 253 317 20 
223 144 286 242 
224 146 301 275 
225 243 286 153 
226 133 233 215 
227 281 325 210 
228 194 280 171 
229 236 326 32 
230 32 296 236 
231 260 278 140 
232 205 288 190 
233 265 325 281 
234 21 340 253 
235 248 251 184 
236 244 328 216 
237 214 282 139 
238 61 231 62 
239 25 286 144 
240 136 298 238 
241 225 307 276 
242 238 300 136 
243 240 305 293 
244 216 304 22 
245 279 330 250 
246 42 256 136 
247 221 239 145 
248 64 232 143 
249 171 280 201 
250 226 228 133 
251 22 258 21 
252 242 286 243 
253 237 330 279 
254 146 256 43 
255 149 269 247 
256 299 300 238 
257 136 256 254 
258 217 218 145 
259 219 275 220 
260 150 264 37 
261 225 241 141 
262 182 252 175 
263 8 270 138 
264 149 257 48 
265 43 256 42 
266 249 256 146 
267 285 300 299 
268 268 336 266 
269 128 271 157 
270 259 260 140 
271 231 258 151 
272 233 315 215 
273 160 279 162 
274 259 261 260 
275 265 281 134 
276 237 279 160 
277 184 251 182 
278 266 267 137 
279 216 328 272 
280 21 253 20 
281 23 216 22 
282 72 155 73 
283 252 290 164 
284 144 244 24 
285 132 324 274 
286 178 279 250 
287 37 264 36 
288 11 268 266 
289 251 252 182 
290 178 250 180 
291 226 309 228 
292 282 320 139 
293 34 259 140 
294 146 275 249 
295 132 326 324 
296 19 152 18 
297 51 214 52 
298 10 266 137 
299 192 205 190 
300 186 310 248 
301 270 289 222 
302 47 148 46 
303 208 282 206 
304 157 271 237 
305 293 305 148 
306 144 262 244 
307 199 329 233 
308 53 217 54 
309 65 226 66 
310 135 261 259 
311 250 297 180 
312 148 255 46 
313 44 146 43 
314 131 330 271 
315 135 263 261 
316 47 257 148 
317 227 309 226 
318 233 323 199 
319 192 206 205 
320 71 271 128 
321 25 144 24 
322 183 184 182 
323 185 186 184 
324 242 335 144 
325 24 244 23 
326 216 272 232 
327 178 180 179 
328 131 271 70 
329 29 273 154 
330 130 213 5 
331 213 303 129 
332 250 321 297 
333 63 232 64 
334 134 268 12 
335 42 136 41 
336 232 272 143 
337 177 182 175 
338 135 259 35 
339 142 265 14 
340 60 229 61 
341 69 211 131 
342 10 137 9 
343 223 240 224 
344 255 305 221 
345 180 195 181 
346 8 138 7 
347 50 213 129 
348 11 266 10 
349 36 264 135 
350 168 178 172 
351 34 140 33 
352 13 134 12 
353 36 135 35 
354 137 289 270 
355 31 132 30 
356 46 255 45 
357 13 265 134 
358 162 279 168 
359 232 304 216 
360 183 185 184 
361 177 183 182 
362 12 268 11 
363 203 212 130 
364 49 149 48 
365 35 259 34 
366 68 215 211 
367 48 257 47 
368 270 339 138 
369 191 192 190 
370 152 317 276 
371 189 190 187 
372 210 313 281 
373 27 153 26 
374 137 270 9 
375 133 215 67 
376 14 265 13 
377 15 142 14 
378 135 264 263 
379 178 179 172 
380 221 322 255 
381 180 181 179 
382 38 150 37 
383 9 270 8 
384 20 317 19 
385 234 303 213 
386 140 296 33 
387 136 300 41 
388 29 154 28 
389 196 199 198 
390 138 277 7 
391 254 298 136 
392 168 279 178 
393 280 281 201 
394 185 187 186 
395 134 280 268 
396 248 310 212 
397 132 273 30 
398 240 293 224 
399 261 333 260 
400 157 237 160 
401 174 175 166 
402 30 273 29 
403 271 330 237 
404 57 223 141 
405 190 288 187 
406 229 231 61 
407 7 277 6 
408 207 208 206 
409 26 286 25 
410 195 196 181 
411 176 177 175 
412 228 233 133 
413 141 241 58 
414 45 301 44 
415 189 191 190 
416 145 239 55 
417 162 168 167 
418 247 293 257 
419 257 293 148 
420 199 204 200 
421 262 309 227 
422 16 283 15 
423 245 325 142 
424 134 281 280 
425 204 309 262 
426 56 239 223 
427 223 224 141 
428 168 172 171 
429 267 289 137 
430 297 315 195 
431 45 314 301 
432 18 334 17 
433 245 246 173 
434 239 240 223 
435 227 328 262 
436 71 128 72 
437 193 263 209 
438 73 130 5 
439 206 284 205 
440 59 241 147 
441 199 200 198 
442 177 278 183 
443 17 334 306 
444 174 176 175 
445 15 283 142 
446 163 164 161 
447 273 308 154 
448 49 338 149 
449 70 271 71 
450 69 131 70 
451 276 307 152 
452 176 235 177 
453 165 166 164 
454 192 207 206 
455 154 308 283 
456 169 174 166 
457 276 317 230 
458 209 238 202 
459 50 129 51 
460 148 305 255 
461 5 213 50 
462 188 189 187 
463 168 171 167 
464 32 326 31 
465 193 202 191 
466 235 278 177 
467 68 211 69 
468 236 296 235 
469 241 276 147 
470 170 210 173 
471 40 285 39 
472 176 236 235 
473 128 157 156 
474 128 155 72 
475 210 245 173 
476 165 170 169 
477 258 340 21 
478 218 221 145 
479 185 188 187 
480 217 219 218 
481 193 209 202 
482 251 311 159 
483 158 159 156 
484 196 198 197 
485 189 193 191 
486 165 169 166 
487 153 286 26 
488 203 248 212 
489 52 139 53 
490 263 302 261 
491 170 173 169 
492 163 165 164 
493 162 167 163 
494 19 317 152 
495 66 133 67 
496 157 160 158 
497 172 194 171 
498 160 162 161 
499 249 275 208 
500 67 215 68 
501 204 242 200 
502 274 324 174 
503 162 163 161 
504 171 201 167 
505 242 243 200 
506 57 141 58 
507 128 156 155 
508 39 319 4 
509 222 289 197 
510 1 316 27 
511 6 316 1 
512 196 197 181 
513 207 249 208 
514 160 161 158 
515 157 158 156 
516 149 338 306 
517 198 222 197 
518 4 319 38 
519 54 145 55 
520 2 318 16 
521 28 318 2 
522 207 254 249 
523 187 288 186 
524 174 327 274 
525 191 291 192 
526 255 314 45 
527 129 214 51 
528 40 300 285 
529 192 291 207 
530 248 311 251 
531 56 223 57 
532 164 290 161 
533 254 256 249 
534 246 308 273 
535 55 239 56 
536 274 327 246 
537 180 297 195 
538 58 241 59 
539 207 291 254 
540 211 321 131 
541 64 143 65 
542 59 147 60 
543 193 302 263 
544 44 301 146 
545 229 253 231 
546 278 295 183 
547 139 217 53 
548 202 291 191 
549 159 332 251 
550 143 272 227 
551 224 225 141 
552 152 334 18 
553 129 284 214 
554 200 292 198 
555 324 326 236 
556 196 329 199 
557 228 323 233 
558 224 293 247 
559 246 327 173 
560 62 151 63 
561 165 287 170 
562 170 313 210 
563 198 292 222 
564 185 295 188 
565 167 287 163 
566 158 290 159 
567 181 294 179 
568 201 287 167 
569 143 226 65 
570 183 295 185 
571 163 287 165 
572 289 294 197 
573 152 307 269 
574 204 323 309 
575 222 339 270 
576 243 292 200 
577 188 302 189 
578 161 290 158 
579 33 296 32 
580 219 220 218 
581 266 336 267 
582 197 294 181 
583 188 333 302 
584 142 325 265 
585 260 295 278 
586 202 298 291 
587 143 227 226 
588 238 298 202 
589 159 337 156 
590 291 298 254 
591 251 332 252 
592 147 229 60 
593 172 312 194 
594 174 324 176 
595 151 232 63 
596 41 300 40 
597 224 247 225 
598 147 276 230 
599 267 294 289 
600 258 304 151 
601 262 328 244 
602 210 325 245 
603 169 327 174 
604 262 335 204 
605 212 310 234 
606 209 299 238 
607 138 331 277 
608 285 299 150 
609 155 337 203 
610 284 303 205 
611 31 326 132 
612 277 316 6 
613 230 253 229 
614 147 230 229 
615 219 320 275 
616 189 302 193 
617 16 318 283 
618 199 323 204 
619 27 316 153 
620 275 320 208 
621 281 313 201 
622 294 312 179 
623 311 337 159 
624 38 319 150 
625 234 310 288 
626 154 318 28 
627 129 303 284 
628 245 308 246 
629 309 323 228 
630 149 306 269 
631 195 329 196 
632 252 332 290 
633 153 316 277 
634 144 335 262 
635 312 336 194 
636 179 312 172 
637 3 338 49 
638 17 338 3 
639 302 333 261 
640 283 318 154 
641 269 334 152 
642 203 311 248 
643 288 310 186 
644 176 324 236 
645 151 304 232 
646 297 321 211 
647 267 312 294 
648 150 319 285 
649 285 319 39 
650 173 327 169 
651 253 340 231 
652 295 333 188 
653 204 335 242 
654 287 313 170 
655 201 313 287 
656 321 330 131 
657 156 337 155 
658 301 314 220 
659 220 322 218 
660 208 320 282 
661 272 328 227 
662 218 322 221 
663 255 322 314 
664 231 340 258 
665 290 332 159 
666 267 336 312 
667 292 339 222 
668 260 333 295 
669 203 337 311 
670 250 330 321 
671 243 331 292 
672 306 334 269 
673 315 329 195 
674 314 322 220 
675 331 339 292 
676 233 329 315 
677 138 339 331 
678 306 338 17 
$EndElements
