$MeshFormat
4.1 0 8
$EndMeshFormat
$PhysicalNames
3
1 101 "outer_boundary"
2 1 "material_1"
2 2 "material_2"
$EndPhysicalNames
$Entities
7 7 2 0
1 0 0 0 0 
2 1 0 0 0 
3 0 1 0 0 
4 1 1 0 0 
5 0.5410356564071924 0.8811410765282981 0 0 
6 0.6417810719070819 0.5881074462719876 0 0 
7 0.8451829321222785 0.8218723505378657 0 0 
1 -9.999999994736442e-08 -1e-07 -1e-07 1.0000001 1e-07 1e-07 1 101 2 1 -2 
2 -1e-07 -9.999999994736442e-08 -1e-07 1e-07 1.0000001 1e-07 1 101 2 3 -1 
3 0.9999999000000001 -9.999999994736442e-08 -1e-07 1.0000001 1.0000001 1e-07 1 101 2 2 -4 
4 -9.999999994736442e-08 0.9999999000000001 -1e-07 1.0000001 1.0000001 1e-07 1 101 2 4 -3 
5 0.5410355564071925 0.5881073462719877 -1e-07 0.6417811719070818 0.881141176528298 1e-07 0 2 5 -6 
6 0.6417809719070819 0.5881073462719877 -1e-07 0.8451830321222784 0.8218724505378656 1e-07 0 2 6 -7 
7 0.5410355564071925 0.8218722505378657 -1e-07 0.8451830321222784 0.881141176528298 1e-07 0 2 7 -5 
2 0.5410355564071925 0.5881073462719877 -1e-07 0.8451830321222784 0.881141176528298 1e-07 1 2 3 5 6 7 
3 -9.999999994736442e-08 -9.999999994736442e-08 -1e-07 1.0000001 1.0000001 1e-07 1 1 7 1 3 4 2 -5 -7 -6 
$EndEntities
$Nodes
16 153 1 153
0 1 0 1
1
0 0 0
0 2 0 1
2
1 0 0
0 3 0 1
3
0 1 0
0 4 0 1
4
1 1 0
0 5 0 1
5
0.5410356564071924 0.8811410765282981 0
0 6 0 1
6
0.6417810719070819 0.5881074462719876 0
0 7 0 1
7
0.8451829321222785 0.8218723505378657 0
1 1 0 7
8
9
10
11
12
13
14
0.1249999999999999 0 0
0.2499999999999998 0 0
0.3749999999999993 0 0
0.4999999999999988 0 0
0.6249999999999988 0 0
0.7499999999999991 0 0
0.8749999999999997 0 0
1 2 0 7
15
16
17
18
19
20
21
0 0.8750000000000001 0
0 0.7500000000000002 0
0 0.6250000000000007 0
0 0.5000000000000012 0
0 0.3750000000000012 0
0 0.2500000000000009 0
0 0.1250000000000003 0
1 3 0 7
22
23
24
25
26
27
28
1 0.1249999999999999 0
1 0.2499999999999998 0
1 0.3749999999999993 0
1 0.4999999999999988 0
1 0.6249999999999988 0
1 0.7499999999999991 0
1 0.8749999999999997 0
1 4 0 7
29
30
31
32
33
34
35
0.8750000000000001 1 0
0.7500000000000002 1 0
0.6250000000000007 1 0
0.5000000000000012 1 0
0.3750000000000012 1 0
0.2500000000000009 1 0
0.1250000000000003 1 0
1 5 0 4
36
37
38
39
0.5611847395071703 0.822534350477036 0
0.5813338226071482 0.7639276244257739 0
0.6014829057071261 0.7053208983745118 0
0.621631988807104 0.6467141723232497 0
1 6 0 4
40
41
42
43
0.6824614439501212 0.6348604271251632 0
0.7231418159931605 0.6816134079783388 0
0.7638221880361998 0.7283663888315145 0
0.8045025600792391 0.7751193696846901 0
1 7 0 4
44
45
46
47
0.7843534769792613 0.8337260957359521 0
0.7235240218362441 0.8455798409340386 0
0.6626945666932269 0.8574335861321252 0
0.6018651115502096 0.8692873313302116 0
2 2 0 6
48
49
50
51
52
53
0.7029927328931826 0.740220134029601 0
0.6220141946501876 0.8106806052789495 0
0.6623123608501433 0.6934671531764254 0
0.743673104936222 0.7869731148827765 0
0.6828436497932048 0.798826860080863 0
0.6421632777501654 0.7520738792276874 0
2 3 0 100
54
55
56
57
58
59
60
61
62
63
64
65
66
67
68
69
70
71
72
73
74
75
76
77
78
79
80
81
82
83
84
85
86
87
88
89
90
91
92
93
94
95
96
97
98
99
100
101
102
103
104
105
106
107
108
109
110
111
112
113
114
115
116
117
118
119
120
121
122
123
124
125
126
127
128
129
130
131
132
133
134
135
136
137
138
139
140
141
142
143
144
145
146
147
148
149
150
151
152
153
0.5786802827102738 0.6003188196895444 0
0.5109511505614374 0.7634148508212812 0
0.6005572600988978 0.5369663737160209 0
0.5323818970422542 0.550240677796477 0
0.5564659334759822 0.4810918437580007 0
0.4802079589139856 0.4954286938391824 0
0.5057465695782337 0.418862586025256 0
0.5832537904734242 0.4055506166836563 0
0.4226221957698008 0.434865775579754 0
0.3970438612145758 0.5119088858714211 0
0.7026105270500991 0.5762537010739012 0
0.4504733314008289 0.3499491175762904 0
0.3584533558480165 0.3672218479465111 0
0.1102280197845463 0.6898274243663148 0
0.3179736842863797 0.8977576323202074 0
0.8927219587924118 0.3205367712894808 0
0.6965895798802507 0.09218243303977308 0
0.5148100023917095 0.6168379036766293 0
0.7839712711361777 0.6697596627802523 0
0.3905364676842727 0.2762109955336488 0
0.2897395386119503 0.2950009978207536 0
0.2589296423333526 0.3924136527023211 0
0.4877261423263329 0.2587927233236433 0
0.1852771010782372 0.1039817850783906 0
0.1842438141414056 0.3070859868024491 0
0.8935534689367189 0.5666437173389602 0
0.4169341701798994 0.1802507460010272 0
0.8650682000891363 0.7668912333534808 0
0.5284988045116531 0.1714337910394337 0
0.5963091728344566 0.2460346361636605 0
0.157048736862213 0.4130812362646561 0
0.23078897211775 0.4883873417416168 0
0.4158279075134704 0.9067926459732552 0
0.3824872371980144 0.8116119708721965 0
0.2776648201331249 0.7982998087951239 0
0.3373751103457275 0.7201667780871819 0
0.8187127252912856 0.9031990548362561 0
0.2080626578564762 0.8802391382843692 0
0.4335528593480887 0.7247343247093382 0
0.3934013366563611 0.6436637683146921 0
0.3069558350852979 0.6321365508814321 0
0.8975057512719133 0.4408932808151416 0
0.7972674908766003 0.3843941619475275 0
0.7873560698120985 0.2764013730616125 0
0.7096458142048334 0.3431086083492497 0
0.7085040356243851 0.4419096119096294 0
0.8764708114459681 0.1994473080133027 0
0.8060403436791828 0.488541984888282 0
0.1035977659871586 0.8130006493197841 0
0.1224002176438649 0.5078855625442089 0
0.3124999999999996 0.1082531754730544 0
0.9123381615598198 0.6727521939661006 0
0.694661411000334 0.9185644268394608 0
0.1983042564981004 0.603453568321152 0
0.236436305863995 0.7037165944073841 0
0.8113585451714223 0.09677902708712005 0
0.8935355487668903 0.8712630609565051 0
0.5597598978293812 0.6622430877737093 0
0.5002394272486719 0.6866786497973372 0
0.5000467557714462 0.8311340826635154 0
0.1064506910509399 0.1966430712453947 0
0.2297007157769793 0.2053741497989767 0
0.7926154203387927 0.5836691057990536 0
0.6278272593908343 0.4644202653949455 0
0.3297951445745156 0.4557263078838915 0
0.7369600956936703 0.6292312609513419 0
0.4486985356241579 0.5771329149087839 0
0.6855935082981156 0.2590856840913819 0
0.5347816486785484 0.341952881619092 0
0.6619210803707576 0.5294541522227925 0
0.3109328401635977 0.5395603434617245 0
0.8407894625919365 0.7130350930628937 0
0.6331874235388006 0.9146358803366543 0
0.7542503270214251 0.9002138836691416 0
0.5642117584444913 0.9257665672683346 0
0.731715752913876 0.5141254536490312 0
0.3256863437704151 0.2042340837078907 0
0.5507534407907529 0.7163170222385227 0
0.08302007205066098 0.3170254709111013 0
0.624199043509003 0.3309611880936376 0
0.4574273709638703 0.7901364048058832 0
0.4496393634476337 0.08793088053417797 0
0.9280932030693174 0.8028749529341556 0
0.9039209563442866 0.1052862549180038 0
0.5730355685500318 0.08773803201981167 0
0.1079502835828162 0.9068974856354763 0
0.0890261262295976 0.08889566524314851 0
0.1880897933371726 0.7784154359930998 0
0.4941216995076307 0.8979168153325796 0
0.761780894390947 0.1835945157068901 0
0.4574764354627796 0.6470746565417895 0
0.3683158777584393 0.5814222910254285 0
0.6403012547442425 0.1733448486768252 0
0.8432400516008141 0.642192849659642 0
0.6548101163231479 0.393017409324953 0
0.06448075235060363 0.4375000000000012 0
0.9092578054620422 0.7411106946633259 0
0.9375 0.9432959080936967 0
0.08549852428507937 0.5908498590153329 0
0.4459310326415822 0.8444346917076326 0
$EndNodes
$Elements
6 304 1 304
1 1 1 8
1 1 8 
2 8 9 
3 9 10 
4 10 11 
5 11 12 
6 12 13 
7 13 14 
8 14 2 
1 2 1 8
9 3 15 
10 15 16 
11 16 17 
12 17 18 
13 18 19 
14 19 20 
15 20 21 
16 21 1 
1 3 1 8
17 2 22 
18 22 23 
19 23 24 
20 24 25 
21 25 26 
22 26 27 
23 27 28 
24 28 4 
1 4 1 8
25 4 29 
26 29 30 
27 30 31 
28 31 32 
29 32 33 
30 33 34 
31 34 35 
32 35 3 
2 2 2 25
33 6 40 39 
34 5 36 47 
35 44 43 7 
36 37 53 49 
37 37 49 36 
38 52 53 48 
39 38 53 37 
40 36 49 47 
41 41 50 40 
42 48 53 50 
43 51 52 48 
44 40 50 39 
45 42 48 41 
46 44 51 43 
47 45 52 51 
48 47 49 46 
49 49 52 46 
50 39 50 38 
51 48 50 41 
52 43 51 42 
53 45 51 44 
54 50 53 38 
55 42 51 48 
56 46 52 45 
57 49 53 52 
2 3 2 247
58 116 119 64 
59 92 112 55 
60 30 90 29 
61 64 129 116 
62 31 126 106 
63 135 138 82 
64 112 131 55 
65 90 110 29 
66 114 115 78 
67 96 101 99 
68 55 134 92 
69 86 142 32 
70 78 132 114 
71 32 142 128 
72 11 138 135 
73 95 96 69 
74 68 86 33 
75 120 144 93 
76 95 101 96 
77 35 91 34 
78 68 87 86 
79 107 124 94 
80 23 100 22 
81 24 95 69 
82 101 129 99 
83 33 86 32 
84 107 108 67 
85 79 101 95 
86 104 115 77 
87 85 124 107 
88 15 139 3 
89 96 99 98 
90 93 145 120 
91 31 106 30 
92 89 92 87 
93 27 150 105 
94 79 95 25 
95 26 79 25 
96 35 139 91 
97 104 130 115 
98 104 135 80 
99 34 68 33 
100 3 139 35 
101 75 118 85 
102 99 123 117 
103 89 93 92 
104 116 129 101 
105 69 100 23 
106 34 91 68 
107 83 122 76 
108 26 105 79 
109 96 98 97 
110 9 104 77 
111 110 151 29 
112 27 105 26 
113 108 141 67 
114 96 97 69 
115 2 137 14 
116 99 129 123 
117 100 137 22 
118 17 67 16 
119 13 70 12 
120 24 69 23 
121 67 102 16 
122 98 133 121 
123 25 95 24 
124 92 144 112 
125 10 104 9 
126 121 133 83 
127 9 77 8 
128 22 137 2 
129 80 130 104 
130 88 89 87 
131 118 124 85 
132 93 144 92 
133 75 85 84 
134 16 102 15 
135 79 116 101 
136 92 134 87 
137 106 127 30 
138 82 83 76 
139 103 152 18 
140 13 109 70 
141 84 132 78 
142 87 153 86 
143 84 149 132 
144 94 108 107 
145 121 146 143 
146 14 109 13 
147 10 135 104 
148 85 103 84 
149 68 88 87 
150 81 136 7 
151 85 107 103 
152 97 100 69 
153 77 115 114 
154 83 133 122 
155 143 146 70 
156 32 128 31 
157 80 135 82 
158 120 145 63 
159 66 75 74 
160 18 152 17 
161 88 108 89 
162 67 141 102 
163 21 114 20 
164 39 54 6 
165 12 138 11 
166 75 84 78 
167 67 152 107 
168 89 94 93 
169 59 63 62 
170 73 76 65 
171 38 111 39 
172 36 55 37 
173 89 108 94 
174 80 82 76 
175 72 119 116 
176 99 148 98 
177 75 78 74 
178 78 115 74 
179 58 117 56 
180 1 140 21 
181 54 71 57 
182 8 140 1 
183 114 132 20 
184 68 91 88 
185 73 80 76 
186 66 74 73 
187 54 56 6 
188 7 136 110 
189 66 118 75 
190 5 113 36 
191 98 121 97 
192 66 73 65 
193 102 141 91 
194 59 120 63 
195 105 147 79 
196 62 66 65 
197 6 64 40 
198 60 61 58 
199 62 65 60 
200 59 62 60 
201 102 139 15 
202 39 111 54 
203 59 60 58 
204 57 59 58 
205 63 118 62 
206 76 122 65 
207 57 58 56 
208 40 119 41 
209 54 57 56 
210 115 130 74 
211 105 150 125 
212 54 111 71 
213 82 146 83 
214 41 72 42 
215 63 124 118 
216 37 131 38 
217 62 118 66 
218 61 117 58 
219 111 112 71 
220 125 147 105 
221 91 139 102 
222 71 120 57 
223 18 149 103 
224 73 130 80 
225 36 113 55 
226 97 143 100 
227 38 131 111 
228 55 131 37 
229 14 137 109 
230 107 152 103 
231 42 125 43 
232 100 143 109 
233 125 150 81 
234 57 120 59 
235 109 143 70 
236 70 138 12 
237 65 122 60 
238 20 132 19 
239 28 136 27 
240 7 90 44 
241 17 152 67 
242 74 130 73 
243 132 149 19 
244 117 123 56 
245 60 122 61 
246 11 135 10 
247 56 123 6 
248 44 127 45 
249 29 151 4 
250 43 81 7 
251 111 131 112 
252 91 141 88 
253 79 147 116 
254 4 151 28 
255 45 106 46 
256 134 153 87 
257 77 140 8 
258 116 147 72 
259 64 119 40 
260 138 146 82 
261 103 149 84 
262 110 136 28 
263 46 126 47 
264 94 145 93 
265 6 123 64 
266 109 137 100 
267 47 128 5 
268 117 148 99 
269 71 144 120 
270 41 119 72 
271 19 149 18 
272 123 129 64 
273 114 140 77 
274 28 151 110 
275 21 140 114 
276 72 125 42 
277 88 141 108 
278 122 133 61 
279 113 134 55 
280 61 148 117 
281 5 142 113 
282 72 147 125 
283 7 110 90 
284 63 145 124 
285 124 145 94 
286 43 125 81 
287 112 144 71 
288 90 127 44 
289 83 146 121 
290 121 143 97 
291 45 127 106 
292 106 126 46 
293 70 146 138 
294 31 128 126 
295 133 148 61 
296 126 128 47 
297 142 153 113 
298 98 148 133 
299 113 153 134 
300 81 150 136 
301 136 150 27 
302 86 153 142 
303 128 142 5 
304 30 127 90 
$EndElements
