$MeshFormat
4.1 0 8
$EndMeshFormat
$PhysicalNames
3
1 101 "outer_boundary"
2 1 "material_1"
2 2 "material_2"
$EndPhysicalNames
$Entities
8 8 2 0
1 0 0 0 0 
2 1 0 0 0 
3 0 1 0 0 
4 1 1 0 0 
5 0.5095240587042594 0.2607574285449955 0 0 
6 0.3538058319776645 0.4330514645082327 0 0 
7 0.1815117960144273 0.2773332377816377 0 0 
8 0.3372300227410223 0.1050392018184006 0 0 
1 -9.999999994736442e-08 -1e-07 -1e-07 1.0000001 1e-07 1e-07 1 101 2 1 -2 
2 -1e-07 -9.999999994736442e-08 -1e-07 1e-07 1.0000001 1e-07 1 101 2 3 -1 
3 0.9999999000000001 -9.999999994736442e-08 -1e-07 1.0000001 1.0000001 1e-07 1 101 2 2 -4 
4 -9.999999994736442e-08 0.9999999000000001 -1e-07 1.0000001 1.0000001 1e-07 1 101 2 4 -3 
5 0.3538057319776645 0.2607573285449955 -1e-07 0.5095241587042594 0.4330515645082327 1e-07 0 2 5 -6 
6 0.1815116960144273 0.2773331377816377 -1e-07 0.3538059319776645 0.4330515645082327 1e-07 0 2 6 -7 
7 0.1815116960144273 0.1050391018184006 -1e-07 0.3372301227410223 0.2773333377816377 1e-07 0 2 7 -8 
8 0.3372299227410223 0.1050391018184006 -1e-07 0.5095241587042594 0.2607575285449955 1e-07 0 2 8 -5 
2 0.1815116960144273 0.1050391018184006 -1e-07 0.5095241587042594 0.4330515645082327 1e-07 1 2 4 5 6 7 8 
3 -9.999999994736442e-08 -9.999999994736442e-08 -1e-07 1.0000001 1.0000001 1e-07 1 1 8 1 3 4 2 -5 -8 -7 -6 
$EndEntities
$Nodes
18 348 1 348
0 1 0 1
1
0 0 0
0 2 0 1
2
1 0 0
0 3 0 1
3
0 1 0
0 4 0 1
4
1 1 0
0 5 0 1
5
0.5095240587042594 0.2607574285449955 0
0 6 0 1
6
0.3538058319776645 0.4330514645082327 0
0 7 0 1
7
0.1815117960144273 0.2773332377816377 0
0 8 0 1
8
0.3372300227410223 0.1050392018184006 0
1 1 0 11
9
10
11
12
13
14
15
16
17
18
19
0.08333333333333318 0 0
0.1666666666666664 0 0
0.2499999999999997 0 0
0.333333333333333 0 0
0.4166666666666664 0 0
0.4999999999999998 0 0
0.5833333333333331 0 0
0.6666666666666665 0 0
0.7499999999999999 0 0
0.8333333333333331 0 0
0.9166666666666666 0 0
1 2 0 11
20
21
22
23
24
25
26
27
28
29
30
0 0.9166666666666669 0
0 0.8333333333333337 0
0 0.7500000000000003 0
0 0.666666666666667 0
0 0.5833333333333337 0
0 0.5000000000000002 0
0 0.4166666666666669 0
0 0.3333333333333335 0
0 0.2500000000000001 0
0 0.1666666666666669 0
0 0.08333333333333337 0
1 3 0 11
31
32
33
34
35
36
37
38
39
40
41
1 0.08333333333333318 0
1 0.1666666666666664 0
1 0.2499999999999997 0
1 0.333333333333333 0
1 0.4166666666666664 0
1 0.4999999999999998 0
1 0.5833333333333331 0
1 0.6666666666666665 0
1 0.7499999999999999 0
1 0.8333333333333331 0
1 0.9166666666666666 0
1 4 0 11
42
43
44
45
46
47
48
49
50
51
52
0.9166666666666669 1 0
0.8333333333333337 1 0
0.7500000000000003 1 0
0.666666666666667 1 0
0.5833333333333337 1 0
0.5000000000000002 1 0
0.4166666666666669 1 0
0.3333333333333335 1 0
0.2500000000000001 1 0
0.1666666666666669 1 0
0.08333333333333337 1 0
1 5 0 5
53
54
55
56
57
0.4835710209164936 0.289473101205535 0
0.4576179831287278 0.3181887738660746 0
0.431664945340962 0.346904446526614 0
0.4057119075531961 0.3756201191871536 0
0.3797588697654303 0.4043357918476932 0
1 6 0 5
58
59
60
61
62
0.3250901593171249 0.4070984267204668 0
0.2963744866565854 0.381145388932701 0
0.267658813996046 0.3551923511449352 0
0.2389431413355064 0.3292393133571694 0
0.2102274686749668 0.3032862755694035 0
1 7 0 5
63
64
65
66
67
0.2074648338021932 0.2486175651210982 0
0.233417871589959 0.2199018924605587 0
0.2593709093777248 0.1911862198000192 0
0.2853239471654906 0.1624705471394796 0
0.3112769849532565 0.1337548744789401 0
1 8 0 5
68
69
70
71
72
0.3659456954015619 0.1309922396061664 0
0.3946613680621013 0.1569452773939322 0
0.4233770407226408 0.182898315181698 0
0.4520927133831804 0.2088513529694639 0
0.48080838604372 0.2348043907572297 0
2 2 0 34
73
74
75
76
77
78
79
80
81
82
83
84
85
86
87
88
89
90
91
92
93
94
95
96
97
98
99
100
101
102
103
104
105
106
0.3906998861221803 0.3404910611687127 0
0.3006627827158245 0.2035180687430689 0
0.2758891969521919 0.3176949453451696 0
0.4139319428504256 0.2215803453905773 0
0.3325869509606014 0.3696963063575978 0
0.4470307211005851 0.281816138537152 0
0.2442179099173546 0.2574721074751751 0
0.358874109461517 0.1719651324432311 0
0.3044077848893978 0.3434321206358163 0
0.3126153563536 0.3055352417421454 0
0.2817239508905442 0.2733001968571039 0
0.3207289477545242 0.2676103262186959 0
0.3490470748890561 0.2923429805228497 0
0.3570382511679793 0.2560219923953015 0
0.386278446774916 0.2816713808895592 0
0.3304770434217278 0.2311576659937474 0
0.3671843779547607 0.217353066917097 0
0.3478685840162785 0.3329200723782484 0
0.4149992892399044 0.3070880432436058 0
0.2698353511128501 0.231444535552113 0
0.2460829698570696 0.2929351960348369 0
0.3686066460443793 0.3686289473437653 0
0.4456217827361209 0.2458723786333002 0
0.3215705976773158 0.1705228391596954 0
0.3880731206677744 0.2490114162071778 0
0.3916057678102891 0.1901484274653071 0
0.3357537822462292 0.198903354651368 0
0.4159892172282877 0.2645066171502287 0
0.2998964135979696 0.2427986797406509 0
0.3757704576211691 0.3121142062737746 0
0.2215320696468584 0.2753108486920057 0
0.3392524118306542 0.1450594754508316 0
0.4695037850718283 0.2627798176346274 0
0.3517834428880325 0.3930311908758016 0
2 3 0 242
107
108
109
110
111
112
113
114
115
116
117
118
119
120
121
122
123
124
125
126
127
128
129
130
131
132
133
134
135
136
137
138
139
140
141
142
143
144
145
146
147
148
149
150
151
152
153
154
155
156
157
158
159
160
161
162
163
164
165
166
167
168
169
170
171
172
173
174
175
176
177
178
179
180
181
182
183
184
185
186
187
188
189
190
191
192
193
194
195
196
197
198
199
200
201
202
203
204
205
206
207
208
209
210
211
212
213
214
215
216
217
218
219
220
221
222
223
224
225
226
227
228
229
230
231
232
233
234
235
236
237
238
239
240
241
242
243
244
245
246
247
248
249
250
251
252
253
254
255
256
257
258
259
260
261
262
263
264
265
266
267
268
269
270
271
272
273
274
275
276
277
278
279
280
281
282
283
284
285
286
287
288
289
290
291
292
293
294
295
296
297
298
299
300
301
302
303
304
305
306
307
308
309
310
311
312
313
314
315
316
317
318
319
320
321
322
323
324
325
326
327
328
329
330
331
332
333
334
335
336
337
338
339
340
341
342
343
344
345
346
347
348
0.4171609829039849 0.4118342937517517 0
0.5219822441585109 0.2989448024354812 0
0.6303418510727004 0.9329045640217946 0
0.9170215626152916 0.546889730027042 0
0.2921892503557982 0.9167985859628561 0
0.5506759158015341 0.2676041998514849 0
0.5638120757202696 0.3091917705621651 0
0.315057981417009 0.4444902988417209 0
0.3462583709764697 0.4726641296771655 0
0.5951820677354558 0.2747069030140424 0
0.6099688475529449 0.3206209641195937 0
0.3039405240066504 0.48499399587732 0
0.3375688924230067 0.5162416481892276 0
0.6435265297710839 0.2831912289249526 0
0.2934384300334771 0.5303190723688649 0
0.3290575993628805 0.5623070483597936 0
0.3741555821699072 0.5469304150876706 0
0.3655844371572716 0.5955436430706962 0
0.4146164399163088 0.5787398736398662 0
0.4049833332640507 0.6315565236958133 0
0.4569358530197026 0.6133862265798096 0
0.3166485775714342 0.6121677061311075 0
0.65804208954706 0.3331959539300235 0
0.6234773996963638 0.3710621024110214 0
0.4466642932437338 0.6695728661639732 0
0.5022218824822822 0.6500776376291584 0
0.2255122372631895 0.3723589654427997 0
0.6744388850125449 0.3853024993507062 0
0.6945361308610699 0.3010298416918291 0
0.6370572296881897 0.4261044493723741 0
0.9278312163512967 0.7083333333333333 0
0.1725276081172015 0.318357739317926 0
0.2574835921951067 0.4958737910168525 0
0.4629342856913647 0.5593652790917877 0
0.6934176828592028 0.4390294858736566 0
0.7344908896861793 0.3947160742313718 0
0.6526302934789121 0.4827545285349024 0
0.4695099662456304 0.3550226002259269 0
0.3914973038125119 0.6879867753005084 0
0.4358804998047914 0.7296307440812712 0
0.4935120239683083 0.1952608250055585 0
0.1912819389890286 0.208900361342924 0
0.2474789262608222 0.1543523934401667 0
0.06908258404654838 0.7085109796554747 0
0.2454402705792132 0.546243783328899 0
0.6267675378930176 0.2434756754803961 0
0.7110489401314473 0.4980026115725952 0
0.6689852798431517 0.5430256411798958 0
0.9231880744128782 0.2131751763327849 0
0.7287848876591676 0.5598525909630636 0
0.6861502800577771 0.6062719633441715 0
0.7906665649612498 0.9287382563274919 0
0.2067440947293326 0.5081536245139208 0
0.3761235811849437 0.7483638328716251 0
0.4235000951361638 0.7930494261831896 0
0.485840606675651 0.7720293619905318 0
0.1924959534268369 0.5649197963497964 0
0.584196098381762 0.4107503797957811 0
0.4294143082239547 0.1488895552210784 0
0.7853701689572352 0.06833097318897163 0
0.7487830454349709 0.6242830713530948 0
0.7039501915941249 0.6730944605826423 0
0.9288860241568371 0.3771628725978901 0
0.1249999999999997 0.07216878364870305 0
0.609979410759741 0.5259581068493427 0
0.13882843412818 0.2890645218262559 0
0.1297924424667612 0.334358737547829 0
0.6241070524540077 0.06416607351672526 0
0.7768804126476745 0.5112037429696944 0
0.7727925096187379 0.6901588032117507 0
0.7239780553978581 0.7401008107984008 0
0.6499271615469375 0.7254007198794841 0
0.7968141567249976 0.7606790268315076 0
0.1260966622934462 0.9198291750485676 0
0.4721899196357925 0.8423375748921982 0
0.1451388383164276 0.5232943593141427 0
0.1662781540071985 0.466216342786828 0
0.5389292456792717 0.8169406809793307 0
0.1298699217873353 0.5921436776880979 0
0.1825928216460129 0.6298703867473647 0
0.3317863594310573 0.7068815377078963 0
0.3144143974838015 0.7675512654213541 0
0.2671482698723769 0.7224630670054495 0
0.2500286140901173 0.7877210401095021 0
0.8181580256392655 0.6329923003453691 0
0.69039117033718 0.7966358299850421 0
0.4073831084808964 0.8601107996162978 0
0.2974761552013606 0.09175641776916627 0
0.9372296486466691 0.8740496989643689 0
0.1998482947410348 0.7402755092195499 0
0.5322540309601111 0.3413407662164547 0
0.1843321082898428 0.8059160777581154 0
0.05574241861908547 0.2072444747444528 0
0.3703683789830476 0.08898066501909069 0
0.3847288633328499 0.4621682829904925 0
0.5206647636580244 0.8876830692295994 0
0.5499293540589395 0.7451296505418326 0
0.1049416024393449 0.4783552218441392 0
0.5249854748507096 0.2284594483944428 0
0.5381572138483427 0.1828164482848679 0
0.5017808848004531 0.1499543885066813 0
0.5449268359883465 0.1282523270061445 0
0.5816442846687642 0.1665318423841662 0
0.08429973391497392 0.3055125116659005 0
0.1221572478622134 0.4209452067702936 0
0.07585574698556313 0.3692308511854593 0
0.1754965174920058 0.3595964692846321 0
0.1623375552055369 0.2461230040161556 0
0.1481876552864407 0.1988902725161278 0
0.1890405895706327 0.1584730997596701 0
0.4719357286901963 0.06033327831442414 0
0.3002369729010854 0.8345466073657818 0
0.06916935088736509 0.1307699437447113 0
0.2080918953231565 0.05953768353263911 0
0.9280548188276843 0.4592392185362836 0
0.8610756005312999 0.4127697177928934 0
0.8598800469149218 0.3403613504415694 0
0.9284380319872092 0.2941340193534102 0
0.8584940441968344 0.2527234866609989 0
0.7985156996047071 0.2968013473612064 0
0.8017046887808231 0.2366070396025642 0
0.8430606898988422 0.1925408042342746 0
0.9110329167260922 0.1321707309506245 0
0.8505115799779558 0.4884008388667478 0
0.7071513735458731 0.06857363933021182 0
0.7442628940699182 0.1373522195614846 0
0.6692021929503924 0.1278911991889428 0
0.7079760957780941 0.2020807376488364 0
0.06487821572896446 0.6265641812296352 0
0.933560393434803 0.6286954804373397 0
0.206690505518752 0.927558484429361 0
0.06796747765991984 0.78966531119963 0
0.7091707320093126 0.9311089554662528 0
0.739378868007374 0.8630949668812811 0
0.8133080565465788 0.8408654350558744 0
0.7973697429197391 0.3680930487945847 0
0.793960431326964 0.4383729656175074 0
0.8355101503090174 0.5603896577315699 0
0.3749065830264469 0.9288911856193891 0
0.450937356850174 0.9274730262461547 0
0.5966474234181651 0.4671779014810878 0
0.5438592854186846 0.4493277546722147 0
0.5311543930316537 0.3919071287976368 0
0.4954570282039779 0.4334888888481065 0
0.5039798548065209 0.4830644417396766 0
0.4561141460727342 0.464683444547655 0
0.9354825644009606 0.7952692596051133 0
0.5546755894287955 0.5038536544123633 0
0.5639827444439123 0.5616310383592279 0
0.6239842690629724 0.5860091395340015 0
0.5659860837859665 0.6316789926253951 0
0.638430007491036 0.6515888378315799 0
0.1338007470164562 0.1396698965895588 0
0.4186627948362392 0.5304800084115999 0
0.2226778692099719 0.4580747448837205 0
0.745385511681673 0.3287147969087729 0
0.5869981135503046 0.6923223619379395 0
0.2349585411187724 0.6014285381357188 0
0.2314192956256879 0.6661392507255228 0
0.443716136491331 0.3838456049622581 0
0.5741438075571842 0.3574788519837755 0
0.5101481152982136 0.5913224143723976 0
0.06272737118982236 0.8712439989801593 0
0.4949671529636552 0.3278368704136493 0
0.06571670534083796 0.5416240165974892 0
0.5465287634716257 0.06759039203114264 0
0.269832826964299 0.4504788197793549 0
0.2440962911440133 0.4170215551130064 0
0.1837126945700875 0.4100458558653018 0
0.5870741997063819 0.8727365994345351 0
0.3774399548043744 0.5008751054023016 0
0.84316582075558 0.7068752807456984 0
0.6122111837642312 0.7950747562777587 0
0.872892011415444 0.9204627791428662 0
0.3618465086171937 0.8112729252439175 0
0.4913385807487798 0.7085541587961112 0
0.6631190883623339 0.8659549657209584 0
0.204541394576574 0.3365677525943861 0
0.2341091034274012 0.8577154692707205 0
0.86494330900408 0.06700205775184348 0
0.2241180471576334 0.1865627933606677 0
0.4027795217614141 0.1191002564892638 0
0.4610366190982769 0.1667253386433637 0
0.1258760821025355 0.6657491836430637 0
0.1353722736539885 0.7466705213646296 0
0.5102502280549923 0.5350017761119338 0
0.3324883464653678 0.06065708642264622 0
0.6764303817962933 0.2447291906136166 0
0.4827647065856673 0.3930880776818778 0
0.4614985062060307 0.5097984164090794 0
0.2823927827208061 0.5798456036326382 0
0.2681669768115152 0.1243093849568188 0
0.3494850839071037 0.6507393777762576 0
0.4539764969289674 0.4216806483540447 0
0.4197342069073947 0.4862249667312925 0
0.7401857535834544 0.2570284182246945 0
0.2867180949776001 0.4156570598033165 0
0.07114533562020825 0.4344053856367209 0
0.2222903789579631 0.1134913324149357 0
0.3744455914353685 0.0409536152048342 0
0.8646895656866987 0.773405082672146 0
0.5793664953201275 0.2208972544011589 0
0.2555192320782647 0.08575758499559921 0
0.6381529724430688 0.182686263398712 0
0.1723898797373012 0.8716552888113938 0
0.2887028491595164 0.6687034338816669 0
0.4203136946849247 0.4482150047131354 0
0.05550053684413958 0.05725441214534954 0
0.4556775668229021 0.1185222567369018 0
0.5021300499573436 0.3618390886671091 0
0.1068339184538453 0.2406874620788461 0
0.9385285784793678 0.05650122440716021 0
0.3489297824718124 0.8689647018910265 0
0.5616188284086112 0.9393506023039234 0
0.1212958532214948 0.8289737415968313 0
0.1792035155165425 0.6876028464797423 0
0.7419596713302935 0.4562649760529651 0
0.8110074215644463 0.1316603531239152 0
0.4149602807619155 0.07676017628048243 0
0.8761238982605613 0.6057008225394342 0
0.2640719848074868 0.3882750640873518 0
0.05299474487834116 0.2616399877770633 0
0.1756447221736416 0.1086681591891014 0
0.06100423396407328 0.9389957660359266 0
0.9389957660359266 0.9389957660359267 0
0.5377407401535386 0.6863284745304783 0
0.8797678708883013 0.6565194434802349 0
0.7494530456708806 0.7984834357656807 0
0.6007603503293675 0.1228530162543056 0
0.2805065056124229 0.04475689328517063 0
0.2748132776590589 0.6266074734714453 0
0.7010228321816683 0.3483312243597155 0
0.104462896950583 0.1789303730587263 0
0.5041699559547047 0.1049305285190589 0
0.392478384731737 0.4314105706387724 0
0.1317573174150047 0.3768177539839934 0
0.6011099780544815 0.7404376131640091 0
0.780035602682138 0.5782920073029025 0
0.8847203693392702 0.8408104510880738 0
0.05116444519663066 0.4822303215246103 0
0.5064733509106257 0.9378669868637415 0
0.7659088196585998 0.1910942841133447 0
$EndNodes
$Elements
6 694 1 694
1 1 1 12
1 1 9 
2 9 10 
3 10 11 
4 11 12 
5 12 13 
6 13 14 
7 14 15 
8 15 16 
9 16 17 
10 17 18 
11 18 19 
12 19 2 
1 2 1 12
13 3 20 
14 20 21 
15 21 22 
16 22 23 
17 23 24 
18 24 25 
19 25 26 
20 26 27 
21 27 28 
22 28 29 
23 29 30 
24 30 1 
1 3 1 12
25 2 31 
26 31 32 
27 32 33 
28 33 34 
29 34 35 
30 35 36 
31 36 37 
32 37 38 
33 38 39 
34 39 40 
35 40 41 
36 41 4 
1 4 1 12
37 4 42 
38 42 43 
39 43 44 
40 44 45 
41 45 46 
42 46 47 
43 47 48 
44 48 49 
45 49 50 
46 50 51 
47 51 52 
48 52 3 
2 2 2 90
49 79 92 83 
50 73 94 90 
51 90 102 73 
52 92 101 83 
53 80 98 89 
54 89 98 76 
55 76 97 89 
56 89 99 80 
57 95 100 76 
58 76 100 97 
59 90 94 77 
60 91 102 87 
61 88 101 74 
62 83 93 79 
63 74 99 88 
64 87 100 91 
65 73 102 91 
66 74 101 92 
67 61 75 60 
68 85 90 82 
69 75 82 81 
70 81 90 77 
71 66 74 65 
72 59 77 58 
73 75 81 60 
74 54 91 78 
75 64 79 63 
76 69 80 68 
77 71 76 70 
78 54 78 53 
79 74 92 65 
80 64 92 79 
81 73 91 55 
82 59 81 77 
83 75 83 82 
84 82 90 81 
85 56 73 55 
86 65 92 64 
87 83 84 82 
88 84 86 85 
89 88 89 86 
90 55 91 54 
91 84 85 82 
92 86 87 85 
93 84 88 86 
94 60 81 59 
95 91 100 78 
96 62 93 61 
97 75 93 83 
98 72 95 71 
99 67 96 66 
100 57 94 56 
101 96 99 74 
102 76 98 70 
103 89 97 86 
104 69 98 80 
105 66 96 74 
106 61 93 75 
107 71 95 76 
108 56 94 73 
109 85 102 90 
110 83 101 84 
111 53 105 5 
112 5 105 72 
113 6 106 57 
114 63 103 7 
115 7 103 62 
116 58 106 6 
117 68 104 8 
118 8 104 67 
119 86 97 87 
120 70 98 69 
121 78 100 95 
122 88 99 89 
123 80 99 96 
124 84 101 88 
125 87 102 85 
126 67 104 96 
127 72 105 95 
128 62 103 93 
129 57 106 94 
130 77 106 58 
131 80 104 68 
132 79 103 63 
133 78 105 53 
134 97 100 87 
135 96 104 80 
136 93 103 79 
137 94 106 77 
138 95 105 78 
2 3 2 556
139 175 243 230 
140 110 244 230 
141 206 308 205 
142 174 335 272 
143 275 342 213 
144 214 317 215 
145 209 308 206 
146 147 205 72 
147 317 339 215 
148 241 334 179 
149 110 326 244 
150 133 275 213 
151 197 267 249 
152 174 272 15 
153 308 310 152 
154 210 212 27 
155 27 328 210 
156 223 226 225 
157 230 243 222 
158 209 335 310 
159 32 229 31 
160 209 310 308 
161 72 205 5 
162 249 267 164 
163 132 268 257 
164 111 285 218 
165 279 283 276 
166 192 283 279 
167 240 283 192 
168 185 271 182 
169 179 307 241 
170 220 329 170 
171 7 214 63 
172 63 214 148 
173 235 271 185 
174 229 324 286 
175 211 342 275 
176 10 220 170 
177 212 304 26 
178 228 324 229 
179 27 212 26 
180 192 334 240 
181 224 225 155 
182 213 284 133 
183 240 334 241 
184 182 271 204 
185 220 336 309 
186 310 335 233 
187 202 246 181 
188 223 225 224 
189 33 224 155 
190 149 287 216 
191 274 275 133 
192 199 339 317 
193 181 246 193 
194 229 318 31 
195 299 312 128 
196 257 268 255 
197 237 285 111 
198 230 244 175 
199 155 229 32 
200 227 348 228 
201 211 275 183 
202 218 319 111 
203 222 243 242 
204 288 315 165 
205 185 290 235 
206 272 335 208 
207 186 290 185 
208 222 242 223 
209 211 304 212 
210 257 332 132 
211 147 206 205 
212 196 265 189 
213 268 292 255 
214 110 230 221 
215 180 321 311 
216 221 230 222 
217 212 342 211 
218 231 233 174 
219 228 348 324 
220 11 220 10 
221 166 232 231 
222 187 312 299 
223 170 259 219 
224 249 316 197 
225 288 325 315 
226 29 199 28 
227 232 234 233 
228 225 228 155 
229 248 249 164 
230 24 271 235 
231 234 302 294 
232 34 224 33 
233 232 233 231 
234 269 321 180 
235 110 221 36 
236 242 243 142 
237 247 248 164 
238 29 219 199 
239 294 310 234 
240 279 343 178 
241 10 170 9 
242 14 217 13 
243 248 250 249 
244 226 227 225 
245 248 254 251 
246 166 231 17 
247 136 247 164 
248 294 302 135 
249 137 307 278 
250 149 305 298 
251 247 254 248 
252 228 229 155 
253 164 267 130 
254 221 222 169 
255 192 279 178 
256 135 302 262 
257 193 246 245 
258 241 345 280 
259 223 242 226 
260 137 236 38 
261 50 237 111 
262 290 322 291 
263 233 335 174 
264 152 310 294 
265 222 223 169 
266 109 239 45 
267 216 305 149 
268 16 174 15 
269 178 263 258 
270 16 231 174 
271 123 277 260 
272 35 221 169 
273 2 318 19 
274 178 258 168 
275 48 246 47 
276 280 345 195 
277 214 215 148 
278 253 307 137 
279 37 110 36 
280 118 273 114 
281 37 236 110 
282 23 150 22 
283 217 325 13 
284 33 155 32 
285 255 292 254 
286 23 235 150 
287 150 238 22 
288 50 111 49 
289 196 322 265 
290 35 169 34 
291 46 109 45 
292 234 310 233 
293 239 240 158 
294 183 261 159 
295 9 314 1 
296 31 318 2 
297 169 224 34 
298 251 252 250 
299 11 336 220 
300 262 302 226 
301 39 253 137 
302 245 246 48 
303 162 282 203 
304 305 309 298 
305 143 247 136 
306 24 235 23 
307 36 221 35 
308 180 237 51 
309 136 164 130 
310 30 219 29 
311 159 261 139 
312 18 166 17 
313 44 239 158 
314 171 247 143 
315 234 348 302 
316 51 237 50 
317 239 283 240 
318 17 231 16 
319 45 239 44 
320 39 137 38 
321 111 245 49 
322 38 236 37 
323 296 301 252 
324 22 238 21 
325 240 241 158 
326 154 171 143 
327 195 253 40 
328 40 253 39 
329 250 295 249 
330 49 245 48 
331 187 299 145 
332 52 180 51 
333 261 273 139 
334 242 262 226 
335 44 158 43 
336 290 291 150 
337 162 203 184 
338 177 178 168 
339 125 260 140 
340 1 314 30 
341 41 195 40 
342 21 269 20 
343 15 272 14 
344 140 292 268 
345 256 257 255 
346 248 251 250 
347 204 211 183 
348 142 262 242 
349 223 224 169 
350 198 291 196 
351 139 273 118 
352 123 260 125 
353 256 258 257 
354 171 256 255 
355 28 328 27 
356 111 319 245 
357 125 140 127 
358 8 293 200 
359 171 254 247 
360 154 256 171 
361 238 269 21 
362 165 315 289 
363 258 263 257 
364 14 272 217 
365 236 326 110 
366 177 192 178 
367 241 280 158 
368 182 183 159 
369 160 187 145 
370 168 258 157 
371 43 280 42 
372 119 123 122 
373 304 346 26 
374 19 286 18 
375 175 323 243 
376 109 283 239 
377 198 321 291 
378 276 320 202 
379 188 189 187 
380 215 216 148 
381 260 301 296 
382 157 256 154 
383 162 184 181 
384 227 228 225 
385 157 258 256 
386 146 162 161 
387 202 347 246 
388 25 271 24 
389 56 107 57 
390 291 322 196 
391 199 328 28 
392 167 191 176 
393 163 186 185 
394 167 168 157 
395 140 268 127 
396 176 177 168 
397 113 197 108 
398 6 201 115 
399 129 130 117 
400 55 266 56 
401 5 108 53 
402 156 157 154 
403 171 255 254 
404 53 270 54 
405 184 276 202 
406 54 144 55 
407 153 154 143 
408 190 196 189 
409 263 332 257 
410 153 175 156 
411 163 264 186 
412 141 143 136 
413 134 136 130 
414 219 339 199 
415 158 280 43 
416 203 279 184 
417 176 179 177 
418 188 218 190 
419 184 279 276 
420 160 188 187 
421 277 301 260 
422 167 176 168 
423 286 324 166 
424 183 275 261 
425 47 320 46 
426 131 145 126 
427 252 300 250 
428 156 167 157 
429 147 207 206 
430 235 290 150 
431 26 346 25 
432 254 292 251 
433 109 320 276 
434 188 190 189 
435 151 264 163 
436 184 202 181 
437 181 193 161 
438 127 132 131 
439 150 291 238 
440 153 156 154 
441 162 181 161 
442 119 277 123 
443 307 345 241 
444 18 286 166 
445 146 160 145 
446 190 198 196 
447 119 122 121 
448 6 115 114 
449 141 153 143 
450 6 114 58 
451 134 141 136 
452 115 119 118 
453 264 265 186 
454 130 267 117 
455 113 267 197 
456 274 303 273 
457 123 125 124 
458 182 204 183 
459 134 142 141 
460 146 161 160 
461 127 131 126 
462 131 146 145 
463 127 268 132 
464 129 134 130 
465 170 314 9 
466 146 282 162 
467 120 129 117 
468 123 124 122 
469 312 337 128 
470 216 329 305 
471 219 314 170 
472 125 127 126 
473 191 278 176 
474 115 277 119 
475 289 315 207 
476 243 323 142 
477 20 330 3 
478 3 330 52 
479 282 332 203 
480 56 266 107 
481 117 267 113 
482 138 213 173 
483 4 331 41 
484 42 331 4 
485 251 296 252 
486 116 117 113 
487 261 274 273 
488 226 302 227 
489 108 270 53 
490 120 135 129 
491 176 278 179 
492 125 126 124 
493 144 266 55 
494 276 283 109 
495 54 270 144 
496 132 282 131 
497 121 139 118 
498 60 133 61 
499 71 147 72 
500 246 347 47 
501 201 277 115 
502 252 313 300 
503 261 275 274 
504 302 348 227 
505 188 281 218 
506 300 313 107 
507 58 303 59 
508 116 120 117 
509 119 121 118 
510 160 281 188 
511 124 128 122 
512 197 270 108 
513 193 281 161 
514 273 303 114 
515 116 152 120 
516 259 329 216 
517 13 325 306 
518 218 285 190 
519 131 282 146 
520 161 281 160 
521 115 118 114 
522 70 289 71 
523 61 284 62 
524 163 185 182 
525 112 113 108 
526 63 148 64 
527 190 285 198 
528 64 287 65 
529 151 163 159 
530 121 151 139 
531 151 159 139 
532 65 149 66 
533 163 182 159 
534 295 316 249 
535 244 344 175 
536 204 304 211 
537 5 112 108 
538 137 333 236 
539 208 209 206 
540 69 165 70 
541 112 116 113 
542 293 306 200 
543 151 297 264 
544 191 344 244 
545 62 138 7 
546 260 296 140 
547 167 344 191 
548 57 341 6 
549 47 347 320 
550 145 299 126 
551 278 333 137 
552 177 334 192 
553 144 295 266 
554 5 205 112 
555 291 321 238 
556 170 329 259 
557 153 323 175 
558 274 327 303 
559 201 301 277 
560 180 311 237 
561 30 314 219 
562 66 298 67 
563 245 319 193 
564 265 312 189 
565 112 308 116 
566 114 303 58 
567 216 287 148 
568 13 306 12 
569 68 288 69 
570 205 308 112 
571 272 340 217 
572 12 336 11 
573 172 214 7 
574 262 338 135 
575 189 312 187 
576 215 259 216 
577 122 297 121 
578 292 296 251 
579 207 208 206 
580 19 318 286 
581 138 284 213 
582 147 289 207 
583 133 327 274 
584 166 324 232 
585 269 330 20 
586 6 341 201 
587 120 294 135 
588 128 297 122 
589 67 194 8 
590 266 300 107 
591 208 340 272 
592 126 299 124 
593 134 338 142 
594 46 320 109 
595 175 344 156 
596 8 200 68 
597 142 338 262 
598 264 337 265 
599 178 343 263 
600 152 294 120 
601 186 322 290 
602 142 323 141 
603 271 346 204 
604 124 299 128 
605 315 325 217 
606 309 336 194 
607 237 311 285 
608 324 348 232 
609 295 300 266 
610 121 297 151 
611 232 348 234 
612 71 289 147 
613 133 284 61 
614 203 332 263 
615 173 212 210 
616 140 296 292 
617 265 322 186 
618 135 338 129 
619 194 336 293 
620 138 172 7 
621 173 210 172 
622 138 173 172 
623 278 307 179 
624 280 331 42 
625 270 316 144 
626 148 287 64 
627 303 327 59 
628 65 287 149 
629 116 308 152 
630 244 326 191 
631 60 327 133 
632 238 321 269 
633 165 289 70 
634 259 339 219 
635 52 330 180 
636 62 284 138 
637 217 340 315 
638 41 331 195 
639 180 330 269 
640 59 327 60 
641 195 345 253 
642 306 325 200 
643 301 313 252 
644 191 333 278 
645 149 298 66 
646 285 311 198 
647 141 323 153 
648 286 318 229 
649 173 342 212 
650 201 313 301 
651 250 300 295 
652 197 316 270 
653 69 288 165 
654 293 336 12 
655 144 316 295 
656 195 331 280 
657 179 334 177 
658 317 328 199 
659 297 337 264 
660 281 319 218 
661 193 319 281 
662 265 337 312 
663 194 293 8 
664 67 298 194 
665 298 309 194 
666 128 337 297 
667 311 321 198 
668 25 346 271 
669 200 288 68 
670 203 343 279 
671 132 332 282 
672 220 309 305 
673 156 344 167 
674 129 338 134 
675 107 341 57 
676 12 306 293 
677 263 343 203 
678 208 335 209 
679 172 317 214 
680 210 317 172 
681 326 333 191 
682 213 342 173 
683 200 325 288 
684 204 346 304 
685 215 339 259 
686 210 328 317 
687 253 345 307 
688 305 329 220 
689 207 340 208 
690 313 341 107 
691 201 341 313 
692 236 333 326 
693 320 347 202 
694 315 340 207 
$EndElements
