$MeshFormat
4.1 0 8
$EndMeshFormat
$PhysicalNames
3
1 101 "outer_boundary"
2 1 "material_1"
2 2 "material_2"
$EndPhysicalNames
$Entities
7 7 2 0
1 0 0 0 0 
2 1 0 0 0 
3 0 1 0 0 
4 1 1 0 0 
5 0.3529802616201131 0.7826350105056087 0 0 
6 0.5435139267758275 0.4605392636923414 0 0 
7 0.7271901933891805 0.7865941313999817 0 0 
1 -9.999999994736442e-08 -1e-07 -1e-07 1.0000001 1e-07 1e-07 1 101 2 1 -2 
2 -1e-07 -9.999999994736442e-08 -1e-07 1e-07 1.0000001 1e-07 1 101 2 3 -1 
3 0.9999999000000001 -9.999999994736442e-08 -1e-07 1.0000001 1.0000001 1e-07 1 101 2 2 -4 
4 -9.999999994736442e-08 0.9999999000000001 -1e-07 1.0000001 1.0000001 1e-07 1 101 2 4 -3 
5 0.3529801616201131 0.4605391636923414 -1e-07 0.5435140267758275 0.7826351105056086 1e-07 0 2 5 -6 
6 0.5435138267758276 0.4605391636923414 -1e-07 0.7271902933891804 0.7865942313999816 1e-07 0 2 6 -7 
7 0.3529801616201131 0.7826349105056087 -1e-07 0.7271902933891804 0.7865942313999816 1e-07 0 2 7 -5 
2 0.3529801616201131 0.4605391636923414 -1e-07 0.7271902933891804 0.7865942313999816 1e-07 1 2 3 5 6 7 
3 -9.999999994736442e-08 -9.999999994736442e-08 -1e-07 1.0000001 1.0000001 1e-07 1 1 7 1 3 4 2 -5 -7 -6 
$EndEntities
$Nodes
16 168 1 168
0 1 0 1
1
0 0 0
0 2 0 1
2
1 0 0
0 3 0 1
3
0 1 0
0 4 0 1
4
1 1 0
0 5 0 1
5
0.3529802616201131 0.7826350105056087 0
0 6 0 1
6
0.5435139267758275 0.4605392636923414 0
0 7 0 1
7
0.7271901933891805 0.7865941313999817 0
1 1 0 7
8
9
10
11
12
13
14
0.1249999999999999 0 0
0.2499999999999998 0 0
0.3749999999999993 0 0
0.4999999999999988 0 0
0.6249999999999988 0 0
0.7499999999999991 0 0
0.8749999999999997 0 0
1 2 0 7
15
16
17
18
19
20
21
0 0.8750000000000001 0
0 0.7500000000000002 0
0 0.6250000000000007 0
0 0.5000000000000012 0
0 0.3750000000000012 0
0 0.2500000000000009 0
0 0.1250000000000003 0
1 3 0 7
22
23
24
25
26
27
28
1 0.1249999999999999 0
1 0.2499999999999998 0
1 0.3749999999999993 0
1 0.4999999999999988 0
1 0.6249999999999988 0
1 0.7499999999999991 0
1 0.8749999999999997 0
1 4 0 7
29
30
31
32
33
34
35
0.8750000000000001 1 0
0.7500000000000002 1 0
0.6250000000000007 1 0
0.5000000000000012 1 0
0.3750000000000012 1 0
0.2500000000000009 1 0
0.1250000000000003 1 0
1 5 0 5
36
37
38
39
40
0.3847358724793988 0.7289523860367307 0
0.4164914833386847 0.6752697615678528 0
0.4482470941979705 0.6215871370989747 0
0.4800027050572564 0.5679045126300967 0
0.5117583159165421 0.5142218881612188 0
1 6 0 5
41
42
43
44
45
0.5741266378780531 0.5148817416436148 0
0.6047393489802786 0.5692242195948883 0
0.6353520600825042 0.6235666975461619 0
0.6659647711847297 0.6779091754974355 0
0.6965774822869553 0.7322516534487087 0
1 7 0 5
46
47
48
49
50
0.6648218714276692 0.7859342779175862 0
0.6024535494661578 0.7852744244351907 0
0.5400852275046464 0.7846145709527952 0
0.477716905543135 0.7839547174703997 0
0.4153485835816239 0.7832948639880042 0
2 2 0 10
51
52
53
54
55
56
57
58
59
60
0.5729837381209928 0.6229068440637662 0
0.5094725164024207 0.7302720930015218 0
0.5423710270187675 0.5685643661124925 0
0.6342091603254437 0.731591799966313 0
0.4471041944409098 0.7296122395191263 0
0.5718408383639322 0.7309319464839173 0
0.5412281272617068 0.676589468532644 0
0.6035964492232182 0.6772493220150396 0
0.5106154161594818 0.6222469905813703 0
0.4788598053001957 0.6759296150502483 0
2 3 0 108
61
62
63
64
65
66
67
68
69
70
71
72
73
74
75
76
77
78
79
80
81
82
83
84
85
86
87
88
89
90
91
92
93
94
95
96
97
98
99
100
101
102
103
104
105
106
107
108
109
110
111
112
113
114
115
116
117
118
119
120
121
122
123
124
125
126
127
128
129
130
131
132
133
134
135
136
137
138
139
140
141
142
143
144
145
146
147
148
149
150
151
152
153
154
155
156
157
158
159
160
161
162
163
164
165
166
167
168
0.478131697574357 0.4571344332577309 0
0.6073411836068701 0.4620731730084297 0
0.3913296699856867 0.6254806806893384 0
0.5752503022988127 0.4012673679462908 0
0.3201226530346309 0.7245428534036744 0
0.6666552807315956 0.5676783350412182 0
0.7268616908646279 0.6785880859920904 0
0.108253175473055 0.3125000000000011 0
0.6499041977178855 0.4053350962507086 0
0.6114269159549675 0.3355778496460969 0
0.5326187913664699 0.3370070071414679 0
0.6932849828960375 0.3355473514871776 0
0.7334012457296268 0.4142311963704618 0
0.2833093212970241 0.7840125340221828 0
0.1014240722325526 0.5643716385742071 0
0.3073405782098442 0.09725916928200812 0
0.5702041705778044 0.2623294837532472 0
0.8196483068181548 0.1151578129097706 0
0.2454004475184929 0.7195056778523776 0
0.4825105025438996 0.2671861629468271 0
0.7834180345394305 0.3378180904033056 0
0.8917468245269454 0.5624999999999988 0
0.2022404483390723 0.7889306619132823 0
0.4459312388993016 0.8404781678157509 0
0.5706714662683912 0.8414591730475196 0
0.6964384337450433 0.8433998180493126 0
0.7647348532159881 0.8459301933042744 0
0.7993520365312083 0.7835769203437432 0
0.4544256418355585 0.3409519620974963 0
0.3937522107099699 0.2720984428059812 0
0.3669776408931611 0.3643090422144373 0
0.3008635581426258 0.2709456587056246 0
0.2616990661444242 0.360960855850983 0
0.3140767609794602 0.4440831487198007 0
0.1714162938174371 0.7210333213577778 0
0.518117143438534 0.1843386669224298 0
0.6425422184202103 0.1905218638866931 0
0.3093216024163379 0.8464519462899274 0
0.8219051817989652 0.4235247903783617 0
0.7264937826877469 0.2594671563128229 0
0.7693982065812091 0.4929394798029416 0
0.842277865653541 0.8471293421068973 0
0.2196413637212092 0.4471659419262304 0
0.2768967697676349 0.5214277009165933 0
0.2837567432501041 0.6582562523393753 0
0.8275382915974958 0.2407279934010656 0
0.3644597612584751 0.5169692672933806 0
0.3985921498949223 0.4416061016227054 0
0.9023663101370357 0.6756768194877214 0
0.828003884756263 0.6365583980262934 0
0.108663741848571 0.4377309465861861 0
0.4329814432953693 0.1056443855432878 0
0.1200017457748612 0.1872319875440976 0
0.1035390112508242 0.7976029398466077 0
0.1626660466766121 0.8803751355857602 0
0.6856080311640824 0.487497362760786 0
0.6994111904310897 0.1013762464712961 0
0.1908493253831236 0.09215015243347535 0
0.4417631687995497 0.510846810352139 0
0.4176343830957451 0.5672446591477012 0
0.2005682308429806 0.2727509029794195 0
0.3541231613771734 0.6746099080854573 0
0.5700505419080011 0.09412010022727457 0
0.7602808416749138 0.7304572983364506 0
0.697759816287214 0.6236592682734715 0
0.8826530318529939 0.7698082408343658 0
0.5082937229530416 0.8416898112351114 0
0.5387980378175472 0.9062777325065923 0
0.3785332409317177 0.8479609216685383 0
0.418266967895176 0.9182848167623172 0
0.6332025357401782 0.8430706379174135 0
0.6635337879255557 0.9076819214724704 0
0.1904385473037454 0.6352186658166787 0
0.736278400158589 0.5667119311123516 0
0.5129022393801288 0.4061000265969043 0
0.8768672443288403 0.3527366281956512 0
0.3344282828600821 0.5941305244949868 0
0.6487904141073533 0.2766887410172075 0
0.8021048666526187 0.9195938092259583 0
0.627694096472176 0.5202709664097874 0
0.9079746006359812 0.4631557565764465 0
0.3442914658925827 0.1936570060430573 0
0.4343305531760711 0.2045849328523167 0
0.914198307700713 0.184863299090081 0
0.1916436643599113 0.5334733494688262 0
0.2551400838698484 0.9041496827529405 0
0.09178034583976691 0.6684468889282903 0
0.8277133504228301 0.7165708003533822 0
0.2486009727055395 0.1800967034768303 0
0.9113976296769772 0.089495219621682 0
0.176846731449204 0.3742269278175672 0
0.3317677110910258 0.9218862024531584 0
0.09150635094610993 0.09150635094610998 0
0.8035592058049412 0.5618107764184896 0
0.4526335595236898 0.406777284794392 0
0.7474743075527874 0.1757507177541175 0
0.9231220071977719 0.8403530939986694 0
0.07993262532823325 0.9200673746717669 0
0.2546798557304267 0.5903366998603691 0
0.9070841232506552 0.9136793742219208 0
0.8389168038696084 0.5007861606352476 0
0.479466875883078 0.8974318525800312 0
0.6062411655503346 0.8996978929887992 0
0.7353623883078412 0.9033211484104031 0
0.7609583423663058 0.6250071460835278 0
0.7807636220169882 0.6774363457583489 0
0.9237207687254099 0.2806655841373594 0
0.2449115502323403 0.8405726819504639 0
$EndNodes
$Elements
6 334 1 334
1 1 1 8
1 1 8 
2 8 9 
3 9 10 
4 10 11 
5 11 12 
6 12 13 
7 13 14 
8 14 2 
1 2 1 8
9 3 15 
10 15 16 
11 16 17 
12 17 18 
13 18 19 
14 19 20 
15 20 21 
16 21 1 
1 3 1 8
17 2 22 
18 22 23 
19 23 24 
20 24 25 
21 25 26 
22 26 27 
23 27 28 
24 28 4 
1 4 1 8
25 4 29 
26 29 30 
27 30 31 
28 31 32 
29 32 33 
30 33 34 
31 34 35 
32 35 3 
2 2 2 36
33 5 36 50 
34 6 41 40 
35 45 7 46 
36 41 53 40 
37 45 54 44 
38 59 60 38 
39 46 54 45 
40 37 60 55 
41 40 53 39 
42 52 56 48 
43 57 58 56 
44 43 51 42 
45 47 56 54 
46 44 58 43 
47 42 53 41 
48 51 58 57 
49 37 55 36 
50 54 58 44 
51 53 59 39 
52 55 60 52 
53 51 59 53 
54 49 52 48 
55 39 59 38 
56 51 53 42 
57 52 57 56 
58 38 60 37 
59 48 56 47 
60 47 54 46 
61 56 58 54 
62 49 55 52 
63 36 55 50 
64 57 60 59 
65 43 58 51 
66 50 55 49 
67 57 59 51 
68 52 60 57 
2 3 2 266
69 100 138 97 
70 63 137 120 
71 115 146 34 
72 97 156 100 
73 114 147 95 
74 106 156 78 
75 91 155 108 
76 78 144 106 
77 16 147 114 
78 120 137 107 
79 93 151 121 
80 75 145 133 
81 116 134 66 
82 111 145 75 
83 26 109 82 
84 89 155 91 
85 133 147 75 
86 109 110 82 
87 108 119 107 
88 35 115 34 
89 103 145 111 
90 112 123 96 
91 24 141 136 
92 93 121 92 
93 61 119 108 
94 18 111 75 
95 122 137 63 
96 11 123 112 
97 113 149 121 
98 4 160 28 
99 94 107 104 
100 16 114 15 
101 91 108 94 
102 69 116 62 
103 121 151 68 
104 27 109 26 
105 117 156 97 
106 97 123 117 
107 26 82 25 
108 118 149 113 
109 20 113 68 
110 94 108 107 
111 66 140 116 
112 145 159 133 
113 128 163 31 
114 18 75 17 
115 101 134 116 
116 117 123 12 
117 27 126 109 
118 130 162 32 
119 114 158 15 
120 20 68 19 
121 71 135 89 
122 105 137 122 
123 14 78 13 
124 32 128 31 
125 132 164 30 
126 136 141 99 
127 112 143 142 
128 112 142 76 
129 68 111 19 
130 91 94 93 
131 119 120 107 
132 95 147 133 
133 33 130 32 
134 10 112 76 
135 31 132 30 
136 73 116 69 
137 94 104 103 
138 29 160 4 
139 11 112 10 
140 10 76 9 
141 21 113 20 
142 101 116 73 
143 19 111 18 
144 99 101 73 
145 13 117 12 
146 136 167 24 
147 107 137 104 
148 113 121 68 
149 78 117 13 
150 148 166 110 
151 71 89 80 
152 27 157 126 
153 9 118 8 
154 76 118 9 
155 115 158 114 
156 135 155 89 
157 94 103 93 
158 17 147 16 
159 25 141 24 
160 100 156 106 
161 116 140 62 
162 89 91 90 
163 96 143 112 
164 109 148 110 
165 91 93 92 
166 12 123 11 
167 108 155 61 
168 89 90 80 
169 40 61 6 
170 39 119 40 
171 22 150 2 
172 38 120 39 
173 82 141 25 
174 2 150 14 
175 37 63 38 
176 6 62 41 
177 78 150 144 
178 1 153 21 
179 8 153 1 
180 36 122 37 
181 24 167 23 
182 121 149 92 
183 64 71 70 
184 5 65 36 
185 42 66 43 
186 91 92 90 
187 79 105 65 
188 43 125 44 
189 96 97 77 
190 72 73 69 
191 81 99 73 
192 111 151 103 
193 83 115 114 
194 44 67 45 
195 129 152 98 
196 71 80 77 
197 7 88 87 
198 72 100 81 
199 41 140 42 
200 28 157 27 
201 75 147 17 
202 6 64 62 
203 45 124 7 
204 130 152 129 
205 72 81 73 
206 96 123 97 
207 30 139 29 
208 100 106 81 
209 80 96 77 
210 40 119 61 
211 110 154 82 
212 71 77 70 
213 105 122 65 
214 39 120 119 
215 68 151 111 
216 63 120 38 
217 92 149 142 
218 64 70 69 
219 70 72 69 
220 79 133 105 
221 37 122 63 
222 49 84 50 
223 48 127 49 
224 47 85 48 
225 46 131 47 
226 7 86 46 
227 83 114 95 
228 23 144 22 
229 104 145 103 
230 35 158 115 
231 83 95 79 
232 34 152 33 
233 65 122 36 
234 64 135 71 
235 64 69 62 
236 28 160 157 
237 62 140 41 
238 97 138 77 
239 66 125 43 
240 42 140 66 
241 14 150 78 
242 32 162 128 
243 83 168 115 
244 7 124 88 
245 81 136 99 
246 3 158 35 
247 15 158 3 
248 7 87 86 
249 74 83 79 
250 92 142 90 
251 72 138 100 
252 61 135 6 
253 44 125 67 
254 6 135 64 
255 80 143 96 
256 118 153 8 
257 95 133 79 
258 90 143 80 
259 50 129 5 
260 66 134 125 
261 31 163 132 
262 5 74 65 
263 88 126 102 
264 106 136 81 
265 21 153 113 
266 88 102 87 
267 74 79 65 
268 67 124 45 
269 113 153 118 
270 77 138 70 
271 70 138 72 
272 154 165 134 
273 76 149 118 
274 78 156 117 
275 142 143 90 
276 5 98 74 
277 102 139 87 
278 104 159 145 
279 30 164 139 
280 99 161 101 
281 88 148 126 
282 103 151 93 
283 146 152 34 
284 49 127 84 
285 85 127 48 
286 47 131 85 
287 86 131 46 
288 133 159 105 
289 110 165 154 
290 124 148 88 
291 98 152 146 
292 115 168 146 
293 105 159 137 
294 85 128 127 
295 154 161 82 
296 84 130 129 
297 86 132 131 
298 84 129 50 
299 5 129 98 
300 139 160 29 
301 134 165 125 
302 61 155 135 
303 144 150 22 
304 126 157 102 
305 82 161 141 
306 146 168 98 
307 33 152 130 
308 142 149 76 
309 74 168 83 
310 139 164 87 
311 141 161 99 
312 144 167 106 
313 126 148 109 
314 137 159 104 
315 101 154 134 
316 102 160 139 
317 67 166 124 
318 125 165 67 
319 124 166 148 
320 157 160 102 
321 106 167 136 
322 23 167 144 
323 87 164 86 
324 98 168 74 
325 84 162 130 
326 101 161 154 
327 127 162 84 
328 131 163 85 
329 128 162 127 
330 85 163 128 
331 132 163 131 
332 86 164 132 
333 165 166 67 
334 110 166 165 
$EndElements
