$MeshFormat
4.1 0 8
$EndMeshFormat
$PhysicalNames
3
1 101 "outer_boundary"
2 1 "material_1"
2 2 "material_2"
$EndPhysicalNames
$Entities
8 8 2 0
1 0 0 0 0 
2 1 0 0 0 
3 0 1 0 0 
4 1 1 0 0 
5 0.7461877155896527 0.2817907825597485 0 0 
6 0.8521175780223601 0.5497480878909962 0 0 
7 0.5841602726911125 0.6556779503237034 0 0 
8 0.4782304102584051 0.3877206449924558 0 0 
1 -9.999999994736442e-08 -1e-07 -1e-07 1.0000001 1e-07 1e-07 1 101 2 1 -2 
2 -1e-07 -9.999999994736442e-08 -1e-07 1e-07 1.0000001 1e-07 1 101 2 3 -1 
3 0.9999999000000001 -9.999999994736442e-08 -1e-07 1.0000001 1.0000001 1e-07 1 101 2 2 -4 
4 -9.999999994736442e-08 0.9999999000000001 -1e-07 1.0000001 1.0000001 1e-07 1 101 2 4 -3 
5 0.7461876155896527 0.2817906825597485 -1e-07 0.85211767802236 0.5497481878909961 1e-07 0 2 5 -6 
6 0.5841601726911125 0.5497479878909962 -1e-07 0.85211767802236 0.6556780503237033 1e-07 0 2 6 -7 
7 0.4782303102584051 0.3877205449924558 -1e-07 0.5841603726911124 0.6556780503237033 1e-07 0 2 7 -8 
8 0.4782303102584051 0.2817906825597485 -1e-07 0.7461878155896526 0.3877207449924558 1e-07 0 2 8 -5 
2 0.4782303102584051 0.2817906825597485 -1e-07 0.85211767802236 0.6556780503237033 1e-07 1 2 4 5 6 7 8 
3 -9.999999994736442e-08 -9.999999994736442e-08 -1e-07 1.0000001 1.0000001 1e-07 1 1 8 1 3 4 2 -5 -8 -7 -6 
$EndEntities
$Nodes
18 266 1 266
0 1 0 1
1
0 0 0
0 2 0 1
2
1 0 0
0 3 0 1
3
0 1 0
0 4 0 1
4
1 1 0
0 5 0 1
5
0.7461877155896527 0.2817907825597485 0
0 6 0 1
6
0.8521175780223601 0.5497480878909962 0
0 7 0 1
7
0.5841602726911125 0.6556779503237034 0
0 8 0 1
8
0.4782304102584051 0.3877206449924558 0
1 1 0 9
9
10
11
12
13
14
15
16
17
0.09999999999999996 0 0
0.1999999999999999 0 0
0.3000000000000001 0 0
0.4000000000000004 0 0
0.5000000000000003 0 0
0.5999999999999999 0 0
0.6999999999999995 0 0
0.7999999999999992 0 0
0.899999999999999 0 0
1 2 0 9
18
19
20
21
22
23
24
25
26
0 0.9 0
0 0.8 0
0 0.7 0
0 0.5999999999999996 0
0 0.4999999999999997 0
0 0.4000000000000001 0
0 0.3000000000000005 0
0 0.2000000000000008 0
0 0.100000000000001 0
1 3 0 9
27
28
29
30
31
32
33
34
35
1 0.09999999999999996 0
1 0.1999999999999999 0
1 0.3000000000000001 0
1 0.4000000000000004 0
1 0.5000000000000003 0
1 0.5999999999999999 0
1 0.6999999999999995 0
1 0.7999999999999992 0
1 0.899999999999999 0
1 4 0 9
36
37
38
39
40
41
42
43
44
0.9 1 0
0.8 1 0
0.7 1 0
0.5999999999999996 1 0
0.4999999999999997 1 0
0.4000000000000001 1 0
0.3000000000000005 1 0
0.2000000000000008 1 0
0.100000000000001 1 0
1 5 0 5
45
46
47
48
49
0.7638426926617706 0.3264503334482897 0
0.7814976697338885 0.3711098843368311 0
0.7991526468060064 0.4157694352253724 0
0.8168076238781243 0.4604289861139137 0
0.8344626009502422 0.5050885370024549 0
1 6 0 5
50
51
52
53
54
0.8074580271338189 0.567403064963114 0
0.7627984762452775 0.5850580420352319 0
0.7181389253567363 0.6027130191073498 0
0.6734793744681949 0.6203679961794677 0
0.6288198235796537 0.6380229732515855 0
1 7 0 5
55
56
57
58
59
0.5665052956189945 0.6110183994351621 0
0.5488503185468767 0.5663588485466208 0
0.5311953414747588 0.5216992976580795 0
0.5135403644026408 0.4770397467695382 0
0.495885387330523 0.432380195880997 0
1 8 0 5
60
61
62
63
64
0.5228899611469463 0.3700656679203379 0
0.5675495120354876 0.35241069084822 0
0.6122090629240289 0.3347557137761021 0
0.6568686138125702 0.3171007367039842 0
0.7015281647011115 0.2994457596318664 0
2 2 0 34
65
66
67
68
69
70
71
72
73
74
75
76
77
78
79
80
81
82
83
84
85
86
87
88
89
90
91
92
93
94
95
96
97
98
0.5815821518598761 0.5320781143561446 0
0.7458100889979898 0.4121247528509113 0
0.6063463474859847 0.3838095476025641 0
0.7248973472902775 0.5555642541699691 0
0.6919106703678392 0.350128156259738 0
0.7879069691497241 0.499379269025674 0
0.636389096992186 0.5913042148208615 0
0.5416725525688094 0.4393882629600586 0
0.6805607348902638 0.5730542128666904 0
0.6875195328551046 0.5254512479258754 0
0.7374412358655423 0.5014445026859677 0
0.6945997248579493 0.477856613798049 0
0.6509332405714794 0.4942667187471994 0
0.6574575443477952 0.4485888933770285 0
0.6123207398774515 0.4656627738151451 0
0.6991400583435874 0.4312610978882178 0
0.662500063706983 0.39924515935821 0
0.7694718979980902 0.4579889645700118 0
0.6346411132291325 0.5419242571550728 0
0.5678886422343954 0.4826923115762702 0
0.7703045774360441 0.5397703709538735 0
0.5589542126394496 0.3982401628896987 0
0.5950040975111494 0.5743863684424475 0
0.7358796128087753 0.3646889438146289 0
0.6244509885951781 0.426935572884816 0
0.6459669516594813 0.3570078627401197 0
0.7070480988450349 0.3914896220343412 0
0.5852722472335448 0.4327881052880921 0
0.6112790978995548 0.5056064952037931 0
0.7296034360362288 0.4580965939235837 0
0.523847810775279 0.4074893650628219 0
0.7264189955192867 0.3274081830766223 0
0.6039289927614786 0.6100605498068296 0
0.8065001775054862 0.52997936782063 0
2 3 0 168
99
100
101
102
103
104
105
106
107
108
109
110
111
112
113
114
115
116
117
118
119
120
121
122
123
124
125
126
127
128
129
130
131
132
133
134
135
136
137
138
139
140
141
142
143
144
145
146
147
148
149
150
151
152
153
154
155
156
157
158
159
160
161
162
163
164
165
166
167
168
169
170
171
172
173
174
175
176
177
178
179
180
181
182
183
184
185
186
187
188
189
190
191
192
193
194
195
196
197
198
199
200
201
202
203
204
205
206
207
208
209
210
211
212
213
214
215
216
217
218
219
220
221
222
223
224
225
226
227
228
229
230
231
232
233
234
235
236
237
238
239
240
241
242
243
244
245
246
247
248
249
250
251
252
253
254
255
256
257
258
259
260
261
262
263
264
265
266
0.5185194855041955 0.606083727700182 0
0.4660365702755013 0.4699996299729535 0
0.0956644493454441 0.6401166876140648 0
0.7094858082464466 0.6513475776934621 0
0.4855298412265832 0.3379910796113222 0
0.4360790871618824 0.3590071248357413 0
0.3437348147059825 0.9218250485751678 0
0.0785739113816139 0.2468093205335636 0
0.08239298604894585 0.4413632946184156 0
0.6153825659465674 0.2887000853476681 0
0.4446229592948411 0.303364196592376 0
0.3909579310429416 0.3239296949401485 0
0.8031157037612314 0.6208766333497315 0
0.623085680950479 0.6857412175167951 0
0.5722989500171469 0.7052289719904256 0
0.7084940608598087 0.251313927867226 0
0.6206000264744013 0.740136156032283 0
0.3843704050432457 0.3850880415390357 0
0.3322028999727307 0.3435973166921449 0
0.3278266861325311 0.4126271387391657 0
0.342679295141753 0.2837862335725526 0
0.759129409133642 0.2316642846366243 0
0.5638212548659681 0.762632532703591 0
0.5155706914636404 0.7228502059376262 0
0.7454858023699762 0.9083263413938917 0
0.2702626386291442 0.3680717151015551 0
0.2653188317394719 0.4408740243477058 0
0.3242842591935545 0.4810101894247068 0
0.2598338299621427 0.5122690345599709 0
0.3201073247634951 0.5526191246308446 0
0.5591291981703522 0.08241681280365631 0
0.8113464867889102 0.3334904502448745 0
0.5041354302099263 0.7861782132722153 0
0.4542648033619109 0.7425996541427593 0
0.712726982165847 0.1951139605162082 0
0.2500000000000001 0.08660254037844389 0
0.6126154057939862 0.802820692829181 0
0.6744994511898263 0.7758960176093863 0
0.4978650533544991 0.2834453518854547 0
0.4529548462161745 0.2432664372662033 0
0.9201767266168936 0.7509969154538223 0
0.2544689429611348 0.5851383360772205 0
0.3148195080654733 0.6238323442085776 0
0.2490036300647608 0.6599417641602283 0
0.7683612016954542 0.1716564029614512 0
0.8187563561819737 0.2144950111200092 0
0.3259415079659236 0.7026135138739771 0
0.2428038799992457 0.7399909103976192 0
0.146128358260142 0.9231234002522219 0
0.3775692138229465 0.5872686179247765 0
0.8519806685757952 0.4225814544856005 0
0.8316248983483363 0.1464636618627631 0
0.5129158993664145 0.2225623253559568 0
0.4625484698865033 0.177206982437452 0
0.1970850952305326 0.5440088876736378 0
0.4409622214061061 0.8126781600537892 0
0.4956852704509482 0.856474518265904 0
0.2074793561704932 0.3987632574820259 0
0.2106671829729917 0.3228673922506097 0
0.472172233713187 0.6811806790654978 0
0.7161988596165763 0.1313368826884648 0
0.6500253033129364 0.1740482438887322 0
0.8819663950773817 0.5121286537990396 0
0.3099662162853513 0.7853862989414278 0
0.3857970735400402 0.2111593965326086 0
0.143797984479923 0.363035370853433 0
0.4042860608832761 0.1311645557159471 0
0.670679934230706 0.8492055033849111 0
0.6071528062898393 0.8646093948080175 0
0.7380539580350972 0.8182930360494275 0
0.8105508442668526 0.8508936815631969 0
0.7463989351528749 0.7399590901869061 0
0.2398501872931218 0.8200458159499855 0
0.1631771600349007 0.7750093687131371 0
0.9245078189707463 0.338150762597375 0
0.8837974512366005 0.1949491387705024 0
0.8638988333638566 0.2771707556112157 0
0.8970530323556725 0.5572690265988808 0
0.8645857716625698 0.60283006643189 0
0.8428532621801601 0.6618673500201907 0
0.7845927441039192 0.6786713927309123 0
0.817193781701982 0.7281551102008895 0
0.3223978326750889 0.1494847655051291 0
0.40766949171346 0.6942693181681568 0
0.9079925844672352 0.6638437204352305 0
0.07599357141033514 0.5431904755505521 0
0.9108593316577885 0.8506050858811554 0
0.6539466882412368 0.0862175149688193 0
0.3865602688337063 0.5152102084874491 0
0.4426305840174571 0.5572231312470384 0
0.3795704874052718 0.4465059595156891 0
0.9016136007449792 0.1192410304767954 0
0.09502788326301659 0.1489245005878867 0
0.1638879082484667 0.2060251440490615 0
0.559110422918216 0.2678131168114954 0
0.5776204579158591 0.1997177115121258 0
0.242545382571127 0.9097956805606608 0
0.6822622236181489 0.7075927502129991 0
0.4339595589323506 0.6291091361225708 0
0.9258814674070163 0.4285696888793777 0
0.1515932889700098 0.074569650086804 0
0.5293217762775988 0.6628159675389231 0
0.4378101164891274 0.4212180052158417 0
0.501346524419737 0.5593187317500361 0
0.4816457998340226 0.5155532615211246 0
0.4412026063947609 0.9076279253559109 0
0.5334427398841751 0.3207985989506031 0
0.6435307810785639 0.9248625489104367 0
0.09022504170538242 0.8443123833523263 0
0.1700238304058775 0.6952776821205011 0
0.6628560878862448 0.2687323320852953 0
0.08276409459610989 0.7406563444175913 0
0.5282215102167855 0.1569429681388163 0
0.7973002022415984 0.2762681766237434 0
0.3502805761510052 0.07167440094383315 0
0.2461982242742528 0.1729796742797283 0
0.7548613627614902 0.634147419803881 0
0.8306585192859594 0.3778077105223511 0
0.38482900589203 0.7621551069834709 0
0.3701615624803523 0.8413290412854615 0
0.7946284269298562 0.787339658851706 0
0.2017416787601994 0.471812482205492 0
0.8687232366562965 0.4672889196324345 0
0.1888805629203145 0.6169810303498845 0
0.6235379581051264 0.235080723446452 0
0.3007155796112532 0.2232581117545708 0
0.8493014708600436 0.9243479980907223 0
0.2786626328116322 0.2983845673174439 0
0.5540343255863535 0.8231337879777726 0
0.5456766318190693 0.9155513802214573 0
0.4798641337507638 0.1017543105265584 0
0.6634265821725847 0.6606145029708619 0
0.8532090710868221 0.07142225161552734 0
0.4351254144140406 0.5080390317291016 0
0.9383366742075193 0.2469295202767115 0
0.4034024210471501 0.2731011917807777 0
0.5913930835462329 0.1428394396647322 0
0.1458622202697246 0.2895773103699831 0
0.7825181820914611 0.09746747939997125 0
0.8579884117007353 0.7890270982751156 0
0.577538860741695 0.3128956411468178 0
0.06728296746158174 0.3464033829188168 0
0.3009724548188145 0.8564264715598155 0
0.6708065938628417 0.2217333077480051 0
0.141363890391229 0.5016418708969715 0
0.3719918561000308 0.6474185860596118 0
0.2243322913647202 0.2521820333368996 0
0.9284847587430085 0.9283627381369888 0
0.7356850694140058 0.6904120375259647 0
0.8632442523138236 0.3387935261904028 0
0.7257150618015786 0.06392567727162102 0
0.4765643553733797 0.5967824432189167 0
0.06914381886115417 0.9316776238488225 0
0.07320508075688797 0.0732050807568882 0
0.9395664605605073 0.533798307532015 0
0.1553551791701581 0.4353232552112676 0
0.8792545453106682 0.3811806285350214 0
0.1739408207065986 0.8518334616452612 0
0.4890542822941727 0.6369446748024707 0
0.8715988595783211 0.715252695345858 0
0.9409223386958989 0.0590776613041008 0
0.4268861541570091 0.06091865343726766 0
0.1876878088493508 0.1383703717563443 0
0.4244984679490623 0.4678244397740195 0
0.9379830033844025 0.6082206315490357 0
0.9431380011324166 0.1689631993797998 0
0.9232275119402403 0.4883571139685735 0
0.1397975138595711 0.5691877904170221 0
$EndNodes
$Elements
6 530 1 530
1 1 1 10
1 1 9 
2 9 10 
3 10 11 
4 11 12 
5 12 13 
6 13 14 
7 14 15 
8 15 16 
9 16 17 
10 17 2 
1 2 1 10
11 3 18 
12 18 19 
13 19 20 
14 20 21 
15 21 22 
16 22 23 
17 23 24 
18 24 25 
19 25 26 
20 26 1 
1 3 1 10
21 2 27 
22 27 28 
23 28 29 
24 29 30 
25 30 31 
26 31 32 
27 32 33 
28 33 34 
29 34 35 
30 35 4 
1 4 1 10
31 4 36 
32 36 37 
33 37 38 
34 38 39 
35 39 40 
36 40 41 
37 41 42 
38 42 43 
39 43 44 
40 44 3 
2 2 2 90
41 75 82 70 
42 83 87 65 
43 65 93 83 
44 75 94 82 
45 81 89 67 
46 67 90 81 
47 81 90 69 
48 69 91 81 
49 67 92 86 
50 89 92 67 
51 71 87 83 
52 79 93 84 
53 66 94 80 
54 70 85 75 
55 80 91 66 
56 84 92 79 
57 84 93 65 
58 82 94 66 
59 54 71 53 
60 70 82 48 
61 53 73 52 
62 48 82 47 
63 52 73 68 
64 58 84 57 
65 57 84 65 
66 62 67 61 
67 78 81 80 
68 47 66 46 
69 47 82 66 
70 64 69 63 
71 73 74 68 
72 73 83 74 
73 77 79 78 
74 74 76 75 
75 57 65 56 
76 77 78 76 
77 71 73 53 
78 74 75 68 
79 74 83 77 
80 78 80 76 
81 74 77 76 
82 59 72 58 
83 72 84 58 
84 49 70 48 
85 52 68 51 
86 71 83 73 
87 72 92 84 
88 51 85 50 
89 61 86 60 
90 75 85 68 
91 46 88 45 
92 56 87 55 
93 66 91 88 
94 62 90 67 
95 78 89 81 
96 69 90 63 
97 68 85 51 
98 65 87 56 
99 66 88 46 
100 67 86 61 
101 76 94 75 
102 83 93 77 
103 8 95 59 
104 60 95 8 
105 5 96 64 
106 6 98 49 
107 50 98 6 
108 55 97 7 
109 45 96 5 
110 7 97 54 
111 79 89 78 
112 63 90 62 
113 86 92 72 
114 81 91 80 
115 88 91 69 
116 77 93 79 
117 80 94 76 
118 87 97 55 
119 88 96 45 
120 86 95 60 
121 85 98 50 
122 54 97 71 
123 59 95 72 
124 64 96 69 
125 49 98 70 
126 79 92 89 
127 72 95 86 
128 70 98 85 
129 69 96 88 
130 71 97 87 
2 3 2 400
131 204 218 154 
132 166 168 123 
133 170 247 179 
134 119 224 163 
135 175 233 173 
136 179 180 170 
137 100 201 59 
138 59 201 8 
139 7 200 55 
140 155 204 154 
141 39 228 206 
142 163 234 119 
143 55 200 99 
144 14 186 129 
145 182 217 145 
146 160 223 194 
147 130 212 175 
148 5 212 45 
149 173 248 175 
150 186 235 129 
151 6 177 50 
152 123 206 166 
153 164 240 236 
154 50 177 111 
155 236 240 106 
156 124 226 117 
157 139 183 33 
158 175 248 130 
159 164 254 107 
160 227 228 155 
161 207 210 172 
162 182 197 158 
163 107 240 164 
164 167 228 227 
165 183 263 33 
166 168 169 123 
167 145 217 162 
168 101 222 208 
169 193 223 108 
170 187 188 148 
171 181 214 134 
172 105 218 204 
173 134 213 181 
174 45 212 130 
175 173 233 29 
176 145 244 182 
177 34 185 139 
178 129 229 13 
179 139 258 183 
180 237 249 16 
181 182 244 197 
182 120 212 5 
183 185 225 169 
184 113 200 7 
185 112 196 115 
186 116 189 118 
187 128 187 148 
188 180 219 170 
189 188 203 202 
190 30 173 29 
191 194 235 160 
192 253 263 176 
193 107 184 22 
194 163 224 181 
195 196 230 102 
196 208 210 101 
197 195 256 171 
198 117 226 119 
199 15 186 14 
200 147 256 195 
201 31 265 198 
202 231 237 16 
203 8 201 104 
204 155 228 204 
205 101 266 222 
206 198 221 149 
207 180 258 238 
208 147 195 43 
209 191 192 106 
210 34 139 33 
211 126 189 187 
212 118 189 126 
213 19 210 207 
214 25 191 106 
215 14 129 13 
216 160 242 223 
217 116 201 189 
218 115 196 136 
219 126 187 128 
220 38 123 37 
221 102 247 196 
222 229 260 13 
223 169 225 123 
224 128 148 141 
225 172 256 207 
226 21 184 101 
227 42 105 41 
228 188 197 148 
229 123 225 37 
230 32 263 253 
231 204 228 40 
232 25 106 24 
233 23 107 22 
234 11 134 10 
235 122 200 113 
236 177 178 111 
237 253 265 31 
238 194 223 193 
239 35 185 34 
240 21 101 20 
241 31 198 30 
242 30 198 173 
243 136 196 170 
244 172 210 208 
245 157 226 124 
246 42 195 105 
247 22 184 21 
248 33 263 32 
249 26 191 25 
250 44 147 43 
251 136 170 168 
252 104 201 116 
253 38 206 123 
254 169 238 185 
255 134 199 10 
256 191 261 192 
257 158 200 122 
258 106 240 24 
259 23 240 107 
260 100 262 201 
261 193 205 137 
262 132 158 122 
263 144 212 120 
264 224 245 214 
265 178 179 111 
266 43 195 42 
267 39 206 38 
268 41 204 40 
269 149 255 198 
270 118 126 125 
271 11 213 134 
272 151 193 137 
273 10 199 9 
274 197 244 148 
275 126 128 127 
276 238 258 139 
277 189 262 187 
278 112 230 196 
279 105 204 41 
280 107 243 184 
281 226 245 224 
282 185 238 139 
283 160 235 186 
284 32 253 31 
285 215 247 102 
286 20 210 19 
287 128 141 140 
288 199 261 191 
289 174 175 144 
290 202 250 188 
291 175 212 144 
292 187 232 188 
293 141 145 142 
294 132 182 158 
295 126 127 125 
296 101 210 20 
297 145 162 146 
298 188 232 203 
299 55 99 56 
300 108 239 193 
301 200 257 99 
302 19 207 18 
303 58 100 59 
304 57 203 58 
305 187 262 232 
306 56 202 57 
307 128 140 127 
308 171 172 146 
309 217 218 162 
310 40 228 39 
311 162 171 146 
312 104 116 110 
313 151 194 193 
314 141 244 145 
315 36 246 4 
316 180 238 219 
317 52 102 53 
318 156 157 124 
319 121 122 113 
320 8 103 60 
321 192 236 106 
322 168 219 169 
323 193 239 205 
324 145 146 142 
325 4 246 35 
326 141 142 140 
327 163 181 165 
328 115 136 135 
329 54 112 7 
330 18 251 3 
331 1 252 26 
332 9 252 1 
333 116 118 117 
334 60 205 61 
335 146 208 142 
336 12 213 11 
337 3 251 44 
338 118 125 124 
339 231 259 190 
340 184 266 101 
341 62 108 63 
342 136 168 166 
343 133 160 159 
344 63 209 64 
345 51 215 52 
346 131 132 122 
347 140 153 127 
348 172 208 146 
349 64 114 5 
350 16 249 15 
351 156 164 157 
352 53 230 54 
353 138 163 152 
354 118 124 117 
355 125 156 124 
356 109 137 103 
357 181 213 165 
358 99 202 56 
359 181 224 214 
360 27 264 190 
361 116 117 110 
362 8 104 103 
363 58 203 100 
364 131 155 154 
365 202 203 57 
366 143 144 120 
367 17 231 16 
368 138 151 137 
369 37 225 36 
370 17 259 231 
371 121 131 122 
372 117 119 110 
373 131 154 132 
374 178 180 179 
375 50 111 51 
376 179 215 111 
377 104 110 109 
378 45 130 46 
379 112 113 7 
380 119 226 224 
381 185 246 225 
382 179 247 215 
383 13 260 12 
384 136 166 135 
385 170 219 168 
386 188 250 197 
387 174 233 175 
388 127 220 125 
389 163 165 152 
390 46 216 47 
391 133 242 160 
392 114 120 5 
393 151 211 194 
394 132 217 182 
395 166 167 135 
396 115 121 113 
397 47 149 48 
398 138 152 151 
399 214 245 192 
400 104 109 103 
401 103 205 60 
402 125 220 156 
403 208 222 142 
404 154 218 217 
405 150 231 190 
406 160 186 159 
407 166 206 167 
408 150 174 144 
409 115 135 121 
410 196 247 170 
411 102 230 53 
412 109 138 137 
413 150 190 174 
414 176 177 6 
415 177 183 178 
416 112 115 113 
417 171 241 195 
418 48 221 49 
419 54 230 112 
420 153 220 127 
421 52 215 102 
422 198 255 173 
423 197 257 158 
424 154 217 132 
425 195 241 105 
426 133 143 120 
427 29 233 28 
428 142 222 140 
429 148 244 141 
430 15 249 186 
431 137 205 103 
432 61 239 62 
433 143 150 144 
434 138 234 163 
435 164 236 157 
436 152 211 151 
437 140 222 153 
438 49 161 6 
439 108 209 63 
440 190 259 27 
441 35 246 185 
442 64 209 114 
443 24 240 23 
444 114 133 120 
445 133 159 143 
446 199 252 9 
447 28 264 27 
448 205 239 61 
449 203 232 100 
450 207 256 147 
451 157 245 226 
452 198 265 221 
453 26 252 191 
454 131 227 155 
455 108 223 209 
456 62 239 108 
457 176 263 177 
458 111 215 51 
459 119 234 110 
460 44 251 147 
461 134 261 199 
462 191 252 199 
463 121 227 131 
464 167 227 135 
465 211 229 129 
466 162 241 171 
467 236 245 157 
468 156 254 164 
469 165 229 152 
470 110 234 109 
471 2 259 17 
472 27 259 2 
473 211 235 194 
474 152 229 211 
475 135 227 121 
476 177 263 183 
477 218 241 162 
478 130 216 46 
479 150 237 231 
480 161 176 6 
481 105 241 218 
482 109 234 138 
483 213 260 165 
484 147 251 207 
485 47 216 149 
486 12 260 213 
487 214 261 134 
488 201 262 189 
489 129 235 211 
490 143 237 150 
491 219 238 169 
492 192 245 236 
493 207 251 18 
494 149 221 48 
495 159 237 143 
496 158 257 200 
497 171 256 172 
498 153 243 220 
499 186 249 159 
500 99 250 202 
501 49 221 161 
502 174 264 233 
503 250 257 197 
504 192 261 214 
505 225 246 36 
506 223 242 209 
507 114 242 133 
508 209 242 114 
509 220 254 156 
510 130 248 216 
511 161 253 176 
512 153 266 243 
513 178 258 180 
514 183 258 178 
515 159 249 237 
516 243 254 220 
517 243 266 184 
518 99 257 250 
519 190 264 174 
520 232 262 100 
521 233 264 28 
522 165 260 229 
523 222 266 153 
524 107 254 243 
525 216 255 149 
526 248 255 216 
527 161 265 253 
528 221 265 161 
529 173 255 248 
530 206 228 167 
$EndElements
