$MeshFormat
4.1 0 8
$EndMeshFormat
$PhysicalNames
3
1 101 "outer_boundary"
2 1 "material_1"
2 2 "material_2"
$EndPhysicalNames
$Entities
7 7 2 0
1 0 0 0 0 
2 1 0 0 0 
3 0 1 0 0 
4 1 1 0 0 
5 0.6019443289126005 0.6348513425850718 0 0 
6 0.7366484048571227 0.3944513226993477 0 0 
7 0.8774888911761829 0.6313084844034744 0 0 
1 -9.999999994736442e-08 -1e-07 -1e-07 1.0000001 1e-07 1e-07 1 101 2 1 -2 
2 -1e-07 -9.999999994736442e-08 -1e-07 1e-07 1.0000001 1e-07 1 101 2 3 -1 
3 0.9999999000000001 -9.999999994736442e-08 -1e-07 1.0000001 1.0000001 1e-07 1 101 2 2 -4 
4 -9.999999994736442e-08 0.9999999000000001 -1e-07 1.0000001 1.0000001 1e-07 1 101 2 4 -3 
5 0.6019442289126006 0.3944512226993477 -1e-07 0.7366485048571226 0.6348514425850718 1e-07 0 2 5 -6 
6 0.7366483048571227 0.3944512226993477 -1e-07 0.8774889911761828 0.6313085844034744 1e-07 0 2 6 -7 
7 0.6019442289126006 0.6313083844034745 -1e-07 0.8774889911761828 0.6348514425850718 1e-07 0 2 7 -5 
2 0.6019442289126006 0.3944512226993477 -1e-07 0.8774889911761828 0.6348514425850718 1e-07 1 2 3 5 6 7 
3 -9.999999994736442e-08 -9.999999994736442e-08 -1e-07 1.0000001 1.0000001 1e-07 1 1 7 1 3 4 2 -5 -7 -6 
$EndEntities
$Nodes
16 137 1 137
0 1 0 1
1
0 0 0
0 2 0 1
2
1 0 0
0 3 0 1
3
0 1 0
0 4 0 1
4
1 1 0
0 5 0 1
5
0.6019443289126005 0.6348513425850718 0
0 6 0 1
6
0.7366484048571227 0.3944513226993477 0
0 7 0 1
7
0.8774888911761829 0.6313084844034744 0
1 1 0 7
8
9
10
11
12
13
14
0.1249999999999999 0 0
0.2499999999999998 0 0
0.3749999999999993 0 0
0.4999999999999988 0 0
0.6249999999999988 0 0
0.7499999999999991 0 0
0.8749999999999997 0 0
1 2 0 7
15
16
17
18
19
20
21
0 0.8750000000000001 0
0 0.7500000000000002 0
0 0.6250000000000007 0
0 0.5000000000000012 0
0 0.3750000000000012 0
0 0.2500000000000009 0
0 0.1250000000000003 0
1 3 0 7
22
23
24
25
26
27
28
1 0.1249999999999999 0
1 0.2499999999999998 0
1 0.3749999999999993 0
1 0.4999999999999988 0
1 0.6249999999999988 0
1 0.7499999999999991 0
1 0.8749999999999997 0
1 4 0 7
29
30
31
32
33
34
35
0.8750000000000001 1 0
0.7500000000000002 1 0
0.6250000000000007 1 0
0.5000000000000012 1 0
0.3750000000000012 1 0
0.2500000000000009 1 0
0.1250000000000003 1 0
1 5 0 3
36
37
38
0.6356203478987311 0.5747513376136407 0
0.6692963668848617 0.5146513326422096 0
0.7029723858709922 0.4545513276707787 0
1 6 0 3
39
40
41
0.7718585264368878 0.4536656131253795 0
0.8070686480166529 0.5128799035514112 0
0.8422787695964179 0.5720941939774429 0
1 7 0 3
42
43
44
0.8086027506102872 0.6321941989488737 0
0.7397166100443915 0.6330799134942732 0
0.670830469478496 0.6339656280396725 0
2 2 0 3
45
46
47
0.7045064884646267 0.5738656230682414 0
0.7733926290305222 0.5729799085228421 0
0.7381825074507572 0.5137656180968104 0
2 3 0 90
48
49
50
51
52
53
54
55
56
57
58
59
60
61
62
63
64
65
66
67
68
69
70
71
72
73
74
75
76
77
78
79
80
81
82
83
84
85
86
87
88
89
90
91
92
93
94
95
96
97
98
99
100
101
102
103
104
105
106
107
108
109
110
111
112
113
114
115
116
117
118
119
120
121
122
123
124
125
126
127
128
129
130
131
132
133
134
135
136
137
0.6005959398045804 0.5189237772147138 0
0.1011607669573666 0.68408681868259 0
0.1028643579805896 0.4310450531969831 0
0.4390003907706546 0.1019710526668887 0
0.6663112314815426 0.3960413140930841 0
0.7017332626545323 0.3299084720085287 0
0.703779046401096 0.6979262947229217 0
0.4323339738274546 0.8812719032943462 0
0.6214093756285867 0.3331886311685578 0
0.8473647339745278 0.7052330955147159 0
0.6629907428755668 0.2583280610571502 0
0.749857562827363 0.2594128857601447 0
0.1105441611815814 0.1868828522057034 0
0.8055345454230183 0.3935656081539484 0
0.5766940307668206 0.2592846767164272 0
0.5373097280508004 0.3380245062212798 0
0.6768277646306901 0.8937532580221552 0
0.1871452999292158 0.901144675532165 0
0.4868310729379215 0.2623425950954651 0
0.4426624768538789 0.3496400305750796 0
0.3884535304401628 0.2667627434100484 0
0.3420549723216808 0.354726209440273 0
0.4006438094230755 0.4367062580409988 0
0.2933264796021464 0.4488093358372262 0
0.3577587329872768 0.5304105846750894 0
0.24661634488504 0.5422824294839623 0
0.3136631913451091 0.6210760520105031 0
0.4157384485819031 0.6135228508233226 0
0.3740355435842649 0.7012291247884572 0
0.4768401020378855 0.693617155652443 0
0.286145185885238 0.2679600488243895 0
0.7161615770946261 0.1771155508792863 0
0.8074626213183964 0.1814507056076178 0
0.2764544938841808 0.7153385761715914 0
0.8376471385801618 0.2931147647172613 0
0.3367410902836298 0.798619483502253 0
0.8918654468425391 0.7960055185128099 0
0.499876129997903 0.5998856425285353 0
0.4504644368964982 0.5237594559703955 0
0.4990337268199809 0.4396979520070294 0
0.866822396044943 0.5123966117704636 0
0.5564097500387912 0.8952630319814819 0
0.6204949587738088 0.794633729102844 0
0.5142794995799456 0.7989217915115534 0
0.7219351354366609 0.7913631025547534 0
0.7879008447413559 0.8591061305868199 0
0.5671595794506722 0.721720844221273 0
0.3441763598480392 0.1783442046582627 0
0.1225087175748873 0.5539958061643638 0
0.5239875230795202 0.1826257713559936 0
0.5869201292319565 0.4055188383959693 0
0.1018991114325758 0.3137457141211446 0
0.2135675352429875 0.3669077691230874 0
0.1147337681920786 0.8086009158241796 0
0.2386300117890634 0.1759526660565929 0
0.2075712434555128 0.641875225971654 0
0.6371544504923654 0.6940656330111035 0
0.7719576158069579 0.7046136220792065 0
0.90828923131763 0.203466098521612 0
0.8042047553604084 0.7712642938496612 0
0.3091302464447084 0.9040720809715469 0
0.6314067527623668 0.459972545047711 0
0.8450136314408788 0.4518928296208596 0
0.8923414775210755 0.3793556376378628 0
0.919907507044015 0.5489699789104697 0
0.9233438143986499 0.7015094196861996 0
0.4281493090132579 0.7729655228177572 0
0.6244876710737794 0.1752518169570033 0
0.5659734735362659 0.09022760357957171 0
0.5699829727400031 0.5796287272205871 0
0.7662841828684397 0.3340906106678462 0
0.5303829449265388 0.5220073725351286 0
0.683365256293644 0.08151698049754502 0
0.2348714741367177 0.8103745675531082 0
0.8939870101254621 0.1010435207419508 0
0.1959563746209925 0.465930812559286 0
0.1876743985568581 0.08357028059477667 0
0.8764293031634615 0.9056297771914992 0
0.5434486911086051 0.6618273054380841 0
0.1906384298861283 0.2641009121757275 0
0.9329985642358474 0.3095400400236678 0
0.3107421022909121 0.08015596431982275 0
0.436334153624971 0.1935676927394817 0
0.7876627441386879 0.09018779295440005 0
0.1869583493251712 0.7320552208406246 0
0.6719433891575999 0.7490837164134848 0
0.09150635094610998 0.9084936490538902 0
0.08949121771573704 0.08867061144944166 0
0.9206808353418187 0.4612691763232756 0
0.5660809099374189 0.4696769541320615 0
$EndNodes
$Elements
6 272 1 272
1 1 1 8
1 1 8 
2 8 9 
3 9 10 
4 10 11 
5 11 12 
6 12 13 
7 13 14 
8 14 2 
1 2 1 8
9 3 15 
10 15 16 
11 16 17 
12 17 18 
13 18 19 
14 19 20 
15 20 21 
16 21 1 
1 3 1 8
17 2 22 
18 22 23 
19 23 24 
20 24 25 
21 25 26 
22 26 27 
23 27 28 
24 28 4 
1 4 1 8
25 4 29 
26 29 30 
27 30 31 
28 31 32 
29 32 33 
30 33 34 
31 34 35 
32 35 3 
2 2 2 16
33 44 5 36 
34 38 6 39 
35 41 7 42 
36 45 46 43 
37 44 45 43 
38 45 47 46 
39 46 47 40 
40 36 45 44 
41 37 47 45 
42 37 45 36 
43 40 47 39 
44 38 47 37 
45 39 47 38 
46 42 46 41 
47 43 46 42 
48 41 46 40 
2 3 2 224
49 61 118 82 
50 22 122 2 
51 73 103 96 
52 96 123 73 
53 2 122 14 
54 82 111 61 
55 54 105 92 
56 69 100 78 
57 93 125 30 
58 89 90 64 
59 57 113 84 
60 71 100 69 
61 51 116 97 
62 84 107 57 
63 70 87 86 
64 63 87 67 
65 83 114 55 
66 4 125 28 
67 11 116 51 
68 77 94 91 
69 55 108 83 
70 63 98 87 
71 70 86 72 
72 30 125 29 
73 7 112 26 
74 31 89 64 
75 88 136 112 
76 26 113 7 
77 29 125 4 
78 94 104 90 
79 67 87 70 
80 96 103 49 
81 105 107 92 
82 55 91 89 
83 55 114 91 
84 75 85 77 
85 90 92 64 
86 104 133 90 
87 52 98 56 
88 89 91 90 
89 17 96 49 
90 72 86 75 
91 64 93 30 
92 55 89 32 
93 5 104 94 
94 91 94 90 
95 84 113 27 
96 28 84 27 
97 56 98 63 
98 31 64 30 
99 33 55 32 
100 92 133 54 
101 19 99 50 
102 99 100 50 
103 75 77 76 
104 33 108 55 
105 75 86 85 
106 100 127 78 
107 93 107 84 
108 50 96 18 
109 72 75 74 
110 94 126 5 
111 91 114 77 
112 11 51 10 
113 32 89 31 
114 50 123 96 
115 17 49 16 
116 19 50 18 
117 14 131 13 
118 122 131 14 
119 95 129 51 
120 18 96 17 
121 67 70 69 
122 60 99 20 
123 5 126 117 
124 26 112 25 
125 106 122 22 
126 20 99 19 
127 124 129 102 
128 28 125 84 
129 35 65 34 
130 87 119 86 
131 75 76 74 
132 21 60 20 
133 49 101 16 
134 101 121 65 
135 92 107 93 
136 65 121 108 
137 65 108 34 
138 102 129 95 
139 86 119 85 
140 52 109 98 
141 51 129 10 
142 70 72 71 
143 106 128 82 
144 70 71 69 
145 101 132 121 
146 115 120 79 
147 16 101 15 
148 108 121 83 
149 112 136 25 
150 71 123 100 
151 77 126 94 
152 116 120 115 
153 60 124 102 
154 72 74 73 
155 80 82 59 
156 76 83 81 
157 92 93 64 
158 56 63 62 
159 82 118 59 
160 82 128 111 
161 36 48 37 
162 12 116 11 
163 72 73 71 
164 74 103 73 
165 67 69 68 
166 63 67 66 
167 38 52 6 
168 90 133 92 
169 85 119 117 
170 27 113 26 
171 81 103 74 
172 76 81 74 
173 85 126 77 
174 117 126 85 
175 78 95 68 
176 69 78 68 
177 37 109 38 
178 80 106 82 
179 8 135 1 
180 78 102 95 
181 3 134 35 
182 15 134 3 
183 43 54 44 
184 1 135 21 
185 67 68 66 
186 44 104 5 
187 51 130 95 
188 63 66 62 
189 34 108 33 
190 84 125 93 
191 73 123 71 
192 103 132 49 
193 66 97 62 
194 23 106 22 
195 56 62 58 
196 48 109 37 
197 60 127 99 
198 23 128 106 
199 99 127 100 
200 52 53 6 
201 97 130 51 
202 38 109 52 
203 60 135 124 
204 52 56 53 
205 6 61 39 
206 79 80 59 
207 5 117 36 
208 76 114 83 
209 56 58 53 
210 77 114 76 
211 36 117 48 
212 42 105 43 
213 39 110 40 
214 58 59 53 
215 58 79 59 
216 13 120 12 
217 100 123 50 
218 49 132 101 
219 24 136 111 
220 81 132 103 
221 102 127 60 
222 54 104 44 
223 40 88 41 
224 97 116 115 
225 95 130 68 
226 83 121 81 
227 98 137 87 
228 97 115 62 
229 25 136 24 
230 9 129 124 
231 79 131 80 
232 111 128 24 
233 117 119 48 
234 7 57 42 
235 9 124 8 
236 101 134 15 
237 24 128 23 
238 62 115 58 
239 80 122 106 
240 10 129 9 
241 41 112 7 
242 120 131 79 
243 43 105 54 
244 58 115 79 
245 35 134 65 
246 87 137 119 
247 48 137 109 
248 66 130 97 
249 21 135 60 
250 65 134 101 
251 78 127 102 
252 110 136 88 
253 53 118 6 
254 57 107 105 
255 7 113 57 
256 61 110 39 
257 111 136 110 
258 68 130 66 
259 59 118 53 
260 61 111 110 
261 6 118 61 
262 109 137 98 
263 12 120 116 
264 40 110 88 
265 57 105 42 
266 13 131 120 
267 121 132 81 
268 80 131 122 
269 54 133 104 
270 88 112 41 
271 119 137 48 
272 124 135 8 
$EndElements
