$MeshFormat
4.1 0 8
$EndMeshFormat
$PhysicalNames
3
1 101 "outer_boundary"
2 1 "material_1"
2 2 "material_2"
$EndPhysicalNames
$Entities
7 7 2 0
1 0 0 0 0 
2 1 0 0 0 
3 0 1 0 0 
4 1 1 0 0 
5 0.6030092989905612 0.2043671905096815 0 0 
6 0.8427518118261268 0.4207036636837077 0 0 
7 0.5355276738745065 0.5201585335794112 0 0 
1 -9.999999994736442e-08 -1e-07 -1e-07 1.0000001 1e-07 1e-07 1 101 2 1 -2 
2 -1e-07 -9.999999994736442e-08 -1e-07 1e-07 1.0000001 1e-07 1 101 2 3 -1 
3 0.9999999000000001 -9.999999994736442e-08 -1e-07 1.0000001 1.0000001 1e-07 1 101 2 2 -4 
4 -9.999999994736442e-08 0.9999999000000001 -1e-07 1.0000001 1.0000001 1e-07 1 101 2 4 -3 
5 0.6030091989905613 0.2043670905096815 -1e-07 0.8427519118261267 0.4207037636837077 1e-07 0 2 5 -6 
6 0.5355275738745066 0.4207035636837077 -1e-07 0.8427519118261267 0.5201586335794112 1e-07 0 2 6 -7 
7 0.5355275738745066 0.2043670905096814 -1e-07 0.6030093989905612 0.5201586335794112 1e-07 0 2 7 -5 
2 0.5355275738745066 0.2043670905096814 -1e-07 0.8427519118261267 0.5201586335794112 1e-07 1 2 3 5 6 7 
3 -9.999999994736442e-08 -9.999999994736442e-08 -1e-07 1.0000001 1.0000001 1e-07 1 1 7 1 3 4 2 -5 -7 -6 
$EndEntities
$Nodes
16 221 1 221
0 1 0 1
1
0 0 0
0 2 0 1
2
1 0 0
0 3 0 1
3
0 1 0
0 4 0 1
4
1 1 0
0 5 0 1
5
0.6030092989905612 0.2043671905096815 0
0 6 0 1
6
0.8427518118261268 0.4207036636837077 0
0 7 0 1
7
0.5355276738745065 0.5201585335794112 0
1 1 0 9
8
9
10
11
12
13
14
15
16
0.09999999999999996 0 0
0.1999999999999999 0 0
0.3000000000000001 0 0
0.4000000000000004 0 0
0.5000000000000003 0 0
0.5999999999999999 0 0
0.6999999999999995 0 0
0.7999999999999992 0 0
0.899999999999999 0 0
1 2 0 9
17
18
19
20
21
22
23
24
25
0 0.9 0
0 0.8 0
0 0.7 0
0 0.5999999999999996 0
0 0.4999999999999997 0
0 0.4000000000000001 0
0 0.3000000000000005 0
0 0.2000000000000008 0
0 0.100000000000001 0
1 3 0 9
26
27
28
29
30
31
32
33
34
1 0.09999999999999996 0
1 0.1999999999999999 0
1 0.3000000000000001 0
1 0.4000000000000004 0
1 0.5000000000000003 0
1 0.5999999999999999 0
1 0.6999999999999995 0
1 0.7999999999999992 0
1 0.899999999999999 0
1 4 0 9
35
36
37
38
39
40
41
42
43
0.9 1 0
0.8 1 0
0.7 1 0
0.5999999999999996 1 0
0.4999999999999997 1 0
0.4000000000000001 1 0
0.3000000000000005 1 0
0.2000000000000008 1 0
0.100000000000001 1 0
1 5 0 5
44
45
46
47
48
0.6429663844631556 0.2404232693720192 0
0.6829234699357499 0.276479348234357 0
0.7228805554083442 0.3125354270966947 0
0.7628376408809385 0.3485915059590325 0
0.8027947263535329 0.3846475848213702 0
1 6 0 5
49
50
51
52
53
0.7915477888341902 0.4372794753329916 0
0.7403437658422535 0.4538552869822755 0
0.6891397428503169 0.4704310986315594 0
0.6379357198583802 0.4870069102808433 0
0.5867316968664433 0.5035827219301272 0
1 7 0 5
54
55
56
57
58
0.546774611393849 0.4675266430677897 0
0.5580215489131913 0.4148947525561681 0
0.5692684864325338 0.3622628620445466 0
0.5805154239518763 0.309630971532925 0
0.5917623614712187 0.2569990810213032 0
2 2 0 10
59
60
61
62
63
64
65
66
67
68
0.6204725094244706 0.3456870503952626 0
0.7003866803696592 0.4177992081199379 0
0.5979786343857858 0.4509508314185057 0
0.7515907033615959 0.401223396470654 0
0.6716765324164075 0.3291112387459786 0
0.6317194469438131 0.2930551598836409 0
0.660429594897065 0.3817431292576002 0
0.7116336178890017 0.3651673176083163 0
0.6491826573777225 0.4343750197692218 0
0.6092255719051282 0.3983189409068841 0
2 3 0 153
69
70
71
72
73
74
75
76
77
78
79
80
81
82
83
84
85
86
87
88
89
90
91
92
93
94
95
96
97
98
99
100
101
102
103
104
105
106
107
108
109
110
111
112
113
114
115
116
117
118
119
120
121
122
123
124
125
126
127
128
129
130
131
132
133
134
135
136
137
138
139
140
141
142
143
144
145
146
147
148
149
150
151
152
153
154
155
156
157
158
159
160
161
162
163
164
165
166
167
168
169
170
171
172
173
174
175
176
177
178
179
180
181
182
183
184
185
186
187
188
189
190
191
192
193
194
195
196
197
198
199
200
201
202
203
204
205
206
207
208
209
210
211
212
213
214
215
216
217
218
219
220
221
0.5184556524476162 0.3765986458461628 0
0.6312601991892399 0.539086804539292 0
0.08082002993366849 0.6441995024898614 0
0.08188990269793217 0.3379465364782787 0
0.4494415935850377 0.9203630007948297 0
0.7508932650358735 0.9175293900943561 0
0.5485201372011137 0.221700708096931 0
0.7831921818566332 0.4855679881524104 0
0.4949880615145402 0.4827638796637045 0
0.4851977136847759 0.5410703310366818 0
0.4379161101571022 0.4975600612182856 0
0.4249807818797888 0.5602122172214872 0
0.3751004744335474 0.5171412523514866 0
0.4766460578833873 0.6038247511894201 0
0.4124193196718617 0.6260114157898393 0
0.7342039414543147 0.2598188168815139 0
0.39082292647235 0.4503401457159381 0
0.3583356771660002 0.08861071734115689 0
0.2607578840839741 0.9193687001075126 0
0.3241513003260675 0.4705365972726588 0
0.3412556184292517 0.4013337140697794 0
0.4652200282041853 0.6707911263845503 0
0.3075371721328235 0.5404504953672934 0
0.4036222919285102 0.701801454640876 0
0.9175075876930204 0.6675218955063463 0
0.8150855442485392 0.3308588736373504 0
0.6586440842472892 0.1855944590821165 0
0.2522321928319568 0.4903668553216223 0
0.5309198212878217 0.6451838924475495 0
0.5205881927182744 0.7140645528719078 0
0.5881273061356613 0.6874514576382049 0
0.5782396697937225 0.760873274355307 0
0.6468558068335928 0.7310283898609806 0
0.5578692038879268 0.159931386058901 0
0.5000819790111857 0.1820180229964878 0
0.4899825525962977 0.2462216798903298 0
0.07769978079095141 0.1498992817131062 0
0.8510260970219719 0.09742084393308964 0
0.436395999289991 0.205876611950604 0
0.4278512459659136 0.2762682316028601 0
0.3669347169805526 0.2407043203063652 0
0.6537688481990694 0.6477191854642601 0
0.7155083474571674 0.7000396603895455 0
0.7249418511959966 0.6276842314558926 0
0.23545636627851 0.5654417330333228 0
0.1738405286567864 0.514102675178672 0
0.9056012702761874 0.84612199630075 0
0.6429756608963854 0.8076289342476233 0
0.08457617459695188 0.8504908371239883 0
0.2925044159660594 0.6132013055966841 0
0.9131716490173811 0.2555546891672538 0
0.2202812251390301 0.6441006474057765 0
0.2781779509364857 0.6947157665221451 0
0.2003977672694972 0.7257975713615569 0
0.1960749148557213 0.4318787292559224 0
0.4885805826105785 0.7876681776541603 0
0.7840177223383756 0.672833654368709 0
0.7742399192357552 0.7609948923212004 0
0.79478269374641 0.5972549961865335 0
0.921390401517362 0.3405022104536319 0
0.4058673542497723 0.385620811579686 0
0.2614199031781476 0.7798321250431208 0
0.4435042688507797 0.137549729936767 0
0.3648306768443121 0.3228704757526051 0
0.2954347749729299 0.2760368280612201 0
0.3029935347498983 0.1749818660630081 0
0.2251434730982745 0.2312043119102398 0
0.2231297499843437 0.1486777501729013 0
0.2244503655721581 0.3101912683977517 0
0.09935497490950562 0.4405885410710717 0
0.6505346074849521 0.07534625037673703 0
0.7324298838913923 0.5607951210229718 0
0.7427302519191201 0.09035203079174403 0
0.785188029151083 0.1659787468995545 0
0.08561765062914345 0.5480965183123664 0
0.4852198455533066 0.3155984805033076 0
0.9203690839321005 0.7537657962800879 0
0.9361681875871313 0.4666668540715502 0
0.9256963035324588 0.5347946443012034 0
0.1494472221767644 0.2758479891851572 0
0.353319594529079 0.9173481681797586 0
0.3992752822589903 0.8328428872295783 0
0.5597223128937437 0.08088234709928621 0
0.5875123317989838 0.6166161752390584 0
0.5437042247808767 0.9213134742788852 0
0.6459378901931435 0.9024789242186049 0
0.1001157682965316 0.7436318905914028 0
0.17359888916428 0.8103632376296197 0
0.8720445890948798 0.4800254531490454 0
0.9255029368816639 0.1545301126006342 0
0.6755606510865542 0.5839457067346241 0
0.4502119544225899 0.4360301643816734 0
0.5326067770459411 0.5797075172864592 0
0.8471850007343165 0.9214885185424272 0
0.8079798943646124 0.845586497350835 0
0.7241822324314678 0.1570084921380346 0
0.6811297200044049 0.5238568593005153 0
0.3398315320870602 0.7523162486932682 0
0.161759705668426 0.9076022885412899 0
0.6980496360549538 0.2210987340463224 0
0.4554492619850832 0.7289988286546201 0
0.5389342352000354 0.2778424757661323 0
0.1545881723580213 0.08858326364867819 0
0.1586981917929123 0.5956715028737832 0
0.3611751086993579 0.5837121089139903 0
0.721133665501009 0.8339684106540628 0
0.8571990824478136 0.3660165221630852 0
0.7753151802596603 0.2945958713790198 0
0.8329493917915198 0.2730740463805661 0
0.8520833674008503 0.5583253978276996 0
0.5070841051273407 0.4297504446004652 0
0.2731954411284589 0.4221683641089085 0
0.5672638421268072 0.8360864736050955 0
0.2886333409652838 0.3515737911511624 0
0.3816328394074444 0.1695446491195802 0
0.7301562875412833 0.5044481876953774 0
0.8492583731972028 0.7145775074533945 0
0.267897250192327 0.07626955816215003 0
0.6171835120135658 0.1404058736935804 0
0.07291953964123682 0.2465099474019672 0
0.3161763275892998 0.8404504699872943 0
0.1523331150666398 0.1933889940176551 0
0.5361416742709352 0.3277790687758509 0
0.5057561410324243 0.1251759116570659 0
0.4644954503334583 0.3721611440272358 0
0.3479551032148892 0.6619597166928004 0
0.4676029405184852 0.06549807219388765 0
0.8495334633225154 0.6339936461005585 0
0.9002947696787309 0.4084656435488241 0
0.700142679984782 0.7667320574946825 0
0.5838736561703384 0.5574471385824484 0
0.7891765337436403 0.2336225936428535 0
0.7461600745670919 0.2075054767216558 0
0.4896531050724581 0.8596548027125097 0
0.8556359170247079 0.1988045398200865 0
0.7877031110003334 0.5435614146723915 0
0.8679592138045231 0.3132012683603775 0
0.1619931247474351 0.3583045970225562 0
0.8514897082011716 0.7842093379412536 0
0.152062596486328 0.6706802229444762 0
0.926794919243112 0.07320508075688781 0
0.9267949192431122 0.926794919243112 0
0.4296529145893526 0.3345038286931389 0
0.07320508075688781 0.9267949192431124 0
0.07284620833139532 0.07382666603127663 0
0.824186159054212 0.4660487951474888 0
0.823248763261768 0.5094966562174063 0
0.4121756256854227 0.7635664657593877 0
0.6760426732720022 0.1329604519845982 0
0.2288694374538114 0.3748233499872602 0
0.6279664618397329 0.5872820601405435 0
0.2401799110768859 0.8461983256847965 0
0.9089641443897689 0.5989271167471615 0
$EndNodes
$Elements
6 440 1 440
1 1 1 10
1 1 8 
2 8 9 
3 9 10 
4 10 11 
5 11 12 
6 12 13 
7 13 14 
8 14 15 
9 15 16 
10 16 2 
1 2 1 10
11 3 17 
12 17 18 
13 18 19 
14 19 20 
15 20 21 
16 21 22 
17 22 23 
18 23 24 
19 24 25 
20 25 1 
1 3 1 10
21 2 26 
22 26 27 
23 27 28 
24 28 29 
25 29 30 
26 30 31 
27 31 32 
28 32 33 
29 33 34 
30 34 4 
1 4 1 10
31 4 35 
32 35 36 
33 36 37 
34 37 38 
35 38 39 
36 39 40 
37 40 41 
38 41 42 
39 42 43 
40 43 3 
2 2 2 36
41 54 53 7 
42 6 49 48 
43 5 44 58 
44 57 64 59 
45 48 62 47 
46 58 64 57 
47 61 68 67 
48 56 68 55 
49 59 64 63 
50 63 66 65 
51 49 62 48 
52 47 66 46 
53 54 61 53 
54 65 66 60 
55 61 67 52 
56 55 61 54 
57 45 64 44 
58 63 65 59 
59 60 66 62 
60 44 64 58 
61 63 64 45 
62 65 68 59 
63 51 67 60 
64 57 59 56 
65 60 67 65 
66 51 60 50 
67 53 61 52 
68 55 68 61 
69 46 63 45 
70 59 68 56 
71 67 68 65 
72 62 66 47 
73 50 62 49 
74 46 66 63 
75 52 67 51 
76 60 62 50 
2 3 2 364
77 22 138 21 
78 150 216 124 
79 86 195 131 
80 134 186 86 
81 6 197 157 
82 72 138 22 
83 124 202 150 
84 86 183 134 
85 108 132 109 
86 138 143 21 
87 122 156 155 
88 106 203 142 
89 138 206 123 
90 136 186 134 
91 154 181 116 
92 11 195 86 
93 132 133 109 
94 72 206 138 
95 116 174 154 
96 131 183 86 
97 29 197 128 
98 121 194 166 
99 166 194 92 
100 155 208 122 
101 7 161 78 
102 179 193 69 
103 14 141 139 
104 28 128 119 
105 153 181 154 
106 78 161 82 
107 154 174 74 
108 155 156 117 
109 171 186 136 
110 158 203 106 
111 136 190 171 
112 37 154 74 
113 160 193 179 
114 9 186 171 
115 146 197 29 
116 106 142 141 
117 157 214 6 
118 151 187 102 
119 163 174 126 
120 32 145 93 
121 114 143 138 
122 174 198 126 
123 157 197 146 
124 141 217 139 
125 162 163 115 
126 166 216 150 
127 163 207 115 
128 29 128 28 
129 149 150 73 
130 112 140 127 
131 150 202 73 
132 14 139 13 
133 139 187 151 
134 28 119 27 
135 79 160 77 
136 128 205 119 
137 40 149 73 
138 110 159 112 
139 99 152 110 
140 147 157 146 
141 32 93 31 
142 145 185 93 
143 110 219 159 
144 171 190 105 
145 156 167 117 
146 71 155 19 
147 106 141 15 
148 108 211 132 
149 150 189 166 
150 164 168 95 
151 153 154 38 
152 73 153 39 
153 104 170 144 
154 156 220 167 
155 11 86 10 
156 31 147 30 
157 31 221 147 
158 119 158 27 
159 82 161 97 
160 20 143 71 
161 15 141 14 
162 97 152 99 
163 115 145 33 
164 38 154 37 
165 40 73 39 
166 139 151 13 
167 142 164 141 
168 104 144 108 
169 85 160 79 
170 37 74 36 
171 20 71 19 
172 30 147 146 
173 23 72 22 
174 33 145 32 
175 112 159 140 
176 72 188 148 
177 152 219 110 
178 99 110 101 
179 87 149 41 
180 13 151 12 
181 159 165 140 
182 142 203 200 
183 39 153 38 
184 41 149 40 
185 200 203 177 
186 16 106 15 
187 18 155 117 
188 21 143 20 
189 129 160 85 
190 19 155 18 
191 71 208 155 
192 151 195 12 
193 144 191 69 
194 110 112 111 
195 143 172 71 
196 34 115 33 
197 164 217 141 
198 93 221 31 
199 42 87 41 
200 112 127 125 
201 25 105 24 
202 114 172 143 
203 170 191 144 
204 70 165 159 
205 74 162 36 
206 30 146 29 
207 18 117 17 
208 89 129 85 
209 76 204 184 
210 97 161 152 
211 87 189 149 
212 23 188 72 
213 27 158 26 
214 105 190 188 
215 192 195 151 
216 82 97 90 
217 119 205 177 
218 133 134 109 
219 69 193 144 
220 36 162 35 
221 97 99 98 
222 133 137 135 
223 134 183 109 
224 167 220 87 
225 43 167 42 
226 185 196 93 
227 160 179 77 
228 91 118 113 
229 110 111 101 
230 74 163 162 
231 177 203 119 
232 105 188 24 
233 132 182 133 
234 118 194 121 
235 55 69 56 
236 42 167 87 
237 118 121 120 
238 7 77 54 
239 89 132 129 
240 99 101 100 
241 91 173 118 
242 102 192 151 
243 81 85 79 
244 184 204 140 
245 178 196 127 
246 52 70 53 
247 114 123 96 
248 10 186 9 
249 121 130 122 
250 97 98 90 
251 112 125 111 
252 161 199 152 
253 137 148 135 
254 51 165 52 
255 75 104 103 
256 133 135 134 
257 104 108 107 
258 78 82 80 
259 188 190 148 
260 9 171 8 
261 121 122 120 
262 118 120 113 
263 7 199 161 
264 99 100 98 
265 130 156 122 
266 54 179 55 
267 91 113 96 
268 135 136 134 
269 81 91 88 
270 88 89 85 
271 82 90 83 
272 114 138 123 
273 57 170 58 
274 81 88 85 
275 2 209 16 
276 26 209 2 
277 101 116 100 
278 121 166 130 
279 8 213 1 
280 100 124 98 
281 49 76 50 
282 4 210 34 
283 35 210 4 
284 91 96 88 
285 113 114 96 
286 1 213 25 
287 3 212 43 
288 17 212 3 
289 108 109 107 
290 45 84 46 
291 90 92 83 
292 125 126 111 
293 82 83 80 
294 74 174 163 
295 165 184 140 
296 80 81 79 
297 58 75 5 
298 123 180 96 
299 44 168 45 
300 133 182 137 
301 129 193 160 
302 78 80 79 
303 55 179 69 
304 77 179 54 
305 46 176 47 
306 52 165 70 
307 7 78 77 
308 166 189 130 
309 104 107 103 
310 199 219 152 
311 86 186 10 
312 98 169 90 
313 53 199 7 
314 5 95 44 
315 149 189 150 
316 12 195 11 
317 206 218 123 
318 50 184 51 
319 120 172 113 
320 107 131 103 
321 126 207 163 
322 48 175 6 
323 172 208 71 
324 78 79 77 
325 90 169 92 
326 147 178 157 
327 47 94 48 
328 115 207 145 
329 113 172 114 
330 81 173 91 
331 200 201 142 
332 119 203 158 
333 124 169 98 
334 89 182 132 
335 73 202 153 
336 87 220 189 
337 140 204 127 
338 80 173 81 
339 135 190 136 
340 148 206 72 
341 69 191 56 
342 75 170 104 
343 83 173 80 
344 51 184 165 
345 95 217 164 
346 56 191 57 
347 88 180 89 
348 96 180 88 
349 24 188 23 
350 101 198 116 
351 178 221 196 
352 75 103 102 
353 173 194 118 
354 100 181 124 
355 164 201 168 
356 159 219 70 
357 75 102 5 
358 116 181 100 
359 76 184 50 
360 180 182 89 
361 58 170 75 
362 57 191 170 
363 125 185 126 
364 116 198 174 
365 148 190 135 
366 158 209 26 
367 45 168 84 
368 144 211 108 
369 132 211 129 
370 84 176 46 
371 142 201 164 
372 126 198 111 
373 109 183 107 
374 127 196 125 
375 92 216 166 
376 106 209 158 
377 162 210 35 
378 131 192 103 
379 16 209 106 
380 185 207 126 
381 95 168 44 
382 107 183 131 
383 83 194 173 
384 127 204 178 
385 92 194 83 
386 120 208 172 
387 43 212 167 
388 34 210 115 
389 47 176 94 
390 176 177 94 
391 125 196 185 
392 70 199 53 
393 111 198 101 
394 25 213 105 
395 94 175 48 
396 103 192 102 
397 49 214 76 
398 117 212 17 
399 70 219 199 
400 115 210 162 
401 137 206 148 
402 128 197 175 
403 169 216 92 
404 131 195 192 
405 6 214 49 
406 167 212 117 
407 122 208 120 
408 153 202 181 
409 102 187 5 
410 178 215 157 
411 175 197 6 
412 5 187 95 
413 139 217 187 
414 193 211 144 
415 181 202 124 
416 105 213 171 
417 171 213 8 
418 175 205 128 
419 204 215 178 
420 84 200 176 
421 130 220 156 
422 176 200 177 
423 189 220 130 
424 123 218 180 
425 168 201 84 
426 180 218 182 
427 137 218 206 
428 177 205 94 
429 187 217 95 
430 145 207 185 
431 182 218 137 
432 94 205 175 
433 84 201 200 
434 214 215 76 
435 129 211 193 
436 196 221 93 
437 147 221 178 
438 76 215 204 
439 157 215 214 
440 124 216 169 
$EndElements
