$MeshFormat
4.1 0 8
$EndMeshFormat
$PhysicalNames
3
1 101 "outer_boundary"
2 1 "material_1"
2 2 "material_2"
$EndPhysicalNames
$Entities
7 7 2 0
1 0 0 0 0 
2 1 0 0 0 
3 0 1 0 0 
4 1 1 0 0 
5 0.5783079156980095 0.4964220134738151 0 0 
6 0.7632824575039132 0.3490962909504297 0 0 
7 0.7983830049371103 0.5829518044694216 0 0 
1 -9.999999994736442e-08 -1e-07 -1e-07 1.0000001 1e-07 1e-07 1 101 2 1 -2 
2 -1e-07 -9.999999994736442e-08 -1e-07 1e-07 1.0000001 1e-07 1 101 2 3 -1 
3 0.9999999000000001 -9.999999994736442e-08 -1e-07 1.0000001 1.0000001 1e-07 1 101 2 2 -4 
4 -9.999999994736442e-08 0.9999999000000001 -1e-07 1.0000001 1.0000001 1e-07 1 101 2 4 -3 
5 0.5783078156980096 0.3490961909504297 -1e-07 0.7632825575039132 0.4964221134738151 1e-07 0 2 5 -6 
6 0.7632823575039133 0.3490961909504297 -1e-07 0.7983831049371103 0.5829519044694216 1e-07 0 2 6 -7 
7 0.5783078156980096 0.4964219134738151 -1e-07 0.7983831049371103 0.5829519044694216 1e-07 0 2 7 -5 
2 0.5783078156980096 0.3490961909504297 -1e-07 0.7983831049371103 0.5829519044694216 1e-07 1 2 3 5 6 7 
3 -9.999999994736442e-08 -9.999999994736442e-08 -1e-07 1.0000001 1.0000001 1e-07 1 1 7 1 3 4 2 -5 -7 -6 
$EndEntities
$Nodes
16 149 1 149
0 1 0 1
1
0 0 0
0 2 0 1
2
1 0 0
0 3 0 1
3
0 1 0
0 4 0 1
4
1 1 0
0 5 0 1
5
0.5783079156980095 0.4964220134738151 0
0 6 0 1
6
0.7632824575039132 0.3490962909504297 0
0 7 0 1
7
0.7983830049371103 0.5829518044694216 0
1 1 0 7
8
9
10
11
12
13
14
0.1249999999999999 0 0
0.2499999999999998 0 0
0.3749999999999993 0 0
0.4999999999999988 0 0
0.6249999999999988 0 0
0.7499999999999991 0 0
0.8749999999999997 0 0
1 2 0 7
15
16
17
18
19
20
21
0 0.8750000000000001 0
0 0.7500000000000002 0
0 0.6250000000000007 0
0 0.5000000000000012 0
0 0.3750000000000012 0
0 0.2500000000000009 0
0 0.1250000000000003 0
1 3 0 7
22
23
24
25
26
27
28
1 0.1249999999999999 0
1 0.2499999999999998 0
1 0.3749999999999993 0
1 0.4999999999999988 0
1 0.6249999999999988 0
1 0.7499999999999991 0
1 0.8749999999999997 0
1 4 0 7
29
30
31
32
33
34
35
0.8750000000000001 1 0
0.7500000000000002 1 0
0.6250000000000007 1 0
0.5000000000000012 1 0
0.3750000000000012 1 0
0.2500000000000009 1 0
0.1250000000000003 1 0
1 5 0 3
36
37
38
0.6245515511494854 0.4595905828429688 0
0.670795186600961 0.4227591522121226 0
0.7170388220524371 0.3859277215812762 0
1 6 0 3
39
40
41
0.7720575943622124 0.4075601693301776 0
0.7808327312205118 0.4660240477099253 0
0.789607868078811 0.5244879260896733 0
1 7 0 3
42
43
44
0.7433642326273353 0.56131935672052 0
0.6883454603175603 0.5396869089716185 0
0.633326688007785 0.5180544612227168 0
2 2 0 3
45
46
47
0.7258139589107364 0.4443915999610241 0
0.7345890957690359 0.5028554783407719 0
0.6795703234592607 0.4812230305918705 0
2 3 0 102
48
49
50
51
52
53
54
55
56
57
58
59
60
61
62
63
64
65
66
67
68
69
70
71
72
73
74
75
76
77
78
79
80
81
82
83
84
85
86
87
88
89
90
91
92
93
94
95
96
97
98
99
100
101
102
103
104
105
106
107
108
109
110
111
112
113
114
115
116
117
118
119
120
121
122
123
124
125
126
127
128
129
130
131
132
133
134
135
136
137
138
139
140
141
142
143
144
145
146
147
148
149
0.5724345496040586 0.4349531864055972 0
0.5204843723634434 0.4752105478814319 0
0.5299149262903529 0.5402134168450268 0
0.4644662016396552 0.5166454646230565 0
0.4582223830830661 0.44406933746656 0
0.6898727142162167 0.6153760837868184 0
0.4775691758896786 0.5910808502822108 0
0.7048672919474399 0.3259903606432363 0
0.4020077541648631 0.5644476576244978 0
0.1088468054579971 0.3192370019274726 0
0.4177454102024466 0.6445709037908349 0
0.4989007954539489 0.6640976889281586 0
0.755995100144417 0.286848476400261 0
0.3349749184031188 0.616933073201427 0
0.4275777400381012 0.1060984416013486 0
0.6918111585707776 0.2598722161791236 0
0.3112525627216708 0.5351594922855817 0
0.6789151161760307 0.8907339137540038 0
0.355840097072202 0.7046905386916278 0
0.6367260384423905 0.3053554452048829 0
0.2616186046767318 0.6777942948839598 0
0.6193853977174431 0.23106725651692 0
0.5572211369185019 0.2862095414403066 0
0.7438252927340036 0.2097146687914909 0
0.8311269810428683 0.3180565052569904 0
0.1883776645053197 0.8854349652995921 0
0.8270763666719875 0.4291926170790792 0
0.8960922973713414 0.8048155752972187 0
0.1950333827263468 0.1125715473491813 0
0.4455831390371176 0.8957210107530365 0
0.119813666896823 0.5638966323529706 0
0.8496988708727147 0.5419703432580084 0
0.8611390601082956 0.6108627349584047 0
0.8019790271415241 0.6558357039590316 0
0.8891225419441116 0.183429294307601 0
0.5407049773903798 0.2040217890453518 0
0.4730789527056593 0.2651110220091424 0
0.2845160021849255 0.7828759339442306 0
0.1804099898717672 0.7450396902728764 0
0.6158441178472384 0.1394626607458161 0
0.8811883711197177 0.6995132417078667 0
0.8033931696851935 0.7516174048770495 0
0.7374417960420795 0.6868337544254552 0
0.4894654532285538 0.3548992125083801 0
0.4000034362654944 0.3273695016108216 0
0.3816614587044007 0.2134977432599023 0
0.3063056439938763 0.3019899902130515 0
0.3358673914664284 0.4033937765950609 0
0.2255353792422648 0.3838178339970821 0
0.5641544210577291 0.8962973942045354 0
0.606153748228887 0.7827056183547808 0
0.4989166738471971 0.8028273183389454 0
0.2753053611025151 0.2038275172466912 0
0.7116668420857669 0.7789481061099583 0
0.1102272507232194 0.4395451299721822 0
0.207167652742231 0.4953193115555655 0
0.3227521000679726 0.8929473406906698 0
0.8033658677674604 0.8763726641560172 0
0.5797248857700437 0.3638144940576363 0
0.8229459299615698 0.09092665891192986 0
0.1047141550339342 0.1936297632095829 0
0.5498987155100616 0.6107321114324178 0
0.5803851660437565 0.6881225225054903 0
0.6171469994624471 0.6224956190905693 0
0.9225826948050188 0.566119548223658 0
0.8994620587367492 0.482210763781809 0
0.3194361659368662 0.1046715579313617 0
0.3964790236079301 0.7976219317257611 0
0.7542081549928532 0.6204633406722494 0
0.6581923951543672 0.3661606967303451 0
0.9169687931764818 0.3210590805605493 0
0.2062616204040462 0.2824575950899797 0
0.7208835448253251 0.1143765843672218 0
0.2481234566124209 0.5849644180715797 0
0.09379404611155906 0.8118671961228034 0
0.5895973275870154 0.5575762376642179 0
0.8159442741220588 0.3788673703989645 0
0.8850287383994303 0.3887739183095162 0
0.8293355791161547 0.4887771395836991 0
0.09699474283632892 0.6765798371891152 0
0.3793897245381598 0.4744478669671639 0
0.6794494661692482 0.1880364359911648 0
0.6571112110131923 0.6957469507121787 0
0.6211397136557832 0.409455622449734 0
0.6434709447303062 0.5730361957901338 0
0.8081213541909367 0.2449831332031533 0
0.5181897248768422 0.4139154490437855 0
0.5285890560054654 0.1056076408129609 0
0.9111474287765564 0.08905235016321228 0
0.4494827239752315 0.7240307859042622 0
0.1813920921788144 0.6496549745541004 0
0.2788895256659644 0.4596776690234996 0
0.9084936490538902 0.90849364905389 0
0.9272228987328899 0.6402203178232828 0
0.09150635094610948 0.09150635094610954 0
0.4624075007570755 0.1840629534852489 0
0.083056607067438 0.9158747690279012 0
0.809120007065218 0.1724956661301503 0
0.1915224554592257 0.1968491690253474 0
0.4050222530254705 0.3977416711518907 0
0.8890679340708797 0.2635056026656588 0
0.5267678215098042 0.7323567868063274 0
$EndNodes
$Elements
6 296 1 296
1 1 1 8
1 1 8 
2 8 9 
3 9 10 
4 10 11 
5 11 12 
6 12 13 
7 13 14 
8 14 2 
1 2 1 8
9 3 15 
10 15 16 
11 16 17 
12 17 18 
13 18 19 
14 19 20 
15 20 21 
16 21 1 
1 3 1 8
17 2 22 
18 22 23 
19 23 24 
20 24 25 
21 25 26 
22 26 27 
23 27 28 
24 28 4 
1 4 1 8
25 4 29 
26 29 30 
27 30 31 
28 31 32 
29 32 33 
30 33 34 
31 34 35 
32 35 3 
2 2 2 16
33 41 7 42 
34 44 5 36 
35 38 6 39 
36 46 47 45 
37 40 46 45 
38 43 47 46 
39 40 45 39 
40 44 47 43 
41 41 46 40 
42 38 45 37 
43 39 45 38 
44 45 47 37 
45 43 46 42 
46 37 47 36 
47 36 47 44 
48 42 46 41 
2 3 2 248
49 113 125 24 
50 96 102 57 
51 90 130 53 
52 87 135 12 
53 73 86 85 
54 53 130 111 
55 72 125 124 
56 85 115 104 
57 93 114 62 
58 53 116 90 
59 96 103 102 
60 75 88 27 
61 98 130 101 
62 30 105 29 
63 85 104 73 
64 120 145 71 
65 122 127 86 
66 88 141 27 
67 103 121 78 
68 16 127 122 
69 12 120 87 
70 62 143 93 
71 101 130 90 
72 12 135 11 
73 110 130 98 
74 57 119 96 
75 25 113 24 
76 97 98 65 
77 100 114 93 
78 71 129 120 
79 121 138 78 
80 66 115 85 
81 98 149 110 
82 64 139 128 
83 105 140 29 
84 73 122 86 
85 118 148 23 
86 128 139 95 
87 76 114 100 
88 23 148 82 
89 31 97 65 
90 75 105 89 
91 89 105 101 
92 104 115 77 
93 102 103 78 
94 118 125 72 
95 75 89 88 
96 98 101 65 
97 91 134 52 
98 65 105 30 
99 77 99 97 
100 9 114 76 
101 48 134 106 
102 18 102 78 
103 97 99 98 
104 52 147 91 
105 73 104 34 
106 23 82 22 
107 31 65 30 
108 108 119 57 
109 77 97 32 
110 64 121 103 
111 57 102 19 
112 70 106 91 
113 11 62 10 
114 33 104 77 
115 20 57 19 
116 32 97 31 
117 18 78 17 
118 33 77 32 
119 108 146 119 
120 99 149 98 
121 107 145 120 
122 35 73 34 
123 103 139 64 
124 77 115 99 
125 19 102 18 
126 109 123 111 
127 28 75 27 
128 34 104 33 
129 67 117 106 
130 9 76 8 
131 70 91 84 
132 89 90 81 
133 92 95 94 
134 20 108 57 
135 106 134 91 
136 27 141 26 
137 101 105 65 
138 117 131 106 
139 13 120 12 
140 123 132 111 
141 21 108 20 
142 14 107 13 
143 90 116 81 
144 10 114 9 
145 95 147 128 
146 72 148 118 
147 100 146 76 
148 74 125 113 
149 95 96 94 
150 62 114 10 
151 17 127 16 
152 67 106 70 
153 109 111 110 
154 16 122 15 
155 91 92 84 
156 96 139 103 
157 11 135 62 
158 106 131 48 
159 26 112 25 
160 50 109 54 
161 2 136 14 
162 54 59 58 
163 54 109 59 
164 92 94 93 
165 61 64 56 
166 5 48 36 
167 22 136 2 
168 91 147 92 
169 89 101 90 
170 24 125 118 
171 111 132 53 
172 113 126 74 
173 42 53 43 
174 4 140 28 
175 29 140 4 
176 94 100 93 
177 85 86 68 
178 82 145 107 
179 1 142 21 
180 8 142 1 
181 109 110 59 
182 66 85 68 
183 78 127 17 
184 37 117 38 
185 94 119 100 
186 24 118 23 
187 44 123 5 
188 107 120 13 
189 38 55 6 
190 96 119 94 
191 70 84 83 
192 55 67 63 
193 5 49 48 
194 66 68 61 
195 67 70 69 
196 92 93 84 
197 115 137 99 
198 75 140 105 
199 120 129 87 
200 5 50 49 
201 58 61 56 
202 58 66 61 
203 54 58 56 
204 137 149 99 
205 50 123 109 
206 54 56 51 
207 83 87 69 
208 61 121 64 
209 64 128 56 
210 82 136 22 
211 50 54 51 
212 70 83 69 
213 55 60 6 
214 67 69 63 
215 36 131 37 
216 68 121 61 
217 51 52 49 
218 7 116 42 
219 43 132 44 
220 60 72 6 
221 107 136 82 
222 39 74 40 
223 112 113 25 
224 128 147 52 
225 50 51 49 
226 40 126 41 
227 6 124 39 
228 3 144 35 
229 15 144 3 
230 41 79 7 
231 88 89 81 
232 55 117 67 
233 63 71 60 
234 92 147 95 
235 48 131 36 
236 86 138 68 
237 82 148 133 
238 5 123 50 
239 35 144 73 
240 55 63 60 
241 38 117 55 
242 79 113 112 
243 53 132 43 
244 80 81 7 
245 133 145 82 
246 37 131 117 
247 56 128 51 
248 21 142 108 
249 95 139 96 
250 44 132 123 
251 28 140 75 
252 79 126 113 
253 93 143 84 
254 66 137 115 
255 76 142 8 
256 42 116 53 
257 58 137 66 
258 87 129 69 
259 111 130 110 
260 49 134 48 
261 79 80 7 
262 51 128 52 
263 14 136 107 
264 127 138 86 
265 108 142 76 
266 80 88 81 
267 52 134 49 
268 81 116 7 
269 78 138 127 
270 72 124 6 
271 73 144 122 
272 69 129 63 
273 59 137 58 
274 63 129 71 
275 83 135 87 
276 76 146 108 
277 59 149 137 
278 74 126 40 
279 39 124 74 
280 71 133 60 
281 41 126 79 
282 79 112 80 
283 60 133 72 
284 124 125 74 
285 84 143 83 
286 68 138 121 
287 83 143 135 
288 119 146 100 
289 122 144 15 
290 110 149 59 
291 26 141 112 
292 80 141 88 
293 135 143 62 
294 71 145 133 
295 112 141 80 
296 133 148 72 
$EndElements
