$MeshFormat
4.1 0 8
$EndMeshFormat
$PhysicalNames
3
1 101 "outer_boundary"
2 1 "material_1"
2 2 "material_2"
$EndPhysicalNames
$Entities
8 8 2 0
1 0 0 0 0 
2 1 0 0 0 
3 0 1 0 0 
4 1 1 0 0 
5 0.756009971399814 0.3676234309623004 0 0 
6 0.9159848718067357 0.6548936173134695 0 0 
7 0.6287146854555666 0.8148685177203913 0 0 
8 0.4687397850486449 0.5275983313692222 0 0 
1 -9.999999994736442e-08 -1e-07 -1e-07 1.0000001 1e-07 1e-07 1 101 2 1 -2 
2 -1e-07 -9.999999994736442e-08 -1e-07 1e-07 1.0000001 1e-07 1 101 2 3 -1 
3 0.9999999000000001 -9.999999994736442e-08 -1e-07 1.0000001 1.0000001 1e-07 1 101 2 2 -4 
4 -9.999999994736442e-08 0.9999999000000001 -1e-07 1.0000001 1.0000001 1e-07 1 101 2 4 -3 
5 0.756009871399814 0.3676233309623004 -1e-07 0.9159849718067357 0.6548937173134695 1e-07 0 2 5 -6 
6 0.6287145854555667 0.6548935173134696 -1e-07 0.9159849718067357 0.8148686177203912 1e-07 0 2 6 -7 
7 0.4687396850486449 0.5275982313692222 -1e-07 0.6287147854555666 0.8148686177203912 1e-07 0 2 7 -8 
8 0.4687396850486449 0.3676233309623004 -1e-07 0.7560100713998139 0.5275984313692221 1e-07 0 2 8 -5 
2 0.4687396850486449 0.3676233309623004 -1e-07 0.9159849718067357 0.8148686177203912 1e-07 1 2 4 5 6 7 8 
3 -9.999999994736442e-08 -9.999999994736442e-08 -1e-07 1.0000001 1.0000001 1e-07 1 1 8 1 3 4 2 -5 -8 -7 -6 
$EndEntities
$Nodes
18 170 1 170
0 1 0 1
1
0 0 0
0 2 0 1
2
1 0 0
0 3 0 1
3
0 1 0
0 4 0 1
4
1 1 0
0 5 0 1
5
0.756009971399814 0.3676234309623004 0
0 6 0 1
6
0.9159848718067357 0.6548936173134695 0
0 7 0 1
7
0.6287146854555666 0.8148685177203913 0
0 8 0 1
8
0.4687397850486449 0.5275983313692222 0
1 1 0 7
9
10
11
12
13
14
15
0.1249999999999999 0 0
0.2499999999999998 0 0
0.3749999999999993 0 0
0.4999999999999988 0 0
0.6249999999999988 0 0
0.7499999999999991 0 0
0.8749999999999997 0 0
1 2 0 7
16
17
18
19
20
21
22
0 0.8750000000000001 0
0 0.7500000000000002 0
0 0.6250000000000007 0
0 0.5000000000000012 0
0 0.3750000000000012 0
0 0.2500000000000009 0
0 0.1250000000000003 0
1 3 0 7
23
24
25
26
27
28
29
1 0.1249999999999999 0
1 0.2499999999999998 0
1 0.3749999999999993 0
1 0.4999999999999988 0
1 0.6249999999999988 0
1 0.7499999999999991 0
1 0.8749999999999997 0
1 4 0 7
30
31
32
33
34
35
36
0.8750000000000001 1 0
0.7500000000000002 1 0
0.6250000000000007 1 0
0.5000000000000012 1 0
0.3750000000000012 1 0
0.2500000000000009 1 0
0.1250000000000003 1 0
1 5 0 4
37
38
39
40
0.7880049514811983 0.4250774682325343 0
0.8199999315625828 0.4825315055027684 0
0.8519949116439671 0.539985542773002 0
0.8839898917253515 0.5974395800432358 0
1 6 0 4
41
42
43
44
0.8585308345365018 0.6868885973948539 0
0.8010767972662678 0.7188835774762383 0
0.7436227599960341 0.7508785575576227 0
0.6861687227258003 0.782873537639007 0
1 7 0 4
45
46
47
48
0.5967197053741823 0.7574144804501574 0
0.5647247252927978 0.6999604431799233 0
0.5327297452114135 0.6425064059096897 0
0.5007347651300291 0.5850523686394559 0
1 8 0 4
49
50
51
52
0.5261938223188788 0.4956033512878378 0
0.5836478595891128 0.4636083712064533 0
0.6411018968593465 0.431613391125069 0
0.6985559341295803 0.3996184110436847 0
2 2 0 24
53
54
55
56
57
58
59
60
61
62
63
64
65
66
67
68
69
70
71
72
73
74
75
76
0.6314197969089126 0.4872520167402148 0
0.7452618604635727 0.6851340241714838 0
0.5944679206308464 0.642737981971669 0
0.7871560908735917 0.534191290164879 0
0.8025055983809406 0.6543717731936857 0
0.7495057259624623 0.6236810774102968 0
0.6916555629980311 0.6577022432899863 0
0.6892243819989831 0.5856111000389296 0
0.6322166633445627 0.6959950910847562 0
0.7553621710067944 0.4809340055734771 0
0.5893872168379813 0.5312015953607068 0
0.6931830484979989 0.4682924251373711 0
0.5641507848332854 0.5896186602723511 0
0.6910462630597678 0.7203284576791253 0
0.8113141614694185 0.5941188765688973 0
0.7223957970795236 0.5313827202737931 0
0.6229480179079075 0.5881935758509323 0
0.6564751757104278 0.5426197684005564 0
0.5342210104371399 0.5462356547442617 0
0.8505036464182407 0.63625629393843 0
0.6473520088306062 0.7493872923318964 0
0.7373726480247744 0.4331046563507953 0
0.7535432652813754 0.5729065784587513 0
0.6445519783279503 0.6336311951925871 0
2 3 0 94
77
78
79
80
81
82
83
84
85
86
87
88
89
90
91
92
93
94
95
96
97
98
99
100
101
102
103
104
105
106
107
108
109
110
111
112
113
114
115
116
117
118
119
120
121
122
123
124
125
126
127
128
129
130
131
132
133
134
135
136
137
138
139
140
141
142
143
144
145
146
147
148
149
150
151
152
153
154
155
156
157
158
159
160
161
162
163
164
165
166
167
168
169
170
0.4596465176728724 0.4686167549104778 0
0.4332056084310849 0.5866261983927306 0
0.6437216395944162 0.3577687898610569 0
0.4989705794261052 0.6989418900888623 0
0.09476623404288764 0.288596415233628 0
0.4339593898399183 0.1264484148719212 0
0.1069685500806049 0.6739899231659691 0
0.310654611859051 0.8892776880742961 0
0.8124999999999994 0.1082531754730551 0
0.4068838832182663 0.5180715551919456 0
0.3884196152411201 0.4438517044202269 0
0.3299722771003627 0.5027810299481265 0
0.4454685309405258 0.391061002530321 0
0.3631135732878478 0.3661920972094238 0
0.5562583007543006 0.8141903332476856 0
0.7976724176414167 0.7755773981112553 0
0.3575569149773669 0.5791408027383931 0
0.2682229882341963 0.5705516154932928 0
0.305174122108514 0.6523569345231615 0
0.2384133007086894 0.4868921179344309 0
0.828948436003522 0.3668196704062129 0
0.7922182896198324 0.304723420547959 0
0.4231673154972334 0.305744616220337 0
0.3354150369216169 0.2813948935123367 0
0.1977736497277437 0.1060926836621929 0
0.517299126589759 0.3361815626922329 0
0.6747538076977226 0.8543973612192191 0
0.3928017746190059 0.652724083130845 0
0.3474183504688594 0.7284781261259033 0
0.2578220583793114 0.7314171099732834 0
0.2731986688436659 0.3418008382759825 0
0.713946878406757 0.3097267449397039 0
0.6370173082037828 0.2795080479619801 0
0.6933271333766466 0.2254239393218784 0
0.6127402396898419 0.1991967238925748 0
0.1815824211153803 0.5580042005710718 0
0.480114289187644 0.2378002274950314 0
0.2596975099507496 0.2643141836114875 0
0.3040492715352007 0.1818242519722861 0
0.1359267484723129 0.4753425812677411 0
0.6871806518798118 0.1159502355607925 0
0.8817242010529662 0.2849911719016779 0
0.8787136740618162 0.4862937493349023 0
0.8302904144335895 0.2282616570167614 0
0.5975103883058144 0.8723478918277502 0
0.5122646034066293 0.8807835472238553 0
0.4756529635045015 0.7924234107103802 0
0.8101927795083296 0.9088693272657586 0
0.1832560641741793 0.9012760396753305 0
0.5518956902667083 0.1021307743939691 0
0.917125584530895 0.8091029470498223 0
0.1047141550339337 0.8063702367904182 0
0.4268396154721673 0.8933454645811403 0
0.09815234675336082 0.180780425248629 0
0.5194870449652205 0.4254875446611806 0
0.466975599344721 0.6414878528186286 0
0.5823501892547157 0.3925356608428234 0
0.5384652548703774 0.7525861115354018 0
0.215089920063128 0.6546997216617709 0
0.8575122814454408 0.7526427432615466 0
0.7521165474932554 0.8270657316566741 0
0.9098307144639146 0.7307055810039382 0
0.4282141302376689 0.7186072507254883 0
0.3953410605963227 0.2266424808143825 0
0.5868958991079868 0.3262028610085722 0
0.853759097347891 0.4260960213235954 0
0.9179681887692203 0.5342890890424137 0
0.9086287267476121 0.9082780817974021 0
0.2054009236576037 0.4072505553981086 0
0.08489554393365961 0.5664673410009567 0
0.9134354735925055 0.1843382445699476 0
0.3033780051093732 0.8010173447345238 0
0.3124999999999996 0.08120005595858332 0
0.9081565933610032 0.09131175175108969 0
0.3874655140628198 0.7975881414783103 0
0.7598518804681043 0.181654510756549 0
0.9435885904602614 0.5823244572798233 0
0.6606932358858781 0.9265463024010758 0
0.2997530598065483 0.4247947238643832 0
0.91908285110806 0.3574597408070946 0
0.7354938559363073 0.9072270100179072 0
0.5615036070318126 0.2598736965853459 0
0.2170265196067601 0.8106213950041861 0
0.08259404384162267 0.9165292552931497 0
0.08960059510221929 0.08912928691967653 0
0.5349547794118611 0.180352756461684 0
0.08558494141904133 0.3982374669005866 0
0.1775942805836085 0.7372650684404746 0
0.185928203374086 0.3173569428284109 0
0.7579269192609859 0.2499580545165703 0
0.8420130563529347 0.834465036057909 0
0.5668006754344763 0.9400015019183253 0
0.9282539685478313 0.4465231000846673 0
0.1895999633963524 0.2082161020482566 0
$EndNodes
$Elements
6 338 1 338
1 1 1 8
1 1 9 
2 9 10 
3 10 11 
4 11 12 
5 12 13 
6 13 14 
7 14 15 
8 15 2 
1 2 1 8
9 3 16 
10 16 17 
11 17 18 
12 18 19 
13 19 20 
14 20 21 
15 21 22 
16 22 1 
1 3 1 8
17 2 23 
18 23 24 
19 24 25 
20 25 26 
21 26 27 
22 27 28 
23 28 29 
24 29 4 
1 4 1 8
25 4 30 
26 30 31 
27 31 32 
28 32 33 
29 33 34 
30 34 35 
31 35 36 
32 36 3 
2 2 2 66
33 68 70 64 
34 64 70 53 
35 58 67 57 
36 63 70 69 
37 59 66 61 
38 62 68 64 
39 63 69 65 
40 58 75 67 
41 61 76 59 
42 53 70 63 
43 38 62 37 
44 54 57 42 
45 53 63 50 
46 54 58 57 
47 51 53 50 
48 42 57 41 
49 46 61 45 
50 55 61 46 
51 50 63 49 
52 54 59 58 
53 56 62 38 
54 39 56 38 
55 43 54 42 
56 47 55 46 
57 59 60 58 
58 40 67 39 
59 44 66 43 
60 48 65 47 
61 52 64 51 
62 54 66 59 
63 51 64 53 
64 39 67 56 
65 43 66 54 
66 47 65 55 
67 56 68 62 
68 49 71 8 
69 6 72 40 
70 37 74 5 
71 41 72 6 
72 45 73 7 
73 8 71 48 
74 5 74 52 
75 7 73 44 
76 60 70 68 
77 55 76 61 
78 65 69 55 
79 59 76 60 
80 60 75 58 
81 67 75 56 
82 60 76 69 
83 68 75 60 
84 52 74 64 
85 40 72 67 
86 44 73 66 
87 48 71 65 
88 57 72 41 
89 61 73 45 
90 63 71 49 
91 62 74 37 
92 64 74 62 
93 65 71 63 
94 67 72 57 
95 66 73 61 
96 69 70 60 
97 56 75 68 
98 69 76 55 
2 3 2 240
99 85 117 14 
100 102 133 131 
101 112 135 83 
102 33 129 122 
103 24 156 118 
104 83 146 112 
105 82 162 113 
106 113 140 82 
107 79 108 52 
108 34 129 33 
109 14 117 13 
110 102 131 89 
111 117 126 13 
112 82 140 115 
113 52 108 5 
114 85 147 120 
115 118 147 24 
116 115 149 82 
117 85 152 117 
118 8 86 77 
119 81 170 165 
120 102 141 133 
121 86 87 77 
122 27 153 26 
123 111 126 117 
124 84 129 34 
125 101 149 115 
126 120 147 118 
127 18 146 83 
128 19 163 116 
129 80 134 123 
130 79 109 108 
131 25 156 24 
132 115 170 101 
133 123 139 80 
134 116 146 19 
135 130 170 81 
136 89 131 77 
137 92 167 137 
138 35 125 84 
139 93 94 88 
140 86 93 88 
141 104 105 95 
142 80 139 132 
143 93 104 95 
144 137 167 124 
145 15 85 14 
146 35 84 34 
147 120 152 85 
148 18 83 17 
149 125 159 84 
150 12 82 11 
151 85 150 147 
152 21 81 20 
153 165 170 114 
154 84 151 129 
155 163 165 145 
156 95 135 94 
157 103 121 7 
158 132 139 104 
159 36 125 35 
160 26 153 143 
161 83 128 17 
162 31 124 30 
163 12 126 82 
164 124 157 137 
165 145 155 96 
166 13 126 12 
167 94 135 112 
168 21 130 81 
169 10 101 9 
170 82 149 11 
171 84 159 148 
172 148 151 84 
173 17 128 16 
174 126 162 82 
175 81 165 163 
176 87 89 77 
177 113 158 102 
178 22 130 21 
179 3 160 36 
180 99 102 89 
181 29 127 28 
182 6 153 27 
183 10 149 101 
184 16 160 3 
185 20 163 19 
186 93 95 94 
187 102 158 141 
188 86 88 87 
189 4 144 29 
190 30 144 4 
191 23 150 2 
192 2 150 15 
193 94 96 88 
194 8 77 49 
195 49 131 50 
196 122 123 91 
197 107 155 145 
198 50 133 51 
199 48 78 8 
200 99 113 102 
201 51 79 52 
202 105 106 95 
203 114 170 115 
204 47 132 48 
205 1 161 22 
206 9 161 1 
207 122 168 33 
208 5 108 98 
209 111 162 126 
210 104 139 105 
211 109 110 108 
212 96 155 88 
213 78 104 93 
214 114 115 100 
215 46 80 47 
216 90 107 100 
217 119 169 143 
218 90 99 89 
219 127 138 28 
220 87 90 89 
221 32 154 31 
222 128 159 125 
223 122 129 123 
224 94 112 96 
225 42 92 43 
226 112 116 96 
227 107 114 100 
228 106 135 95 
229 45 134 46 
230 109 111 110 
231 19 146 18 
232 15 150 85 
233 103 154 121 
234 78 86 8 
235 43 137 44 
236 77 131 49 
237 97 156 142 
238 90 100 99 
239 131 133 50 
240 51 133 79 
241 41 136 42 
242 79 141 109 
243 78 93 86 
244 44 103 7 
245 123 151 139 
246 111 117 110 
247 118 156 97 
248 48 132 78 
249 123 134 91 
250 5 97 37 
251 31 157 124 
252 7 91 45 
253 88 155 87 
254 26 169 25 
255 137 157 103 
256 81 163 20 
257 36 160 125 
258 24 147 23 
259 115 140 100 
260 98 120 118 
261 5 98 97 
262 87 155 90 
263 116 163 145 
264 117 152 110 
265 80 132 47 
266 78 132 104 
267 99 140 113 
268 124 144 30 
269 154 157 31 
270 154 168 121 
271 37 142 38 
272 83 164 128 
273 11 149 10 
274 33 168 32 
275 100 140 99 
276 129 151 123 
277 136 167 92 
278 22 161 130 
279 133 141 79 
280 38 119 39 
281 128 160 16 
282 6 138 41 
283 39 143 40 
284 46 134 80 
285 136 138 127 
286 142 169 119 
287 105 148 106 
288 112 146 116 
289 101 161 9 
290 125 160 128 
291 98 118 97 
292 29 144 127 
293 116 145 96 
294 130 161 101 
295 92 137 43 
296 98 166 120 
297 40 153 6 
298 121 122 91 
299 90 155 107 
300 42 136 92 
301 128 164 159 
302 156 169 142 
303 91 134 45 
304 44 137 103 
305 113 162 158 
306 106 164 135 
307 135 164 83 
308 7 121 91 
309 101 170 130 
310 143 169 26 
311 107 165 114 
312 120 166 152 
313 109 158 111 
314 139 151 105 
315 105 151 148 
316 97 142 37 
317 127 167 136 
318 144 167 127 
319 124 167 144 
320 32 168 154 
321 41 138 136 
322 38 142 119 
323 110 166 108 
324 147 150 23 
325 103 157 154 
326 145 165 107 
327 148 159 106 
328 143 153 40 
329 141 158 109 
330 119 143 39 
331 158 162 111 
332 152 166 110 
333 108 166 98 
334 121 168 122 
335 159 164 106 
336 25 169 156 
337 27 28 6 
338 28 138 6 
$EndElements
