$MeshFormat
4.1 0 8
$EndMeshFormat
$PhysicalNames
3
1 101 "outer_boundary"
2 1 "material_1"
2 2 "material_2"
$EndPhysicalNames
$Entities
7 7 2 0
1 0 0 0 0 
2 1 0 0 0 
3 0 1 0 0 
4 1 1 0 0 
5 0.1895937997968647 0.4090879745441457 0 0 
6 0.4468940629223113 0.3413750910189208 0 0 
7 0.3768850086559296 0.5980600970485904 0 0 
1 -9.999999994736442e-08 -1e-07 -1e-07 1.0000001 1e-07 1e-07 1 101 2 1 -2 
2 -1e-07 -9.999999994736442e-08 -1e-07 1e-07 1.0000001 1e-07 1 101 2 3 -1 
3 0.9999999000000001 -9.999999994736442e-08 -1e-07 1.0000001 1.0000001 1e-07 1 101 2 2 -4 
4 -9.999999994736442e-08 0.9999999000000001 -1e-07 1.0000001 1.0000001 1e-07 1 101 2 4 -3 
5 0.1895936997968647 0.3413749910189208 -1e-07 0.4468941629223113 0.4090880745441458 1e-07 0 2 5 -6 
6 0.3768849086559296 0.3413749910189208 -1e-07 0.4468941629223113 0.5980601970485904 1e-07 0 2 6 -7 
7 0.1895936997968647 0.4090878745441457 -1e-07 0.3768851086559296 0.5980601970485904 1e-07 0 2 7 -5 
2 0.1895936997968647 0.3413749910189208 -1e-07 0.4468941629223113 0.5980601970485904 1e-07 1 2 3 5 6 7 
3 -9.999999994736442e-08 -9.999999994736442e-08 -1e-07 1.0000001 1.0000001 1e-07 1 1 7 1 3 4 2 -5 -7 -6 
$EndEntities
$Nodes
16 145 1 145
0 1 0 1
1
0 0 0
0 2 0 1
2
1 0 0
0 3 0 1
3
0 1 0
0 4 0 1
4
1 1 0
0 5 0 1
5
0.1895937997968647 0.4090879745441457 0
0 6 0 1
6
0.4468940629223113 0.3413750910189208 0
0 7 0 1
7
0.3768850086559296 0.5980600970485904 0
1 1 0 7
8
9
10
11
12
13
14
0.1249999999999999 0 0
0.2499999999999998 0 0
0.3749999999999993 0 0
0.4999999999999988 0 0
0.6249999999999988 0 0
0.7499999999999991 0 0
0.8749999999999997 0 0
1 2 0 7
15
16
17
18
19
20
21
0 0.8750000000000001 0
0 0.7500000000000002 0
0 0.6250000000000007 0
0 0.5000000000000012 0
0 0.3750000000000012 0
0 0.2500000000000009 0
0 0.1250000000000003 0
1 3 0 7
22
23
24
25
26
27
28
1 0.1249999999999999 0
1 0.2499999999999998 0
1 0.3749999999999993 0
1 0.4999999999999988 0
1 0.6249999999999988 0
1 0.7499999999999991 0
1 0.8749999999999997 0
1 4 0 7
29
30
31
32
33
34
35
0.8750000000000001 1 0
0.7500000000000002 1 0
0.6250000000000007 1 0
0.5000000000000012 1 0
0.3750000000000012 1 0
0.2500000000000009 1 0
0.1250000000000003 1 0
1 5 0 3
36
37
38
0.2539188655782263 0.3921597536628395 0
0.318243931359588 0.3752315327815333 0
0.3825689971409496 0.3583033119002271 0
1 6 0 3
39
40
41
0.4293917993557159 0.4055463425263382 0
0.4118895357891204 0.4697175940337556 0
0.394387272222525 0.533888845541173 0
1 7 0 3
42
43
44
0.3300622064411634 0.5508170664224793 0
0.2832394042263972 0.5035740357963681 0
0.2364166020116309 0.4563310051702569 0
2 2 0 3
45
46
47
0.3475644700077588 0.4866458149150618 0
0.3650667335743542 0.4224745634076444 0
0.3007416677929926 0.4394027842889507 0
2 3 0 98
48
49
50
51
52
53
54
55
56
57
58
59
60
61
62
63
64
65
66
67
68
69
70
71
72
73
74
75
76
77
78
79
80
81
82
83
84
85
86
87
88
89
90
91
92
93
94
95
96
97
98
99
100
101
102
103
104
105
106
107
108
109
110
111
112
113
114
115
116
117
118
119
120
121
122
123
124
125
126
127
128
129
130
131
132
133
134
135
136
137
138
139
140
141
142
143
144
145
0.4437668815734617 0.5805863713624391 0
0.4942377322441666 0.3896093754489491 0
0.9015664199385007 0.6729211492389247 0
0.514762533206521 0.3200260097152963 0
0.5688083528601943 0.3765827230719748 0
0.312559942874568 0.6149883179298966 0
0.4247275343917581 0.6501987202736834 0
0.4975031878208803 0.6313998689777127 0
0.2683031312556932 0.3268335833411984 0
0.4051934161639164 0.2905485703961684 0
0.5931602459881055 0.2912306126370591 0
0.6510743221608004 0.3550013632772109 0
0.6256534644856371 0.4401598279536196 0
0.4771986515036373 0.7081143279483747 0
0.555923317583936 0.6907457996058226 0
0.4009241109626355 0.7274243718841722 0
0.6865477969848084 0.2679170897950406 0
0.7139082618235663 0.4199529223119595 0
0.6857157292592256 0.5098984524786961 0
0.2255435000275398 0.5131422165059998 0
0.1951706542313613 0.1056315274710511 0
0.6853237478932173 0.9028691300312974 0
0.5275649011198285 0.2399601825360925 0
0.1932266556615281 0.8868635732386669 0
0.1037053045976858 0.681167153959167 0
0.8939667967930598 0.1876936737317249 0
0.539343346829581 0.7683407421627964 0
0.7805783933358508 0.4895653272191829 0
0.5181553957030377 0.5532063885010345 0
0.8155785682709422 0.3798995367629432 0
0.7480211851896714 0.5835713827928504 0
0.6301928376467441 0.7446822370284928 0
0.4374999999999991 0.1082531754730544 0
0.6824450515109041 0.09801437562161264 0
0.4392037240330233 0.8902351581513578 0
0.108253175473055 0.3125000000000012 0
0.1048844525701187 0.5670916067079773 0
0.657845686951092 0.5965339913133717 0
0.84159982586219 0.5720861180826992 0
0.1870566233825483 0.6231002735224219 0
0.2034493537562921 0.7156546798541346 0
0.5593139945107541 0.9008379968167433 0
0.7157869914209796 0.678636516764699 0
0.3103202633415882 0.1021288788700033 0
0.2488003565451474 0.1906891789797894 0
0.3476707631679874 0.1860561447740868 0
0.1538973888464198 0.2082021922938929 0
0.07854744276116887 0.4608144194608035 0
0.5641752744476101 0.09238593589952626 0
0.3176068709349548 0.8989286934156722 0
0.1162189996560627 0.797137329975256 0
0.9030357077386665 0.3055752583025996 0
0.794630094550139 0.253246112736445 0
0.8089271992712586 0.8969329480738456 0
0.744790979689143 0.7971341235585507 0
0.8912829315373819 0.807932767122583 0
0.6000607017127013 0.5278277927990199 0
0.5345132383245371 0.4652954203003553 0
0.803708803891968 0.1176253556254859 0
0.1994435318473284 0.2749822917253139 0
0.4618555497719221 0.5114430153083881 0
0.1892122881594374 0.3507141446363289 0
0.3357461949261834 0.3110602812741159 0
0.25191379274841 0.5708471892555573 0
0.1601399770260541 0.4799985735916691 0
0.4663775710970924 0.4483223495235573 0
0.5766890656909647 0.6124186471192088 0
0.8819851776487198 0.4824992437177249 0
0.7346687479726861 0.334317767707385 0
0.436093459937502 0.2173966206562749 0
0.3702136885495569 0.8109194199743455 0
0.2743924635334129 0.7978494954836751 0
0.3562850065044051 0.668373422401137 0
0.2876529077724405 0.6864932158800404 0
0.6128453213053461 0.1922913726980904 0
0.4530070125484681 0.7848824309581699 0
0.4656252785923908 0.2805198435531347 0
0.1184125288476198 0.3934651017014562 0
0.8058170500939839 0.6522442200351165 0
0.2878870055254644 0.2598791124125222 0
0.7160354136486331 0.1858188612953349 0
0.09189199788364244 0.1133290002932552 0
0.9061023593241897 0.9064461902176569 0
0.9084936490538904 0.09150635094610948 0
0.6212359940060794 0.8359542834185673 0
0.8152127995051188 0.7280513508187976 0
0.09150635094610998 0.9084936490538902 0
0.6272875798587433 0.664603438366319 0
0.5149761680986604 0.1659624759228011 0
0.3378936354644901 0.738211985124674 0
0.5040051114518482 0.8409484893366695 0
0.9314403023688753 0.5665822970448307 0
0.1814291399676957 0.5548261308570966 0
0.9201198907316657 0.4085948077566531 0
0.2515512740677667 0.6340323195081489 0
0.196821868151824 0.7993762696379332 0
0.3556929069620722 0.2561776200851343 0
0.07080851244062342 0.2018062385174301 0
$EndNodes
$Elements
6 288 1 288
1 1 1 8
1 1 8 
2 8 9 
3 9 10 
4 10 11 
5 11 12 
6 12 13 
7 13 14 
8 14 2 
1 2 1 8
9 3 15 
10 15 16 
11 16 17 
12 17 18 
13 18 19 
14 19 20 
15 20 21 
16 21 1 
1 3 1 8
17 2 22 
18 22 23 
19 23 24 
20 24 25 
21 25 26 
22 26 27 
23 27 28 
24 28 4 
1 4 1 8
25 4 29 
26 29 30 
27 30 31 
28 31 32 
29 32 33 
30 33 34 
31 34 35 
32 35 3 
2 2 2 16
33 38 6 39 
34 44 5 36 
35 41 7 42 
36 42 45 41 
37 43 45 42 
38 40 46 39 
39 38 46 37 
40 45 46 40 
41 39 46 38 
42 36 47 44 
43 45 47 46 
44 44 47 43 
45 37 47 36 
46 46 47 37 
47 43 47 45 
48 41 45 40 
2 3 2 240
49 76 108 105 
50 108 113 105 
51 77 116 100 
52 77 100 99 
53 90 102 79 
54 80 93 91 
55 102 132 79 
56 8 129 1 
57 100 106 73 
58 100 128 106 
59 76 105 104 
60 102 133 103 
61 57 144 117 
62 70 122 58 
63 5 125 109 
64 102 103 101 
65 112 140 84 
66 95 112 84 
67 84 87 72 
68 19 125 95 
69 1 129 21 
70 80 91 10 
71 112 125 5 
72 91 92 68 
73 16 98 15 
74 11 96 80 
75 31 89 69 
76 17 84 72 
77 91 93 92 
78 20 83 19 
79 88 142 121 
80 109 125 83 
81 87 142 88 
82 69 132 102 
83 117 124 57 
84 58 122 64 
85 33 97 82 
86 19 95 18 
87 80 117 93 
88 52 105 49 
89 107 109 83 
90 9 91 68 
91 94 107 83 
92 18 95 84 
93 86 139 50 
94 83 125 19 
95 17 72 16 
96 82 89 32 
97 18 84 17 
98 98 134 15 
99 9 68 8 
100 99 100 73 
101 81 96 12 
102 92 94 68 
103 90 133 102 
104 88 121 119 
105 11 80 10 
106 84 140 87 
107 129 145 21 
108 71 119 97 
109 33 82 32 
110 69 102 101 
111 100 116 64 
112 87 88 72 
113 96 136 80 
114 31 69 30 
115 115 141 25 
116 23 99 73 
117 13 81 12 
118 27 50 26 
119 70 136 122 
120 69 101 30 
121 10 91 9 
122 60 105 52 
123 71 97 34 
124 72 98 16 
125 50 126 86 
126 12 96 11 
127 23 73 22 
128 32 89 31 
129 27 103 50 
130 89 132 69 
131 34 97 33 
132 85 104 66 
133 24 99 23 
134 68 129 8 
135 93 127 92 
136 117 144 93 
137 20 145 83 
138 13 106 81 
139 78 85 66 
140 111 140 67 
141 35 71 34 
142 107 127 56 
143 121 137 119 
144 21 145 20 
145 30 101 29 
146 104 114 76 
147 132 138 74 
148 126 133 90 
149 104 105 60 
150 28 103 27 
151 87 140 111 
152 64 128 100 
153 14 106 13 
154 97 118 82 
155 50 139 26 
156 105 113 49 
157 71 143 119 
158 25 141 24 
159 79 135 90 
160 66 104 60 
161 78 90 85 
162 92 107 94 
163 106 128 81 
164 95 125 112 
165 85 114 104 
166 59 60 52 
167 41 48 7 
168 4 130 28 
169 29 130 4 
170 6 49 39 
171 81 122 96 
172 75 78 66 
173 40 108 41 
174 56 109 107 
175 39 113 40 
176 65 66 60 
177 48 76 55 
178 2 131 14 
179 22 131 2 
180 75 86 78 
181 65 77 75 
182 3 134 35 
183 15 134 3 
184 36 56 37 
185 7 53 42 
186 37 110 38 
187 82 138 89 
188 38 57 6 
189 79 132 74 
190 67 140 112 
191 25 139 115 
192 83 145 94 
193 99 141 77 
194 65 75 66 
195 42 111 43 
196 5 109 36 
197 111 142 87 
198 59 65 60 
199 71 134 98 
200 62 79 74 
201 88 98 72 
202 58 59 52 
203 43 67 44 
204 48 54 7 
205 41 108 48 
206 61 63 54 
207 49 113 39 
208 40 113 108 
209 62 74 61 
210 92 127 107 
211 118 123 82 
212 51 70 58 
213 89 138 132 
214 58 64 59 
215 55 62 61 
216 48 55 54 
217 48 108 76 
218 44 112 5 
219 51 52 49 
220 76 114 55 
221 86 126 78 
222 6 51 49 
223 55 61 54 
224 51 58 52 
225 122 136 96 
226 65 116 77 
227 94 145 129 
228 77 115 75 
229 75 115 86 
230 59 116 65 
231 55 114 62 
232 97 119 118 
233 56 110 37 
234 38 110 57 
235 63 123 118 
236 64 116 59 
237 36 109 56 
238 103 133 50 
239 24 141 99 
240 53 111 42 
241 120 137 121 
242 14 131 106 
243 122 128 64 
244 70 124 117 
245 73 131 22 
246 106 131 73 
247 93 144 127 
248 101 130 29 
249 63 137 120 
250 43 111 67 
251 78 126 90 
252 28 130 103 
253 98 143 71 
254 103 130 101 
255 63 120 54 
256 54 120 7 
257 115 139 86 
258 118 137 63 
259 94 129 68 
260 7 120 53 
261 74 123 61 
262 90 135 85 
263 35 134 71 
264 123 138 82 
265 61 123 63 
266 120 121 53 
267 67 112 44 
268 57 124 6 
269 51 124 70 
270 77 141 115 
271 26 139 25 
272 114 135 62 
273 56 127 110 
274 6 124 51 
275 119 137 118 
276 85 135 114 
277 81 128 122 
278 80 136 117 
279 62 135 79 
280 117 136 70 
281 119 143 88 
282 121 142 53 
283 88 143 98 
284 127 144 110 
285 50 133 126 
286 110 144 57 
287 53 142 111 
288 74 138 123 
$EndElements
