$MeshFormat
4.1 0 8
$EndMeshFormat
$PhysicalNames
3
1 101 "outer_boundary"
2 1 "material_1"
2 2 "material_2"
$EndPhysicalNames
$Entities
8 8 2 0
1 0 0 0 0 
2 1 0 0 0 
3 0 1 0 0 
4 1 1 0 0 
5 0.5478869055779713 0.2790243578009684 0 0 
6 0.4917807313348437 0.486939423090236 0 0 
7 0.2838656660455761 0.4308332488471084 0 0 
8 0.3399718402887036 0.2229181835578408 0 0 
1 -9.999999994736442e-08 -1e-07 -1e-07 1.0000001 1e-07 1e-07 1 101 2 1 -2 
2 -1e-07 -9.999999994736442e-08 -1e-07 1e-07 1.0000001 1e-07 1 101 2 3 -1 
3 0.9999999000000001 -9.999999994736442e-08 -1e-07 1.0000001 1.0000001 1e-07 1 101 2 2 -4 
4 -9.999999994736442e-08 0.9999999000000001 -1e-07 1.0000001 1.0000001 1e-07 1 101 2 4 -3 
5 0.4917806313348437 0.2790242578009684 -1e-07 0.5478870055779712 0.486939523090236 1e-07 0 2 5 -6 
6 0.2838655660455761 0.4308331488471084 -1e-07 0.4917808313348437 0.486939523090236 1e-07 0 2 6 -7 
7 0.2838655660455761 0.2229180835578408 -1e-07 0.3399719402887036 0.4308333488471084 1e-07 0 2 7 -8 
8 0.3399717402887036 0.2229180835578408 -1e-07 0.5478870055779712 0.2790244578009684 1e-07 0 2 8 -5 
2 0.2838655660455761 0.2229180835578408 -1e-07 0.5478870055779712 0.486939523090236 1e-07 1 2 4 5 6 7 8 
3 -9.999999994736442e-08 -9.999999994736442e-08 -1e-07 1.0000001 1.0000001 1e-07 1 1 8 1 3 4 2 -5 -8 -7 -6 
$EndEntities
$Nodes
18 224 1 224
0 1 0 1
1
0 0 0
0 2 0 1
2
1 0 0
0 3 0 1
3
0 1 0
0 4 0 1
4
1 1 0
0 5 0 1
5
0.5478869055779713 0.2790243578009684 0
0 6 0 1
6
0.4917807313348437 0.486939423090236 0
0 7 0 1
7
0.2838656660455761 0.4308332488471084 0
0 8 0 1
8
0.3399718402887036 0.2229181835578408 0
1 1 0 9
9
10
11
12
13
14
15
16
17
0.09999999999999996 0 0
0.1999999999999999 0 0
0.3000000000000001 0 0
0.4000000000000004 0 0
0.5000000000000003 0 0
0.5999999999999999 0 0
0.6999999999999995 0 0
0.7999999999999992 0 0
0.899999999999999 0 0
1 2 0 9
18
19
20
21
22
23
24
25
26
0 0.9 0
0 0.8 0
0 0.7 0
0 0.5999999999999996 0
0 0.4999999999999997 0
0 0.4000000000000001 0
0 0.3000000000000005 0
0 0.2000000000000008 0
0 0.100000000000001 0
1 3 0 9
27
28
29
30
31
32
33
34
35
1 0.09999999999999996 0
1 0.1999999999999999 0
1 0.3000000000000001 0
1 0.4000000000000004 0
1 0.5000000000000003 0
1 0.5999999999999999 0
1 0.6999999999999995 0
1 0.7999999999999992 0
1 0.899999999999999 0
1 4 0 9
36
37
38
39
40
41
42
43
44
0.9 1 0
0.8 1 0
0.7 1 0
0.5999999999999996 1 0
0.4999999999999997 1 0
0.4000000000000001 1 0
0.3000000000000005 1 0
0.2000000000000008 1 0
0.100000000000001 1 0
1 5 0 3
45
46
47
0.5338603620171893 0.3310031241232853 0
0.5198338184564074 0.3829818904456022 0
0.5058072748956256 0.4349606567679192 0
1 6 0 3
48
49
50
0.4398019650125268 0.4729128795294541 0
0.3878231986902099 0.4588863359686722 0
0.335844432367893 0.4448597924078903 0
1 7 0 3
51
52
53
0.297892209606358 0.3788544825247915 0
0.3119187531671399 0.3268757162024746 0
0.3259452967279218 0.2748969498801577 0
1 8 0 3
54
55
56
0.3919506066110205 0.2369447271186227 0
0.4439293729333375 0.2509712706794046 0
0.4959081392556544 0.2649978142401865 0
2 2 0 15
57
58
59
60
61
62
63
64
65
66
67
68
69
70
71
0.362886755560957 0.3129838712450162 0
0.460718372515368 0.3011415748027922 0
0.4259599249022945 0.4208846756565617 0
0.348914688156209 0.3645191060362343 0
0.4019486173521428 0.3511704023043269 0
0.3721126279863469 0.4072284343165297 0
0.4580378749175636 0.3708440633788145 0
0.4096575779217312 0.2944925124524133 0
0.4724216983990609 0.4124981873234242 0
0.4945599201845275 0.3482797688099619 0
0.3321849064493326 0.4030502935254928 0
0.3677547956103193 0.2712374239615973 0
0.5015178655925608 0.3062372777327643 0
0.4408088206813982 0.3356088663607195 0
0.4690967848689011 0.4482684334394837 0
2 3 0 153
72
73
74
75
76
77
78
79
80
81
82
83
84
85
86
87
88
89
90
91
92
93
94
95
96
97
98
99
100
101
102
103
104
105
106
107
108
109
110
111
112
113
114
115
116
117
118
119
120
121
122
123
124
125
126
127
128
129
130
131
132
133
134
135
136
137
138
139
140
141
142
143
144
145
146
147
148
149
150
151
152
153
154
155
156
157
158
159
160
161
162
163
164
165
166
167
168
169
170
171
172
173
174
175
176
177
178
179
180
181
182
183
184
185
186
187
188
189
190
191
192
193
194
195
196
197
198
199
200
201
202
203
204
205
206
207
208
209
210
211
212
213
214
215
216
217
218
219
220
221
222
223
224
0.3548112395993285 0.4963356143469977 0
0.5452185226462363 0.4719941691896093 0
0.5284143260931766 0.5263684718501862 0
0.5876072300727194 0.3185959990858523 0
0.5886885101871973 0.5109454027792806 0
0.5722651862207782 0.5725120083726702 0
0.5052345393190046 0.5831431784324153 0
0.9251824495259098 0.7526118907141301 0
0.6350236439933699 0.5563051277576487 0
0.6146468262371906 0.624193790321531 0
0.3524308664979051 0.922485877874065 0
0.6509290675336216 0.4907925957712221 0
0.9196751126264351 0.2501917058112554 0
0.5982062725574864 0.2619719965014035 0
0.644874819090419 0.3048527715294745 0
0.2846034371900344 0.2376429278952035 0
0.2598905492942475 0.340717756312707 0
0.08660254037844389 0.6499999999999997 0
0.7012474544103076 0.5384691816875583 0
0.7172664791476562 0.468153981048701 0
0.662046149232059 0.2427361605804583 0
0.5457344709426349 0.9182742696182249 0
0.4818390340758089 0.2099437973108195 0
0.7090793175649736 0.2883660339081236 0
0.7293248139114532 0.2209517158325648 0
0.7530009637431019 0.9124438289712233 0
0.7717252405072812 0.5186639925381925 0
0.7539097587020607 0.5921381079116804 0
0.786304478228809 0.4439571362495986 0
0.07860944282742455 0.4451316953401163 0
0.08624872891056568 0.2563452872284058 0
0.3693383849769857 0.1818810613217184 0
0.3054604314896836 0.1822796047529575 0
0.5958483291301292 0.203455665390565 0
0.2403122529181083 0.1962081537194567 0
0.1510488265326812 0.9130346607648107 0
0.6260079953744009 0.3614242366180773 0
0.8296951087997924 0.5715991778982621 0
0.8500706038368468 0.07099933662125035 0
0.1489871301541978 0.08266649510305429 0
0.8079559480523175 0.6495797976823721 0
0.7321573735321077 0.6694953197368054 0
0.7853131798873585 0.7293793187945989 0
0.7065472997649749 0.7513974563601682 0
0.7782411437316987 0.2795310510077498 0
0.3357657972792011 0.1253891389434691 0
0.410984591540602 0.1239735131763468 0
0.2624234497440543 0.1309657974712001 0
0.453644005122759 0.5249410834023466 0
0.4375796871341428 0.5935319958522971 0
0.4813155866189641 0.6480044304096785 0
0.4081580946671286 0.6568813036055832 0
0.4509607157332509 0.7143633160123116 0
0.3792836956570359 0.7235574737140813 0
0.3340261523709629 0.6625266170915181 0
0.3039538912358402 0.7308545152141634 0
0.2596756034057465 0.667281992838755 0
0.2236508466400504 0.7389035498053255 0
0.5167005350228218 0.7047065072215726 0
0.4254806603152997 0.7856587985556818 0
0.2929253304365386 0.5980694716747827 0
0.2183471196382162 0.6036959744007078 0
0.2518504575787351 0.529545112044391 0
0.1786124389758351 0.5416666072360876 0
0.2722041040392132 0.8057891549087975 0
0.541452225088253 0.0886805657438835 0
0.2256813552339986 0.2599280291639392 0
0.2066646946543367 0.4892027389605208 0
0.7346104779095584 0.3983806400393395 0
0.9201335476540009 0.4508865644437998 0
0.7968774057444157 0.2131985031092953 0
0.743596511067404 0.1432569873270536 0
0.8103095795838782 0.3602739294312071 0
0.8894291951853336 0.6255601548868919 0
0.08183800955368797 0.3498958302120401 0
0.1452845606757042 0.3948500172906908 0
0.3932641206628945 0.549355806445295 0
0.0904653801296107 0.5469122661477123 0
0.1623430706337802 0.3055237424790692 0
0.9080505102815757 0.3541337409137861 0
0.1884549586552504 0.8227409846924274 0
0.1395275257689901 0.7428155990345164 0
0.1676604644400174 0.2218428000717399 0
0.4486032051083031 0.9218444429971862 0
0.7679002766319335 0.8153879119808719 0
0.6803297741729997 0.834801575173459 0
0.8390285269626768 0.8699176811284843 0
0.6253231215485128 0.7636584336700023 0
0.09516542084892027 0.1546063994765619 0
0.6499999999999997 0.08660254037844345 0
0.2547994759357288 0.902514760416449 0
0.6600665997414112 0.4169593802296533 0
0.08745093238284779 0.8364837376764096 0
0.9137417449000629 0.5408299308952744 0
0.488163369304642 0.8374706493868844 0
0.6584948109017221 0.6833005622196764 0
0.6007563004908325 0.4522646135966248 0
0.9103400501267431 0.1471869272699665 0
0.2986321889904518 0.4844480748271796 0
0.1802658909536865 0.6703196215350687 0
0.5713587336128054 0.3693853600818676 0
0.641845474950149 0.918105476854201 0
0.2718565304725881 0.2915590263951033 0
0.2505763347849057 0.3989541806886511 0
0.3489203095067777 0.7923522385042465 0
0.5356766681930384 0.2280812012542697 0
0.5302386483609263 0.1696523311048683 0
0.682579977962793 0.6106503482724833 0
0.4300873328231052 0.1989430668065122 0
0.3248131357857429 0.5431732097764839 0
0.546629278319071 0.6367107454773702 0
0.5576127010972035 0.4189345991284124 0
0.8449089862200636 0.4924550885106903 0
0.9190837647950674 0.8383154866423042 0
0.6871849577829312 0.3509203485238545 0
0.3629185317772657 0.6007884327160211 0
0.5871462749607539 0.8415930066265636 0
0.6603116036469259 0.1732560773392699 0
0.455293858582855 0.07200799207582997 0
0.1493799281316395 0.6037816875636346 0
0.8487684962481861 0.7851946683423932 0
0.8505224492054799 0.287733354305286 0
0.1896284026610232 0.1461038874911462 0
0.2075665283175259 0.3621830126956951 0
0.5414814388455849 0.7772476350566098 0
0.1472655093793337 0.4790051466034335 0
0.3971759977596631 0.852227441998851 0
0.4648715816685718 0.1501612790363914 0
0.5896129964956671 0.6877045581063534 0
0.7499999999999993 0.06304603156038263 0
0.3666425174994096 0.06536817841015069 0
0.9168788384021591 0.9256106872912864 0
0.2967146831361679 0.07805572781700254 0
0.4052526982948284 0.5012985609886234 0
0.8648523933307831 0.7042253228160162 0
0.8533790378616426 0.4196852341990711 0
0.5955701612452469 0.144329435991406 0
0.7460597200725269 0.3355600603827994 0
0.07320508075688753 0.07320508075688781 0
0.05992013496612436 0.75 0
0.225995372140011 0.07080541901540088 0
0.926794919243112 0.07320508075688781 0
0.07320508075688797 0.9267949192431122 0
0.2492990342247228 0.4594571593091276 0
0.2011094436727549 0.4306087092580198 0
0.3251061507478575 0.8550738947404819 0
0.4824429994058346 0.7671371678527188 0
0.9324650910855937 0.6830261064757112 0
0.6029356940231591 0.402925360424604 0
0.8625842392766836 0.2039075191281465 0
0.225467606790428 0.3119823134093027 0
0.8132732117525153 0.1376088454786798 0
0.8417816658215875 0.9415944394781988 0
$EndNodes
$Elements
6 446 1 446
1 1 1 10
1 1 9 
2 9 10 
3 10 11 
4 11 12 
5 12 13 
6 13 14 
7 14 15 
8 15 16 
9 16 17 
10 17 2 
1 2 1 10
11 3 18 
12 18 19 
13 19 20 
14 20 21 
15 21 22 
16 22 23 
17 23 24 
18 24 25 
19 25 26 
20 26 1 
1 3 1 10
21 2 27 
22 27 28 
23 28 29 
24 29 30 
25 30 31 
26 31 32 
27 32 33 
28 33 34 
29 34 35 
30 35 4 
1 4 1 10
31 4 36 
32 36 37 
33 37 38 
34 38 39 
35 39 40 
36 40 41 
37 41 42 
38 42 43 
39 43 44 
40 44 3 
2 2 2 44
41 61 63 59 
42 59 62 61 
43 61 62 60 
44 57 64 61 
45 46 65 63 
46 64 70 61 
47 63 66 46 
48 53 57 52 
49 57 60 52 
50 56 58 55 
51 49 59 48 
52 52 60 51 
53 57 61 60 
54 47 65 46 
55 66 70 58 
56 55 64 54 
57 50 62 49 
58 49 62 59 
59 58 64 55 
60 61 70 63 
61 63 65 59 
62 51 67 7 
63 7 67 50 
64 54 68 8 
65 8 68 53 
66 5 69 56 
67 45 69 5 
68 58 70 64 
69 58 69 66 
70 59 71 48 
71 63 70 66 
72 64 68 54 
73 50 67 62 
74 46 66 45 
75 56 69 58 
76 60 67 51 
77 53 68 57 
78 65 71 59 
79 48 71 6 
80 6 71 47 
81 62 67 60 
82 57 68 64 
83 66 69 45 
84 47 71 65 
2 3 2 362
85 78 120 74 
86 177 178 105 
87 142 193 116 
88 148 181 72 
89 178 199 137 
90 105 208 189 
91 148 187 181 
92 78 121 120 
93 146 147 101 
94 102 154 150 
95 136 162 152 
96 189 208 161 
97 85 177 105 
98 144 193 151 
99 151 207 144 
100 74 120 6 
101 26 160 25 
102 152 162 107 
103 142 221 193 
104 150 154 138 
105 143 189 161 
106 123 187 121 
107 19 164 18 
108 23 146 101 
109 196 200 159 
110 137 199 190 
111 121 187 148 
112 130 200 196 
113 145 165 32 
114 178 208 105 
115 164 214 18 
116 5 177 85 
117 166 198 131 
118 89 171 153 
119 161 201 143 
120 102 150 146 
121 21 149 89 
122 7 215 175 
123 4 203 35 
124 167 179 113 
125 81 179 167 
126 26 210 160 
127 144 209 116 
128 97 173 157 
129 116 193 144 
130 8 104 103 
131 155 198 166 
132 36 203 4 
133 14 161 137 
134 146 150 147 
135 141 151 30 
136 147 216 197 
137 173 188 157 
138 25 160 102 
139 32 219 145 
140 97 157 156 
141 153 211 89 
142 102 146 24 
143 107 164 152 
144 38 173 97 
145 82 155 41 
146 149 191 89 
147 121 148 120 
148 147 197 101 
149 101 149 22 
150 23 101 22 
151 32 165 31 
152 136 217 162 
153 133 134 132 
154 108 186 163 
155 25 102 24 
156 42 162 82 
157 104 117 103 
158 156 158 97 
159 14 137 13 
160 29 151 84 
161 21 89 20 
162 10 111 9 
163 73 168 76 
164 157 188 159 
165 31 165 141 
166 118 202 190 
167 221 223 169 
168 15 161 14 
169 29 84 28 
170 135 191 149 
171 24 146 23 
172 128 132 126 
173 215 216 175 
174 40 155 93 
175 31 141 30 
176 118 180 103 
177 197 216 139 
178 42 82 41 
179 141 207 151 
180 34 79 33 
181 40 93 39 
182 149 197 135 
183 135 139 134 
184 190 202 12 
185 91 163 140 
186 102 160 154 
187 155 166 93 
188 22 149 21 
189 134 215 170 
190 30 151 29 
191 159 167 115 
192 107 162 43 
193 181 187 132 
194 104 119 117 
195 41 155 40 
196 122 182 130 
197 43 162 42 
198 76 168 83 
199 169 223 110 
200 157 159 115 
201 17 110 16 
202 161 208 137 
203 38 97 37 
204 126 187 123 
205 84 169 28 
206 159 200 167 
207 107 214 164 
208 15 201 161 
209 44 107 43 
210 128 133 132 
211 113 179 99 
212 91 140 100 
213 89 211 20 
214 163 186 140 
215 83 168 163 
216 13 190 12 
217 138 222 150 
218 83 163 91 
219 112 113 99 
220 72 205 148 
221 89 191 171 
222 204 212 11 
223 28 169 27 
224 78 122 121 
225 125 126 123 
226 170 181 134 
227 39 173 38 
228 101 197 149 
229 93 188 173 
230 139 215 134 
231 11 212 10 
232 133 135 134 
233 115 167 113 
234 93 173 39 
235 82 198 155 
236 110 201 16 
237 78 182 122 
238 114 115 113 
239 127 128 126 
240 140 144 100 
241 134 181 132 
242 86 108 75 
243 35 185 34 
244 111 194 160 
245 160 194 154 
246 152 153 129 
247 49 72 50 
248 156 157 115 
249 76 83 80 
250 112 114 113 
251 47 73 6 
252 33 219 32 
253 125 127 126 
254 122 123 121 
255 5 75 45 
256 45 172 46 
257 109 112 99 
258 73 183 168 
259 98 99 90 
260 50 170 7 
261 117 118 103 
262 128 171 133 
263 193 221 84 
264 160 210 111 
265 132 187 126 
266 165 184 141 
267 150 195 147 
268 1 210 26 
269 9 210 1 
270 114 156 115 
271 118 199 180 
272 122 130 124 
273 152 164 153 
274 46 183 47 
275 83 91 90 
276 162 217 82 
277 77 78 74 
278 137 190 13 
279 124 125 123 
280 127 129 128 
281 6 120 48 
282 163 220 108 
283 53 87 8 
284 34 185 79 
285 109 165 145 
286 52 174 53 
287 153 171 129 
288 127 136 129 
289 91 100 98 
290 51 88 52 
291 110 223 201 
292 12 202 11 
293 2 213 17 
294 27 213 2 
295 136 152 129 
296 151 193 84 
297 3 214 44 
298 18 214 3 
299 109 145 112 
300 98 109 99 
301 83 90 80 
302 124 131 125 
303 73 74 6 
304 122 124 123 
305 156 192 158 
306 80 81 77 
307 96 116 95 
308 7 175 51 
309 167 200 81 
310 92 95 86 
311 76 80 77 
312 129 171 128 
313 91 98 90 
314 55 94 56 
315 148 205 120 
316 96 143 142 
317 54 180 55 
318 87 138 106 
319 76 77 74 
320 72 170 50 
321 95 186 86 
322 75 172 45 
323 56 177 5 
324 8 103 54 
325 119 204 117 
326 99 179 90 
327 73 76 74 
328 158 192 185 
329 47 183 73 
330 108 172 75 
331 35 203 185 
332 96 142 116 
333 172 183 46 
334 125 176 127 
335 85 86 75 
336 92 96 95 
337 85 105 92 
338 80 179 81 
339 202 204 11 
340 131 218 166 
341 131 176 125 
342 90 179 80 
343 166 188 93 
344 85 92 86 
345 109 184 165 
346 5 85 75 
347 158 224 97 
348 72 181 170 
349 86 186 108 
350 190 199 118 
351 175 216 195 
352 97 224 37 
353 127 176 136 
354 87 174 138 
355 77 182 78 
356 10 212 111 
357 185 192 79 
358 171 191 133 
359 81 182 77 
360 53 174 87 
361 100 184 98 
362 138 154 106 
363 88 174 52 
364 49 205 72 
365 168 220 163 
366 111 210 9 
367 137 208 178 
368 145 206 112 
369 98 184 109 
370 51 175 88 
371 116 209 95 
372 133 191 135 
373 96 189 143 
374 182 200 130 
375 135 197 139 
376 180 199 94 
377 87 104 8 
378 81 200 182 
379 114 192 156 
380 120 205 48 
381 19 211 164 
382 16 201 15 
383 106 119 104 
384 188 196 159 
385 55 180 94 
386 79 219 33 
387 94 177 56 
388 194 212 119 
389 48 205 49 
390 169 213 27 
391 95 209 186 
392 103 180 54 
393 130 218 124 
394 201 223 143 
395 94 199 178 
396 87 106 104 
397 20 211 19 
398 17 213 110 
399 175 195 88 
400 100 207 184 
401 105 189 92 
402 92 189 96 
403 184 207 141 
404 140 209 144 
405 164 211 153 
406 94 178 177 
407 44 214 107 
408 84 221 169 
409 114 206 192 
410 110 213 169 
411 112 206 114 
412 131 198 176 
413 154 194 106 
414 111 212 194 
415 142 223 221 
416 117 202 118 
417 37 224 36 
418 106 194 119 
419 144 207 100 
420 195 216 147 
421 166 196 188 
422 196 218 130 
423 117 204 202 
424 186 209 140 
425 185 203 158 
426 192 206 79 
427 139 216 215 
428 145 219 206 
429 119 212 204 
430 170 215 7 
431 124 218 131 
432 172 220 183 
433 88 222 174 
434 198 217 176 
435 166 218 196 
436 143 223 142 
437 176 217 136 
438 183 220 168 
439 206 219 79 
440 108 220 172 
441 82 217 198 
442 174 222 138 
443 150 222 195 
444 195 222 88 
445 36 224 203 
446 203 224 158 
$EndElements
