$MeshFormat
4.1 0 8
$EndMeshFormat
$PhysicalNames
3
1 101 "outer_boundary"
2 1 "material_1"
2 2 "material_2"
$EndPhysicalNames
$Entities
8 8 2 0
1 0 0 0 0 
2 1 0 0 0 
3 0 1 0 0 
4 1 1 0 0 
5 0.2638710133707143 0.09686483053078555 0 0 
6 0.4616447988222654 0.2893547326327751 0 0 
7 0.2691548967202759 0.4871285180843262 0 0 
8 0.07138111126872479 0.2946386159823367 0 0 
1 -9.999999994736442e-08 -1e-07 -1e-07 1.0000001 1e-07 1e-07 1 101 2 1 -2 
2 -1e-07 -9.999999994736442e-08 -1e-07 1e-07 1.0000001 1e-07 1 101 2 3 -1 
3 0.9999999000000001 -9.999999994736442e-08 -1e-07 1.0000001 1.0000001 1e-07 1 101 2 2 -4 
4 -9.999999994736442e-08 0.9999999000000001 -1e-07 1.0000001 1.0000001 1e-07 1 101 2 4 -3 
5 0.2638709133707143 0.09686473053078555 -1e-07 0.4616448988222654 0.2893548326327751 1e-07 0 2 5 -6 
6 0.2691547967202759 0.2893546326327751 -1e-07 0.4616448988222654 0.4871286180843262 1e-07 0 2 6 -7 
7 0.07138101126872479 0.2946385159823367 -1e-07 0.2691549967202759 0.4871286180843262 1e-07 0 2 7 -8 
8 0.07138101126872479 0.09686473053078554 -1e-07 0.2638711133707143 0.2946387159823367 1e-07 0 2 8 -5 
2 0.07138101126872479 0.09686473053078554 -1e-07 0.4616448988222654 0.4871286180843262 1e-07 1 2 4 5 6 7 8 
3 -9.999999994736442e-08 -9.999999994736442e-08 -1e-07 1.0000001 1.0000001 1e-07 1 1 8 1 3 4 2 -5 -8 -7 -6 
$EndEntities
$Nodes
18 149 1 149
0 1 0 1
1
0 0 0
0 2 0 1
2
1 0 0
0 3 0 1
3
0 1 0
0 4 0 1
4
1 1 0
0 5 0 1
5
0.2638710133707143 0.09686483053078555 0
0 6 0 1
6
0.4616447988222654 0.2893547326327751 0
0 7 0 1
7
0.2691548967202759 0.4871285180843262 0
0 8 0 1
8
0.07138111126872479 0.2946386159823367 0
1 1 0 7
9
10
11
12
13
14
15
0.1249999999999999 0 0
0.2499999999999998 0 0
0.3749999999999993 0 0
0.4999999999999988 0 0
0.6249999999999988 0 0
0.7499999999999991 0 0
0.8749999999999997 0 0
1 2 0 7
16
17
18
19
20
21
22
0 0.8750000000000001 0
0 0.7500000000000002 0
0 0.6250000000000007 0
0 0.5000000000000012 0
0 0.3750000000000012 0
0 0.2500000000000009 0
0 0.1250000000000003 0
1 3 0 7
23
24
25
26
27
28
29
1 0.1249999999999999 0
1 0.2499999999999998 0
1 0.3749999999999993 0
1 0.4999999999999988 0
1 0.6249999999999988 0
1 0.7499999999999991 0
1 0.8749999999999997 0
1 4 0 7
30
31
32
33
34
35
36
0.8750000000000001 1 0
0.7500000000000002 1 0
0.6250000000000007 1 0
0.5000000000000012 1 0
0.3750000000000012 1 0
0.2500000000000009 1 0
0.1250000000000003 1 0
1 5 0 3
37
38
39
0.313314459733602 0.1449873060562829 0
0.3627579060964896 0.1931097815817801 0
0.4122013524593775 0.2412322571072776 0
1 6 0 3
40
41
42
0.4135223232967681 0.3387981789956628 0
0.3653998477712709 0.3882416253585504 0
0.3172773722457735 0.4376850717214383 0
1 7 0 3
43
44
45
0.2197114503573882 0.4390060425588289 0
0.1702680039945006 0.3908835670333317 0
0.1208245576316127 0.3427610915078342 0
1 8 0 3
46
47
48
0.1195035867942221 0.245195169619449 0
0.1676260623197193 0.1957517232565613 0
0.2157485378452168 0.1463082768936734 0
2 2 0 14
49
50
51
52
53
54
55
56
57
58
59
60
61
62
0.3467901080532405 0.258845416315194 0
0.2930095762018564 0.3619203976934497 0
0.1826193368150213 0.3289813112958723 0
0.2359582913853064 0.2099177795424681 0
0.3006173105325045 0.2088529139475983 0
0.2787140419941437 0.2772248940926074 0
0.347296887407642 0.3210557494512586 0
0.2292322240026439 0.3755901712151073 0
0.1955461057402628 0.2668266969364911 0
0.2358242569507856 0.3221086942467056 0
0.2648380311390008 0.16828804244038 0
0.2656771039055876 0.4202660402546301 0
0.3902215869126709 0.2903217504010617 0
0.1428043231783193 0.2936715982140501 0
2 3 0 87
63
64
65
66
67
68
69
70
71
72
73
74
75
76
77
78
79
80
81
82
83
84
85
86
87
88
89
90
91
92
93
94
95
96
97
98
99
100
101
102
103
104
105
106
107
108
109
110
111
112
113
114
115
116
117
118
119
120
121
122
123
124
125
126
127
128
129
130
131
132
133
134
135
136
137
138
139
140
141
142
143
144
145
146
147
148
149
0.4302119560022032 0.407909693470959 0
0.5610937791859614 0.8925881113627789 0
0.8955919022549423 0.5645687604435216 0
0.3371796102577214 0.5039694381269318 0
0.2813120145743134 0.560537708808443 0
0.8823208031561175 0.3150846991004573 0
0.36342061198791 0.5772169350350588 0
0.2988944989106588 0.6396615481127511 0
0.3867057143578305 0.6598176929543217 0
0.4464970977479039 0.594785937389768 0
0.6789756253076257 0.09753505511157246 0
0.3242552629204876 0.725901846394654 0
0.4796043483333573 0.2188766132339344 0
0.5334402231822046 0.2706316894847962 0
0.2088853469911814 0.5274401177495602 0
0.4750650415947568 0.681897122122715 0
0.5398007421810769 0.6104012815247475 0
0.8956754468479644 0.8069879885593028 0
0.2225761778769034 0.7034954186660906 0
0.5690392667305261 0.7045477249173047 0
0.6320765065343702 0.6325402315107603 0
0.6032406367872369 0.5361637603391912 0
0.6674885690657586 0.728706329462389 0
0.2539079653130161 0.7970683298833898 0
0.7005784147411627 0.5703997968466795 0
0.673175365428504 0.4680323410737862 0
0.1501757979310315 0.4780116588792535 0
0.5800621050121687 0.4524487371991873 0
0.6366281310615689 0.3845391349619014 0
0.3480927288899754 0.8155613837345728 0
0.7322464497952268 0.3908552418441528 0
0.6945755622571765 0.2948101432066687 0
0.5520691208734343 0.1953605382741143 0
0.5161955510268799 0.3446731761998236 0
0.3757950414173427 0.1314247699091033 0
0.4920053600284274 0.1434081027702067 0
0.148868019481554 0.1293547137770418 0
0.157409314986407 0.7656263824644298 0
0.1329662254644934 0.57157783243148 0
0.0880388586887888 0.4307189984397312 0
0.4989808171810431 0.7909489254486624 0
0.5151114297927286 0.524222938161232 0
0.1762413621896916 0.8884588560003029 0
0.9000680924138769 0.4387962865553842 0
0.4248152457048748 0.5005460043370891 0
0.8977826382541441 0.1905142415680546 0
0.8945679695019744 0.6882720435897055 0
0.7799194232814075 0.7424341162944232 0
0.796055800302926 0.877850097204397 0
0.7968750697749065 0.6209915554342508 0
0.55917313921669 0.09597300549918747 0
0.4555092533031209 0.9006207764120107 0
0.8022165374952387 0.115354350172138 0
0.7888854937168956 0.4902251638725691 0
0.7891607093678787 0.2394840775222091 0
0.1028351083561013 0.6741774165508784 0
0.6126690077624102 0.2424950023202823 0
0.6739389575459614 0.8964324473312959 0
0.282693682171686 0.8948214480188664 0
0.3749768063963688 0.4476703666029937 0
0.4111997536169911 0.7488286038809029 0
0.05733547511715203 0.1875000000000006 0
0.4291549155760092 0.1743517387436148 0
0.3369100695586729 0.07330752366123183 0
0.1879442426967107 0.06228947517025929 0
0.6142445468474296 0.8037923093288238 0
0.4984573787004143 0.4246712943948043 0
0.6936987963989814 0.1993256154487713 0
0.2058677251841686 0.6152344683341782 0
0.8187456944653416 0.3845572811199793 0
0.5923471966968291 0.3198603384604378 0
0.4408326146368286 0.07768248418002432 0
0.0816818323860074 0.8408653507421591 0
0.9064464513197729 0.09390157703998575 0
0.7063294594086966 0.8098430599242659 0
0.09024665146508926 0.09920849724318492 0
0.9084936490538902 0.90849364905389 0
0.7153875966795211 0.6590144059097006 0
0.07705640888572868 0.5161474820944629 0
0.6226819654769657 0.1689391068671999 0
0.5647380724995722 0.3852385362432309 0
0.07475848475393848 0.9252415152460618 0
0.4246264808288461 0.8252813256257796 0
0.4622306584733101 0.3608856268061849 0
0.3733837255116229 0.8912815531216416 0
0.775178307715399 0.3223463457712023 0
0.1167159590355473 0.1714020207792475 0
$EndNodes
$Elements
6 296 1 296
1 1 1 8
1 1 9 
2 9 10 
3 10 11 
4 11 12 
5 12 13 
6 13 14 
7 14 15 
8 15 2 
1 2 1 8
9 3 16 
10 16 17 
11 17 18 
12 18 19 
13 19 20 
14 20 21 
15 21 22 
16 22 1 
1 3 1 8
17 2 23 
18 23 24 
19 24 25 
20 25 26 
21 26 27 
22 27 28 
23 28 29 
24 29 4 
1 4 1 8
25 4 30 
26 30 31 
27 31 32 
28 32 33 
29 33 34 
30 34 35 
31 35 36 
32 36 3 
2 2 2 42
33 54 55 50 
34 54 57 52 
35 50 58 54 
36 54 58 57 
37 49 55 54 
38 53 54 52 
39 57 58 51 
40 48 52 47 
41 39 49 38 
42 42 50 41 
43 45 51 44 
44 56 58 50 
45 41 55 40 
46 47 57 46 
47 44 56 43 
48 38 53 37 
49 49 54 53 
50 52 57 47 
51 49 53 38 
52 50 55 41 
53 51 56 44 
54 40 61 6 
55 37 59 5 
56 43 60 7 
57 5 59 48 
58 6 61 39 
59 8 62 45 
60 7 60 42 
61 46 62 8 
62 56 60 43 
63 55 61 40 
64 53 59 37 
65 57 62 46 
66 48 59 52 
67 39 61 49 
68 42 60 50 
69 45 62 51 
70 50 60 56 
71 49 61 55 
72 51 62 57 
73 52 59 53 
74 51 58 56 
2 3 2 222
75 117 130 115 
76 45 102 20 
77 93 116 88 
78 63 129 107 
79 107 122 63 
80 8 124 46 
81 98 134 113 
82 17 118 100 
83 118 131 81 
84 88 116 87 
85 7 77 43 
86 100 135 17 
87 21 124 8 
88 31 111 30 
89 114 145 103 
90 10 126 5 
91 64 114 103 
92 93 132 116 
93 87 116 112 
94 36 105 35 
95 18 141 101 
96 115 130 73 
97 43 89 44 
98 100 118 81 
99 129 146 96 
100 112 116 65 
101 70 131 67 
102 113 134 12 
103 111 139 30 
104 108 117 115 
105 101 118 18 
106 77 89 43 
107 20 102 19 
108 99 149 138 
109 72 104 79 
110 72 107 104 
111 66 107 69 
112 25 106 68 
113 11 126 10 
114 22 124 21 
115 96 143 129 
116 107 129 104 
117 109 112 65 
118 105 121 35 
119 48 127 5 
120 13 113 12 
121 91 133 94 
122 89 102 44 
123 138 149 124 
124 94 133 119 
125 67 131 77 
126 84 90 88 
127 79 104 84 
128 27 109 65 
129 44 102 45 
130 84 104 90 
131 69 107 72 
132 35 121 34 
133 121 147 34 
134 126 134 97 
135 65 106 26 
136 103 128 64 
137 25 68 24 
138 31 120 111 
139 68 108 24 
140 27 65 26 
141 33 64 32 
142 110 112 109 
143 80 110 109 
144 90 91 88 
145 14 73 13 
146 65 116 106 
147 26 106 25 
148 10 127 9 
149 73 113 13 
150 80 109 28 
151 97 134 125 
152 28 109 27 
153 116 132 106 
154 33 114 64 
155 5 127 10 
156 14 115 73 
157 84 88 87 
158 34 114 33 
159 68 117 108 
160 128 137 120 
161 24 108 23 
162 79 84 83 
163 101 131 118 
164 29 80 28 
165 80 111 110 
166 66 122 107 
167 15 115 14 
168 36 144 105 
169 64 128 120 
170 99 138 127 
171 94 130 117 
172 106 132 68 
173 68 148 117 
174 63 146 129 
175 32 120 31 
176 125 134 98 
177 85 140 110 
178 84 87 83 
179 132 148 68 
180 81 131 70 
181 19 141 18 
182 18 118 17 
183 64 120 32 
184 69 72 71 
185 76 96 6 
186 99 127 48 
187 40 63 41 
188 42 66 7 
189 2 136 15 
190 23 136 2 
191 91 93 88 
192 72 79 78 
193 79 83 82 
194 41 122 42 
195 91 94 93 
196 110 140 112 
197 112 140 87 
198 74 92 86 
199 82 103 78 
200 83 85 82 
201 104 129 90 
202 79 82 78 
203 4 139 29 
204 30 139 4 
205 72 78 71 
206 17 135 16 
207 69 71 70 
208 39 75 6 
209 102 141 19 
210 80 139 111 
211 86 105 100 
212 74 81 70 
213 11 134 126 
214 85 137 128 
215 63 122 41 
216 75 76 6 
217 71 74 70 
218 42 122 66 
219 86 100 81 
220 74 86 81 
221 69 70 67 
222 110 137 85 
223 66 69 67 
224 92 121 86 
225 74 123 92 
226 86 121 105 
227 38 125 39 
228 103 123 78 
229 66 67 7 
230 6 146 40 
231 85 128 82 
232 82 128 103 
233 77 101 89 
234 78 123 71 
235 67 77 7 
236 87 140 83 
237 95 119 76 
238 71 123 74 
239 96 146 6 
240 75 98 95 
241 75 95 76 
242 34 147 114 
243 37 97 38 
244 90 143 91 
245 12 134 11 
246 47 99 48 
247 117 148 94 
248 5 126 37 
249 108 136 23 
250 98 113 95 
251 1 138 22 
252 9 138 1 
253 124 149 46 
254 111 137 110 
255 15 136 115 
256 129 143 90 
257 127 138 9 
258 115 136 108 
259 119 133 76 
260 39 125 75 
261 76 133 96 
262 77 131 101 
263 119 130 94 
264 3 144 36 
265 16 144 3 
266 89 141 102 
267 29 139 80 
268 73 142 113 
269 105 135 100 
270 22 138 124 
271 105 144 135 
272 75 125 98 
273 120 137 111 
274 97 125 38 
275 145 147 92 
276 83 140 85 
277 40 146 63 
278 95 142 119 
279 37 126 97 
280 46 149 47 
281 114 147 145 
282 47 149 99 
283 94 148 93 
284 119 142 130 
285 101 141 89 
286 92 147 121 
287 113 142 95 
288 123 145 92 
289 103 145 123 
290 93 148 132 
291 133 143 96 
292 91 143 133 
293 130 142 73 
294 135 144 16 
295 8 20 21 
296 45 20 8 
$EndElements
