$MeshFormat
4.1 0 8
$EndMeshFormat
$PhysicalNames
3
1 101 "outer_boundary"
2 1 "material_1"
2 2 "material_2"
$EndPhysicalNames
$Entities
7 7 2 0
1 0 0 0 0 
2 1 0 0 0 
3 0 1 0 0 
4 1 1 0 0 
5 0.4325507645722169 0.659532443848289 0 0 
6 0.3955654686134588 0.361821026729558 0 0 
7 0.6718837668143244 0.478646529422153 0 0 
1 -9.999999994736442e-08 -1e-07 -1e-07 1.0000001 1e-07 1e-07 1 101 2 1 -2 
2 -1e-07 -9.999999994736442e-08 -1e-07 1e-07 1.0000001 1e-07 1 101 2 3 -1 
3 0.9999999000000001 -9.999999994736442e-08 -1e-07 1.0000001 1.0000001 1e-07 1 101 2 2 -4 
4 -9.999999994736442e-08 0.9999999000000001 -1e-07 1.0000001 1.0000001 1e-07 1 101 2 4 -3 
5 0.3955653686134588 0.361820926729558 -1e-07 0.4325508645722169 0.659532543848289 1e-07 0 2 5 -6 
6 0.3955653686134588 0.361820926729558 -1e-07 0.6718838668143243 0.478646629422153 1e-07 0 2 6 -7 
7 0.4325506645722169 0.478646429422153 -1e-07 0.6718838668143243 0.659532543848289 1e-07 0 2 7 -5 
2 0.3955653686134588 0.361820926729558 -1e-07 0.6718838668143243 0.659532543848289 1e-07 1 2 3 5 6 7 
3 -9.999999994736442e-08 -9.999999994736442e-08 -1e-07 1.0000001 1.0000001 1e-07 1 1 7 1 3 4 2 -5 -7 -6 
$EndEntities
$Nodes
16 392 1 392
0 1 0 1
1
0 0 0
0 2 0 1
2
1 0 0
0 3 0 1
3
0 1 0
0 4 0 1
4
1 1 0
0 5 0 1
5
0.4325507645722169 0.659532443848289 0
0 6 0 1
6
0.3955654686134588 0.361821026729558 0
0 7 0 1
7
0.6718837668143244 0.478646529422153 0
1 1 0 12
8
9
10
11
12
13
14
15
16
17
18
19
0.07692307692307693 0 0
0.1538461538461539 0 0
0.2307692307692308 0 0
0.3076923076923077 0 0
0.3846153846153846 0 0
0.4615384615384615 0 0
0.5384615384615384 0 0
0.6153846153846154 0 0
0.6923076923076923 0 0
0.7692307692307692 0 0
0.8461538461538461 0 0
0.923076923076923 0 0
1 2 0 12
20
21
22
23
24
25
26
27
28
29
30
31
0 0.9230769230769231 0
0 0.8461538461538461 0
0 0.7692307692307693 0
0 0.6923076923076923 0
0 0.6153846153846154 0
0 0.5384615384615385 0
0 0.4615384615384616 0
0 0.3846153846153846 0
0 0.3076923076923077 0
0 0.2307692307692308 0
0 0.1538461538461539 0
0 0.07692307692307698 0
1 3 0 12
32
33
34
35
36
37
38
39
40
41
42
43
1 0.07692307692307693 0
1 0.1538461538461539 0
1 0.2307692307692308 0
1 0.3076923076923077 0
1 0.3846153846153846 0
1 0.4615384615384615 0
1 0.5384615384615384 0
1 0.6153846153846154 0
1 0.6923076923076923 0
1 0.7692307692307692 0
1 0.8461538461538461 0
1 0.923076923076923 0
1 4 0 12
44
45
46
47
48
49
50
51
52
53
54
55
0.9230769230769231 1 0
0.8461538461538461 1 0
0.7692307692307693 1 0
0.6923076923076923 1 0
0.6153846153846154 1 0
0.5384615384615385 1 0
0.4615384615384616 1 0
0.3846153846153846 1 0
0.3076923076923077 1 0
0.2307692307692308 1 0
0.1538461538461539 1 0
0.07692307692307698 1 0
1 5 0 7
56
57
58
59
60
61
62
0.4279276025773721 0.6223185167084477 0
0.4233044405825274 0.5851045895686064 0
0.4186812785876826 0.5478906624287651 0
0.4140581165928379 0.5106767352889237 0
0.4094349545979931 0.4734628081490823 0
0.4048117926031484 0.4362488810092409 0
0.4001886306083036 0.3990349538693994 0
1 6 0 7
63
64
65
66
67
68
69
0.430105255888567 0.3764242145661323 0
0.4646450431636751 0.3910274024027067 0
0.4991848304387832 0.4056305902392811 0
0.5337246177138913 0.4202337780758554 0
0.5682644049889995 0.4348369659124298 0
0.6028041922641079 0.4494401537490042 0
0.6373439795392162 0.4640433415855786 0
1 7 0 7
70
71
72
73
74
75
76
0.641967141534061 0.50125726872542 0
0.6120505162537976 0.5238680080286869 0
0.5821338909735342 0.5464787473319539 0
0.5522172656932708 0.569089486635221 0
0.5223006404130073 0.5917002259384879 0
0.4923840151327438 0.614310965241755 0
0.4624673898524804 0.6369217045450219 0
2 2 0 21
77
78
79
80
81
82
83
84
85
86
87
88
89
90
91
92
93
94
95
96
97
0.4439747418731013 0.4880659959856567 0
0.547594103698426 0.5318755594953796 0
0.4877608531378991 0.5770970381019136 0
0.5383477797087363 0.4574477052156969 0
0.4692682051585199 0.4282413295425481 0
0.6074273542589528 0.4866540808888457 0
0.4347284178834117 0.4136381417059738 0
0.4578442278576356 0.5997077774051807 0
0.5728875669838445 0.4720508930522713 0
0.5038079924336279 0.4428445173791224 0
0.5084311544284729 0.4800584445189638 0
0.4738913671533646 0.4654552566823894 0
0.4532210658627909 0.5624938502653393 0
0.4831376911430543 0.5398831109620721 0
0.5176774784181625 0.5544862987986465 0
0.5130543164233178 0.5172723716588051 0
0.4393515798782565 0.4508520688458152 0
0.4485979038679461 0.5252799231254979 0
0.5775107289786894 0.5092648201921126 0
0.4785145291482095 0.5026691838222307 0
0.5429709417035812 0.4946616323555382 0
2 3 0 295
98
99
100
101
102
103
104
105
106
107
108
109
110
111
112
113
114
115
116
117
118
119
120
121
122
123
124
125
126
127
128
129
130
131
132
133
134
135
136
137
138
139
140
141
142
143
144
145
146
147
148
149
150
151
152
153
154
155
156
157
158
159
160
161
162
163
164
165
166
167
168
169
170
171
172
173
174
175
176
177
178
179
180
181
182
183
184
185
186
187
188
189
190
191
192
193
194
195
196
197
198
199
200
201
202
203
204
205
206
207
208
209
210
211
212
213
214
215
216
217
218
219
220
221
222
223
224
225
226
227
228
229
230
231
232
233
234
235
236
237
238
239
240
241
242
243
244
245
246
247
248
249
250
251
252
253
254
255
256
257
258
259
260
261
262
263
264
265
266
267
268
269
270
271
272
273
274
275
276
277
278
279
280
281
282
283
284
285
286
287
288
289
290
291
292
293
294
295
296
297
298
299
300
301
302
303
304
305
306
307
308
309
310
311
312
313
314
315
316
317
318
319
320
321
322
323
324
325
326
327
328
329
330
331
332
333
334
335
336
337
338
339
340
341
342
343
344
345
346
347
348
349
350
351
352
353
354
355
356
357
358
359
360
361
362
363
364
365
366
367
368
369
370
371
372
373
374
375
376
377
378
379
380
381
382
383
384
385
386
387
388
389
390
391
392
0.6157524306052219 0.5598630179023178 0
0.5314749119572323 0.632075719979341 0
0.6658136546509844 0.4397341729171897 0
0.565632733085436 0.4005161401992687 0
0.3967885166384358 0.6429148926963599 0
0.3872022154704281 0.535977496066425 0
0.371261170412299 0.4212324347966481 0
0.4626267652311608 0.3576579026884467 0
0.7285467511103256 0.9396539213445966 0
0.4021358872251527 0.683321660110784 0
0.362661956344287 0.6657693549084727 0
0.4370450795989551 0.6972483693302967 0
0.7263933752989119 0.0634837314755079 0
0.05948017847919329 0.268638212853627 0
0.7047712396478857 0.455782012072499 0
0.6975192237702689 0.4131354348113065 0
0.7066745843322436 0.4955724243961792 0
0.2714234757823744 0.06188581896591261 0
0.3681531561394319 0.7112527591521046 0
0.3257006434748121 0.6937484346657454 0
0.5785321611630164 0.06298457217007714 0
0.07197259829127056 0.4944150753573033 0
0.9386245688391084 0.6542305883397463 0
0.9357296824684216 0.2674675315370497 0
0.5808613117136869 0.9396500247438297 0
0.4233879100293854 0.05816567107482673 0
0.7406042564977927 0.4312009985433319 0
0.7339158205275091 0.3859232940233384 0
0.06679577422983907 0.8098742683321796 0
0.3321583636568776 0.7421335987468642 0
0.6894611459036576 0.3686768540296168 0
0.7277061597584861 0.3370304392966241 0
0.6786396564462575 0.3189870310129077 0
0.3221712762734212 0.6469893665947327 0
0.2807759706330329 0.6746514937802763 0
0.2771016256306019 0.6215625050780662 0
0.3750801287260688 0.7607334116017113 0
0.2328890781006792 0.6531243738287961 0
0.23775887440454 0.7075713411977103 0
0.7201424145689777 0.2852654195931267 0
0.6697869733208484 0.2670182713654668 0
0.7797053321004852 0.4035701117395208 0
0.7851782255354942 0.4536068104485673 0
0.9340432238149152 0.8063753649151246 0
0.337887394141769 0.794818558029206 0
0.228810074502965 0.5990114552392435 0
0.3871823155146745 0.8152501526343497 0
0.185375067242378 0.6850422483035452 0
0.8283507435654598 0.4240738077657589 0
0.8324079083198367 0.4788937145846205 0
0.1959597584472159 0.93642818326924 0
0.7697595025129123 0.3039201092514019 0
0.7631247584904044 0.2487187757010638 0
0.6282654470203122 0.3013660962077709 0
0.6187875177460203 0.2489829420844457 0
0.5780444007946914 0.2845061246307962 0
0.5679845491378738 0.2319274973362561 0
0.2737871057642606 0.5669384487989682 0
0.2256742757228821 0.5444523635736955 0
0.2703157262586454 0.5140928258292438 0
0.2226940554516922 0.4906173557560163 0
0.6600185248046273 0.2143777394777951 0
0.5281666524321335 0.2665639035530896 0
0.51752991415732 0.2138087095604 0
0.4803490761399407 0.2512322289591494 0
0.2672761919792404 0.4619037939397628 0
0.2197734864609489 0.4373194943155679 0
0.2643475360507087 0.4087183825800713 0
0.2168732043366282 0.3838971368116803 0
0.2629050392328904 0.3538095240398509 0
0.214085630711852 0.3299249629540528 0
0.2614245163486518 0.2985155001822999 0
0.2107862225391789 0.2729867235717537 0
0.2587288980915346 0.2423346421130996 0
0.2055284881678625 0.2143672876099612 0
0.3094512862631243 0.2682585847295244 0
0.3072353054859114 0.2121497318140704 0
0.1683305735445711 0.3536410234820376 0
0.1917024184019377 0.7437237098540029 0
0.178289786047972 0.5744867185811445 0
0.3448528608613113 0.8520508092001743 0
0.2929765055002833 0.8318683159289894 0
0.4596951783811649 0.191857572051409 0
0.3562678310075191 0.2390621241937934 0
0.06769446753180042 0.1152636582349497 0
0.8837696085674398 0.0594151485691225 0
0.3566073303423326 0.1817768975599038 0
0.4014399957484804 0.8723674834129758 0
0.4453227138063811 0.8245401023034555 0
0.7804785571865445 0.5084169114432052 0
0.8351831783187718 0.5340566213630764 0
0.7872108745075068 0.5656268366440557 0
0.3154492815253241 0.4844009132568166 0
0.5412727953260953 0.3152110602077064 0
0.1352772378030287 0.7180966290314734 0
0.838633961004383 0.5903447074587673 0
0.7913564915389879 0.6211051037549784 0
0.7416847607445307 0.5950641980464947 0
0.7418956312794015 0.6518582663519449 0
0.7979060851001616 0.6766693508062082 0
0.7445521321382322 0.7089895922182444 0
0.6943221684762476 0.6801803038087906 0
0.6950400409716645 0.7377503739376131 0
0.6463115048665523 0.7096147354103082 0
0.6461661971915936 0.7664565736901644 0
0.5976283408967058 0.7384194225305729 0
0.7468315554375332 0.7683300188945145 0
0.5964357589107921 0.793665184696702 0
0.5485640026842068 0.7669973440751865 0
0.6398606011375422 0.8257853566314584 0
0.6449883756887422 0.6558395247755053 0
0.5474076267493082 0.8218209473024312 0
0.5477792472025003 0.7055514764874508 0
0.5083236543384968 0.1589346921235473 0
0.875525358411366 0.5036922935375604 0
0.8849192771456973 0.9427706488941294 0
0.1301180306500516 0.6578832047888462 0
0.8186676978570342 0.2665444073887377 0
0.8103629724922989 0.2090608689742357 0
0.7552936580484919 0.1897195174824207 0
0.1737916306894808 0.4655536255422027 0
0.3061147014814957 0.3798474661552619 0
0.8034656550913895 0.1455515126364101 0
0.8664855880287645 0.1694445203838144 0
0.3584651768067707 0.299665545803508 0
0.8227801620518567 0.3708052662002583 0
0.8762148251013137 0.391734250553228 0
0.5044151701221414 0.7385009223250393 0
0.4561435254649388 0.8936978798052899 0
0.2977597520149701 0.8907541318376803 0
0.5026776872500119 0.6898684872000648 0
0.4000843696555486 0.2654395627208119 0
0.3071716911977114 0.1561769738517864 0
0.8654328067258885 0.3442229220476646 0
0.160328416851827 0.2523955787473063 0
0.1537842247017521 0.1859917415926091 0
0.2021747627218202 0.1498585141599868 0
0.3532080676046686 0.1270681299487845 0
0.594748260660205 0.6773674443947691 0
0.60110249145978 0.6285753045131653 0
0.6479388636750054 0.6079516034603992 0
0.3055447171173276 0.4306552002874229 0
0.2454832571146165 0.7646319674535984 0
0.1956985857846834 0.8131327624036717 0
0.3107703746108185 0.3236797540328925 0
0.4106232377418755 0.15316861065596 0
0.3161905522998169 0.5404990697103259 0
0.3189051035762339 0.5942931977223678 0
0.5917165128807913 0.3334374481439304 0
0.6412391447230421 0.3511094053883906 0
0.4915684214666745 0.3002537180561199 0
0.2373117071973957 0.8681119094746998 0
0.6936980911866861 0.6272030496812779 0
0.688720680623839 0.5742531928864238 0
0.738315476821806 0.5474817476886603 0
0.503350136808752 0.06894686848979142 0
0.6544546278488044 0.9396338438170289 0
0.3997328670390546 0.3155782140573721 0
0.6529710937122251 0.0634756872252259 0
0.6147793327099706 0.1278303160291483 0
0.6821546120084583 0.1195954642617265 0
0.9341528800368991 0.1960169462352068 0
0.3488075655121715 0.3536919487596261 0
0.1444917327581134 0.1168661228866092 0
0.3592983349120646 0.6167739369193685 0
0.9356359248423348 0.7304695436783654 0
0.868741487748192 0.768282209325916 0
0.8673568240776806 0.8363974100490459 0
0.8710078901020324 0.6941495141657548 0
0.8057753008848396 0.8025048656821903 0
0.8064776473240665 0.8649937498410635 0
0.9278540172226502 0.3428291593721347 0
0.06361133552076703 0.1918590656077072 0
0.651750602644415 0.3967725135867621 0
0.9437292514081745 0.5804459058411705 0
0.8034237775082964 0.07186079804194828 0
0.06517989763070542 0.3436641250977508 0
0.06182836579837619 0.4178978310388214 0
0.06281046563551218 0.572967409297605 0
0.06366854849393366 0.8831864844088724 0
0.127612064263818 0.8496155730793706 0
0.6076015034428192 0.3874164893493559 0
0.06604848666704749 0.7337174421218458 0
0.4991355408422582 0.7954310080030869 0
0.4629793667257631 0.7637608612590023 0
0.9382727112940153 0.4212465159077164 0
0.4419077617675664 0.2904113261401525 0
0.6914014488665803 0.8714830565058191 0
0.1962118775251565 0.07372214226803736 0
0.4044612664611332 0.210240862057606 0
0.5563728206965323 0.665416617256799 0
0.3616244537139525 0.5701762657850503 0
0.1240799435118793 0.5414394458546687 0
0.1221995944729354 0.9268517244934359 0
0.12067757390233 0.3058379709935976 0
0.9250878653201031 0.1177948519562524 0
0.7498730513178338 0.831209200511305 0
0.65492052525684 0.5410337774962131 0
0.586757052968379 0.5836926744717953 0
0.5254151811432211 0.383953201848298 0
0.5031406427281364 0.3436490240416246 0
0.3806688271316123 0.4964423290101734 0
0.3760199052360372 0.4587462415754556 0
0.5605122532434037 0.6068488687678878 0
0.8058024085684985 0.7364875918488046 0
0.6752251667682276 0.5112394879652743 0
0.874863513914146 0.2318188925118924 0
0.4118496168449238 0.9358388892031995 0
0.6178689335187878 0.8834641275571324 0
0.05936753029470015 0.6538461538461539 0
0.9261930558586118 0.8841876927498833 0
0.4675292639926843 0.6741805824237836 0
0.5094496191074608 0.9388384013827829 0
0.1305224278583925 0.7780267308037573 0
0.6118462804960187 0.1941585809018455 0
0.4996748465124794 0.850599663394954 0
0.6948621491537912 0.8001690966951458 0
0.7752076061456815 0.353613265088379 0
0.8060542916692657 0.932015908794334 0
0.2579469998780555 0.1856691918714326 0
0.1756656014764424 0.5176512266399002 0
0.7113435073894107 0.2306039826256103 0
0.1712398993885914 0.4121741242561494 0
0.4971466266384693 0.6511446437456619 0
0.5622914425320236 0.1745597050969877 0
0.3500730217854537 0.06548904553576962 0
0.4590237791408502 0.1233076291731726 0
0.1842905482217179 0.6305185061974972 0
0.286922240866997 0.7241526235363382 0
0.5494203030011942 0.1201509655512046 0
0.6268630245026262 0.4258521137431003 0
0.3586475669593536 0.9158192790760193 0
0.1208327257603939 0.4405718921618933 0
0.1237721036807621 0.5973997560781602 0
0.394369142810386 0.6042917396961078 0
0.8770153361996109 0.44676183936709 0
0.5578587200866744 0.8793937835938729 0
0.8379269996273787 0.6396236153347633 0
0.3703325213479651 0.3882134547206433 0
0.7454508697358229 0.4740962153802912 0
0.1157207082820643 0.05910899253760965 0
0.406306865957796 0.7277442431647101 0
0.1129849731078872 0.3825820474621345 0
0.8907305703913285 0.6158494004881079 0
0.5583437942344452 0.360095501598538 0
0.4319637794875573 0.3368831226793503 0
0.2565982415477675 0.9406760545056774 0
0.9312872767558942 0.5015565495752218 0
0.3371961016983799 0.4046661951785979 0
0.8844682799780924 0.558749292373015 0
0.3500212712163969 0.5186321630700771 0
0.4719443229381758 0.7123604246458985 0
0.7468193317457611 0.1235705757226754 0
0.2914946291957972 0.7769270070077774 0
0.2573852247774174 0.1218387612601605 0
0.8564464989031987 0.1128133663175095 0
0.179277522871731 0.8761725175422204 0
0.8173786599228399 0.3204303700191303 0
0.5942331716567978 0.4196123725906318 0
0.4910024925409953 0.3763836242440714 0
0.7012140303662329 0.1733595803030817 0
0.3532800210365948 0.4803990766514324 0
0.6525102362022565 0.1635927291966795 0
0.1748416835099518 0.3029572519497496 0
0.05811003646461865 0.9425593131543478 0
0.648766163068123 0.5724470585822423 0
0.4360401379369551 0.240246376365331 0
0.3431251995043272 0.4466833436243956 0
0.3970363062329953 0.5686881507089909 0
0.375642769492864 0.332689183837516 0
0.05454377050708792 0.05448902685527318 0
0.9436883994177787 0.05631160058222134 0
0.3113677916710513 0.943904360802087 0
0.9436883994177787 0.9436883994177787 0
0.1321814763712804 0.4911924238027592 0
0.740754885082591 0.5093618931537311 0
0.5918863280806209 0.8408258799563193 0
0.1070018614526606 0.2283139228854435 0
0.4183297484250013 0.7736524727908405 0
0.8784449158754571 0.2891000669096865 0
0.4629891116317571 0.3210629049834392 0
0.3078522962295251 0.1064917459124827 0
0.7564706380576144 0.8878711673994237 0
0.1054902389823895 0.1570315653333292 0
0.7007431996493276 0.5326419498897449 0
0.097702821353707 0.6908858574470798 0
0.245186362589701 0.8140969516039747 0
0.5691224977212198 0.6375468975689715 0
0.5050294683223233 0.117835038834429 0
0.4393210767291382 0.7349532742381496 0
0.8568126327405348 0.891723989116161 0
0.5270902587489492 0.6688113889338635 0
0.6180759369132192 0.5908924248026755 0
0.4605085739837796 0.9419280228832172 0
0.4008014652146694 0.1075837723170571 0
$EndNodes
$Elements
6 782 1 782
1 1 1 13
1 1 8 
2 8 9 
3 9 10 
4 10 11 
5 11 12 
6 12 13 
7 13 14 
8 14 15 
9 15 16 
10 16 17 
11 17 18 
12 18 19 
13 19 2 
1 2 1 13
14 3 20 
15 20 21 
16 21 22 
17 22 23 
18 23 24 
19 24 25 
20 25 26 
21 26 27 
22 27 28 
23 28 29 
24 29 30 
25 30 31 
26 31 1 
1 3 1 13
27 2 32 
28 32 33 
29 33 34 
30 34 35 
31 35 36 
32 36 37 
33 37 38 
34 38 39 
35 39 40 
36 40 41 
37 41 42 
38 42 43 
39 43 4 
1 4 1 13
40 4 44 
41 44 45 
42 45 46 
43 46 47 
44 47 48 
45 48 49 
46 49 50 
47 50 51 
48 51 52 
49 52 53 
50 53 54 
51 54 55 
52 55 3 
2 2 2 64
53 62 6 63 
54 69 7 70 
55 76 5 56 
56 85 97 80 
57 81 93 83 
58 80 97 87 
59 67 85 80 
60 67 80 66 
61 90 92 91 
62 94 96 90 
63 68 85 67 
64 57 84 56 
65 76 84 75 
66 83 93 61 
67 88 93 81 
68 90 96 92 
69 87 97 92 
70 73 91 78 
71 89 90 79 
72 77 96 94 
73 66 86 65 
74 90 91 79 
75 57 89 84 
76 84 89 79 
77 71 82 70 
78 86 88 81 
79 75 79 74 
80 73 78 72 
81 77 93 88 
82 80 87 86 
83 58 89 57 
84 60 93 77 
85 62 83 61 
86 71 95 82 
87 81 83 64 
88 91 92 78 
89 82 95 85 
90 64 83 63 
91 92 96 87 
92 65 81 64 
93 65 86 81 
94 56 84 76 
95 61 93 60 
96 78 95 72 
97 79 91 74 
98 92 97 78 
99 63 83 62 
100 70 82 69 
101 75 84 79 
102 80 86 66 
103 69 82 68 
104 78 97 95 
105 95 97 85 
106 77 94 59 
107 87 88 86 
108 60 77 59 
109 59 94 58 
110 88 96 77 
111 58 94 89 
112 82 85 68 
113 89 94 90 
114 74 91 73 
115 87 96 88 
116 72 95 71 
2 3 2 666
117 266 302 197 
118 298 342 297 
119 244 348 289 
120 264 302 266 
121 250 251 195 
122 243 324 180 
123 280 311 126 
124 313 334 310 
125 333 345 212 
126 51 370 329 
127 244 289 245 
128 226 313 310 
129 222 367 260 
130 196 250 195 
131 35 269 121 
132 283 345 333 
133 191 342 298 
134 192 311 280 
135 285 314 294 
136 238 363 251 
137 286 352 234 
138 289 348 103 
139 133 245 131 
140 238 251 250 
141 167 242 219 
142 180 324 211 
143 279 342 246 
144 101 342 279 
145 245 262 131 
146 189 252 187 
147 51 329 305 
148 345 347 212 
149 222 260 242 
150 295 382 251 
151 272 347 345 
152 115 352 286 
153 269 377 121 
154 207 314 285 
155 210 236 203 
156 123 323 12 
157 219 239 165 
158 278 354 291 
159 312 322 257 
160 123 392 323 
161 303 382 295 
162 276 331 307 
163 251 363 295 
164 252 373 187 
165 186 282 281 
166 221 353 293 
167 180 287 243 
168 307 331 214 
169 278 291 277 
170 221 293 259 
171 237 301 296 
172 231 377 269 
173 247 279 246 
174 169 242 167 
175 275 330 119 
176 210 288 236 
177 26 275 119 
178 108 262 102 
179 199 250 196 
180 242 260 219 
181 128 271 247 
182 36 269 35 
183 128 247 130 
184 155 245 133 
185 153 246 191 
186 110 258 256 
187 100 271 113 
188 228 389 210 
189 266 341 120 
190 220 350 273 
191 285 306 207 
192 284 343 255 
193 118 327 253 
194 335 341 266 
195 256 258 257 
196 267 302 264 
197 322 327 257 
198 122 254 48 
199 118 253 14 
200 195 252 189 
201 219 346 239 
202 197 335 266 
203 261 286 234 
204 225 228 210 
205 175 340 292 
206 186 376 282 
207 251 252 195 
208 121 304 259 
209 110 256 16 
210 336 346 260 
211 126 311 278 
212 284 378 343 
213 52 370 51 
214 236 237 208 
215 278 311 241 
216 241 354 278 
217 181 222 173 
218 141 264 263 
219 244 245 155 
220 131 262 108 
221 215 377 355 
222 263 266 120 
223 248 284 162 
224 201 208 199 
225 163 190 157 
226 203 236 201 
227 151 246 153 
228 153 191 160 
229 165 239 163 
230 264 266 263 
231 256 257 118 
232 173 242 169 
233 157 244 155 
234 130 247 151 
235 29 270 111 
236 210 389 288 
237 160 248 162 
238 282 349 225 
239 113 271 128 
240 260 346 219 
241 206 210 203 
242 273 350 110 
243 222 242 173 
244 167 219 165 
245 201 236 208 
246 237 238 208 
247 259 304 221 
248 163 239 190 
249 191 248 160 
250 120 272 39 
251 23 307 280 
252 17 273 110 
253 330 372 119 
254 323 392 235 
255 190 244 157 
256 236 385 237 
257 206 225 210 
258 229 255 222 
259 141 263 41 
260 13 253 123 
261 249 344 148 
262 151 247 246 
263 181 229 222 
264 274 275 27 
265 111 274 28 
266 276 307 24 
267 15 256 118 
268 47 254 106 
269 355 377 231 
270 254 306 285 
271 119 276 25 
272 246 342 191 
273 292 375 232 
274 49 122 48 
275 282 387 349 
276 40 120 39 
277 122 306 254 
278 237 385 301 
279 11 115 10 
280 272 345 38 
281 281 282 225 
282 27 275 26 
283 35 121 34 
284 15 118 14 
285 13 123 12 
286 29 111 28 
287 40 263 120 
288 26 119 25 
289 194 195 189 
290 126 278 277 
291 37 283 36 
292 206 281 225 
293 267 294 204 
294 327 386 253 
295 288 385 236 
296 265 267 264 
297 293 353 183 
298 17 110 16 
299 47 106 46 
300 271 328 279 
301 22 126 21 
302 121 259 34 
303 37 345 283 
304 291 354 148 
305 171 173 169 
306 36 283 269 
307 156 157 155 
308 198 199 196 
309 51 305 50 
310 126 277 21 
311 39 272 38 
312 254 285 106 
313 141 265 264 
314 339 387 376 
315 48 254 47 
316 292 340 274 
317 307 383 280 
318 182 270 30 
319 151 153 152 
320 14 253 13 
321 200 201 199 
322 158 163 157 
323 271 279 247 
324 28 274 27 
325 261 338 286 
326 202 203 201 
327 208 250 199 
328 183 273 18 
329 115 286 10 
330 16 256 15 
331 164 165 163 
332 25 276 24 
333 255 343 6 
334 30 270 29 
335 153 160 154 
336 239 365 190 
337 249 354 241 
338 147 187 140 
339 174 181 173 
340 187 337 140 
341 22 280 126 
342 18 273 17 
343 54 148 53 
344 111 292 274 
345 143 155 133 
346 111 375 292 
347 119 290 276 
348 6 336 260 
349 181 287 229 
350 141 308 265 
351 106 316 46 
352 286 338 9 
353 160 162 161 
354 130 151 138 
355 204 302 267 
356 217 358 350 
357 41 263 40 
358 194 196 195 
359 245 289 262 
360 23 280 22 
361 182 338 261 
362 191 298 248 
363 42 141 41 
364 205 206 203 
365 31 182 30 
366 19 183 18 
367 21 277 20 
368 166 167 165 
369 34 259 33 
370 262 332 102 
371 33 293 32 
372 308 388 265 
373 297 357 298 
374 45 213 44 
375 100 328 271 
376 190 348 244 
377 188 189 187 
378 229 284 255 
379 265 268 267 
380 171 174 173 
381 10 286 9 
382 294 314 204 
383 190 365 359 
384 328 356 279 
385 144 186 185 
386 54 291 148 
387 55 291 54 
388 50 310 49 
389 180 364 287 
390 289 332 262 
391 6 367 255 
392 227 344 249 
393 198 200 199 
394 105 378 298 
395 373 382 114 
396 296 390 237 
397 259 293 33 
398 143 156 155 
399 106 380 316 
400 325 331 177 
401 151 152 138 
402 156 158 157 
403 273 353 220 
404 235 243 184 
405 200 202 201 
406 153 154 152 
407 45 316 213 
408 202 205 203 
409 158 164 163 
410 238 250 208 
411 12 323 11 
412 258 360 257 
413 43 308 42 
414 164 166 165 
415 49 310 122 
416 209 281 206 
417 243 287 184 
418 136 326 240 
419 147 188 187 
420 168 169 167 
421 339 376 134 
422 193 194 189 
423 136 240 176 
424 260 367 6 
425 253 324 123 
426 281 313 186 
427 214 331 325 
428 160 161 154 
429 197 198 196 
430 268 294 267 
431 112 337 114 
432 234 317 172 
433 53 344 52 
434 148 354 249 
435 184 287 181 
436 162 180 161 
437 150 217 216 
438 69 100 7 
439 42 308 141 
440 233 234 172 
441 174 184 181 
442 205 209 206 
443 290 318 177 
444 305 391 50 
445 144 376 186 
446 20 362 3 
447 166 168 167 
448 5 102 56 
449 71 98 72 
450 66 101 67 
451 113 128 125 
452 170 171 169 
453 58 103 59 
454 186 226 185 
455 320 340 175 
456 65 297 66 
457 3 362 55 
458 59 299 60 
459 60 300 61 
460 61 104 62 
461 72 296 73 
462 73 301 74 
463 74 99 75 
464 63 105 64 
465 70 295 71 
466 257 327 118 
467 192 214 145 
468 24 307 23 
469 350 358 258 
470 330 340 320 
471 194 197 196 
472 188 193 189 
473 117 131 108 
474 128 130 129 
475 375 381 233 
476 220 221 216 
477 132 133 131 
478 7 303 70 
479 257 360 312 
480 11 323 115 
481 130 138 137 
482 289 366 332 
483 177 331 290 
484 76 309 5 
485 217 220 216 
486 216 304 215 
487 135 143 133 
488 284 364 162 
489 112 114 7 
490 75 321 76 
491 233 261 234 
492 240 241 176 
493 279 356 101 
494 198 204 200 
495 122 334 306 
496 213 388 308 
497 5 109 107 
498 274 340 275 
499 152 159 138 
500 202 207 205 
501 170 232 172 
502 8 368 1 
503 136 176 145 
504 99 385 288 
505 170 172 171 
506 137 149 129 
507 116 134 127 
508 139 140 124 
509 227 249 179 
510 269 283 224 
511 197 302 198 
512 232 233 172 
513 316 380 268 
514 168 170 169 
515 174 230 184 
516 132 136 135 
517 310 334 122 
518 178 179 142 
519 68 328 69 
520 1 368 31 
521 221 304 216 
522 124 337 112 
523 176 192 145 
524 130 137 129 
525 187 373 337 
526 230 235 184 
527 251 382 252 
528 2 369 19 
529 32 369 2 
530 143 177 156 
531 128 129 125 
532 134 144 142 
533 150 216 215 
534 146 147 140 
535 46 316 45 
536 4 371 43 
537 44 371 4 
538 166 175 168 
539 120 341 272 
540 56 332 57 
541 132 135 133 
542 158 218 164 
543 150 215 149 
544 292 361 175 
545 223 231 224 
546 144 185 178 
547 117 132 131 
548 241 384 249 
549 114 303 7 
550 198 302 204 
551 180 211 161 
552 150 319 217 
553 137 150 149 
554 5 107 102 
555 136 145 135 
556 139 223 146 
557 288 389 99 
558 226 305 185 
559 100 112 7 
560 294 380 285 
561 66 297 101 
562 225 349 228 
563 298 378 248 
564 98 296 72 
565 103 299 59 
566 190 359 348 
567 270 375 111 
568 299 300 60 
569 103 366 289 
570 61 300 104 
571 113 125 124 
572 71 295 98 
573 144 178 142 
574 5 309 109 
575 178 227 179 
576 296 301 73 
577 255 367 222 
578 74 301 99 
579 231 269 224 
580 214 325 145 
581 134 142 127 
582 69 328 100 
583 237 390 238 
584 241 311 176 
585 147 212 188 
586 176 311 192 
587 139 146 140 
588 217 350 220 
589 154 312 152 
590 125 139 124 
591 298 357 105 
592 200 314 202 
593 116 117 108 
594 172 317 171 
595 194 335 197 
596 107 108 102 
597 304 377 215 
598 70 303 295 
599 121 377 304 
600 102 332 56 
601 99 321 75 
602 223 224 146 
603 229 364 284 
604 110 350 258 
605 107 116 108 
606 62 336 6 
607 116 127 117 
608 186 313 226 
609 100 113 112 
610 159 319 138 
611 171 317 174 
612 138 319 137 
613 113 124 112 
614 9 338 8 
615 290 331 276 
616 334 374 306 
617 202 314 207 
618 270 381 375 
619 148 344 53 
620 162 364 180 
621 193 335 194 
622 156 318 158 
623 116 339 134 
624 76 321 309 
625 204 314 200 
626 152 312 159 
627 164 320 166 
628 283 333 224 
629 209 313 281 
630 135 325 143 
631 174 317 230 
632 114 382 303 
633 143 325 177 
634 161 322 154 
635 6 343 63 
636 104 336 62 
637 132 326 136 
638 149 315 129 
639 129 315 125 
640 137 319 150 
641 232 361 292 
642 38 345 37 
643 50 391 310 
644 140 337 124 
645 343 378 105 
646 179 384 351 
647 177 318 156 
648 252 382 373 
649 211 327 322 
650 261 381 182 
651 166 320 175 
652 63 343 105 
653 326 351 240 
654 139 315 223 
655 218 330 320 
656 293 369 32 
657 145 325 135 
658 158 318 218 
659 179 351 142 
660 101 356 67 
661 218 320 164 
662 125 315 139 
663 117 326 132 
664 211 322 161 
665 65 357 297 
666 305 329 185 
667 185 329 178 
668 209 334 313 
669 280 383 192 
670 344 370 52 
671 105 357 64 
672 301 385 99 
673 306 374 207 
674 58 366 103 
675 149 355 315 
676 119 372 290 
677 183 353 273 
678 154 322 312 
679 146 333 147 
680 316 388 213 
681 351 384 240 
682 170 361 232 
683 178 329 227 
684 147 333 212 
685 287 364 229 
686 188 347 193 
687 68 356 328 
688 127 326 117 
689 297 342 101 
690 193 341 335 
691 315 355 223 
692 232 375 233 
693 115 379 352 
694 248 378 284 
695 109 339 107 
696 224 333 146 
697 332 366 57 
698 207 374 205 
699 277 362 20 
700 212 347 188 
701 182 381 270 
702 104 346 336 
703 67 356 68 
704 285 380 106 
705 193 347 341 
706 182 368 338 
707 64 357 65 
708 243 392 324 
709 55 362 291 
710 175 361 168 
711 103 348 299 
712 107 339 116 
713 159 358 319 
714 43 371 308 
715 234 352 317 
716 319 358 217 
717 223 355 231 
718 214 383 307 
719 209 374 334 
720 19 369 183 
721 291 362 277 
722 31 368 182 
723 268 388 316 
724 309 321 228 
725 183 369 293 
726 324 386 211 
727 57 366 58 
728 220 353 221 
729 376 387 282 
730 213 371 44 
731 127 351 326 
732 215 355 149 
733 142 351 127 
734 290 372 318 
735 312 360 159 
736 275 340 330 
737 249 384 179 
738 104 365 346 
739 318 372 218 
740 308 371 213 
741 168 361 170 
742 134 376 144 
743 253 386 324 
744 324 392 123 
745 299 359 300 
746 348 359 299 
747 309 349 109 
748 317 352 230 
749 341 347 272 
750 310 391 226 
751 352 379 230 
752 205 374 209 
753 300 365 104 
754 295 363 98 
755 235 379 323 
756 233 381 261 
757 228 349 309 
758 265 388 268 
759 337 373 114 
760 240 384 241 
761 235 392 243 
762 323 379 115 
763 230 379 235 
764 268 380 294 
765 346 365 239 
766 218 372 330 
767 192 383 214 
768 359 365 300 
769 338 368 8 
770 349 387 109 
771 227 370 344 
772 159 360 358 
773 321 389 228 
774 226 391 305 
775 363 390 98 
776 329 370 227 
777 98 390 296 
778 211 386 327 
779 99 389 321 
780 109 387 339 
781 358 360 258 
782 238 390 363 
$EndElements
