$MeshFormat
4.1 0 8
$EndMeshFormat
$PhysicalNames
3
1 101 "outer_boundary"
2 1 "material_1"
2 2 "material_2"
$EndPhysicalNames
$Entities
8 8 2 0
1 0 0 0 0 
2 1 0 0 0 
3 0 1 0 0 
4 1 1 0 0 
5 0.5360093658713594 0.5296929394257861 0 0 
6 0.5566127384145131 0.7591300452013914 0 0 
7 0.3271756326389079 0.779733417744545 0 0 
8 0.3065722600957542 0.5502963119689397 0 0 
1 -9.999999994736442e-08 -1e-07 -1e-07 1.0000001 1e-07 1e-07 1 101 2 1 -2 
2 -1e-07 -9.999999994736442e-08 -1e-07 1e-07 1.0000001 1e-07 1 101 2 3 -1 
3 0.9999999000000001 -9.999999994736442e-08 -1e-07 1.0000001 1.0000001 1e-07 1 101 2 2 -4 
4 -9.999999994736442e-08 0.9999999000000001 -1e-07 1.0000001 1.0000001 1e-07 1 101 2 4 -3 
5 0.5360092658713594 0.5296928394257862 -1e-07 0.556612838414513 0.7591301452013913 1e-07 0 2 5 -6 
6 0.3271755326389079 0.7591299452013914 -1e-07 0.556612838414513 0.7797335177445449 1e-07 0 2 6 -7 
7 0.3065721600957542 0.5502962119689397 -1e-07 0.3271757326389079 0.7797335177445449 1e-07 0 2 7 -8 
8 0.3065721600957542 0.5296928394257862 -1e-07 0.5360094658713593 0.5502964119689396 1e-07 0 2 8 -5 
2 0.3065721600957542 0.5296928394257862 -1e-07 0.556612838414513 0.7797335177445449 1e-07 1 2 4 5 6 7 8 
3 -9.999999994736442e-08 -9.999999994736442e-08 -1e-07 1.0000001 1.0000001 1e-07 1 1 8 1 3 4 2 -5 -8 -7 -6 
$EndEntities
$Nodes
18 174 1 174
0 1 0 1
1
0 0 0
0 2 0 1
2
1 0 0
0 3 0 1
3
0 1 0
0 4 0 1
4
1 1 0
0 5 0 1
5
0.5360093658713594 0.5296929394257861 0
0 6 0 1
6
0.5566127384145131 0.7591300452013914 0
0 7 0 1
7
0.3271756326389079 0.779733417744545 0
0 8 0 1
8
0.3065722600957542 0.5502963119689397 0
1 1 0 7
9
10
11
12
13
14
15
0.1249999999999999 0 0
0.2499999999999998 0 0
0.3749999999999993 0 0
0.4999999999999988 0 0
0.6249999999999988 0 0
0.7499999999999991 0 0
0.8749999999999997 0 0
1 2 0 7
16
17
18
19
20
21
22
0 0.8750000000000001 0
0 0.7500000000000002 0
0 0.6250000000000007 0
0 0.5000000000000012 0
0 0.3750000000000012 0
0 0.2500000000000009 0
0 0.1250000000000003 0
1 3 0 7
23
24
25
26
27
28
29
1 0.1249999999999999 0
1 0.2499999999999998 0
1 0.3749999999999993 0
1 0.4999999999999988 0
1 0.6249999999999988 0
1 0.7499999999999991 0
1 0.8749999999999997 0
1 4 0 7
30
31
32
33
34
35
36
0.8750000000000001 1 0
0.7500000000000002 1 0
0.6250000000000007 1 0
0.5000000000000012 1 0
0.3750000000000012 1 0
0.2500000000000009 1 0
0.1250000000000003 1 0
1 5 0 3
37
38
39
0.5411602090071478 0.5870522158696873 0
0.5463110521429362 0.6444114923135886 0
0.5514618952787247 0.70177076875749 0
1 6 0 3
40
41
42
0.4992534619706119 0.7642808883371798 0
0.4418941855267106 0.7694317314729682 0
0.3845349090828092 0.7745825746087566 0
1 7 0 3
43
44
45
0.3220247895031195 0.7223741413006438 0
0.316873946367331 0.6650148648567424 0
0.3117231032315426 0.6076555884128411 0
1 8 0 3
46
47
48
0.3639315365396553 0.5451454688331513 0
0.4212908129835566 0.5399946256973629 0
0.478650089427458 0.5348437825615745 0
2 2 0 14
49
50
51
52
53
54
55
56
57
58
59
60
61
62
0.4568661550719816 0.5861176407696446 0
0.4103573171222037 0.7134041254002647 0
0.3583517583352005 0.6325252144622875 0
0.5004586579919159 0.6773627413859229 0
0.4983959358140726 0.6205973113080405 0
0.4473510601597159 0.6519912290677312 0
0.3625328377232404 0.6873869346141431 0
0.400331217616139 0.6001885920005917 0
0.4669568437208607 0.7170382605116538 0
0.3957848381912999 0.6570992191090036 0
0.5108521548949742 0.7209108194362813 0
0.3523328436152932 0.5885155377340497 0
0.4977901401062494 0.575453522945325 0
0.3613250972140561 0.7354962387336706 0
2 3 0 112
63
64
65
66
67
68
69
70
71
72
73
74
75
76
77
78
79
80
81
82
83
84
85
86
87
88
89
90
91
92
93
94
95
96
97
98
99
100
101
102
103
104
105
106
107
108
109
110
111
112
113
114
115
116
117
118
119
120
121
122
123
124
125
126
127
128
129
130
131
132
133
134
135
136
137
138
139
140
141
142
143
144
145
146
147
148
149
150
151
152
153
154
155
156
157
158
159
160
161
162
163
164
165
166
167
168
169
170
171
172
173
174
0.3319730120461512 0.4955175551848209 0
0.501270794551965 0.4800914857112986 0
0.5661391679627472 0.4737093696063582 0
0.5974843758929291 0.6043015453379013 0
0.5254940365410253 0.4186615610559987 0
0.5996227548526321 0.4117644130662946 0
0.6072519872101806 0.7236490728083278 0
0.3129267602493473 0.1065904088006194 0
0.5547774097074893 0.349803835869486 0
0.4790765812135302 0.3600613609775281 0
0.6355741057095147 0.3411654432952285 0
0.1095494817137707 0.3089546424601906 0
0.68245543367357 0.4112295374846913 0
0.2704734896886584 0.5057947762693803 0
0.2968864845714489 0.4420594966242644 0
0.2702160554663586 0.7533702221357538 0
0.2646239342563239 0.6407959876412932 0
0.8926966471653609 0.6882742161758519 0
0.7221867799173318 0.3352982066811162 0
0.5074103379434241 0.282761986916134 0
0.6140786411313279 0.7951087924628832 0
0.6689054246683881 0.7487811886212369 0
0.4230582249969546 0.2952091861844389 0
0.5509197292449812 0.8234025131530509 0
0.6741478581854317 0.2584076439288303 0
0.7770992047621099 0.4156274444344006 0
0.726235998518925 0.4962625478528422 0
0.790066155002024 0.2522631495489391 0
0.8125000000000001 0.8917468245269454 0
0.2263868548472786 0.4470530294676824 0
0.257979345034127 0.3746380076616747 0
0.1819653480507473 0.5229703404323021 0
0.4149422837698196 0.8279692619402357 0
0.2761815537812332 0.8265569061836658 0
0.2091634053324294 0.7918212540205186 0
0.4559104336459647 0.21105595389493 0
0.3607688212880661 0.4404638960320463 0
0.8240776918638776 0.4972279841874235 0
0.772988864529141 0.5682763484888276 0
0.6813305263319123 0.8284287803269816 0
0.1498316382250923 0.4529869574730183 0
0.7428653098447844 0.7783574907151024 0
0.5457459140963927 0.199839452909322 0
0.5890586303601144 0.5395688259295601 0
0.6609120650599317 0.6826216314970759 0
0.6610115333683431 0.5600724775929785 0
0.1158350015583951 0.6816752287538276 0
0.7159791458289193 0.1666501782938151 0
0.8149307686141967 0.1663789783115817 0
0.2033015422203631 0.7221471666883126 0
0.3435649601991143 0.841094892607223 0
0.2018333571181286 0.8903758077481503 0
0.3704226748158314 0.203117569188506 0
0.8963406856537867 0.3097637742896061 0
0.09398041635077237 0.571123236250818 0
0.1430485355959752 0.8265275039249387 0
0.1031368236729206 0.1881916542904116 0
0.1871365461759171 0.2360087079049151 0
0.3308851673599813 0.3045721199456196 0
0.8952866145300866 0.8063689038664336 0
0.1856852372716452 0.6013551398730806 0
0.8627905384875088 0.5889001646819779 0
0.4179192206077468 0.1107049165492003 0
0.1934114844500515 0.1106881808045442 0
0.479850249997737 0.8296297382680762 0
0.444775483906675 0.9123570224126836 0
0.461944522695336 0.4295704890489741 0
0.3881504137551045 0.4928954567221444 0
0.4455096901990059 0.4877446135863558 0
0.536279075587606 0.9089439236178181 0
0.60139372127777 0.6637127300810424 0
0.6190640143774254 0.8783059781686497 0
0.4070809089697565 0.3805766301621007 0
0.9013381754033698 0.4208872929688122 0
0.2657881370409867 0.6945765636531787 0
0.2552117608671377 0.5748947918418544 0
0.7308296977956458 0.7023285809542945 0
0.5749210184278464 0.102677104044728 0
0.5913032759946734 0.2694873942059572 0
0.7067761139687246 0.9139518594511651 0
0.8114283471196055 0.7358934471466091 0
0.3297392420859692 0.386457722831782 0
0.7099948203430162 0.621230218867587 0
0.2749250535156519 0.2109937715165666 0
0.169046839316656 0.3828317505298079 0
0.6374205864560553 0.4821011952554541 0
0.9033973007979959 0.2074054216623105 0
0.290818520190463 0.9208127290480647 0
0.9165573229060173 0.9146231456786758 0
0.1488252007112006 0.760937539813169 0
0.8084309955355197 0.3347889372212029 0
0.3693204175107536 0.9126277926183757 0
0.7967881525733796 0.6508171627191913 0
0.08430966162459441 0.08477596701899121 0
0.08468825838119148 0.4126607390688161 0
0.08766401833158965 0.9052848990930943 0
0.6698969476112667 0.0896446088677591 0
0.6286656933574217 0.1811177303750686 0
0.8958685359030596 0.1027417712413271 0
0.2510149172588027 0.2966652035443303 0
0.903687512207744 0.5029507843952021 0
0.7869458996595735 0.08756925611908051 0
0.7485203192725002 0.8485236163426537 0
0.1020931322015606 0.4919482546449911 0
0.4988993173555899 0.124855485479636 0
0.8021201181533955 0.8121780565195489 0
0.2075727364059574 0.6617711279852279 0
0.4132351246967332 0.4502872828005627 0
0.6461593031883981 0.626387720675317 0
0.07776966537129942 0.7913877954669843 0
0.7175578041898563 0.5614603982005588 0
0.1893459074826314 0.3181389914205264 0
$EndNodes
$Elements
6 346 1 346
1 1 1 8
1 1 9 
2 9 10 
3 10 11 
4 11 12 
5 12 13 
6 13 14 
7 14 15 
8 15 2 
1 2 1 8
9 3 16 
10 16 17 
11 17 18 
12 18 19 
13 19 20 
14 20 21 
15 21 22 
16 22 1 
1 3 1 8
17 2 23 
18 23 24 
19 24 25 
20 25 26 
21 26 27 
22 27 28 
23 28 29 
24 29 4 
1 4 1 8
25 4 30 
26 30 31 
27 31 32 
28 32 33 
29 33 34 
30 34 35 
31 35 36 
32 36 3 
2 2 2 42
33 54 57 50 
34 54 56 49 
35 50 58 54 
36 54 58 56 
37 52 57 54 
38 53 54 49 
39 56 58 51 
40 42 50 41 
41 48 49 47 
42 45 51 44 
43 39 52 38 
44 55 58 50 
45 41 57 40 
46 47 56 46 
47 38 53 37 
48 44 55 43 
49 52 54 53 
50 51 55 44 
51 52 53 38 
52 50 57 41 
53 49 56 47 
54 5 61 48 
55 6 59 39 
56 7 62 42 
57 37 61 5 
58 40 59 6 
59 43 62 7 
60 46 60 8 
61 8 60 45 
62 57 59 40 
63 55 62 43 
64 53 61 37 
65 56 60 46 
66 39 59 52 
67 42 62 50 
68 48 61 49 
69 45 60 51 
70 50 62 55 
71 52 59 57 
72 49 61 53 
73 51 60 56 
74 51 58 55 
2 3 2 272
75 108 148 89 
76 36 114 35 
77 36 158 114 
78 37 106 66 
79 106 148 108 
80 70 125 115 
81 121 162 146 
82 124 163 27 
83 111 164 161 
84 89 173 108 
85 5 106 37 
86 115 125 98 
87 126 146 120 
88 161 164 15 
89 121 146 115 
90 119 126 120 
91 76 138 94 
92 90 149 116 
93 114 158 118 
94 94 166 103 
95 27 163 26 
96 6 86 40 
97 42 113 7 
98 123 169 109 
99 117 166 94 
100 94 123 117 
101 8 138 76 
102 117 123 109 
103 85 135 121 
104 116 153 90 
105 132 134 32 
106 88 153 136 
107 80 124 27 
108 119 120 74 
109 106 108 66 
110 94 138 123 
111 40 127 41 
112 80 155 124 
113 95 154 113 
114 95 113 42 
115 88 136 100 
116 21 119 74 
117 34 128 33 
118 2 161 15 
119 12 167 125 
120 111 149 90 
121 140 167 12 
122 33 132 32 
123 135 144 121 
124 18 117 109 
125 114 150 35 
126 18 109 17 
127 109 169 112 
128 21 74 20 
129 23 161 2 
130 28 80 27 
131 158 172 118 
132 31 91 30 
133 123 138 79 
134 28 122 80 
135 86 127 40 
136 11 70 10 
137 15 164 14 
138 34 154 128 
139 19 117 18 
140 115 146 70 
141 128 154 95 
142 22 119 21 
143 83 134 86 
144 70 126 10 
145 113 150 96 
146 157 166 19 
147 25 116 24 
148 102 134 83 
149 128 132 33 
150 11 125 70 
151 29 122 28 
152 41 127 95 
153 122 143 80 
154 12 125 11 
155 85 121 115 
156 124 155 101 
157 88 89 75 
158 10 126 9 
159 30 151 4 
160 89 148 75 
161 20 157 19 
162 70 146 126 
163 100 101 89 
164 26 136 25 
165 1 156 22 
166 19 166 117 
167 16 172 158 
168 4 151 29 
169 136 153 116 
170 134 142 32 
171 9 156 1 
172 31 142 91 
173 79 169 123 
174 120 174 74 
175 96 150 114 
176 146 162 120 
177 72 135 85 
178 24 149 23 
179 88 100 89 
180 143 155 80 
181 140 160 105 
182 25 136 116 
183 121 144 93 
184 14 159 13 
185 8 63 46 
186 32 142 31 
187 48 64 5 
188 47 131 48 
189 67 72 71 
190 72 85 82 
191 46 130 47 
192 85 115 98 
193 37 66 38 
194 64 129 67 
195 67 129 72 
196 38 133 39 
197 112 152 109 
198 39 69 6 
199 100 124 101 
200 110 111 90 
201 74 157 20 
202 69 107 84 
203 35 150 34 
204 73 75 68 
205 13 140 12 
206 87 110 90 
207 147 157 74 
208 65 148 106 
209 81 88 75 
210 109 172 17 
211 77 99 63 
212 73 87 81 
213 91 168 122 
214 99 144 135 
215 7 78 43 
216 68 148 65 
217 43 137 44 
218 98 105 82 
219 44 79 45 
220 85 98 82 
221 8 76 63 
222 91 151 30 
223 45 138 8 
224 72 82 71 
225 73 81 75 
226 87 90 81 
227 26 163 136 
228 76 94 92 
229 14 164 159 
230 65 106 5 
231 101 173 89 
232 97 112 78 
233 3 158 36 
234 16 158 3 
235 116 149 24 
236 93 162 121 
237 48 131 64 
238 67 71 68 
239 69 133 107 
240 63 130 46 
241 122 168 143 
242 71 73 68 
243 64 65 5 
244 64 131 129 
245 130 131 47 
246 99 130 63 
247 67 68 65 
248 84 104 102 
249 159 160 140 
250 122 151 91 
251 17 172 16 
252 76 92 77 
253 129 135 72 
254 66 133 38 
255 41 95 42 
256 39 133 69 
257 125 167 98 
258 64 67 65 
259 22 156 119 
260 102 142 134 
261 107 139 84 
262 29 151 122 
263 76 77 63 
264 141 160 87 
265 92 93 77 
266 112 137 78 
267 149 161 23 
268 105 160 141 
269 74 174 147 
270 107 145 139 
271 84 139 104 
272 73 141 87 
273 75 148 68 
274 105 141 82 
275 150 154 34 
276 137 169 79 
277 114 118 97 
278 126 156 9 
279 84 102 83 
280 94 103 92 
281 103 157 147 
282 145 171 108 
283 77 144 99 
284 127 132 128 
285 90 153 81 
286 119 156 126 
287 78 137 43 
288 86 134 132 
289 82 141 71 
290 44 137 79 
291 127 128 95 
292 69 83 6 
293 69 84 83 
294 79 138 45 
295 71 141 73 
296 139 143 104 
297 129 170 135 
298 7 113 96 
299 147 174 93 
300 83 86 6 
301 135 170 99 
302 7 96 78 
303 93 174 162 
304 142 165 91 
305 105 167 140 
306 108 171 66 
307 103 166 157 
308 93 144 77 
309 86 132 127 
310 96 97 78 
311 108 173 145 
312 118 152 97 
313 81 153 88 
314 92 147 93 
315 96 114 97 
316 136 163 100 
317 87 160 110 
318 107 171 145 
319 103 147 92 
320 66 171 133 
321 112 169 137 
322 143 168 104 
323 110 164 111 
324 113 154 150 
325 97 152 112 
326 152 172 109 
327 13 159 140 
328 139 155 143 
329 110 160 159 
330 159 164 110 
331 111 161 149 
332 100 163 124 
333 102 165 142 
334 98 167 105 
335 133 171 107 
336 145 155 139 
337 104 165 102 
338 101 155 145 
339 130 170 131 
340 145 173 101 
341 104 168 165 
342 131 170 129 
343 118 172 152 
344 99 170 130 
345 165 168 91 
346 162 174 120 
$EndElements
