$MeshFormat
4.1 0 8
$EndMeshFormat
$PhysicalNames
3
1 101 "outer_boundary"
2 1 "material_1"
2 2 "material_2"
$EndPhysicalNames
$Entities
7 7 2 0
1 0 0 0 0 
2 1 0 0 0 
3 0 1 0 0 
4 1 1 0 0 
5 0.5948346846673668 0.7555775630735497 0 0 
6 0.7639487123004074 0.5442978664750565 0 0 
7 0.862365283042051 0.7963947588408199 0 0 
1 -9.999999994736442e-08 -1e-07 -1e-07 1.0000001 1e-07 1e-07 1 101 2 1 -2 
2 -1e-07 -9.999999994736442e-08 -1e-07 1e-07 1.0000001 1e-07 1 101 2 3 -1 
3 0.9999999000000001 -9.999999994736442e-08 -1e-07 1.0000001 1.0000001 1e-07 1 101 2 2 -4 
4 -9.999999994736442e-08 0.9999999000000001 -1e-07 1.0000001 1.0000001 1e-07 1 101 2 4 -3 
5 0.5948345846673668 0.5442977664750566 -1e-07 0.7639488123004073 0.7555776630735497 1e-07 0 2 5 -6 
6 0.7639486123004074 0.5442977664750566 -1e-07 0.8623653830420509 0.7963948588408198 1e-07 0 2 6 -7 
7 0.5948345846673668 0.7555774630735498 -1e-07 0.8623653830420509 0.7963948588408198 1e-07 0 2 7 -5 
2 0.5948345846673668 0.5442977664750566 -1e-07 0.8623653830420509 0.7963948588408198 1e-07 1 2 3 5 6 7 
3 -9.999999994736442e-08 -9.999999994736442e-08 -1e-07 1.0000001 1.0000001 1e-07 1 1 7 1 3 4 2 -5 -7 -6 
$EndEntities
$Nodes
16 215 1 215
0 1 0 1
1
0 0 0
0 2 0 1
2
1 0 0
0 3 0 1
3
0 1 0
0 4 0 1
4
1 1 0
0 5 0 1
5
0.5948346846673668 0.7555775630735497 0
0 6 0 1
6
0.7639487123004074 0.5442978664750565 0
0 7 0 1
7
0.862365283042051 0.7963947588408199 0
1 1 0 9
8
9
10
11
12
13
14
15
16
0.09999999999999996 0 0
0.1999999999999999 0 0
0.3000000000000001 0 0
0.4000000000000004 0 0
0.5000000000000003 0 0
0.5999999999999999 0 0
0.6999999999999995 0 0
0.7999999999999992 0 0
0.899999999999999 0 0
1 2 0 9
17
18
19
20
21
22
23
24
25
0 0.9 0
0 0.8 0
0 0.7 0
0 0.5999999999999996 0
0 0.4999999999999997 0
0 0.4000000000000001 0
0 0.3000000000000005 0
0 0.2000000000000008 0
0 0.100000000000001 0
1 3 0 9
26
27
28
29
30
31
32
33
34
1 0.09999999999999996 0
1 0.1999999999999999 0
1 0.3000000000000001 0
1 0.4000000000000004 0
1 0.5000000000000003 0
1 0.5999999999999999 0
1 0.6999999999999995 0
1 0.7999999999999992 0
1 0.899999999999999 0
1 4 0 9
35
36
37
38
39
40
41
42
43
0.9 1 0
0.8 1 0
0.7 1 0
0.5999999999999996 1 0
0.4999999999999997 1 0
0.4000000000000001 1 0
0.3000000000000005 1 0
0.2000000000000008 1 0
0.100000000000001 1 0
1 5 0 4
44
45
46
47
0.6286574901939749 0.7133216237538511 0
0.662480295720583 0.6710656844341525 0
0.6963031012471911 0.6288097451144539 0
0.7301259067737993 0.5865538057947551 0
1 6 0 4
48
49
50
51
0.7836320264487361 0.5947172449482091 0
0.8033153405970648 0.6451366234213618 0
0.8229986547453935 0.6955560018945144 0
0.8426819688937223 0.7459753803676672 0
1 7 0 4
52
53
54
55
0.8088591633671142 0.7882313196873658 0
0.7553530436921774 0.7800678805339119 0
0.7018469240172406 0.7719044413804578 0
0.6483408043423036 0.7637410022270038 0
2 2 0 6
56
57
58
59
60
61
0.7694925350704568 0.6873925627410605 0
0.6821636098689118 0.7214850629073052 0
0.7891758492187855 0.7378119412142132 0
0.749809220922128 0.6369731842679078 0
0.7356697295438487 0.7296485020607593 0
0.7159864153955199 0.6792291235876066 0
2 3 0 154
62
63
64
65
66
67
68
69
70
71
72
73
74
75
76
77
78
79
80
81
82
83
84
85
86
87
88
89
90
91
92
93
94
95
96
97
98
99
100
101
102
103
104
105
106
107
108
109
110
111
112
113
114
115
116
117
118
119
120
121
122
123
124
125
126
127
128
129
130
131
132
133
134
135
136
137
138
139
140
141
142
143
144
145
146
147
148
149
150
151
152
153
154
155
156
157
158
159
160
161
162
163
164
165
166
167
168
169
170
171
172
173
174
175
176
177
178
179
180
181
182
183
184
185
186
187
188
189
190
191
192
193
194
195
196
197
198
199
200
201
202
203
204
205
206
207
208
209
210
211
212
213
214
215
0.6481056283976409 0.6252874023819046 0
0.08293493080921577 0.4546953166674733 0
0.4508076773176253 0.09737734058655639 0
0.3481303703294378 0.9205789310191828 0
0.6459127476895867 0.07966659407605098 0
0.09035310863745627 0.6408011226701149 0
0.708457905479883 0.5355921690335762 0
0.7449289229954628 0.489960037403011 0
0.6848732308108783 0.4805110463916933 0
0.7244435740138768 0.4336104196082798 0
0.6605229489312274 0.4213396415073051 0
0.5743609111054505 0.7033994475547312 0
0.08094608400600317 0.2494030502906142 0
0.6202765892528849 0.4731288234047529 0
0.5936262297787636 0.4104937976052604 0
0.551629246594051 0.4655106815963788 0
0.5237478875239459 0.4003358956688914 0
0.4794851598488426 0.4578848641539354 0
0.4499825311495618 0.3892013340544276 0
0.4038489512143013 0.4496995242367178 0
0.4362780041623223 0.5162692789274964 0
0.7082511876858485 0.3747465370312383 0
0.5379996074861945 0.7480883262065392 0
0.3722961153453023 0.3777584660330345 0
0.3582910663577022 0.5114329864775834 0
0.3922877921726484 0.5868683322708333 0
0.5681750590063027 0.3399375907304293 0
0.9152109501781645 0.2527912481260612 0
0.3108070451303695 0.5756223301207141 0
0.3391376476351194 0.6522551181406163 0
0.5601124967274785 0.8041646519579806 0
0.2508366064966447 0.08607787024679259 0
0.4216639209123845 0.3147472770620505 0
0.3397800877654357 0.3048650798766404 0
0.7893559137163424 0.4439957634608315 0
0.6630448847460805 0.8150005214545066 0
0.4971104691401965 0.7962873690476546 0
0.8174548319753442 0.5524613056285106 0
0.2891610272024138 0.3692507714369769 0
0.5165469464460013 0.6927387564290469 0
0.7750840584895928 0.8301746117770639 0
0.1504170143936602 0.9240746783839788 0
0.2612289851466851 0.6401880119425896 0
0.2939035324701123 0.7180354731657983 0
0.2241059286375428 0.5700089043595633 0
0.862476046371749 0.6600641983854307 0
0.2580620316321086 0.2967275010614998 0
0.5779266647622552 0.5268474471771369 0
0.8488502011313833 0.07646847073028018 0
0.3789997653921034 0.7247466955268238 0
0.3849926723140696 0.2322089014096307 0
0.4772848985079088 0.2492973532778567 0
0.5547726243301803 0.6439252124410894 0
0.5227911941949737 0.8563403529938707 0
0.4949974698346088 0.6340790414170534 0
0.2117129516617974 0.7095940654937742 0
0.2483813727493825 0.7856998384896661 0
0.1596566653538236 0.7723496325769701 0
0.2022244649668276 0.3603104392967733 0
0.6095969781735902 0.8629597149412864 0
0.9120938551097901 0.4448729432271224 0
0.4563001669475018 0.8401828677248016 0
0.8930191727484305 0.7499994505754499 0
0.8437636528662372 0.914960423831056 0
0.2376697729458299 0.4335427509985932 0
0.9282346293790578 0.537982985504933 0
0.7581917463230002 0.9298262045666745 0
0.9172407797861658 0.3464516125154696 0
0.8399203830287978 0.2987952115450786 0
0.832614889578119 0.2138036557276313 0
0.7624257911226859 0.2558704517646621 0
0.754144525486396 0.176020688064349 0
0.6818780953320873 0.2152859568229614 0
0.6723661433708006 0.9208229090642067 0
0.4473229905547392 0.6951191320611885 0
0.5491680564094311 0.0851008146309048 0
0.6008519730069144 0.1665724563987226 0
0.2497375191301954 0.9226545870943421 0
0.08097936201486172 0.5441881068146879 0
0.6440508265467808 0.529956470514563 0
0.5350407863612123 0.5808526011576972 0
0.3502023498441207 0.08454781068572859 0
0.299995237669426 0.1709467109384227 0
0.1958750692595099 0.1562653436430514 0
0.09989123148498907 0.352792849344328 0
0.9436128354777422 0.8547702992831401 0
0.1512666473219769 0.08124681019403063 0
0.5091681709268139 0.5201551602308128 0
0.3347266770399294 0.7882101349603301 0
0.5110573995982075 0.1663008188105285 0
0.9081222041050425 0.1594838198857937 0
0.6766197870988624 0.5783903666413012 0
0.1681724141659843 0.5006837256627192 0
0.5501954420536318 0.9256947143634725 0
0.8411365421258032 0.3811298308161246 0
0.6089741760456462 0.6629022452806985 0
0.4260145324630789 0.7741267523159157 0
0.3267539880706833 0.4407079131505836 0
0.09271686135766266 0.1534634456686775 0
0.6962992733214903 0.3017929076622935 0
0.6138172932570716 0.262521578860222 0
0.750966880691865 0.08892002193104498 0
0.1795867988931552 0.6378673727598994 0
0.6401153319967841 0.3518053422327914 0
0.8434832371672097 0.6060285604495231 0
0.08744795426196073 0.8473915510094002 0
0.7687329799307877 0.3349384904983361 0
0.6145179988156955 0.8059969415467025 0
0.7215302381655693 0.8223238198536105 0
0.827362862131659 0.842286965610019 0
0.4972969363975957 0.3297582097069888 0
0.1715570037130213 0.2828858293204755 0
0.466994398413331 0.577243571398237 0
0.9194830959433024 0.622024013581736 0
0.9167283038581797 0.6998052079232284 0
0.606498641934654 0.592594535084913 0
0.270966702551352 0.5053331017949595 0
0.4517310147530272 0.9110940984002593 0
0.07901976732272115 0.7368662518052236 0
0.9265042940152179 0.9250884158543212 0
0.3907754147653593 0.154627085078094 0
0.862416556911191 0.5045473215418693 0
0.8045866750384181 0.4959948154646325 0
0.5436142827604068 0.2763768843479131 0
0.4849989092180421 0.741272067212069 0
0.3861202565379842 0.8489594225568194 0
0.4356161490597282 0.627111773571536 0
0.1581785628745693 0.4204050163939774 0
0.2960270110174157 0.8550801618890082 0
0.1989982201912036 0.8518967040399157 0
0.07458371424471405 0.07458371424471427 0
0.6867508444413699 0.1452931434586258 0
0.926794919243112 0.07320508075688781 0
0.867580829323495 0.7102800478292581 0
0.304940344979561 0.2460168255815002 0
0.8840998909077565 0.8526717181554329 0
0.07269592645550554 0.9273040735444946 0
0.8455900083769388 0.4475441169640265 0
0.9128366941573101 0.8021291345514442 0
0.6855519620978807 0.8618833632234996 0
0.3976975609532767 0.6629337575358931 0
0.1440658583737907 0.6994956890611965 0
0.7891910862388827 0.8775531623398719 0
0.947633958354167 0.7532679611638884 0
0.7415531113839242 0.8705176059145459 0
0.5509199131528367 0.2182593413139363 0
0.1503454855986839 0.572088550570343 0
0.6080396408995055 0.9273693345922414 0
0.874214470275221 0.5646088373413144 0
0.1463465146714344 0.2127452013083301 0
0.8183159262209792 0.1446427889885307 0
0.7663840394945318 0.3936842082829621 0
0.4465577505657364 0.1856324944816375 0
0.2373494669468227 0.226160266747488 0
$EndNodes
$Elements
6 428 1 428
1 1 1 10
1 1 8 
2 8 9 
3 9 10 
4 10 11 
5 11 12 
6 12 13 
7 13 14 
8 14 15 
9 15 16 
10 16 2 
1 2 1 10
11 3 17 
12 17 18 
13 18 19 
14 19 20 
15 20 21 
16 21 22 
17 22 23 
18 23 24 
19 24 25 
20 25 1 
1 3 1 10
21 2 26 
22 26 27 
23 27 28 
24 28 29 
25 29 30 
26 30 31 
27 31 32 
28 32 33 
29 33 34 
30 34 4 
1 4 1 10
31 4 35 
32 35 36 
33 36 37 
34 37 38 
35 38 39 
36 39 40 
37 40 41 
38 41 42 
39 42 43 
40 43 3 
2 2 2 25
41 6 48 47 
42 7 52 51 
43 5 44 55 
44 55 57 54 
45 59 61 46 
46 46 61 45 
47 45 61 57 
48 52 58 51 
49 60 61 56 
50 47 59 46 
51 56 59 49 
52 53 60 58 
53 56 61 59 
54 49 59 48 
55 57 61 60 
56 57 60 54 
57 45 57 44 
58 51 58 50 
59 58 60 56 
60 50 58 56 
61 50 56 49 
62 48 59 47 
63 53 58 52 
64 44 57 55 
65 54 60 53 
2 3 2 363
66 65 187 179 
67 153 177 141 
68 136 186 158 
69 154 178 106 
70 97 201 121 
71 126 178 154 
72 121 169 97 
73 62 177 153 
74 136 158 111 
75 114 177 157 
76 157 177 62 
77 162 165 88 
78 161 165 162 
79 161 168 83 
80 155 179 115 
81 115 179 123 
82 166 175 107 
83 132 168 161 
84 146 173 120 
85 120 189 146 
86 144 182 112 
87 166 210 175 
88 122 156 129 
89 141 177 109 
90 119 191 167 
91 121 201 135 
92 145 160 148 
93 38 209 135 
94 122 129 29 
95 32 176 175 
96 145 211 160 
97 122 199 156 
98 112 196 144 
99 111 158 150 
100 30 127 122 
101 38 135 37 
102 134 162 138 
103 66 138 137 
104 37 135 128 
105 36 125 35 
106 110 163 15 
107 36 128 125 
108 41 139 65 
109 167 191 103 
110 129 130 89 
111 66 137 13 
112 167 180 119 
113 18 180 167 
114 27 152 26 
115 31 127 30 
116 146 189 63 
117 75 141 109 
118 63 140 21 
119 41 65 40 
120 82 174 87 
121 28 129 89 
122 125 197 181 
123 142 177 114 
124 30 122 29 
125 65 179 40 
126 64 143 11 
127 181 197 147 
128 130 168 132 
129 137 151 64 
130 22 146 63 
131 158 187 150 
132 37 128 36 
133 32 175 31 
134 74 173 146 
135 130 132 131 
136 12 137 64 
137 28 89 27 
138 83 165 161 
139 151 214 64 
140 14 66 13 
141 143 144 93 
142 29 129 28 
143 103 139 42 
144 12 64 11 
145 130 131 89 
146 42 139 41 
147 20 140 67 
148 22 63 21 
149 110 212 163 
150 88 185 162 
151 79 149 82 
152 142 149 109 
153 91 111 105 
154 13 137 12 
155 63 154 140 
156 10 143 93 
157 75 109 77 
158 20 67 19 
159 9 148 8 
160 74 146 23 
161 21 140 20 
162 138 193 134 
163 89 152 27 
164 11 143 10 
165 138 151 137 
166 23 146 22 
167 143 182 144 
168 16 110 15 
169 132 134 133 
170 127 183 122 
171 144 145 93 
172 10 93 9 
173 135 206 128 
174 113 172 94 
175 79 82 81 
176 24 74 23 
177 174 188 87 
178 43 103 42 
179 93 148 9 
180 39 179 155 
181 111 150 105 
182 129 156 130 
183 135 209 121 
184 100 159 126 
185 100 126 120 
186 128 204 125 
187 112 113 94 
188 132 133 131 
189 82 87 86 
190 70 141 75 
191 109 149 77 
192 34 147 33 
193 145 148 93 
194 31 175 127 
195 64 214 182 
196 140 208 67 
197 25 160 24 
198 15 163 14 
199 68 141 70 
200 70 75 72 
201 67 208 164 
202 4 181 34 
203 190 191 118 
204 35 181 4 
205 201 206 135 
206 82 86 81 
207 87 91 90 
208 45 62 46 
209 105 150 118 
210 77 149 79 
211 44 157 45 
212 39 155 38 
213 46 153 47 
214 132 161 134 
215 85 100 95 
216 66 193 138 
217 91 105 104 
218 14 163 66 
219 5 73 44 
220 75 77 76 
221 79 81 80 
222 188 202 87 
223 77 79 78 
224 100 120 108 
225 105 118 117 
226 24 160 74 
227 19 180 18 
228 47 68 6 
229 87 90 86 
230 116 142 114 
231 104 106 90 
232 101 114 73 
233 85 94 80 
234 131 152 89 
235 109 177 142 
236 123 158 98 
237 95 112 94 
238 87 202 91 
239 118 119 117 
240 152 194 26 
241 100 108 95 
242 162 207 138 
243 171 197 125 
244 81 85 80 
245 161 162 134 
246 91 104 90 
247 105 117 104 
248 70 72 71 
249 85 95 94 
250 79 80 78 
251 1 192 25 
252 8 192 1 
253 125 181 35 
254 18 167 17 
255 77 78 76 
256 149 174 82 
257 75 76 72 
258 78 88 76 
259 139 190 65 
260 163 212 133 
261 45 157 62 
262 65 190 187 
263 64 182 143 
264 62 153 46 
265 85 159 100 
266 175 176 107 
267 86 159 81 
268 2 194 16 
269 26 194 2 
270 73 157 44 
271 81 159 85 
272 96 213 156 
273 72 83 71 
274 101 116 114 
275 68 153 141 
276 47 153 68 
277 113 185 172 
278 114 157 73 
279 3 198 43 
280 17 198 3 
281 111 202 136 
282 184 199 183 
283 104 164 106 
284 120 173 108 
285 159 178 126 
286 101 136 116 
287 176 205 124 
288 156 168 130 
289 70 71 69 
290 68 70 69 
291 96 199 184 
292 154 189 126 
293 92 121 115 
294 6 99 48 
295 94 172 80 
296 5 84 73 
297 117 164 104 
298 106 178 90 
299 54 97 55 
300 150 190 118 
301 147 200 33 
302 53 170 54 
303 48 166 49 
304 67 180 19 
305 142 174 149 
306 55 169 5 
307 139 191 190 
308 52 102 53 
309 84 101 73 
310 76 165 72 
311 7 171 52 
312 158 186 98 
313 71 96 69 
314 5 92 84 
315 49 107 50 
316 115 123 98 
317 80 172 78 
318 72 165 83 
319 40 179 39 
320 68 69 6 
321 116 174 142 
322 88 165 76 
323 32 205 176 
324 78 172 88 
325 175 210 127 
326 90 178 86 
327 151 207 113 
328 99 184 183 
329 86 178 159 
330 92 98 84 
331 125 204 171 
332 51 124 7 
333 92 115 98 
334 92 169 121 
335 121 155 115 
336 91 202 111 
337 187 190 150 
338 95 196 112 
339 211 215 173 
340 103 191 139 
341 172 185 88 
342 33 205 32 
343 118 191 119 
344 101 186 136 
345 131 212 152 
346 156 213 168 
347 34 181 147 
348 5 169 92 
349 156 199 96 
350 63 189 154 
351 148 192 8 
352 116 188 174 
353 99 166 48 
354 152 212 110 
355 126 189 120 
356 173 215 108 
357 168 213 83 
358 54 170 97 
359 97 169 55 
360 110 194 152 
361 133 193 163 
362 106 208 154 
363 16 194 110 
364 25 192 160 
365 102 170 53 
366 183 210 99 
367 123 187 158 
368 144 215 145 
369 119 203 117 
370 49 166 107 
371 52 171 102 
372 83 213 71 
373 113 207 185 
374 84 186 101 
375 98 186 84 
376 163 193 66 
377 43 198 103 
378 136 188 116 
379 113 214 151 
380 164 203 67 
381 155 209 38 
382 69 184 6 
383 200 205 33 
384 50 195 51 
385 6 184 99 
386 138 207 151 
387 134 193 133 
388 96 184 69 
389 176 195 107 
390 160 192 148 
391 112 214 113 
392 160 211 74 
393 145 215 211 
394 185 207 162 
395 108 196 95 
396 107 195 50 
397 124 195 176 
398 164 208 106 
399 103 198 167 
400 180 203 119 
401 154 208 140 
402 51 195 124 
403 167 198 17 
404 117 203 164 
405 133 212 131 
406 182 214 112 
407 7 197 171 
408 127 210 183 
409 67 203 180 
410 71 213 96 
411 124 200 7 
412 183 199 122 
413 170 201 97 
414 74 211 173 
415 121 209 155 
416 136 202 188 
417 7 200 197 
418 171 204 102 
419 102 206 170 
420 196 215 144 
421 99 210 166 
422 170 206 201 
423 124 205 200 
424 204 206 102 
425 108 215 196 
426 197 200 147 
427 128 206 204 
428 179 187 123 
$EndElements
