$MeshFormat
4.1 0 8
$EndMeshFormat
$PhysicalNames
3
1 101 "outer_boundary"
2 1 "material_1"
2 2 "material_2"
$EndPhysicalNames
$Entities
5 5 2 0
1 0 0 0 0 
2 1 0 0 0 
3 0 1 0 0 
4 1 1 0 0 
5 0.6882752578926099 0.6791902240536367 0 0 
1 -9.999999994736442e-08 -1e-07 -1e-07 1.0000001 1e-07 1e-07 1 101 2 1 -2 
2 -1e-07 -9.999999994736442e-08 -1e-07 1e-07 1.0000001 1e-07 1 101 2 3 -1 
3 0.9999999000000001 -9.999999994736442e-08 -1e-07 1.0000001 1.0000001 1e-07 1 101 2 2 -4 
4 -9.999999994736442e-08 0.9999999000000001 -1e-07 1.0000001 1.0000001 1e-07 1 101 2 4 -3 
5 0.2879152144580661 0.4790101523363648 -1e-07 0.6882753578926099 0.8793702957709085 1e-07 0 2 5 -5 
2 0.2879152144580661 0.4790101523363648 -1e-07 0.6882753578926099 0.8793702957709085 1e-07 1 2 1 5 
3 -9.999999994736442e-08 -9.999999994736442e-08 -1e-07 1.0000001 1.0000001 1e-07 1 1 5 1 3 4 2 -5 
$EndEntities
$Nodes
12 164 1 164
0 1 0 1
1
0 0 0
0 2 0 1
2
1 0 0
0 3 0 1
3
0 1 0
0 4 0 1
4
1 1 0
0 5 0 1
5
0.6882752578926099 0.6791902240536367 0
1 1 0 7
6
7
8
9
10
11
12
0.1249999999999999 0 0
0.2499999999999998 0 0
0.3749999999999993 0 0
0.4999999999999988 0 0
0.6249999999999988 0 0
0.7499999999999991 0 0
0.8749999999999997 0 0
1 2 0 7
13
14
15
16
17
18
19
0 0.8750000000000001 0
0 0.7500000000000002 0
0 0.6250000000000007 0
0 0.5000000000000012 0
0 0.3750000000000012 0
0 0.2500000000000009 0
0 0.1250000000000003 0
1 3 0 7
20
21
22
23
24
25
26
1 0.1249999999999999 0
1 0.2499999999999998 0
1 0.3749999999999993 0
1 0.4999999999999988 0
1 0.6249999999999988 0
1 0.7499999999999991 0
1 0.8749999999999997 0
1 4 0 7
27
28
29
30
31
32
33
0.8750000000000001 1 0
0.7500000000000002 1 0
0.6250000000000007 1 0
0.5000000000000012 1 0
0.3750000000000012 1 0
0.2500000000000009 1 0
0.1250000000000003 1 0
1 5 0 17
34
35
36
37
38
39
40
41
42
43
44
45
46
47
48
49
50
0.6762029284271902 0.7476558066713064 0
0.6414420411330684 0.807863429580901 0
0.588185272033974 0.8525511648896447 0
0.5228561734694599 0.8763290121985706 0
0.4533343988812161 0.8763290121985706 0
0.3880053003167021 0.8525511648896447 0
0.3347485312176077 0.8078634295809011 0
0.2999876439234858 0.7476558066713064 0
0.2879153144580661 0.6791902240536367 0
0.2999876439234857 0.6107246414359671 0
0.3347485312176076 0.5505170185263726 0
0.3880053003167019 0.5058292832176289 0
0.4533343988812159 0.4820514359087028 0
0.5228561734694597 0.4820514359087028 0
0.5881852720339737 0.5058292832176288 0
0.6414420411330682 0.5505170185263724 0
0.6762029284271902 0.6107246414359669 0
2 2 0 28
51
52
53
54
55
56
57
58
59
60
61
62
63
64
65
66
67
68
69
70
71
72
73
74
75
76
77
78
0.6066811538389465 0.7476558066713064 0
0.3613783286643686 0.6059997865373936 0
0.3963866595462504 0.7878394954465034 0
0.5355319073116256 0.5478860240039217 0
0.6066811538389464 0.6107246414359669 0
0.5310160453329567 0.8008677660246288 0
0.4431723491156935 0.5519153941143683 0
0.3518561765043131 0.70353236850157 0
0.6414420411330684 0.6521510537504992 0
0.5843421415220207 0.6773946371427167 0
0.5410549428175718 0.60909320095241 0
0.5098437034123481 0.676036270014451 0
0.4738190438832851 0.6160853273603821 0
0.4491940520828002 0.6710644194491576 0
0.4843918286973169 0.7372370205227974 0
0.5485711778850002 0.7376227879560808 0
0.4611890729110361 0.8079593499550123 0
0.4188045543876259 0.7327985090148449 0
0.3896324857164878 0.6610888900451292 0
0.3603567131158565 0.7559379218430251 0
0.3356350000419872 0.6521396336037479 0
0.5868821342816872 0.7960882362838755 0
0.3886679299940397 0.5610527088307226 0
0.4880952861753379 0.5234778482232351 0
0.5853249615202307 0.5624088533154119 0
0.6399753721542818 0.7023580452861449 0
0.4188352429664264 0.6082828349498449 0
0.4947724556431012 0.5705670375043738 0
2 3 0 86
79
80
81
82
83
84
85
86
87
88
89
90
91
92
93
94
95
96
97
98
99
100
101
102
103
104
105
106
107
108
109
110
111
112
113
114
115
116
117
118
119
120
121
122
123
124
125
126
127
128
129
130
131
132
133
134
135
136
137
138
139
140
141
142
143
144
145
146
147
148
149
150
151
152
153
154
155
156
157
158
159
160
161
162
163
164
0.4042763248868549 0.4313146226665 0
0.5747155405980862 0.4412834204265168 0
0.6712715284479434 0.1074193345441541 0
0.3109716696422086 0.1129440106674584 0
0.7132280375821338 0.5448983869314775 0
0.09697704798673251 0.295106178564146 0
0.2576612093292109 0.5540632105056381 0
0.8947306957754065 0.3246633719384702 0
0.7397003823598287 0.729979565287811 0
0.2647767334064858 0.8061476303720955 0
0.09017154114801507 0.6696430781110769 0
0.3226762017521879 0.4820514359087029 0
0.3200216709586168 0.4060294048378831 0
0.3945478307412501 0.3505827718989049 0
0.2458243359062507 0.4668124509390047 0
0.3156752576234622 0.3169026943134623 0
0.3935679300890775 0.2675236360765336 0
0.4691218995313886 0.3060662959314821 0
0.4653490336550954 0.2152825575655143 0
0.5519783182835794 0.2630088374968073 0
0.167551561279591 0.5267471997999024 0
0.6498266412945517 0.4806831556799572 0
0.6434807929583763 0.3981351187000708 0
0.723878029809103 0.4372036223608687 0
0.7935490345363245 0.4976674638421267 0
0.7200167471738586 0.3488668831824117 0
0.7880605673705773 0.5816748419750167 0
0.8231021325855137 0.9018333391843271 0
0.3226762017521881 0.8763290121985706 0
0.2375769000478771 0.642209781232264 0
0.2421759811294867 0.724061396320415 0
0.184599063863797 0.7851215383009158 0
0.6559524135320084 0.8704828588673802 0
0.7063671532010104 0.8050691164009246 0
0.5547975620804855 0.1674829493897245 0
0.1546452841256183 0.4480794931873774 0
0.2375488779588252 0.3814843572913765 0
0.2128773859639058 0.2817238903502942 0
0.145975644295797 0.2019893729287915 0
0.4923181980367289 0.4285019542283596 0
0.9060897059611657 0.6915242148741353 0
0.2081630268005302 0.8732307399589225 0
0.8856376380679836 0.5457553478446958 0
0.896186835024946 0.4387616080857468 0
0.7938713839348968 0.7977642420802712 0
0.4455990015487832 0.1065147115893175 0
0.6433525497797389 0.2163841311254851 0
0.7542824486442117 0.1956847500382259 0
0.5436280003006356 0.3642485520408066 0
0.8956401247108576 0.832947300531705 0
0.307968621495159 0.2237717890574412 0
0.8846025446875233 0.1954047585753799 0
0.1928269206690726 0.09912793568045408 0
0.6349516583229275 0.3096946199322644 0
0.114349069489869 0.8729708457713627 0
0.8072957384729841 0.09891578189285921 0
0.09501901455879314 0.5854222390990438 0
0.8044226235060055 0.3902418184122123 0
0.5761129425685544 0.9210167475073143 0
0.7702983019935967 0.6526907614486698 0
0.796155879067586 0.2906024179354869 0
0.7350513055626846 0.886578170494666 0
0.4038952066699555 0.9115849934264854 0
0.8175471230817937 0.7043310501307412 0
0.3846912512860647 0.1852073409912529 0
0.09855897771564059 0.7720168271092167 0
0.09660681011559891 0.09660681011559907 0
0.5624999999999988 0.0722569550344625 0
0.1698732107605457 0.6998775081760356 0
0.7097518565976645 0.2722465604427748 0
0.9187484514592743 0.9219561279432062 0
0.9110473721061223 0.0893114910025854 0
0.1661568006584579 0.6062124279823249 0
0.08283476111932997 0.4148017237156779 0
0.09600800961168038 0.4964053442820076 0
0.2298954904576025 0.1834054658118405 0
0.4718664535981981 0.9308766275551568 0
0.6860622142080135 0.948956171662113 0
0.1569766714308823 0.3642391286217744 0
0.05983726737246742 0.9369927114428407 0
0.8594167078450248 0.6254895384995354 0
0.4591556790950144 0.3744055305148444 0
0.7272130186532215 0.6138357711689535 0
0.2818452650271338 0.9338705183293281 0
0.06300809763567211 0.1897742246070367 0
0.8697854427100573 0.7575868320009866 0
$EndNodes
$Elements
6 326 1 326
1 1 1 8
1 1 6 
2 6 7 
3 7 8 
4 8 9 
5 9 10 
6 10 11 
7 11 12 
8 12 2 
1 2 1 8
9 3 13 
10 13 14 
11 14 15 
12 15 16 
13 16 17 
14 17 18 
15 18 19 
16 19 1 
1 3 1 8
17 2 20 
18 20 21 
19 21 22 
20 22 23 
21 23 24 
22 24 25 
23 25 26 
24 26 4 
1 4 1 8
25 4 27 
26 27 28 
27 28 29 
28 29 30 
29 30 31 
30 31 32 
31 32 33 
32 33 3 
2 2 2 72
33 39 67 38 
34 38 67 37 
35 65 66 56 
36 37 67 56 
37 53 67 39 
38 56 67 65 
39 51 66 60 
40 53 68 67 
41 67 68 65 
42 60 76 51 
43 66 72 56 
44 58 69 68 
45 69 77 64 
46 64 77 63 
47 51 72 66 
48 37 56 36 
49 40 53 39 
50 48 54 47 
51 42 58 41 
52 46 57 45 
53 50 55 49 
54 44 52 43 
55 35 51 34 
56 62 65 64 
57 62 64 63 
58 68 70 58 
59 62 63 61 
60 60 66 62 
61 68 69 64 
62 60 62 61 
63 62 66 65 
64 59 76 60 
65 60 61 55 
66 54 75 61 
67 61 75 55 
68 63 77 57 
69 57 78 63 
70 53 70 68 
71 63 78 61 
72 59 60 55 
73 65 68 64 
74 61 78 54 
75 36 72 35 
76 41 70 40 
77 58 70 41 
78 5 59 50 
79 54 74 47 
80 55 75 49 
81 49 75 48 
82 46 74 57 
83 56 72 36 
84 43 71 42 
85 34 76 5 
86 40 70 53 
87 42 71 58 
88 35 72 51 
89 57 73 45 
90 52 71 43 
91 45 73 44 
92 47 74 46 
93 44 73 52 
94 51 76 34 
95 50 59 55 
96 48 75 54 
97 52 77 69 
98 58 71 69 
99 69 71 52 
100 5 76 59 
101 57 77 73 
102 73 77 52 
103 74 78 57 
104 54 78 74 
2 3 2 222
105 120 162 32 
106 100 102 83 
107 33 133 120 
108 24 159 121 
109 81 125 113 
110 107 141 31 
111 24 121 23 
112 22 122 86 
113 33 120 32 
114 127 132 101 
115 80 127 101 
116 130 139 126 
117 108 151 85 
118 102 103 83 
119 90 93 91 
120 113 146 81 
121 31 162 107 
122 23 122 22 
123 97 124 113 
124 25 164 119 
125 128 164 25 
126 93 115 91 
127 121 122 23 
128 124 146 113 
129 144 147 110 
130 141 155 31 
131 33 158 133 
132 119 159 24 
133 107 120 88 
134 85 151 99 
135 126 134 130 
136 98 132 127 
137 122 136 86 
138 13 144 133 
139 110 147 109 
140 84 117 116 
141 86 139 130 
142 26 128 25 
143 14 144 13 
144 15 89 14 
145 47 118 80 
146 79 118 46 
147 89 147 144 
148 123 140 112 
149 118 127 80 
150 98 127 96 
151 28 106 27 
152 25 119 24 
153 80 100 48 
154 45 90 79 
155 102 136 103 
156 90 91 79 
157 8 124 82 
158 50 161 5 
159 18 84 17 
160 116 157 84 
161 11 81 10 
162 8 82 7 
163 79 160 118 
164 80 101 100 
165 49 100 83 
166 91 115 94 
167 11 134 81 
168 85 93 90 
169 114 115 93 
170 85 90 44 
171 81 134 126 
172 81 126 125 
173 9 146 124 
174 138 159 142 
175 43 108 85 
176 87 112 34 
177 9 124 8 
178 86 130 21 
179 103 105 83 
180 22 86 21 
181 42 109 108 
182 84 163 117 
183 88 109 41 
184 105 159 138 
185 115 116 94 
186 28 140 106 
187 21 130 20 
188 81 146 10 
189 111 156 137 
190 106 140 123 
191 18 163 84 
192 107 162 120 
193 16 135 15 
194 31 155 30 
195 82 131 7 
196 88 110 109 
197 87 123 112 
198 152 153 16 
199 4 149 26 
200 15 135 89 
201 40 107 88 
202 7 131 6 
203 103 136 122 
204 6 145 1 
205 1 145 19 
206 32 162 31 
207 95 96 92 
208 17 152 16 
209 123 128 106 
210 97 143 124 
211 91 92 79 
212 115 157 116 
213 94 129 95 
214 97 98 96 
215 35 112 111 
216 30 137 29 
217 5 161 138 
218 116 129 94 
219 2 150 12 
220 113 125 98 
221 12 134 11 
222 125 132 98 
223 27 149 4 
224 118 160 127 
225 47 80 48 
226 45 79 46 
227 16 153 135 
228 20 150 2 
229 89 144 14 
230 46 118 47 
231 124 143 82 
232 101 132 104 
233 92 160 79 
234 129 154 82 
235 95 97 96 
236 97 113 98 
237 49 83 50 
238 101 102 100 
239 85 99 93 
240 117 145 131 
241 48 100 49 
242 94 95 92 
243 5 87 34 
244 44 90 45 
245 43 85 44 
246 39 141 107 
247 127 160 96 
248 42 108 43 
249 41 109 42 
250 34 112 35 
251 40 88 41 
252 91 94 92 
253 82 143 129 
254 87 142 123 
255 111 137 36 
256 136 139 86 
257 109 147 108 
258 103 121 105 
259 135 153 99 
260 82 154 131 
261 101 104 102 
262 103 122 121 
263 26 149 128 
264 84 152 17 
265 112 140 111 
266 105 161 83 
267 99 114 93 
268 39 107 40 
269 106 149 27 
270 114 157 115 
271 104 136 102 
272 117 154 116 
273 135 151 89 
274 99 153 114 
275 30 155 137 
276 35 111 36 
277 29 156 28 
278 131 145 6 
279 137 155 37 
280 88 120 110 
281 5 138 87 
282 95 143 97 
283 129 143 95 
284 38 155 141 
285 36 137 37 
286 96 160 92 
287 137 156 29 
288 120 133 110 
289 28 156 140 
290 99 151 135 
291 38 141 39 
292 104 139 136 
293 126 148 125 
294 130 150 20 
295 89 151 147 
296 10 146 9 
297 134 150 130 
298 116 154 129 
299 117 163 145 
300 138 142 87 
301 131 154 117 
302 139 148 126 
303 19 163 18 
304 3 158 33 
305 13 158 3 
306 37 155 38 
307 104 148 139 
308 12 150 134 
309 123 164 128 
310 114 153 152 
311 132 148 104 
312 125 148 132 
313 133 144 110 
314 128 149 106 
315 133 158 13 
316 142 164 123 
317 121 159 105 
318 147 151 108 
319 142 159 119 
320 83 161 50 
321 140 156 111 
322 145 163 19 
323 152 157 114 
324 119 164 142 
325 84 157 152 
326 138 161 105 
$EndElements
