$MeshFormat
4.1 0 8
$EndMeshFormat
$PhysicalNames
3
1 101 "outer_boundary"
2 1 "material_1"
2 2 "material_2"
$EndPhysicalNames
$Entities
7 7 2 0
1 0 0 0 0 
2 1 0 0 0 
3 0 1 0 0 
4 1 1 0 0 
5 0.4231279797763456 0.4446274219401664 0 0 
6 0.6123429596084482 0.1332255306452326 0 0 
7 0.7874174183403297 0.4527914556038605 0 0 
1 -9.999999994736442e-08 -1e-07 -1e-07 1.0000001 1e-07 1e-07 1 101 2 1 -2 
2 -1e-07 -9.999999994736442e-08 -1e-07 1e-07 1.0000001 1e-07 1 101 2 3 -1 
3 0.9999999000000001 -9.999999994736442e-08 -1e-07 1.0000001 1.0000001 1e-07 1 101 2 2 -4 
4 -9.999999994736442e-08 0.9999999000000001 -1e-07 1.0000001 1.0000001 1e-07 1 101 2 4 -3 
5 0.4231278797763456 0.1332254306452326 -1e-07 0.6123430596084481 0.4446275219401664 1e-07 0 2 5 -6 
6 0.6123428596084483 0.1332254306452326 -1e-07 0.7874175183403297 0.4527915556038605 1e-07 0 2 6 -7 
7 0.4231278797763456 0.4446273219401664 -1e-07 0.7874175183403297 0.4527915556038605 1e-07 0 2 7 -5 
2 0.4231278797763456 0.1332254306452326 -1e-07 0.7874175183403297 0.4527915556038605 1e-07 1 2 3 5 6 7 
3 -9.999999994736442e-08 -9.999999994736442e-08 -1e-07 1.0000001 1.0000001 1e-07 1 1 7 1 3 4 2 -5 -7 -6 
$EndEntities
$Nodes
16 232 1 232
0 1 0 1
1
0 0 0
0 2 0 1
2
1 0 0
0 3 0 1
3
0 1 0
0 4 0 1
4
1 1 0
0 5 0 1
5
0.4231279797763456 0.4446274219401664 0
0 6 0 1
6
0.6123429596084482 0.1332255306452326 0
0 7 0 1
7
0.7874174183403297 0.4527914556038605 0
1 1 0 9
8
9
10
11
12
13
14
15
16
0.09999999999999996 0 0
0.1999999999999999 0 0
0.3000000000000001 0 0
0.4000000000000004 0 0
0.5000000000000003 0 0
0.5999999999999999 0 0
0.6999999999999995 0 0
0.7999999999999992 0 0
0.899999999999999 0 0
1 2 0 9
17
18
19
20
21
22
23
24
25
0 0.9 0
0 0.8 0
0 0.7 0
0 0.5999999999999996 0
0 0.4999999999999997 0
0 0.4000000000000001 0
0 0.3000000000000005 0
0 0.2000000000000008 0
0 0.100000000000001 0
1 3 0 9
26
27
28
29
30
31
32
33
34
1 0.09999999999999996 0
1 0.1999999999999999 0
1 0.3000000000000001 0
1 0.4000000000000004 0
1 0.5000000000000003 0
1 0.5999999999999999 0
1 0.6999999999999995 0
1 0.7999999999999992 0
1 0.899999999999999 0
1 4 0 9
35
36
37
38
39
40
41
42
43
0.9 1 0
0.8 1 0
0.7 1 0
0.5999999999999996 1 0
0.4999999999999997 1 0
0.4000000000000001 1 0
0.3000000000000005 1 0
0.2000000000000008 1 0
0.100000000000001 1 0
1 5 0 6
44
45
46
47
48
49
0.4501586911809317 0.4001414374694616 0
0.4771894025855177 0.3556554529987568 0
0.5042201139901038 0.3111694685280521 0
0.5312508253946897 0.2666834840573474 0
0.5582815367992758 0.2221974995866425 0
0.585312248203862 0.1777115151159375 0
1 6 0 6
50
51
52
53
54
55
0.6373535965701456 0.1788778056393222 0
0.6623642335318428 0.2245300806334118 0
0.6873748704935402 0.2701823556275014 0
0.7123855074552374 0.315834630621591 0
0.7373961444169349 0.3614869056156808 0
0.7624067813786323 0.4071391806097706 0
1 7 0 6
56
57
58
59
60
61
0.7353760699740464 0.4516251650804756 0
0.683334721607763 0.4504588745570907 0
0.6312933732414796 0.4492925840337059 0
0.5792520248751964 0.448126293510321 0
0.5272106765089128 0.4469600029869361 0
0.4751693281426292 0.4457937124635513 0
2 2 0 15
62
63
64
65
66
67
68
69
70
71
72
73
74
75
76
0.5562614623563873 0.3123357590514369 0
0.6853547960506515 0.360320615092296 0
0.6062827362797824 0.4036403090396162 0
0.6353335221272568 0.2690160651041167 0
0.5022000395472153 0.4013077279928464 0
0.7103654330123489 0.4059728900863858 0
0.6103228851655593 0.2233637901100272 0
0.5542413879134989 0.4024740185162314 0
0.5812720993180849 0.3579880340455265 0
0.5832921737609733 0.2678497745807321 0
0.608302810722671 0.3135020495748215 0
0.6583240846460656 0.4048065995630009 0
0.5292307509518013 0.3568217435221416 0
0.6603441590889542 0.3146683400982063 0
0.6333134476843683 0.3591543245689112 0
2 3 0 156
77
78
79
80
81
82
83
84
85
86
87
88
89
90
91
92
93
94
95
96
97
98
99
100
101
102
103
104
105
106
107
108
109
110
111
112
113
114
115
116
117
118
119
120
121
122
123
124
125
126
127
128
129
130
131
132
133
134
135
136
137
138
139
140
141
142
143
144
145
146
147
148
149
150
151
152
153
154
155
156
157
158
159
160
161
162
163
164
165
166
167
168
169
170
171
172
173
174
175
176
177
178
179
180
181
182
183
184
185
186
187
188
189
190
191
192
193
194
195
196
197
198
199
200
201
202
203
204
205
206
207
208
209
210
211
212
213
214
215
216
217
218
219
220
221
222
223
224
225
226
227
228
229
230
231
232
0.450788218861317 0.4917466911117538 0
0.6554269908156327 0.4947192251330669 0
0.4211166239840429 0.352743249521402 0
0.3925462091846372 0.4868361728153396 0
0.4235183710567361 0.5413848160612738 0
0.6546455631209177 0.9212984458589707 0
0.3605196621053733 0.5398215239302298 0
0.3906330415070975 0.596218278474637 0
0.4561972579841038 0.5951833653625996 0
0.3307205256261685 0.4806231307537842 0
0.07925354155305298 0.2463553452843362 0
0.4233629799383552 0.6550831952968114 0
0.353115629825756 0.6542660491532696 0
0.7588492933825783 0.5003027328603084 0
0.4950535898188878 0.653702094205344 0
0.4792094770284065 0.2655171935339625 0
0.7224128694668531 0.2267314613486095 0
0.7713243608351932 0.3136441436506555 0
0.294321011116162 0.5385574512207926 0
0.9100733434813821 0.7556482418451044 0
0.2640016188082427 0.4773108101541249 0
0.4588137285031426 0.7176964745969802 0
0.08104410639183657 0.7496349091403659 0
0.5319093980110842 0.1757179446438979 0
0.5325774800270336 0.7157577341942458 0
0.3422639469078891 0.08608010751084882 0
0.5681945763898785 0.6509307019921089 0
0.6068030926658944 0.7133345309588168 0
0.6376988105371306 0.6499056762370706 0
0.6798703352714209 0.712266450791432 0
0.251227772503905 0.9234169720424298 0
0.2222444273673133 0.5374711415904142 0
0.8100009341650669 0.4012256871371866 0
0.9153681678352213 0.1560505844231257 0
0.8184540407199302 0.5016658982218715 0
0.7849415464318193 0.5569198304794808 0
0.5536550784102878 0.4916024625911303 0
0.3033501560348387 0.4178381094902359 0
0.2319611147533945 0.4126227621974727 0
0.2759440553084596 0.3516655128780882 0
0.496767184004099 0.7841050127303997 0
0.4173784909774111 0.7847849629265454 0
0.6598563989360524 0.1415628132663536 0
0.1503349781788731 0.07168428836308655 0
0.8441443121314027 0.9086698295954543 0
0.8548638800916084 0.5583446146215744 0
0.813654792094628 0.6250834192448169 0
0.196754183591444 0.3453724641663592 0
0.24491321281307 0.2812627281385312 0
0.3213155371487745 0.2894474904811815 0
0.1561127345646479 0.4051923363581532 0
0.293524637825448 0.2196607823188622 0
0.3741148339988858 0.2284860100961734 0
0.6026105966697436 0.5924464872466092 0
0.6715874206399864 0.5878678964953438 0
0.4574079999917465 0.8553921825753015 0
0.2561316124533776 0.5995564123222658 0
0.1685961462879955 0.6070653970557973 0
0.2254362993061482 0.668057051491182 0
0.1433708717013846 0.53074308152475 0
0.6461562688825837 0.7791903403014574 0
0.7272190220421266 0.7746720390732219 0
0.2143452664057032 0.2078061181389978 0
0.9103666144565856 0.3403143114338524 0
0.3750946895019848 0.8533611687486582 0
0.3354488614027979 0.7827069272473288 0
0.5381047767556388 0.8519335713787114 0
0.8870464463905261 0.4926397239931677 0
0.7448860037893762 0.08372590945449365 0
0.91774833750942 0.2465906517528235 0
0.8444641583262317 0.2026149960626638 0
0.8415630703605952 0.2817967852224932 0
0.895352189206459 0.6195969603897665 0
0.2647309383665883 0.1406208731660059 0
0.7592916265558591 0.6925632819471894 0
0.5319435093272181 0.5861338668781155 0
0.8098240009638622 0.7655023088127308 0
0.8296732610292968 0.1148739049098583 0
0.7416510873163311 0.6107111425501581 0
0.4518823927947146 0.08856066232839166 0
0.5333296503880744 0.07302358260311359 0
0.09613060495678688 0.3456104876179275 0
0.482736864955877 0.5394839910856193 0
0.6607156247235871 0.08329433993054447 0
0.7436406810061712 0.9192063700354289 0
0.08660254037844389 0.6499999999999997 0
0.08258885096512109 0.848147739040817 0
0.1622271633727273 0.7970767503860057 0
0.3550773485557109 0.3602482285686617 0
0.392639766013772 0.3013727631439319 0
0.4046607563100135 0.159235845448887 0
0.7831488901910831 0.2429814417608308 0
0.7620936716277866 0.1691716572347347 0
0.09139926927528552 0.1480298741013474 0
0.1565813595975325 0.905983727953636 0
0.3662746808864612 0.42072969353517 0
0.8223260608450572 0.344635166674133 0
0.6042626618368936 0.4937785685044104 0
0.1622274382448396 0.2719279292940134 0
0.9210392907427827 0.8541196928354164 0
0.7235774774016368 0.5482461847191015 0
0.705442451875217 0.4971527564546968 0
0.4521787656238205 0.3100031780046672 0
0.5048729852339022 0.2202004648289614 0
0.4468590266853567 0.2176800268607245 0
0.09466174366198549 0.4606953500171492 0
0.8505578071007527 0.6918883469763337 0
0.7353292996883813 0.2738748066018377 0
0.1899605117126798 0.4716763425044442 0
0.5726786495024117 0.781787899331795 0
0.558448025750506 0.1295333610294373 0
0.3794461784411164 0.7178051741643349 0
0.5038871243641231 0.4913320323375418 0
0.6941260572979862 0.1790172681777352 0
0.3247046561952415 0.596818925905534 0
0.9280658458854447 0.5555952344318476 0
0.6292356715685544 0.5411098177738763 0
0.577231274734837 0.5382947034451413 0
0.6934863158560209 0.8468224437152769 0
0.5112689618234038 0.1283876993231705 0
0.9270902119980093 0.4262834571885237 0
0.7735932654051059 0.8401612605954432 0
0.07443797205054858 0.5710696503960576 0
0.8493013188396924 0.4428238003492198 0
0.1456862212216088 0.6999999999999998 0
0.4973144484546496 0.9102033322436862 0
0.2949018809722861 0.8527499133351427 0
0.2501893247586144 0.786325464037029 0
0.2910403899441578 0.7140839614138713 0
0.4216200067947214 0.9234701376670001 0
0.6145297775032841 0.8484334151872496 0
0.340474058295483 0.925499698632205 0
0.3323511580990907 0.1626632817133842 0
0.2479332972260931 0.06501426252793319 0
0.9005431774365518 0.07554979176254695 0
0.5755791839687364 0.9212445129955177 0
0.8643832661647137 0.3885650832406189 0
0.4752422534764125 0.1649637739056722 0
0.4031510648766984 0.3956980062069723 0
0.1484517959536171 0.2027846477411772 0
0.07401076905714571 0.9268905553918582 0
0.7820414126342612 0.3662316880634877 0
0.7090041290978946 0.1318902242788315 0
0.07320508075688753 0.07320508075688781 0
0.9267949192431124 0.9267949192431122 0
0.6763410546727691 0.5365894552268151 0
0.4309293960639086 0.2663257006668649 0
0.5929672520941232 0.08381536284166557 0
0.6984228381478434 0.6542962383819554 0
0.1950334642892042 0.1398039718871908 0
0.2230255002410131 0.8531105655508486 0
0.8452231696007997 0.8336051663288301 0
0.2900857175449362 0.6465564800572245 0
0.2076784475526534 0.7349819081625947 0
0.5298907703584685 0.5293694112675097 0
0.9319850384691729 0.682194630953764 0
$EndNodes
$Elements
6 462 1 462
1 1 1 10
1 1 8 
2 8 9 
3 9 10 
4 10 11 
5 11 12 
6 12 13 
7 13 14 
8 14 15 
9 15 16 
10 16 2 
1 2 1 10
11 3 17 
12 17 18 
13 18 19 
14 19 20 
15 20 21 
16 21 22 
17 22 23 
18 23 24 
19 24 25 
20 25 1 
1 3 1 10
21 2 26 
22 26 27 
23 27 28 
24 28 29 
25 29 30 
26 30 31 
27 31 32 
28 32 33 
29 33 34 
30 34 4 
1 4 1 10
31 4 35 
32 35 36 
33 36 37 
34 37 38 
35 38 39 
36 39 40 
37 40 41 
38 41 42 
39 42 43 
40 43 3 
2 2 2 49
41 55 7 56 
42 6 50 49 
43 5 44 61 
44 62 72 70 
45 70 74 62 
46 69 74 70 
47 73 76 63 
48 64 76 73 
49 65 71 68 
50 54 67 63 
51 71 72 62 
52 68 71 48 
53 65 72 71 
54 67 73 63 
55 57 67 56 
56 54 63 53 
57 70 76 64 
58 69 70 64 
59 44 66 61 
60 63 75 53 
61 72 76 70 
62 45 66 44 
63 56 67 55 
64 59 69 64 
65 63 76 75 
66 66 74 69 
67 60 69 59 
68 48 71 47 
69 55 67 54 
70 66 69 60 
71 50 68 49 
72 49 68 48 
73 65 68 51 
74 47 62 46 
75 46 74 45 
76 51 68 50 
77 58 73 57 
78 64 73 58 
79 52 65 51 
80 61 66 60 
81 47 71 62 
82 52 75 65 
83 59 64 58 
84 65 75 72 
85 75 76 72 
86 57 73 67 
87 62 74 46 
88 53 75 52 
89 45 74 66 
2 3 2 373
90 145 219 160 
91 158 175 124 
92 182 185 136 
93 15 211 154 
94 127 185 182 
95 140 148 146 
96 165 166 79 
97 145 160 14 
98 15 154 145 
99 127 158 124 
100 140 173 148 
101 136 199 182 
102 94 168 148 
103 80 172 5 
104 26 211 2 
105 144 197 30 
106 140 146 28 
107 182 199 21 
108 86 172 80 
109 93 190 169 
110 162 199 134 
111 156 214 167 
112 151 155 123 
113 16 211 15 
114 196 214 156 
115 188 205 89 
116 2 211 16 
117 11 156 102 
118 140 213 173 
119 148 173 94 
120 134 201 162 
121 30 192 144 
122 93 169 168 
123 126 166 165 
124 146 147 110 
125 87 175 158 
126 134 199 136 
127 79 215 165 
128 164 171 163 
129 127 182 158 
130 146 148 147 
131 167 181 129 
132 142 205 188 
133 12 157 156 
134 154 169 145 
135 200 213 197 
136 77 159 81 
137 85 159 152 
138 85 152 91 
139 156 167 102 
140 13 224 157 
141 27 146 110 
142 164 227 171 
143 29 140 28 
144 150 210 102 
145 13 157 12 
146 135 201 134 
147 12 156 11 
148 14 160 13 
149 126 165 116 
150 15 145 14 
151 81 159 85 
152 103 130 105 
153 94 184 168 
154 91 152 103 
155 19 162 99 
156 158 182 22 
157 11 102 10 
158 123 183 151 
159 27 110 26 
160 148 168 147 
161 170 226 216 
162 31 232 149 
163 116 165 114 
164 114 172 86 
165 103 152 130 
166 28 146 27 
167 39 206 202 
168 167 214 181 
169 130 131 105 
170 40 206 39 
171 131 177 155 
172 87 158 23 
173 24 87 23 
174 36 161 121 
175 96 228 153 
176 38 82 37 
177 147 154 110 
178 190 219 169 
179 20 162 19 
180 120 226 170 
181 166 179 79 
182 82 161 37 
183 128 129 126 
184 144 200 197 
185 19 99 18 
186 99 164 163 
187 125 126 116 
188 181 223 129 
189 129 166 126 
190 165 172 114 
191 161 198 121 
192 99 163 18 
193 147 169 154 
194 102 210 10 
195 23 158 22 
196 149 192 31 
197 91 103 101 
198 103 105 104 
199 99 201 164 
200 39 212 38 
201 102 209 150 
202 42 107 41 
203 9 120 8 
204 151 225 155 
205 152 194 130 
206 33 96 32 
207 24 170 87 
208 110 211 26 
209 37 161 36 
210 18 163 17 
211 153 183 96 
212 36 121 35 
213 157 196 156 
214 169 219 145 
215 142 188 118 
216 30 197 29 
217 77 189 159 
218 155 177 112 
219 43 171 42 
220 25 170 24 
221 123 155 112 
222 42 171 107 
223 97 114 86 
224 160 224 13 
225 141 142 118 
226 125 128 126 
227 103 104 101 
228 34 176 33 
229 202 212 39 
230 106 151 138 
231 201 230 164 
232 155 225 131 
233 9 210 120 
234 29 197 140 
235 21 199 20 
236 129 209 167 
237 33 176 96 
238 17 217 3 
239 61 77 5 
240 57 78 58 
241 168 169 147 
242 58 174 59 
243 59 113 60 
244 176 228 96 
245 3 217 43 
246 210 226 120 
247 81 85 84 
248 32 232 31 
249 115 116 114 
250 149 183 123 
251 168 184 93 
252 85 91 88 
253 91 101 98 
254 117 143 132 
255 105 106 104 
256 82 195 161 
257 109 213 200 
258 133 135 134 
259 44 79 45 
260 124 125 116 
261 56 178 57 
262 130 193 131 
263 139 150 128 
264 97 115 114 
265 117 118 98 
266 117 186 143 
267 22 182 21 
268 151 153 138 
269 112 177 90 
270 132 141 118 
271 45 179 46 
272 131 225 105 
273 172 215 5 
274 31 192 30 
275 95 133 108 
276 134 136 108 
277 60 189 61 
278 124 175 125 
279 1 220 25 
280 8 220 1 
281 101 117 98 
282 91 98 88 
283 115 127 124 
284 106 138 137 
285 83 86 80 
286 7 90 56 
287 133 134 108 
288 4 221 34 
289 35 221 4 
290 115 124 116 
291 129 223 166 
292 46 92 47 
293 125 139 128 
294 117 132 118 
295 85 88 84 
296 198 228 121 
297 152 231 194 
298 106 137 104 
299 162 201 99 
300 95 97 86 
301 78 174 58 
302 165 215 172 
303 88 89 84 
304 41 208 40 
305 59 174 113 
306 77 80 5 
307 205 230 135 
308 53 94 54 
309 52 184 53 
310 128 209 129 
311 125 175 139 
312 51 93 52 
313 106 225 151 
314 81 84 83 
315 95 108 97 
316 177 178 90 
317 61 189 77 
318 57 178 78 
319 77 81 80 
320 113 189 60 
321 205 229 89 
322 47 180 48 
323 81 83 80 
324 55 109 7 
325 83 95 86 
326 101 186 117 
327 111 144 122 
328 104 186 101 
329 171 227 107 
330 122 123 112 
331 5 215 44 
332 151 183 153 
333 118 188 98 
334 79 179 45 
335 49 187 6 
336 20 199 162 
337 50 190 51 
338 136 185 108 
339 149 232 183 
340 204 230 205 
341 204 205 142 
342 122 149 123 
343 97 185 115 
344 107 208 41 
345 48 100 49 
346 38 212 82 
347 90 178 56 
348 137 186 104 
349 95 191 133 
350 108 185 97 
351 159 231 152 
352 115 185 127 
353 98 188 88 
354 78 193 174 
355 138 195 137 
356 46 179 92 
357 167 209 102 
358 195 198 161 
359 88 188 89 
360 186 207 143 
361 6 119 50 
362 150 226 210 
363 133 229 135 
364 89 191 84 
365 173 218 94 
366 141 203 142 
367 111 122 112 
368 84 191 83 
369 174 194 113 
370 138 198 195 
371 10 210 9 
372 40 208 206 
373 203 204 142 
374 25 220 170 
375 53 184 94 
376 92 180 47 
377 137 207 186 
378 7 111 90 
379 163 217 17 
380 93 184 52 
381 170 216 87 
382 92 181 180 
383 144 192 122 
384 143 202 132 
385 153 198 138 
386 111 112 90 
387 109 218 173 
388 83 191 95 
389 183 232 96 
390 135 229 205 
391 141 208 203 
392 203 208 107 
393 34 221 176 
394 120 220 8 
395 132 206 141 
396 43 217 171 
397 173 213 109 
398 150 209 128 
399 122 192 149 
400 193 194 174 
401 96 232 32 
402 197 213 140 
403 54 218 55 
404 170 220 120 
405 121 221 35 
406 51 190 93 
407 154 211 110 
408 94 218 54 
409 202 206 132 
410 111 200 144 
411 171 217 163 
412 113 231 189 
413 48 180 100 
414 55 218 109 
415 207 212 143 
416 176 221 121 
417 195 207 137 
418 178 222 78 
419 100 187 49 
420 44 215 79 
421 82 212 207 
422 105 225 106 
423 121 228 176 
424 206 208 141 
425 130 194 193 
426 100 196 187 
427 166 223 179 
428 119 190 50 
429 191 229 133 
430 131 222 177 
431 89 229 191 
432 109 200 7 
433 6 160 119 
434 175 216 139 
435 139 226 150 
436 189 231 159 
437 82 207 195 
438 216 226 139 
439 87 216 175 
440 92 223 181 
441 193 222 131 
442 7 200 111 
443 177 222 178 
444 78 222 193 
445 143 212 202 
446 187 196 157 
447 181 214 180 
448 204 227 164 
449 203 227 204 
450 164 230 204 
451 119 219 190 
452 179 223 92 
453 135 230 201 
454 180 214 100 
455 100 214 196 
456 194 231 113 
457 187 224 6 
458 153 228 198 
459 6 224 160 
460 107 227 203 
461 157 224 187 
462 160 219 119 
$EndElements
