$MeshFormat
4.1 0 8
$EndMeshFormat
$PhysicalNames
3
1 101 "outer_boundary"
2 1 "material_1"
2 2 "material_2"
$EndPhysicalNames
$Entities
8 8 2 0
1 0 0 0 0 
2 1 0 0 0 
3 0 1 0 0 
4 1 1 0 0 
5 0.389733166904845 0.1902965681661482 0 0 
6 0.6374110124636022 0.3109705124746412 0 0 
7 0.5167370681551092 0.5586483580333985 0 0 
8 0.269059222596352 0.4379744137249055 0 0 
1 -9.999999994736442e-08 -1e-07 -1e-07 1.0000001 1e-07 1e-07 1 101 2 1 -2 
2 -1e-07 -9.999999994736442e-08 -1e-07 1e-07 1.0000001 1e-07 1 101 2 3 -1 
3 0.9999999000000001 -9.999999994736442e-08 -1e-07 1.0000001 1.0000001 1e-07 1 101 2 2 -4 
4 -9.999999994736442e-08 0.9999999000000001 -1e-07 1.0000001 1.0000001 1e-07 1 101 2 4 -3 
5 0.389733066904845 0.1902964681661482 -1e-07 0.6374111124636022 0.3109706124746412 1e-07 0 2 5 -6 
6 0.5167369681551093 0.3109704124746412 -1e-07 0.6374111124636022 0.5586484580333985 1e-07 0 2 6 -7 
7 0.269059122596352 0.4379743137249055 -1e-07 0.5167371681551092 0.5586484580333985 1e-07 0 2 7 -8 
8 0.269059122596352 0.1902964681661482 -1e-07 0.389733266904845 0.4379745137249055 1e-07 0 2 8 -5 
2 0.269059122596352 0.1902964681661482 -1e-07 0.6374111124636022 0.5586484580333985 1e-07 1 2 4 5 6 7 8 
3 -9.999999994736442e-08 -9.999999994736442e-08 -1e-07 1.0000001 1.0000001 1e-07 1 1 8 1 3 4 2 -5 -8 -7 -6 
$EndEntities
$Nodes
18 155 1 155
0 1 0 1
1
0 0 0
0 2 0 1
2
1 0 0
0 3 0 1
3
0 1 0
0 4 0 1
4
1 1 0
0 5 0 1
5
0.389733166904845 0.1902965681661482 0
0 6 0 1
6
0.6374110124636022 0.3109705124746412 0
0 7 0 1
7
0.5167370681551092 0.5586483580333985 0
0 8 0 1
8
0.269059222596352 0.4379744137249055 0
1 1 0 7
9
10
11
12
13
14
15
0.1249999999999999 0 0
0.2499999999999998 0 0
0.3749999999999993 0 0
0.4999999999999988 0 0
0.6249999999999988 0 0
0.7499999999999991 0 0
0.8749999999999997 0 0
1 2 0 7
16
17
18
19
20
21
22
0 0.8750000000000001 0
0 0.7500000000000002 0
0 0.6250000000000007 0
0 0.5000000000000012 0
0 0.3750000000000012 0
0 0.2500000000000009 0
0 0.1250000000000003 0
1 3 0 7
23
24
25
26
27
28
29
1 0.1249999999999999 0
1 0.2499999999999998 0
1 0.3749999999999993 0
1 0.4999999999999988 0
1 0.6249999999999988 0
1 0.7499999999999991 0
1 0.8749999999999997 0
1 4 0 7
30
31
32
33
34
35
36
0.8750000000000001 1 0
0.7500000000000002 1 0
0.6250000000000007 1 0
0.5000000000000012 1 0
0.3750000000000012 1 0
0.2500000000000009 1 0
0.1250000000000003 1 0
1 5 0 3
37
38
39
0.4516526282945344 0.2204650542432715 0
0.5135720896842236 0.2506335403203947 0
0.5754915510739129 0.2808020263975179 0
1 6 0 3
40
41
42
0.6072425263864789 0.3728899738643306 0
0.5770740403093557 0.4348094352540199 0
0.5469055542322324 0.4967288966437092 0
1 7 0 3
43
44
45
0.4548176067654198 0.5284798719562752 0
0.3928981453757306 0.498311385879152 0
0.3309786839860413 0.4681428998020287 0
1 8 0 3
46
47
48
0.2992277086734753 0.3760549523352161 0
0.3293961947505986 0.3141354909455268 0
0.3595646808277217 0.2522160295558375 0
2 2 0 14
49
50
51
52
53
54
55
56
57
58
59
60
61
62
0.4468648275329176 0.4657779537799295 0
0.5406617999917599 0.3754168830459116 0
0.457227710023226 0.2878600787984706 0
0.3785977070460659 0.3732294143268834 0
0.519797677820512 0.314324179083358 0
0.4629841119887417 0.3580172337615706 0
0.3873242161378704 0.4377563158785099 0
0.5008739612958754 0.4326186941549889 0
0.3986237122263911 0.3084203790984387 0
0.4353289648002942 0.4134799223803765 0
0.4934937410364457 0.491235301722958 0
0.4129764940235085 0.2577096244765887 0
0.5699979561531616 0.3342138395933047 0
0.333037507687961 0.4186315992135087 0
2 3 0 93
63
64
65
66
67
68
69
70
71
72
73
74
75
76
77
78
79
80
81
82
83
84
85
86
87
88
89
90
91
92
93
94
95
96
97
98
99
100
101
102
103
104
105
106
107
108
109
110
111
112
113
114
115
116
117
118
119
120
121
122
123
124
125
126
127
128
129
130
131
132
133
134
135
136
137
138
139
140
141
142
143
144
145
146
147
148
149
150
151
152
153
154
155
0.3977312007340693 0.5670194554698342 0
0.5880849354828839 0.5520553555281416 0
0.2738465041712048 0.5111504126309341 0
0.6457821099000379 0.4299763798956811 0
0.5526536158209598 0.62155981956807 0
0.6356161091989221 0.6123999534950355 0
0.2870791846247369 0.2565534744673576 0
0.3125000000000011 0.8917468245269451 0
0.5984093337918703 0.6897088236053528 0
0.5104556709231461 0.6941468994313449 0
0.6862422599217873 0.6842499602656715 0
0.7241776937285053 0.5987832866487666 0
0.6324569748255252 0.2376376659251654 0
0.7013877227414382 0.2703828766074389 0
0.1127825321915074 0.6803289508735983 0
0.224318511216328 0.3908412421729741 0
0.2095431542372077 0.4717044188669142 0
0.8917468245269456 0.4374999999999991 0
0.8139844132805623 0.8890058660335728 0
0.5577757774272953 0.7691278697956744 0
0.7810039971486669 0.6762044428409806 0
0.8865678657759529 0.1927831389457371 0
0.5087390343258849 0.1819254707297125 0
0.1203539045191821 0.1860604354790794 0
0.6969535449268635 0.1888003804886123 0
0.4650254799900483 0.7728282691250796 0
0.2107063716165758 0.5574158988954236 0
0.8105540108347535 0.5740405218938901 0
0.743412411570441 0.4918152398221334 0
0.4142363122200465 0.6848885605251426 0
0.2861757947826831 0.5933842148874653 0
0.6967377732293473 0.3544385882862819 0
0.7794254212983646 0.303887312094034 0
0.1473863890742509 0.4117634527279261 0
0.1690828997438076 0.3360228898110512 0
0.6059045548706886 0.1555040865070865 0
0.7434964194518567 0.7741694180193708 0
0.845370971533799 0.760656598696642 0
0.3828923292766003 0.7622991726161306 0
0.6837593369912518 0.8827036295681137 0
0.7874097818343416 0.396460242948955 0
0.2188128446971554 0.6448788999572261 0
0.5146877478841191 0.8489264055037207 0
0.2942757747170324 0.1024741116360752 0
0.8949335395626583 0.3180195523510975 0
0.1341018810059118 0.5183965583009057 0
0.199368968002434 0.1011706725044289 0
0.3180076183332516 0.6910169844188412 0
0.2162079809833921 0.7410428434694973 0
0.1201865653200092 0.8082354025675689 0
0.445998887952146 0.07365487926843195 0
0.6880563710685774 0.09961931205602159 0
0.7751208705295937 0.1341206524441072 0
0.6701392723875151 0.5282982800457063 0
0.4666705046480887 0.6174464612766446 0
0.1869212726708422 0.9021958947973001 0
0.3366305587891513 0.5385410886333439 0
0.4016646931191328 0.8583553988435155 0
0.3251522316766557 0.1866807596021591 0
0.2391477671597084 0.1827194995789663 0
0.2529601730711927 0.3228309322528038 0
0.532947565356481 0.08958995043744383 0
0.5672328409560471 0.2213005579759754 0
0.8905704874429978 0.6538098002105039 0
0.6461127105909561 0.7702229720034441 0
0.6168646910350318 0.4882614586890157 0
0.9064939451407676 0.5369572378315126 0
0.9172650330122862 0.8403264489954566 0
0.7688933915089068 0.2271856193604064 0
0.5948803059062272 0.8395175127513816 0
0.1480162015985527 0.5942023326663682 0
0.1925069050045633 0.2598111223043912 0
0.0898516940173566 0.9103495029588546 0
0.8641389848498104 0.09546794976412193 0
0.4510312325902795 0.1464971139904687 0
0.3521135676907508 0.6220540201357457 0
0.08894457450432325 0.08244622159670167 0
0.08641750090875217 0.2746795022370888 0
0.09541785499280536 0.3708396535174415 0
0.7127355605651853 0.4250628913831479 0
0.3039903419742939 0.7982923902042345 0
0.8401415107481933 0.2583485880399943 0
0.5680664271343693 0.9210992318162136 0
0.07420248523721623 0.4567324228111403 0
0.380198548973493 0.1166005721105473 0
0.8279233947814499 0.487354648499298 0
0.6129771228239365 0.08617833725013796 0
0.06896399346846382 0.5672406345092482 0
0.2279612321897077 0.8283026711131092 0
0.9254808456915458 0.9253810366919716 0
0.6865799308670134 0.4716458707270321 0
0.467033882086505 0.9237249018723543 0
0.4101412663305275 0.6224725049399087 0
$EndNodes
$Elements
6 308 1 308
1 1 1 8
1 1 9 
2 9 10 
3 10 11 
4 11 12 
5 12 13 
6 13 14 
7 14 15 
8 15 2 
1 2 1 8
9 3 16 
10 16 17 
11 17 18 
12 18 19 
13 19 20 
14 20 21 
15 21 22 
16 22 1 
1 3 1 8
17 2 23 
18 23 24 
19 24 25 
20 25 26 
21 26 27 
22 27 28 
23 28 29 
24 29 4 
1 4 1 8
25 4 30 
26 30 31 
27 31 32 
28 32 33 
29 33 34 
30 34 35 
31 35 36 
32 36 3 
2 2 2 42
33 52 57 54 
34 50 56 54 
35 54 58 52 
36 56 58 54 
37 54 57 51 
38 50 54 53 
39 49 58 56 
40 41 50 40 
41 47 52 46 
42 38 51 37 
43 44 49 43 
44 52 58 55 
45 39 53 38 
46 42 56 41 
47 45 55 44 
48 48 57 47 
49 53 54 51 
50 47 57 52 
51 41 56 50 
52 38 53 51 
53 44 55 49 
54 7 59 42 
55 6 61 39 
56 37 60 5 
57 43 59 7 
58 40 61 6 
59 46 62 8 
60 5 60 48 
61 8 62 45 
62 42 59 56 
63 48 60 57 
64 45 62 55 
65 39 61 53 
66 51 60 37 
67 50 61 40 
68 49 59 43 
69 52 62 46 
70 57 60 51 
71 56 59 49 
72 53 61 50 
73 55 62 52 
74 55 58 49 
2 3 2 234
75 95 107 103 
76 122 134 86 
77 100 126 28 
78 103 107 80 
79 104 111 77 
80 23 136 2 
81 40 94 66 
82 99 100 81 
83 17 112 16 
84 2 136 15 
85 109 122 86 
86 81 102 99 
87 111 112 77 
88 7 117 43 
89 28 130 100 
90 43 117 63 
91 6 94 40 
92 112 135 16 
93 14 136 115 
94 70 120 34 
95 77 112 17 
96 84 144 131 
97 98 125 85 
98 121 122 106 
99 84 131 115 
100 28 126 27 
101 134 140 86 
102 106 122 109 
103 32 102 31 
104 120 154 34 
105 85 124 98 
106 24 107 84 
107 126 129 27 
108 14 115 114 
109 93 110 104 
110 91 142 103 
111 120 143 101 
112 102 127 99 
113 31 102 81 
114 91 148 90 
115 90 148 129 
116 101 143 110 
117 8 79 78 
118 97 140 134 
119 67 117 7 
120 15 136 14 
121 110 143 111 
122 107 144 84 
123 32 145 102 
124 64 116 68 
125 84 136 23 
126 94 142 66 
127 80 148 103 
128 80 107 25 
129 85 137 124 
130 11 147 106 
131 110 111 104 
132 22 86 21 
133 70 143 120 
134 3 135 36 
135 11 106 10 
136 18 77 17 
137 24 84 23 
138 26 80 25 
139 100 130 81 
140 1 139 22 
141 35 70 34 
142 79 96 78 
143 16 135 3 
144 90 129 126 
145 106 109 10 
146 113 147 11 
147 97 123 78 
148 31 81 30 
149 103 148 91 
150 25 107 24 
151 13 149 124 
152 68 116 74 
153 140 141 20 
154 117 155 63 
155 95 144 107 
156 72 117 67 
157 74 116 91 
158 9 139 1 
159 93 138 110 
160 74 91 90 
161 102 132 127 
162 79 108 96 
163 14 114 13 
164 77 133 104 
165 10 109 9 
166 88 92 72 
167 102 145 132 
168 77 150 133 
169 12 113 11 
170 101 110 92 
171 13 124 12 
172 124 137 113 
173 29 130 28 
174 21 140 20 
175 35 118 70 
176 121 147 5 
177 92 117 72 
178 36 118 35 
179 18 150 77 
180 27 129 26 
181 91 153 142 
182 110 138 92 
183 88 101 92 
184 64 128 116 
185 63 138 119 
186 86 139 109 
187 96 97 78 
188 115 136 84 
189 43 63 44 
190 65 93 89 
191 106 147 121 
192 42 64 7 
193 97 134 123 
194 40 66 41 
195 44 119 45 
196 83 99 73 
197 138 155 92 
198 22 139 86 
199 68 74 73 
200 71 72 67 
201 74 90 83 
202 82 88 72 
203 45 65 8 
204 47 69 48 
205 26 129 80 
206 83 100 99 
207 41 128 42 
208 70 151 143 
209 118 151 70 
210 86 140 21 
211 46 123 47 
212 64 67 7 
213 76 94 6 
214 74 83 73 
215 88 120 101 
216 39 75 6 
217 8 78 46 
218 129 148 80 
219 82 105 88 
220 48 121 5 
221 81 152 30 
222 93 104 89 
223 95 103 94 
224 38 125 39 
225 114 115 87 
226 71 82 72 
227 63 119 44 
228 68 73 71 
229 75 98 87 
230 68 71 67 
231 37 85 38 
232 36 135 118 
233 119 138 93 
234 108 146 96 
235 99 127 73 
236 65 119 93 
237 111 151 112 
238 64 68 67 
239 105 120 88 
240 42 128 64 
241 109 139 9 
242 75 76 6 
243 66 128 41 
244 34 154 33 
245 12 124 113 
246 90 126 83 
247 45 119 65 
248 20 146 19 
249 83 126 100 
250 98 114 87 
251 65 89 79 
252 76 95 94 
253 89 108 79 
254 104 133 89 
255 123 134 69 
256 75 87 76 
257 65 79 8 
258 47 123 69 
259 108 150 146 
260 73 127 71 
261 124 149 98 
262 71 127 82 
263 5 137 37 
264 114 149 13 
265 33 145 32 
266 69 121 48 
267 78 123 46 
268 115 131 87 
269 130 152 81 
270 82 132 105 
271 118 135 112 
272 19 150 18 
273 69 134 122 
274 39 125 75 
275 75 125 98 
276 69 122 121 
277 66 153 128 
278 4 152 29 
279 30 152 4 
280 89 133 108 
281 141 146 20 
282 116 153 91 
283 85 125 38 
284 103 142 94 
285 5 147 137 
286 127 132 82 
287 76 131 95 
288 112 151 118 
289 146 150 19 
290 37 137 85 
291 87 131 76 
292 96 146 141 
293 128 153 116 
294 92 155 117 
295 96 141 97 
296 145 154 105 
297 132 145 105 
298 33 154 145 
299 98 149 114 
300 97 141 140 
301 131 144 95 
302 105 154 120 
303 133 150 108 
304 63 155 138 
305 29 152 130 
306 137 147 113 
307 142 153 66 
308 143 151 111 
$EndElements
