$MeshFormat
4.1 0 8
$EndMeshFormat
$PhysicalNames
3
1 101 "outer_boundary"
2 1 "material_1"
2 2 "material_2"
$EndPhysicalNames
$Entities
7 7 2 0
1 0 0 0 0 
2 1 0 0 0 
3 0 1 0 0 
4 1 1 0 0 
5 0.4651122925012358 0.7170155946102175 0 0 
6 0.5962969255405448 0.4430597765780296 0 0 
7 0.7679573069513119 0.6936469103923046 0 0 
1 -9.999999994736442e-08 -1e-07 -1e-07 1.0000001 1e-07 1e-07 1 101 2 1 -2 
2 -1e-07 -9.999999994736442e-08 -1e-07 1e-07 1.0000001 1e-07 1 101 2 3 -1 
3 0.9999999000000001 -9.999999994736442e-08 -1e-07 1.0000001 1.0000001 1e-07 1 101 2 2 -4 
4 -9.999999994736442e-08 0.9999999000000001 -1e-07 1.0000001 1.0000001 1e-07 1 101 2 4 -3 
5 0.4651121925012358 0.4430596765780296 -1e-07 0.5962970255405448 0.7170156946102174 1e-07 0 2 5 -6 
6 0.5962968255405449 0.4430596765780296 -1e-07 0.7679574069513119 0.6936470103923046 1e-07 0 2 6 -7 
7 0.4651121925012358 0.6936468103923047 -1e-07 0.7679574069513119 0.7170156946102174 1e-07 0 2 7 -5 
2 0.4651121925012358 0.4430596765780296 -1e-07 0.7679574069513119 0.7170156946102174 1e-07 1 2 3 5 6 7 
3 -9.999999994736442e-08 -9.999999994736442e-08 -1e-07 1.0000001 1.0000001 1e-07 1 1 7 1 3 4 2 -5 -7 -6 
$EndEntities
$Nodes
16 230 1 230
0 1 0 1
1
0 0 0
0 2 0 1
2
1 0 0
0 3 0 1
3
0 1 0
0 4 0 1
4
1 1 0
0 5 0 1
5
0.4651122925012358 0.7170155946102175 0
0 6 0 1
6
0.5962969255405448 0.4430597765780296 0
0 7 0 1
7
0.7679573069513119 0.6936469103923046 0
1 1 0 9
8
9
10
11
12
13
14
15
16
0.09999999999999996 0 0
0.1999999999999999 0 0
0.3000000000000001 0 0
0.4000000000000004 0 0
0.5000000000000003 0 0
0.5999999999999999 0 0
0.6999999999999995 0 0
0.7999999999999992 0 0
0.899999999999999 0 0
1 2 0 9
17
18
19
20
21
22
23
24
25
0 0.9 0
0 0.8 0
0 0.7 0
0 0.5999999999999996 0
0 0.4999999999999997 0
0 0.4000000000000001 0
0 0.3000000000000005 0
0 0.2000000000000008 0
0 0.100000000000001 0
1 3 0 9
26
27
28
29
30
31
32
33
34
1 0.09999999999999996 0
1 0.1999999999999999 0
1 0.3000000000000001 0
1 0.4000000000000004 0
1 0.5000000000000003 0
1 0.5999999999999999 0
1 0.6999999999999995 0
1 0.7999999999999992 0
1 0.899999999999999 0
1 4 0 9
35
36
37
38
39
40
41
42
43
0.9 1 0
0.8 1 0
0.7 1 0
0.5999999999999996 1 0
0.4999999999999997 1 0
0.4000000000000001 1 0
0.3000000000000005 1 0
0.2000000000000008 1 0
0.100000000000001 1 0
1 5 0 5
44
45
46
47
48
0.4869763980077873 0.6713562916048529 0
0.5088405035143388 0.6256969885994882 0
0.5307046090208902 0.5800376855941236 0
0.5525687145274417 0.5343783825887589 0
0.5744328200339933 0.4887190795833942 0
1 6 0 5
49
50
51
52
53
0.624906989109006 0.4848242988804087 0
0.6535170526774672 0.5265888211827878 0
0.6821271162459284 0.5683533434851671 0
0.7107371798143896 0.6101178657875462 0
0.7393472433828507 0.6518823880899255 0
1 7 0 5
54
55
56
57
58
0.7174831378762992 0.6975416910952901 0
0.6670089688012866 0.7014364717982756 0
0.616534799726274 0.7053312525012611 0
0.5660606306512612 0.7092260332042465 0
0.5155864615762484 0.713120813907232 0
2 2 0 10
59
60
61
62
63
64
65
66
67
68
0.5593146725893515 0.6218022078965028 0
0.6383989052328254 0.6596719494958965 0
0.6316529471709157 0.5722481241881526 0
0.6888730743078381 0.655777168792911 0
0.5374505670828 0.6674615109018674 0
0.6030428836024545 0.5304836018857735 0
0.6602630107393769 0.6140126464905318 0
0.6097888416643642 0.6179074271935173 0
0.5879247361578127 0.6635667301988819 0
0.5811787780959029 0.5761429048911382 0
2 3 0 162
69
70
71
72
73
74
75
76
77
78
79
80
81
82
83
84
85
86
87
88
89
90
91
92
93
94
95
96
97
98
99
100
101
102
103
104
105
106
107
108
109
110
111
112
113
114
115
116
117
118
119
120
121
122
123
124
125
126
127
128
129
130
131
132
133
134
135
136
137
138
139
140
141
142
143
144
145
146
147
148
149
150
151
152
153
154
155
156
157
158
159
160
161
162
163
164
165
166
167
168
169
170
171
172
173
174
175
176
177
178
179
180
181
182
183
184
185
186
187
188
189
190
191
192
193
194
195
196
197
198
199
200
201
202
203
204
205
206
207
208
209
210
211
212
213
214
215
216
217
218
219
220
221
222
223
224
225
226
227
228
229
230
0.5435742378963171 0.4484962432026789 0
0.4837863183758052 0.5781669246848876 0
0.08587416704688777 0.3428079331618465 0
0.5675295609108179 0.3973463143082485 0
0.5097888289418547 0.4042015774359811 0
0.618248453752728 0.3964000782878563 0
0.07524221429587813 0.656822930399006 0
0.5367082219825359 0.3476047340475452 0
0.4746802529011673 0.353340386678572 0
0.7051917098809848 0.5202427978257768 0
0.4365022289327747 0.6752510723078383 0
0.4104911767133026 0.7245339658895127 0
0.3782972494348166 0.6745432522342001 0
0.3506559304113947 0.7321154431679352 0
0.4474954344381701 0.4131453017448145 0
0.4079567347019613 0.358942938934666 0
0.3783883666163518 0.4246821576113847 0
0.7676991843309013 0.6051529778008372 0
0.7524124575692682 0.0791348455233436 0
0.7448355459992857 0.7422118822776937 0
0.6454924381930054 0.7419110945962042 0
0.54414980159761 0.7542798252974593 0
0.4437341064883962 0.7681136938131344 0
0.5031372674355414 0.2943732101298446 0
0.5698894786590198 0.2893908703455501 0
0.9175124799978178 0.3375760052108357 0
0.2444698701402674 0.08030321664721768 0
0.3382739123028973 0.3656507872401051 0
0.3054735363453156 0.4305885094242701 0
0.3149643417273585 0.6789089262038138 0
0.2845171674128626 0.7397261028039295 0
0.3673868003949647 0.2982491745312932 0
0.8010898339969638 0.7386456002030385 0
0.2916158972183607 0.3038645521062875 0
0.5337116884697654 0.2296798156418201 0
0.3448345699025558 0.619306872032729 0
0.2765107580803176 0.6230221575696941 0
0.775976125393703 0.7910395549191966 0
0.8235264021204884 0.6861512936463648 0
0.3257941117727424 0.7969791210288613 0
0.2528036534056665 0.8067344253342745 0
0.6069721826224564 0.2275061476186517 0
0.6498071922840866 0.9217401666472683 0
0.9173048447299685 0.5556212962357492 0
0.8543016324720437 0.7851147365887208 0
0.4234350971254178 0.4747421765312154 0
0.4364852597534419 0.09109757821291131 0
0.08660254037844384 0.8500000000000001 0
0.6436593856160119 0.2897607088257129 0
0.6828138291441175 0.2263994534086204 0
0.7216361355737577 0.2928384769034959 0
0.761599610651285 0.2206205327929193 0
0.5668998578007693 0.1618454719922263 0
0.9039819320170075 0.1514328463311721 0
0.3234633407238515 0.2319725060623598 0
0.240639788586176 0.238800149141887 0
0.2219384480421371 0.7486380719278147 0
0.08882829213949334 0.1548916694532471 0
0.4502371716600804 0.9133403006830179 0
0.3087276932711213 0.5612771796705782 0
0.2357670411450491 0.5626222276401414 0
0.8114450045581681 0.8506475973589948 0
0.4015194291082793 0.228426992417547 0
0.7206456967417547 0.7974748293337749 0
0.3759290813023595 0.5653175873403596 0
0.3585741623064695 0.1572369982421555 0
0.300231028931385 0.8678664979236138 0
0.2028139183674445 0.6298151007884598 0
0.1612234332823922 0.5629564910457439 0
0.1948469048437591 0.4940377001046344 0
0.2234525304533499 0.3228026572979867 0
0.22961463959616 0.8704473098539822 0
0.9260283260069095 0.6456981410764933 0
0.7991435044107692 0.2911162341051528 0
0.7591245986865315 0.3644129269768286 0
0.8757889517910029 0.8532419603199708 0
0.150070882178824 0.2612429414426115 0
0.8412487334732055 0.6124968093881809 0
0.841391950545197 0.520486046867314 0
0.9117411546389147 0.4705047175900147 0
0.836132950760982 0.4472467185741315 0
0.5530699514601993 0.9197758405465106 0
0.6078098164053884 0.8578775057631219 0
0.518583420579752 0.8471058919901291 0
0.1121014701454185 0.4965337199283108 0
0.9211363955582359 0.7351567052303369 0
0.771391970794034 0.5029409074140707 0
0.7525798682705789 0.9133218139209254 0
0.08082358864593359 0.7533226666422899 0
0.9205973023786441 0.250076301110816 0
0.6715989426492042 0.364515288790133 0
0.7081420979793072 0.4267153833658874 0
0.6531699909461897 0.08477234525233218 0
0.376699697701851 0.8560050757707017 0
0.1415417571944066 0.4230005091147809 0
0.4054797394806178 0.6208199313843404 0
0.1917744659269542 0.1634062853694896 0
0.3546541945617179 0.4972468304415141 0
0.4859919553715236 0.4594361853453273 0
0.4679739785563869 0.5199982834099098 0
0.8464022526789247 0.07509839053130646 0
0.4921498169197155 0.1623091278054702 0
0.8443636402625958 0.921141688907644 0
0.4585630549944333 0.6252407438661023 0
0.2714719629224178 0.4975288598198436 0
0.6759784539763694 0.4803552020353193 0
0.1501762352904996 0.08019735718314536 0
0.6491953105011932 0.4326450046562724 0
0.6956190323697478 0.7432009941006547 0
0.5983241327265998 0.7522489515137003 0
0.493722356069697 0.7587801169125967 0
0.53736166567971 0.07930579465651577 0
0.2228900112008734 0.4129715945356974 0
0.7879557740517515 0.6498660758635226 0
0.7375993777293066 0.5606150912977657 0
0.8355230167881071 0.3656242615314863 0
0.8427336818589209 0.2199827598437963 0
0.6485868198259821 0.7923672512673556 0
0.6919478678318067 0.8549934539043886 0
0.2764617272264648 0.1650023783488291 0
0.2492746421908772 0.6836167620461362 0
0.1668485531027201 0.8084052399053211 0
0.3500524913711585 0.9323926231580866 0
0.7918662433745289 0.5603383665536337 0
0.5220785835274631 0.4986825942516342 0
0.4375769993618655 0.2980756445377948 0
0.6461680436612917 0.1719942503111955 0
0.7209843577929255 0.1594478332841469 0
0.08183245866087729 0.5735686812971692 0
0.3428563792029461 0.0767039560140183 0
0.1605648549169664 0.9126864215293565 0
0.594614499761411 0.3438885255378561 0
0.06495466827304108 0.2517885088115412 0
0.1627669998409379 0.7008171025884262 0
0.4465528941760573 0.8394332178478968 0
0.432774048515251 0.5709870119477375 0
0.3853417808669912 0.7805591031854653 0
0.0679034788773426 0.4324684324409876 0
0.5114224408015975 0.5422527741058628 0
0.4660621837289003 0.2323505048240235 0
0.795224207244162 0.1468175705764355 0
0.2763411775041593 0.3671756201208694 0
0.8556646024998504 0.7276142791834839 0
0.5732443292406844 0.800045233876669 0
0.9256650994684291 0.9123546278707442 0
0.0715664674475468 0.9284301436081008 0
0.2680987400931665 0.9338772692060793 0
0.7257532727340399 0.474301304569712 0
0.9267949192431122 0.07320508075688753 0
0.07280814076296221 0.07280814076296249 0
0.7726779846238336 0.4302069170720194 0
0.4109532800122266 0.5256583779341473 0
0.9001819204371644 0.4041903405812937 0
0.4285535076038005 0.1715087780529794 0
0.7505189125592022 0.8414954498874561 0
0.1586994369399269 0.3531117301091035 0
0.8779756579922224 0.6828482632846622 0
0.864882679661088 0.2951293131579394 0
0.5213695296372318 0.7935218600980387 0
0.9307265822269588 0.8220540372859777 0
0.4791170697062412 0.8015606793780802 0
0.1395440478374578 0.624944413151693 0
$EndNodes
$Elements
6 458 1 458
1 1 1 10
1 1 8 
2 8 9 
3 9 10 
4 10 11 
5 11 12 
6 12 13 
7 13 14 
8 14 15 
9 15 16 
10 16 2 
1 2 1 10
11 3 17 
12 17 18 
13 18 19 
14 19 20 
15 20 21 
16 21 22 
17 22 23 
18 23 24 
19 24 25 
20 25 1 
1 3 1 10
21 2 26 
22 26 27 
23 27 28 
24 28 29 
25 29 30 
26 30 31 
27 31 32 
28 32 33 
29 33 34 
30 34 4 
1 4 1 10
31 4 35 
32 35 36 
33 36 37 
34 37 38 
35 38 39 
36 39 40 
37 40 41 
38 41 42 
39 42 43 
40 43 3 
2 2 2 36
41 6 49 48 
42 54 53 7 
43 5 44 58 
44 59 67 63 
45 66 68 61 
46 59 68 66 
47 65 66 61 
48 61 68 64 
49 52 65 51 
50 62 65 52 
51 48 64 47 
52 51 61 50 
53 60 62 55 
54 59 63 45 
55 64 68 47 
56 56 60 55 
57 51 65 61 
58 66 67 59 
59 49 64 48 
60 53 62 52 
61 61 64 50 
62 45 63 44 
63 47 68 46 
64 57 67 56 
65 46 68 59 
66 44 63 58 
67 50 64 49 
68 60 65 62 
69 63 67 57 
70 55 62 54 
71 46 59 45 
72 58 63 57 
73 56 67 60 
74 60 66 65 
75 54 62 53 
76 60 67 66 
2 3 2 382
77 159 176 74 
78 186 187 151 
79 155 183 78 
80 160 176 159 
81 74 200 159 
82 121 180 161 
83 190 202 125 
84 157 202 190 
85 107 182 146 
86 190 199 116 
87 148 221 29 
88 159 200 117 
89 114 166 85 
90 186 212 178 
91 127 152 150 
92 89 186 178 
93 161 195 121 
94 157 190 116 
95 145 224 71 
96 155 192 183 
97 115 222 134 
98 146 182 86 
99 140 199 190 
100 146 225 107 
101 151 187 111 
102 71 201 145 
103 30 148 29 
104 189 202 136 
105 161 180 13 
106 134 198 115 
107 130 171 156 
108 188 198 134 
109 86 192 146 
110 181 224 139 
111 126 165 145 
112 185 209 122 
113 127 150 39 
114 114 220 166 
115 140 215 199 
116 213 228 34 
117 139 210 181 
118 150 151 111 
119 125 202 189 
120 95 198 188 
121 141 146 112 
122 156 171 36 
123 145 201 126 
124 177 186 89 
125 122 209 169 
126 29 221 94 
127 203 205 91 
128 85 166 97 
129 150 152 151 
130 144 228 213 
131 31 141 112 
132 199 215 42 
133 153 197 21 
134 34 228 33 
135 174 176 160 
136 35 213 4 
137 127 203 152 
138 38 150 111 
139 18 157 116 
140 127 191 162 
141 81 164 79 
142 78 216 155 
143 21 206 153 
144 69 167 73 
145 184 219 143 
146 27 158 122 
147 112 148 30 
148 32 154 141 
149 31 112 30 
150 38 111 37 
151 111 156 37 
152 132 186 177 
153 120 185 142 
154 185 226 142 
155 146 147 112 
156 163 224 181 
157 40 127 39 
158 166 220 133 
159 32 141 31 
160 33 154 32 
161 167 193 168 
162 170 180 121 
163 87 161 14 
164 143 160 159 
165 162 205 203 
166 75 157 19 
167 4 213 34 
168 87 196 161 
169 147 155 149 
170 94 158 28 
171 115 180 170 
172 20 75 19 
173 113 211 154 
174 173 181 97 
175 29 94 28 
176 143 159 119 
177 149 219 184 
178 15 87 14 
179 33 228 154 
180 104 164 81 
181 12 115 11 
182 39 150 38 
183 141 225 146 
184 40 191 127 
185 23 71 22 
186 151 212 186 
187 73 167 83 
188 133 164 104 
189 119 159 117 
190 142 143 119 
191 154 228 113 
192 172 204 70 
193 139 224 145 
194 18 116 17 
195 37 156 36 
196 167 168 114 
197 14 161 13 
198 27 122 26 
199 19 157 18 
200 83 114 85 
201 193 207 168 
202 83 167 114 
203 128 133 104 
204 28 158 27 
205 152 212 151 
206 146 192 147 
207 115 198 11 
208 15 169 87 
209 10 95 9 
210 158 185 122 
211 70 204 168 
212 147 149 148 
213 165 175 95 
214 25 126 24 
215 126 175 165 
216 161 196 195 
217 23 201 71 
218 16 169 15 
219 138 181 173 
220 21 197 20 
221 147 192 155 
222 164 172 79 
223 131 194 100 
224 166 173 97 
225 110 117 93 
226 13 180 12 
227 95 175 9 
228 36 171 35 
229 128 166 133 
230 111 187 156 
231 164 204 172 
232 10 198 95 
233 69 193 167 
234 156 223 130 
235 113 228 144 
236 123 131 100 
237 154 225 141 
238 118 119 117 
239 98 104 81 
240 153 163 138 
241 168 207 70 
242 48 69 6 
243 126 201 24 
244 102 139 124 
245 12 180 115 
246 117 200 93 
247 147 148 112 
248 108 162 135 
249 110 118 117 
250 45 70 46 
251 22 206 21 
252 44 172 45 
253 137 138 129 
254 5 79 44 
255 158 226 185 
256 120 142 119 
257 83 85 84 
258 139 145 124 
259 9 175 8 
260 85 97 96 
261 105 128 104 
262 162 203 127 
263 145 165 124 
264 3 214 43 
265 73 83 77 
266 163 181 138 
267 96 100 84 
268 160 216 174 
269 128 173 166 
270 123 134 131 
271 103 170 121 
272 50 78 51 
273 17 214 3 
274 2 217 16 
275 26 217 2 
276 92 93 76 
277 85 96 84 
278 103 110 93 
279 47 193 48 
280 118 120 119 
281 49 174 50 
282 102 123 100 
283 142 184 143 
284 105 136 129 
285 137 153 138 
286 109 125 99 
287 108 205 162 
288 7 88 54 
289 51 183 52 
290 138 173 129 
291 54 177 55 
292 55 89 56 
293 96 102 100 
294 75 202 157 
295 56 178 57 
296 57 90 58 
297 1 218 25 
298 8 218 1 
299 102 124 123 
300 82 98 81 
301 83 84 77 
302 105 129 128 
303 98 105 104 
304 69 72 6 
305 52 86 53 
306 136 137 129 
307 20 197 75 
308 82 108 99 
309 95 188 165 
310 106 132 88 
311 103 121 110 
312 6 176 49 
313 45 172 70 
314 76 200 72 
315 135 140 109 
316 48 193 69 
317 91 229 203 
318 79 172 44 
319 102 210 139 
320 92 103 93 
321 129 173 128 
322 82 99 98 
323 162 191 135 
324 108 135 109 
325 108 109 99 
326 110 195 118 
327 73 77 76 
328 72 200 74 
329 77 92 76 
330 53 182 7 
331 73 76 72 
332 72 74 6 
333 69 73 72 
334 199 214 116 
335 144 171 130 
336 163 206 71 
337 208 222 170 
338 165 188 124 
339 11 198 10 
340 80 82 81 
341 80 81 79 
342 58 179 5 
343 42 215 41 
344 100 194 84 
345 43 199 42 
346 121 195 110 
347 123 188 134 
348 131 208 194 
349 7 107 101 
350 124 188 123 
351 120 209 185 
352 103 208 170 
353 109 190 125 
354 125 189 99 
355 202 230 136 
356 5 80 79 
357 171 213 35 
358 140 190 109 
359 143 219 160 
360 71 206 22 
361 105 189 136 
362 50 174 78 
363 118 196 120 
364 80 205 82 
365 41 191 40 
366 24 201 23 
367 70 207 46 
368 131 222 208 
369 78 183 51 
370 94 226 158 
371 113 144 130 
372 71 224 163 
373 84 194 77 
374 98 189 105 
375 169 209 87 
376 181 210 97 
377 99 189 98 
378 7 101 88 
379 97 210 96 
380 132 177 88 
381 133 204 164 
382 132 187 186 
383 88 177 54 
384 47 207 193 
385 195 196 118 
386 55 177 89 
387 5 91 80 
388 93 200 76 
389 89 178 56 
390 137 197 153 
391 77 194 92 
392 49 176 174 
393 57 178 90 
394 52 183 86 
395 46 207 47 
396 170 222 115 
397 113 130 106 
398 74 176 6 
399 91 205 80 
400 101 106 88 
401 16 217 169 
402 152 227 212 
403 116 214 17 
404 196 209 120 
405 7 182 107 
406 101 113 106 
407 122 217 26 
408 183 192 86 
409 153 206 163 
410 169 217 122 
411 86 182 53 
412 90 179 58 
413 82 205 108 
414 155 219 149 
415 194 208 92 
416 25 218 126 
417 96 210 102 
418 92 208 103 
419 5 179 91 
420 191 215 135 
421 160 219 216 
422 137 230 197 
423 106 223 132 
424 168 220 114 
425 216 219 155 
426 187 223 156 
427 204 220 168 
428 197 230 75 
429 149 221 148 
430 135 215 140 
431 132 223 187 
432 126 218 175 
433 144 213 171 
434 175 218 8 
435 87 209 196 
436 134 222 131 
437 178 212 90 
438 107 211 101 
439 41 215 191 
440 203 229 152 
441 101 211 113 
442 184 221 149 
443 43 214 199 
444 174 216 78 
445 130 223 106 
446 142 226 184 
447 136 230 137 
448 184 226 94 
449 75 230 202 
450 133 220 204 
451 94 221 184 
452 212 227 90 
453 90 227 179 
454 107 225 211 
455 211 225 154 
456 152 229 227 
457 179 229 91 
458 227 229 179 
$EndElements
