$MeshFormat
4.1 0 8
$EndMeshFormat
$PhysicalNames
3
1 101 "outer_boundary"
2 1 "material_1"
2 2 "material_2"
$EndPhysicalNames
$Entities
5 5 2 0
1 0 0 0 0 
2 1 0 0 0 
3 0 1 0 0 
4 1 1 0 0 
5 0.5553011809402287 0.4449825281444171 0 0 
1 -9.999999994736442e-08 -1e-07 -1e-07 1.0000001 1e-07 1e-07 1 101 2 1 -2 
2 -1e-07 -9.999999994736442e-08 -1e-07 1e-07 1.0000001 1e-07 1 101 2 3 -1 
3 0.9999999000000001 -9.999999994736442e-08 -1e-07 1.0000001 1.0000001 1e-07 1 101 2 2 -4 
4 -9.999999994736442e-08 0.9999999000000001 -1e-07 1.0000001 1.0000001 1e-07 1 101 2 4 -3 
5 0.1916497877820022 0.2631567815653038 -1e-07 0.5553012809402287 0.6268082747235303 1e-07 0 2 5 -5 
2 0.1916497877820022 0.2631567815653038 -1e-07 0.5553012809402287 0.6268082747235303 1e-07 1 2 1 5 
3 -9.999999994736442e-08 -9.999999994736442e-08 -1e-07 1.0000001 1.0000001 1e-07 1 1 5 1 3 4 2 -5 
$EndEntities
$Nodes
12 245 1 245
0 1 0 1
1
0 0 0
0 2 0 1
2
1 0 0
0 3 0 1
3
0 1 0
0 4 0 1
4
1 1 0
0 5 0 1
5
0.5553011809402287 0.4449825281444171 0
1 1 0 9
6
7
8
9
10
11
12
13
14
0.09999999999999996 0 0
0.1999999999999999 0 0
0.3000000000000001 0 0
0.4000000000000004 0 0
0.5000000000000003 0 0
0.5999999999999999 0 0
0.6999999999999995 0 0
0.7999999999999992 0 0
0.899999999999999 0 0
1 2 0 9
15
16
17
18
19
20
21
22
23
0 0.9 0
0 0.8 0
0 0.7 0
0 0.5999999999999996 0
0 0.4999999999999997 0
0 0.4000000000000001 0
0 0.3000000000000005 0
0 0.2000000000000008 0
0 0.100000000000001 0
1 3 0 9
24
25
26
27
28
29
30
31
32
1 0.09999999999999996 0
1 0.1999999999999999 0
1 0.3000000000000001 0
1 0.4000000000000004 0
1 0.5000000000000003 0
1 0.5999999999999999 0
1 0.6999999999999995 0
1 0.7999999999999992 0
1 0.899999999999999 0
1 4 0 9
33
34
35
36
37
38
39
40
41
0.9 1 0
0.8 1 0
0.7 1 0
0.5999999999999996 1 0
0.4999999999999997 1 0
0.4000000000000001 1 0
0.3000000000000005 1 0
0.2000000000000008 1 0
0.100000000000001 1 0
1 5 0 20
42
43
44
45
46
47
48
49
50
51
52
53
54
55
56
57
58
59
60
61
0.547223177626598 0.498576578314219 0
0.5237069337298553 0.5474085619328187 0
0.486841970719563 0.5871395429600732 0
0.4399039023384109 0.6142392493751725 0
0.3870633819463848 0.6262997533380321 0
0.3330155216671205 0.6222494261449022 0
0.2825627110715588 0.6024481571414603 0
0.240187903789628 0.5686553759751002 0
0.2096562874071064 0.5238737195496304 0
0.1936807300253727 0.4720822345595163 0
0.1936807300253726 0.4178828217293179 0
0.2096562874071063 0.3660913367392039 0
0.240187903789628 0.321309680313734 0
0.2825627110715587 0.2875168991473739 0
0.3330155216671204 0.267715630143932 0
0.3870633819463847 0.263665302950802 0
0.4399039023384108 0.2757258069136616 0
0.4868419707195629 0.3028255133287608 0
0.5237069337298553 0.3425564943560154 0
0.547223177626598 0.3913884779746152 0
2 2 0 38
62
63
64
65
66
67
68
69
70
71
72
73
74
75
76
77
78
79
80
81
82
83
84
85
86
87
88
89
90
91
92
93
94
95
96
97
98
99
0.2441181619929809 0.4849944938584482 0
0.5048483703446672 0.4251812591409753 0
0.363547138049642 0.3124972865694018 0
0.4030389393281185 0.574508268347918 0
0.2619678079319758 0.367412536240775 0
0.4683327379819094 0.5298009892097811 0
0.4708664133378291 0.354616998318875 0
0.2917039105894321 0.5477424062377076 0
0.5176597726595951 0.4667148053479175 0
0.4702312174116858 0.4684205915207011 0
0.456636783006074 0.4034194167437233 0
0.415697735876436 0.4450312241604479 0
0.4002126419930275 0.3934573126186894 0
0.3626049280059637 0.4288860032176575 0
0.3744600228779413 0.4807004808154522 0
0.3237229615539647 0.4652194125530141 0
0.3485396943783673 0.3722923113163757 0
0.4271014560607021 0.4970525735340409 0
0.3147384463707137 0.4161988061131336 0
0.3352844736080252 0.5174835858973353 0
0.3829765029698045 0.5297038253548558 0
0.3473009528375693 0.5707995028069904 0
0.2798371914548672 0.452797871806892 0
0.2879443342173044 0.4992266000202591 0
0.2354183818065451 0.4397122162798004 0
0.3900585532257144 0.3492853913542243 0
0.3068849807743127 0.3306275203022236 0
0.4097520125598708 0.3131474210173465 0
0.5052643685855682 0.5039168899193082 0
0.2534477685927728 0.5265430837665104 0
0.4448469448015966 0.5694175473903381 0
0.501854059819194 0.3829422937145932 0
0.4285702922272501 0.3580845190875337 0
0.2345586759089607 0.4000834108323371 0
0.4488008438756445 0.3199526021170382 0
0.4236229929428686 0.5383345653272946 0
0.3032610921476764 0.3735999494833753 0
0.2720701723738034 0.4093181431725884 0
2 3 0 146
100
101
102
103
104
105
106
107
108
109
110
111
112
113
114
115
116
117
118
119
120
121
122
123
124
125
126
127
128
129
130
131
132
133
134
135
136
137
138
139
140
141
142
143
144
145
146
147
148
149
150
151
152
153
154
155
156
157
158
159
160
161
162
163
164
165
166
167
168
169
170
171
172
173
174
175
176
177
178
179
180
181
182
183
184
185
186
187
188
189
190
191
192
193
194
195
196
197
198
199
200
201
202
203
204
205
206
207
208
209
210
211
212
213
214
215
216
217
218
219
220
221
222
223
224
225
226
227
228
229
230
231
232
233
234
235
236
237
238
239
240
241
242
243
244
245
0.5321457138837071 0.6030075852702382 0
0.5758785232679049 0.3415825967818837 0
0.5979054597225724 0.4801554072728786 0
0.2953409257693582 0.658466306110419 0
0.4183228798914306 0.6652860026246957 0
0.8979351596573544 0.6452089485119478 0
0.906964437702076 0.2516707754886651 0
0.6471803331626658 0.9092925952573506 0
0.9166954567472085 0.4429501750356148 0
0.2323641274317086 0.2669185808431793 0
0.4861066267452443 0.2498766741386991 0
0.3570561646042339 0.9105014990674003 0
0.6509438127947862 0.08101657805132007 0
0.3566348656034989 0.2202566114712158 0
0.07973739498494276 0.7546562794532878 0
0.1878227487639301 0.5794282594370957 0
0.1441009376140664 0.08012602284128223 0
0.924788368803408 0.8486014333042355 0
0.1538152963714695 0.377852901271655 0
0.4319062282262194 0.07159919981543317 0
0.1506508989987323 0.9122384504022738 0
0.8499999999999992 0.08660254037844362 0
0.07906750289846332 0.255140302955903 0
0.5899173432367379 0.5331614369941415 0
0.6453905343355133 0.5133107652800037 0
0.6393828967751997 0.5737705144031887 0
0.6466087909109184 0.4495172790126606 0
0.6996871025324461 0.5515719537987152 0
0.6901560259144024 0.6204287359237824 0
0.75717000910579 0.5939929521913413 0
0.7468533197995234 0.6688842838152164 0
0.67509982654189 0.6950231783223231 0
0.7340077839381943 0.7489854544112486 0
0.7629619979798584 0.522667142337637 0
0.6572508528263323 0.7731613646132299 0
0.5920492181046829 0.714116284542065 0
0.5829495774523279 0.7927404393332292 0
0.5208413638718256 0.7501262612944518 0
0.5121474252093108 0.8366858079596604 0
0.4546514525111197 0.7734452967739848 0
0.5376681721453636 0.2918628283423842 0
0.5990658228145843 0.2863924871328319 0
0.6387267549630209 0.338293490556565 0
0.6678008478480149 0.2789013728942417 0
0.7103745628097596 0.3340773472187409 0
0.7395330243836081 0.2674081688635701 0
0.7840482731135767 0.3279092093674883 0
0.5535278300908616 0.2277480002603354 0
0.5094415925165506 0.6382432312290592 0
0.3566408324642684 0.6679139970120251 0
0.3150079139008314 0.7153138543601578 0
0.2537430621205261 0.7018037185153807 0
0.2711651431469111 0.7671547868741581 0
0.2911614455058014 0.2352319529794472 0
0.311946310447624 0.1753428571801152 0
0.2393764092468934 0.2007198448065053 0
0.4235687588905251 0.2254977533603544 0
0.3397866294862046 0.7772882935466127 0
0.1539467891220552 0.5243115688524437 0
0.1205037973202424 0.4660557803786046 0
0.1795407862734797 0.3110754722672399 0
0.7439279584727017 0.3908004526620731 0
0.6856212420855567 0.2173380320582533 0
0.1228675800649597 0.5833618327965899 0
0.1646091695560929 0.6380359359650648 0
0.7649389379146344 0.1999374189704545 0
0.8245350816721176 0.7223440354083832 0
0.2634211686845113 0.1308241375128675 0
0.8274841801180929 0.5648195110124471 0
0.7884861141487873 0.8226181101103517 0
0.2072689908520461 0.7494330996516473 0
0.4790031147336425 0.1808675475415452 0
0.5419266931173884 0.1543975966788516 0
0.393697819610856 0.1751701316071703 0
0.3539882986225497 0.1154691394909732 0
0.2210548039075191 0.832202222034757 0
0.4324759846838345 0.8464361713991991 0
0.1147308796340634 0.3298448103047747 0
0.6137682629478262 0.3916813613168943 0
0.3941378648987728 0.7207021677422942 0
0.6174613103603406 0.1840504718992716 0
0.8300214504072118 0.393914419568734 0
0.1816930078604365 0.2359000641171578 0
0.08176784607795834 0.6513852523359864 0
0.7508969857133827 0.08257628597470035 0
0.9178554938615193 0.3507300716576824 0
0.0836050892881921 0.1551917375815193 0
0.2540743038045155 0.9147782307308655 0
0.5613284458689646 0.6454055289138967 0
0.9150358804800129 0.7510848773983475 0
0.7492510289432217 0.9134775870334311 0
0.5508946899455586 0.9214029818237954 0
0.09160338647911626 0.4028496418247758 0
0.2323309385274929 0.6323855406938477 0
0.146118896618554 0.8112940867286216 0
0.9163642234039016 0.5415139379175068 0
0.9218003434532984 0.149822405777926 0
0.8507381573815267 0.9016580609302099 0
0.8348991981202456 0.4876707563361493 0
0.6243228343853857 0.6388964084816972 0
0.175340905695427 0.1623895247666076 0
0.08407040073145561 0.5163574700553661 0
0.7066399863257906 0.83496371270097 0
0.8163287470155125 0.2574774570727384 0
0.81642394418459 0.639800206031228 0
0.6760799345303683 0.3903277454538701 0
0.5681321851642072 0.07613391839289252 0
0.4617423924187117 0.7083753589857671 0
0.7027305042250124 0.4896415298777268 0
0.4676430410922358 0.9235836741454824 0
0.3013559930299314 0.8409948139177655 0
0.07580742324589834 0.8594844910349244 0
0.1459221774909454 0.7081725795627577 0
0.3651922806200939 0.8302103830873477 0
0.8451739327680723 0.1835426231676888 0
0.6368872620984638 0.8403965166303189 0
0.5186755737750919 0.6862894340316892 0
0.06554120538045172 0.06706355208456055 0
0.6950804052784074 0.1467034081892577 0
0.2962783396110921 0.07176003760331673 0
0.2239319371654939 0.07135911954866114 0
0.5830975156613247 0.5875121665473776 0
0.7558678800652003 0.460159352144956 0
0.8528248123222404 0.3159739974775024 0
0.926794919243112 0.07320508075688781 0
0.2013994461152666 0.6819963088375799 0
0.9267949192431122 0.926794919243112 0
0.6246954106398717 0.2388860728489868 0
0.05566700590958695 0.4571355100788371 0
0.3966882106846508 0.7856777982229946 0
0.04978639757261244 0.3510885672348423 0
0.7050430136408402 0.4360892718302573 0
0.1369167373814253 0.2736190423187733 0
0.05774116537487473 0.5702209110375883 0
0.7933122583626127 0.1356341135072416 0
0.06445627493902539 0.9352839055869504 0
0.4987632052170994 0.1029972964682903 0
0.1289111367941296 0.2074090991073699 0
0.6147088813430259 0.1284603946423187 0
0.8645113024472489 0.8024953968666655 0
0.1477716706086342 0.4235118697891387 0
0.4370337494237138 0.1350485956607357 0
0.5811723100941708 0.8593105710950721 0
0.5921613744296288 0.4315450107442931 0
0.4656996465105306 0.6495642210214212 0
0.3499438604702421 0.04688702433836356 0
$EndNodes
$Elements
6 488 1 488
1 1 1 10
1 1 6 
2 6 7 
3 7 8 
4 8 9 
5 9 10 
6 10 11 
7 11 12 
8 12 13 
9 13 14 
10 14 2 
1 2 1 10
11 3 15 
12 15 16 
13 16 17 
14 17 18 
15 18 19 
16 19 20 
17 20 21 
18 21 22 
19 22 23 
20 23 1 
1 3 1 10
21 2 24 
22 24 25 
23 25 26 
24 26 27 
25 27 28 
26 28 29 
27 29 30 
28 30 31 
29 31 32 
30 32 4 
1 4 1 10
31 4 33 
32 33 34 
33 34 35 
34 35 36 
35 36 37 
36 37 38 
37 38 39 
38 39 40 
39 40 41 
40 41 3 
2 2 2 95
41 67 79 71 
42 71 90 67 
43 69 83 48 
44 54 88 66 
45 55 88 54 
46 48 83 47 
47 56 88 55 
48 64 88 56 
49 46 83 65 
50 47 83 46 
51 78 88 64 
52 81 83 69 
53 64 87 78 
54 70 90 71 
55 73 79 76 
56 75 80 78 
57 51 62 50 
58 54 66 53 
59 44 67 43 
60 49 69 48 
61 60 68 59 
62 57 64 56 
63 46 65 45 
64 5 63 61 
65 77 80 75 
66 76 77 75 
67 75 78 74 
68 73 76 75 
69 73 75 74 
70 76 81 77 
71 71 79 73 
72 73 74 72 
73 71 73 72 
74 79 82 76 
75 71 72 63 
76 68 93 72 
77 65 83 82 
78 88 98 66 
79 72 94 68 
80 72 93 63 
81 82 83 81 
82 74 94 72 
83 76 82 81 
84 67 97 79 
85 57 89 64 
86 58 89 57 
87 51 86 62 
88 52 86 51 
89 77 84 80 
90 69 85 81 
91 84 85 62 
92 77 85 84 
93 81 85 77 
94 70 71 63 
95 78 98 88 
96 78 87 74 
97 80 98 78 
98 43 90 42 
99 45 92 44 
100 60 93 68 
101 42 70 5 
102 50 91 49 
103 65 92 45 
104 49 91 69 
105 62 91 50 
106 61 93 60 
107 63 93 61 
108 5 70 63 
109 67 90 43 
110 44 92 67 
111 53 95 52 
112 59 96 58 
113 79 97 82 
114 66 95 53 
115 68 96 59 
116 89 94 87 
117 62 86 84 
118 89 96 94 
119 69 91 85 
120 85 91 62 
121 86 99 84 
122 64 89 87 
123 82 97 65 
124 92 97 67 
125 95 99 86 
126 58 96 89 
127 52 95 86 
128 42 90 70 
129 87 94 74 
130 84 99 80 
131 98 99 66 
132 80 99 98 
133 94 96 68 
134 65 97 92 
135 66 99 95 
2 3 2 353
136 105 189 166 
137 168 195 105 
138 169 197 190 
139 166 204 105 
140 105 204 168 
141 176 209 111 
142 49 193 115 
143 190 202 169 
144 175 187 120 
145 160 182 109 
146 177 230 122 
147 180 238 218 
148 111 209 38 
149 54 160 109 
150 174 241 173 
151 114 211 16 
152 169 239 197 
153 174 245 119 
154 180 218 162 
155 120 194 175 
156 191 209 138 
157 194 211 114 
158 168 198 195 
159 167 174 154 
160 119 241 174 
161 123 221 43 
162 181 185 108 
163 17 183 114 
164 115 193 164 
165 138 209 176 
166 150 179 157 
167 149 179 150 
168 111 213 176 
169 140 147 141 
170 194 212 170 
171 198 222 181 
172 178 205 126 
173 43 221 100 
174 181 222 161 
175 188 199 135 
176 147 227 141 
177 18 183 17 
178 105 195 29 
179 122 230 21 
180 110 171 147 
181 114 212 194 
182 200 220 167 
183 42 123 43 
184 195 198 108 
185 108 185 27 
186 12 184 112 
187 218 238 112 
188 187 210 111 
189 104 207 179 
190 135 199 131 
191 120 187 40 
192 188 221 199 
193 171 172 147 
194 36 191 107 
195 154 173 113 
196 153 155 154 
197 119 245 9 
198 160 232 182 
199 142 205 178 
200 156 173 171 
201 48 193 49 
202 107 202 190 
203 135 216 188 
204 100 221 188 
205 22 122 21 
206 155 167 154 
207 53 160 54 
208 179 207 139 
209 126 243 178 
210 10 119 9 
211 30 189 105 
212 50 158 51 
213 17 114 16 
214 167 219 174 
215 22 186 122 
216 7 116 6 
217 116 220 200 
218 12 112 11 
219 197 239 117 
220 61 243 5 
221 39 111 38 
222 44 244 45 
223 154 174 173 
224 116 200 186 
225 189 239 166 
226 108 198 181 
227 183 212 114 
228 137 216 135 
229 140 141 101 
230 36 107 35 
231 28 108 27 
232 47 149 103 
233 37 191 36 
234 134 135 131 
235 149 150 103 
236 60 140 101 
237 104 149 46 
238 136 137 135 
239 26 106 25 
240 26 185 106 
241 107 190 35 
242 121 184 13 
243 30 105 29 
244 39 187 111 
245 171 236 172 
246 171 241 236 
247 104 179 149 
248 133 198 168 
249 13 184 12 
250 117 189 31 
251 107 215 202 
252 41 120 40 
253 138 139 137 
254 31 189 30 
255 110 147 140 
256 27 185 26 
257 206 236 10 
258 175 210 187 
259 110 140 59 
260 23 186 22 
261 10 236 119 
262 28 195 108 
263 14 121 13 
264 35 190 34 
265 40 187 39 
266 218 234 165 
267 219 220 8 
268 216 244 148 
269 132 202 134 
270 106 196 25 
271 29 195 28 
272 32 117 31 
273 34 197 33 
274 142 178 101 
275 138 242 191 
276 158 159 51 
277 6 217 1 
278 134 136 135 
279 56 153 113 
280 178 243 61 
281 113 156 57 
282 58 156 110 
283 203 214 106 
284 190 197 34 
285 11 206 10 
286 148 244 44 
287 109 153 55 
288 109 155 153 
289 18 233 183 
290 25 196 24 
291 51 240 52 
292 113 173 156 
293 155 200 167 
294 169 202 132 
295 156 171 110 
296 207 244 216 
297 8 220 7 
298 153 154 113 
299 1 217 23 
300 146 161 144 
301 38 209 37 
302 180 227 147 
303 16 211 15 
304 106 223 203 
305 162 227 180 
306 173 241 171 
307 136 138 137 
308 172 180 147 
309 210 213 111 
310 161 205 144 
311 130 131 128 
312 132 134 131 
313 184 218 112 
314 191 242 107 
315 151 193 103 
316 139 207 137 
317 120 211 194 
318 138 176 139 
319 112 206 11 
320 5 102 42 
321 60 101 61 
322 43 100 44 
323 196 214 121 
324 141 142 101 
325 127 133 129 
326 131 199 128 
327 146 181 161 
328 47 103 48 
329 162 218 165 
330 45 104 46 
331 130 132 131 
332 150 151 103 
333 143 162 145 
334 46 149 47 
335 166 169 132 
336 2 224 14 
337 24 224 2 
338 133 222 198 
339 102 123 42 
340 4 226 32 
341 33 226 4 
342 130 166 132 
343 166 239 169 
344 185 223 106 
345 59 140 60 
346 145 146 144 
347 181 223 185 
348 37 209 191 
349 128 199 125 
350 101 178 61 
351 129 130 128 
352 56 113 57 
353 102 126 124 
354 58 110 59 
355 100 148 44 
356 184 234 218 
357 122 232 177 
358 176 229 139 
359 133 168 129 
360 162 165 145 
361 124 125 123 
362 54 109 55 
363 106 214 196 
364 143 145 144 
365 186 237 122 
366 150 157 152 
367 124 127 125 
368 127 128 125 
369 127 129 128 
370 199 221 125 
371 143 144 142 
372 55 153 56 
373 200 237 186 
374 57 156 58 
375 49 115 50 
376 109 182 155 
377 213 229 176 
378 127 208 133 
379 201 233 19 
380 164 212 183 
381 175 194 170 
382 116 217 6 
383 170 225 151 
384 102 124 123 
385 179 229 157 
386 144 205 142 
387 115 164 163 
388 100 188 148 
389 214 234 121 
390 19 233 18 
391 163 201 158 
392 141 143 142 
393 103 193 48 
394 52 118 53 
395 7 220 116 
396 152 175 170 
397 145 203 146 
398 159 240 51 
399 165 203 145 
400 130 204 166 
401 152 170 151 
402 202 215 134 
403 129 204 130 
404 150 152 151 
405 104 244 207 
406 182 200 155 
407 212 225 170 
408 159 228 192 
409 168 204 129 
410 186 217 116 
411 197 226 33 
412 164 183 163 
413 118 192 177 
414 41 235 120 
415 118 160 53 
416 23 217 186 
417 121 234 184 
418 115 158 50 
419 126 208 124 
420 124 208 127 
421 143 227 162 
422 139 229 179 
423 102 243 126 
424 157 210 152 
425 146 223 181 
426 192 228 20 
427 193 225 164 
428 152 210 175 
429 196 224 24 
430 20 228 19 
431 158 201 159 
432 21 230 20 
433 117 239 189 
434 115 163 158 
435 3 235 41 
436 15 235 3 
437 118 177 160 
438 9 245 8 
439 201 228 159 
440 183 233 163 
441 134 215 136 
442 14 224 121 
443 161 231 205 
444 107 242 215 
445 32 226 117 
446 117 226 197 
447 192 240 159 
448 136 242 138 
449 121 224 196 
450 151 225 193 
451 20 230 192 
452 165 214 203 
453 125 221 123 
454 232 237 182 
455 157 213 210 
456 120 235 211 
457 157 229 213 
458 172 236 206 
459 188 216 148 
460 206 238 172 
461 118 240 192 
462 164 225 212 
463 208 222 133 
464 177 232 160 
465 163 233 201 
466 203 223 146 
467 122 237 232 
468 207 216 137 
469 141 227 143 
470 19 228 201 
471 112 238 206 
472 205 231 126 
473 236 241 119 
474 5 243 102 
475 45 244 104 
476 172 238 180 
477 167 220 219 
478 182 237 200 
479 165 234 214 
480 192 230 177 
481 126 231 208 
482 211 235 15 
483 222 231 161 
484 52 240 118 
485 208 231 222 
486 215 242 136 
487 219 245 174 
488 8 245 219 
$EndElements
