$MeshFormat
4.1 0 8
$EndMeshFormat
$PhysicalNames
3
1 101 "outer_boundary"
2 1 "material_1"
2 2 "material_2"
$EndPhysicalNames
$Entities
5 5 2 0
1 0 0 0 0 
2 1 0 0 0 
3 0 1 0 0 
4 1 1 0 0 
5 0.5157802857755369 0.684632022111079 0 0 
1 -9.999999994736442e-08 -1e-07 -1e-07 1.0000001 1e-07 1e-07 1 101 2 1 -2 
2 -1e-07 -9.999999994736442e-08 -1e-07 1e-07 1.0000001 1e-07 1 101 2 3 -1 
3 0.9999999000000001 -9.999999994736442e-08 -1e-07 1.0000001 1.0000001 1e-07 1 101 2 2 -4 
4 -9.999999994736442e-08 0.9999999000000001 -1e-07 1.0000001 1.0000001 1e-07 1 101 2 4 -3 
5 0.2566728199340728 0.5550782391903469 -1e-07 0.5157803857755369 0.814185805031811 1e-07 0 2 5 -5 
2 0.2566728199340728 0.5550782391903469 -1e-07 0.5157803857755369 0.814185805031811 1e-07 1 2 1 5 
3 -9.999999994736442e-08 -9.999999994736442e-08 -1e-07 1.0000001 1.0000001 1e-07 1 1 5 1 3 4 2 -5 
$EndEntities
$Nodes
12 327 1 327
0 1 0 1
1
0 0 0
0 2 0 1
2
1 0 0
0 3 0 1
3
0 1 0
0 4 0 1
4
1 1 0
0 5 0 1
5
0.5157802857755369 0.684632022111079 0
1 1 0 11
6
7
8
9
10
11
12
13
14
15
16
0.08333333333333318 0 0
0.1666666666666664 0 0
0.2499999999999997 0 0
0.333333333333333 0 0
0.4166666666666664 0 0
0.4999999999999998 0 0
0.5833333333333331 0 0
0.6666666666666665 0 0
0.7499999999999999 0 0
0.8333333333333331 0 0
0.9166666666666666 0 0
1 2 0 11
17
18
19
20
21
22
23
24
25
26
27
0 0.9166666666666669 0
0 0.8333333333333337 0
0 0.7500000000000003 0
0 0.666666666666667 0
0 0.5833333333333337 0
0 0.5000000000000002 0
0 0.4166666666666669 0
0 0.3333333333333335 0
0 0.2500000000000001 0
0 0.1666666666666669 0
0 0.08333333333333337 0
1 3 0 11
28
29
30
31
32
33
34
35
36
37
38
1 0.08333333333333318 0
1 0.1666666666666664 0
1 0.2499999999999997 0
1 0.333333333333333 0
1 0.4166666666666664 0
1 0.4999999999999998 0
1 0.5833333333333331 0
1 0.6666666666666665 0
1 0.7499999999999999 0
1 0.8333333333333331 0
1 0.9166666666666666 0
1 4 0 11
39
40
41
42
43
44
45
46
47
48
49
0.9166666666666669 1 0
0.8333333333333337 1 0
0.7500000000000003 1 0
0.666666666666667 1 0
0.5833333333333337 1 0
0.5000000000000002 1 0
0.4166666666666669 1 0
0.3333333333333335 1 0
0.2500000000000001 1 0
0.1666666666666669 1 0
0.08333333333333337 1 0
1 5 0 18
50
51
52
53
54
55
56
57
58
59
60
61
62
63
64
65
66
67
0.5087607098870502 0.7266980341889525 0
0.4884626621890502 0.7642055411367589 0
0.4570857511062763 0.7930900225877685 0
0.4180301518174855 0.8102213967878563 0
0.3755281445156808 0.8137432135217836 0
0.3341854811786052 0.8032738292998123 0
0.2984822808763485 0.7799477643516268 0
0.2722875393538926 0.746292759755553 0
0.2584398633084886 0.705955857470777 0
0.2584398633084886 0.663308186751381 0
0.2722875393538925 0.622971284466605 0
0.2984822808763485 0.5893162798705311 0
0.3341854811786051 0.5659902149223458 0
0.3755281445156805 0.5555208307003744 0
0.418030151817485 0.5590426474343015 0
0.4570857511062756 0.5761740216343891 0
0.4884626621890498 0.6050585030853985 0
0.5087607098870501 0.642566010033205 0
2 2 0 31
68
69
70
71
72
73
74
75
76
77
78
79
80
81
82
83
84
85
86
87
88
89
90
91
92
93
94
95
96
97
98
0.36392356554535 0.5965593195213749 0
0.4214363956873879 0.7676913912642874 0
0.2963751179547444 0.7184718843649924 0
0.4758402627359519 0.6696781471153642 0
0.4423268846594252 0.6219184503503312 0
0.3131015756594343 0.627803580788997 0
0.3391664956771349 0.7616310409761531 0
0.4661292321886287 0.7278731627091594 0
0.3304955180471409 0.5993292465091931 0
0.3511934050237851 0.6297972774941982 0
0.3357659693835647 0.6630935314725209 0
0.3750769449953107 0.6632255381484333 0
0.3576837368406542 0.697411576880192 0
0.3982955092536425 0.6970917758623407 0
0.4161454846413832 0.6594463163398949 0
0.3790961116037809 0.7368410175405122 0
0.4446777995106042 0.6911000478303825 0
0.3935221383049132 0.6227168447743239 0
0.4235832596867934 0.7295674762549097 0
0.3843689300376621 0.7756195240905944 0
0.4175577265511531 0.5955339133528849 0
0.2980420137341755 0.6602758603114592 0
0.4524533183242314 0.7573748974126425 0
0.3078720376486231 0.7466461111275369 0
0.3342180796305856 0.7261341353092364 0
0.4742527346000437 0.6373039303537064 0
0.4835216217907786 0.7003982958147088 0
0.4499641718714532 0.655037224813506 0
0.3176045123641368 0.6923437309602701 0
0.2851408119931752 0.688243759243617 0
0.3911838575495449 0.5829022554451252 0
2 3 0 229
99
100
101
102
103
104
105
106
107
108
109
110
111
112
113
114
115
116
117
118
119
120
121
122
123
124
125
126
127
128
129
130
131
132
133
134
135
136
137
138
139
140
141
142
143
144
145
146
147
148
149
150
151
152
153
154
155
156
157
158
159
160
161
162
163
164
165
166
167
168
169
170
171
172
173
174
175
176
177
178
179
180
181
182
183
184
185
186
187
188
189
190
191
192
193
194
195
196
197
198
199
200
201
202
203
204
205
206
207
208
209
210
211
212
213
214
215
216
217
218
219
220
221
222
223
224
225
226
227
228
229
230
231
232
233
234
235
236
237
238
239
240
241
242
243
244
245
246
247
248
249
250
251
252
253
254
255
256
257
258
259
260
261
262
263
264
265
266
267
268
269
270
271
272
273
274
275
276
277
278
279
280
281
282
283
284
285
286
287
288
289
290
291
292
293
294
295
296
297
298
299
300
301
302
303
304
305
306
307
308
309
310
311
312
313
314
315
316
317
318
319
320
321
322
323
324
325
326
327
0.4977889013593773 0.563443060269926 0
0.3467945186884285 0.5245951781452119 0
0.5507339574741015 0.6589767945236144 0
0.6236372650742464 0.07021670055318191 0
0.9332414436274813 0.3875527720557653 0
0.2934564991291237 0.06624819088860123 0
0.9343874505261484 0.7205773310852872 0
0.5326023891796486 0.7598429407652667 0
0.06795483524132329 0.3768812231907563 0
0.2562695086919096 0.582550667283112 0
0.9326203626950594 0.5570467030721562 0
0.467739606441307 0.06856994125238647 0
0.2590643676757293 0.7913592029019252 0
0.709853573762893 0.9206898140769099 0
0.788664743476527 0.07144251950115399 0
0.2195213630062142 0.6920277304091789 0
0.06543872020239538 0.206163606475306 0
0.07422293952236458 0.53546981150866 0
0.4566038615491406 0.8347507929039613 0
0.07216878364870316 0.791666666666667 0
0.9323842597033398 0.2138138388795421 0
0.3494544043665503 0.8464028445732042 0
0.2139177534408053 0.9352540511077364 0
0.9278312163512967 0.8749999999999998 0
0.5456373967263504 0.9291911180635103 0
0.3874707451353278 0.5157796271894692 0
0.3565748955706414 0.4807875465994771 0
0.4093161760202384 0.4696948232511676 0
0.3695113157165285 0.4328646140774294 0
0.4180716437586691 0.4194481770621766 0
0.3812590437134198 0.3815897769409041 0
0.4337358996806016 0.367938738995541 0
0.4712366425802412 0.4059315817021444 0
0.4885516721516346 0.3549844153106586 0
0.5271942696594186 0.3973947403128694 0
0.5452402028659409 0.3412119486634501 0
0.5856762918342966 0.3859337407109099 0
0.6043768288612985 0.3262771204899969 0
0.3195001404460412 0.4474661573362599 0
0.3948580718133651 0.3268557777220077 0
0.6468252555671368 0.3720310610141989 0
0.6264107416649278 0.430066248325632 0
0.3388952082149158 0.3424944262610242 0
0.6663356566293401 0.3107120979369953 0
0.6887681298398727 0.4184869911112435 0
0.6684320239593516 0.4760392294343065 0
0.5610098624738449 0.2805894251630669 0
0.3528838737066222 0.2839625894214944 0
0.2928886171032494 0.301165600720223 0
0.7303464149597325 0.4658851424739353 0
0.7101603965950158 0.5246463181558104 0
0.6497582910320965 0.5377487949898718 0
0.6895979159931827 0.5844165411373323 0
0.7510146383196576 0.5721171348275069 0
0.7293934943030462 0.630608915053448 0
0.4130001176708822 0.2682266624554843 0
0.7522615581052586 0.4044336696732875 0
0.3687005676061742 0.2213111971563849 0
0.6689668848351481 0.6424836789701847 0
0.7083616664272887 0.6888217537856112 0
0.6489613034014907 0.6979317138609358 0
0.6879535609772049 0.7467153905767479 0
0.7506328935107474 0.7371737589803462 0
0.7926755355398154 0.6189338915191525 0
0.5018763126848861 0.456377572595587 0
0.7962687748772976 0.4527145942368903 0
0.4333263872954466 0.2056228914139969 0
0.2792127222340485 0.3611828244733716 0
0.2332414272234962 0.3195870105226907 0
0.2449067754983474 0.2559524906478294 0
0.216230393280618 0.3835298029240395 0
0.729405377205292 0.797823514929338 0
0.660699670543662 0.8088175559429531 0
0.8084522966110852 0.800089076789775 0
0.5345948368733979 0.5914620914092257 0
0.5397365539189998 0.5464279587815526 0
0.4571291935721545 0.5342275135216166 0
0.2744255409490723 0.5511357740383591 0
0.2361692193238227 0.5409841467159449 0
0.2095150635339676 0.5864702688220488 0
0.1842715935741294 0.5332312453209515 0
0.1254593448386315 0.08045908812321223 0
0.5029577851814211 0.8093150774825482 0
0.5480487486910752 0.7127174677097381 0
0.2316124081704864 0.7447814832418194 0
0.2001196579603639 0.7870845914614593 0
0.1816217091292779 0.7217611865241302 0
0.170856123971832 0.6702103827295327 0
0.5582031942331558 0.8015296511979688 0
0.5770832222804183 0.5785070687166882 0
0.4018003150481458 0.8555257436103665 0
0.4502107174092307 0.8861035013552891 0
0.2950259497984027 0.8331405698665797 0
0.3133371431778489 0.8872130434667452 0
0.1282135229224969 0.7045249114082737 0
0.126075453928452 0.6445232859367083 0
0.3839659628239334 0.1554894237632864 0
0.2267461735237267 0.4829550380016261 0
0.1630585252764771 0.4793432605836735 0
0.8141661930377858 0.5604116095107616 0
0.1794702472165313 0.2837393168873734 0
0.1939498163012883 0.2004775341652082 0
0.318959333002927 0.1781297235310333 0
0.8163821271173998 0.3884900989949451 0
0.7718143983463253 0.338314707204339 0
0.8410486722423984 0.3184841678012771 0
0.7907124546592497 0.2698063444860118 0
0.8168100919189868 0.7259034340814409 0
0.86096686807383 0.6030954700763898 0
0.4968024640156168 0.5153830669877608 0
0.8702195310689929 0.7698430522570968 0
0.7651203147002692 0.8633209461595784 0
0.8651103938979922 0.4322364939102513 0
0.39683275621836 0.9125349285525111 0
0.1415190385367127 0.578488756220324 0
0.473722684656265 0.2541155851760308 0
0.4959438467635337 0.1929915273642416 0
0.4587450424177352 0.4863267690897941 0
0.5455626476461474 0.4969281456961536 0
0.6111504199130817 0.6533507126018718 0
0.2438986128527583 0.8348595023093395 0
0.1907614635855149 0.8606374843843146 0
0.579297809831712 0.7518682046911807 0
0.5380519180238459 0.8656407813464462 0
0.6012955796011336 0.8402327135531193 0
0.621353589086026 0.9324260145775898 0
0.5865894271453315 0.5262161564805249 0
0.2126403878991209 0.6405420656328219 0
0.06388282662306682 0.4543721492857771 0
0.5652044877276623 0.44079444716449 0
0.1416390725683705 0.8125352522916592 0
0.1253090959743302 0.8702851761971773 0
0.62864229967097 0.5988604218368715 0
0.3787651160814206 0.07298418112619814 0
0.5456939651663777 0.06786112475109707 0
0.5866411976645084 0.1362366652778763 0
0.6612320957897556 0.1385579776612123 0
0.6333634608793279 0.2002893959716351 0
0.689766169726741 0.1945770379832747 0
0.7435939095781035 0.1498864466961667 0
0.07044960880667045 0.2946443648401619 0
0.9204793922046102 0.3036013020041209 0
0.209019463339327 0.06956291434686057 0
0.7960239523239266 0.9339392915126281 0
0.8428364921470637 0.8778355784585565 0
0.2633911045762339 0.4227910453867418 0
0.8744645533379796 0.07048523897780268 0
0.8318224388353087 0.134863874987326 0
0.252683462345287 0.137379677129137 0
0.7044061012339743 0.06990139513896826 0
0.143094085572166 0.412420350580226 0
0.1344655830379353 0.3407569896614736 0
0.9190871687930913 0.6430264343629065 0
0.8564409403530215 0.2489980315188994 0
0.313970316233529 0.4931346004426872 0
0.652216789986085 0.8757977093672968 0
0.06175693780095093 0.1277214643456268 0
0.9236847432205824 0.1309464709520888 0
0.7084003620329463 0.3593529789979211 0
0.4491435732380974 0.3146730903746268 0
0.7723949465484732 0.5126742481159624 0
0.3067838855319178 0.2394863712483752 0
0.1799502829250279 0.1313162142551174 0
0.5962422054397096 0.7025871616132019 0
0.06806456980207976 0.6861325731669776 0
0.4533042931365769 0.1404357338384132 0
0.3252949224835313 0.3980648074126218 0
0.9201606449986439 0.4775383802919305 0
0.1394815787992883 0.9340677814894145 0
0.274803455491449 0.9375671958627103 0
0.7719656290033127 0.6776504043097565 0
0.2719378097820095 0.5095133585196929 0
0.07674898397626595 0.9220003883345155 0
0.7259304117789934 0.2949000944747402 0
0.806020596726978 0.2049281343172162 0
0.9360590330171578 0.7971120332604114 0
0.6167428556383827 0.2618335154694227 0
0.6330580380582339 0.7507813207882303 0
0.06655082090047526 0.6134453524451626 0
0.6045066628762975 0.4780662353457881 0
0.1322405440584752 0.5237711716698301 0
0.4403247314069909 0.9448365764754505 0
0.1968399543184811 0.4364859545650667 0
0.8398193376112976 0.4973722824363448 0
0.575120651227311 0.6207529382173534 0
0.8753665034395888 0.9402365493720285 0
0.5077758301798467 0.2973535449079088 0
0.1735743948678946 0.6224018189952516 0
0.8388701168776076 0.6624357497029364 0
0.5160861286121969 0.1287905580549152 0
0.6063824579552528 0.7908197633807252 0
0.5626820482464417 0.2056111274372539 0
0.1279337065480568 0.2370686790544539 0
0.3395018773812133 0.9351486326312571 0
0.1359529137419025 0.7601695212718803 0
0.2631445093183056 0.2006027212497364 0
0.489119545011695 0.8614274673038459 0
0.2794568483114002 0.4689739037165979 0
0.4261382617925882 0.5130142760972698 0
0.2634634326336107 0.8879231486253012 0
0.3363555331294953 0.1191203510851229 0
0.07034081766095007 0.8527857394358545 0
0.4938907180963522 0.9145332407574236 0
0.8715261325365941 0.5461683957610515 0
0.3601852992384237 0.8873650385668168 0
0.4511805871717657 0.4458518668862371 0
0.6122089858929635 0.5597048084019481 0
0.9405477895529383 0.9404739419723611 0
0.7063005428187734 0.8531583483618671 0
0.9389957660359269 0.06100423396407306 0
0.06100423396407301 0.0610042339640729 0
0.08404418036565553 0.7399118158674264 0
0.6770335246425584 0.2530791096335491 0
0.5227297491009325 0.243964974223963 0
0.1204898085817348 0.1674435034118315 0
0.8758748718369653 0.7043572002979336 0
0.8790329385012305 0.8268166723627633 0
0.8752524058179764 0.3660729669532719 0
0.537917665990314 0.6255057102977442 0
0.8699517218310266 0.1903759336501724 0
0.3089952852303471 0.5387846480369063 0
0.7423941817832174 0.2326599423649294 0
0.1265888400848376 0.2901204156461888 0
0.2418304725574759 0.6191684945911937 0
0.5917110546846882 0.8886576673815925 0
0.1813003472661494 0.3480066941151606 0
0.3839004358771215 0.9589982108270125 0
0.1143252337440417 0.4809961572768238 0
0.04002057932739989 0.9596667637502956 0
$EndNodes
$Elements
6 652 1 652
1 1 1 12
1 1 6 
2 6 7 
3 7 8 
4 8 9 
5 9 10 
6 10 11 
7 11 12 
8 12 13 
9 13 14 
10 14 15 
11 15 16 
12 16 2 
1 2 1 12
13 3 17 
14 17 18 
15 18 19 
16 19 20 
17 20 21 
18 21 22 
19 22 23 
20 23 24 
21 24 25 
22 25 26 
23 26 27 
24 27 1 
1 3 1 12
25 2 28 
26 28 29 
27 29 30 
28 30 31 
29 31 32 
30 32 33 
31 33 34 
32 34 35 
33 35 36 
34 36 37 
35 37 38 
36 38 4 
1 4 1 12
37 4 39 
38 39 40 
39 40 41 
40 41 42 
41 42 43 
42 43 44 
43 44 45 
44 45 46 
45 46 47 
46 47 48 
47 48 49 
48 49 3 
2 2 2 79
49 74 87 55 
50 82 85 72 
51 55 87 54 
52 85 88 72 
53 83 86 69 
54 72 95 82 
55 83 87 74 
56 69 87 83 
57 74 92 83 
58 54 87 53 
59 53 87 69 
60 71 94 84 
61 5 71 67 
62 58 70 57 
63 66 72 65 
64 53 69 52 
65 63 68 62 
66 56 74 55 
67 51 75 50 
68 61 73 60 
69 81 83 80 
70 79 82 81 
71 79 81 80 
72 77 85 79 
73 79 80 78 
74 83 92 80 
75 72 88 65 
76 65 88 64 
77 82 84 81 
78 84 94 75 
79 75 90 86 
80 75 86 84 
81 79 85 82 
82 77 79 78 
83 73 89 60 
84 60 89 59 
85 81 86 83 
86 96 97 89 
87 84 95 71 
88 68 85 77 
89 86 90 69 
90 78 96 89 
91 82 95 84 
92 68 98 85 
93 84 86 81 
94 77 78 73 
95 85 98 88 
96 78 89 73 
97 67 93 66 
98 5 94 71 
99 57 91 56 
100 56 91 74 
101 61 76 73 
102 71 93 67 
103 51 90 75 
104 66 93 72 
105 69 90 52 
106 70 91 57 
107 62 76 61 
108 68 76 62 
109 50 94 5 
110 75 94 50 
111 52 90 51 
112 64 98 63 
113 59 97 58 
114 58 97 70 
115 63 98 68 
116 80 96 78 
117 70 97 96 
118 88 98 64 
119 89 97 59 
120 76 77 73 
121 68 77 76 
122 70 92 91 
123 91 92 74 
124 93 95 72 
125 70 96 92 
126 71 95 93 
127 92 96 80 
2 3 2 525
128 58 183 114 
129 184 293 185 
130 220 267 230 
131 266 302 282 
132 249 324 169 
133 194 277 213 
134 121 267 220 
135 251 287 207 
136 251 314 287 
137 52 181 117 
138 169 281 249 
139 213 277 116 
140 56 191 111 
141 172 315 243 
142 232 264 195 
143 145 290 275 
144 218 262 101 
145 54 189 120 
146 101 262 182 
147 244 296 196 
148 207 302 109 
149 172 243 210 
150 109 302 266 
151 225 278 150 
152 209 315 172 
153 109 251 207 
154 208 216 163 
155 110 264 232 
156 150 278 144 
157 219 298 220 
158 250 324 249 
159 183 185 114 
160 266 282 211 
161 220 298 121 
162 275 290 236 
163 196 281 244 
164 163 217 208 
165 103 266 211 
166 210 242 112 
167 112 307 210 
168 244 265 137 
169 113 246 238 
170 181 295 117 
171 191 219 111 
172 116 279 213 
173 166 265 244 
174 230 300 229 
175 240 316 204 
176 229 300 118 
177 205 273 252 
178 263 310 19 
179 42 224 112 
180 171 254 223 
181 213 286 194 
182 145 312 290 
183 22 227 116 
184 151 231 150 
185 105 274 209 
186 32 266 103 
187 63 124 64 
188 124 297 64 
189 273 318 252 
190 229 293 184 
191 101 283 218 
192 189 303 120 
193 140 228 135 
194 34 251 109 
195 105 314 251 
196 123 301 222 
197 246 273 238 
198 175 208 99 
199 247 299 201 
200 245 256 246 
201 223 289 171 
202 57 183 58 
203 118 293 229 
204 44 301 123 
205 103 316 240 
206 65 175 99 
207 222 301 295 
208 209 314 105 
209 254 323 223 
210 238 248 113 
211 224 254 112 
212 216 304 163 
213 51 181 52 
214 159 218 157 
215 135 228 133 
216 19 310 118 
217 18 300 17 
218 55 191 56 
219 200 261 247 
220 123 224 43 
221 66 317 67 
222 204 252 240 
223 104 299 247 
224 61 319 62 
225 270 319 176 
226 17 300 271 
227 44 123 43 
228 211 316 103 
229 53 189 54 
230 178 322 226 
231 256 318 246 
232 101 182 5 
233 9 232 104 
234 157 231 151 
235 11 233 110 
236 238 320 237 
237 291 321 239 
238 48 121 47 
239 107 227 23 
240 239 250 107 
241 253 319 270 
242 59 322 60 
243 49 271 267 
244 115 291 239 
245 22 116 21 
246 280 301 44 
247 231 283 188 
248 283 317 173 
249 99 208 174 
250 19 118 18 
251 126 304 216 
252 218 231 157 
253 115 239 25 
254 102 234 233 
255 261 313 180 
256 20 277 263 
257 216 297 126 
258 42 112 41 
259 273 320 238 
260 208 217 174 
261 149 150 144 
262 222 323 123 
263 227 326 116 
264 50 182 106 
265 24 107 23 
266 133 228 163 
267 113 248 14 
268 20 263 19 
269 217 278 225 
270 173 317 66 
271 24 239 107 
272 228 278 217 
273 231 305 150 
274 110 232 10 
275 235 236 234 
276 163 228 217 
277 43 224 42 
278 102 233 12 
279 23 227 22 
280 196 296 270 
281 30 240 119 
282 218 283 231 
283 36 105 35 
284 180 313 255 
285 64 297 175 
286 34 109 33 
287 188 283 173 
288 32 103 31 
289 7 241 180 
290 9 104 8 
291 182 221 106 
292 133 163 131 
293 11 110 10 
294 149 151 150 
295 13 102 12 
296 176 319 61 
297 103 240 31 
298 102 248 235 
299 158 159 157 
300 102 235 234 
301 104 241 8 
302 150 305 225 
303 153 157 151 
304 224 323 254 
305 107 249 227 
306 112 242 41 
307 242 284 40 
308 186 226 114 
309 263 277 194 
310 10 232 9 
311 235 248 238 
312 262 276 221 
313 12 233 11 
314 247 294 200 
315 143 144 140 
316 245 246 113 
317 194 286 186 
318 243 284 242 
319 233 288 110 
320 36 274 105 
321 235 237 236 
322 122 284 243 
323 144 278 140 
324 249 281 197 
325 139 140 135 
326 25 239 24 
327 141 265 166 
328 26 115 25 
329 38 122 37 
330 15 245 113 
331 104 247 241 
332 118 310 293 
333 31 240 30 
334 210 243 242 
335 8 241 7 
336 47 268 46 
337 30 119 29 
338 15 113 14 
339 16 245 15 
340 7 180 6 
341 226 286 178 
342 41 242 40 
343 13 248 102 
344 174 225 188 
345 191 298 219 
346 148 149 144 
347 111 219 184 
348 35 251 34 
349 166 244 169 
350 226 322 59 
351 14 248 13 
352 142 272 257 
353 163 304 131 
354 247 261 241 
355 141 166 147 
356 139 143 140 
357 21 277 20 
358 165 214 154 
359 240 252 119 
360 105 251 35 
361 122 274 37 
362 49 327 271 
363 257 272 203 
364 185 186 114 
365 170 171 160 
366 153 158 157 
367 130 131 128 
368 214 258 154 
369 27 255 26 
370 29 256 28 
371 166 169 167 
372 33 266 32 
373 49 267 48 
374 175 216 208 
375 123 323 224 
376 107 250 249 
377 132 133 131 
378 143 148 144 
379 140 278 228 
380 199 324 250 
381 182 262 221 
382 158 160 159 
383 235 238 237 
384 159 262 218 
385 244 281 169 
386 155 203 202 
387 121 268 47 
388 268 292 46 
389 62 100 63 
390 165 215 214 
391 149 152 151 
392 161 206 172 
393 65 99 66 
394 195 299 232 
395 217 225 174 
396 134 135 133 
397 152 153 151 
398 241 261 180 
399 203 205 204 
400 67 101 5 
401 288 290 215 
402 156 201 195 
403 159 276 262 
404 26 255 115 
405 48 267 121 
406 136 139 135 
407 234 290 288 
408 119 256 29 
409 64 175 65 
410 130 132 131 
411 166 167 147 
412 132 134 133 
413 222 295 181 
414 60 108 61 
415 205 252 204 
416 106 221 187 
417 203 204 202 
418 239 321 250 
419 152 198 162 
420 186 286 226 
421 202 211 164 
422 171 276 160 
423 155 202 164 
424 136 142 139 
425 206 209 172 
426 143 155 148 
427 155 164 148 
428 161 170 160 
429 134 136 135 
430 199 200 168 
431 172 210 170 
432 156 165 154 
433 134 145 136 
434 109 266 33 
435 146 154 138 
436 99 173 66 
437 149 259 152 
438 129 130 128 
439 100 124 63 
440 192 298 191 
441 156 195 165 
442 127 128 126 
443 116 277 21 
444 152 162 153 
445 161 172 170 
446 219 220 184 
447 155 257 203 
448 125 137 127 
449 148 259 149 
450 167 199 168 
451 129 141 138 
452 39 306 4 
453 125 126 124 
454 141 147 146 
455 129 138 130 
456 127 129 128 
457 100 253 125 
458 158 161 160 
459 5 182 50 
460 198 207 162 
461 125 127 126 
462 232 299 104 
463 161 269 206 
464 292 303 212 
465 167 168 147 
466 50 106 51 
467 4 306 38 
468 250 321 199 
469 146 156 154 
470 58 114 59 
471 139 257 143 
472 108 176 61 
473 152 259 198 
474 174 188 173 
475 100 125 124 
476 110 288 264 
477 2 308 16 
478 28 308 2 
479 1 309 27 
480 6 309 1 
481 141 146 138 
482 165 264 215 
483 237 311 236 
484 56 111 57 
485 142 257 139 
486 200 313 261 
487 156 260 201 
488 99 174 173 
489 118 300 18 
490 128 304 126 
491 220 229 184 
492 179 196 177 
493 195 264 165 
494 143 257 155 
495 37 274 36 
496 246 318 273 
497 119 318 256 
498 52 117 53 
499 203 272 205 
500 179 197 196 
501 108 178 177 
502 267 271 230 
503 164 259 148 
504 125 253 137 
505 54 120 55 
506 130 258 132 
507 234 288 233 
508 114 226 59 
509 197 326 249 
510 147 260 146 
511 137 296 244 
512 168 260 147 
513 154 258 138 
514 188 305 231 
515 146 260 156 
516 138 258 130 
517 254 307 112 
518 45 280 44 
519 162 269 153 
520 259 282 198 
521 136 275 142 
522 153 269 158 
523 220 230 229 
524 171 307 254 
525 164 282 259 
526 111 183 57 
527 158 269 161 
528 193 194 186 
529 214 285 258 
530 285 312 145 
531 129 265 141 
532 291 313 200 
533 160 276 159 
534 106 181 51 
535 170 307 171 
536 145 275 136 
537 178 213 179 
538 236 290 234 
539 134 285 145 
540 108 177 176 
541 127 265 129 
542 236 311 275 
543 269 287 206 
544 196 270 177 
545 185 193 186 
546 243 315 122 
547 212 303 189 
548 40 284 39 
549 137 265 127 
550 178 179 177 
551 192 292 268 
552 120 191 55 
553 193 263 194 
554 187 222 181 
555 162 287 269 
556 200 294 168 
557 223 323 222 
558 201 294 247 
559 122 315 274 
560 211 282 164 
561 187 223 222 
562 202 316 211 
563 117 189 53 
564 111 184 183 
565 197 281 196 
566 171 289 276 
567 106 187 181 
568 121 298 268 
569 187 289 223 
570 206 314 209 
571 214 312 285 
572 122 306 284 
573 225 305 188 
574 167 324 199 
575 132 285 134 
576 177 270 176 
577 116 326 279 
578 258 285 132 
579 126 297 124 
580 100 319 253 
581 190 212 189 
582 108 322 178 
583 190 280 212 
584 46 325 45 
585 207 287 162 
586 212 325 292 
587 249 326 227 
588 179 279 197 
589 117 190 189 
590 311 320 272 
591 264 288 215 
592 221 289 187 
593 27 309 255 
594 268 298 192 
595 256 308 28 
596 120 192 191 
597 131 304 128 
598 199 291 200 
599 260 294 201 
600 38 306 122 
601 175 297 216 
602 16 308 245 
603 180 309 6 
604 213 279 179 
605 168 294 260 
606 178 286 213 
607 274 315 209 
608 198 302 207 
609 142 311 272 
610 215 312 214 
611 3 327 49 
612 17 327 3 
613 210 307 170 
614 201 299 195 
615 255 309 180 
616 245 308 256 
617 276 289 221 
618 185 293 193 
619 237 320 311 
620 280 325 212 
621 271 300 230 
622 192 303 292 
623 193 310 263 
624 255 313 115 
625 190 301 280 
626 204 316 202 
627 117 295 190 
628 205 320 273 
629 67 317 101 
630 62 319 100 
631 101 317 283 
632 253 296 137 
633 270 296 253 
634 282 302 198 
635 252 318 119 
636 169 324 167 
637 275 311 142 
638 120 303 192 
639 272 320 205 
640 60 322 108 
641 284 306 39 
642 199 321 291 
643 290 312 215 
644 45 325 280 
645 287 314 206 
646 271 327 17 
647 295 301 190 
648 293 310 193 
649 292 325 46 
650 115 313 291 
651 279 326 197 
652 184 185 183 
$EndElements
