$MeshFormat
4.1 0 8
$EndMeshFormat
$PhysicalNames
3
1 101 "outer_boundary"
2 1 "material_1"
2 2 "material_2"
$EndPhysicalNames
$Entities
8 8 2 0
1 0 0 0 0 
2 1 0 0 0 
3 0 1 0 0 
4 1 1 0 0 
5 0.8885542021734971 0.1813664449737275 0 0 
6 0.918406151753453 0.4219110028035215 0 0 
7 0.677861593923659 0.4517629523834773 0 0 
8 0.6480096443437031 0.2112183945536834 0 0 
1 -9.999999994736442e-08 -1e-07 -1e-07 1.0000001 1e-07 1e-07 1 101 2 1 -2 
2 -1e-07 -9.999999994736442e-08 -1e-07 1e-07 1.0000001 1e-07 1 101 2 3 -1 
3 0.9999999000000001 -9.999999994736442e-08 -1e-07 1.0000001 1.0000001 1e-07 1 101 2 2 -4 
4 -9.999999994736442e-08 0.9999999000000001 -1e-07 1.0000001 1.0000001 1e-07 1 101 2 4 -3 
5 0.8885541021734972 0.1813663449737275 -1e-07 0.9184062517534529 0.4219111028035215 1e-07 0 2 5 -6 
6 0.677861493923659 0.4219109028035214 -1e-07 0.9184062517534529 0.4517630523834773 1e-07 0 2 6 -7 
7 0.6480095443437032 0.2112182945536834 -1e-07 0.6778616939236589 0.4517630523834773 1e-07 0 2 7 -8 
8 0.6480095443437032 0.1813663449737275 -1e-07 0.8885543021734971 0.2112184945536834 1e-07 0 2 8 -5 
2 0.6480095443437032 0.1813663449737275 -1e-07 0.9184062517534529 0.4517630523834773 1e-07 1 2 4 5 6 7 8 
3 -9.999999994736442e-08 -9.999999994736442e-08 -1e-07 1.0000001 1.0000001 1e-07 1 1 8 1 3 4 2 -5 -8 -7 -6 
$EndEntities
$Nodes
18 158 1 158
0 1 0 1
1
0 0 0
0 2 0 1
2
1 0 0
0 3 0 1
3
0 1 0
0 4 0 1
4
1 1 0
0 5 0 1
5
0.8885542021734971 0.1813664449737275 0
0 6 0 1
6
0.918406151753453 0.4219110028035215 0
0 7 0 1
7
0.677861593923659 0.4517629523834773 0
0 8 0 1
8
0.6480096443437031 0.2112183945536834 0
1 1 0 7
9
10
11
12
13
14
15
0.1249999999999999 0 0
0.2499999999999998 0 0
0.3749999999999993 0 0
0.4999999999999988 0 0
0.6249999999999988 0 0
0.7499999999999991 0 0
0.8749999999999997 0 0
1 2 0 7
16
17
18
19
20
21
22
0 0.8750000000000001 0
0 0.7500000000000002 0
0 0.6250000000000007 0
0 0.5000000000000012 0
0 0.3750000000000012 0
0 0.2500000000000009 0
0 0.1250000000000003 0
1 3 0 7
23
24
25
26
27
28
29
1 0.1249999999999999 0
1 0.2499999999999998 0
1 0.3749999999999993 0
1 0.4999999999999988 0
1 0.6249999999999988 0
1 0.7499999999999991 0
1 0.8749999999999997 0
1 4 0 7
30
31
32
33
34
35
36
0.8750000000000001 1 0
0.7500000000000002 1 0
0.6250000000000007 1 0
0.5000000000000012 1 0
0.3750000000000012 1 0
0.2500000000000009 1 0
0.1250000000000003 1 0
1 5 0 3
37
38
39
0.8960171895684861 0.2415025844311759 0
0.903480176963475 0.3016387238886244 0
0.910943164358464 0.3617748633460729 0
1 6 0 3
40
41
42
0.8582700122960046 0.4293739901985104 0
0.7981338728385561 0.4368369775934994 0
0.7379977333811075 0.4442999649884883 0
1 7 0 3
43
44
45
0.67039860652867 0.391626812926029 0
0.662935619133681 0.3314906734685805 0
0.6554726317386921 0.2713545340111319 0
1 8 0 3
46
47
48
0.7081457838011515 0.2037554071586944 0
0.7682819232586 0.1962924197637055 0
0.8284180627160486 0.1888294323687165 0
2 2 0 14
49
50
51
52
53
54
55
56
57
58
59
60
61
62
0.856245650764857 0.3406957294338035 0
0.761846058107943 0.3897934264652926 0
0.7207300369528413 0.2963272443068034 0
0.8039282513162339 0.2387520606223531 0
0.8214678677722571 0.3855991397944399 0
0.7866325257023276 0.3330395379669852 0
0.7189275025470393 0.3559778216753229 0
0.7463839842161744 0.2451061297201856 0
0.8394315490293704 0.2817447007330428 0
0.7794212694433895 0.278993934669874 0
0.8499947786689753 0.2308524403770054 0
0.6957484162105124 0.2455523419500997 0
0.8689201563501752 0.3833515792989997 0
0.7164210174281808 0.4022769569801994 0
2 3 0 96
63
64
65
66
67
68
69
70
71
72
73
74
75
76
77
78
79
80
81
82
83
84
85
86
87
88
89
90
91
92
93
94
95
96
97
98
99
100
101
102
103
104
105
106
107
108
109
110
111
112
113
114
115
116
117
118
119
120
121
122
123
124
125
126
127
128
129
130
131
132
133
134
135
136
137
138
139
140
141
142
143
144
145
146
147
148
149
150
151
152
153
154
155
156
157
158
0.6220506757704904 0.4281580193269366 0
0.6318755398692668 0.4903865385544254 0
0.5675597867231467 0.4676843592199504 0
0.5959927165458427 0.2500657590030526 0
0.5745394006935454 0.5369804398366965 0
0.5027789600043824 0.5078822956483684 0
0.6482221072623733 0.5623562597581324 0
0.3114312324806587 0.09730157346834911 0
0.5129204595898639 0.5875087128536362 0
0.4344799519001096 0.5548446120799475 0
0.5003258708592151 0.429397644402116 0
0.4468252370181355 0.6418509495755894 0
0.5178639971029453 0.678556625153917 0
0.360804244570667 0.6076285906006044 0
0.3521121548097618 0.5137192110643419 0
0.7726758095113613 0.4850413419359206 0
0.3698255346351187 0.702385509978205 0
0.1038549202793708 0.3203652319092604 0
0.8927519795667573 0.6871275401984072 0
0.6823559407808835 0.8927211866592655 0
0.2793719117919821 0.6663534397098853 0
0.596268105680247 0.1793151860326697 0
0.5304305464258632 0.2244024164325669 0
0.1829950807381229 0.9042041180980096 0
0.1009954836550354 0.5584810052999903 0
0.4408925162706611 0.8969565756695252 0
0.5389089112385829 0.2995891594506092 0
0.4639448088383812 0.2802121638857472 0
0.6643033314946289 0.1556224335848077 0
0.902487854735564 0.4895342540725997 0
0.4507391703773931 0.1923569964871399 0
0.3758661829157808 0.2516887245740353 0
0.3969315399313855 0.3390645295865151 0
0.2947678224513934 0.3136313633792121 0
0.7915431456404879 0.1377119092248102 0
0.2928912259669529 0.7673741547812829 0
0.1905653182323158 0.7281835516104782 0
0.3063046265541271 0.883219098788852 0
0.5631690492293384 0.8954694414708385 0
0.6278275935926103 0.7965861520713796 0
0.7317622617726443 0.7885340891708815 0
0.6878340054315299 0.7052909196985848 0
0.5100519021851482 0.7900910165740251 0
0.8039705181313979 0.881503093784355 0
0.1051974315547122 0.4380744435758385 0
0.1942947584580749 0.5068930686193668 0
0.2169259641644796 0.393251468900629 0
0.1906337655849047 0.1032651976831781 0
0.2642886327309639 0.2020447594053381 0
0.9018364800511529 0.811500835879813 0
0.3399807684757593 0.4149499741447438 0
0.6004388849563552 0.09130031313867093 0
0.518011103154523 0.1313467748176252 0
0.7827063980748779 0.6924661353114461 0
0.8326580869805917 0.5964467555975191 0
0.730202262999708 0.6067546287321444 0
0.1171746176515759 0.1957996866293818 0
0.4211872932094287 0.09830569191997535 0
0.6127877739567607 0.3742601776688542 0
0.1113902366497463 0.8067737874931549 0
0.6071247009805124 0.3078857404120396 0
0.5418501341075256 0.3723634902798163 0
0.7110035155315126 0.5141965231366954 0
0.276835561363316 0.5647715179980108 0
0.4247763533369984 0.4713610946804048 0
0.7317507168576922 0.1479444890055261 0
0.6877776577600867 0.0809215225594474 0
0.8481075911631364 0.1396529268160286 0
0.3956692479246816 0.7944019449960216 0
0.09870910369339769 0.6816028052928355 0
0.8160660510531225 0.07263584679138102 0
0.1895183654613418 0.620276713110462 0
0.9521589636062832 0.3108396562046454 0
0.9415588752918262 0.1974143117231062 0
0.5840740622660406 0.6186256691583443 0
0.8302561699197829 0.4896326937477831 0
0.9140673830505979 0.1113747492069978 0
0.9166129716078354 0.5727240288250688 0
0.3647025023428451 0.1683395491709676 0
0.1994778610295311 0.2880241019369769 0
0.4480471837732058 0.7214572092555517 0
0.4771663288585607 0.3545147702817593 0
0.0935324014113304 0.09373170349633098 0
0.906153042002057 0.9093141449739193 0
0.08627885463800872 0.9148374835375251 0
0.5981857222624423 0.7092131309175831 0
0.6500381466769645 0.6377625450335133 0
0.2760298414542783 0.4787170481454185 0
0.7914292922178426 0.538384594371992 0
0.8185687131425936 0.7705254873210671 0
0.2164140599602409 0.8158103542777739 0
0.9386430410860142 0.2602790552495103 0
0.7551730132518459 0.09066189962767951 0
0.5711088682487453 0.4141589274786633 0
0.4278361722923838 0.4018576026191078 0
0.8595720274556879 0.5375990818255345 0
$EndNodes
$Elements
6 314 1 314
1 1 1 8
1 1 9 
2 9 10 
3 10 11 
4 11 12 
5 12 13 
6 13 14 
7 14 15 
8 15 2 
1 2 1 8
9 3 16 
10 16 17 
11 17 18 
12 18 19 
13 19 20 
14 20 21 
15 21 22 
16 22 1 
1 3 1 8
17 2 23 
18 23 24 
19 24 25 
20 25 26 
21 26 27 
22 27 28 
23 28 29 
24 29 4 
1 4 1 8
25 4 30 
26 30 31 
27 31 32 
28 32 33 
29 33 34 
30 34 35 
31 35 36 
32 36 3 
2 2 2 42
33 54 55 51 
34 54 57 49 
35 51 58 54 
36 54 58 57 
37 50 55 54 
38 53 54 49 
39 57 58 52 
40 39 49 38 
41 45 51 44 
42 42 50 41 
43 48 52 47 
44 56 58 51 
45 44 55 43 
46 38 57 37 
47 47 56 46 
48 41 53 40 
49 50 54 53 
50 50 53 41 
51 51 55 44 
52 49 57 38 
53 52 56 47 
54 6 61 39 
55 40 61 6 
56 46 60 8 
57 8 60 45 
58 37 59 5 
59 43 62 7 
60 7 62 42 
61 5 59 48 
62 55 62 43 
63 57 59 37 
64 53 61 40 
65 56 60 46 
66 42 62 50 
67 48 59 52 
68 45 60 51 
69 39 61 49 
70 49 61 53 
71 51 60 56 
72 50 62 55 
73 52 59 57 
74 52 58 56 
2 3 2 240
75 69 125 118 
76 114 115 12 
77 39 25 6 
78 96 111 94 
79 111 141 94 
80 133 139 130 
81 26 92 6 
82 2 139 15 
83 13 114 12 
84 64 125 69 
85 117 140 81 
86 96 113 109 
87 111 142 119 
88 125 151 118 
89 121 124 123 
90 111 119 110 
91 7 125 64 
92 113 150 109 
93 101 102 82 
94 23 139 2 
95 75 148 105 
96 122 132 99 
97 31 106 30 
98 115 120 12 
99 17 132 122 
100 123 124 89 
101 89 144 90 
102 116 118 117 
103 124 144 89 
104 107 108 87 
105 15 139 133 
106 32 101 82 
107 102 104 103 
108 88 105 101 
109 104 118 116 
110 101 105 102 
111 81 140 27 
112 96 142 111 
113 116 117 81 
114 84 91 8 
115 86 100 35 
116 24 136 23 
117 107 109 108 
118 19 107 87 
119 28 81 27 
120 70 141 111 
121 102 103 82 
122 80 109 107 
123 70 111 110 
124 88 131 105 
125 93 115 85 
126 11 120 70 
127 11 70 10 
128 109 142 96 
129 88 101 33 
130 82 106 31 
131 70 110 10 
132 32 82 31 
133 113 127 77 
134 104 116 103 
135 28 112 81 
136 34 100 88 
137 4 146 29 
138 105 148 102 
139 100 153 98 
140 108 134 87 
141 34 88 33 
142 80 107 20 
143 19 87 18 
144 39 135 25 
145 85 115 84 
146 33 101 32 
147 12 120 11 
148 36 86 35 
149 98 131 100 
150 137 149 148 
151 21 80 20 
152 119 142 80 
153 35 100 34 
154 20 107 19 
155 138 158 151 
156 10 110 9 
157 30 146 4 
158 105 143 75 
159 138 151 78 
160 86 153 100 
161 21 119 80 
162 29 112 28 
163 22 119 21 
164 126 134 108 
165 109 150 108 
166 131 143 105 
167 103 106 82 
168 106 146 30 
169 118 149 69 
170 137 148 75 
171 100 131 88 
172 95 113 96 
173 18 132 17 
174 14 129 13 
175 68 127 73 
176 113 157 127 
177 72 127 68 
178 76 77 72 
179 84 114 91 
180 9 145 1 
181 7 63 43 
182 1 145 22 
183 17 122 16 
184 90 95 94 
185 93 120 115 
186 118 151 117 
187 66 89 85 
188 26 140 92 
189 78 151 125 
190 98 99 83 
191 43 121 44 
192 104 149 118 
193 71 75 74 
194 16 147 3 
195 79 98 83 
196 95 96 94 
197 3 147 36 
198 44 123 45 
199 68 73 65 
200 117 158 140 
201 13 129 114 
202 74 76 72 
203 79 83 76 
204 27 140 26 
205 87 132 18 
206 45 66 8 
207 7 64 63 
208 74 79 76 
209 99 153 122 
210 90 144 95 
211 71 74 72 
212 71 72 68 
213 77 127 72 
214 79 131 98 
215 120 141 70 
216 63 121 43 
217 67 68 65 
218 80 142 109 
219 64 65 63 
220 99 134 83 
221 76 126 77 
222 112 152 81 
223 64 67 65 
224 42 125 7 
225 67 71 68 
226 102 148 104 
227 90 94 93 
228 90 93 85 
229 89 90 85 
230 64 69 67 
231 15 133 14 
232 81 152 116 
233 41 78 42 
234 83 126 76 
235 5 139 136 
236 66 123 89 
237 106 152 112 
238 103 152 106 
239 121 123 44 
240 71 137 75 
241 8 91 46 
242 46 128 47 
243 73 156 65 
244 29 146 112 
245 132 134 99 
246 84 115 114 
247 151 158 117 
248 47 97 48 
249 122 153 86 
250 48 130 5 
251 66 85 84 
252 45 123 66 
253 79 143 131 
254 75 143 74 
255 38 135 39 
256 110 145 9 
257 40 138 41 
258 83 134 126 
259 95 157 113 
260 66 84 8 
261 22 145 119 
262 93 141 120 
263 36 147 86 
264 119 145 110 
265 112 146 106 
266 67 137 71 
267 77 150 113 
268 87 134 132 
269 114 129 91 
270 126 150 77 
271 5 136 37 
272 121 156 124 
273 148 149 104 
274 69 137 67 
275 124 156 73 
276 74 143 79 
277 94 141 93 
278 127 157 73 
279 78 125 42 
280 6 92 40 
281 86 147 122 
282 136 139 23 
283 73 144 124 
284 122 147 16 
285 37 154 38 
286 63 156 121 
287 116 152 103 
288 108 150 126 
289 91 128 46 
290 140 158 92 
291 41 138 78 
292 47 128 97 
293 98 153 99 
294 135 154 24 
295 14 155 129 
296 97 130 48 
297 73 157 144 
298 65 156 63 
299 91 129 128 
300 97 133 130 
301 130 139 5 
302 38 154 135 
303 69 149 137 
304 92 138 40 
305 133 155 14 
306 136 154 37 
307 128 155 97 
308 97 155 133 
309 129 155 128 
310 92 158 138 
311 144 157 95 
312 24 154 136 
313 25 135 24 
314 25 26 6 
$EndElements
