$MeshFormat
4.1 0 8
$EndMeshFormat
$PhysicalNames
3
1 101 "outer_boundary"
2 1 "material_1"
2 2 "material_2"
$EndPhysicalNames
$Entities
5 5 2 0
1 0 0 0 0 
2 1 0 0 0 
3 0 1 0 0 
4 1 1 0 0 
5 0.6330133971083891 0.4157091651120068 0 0 
1 -9.999999994736442e-08 -1e-07 -1e-07 1.0000001 1e-07 1e-07 1 101 2 1 -2 
2 -1e-07 -9.999999994736442e-08 -1e-07 1e-07 1.0000001 1e-07 1 101 2 3 -1 
3 0.9999999000000001 -9.999999994736442e-08 -1e-07 1.0000001 1.0000001 1e-07 1 101 2 2 -4 
4 -9.999999994736442e-08 0.9999999000000001 -1e-07 1.0000001 1.0000001 1e-07 1 101 2 4 -3 
5 0.2571870827131356 0.2277959579143801 -1e-07 0.6330134971083891 0.6036223723096336 1e-07 0 2 5 -5 
2 0.2571870827131356 0.2277959579143801 -1e-07 0.6330134971083891 0.6036223723096336 1e-07 1 2 1 5 
3 -9.999999994736442e-08 -9.999999994736442e-08 -1e-07 1.0000001 1.0000001 1e-07 1 1 5 1 3 4 2 -5 
$EndEntities
$Nodes
12 354 1 354
0 1 0 1
1
0 0 0
0 2 0 1
2
1 0 0
0 3 0 1
3
0 1 0
0 4 0 1
4
1 1 0
0 5 0 1
5
0.6330133971083891 0.4157091651120068 0
1 1 0 11
6
7
8
9
10
11
12
13
14
15
16
0.08333333333333318 0 0
0.1666666666666664 0 0
0.2499999999999997 0 0
0.333333333333333 0 0
0.4166666666666664 0 0
0.4999999999999998 0 0
0.5833333333333331 0 0
0.6666666666666665 0 0
0.7499999999999999 0 0
0.8333333333333331 0 0
0.9166666666666666 0 0
1 2 0 11
17
18
19
20
21
22
23
24
25
26
27
0 0.9166666666666669 0
0 0.8333333333333337 0
0 0.7500000000000003 0
0 0.666666666666667 0
0 0.5833333333333337 0
0 0.5000000000000002 0
0 0.4166666666666669 0
0 0.3333333333333335 0
0 0.2500000000000001 0
0 0.1666666666666669 0
0 0.08333333333333337 0
1 3 0 11
28
29
30
31
32
33
34
35
36
37
38
1 0.08333333333333318 0
1 0.1666666666666664 0
1 0.2499999999999997 0
1 0.333333333333333 0
1 0.4166666666666664 0
1 0.4999999999999998 0
1 0.5833333333333331 0
1 0.6666666666666665 0
1 0.7499999999999999 0
1 0.8333333333333331 0
1 0.9166666666666666 0
1 4 0 11
39
40
41
42
43
44
45
46
47
48
49
0.9166666666666669 1 0
0.8333333333333337 1 0
0.7500000000000003 1 0
0.666666666666667 1 0
0.5833333333333337 1 0
0.5000000000000002 1 0
0.4166666666666669 1 0
0.3333333333333335 1 0
0.2500000000000001 1 0
0.1666666666666669 1 0
0.08333333333333337 1 0
1 5 0 26
50
51
52
53
54
55
56
57
58
59
60
61
62
63
64
65
66
67
68
69
70
71
72
73
74
75
0.6279481749841296 0.4590449099523051 0
0.6130255760471539 0.5000444135712234 0
0.589050081468725 0.5364973821163399 0
0.5573142163673916 0.5664386266178881 0
0.519528869445289 0.5882540068347875 0
0.4777310585353602 0.6007674499728439 0
0.4341741144427197 0.6033043530735009 0
0.3912062032976966 0.5957279510339492 0
0.3511437363119482 0.5784466896492195 0
0.3161464914504593 0.5523922061936505 0
0.288101179242412 0.5189691046142835 0
0.2685197297282007 0.4799792329685096 0
0.2584577839196057 0.4375245453289046 0
0.2584577839196061 0.393893784895106 0
0.2685197297282018 0.351439097255501 0
0.2881011792424137 0.3124492256097275 0
0.3161464914504616 0.279026124030361 0
0.3511437363119506 0.2529716405747927 0
0.3912062032976989 0.2356903791900638 0
0.4341741144427219 0.2281139771505127 0
0.477731058535362 0.2306508802511701 0
0.5195288694452902 0.2431643233892268 0
0.5573142163673924 0.2649797036061262 0
0.5890500814687255 0.2949209481076744 0
0.613025576047154 0.3313739166527906 0
0.6279481749841296 0.3723734202717088 0
2 2 0 62
76
77
78
79
80
81
82
83
84
85
86
87
88
89
90
91
92
93
94
95
96
97
98
99
100
101
102
103
104
105
106
107
108
109
110
111
112
113
114
115
116
117
118
119
120
121
122
123
124
125
126
127
128
129
130
131
132
133
134
135
136
137
0.5478134293421938 0.5273683846030706 0
0.3562089584362096 0.2963073854150907 0
0.3290755390721705 0.5131562166195247 0
0.5694686319545141 0.3339108197534477 0
0.4867394320772818 0.2733123324664735 0
0.2999206602841562 0.3804253672658385 0
0.5929509301226408 0.4329904264967362 0
0.4183379491811962 0.5634014176771933 0
0.421139468313031 0.2666840489585108 0
0.2962131642338131 0.4545854046838818 0
0.4847613673550561 0.56474557874013 0
0.5921567883247577 0.4687074011120999 0
0.5563540809917169 0.4495080075945472 0
0.5569836384741985 0.4091475079838675 0
0.518805563840478 0.427391360099881 0
0.5205908130896658 0.3850696742560392 0
0.4821613069946145 0.4036754443659328 0
0.4797631401731645 0.4471229469960648 0
0.4432558921520677 0.4231238893464498 0
0.4458199815193081 0.3795350220249404 0
0.406814045302998 0.3990436874208125 0
0.4042398504656087 0.4426340849213464 0
0.4096046607064022 0.355876665327435 0
0.3694060061194229 0.4176057935880054 0
0.4487088375120715 0.3364412922304838 0
0.3677475579947947 0.4596475558703009 0
0.403399171232225 0.4852742622717676 0
0.5173073700989049 0.468816164480057 0
0.4778848895285873 0.4879276280912178 0
0.4847872467581414 0.36029381201001 0
0.5290944009541974 0.3380675771966966 0
0.4409820823893338 0.4662966979656003 0
0.4426995603118081 0.5059561575530053 0
0.3728552697550245 0.377265873235047 0
0.4064157180534677 0.3078431823633199 0
0.4880261662008553 0.3166188252948528 0
0.523119978085518 0.2899817041042902 0
0.4508822425181804 0.2932128147460611 0
0.3694197984596876 0.338521566574442 0
0.3293706129505801 0.3252213617364295 0
0.4038016063175277 0.5258485698953705 0
0.5934079303765553 0.3932096128515615 0
0.3368392487014242 0.3948540399962094 0
0.5160095446608264 0.5086295017386619 0
0.5593529198975664 0.3698019910596662 0
0.3677672241173475 0.5029292469020041 0
0.3669992818879697 0.5437873999171497 0
0.5610550657580116 0.4914800960195144 0
0.330905098458756 0.4744816262734732 0
0.4526294332593617 0.544979564054514 0
0.3314786667431932 0.4361472642539794 0
0.2968945513002997 0.4162384010706532 0
0.3852228168824715 0.2718993273003556 0
0.5206393064652917 0.5492871659301565 0
0.4542298445686134 0.2583817895117001 0
0.5926829817876438 0.3598421381512159 0
0.4803757758908187 0.5248392322328026 0
0.304290467856881 0.3468246460915358 0
0.3025629421470704 0.4882343170319346 0
0.4540196711118486 0.5765292210104176 0
0.3354493430012923 0.360518809149917 0
0.5564106166670628 0.3039751186057769 0
2 3 0 217
138
139
140
141
142
143
144
145
146
147
148
149
150
151
152
153
154
155
156
157
158
159
160
161
162
163
164
165
166
167
168
169
170
171
172
173
174
175
176
177
178
179
180
181
182
183
184
185
186
187
188
189
190
191
192
193
194
195
196
197
198
199
200
201
202
203
204
205
206
207
208
209
210
211
212
213
214
215
216
217
218
219
220
221
222
223
224
225
226
227
228
229
230
231
232
233
234
235
236
237
238
239
240
241
242
243
244
245
246
247
248
249
250
251
252
253
254
255
256
257
258
259
260
261
262
263
264
265
266
267
268
269
270
271
272
273
274
275
276
277
278
279
280
281
282
283
284
285
286
287
288
289
290
291
292
293
294
295
296
297
298
299
300
301
302
303
304
305
306
307
308
309
310
311
312
313
314
315
316
317
318
319
320
321
322
323
324
325
326
327
328
329
330
331
332
333
334
335
336
337
338
339
340
341
342
343
344
345
346
347
348
349
350
351
352
353
354
0.6006673569281104 0.5777484110801222 0
0.3583981136044906 0.6220149223470743 0
0.5139070584144768 0.6300385265490767 0
0.6319981745191319 0.2916435946356069 0
0.6588566957477165 0.500709536237097 0
0.6677098291914986 0.3917537543580507 0
0.7083333333333337 0.9278312163512967 0
0.9274967511500091 0.7077328829171163 0
0.2751594541367754 0.5611917093776135 0
0.2726589666441747 0.2722719808315853 0
0.2941264599763591 0.9288624202862714 0
0.9331998065168874 0.2129583005128141 0
0.4551364387991674 0.9308830283290358 0
0.9299727257631456 0.5493548755864867 0
0.07226846838480755 0.6986831584749049 0
0.5569920711666271 0.2218981687521138 0
0.2265125688735384 0.4711123383084102 0
0.2274252968605689 0.3641210217545694 0
0.9286190978161148 0.3808724707473961 0
0.3592934540066719 0.2092762482719247 0
0.7067262412611327 0.0630751379641209 0
0.4585605770388962 0.1916270390326837 0
0.0701176393272846 0.2132141879806165 0
0.2147832790852626 0.06523925635504413 0
0.07040822394736701 0.5382533588882168 0
0.06825261145642281 0.3782672811453799 0
0.5259506937923726 0.06592552126288276 0
0.1250000000000002 0.9278312163512967 0
0.9193460705648218 0.8697569867828417 0
0.3692390373102219 0.06439351935043591 0
0.8751473303398256 0.07002352899303194 0
0.5645655251203998 0.6133169422673073 0
0.6117927142372214 0.6241272706371114 0
0.6462899717695002 0.5900765482949426 0
0.6603919839303627 0.6388636771898626 0
0.6251519112690948 0.6756698807828534 0
0.6760419437735494 0.6920254414018848 0
0.6967317523051756 0.5924865914101985 0
0.6342277114476832 0.73084835970384 0
0.6912281044435441 0.7492123274686584 0
0.7345443038535251 0.7064307556458427 0
0.7526822771299471 0.7648066401890197 0
0.5806734956554502 0.7064123433096701 0
0.5918034352344484 0.7703396073505252 0
0.5365323432800831 0.7524851376798354 0
0.5440953434878062 0.8147618349116538 0
0.4857068084391872 0.7932777501776893 0
0.4807966543706361 0.728243348247033 0
0.4309879452553005 0.7705797477153183 0
0.4128049828808029 0.713248108099218 0
0.3712361998925758 0.7541252352384775 0
0.3867603653476475 0.8113095577333136 0
0.3267505135690271 0.7883529644724467 0
0.3121767615988127 0.7220480223242869 0
0.2673089221330296 0.7642920257074566 0
0.2527722482058559 0.703995278230503 0
0.2060347271332097 0.744371720297509 0
0.1977384121203956 0.680123038032475 0
0.2211178740860321 0.8147860818934654 0
0.6055863942840806 0.833506383051277 0
0.7983830312989817 0.7207500516618294 0
0.7707423366462394 0.6614305222525565 0
0.8160289924768533 0.7859037052042218 0
0.1524148127465723 0.7891473049450839 0
0.7135988297569382 0.8058052460621763 0
0.5587474450944555 0.8776341719149348 0
0.2488707475868825 0.6412039240079183 0
0.1924000500860527 0.6175780725726627 0
0.4066465048576626 0.6346306011071166 0
0.3794411910988966 0.6685943276228806 0
0.458575084214108 0.6440282862205451 0
0.6680106419698779 0.4417636485675757 0
0.7048366047941615 0.475150168860146 0
0.7099450969809507 0.4198557200151556 0
0.7117795235160089 0.3660168083926639 0
0.753476610907188 0.4495197512445077 0
0.7487320725195327 0.5060531442107995 0
0.799386325019384 0.4810215293369063 0
0.8041561592303781 0.4227698813699273 0
0.7967222206050185 0.5404108943149925 0
0.8545131376730912 0.4538859958264749 0
0.2425270665258537 0.5267917986214976 0
0.1933974713511454 0.5083855005357016 0
0.1795574623086512 0.4525374737385905 0
0.3110812693261995 0.5957279510339488 0
0.2455273961209044 0.3155927410771016 0
0.2210389362226374 0.2724726220512188 0
0.2516031625105991 0.2262951979849483 0
0.1948251975186569 0.2233619149522137 0
0.1669611729195303 0.2721445183745216 0
0.2252934196215742 0.1748858910148722 0
0.1663611888729439 0.1754949346255392 0
0.2818152586408064 0.177832142094962 0
0.5983052995563398 0.2531704495956789 0
0.646778708124917 0.2420830472635763 0
0.6818889726826931 0.2828051431306287 0
0.7007845517937407 0.2310435620656688 0
0.7395061723085286 0.2728242530736815 0
0.7591195624533882 0.2139808980648512 0
0.8003632763452199 0.2639113825075503 0
0.6556294274101282 0.183949070648267 0
0.8216750989427406 0.2032343065293731 0
0.7671483338420462 0.327959244977837 0
0.8413134714775378 0.312841634940081 0
0.778694659998788 0.1494566622711384 0
0.5093044627434612 0.2013169821497425 0
0.5494373767690451 0.1743126504947899 0
0.4965442193702353 0.156515102420551 0
0.4399003054500956 0.1424363999803119 0
0.3235375883044896 0.6580983112378387 0
0.6620350997790055 0.3370057102593993 0
0.2219023881706072 0.4173383056167932 0
0.181356686250953 0.3853289139048587 0
0.703932817498361 0.5319413027764907 0
0.8480729518499073 0.6639994364531677 0
0.4086347364163683 0.1945951391712978 0
0.3686737642621251 0.1604267914022894 0
0.1376198662884724 0.6514402545772439 0
0.0698214236210371 0.4623990801649077 0
0.5490699700921626 0.6626047776564794 0
0.2904570669179834 0.06392778939702914 0
0.626312536240863 0.8984148246554932 0
0.3085982883102919 0.2276943939273953 0
0.07124391817507664 0.2950967454730076 0
0.3353075434412784 0.8553484359468799 0
0.6347982980042349 0.07156740578466758 0
0.7901691480175352 0.07611855052750921 0
0.448110502627639 0.07112450217919508 0
0.1288665525433803 0.41796612578194 0
0.1382414466282186 0.5011394444006596 0
0.1358915889287245 0.5714320712768526 0
0.07197331790051231 0.6162771168078254 0
0.4994460065393753 0.6757214476901314 0
0.9216349969243514 0.2980290166345508 0
0.9270759506248433 0.6275020947400619 0
0.8580496082728831 0.5891625047393751 0
0.3724104008636362 0.9293263221097696 0
0.07357617393970906 0.7868170699443195 0
0.6293947438821867 0.5436415889325289 0
0.6015306771939513 0.2033226821692685 0
0.6020411801366506 0.1445227062611849 0
0.1284825999729509 0.07015810361683994 0
0.07183911152704991 0.1288052450218218 0
0.2078365528693176 0.9281180326859244 0
0.9300890283985446 0.7857505902775432 0
0.1972191850764681 0.3255278341665344 0
0.1336008847574209 0.3386102989618362 0
0.7908629202986971 0.9305343782852867 0
0.9312682375180721 0.4642864286208774 0
0.8572969512911194 0.3896998066428982 0
0.6762215213400821 0.1225061005366768 0
0.157642804968289 0.8614657147900182 0
0.2030984341952644 0.5604786996064079 0
0.9239820785796444 0.1309197785097683 0
0.07455889006342309 0.869800762392422 0
0.8713378505724947 0.9336163143194423 0
0.8282316167468564 0.8601418279945857 0
0.2654871525091342 0.8621338274271273 0
0.7459406221174124 0.865447398391572 0
0.8622126128858363 0.5234611781342191 0
0.4144176402794849 0.8737398616381642 0
0.4848386615593634 0.8632705529741396 0
0.8636519412807824 0.7399489320459641 0
0.8442353319994464 0.1358191906734 0
0.8651117648932762 0.2478043250640992 0
0.1399420767688612 0.725097091045256 0
0.758372910538103 0.3926097377088928 0
0.6498156846703501 0.7905957261438672 0
0.2570333803848565 0.124039071916312 0
0.3243958303319664 0.1272958014502854 0
0.7116991862353361 0.6529844456576381 0
0.7468985632488283 0.5644375986640596 0
0.7905891948332314 0.5991381548541665 0
0.7164684471684013 0.1615536549072339 0
0.2383829808426791 0.5938112540448738 0
0.1380627937696238 0.2215872137811397 0
0.5256964368988017 0.9370516328067938 0
0.4543505591894135 0.6869965901257553 0
0.8042330471974308 0.3694430596313008 0
0.7168119627555425 0.3176284307621058 0
0.4423994065958776 0.8257251625313582 0
0.6749312334004963 0.8536001324426137 0
0.06282664707222496 0.062803432666379 0
0.5390469041086143 0.1238144447718363 0
0.5293036939875415 0.7050934109166298 0
0.8714695298935717 0.8083004084610313 0
0.1866231839380089 0.1229316096003508 0
0.7446833217316511 0.6165955044177105 0
0.3934512818608362 0.1162184844579139 0
0.3285553191103723 0.1805050754293713 0
0.9389957660359267 0.0610042339640734 0
0.06100423396407328 0.9389957660359266 0
0.9389957660359266 0.9389957660359267 0
0.6684787813319149 0.556773242295448 0
0.2882332374101563 0.6320016532841584 0
0.1193426989986186 0.2925610082477204 0
0.3581747320504858 0.7082285412310793 0
0.8776408161863991 0.186147180257891 0
0.1306466198215928 0.1314679595951793 0
0.4207114914391337 0.6726374867002678 0
0.8859147083772184 0.3446645230568061 0
0.7392734736904074 0.1135520815469467 0
0.5882618461597711 0.9345198715935796 0
0.8929243560745994 0.4221861754594117 0
0.1124387860349094 0.8277196449727064 0
0.1149072386530487 0.1751352460907337 0
0.2825151238631859 0.81510369144797 0
0.7718500046448606 0.815205963042682 0
0.2829032495741095 0.6717714221297676 0
0.5890685947639005 0.6558096878187083 0
0.579450844921345 0.08568002642213307 0
0.1057398533757278 0.2552442381298212 0
0.2723455378605386 0.6047872983497026 0
0.4897698043748516 0.1095958018306527 0
0.1676572352758382 0.5353589289549054 0
0.6501853146772258 0.9472631712585178 0
0.2130210961081933 0.8666259141991338 0
$EndNodes
$Elements
6 706 1 706
1 1 1 12
1 1 6 
2 6 7 
3 7 8 
4 8 9 
5 9 10 
6 10 11 
7 11 12 
8 12 13 
9 13 14 
10 14 15 
11 15 16 
12 16 2 
1 2 1 12
13 3 17 
14 17 18 
15 18 19 
16 19 20 
17 20 21 
18 21 22 
19 22 23 
20 23 24 
21 24 25 
22 25 26 
23 26 27 
24 27 1 
1 3 1 12
25 2 28 
26 28 29 
27 29 30 
28 30 31 
29 31 32 
30 32 33 
31 33 34 
32 34 35 
33 35 36 
34 36 37 
35 37 38 
36 38 4 
1 4 1 12
37 4 39 
38 39 40 
39 40 41 
40 41 42 
41 42 43 
42 43 44 
43 44 45 
44 45 46 
45 46 47 
46 47 48 
47 48 49 
48 49 3 
2 2 2 149
49 57 122 83 
50 52 123 51 
51 77 128 110 
52 110 114 77 
53 58 122 57 
54 66 115 65 
55 71 112 80 
56 76 123 52 
57 72 112 71 
58 77 115 66 
59 78 122 59 
60 83 122 116 
61 103 123 119 
62 116 125 83 
63 108 125 116 
64 126 127 118 
65 51 123 87 
66 119 123 76 
67 118 127 81 
68 59 122 58 
69 121 124 101 
70 129 132 119 
71 110 128 84 
72 106 137 79 
73 86 132 129 
74 80 112 111 
75 78 124 121 
76 112 137 106 
77 94 107 97 
78 104 108 107 
79 103 104 93 
80 97 107 102 
81 93 107 94 
82 90 103 93 
83 104 107 93 
84 100 105 95 
85 95 105 92 
86 107 108 102 
87 96 109 98 
88 64 81 63 
89 50 82 5 
90 69 84 68 
91 55 86 54 
92 62 85 61 
93 67 77 66 
94 57 83 56 
95 53 76 52 
96 60 78 59 
97 71 80 70 
98 74 79 73 
99 97 102 101 
100 99 109 96 
101 97 101 99 
102 98 100 95 
103 97 99 96 
104 96 98 95 
105 94 97 96 
106 94 96 95 
107 94 95 92 
108 105 106 91 
109 93 94 92 
110 92 105 91 
111 90 93 92 
112 90 92 91 
113 100 111 105 
114 88 103 90 
115 90 91 89 
116 98 110 100 
117 111 112 106 
118 105 111 106 
119 88 123 103 
120 88 90 89 
121 79 120 106 
122 84 113 110 
123 110 113 100 
124 98 114 110 
125 88 89 82 
126 82 117 5 
127 5 117 75 
128 121 122 78 
129 114 115 77 
130 100 113 111 
131 109 114 98 
132 106 120 91 
133 111 113 80 
134 85 127 126 
135 102 121 101 
136 101 126 99 
137 104 132 108 
138 108 116 102 
139 124 126 101 
140 115 133 65 
141 89 120 117 
142 89 117 82 
143 114 136 115 
144 99 118 109 
145 103 119 104 
146 87 88 82 
147 133 136 81 
148 76 129 119 
149 109 136 114 
150 91 120 89 
151 108 132 125 
152 120 131 117 
153 81 136 118 
154 72 137 112 
155 54 129 53 
156 53 129 76 
157 51 87 50 
158 63 127 62 
159 81 127 63 
160 68 128 67 
161 67 128 77 
162 50 87 82 
163 62 127 85 
164 84 128 68 
165 86 129 54 
166 80 130 70 
167 69 130 84 
168 70 130 69 
169 87 123 88 
170 75 131 74 
171 85 126 124 
172 65 133 64 
173 60 134 78 
174 85 134 61 
175 55 135 86 
176 83 135 56 
177 73 137 72 
178 116 121 102 
179 84 130 113 
180 74 131 79 
181 113 130 80 
182 64 133 81 
183 116 122 121 
184 61 134 60 
185 56 135 55 
186 79 137 73 
187 99 126 118 
188 117 131 75 
189 79 131 120 
190 115 136 133 
191 124 134 85 
192 78 134 124 
193 86 135 125 
194 125 135 83 
195 119 132 104 
196 125 132 86 
197 118 136 109 
2 3 2 509
198 240 304 212 
199 152 269 255 
200 252 272 145 
201 221 250 249 
202 20 269 152 
203 252 273 272 
204 212 317 240 
205 152 303 275 
206 252 310 273 
207 266 267 256 
208 275 303 201 
209 261 333 284 
210 199 310 252 
211 221 267 266 
212 144 319 296 
213 286 297 218 
214 54 169 140 
215 160 349 261 
216 56 208 206 
217 261 284 163 
218 253 254 246 
219 142 331 276 
220 146 312 219 
221 246 326 265 
222 272 273 151 
223 265 326 167 
224 167 307 258 
225 255 268 205 
226 10 265 167 
227 221 266 250 
228 262 274 148 
229 256 267 162 
230 296 319 202 
231 169 257 140 
232 163 266 256 
233 230 260 225 
234 61 219 154 
235 277 278 238 
236 248 317 212 
237 251 331 142 
238 12 348 164 
239 175 331 251 
240 251 309 175 
241 163 256 23 
242 163 284 266 
243 139 247 222 
244 263 348 12 
245 167 258 9 
246 247 334 191 
247 233 317 248 
248 143 248 212 
249 151 297 286 
250 241 302 271 
251 270 322 185 
252 307 326 254 
253 255 269 268 
254 191 346 247 
255 160 261 25 
256 233 248 141 
257 21 269 20 
258 294 323 166 
259 283 284 227 
260 225 260 147 
261 167 326 307 
262 293 294 166 
263 278 288 238 
264 286 341 156 
265 32 286 156 
266 208 337 206 
267 262 298 274 
268 266 284 250 
269 234 311 236 
270 207 337 187 
271 221 249 154 
272 219 312 290 
273 271 338 241 
274 183 299 184 
275 264 301 242 
276 187 334 207 
277 203 299 183 
278 271 302 149 
279 259 319 144 
280 185 322 182 
281 267 268 162 
282 218 297 215 
283 219 220 154 
284 145 300 252 
285 255 303 152 
286 273 297 151 
287 30 271 149 
288 34 272 151 
289 217 297 273 
290 273 310 217 
291 268 290 205 
292 45 274 150 
293 209 211 210 
294 281 295 148 
295 215 297 217 
296 210 251 142 
297 161 324 279 
298 211 213 210 
299 189 298 262 
300 203 314 299 
301 159 253 246 
302 168 301 264 
303 22 256 162 
304 148 295 262 
305 24 261 163 
306 8 258 161 
307 254 326 246 
308 53 169 54 
309 238 311 234 
310 281 354 295 
311 232 277 238 
312 158 263 13 
313 230 327 260 
314 324 336 279 
315 55 208 56 
316 164 265 11 
317 10 167 9 
318 282 300 145 
319 47 281 148 
320 168 264 15 
321 165 292 289 
322 12 164 11 
323 22 162 21 
324 24 163 23 
325 138 276 171 
326 36 282 145 
327 195 204 193 
328 260 327 157 
329 287 316 241 
330 263 288 278 
331 156 271 31 
332 60 219 61 
333 165 289 281 
334 8 161 7 
335 26 160 25 
336 207 334 247 
337 161 279 7 
338 231 277 232 
339 247 332 222 
340 148 274 46 
341 145 272 35 
342 162 269 21 
343 14 158 13 
344 20 152 19 
345 186 187 185 
346 240 316 304 
347 144 353 259 
348 223 283 224 
349 14 264 158 
350 32 156 31 
351 224 283 227 
352 184 185 182 
353 34 151 33 
354 45 150 44 
355 26 280 160 
356 244 321 278 
357 9 258 8 
358 47 148 46 
359 23 256 22 
360 152 275 19 
361 30 149 29 
362 274 298 150 
363 13 263 12 
364 11 265 10 
365 36 145 35 
366 292 342 289 
367 42 144 41 
368 144 285 41 
369 25 261 24 
370 250 283 155 
371 284 333 227 
372 265 351 246 
373 244 277 153 
374 52 276 138 
375 57 206 139 
376 35 272 34 
377 206 207 139 
378 257 270 140 
379 31 271 30 
380 165 281 48 
381 46 274 45 
382 299 314 150 
383 142 276 51 
384 209 210 142 
385 144 296 285 
386 278 348 263 
387 166 282 37 
388 151 286 33 
389 139 222 58 
390 48 281 47 
391 50 209 142 
392 143 211 209 
393 195 205 204 
394 257 347 180 
395 37 282 36 
396 143 209 5 
397 7 279 6 
398 178 308 199 
399 258 306 161 
400 244 278 277 
401 16 168 15 
402 15 264 14 
403 250 284 283 
404 184 186 185 
405 41 285 40 
406 75 248 143 
407 33 286 32 
408 190 191 188 
409 18 292 17 
410 59 222 146 
411 19 275 18 
412 186 188 187 
413 49 165 48 
414 291 301 168 
415 27 280 26 
416 149 291 29 
417 38 166 37 
418 243 245 244 
419 158 288 263 
420 141 248 74 
421 40 293 39 
422 214 251 210 
423 282 323 300 
424 192 193 191 
425 147 260 66 
426 223 224 147 
427 65 223 147 
428 237 240 235 
429 231 232 141 
430 275 292 18 
431 178 199 198 
432 236 311 242 
433 211 304 213 
434 176 180 173 
435 285 293 40 
436 73 231 141 
437 29 291 28 
438 155 223 64 
439 291 335 301 
440 268 352 290 
441 154 249 62 
442 63 249 155 
443 67 260 157 
444 194 195 193 
445 193 346 191 
446 285 294 293 
447 153 277 231 
448 153 231 72 
449 181 182 180 
450 288 339 311 
451 155 283 223 
452 228 230 225 
453 268 269 162 
454 240 317 235 
455 249 250 155 
456 242 339 264 
457 340 353 43 
458 188 334 187 
459 44 314 43 
460 183 184 182 
461 157 253 68 
462 241 338 287 
463 43 353 42 
464 71 243 153 
465 69 253 159 
466 213 214 210 
467 1 320 27 
468 6 320 1 
469 267 352 268 
470 159 243 70 
471 199 252 198 
472 185 315 270 
473 52 138 53 
474 190 192 191 
475 57 139 58 
476 285 296 294 
477 289 354 281 
478 54 140 55 
479 243 244 153 
480 50 142 51 
481 157 254 253 
482 220 221 154 
483 159 245 243 
484 213 304 216 
485 75 143 5 
486 56 206 57 
487 237 241 240 
488 51 276 52 
489 219 290 220 
490 192 194 193 
491 166 323 282 
492 189 190 188 
493 180 347 173 
494 5 209 50 
495 143 212 211 
496 174 178 177 
497 172 173 170 
498 195 255 205 
499 178 198 179 
500 321 348 278 
501 176 181 180 
502 59 146 60 
503 65 147 66 
504 288 311 238 
505 58 222 59 
506 158 339 288 
507 241 316 240 
508 73 141 74 
509 232 233 141 
510 213 216 215 
511 186 189 188 
512 179 202 177 
513 138 169 53 
514 74 248 75 
515 207 247 139 
516 224 225 147 
517 196 201 194 
518 236 237 235 
519 174 176 173 
520 196 289 201 
521 180 322 257 
522 298 299 150 
523 181 183 182 
524 198 200 179 
525 236 242 239 
526 61 154 62 
527 138 171 170 
528 63 155 64 
529 309 325 175 
530 164 351 265 
531 194 303 195 
532 140 208 55 
533 66 260 67 
534 2 328 16 
535 28 328 2 
536 178 179 177 
537 64 223 65 
538 17 329 3 
539 3 329 49 
540 216 287 218 
541 4 330 38 
542 39 330 4 
543 192 196 194 
544 197 259 203 
545 71 153 72 
546 181 197 183 
547 67 157 68 
548 72 231 73 
549 215 217 214 
550 62 249 63 
551 171 175 172 
552 195 303 255 
553 232 238 234 
554 236 239 237 
555 189 262 190 
556 69 159 70 
557 214 309 251 
558 174 177 176 
559 242 301 239 
560 197 203 183 
561 172 174 173 
562 138 170 169 
563 205 312 204 
564 234 235 233 
565 300 323 200 
566 171 172 170 
567 294 345 200 
568 68 253 69 
569 213 215 214 
570 252 300 198 
571 70 243 71 
572 187 315 185 
573 234 236 235 
574 228 306 230 
575 308 325 199 
576 149 335 291 
577 204 346 193 
578 216 218 215 
579 146 219 60 
580 315 337 208 
581 306 307 230 
582 140 270 208 
583 201 303 194 
584 150 314 44 
585 159 246 245 
586 198 300 200 
587 169 347 257 
588 212 304 211 
589 226 228 225 
590 156 338 271 
591 224 227 226 
592 237 302 241 
593 174 308 178 
594 239 302 237 
595 232 234 233 
596 302 335 149 
597 202 305 177 
598 245 321 244 
599 227 349 313 
600 224 226 225 
601 206 337 207 
602 279 336 280 
603 218 341 286 
604 333 349 227 
605 176 305 181 
606 220 267 221 
607 177 305 176 
608 314 340 43 
609 189 318 298 
610 217 309 214 
611 226 229 228 
612 292 329 17 
613 280 320 279 
614 181 305 197 
615 280 343 160 
616 175 308 172 
617 182 322 180 
618 171 331 175 
619 264 339 158 
620 172 308 174 
621 290 312 205 
622 258 307 306 
623 299 318 184 
624 201 342 275 
625 217 310 309 
626 296 345 294 
627 202 345 296 
628 222 350 146 
629 191 334 188 
630 293 330 39 
631 279 320 6 
632 257 322 270 
633 170 347 169 
634 42 353 144 
635 200 323 294 
636 202 319 305 
637 186 318 189 
638 306 324 161 
639 276 331 171 
640 305 319 197 
641 27 320 280 
642 216 316 287 
643 235 317 233 
644 295 344 262 
645 291 328 28 
646 179 345 202 
647 262 344 190 
648 192 344 196 
649 246 351 245 
650 184 318 186 
651 270 315 208 
652 196 344 295 
653 16 328 168 
654 227 313 226 
655 298 318 299 
656 310 325 309 
657 165 329 292 
658 49 329 165 
659 239 335 302 
660 226 313 229 
661 38 330 166 
662 197 319 259 
663 228 324 306 
664 168 328 291 
665 259 340 203 
666 166 330 293 
667 254 327 307 
668 229 336 324 
669 312 350 204 
670 204 350 332 
671 307 327 230 
672 156 341 287 
673 275 342 292 
674 287 338 156 
675 295 354 196 
676 304 316 216 
677 196 354 289 
678 203 340 314 
679 173 347 170 
680 229 324 228 
681 301 335 239 
682 157 327 254 
683 199 325 310 
684 175 325 308 
685 200 345 179 
686 313 349 160 
687 289 342 201 
688 160 343 313 
689 220 352 267 
690 190 344 192 
691 287 341 218 
692 259 353 340 
693 321 351 164 
694 146 350 312 
695 290 352 220 
696 311 339 242 
697 336 343 280 
698 164 348 321 
699 187 337 315 
700 332 350 222 
701 245 351 321 
702 313 343 229 
703 332 346 204 
704 229 343 336 
705 247 346 332 
706 261 349 333 
$EndElements
