$MeshFormat
4.1 0 8
$EndMeshFormat
$PhysicalNames
3
1 101 "outer_boundary"
2 1 "material_1"
2 2 "material_2"
$EndPhysicalNames
$Entities
5 5 2 0
1 0 0 0 0 
2 1 0 0 0 
3 0 1 0 0 
4 1 1 0 0 
5 0.6729438491146406 0.4741434672777962 0 0 
1 -9.999999994736442e-08 -1e-07 -1e-07 1.0000001 1e-07 1e-07 1 101 2 1 -2 
2 -1e-07 -9.999999994736442e-08 -1e-07 1e-07 1.0000001 1e-07 1 101 2 3 -1 
3 0.9999999000000001 -9.999999994736442e-08 -1e-07 1.0000001 1.0000001 1e-07 1 101 2 2 -4 
4 -9.999999994736442e-08 0.9999999000000001 -1e-07 1.0000001 1.0000001 1e-07 1 101 2 4 -3 
5 0.3177351519951994 0.2965390687180756 -1e-07 0.6729439491146405 0.6517478658375168 1e-07 0 2 5 -5 
2 0.3177351519951994 0.2965390687180756 -1e-07 0.6729439491146405 0.6517478658375168 1e-07 1 2 1 5 
3 -9.999999994736442e-08 -9.999999994736442e-08 -1e-07 1.0000001 1.0000001 1e-07 1 1 5 1 3 4 2 -5 
$EndEntities
$Nodes
12 164 1 164
0 1 0 1
1
0 0 0
0 2 0 1
2
1 0 0
0 3 0 1
3
0 1 0
0 4 0 1
4
1 1 0
0 5 0 1
5
0.6729438491146406 0.4741434672777962 0
1 1 0 7
6
7
8
9
10
11
12
0.1249999999999999 0 0
0.2499999999999998 0 0
0.3749999999999993 0 0
0.4999999999999988 0 0
0.6249999999999988 0 0
0.7499999999999991 0 0
0.8749999999999997 0 0
1 2 0 7
13
14
15
16
17
18
19
0 0.8750000000000001 0
0 0.7500000000000002 0
0 0.6250000000000007 0
0 0.5000000000000012 0
0 0.3750000000000012 0
0 0.2500000000000009 0
0 0.1250000000000003 0
1 3 0 7
20
21
22
23
24
25
26
1 0.1249999999999999 0
1 0.2499999999999998 0
1 0.3749999999999993 0
1 0.4999999999999988 0
1 0.6249999999999988 0
1 0.7499999999999991 0
1 0.8749999999999997 0
1 4 0 7
27
28
29
30
31
32
33
0.8750000000000001 1 0
0.7500000000000002 1 0
0.6250000000000007 1 0
0.5000000000000012 1 0
0.3750000000000012 1 0
0.2500000000000009 1 0
0.1250000000000003 1 0
1 5 0 15
34
35
36
37
38
39
40
41
42
43
44
45
46
47
48
0.6594245268802696 0.5421096898534243 0
0.6209247544343786 0.5997286711572549 0
0.5633057731305477 0.638228443603146 0
0.4953395505549196 0.6517477658375168 0
0.4273733279792915 0.6382284436031457 0
0.3697543466754611 0.5997286711572546 0
0.3312545742295702 0.5421096898534241 0
0.3177352519951994 0.4741434672777961 0
0.3312545742295704 0.4061772447021678 0
0.3697543466754617 0.3485582633983373 0
0.4273733279792922 0.3100584909524464 0
0.4953395505549202 0.2965391687180756 0
0.5633057731305483 0.3100584909524467 0
0.6209247544343787 0.3485582633983377 0
0.6594245268802696 0.4061772447021682 0
2 2 0 25
49
50
51
52
53
54
55
56
57
58
59
60
61
62
63
64
65
66
67
68
69
70
71
72
73
0.611494325007613 0.4953417164024558 0
0.3833553884621462 0.4518684324868951 0
0.5198458976176139 0.3520206959477882 0
0.4730645157640187 0.5861276293705701 0
0.4120770188107492 0.5407810032443972 0
0.4319056183054386 0.3792078787246898 0
0.5570346347102741 0.5717229570066255 0
0.595796002437375 0.4065770762927028 0
0.6073237126476937 0.5489688921734799 0
0.5445002339935969 0.5067210924234872 0
0.5711235912818854 0.4502121645545971 0
0.5070921637553698 0.4439984614866824 0
0.4649383050789233 0.4941578207462081 0
0.4403570438233447 0.4366424896687364 0
0.4958897262649643 0.5377669441061415 0
0.3833553884621463 0.3993180423821123 0
0.4205673023073801 0.5912164368438418 0
0.5687984918777476 0.3638230899040348 0
0.4690643555025289 0.3420491415275997 0
0.6274338763051164 0.447868272225405 0
0.5182662416627638 0.5997241894257122 0
0.3694602567006861 0.4999717754912131 0
0.4798136664439727 0.396089576936661 0
0.4140376025751699 0.48468430432749 0
0.5404116355689941 0.4021201775204111 0
2 3 0 91
74
75
76
77
78
79
80
81
82
83
84
85
86
87
88
89
90
91
92
93
94
95
96
97
98
99
100
101
102
103
104
105
106
107
108
109
110
111
112
113
114
115
116
117
118
119
120
121
122
123
124
125
126
127
128
129
130
131
132
133
134
135
136
137
138
139
140
141
142
143
144
145
146
147
148
149
150
151
152
153
154
155
156
157
158
159
160
161
162
163
164
0.6263492950651172 0.6707252597066375 0
0.3716085208544199 0.6715584703759018 0
0.6879754325957517 0.3426031201115179 0
0.2991101505562286 0.3426596686548584 0
0.727427825341316 0.5203937196193162 0
0.2678783684990501 0.5101697393135189 0
0.5499453764855677 0.2452555029555614 0
0.1851609891311793 0.1058364912508547 0
0.9036993962642816 0.6854106449593199 0
0.1214702547616621 0.6862413360119584 0
0.4401207769055765 0.8931887537194663 0
0.6875000000000004 0.8917468245269455 0
0.8124999999999993 0.1082531754730551 0
0.5656395189819552 0.7071940200547975 0
0.4425246281147445 0.7059123997528484 0
0.3082847604546112 0.6323323268291067 0
0.2998550831854354 0.7124139826434566 0
0.1755900830076589 0.8888622637407508 0
0.7324827116803321 0.389279471370933 0
0.7700828716487711 0.3309224160522402 0
0.632475691819279 0.2790447743039427 0
0.3412272953998205 0.2839059281589872 0
0.3962235386366831 0.2217672597927854 0
0.26179235296125 0.2766091738977333 0
0.214094022011068 0.3390867703740826 0
0.7236156915438531 0.5820045669996164 0
0.6134508182360286 0.187957426546229 0
0.813515126432416 0.4058979023164954 0
0.7912839178316549 0.569766230775584 0
0.7012124801822238 0.216902875563762 0
0.313888955577133 0.2072018357939843 0
0.1738974872092162 0.2704248864303334 0
0.6357936311111625 0.746419529852399 0
0.5671779727251856 0.7935916280487658 0
0.7019094468667286 0.6981463392708365 0
0.5303776628709296 0.1662241967591476 0
0.8545183471604902 0.3121466832899479 0
0.09476891649488661 0.4467256829370455 0
0.3775644157146303 0.7508110694700799 0
0.3050309063344053 0.799029404443345 0
0.3745993144566094 0.1535540663091505 0
0.2135661340485033 0.7777694445645487 0
0.6891654314814398 0.1168163451138717 0
0.2467126320458219 0.4557662577599828 0
0.8028166891039064 0.2444474207187354 0
0.09983684958528971 0.5629165577083349 0
0.1778244585984535 0.6043451242111959 0
0.7082812122743731 0.7842121132176887 0
0.8850436773710745 0.8079937648970522 0
0.8972817896078876 0.5732119017241557 0
0.4465803549707612 0.7920185246138758 0
0.1036070920115625 0.808150681646634 0
0.8153703218722342 0.9034151148795496 0
0.8007915387847784 0.722390995497978 0
0.5610541652661762 0.8945958915822394 0
0.1884034092938139 0.504214804020009 0
0.1098775110443398 0.1972831416058016 0
0.902893583918235 0.2061888071346535 0
0.8983769742208794 0.4702353178650249 0
0.3354565703002555 0.898174869930318 0
0.3064032601936978 0.1060062008175584 0
0.8010087780719826 0.4848835995980824 0
0.1060294998567781 0.3297924558952749 0
0.7598894596480545 0.6404620704538291 0
0.4725499982091382 0.2304678124657013 0
0.225170092686136 0.193893621632711 0
0.5880195991882508 0.09043776222104905 0
0.4528532066728007 0.1544706232335615 0
0.08815086725007265 0.08823355235270325 0
0.3807997081985368 0.8317661422426195 0
0.6344395702848735 0.8233834332487602 0
0.08083943500384433 0.914402589077477 0
0.180983680008762 0.413248752710153 0
0.9103071560643714 0.09017106612428549 0
0.9150827998486617 0.9172817759553202 0
0.4204569134189476 0.07845035679074153 0
0.5043782378615382 0.748150820419843 0
0.7514236501918924 0.1716049542173561 0
0.7862025675064133 0.8175139352380241 0
0.2508998449792453 0.5816692061859119 0
0.9018516534304549 0.3751559806942934 0
0.2280398997138223 0.671683445999431 0
0.678558259245917 0.6247804843672851 0
0.7217342972324376 0.2848502824587515 0
0.7315972112385105 0.4562614617937998 0
0.2716307547019141 0.3982370189631359 0
0.8305892204273314 0.6382483686821734 0
0.4983414764301854 0.09791658780089996 0
0.2576028220595497 0.8705665458617025 0
0.5063823506605328 0.8312306553671643 0
0.9372380731973393 0.308009333787642 0
$EndNodes
$Elements
6 326 1 326
1 1 1 8
1 1 6 
2 6 7 
3 7 8 
4 8 9 
5 9 10 
6 10 11 
7 11 12 
8 12 2 
1 2 1 8
9 3 13 
10 13 14 
11 14 15 
12 15 16 
13 16 17 
14 17 18 
15 18 19 
16 19 1 
1 3 1 8
17 2 20 
18 20 21 
19 21 22 
20 22 23 
21 23 24 
22 24 25 
23 25 26 
24 26 4 
1 4 1 8
25 4 27 
26 27 28 
27 28 29 
28 29 30 
29 30 31 
30 31 32 
31 32 33 
32 33 3 
2 2 2 64
33 53 63 52 
34 61 63 53 
35 52 65 53 
36 57 58 49 
37 55 58 57 
38 36 55 35 
39 42 50 41 
40 38 52 37 
41 44 54 43 
42 34 49 5 
43 46 51 45 
44 40 53 39 
45 48 56 47 
46 53 72 61 
47 58 61 60 
48 55 63 58 
49 55 69 63 
50 50 64 62 
51 62 64 54 
52 58 59 49 
53 63 69 52 
54 61 62 60 
55 58 60 59 
56 41 70 40 
57 43 64 42 
58 46 66 51 
59 50 70 41 
60 5 68 48 
61 34 57 49 
62 37 69 36 
63 42 64 50 
64 52 69 37 
65 56 66 47 
66 55 57 35 
67 36 69 55 
68 45 67 44 
69 35 57 34 
70 47 66 46 
71 51 67 45 
72 39 65 38 
73 38 65 52 
74 44 67 54 
75 48 68 56 
76 54 64 43 
77 40 70 53 
78 49 68 5 
79 53 65 39 
80 58 63 61 
81 60 73 59 
82 62 72 50 
83 61 72 62 
84 59 68 49 
85 56 68 59 
86 71 73 60 
87 51 73 71 
88 59 73 56 
89 62 71 60 
90 54 71 62 
91 67 71 54 
92 51 71 67 
93 50 72 70 
94 70 72 53 
95 66 73 51 
96 56 73 66 
2 3 2 230
97 102 135 123 
98 134 149 114 
99 105 136 130 
100 86 116 11 
101 11 116 10 
102 128 144 85 
103 29 128 85 
104 91 125 115 
105 130 136 18 
106 118 131 110 
107 115 125 83 
108 8 149 134 
109 123 135 132 
110 122 127 82 
111 118 151 86 
112 129 153 120 
113 131 164 110 
114 119 120 83 
115 83 155 115 
116 43 95 44 
117 98 146 136 
118 15 119 83 
119 86 131 118 
120 119 129 120 
121 36 87 37 
122 81 139 130 
123 39 89 40 
124 8 134 7 
125 116 140 10 
126 86 151 116 
127 115 162 91 
128 130 139 105 
129 25 122 82 
130 98 136 105 
131 95 96 44 
132 121 152 85 
133 44 138 45 
134 87 150 37 
135 79 153 129 
136 137 160 127 
137 89 153 40 
138 34 156 35 
139 132 154 22 
140 41 159 42 
141 48 158 5 
142 137 156 99 
143 38 88 75 
144 111 119 16 
145 23 132 22 
146 107 144 128 
147 17 111 16 
148 25 82 24 
149 101 158 92 
150 29 85 28 
151 31 84 30 
152 47 94 76 
153 7 81 6 
154 32 162 133 
155 94 157 76 
156 15 83 14 
157 122 152 127 
158 111 129 119 
159 91 162 32 
160 108 156 137 
161 33 91 32 
162 89 155 153 
163 85 152 126 
164 88 112 75 
165 127 160 82 
166 95 104 96 
167 85 126 28 
168 80 94 46 
169 83 125 14 
170 26 122 25 
171 16 119 15 
172 120 155 83 
173 82 123 24 
174 96 138 44 
175 104 114 96 
176 24 123 23 
177 12 86 11 
178 80 100 94 
179 135 158 101 
180 37 150 88 
181 99 156 34 
182 14 125 13 
183 7 134 81 
184 28 126 27 
185 30 128 29 
186 84 128 30 
187 3 145 33 
188 123 132 23 
189 92 158 48 
190 32 133 31 
191 40 153 79 
192 117 159 41 
193 4 148 26 
194 18 136 17 
195 75 112 90 
196 118 157 103 
197 10 140 9 
198 112 113 90 
199 31 133 84 
200 13 145 3 
201 27 148 4 
202 140 161 9 
203 109 140 100 
204 19 130 18 
205 104 139 134 
206 132 135 101 
207 21 131 20 
208 17 136 111 
209 123 160 102 
210 80 138 109 
211 134 139 81 
212 136 146 111 
213 1 142 19 
214 21 164 131 
215 20 147 2 
216 6 142 1 
217 2 147 12 
218 35 74 36 
219 38 75 39 
220 47 76 48 
221 42 77 43 
222 100 140 116 
223 153 155 120 
224 113 162 115 
225 103 157 94 
226 37 88 38 
227 5 78 34 
228 88 124 112 
229 40 79 41 
230 113 115 90 
231 80 109 100 
232 45 80 46 
233 100 103 94 
234 93 118 110 
235 77 95 43 
236 104 134 114 
237 74 108 106 
238 46 94 47 
239 103 151 118 
240 114 141 96 
241 90 155 89 
242 146 159 117 
243 130 142 81 
244 77 98 97 
245 78 135 102 
246 108 127 121 
247 98 159 146 
248 74 87 36 
249 96 141 138 
250 75 89 39 
251 78 99 34 
252 33 145 91 
253 76 92 48 
254 97 104 95 
255 128 163 107 
256 85 144 121 
257 79 117 41 
258 81 142 6 
259 77 97 95 
260 84 143 124 
261 106 107 87 
262 93 110 101 
263 26 148 122 
264 93 101 92 
265 74 106 87 
266 98 105 97 
267 108 121 106 
268 76 93 92 
269 78 102 99 
270 75 90 89 
271 100 116 103 
272 108 137 127 
273 124 163 84 
274 126 152 122 
275 102 137 99 
276 91 145 125 
277 125 145 13 
278 107 163 150 
279 9 149 8 
280 138 141 109 
281 82 160 123 
282 111 146 129 
283 113 143 133 
284 93 157 118 
285 126 148 27 
286 79 129 117 
287 86 147 131 
288 12 147 86 
289 122 148 126 
290 150 163 124 
291 22 164 21 
292 124 143 112 
293 129 146 117 
294 45 138 80 
295 107 150 87 
296 84 163 128 
297 74 156 108 
298 112 143 113 
299 97 139 104 
300 101 154 132 
301 105 139 97 
302 78 158 135 
303 77 159 98 
304 121 144 106 
305 133 143 84 
306 133 162 113 
307 19 142 130 
308 88 150 124 
309 131 147 20 
310 106 144 107 
311 109 161 140 
312 116 151 103 
313 115 155 90 
314 127 152 121 
315 76 157 93 
316 35 156 74 
317 154 164 22 
318 42 159 77 
319 5 158 78 
320 110 154 101 
321 114 149 141 
322 9 161 149 
323 102 160 137 
324 110 164 154 
325 141 161 109 
326 149 161 141 
$EndElements
