$MeshFormat
4.1 0 8
$EndMeshFormat
$PhysicalNames
3
1 101 "outer_boundary"
2 1 "material_1"
2 2 "material_2"
$EndPhysicalNames
$Entities
8 8 2 0
1 0 0 0 0 
2 1 0 0 0 
3 0 1 0 0 
4 1 1 0 0 
5 0.6122748085708576 0.4100285748826766 0 0 
6 0.3146545802395795 0.475158608567027 0 0 
7 0.2495245465552291 0.1775383802357489 0 0 
8 0.5471447748865073 0.1124083465513985 0 0 
1 -9.999999994736442e-08 -1e-07 -1e-07 1.0000001 1e-07 1e-07 1 101 2 1 -2 
2 -1e-07 -9.999999994736442e-08 -1e-07 1e-07 1.0000001 1e-07 1 101 2 3 -1 
3 0.9999999000000001 -9.999999994736442e-08 -1e-07 1.0000001 1.0000001 1e-07 1 101 2 2 -4 
4 -9.999999994736442e-08 0.9999999000000001 -1e-07 1.0000001 1.0000001 1e-07 1 101 2 4 -3 
5 0.3146544802395795 0.4100284748826766 -1e-07 0.6122749085708575 0.475158708567027 1e-07 0 2 5 -6 
6 0.2495244465552291 0.1775382802357489 -1e-07 0.3146546802395795 0.475158708567027 1e-07 0 2 6 -7 
7 0.2495244465552291 0.1124082465513985 -1e-07 0.5471448748865072 0.1775384802357489 1e-07 0 2 7 -8 
8 0.5471446748865073 0.1124082465513985 -1e-07 0.6122749085708575 0.4100286748826766 1e-07 0 2 8 -5 
2 0.2495244465552291 0.1124082465513985 -1e-07 0.6122749085708575 0.475158708567027 1e-07 1 2 4 5 6 7 8 
3 -9.999999994736442e-08 -9.999999994736442e-08 -1e-07 1.0000001 1.0000001 1e-07 1 1 8 1 3 4 2 -5 -8 -7 -6 
$EndEntities
$Nodes
18 176 1 176
0 1 0 1
1
0 0 0
0 2 0 1
2
1 0 0
0 3 0 1
3
0 1 0
0 4 0 1
4
1 1 0
0 5 0 1
5
0.6122748085708576 0.4100285748826766 0
0 6 0 1
6
0.3146545802395795 0.475158608567027 0
0 7 0 1
7
0.2495245465552291 0.1775383802357489 0
0 8 0 1
8
0.5471447748865073 0.1124083465513985 0
1 1 0 7
9
10
11
12
13
14
15
0.1249999999999999 0 0
0.2499999999999998 0 0
0.3749999999999993 0 0
0.4999999999999988 0 0
0.6249999999999988 0 0
0.7499999999999991 0 0
0.8749999999999997 0 0
1 2 0 7
16
17
18
19
20
21
22
0 0.8750000000000001 0
0 0.7500000000000002 0
0 0.6250000000000007 0
0 0.5000000000000012 0
0 0.3750000000000012 0
0 0.2500000000000009 0
0 0.1250000000000003 0
1 3 0 7
23
24
25
26
27
28
29
1 0.1249999999999999 0
1 0.2499999999999998 0
1 0.3749999999999993 0
1 0.4999999999999988 0
1 0.6249999999999988 0
1 0.7499999999999991 0
1 0.8749999999999997 0
1 4 0 7
30
31
32
33
34
35
36
0.8750000000000001 1 0
0.7500000000000002 1 0
0.6250000000000007 1 0
0.5000000000000012 1 0
0.3750000000000012 1 0
0.2500000000000009 1 0
0.1250000000000003 1 0
1 5 0 4
37
38
39
40
0.552750762904602 0.4230545816195467 0
0.4932267172383467 0.4360805883564167 0
0.433702671572091 0.4491065950932868 0
0.3741786259058353 0.4621326018301569 0
1 6 0 4
41
42
43
44
0.3016285735027094 0.4156345629007715 0
0.2886025667658395 0.3561105172345161 0
0.2755765600289694 0.2965864715682605 0
0.2625505532920992 0.2370624259020047 0
1 7 0 4
45
46
47
48
0.3090485922214847 0.1645123734988788 0
0.3685726378877401 0.1514863667620088 0
0.4280966835539957 0.1384603600251387 0
0.4876207292202515 0.1254343532882686 0
1 8 0 4
49
50
51
52
0.5601707816233773 0.171932392217654 0
0.5731967883602473 0.2314564378839094 0
0.5862227950971174 0.2909804835501651 0
0.5992488018339875 0.3505045292164208 0
2 2 0 24
53
54
55
56
57
58
59
60
61
62
63
64
65
66
67
68
69
70
71
72
73
74
75
76
0.449987081360054 0.394784035991028 0
0.4061713349205121 0.1946084199680213 0
0.5285477935804739 0.2729243387958721 0
0.322348828475978 0.3200495127899677 0
0.5423008309182293 0.3315461548199933 0
0.4884812919184228 0.3135702462668551 0
0.4766122636533401 0.2525302039739401 0
0.4250617846796751 0.2950610189490271 0
0.3501030073125599 0.369087948404497 0
0.3499000554021945 0.2084110919970474 0
0.4666980385166802 0.1878032320715303 0
0.3220405178975198 0.2601875368613479 0
0.5197219189453334 0.2136942126575295 0
0.3951315855913982 0.4071390620838081 0
0.5059475226398723 0.3746506860197832 0
0.3859153453726489 0.2511665210702927 0
0.4095564417010617 0.3546215272561487 0
0.3781676470808947 0.3126268203415145 0
0.5131058479378813 0.1655186710022711 0
0.559164484119985 0.3759896479340507 0
0.3026348710061015 0.2115773071843746 0
0.3486935071882052 0.4220482841161546 0
0.430984678092775 0.2346035076883728 0
0.4557214900194665 0.3475295471505921 0
2 3 0 100
77
78
79
80
81
82
83
84
85
86
87
88
89
90
91
92
93
94
95
96
97
98
99
100
101
102
103
104
105
106
107
108
109
110
111
112
113
114
115
116
117
118
119
120
121
122
123
124
125
126
127
128
129
130
131
132
133
134
135
136
137
138
139
140
141
142
143
144
145
146
147
148
149
150
151
152
153
154
155
156
157
158
159
160
161
162
163
164
165
166
167
168
169
170
171
172
173
174
175
176
0.6041329395698336 0.4694562940544874 0
0.4112539582495613 0.5095334234729558 0
0.678380665063004 0.8796836849934363 0
0.6312591274116847 0.2499376079730405 0
0.6601333807618874 0.3666080441292577 0
0.3045322842985261 0.9023646004967123 0
0.8954584637012741 0.5735794505646804 0
0.2526173389499441 0.4554838748602927 0
0.2713282165231955 0.5204597902095812 0
0.886651198240175 0.181431830748456 0
0.6714712908359213 0.4316042545309832 0
0.6681567211221177 0.5039129327645117 0
0.5937389144860249 0.5438336640344787 0
0.6641202681472621 0.5829498153225043 0
0.5868184895558796 0.6235411088177161 0
0.7285132540543173 0.3827166367494418 0
0.2375749770779055 0.337167147555486 0
0.08754464566740872 0.6954984434236474 0
0.6621943972957094 0.667813742037607 0
0.5840775282243871 0.7091413290115547 0
0.5071029865483485 0.6622532658897757 0
0.5042580292721339 0.7501983789249553 0
0.427062098368479 0.7013521400654879 0
0.2006349969044838 0.2186808774941777 0
0.6188821105873249 0.1345143793424131 0
0.1920723242922022 0.4977496491216798 0
0.7389148920535327 0.4612674321365385 0
0.909500832074591 0.8122686244631796 0
0.8060059900660969 0.4091144728563537 0
0.7787171224566444 0.3215557872873995 0
0.1828858928312221 0.1515428103932173 0
0.7388801793465103 0.6270891246888626 0
0.7396837612824338 0.7154414852529313 0
0.2137698132813055 0.5755162794213314 0
0.3007156002801471 0.5843803687248499 0
0.2454549691539187 0.652803802094566 0
0.1768841378802594 0.4251705058380391 0
0.4222169018076288 0.7931953111243671 0
0.3429049512069526 0.7471810394512095 0
0.4349225707784424 0.6126702444023227 0
0.1237510342882763 0.5459426268816348 0
0.09047902005455905 0.3054319275858913 0
0.1121763162652759 0.2042668870678142 0
0.5021750557163261 0.8542666811708128 0
0.5320762969352377 0.5061272885204213 0
0.8245323572807775 0.6669058687935538 0
0.3217019893311875 0.08595089790970356 0
0.2473571518756609 0.1105361774316733 0
0.8684474877495997 0.3425169195298618 0
0.09174697132081877 0.8113253338745567 0
0.1846109335853467 0.881454654164312 0
0.4473121866767499 0.07078179254346834 0
0.8974466722498545 0.4516075282681838 0
0.3457398900069133 0.6559012271718649 0
0.8063702367904182 0.8952858449660662 0
0.8128602593181808 0.09838096810474761 0
0.6921418888584053 0.09412674949407129 0
0.7647564399119147 0.1769694332313148 0
0.5186325370162781 0.5829073145783611 0
0.2641419703974711 0.8043569799828606 0
0.09236290109807194 0.4593457248696461 0
0.09850734990189014 0.09408038333558721 0
0.3407646298584092 0.52267787442336 0
0.7051752293677762 0.3173245573965042 0
0.6182331206748145 0.1904135623067851 0
0.6442851341485549 0.3094616536392962 0
0.7390176735826075 0.5455779376695279 0
0.8143515967495718 0.5049934693236375 0
0.2435662344512722 0.3971533928116405 0
0.2165044507370684 0.2827199951764959 0
0.4083372744389451 0.8950583826087763 0
0.4654791215577944 0.4899732422497066 0
0.6637035148898065 0.763744961319176 0
0.5869392867485028 0.8092278823873555 0
0.5890409273253593 0.8983322589041982 0
0.7379591377912968 0.8083096601476607 0
0.7035324678585941 0.2405709134880744 0
0.8254550685344693 0.2442138330783076 0
0.5126387445483288 0.07263193146302266 0
0.3870538079768713 0.09342402771057151 0
0.676034661090722 0.1780082295808535 0
0.91855785335086 0.6901068216620035 0
0.9104936900037885 0.08933644250149181 0
0.3758455142576753 0.580015107500608 0
0.1853763626843657 0.743473462601959 0
0.4571359637937353 0.5490183158054521 0
0.09418577858831778 0.9039836525465321 0
0.8213886523088888 0.7611013674471042 0
0.1705795224652467 0.3464225795222606 0
0.1565716578821351 0.6375018363599548 0
0.5826345864800939 0.06894690114181756 0
0.8024480541321483 0.5836291702080525 0
0.9084936490538902 0.90849364905389 0
0.07357346756756405 0.6007885813330478 0
0.9161107509048488 0.2786325166713249 0
0.1580748612853267 0.2715044533693279 0
0.1807500789217545 0.07123187423209554 0
0.1060611162996274 0.3822741475631676 0
0.3484266764299048 0.8284312627327852 0
0.2701816083479466 0.7241052703940686 0
$EndNodes
$Elements
6 350 1 350
1 1 1 8
1 1 9 
2 9 10 
3 10 11 
4 11 12 
5 12 13 
6 13 14 
7 14 15 
8 15 2 
1 2 1 8
9 3 16 
10 16 17 
11 17 18 
12 18 19 
13 19 20 
14 20 21 
15 21 22 
16 22 1 
1 3 1 8
17 2 23 
18 23 24 
19 24 25 
20 25 26 
21 26 27 
22 27 28 
23 28 29 
24 29 4 
1 4 1 8
25 4 30 
26 30 31 
27 31 32 
28 32 33 
29 33 34 
30 34 35 
31 35 36 
32 36 3 
2 2 2 66
33 68 70 64 
34 64 70 56 
35 57 67 58 
36 61 70 69 
37 63 65 59 
38 62 68 64 
39 61 69 66 
40 67 76 58 
41 59 75 63 
42 56 70 61 
43 52 57 51 
44 57 58 55 
45 48 63 47 
46 47 63 54 
47 58 60 59 
48 39 53 38 
49 46 62 45 
50 47 54 46 
51 58 59 55 
52 54 62 46 
53 51 55 50 
54 42 61 41 
55 43 56 42 
56 56 61 42 
57 51 57 55 
58 38 67 37 
59 44 64 43 
60 50 65 49 
61 40 66 39 
62 59 65 55 
63 55 65 50 
64 43 64 56 
65 53 67 38 
66 39 66 53 
67 54 68 62 
68 8 71 48 
69 37 72 5 
70 49 71 8 
71 45 73 7 
72 5 72 52 
73 7 73 44 
74 6 74 40 
75 41 74 6 
76 60 70 68 
77 63 75 54 
78 66 69 53 
79 58 76 60 
80 60 75 59 
81 53 76 67 
82 60 76 69 
83 68 75 60 
84 40 74 66 
85 44 73 64 
86 67 72 37 
87 65 71 49 
88 62 73 45 
89 52 72 57 
90 48 71 63 
91 61 74 41 
92 64 73 62 
93 66 74 61 
94 63 71 65 
95 57 72 67 
96 69 70 60 
97 54 75 68 
98 69 76 53 
2 3 2 252
99 111 130 112 
100 22 138 119 
101 79 150 149 
102 153 154 106 
103 37 121 38 
104 22 119 21 
105 85 139 111 
106 130 176 112 
107 140 153 106 
108 9 138 1 
109 86 154 134 
110 1 138 22 
111 21 119 118 
112 33 147 120 
113 117 170 19 
114 120 151 33 
115 101 167 133 
116 134 154 153 
117 86 134 132 
118 127 161 136 
119 77 121 37 
120 19 137 117 
121 123 124 10 
122 149 152 79 
123 78 162 160 
124 139 160 111 
125 89 135 121 
126 11 123 10 
127 126 161 127 
128 91 135 89 
129 5 87 77 
130 6 139 85 
131 125 171 25 
132 141 157 80 
133 115 176 130 
134 102 137 113 
135 79 151 150 
136 87 88 77 
137 7 124 45 
138 83 129 26 
139 133 157 101 
140 93 165 146 
141 21 118 20 
142 83 158 122 
143 87 103 88 
144 78 160 139 
145 80 153 142 
146 83 144 129 
147 165 172 146 
148 25 171 24 
149 117 137 102 
150 152 164 131 
151 121 162 148 
152 80 157 153 
153 161 166 112 
154 119 172 118 
155 25 129 125 
156 133 167 13 
157 99 116 97 
158 18 94 17 
159 121 148 38 
160 24 86 23 
161 94 126 17 
162 27 83 26 
163 97 135 91 
164 129 144 105 
165 103 143 88 
166 35 82 34 
167 11 156 123 
168 14 133 13 
169 135 162 121 
170 34 147 33 
171 32 79 31 
172 131 164 104 
173 35 127 82 
174 132 134 133 
175 45 124 123 
176 160 162 116 
177 33 151 32 
178 142 153 140 
179 19 170 18 
180 27 158 83 
181 122 168 83 
182 26 129 25 
183 116 135 97 
184 17 126 16 
185 29 104 28 
186 79 131 31 
187 89 121 77 
188 12 128 11 
189 105 144 103 
190 36 127 35 
191 104 164 158 
192 101 157 141 
193 99 130 116 
194 145 165 93 
195 20 137 19 
196 127 136 82 
197 96 97 91 
198 88 89 77 
199 31 131 30 
200 106 154 125 
201 15 132 14 
202 115 130 99 
203 98 99 97 
204 94 166 161 
205 118 174 20 
206 104 158 28 
207 3 163 36 
208 12 167 155 
209 132 133 14 
210 16 163 3 
211 114 115 99 
212 20 174 137 
213 134 157 133 
214 82 147 34 
215 5 77 37 
216 85 111 110 
217 13 167 12 
218 158 164 122 
219 39 78 40 
220 2 159 15 
221 96 98 97 
222 23 159 2 
223 88 143 90 
224 98 114 99 
225 18 170 94 
226 10 173 9 
227 4 169 29 
228 30 169 4 
229 32 151 79 
230 50 80 51 
231 92 140 106 
232 92 106 105 
233 51 142 52 
234 40 139 6 
235 137 174 113 
236 52 81 5 
237 90 91 89 
238 79 152 131 
239 81 140 92 
240 95 96 91 
241 111 160 130 
242 113 165 145 
243 155 167 8 
244 38 148 39 
245 24 171 86 
246 98 120 114 
247 90 95 91 
248 128 156 11 
249 90 108 95 
250 94 161 126 
251 6 84 41 
252 88 90 89 
253 124 173 10 
254 113 174 165 
255 41 145 42 
256 112 176 161 
257 108 122 109 
258 49 141 50 
259 42 93 43 
260 108 109 95 
261 43 146 44 
262 103 144 143 
263 44 100 7 
264 90 143 108 
265 125 129 105 
266 111 112 110 
267 127 163 126 
268 6 85 84 
269 86 159 23 
270 39 148 78 
271 106 125 105 
272 85 110 102 
273 120 147 114 
274 115 175 136 
275 78 139 40 
276 102 113 84 
277 81 87 5 
278 8 101 49 
279 132 159 86 
280 9 173 138 
281 81 142 140 
282 92 103 87 
283 96 150 98 
284 92 105 103 
285 80 142 51 
286 95 149 96 
287 126 163 16 
288 52 142 81 
289 118 172 165 
290 130 160 116 
291 109 149 95 
292 81 92 87 
293 136 176 115 
294 36 163 127 
295 154 171 125 
296 98 150 120 
297 28 158 27 
298 110 117 102 
299 131 169 30 
300 50 141 80 
301 149 150 96 
302 85 102 84 
303 116 162 135 
304 29 169 104 
305 84 145 41 
306 113 145 84 
307 109 152 149 
308 136 175 82 
309 45 123 46 
310 42 145 93 
311 144 168 143 
312 104 169 131 
313 147 175 114 
314 150 151 120 
315 15 159 132 
316 46 156 47 
317 93 146 43 
318 109 164 152 
319 44 146 100 
320 119 138 107 
321 47 128 48 
322 143 168 108 
323 48 155 8 
324 110 166 117 
325 100 107 7 
326 101 141 49 
327 122 164 109 
328 107 124 7 
329 148 162 78 
330 112 166 110 
331 82 175 147 
332 100 119 107 
333 108 168 122 
334 12 155 128 
335 8 167 101 
336 83 168 144 
337 114 175 115 
338 161 176 136 
339 153 157 134 
340 138 173 107 
341 166 170 117 
342 123 156 46 
343 100 172 119 
344 146 172 100 
345 86 171 154 
346 47 156 128 
347 128 155 48 
348 107 173 124 
349 94 170 166 
350 165 174 118 
$EndElements
