$MeshFormat
4.1 0 8
$EndMeshFormat
$PhysicalNames
3
1 101 "outer_boundary"
2 1 "material_1"
2 2 "material_2"
$EndPhysicalNames
$Entities
7 7 2 0
1 0 0 0 0 
2 1 0 0 0 
3 0 1 0 0 
4 1 1 0 0 
5 0.6056922275386593 0.3355329424306315 0 0 
6 0.8352679577006662 0.1578236253506189 0 0 
7 0.8743808757001376 0.4454966983032846 0 0 
1 -9.999999994736442e-08 -1e-07 -1e-07 1.0000001 1e-07 1e-07 1 101 2 1 -2 
2 -1e-07 -9.999999994736442e-08 -1e-07 1e-07 1.0000001 1e-07 1 101 2 3 -1 
3 0.9999999000000001 -9.999999994736442e-08 -1e-07 1.0000001 1.0000001 1e-07 1 101 2 2 -4 
4 -9.999999994736442e-08 0.9999999000000001 -1e-07 1.0000001 1.0000001 1e-07 1 101 2 4 -3 
5 0.6056921275386593 0.1578235253506189 -1e-07 0.8352680577006661 0.3355330424306315 1e-07 0 2 5 -6 
6 0.8352678577006662 0.1578235253506189 -1e-07 0.8743809757001375 0.4454967983032846 1e-07 0 2 6 -7 
7 0.6056921275386593 0.3355328424306315 -1e-07 0.8743809757001375 0.4454967983032846 1e-07 0 2 7 -5 
2 0.6056921275386593 0.1578235253506189 -1e-07 0.8743809757001375 0.4454967983032846 1e-07 1 2 3 5 6 7 
3 -9.999999994736442e-08 -9.999999994736442e-08 -1e-07 1.0000001 1.0000001 1e-07 1 1 7 1 3 4 2 -5 -7 -6 
$EndEntities
$Nodes
16 157 1 157
0 1 0 1
1
0 0 0
0 2 0 1
2
1 0 0
0 3 0 1
3
0 1 0
0 4 0 1
4
1 1 0
0 5 0 1
5
0.6056922275386593 0.3355329424306315 0
0 6 0 1
6
0.8352679577006662 0.1578236253506189 0
0 7 0 1
7
0.8743808757001376 0.4454966983032846 0
1 1 0 7
8
9
10
11
12
13
14
0.1249999999999999 0 0
0.2499999999999998 0 0
0.3749999999999993 0 0
0.4999999999999988 0 0
0.6249999999999988 0 0
0.7499999999999991 0 0
0.8749999999999997 0 0
1 2 0 7
15
16
17
18
19
20
21
0 0.8750000000000001 0
0 0.7500000000000002 0
0 0.6250000000000007 0
0 0.5000000000000012 0
0 0.3750000000000012 0
0 0.2500000000000009 0
0 0.1250000000000003 0
1 3 0 7
22
23
24
25
26
27
28
1 0.1249999999999999 0
1 0.2499999999999998 0
1 0.3749999999999993 0
1 0.4999999999999988 0
1 0.6249999999999988 0
1 0.7499999999999991 0
1 0.8749999999999997 0
1 4 0 7
29
30
31
32
33
34
35
0.8750000000000001 1 0
0.7500000000000002 1 0
0.6250000000000007 1 0
0.5000000000000012 1 0
0.3750000000000012 1 0
0.2500000000000009 1 0
0.1250000000000003 1 0
1 5 0 4
36
37
38
39
0.6516073735710607 0.299991079014629 0
0.6975225196034621 0.2644492155986264 0
0.7434376656358634 0.228907352182624 0
0.7893528116682648 0.1933654887666215 0
1 6 0 4
40
41
42
43
0.8430905413005605 0.2153582399411521 0
0.8509131249004548 0.2728928545316852 0
0.858735708500349 0.3304274691222183 0
0.8665582921002433 0.3879620837127514 0
1 7 0 4
44
45
46
47
0.8206431460678418 0.4235039471287539 0
0.7669054164355462 0.4015111959542234 0
0.7131676868032506 0.3795184447796928 0
0.659429957170955 0.3575256936051622 0
2 2 0 6
48
49
50
51
52
53
0.7512602492357577 0.2864419667731571 0
0.7053451032033563 0.3219838301891596 0
0.8128205624679476 0.3659693325382208 0
0.7971753952681591 0.2509001033571546 0
0.8049979788680534 0.3084347179476877 0
0.7590828328356519 0.3439765813636902 0
2 3 0 104
54
55
56
57
58
59
60
61
62
63
64
65
66
67
68
69
70
71
72
73
74
75
76
77
78
79
80
81
82
83
84
85
86
87
88
89
90
91
92
93
94
95
96
97
98
99
100
101
102
103
104
105
106
107
108
109
110
111
112
113
114
115
116
117
118
119
120
121
122
123
124
125
126
127
128
129
130
131
132
133
134
135
136
137
138
139
140
141
142
143
144
145
146
147
148
149
150
151
152
153
154
155
156
157
0.6137539162681436 0.3953672542236171 0
0.774903040934258 0.4586181105075668 0
0.5552931828658649 0.3712843060446866 0
0.5643860912253058 0.4379264108601406 0
0.4989970942362761 0.409806195100001 0
0.5093670504222062 0.4849451764621212 0
0.4381792513310154 0.4545772956618425 0
0.4481205792506012 0.5352964019616865 0
0.5255564068828517 0.5654364003137039 0
0.429988341694623 0.3672784302546734 0
0.4600339023381818 0.6211667622593545 0
0.544755414732784 0.6508096876839783 0
0.3759263700830291 0.5030981719623823 0
0.5965346068212386 0.2720580718433415 0
0.8895987145444768 0.6773937823761474 0
0.1053945978097096 0.691318303535255 0
0.1133771656991405 0.313390473491038 0
0.3151783211376767 0.8977219114623994 0
0.6126421779852455 0.5816443350320987 0
0.6299521284324511 0.6795235830394387 0
0.3212891184046367 0.1071126846742504 0
0.6975759995009227 0.618589238939971 0
0.6929788097562681 0.2132471360558095 0
0.473769266314458 0.7129945353925657 0
0.3842388098280501 0.678551233173018 0
0.7185369260460961 0.7121813778591594 0
0.6222330799335036 0.4571503841234115 0
0.654091830874856 0.7755283765242442 0
0.8115643287679613 0.9030600994835348 0
0.5679349808330693 0.1069408434769915 0
0.9085811588377489 0.5782369446082938 0
0.7815302280683705 0.1358308741760883 0
0.3785425500099804 0.7941209260073659 0
0.2854539943682133 0.723811514938959 0
0.2883819824268356 0.6350637738093718 0
0.4967817992468216 0.8105842276284195 0
0.9099437736643825 0.1832948286997336 0
0.6850797562882658 0.5401821401118363 0
0.7633542053167155 0.5639897340545791 0
0.6776968458107624 0.08651063122340519 0
0.4413479926974548 0.1020373943894262 0
0.3834070726500324 0.2022465323661157 0
0.2759863040946727 0.2133295278427192 0
0.3462511506457412 0.3130638081114758 0
0.4941842754602978 0.1883588705175266 0
0.2007382926208368 0.1248601726264221 0
0.6771792016432371 0.8859882954797875 0
0.888935078341208 0.1081785777463505 0
0.2331985898376844 0.3130784185277797 0
0.2823837163011087 0.402458001702022 0
0.1868987971150997 0.4079828473837244 0
0.2392156362982089 0.4863987139993008 0
0.14032463426047 0.5036322828020614 0
0.4476477651706876 0.2764203432011862 0
0.1911179662635636 0.8830265936824684 0
0.7872244665048482 0.6534042119908274 0
0.9198250904110506 0.3030152558443891 0
0.8814255705494894 0.8083211078674224 0
0.5827958722153941 0.1997583226065089 0
0.1010202509944657 0.1905143495450169 0
0.5496818342605393 0.9022359521745011 0
0.09724475324872284 0.8095703950660951 0
0.668210501573036 0.4164536896682535 0
0.8286744523014371 0.4820598768012235 0
0.7217981634833744 0.4374986875823026 0
0.4325546286098012 0.9003776421292909 0
0.6437847899711664 0.2424564644240959 0
0.4931954338831398 0.3383846922315999 0
0.1908870551936116 0.7655460232903031 0
0.5773175910644417 0.5108573929978034 0
0.382949222599325 0.5866739288183523 0
0.2129041374596737 0.5728776158973542 0
0.7503093819711916 0.8101349820454016 0
0.8100129195089063 0.7341652421129834 0
0.5623665757355278 0.7411507961030912 0
0.5579151535598387 0.3132899476551971 0
0.7277907757791614 0.1610668728503828 0
0.9230307045263844 0.4278713372256839 0
0.9047545060552897 0.2449122358033919 0
0.9136299591076056 0.3648552291810084 0
0.7314718293092701 0.4970822087225802 0
0.8945859624184118 0.4967063040947762 0
0.8351335968228284 0.5438076161485575 0
0.3670194555428276 0.4220303567067967 0
0.08812011941494208 0.4200011207353653 0
0.5287121845184327 0.2647117080092267 0
0.3019093599251799 0.5414771361380075 0
0.09718232904826452 0.5911193456378204 0
0.2642725593666878 0.8158679932898414 0
0.107173026637795 0.09621451028827172 0
0.9084936490538906 0.9084936490538905 0
0.6766322620000856 0.4766584577940308 0
0.09150635094610998 0.9084936490538901 0
0.1848330210090212 0.2336209408643681 0
0.6467260089801637 0.1637846730451759 0
0.8123050474284836 0.08058889551046605 0
0.7479309911440135 0.08962826647711708 0
0.8367784284053236 0.6033664578356811 0
0.1967006827177181 0.6632894295181773 0
0.7867074249369018 0.5091115092469014 0
0.3132909076300708 0.4710924761017019 0
0.5880202483521964 0.8230975295820087 0
0.6337007642996672 0.5128085690243974 0
0.944204718338745 0.06035441042683048 0
$EndNodes
$Elements
6 312 1 312
1 1 1 8
1 1 8 
2 8 9 
3 9 10 
4 10 11 
5 11 12 
6 12 13 
7 13 14 
8 14 2 
1 2 1 8
9 3 15 
10 15 16 
11 16 17 
12 17 18 
13 18 19 
14 19 20 
15 20 21 
16 21 1 
1 3 1 8
17 2 22 
18 22 23 
19 23 24 
20 24 25 
21 25 26 
22 26 27 
23 27 28 
24 28 4 
1 4 1 8
25 4 29 
26 29 30 
27 30 31 
28 31 32 
29 32 33 
30 33 34 
31 34 35 
32 35 3 
2 2 2 25
33 6 40 39 
34 44 43 7 
35 5 36 47 
36 40 51 39 
37 36 49 47 
38 51 52 48 
39 37 49 36 
40 39 51 38 
41 45 53 50 
42 41 52 51 
43 52 53 48 
44 45 50 44 
45 46 53 45 
46 47 49 46 
47 50 52 42 
48 42 52 41 
49 44 50 43 
50 38 48 37 
51 43 50 42 
52 49 53 46 
53 38 51 48 
54 48 53 49 
55 41 51 40 
56 50 53 52 
57 48 49 37 
2 3 2 255
58 24 133 110 
59 25 135 131 
60 71 142 86 
61 86 142 87 
62 63 137 97 
63 97 107 63 
64 23 90 22 
65 84 135 25 
66 114 119 89 
67 86 119 71 
68 32 119 114 
69 94 95 74 
70 68 84 26 
71 121 139 129 
72 94 98 95 
73 85 149 6 
74 9 99 8 
75 10 94 74 
76 126 127 111 
77 97 137 103 
78 83 98 94 
79 26 84 25 
80 82 126 111 
81 90 101 22 
82 98 107 95 
83 107 139 121 
84 24 110 23 
85 100 155 81 
86 68 151 84 
87 125 152 141 
88 13 150 93 
89 12 93 83 
90 83 94 11 
91 12 83 11 
92 106 141 18 
93 95 107 97 
94 115 122 108 
95 122 142 108 
96 72 91 75 
97 141 152 69 
98 6 149 101 
99 102 104 70 
100 74 99 9 
101 18 138 106 
102 114 155 100 
103 99 143 8 
104 13 93 12 
105 27 68 26 
106 34 108 71 
107 1 143 21 
108 91 92 75 
109 95 97 96 
110 83 112 98 
111 76 148 130 
112 112 120 67 
113 89 119 86 
114 95 96 74 
115 30 100 82 
116 10 74 9 
117 27 111 68 
118 11 94 10 
119 34 71 33 
120 17 69 16 
121 25 131 24 
122 20 70 19 
123 97 103 102 
124 30 82 29 
125 8 143 1 
126 109 151 68 
127 31 100 30 
128 130 148 93 
129 62 123 72 
130 35 108 34 
131 62 72 65 
132 81 126 100 
133 32 114 31 
134 93 148 83 
135 98 139 107 
136 97 102 96 
137 69 115 16 
138 88 124 78 
139 20 113 70 
140 28 111 27 
141 103 105 104 
142 67 139 112 
143 31 114 100 
144 136 151 92 
145 21 113 20 
146 16 115 15 
147 110 132 23 
148 33 119 32 
149 87 88 78 
150 72 75 73 
151 80 123 57 
152 103 104 102 
153 68 127 109 
154 104 138 70 
155 96 99 74 
156 71 119 33 
157 72 156 91 
158 91 134 92 
159 18 141 17 
160 93 150 130 
161 105 106 104 
162 79 126 81 
163 123 156 72 
164 47 54 5 
165 57 123 59 
166 107 121 63 
167 44 55 45 
168 111 127 68 
169 45 118 46 
170 46 116 47 
171 59 62 61 
172 72 73 65 
173 87 152 88 
174 62 65 64 
175 86 87 78 
176 77 78 64 
177 70 147 102 
178 54 80 57 
179 77 89 86 
180 4 144 28 
181 29 144 4 
182 3 146 35 
183 15 146 3 
184 100 126 82 
185 77 86 78 
186 92 151 109 
187 92 109 75 
188 120 148 76 
189 65 77 64 
190 62 64 61 
191 112 148 120 
192 83 148 112 
193 58 121 56 
194 69 122 115 
195 75 79 73 
196 70 138 19 
197 54 56 5 
198 7 117 44 
199 79 81 73 
200 5 67 36 
201 59 61 60 
202 61 66 60 
203 47 116 54 
204 19 138 18 
205 122 152 87 
206 59 123 62 
207 59 60 58 
208 55 118 45 
209 46 118 116 
210 75 109 79 
211 54 116 80 
212 57 59 58 
213 36 120 37 
214 60 63 58 
215 108 142 71 
216 57 58 56 
217 54 57 56 
218 130 150 85 
219 77 128 89 
220 78 124 64 
221 105 125 106 
222 37 76 38 
223 105 140 125 
224 101 149 14 
225 88 140 124 
226 125 140 88 
227 65 128 77 
228 17 141 69 
229 21 143 113 
230 96 147 99 
231 44 117 55 
232 113 147 70 
233 14 149 13 
234 73 128 65 
235 64 124 61 
236 99 147 113 
237 7 135 117 
238 38 130 39 
239 125 141 106 
240 81 128 73 
241 61 124 66 
242 22 157 2 
243 14 157 101 
244 28 144 111 
245 101 157 22 
246 66 137 60 
247 103 154 105 
248 63 121 58 
249 109 127 79 
250 82 144 29 
251 112 139 98 
252 115 146 15 
253 39 85 6 
254 111 144 82 
255 79 127 126 
256 106 138 104 
257 55 134 118 
258 2 157 14 
259 6 90 40 
260 35 146 108 
261 89 155 114 
262 40 132 41 
263 56 129 5 
264 121 129 56 
265 67 120 36 
266 108 146 115 
267 60 137 63 
268 41 110 42 
269 113 143 99 
270 42 133 43 
271 37 120 76 
272 69 152 122 
273 43 131 7 
274 5 129 67 
275 135 136 117 
276 102 147 96 
277 118 145 116 
278 87 142 122 
279 76 130 38 
280 124 140 66 
281 129 139 67 
282 116 145 80 
283 80 156 123 
284 131 133 24 
285 140 154 66 
286 134 153 92 
287 39 130 85 
288 88 152 125 
289 55 153 134 
290 134 145 118 
291 6 101 90 
292 105 154 140 
293 136 153 117 
294 85 150 149 
295 92 153 136 
296 117 153 55 
297 90 132 40 
298 128 155 89 
299 84 136 135 
300 91 145 134 
301 41 132 110 
302 145 156 80 
303 91 156 145 
304 110 133 42 
305 43 133 131 
306 66 154 137 
307 81 155 128 
308 84 151 136 
309 137 154 103 
310 149 150 13 
311 131 135 7 
312 23 132 90 
$EndElements
