$MeshFormat
4.1 0 8
$EndMeshFormat
$PhysicalNames
3
1 101 "outer_boundary"
2 1 "material_1"
2 2 "material_2"
$EndPhysicalNames
$Entities
8 8 2 0
1 0 0 0 0 
2 1 0 0 0 
3 0 1 0 0 
4 1 1 0 0 
5 0.5532894293225997 0.7346975460134852 0 0 
6 0.2802012169319127 0.7707155796701823 0 0 
7 0.2441831832752156 0.4976273672794953 0 0 
8 0.5172713956659026 0.4616093336227982 0 0 
1 -9.999999994736442e-08 -1e-07 -1e-07 1.0000001 1e-07 1e-07 1 101 2 1 -2 
2 -1e-07 -9.999999994736442e-08 -1e-07 1e-07 1.0000001 1e-07 1 101 2 3 -1 
3 0.9999999000000001 -9.999999994736442e-08 -1e-07 1.0000001 1.0000001 1e-07 1 101 2 2 -4 
4 -9.999999994736442e-08 0.9999999000000001 -1e-07 1.0000001 1.0000001 1e-07 1 101 2 4 -3 
5 0.2802011169319127 0.7346974460134853 -1e-07 0.5532895293225997 0.7707156796701823 1e-07 0 2 5 -6 
6 0.2441830832752156 0.4976272672794953 -1e-07 0.2802013169319127 0.7707156796701823 1e-07 0 2 6 -7 
7 0.2441830832752156 0.4616092336227982 -1e-07 0.5172714956659026 0.4976274672794953 1e-07 0 2 7 -8 
8 0.5172712956659027 0.4616092336227982 -1e-07 0.5532895293225997 0.7346976460134852 1e-07 0 2 8 -5 
2 0.2441830832752156 0.4616092336227982 -1e-07 0.5532895293225997 0.7707156796701823 1e-07 1 2 4 5 6 7 8 
3 -9.999999994736442e-08 -9.999999994736442e-08 -1e-07 1.0000001 1.0000001 1e-07 1 1 8 1 3 4 2 -5 -8 -7 -6 
$EndEntities
$Nodes
18 152 1 152
0 1 0 1
1
0 0 0
0 2 0 1
2
1 0 0
0 3 0 1
3
0 1 0
0 4 0 1
4
1 1 0
0 5 0 1
5
0.5532894293225997 0.7346975460134852 0
0 6 0 1
6
0.2802012169319127 0.7707155796701823 0
0 7 0 1
7
0.2441831832752156 0.4976273672794953 0
0 8 0 1
8
0.5172713956659026 0.4616093336227982 0
1 1 0 7
9
10
11
12
13
14
15
0.1249999999999999 0 0
0.2499999999999998 0 0
0.3749999999999993 0 0
0.4999999999999988 0 0
0.6249999999999988 0 0
0.7499999999999991 0 0
0.8749999999999997 0 0
1 2 0 7
16
17
18
19
20
21
22
0 0.8750000000000001 0
0 0.7500000000000002 0
0 0.6250000000000007 0
0 0.5000000000000012 0
0 0.3750000000000012 0
0 0.2500000000000009 0
0 0.1250000000000003 0
1 3 0 7
23
24
25
26
27
28
29
1 0.1249999999999999 0
1 0.2499999999999998 0
1 0.3749999999999993 0
1 0.4999999999999988 0
1 0.6249999999999988 0
1 0.7499999999999991 0
1 0.8749999999999997 0
1 4 0 7
30
31
32
33
34
35
36
0.8750000000000001 1 0
0.7500000000000002 1 0
0.6250000000000007 1 0
0.5000000000000012 1 0
0.3750000000000012 1 0
0.2500000000000009 1 0
0.1250000000000003 1 0
1 5 0 3
37
38
39
0.4850173762249278 0.7437020544276596 0
0.4167453231272561 0.7527065628418338 0
0.3484732700295844 0.7617110712560081 0
1 6 0 3
40
41
42
0.2711967085177384 0.7024435265725105 0
0.2621922001035641 0.6341714734748387 0
0.2531876916893898 0.565899420377167 0
1 7 0 3
43
44
45
0.3124552363728875 0.488622858865321 0
0.3807272894705592 0.4796183504511468 0
0.4489993425682309 0.4706138420369725 0
1 8 0 3
46
47
48
0.526275904080077 0.5298813867204701 0
0.5352804124942512 0.5981534398181418 0
0.5442849209084255 0.6664254929158135 0
2 2 0 14
49
50
51
52
53
54
55
56
57
58
59
60
61
62
0.4437953915096251 0.6958080178673701 0
0.4721543854461054 0.5687190674152048 0
0.3542837332947304 0.541741754343146 0
0.3358172795435668 0.6563013633127122 0
0.421054577875115 0.5292896331610515 0
0.3977872065347393 0.5970637070097301 0
0.3167617921794196 0.5912152832534499 0
0.3786911986793277 0.7052902405383716 0
0.4705356048486707 0.6383642335192261 0
0.4053253362231859 0.658565512449482 0
0.4967190600617068 0.6913106920653064 0
0.3007535525361085 0.5410142212276742 0
0.4738845417177238 0.5181797028836912 0
0.322875934740426 0.7192923562699569 0
2 3 0 90
63
64
65
66
67
68
69
70
71
72
73
74
75
76
77
78
79
80
81
82
83
84
85
86
87
88
89
90
91
92
93
94
95
96
97
98
99
100
101
102
103
104
105
106
107
108
109
110
111
112
113
114
115
116
117
118
119
120
121
122
123
124
125
126
127
128
129
130
131
132
133
134
135
136
137
138
139
140
141
142
143
144
145
146
147
148
149
150
151
152
0.3343687126271174 0.4179630740589355 0
0.5817738987816202 0.493352381695333 0
0.569697124050164 0.4172781774560815 0
0.6110924437743528 0.6905768669679884 0
0.6454937691523285 0.4507766243989106 0
0.6348359354916655 0.3612624807370199 0
0.5484060437970673 0.3359739985269789 0
0.3171962871019411 0.09690308690640864 0
0.8795756973930302 0.6808956051290833 0
0.6216758798036066 0.7724678258098643 0
0.7173562825546284 0.3957192784524313 0
0.7054903748810859 0.3006814253079383 0
0.7251862005899559 0.4876184715657078 0
0.1152270994652056 0.2966275635488163 0
0.5493434682136245 0.8090714857333186 0
0.2066977855574924 0.6820844749823467 0
0.6923793798969112 0.7191392702989714 0
0.5543624801970467 0.09204198454841278 0
0.8063478684955676 0.08921344424889072 0
0.1809054501622528 0.5417150519553491 0
0.6956439402603987 0.8026365276564387 0
0.3828687391205945 0.8278420256915224 0
0.8137723851243104 0.348683224087756 0
0.1088052707625381 0.8131156995103077 0
0.6718535345821319 0.636907377749969 0
0.1728944251895095 0.4598803191917844 0
0.4847592234559601 0.397577828939478 0
0.4682718652921516 0.315026199167709 0
0.2541181939354539 0.4315251846112513 0
0.2879280698151401 0.3535452359256901 0
0.7501202046240368 0.662714824379766 0
0.5260434504839757 0.2492212150367524 0
0.4325537270661767 0.2251633583341837 0
0.8202039355368855 0.9036493843789289 0
0.8917468245269456 0.4374999999999991 0
0.4348537711971062 0.1079188115251271 0
0.7835869090332697 0.24326378946597 0
0.685451817482406 0.2023980227081545 0
0.09986190999901473 0.7020340981408364 0
0.8984528337411197 0.5618871584320656 0
0.371995357384167 0.3512187664283244 0
0.3413676620292404 0.2669174009098777 0
0.2321364696359145 0.2812723502482988 0
0.467817851741299 0.8231941405694529 0
0.3111291982818442 0.8971082442297198 0
0.1902774066482266 0.9036437357761014 0
0.1027201299783069 0.1810046951827963 0
0.8841415564345199 0.8117450354684996 0
0.101350986036952 0.5968595216178341 0
0.1961423341079395 0.1097529000969897 0
0.4283100824710385 0.907446188836681 0
0.8821806688061686 0.2792595183239597 0
0.7332426213986527 0.5754868729595817 0
0.6485446941267474 0.5465308649112928 0
0.5330493894924302 0.9030332079216694 0
0.6240594329001167 0.8632580731088509 0
0.4070651829841294 0.4159907638929559 0
0.598966481007092 0.6213772076666713 0
0.7974576980386306 0.7496068520652945 0
0.225741415386606 0.745350969259275 0
0.1949558605625303 0.6098240073704295 0
0.3155600683067846 0.8200522574887634 0
0.8097392934928604 0.5183601328819952 0
0.09377676056443074 0.4145661211980634 0
0.614012087243993 0.273042641131416 0
0.6822025261078022 0.1013238067203007 0
0.7964750118705622 0.4339763306461049 0
0.2235664377656857 0.8175096450342944 0
0.1097855243906291 0.5026042027926064 0
0.2838953136676706 0.1962647976369863 0
0.7147237093112231 0.8985572908187465 0
0.5781682780979576 0.5578590561623819 0
0.1926801697676092 0.3729027957873174 0
0.5036713669152536 0.1708459293537923 0
0.08481653548215301 0.9183518870572818 0
0.8142261301299401 0.5998689187564984 0
0.8722889009925416 0.1804920703567409 0
0.1860242693710075 0.2129844613427774 0
0.361973352212427 0.1786334910625167 0
0.9135804706972497 0.9133097508876558 0
0.5942906214050796 0.1814789332498049 0
0.08872694681715432 0.08571997033863499 0
0.9090751007520709 0.08823551378841948 0
0.1446146326443559 0.6496789636918084 0
0.7798629619887902 0.8299706585606328 0
0.4060204130360441 0.293256536755697 0
0.1621661047262112 0.7404021117509247 0
0.9171808566243982 0.3565530358341249 0
0.7608827475723765 0.1637773060750803 0
0.435085541980072 0.3651196063883174 0
$EndNodes
$Elements
6 302 1 302
1 1 1 8
1 1 9 
2 9 10 
3 10 11 
4 11 12 
5 12 13 
6 13 14 
7 14 15 
8 15 2 
1 2 1 8
9 3 16 
10 16 17 
11 17 18 
12 18 19 
13 19 20 
14 20 21 
15 21 22 
16 22 1 
1 3 1 8
17 2 23 
18 23 24 
19 24 25 
20 25 26 
21 26 27 
22 27 28 
23 28 29 
24 29 4 
1 4 1 8
25 4 30 
26 30 31 
27 31 32 
28 32 33 
29 33 34 
30 34 35 
31 35 36 
32 36 3 
2 2 2 42
33 52 55 54 
34 50 57 54 
35 54 58 52 
36 57 58 54 
37 54 55 51 
38 50 54 53 
39 49 58 57 
40 41 52 40 
41 47 50 46 
42 44 51 43 
43 38 49 37 
44 52 58 56 
45 45 53 44 
46 39 56 38 
47 48 57 47 
48 42 55 41 
49 53 54 51 
50 38 56 49 
51 41 55 52 
52 44 53 51 
53 47 57 50 
54 37 59 5 
55 43 60 7 
56 6 62 39 
57 46 61 8 
58 8 61 45 
59 5 59 48 
60 40 62 6 
61 7 60 42 
62 42 60 55 
63 48 59 57 
64 39 62 56 
65 45 61 53 
66 49 59 37 
67 52 62 40 
68 51 60 43 
69 50 61 46 
70 57 59 49 
71 53 61 50 
72 55 60 51 
73 56 62 52 
74 56 58 49 
2 3 2 228
75 93 138 71 
76 43 91 63 
77 71 121 93 
78 91 135 92 
79 65 89 69 
80 79 121 83 
81 76 140 105 
82 92 135 105 
83 24 139 23 
84 7 91 43 
85 107 124 84 
86 105 135 76 
87 93 121 79 
88 107 130 124 
89 89 90 69 
90 67 116 64 
91 5 77 37 
92 75 116 67 
93 37 106 38 
94 8 89 65 
95 100 143 128 
96 109 140 76 
97 19 131 111 
98 114 139 24 
99 84 113 107 
100 128 143 80 
101 91 92 63 
102 77 106 37 
103 97 129 85 
104 86 130 108 
105 139 145 23 
106 118 133 32 
107 108 130 107 
108 117 118 32 
109 80 98 12 
110 95 148 104 
111 26 102 97 
112 21 109 76 
113 19 111 18 
114 32 133 31 
115 85 150 97 
116 38 106 84 
117 17 86 16 
118 33 117 32 
119 121 147 83 
120 126 131 19 
121 113 117 33 
122 72 118 77 
123 124 130 6 
124 102 125 97 
125 83 118 72 
126 82 123 111 
127 17 101 86 
128 34 113 33 
129 21 76 20 
130 71 102 27 
131 11 98 70 
132 104 141 95 
133 86 149 130 
134 115 116 75 
135 28 71 27 
136 78 149 146 
137 16 137 3 
138 11 70 10 
139 31 96 30 
140 13 80 12 
141 70 132 112 
142 18 111 101 
143 107 113 34 
144 26 97 25 
145 22 109 21 
146 18 101 17 
147 28 110 71 
148 15 81 14 
149 87 120 116 
150 71 138 102 
151 70 112 10 
152 12 98 11 
153 13 128 80 
154 27 102 26 
155 87 116 115 
156 35 108 107 
157 35 107 34 
158 80 136 98 
159 3 137 36 
160 36 108 35 
161 81 128 14 
162 95 141 98 
163 20 126 19 
164 92 103 63 
165 29 110 28 
166 10 112 9 
167 98 136 95 
168 69 127 68 
169 132 140 112 
170 30 142 4 
171 1 144 22 
172 116 134 64 
173 24 150 114 
174 68 127 74 
175 122 149 78 
176 88 131 126 
177 108 137 86 
178 96 147 110 
179 4 142 29 
180 110 121 71 
181 9 144 1 
182 106 117 113 
183 101 149 86 
184 76 126 20 
185 120 134 116 
186 90 94 69 
187 25 150 24 
188 110 147 121 
189 86 137 16 
190 74 100 99 
191 111 131 82 
192 66 87 79 
193 130 149 122 
194 43 63 44 
195 8 64 46 
196 48 66 5 
197 126 135 88 
198 31 133 96 
199 47 120 48 
200 65 69 68 
201 2 145 15 
202 23 145 2 
203 87 115 93 
204 89 152 90 
205 73 75 67 
206 44 119 45 
207 90 95 94 
208 125 129 97 
209 114 150 85 
210 88 135 91 
211 94 127 69 
212 45 89 8 
213 99 114 85 
214 98 141 70 
215 74 127 100 
216 103 119 63 
217 74 99 85 
218 14 128 13 
219 92 104 103 
220 75 125 115 
221 81 151 128 
222 6 122 40 
223 132 141 104 
224 88 91 7 
225 40 78 41 
226 87 93 79 
227 68 74 73 
228 41 123 42 
229 8 65 64 
230 68 73 67 
231 74 85 73 
232 42 82 7 
233 65 68 67 
234 38 84 39 
235 106 113 84 
236 92 105 104 
237 39 124 6 
238 36 137 108 
239 66 120 87 
240 48 120 66 
241 63 119 44 
242 146 149 101 
243 65 67 64 
244 96 142 30 
245 77 118 117 
246 111 146 101 
247 22 144 109 
248 73 129 75 
249 45 119 89 
250 77 117 106 
251 46 134 47 
252 64 134 46 
253 79 83 72 
254 112 140 109 
255 66 79 72 
256 66 72 5 
257 97 150 25 
258 47 134 120 
259 123 146 111 
260 72 77 5 
261 82 88 7 
262 75 129 125 
263 15 145 81 
264 85 129 73 
265 83 133 118 
266 29 142 110 
267 105 132 104 
268 110 142 96 
269 112 144 9 
270 6 130 122 
271 109 144 112 
272 127 143 100 
273 40 122 78 
274 78 123 41 
275 42 123 82 
276 95 136 94 
277 82 131 88 
278 84 124 39 
279 128 151 100 
280 76 135 126 
281 115 138 93 
282 99 139 114 
283 125 138 115 
284 90 148 95 
285 94 143 127 
286 99 151 139 
287 102 138 125 
288 104 148 103 
289 105 140 132 
290 81 145 139 
291 136 143 94 
292 139 151 81 
293 83 147 133 
294 100 151 99 
295 148 152 103 
296 70 141 132 
297 90 152 148 
298 80 143 136 
299 78 146 123 
300 103 152 119 
301 133 147 96 
302 119 152 89 
$EndElements
