$MeshFormat
4.1 0 8
$EndMeshFormat
$PhysicalNames
3
1 101 "outer_boundary"
2 1 "material_1"
2 2 "material_2"
$EndPhysicalNames
$Entities
7 7 2 0
1 0 0 0 0 
2 1 0 0 0 
3 0 1 0 0 
4 1 1 0 0 
5 0.1760611756361906 0.3832723448784379 0 0 
6 0.3181940978478203 0.2081967754356303 0 0 
7 0.3987475274615035 0.418825281506423 0 0 
1 -9.999999994736442e-08 -1e-07 -1e-07 1.0000001 1e-07 1e-07 1 101 2 1 -2 
2 -1e-07 -9.999999994736442e-08 -1e-07 1e-07 1.0000001 1e-07 1 101 2 3 -1 
3 0.9999999000000001 -9.999999994736442e-08 -1e-07 1.0000001 1.0000001 1e-07 1 101 2 2 -4 
4 -9.999999994736442e-08 0.9999999000000001 -1e-07 1.0000001 1.0000001 1e-07 1 101 2 4 -3 
5 0.1760610756361906 0.2081966754356303 -1e-07 0.3181941978478203 0.3832724448784379 1e-07 0 2 5 -6 
6 0.3181939978478203 0.2081966754356303 -1e-07 0.3987476274615035 0.418825381506423 1e-07 0 2 6 -7 
7 0.1760610756361906 0.3832722448784379 -1e-07 0.3987476274615035 0.418825381506423 1e-07 0 2 7 -5 
2 0.1760610756361906 0.2081966754356303 -1e-07 0.3987476274615035 0.418825381506423 1e-07 1 2 3 5 6 7 
3 -9.999999994736442e-08 -9.999999994736442e-08 -1e-07 1.0000001 1.0000001 1e-07 1 1 7 1 3 4 2 -5 -7 -6 
$EndEntities
$Nodes
16 241 1 241
0 1 0 1
1
0 0 0
0 2 0 1
2
1 0 0
0 3 0 1
3
0 1 0
0 4 0 1
4
1 1 0
0 5 0 1
5
0.1760611756361906 0.3832723448784379 0
0 6 0 1
6
0.3181940978478203 0.2081967754356303 0
0 7 0 1
7
0.3987475274615035 0.418825281506423 0
1 1 0 9
8
9
10
11
12
13
14
15
16
0.09999999999999996 0 0
0.1999999999999999 0 0
0.3000000000000001 0 0
0.4000000000000004 0 0
0.5000000000000003 0 0
0.5999999999999999 0 0
0.6999999999999995 0 0
0.7999999999999992 0 0
0.899999999999999 0 0
1 2 0 9
17
18
19
20
21
22
23
24
25
0 0.9 0
0 0.8 0
0 0.7 0
0 0.5999999999999996 0
0 0.4999999999999997 0
0 0.4000000000000001 0
0 0.3000000000000005 0
0 0.2000000000000008 0
0 0.100000000000001 0
1 3 0 9
26
27
28
29
30
31
32
33
34
1 0.09999999999999996 0
1 0.1999999999999999 0
1 0.3000000000000001 0
1 0.4000000000000004 0
1 0.5000000000000003 0
1 0.5999999999999999 0
1 0.6999999999999995 0
1 0.7999999999999992 0
1 0.899999999999999 0
1 4 0 9
35
36
37
38
39
40
41
42
43
0.9 1 0
0.8 1 0
0.7 1 0
0.5999999999999996 1 0
0.4999999999999997 1 0
0.4000000000000001 1 0
0.3000000000000005 1 0
0.2000000000000008 1 0
0.100000000000001 1 0
1 5 0 4
44
45
46
47
0.2044877600785165 0.3482572309898765 0
0.2329143445208423 0.3132421171013151 0
0.2613409289631682 0.2782270032127536 0
0.2897675134054943 0.2432118893241919 0
1 6 0 4
48
49
50
51
0.3343047837705569 0.2503224766497887 0
0.3504154696932935 0.2924481778639472 0
0.3665261556160301 0.3345738790781057 0
0.3826368415387668 0.3766995802922644 0
1 7 0 4
52
53
54
55
0.354210257096441 0.411714694180826 0
0.3096729867313786 0.404604106855229 0
0.2651357163663161 0.397493519529632 0
0.2205984460012533 0.3903829322040349 0
2 2 0 6
56
57
58
59
60
61
0.3219888852509677 0.3274632917525088 0
0.2490250304435792 0.3553678183154735 0
0.3380995711737043 0.3695889929666673 0
0.305878199328231 0.2853375905383504 0
0.2935623008086418 0.3624784056410704 0
0.2774516148859051 0.320352704426912 0
2 3 0 180
62
63
64
65
66
67
68
69
70
71
72
73
74
75
76
77
78
79
80
81
82
83
84
85
86
87
88
89
90
91
92
93
94
95
96
97
98
99
100
101
102
103
104
105
106
107
108
109
110
111
112
113
114
115
116
117
118
119
120
121
122
123
124
125
126
127
128
129
130
131
132
133
134
135
136
137
138
139
140
141
142
143
144
145
146
147
148
149
150
151
152
153
154
155
156
157
158
159
160
161
162
163
164
165
166
167
168
169
170
171
172
173
174
175
176
177
178
179
180
181
182
183
184
185
186
187
188
189
190
191
192
193
194
195
196
197
198
199
200
201
202
203
204
205
206
207
208
209
210
211
212
213
214
215
216
217
218
219
220
221
222
223
224
225
226
227
228
229
230
231
232
233
234
235
236
237
238
239
240
241
0.3694990697437868 0.4549515740076451 0
0.4161601773616427 0.4626009779433438 0
0.4463196545196621 0.4246910318052248 0
0.4651982088458848 0.4712167005608425 0
0.4973122005827172 0.4302046295507985 0
0.5177401231291794 0.4805501264429868 0
0.3859768744454054 0.501141010150678 0
0.2413710103017023 0.4326211485618427 0
0.3894327313201795 0.3005447980641339 0
0.5528570964603522 0.4356264685452322 0
0.5755062920284487 0.4897865944666606 0
0.5359536734190733 0.5371016926668937 0
0.5996180483863649 0.5479208965708554 0
0.6136990789295641 0.4416786484998368 0
0.354077856227709 0.9069674724473685 0
0.5553512511789065 0.5994983143621859 0
0.6263741326211045 0.6111685464975819 0
0.5864350663196062 0.3829122875749155 0
0.6538155879284906 0.3890221668701788 0
0.07395381160883718 0.6531889766143844 0
0.3660186281290177 0.2156826714494155 0
0.2451282244132942 0.2360184794457899 0
0.1848944371461826 0.3049889634667772 0
0.5797638257668554 0.6664075657811398 0
0.5071993328803146 0.6522675414301882 0
0.6541355428934453 0.6803875664799224 0
0.6231308433913191 0.3236157334166986 0
0.6796766213794239 0.4501136890390886 0
0.6979262000327919 0.3313618722792648 0
0.7013099093608461 0.6201773015229229 0
0.7311088795880003 0.6937780860913693 0
0.5309679821462987 0.7221643650295795 0
0.4589551171456833 0.7072415042849532 0
0.6665542654343904 0.2625940662627561 0
0.5890704412354711 0.256451858198847 0
0.7461307862398288 0.2691882171878919 0
0.6827074291329369 0.7556283895829143 0
0.7634576540290724 0.7699455288375152 0
0.3353980014460876 0.4919441454717721 0
0.3529981579066294 0.5441414336554768 0
0.2954841963450588 0.5322106336456032 0
0.3160272845767597 0.5917172541003602 0
0.7775462342822319 0.3434607141228052 0
0.4758400926810089 0.3874950024127245 0
0.9133974596215566 0.55 0
0.3485352181793546 0.1677823855657904 0
0.3044923055954295 0.1663967517016347 0
0.4069960082337786 0.1757410028725836 0
0.07714273714723141 0.1543532450377269 0
0.2527892948448772 0.5787798730251242 0
0.2743617294487182 0.6437123241152409 0
0.4806783422217769 0.7811148320160953 0
0.633793145368986 0.1919584349183465 0
0.556592242831306 0.1878366443703822 0
0.1500000000000009 0.9133974596215564 0
0.8558797957501236 0.08128331605377281 0
0.4093979056822492 0.5474248001192162 0
0.4027440501721461 0.7653929690799512 0
0.5200280370120167 0.2489596343065805 0
0.8215854919777987 0.6972874723908985 0
0.8292670936306458 0.2780887422468861 0
0.9054976275902287 0.8487110292914505 0
0.5575231774366036 0.7990909289320478 0
0.7123000272573916 0.8403683100153194 0
0.3364985551422404 0.660567820259114 0
0.2958040758915085 0.7132682099340534 0
0.2256367289560421 0.6998640399139805 0
0.2514359575570973 0.7742483260918289 0
0.1667881731294804 0.7620969065363269 0
0.07913804296527915 0.4333536160280343 0
0.07090095959062959 0.3459604467058621 0
0.8603611284648781 0.3560387805334553 0
0.8061315964174425 0.4183352122541947 0
0.2331762943723236 0.5175018760964168 0
0.1876808599234209 0.5638552968147716 0
0.5050145683003627 0.8584462692414345 0
0.08522731227442909 0.2685941076168007 0
0.3799745189003261 0.1218085667416456 0
0.4486114230908861 0.1242906847466335 0
0.4237575506186371 0.2247528221405248 0
0.4367962708315086 0.6360116786606718 0
0.5900809093763103 0.8780688802200534 0
0.7946061901913227 0.2017236515487528 0
0.1760366639245898 0.5134640887522074 0
0.1256337026039281 0.5443663624983939 0
0.5998028856377877 0.1230133901694717 0
0.6839423329784948 0.1336770807998286 0
0.7972078835614247 0.8523899852070096 0
0.9072367455249836 0.4422206297342082 0
0.8833330645851355 0.2079604656652434 0
0.5469168663965063 0.3206134683221448 0
0.4882907916396231 0.2965543120878302 0
0.25 0.08017078926191967 0
0.1611923039705065 0.07833690427241008 0
0.2016397819692737 0.1529586582952082 0
0.2774513909752627 0.4758491967446103 0
0.4900000447671956 0.5879143617552084 0
0.2491859650866025 0.9138674428979365 0
0.911651704728601 0.6489407263310969 0
0.8346711800350208 0.5991613819157005 0
0.9128565470546988 0.747055703027494 0
0.8279637946487658 0.5042510097035674 0
0.756219493618894 0.5539942039446289 0
0.08077969822955167 0.7385573142025579 0
0.08958419295958375 0.8374070371111504 0
0.3213644113220711 0.4457076861181421 0
0.6708733222667054 0.556368502614135 0
0.4271741119038294 0.3838101676178614 0
0.469748767426275 0.5313240021179666 0
0.4093862926638147 0.3371768909999733 0
0.1870691047534181 0.4271559475181106 0
0.1444590561800687 0.4195019203847143 0
0.522813713308674 0.124459478256333 0
0.1984944239404842 0.8417239908448158 0
0.479596784845958 0.188587672264558 0
0.4536865923615357 0.9229900242790942 0
0.3788420541356194 0.2574330639753857 0
0.2924420411916167 0.8418756272292989 0
0.2063008148838783 0.6295867084130776 0
0.2733139246240103 0.1967680852434916 0
0.7491498740147062 0.9233179314016186 0
0.605941173023906 0.7390754025947994 0
0.5283025478881781 0.3878143157314179 0
0.6410555432710857 0.4987903141623128 0
0.7606389001432783 0.08046016851684001 0
0.1652967550329918 0.3420666991850857 0
0.2155071726666399 0.2702644476811947 0
0.1655667339030367 0.2585667975719006 0
0.4265753448827745 0.8440267153718178 0
0.4292963867522914 0.5027414981784094 0
0.9144165580697317 0.2888252745360756 0
0.7215245291066814 0.3975448230991097 0
0.8500000000000001 0.9252228107414997 0
0.7130463653411181 0.2009858600800218 0
0.4294988626956832 0.2860041289062111 0
0.3466031669838601 0.06494943118574215 0
0.3837261231293186 0.6078489079223133 0
0.1494072485430988 0.6826586162226983 0
0.6333317439722208 0.8152652182709074 0
0.658795149803954 0.9234304697693507 0
0.7497459886345358 0.4718520819706483 0
0.3971503492770402 0.6860979767128932 0
0.134689551233618 0.6101323372229306 0
0.2829991031393461 0.4312551315618912 0
0.1275832709113833 0.3702932671280448 0
0.323158546552228 0.7773966881549699 0
0.08080185151647024 0.07896858658376482 0
0.8401210408426447 0.7830779437508736 0
0.4207568878052 0.06561265872159044 0
0.768978990916112 0.632879689173104 0
0.2078793323958053 0.4721519318514897 0
0.5297564140076416 0.9319010347481165 0
0.9328568664881227 0.1463489508457722 0
0.6462239382881309 0.06227303799227768 0
0.4677535049910418 0.244899366280153 0
0.9282534642184384 0.9282897941209399 0
0.2000868008177967 0.2284986015943236 0
0.1463412730246745 0.2016451946983107 0
0.1322159756440702 0.3100858646525231 0
0.7031610686758654 0.5065420254990467 0
0.9265769516570007 0.07307923711237196 0
0.4979163326069074 0.3486651233004127 0
0.07320508075688797 0.9267949192431122 0
0.9364028864119187 0.3574169369607479 0
0.5590936768602081 0.06219335300849149 0
0.1371528690843318 0.1355007613246175 0
0.2311390133517823 0.1923092456639794 0
0.07593658474101722 0.5079135321923889 0
0.4546844140318111 0.3399509375541688 0
0.3597995678052949 0.8271318944566812 0
0.07717783061158373 0.2061481368382098 0
0.3548545306807119 0.726741523230323 0
0.3137988331547585 0.1223202935773592 0
0.06745234973808434 0.5743729237126567 0
0.7592362007455009 0.1540737039057529 0
0.2623973097825424 0.1518206372905988 0
0.4371784688375651 0.5860800830840656 0
0.4902551402129937 0.07531123494660963 0
0.1423074982234439 0.4739867713179056 0
0.8373883483610238 0.1493312573108898 0
$EndNodes
$Elements
6 480 1 480
1 1 1 10
1 1 8 
2 8 9 
3 9 10 
4 10 11 
5 11 12 
6 12 13 
7 13 14 
8 14 15 
9 15 16 
10 16 2 
1 2 1 10
11 3 17 
12 17 18 
13 18 19 
14 19 20 
15 20 21 
16 21 22 
17 22 23 
18 23 24 
19 24 25 
20 25 1 
1 3 1 10
21 2 26 
22 26 27 
23 27 28 
24 28 29 
25 29 30 
26 30 31 
27 31 32 
28 32 33 
29 33 34 
30 34 4 
1 4 1 10
31 4 35 
32 35 36 
33 36 37 
34 37 38 
35 38 39 
36 39 40 
37 40 41 
38 41 42 
39 42 43 
40 43 3 
2 2 2 25
41 6 48 47 
42 5 44 55 
43 7 52 51 
44 44 57 55 
45 45 61 57 
46 46 61 45 
47 59 61 46 
48 52 58 51 
49 55 57 54 
50 45 57 44 
51 60 61 56 
52 47 59 46 
53 50 58 56 
54 54 60 53 
55 51 58 50 
56 53 58 52 
57 53 60 58 
58 50 56 49 
59 58 60 56 
60 57 60 54 
61 56 61 59 
62 56 59 49 
63 57 61 60 
64 48 59 47 
65 49 59 48 
2 3 2 415
66 196 230 171 
67 118 191 170 
68 70 196 171 
69 170 238 118 
70 109 176 141 
71 106 150 30 
72 131 206 173 
73 27 192 151 
74 30 150 29 
75 157 212 69 
76 153 230 196 
77 132 206 131 
78 121 161 160 
79 206 220 187 
80 22 132 131 
81 125 201 200 
82 23 138 132 
83 130 175 166 
84 138 219 189 
85 196 216 153 
86 79 184 152 
87 212 240 172 
88 38 213 143 
89 143 201 38 
90 24 232 138 
91 164 202 163 
92 154 156 155 
93 28 192 27 
94 160 162 121 
95 176 216 141 
96 79 152 88 
97 200 201 143 
98 22 131 21 
99 24 138 23 
100 106 163 150 
101 123 194 149 
102 142 203 198 
103 123 162 33 
104 148 215 186 
105 33 162 32 
106 158 238 170 
107 154 237 156 
108 149 209 123 
109 152 153 120 
110 130 166 165 
111 138 220 132 
112 186 215 14 
113 135 212 157 
114 88 152 96 
115 23 132 22 
116 153 216 120 
117 96 120 115 
118 140 176 109 
119 96 152 120 
120 132 220 206 
121 25 110 24 
122 198 203 126 
123 77 158 73 
124 32 162 160 
125 41 159 76 
126 142 158 86 
127 160 161 106 
128 86 158 77 
129 178 196 70 
130 172 240 173 
131 151 214 27 
132 91 168 164 
133 229 235 21 
134 129 179 175 
135 76 231 190 
136 20 81 19 
137 31 160 106 
138 234 237 154 
139 76 190 177 
140 166 175 116 
141 184 223 152 
142 138 232 219 
143 18 166 17 
144 182 194 36 
145 197 210 139 
146 163 202 134 
147 69 205 157 
148 1 208 25 
149 134 193 104 
150 94 142 86 
151 41 76 40 
152 149 194 182 
153 10 154 9 
154 154 155 9 
155 121 211 161 
156 218 219 156 
157 11 210 197 
158 186 241 236 
159 116 159 42 
160 31 106 30 
161 135 157 102 
162 32 160 31 
163 156 228 218 
164 150 163 134 
165 42 159 41 
166 34 123 33 
167 189 220 138 
168 9 155 8 
169 150 225 29 
170 8 208 1 
171 158 170 73 
172 165 166 18 
173 165 199 130 
174 175 179 159 
175 145 240 212 
176 43 116 42 
177 16 117 15 
178 161 163 106 
179 88 96 95 
180 11 197 10 
181 131 229 21 
182 120 176 115 
183 123 209 162 
184 182 201 125 
185 161 164 163 
186 102 157 100 
187 157 167 100 
188 133 134 104 
189 159 179 76 
190 96 115 114 
191 81 165 19 
192 117 241 186 
193 141 196 178 
194 21 235 20 
195 111 135 102 
196 85 86 77 
197 12 239 210 
198 19 165 18 
199 40 177 39 
200 110 232 24 
201 146 240 145 
202 229 240 146 
203 164 221 202 
204 15 186 14 
205 93 94 86 
206 197 234 154 
207 228 237 181 
208 174 176 140 
209 136 145 135 
210 81 199 165 
211 76 177 40 
212 115 176 174 
213 168 221 164 
214 214 241 117 
215 113 119 94 
216 133 150 134 
217 37 182 36 
218 7 62 52 
219 12 210 11 
220 92 121 99 
221 97 104 90 
222 92 98 87 
223 85 93 86 
224 7 64 63 
225 134 202 193 
226 96 114 95 
227 116 175 159 
228 166 224 17 
229 67 170 65 
230 78 91 87 
231 97 144 122 
232 25 208 110 
233 52 167 53 
234 64 105 66 
235 122 133 104 
236 99 149 125 
237 108 237 234 
238 99 125 98 
239 177 213 39 
240 51 169 7 
241 7 63 62 
242 118 198 101 
243 103 126 112 
244 144 151 122 
245 91 92 87 
246 72 73 67 
247 50 171 51 
248 181 237 108 
249 92 99 98 
250 111 136 135 
251 93 113 94 
252 74 168 78 
253 124 143 137 
254 35 217 4 
255 97 122 104 
256 129 175 130 
257 49 70 50 
258 93 124 113 
259 78 87 85 
260 26 222 2 
261 2 222 16 
262 4 217 34 
263 115 147 114 
264 71 79 75 
265 164 211 91 
266 117 222 214 
267 3 224 43 
268 17 224 3 
269 109 141 82 
270 126 127 112 
271 129 130 128 
272 124 137 113 
273 137 213 177 
274 95 97 90 
275 117 186 15 
276 68 100 62 
277 127 129 128 
278 162 209 121 
279 119 203 94 
280 54 69 55 
281 127 128 112 
282 78 85 77 
283 64 66 65 
284 48 178 49 
285 71 72 67 
286 98 183 87 
287 66 71 67 
288 71 75 72 
289 88 95 90 
290 78 168 91 
291 149 182 125 
292 66 67 65 
293 64 65 63 
294 74 77 73 
295 63 68 62 
296 147 148 114 
297 72 74 73 
298 80 89 75 
299 73 170 67 
300 68 118 101 
301 79 88 80 
302 36 194 35 
303 113 190 119 
304 87 183 85 
305 152 223 153 
306 10 197 154 
307 7 169 64 
308 88 90 80 
309 6 82 48 
310 97 195 144 
311 79 80 75 
312 55 172 5 
313 85 183 93 
314 74 78 77 
315 62 167 52 
316 20 235 81 
317 64 169 105 
318 101 198 103 
319 115 174 147 
320 122 192 133 
321 46 83 47 
322 136 146 145 
323 104 193 90 
324 151 192 122 
325 103 112 111 
326 38 201 37 
327 101 102 100 
328 208 227 110 
329 130 199 128 
330 103 111 102 
331 142 238 158 
332 93 183 124 
333 156 227 155 
334 92 211 121 
335 45 188 46 
336 137 190 113 
337 39 213 38 
338 157 205 167 
339 98 200 183 
340 95 195 97 
341 51 171 169 
342 68 101 100 
343 155 208 8 
344 114 195 95 
345 71 184 79 
346 74 185 168 
347 44 84 45 
348 128 180 112 
349 170 191 65 
350 70 171 50 
351 100 167 62 
352 161 211 164 
353 105 184 66 
354 141 178 82 
355 148 195 114 
356 101 103 102 
357 121 209 99 
358 111 180 136 
359 177 190 137 
360 112 180 111 
361 66 184 71 
362 103 198 126 
363 5 187 44 
364 68 191 118 
365 183 200 124 
366 125 200 98 
367 47 181 6 
368 155 227 208 
369 49 178 70 
370 198 238 142 
371 90 193 80 
372 53 205 54 
373 167 205 53 
374 126 233 127 
375 75 185 72 
376 65 191 63 
377 94 203 142 
378 72 185 74 
379 116 224 166 
380 80 193 89 
381 133 225 150 
382 89 185 75 
383 63 191 68 
384 131 240 229 
385 13 226 12 
386 145 212 135 
387 124 200 143 
388 6 107 82 
389 118 238 198 
390 29 225 28 
391 69 172 55 
392 82 178 48 
393 172 173 5 
394 54 205 69 
395 139 140 109 
396 6 108 107 
397 185 221 168 
398 179 231 76 
399 127 207 129 
400 107 109 82 
401 14 215 13 
402 129 207 179 
403 119 231 207 
404 128 199 180 
405 27 214 26 
406 187 220 84 
407 34 217 123 
408 120 216 176 
409 123 217 194 
410 219 227 156 
411 107 139 109 
412 89 221 185 
413 99 209 149 
414 43 224 116 
415 203 233 126 
416 16 222 117 
417 193 202 89 
418 140 239 174 
419 136 204 146 
420 84 220 189 
421 46 188 83 
422 204 235 146 
423 91 211 92 
424 37 201 182 
425 180 204 136 
426 110 227 219 
427 143 213 137 
428 219 232 110 
429 207 233 119 
430 84 188 45 
431 223 230 153 
432 119 233 203 
433 190 231 119 
434 151 241 214 
435 83 181 47 
436 139 234 197 
437 84 189 188 
438 147 215 148 
439 105 230 223 
440 139 210 140 
441 44 187 84 
442 6 181 108 
443 28 225 192 
444 236 241 144 
445 69 212 172 
446 199 204 180 
447 186 236 148 
448 81 235 204 
449 192 225 133 
450 189 219 218 
451 194 217 35 
452 210 239 140 
453 173 240 131 
454 144 241 151 
455 147 226 215 
456 173 206 5 
457 174 226 147 
458 105 223 184 
459 156 237 228 
460 226 239 12 
461 141 216 196 
462 202 221 89 
463 5 206 187 
464 195 236 144 
465 169 230 105 
466 171 230 169 
467 81 204 199 
468 146 235 229 
469 148 236 195 
470 107 234 139 
471 174 239 226 
472 215 226 13 
473 188 218 83 
474 108 234 107 
475 214 222 26 
476 189 218 188 
477 127 233 207 
478 207 231 179 
479 83 228 181 
480 218 228 83 
$EndElements
