$MeshFormat
4.1 0 8
$EndMeshFormat
$PhysicalNames
3
1 101 "outer_boundary"
2 1 "material_1"
2 2 "material_2"
$EndPhysicalNames
$Entities
7 7 2 0
1 0 0 0 0 
2 1 0 0 0 
3 0 1 0 0 
4 1 1 0 0 
5 0.2931215418367055 0.7923312000967182 0 0 
6 0.3467453218208212 0.4997532749299753 0 0 
7 0.5733133476097051 0.6924817932265386 0 0 
1 -9.999999994736442e-08 -1e-07 -1e-07 1.0000001 1e-07 1e-07 1 101 2 1 -2 
2 -1e-07 -9.999999994736442e-08 -1e-07 1e-07 1.0000001 1e-07 1 101 2 3 -1 
3 0.9999999000000001 -9.999999994736442e-08 -1e-07 1.0000001 1.0000001 1e-07 1 101 2 2 -4 
4 -9.999999994736442e-08 0.9999999000000001 -1e-07 1.0000001 1.0000001 1e-07 1 101 2 4 -3 
5 0.2931214418367055 0.4997531749299753 -1e-07 0.3467454218208212 0.7923313000967181 1e-07 0 2 5 -6 
6 0.3467452218208212 0.4997531749299753 -1e-07 0.573313447609705 0.6924818932265385 1e-07 0 2 6 -7 
7 0.2931214418367055 0.6924816932265386 -1e-07 0.573313447609705 0.7923313000967181 1e-07 0 2 7 -5 
2 0.2931214418367055 0.4997531749299753 -1e-07 0.573313447609705 0.7923313000967181 1e-07 1 2 3 5 6 7 
3 -9.999999994736442e-08 -9.999999994736442e-08 -1e-07 1.0000001 1.0000001 1e-07 1 1 7 1 3 4 2 -5 -7 -6 
$EndEntities
$Nodes
16 158 1 158
0 1 0 1
1
0 0 0
0 2 0 1
2
1 0 0
0 3 0 1
3
0 1 0
0 4 0 1
4
1 1 0
0 5 0 1
5
0.2931215418367055 0.7923312000967182 0
0 6 0 1
6
0.3467453218208212 0.4997532749299753 0
0 7 0 1
7
0.5733133476097051 0.6924817932265386 0
1 1 0 7
8
9
10
11
12
13
14
0.1249999999999999 0 0
0.2499999999999998 0 0
0.3749999999999993 0 0
0.4999999999999988 0 0
0.6249999999999988 0 0
0.7499999999999991 0 0
0.8749999999999997 0 0
1 2 0 7
15
16
17
18
19
20
21
0 0.8750000000000001 0
0 0.7500000000000002 0
0 0.6250000000000007 0
0 0.5000000000000012 0
0 0.3750000000000012 0
0 0.2500000000000009 0
0 0.1250000000000003 0
1 3 0 7
22
23
24
25
26
27
28
1 0.1249999999999999 0
1 0.2499999999999998 0
1 0.3749999999999993 0
1 0.4999999999999988 0
1 0.6249999999999988 0
1 0.7499999999999991 0
1 0.8749999999999997 0
1 4 0 7
29
30
31
32
33
34
35
0.8750000000000001 1 0
0.7500000000000002 1 0
0.6250000000000007 1 0
0.5000000000000012 1 0
0.3750000000000012 1 0
0.2500000000000009 1 0
0.1250000000000003 1 0
1 5 0 4
36
37
38
39
0.3038462978335286 0.7338156150633695 0
0.3145710538303518 0.6753000300300209 0
0.3252958098271749 0.6167844449966724 0
0.3360205658239981 0.5582688599633239 0
1 6 0 4
40
41
42
43
0.3920589269785981 0.5382989785892881 0
0.4373725321363749 0.5768446822486007 0
0.4826861372941517 0.6153903859079133 0
0.5279997424519284 0.6539360895672259 0
1 7 0 4
44
45
46
47
0.5172749864551051 0.7124516746005746 0
0.4612366253005051 0.7324215559746104 0
0.4051982641459052 0.7523914373486464 0
0.3491599029913054 0.7723613187226823 0
2 2 0 6
48
49
50
51
52
53
0.3706094149849516 0.6553301486559852 0
0.4719613812973283 0.6739059709412619 0
0.3598846589881285 0.7138457336893337 0
0.3813341709817749 0.5968145636226366 0
0.4159230201427284 0.6938758523152978 0
0.4266477761395516 0.6353602672819493 0
2 3 0 105
54
55
56
57
58
59
60
61
62
63
64
65
66
67
68
69
70
71
72
73
74
75
76
77
78
79
80
81
82
83
84
85
86
87
88
89
90
91
92
93
94
95
96
97
98
99
100
101
102
103
104
105
106
107
108
109
110
111
112
113
114
115
116
117
118
119
120
121
122
123
124
125
126
127
128
129
130
131
132
133
134
135
136
137
138
139
140
141
142
143
144
145
146
147
148
149
150
151
152
153
154
155
156
157
158
0.4963458413956182 0.5582162848183115 0
0.6917172669259573 0.1274892582852013 0
0.9075241657955245 0.4234733929330217 0
0.4034360794917639 0.4784999917095909 0
0.3565363545286825 0.4370553800413363 0
0.4185956250740129 0.4141991707750886 0
0.5837770071992193 0.6328946880535115 0
0.6342887145877771 0.6728176647341165 0
0.365724001582189 0.3679307596803037 0
0.4356732809723137 0.342704849570465 0
0.4913734693222238 0.3944230219189074 0
0.6449819543652967 0.6034949073160178 0
0.2833837811961349 0.4586166775681381 0
0.2875894130228585 0.5786687226980459 0
0.2657248066353631 0.6969435099220108 0
0.7029324691381074 0.6520829967708006 0
0.3761826647453611 0.2926170695165946 0
0.3000073310711375 0.3221119643987838 0
0.6204582416099056 0.7363567812320279 0
0.4552471119351706 0.2613698787117433 0
0.509258103379426 0.7748910225023826 0
0.8151220951996254 0.8949680672215043 0
0.7173673411457404 0.576418896499534 0
0.652977826879596 0.5252440994162318 0
0.1945655993848582 0.1070721191632264 0
0.3975584638016337 0.8214204981771112 0
0.7821508167983894 0.6288780753487788 0
0.118769009111332 0.8122524582471755 0
0.3886734977896705 0.1983264747293133 0
0.1039000020828681 0.4440912272098867 0
0.900455451554653 0.1796991026427701 0
0.7613248280173305 0.7117986526916776 0
0.7304225236825962 0.4951989105978147 0
0.6622011829083034 0.4405798823164089 0
0.7446913054944316 0.4050106130578648 0
0.6723210149072334 0.3501264412654076 0
0.588230645151271 0.4745329544658268 0
0.4753552182667364 0.1719523446327372 0
0.5398255906756232 0.2343899156285025 0
0.7614742887129518 0.3089007160431199 0
0.8461096052162989 0.6873544484972407 0
0.5625000000000009 0.8917468245269456 0
0.8521274139505126 0.608035943810265 0
0.6856303281742676 0.2502992267207959 0
0.6840263974657876 0.90288189410883 0
0.3058313856545121 0.9104142252170475 0
0.2032880873578592 0.8995463440760463 0
0.310732660393029 0.1240334996716413 0
0.2336389127850119 0.1981007858047059 0
0.1419803831320447 0.220198839525411 0
0.4543576351066902 0.9014795846936929 0
0.1117362373890282 0.6853475365879739 0
0.1163240123375035 0.5621672581266041 0
0.2021411605671035 0.490772265173826 0
0.2180897634968008 0.3934798608826744 0
0.1840136958457231 0.6218387851731479 0
0.1175494797407925 0.3342709008020924 0
0.1803623567234938 0.7500000000000002 0
0.5747936111732922 0.137213472158739 0
0.8849673952833867 0.3043686934323943 0
0.578772153122322 0.3893448775249078 0
0.5754098726750289 0.5552906447614638 0
0.8289119324633715 0.7837369249563935 0
0.7905637135542034 0.2117073854783812 0
0.6219648996270153 0.8202220898910504 0
0.7162458498526891 0.7949976318401821 0
0.4484131467213814 0.5181432622755514 0
0.5170289146964392 0.5008220328183989 0
0.81950575414791 0.1000230833557427 0
0.2478079366789288 0.7537854964374054 0
0.2246343967662727 0.8116040135833106 0
0.2592778787480037 0.6346247463491781 0
0.2787577537592066 0.5246487710314705 0
0.5675041135971906 0.7590715464402784 0
0.2209633945958526 0.2857710690094913 0
0.5156509528872828 0.3216461403445107 0
0.3359360337437527 0.8380025044037418 0
0.4547984227394261 0.8045194277797686 0
0.5332437202031892 0.6031456186216853 0
0.7927696287676171 0.5489251678879787 0
0.5087338528255059 0.8381325553383773 0
0.4025175228197815 0.1117710835337747 0
0.6016030213920006 0.2912655216597763 0
0.4689384761492051 0.4575368146065365 0
0.9091866029854753 0.8407074586530684 0
0.306331422693824 0.3965781451471184 0
0.08941141929383833 0.9173597604646444 0
0.6870500206411619 0.713610745453761 0
0.8195626624306706 0.4603956917853828 0
0.377722778120295 0.8903242885084151 0
0.823643963543393 0.3804298214503567 0
0.3110591691960295 0.2429519445231909 0
0.2725622890718205 0.8503796574753728 0
0.1986123320610884 0.6870158951328948 0
0.09446228175464733 0.1246014028294723 0
0.9044152702682485 0.7456747957650841 0
0.5595616229398291 0.8175838219087431 0
0.2178856606573675 0.5636281976372015 0
0.5347836215894096 0.439133408141682 0
0.4994455025861625 0.08766278593145971 0
0.9131509740036059 0.08684902599639394 0
0.8993874781823694 0.5457356550823207 0
0.617890346268567 0.2040988281888445 0
0.9170066279362381 0.6603001405258181 0
0.9237683432971692 0.9253921758242365 0
$EndNodes
$Elements
6 314 1 314
1 1 1 8
1 1 8 
2 8 9 
3 9 10 
4 10 11 
5 11 12 
6 12 13 
7 13 14 
8 14 2 
1 2 1 8
9 3 15 
10 15 16 
11 16 17 
12 17 18 
13 18 19 
14 19 20 
15 20 21 
16 21 1 
1 3 1 8
17 2 22 
18 22 23 
19 23 24 
20 24 25 
21 25 26 
22 26 27 
23 27 28 
24 28 4 
1 4 1 8
25 4 29 
26 29 30 
27 30 31 
28 31 32 
29 32 33 
30 33 34 
31 34 35 
32 35 3 
2 2 2 25
33 5 36 47 
34 6 40 39 
35 44 43 7 
36 41 53 51 
37 42 53 41 
38 48 52 50 
39 48 50 37 
40 37 50 36 
41 43 49 42 
42 36 50 47 
43 38 48 37 
44 46 52 45 
45 45 52 49 
46 51 53 48 
47 49 53 42 
48 44 49 43 
49 47 50 46 
50 50 52 46 
51 38 51 48 
52 45 49 44 
53 41 51 40 
54 40 51 39 
55 48 53 52 
56 39 51 38 
57 52 53 49 
2 3 2 257
58 103 110 20 
59 107 108 66 
60 93 117 113 
61 82 145 101 
62 72 141 119 
63 54 121 115 
64 111 124 81 
65 81 124 100 
66 79 131 104 
67 71 139 108 
68 72 119 118 
69 112 153 12 
70 101 145 102 
71 106 109 105 
72 108 139 66 
73 66 126 107 
74 113 117 84 
75 20 148 103 
76 55 112 12 
77 55 117 97 
78 17 106 105 
79 95 98 31 
80 16 105 81 
81 105 111 81 
82 8 148 1 
83 10 153 135 
84 95 118 98 
85 64 129 114 
86 20 110 19 
87 115 121 90 
88 108 128 71 
89 115 132 54 
90 131 134 104 
91 97 156 55 
92 21 148 20 
93 83 107 106 
94 55 122 117 
95 1 148 21 
96 98 119 75 
97 12 153 11 
98 75 119 116 
99 128 145 71 
100 104 143 79 
101 11 153 10 
102 118 127 72 
103 142 155 133 
104 103 128 110 
105 155 157 96 
106 83 106 18 
107 32 95 31 
108 16 81 15 
109 60 115 65 
110 101 102 78 
111 107 151 106 
112 17 105 16 
113 102 128 103 
114 30 98 75 
115 33 143 104 
116 102 145 128 
117 32 104 95 
118 106 151 109 
119 56 113 24 
120 13 122 55 
121 15 140 3 
122 125 151 67 
123 19 83 18 
124 83 108 107 
125 118 150 127 
126 9 101 78 
127 19 110 83 
128 99 143 33 
129 129 136 114 
130 31 98 30 
131 18 106 17 
132 33 104 32 
133 30 75 29 
134 68 147 125 
135 25 56 24 
136 26 157 155 
137 113 144 93 
138 13 55 12 
139 9 78 8 
140 100 140 81 
141 101 135 82 
142 65 115 77 
143 3 140 35 
144 114 152 64 
145 133 155 96 
146 34 99 33 
147 126 151 107 
148 77 115 90 
149 10 101 9 
150 23 113 84 
151 77 90 87 
152 34 100 99 
153 138 149 27 
154 28 138 27 
155 24 113 23 
156 109 151 125 
157 102 103 78 
158 35 100 34 
159 23 84 22 
160 125 147 109 
161 123 147 68 
162 116 119 85 
163 90 114 87 
164 89 136 97 
165 55 156 112 
166 100 146 99 
167 81 140 15 
168 60 132 115 
169 78 148 8 
170 119 141 85 
171 26 155 25 
172 87 114 89 
173 104 134 95 
174 136 156 97 
175 10 135 101 
176 14 122 13 
177 109 147 105 
178 56 144 113 
179 75 158 29 
180 117 122 84 
181 89 97 93 
182 83 110 108 
183 6 57 40 
184 87 89 88 
185 67 151 126 
186 91 92 73 
187 40 120 41 
188 41 54 42 
189 43 60 7 
190 65 77 76 
191 77 87 86 
192 63 64 59 
193 97 117 93 
194 89 93 88 
195 42 132 43 
196 118 119 98 
197 91 112 92 
198 111 147 123 
199 138 158 75 
200 87 88 86 
201 6 58 57 
202 35 140 100 
203 92 129 73 
204 80 85 69 
205 36 68 37 
206 62 71 70 
207 80 96 94 
208 56 155 142 
209 37 125 38 
210 5 123 36 
211 94 116 85 
212 57 120 40 
213 38 67 39 
214 82 91 73 
215 77 86 76 
216 70 73 63 
217 62 63 59 
218 58 59 57 
219 27 157 26 
220 60 61 7 
221 41 120 54 
222 2 154 14 
223 22 154 2 
224 58 62 59 
225 44 74 45 
226 92 156 136 
227 62 70 63 
228 70 82 73 
229 110 128 108 
230 114 136 89 
231 64 137 59 
232 65 76 69 
233 105 147 111 
234 39 126 6 
235 54 132 42 
236 45 131 46 
237 43 132 60 
238 60 65 61 
239 80 94 85 
240 123 124 111 
241 116 138 75 
242 65 69 61 
243 25 155 56 
244 76 80 69 
245 6 66 58 
246 7 127 44 
247 46 79 47 
248 63 129 64 
249 120 121 54 
250 47 130 5 
251 64 152 137 
252 137 152 121 
253 61 72 7 
254 90 152 114 
255 73 129 63 
256 149 157 27 
257 124 146 100 
258 80 133 96 
259 82 135 91 
260 85 141 69 
261 84 154 22 
262 92 136 129 
263 74 134 131 
264 62 139 71 
265 88 142 86 
266 86 133 76 
267 68 125 37 
268 36 123 68 
269 70 145 82 
270 76 133 80 
271 38 125 67 
272 59 137 57 
273 57 137 120 
274 88 144 142 
275 6 126 66 
276 67 126 39 
277 93 144 88 
278 120 137 121 
279 130 143 99 
280 103 148 78 
281 5 124 123 
282 74 131 45 
283 4 158 28 
284 29 158 4 
285 58 139 62 
286 74 150 134 
287 122 154 84 
288 44 127 74 
289 72 127 7 
290 121 152 90 
291 127 150 74 
292 95 150 118 
293 135 153 91 
294 142 144 56 
295 46 131 79 
296 71 145 70 
297 86 142 133 
298 69 141 61 
299 91 153 112 
300 116 149 138 
301 79 130 47 
302 66 139 58 
303 94 149 116 
304 112 156 92 
305 14 154 122 
306 79 143 130 
307 61 141 72 
308 94 157 149 
309 96 157 94 
310 130 146 5 
311 99 146 130 
312 134 150 95 
313 5 146 124 
314 28 158 138 
$EndElements
