$MeshFormat
4.1 0 8
$EndMeshFormat
$PhysicalNames
3
1 101 "outer_boundary"
2 1 "material_1"
2 2 "material_2"
$EndPhysicalNames
$Entities
7 7 2 0
1 0 0 0 0 
2 1 0 0 0 
3 0 1 0 0 
4 1 1 0 0 
5 0.3211059829840899 0.8404227520866563 0 0 
6 0.4179913727607229 0.5259543345047508 0 0 
7 0.6418863161862295 0.7670937520978249 0 0 
1 -9.999999994736442e-08 -1e-07 -1e-07 1.0000001 1e-07 1e-07 1 101 2 1 -2 
2 -1e-07 -9.999999994736442e-08 -1e-07 1e-07 1.0000001 1e-07 1 101 2 3 -1 
3 0.9999999000000001 -9.999999994736442e-08 -1e-07 1.0000001 1.0000001 1e-07 1 101 2 2 -4 
4 -9.999999994736442e-08 0.9999999000000001 -1e-07 1.0000001 1.0000001 1e-07 1 101 2 4 -3 
5 0.3211058829840899 0.5259542345047509 -1e-07 0.4179914727607229 0.8404228520866562 1e-07 0 2 5 -6 
6 0.4179912727607229 0.5259542345047509 -1e-07 0.6418864161862294 0.7670938520978249 1e-07 0 2 6 -7 
7 0.3211058829840899 0.767093652097825 -1e-07 0.6418864161862294 0.8404228520866562 1e-07 0 2 7 -5 
2 0.3211058829840899 0.5259542345047509 -1e-07 0.6418864161862294 0.8404228520866562 1e-07 1 2 3 5 6 7 
3 -9.999999994736442e-08 -9.999999994736442e-08 -1e-07 1.0000001 1.0000001 1e-07 1 1 7 1 3 4 2 -5 -7 -6 
$EndEntities
$Nodes
16 152 1 152
0 1 0 1
1
0 0 0
0 2 0 1
2
1 0 0
0 3 0 1
3
0 1 0
0 4 0 1
4
1 1 0
0 5 0 1
5
0.3211059829840899 0.8404227520866563 0
0 6 0 1
6
0.4179913727607229 0.5259543345047508 0
0 7 0 1
7
0.6418863161862295 0.7670937520978249 0
1 1 0 7
8
9
10
11
12
13
14
0.1249999999999999 0 0
0.2499999999999998 0 0
0.3749999999999993 0 0
0.4999999999999988 0 0
0.6249999999999988 0 0
0.7499999999999991 0 0
0.8749999999999997 0 0
1 2 0 7
15
16
17
18
19
20
21
0 0.8750000000000001 0
0 0.7500000000000002 0
0 0.6250000000000007 0
0 0.5000000000000012 0
0 0.3750000000000012 0
0 0.2500000000000009 0
0 0.1250000000000003 0
1 3 0 7
22
23
24
25
26
27
28
1 0.1249999999999999 0
1 0.2499999999999998 0
1 0.3749999999999993 0
1 0.4999999999999988 0
1 0.6249999999999988 0
1 0.7499999999999991 0
1 0.8749999999999997 0
1 4 0 7
29
30
31
32
33
34
35
0.8750000000000001 1 0
0.7500000000000002 1 0
0.6250000000000007 1 0
0.5000000000000012 1 0
0.3750000000000012 1 0
0.2500000000000009 1 0
0.1250000000000003 1 0
1 5 0 4
36
37
38
39
0.3404830609394164 0.7775290685702753 0
0.3598601388947431 0.7146353850538942 0
0.3792372168500697 0.651741701537513 0
0.3986142948053964 0.5888480180211315 0
1 6 0 4
40
41
42
43
0.4627703614458242 0.5741822180233656 0
0.5075493501309254 0.6224101015419803 0
0.5523283388160269 0.6706379850605954 0
0.5971073275011284 0.7188658685792104 0
1 7 0 4
44
45
46
47
0.5777302495458017 0.7817595520955912 0
0.5135741829053738 0.7964253520933574 0
0.4494181162649457 0.8110911520911238 0
0.3852620496245175 0.8257569520888901 0
2 2 0 6
48
49
50
51
52
53
0.4687951942202724 0.7481974685747426 0
0.5329512608607002 0.7335316685769764 0
0.4433932834904974 0.6370759015397465 0
0.4046391275798443 0.762863268572509 0
0.4881722721755988 0.6853037850583615 0
0.4240162055351708 0.6999695850561278 0
2 3 0 99
54
55
56
57
58
59
60
61
62
63
64
65
66
67
68
69
70
71
72
73
74
75
76
77
78
79
80
81
82
83
84
85
86
87
88
89
90
91
92
93
94
95
96
97
98
99
100
101
102
103
104
105
106
107
108
109
110
111
112
113
114
115
116
117
118
119
120
121
122
123
124
125
126
127
128
129
130
131
132
133
134
135
136
137
138
139
140
141
142
143
144
145
146
147
148
149
150
151
152
0.4845947546835085 0.5105613741913504 0
0.4372521691257017 0.4588120966885452 0
0.5081426467410933 0.4422583906695343 0
0.6102630348406033 0.6515028447109112 0
0.3662385734481227 0.4757882697025918 0
0.384158932760634 0.4040689821661491 0
0.9003678303307217 0.309678601264195 0
0.3423625294912974 0.6043004708180565 0
0.288799082962133 0.7302488333398756 0
0.5696702924116418 0.1050326435626027 0
0.3075216591687981 0.421625717972566 0
0.3281336646351518 0.3397841152829926 0
0.8934425990024712 0.5720714918043561 0
0.5578531287015491 0.4988736305494563 0
0.584589112917165 0.4256165753136778 0
0.6351749500120411 0.4894025307744477 0
0.5303566640458781 0.3642651774872176 0
0.6148863006264531 0.3447744598883742 0
0.8836676592155077 0.8074542905994495 0
0.2411212009318763 0.3607877360895559 0
0.2675556461790463 0.2693812117571265 0
0.37807279651976 0.25189822198841 0
0.1058517944661601 0.5660259269508476 0
0.103905158006523 0.8044593983596102 0
0.7961636655868886 0.1244878356802646 0
0.6207238514100323 0.8358154577983531 0
0.6941998421630822 0.819292622018821 0
0.716015155478523 0.7466741699948207 0
0.5540061748136533 0.2785840111352481 0
0.6474744785205983 0.2573040205647488 0
0.7100003641853058 0.3318359851069067 0
0.1982863367837979 0.1047051431584166 0
0.2895354499098396 0.5017417688572166 0
0.1722944962074515 0.2903381911366613 0
0.4303772828561596 0.8754557494027715 0
0.1575031540493839 0.383333730176134 0
0.7454689984572965 0.2369051031142018 0
0.1016198297401846 0.68968698804409 0
0.1856271000986873 0.6325977962315449 0
0.8951567277673425 0.6838804730419628 0
0.8025500794609365 0.6253249113208355 0
0.7949922273150705 0.5269028620734457 0
0.7244270734280517 0.584146031138546 0
0.8808245078125008 0.4335284875857494 0
0.7732366759220288 0.8012746504736905 0
0.2008794163139837 0.7401172599696868 0
0.1978080106040433 0.8367739621058834 0
0.6716200015958367 0.1641401786547108 0
0.6053595476229537 0.5702326706495875 0
0.4645918186270633 0.3002923952012326 0
0.4889284273177927 0.1941787844759472 0
0.3957440570982952 0.1374469084662033 0
0.7611438316243759 0.4230703089185155 0
0.6697182089225659 0.9060520574697923 0
0.2941828974647916 0.1745811124268174 0
0.2002031434846869 0.5352626875887267 0
0.9059239197911788 0.1918412732204137 0
0.8227406437830971 0.897972222339206 0
0.5308915044211895 0.5646945334740493 0
0.1043820874729586 0.1954281457056672 0
0.6620392886796792 0.6986606766115072 0
0.5635295537120464 0.910905730947193 0
0.3538353061202949 0.5406201345025169 0
0.2684894635960104 0.7959367227858093 0
0.3139023204740471 0.6591695781938227 0
0.8001466221038157 0.7225312147961682 0
0.5539509885046603 0.8368450257088467 0
0.4941971049500471 0.8593190356097384 0
0.3658849716691911 0.888650635605271 0
0.2988920046529649 0.9178979552279585 0
0.6701442645145606 0.4197560292648368 0
0.2213547365118905 0.4452651114676873 0
0.7303147804073402 0.6690976058003173 0
0.4544503412279468 0.3840121702012766 0
0.2730307374768208 0.5878343379484078 0
0.1077021690171128 0.9073365405831397 0
0.2032750053669017 0.204968866233411 0
0.5612783551663398 0.6158956270874247 0
0.8018750100678858 0.331580689136358 0
0.7132845813215118 0.5022500538864757 0
0.5855120748366736 0.1983698649718793 0
0.9116950392095876 0.9106312169952722 0
0.2492393506357471 0.6775476774876729 0
0.08314983408832155 0.326606753007775 0
0.1038438960490188 0.4539960515190122 0
0.3026426582693768 0.08334663281028742 0
0.08553368485135127 0.08502665777281687 0
0.90849364905389 0.09150635094610987 0
0.7445645615334503 0.8750672491096323 0
0.4733902009251522 0.08753195830764765 0
0.4018815107541112 0.3360111769680122 0
0.8299598848467943 0.2388987004830866 0
0.665961778243908 0.6194695437614974 0
0.4797781714070616 0.9166193813681627 0
0.2068772353410865 0.9187561530932433 0
0.6856744868509006 0.07091758105587753 0
0.2595564503889982 0.8586920666549298 0
0.4206956755524768 0.9367678002658708 0
0.6688415861256932 0.5531001660421109 0
$EndNodes
$Elements
6 302 1 302
1 1 1 8
1 1 8 
2 8 9 
3 9 10 
4 10 11 
5 11 12 
6 12 13 
7 13 14 
8 14 2 
1 2 1 8
9 3 15 
10 15 16 
11 16 17 
12 17 18 
13 18 19 
14 19 20 
15 20 21 
16 21 1 
1 3 1 8
17 2 22 
18 22 23 
19 23 24 
20 24 25 
21 25 26 
22 26 27 
23 27 28 
24 28 4 
1 4 1 8
25 4 29 
26 29 30 
27 30 31 
28 31 32 
29 32 33 
30 33 34 
31 34 35 
32 35 3 
2 2 2 25
33 44 43 7 
34 6 40 39 
35 5 36 47 
36 49 52 42 
37 42 52 41 
38 48 52 49 
39 39 50 38 
40 52 53 50 
41 41 50 40 
42 45 49 44 
43 37 51 36 
44 47 51 46 
45 46 51 48 
46 48 53 52 
47 36 51 47 
48 46 48 45 
49 48 49 45 
50 43 49 42 
51 50 53 38 
52 41 52 50 
53 51 53 48 
54 40 50 39 
55 37 53 51 
56 44 49 43 
57 38 53 37 
2 3 2 245
58 109 138 125 
59 24 97 60 
60 98 119 72 
61 97 132 60 
62 118 136 128 
63 106 132 97 
64 90 101 78 
65 76 92 91 
66 72 119 93 
67 93 94 66 
68 118 128 61 
69 75 104 103 
70 92 99 91 
71 125 138 89 
72 92 136 99 
73 15 129 3 
74 72 111 98 
75 25 97 24 
76 78 145 90 
77 102 146 57 
78 75 105 104 
79 89 138 137 
80 76 91 17 
81 62 117 99 
82 3 129 35 
83 26 93 66 
84 106 133 124 
85 107 142 30 
86 99 117 100 
87 99 136 62 
88 85 139 108 
89 94 96 95 
90 10 143 105 
91 101 149 78 
92 137 138 19 
93 102 152 146 
94 87 137 113 
95 91 99 77 
96 94 95 66 
97 9 139 85 
98 16 91 77 
99 66 97 25 
100 33 123 122 
101 31 107 30 
102 72 93 27 
103 105 139 10 
104 16 77 15 
105 28 72 27 
106 128 136 92 
107 106 124 84 
108 18 76 17 
109 57 131 102 
110 76 138 109 
111 110 145 78 
112 26 66 25 
113 99 100 77 
114 61 128 116 
115 113 137 20 
116 93 119 94 
117 76 109 92 
118 12 63 11 
119 17 91 16 
120 34 123 33 
121 24 60 23 
122 63 149 101 
123 27 93 26 
124 77 129 15 
125 9 85 8 
126 104 143 63 
127 115 147 121 
128 103 144 75 
129 14 78 13 
130 94 126 96 
131 95 106 97 
132 115 121 120 
133 102 112 67 
134 69 102 67 
135 60 110 23 
136 30 142 111 
137 116 128 86 
138 124 133 69 
139 32 115 31 
140 12 149 63 
141 117 150 100 
142 23 110 22 
143 63 134 104 
144 105 143 104 
145 95 97 66 
146 75 108 105 
147 19 138 18 
148 70 127 103 
149 101 134 63 
150 95 133 106 
151 21 113 20 
152 32 147 115 
153 30 111 29 
154 78 149 13 
155 113 130 87 
156 11 143 10 
157 70 103 82 
158 146 152 96 
159 29 135 4 
160 109 125 86 
161 122 151 33 
162 108 130 85 
163 111 142 98 
164 83 84 71 
165 4 135 28 
166 6 54 40 
167 40 112 41 
168 72 135 111 
169 74 75 65 
170 73 89 87 
171 42 57 43 
172 1 140 21 
173 58 86 64 
174 56 67 54 
175 8 140 1 
176 2 141 14 
177 22 141 2 
178 90 132 84 
179 83 90 84 
180 83 101 90 
181 56 70 68 
182 38 61 39 
183 68 69 67 
184 37 118 38 
185 36 62 37 
186 6 58 55 
187 6 55 54 
188 102 131 112 
189 74 108 75 
190 39 116 6 
191 103 104 82 
192 70 82 71 
193 56 68 67 
194 43 114 7 
195 82 83 71 
196 7 81 80 
197 84 132 106 
198 73 87 74 
199 70 71 68 
200 55 56 54 
201 31 115 107 
202 73 74 65 
203 5 117 36 
204 84 124 71 
205 54 112 40 
206 18 138 76 
207 81 119 98 
208 96 133 95 
209 28 135 72 
210 64 65 59 
211 73 125 89 
212 109 128 92 
213 64 73 65 
214 58 116 86 
215 86 128 109 
216 75 144 65 
217 58 64 59 
218 7 79 44 
219 58 59 55 
220 67 112 54 
221 35 148 34 
222 44 120 45 
223 7 114 81 
224 33 151 32 
225 45 121 46 
226 41 131 42 
227 46 88 47 
228 81 126 119 
229 83 134 101 
230 6 116 58 
231 112 131 41 
232 20 137 19 
233 10 139 9 
234 68 124 69 
235 63 143 11 
236 56 127 70 
237 100 129 77 
238 74 130 108 
239 81 98 80 
240 57 114 43 
241 86 125 64 
242 42 131 57 
243 85 130 113 
244 47 122 5 
245 107 115 79 
246 38 118 61 
247 62 118 37 
248 71 124 68 
249 127 144 103 
250 61 116 39 
251 126 146 96 
252 104 134 82 
253 129 148 35 
254 85 140 8 
255 7 80 79 
256 110 141 22 
257 64 125 73 
258 114 126 81 
259 36 117 62 
260 55 127 56 
261 87 130 74 
262 14 141 78 
263 59 127 55 
264 82 134 83 
265 115 120 79 
266 78 141 110 
267 60 145 110 
268 113 140 85 
269 119 126 94 
270 13 149 12 
271 122 123 5 
272 32 151 147 
273 90 145 132 
274 111 135 29 
275 108 139 105 
276 89 137 87 
277 80 107 79 
278 21 140 113 
279 79 120 44 
280 120 121 45 
281 114 146 126 
282 62 136 118 
283 59 144 127 
284 46 121 88 
285 69 152 102 
286 57 146 114 
287 65 144 59 
288 100 148 129 
289 123 150 5 
290 88 122 47 
291 98 142 80 
292 148 150 123 
293 5 150 117 
294 34 148 123 
295 80 142 107 
296 100 150 148 
297 121 147 88 
298 132 145 60 
299 133 152 69 
300 96 152 133 
301 88 151 122 
302 147 151 88 
$EndElements
