$MeshFormat
4.1 0 8
$EndMeshFormat
$PhysicalNames
3
1 101 "outer_boundary"
2 1 "material_1"
2 2 "material_2"
$EndPhysicalNames
$Entities
5 5 2 0
1 0 0 0 0 
2 1 0 0 0 
3 0 1 0 0 
4 1 1 0 0 
5 0.7410008492235787 0.7259564501994399 0 0 
1 -9.999999994736442e-08 -1e-07 -1e-07 1.0000001 1e-07 1e-07 1 101 2 1 -2 
2 -1e-07 -9.999999994736442e-08 -1e-07 1e-07 1.0000001 1e-07 1 101 2 3 -1 
3 0.9999999000000001 -9.999999994736442e-08 -1e-07 1.0000001 1.0000001 1e-07 1 101 2 2 -4 
4 -9.999999994736442e-08 0.9999999000000001 -1e-07 1.0000001 1.0000001 1e-07 1 101 2 4 -3 
5 0.3294455165747375 0.5201787338750193 -1e-07 0.7410009492235786 0.9317341665238604 1e-07 0 2 5 -5 
2 0.3294455165747375 0.5201787338750193 -1e-07 0.7410009492235786 0.9317341665238604 1e-07 1 2 1 5 
3 -9.999999994736442e-08 -9.999999994736442e-08 -1e-07 1.0000001 1.0000001 1e-07 1 1 5 1 3 4 2 -5 
$EndEntities
$Nodes
12 170 1 170
0 1 0 1
1
0 0 0
0 2 0 1
2
1 0 0
0 3 0 1
3
0 1 0
0 4 0 1
4
1 1 0
0 5 0 1
5
0.7410008492235787 0.7259564501994399 0
1 1 0 7
6
7
8
9
10
11
12
0.1249999999999999 0 0
0.2499999999999998 0 0
0.3749999999999993 0 0
0.4999999999999988 0 0
0.6249999999999988 0 0
0.7499999999999991 0 0
0.8749999999999997 0 0
1 2 0 7
13
14
15
16
17
18
19
0 0.8750000000000001 0
0 0.7500000000000002 0
0 0.6250000000000007 0
0 0.5000000000000012 0
0 0.3750000000000012 0
0 0.2500000000000009 0
0 0.1250000000000003 0
1 3 0 7
20
21
22
23
24
25
26
1 0.1249999999999999 0
1 0.2499999999999998 0
1 0.3749999999999993 0
1 0.4999999999999988 0
1 0.6249999999999988 0
1 0.7499999999999991 0
1 0.8749999999999997 0
1 4 0 7
27
28
29
30
31
32
33
0.8750000000000001 1 0
0.7500000000000002 1 0
0.6250000000000007 1 0
0.5000000000000012 1 0
0.3750000000000012 1 0
0.2500000000000009 1 0
0.1250000000000003 1 0
1 5 0 18
34
35
36
37
38
39
40
41
42
43
44
45
46
47
48
49
50
51
0.729851250374853 0.7927723329941843 0
0.6976106858677869 0.852347678132876 0
0.6477729211306231 0.898226572563013 0
0.5857386512852307 0.9254373261886948 0
0.5182302520302304 0.9310312316362335 0
0.4525633059256438 0.9144021024520024 0
0.3958538455095555 0.8773519628106375 0
0.3542472207559901 0.8238957702344307 0
0.3322521550502973 0.7598263326473038 0
0.3322521550502974 0.6920865677515754 0
0.3542472207559905 0.6280171301644483 0
0.3958538455095563 0.5745609375882416 0
0.4525633059256448 0.537510797946877 0
0.5182302520302313 0.5208816687626462 0
0.5857386512852315 0.5264755742101853 0
0.6477729211306238 0.5536863278358672 0
0.6976106858677871 0.5995652222660041 0
0.7298512503748531 0.6591405674046956 0
2 2 0 30
52
53
54
55
56
57
58
59
60
61
62
63
64
65
66
67
68
69
70
71
72
73
74
75
76
77
78
79
80
81
0.4213449538933615 0.6373214278786592 0
0.6621372057919872 0.7946388576680601 0
0.4562949378607824 0.8467651992760795 0
0.6329595154251626 0.6197865453811513 0
0.5471399874337938 0.8697702901888115 0
0.5438495022729153 0.5893769488923256 0
0.6775617979226838 0.7022043446470698 0
0.3909165122963831 0.7259564501994397 0
0.3821472954155288 0.7785074859149375 0
0.44197912355056 0.7723400896898972 0
0.4419673107529741 0.7015198761662593 0
0.5046909047370833 0.7348444129630135 0
0.5056073349330277 0.6609793314060292 0
0.5649540351056908 0.7047384379418474 0
0.563990527741949 0.7658365746900383 0
0.4783615615610195 0.5973742296417393 0
0.6283232144252993 0.7417732027903589 0
0.5124631641745562 0.81378722199338 0
0.5781952379928871 0.6391450066994092 0
0.6251562425167345 0.6778528729359858 0
0.3852076704840353 0.6752293307840105 0
0.6775617979226838 0.6489266709039814 0
0.4061044846184834 0.8197721015851965 0
0.6912456391035225 0.7520206700244731 0
0.5993127589532617 0.5806406081002973 0
0.6002356909096245 0.8741699256148041 0
0.5803099830772379 0.826457821383749 0
0.639075320442073 0.8421229268380749 0
0.4968109771574623 0.8773506310441759 0
0.6136024609550813 0.7911976703232803 0
2 3 0 89
82
83
84
85
86
87
88
89
90
91
92
93
94
95
96
97
98
99
100
101
102
103
104
105
106
107
108
109
110
111
112
113
114
115
116
117
118
119
120
121
122
123
124
125
126
127
128
129
130
131
132
133
134
135
136
137
138
139
140
141
142
143
144
145
146
147
148
149
150
151
152
153
154
155
156
157
158
159
160
161
162
163
164
165
166
167
168
169
170
0.3925976460768586 0.5052863439219084 0
0.6440076670928336 0.4899475215876332 0
0.2974925466491131 0.1114613974257643 0
0.5862159629748158 0.1126947000634938 0
0.8968521460643972 0.3125725941920704 0
0.2783077289932818 0.6522507670475888 0
0.2885422931490254 0.8165076361810889 0
0.105171741358236 0.4424408644168034 0
0.7615142385899405 0.5911059346562801 0
0.7963604682769004 0.7630141024902717 0
0.8130658112331212 0.1177356066306217 0
0.1124585913826033 0.1926117372188036 0
0.1140725523205856 0.6762895258604059 0
0.4498323617376842 0.4684936806124378 0
0.3837746230923824 0.4324341189238825 0
0.4476233800784051 0.3870610617255639 0
0.3743782377893866 0.3484626464227993 0
0.3270103916561337 0.4744191637605479 0
0.4454082658143768 0.3032529132880736 0
0.5107914549698171 0.3457955623322423 0
0.803231742655431 0.6784240622538485 0
0.7091616192184009 0.5312825262997103 0
0.7129045142712958 0.4539950030851235 0
0.791683239455481 0.5029964266573813 0
0.260836195143448 0.7339794186566693 0
0.2071861292126324 0.8037274700031414 0
0.3291756859746052 0.9058394805083987 0
0.6483769084149336 0.4068485869111402 0
0.7243715749858201 0.3758403028775897 0
0.6541865607249989 0.3265578889709959 0
0.785548792760453 0.8390240291251343 0
0.7374493133420671 0.2881730776309349 0
0.8400919470185317 0.5889981542988316 0
0.5793492660556245 0.4610515646617424 0
0.3665592462230857 0.2596321343062789 0
0.2890852477646997 0.3126395314231452 0
0.4504507466846213 0.2092683064107846 0
0.8788760043287298 0.8328659031210274 0
0.6496173947153172 0.2165335374595536 0
0.8865361937427076 0.4307586718750989 0
0.1029781193623375 0.5572501274277355 0
0.1884341326988864 0.4933331434946933 0
0.2952560548777139 0.5840146469744564 0
0.9087826196489158 0.6766332402141171 0
0.2069196227687798 0.3899850211419285 0
0.1038450174302729 0.3204763463451861 0
0.2026907236242357 0.5970712485004879 0
0.2454215670714134 0.8827892688700354 0
0.1508341196049159 0.8774501812754125 0
0.693576169137522 0.1047450975858646 0
0.2860083957475801 0.2198732123681079 0
0.9072323594603422 0.1913065060776906 0
0.1790198632244333 0.09738343850287801 0
0.544649984998731 0.2067268166768249 0
0.1048706950260766 0.8008980337707861 0
0.4132192711572584 0.1057092179693317 0
0.2050253160502333 0.6793753551981452 0
0.3097102096583274 0.3991690713713374 0
0.8503860674073958 0.9027078166272928 0
0.1985201490720179 0.2728204552935785 0
0.8075893288653221 0.3474503369453799 0
0.712424091573248 0.9184478956781605 0
0.8752497082789681 0.5159506998987569 0
0.7438480241380179 0.1920998434221748 0
0.5793102789346489 0.3755733747030999 0
0.5109771355287335 0.4265124274255598 0
0.8230797703467567 0.2485598456890649 0
0.9248248549892831 0.5813164188823406 0
0.3627460412923317 0.1811888536960535 0
0.5775796106932705 0.2889139578168557 0
0.8631257259799758 0.7457920607511644 0
0.90849364905389 0.09150635094610987 0
0.09150635094610987 0.09150635094610998 0
0.1739024400578704 0.7380858897889697 0
0.2671621586503837 0.5194908337488978 0
0.2551612015195817 0.4500403017790097 0
0.0746185535837619 0.9253814464162383 0
0.4058638850863408 0.9309096045239613 0
0.9240686077778555 0.9249702717795973 0
0.6641871327978206 0.9484223588859737 0
0.2098318466876135 0.1816560759517589 0
0.5117637099043134 0.2757198327955589 0
0.7846169702641254 0.4222081482881147 0
0.9296485628482037 0.776619599348489 0
0.7784949396014806 0.9187545699272439 0
0.3427919410012159 0.5463085025113175 0
0.4989071931630851 0.126879808224087 0
0.1966620043797204 0.9383224957375718 0
0.4503314886084435 0.9552685877224395 0
$EndNodes
$Elements
6 338 1 338
1 1 1 8
1 1 6 
2 6 7 
3 7 8 
4 8 9 
5 9 10 
6 10 11 
7 11 12 
8 12 2 
1 2 1 8
9 3 13 
10 13 14 
11 14 15 
12 15 16 
13 16 17 
14 17 18 
15 18 19 
16 19 1 
1 3 1 8
17 2 20 
18 20 21 
19 21 22 
20 22 23 
21 23 24 
22 24 25 
23 25 26 
24 26 4 
1 4 1 8
25 4 27 
26 27 28 
27 28 29 
28 29 30 
29 30 31 
30 31 32 
31 32 33 
32 33 3 
2 2 2 77
33 52 67 64 
34 52 64 62 
35 64 67 57 
36 57 70 64 
37 46 67 45 
38 47 67 46 
39 57 67 47 
40 45 67 52 
41 56 80 69 
42 61 69 54 
43 69 78 56 
44 54 74 61 
45 69 80 54 
46 66 78 69 
47 38 56 37 
48 35 53 34 
49 43 59 42 
50 40 54 39 
51 48 57 47 
52 5 58 51 
53 45 52 44 
54 50 55 49 
55 65 66 63 
56 64 65 63 
57 62 64 63 
58 63 69 61 
59 65 68 66 
60 58 75 68 
61 55 71 70 
62 62 63 61 
63 66 69 63 
64 68 75 53 
65 70 76 55 
66 61 74 60 
67 59 62 61 
68 59 72 62 
69 62 72 52 
70 64 70 65 
71 57 76 70 
72 70 71 65 
73 68 71 58 
74 78 81 79 
75 65 71 68 
76 78 79 77 
77 59 61 60 
78 55 73 71 
79 71 73 58 
80 49 76 48 
81 53 75 34 
82 34 75 5 
83 36 79 35 
84 40 74 54 
85 44 72 43 
86 37 77 36 
87 51 73 50 
88 59 60 42 
89 39 80 38 
90 42 60 41 
91 58 73 51 
92 56 77 37 
93 43 72 59 
94 52 72 44 
95 5 75 58 
96 35 79 53 
97 48 76 57 
98 54 80 39 
99 41 74 40 
100 50 73 55 
101 38 80 56 
102 55 76 49 
103 68 81 66 
104 53 81 68 
105 79 81 53 
106 56 78 77 
107 60 74 41 
108 77 79 36 
109 66 81 78 
2 3 2 229
110 87 128 124 
111 119 165 26 
112 43 106 87 
113 105 114 90 
114 83 115 109 
115 32 108 31 
116 85 131 120 
117 5 102 91 
118 108 159 31 
119 128 156 124 
120 26 160 119 
121 120 135 85 
122 122 128 94 
123 32 129 108 
124 103 105 90 
125 93 127 18 
126 115 146 109 
127 105 164 121 
128 29 161 28 
129 95 147 47 
130 119 160 140 
131 128 138 94 
132 15 122 94 
133 130 158 136 
134 47 147 115 
135 121 144 105 
136 106 138 87 
137 113 142 110 
138 113 148 142 
139 136 158 13 
140 102 152 91 
141 25 125 24 
142 92 148 145 
143 93 141 127 
144 18 127 17 
145 46 95 47 
146 89 123 122 
147 14 136 13 
148 105 144 114 
149 146 151 111 
150 10 131 85 
151 132 162 84 
152 23 144 121 
153 42 106 43 
154 133 148 92 
155 22 121 86 
156 89 122 16 
157 51 102 5 
158 126 141 117 
159 159 170 31 
160 112 166 35 
161 15 94 14 
162 109 146 111 
163 34 112 35 
164 25 165 125 
165 117 139 126 
166 85 168 9 
167 9 168 137 
168 27 166 140 
169 123 128 122 
170 44 167 45 
171 22 86 21 
172 48 115 83 
173 17 89 16 
174 89 126 123 
175 84 162 134 
176 101 151 146 
177 23 121 22 
178 10 85 9 
179 16 122 15 
180 8 84 7 
181 28 166 27 
182 17 127 89 
183 83 104 103 
184 83 103 49 
185 23 149 144 
186 35 166 143 
187 87 138 128 
188 86 133 21 
189 123 156 128 
190 50 103 90 
191 121 164 142 
192 12 92 11 
193 94 136 14 
194 19 93 18 
195 11 131 10 
196 84 134 7 
197 36 161 37 
198 92 131 11 
199 21 133 20 
200 7 134 6 
201 127 141 126 
202 9 137 8 
203 142 148 86 
204 124 167 44 
205 37 161 29 
206 121 142 86 
207 100 101 97 
208 41 108 88 
209 8 137 84 
210 89 127 126 
211 83 109 104 
212 45 82 46 
213 48 83 49 
214 125 165 152 
215 47 115 48 
216 101 147 97 
217 2 153 12 
218 20 153 2 
219 1 154 19 
220 6 154 1 
221 39 170 159 
222 98 117 116 
223 43 87 44 
224 111 120 113 
225 138 155 94 
226 50 90 51 
227 108 129 88 
228 125 149 24 
229 82 99 96 
230 49 103 50 
231 82 95 46 
232 104 105 103 
233 98 116 100 
234 116 118 100 
235 98 100 97 
236 96 97 95 
237 96 98 97 
238 32 169 129 
239 120 151 135 
240 156 167 124 
241 41 88 42 
242 111 151 120 
243 111 113 110 
244 109 111 110 
245 130 136 107 
246 131 145 120 
247 130 169 33 
248 5 91 34 
249 99 167 156 
250 139 157 126 
251 117 132 116 
252 82 96 95 
253 87 124 44 
254 146 147 101 
255 26 165 25 
256 109 110 104 
257 125 152 102 
258 126 157 123 
259 40 159 108 
260 106 155 138 
261 129 130 107 
262 40 108 41 
263 93 162 141 
264 88 106 42 
265 98 139 117 
266 135 163 118 
267 88 129 107 
268 92 145 131 
269 33 158 130 
270 90 102 51 
271 107 155 106 
272 114 149 125 
273 117 141 132 
274 96 139 98 
275 86 148 133 
276 91 112 34 
277 99 139 96 
278 115 147 146 
279 88 107 106 
280 24 149 23 
281 133 153 20 
282 114 125 102 
283 84 150 132 
284 134 154 6 
285 118 163 100 
286 35 143 36 
287 119 140 112 
288 118 168 135 
289 118 150 137 
290 12 153 92 
291 132 150 116 
292 33 169 32 
293 91 119 112 
294 90 114 102 
295 145 148 113 
296 19 154 93 
297 30 170 38 
298 120 145 113 
299 3 158 33 
300 13 158 3 
301 92 153 133 
302 82 167 99 
303 93 154 134 
304 97 147 95 
305 4 160 26 
306 27 160 4 
307 135 168 85 
308 137 150 84 
309 136 155 107 
310 39 159 40 
311 134 162 93 
312 137 168 118 
313 38 170 39 
314 116 150 118 
315 142 164 110 
316 28 161 143 
317 110 164 104 
318 144 149 114 
319 91 152 119 
320 99 157 139 
321 100 163 101 
322 94 155 136 
323 143 166 28 
324 45 167 82 
325 104 164 105 
326 140 166 112 
327 141 162 132 
328 140 160 27 
329 156 157 99 
330 143 161 36 
331 129 169 130 
332 101 163 151 
333 152 165 119 
334 123 157 156 
335 151 163 135 
336 31 170 30 
337 37 29 30 
338 37 30 38 
$EndElements
