$MeshFormat
4.1 0 8
$EndMeshFormat
$PhysicalNames
3
1 101 "outer_boundary"
2 1 "material_1"
2 2 "material_2"
$EndPhysicalNames
$Entities
8 8 2 0
1 0 0 0 0 
2 1 0 0 0 
3 0 1 0 0 
4 1 1 0 0 
5 0.8612048833836755 0.5402051274651478 0 0 
6 0.7578371649974679 0.7441661849360852 0 0 
7 0.5538761075265305 0.6407984665498776 0 0 
8 0.6572438259127381 0.4368374090789402 0 0 
1 -9.999999994736442e-08 -1e-07 -1e-07 1.0000001 1e-07 1e-07 1 101 2 1 -2 
2 -1e-07 -9.999999994736442e-08 -1e-07 1e-07 1.0000001 1e-07 1 101 2 3 -1 
3 0.9999999000000001 -9.999999994736442e-08 -1e-07 1.0000001 1.0000001 1e-07 1 101 2 2 -4 
4 -9.999999994736442e-08 0.9999999000000001 -1e-07 1.0000001 1.0000001 1e-07 1 101 2 4 -3 
5 0.7578370649974679 0.5402050274651479 -1e-07 0.8612049833836755 0.7441662849360852 1e-07 0 2 5 -6 
6 0.5538760075265305 0.6407983665498777 -1e-07 0.7578372649974678 0.7441662849360852 1e-07 0 2 6 -7 
7 0.5538760075265305 0.4368373090789402 -1e-07 0.6572439259127381 0.6407985665498775 1e-07 0 2 7 -8 
8 0.6572437259127382 0.4368373090789402 -1e-07 0.8612049833836755 0.5402052274651478 1e-07 0 2 8 -5 
2 0.5538760075265305 0.4368373090789402 -1e-07 0.8612049833836755 0.7441662849360852 1e-07 1 2 4 5 6 7 8 
3 -9.999999994736442e-08 -9.999999994736442e-08 -1e-07 1.0000001 1.0000001 1e-07 1 1 8 1 3 4 2 -5 -8 -7 -6 
$EndEntities
$Nodes
18 171 1 171
0 1 0 1
1
0 0 0
0 2 0 1
2
1 0 0
0 3 0 1
3
0 1 0
0 4 0 1
4
1 1 0
0 5 0 1
5
0.8612048833836755 0.5402051274651478 0
0 6 0 1
6
0.7578371649974679 0.7441661849360852 0
0 7 0 1
7
0.5538761075265305 0.6407984665498776 0
0 8 0 1
8
0.6572438259127381 0.4368374090789402 0
1 1 0 7
9
10
11
12
13
14
15
0.1249999999999999 0 0
0.2499999999999998 0 0
0.3749999999999993 0 0
0.4999999999999988 0 0
0.6249999999999988 0 0
0.7499999999999991 0 0
0.8749999999999997 0 0
1 2 0 7
16
17
18
19
20
21
22
0 0.8750000000000001 0
0 0.7500000000000002 0
0 0.6250000000000007 0
0 0.5000000000000012 0
0 0.3750000000000012 0
0 0.2500000000000009 0
0 0.1250000000000003 0
1 3 0 7
23
24
25
26
27
28
29
1 0.1249999999999999 0
1 0.2499999999999998 0
1 0.3749999999999993 0
1 0.4999999999999988 0
1 0.6249999999999988 0
1 0.7499999999999991 0
1 0.8749999999999997 0
1 4 0 7
30
31
32
33
34
35
36
0.8750000000000001 1 0
0.7500000000000002 1 0
0.6250000000000007 1 0
0.5000000000000012 1 0
0.3750000000000012 1 0
0.2500000000000009 1 0
0.1250000000000003 1 0
1 5 0 3
37
38
39
0.8353629537871236 0.5911953918328823 0
0.8095210241905716 0.6421856562006166 0
0.7836790945940197 0.693175920568351 0
1 6 0 3
40
41
42
0.7068469006297334 0.7183242553395333 0
0.6558566362619991 0.6924823257429813 0
0.6048663718942648 0.6666403961464294 0
1 7 0 3
43
44
45
0.5797180371230825 0.5898082021821431 0
0.6055599667196344 0.5388179378144088 0
0.6314018963161863 0.4878276734466745 0
1 8 0 3
46
47
48
0.7082340902804726 0.4626793386754922 0
0.7592243546482069 0.4885212682720441 0
0.8102146190159412 0.514363197868596 0
2 2 0 15
49
50
51
52
53
54
55
56
57
58
59
60
61
62
63
0.710342715942947 0.51619981073538 0
0.6527412715915548 0.6354024966565631 0
0.7535324307543227 0.6455825002319671 0
0.7792216368587007 0.5950414616809475 0
0.7212032956142869 0.5974261211737709 0
0.704934640178518 0.6628564690736761 0
0.6629580407560058 0.5731225610910975 0
0.7553786005014406 0.5472156285962232 0
0.6220228323034807 0.5957869996114303 0
0.6501540829436773 0.5293747982882523 0
0.8049598137448311 0.5586149862434044 0
0.7394273062192113 0.687921115297241 0
0.6745191294972023 0.4912475547337801 0
0.7015812820680059 0.557545626275777 0
0.5992444291109733 0.6263832283258898 0
2 3 0 108
64
65
66
67
68
69
70
71
72
73
74
75
76
77
78
79
80
81
82
83
84
85
86
87
88
89
90
91
92
93
94
95
96
97
98
99
100
101
102
103
104
105
106
107
108
109
110
111
112
113
114
115
116
117
118
119
120
121
122
123
124
125
126
127
128
129
130
131
132
133
134
135
136
137
138
139
140
141
142
143
144
145
146
147
148
149
150
151
152
153
154
155
156
157
158
159
160
161
162
163
164
165
166
167
168
169
170
171
0.5727426816348544 0.4891250001264864 0
0.09458850887806858 0.3187128135918321 0
0.09600453792966379 0.564304355984785 0
0.7064303908346973 0.4054215965506897 0
0.6411822958891384 0.3857220146244 0
0.3181392391003862 0.8955720068090116 0
0.5223888319681401 0.5919082025182831 0
0.497530444636126 0.6481247730577717 0
0.4577602766331769 0.5894579844391189 0
0.7100222128223002 0.3407486218112614 0
0.4326581626763887 0.1153003769103677 0
0.8166279986852403 0.4425547082867786 0
0.607981736564709 0.7237202252328477 0
0.4251351072189126 0.6540665142974127 0
0.6446792267719013 0.3057117115291113 0
0.5841742006114897 0.3473133367063289 0
0.4801485753305824 0.7239647937404605 0
0.3834294777781949 0.592435943327619 0
0.4216680444748516 0.523242699587163 0
0.349024888763479 0.6605644103299545 0
0.339796891216541 0.524953880438876 0
0.3828239626905621 0.4503173219583048 0
0.7082357939220989 0.262966813478651 0
0.7059988646656121 0.7780697519646389 0
0.7664643367151233 0.8003569053832085 0
0.8136806623796413 0.7492117843360844 0
0.6400659978776091 0.2216820783223657 0
0.2930267601622428 0.4510054858463841 0
0.3389895821281186 0.3726299865764732 0
0.7831669334446869 0.3036054883016277 0
0.7849994322722362 0.2117341788783415 0
0.1170196719827875 0.8048642190673119 0
0.187297542567163 0.1020489019811189 0
0.5447993542694932 0.9032426221926741 0
0.7065711948789102 0.8445029320023955 0
0.4289564045716002 0.3747979583816574 0
0.387395752474822 0.2923834631330333 0
0.2920491205557806 0.288757539419138 0
0.8395347954548795 0.82101867203273 0
0.8566959095921352 0.6404591523661134 0
0.4864694924309516 0.2960811443615084 0
0.2511079240422984 0.5323710910044124 0
0.2049985211594721 0.4467474127909951 0
0.6362115970578355 0.7956439019703858 0
0.3423708464866546 0.2015508607487871 0
0.4347606379281548 0.88358968121684 0
0.3619217206060793 0.8001729761852228 0
0.2702853933329023 0.8001427517922142 0
0.6648396603499918 0.1120039815836432 0
0.8586964886872042 0.2606616876299293 0
0.8449024798625259 0.3569139405690115 0
0.8550812984986653 0.173141506303553 0
0.7737926720821056 0.8815329012984849 0
0.5509403916165245 0.09929407312977395 0
0.5049175664786815 0.8120508631693668 0
0.1015074206212351 0.6829375471469515 0
0.2072048918779787 0.8810984708386252 0
0.5051306451480694 0.1903406184786253 0
0.4616434221739924 0.4518750306606447 0
0.1995345959301001 0.6136112293955041 0
0.5019791003719427 0.5201999418312782 0
0.1103697638671797 0.1954384986378903 0
0.511053980216035 0.3904437878680382 0
0.5751069136815963 0.4187623263302472 0
0.8870469152582743 0.7561483011847269 0
0.5698699745101717 0.259084763550022 0
0.5500988118453424 0.6943226742731936 0
0.5561896351198417 0.7626873909117751 0
0.7769699799198175 0.3814083526877604 0
0.9074190572542549 0.4314967099263746 0
0.3095374845930513 0.09677462216934296 0
0.1053646823686162 0.4442673859357472 0
0.2490537590512784 0.3723019270489962 0
0.6615485338635394 0.7439092528441695 0
0.2399879665830601 0.1965673865612225 0
0.8664869353267414 0.9048081370680146 0
0.2124214937897225 0.7294814656579582 0
0.5564777235635308 0.5459718568945199 0
0.3063131979379338 0.5960353576153526 0
0.8985734164241774 0.602543941423366 0
0.8417337474356263 0.6927469172929046 0
0.3945066341121874 0.7193275246593795 0
0.7927755189577512 0.1094072075563076 0
0.7556840149693683 0.4322799829153709 0
0.633010787462023 0.8817976888888525 0
0.2707785245478626 0.6674154180796383 0
0.1960670355513267 0.2937777756653495 0
0.9242807381847922 0.5296068711781172 0
0.9207196152803254 0.82846260183562 0
0.3155268304764004 0.7325971671437258 0
0.9263972183192543 0.3143422988013895 0
0.5245052196156842 0.4540812173633389 0
0.7041387896471127 0.9212535494839292 0
0.4308049798433772 0.2191312927264644 0
0.7140289321120358 0.1839237419769588 0
0.8610755584090349 0.4874796015092005 0
0.09150635094610954 0.9084936490538905 0
0.09150635094610948 0.09150635094610954 0
0.9120179581941578 0.09411551321237366 0
0.9140083314517022 0.6778163853778514 0
0.5776374478852393 0.8263226890105753 0
0.4359697483387771 0.7724980019438763 0
0.1700145014017523 0.375161463006584 0
0.6155355226869027 0.4436548847213497 0
0.1714020522860302 0.5202602950222888 0
0.5780138815246995 0.1781194618060071 0
0.9253654939498802 0.2028768343245409 0
0.2017328627458477 0.8038967268390274 0
$EndNodes
$Elements
6 340 1 340
1 1 1 8
1 1 9 
2 9 10 
3 10 11 
4 11 12 
5 12 13 
6 13 14 
7 14 15 
8 15 2 
1 2 1 8
9 3 16 
10 16 17 
11 17 18 
12 18 19 
13 19 20 
14 20 21 
15 21 22 
16 22 1 
1 3 1 8
17 2 23 
18 23 24 
19 24 25 
20 25 26 
21 26 27 
22 27 28 
23 28 29 
24 29 4 
1 4 1 8
25 4 30 
26 30 31 
27 31 32 
28 32 33 
29 33 34 
30 34 35 
31 35 36 
32 36 3 
2 2 2 44
33 50 55 53 
34 53 54 50 
35 53 56 52 
36 51 54 53 
37 55 57 44 
38 53 62 56 
39 44 58 55 
40 47 49 46 
41 51 52 38 
42 42 50 41 
43 39 51 38 
44 51 53 52 
45 38 52 37 
46 44 57 43 
47 49 62 58 
48 41 54 40 
49 48 56 47 
50 50 54 41 
51 47 56 49 
52 55 62 53 
53 50 57 55 
54 37 59 5 
55 6 60 39 
56 5 59 48 
57 40 60 6 
58 8 61 45 
59 46 61 8 
60 56 62 49 
61 58 61 49 
62 42 63 50 
63 58 62 55 
64 48 59 56 
65 54 60 40 
66 45 58 44 
67 49 61 46 
68 39 60 51 
69 52 59 37 
70 50 63 57 
71 43 63 7 
72 7 63 42 
73 56 59 52 
74 51 60 54 
75 45 61 58 
76 57 63 43 
2 3 2 264
77 4 139 29 
78 79 126 104 
79 75 132 114 
80 30 139 4 
81 143 163 103 
82 116 139 31 
83 130 131 80 
84 109 118 97 
85 112 158 90 
86 80 131 118 
87 90 169 112 
88 71 130 80 
89 33 109 97 
90 104 129 79 
91 107 131 76 
92 114 133 75 
93 64 141 124 
94 135 168 66 
95 19 135 66 
96 114 154 133 
97 68 167 127 
98 8 167 68 
99 27 163 143 
100 108 134 74 
101 138 150 125 
102 124 155 64 
103 109 165 118 
104 12 117 74 
105 110 165 109 
106 69 110 109 
107 31 139 30 
108 76 137 107 
109 7 130 71 
110 94 158 146 
111 117 121 74 
112 36 120 35 
113 68 127 79 
114 74 157 108 
115 143 151 27 
116 139 152 29 
117 66 119 18 
118 69 109 34 
119 112 169 117 
120 33 97 32 
121 26 133 25 
122 105 142 123 
123 72 124 70 
124 73 132 67 
125 106 168 135 
126 112 117 13 
127 125 150 65 
128 133 154 25 
129 66 123 119 
130 35 69 34 
131 14 112 13 
132 6 89 88 
133 12 74 11 
134 99 122 85 
135 85 122 82 
136 34 109 33 
137 118 165 80 
138 19 66 18 
139 36 160 120 
140 104 126 99 
141 122 124 82 
142 74 134 11 
143 69 111 110 
144 21 65 20 
145 17 119 95 
146 108 138 134 
147 134 138 96 
148 35 120 69 
149 13 117 12 
150 119 140 95 
151 97 148 32 
152 96 138 125 
153 28 163 27 
154 18 119 17 
155 82 124 72 
156 94 146 115 
157 149 153 140 
158 17 95 16 
159 79 129 78 
160 10 96 9 
161 21 125 65 
162 121 129 104 
163 107 164 131 
164 5 159 151 
165 93 132 73 
166 140 153 111 
167 10 134 96 
168 92 99 85 
169 142 149 123 
170 99 126 122 
171 146 158 112 
172 100 104 99 
173 26 151 133 
174 89 102 88 
175 22 125 21 
176 114 132 93 
177 20 135 19 
178 113 114 93 
179 15 162 146 
180 162 170 115 
181 124 141 70 
182 15 146 14 
183 78 129 90 
184 79 127 126 
185 102 116 88 
186 133 159 75 
187 102 139 116 
188 92 100 99 
189 132 147 67 
190 65 135 20 
191 104 157 121 
192 27 151 26 
193 44 64 45 
194 148 156 32 
195 146 162 115 
196 7 70 43 
197 140 171 95 
198 81 82 72 
199 121 157 74 
200 123 168 105 
201 23 170 162 
202 122 155 124 
203 75 147 132 
204 31 156 116 
205 14 146 112 
206 68 79 78 
207 3 160 36 
208 16 160 3 
209 43 141 44 
210 101 108 100 
211 9 161 1 
212 1 161 22 
213 84 105 91 
214 69 120 111 
215 91 92 85 
216 11 134 10 
217 127 167 64 
218 28 152 128 
219 92 101 100 
220 118 164 97 
221 105 106 91 
222 84 85 82 
223 151 159 133 
224 120 160 95 
225 32 156 31 
226 84 91 85 
227 41 76 42 
228 101 138 108 
229 8 67 46 
230 42 130 7 
231 71 80 77 
232 29 152 28 
233 40 137 41 
234 123 140 119 
235 64 155 127 
236 77 81 72 
237 111 153 110 
238 46 147 47 
239 86 93 73 
240 6 87 40 
241 81 84 82 
242 128 163 28 
243 47 75 48 
244 98 107 87 
245 44 141 64 
246 8 68 67 
247 91 136 92 
248 94 115 113 
249 92 136 101 
250 70 141 43 
251 71 72 70 
252 100 157 104 
253 7 71 70 
254 126 155 122 
255 78 90 86 
256 77 83 81 
257 106 136 91 
258 94 113 93 
259 2 162 15 
260 23 162 2 
261 71 77 72 
262 86 94 93 
263 68 78 73 
264 66 168 123 
265 101 150 138 
266 78 86 73 
267 89 144 128 
268 68 73 67 
269 84 142 105 
270 95 171 120 
271 24 170 23 
272 89 128 102 
273 107 137 87 
274 39 89 6 
275 6 88 87 
276 127 155 126 
277 81 142 84 
278 22 161 125 
279 5 151 143 
280 38 144 39 
281 48 159 5 
282 95 160 16 
283 102 152 139 
284 110 153 145 
285 83 142 81 
286 64 167 45 
287 131 164 118 
288 76 130 42 
289 41 137 76 
290 96 161 9 
291 37 103 38 
292 5 143 37 
293 80 145 77 
294 67 147 46 
295 25 154 24 
296 87 137 40 
297 125 161 96 
298 117 169 121 
299 121 169 129 
300 47 147 75 
301 113 154 114 
302 76 131 130 
303 77 145 83 
304 88 98 87 
305 108 157 100 
306 123 149 140 
307 86 158 94 
308 98 148 107 
309 129 169 90 
310 88 116 98 
311 136 150 101 
312 148 164 107 
313 128 152 102 
314 83 149 142 
315 90 158 86 
316 83 153 149 
317 45 167 8 
318 135 166 106 
319 75 159 48 
320 120 171 111 
321 145 153 83 
322 65 166 135 
323 105 168 106 
324 39 144 89 
325 145 165 110 
326 150 166 65 
327 144 163 128 
328 136 166 150 
329 80 165 145 
330 103 144 38 
331 97 164 148 
332 113 170 154 
333 37 143 103 
334 98 156 148 
335 115 170 113 
336 116 156 98 
337 106 166 136 
338 111 171 140 
339 154 170 24 
340 103 163 144 
$EndElements
