$MeshFormat
4.1 0 8
$EndMeshFormat
$PhysicalNames
3
1 101 "outer_boundary"
2 1 "material_1"
2 2 "material_2"
$EndPhysicalNames
$Entities
7 7 2 0
1 0 0 0 0 
2 1 0 0 0 
3 0 1 0 0 
4 1 1 0 0 
5 0.260786613030791 0.8026019804751657 0 0 
6 0.2553624449726565 0.5695891806530324 0 0 
7 0.4598695330546294 0.6813981132313585 0 0 
1 -9.999999994736442e-08 -1e-07 -1e-07 1.0000001 1e-07 1e-07 1 101 2 1 -2 
2 -1e-07 -9.999999994736442e-08 -1e-07 1e-07 1.0000001 1e-07 1 101 2 3 -1 
3 0.9999999000000001 -9.999999994736442e-08 -1e-07 1.0000001 1.0000001 1e-07 1 101 2 2 -4 
4 -9.999999994736442e-08 0.9999999000000001 -1e-07 1.0000001 1.0000001 1e-07 1 101 2 4 -3 
5 0.2553623449726565 0.5695890806530325 -1e-07 0.260786713030791 0.8026020804751657 1e-07 0 2 5 -6 
6 0.2553623449726565 0.5695890806530325 -1e-07 0.4598696330546294 0.6813982132313584 1e-07 0 2 6 -7 
7 0.260786513030791 0.6813980132313585 -1e-07 0.4598696330546294 0.8026020804751657 1e-07 0 2 7 -5 
2 0.2553623449726565 0.5695890806530325 -1e-07 0.4598696330546294 0.8026020804751657 1e-07 1 2 3 5 6 7 
3 -9.999999994736442e-08 -9.999999994736442e-08 -1e-07 1.0000001 1.0000001 1e-07 1 1 7 1 3 4 2 -5 -7 -6 
$EndEntities
$Nodes
16 157 1 157
0 1 0 1
1
0 0 0
0 2 0 1
2
1 0 0
0 3 0 1
3
0 1 0
0 4 0 1
4
1 1 0
0 5 0 1
5
0.260786613030791 0.8026019804751657 0
0 6 0 1
6
0.2553624449726565 0.5695891806530324 0
0 7 0 1
7
0.4598695330546294 0.6813981132313585 0
1 1 0 7
8
9
10
11
12
13
14
0.1249999999999999 0 0
0.2499999999999998 0 0
0.3749999999999993 0 0
0.4999999999999988 0 0
0.6249999999999988 0 0
0.7499999999999991 0 0
0.8749999999999997 0 0
1 2 0 7
15
16
17
18
19
20
21
0 0.8750000000000001 0
0 0.7500000000000002 0
0 0.6250000000000007 0
0 0.5000000000000012 0
0 0.3750000000000012 0
0 0.2500000000000009 0
0 0.1250000000000003 0
1 3 0 7
22
23
24
25
26
27
28
1 0.1249999999999999 0
1 0.2499999999999998 0
1 0.3749999999999993 0
1 0.4999999999999988 0
1 0.6249999999999988 0
1 0.7499999999999991 0
1 0.8749999999999997 0
1 4 0 7
29
30
31
32
33
34
35
0.8750000000000001 1 0
0.7500000000000002 1 0
0.6250000000000007 1 0
0.5000000000000012 1 0
0.3750000000000012 1 0
0.2500000000000009 1 0
0.1250000000000003 1 0
1 5 0 3
36
37
38
0.2594305710162574 0.7443487805196324 0
0.2580745290017238 0.686095580564099 0
0.2567184869871901 0.6278423806085658 0
1 6 0 3
39
40
41
0.3064892169931497 0.5975414137976139 0
0.3576159890136429 0.6254936469421954 0
0.4087427610341361 0.653445880086777 0
1 7 0 3
42
43
44
0.4100988030486697 0.7116990800423103 0
0.3603280730427102 0.742000046853262 0
0.3105573430367506 0.7723010136642139 0
2 2 0 3
45
46
47
0.3078452590076833 0.6557946137531472 0
0.3092013010222169 0.7140478137086805 0
0.3589720310281765 0.6837468468977288 0
2 3 0 110
48
49
50
51
52
53
54
55
56
57
58
59
60
61
62
63
64
65
66
67
68
69
70
71
72
73
74
75
76
77
78
79
80
81
82
83
84
85
86
87
88
89
90
91
92
93
94
95
96
97
98
99
100
101
102
103
104
105
106
107
108
109
110
111
112
113
114
115
116
117
118
119
120
121
122
123
124
125
126
127
128
129
130
131
132
133
134
135
136
137
138
139
140
141
142
143
144
145
146
147
148
149
150
151
152
153
154
155
156
157
0.4592713020082115 0.6205290649235784 0
0.307741050768377 0.5377127391346598 0
0.513599419813648 0.6502632108648786 0
0.5126838630508858 0.5839557924041565 0
0.5734166715259601 0.6175265007983014 0
0.572145695784235 0.5450846206303879 0
0.443055317253257 0.09772168009083304 0
0.6880149673135317 0.1039718420187772 0
0.5070886894775738 0.510866232273894 0
0.5697349387122425 0.4671497624761118 0
0.6383307669127953 0.5820855325418738 0
0.496674078839584 0.4311392744957519 0
0.1223006966153681 0.3237510952662888 0
0.6392108427622121 0.661688691148997 0
0.5131782523702605 0.7130067522209041 0
0.4114548450632034 0.7699522799978435 0
0.5657481034969563 0.3831320145221982 0
0.6437934969048883 0.422832056036945 0
0.2520650304221442 0.5064677567012816 0
0.3079308908266061 0.4736993656082893 0
0.7154976068391939 0.6230012551000453 0
0.7140285004132454 0.7129806077625112 0
0.9003034587337546 0.3050871700308506 0
0.4829175884326118 0.352105834200899 0
0.2046428896957624 0.7718831396671181 0
0.205189898084108 0.6604098914694325 0
0.6408729294892734 0.3309229286221251 0
0.1990714069699694 0.5408878739939161 0
0.2473962495731693 0.4352511459155559 0
0.3251227629167194 0.3909971308005917 0
0.3119133850512842 0.8305542136197472 0
0.5573924144294663 0.9071789662393092 0
0.1869119300247172 0.0921893369443626 0
0.2054494929975069 0.8415185649685081 0
0.8039451339477727 0.8873104214598249 0
0.798704845899064 0.6676880385091618 0
0.7912566883463428 0.5507049637566321 0
0.3635880009892782 0.5074702128031665 0
0.6326699784006816 0.7439875596274941 0
0.7249326824133216 0.3771254354749666 0
0.7273048312913155 0.2844801123961676 0
0.4504794499969139 0.9011418102359865 0
0.1516013407827252 0.807749759407447 0
0.2362612616517159 0.3529084386840889 0
0.3164314260632679 0.2986068462132334 0
0.2222090208031116 0.2581447244625237 0
0.314105296373475 0.2093337827613537 0
0.6333738714808935 0.2205379143383123 0
0.402898884624318 0.2542057890594263 0
0.1471468409686137 0.725257215049273 0
0.7084323438030686 0.8088719041903739 0
0.4966312283904435 0.8073750181112247 0
0.4147174382282468 0.3979086669508823 0
0.7266983087470671 0.4734018417442304 0
0.8091964171379855 0.4365770068108725 0
0.5659143440294523 0.106281903028544 0
0.5008709423098293 0.2059841554792631 0
0.1047600522514125 0.4314497331030177 0
0.8828108007867527 0.1873204785100485 0
0.08224511128590101 0.5718779755801011 0
0.1229541532225095 0.1879466966434741 0
0.8084851609975383 0.09436916681492219 0
0.1377127653721809 0.8860604003021968 0
0.8799590210087995 0.5028146310643298 0
0.4073867190196026 0.5951926801312437 0
0.8994068999114018 0.8140294765030982 0
0.3576217500999458 0.5676633637555448 0
0.890459546374846 0.6109412491879371 0
0.4301788437809115 0.48413168328134 0
0.3140622644252664 0.1071017597816578 0
0.4590976874379332 0.737533409996775 0
0.6753654953923913 0.9054219003985691 0
0.214896945753293 0.7175989214539109 0
0.1245910774837394 0.643561408104635 0
0.1983652705666563 0.6032779914793813 0
0.6426832318111552 0.5061503166868441 0
0.5498043143034655 0.2944622686013195 0
0.3628372249149536 0.8021472827236671 0
0.3693476645001352 0.868866817480748 0
0.2979089212847482 0.9135994123106336 0
0.801551300561232 0.767696271494829 0
0.2160360224270045 0.9190189221265214 0
0.4565428617020278 0.5549084634751122 0
0.5717582226829377 0.6926937170735571 0
0.8983537654577574 0.7058925059491706 0
0.5626584434954416 0.7608017618709461 0
0.8135622704139591 0.2565642228119372 0
0.90675924869457 0.4096379926834138 0
0.2601766295248482 0.8612840392465955 0
0.3674041091232187 0.4470224883518801 0
0.186094916708097 0.4716109811599266 0
0.1766427400369329 0.404217860581042 0
0.7518661572796624 0.1840602755829185 0
0.705396183805703 0.5463480866915156 0
0.8084194889429721 0.3408313523393862 0
0.9057032606811815 0.09337754198878812 0
0.9106152605042472 0.9112475384220634 0
0.6074230801740397 0.8291701105019067 0
0.06794343302430128 0.704146731047009 0
0.09150635094610948 0.09150635094610954 0
0.1366340209949533 0.5113915166647461 0
0.3921045443879172 0.3283850345665577 0
0.4181500825731299 0.829896641709894 0
0.3949985409972291 0.1748694334345067 0
0.2320485329698159 0.1709432601186743 0
0.07498534218160191 0.8119117271560229 0
0.06647917967690203 0.9335208203230981 0
0.4030636351183532 0.5418732806892814 0
0.4726155462485671 0.2774585934581281 0
0.1481813774602438 0.5741993531645559 0
$EndNodes
$Elements
6 312 1 312
1 1 1 8
1 1 8 
2 8 9 
3 9 10 
4 10 11 
5 11 12 
6 12 13 
7 13 14 
8 14 2 
1 2 1 8
9 3 15 
10 15 16 
11 16 17 
12 17 18 
13 18 19 
14 19 20 
15 20 21 
16 21 1 
1 3 1 8
17 2 22 
18 22 23 
19 23 24 
20 24 25 
21 25 26 
22 26 27 
23 27 28 
24 28 4 
1 4 1 8
25 4 29 
26 29 30 
27 30 31 
28 31 32 
29 32 33 
30 33 34 
31 34 35 
32 35 3 
2 2 2 16
33 41 7 42 
34 44 5 36 
35 38 6 39 
36 46 47 43 
37 45 47 46 
38 37 46 36 
39 36 46 44 
40 39 45 38 
41 40 47 45 
42 45 46 37 
43 44 46 43 
44 43 47 42 
45 42 47 41 
46 38 45 37 
47 40 45 39 
48 41 47 40 
2 3 2 264
49 101 102 84 
50 60 93 91 
51 60 108 93 
52 25 115 111 
53 95 103 55 
54 82 119 98 
55 91 139 60 
56 102 111 84 
57 95 104 103 
58 99 118 62 
59 26 115 25 
60 63 118 99 
61 30 119 82 
62 33 126 89 
63 103 104 54 
64 105 148 18 
65 108 152 93 
66 18 148 107 
67 33 127 126 
68 90 153 97 
69 98 128 82 
70 89 99 79 
71 55 140 95 
72 32 89 79 
73 99 150 63 
74 134 140 106 
75 27 132 26 
76 60 105 19 
77 62 133 99 
78 11 103 54 
79 96 151 104 
80 26 132 115 
81 104 151 54 
82 106 140 109 
83 97 153 146 
84 32 79 31 
85 82 128 113 
86 33 89 32 
87 107 121 17 
88 19 105 18 
89 20 60 19 
90 77 149 100 
91 100 137 77 
92 104 156 96 
93 60 139 105 
94 95 140 88 
95 55 103 12 
96 11 54 10 
97 86 131 61 
98 20 108 60 
99 54 117 10 
100 121 122 73 
101 84 141 101 
102 24 70 23 
103 13 55 12 
104 30 82 29 
105 70 106 23 
106 12 103 11 
107 133 145 99 
108 73 120 97 
109 95 124 104 
110 9 80 8 
111 86 133 131 
112 121 146 17 
113 13 109 55 
114 34 127 33 
115 97 121 73 
116 9 117 80 
117 23 106 22 
118 80 152 108 
119 102 142 135 
120 14 109 13 
121 149 156 71 
122 21 108 20 
123 99 145 79 
124 89 150 99 
125 59 100 71 
126 59 116 100 
127 94 96 92 
128 100 149 71 
129 54 151 117 
130 31 119 30 
131 111 115 84 
132 18 107 17 
133 135 142 70 
134 131 133 62 
135 79 119 31 
136 110 129 35 
137 87 101 65 
138 28 113 27 
139 69 86 61 
140 101 123 65 
141 22 143 2 
142 2 143 14 
143 41 48 7 
144 74 95 88 
145 25 135 24 
146 110 154 153 
147 68 84 83 
148 51 56 53 
149 40 112 41 
150 39 114 40 
151 6 49 39 
152 111 135 25 
153 87 102 101 
154 112 130 48 
155 56 59 57 
156 4 144 28 
157 92 149 77 
158 69 98 86 
159 1 147 21 
160 8 147 1 
161 35 129 34 
162 59 71 64 
163 29 144 4 
164 56 130 116 
165 138 148 105 
166 10 117 9 
167 117 152 80 
168 67 85 49 
169 56 116 59 
170 74 87 65 
171 85 137 116 
172 64 65 57 
173 93 94 92 
174 119 145 98 
175 74 88 87 
176 48 130 51 
177 59 64 57 
178 56 57 53 
179 110 153 90 
180 48 50 7 
181 84 115 83 
182 121 157 122 
183 117 151 94 
184 98 145 86 
185 64 74 65 
186 74 124 95 
187 105 139 138 
188 130 155 116 
189 113 132 27 
190 91 93 92 
191 41 112 48 
192 91 92 77 
193 58 61 52 
194 85 114 49 
195 51 53 52 
196 116 137 100 
197 42 63 43 
198 53 58 52 
199 40 114 112 
200 49 114 39 
201 7 118 42 
202 50 62 7 
203 68 83 69 
204 68 69 61 
205 68 141 84 
206 48 51 50 
207 51 52 50 
208 5 72 36 
209 6 66 49 
210 36 120 37 
211 37 73 38 
212 58 68 61 
213 43 125 44 
214 70 134 106 
215 94 152 117 
216 128 132 113 
217 24 135 70 
218 38 122 6 
219 71 124 64 
220 51 130 56 
221 44 78 5 
222 76 91 77 
223 90 97 72 
224 76 77 67 
225 6 75 66 
226 69 128 98 
227 116 155 85 
228 64 124 74 
229 65 123 57 
230 57 123 53 
231 96 156 149 
232 17 146 16 
233 109 140 55 
234 66 67 49 
235 53 123 58 
236 83 128 69 
237 102 135 111 
238 21 147 108 
239 88 142 87 
240 66 76 67 
241 82 144 29 
242 101 141 123 
243 96 149 92 
244 97 120 72 
245 106 143 22 
246 16 153 15 
247 61 131 52 
248 80 147 8 
249 14 143 109 
250 115 132 83 
251 108 147 80 
252 62 118 7 
253 83 132 128 
254 109 143 106 
255 5 81 72 
256 77 137 67 
257 113 144 82 
258 79 145 119 
259 42 118 63 
260 6 122 75 
261 63 125 43 
262 153 154 15 
263 126 127 78 
264 52 131 50 
265 3 154 35 
266 15 154 3 
267 72 120 36 
268 67 137 85 
269 37 120 73 
270 88 140 134 
271 134 142 88 
272 76 139 91 
273 87 142 102 
274 123 141 58 
275 28 144 113 
276 81 110 90 
277 58 141 68 
278 73 122 38 
279 44 125 78 
280 81 129 110 
281 124 156 104 
282 81 90 72 
283 50 131 62 
284 71 156 124 
285 34 129 127 
286 94 151 96 
287 125 126 78 
288 35 154 110 
289 97 146 121 
290 66 138 76 
291 93 152 94 
292 114 155 112 
293 107 157 121 
294 146 153 16 
295 75 138 66 
296 112 155 130 
297 81 136 129 
298 138 139 76 
299 70 142 134 
300 5 136 81 
301 78 136 5 
302 126 150 89 
303 85 155 114 
304 127 136 78 
305 86 145 133 
306 75 148 138 
307 63 150 125 
308 125 150 126 
309 129 136 127 
310 75 157 148 
311 122 157 75 
312 148 157 107 
$EndElements
