$MeshFormat
4.1 0 8
$EndMeshFormat
$PhysicalNames
3
1 101 "outer_boundary"
2 1 "material_1"
2 2 "material_2"
$EndPhysicalNames
$Entities
8 8 2 0
1 0 0 0 0 
2 1 0 0 0 
3 0 1 0 0 
4 1 1 0 0 
5 0.6932924800036396 0.5593434803912846 0 0 
6 0.8144775177094087 0.8056659487567271 0 0 
7 0.5681550493439661 0.9268509864624962 0 0 
8 0.4469700116381971 0.6805285180970536 0 0 
1 -9.999999994736442e-08 -1e-07 -1e-07 1.0000001 1e-07 1e-07 1 101 2 1 -2 
2 -1e-07 -9.999999994736442e-08 -1e-07 1e-07 1.0000001 1e-07 1 101 2 3 -1 
3 0.9999999000000001 -9.999999994736442e-08 -1e-07 1.0000001 1.0000001 1e-07 1 101 2 2 -4 
4 -9.999999994736442e-08 0.9999999000000001 -1e-07 1.0000001 1.0000001 1e-07 1 101 2 4 -3 
5 0.6932923800036397 0.5593433803912846 -1e-07 0.8144776177094086 0.8056660487567271 1e-07 0 2 5 -6 
6 0.5681549493439662 0.8056658487567272 -1e-07 0.8144776177094086 0.9268510864624961 1e-07 0 2 6 -7 
7 0.446969911638197 0.6805284180970537 -1e-07 0.568155149343966 0.9268510864624961 1e-07 0 2 7 -8 
8 0.446969911638197 0.5593433803912846 -1e-07 0.6932925800036396 0.6805286180970536 1e-07 0 2 8 -5 
2 0.446969911638197 0.5593433803912846 -1e-07 0.8144776177094086 0.9268510864624961 1e-07 1 2 4 5 6 7 8 
3 -9.999999994736442e-08 -9.999999994736442e-08 -1e-07 1.0000001 1.0000001 1e-07 1 1 8 1 3 4 2 -5 -8 -7 -6 
$EndEntities
$Nodes
18 149 1 149
0 1 0 1
1
0 0 0
0 2 0 1
2
1 0 0
0 3 0 1
3
0 1 0
0 4 0 1
4
1 1 0
0 5 0 1
5
0.6932924800036396 0.5593434803912846 0
0 6 0 1
6
0.8144775177094087 0.8056659487567271 0
0 7 0 1
7
0.5681550493439661 0.9268509864624962 0
0 8 0 1
8
0.4469700116381971 0.6805285180970536 0
1 1 0 7
9
10
11
12
13
14
15
0.1249999999999999 0 0
0.2499999999999998 0 0
0.3749999999999993 0 0
0.4999999999999988 0 0
0.6249999999999988 0 0
0.7499999999999991 0 0
0.8749999999999997 0 0
1 2 0 7
16
17
18
19
20
21
22
0 0.8750000000000001 0
0 0.7500000000000002 0
0 0.6250000000000007 0
0 0.5000000000000012 0
0 0.3750000000000012 0
0 0.2500000000000009 0
0 0.1250000000000003 0
1 3 0 7
23
24
25
26
27
28
29
1 0.1249999999999999 0
1 0.2499999999999998 0
1 0.3749999999999993 0
1 0.4999999999999988 0
1 0.6249999999999988 0
1 0.7499999999999991 0
1 0.8749999999999997 0
1 4 0 7
30
31
32
33
34
35
36
0.8750000000000001 1 0
0.7500000000000002 1 0
0.6250000000000007 1 0
0.5000000000000012 1 0
0.3750000000000012 1 0
0.2500000000000009 1 0
0.1250000000000003 1 0
1 5 0 3
37
38
39
0.7235887394300818 0.6209240974826451 0
0.7538849988565239 0.6825047145740055 0
0.7841812582829664 0.7440853316653663 0
1 6 0 3
40
41
42
0.7528969006180481 0.8359622081831694 0
0.6913162835266877 0.8662584676096114 0
0.629735666435327 0.8965547270360539 0
1 7 0 3
43
44
45
0.5378587899175239 0.8652703693711357 0
0.5075625304910818 0.8036897522797752 0
0.4772662710646394 0.7421091351884145 0
1 8 0 3
46
47
48
0.5085506287295576 0.6502322586706114 0
0.570131245820918 0.6199359992441693 0
0.6317118629122788 0.5896397398177269 0
2 2 0 14
49
50
51
52
53
54
55
56
57
58
59
60
61
62
0.5397722350899951 0.7497935330801259 0
0.7170082184297497 0.7387879867689477 0
0.632247620253372 0.8174604526812451 0
0.6294485741363398 0.6559897697721019 0
0.690400485528061 0.6765450519352918 0
0.6470823263341324 0.7333205341716839 0
0.5679203035054358 0.8090120939022389 0
0.6967461485104074 0.7972590148530313 0
0.5726053457206717 0.6958526233598632 0
0.5919255661807213 0.7610878474390314 0
0.7472189760576449 0.7827642094638499 0
0.5142285532899608 0.7034302573899308 0
0.6703907407107624 0.6266020220430484 0
0.5871834858911249 0.863029725890634 0
2 3 0 87
63
64
65
66
67
68
69
70
71
72
73
74
75
76
77
78
79
80
81
82
83
84
85
86
87
88
89
90
91
92
93
94
95
96
97
98
99
100
101
102
103
104
105
106
107
108
109
110
111
112
113
114
115
116
117
118
119
120
121
122
123
124
125
126
127
128
129
130
131
132
133
134
135
136
137
138
139
140
141
142
143
144
145
146
147
148
149
0.512231214157163 0.5840400478668248 0
0.4444845113390234 0.1033565950382273 0
0.6836804672312298 0.106031966629658 0
0.1082531754730546 0.4375000000000012 0
0.633923567749102 0.5192108221159214 0
0.7021226406280768 0.4850100198733443 0
0.6361179899324477 0.4417397269324262 0
0.4064517522901971 0.7408359782475 0
0.3737356629995493 0.6691451463286046 0
0.7120121032679401 0.404441420329269 0
0.3276898241611678 0.7409187135671995 0
0.2899439698233098 0.663340759301944 0
0.3414914832635798 0.5895459592402766 0
0.6396034332854509 0.3582076641791764 0
0.5621675965347619 0.3980950527514863 0
0.7565566657705209 0.5367905632452437 0
0.7235640480043926 0.3171246464222375 0
0.2414084903874633 0.7422129563608904 0
0.5622182978173053 0.2967085132104984 0
0.4823933545645619 0.3515763270774212 0
0.1176282948825377 0.1997354330259993 0
0.2540954722081989 0.5820844733294703 0
0.3065993606684587 0.5222294109468893 0
0.8249347196776882 0.6869586289064196 0
0.8777924284085404 0.1965116435596082 0
0.8015331642296526 0.3668656181680091 0
0.4693802814224625 0.8607173911283982 0
0.4816803211259049 0.4463565738209908 0
0.2837438278552281 0.8209598863679748 0
0.1848022681639971 0.8232491665291897 0
0.400296324094943 0.3983515151478171 0
0.3962066111305091 0.3037774980008842 0
0.3113832393214976 0.3451245163739984 0
0.3104251531457216 0.2429522351051919 0
0.8099245394666711 0.8741444572517886 0
0.2135454476529011 0.2955711499158848 0
0.9008937308823217 0.5714671915224093 0
0.1035467732016048 0.676449760018187 0
0.3938392113829551 0.5005009280013273 0
0.8074675535524352 0.6069803084466497 0
0.8954783085664295 0.4439631199440179 0
0.8755889819717642 0.8353169281111281 0
0.882442209767066 0.7654371448647435 0
0.09962962193148067 0.5527314823457207 0
0.563689844477148 0.1037003485267121 0
0.5120217658352056 0.1978895321056319 0
0.6182096448566401 0.1988469904760555 0
0.7366195466640524 0.2096266654927243 0
0.31457547470936 0.122357868589924 0
0.8960384150846938 0.3125027905355657 0
0.5605038465561097 0.4793732326126902 0
0.212496675295574 0.4982328104344976 0
0.4358953703002555 0.5990532267872724 0
0.8052643485596186 0.1006127711046834 0
0.1864851854659059 0.1025652769248159 0
0.5746842240636557 0.5514574907491078 0
0.1105384257262452 0.3256421489023071 0
0.910474144300309 0.6743013817109157 0
0.3831287712936357 0.8268792418531346 0
0.3281834197917604 0.9094952951808315 0
0.2042766366055092 0.6661298991973834 0
0.4459939500791509 0.7960721495387568 0
0.4986311361133407 0.9154388430023485 0
0.7489110960113396 0.9075894923926315 0
0.6880477295692899 0.9388995595515846 0
0.4081605064040157 0.2076940104335829 0
0.8071095204782663 0.280526272835629 0
0.2238036363489775 0.396046310471955 0
0.4206620852304601 0.9223145279905793 0
0.4812604773555511 0.5220827859146245 0
0.08899925655683505 0.803883132473231 0
0.7774747568290358 0.4506406181550916 0
0.2160759485539148 0.9091865781799916 0
0.2285319111712852 0.1926363927123632 0
0.1024795788791246 0.901886479530402 0
0.832602257808303 0.5128107822191976 0
0.6560429941255682 0.2761028959561385 0
0.9025606698843869 0.9062434669255721 0
0.9084936490538904 0.09150635094610948 0
0.09150635094610987 0.09150635094610998 0
0.3266242837040676 0.4285120303151647 0
0.8135073259569159 0.9442459382501522 0
0.9321183723246433 0.8263995079802885 0
0.4717345145530729 0.273635865600396 0
0.8591230137807857 0.6383607197395488 0
0.1604007114583439 0.7475515903358645 0
0.1748090358484736 0.5951256850650518 0
$EndNodes
$Elements
6 296 1 296
1 1 1 8
1 1 9 
2 9 10 
3 10 11 
4 11 12 
5 12 13 
6 13 14 
7 14 15 
8 15 2 
1 2 1 8
9 3 16 
10 16 17 
11 17 18 
12 18 19 
13 19 20 
14 20 21 
15 21 22 
16 22 1 
1 3 1 8
17 2 23 
18 23 24 
19 24 25 
20 25 26 
21 26 27 
22 27 28 
23 28 29 
24 29 4 
1 4 1 8
25 4 30 
26 30 31 
27 31 32 
28 32 33 
29 33 34 
30 34 35 
31 35 36 
32 36 3 
2 2 2 42
33 54 56 51 
34 54 57 52 
35 51 58 54 
36 54 58 57 
37 50 56 54 
38 53 54 52 
39 57 58 49 
40 45 49 44 
41 39 50 38 
42 42 51 41 
43 48 52 47 
44 55 58 51 
45 38 53 37 
46 41 56 40 
47 44 55 43 
48 47 57 46 
49 50 54 53 
50 50 53 38 
51 49 55 44 
52 51 56 41 
53 52 57 47 
54 40 59 6 
55 37 61 5 
56 43 62 7 
57 46 60 8 
58 5 61 48 
59 6 59 39 
60 7 62 42 
61 8 60 45 
62 53 61 37 
63 56 59 40 
64 55 62 43 
65 57 60 46 
66 39 59 50 
67 42 62 51 
68 48 61 52 
69 45 60 49 
70 49 60 57 
71 50 59 56 
72 51 62 55 
73 52 61 53 
74 49 58 55 
2 3 2 222
75 87 129 110 
76 42 32 7 
77 8 115 46 
78 118 132 113 
79 63 132 118 
80 46 115 63 
81 89 131 121 
82 90 101 93 
83 110 116 87 
84 108 109 81 
85 121 124 89 
86 98 119 83 
87 88 112 103 
88 5 78 37 
89 16 137 3 
90 37 102 38 
91 39 105 6 
92 114 143 85 
93 86 105 39 
94 83 136 98 
95 119 130 66 
96 3 137 36 
97 111 128 96 
98 101 143 93 
99 78 102 37 
100 103 112 25 
101 130 143 114 
102 115 132 63 
103 96 136 111 
104 107 108 64 
105 104 140 97 
106 107 109 108 
107 71 115 8 
108 32 127 31 
109 38 102 86 
110 98 130 119 
111 42 127 32 
112 66 114 106 
113 18 106 100 
114 113 132 90 
115 90 132 101 
116 12 107 64 
117 103 134 88 
118 36 137 135 
119 65 109 107 
120 15 116 14 
121 140 144 97 
122 83 119 21 
123 36 135 35 
124 27 99 26 
125 99 103 26 
126 75 115 71 
127 77 113 90 
128 121 131 122 
129 27 120 99 
130 85 143 101 
131 66 106 19 
132 65 107 13 
133 64 128 111 
134 65 110 109 
135 18 100 17 
136 14 65 13 
137 20 66 19 
138 66 130 114 
139 41 127 42 
140 12 64 11 
141 106 149 100 
142 64 111 11 
143 34 131 33 
144 33 125 7 
145 19 106 18 
146 109 139 81 
147 13 107 12 
148 120 147 99 
149 26 103 25 
150 25 112 24 
151 101 115 75 
152 35 122 34 
153 14 116 65 
154 24 87 23 
155 77 90 82 
156 81 146 108 
157 105 120 28 
158 11 111 10 
159 85 101 75 
160 24 112 87 
161 100 133 17 
162 79 139 110 
163 111 136 117 
164 33 131 125 
165 22 83 21 
166 86 120 105 
167 10 117 9 
168 101 132 115 
169 112 129 87 
170 111 117 10 
171 78 138 102 
172 103 138 134 
173 21 119 20 
174 20 119 66 
175 110 139 109 
176 15 141 116 
177 90 93 82 
178 100 149 123 
179 35 135 122 
180 67 113 69 
181 114 149 106 
182 69 77 76 
183 46 63 47 
184 69 113 77 
185 65 116 110 
186 47 118 48 
187 74 75 71 
188 48 67 5 
189 28 120 27 
190 95 98 96 
191 100 148 133 
192 110 129 79 
193 88 129 112 
194 84 85 75 
195 93 95 94 
196 108 128 64 
197 77 82 81 
198 95 96 94 
199 69 76 72 
200 2 141 15 
201 23 141 2 
202 9 142 1 
203 1 142 22 
204 99 138 103 
205 93 94 82 
206 77 81 76 
207 104 145 140 
208 45 70 8 
209 84 114 85 
210 102 138 99 
211 63 118 47 
212 74 84 75 
213 73 91 80 
214 48 118 67 
215 79 88 72 
216 96 128 94 
217 76 79 72 
218 28 145 105 
219 126 127 41 
220 67 118 113 
221 91 92 80 
222 44 124 45 
223 67 69 68 
224 38 86 39 
225 69 72 68 
226 70 71 8 
227 70 121 73 
228 133 137 16 
229 31 144 30 
230 73 80 74 
231 43 89 44 
232 67 68 5 
233 73 74 71 
234 6 97 40 
235 68 78 5 
236 72 134 68 
237 73 121 91 
238 95 130 98 
239 7 125 43 
240 117 142 9 
241 74 123 84 
242 68 134 78 
243 17 133 16 
244 29 145 28 
245 117 136 83 
246 6 105 104 
247 70 73 71 
248 80 123 74 
249 82 146 81 
250 40 126 41 
251 81 139 76 
252 95 143 130 
253 79 129 88 
254 4 140 29 
255 30 140 4 
256 116 141 87 
257 99 147 102 
258 45 124 70 
259 121 122 91 
260 135 137 92 
261 70 124 121 
262 87 141 23 
263 6 104 97 
264 91 135 92 
265 88 134 72 
266 98 136 96 
267 84 149 114 
268 22 142 83 
269 122 135 91 
270 83 142 117 
271 89 124 44 
272 140 145 29 
273 128 146 94 
274 108 146 128 
275 80 148 123 
276 93 143 95 
277 30 144 140 
278 92 137 133 
279 102 147 86 
280 76 139 79 
281 86 147 120 
282 43 125 89 
283 125 131 89 
284 133 148 92 
285 123 148 100 
286 31 127 126 
287 134 138 78 
288 97 126 40 
289 94 146 82 
290 122 131 34 
291 92 148 80 
292 123 149 84 
293 105 145 104 
294 126 144 31 
295 97 144 126 
296 7 32 33 
$EndElements
