$MeshFormat
4.1 0 8
$EndMeshFormat
$PhysicalNames
3
1 101 "outer_boundary"
2 1 "material_1"
2 2 "material_2"
$EndPhysicalNames
$Entities
7 7 2 0
1 0 0 0 0 
2 1 0 0 0 
3 0 1 0 0 
4 1 1 0 0 
5 0.1250110228522028 0.457663133670688 0 0 
6 0.3523074276549162 0.4841229487168995 0 0 
7 0.2157443532441026 0.6677375019418149 0 0 
1 -9.999999994736442e-08 -1e-07 -1e-07 1.0000001 1e-07 1e-07 1 101 2 1 -2 
2 -1e-07 -9.999999994736442e-08 -1e-07 1e-07 1.0000001 1e-07 1 101 2 3 -1 
3 0.9999999000000001 -9.999999994736442e-08 -1e-07 1.0000001 1.0000001 1e-07 1 101 2 2 -4 
4 -9.999999994736442e-08 0.9999999000000001 -1e-07 1.0000001 1.0000001 1e-07 1 101 2 4 -3 
5 0.1250109228522028 0.457663033670688 -1e-07 0.3523075276549162 0.4841230487168995 1e-07 0 2 5 -6 
6 0.2157442532441026 0.4841228487168995 -1e-07 0.3523075276549162 0.6677376019418149 1e-07 0 2 6 -7 
7 0.1250109228522028 0.457663033670688 -1e-07 0.2157444532441026 0.6677376019418149 1e-07 0 2 7 -5 
2 0.1250109228522028 0.457663033670688 -1e-07 0.3523075276549162 0.6677376019418149 1e-07 1 2 3 5 6 7 
3 -9.999999994736442e-08 -9.999999994736442e-08 -1e-07 1.0000001 1.0000001 1e-07 1 1 7 1 3 4 2 -5 -7 -6 
$EndEntities
$Nodes
16 152 1 152
0 1 0 1
1
0 0 0
0 2 0 1
2
1 0 0
0 3 0 1
3
0 1 0
0 4 0 1
4
1 1 0
0 5 0 1
5
0.1250110228522028 0.457663133670688 0
0 6 0 1
6
0.3523074276549162 0.4841229487168995 0
0 7 0 1
7
0.2157443532441026 0.6677375019418149 0
1 1 0 7
8
9
10
11
12
13
14
0.1249999999999999 0 0
0.2499999999999998 0 0
0.3749999999999993 0 0
0.4999999999999988 0 0
0.6249999999999988 0 0
0.7499999999999991 0 0
0.8749999999999997 0 0
1 2 0 7
15
16
17
18
19
20
21
0 0.8750000000000001 0
0 0.7500000000000002 0
0 0.6250000000000007 0
0 0.5000000000000012 0
0 0.3750000000000012 0
0 0.2500000000000009 0
0 0.1250000000000003 0
1 3 0 7
22
23
24
25
26
27
28
1 0.1249999999999999 0
1 0.2499999999999998 0
1 0.3749999999999993 0
1 0.4999999999999988 0
1 0.6249999999999988 0
1 0.7499999999999991 0
1 0.8749999999999997 0
1 4 0 7
29
30
31
32
33
34
35
0.8750000000000001 1 0
0.7500000000000002 1 0
0.6250000000000007 1 0
0.5000000000000012 1 0
0.3750000000000012 1 0
0.2500000000000009 1 0
0.1250000000000003 1 0
1 5 0 3
36
37
38
0.1818351240528812 0.4642780874322409 0
0.2386592252535596 0.4708930411937938 0
0.2954833264542379 0.4775079949553466 0
1 6 0 3
39
40
41
0.3181666590522128 0.5300265870231284 0
0.2840258904495094 0.5759302253293572 0
0.249885121846806 0.621833863635586 0
1 7 0 3
42
43
44
0.1930610206461277 0.6152189098740332 0
0.1703776880481527 0.5627003178062514 0
0.1476943554501778 0.5101817257384698 0
2 2 0 3
45
46
47
0.2613425578515345 0.5234116332615755 0
0.2272017892488311 0.5693152715678044 0
0.2045184566508561 0.5167966795000226 0
2 3 0 105
48
49
50
51
52
53
54
55
56
57
58
59
60
61
62
63
64
65
66
67
68
69
70
71
72
73
74
75
76
77
78
79
80
81
82
83
84
85
86
87
88
89
90
91
92
93
94
95
96
97
98
99
100
101
102
103
104
105
106
107
108
109
110
111
112
113
114
115
116
117
118
119
120
121
122
123
124
125
126
127
128
129
130
131
132
133
134
135
136
137
138
139
140
141
142
143
144
145
146
147
148
149
150
151
152
0.3749907602528911 0.5366415407846812 0
0.4166774000705366 0.4866085214958615 0
0.4384226134533071 0.5534986508406695 0
0.4823156545150437 0.494569023103641 0
0.5067601050607675 0.5594706838650705 0
0.3344540476669751 0.4180423424429087 0
0.5534417617417779 0.500616410298512 0
0.276562471875352 0.6749790448612224 0
0.5832556512025749 0.5795311519906799 0
0.523303264522609 0.4300426267619589 0
0.2133762309621594 0.4162335968747003 0
0.6037186888072981 0.4351951369822624 0
0.4571102066239014 0.6281746786626703 0
0.5662919524788939 0.3580428528026571 0
0.6570117156632043 0.3628147123943043 0
0.3066118672734823 0.1132385897243312 0
0.6778976731742424 0.8996519329153672 0
0.2378256437076724 0.7276766150072823 0
0.3063841405264227 0.7352251641216175 0
0.694539278274399 0.4476659248971413 0
0.8893822751350731 0.6731730238022308 0
0.4703811645667744 0.3643028900757317 0
0.5254535389800963 0.2782963692102106 0
0.7529883478694384 0.3710857181189623 0
0.7125621344248843 0.2827384026083369 0
0.4424671702041043 0.8975645600716744 0
0.43342418245968 0.2760133763813476 0
0.2643362338812634 0.7985151991135404 0
0.1515229243400311 0.6702359588169244 0
0.18410125257556 0.785641187181528 0
0.7932290319347596 0.4633013772768719 0
0.7317161606776694 0.5408954974408352 0
0.1118902213948562 0.1929865866942501 0
0.8891256008309976 0.1906123765301391 0
0.4835033029676113 0.1929081414368033 0
0.5872227577188801 0.1938182947457598 0
0.3444031669291825 0.6817792296028271 0
0.3803121306462599 0.7406467480041425 0
0.1245749695731238 0.5575566890737098 0
0.3804702023461399 0.3503470178218907 0
0.3449727119669944 0.2740795005867253 0
0.8330989293848065 0.5587839998363511 0
0.7681235879190114 0.6462736939431736 0
0.7963792366317717 0.7579293308445558 0
0.6745030036310513 0.714607978417916 0
0.3007144767118559 0.348215513053408 0
0.2606674805420496 0.2720713124303916 0
0.6810539737382473 0.1122692639331317 0
0.2123254270886205 0.8671468046187172 0
0.32219848629765 0.8812278780274729 0
0.8608522497104383 0.3785336396788815 0
0.5586775034732002 0.8994674369218002 0
0.5054698414293101 0.8040513649389128 0
0.6154385062738632 0.8059847444226022 0
0.5666889277871167 0.7207350984167437 0
0.8034236231326718 0.883709817457045 0
0.6684780710711409 0.6178846281790781 0
0.09128744554211332 0.3068379834210512 0
0.182808745328347 0.09874559318363052 0
0.3986076689955181 0.4210965762703331 0
0.8121653054091813 0.09877802840063848 0
0.4230778937659935 0.09992656855656984 0
0.1191059879524096 0.8559391720450811 0
0.3891560222385024 0.1938398300838248 0
0.3354112614473409 0.5794354318422629 0
0.8987996626734787 0.8080365004410865 0
0.4663569896894343 0.717307060412376 0
0.5499763213651216 0.09982037811204408 0
0.3067092230474843 0.6284488173971389 0
0.2310722582758207 0.347233248479272 0
0.9023777661070567 0.4734920213249306 0
0.6204070603785697 0.2788833057210364 0
0.1553828048141515 0.4173580191269751 0
0.09988023021231796 0.3925222350796432 0
0.2689599275541015 0.4130209561665716 0
0.815975691623263 0.2861846597507568 0
0.3837952103281609 0.6169783604062966 0
0.5306444350004189 0.6433803403385218 0
0.6391916019624767 0.5202981249647515 0
0.09076708539572331 0.5060632246338038 0
0.1362369194454494 0.6086039561124802 0
0.07670071339774703 0.6686517267928793 0
0.3029146904379991 0.206695192840023 0
0.7641304948386721 0.1946953222979921 0
0.1018591323780272 0.7598979423833612 0
0.3365462658693332 0.8006167406614539 0
0.2118440323556341 0.1947420317370919 0
0.9131907084329397 0.2960661351919553 0
0.1782106612490786 0.7222378410661822 0
0.416780681177443 0.8132164270688406 0
0.1791428056543097 0.2744260361748079 0
0.6730752842198507 0.2124809178612514 0
0.4588502104635139 0.4358095116953258 0
0.7155507288289832 0.8109778656929849 0
0.9270863856123361 0.565333111157481 0
0.9084936490538905 0.09150635094610943 0
0.09150635094610987 0.09150635094610998 0
0.6047140177384606 0.6552278394685879 0
0.9079247274459745 0.910208008763147 0
0.4063955408433878 0.6769772154176625 0
0.06313166769204881 0.4462497186768275 0
0.07064777591554344 0.9293522240844567 0
0.1616902959101455 0.3591018531927416 0
0.07137994796867397 0.5776459327688125 0
0.1546720747669599 0.9283926127618491 0
$EndNodes
$Elements
6 302 1 302
1 1 1 8
1 1 8 
2 8 9 
3 9 10 
4 10 11 
5 11 12 
6 12 13 
7 13 14 
8 14 2 
1 2 1 8
9 3 15 
10 15 16 
11 16 17 
12 17 18 
13 18 19 
14 19 20 
15 20 21 
16 21 1 
1 3 1 8
17 2 22 
18 22 23 
19 23 24 
20 24 25 
21 25 26 
22 26 27 
23 27 28 
24 28 4 
1 4 1 8
25 4 29 
26 29 30 
27 30 31 
28 31 32 
29 32 33 
30 33 34 
31 34 35 
32 35 3 
2 2 2 16
33 38 6 39 
34 44 5 36 
35 41 7 42 
36 39 45 38 
37 45 47 37 
38 46 47 45 
39 38 45 37 
40 43 46 42 
41 43 47 46 
42 36 47 44 
43 37 47 36 
44 41 46 40 
45 40 45 39 
46 42 46 41 
47 44 47 43 
48 40 46 45 
2 3 2 254
49 53 93 87 
50 50 124 48 
51 86 151 127 
52 83 115 95 
53 87 107 53 
54 102 145 92 
55 48 124 112 
56 33 97 73 
57 101 102 92 
58 95 115 12 
59 56 126 104 
60 69 107 87 
61 104 126 79 
62 60 125 114 
63 15 132 110 
64 69 140 107 
65 68 90 89 
66 97 137 73 
67 24 118 98 
68 133 137 97 
69 117 122 58 
70 127 151 18 
71 93 122 117 
72 34 97 33 
73 53 122 93 
74 76 136 132 
75 96 97 34 
76 16 132 15 
77 112 124 116 
78 6 107 49 
79 99 101 64 
80 31 99 64 
81 53 107 6 
82 114 125 102 
83 130 134 63 
84 73 100 99 
85 68 91 90 
86 89 142 68 
87 95 139 83 
88 91 113 103 
89 114 137 85 
90 98 135 24 
91 60 124 50 
92 80 105 20 
93 76 132 129 
94 73 99 32 
95 91 92 90 
96 25 118 24 
97 114 147 60 
98 33 73 32 
99 100 102 101 
100 69 87 74 
101 63 134 106 
102 20 105 19 
103 116 124 84 
104 123 131 81 
105 10 63 9 
106 103 141 91 
107 87 93 88 
108 34 152 96 
109 100 101 99 
110 31 64 30 
111 79 126 67 
112 63 106 9 
113 13 95 12 
114 64 103 30 
115 32 99 31 
116 12 115 11 
117 92 104 90 
118 23 81 22 
119 100 137 114 
120 105 121 19 
121 68 113 91 
122 27 68 26 
123 21 80 20 
124 120 150 58 
125 18 151 17 
126 17 129 16 
127 27 113 68 
128 87 88 74 
129 100 114 102 
130 30 103 29 
131 109 111 63 
132 13 108 95 
133 10 109 63 
134 9 106 8 
135 90 104 79 
136 81 135 123 
137 11 109 10 
138 14 108 13 
139 78 79 67 
140 101 141 64 
141 80 138 105 
142 11 115 109 
143 57 69 61 
144 92 141 101 
145 129 132 16 
146 109 115 82 
147 64 141 103 
148 92 145 104 
149 81 131 108 
150 108 131 95 
151 89 90 79 
152 4 146 28 
153 60 147 124 
154 69 74 70 
155 28 113 27 
156 68 142 26 
157 58 150 117 
158 29 146 4 
159 93 94 88 
160 62 67 59 
161 78 89 79 
162 111 130 63 
163 57 140 69 
164 6 48 39 
165 73 137 100 
166 38 53 6 
167 2 143 14 
168 22 143 2 
169 62 72 71 
170 71 78 67 
171 1 144 21 
172 8 144 1 
173 69 70 61 
174 39 112 40 
175 104 145 56 
176 107 140 49 
177 82 111 109 
178 51 57 54 
179 55 84 66 
180 6 49 48 
181 71 98 78 
182 40 116 41 
183 62 71 67 
184 52 60 50 
185 82 83 70 
186 74 82 70 
187 61 62 59 
188 51 54 52 
189 57 61 59 
190 88 111 74 
191 37 122 38 
192 54 56 52 
193 24 135 23 
194 41 55 7 
195 49 51 50 
196 82 115 83 
197 49 140 51 
198 23 135 81 
199 19 148 18 
200 51 52 50 
201 57 59 54 
202 131 139 95 
203 67 126 59 
204 35 152 34 
205 62 119 72 
206 74 111 82 
207 84 85 66 
208 72 123 71 
209 49 50 48 
210 78 118 89 
211 98 118 78 
212 36 58 37 
213 71 123 98 
214 48 112 39 
215 75 97 96 
216 134 138 80 
217 93 117 94 
218 61 119 62 
219 55 116 84 
220 106 134 80 
221 70 119 61 
222 5 120 36 
223 132 136 77 
224 55 65 7 
225 83 119 70 
226 54 126 56 
227 112 116 40 
228 52 125 60 
229 110 132 77 
230 56 125 52 
231 38 122 53 
232 59 126 54 
233 119 139 72 
234 72 131 123 
235 96 110 77 
236 91 141 92 
237 7 76 42 
238 14 143 108 
239 106 144 8 
240 85 147 114 
241 42 128 43 
242 66 75 65 
243 43 86 44 
244 81 143 22 
245 41 116 55 
246 55 66 65 
247 21 144 80 
248 108 143 81 
249 75 77 65 
250 88 130 111 
251 83 139 119 
252 103 146 29 
253 80 144 106 
254 113 146 103 
255 94 130 88 
256 26 142 25 
257 75 133 97 
258 44 127 5 
259 58 122 37 
260 56 145 125 
261 94 134 130 
262 75 96 77 
263 3 149 35 
264 15 149 3 
265 123 135 98 
266 51 140 57 
267 121 148 19 
268 28 146 113 
269 72 139 131 
270 85 133 66 
271 36 120 58 
272 85 137 133 
273 121 150 120 
274 66 133 75 
275 105 150 121 
276 118 142 89 
277 110 149 15 
278 125 145 102 
279 94 138 134 
280 117 138 94 
281 65 136 7 
282 5 121 120 
283 84 147 85 
284 25 142 118 
285 77 136 65 
286 76 128 42 
287 43 128 86 
288 124 147 84 
289 76 129 128 
290 86 127 44 
291 7 136 76 
292 18 148 127 
293 117 150 138 
294 96 152 110 
295 17 151 129 
296 138 150 105 
297 127 148 5 
298 5 148 121 
299 129 151 128 
300 110 152 149 
301 128 151 86 
302 149 152 35 
$EndElements
