$MeshFormat
4.1 0 8
$EndMeshFormat
$PhysicalNames
3
1 101 "outer_boundary"
2 1 "material_1"
2 2 "material_2"
$EndPhysicalNames
$Entities
7 7 2 0
1 0 0 0 0 
2 1 0 0 0 
3 0 1 0 0 
4 1 1 0 0 
5 0.6166512006160236 0.1839629728478198 0 0 
6 0.7362756821366016 0.3526154393283243 0 0 
7 0.5304061209932921 0.3718870459994347 0 0 
1 -9.999999994736442e-08 -1e-07 -1e-07 1.0000001 1e-07 1e-07 1 101 2 1 -2 
2 -1e-07 -9.999999994736442e-08 -1e-07 1e-07 1.0000001 1e-07 1 101 2 3 -1 
3 0.9999999000000001 -9.999999994736442e-08 -1e-07 1.0000001 1.0000001 1e-07 1 101 2 2 -4 
4 -9.999999994736442e-08 0.9999999000000001 -1e-07 1.0000001 1.0000001 1e-07 1 101 2 4 -3 
5 0.6166511006160237 0.1839628728478198 -1e-07 0.7362757821366015 0.3526155393283243 1e-07 0 2 5 -6 
6 0.5304060209932921 0.3526153393283243 -1e-07 0.7362757821366015 0.3718871459994347 1e-07 0 2 6 -7 
7 0.5304060209932921 0.1839628728478198 -1e-07 0.6166513006160236 0.3718871459994347 1e-07 0 2 7 -5 
2 0.5304060209932921 0.1839628728478198 -1e-07 0.7362757821366015 0.3718871459994347 1e-07 1 2 3 5 6 7 
3 -9.999999994736442e-08 -9.999999994736442e-08 -1e-07 1.0000001 1.0000001 1e-07 1 1 7 1 3 4 2 -5 -7 -6 
$EndEntities
$Nodes
16 216 1 216
0 1 0 1
1
0 0 0
0 2 0 1
2
1 0 0
0 3 0 1
3
0 1 0
0 4 0 1
4
1 1 0
0 5 0 1
5
0.6166512006160236 0.1839629728478198 0
0 6 0 1
6
0.7362756821366016 0.3526154393283243 0
0 7 0 1
7
0.5304061209932921 0.3718870459994347 0
1 1 0 9
8
9
10
11
12
13
14
15
16
0.09999999999999996 0 0
0.1999999999999999 0 0
0.3000000000000001 0 0
0.4000000000000004 0 0
0.5000000000000003 0 0
0.5999999999999999 0 0
0.6999999999999995 0 0
0.7999999999999992 0 0
0.899999999999999 0 0
1 2 0 9
17
18
19
20
21
22
23
24
25
0 0.9 0
0 0.8 0
0 0.7 0
0 0.5999999999999996 0
0 0.4999999999999997 0
0 0.4000000000000001 0
0 0.3000000000000005 0
0 0.2000000000000008 0
0 0.100000000000001 0
1 3 0 9
26
27
28
29
30
31
32
33
34
1 0.09999999999999996 0
1 0.1999999999999999 0
1 0.3000000000000001 0
1 0.4000000000000004 0
1 0.5000000000000003 0
1 0.5999999999999999 0
1 0.6999999999999995 0
1 0.7999999999999992 0
1 0.899999999999999 0
1 4 0 9
35
36
37
38
39
40
41
42
43
0.9 1 0
0.8 1 0
0.7 1 0
0.5999999999999996 1 0
0.4999999999999997 1 0
0.4000000000000001 1 0
0.3000000000000005 1 0
0.2000000000000008 1 0
0.100000000000001 1 0
1 5 0 3
44
45
46
0.646557320996168 0.2261260894679459 0
0.6764634413763125 0.268289206088072 0
0.706369561756457 0.3104523227081981 0
1 6 0 3
47
48
49
0.6848082918507743 0.3574333409961019 0
0.6333409015649468 0.3622512426638795 0
0.5818735112791196 0.367069144331657 0
1 7 0 3
50
51
52
0.551967390898975 0.324906027711531 0
0.5735286608046578 0.2779250094236273 0
0.5950899307103408 0.2309439911357236 0
2 2 0 3
53
54
55
0.6249960510904852 0.2731071077558497 0
0.6549021714706297 0.3152702243759758 0
0.6034347811848022 0.3200881260437534 0
2 3 0 161
56
57
58
59
60
61
62
63
64
65
66
67
68
69
70
71
72
73
74
75
76
77
78
79
80
81
82
83
84
85
86
87
88
89
90
91
92
93
94
95
96
97
98
99
100
101
102
103
104
105
106
107
108
109
110
111
112
113
114
115
116
117
118
119
120
121
122
123
124
125
126
127
128
129
130
131
132
133
134
135
136
137
138
139
140
141
142
143
144
145
146
147
148
149
150
151
152
153
154
155
156
157
158
159
160
161
162
163
164
165
166
167
168
169
170
171
172
173
174
175
176
177
178
179
180
181
182
183
184
185
186
187
188
189
190
191
192
193
194
195
196
197
198
199
200
201
202
203
204
205
206
207
208
209
210
211
212
213
214
215
216
0.6101453716443981 0.4097619787558741 0
0.3346618847199156 0.9214709379610221 0
0.4986363605125088 0.328499761593452 0
0.4756752718761927 0.3783495529258373 0
0.648235764735053 0.9192031689292561 0
0.4419691924957046 0.3308497504475358 0
0.4171834902248556 0.3850122426256086 0
0.4550159139598238 0.432727001772706 0
0.3928674252313741 0.4414825423521282 0
0.434290719697074 0.4923247247748948 0
0.9222993769793281 0.6459838031796805 0
0.3802610200938946 0.335629836467717 0
0.3672196809751674 0.500658821079488 0
0.4070102043374317 0.5557625640790741 0
0.4787930690990745 0.5440861475664795 0
0.3260771078837941 0.5593377321164617 0
0.4497908122027654 0.6109898263684777 0
0.522771095183369 0.5989212122382129 0
0.7157863560463942 0.3998770610448635 0
0.7279308316621399 0.2634713044202944 0
0.3251665272992403 0.446867020173682 0
0.5442248538628964 0.2366647147402733 0
0.4949177022053403 0.6688337465988734 0
0.5684174137528045 0.6566085820945412 0
0.08149048780132839 0.2476007384472527 0
0.4089906497328122 0.2759679168384803 0
0.08110092569810001 0.7484038549565313 0
0.3392749061474599 0.2809219032328722 0
0.7681270191371442 0.395671285440187 0
0.7485156743608736 0.4491497883751696 0
0.7924943197678356 0.3443359133514713 0
0.4200737308848852 0.6799733513551194 0
0.6729027215877946 0.1784481529888536 0
0.5958670492673654 0.585716247706947 0
0.6429717989734914 0.6428103274122224 0
0.4673451174651957 0.7414645226538026 0
0.08720784200077347 0.5509164733685133 0
0.3740662701223697 0.2151451307584301 0
0.2997988496774701 0.2186078278589228 0
0.2646579653935482 0.2887039813156977 0
0.8140545031274774 0.441288852189276 0
0.7815487672744494 0.5050198711321509 0
0.6192691822027399 0.7170125646785532 0
0.6976946450431141 0.7029421485945466 0
0.8411853498920716 0.08727374045980396 0
0.9110733794506035 0.8445377161133156 0
0.3884291314680001 0.7520162336386265 0
0.7142983594363073 0.5067210541076013 0
0.7492606424836874 0.5651055533421742 0
0.9179821291122843 0.2464501011093813 0
0.3444715315893226 0.689571630851223 0
0.3070965517205744 0.7625030518875919 0
0.2586512832856661 0.6904836892992763 0
0.1501696448909581 0.09066030155829319 0
0.1504875196478244 0.9249880857083107 0
0.8560362420757748 0.4951344738666491 0
0.4563804707537323 0.08804733874128473 0
0.6389753151079984 0.1284053654043641 0
0.703418248806313 0.1229308882188314 0
0.5792301443201533 0.1356462115166042 0
0.3343443934956998 0.1466309074121293 0
0.4418014845049386 0.8228645865385733 0
0.5194544099043484 0.805696742975163 0
0.2266914596742211 0.2183060888532353 0
0.2255285973283018 0.7737288646058385 0
0.4478807343344945 0.2147419603728042 0
0.6729312806014596 0.7782348382699027 0
0.7560428441678875 0.7655849516105873 0
0.7729819280184811 0.6886349343598753 0
0.8938242542207484 0.4229182472268848 0
0.840957619865129 0.750038327515167 0
0.7409174554735937 0.1912591509548437 0
0.1680422408246056 0.2894083957311594 0
0.2286866460075723 0.3628514936751446 0
0.1458048567956214 0.3769935790809757 0
0.1943958744005685 0.4406110157072817 0
0.4908377741305626 0.8850874516015301 0
0.7178978204913982 0.8462922710440789 0
0.1101294978557812 0.4645077141977688 0
0.2757731728826291 0.8451211619855367 0
0.9176594680953561 0.3363091973256862 0
0.6719725047886187 0.564360268036985 0
0.6134516308600692 0.5174995916919227 0
0.6639840726237058 0.4585927519683563 0
0.5495852901380036 0.5316157673961012 0
0.5752838412845253 0.4658846095904684 0
0.5088674107424993 0.4713706880667002 0
0.08413156164850477 0.6505340986699153 0
0.1685279650374832 0.6006545780916932 0
0.2573633282783849 0.0876711128574128 0
0.9176852374787684 0.1535428645388999 0
0.833204559920389 0.1951765769381992 0
0.9082854625099169 0.5536931623356007 0
0.8508637820928264 0.6048406064050286 0
0.8371736549609035 0.2929147591650138 0
0.3082186500207184 0.3613507275360636 0
0.1686058309352949 0.7003031321386523 0
0.07503605609484743 0.1519780184549659 0
0.5603122413734366 0.4140501626195608 0
0.8042442474352015 0.8429063147954128 0
0.6614571244481723 0.4118344112478812 0
0.8494938206361912 0.9195532106853181 0
0.5218667808641084 0.2822908472180283 0
0.0927729316599154 0.8486802318014517 0
0.5621318069966159 0.1889405043601766 0
0.5184341049689338 0.1421794689836375 0
0.5360352218217005 0.08234793609210034 0
0.3800156511592745 0.6206912385261231 0
0.7718492278333818 0.1286444208567593 0
0.7644177117427733 0.30292908946693 0
0.6980247112819955 0.2213081878001684 0
0.5442233140258506 0.7299828489194236 0
0.3623010966094579 0.8385340383485622 0
0.5730627166845695 0.8638600621166566 0
0.7135288281063595 0.6281108341343957 0
0.3647394225740166 0.3940684738310399 0
0.5060553917890489 0.4136768902768478 0
0.1648529747995553 0.517705261358316 0
0.2461073230939982 0.514063847551693 0
0.2558561746233334 0.5980103254732204 0
0.4076436414479286 0.1499859842592992 0
0.9245024897093177 0.7421046782081944 0
0.7823098077293148 0.2504743538002623 0
0.07666394612787564 0.3327858498022046 0
0.6633843384532634 0.0656683924358531 0
0.244865629803962 0.9250068590198161 0
0.5948907936041145 0.7898282815668847 0
0.4663370062413383 0.2810830649152931 0
0.7508621257331078 0.9288008453139194 0
0.3704622924201532 0.07478863034143179 0
0.9211797216515918 0.488438909373613 0
0.8422375553317378 0.37123187981506 0
0.2066799774692621 0.1497751844619616 0
0.3130143497082781 0.6316189232532609 0
0.2657365563442429 0.4307570394723818 0
0.1896826889560533 0.8514913820101677 0
0.1453511231199107 0.2004019899673594 0
0.6035250039406231 0.08241358108978436 0
0.7384350342917492 0.06309220606993704 0
0.4260443543606894 0.9272282580800235 0
0.4953861524530745 0.2420626170133426 0
0.5624272511100369 0.9336301365294886 0
0.926794919243112 0.07320508075688781 0
0.07320508075688753 0.07320508075688781 0
0.9288176967175787 0.9288435576920436 0
0.1515381949155331 0.7845214931025284 0
0.07320508075688797 0.9267949192431122 0
0.2660574064222008 0.1610806169301033 0
0.641403675223319 0.8394837243853558 0
0.848716599027151 0.6754812142151042 0
0.3070743280762299 0.4979892058252274 0
0.6189512328698115 0.4539338307183026 0
0.7867785242562652 0.6196456714901959 0
0.2136322011353214 0.6468937504072583 0
0.5051308900295228 0.1975252005666582 0
0.6645258730897947 0.5046745868615365 0
0.8208233714622571 0.5491172123473379 0
0.0674971845553558 0.4079819316637014 0
0.2088361093885925 0.5576085031187307 0
0.7031836445371752 0.4409906725877904 0
0.462727687561122 0.160561937929715 0
$EndNodes
$Elements
6 430 1 430
1 1 1 10
1 1 8 
2 8 9 
3 9 10 
4 10 11 
5 11 12 
6 12 13 
7 13 14 
8 14 15 
9 15 16 
10 16 2 
1 2 1 10
11 3 17 
12 17 18 
13 18 19 
14 19 20 
15 20 21 
16 21 22 
17 22 23 
18 23 24 
19 24 25 
20 25 1 
1 3 1 10
21 2 26 
22 26 27 
23 27 28 
24 28 29 
25 29 30 
26 30 31 
27 31 32 
28 32 33 
29 33 34 
30 34 4 
1 4 1 10
31 4 35 
32 35 36 
33 36 37 
34 37 38 
35 38 39 
36 39 40 
37 40 41 
38 41 42 
39 42 43 
40 43 3 
2 2 2 16
41 49 7 50 
42 46 6 47 
43 52 5 44 
44 50 55 49 
45 49 55 48 
46 48 54 47 
47 45 53 44 
48 54 55 53 
49 48 55 54 
50 52 53 51 
51 45 54 53 
52 51 55 50 
53 46 54 45 
54 44 53 52 
55 53 55 51 
56 47 54 46 
2 3 2 374
57 29 186 125 
58 125 136 29 
59 117 195 168 
60 147 178 127 
61 174 206 71 
62 127 164 147 
63 142 172 154 
64 147 164 100 
65 71 175 174 
66 84 187 96 
67 21 134 92 
68 127 178 75 
69 151 171 76 
70 145 185 116 
71 142 154 141 
72 21 213 134 
73 63 142 65 
74 101 155 126 
75 65 142 70 
76 126 177 101 
77 10 185 145 
78 168 195 57 
79 164 194 100 
80 128 179 80 
81 146 147 100 
82 86 187 84 
83 76 190 151 
84 70 142 140 
85 75 166 127 
86 157 184 155 
87 177 205 66 
88 136 150 105 
89 136 187 150 
90 126 205 177 
91 130 179 128 
92 86 165 150 
93 80 192 128 
94 100 194 15 
95 155 184 133 
96 150 187 86 
97 70 140 73 
98 30 186 29 
99 39 195 132 
100 144 152 143 
101 104 137 103 
102 22 213 21 
103 165 178 150 
104 148 212 111 
105 132 197 39 
106 132 195 117 
107 105 147 146 
108 140 141 138 
109 89 138 137 
110 188 192 109 
111 92 144 143 
112 73 140 89 
113 63 172 142 
114 28 136 105 
115 13 162 12 
116 67 151 83 
117 28 105 27 
118 89 140 138 
119 190 206 174 
120 149 212 148 
121 175 189 108 
122 109 192 153 
123 92 143 20 
124 141 154 56 
125 76 206 190 
126 128 192 119 
127 32 66 31 
128 38 197 60 
129 105 150 147 
130 66 149 148 
131 12 112 11 
132 9 145 109 
133 57 181 135 
134 83 151 95 
135 140 142 141 
136 133 184 60 
137 24 80 23 
138 105 146 27 
139 29 136 28 
140 41 57 40 
141 38 60 37 
142 21 92 20 
143 13 193 162 
144 96 187 125 
145 10 145 9 
146 60 197 169 
147 19 143 82 
148 16 100 15 
149 143 152 82 
150 12 162 112 
151 20 143 19 
152 31 148 30 
153 32 177 66 
154 156 207 56 
155 73 89 79 
156 89 137 90 
157 112 162 161 
158 66 148 31 
159 9 109 8 
160 99 170 124 
161 139 215 103 
162 159 191 110 
163 19 82 18 
164 34 101 33 
165 95 129 128 
166 104 170 137 
167 134 173 92 
168 43 110 42 
169 131 190 174 
170 159 201 191 
171 24 153 80 
172 131 174 173 
173 95 151 129 
174 116 203 145 
175 41 181 57 
176 27 146 26 
177 99 124 123 
178 56 207 141 
179 135 168 57 
180 60 184 37 
181 139 211 207 
182 129 131 130 
183 65 70 69 
184 25 153 24 
185 144 209 152 
186 101 157 155 
187 93 121 81 
188 18 159 17 
189 97 103 85 
190 108 209 175 
191 121 183 81 
192 102 106 87 
193 124 126 123 
194 89 90 79 
195 59 63 62 
196 125 187 136 
197 101 177 33 
198 23 179 22 
199 92 173 144 
200 108 189 106 
201 11 185 10 
202 48 56 49 
203 110 181 42 
204 151 190 129 
205 129 130 128 
206 82 159 18 
207 139 207 156 
208 107 108 106 
209 83 95 94 
210 91 118 117 
211 70 72 69 
212 49 154 7 
213 70 73 72 
214 78 87 72 
215 47 156 48 
216 95 128 119 
217 120 152 108 
218 207 211 138 
219 131 134 130 
220 40 195 39 
221 161 216 112 
222 106 163 87 
223 107 135 120 
224 63 65 64 
225 123 133 122 
226 36 157 35 
227 99 123 122 
228 6 74 47 
229 73 79 78 
230 60 204 133 
231 91 102 87 
232 90 99 98 
233 103 215 85 
234 65 69 68 
235 102 107 106 
236 99 122 98 
237 107 120 108 
238 67 171 151 
239 137 211 103 
240 7 58 50 
241 73 78 72 
242 118 132 117 
243 78 91 87 
244 90 98 79 
245 91 117 102 
246 50 158 51 
247 141 207 138 
248 126 155 123 
249 110 191 181 
250 7 59 58 
251 2 198 16 
252 26 198 2 
253 104 212 208 
254 51 77 52 
255 63 64 62 
256 69 71 68 
257 1 199 25 
258 8 199 1 
259 123 155 133 
260 95 119 94 
261 35 200 4 
262 114 127 88 
263 71 189 175 
264 59 62 61 
265 45 75 46 
266 65 68 64 
267 4 200 34 
268 103 211 139 
269 3 202 43 
270 17 202 3 
271 131 173 134 
272 59 172 63 
273 118 169 132 
274 68 76 64 
275 97 104 103 
276 56 154 49 
277 91 167 118 
278 48 156 56 
279 36 184 157 
280 72 163 69 
281 67 81 61 
282 96 97 85 
283 79 167 78 
284 87 163 72 
285 98 167 79 
286 62 67 61 
287 14 180 13 
288 148 186 30 
289 93 176 121 
290 137 170 90 
291 94 116 93 
292 69 163 71 
293 74 156 47 
294 67 83 81 
295 80 179 23 
296 107 168 135 
297 78 167 91 
298 7 172 59 
299 44 166 45 
300 150 178 147 
301 138 211 137 
302 117 168 102 
303 83 93 81 
304 102 168 107 
305 83 94 93 
306 59 61 58 
307 98 182 167 
308 112 185 11 
309 90 170 99 
310 154 172 7 
311 96 125 111 
312 58 183 158 
313 52 160 5 
314 46 165 6 
315 33 177 32 
316 167 182 118 
317 84 85 74 
318 64 171 62 
319 170 208 124 
320 111 186 148 
321 61 183 58 
322 145 188 109 
323 42 181 41 
324 5 88 44 
325 96 111 97 
326 58 158 50 
327 181 191 135 
328 62 171 67 
329 118 182 169 
330 114 164 127 
331 84 96 85 
332 76 171 64 
333 51 158 77 
334 179 213 22 
335 127 166 88 
336 6 84 74 
337 133 204 122 
338 37 184 36 
339 5 115 113 
340 121 196 183 
341 15 194 14 
342 129 190 131 
343 116 176 93 
344 122 182 98 
345 57 195 40 
346 152 201 82 
347 120 201 152 
348 208 212 149 
349 6 86 84 
350 175 214 174 
351 146 198 26 
352 116 185 176 
353 124 205 126 
354 45 166 75 
355 81 183 61 
356 153 192 80 
357 5 160 115 
358 25 199 153 
359 77 160 52 
360 66 205 149 
361 39 197 38 
362 16 198 100 
363 71 206 68 
364 75 165 46 
365 161 162 115 
366 119 203 94 
367 180 193 13 
368 113 180 114 
369 75 178 165 
370 100 198 146 
371 159 202 17 
372 97 212 104 
373 109 199 8 
374 176 185 112 
375 5 113 88 
376 34 200 101 
377 135 191 120 
378 106 189 163 
379 134 213 130 
380 113 114 88 
381 6 165 86 
382 43 202 110 
383 144 214 175 
384 153 199 109 
385 88 166 44 
386 82 201 159 
387 121 210 196 
388 152 209 108 
389 175 209 144 
390 160 161 115 
391 174 214 173 
392 74 215 156 
393 163 189 71 
394 110 202 159 
395 130 213 179 
396 121 216 210 
397 125 186 111 
398 156 215 139 
399 104 208 170 
400 157 200 35 
401 101 200 157 
402 188 203 119 
403 205 208 149 
404 114 194 164 
405 169 197 132 
406 119 192 188 
407 180 194 114 
408 124 208 205 
409 85 215 74 
410 162 193 115 
411 94 203 116 
412 68 206 76 
413 182 204 169 
414 169 204 60 
415 183 196 158 
416 158 196 77 
417 176 216 121 
418 115 193 113 
419 113 193 180 
420 173 214 144 
421 112 216 176 
422 111 212 97 
423 160 210 161 
424 122 204 182 
425 77 210 160 
426 191 201 120 
427 145 203 188 
428 14 194 180 
429 210 216 161 
430 196 210 77 
$EndElements
