$MeshFormat
4.1 0 8
$EndMeshFormat
$PhysicalNames
3
1 101 "outer_boundary"
2 1 "material_1"
2 2 "material_2"
$EndPhysicalNames
$Entities
5 5 2 0
1 0 0 0 0 
2 1 0 0 0 
3 0 1 0 0 
4 1 1 0 0 
5 0.5883538324741007 0.6011849964070055 0 0 
1 -9.999999994736442e-08 -1e-07 -1e-07 1.0000001 1e-07 1e-07 1 101 2 1 -2 
2 -1e-07 -9.999999994736442e-08 -1e-07 1e-07 1.0000001 1e-07 1 101 2 3 -1 
3 0.9999999000000001 -9.999999994736442e-08 -1e-07 1.0000001 1.0000001 1e-07 1 101 2 2 -4 
4 -9.999999994736442e-08 0.9999999000000001 -1e-07 1.0000001 1.0000001 1e-07 1 101 2 4 -3 
5 0.3167911213990692 0.4654035908694897 -1e-07 0.5883539324741006 0.7369664019445212 1e-07 0 2 5 -5 
2 0.3167911213990692 0.4654035908694897 -1e-07 0.5883539324741006 0.7369664019445212 1e-07 1 2 1 5 
3 -9.999999994736442e-08 -9.999999994736442e-08 -1e-07 1.0000001 1.0000001 1e-07 1 1 5 1 3 4 2 -5 
$EndEntities
$Nodes
12 161 1 161
0 1 0 1
1
0 0 0
0 2 0 1
2
1 0 0
0 3 0 1
3
0 1 0
0 4 0 1
4
1 1 0
0 5 0 1
5
0.5883538324741007 0.6011849964070055 0
1 1 0 7
6
7
8
9
10
11
12
0.1249999999999999 0 0
0.2499999999999998 0 0
0.3749999999999993 0 0
0.4999999999999988 0 0
0.6249999999999988 0 0
0.7499999999999991 0 0
0.8749999999999997 0 0
1 2 0 7
13
14
15
16
17
18
19
0 0.8750000000000001 0
0 0.7500000000000002 0
0 0.6250000000000007 0
0 0.5000000000000012 0
0 0.3750000000000012 0
0 0.2500000000000009 0
0 0.1250000000000003 0
1 3 0 7
20
21
22
23
24
25
26
1 0.1249999999999999 0
1 0.2499999999999998 0
1 0.3749999999999993 0
1 0.4999999999999988 0
1 0.6249999999999988 0
1 0.7499999999999991 0
1 0.8749999999999997 0
1 4 0 7
27
28
29
30
31
32
33
0.8750000000000001 1 0
0.7500000000000002 1 0
0.6250000000000007 1 0
0.5000000000000012 1 0
0.3750000000000012 1 0
0.2500000000000009 1 0
0.1250000000000003 1 0
1 5 0 12
34
35
36
37
38
39
40
41
42
43
44
45
0.5728009020958379 0.6642857154206439 0
0.5297050998775797 0.7129308201543578 0
0.4689391547468111 0.7359763033507166 0
0.4044238124239665 0.7281427225376139 0
0.3509387603410503 0.6912246566744488 0
0.3207367793655074 0.6336795897395482 0
0.3207367793655073 0.5686904030744633 0
0.35093876034105 0.5111453361395626 0
0.404423812423966 0.4742272702763973 0
0.4689391547468107 0.4663936894632943 0
0.5297050998775795 0.489439172659653 0
0.5728009020958379 0.5380842773933671 0
2 2 0 15
46
47
48
49
50
51
52
53
54
55
56
57
58
59
60
0.4797609345933108 0.676003833290591 0
0.4434655635721338 0.5261824052552787 0
0.3856732596813787 0.6362964404375639 0
0.5267458881230086 0.5832815339239332 0
0.3856732596813786 0.5660735523764473 0
0.3968991753717006 0.6818417707655269 0
0.4354189287974785 0.6499213290090402 0
0.480303223733854 0.6157391888290447 0
0.434758119846653 0.5930898124515083 0
0.5241829290041475 0.64452645965234 0
0.4804185506184133 0.5708242525839865 0
0.5036791931722973 0.5290342218799189 0
0.4407592943518591 0.6984757198100505 0
0.353205019523443 0.6011849964070057 0
0.3961253490046321 0.5194071410119214 0
2 3 0 101
61
62
63
64
65
66
67
68
69
70
71
72
73
74
75
76
77
78
79
80
81
82
83
84
85
86
87
88
89
90
91
92
93
94
95
96
97
98
99
100
101
102
103
104
105
106
107
108
109
110
111
112
113
114
115
116
117
118
119
120
121
122
123
124
125
126
127
128
129
130
131
132
133
134
135
136
137
138
139
140
141
142
143
144
145
146
147
148
149
150
151
152
153
154
155
156
157
158
159
160
161
0.5891250722188858 0.4676771201633062 0
0.3365318681486558 0.449495167257534 0
0.6362818541065993 0.640783628142765 0
0.6920418664648678 0.1004112414064641 0
0.4437652661875566 0.09217727040069307 0
0.2862891348111847 0.6884252857146047 0
0.8904995587029798 0.4348464038758606 0
0.1065776087916236 0.3098816690524081 0
0.9041991599924168 0.6820351134324545 0
0.5225407050625649 0.7804936375773558 0
0.5321163703216135 0.4249311842567529 0
0.5957002863503749 0.3909481398689766 0
0.5316017461813232 0.3467576349676562 0
0.283689408725208 0.5137821095363719 0
0.264454492742255 0.6011849964070058 0
0.6610687593754783 0.4328313112241545 0
0.6645346516406618 0.3501947044333649 0
0.6304379763948247 0.7049250486756095 0
0.334641876668788 0.7534984831307003 0
0.2666493414529175 0.7658985657014625 0
0.4549327603147836 0.8008507891432785 0
0.2637545433117315 0.4370803626923394 0
0.310760469525252 0.3737186519624661 0
0.2109332725362479 0.6607437234562414 0
0.1963607614416164 0.5312872753779538 0
0.6952743688948986 0.6939394899109419 0
0.7079263147886918 0.6166527076522382 0
0.6684220725440981 0.7776444749626845 0
0.4332638686131833 0.4098780144669927 0
0.1882426204312139 0.1047394467598626 0
0.9041447238749512 0.1898532330316938 0
0.8098958653014849 0.8911856045392702 0
0.310715522952311 0.8319478708542691 0
0.2269024421632906 0.8458243437203241 0
0.7362929309433215 0.3936582264149173 0
0.73786663687648 0.304019050526663 0
0.6656555872250539 0.2584821282703997 0
0.7343705451064921 0.4819709670678514 0
0.7499965141288083 0.7505741269891324 0
0.1824820461883154 0.7583535883245882 0
0.51509788923123 0.8672792918373304 0
0.2071319318892837 0.3605672505569332 0
0.2790655013874966 0.2908057242005647 0
0.3701505850560485 0.30599119031054 0
0.1839310685025978 0.4481745016093242 0
0.3421130604551663 0.2184101946291646 0
0.4379622226514756 0.2352437202700732 0
0.6422991539553645 0.5724873052983521 0
0.6920807598057952 0.8943915274339139 0
0.1073307814247206 0.6785619870291986 0
0.9050530783405606 0.5620058125501932 0
0.09711597029009678 0.5708732843036592 0
0.5736470491596037 0.1058585933056654 0
0.1287308599742835 0.8575674787080338 0
0.9044138275673562 0.3101906728745252 0
0.4312131584340308 0.8965794448963766 0
0.3206715995138745 0.11282544217319 0
0.7346764591124229 0.2046065688954263 0
0.8952858449660658 0.8063702367904171 0
0.5925551830158013 0.8259065525039802 0
0.1180600750699859 0.1949641754678624 0
0.8139412851092369 0.6170921829235629 0
0.8116751709489134 0.1204735115696078 0
0.2403601015820034 0.2004671975283097 0
0.1930267267882281 0.2785277462493975 0
0.4503224869057488 0.3323125517216379 0
0.518119244124829 0.2650743795341129 0
0.09520651601135249 0.4781536990225434 0
0.8224892831551439 0.5094942268908031 0
0.5849467664105656 0.9175154743550449 0
0.4957467711439661 0.1755489551340275 0
0.8153677613797069 0.355042939557003 0
0.8180240966266383 0.2473643294091532 0
0.5862689282887077 0.2168378716296275 0
0.2845924053782556 0.9172832316663335 0
0.1872269084513637 0.9303648405094833 0
0.5936467406351584 0.304715809784023 0
0.382272781582741 0.8177636075793605 0
0.5792028193110477 0.7500151788704301 0
0.9160363420535101 0.9145111682659374 0
0.7469241719372604 0.8247100596250885 0
0.08485283538489524 0.779265536016249 0
0.1185694250389714 0.394355424048242 0
0.7587975235063923 0.5547953084875894 0
0.09150635094610948 0.09150635094610954 0
0.9084936490538904 0.09150635094610948 0
0.6503446935114435 0.5002591328056553 0
0.4814456158760504 0.3876339409579803 0
0.3731545271813033 0.3917769412837632 0
0.1703124760810583 0.6010270861832189 0
0.6982008351673501 0.5431947272430859 0
0.8110009812810042 0.8054616810936377 0
0.7998040158575288 0.4350025527612871 0
0.3573630626992506 0.8945246148284083 0
0.7583843800044145 0.6790585888617657 0
0.07263672079611383 0.9273632792038864 0
0.6613396448624691 0.1823704794925756 0
0.2319339454952885 0.4825810623039973 0
0.822134694246991 0.723431988348495 0
0.2365884487471664 0.7183552907992242 0
0.4038602441599293 0.1693128752106077 0
$EndNodes
$Elements
6 320 1 320
1 1 1 8
1 1 6 
2 6 7 
3 7 8 
4 8 9 
5 9 10 
6 10 11 
7 11 12 
8 12 2 
1 2 1 8
9 3 13 
10 13 14 
11 14 15 
12 15 16 
13 16 17 
14 17 18 
15 18 19 
16 19 1 
1 3 1 8
17 2 20 
18 20 21 
19 21 22 
20 22 23 
21 23 24 
22 24 25 
23 25 26 
24 26 4 
1 4 1 8
25 4 27 
26 27 28 
27 28 29 
28 29 30 
29 30 31 
30 31 32 
31 32 33 
32 33 3 
2 2 2 41
33 43 57 47 
34 44 57 43 
35 5 55 49 
36 34 55 5 
37 47 54 50 
38 39 48 38 
39 36 46 35 
40 41 50 40 
41 43 47 42 
42 5 49 45 
43 47 57 56 
44 35 55 34 
45 46 55 35 
46 50 54 48 
47 47 56 54 
48 48 59 50 
49 50 60 47 
50 45 57 44 
51 49 57 45 
52 49 55 53 
53 41 60 50 
54 38 51 37 
55 39 59 48 
56 40 59 39 
57 48 51 38 
58 47 60 42 
59 37 58 36 
60 50 59 40 
61 42 60 41 
62 36 58 46 
63 48 54 52 
64 52 54 53 
65 52 53 46 
66 54 56 53 
67 53 55 46 
68 53 56 49 
69 52 58 51 
70 48 52 51 
71 46 58 52 
72 56 57 49 
73 51 58 37 
2 3 2 247
74 85 128 105 
75 105 158 85 
76 89 149 126 
77 30 116 101 
78 109 120 88 
79 112 128 85 
80 102 143 68 
81 123 133 118 
82 101 130 30 
83 68 125 102 
84 105 143 102 
85 124 125 121 
86 91 133 123 
87 63 108 87 
88 126 148 89 
89 126 149 104 
90 36 81 37 
91 41 74 62 
92 44 71 61 
93 23 111 67 
94 34 139 35 
95 90 124 121 
96 5 108 63 
97 71 72 61 
98 84 160 100 
99 74 82 62 
100 9 113 65 
101 117 124 90 
102 40 75 74 
103 15 110 14 
104 38 79 66 
105 31 116 30 
106 66 75 39 
107 122 144 129 
108 81 138 37 
109 100 110 84 
110 67 115 22 
111 134 137 127 
112 15 112 110 
113 7 117 90 
114 17 143 128 
115 109 130 120 
116 85 150 112 
117 106 124 117 
118 97 137 134 
119 88 141 109 
120 69 111 24 
121 28 109 92 
122 75 85 74 
123 79 80 66 
124 61 147 45 
125 18 68 17 
126 62 149 42 
127 88 139 78 
128 66 84 75 
129 111 129 67 
130 64 113 10 
131 25 69 24 
132 43 148 71 
133 17 128 16 
134 23 67 22 
135 89 148 43 
136 64 123 118 
137 9 65 8 
138 122 129 111 
139 42 149 89 
140 28 92 27 
141 25 119 69 
142 11 64 10 
143 45 147 108 
144 16 112 15 
145 29 109 28 
146 120 139 88 
147 21 115 91 
148 121 125 68 
149 18 121 68 
150 78 139 34 
151 65 117 8 
152 24 111 23 
153 10 113 9 
154 13 142 114 
155 69 122 111 
156 22 115 21 
157 37 138 79 
158 67 132 115 
159 7 90 6 
160 113 131 65 
161 64 157 113 
162 113 157 134 
163 21 91 20 
164 8 117 7 
165 11 123 64 
166 26 119 25 
167 19 121 18 
168 27 140 4 
169 12 123 11 
170 31 154 116 
171 4 140 26 
172 108 151 87 
173 16 128 112 
174 126 127 73 
175 112 150 110 
176 110 150 84 
177 103 104 83 
178 72 76 61 
179 106 107 104 
180 30 130 29 
181 29 130 109 
182 71 73 72 
183 110 142 14 
184 77 97 96 
185 75 150 85 
186 68 143 17 
187 84 150 75 
188 82 83 62 
189 14 142 13 
190 95 98 76 
191 119 159 69 
192 109 141 92 
193 32 135 31 
194 44 61 45 
195 41 62 42 
196 1 145 19 
197 6 145 1 
198 40 74 41 
199 5 63 34 
200 2 146 12 
201 20 146 2 
202 117 161 106 
203 43 71 44 
204 127 137 73 
205 87 144 122 
206 135 154 31 
207 103 106 104 
208 38 66 39 
209 94 100 80 
210 42 89 43 
211 97 118 96 
212 45 108 5 
213 103 124 106 
214 82 105 102 
215 37 79 38 
216 107 126 104 
217 73 137 72 
218 114 156 13 
219 122 155 87 
220 102 103 83 
221 77 96 95 
222 39 75 40 
223 35 70 36 
224 72 77 76 
225 115 133 91 
226 104 149 83 
227 63 87 86 
228 77 95 76 
229 79 93 80 
230 72 137 77 
231 107 127 126 
232 94 114 100 
233 65 161 117 
234 92 140 27 
235 70 120 101 
236 82 102 83 
237 98 147 76 
238 63 78 34 
239 100 160 80 
240 103 125 124 
241 102 125 103 
242 86 99 88 
243 93 94 80 
244 67 153 132 
245 86 88 78 
246 92 152 119 
247 63 86 78 
248 26 140 119 
249 119 140 92 
250 19 145 121 
251 120 130 101 
252 116 138 81 
253 152 159 119 
254 12 146 123 
255 70 81 36 
256 101 116 81 
257 77 137 97 
258 33 136 32 
259 90 145 6 
260 107 131 127 
261 96 132 95 
262 121 145 90 
263 91 146 20 
264 95 153 98 
265 70 101 81 
266 123 146 91 
267 100 142 110 
268 118 157 64 
269 98 153 129 
270 118 133 96 
271 3 156 33 
272 13 156 3 
273 94 136 114 
274 93 135 94 
275 70 139 120 
276 136 156 114 
277 96 133 132 
278 69 159 122 
279 107 161 131 
280 131 134 127 
281 129 144 98 
282 135 136 94 
283 82 158 105 
284 87 155 86 
285 79 138 93 
286 76 147 61 
287 87 151 144 
288 71 148 73 
289 73 148 126 
290 114 142 100 
291 128 143 105 
292 83 149 62 
293 74 158 82 
294 85 158 74 
295 116 154 138 
296 33 156 136 
297 113 134 131 
298 66 160 84 
299 131 161 65 
300 80 160 66 
301 132 133 115 
302 99 141 88 
303 98 151 147 
304 35 139 70 
305 86 155 99 
306 97 157 118 
307 106 161 107 
308 141 152 92 
309 134 157 97 
310 129 153 67 
311 122 159 155 
312 32 136 135 
313 138 154 93 
314 132 153 95 
315 99 159 152 
316 93 154 135 
317 144 151 98 
318 147 151 108 
319 99 152 141 
320 155 159 99 
$EndElements
