$MeshFormat
4.1 0 8
$EndMeshFormat
$PhysicalNames
3
1 101 "outer_boundary"
2 1 "material_1"
2 2 "material_2"
$EndPhysicalNames
$Entities
8 8 2 0
1 0 0 0 0 
2 1 0 0 0 
3 0 1 0 0 
4 1 1 0 0 
5 0.6855587302588878 0.1560523695415915 0 0 
6 0.8833490611981244 0.3827789681382349 0 0 
7 0.656622462601481 0.5805692990774715 0 0 
8 0.4588321316622445 0.3538427004808281 0 0 
1 -9.999999994736442e-08 -1e-07 -1e-07 1.0000001 1e-07 1e-07 1 101 2 1 -2 
2 -1e-07 -9.999999994736442e-08 -1e-07 1e-07 1.0000001 1e-07 1 101 2 3 -1 
3 0.9999999000000001 -9.999999994736442e-08 -1e-07 1.0000001 1.0000001 1e-07 1 101 2 2 -4 
4 -9.999999994736442e-08 0.9999999000000001 -1e-07 1.0000001 1.0000001 1e-07 1 101 2 4 -3 
5 0.6855586302588879 0.1560522695415915 -1e-07 0.8833491611981243 0.3827790681382349 1e-07 0 2 5 -6 
6 0.6566223626014811 0.3827788681382349 -1e-07 0.8833491611981243 0.5805693990774714 1e-07 0 2 6 -7 
7 0.4588320316622445 0.3538426004808281 -1e-07 0.656622562601481 0.5805693990774714 1e-07 0 2 7 -8 
8 0.4588320316622445 0.1560522695415915 -1e-07 0.6855588302588878 0.3538428004808281 1e-07 0 2 8 -5 
2 0.4588320316622445 0.1560522695415915 -1e-07 0.8833491611981243 0.5805693990774714 1e-07 1 2 4 5 6 7 8 
3 -9.999999994736442e-08 -9.999999994736442e-08 -1e-07 1.0000001 1.0000001 1e-07 1 1 8 1 3 4 2 -5 -8 -7 -6 
$EndEntities
$Nodes
18 255 1 255
0 1 0 1
1
0 0 0
0 2 0 1
2
1 0 0
0 3 0 1
3
0 1 0
0 4 0 1
4
1 1 0
0 5 0 1
5
0.6855587302588878 0.1560523695415915 0
0 6 0 1
6
0.8833490611981244 0.3827789681382349 0
0 7 0 1
7
0.656622462601481 0.5805692990774715 0
0 8 0 1
8
0.4588321316622445 0.3538427004808281 0
1 1 0 9
9
10
11
12
13
14
15
16
17
0.09999999999999996 0 0
0.1999999999999999 0 0
0.3000000000000001 0 0
0.4000000000000004 0 0
0.5000000000000003 0 0
0.5999999999999999 0 0
0.6999999999999995 0 0
0.7999999999999992 0 0
0.899999999999999 0 0
1 2 0 9
18
19
20
21
22
23
24
25
26
0 0.9 0
0 0.8 0
0 0.7 0
0 0.5999999999999996 0
0 0.4999999999999997 0
0 0.4000000000000001 0
0 0.3000000000000005 0
0 0.2000000000000008 0
0 0.100000000000001 0
1 3 0 9
27
28
29
30
31
32
33
34
35
1 0.09999999999999996 0
1 0.1999999999999999 0
1 0.3000000000000001 0
1 0.4000000000000004 0
1 0.5000000000000003 0
1 0.5999999999999999 0
1 0.6999999999999995 0
1 0.7999999999999992 0
1 0.899999999999999 0
1 4 0 9
36
37
38
39
40
41
42
43
44
0.9 1 0
0.8 1 0
0.7 1 0
0.5999999999999996 1 0
0.4999999999999997 1 0
0.4000000000000001 1 0
0.3000000000000005 1 0
0.2000000000000008 1 0
0.100000000000001 1 0
1 5 0 5
45
46
47
48
49
0.7185237854154273 0.1938401359743654 0
0.7514888405719666 0.2316279024071393 0
0.784453895728506 0.2694156688399131 0
0.8174189508850453 0.3072034352726869 0
0.8503840060415847 0.3449912017054607 0
1 6 0 5
50
51
52
53
54
0.8455612947653505 0.4157440232947743 0
0.8077735283325767 0.4487090784513137 0
0.7699857618998028 0.481674133607853 0
0.732197995467029 0.5146391887643924 0
0.6944102290342552 0.5476042439209318 0
1 7 0 5
55
56
57
58
59
0.6236574074449416 0.5427815326446975 0
0.5906923522884022 0.5049937662119237 0
0.5577272971318629 0.4672059997791499 0
0.5247622419753235 0.4294182333463761 0
0.4917971868187841 0.3916304669136023 0
1 8 0 5
60
61
62
63
64
0.4966198980950183 0.3208776453242887 0
0.5344076645277922 0.2879125901677493 0
0.572195430960566 0.2549475350112099 0
0.6099831973933398 0.2219824798546706 0
0.6477709638261137 0.1890174246981312 0
2 2 0 34
65
66
67
68
69
70
71
72
73
74
75
76
77
78
79
80
81
82
83
84
85
86
87
88
89
90
91
92
93
94
95
96
97
98
0.623912934156483 0.2694751200664667 0
0.7681201425509926 0.3163937351731148 0
0.7210404518914607 0.4610077492048236 0
0.5758052584201261 0.4188900805975212 0
0.5424545426167928 0.3363270570620505 0
0.7031483738453876 0.2408080270817087 0
0.7933411667864658 0.4010293114249556 0
0.6390329463708879 0.4911548061959496 0
0.7353755543775176 0.2789138675933002 0
0.719009937168664 0.326409338358875 0
0.7532646294202957 0.3635650413158333 0
0.7029779900422154 0.373815440122994 0
0.670156481397997 0.3377751033692047 0
0.654316748904511 0.3832725154710739 0
0.6205881778397466 0.3458222032180123 0
0.6866479614233043 0.4201271427237525 0
0.6354465484193769 0.4315455182525078 0
0.7373449074851377 0.4099038811788913 0
0.6778590893397552 0.2857745544167664 0
0.5875342844225803 0.3087236741004555 0
0.6863632251663773 0.4997490441540013 0
0.6566472794105221 0.2366615447608985 0
0.8018564750387636 0.3520112050201354 0
0.5387595226948236 0.3827834179848801 0
0.5997408805261312 0.4627580342074105 0
0.6133133866610456 0.387568582932966 0
0.6737062266542814 0.4607168521062069 0
0.5797425287758525 0.3633525026493143 0
0.7667972453470842 0.4398786022809891 0
0.6387710411352135 0.3082686160519849 0
0.6601529322859201 0.5287746388952381 0
0.6820282605744488 0.207847029723825 0
0.5106267918444779 0.3573731701652672 0
0.831554401015891 0.3792484984537958 0
2 3 0 157
99
100
101
102
103
104
105
106
107
108
109
110
111
112
113
114
115
116
117
118
119
120
121
122
123
124
125
126
127
128
129
130
131
132
133
134
135
136
137
138
139
140
141
142
143
144
145
146
147
148
149
150
151
152
153
154
155
156
157
158
159
160
161
162
163
164
165
166
167
168
169
170
171
172
173
174
175
176
177
178
179
180
181
182
183
184
185
186
187
188
189
190
191
192
193
194
195
196
197
198
199
200
201
202
203
204
205
206
207
208
209
210
211
212
213
214
215
216
217
218
219
220
221
222
223
224
225
226
227
228
229
230
231
232
233
234
235
236
237
238
239
240
241
242
243
244
245
246
247
248
249
250
251
252
253
254
255
0.5414846590270775 0.5146484581982551 0
0.4431593583648933 0.4039512604734043 0
0.07938880485160682 0.655051727842463 0
0.407877012851288 0.362899135088358 0
0.3901705869395393 0.4173140820694271 0
0.4538774314761709 0.9211866682273061 0
0.7051140668385758 0.5966824432265398 0
0.6627846073881758 0.6305798474297251 0
0.35039741377175 0.3720837041824516 0
0.3303893173831446 0.4293048334341322 0
0.7224388191575357 0.651076453539674 0
0.4807902907640791 0.27025185105019 0
0.3736397432912471 0.4747666068012141 0
0.5627427146146854 0.2059713659590888 0
0.6740016963051267 0.6937114306043405 0
0.6129707105923521 0.6674252657230133 0
0.2871132271538791 0.3816851935847068 0
0.3107122152345058 0.3196380569147487 0
0.7367035416857568 0.7169739040290898 0
0.7813516095646028 0.5301665798286803 0
0.3095219557701205 0.4904400169235598 0
0.3579559025008255 0.5407470312692561 0
0.2411397750209273 0.9186403268007152 0
0.7893229512801511 0.6676361668516961 0
0.6228967136504229 0.7370893215353291 0
0.5601156627479845 0.7111255372689268 0
0.8006965338332913 0.2219732104208079 0
0.2414538072536565 0.3290577204176723 0
0.2684105845778623 0.2639083950154619 0
0.2198233495551641 0.3979102715064467 0
0.287739840886133 0.5570540147801705 0
0.3379264026396436 0.6093245937409209 0
0.4091325997540701 0.5917351967126125 0
0.3897221735491567 0.6609412248317557 0
0.3158472966672498 0.6825571536731839 0
0.8047104232437265 0.7394852087146431 0
0.7489446738702555 0.7908168373824321 0
0.3533654176222564 0.2513063405610907 0
0.7394545160483028 0.145307505003053 0
0.1958702028291306 0.2702999773475621 0
0.3713917874377176 0.73981362389383 0
0.4508883204836365 0.07942713320447781 0
0.855215986751682 0.464951716556099 0
0.8215749724445781 0.819329450570754 0
0.5682890319698168 0.7823732339218553 0
0.5564777083791311 0.6407543214815856 0
0.2307386879293226 0.2055554036255742 0
0.8715938043106406 0.2955031459520095 0
0.6403979279704053 0.1385172426190829 0
0.2937183603237252 0.7607822426117119 0
0.6457909745904618 0.9101091452634715 0
0.8522710185116282 0.0857271897579131 0
0.07906963518699878 0.855262640384681 0
0.2340830225130491 0.6998617384648589 0
0.08154644946304845 0.4612385619694187 0
0.2429602562413576 0.5054177027570597 0
0.223374028983695 0.5655605955455038 0
0.5031456782415133 0.753664956277308 0
0.855639307199656 0.6943985860438826 0
0.4313799240147899 0.3098985751667339 0
0.3536158941142508 0.8204527263692302 0
0.09411407750907363 0.1480507100193565 0
0.8393910828426072 0.6098562326174931 0
0.2004133589384501 0.7645372631170537 0
0.7721664819108175 0.8808329437685908 0
0.4279956206507033 0.2502465402702296 0
0.4756877153525981 0.2108412498619023 0
0.4158456857864479 0.1916541906481717 0
0.3507727682051334 0.1697360922278643 0
0.4554256597003651 0.6389944619567758 0
0.4749942584665524 0.5809310030033731 0
0.6074147693401563 0.5902239910638029 0
0.6375746855078007 0.8093976236162469 0
0.6964937778851381 0.1013455904817092 0
0.2476044984668306 0.0746655413089698 0
0.5402907458848734 0.5762132731176955 0
0.4338744931635667 0.5264916102502589 0
0.7650541267564339 0.07940875733802388 0
0.8542341523586777 0.9108057400325136 0
0.500096076484471 0.8414409614986644 0
0.917679958455289 0.5627190333347478 0
0.1659783591757987 0.5158488578957555 0
0.5476604357947027 0.08154359106361952 0
0.5468509427398297 0.9206628032687963 0
0.3584448367773356 0.0817269115917868 0
0.08660254037844345 0.3500000000000003 0
0.07603187534671257 0.2482599049299329 0
0.0960556307723075 0.7594092236674221 0
0.3518247453968072 0.9133796064642008 0
0.4342508562319446 0.4628591129947358 0
0.4838965944111804 0.4945960932948493 0
0.9116923809310347 0.8388886008943672 0
0.9173879626227797 0.1479489496462059 0
0.9228391837452065 0.2344536235595577 0
0.8043577614539993 0.1477684629315416 0
0.1526658406192087 0.07124629071025573 0
0.7707709432237908 0.6040021975564239 0
0.08134007498095036 0.5591148574415318 0
0.9225634742568058 0.6532816575298384 0
0.9252048528180828 0.7422798238764785 0
0.6291943400633808 0.07415080623753656 0
0.4291648838641053 0.7883710607887191 0
0.480182878701907 0.1481068869701336 0
0.1424515793014633 0.9236669464716426 0
0.5247529725414608 0.2387048969064247 0
0.4416241657059098 0.7114213841289022 0
0.8471798032187731 0.5383226481054662 0
0.6003896064776489 0.1723795949473453 0
0.8436190472952689 0.2546582940258942 0
0.8610001197078678 0.1954562418183706 0
0.7629042874645975 0.1881034433473814 0
0.9433419248186723 0.4429918820654468 0
0.266912610951568 0.6251292582261144 0
0.1724930450211279 0.3469045068278238 0
0.2691785394600307 0.4415339651878445 0
0.6866289747190635 0.7648121815344059 0
0.8123013379534874 0.4927648313098824 0
0.4822653304252999 0.4421715684522564 0
0.8922870220710897 0.3369605552708693 0
0.3726081964585992 0.3226027095596089 0
0.1535394009330993 0.7006195732175723 0
0.743995416436171 0.5622171818200055 0
0.1569134047325792 0.4208203578922145 0
0.2714808760584632 0.8373987108283887 0
0.5040970258679494 0.6784540047818537 0
0.1679932273104081 0.6192910984717119 0
0.9301317330800285 0.0697283611627364 0
0.5807079867970902 0.545772204247275 0
0.9363557466041698 0.3727295532543654 0
0.9249361036097823 0.9242580022815314 0
0.579720342258476 0.852796753513807 0
0.1548666280895848 0.2159215090645229 0
0.701720679018129 0.8478563372480178 0
0.5499683561339788 0.1540960277079978 0
0.5062570796597743 0.6230694128682568 0
0.5180272245941488 0.4696080706141774 0
0.07320508075688781 0.07320508075688797 0
0.5935221332880233 0.1241374525151164 0
0.8943753636429463 0.4291171766201783 0
0.07320508075688781 0.9267949192431124 0
0.1651118547549715 0.8419775264187075 0
0.282067346470349 0.1466945541357008 0
0.7192182835103752 0.9311692919229596 0
0.4086231386021136 0.8615595082948124 0
0.5183367845402925 0.192677462379488 0
0.8587542155740688 0.1442252110385078 0
0.4973986085596916 0.5380266570772982 0
0.9246151513462213 0.3079293756073603 0
0.8054144653606508 0.5697322611450762 0
0.4067084885799536 0.1300812488201092 0
0.3963372896865872 0.2835135413894158 0
0.8613339545210008 0.7671100987907842 0
0.9050535340079011 0.4933847685871398 0
0.1371728583329999 0.2862771796339684 0
0.2150366848018926 0.4530199491538421 0
0.1936761798473949 0.1436890014773967 0
0.2970709609609847 0.2074401571131384 0
$EndNodes
$Elements
6 508 1 508
1 1 1 10
1 1 9 
2 9 10 
3 10 11 
4 11 12 
5 12 13 
6 13 14 
7 14 15 
8 15 16 
9 16 17 
10 17 2 
1 2 1 10
11 3 18 
12 18 19 
13 19 20 
14 20 21 
15 21 22 
16 22 23 
17 23 24 
18 24 25 
19 25 26 
20 26 1 
1 3 1 10
21 2 27 
22 27 28 
23 28 29 
24 29 30 
25 30 31 
26 31 32 
27 32 33 
28 33 34 
29 34 35 
30 35 4 
1 4 1 10
31 4 36 
32 36 37 
33 37 38 
34 38 39 
35 39 40 
36 40 41 
37 41 42 
38 42 43 
39 43 44 
40 44 3 
2 2 2 90
41 65 86 83 
42 83 94 65 
43 71 82 75 
44 72 89 81 
45 68 90 81 
46 81 89 68 
47 81 91 72 
48 71 93 82 
49 80 82 67 
50 88 92 68 
51 68 92 90 
52 83 86 70 
53 84 94 79 
54 75 87 71 
55 67 91 80 
56 79 92 84 
57 65 94 84 
58 82 93 67 
59 46 73 70 
60 61 69 60 
61 76 80 78 
62 66 73 47 
63 76 77 74 
64 62 84 61 
65 47 73 46 
66 48 66 47 
67 53 67 52 
68 56 72 55 
69 58 68 57 
70 66 74 73 
71 46 70 45 
72 61 84 69 
73 66 75 74 
74 80 81 78 
75 63 65 62 
76 65 84 62 
77 78 79 77 
78 51 71 50 
79 75 82 76 
80 74 83 73 
81 76 82 80 
82 77 83 74 
83 76 78 77 
84 73 83 70 
85 75 76 74 
86 84 92 69 
87 49 87 48 
88 59 88 58 
89 64 86 63 
90 54 85 53 
91 66 87 75 
92 85 91 67 
93 68 89 57 
94 81 90 78 
95 56 89 72 
96 48 87 66 
97 53 85 67 
98 63 86 65 
99 58 88 68 
100 51 93 71 
101 67 93 52 
102 77 94 83 
103 8 97 59 
104 5 96 64 
105 6 98 49 
106 45 96 5 
107 60 97 8 
108 7 95 54 
109 55 95 7 
110 50 98 6 
111 57 89 56 
112 78 90 79 
113 69 92 88 
114 80 91 81 
115 72 91 85 
116 52 93 51 
117 79 94 77 
118 64 96 86 
119 54 95 85 
120 49 98 87 
121 59 97 88 
122 71 98 50 
123 72 95 55 
124 70 96 45 
125 69 97 60 
126 90 92 79 
127 85 95 72 
128 86 96 70 
129 87 98 71 
130 88 97 69 
2 3 2 378
131 163 177 37 
132 186 219 162 
133 217 246 227 
134 162 239 186 
135 37 241 163 
136 60 158 110 
137 144 170 114 
138 197 198 157 
139 212 221 184 
140 114 170 106 
141 152 224 211 
142 136 166 164 
143 15 176 172 
144 33 198 197 
145 146 207 192 
146 8 158 60 
147 166 201 165 
148 184 221 153 
149 166 248 201 
150 144 174 170 
151 180 224 196 
152 211 224 155 
153 13 181 140 
154 136 167 166 
155 193 208 125 
156 164 249 136 
157 178 182 104 
158 180 196 153 
159 106 170 7 
160 16 176 15 
161 207 208 192 
162 167 240 183 
163 172 199 15 
164 150 176 16 
165 121 239 222 
166 158 164 110 
167 155 224 180 
168 183 240 173 
169 153 196 22 
170 37 177 36 
171 181 201 140 
172 161 205 179 
173 227 246 29 
174 111 175 120 
175 178 242 200 
176 186 239 151 
177 11 183 173 
178 104 242 178 
179 160 254 230 
180 149 229 171 
181 111 188 175 
182 189 245 175 
183 104 182 40 
184 125 209 193 
185 14 181 13 
186 14 199 181 
187 171 231 149 
188 128 221 212 
189 105 195 109 
190 201 248 140 
191 222 239 162 
192 219 224 152 
193 100 188 103 
194 194 254 160 
195 187 222 159 
196 17 150 16 
197 23 184 153 
198 24 185 184 
199 131 169 168 
200 120 175 131 
201 13 140 12 
202 175 245 169 
203 121 222 187 
204 192 246 146 
205 131 175 169 
206 179 197 161 
207 199 236 181 
208 35 190 34 
209 139 204 200 
210 121 187 42 
211 33 197 32 
212 147 172 5 
213 103 188 111 
214 32 179 31 
215 140 183 12 
216 23 153 22 
217 39 149 38 
218 39 182 149 
219 29 246 192 
220 41 104 40 
221 150 193 176 
222 24 184 23 
223 160 185 25 
224 136 218 116 
225 19 186 151 
226 21 101 20 
227 205 215 141 
228 29 192 28 
229 162 219 152 
230 200 204 156 
231 101 186 20 
232 11 173 10 
233 202 239 121 
234 26 160 25 
235 41 187 104 
236 25 185 24 
237 40 182 39 
238 109 195 122 
239 124 144 114 
240 122 195 161 
241 131 168 132 
242 120 131 130 
243 43 121 42 
244 122 161 157 
245 188 189 175 
246 12 183 11 
247 20 186 19 
248 177 228 36 
249 42 187 41 
250 179 251 31 
251 19 151 18 
252 22 196 21 
253 153 221 180 
254 196 224 101 
255 139 200 159 
256 173 194 10 
257 15 199 14 
258 4 228 35 
259 28 191 27 
260 36 228 4 
261 191 244 150 
262 10 194 9 
263 188 216 189 
264 21 196 101 
265 99 226 174 
266 127 136 116 
267 174 245 99 
268 44 202 43 
269 30 227 29 
270 105 220 195 
271 193 244 208 
272 164 165 110 
273 147 199 172 
274 182 229 149 
275 190 198 34 
276 131 132 130 
277 100 216 188 
278 136 249 218 
279 174 226 170 
280 141 251 205 
281 227 237 6 
282 43 202 121 
283 28 192 191 
284 34 198 33 
285 32 197 179 
286 56 99 57 
287 148 152 133 
288 38 241 37 
289 59 100 8 
290 31 251 210 
291 185 252 184 
292 27 225 2 
293 142 190 177 
294 125 208 207 
295 152 211 133 
296 103 111 108 
297 2 225 17 
298 113 114 106 
299 139 159 148 
300 148 162 152 
301 132 139 133 
302 123 124 114 
303 7 170 55 
304 178 200 156 
305 189 234 99 
306 111 120 119 
307 143 156 124 
308 178 229 182 
309 120 130 129 
310 1 235 26 
311 9 235 1 
312 139 148 133 
313 161 197 157 
314 168 204 132 
315 118 247 220 
316 132 133 130 
317 142 177 163 
318 58 216 59 
319 35 228 190 
320 169 245 174 
321 54 105 7 
322 115 128 126 
323 3 238 44 
324 18 238 3 
325 60 110 61 
326 123 171 143 
327 134 135 117 
328 100 102 8 
329 142 163 135 
330 216 234 189 
331 155 180 154 
332 129 154 119 
333 138 145 127 
334 143 178 156 
335 123 143 124 
336 120 129 119 
337 176 193 137 
338 111 119 108 
339 61 203 62 
340 115 116 107 
341 129 155 154 
342 52 118 53 
343 102 158 8 
344 134 142 135 
345 101 219 186 
346 62 112 63 
347 113 123 114 
348 31 210 30 
349 103 108 107 
350 53 220 54 
351 100 103 102 
352 103 107 102 
353 118 215 205 
354 183 248 167 
355 138 252 230 
356 126 138 127 
357 122 157 134 
358 108 115 107 
359 231 241 149 
360 17 225 150 
361 150 225 191 
362 109 122 117 
363 167 248 166 
364 132 204 139 
365 126 127 116 
366 204 223 156 
367 59 216 100 
368 165 203 110 
369 46 125 47 
370 156 223 124 
371 115 126 116 
372 192 208 191 
373 214 231 171 
374 51 215 52 
375 63 206 64 
376 122 134 117 
377 133 211 130 
378 45 209 46 
379 201 243 165 
380 145 255 127 
381 109 113 106 
382 105 106 7 
383 130 211 129 
384 5 137 45 
385 135 231 214 
386 138 230 145 
387 109 117 113 
388 47 207 48 
389 129 211 155 
390 169 233 168 
391 164 166 165 
392 148 222 162 
393 115 213 128 
394 140 248 183 
395 160 230 185 
396 64 147 5 
397 128 212 126 
398 168 223 204 
399 56 226 99 
400 50 141 51 
401 154 213 119 
402 220 247 195 
403 142 250 190 
404 180 253 154 
405 193 209 137 
406 123 214 171 
407 126 212 138 
408 99 245 189 
409 135 214 117 
410 174 233 169 
411 48 146 49 
412 147 236 199 
413 105 109 106 
414 99 234 57 
415 119 213 108 
416 198 250 157 
417 55 226 56 
418 113 214 123 
419 49 217 6 
420 108 213 115 
421 116 218 107 
422 170 226 55 
423 54 220 105 
424 110 203 61 
425 149 241 38 
426 190 250 198 
427 159 242 187 
428 240 255 145 
429 124 223 144 
430 159 222 148 
431 58 234 216 
432 194 235 9 
433 118 220 53 
434 143 229 178 
435 205 247 118 
436 117 214 113 
437 62 203 112 
438 26 235 160 
439 187 242 104 
440 163 241 231 
441 210 237 227 
442 181 232 201 
443 107 218 102 
444 160 235 194 
445 44 238 202 
446 223 233 144 
447 136 255 167 
448 52 215 118 
449 191 225 27 
450 230 252 185 
451 112 206 63 
452 144 233 174 
453 57 234 58 
454 102 218 158 
455 157 250 134 
456 5 172 137 
457 171 229 143 
458 151 238 18 
459 221 253 180 
460 190 228 177 
461 6 237 50 
462 46 209 125 
463 163 231 135 
464 168 233 223 
465 172 176 137 
466 230 254 145 
467 125 207 47 
468 173 254 194 
469 137 209 45 
470 64 206 147 
471 210 227 30 
472 202 238 151 
473 141 215 51 
474 101 224 219 
475 48 207 146 
476 151 239 202 
477 158 249 164 
478 237 251 141 
479 195 247 161 
480 184 252 212 
481 217 227 6 
482 205 251 179 
483 146 217 49 
484 150 244 193 
485 200 242 159 
486 161 247 205 
487 127 255 136 
488 134 250 142 
489 112 232 206 
490 50 237 141 
491 208 244 191 
492 181 236 232 
493 167 255 240 
494 128 253 221 
495 165 243 203 
496 212 252 138 
497 154 253 213 
498 203 243 112 
499 213 253 128 
500 112 243 232 
501 206 236 147 
502 145 254 240 
503 218 249 158 
504 232 236 206 
505 210 251 237 
506 232 243 201 
507 146 246 217 
508 240 254 173 
$EndElements
