$MeshFormat
4.1 0 8
$EndMeshFormat
$PhysicalNames
3
1 101 "outer_boundary"
2 1 "material_1"
2 2 "material_2"
$EndPhysicalNames
$Entities
8 8 2 0
1 0 0 0 0 
2 1 0 0 0 
3 0 1 0 0 
4 1 1 0 0 
5 0.6437899279736928 0.3897465431920046 0 0 
6 0.4230412308509812 0.5165478644091798 0 0 
7 0.2962399096338061 0.2957991672864682 0 0 
8 0.5169886067565176 0.168997846069293 0 0 
1 -9.999999994736442e-08 -1e-07 -1e-07 1.0000001 1e-07 1e-07 1 101 2 1 -2 
2 -1e-07 -9.999999994736442e-08 -1e-07 1e-07 1.0000001 1e-07 1 101 2 3 -1 
3 0.9999999000000001 -9.999999994736442e-08 -1e-07 1.0000001 1.0000001 1e-07 1 101 2 2 -4 
4 -9.999999994736442e-08 0.9999999000000001 -1e-07 1.0000001 1.0000001 1e-07 1 101 2 4 -3 
5 0.4230411308509812 0.3897464431920046 -1e-07 0.6437900279736928 0.5165479644091797 1e-07 0 2 5 -6 
6 0.2962398096338061 0.2957990672864682 -1e-07 0.4230413308509812 0.5165479644091797 1e-07 0 2 6 -7 
7 0.2962398096338061 0.168997746069293 -1e-07 0.5169887067565175 0.2957992672864682 1e-07 0 2 7 -8 
8 0.5169885067565176 0.168997746069293 -1e-07 0.6437900279736928 0.3897466431920046 1e-07 0 2 8 -5 
2 0.2962398096338061 0.168997746069293 -1e-07 0.6437900279736928 0.5165479644091797 1e-07 1 2 4 5 6 7 8 
3 -9.999999994736442e-08 -9.999999994736442e-08 -1e-07 1.0000001 1.0000001 1e-07 1 1 8 1 3 4 2 -5 -8 -7 -6 
$EndEntities
$Nodes
18 161 1 161
0 1 0 1
1
0 0 0
0 2 0 1
2
1 0 0
0 3 0 1
3
0 1 0
0 4 0 1
4
1 1 0
0 5 0 1
5
0.6437899279736928 0.3897465431920046 0
0 6 0 1
6
0.4230412308509812 0.5165478644091798 0
0 7 0 1
7
0.2962399096338061 0.2957991672864682 0
0 8 0 1
8
0.5169886067565176 0.168997846069293 0
1 1 0 7
9
10
11
12
13
14
15
0.1249999999999999 0 0
0.2499999999999998 0 0
0.3749999999999993 0 0
0.4999999999999988 0 0
0.6249999999999988 0 0
0.7499999999999991 0 0
0.8749999999999997 0 0
1 2 0 7
16
17
18
19
20
21
22
0 0.8750000000000001 0
0 0.7500000000000002 0
0 0.6250000000000007 0
0 0.5000000000000012 0
0 0.3750000000000012 0
0 0.2500000000000009 0
0 0.1250000000000003 0
1 3 0 7
23
24
25
26
27
28
29
1 0.1249999999999999 0
1 0.2499999999999998 0
1 0.3749999999999993 0
1 0.4999999999999988 0
1 0.6249999999999988 0
1 0.7499999999999991 0
1 0.8749999999999997 0
1 4 0 7
30
31
32
33
34
35
36
0.8750000000000001 1 0
0.7500000000000002 1 0
0.6250000000000007 1 0
0.5000000000000012 1 0
0.3750000000000012 1 0
0.2500000000000009 1 0
0.1250000000000003 1 0
1 5 0 3
37
38
39
0.588602753693015 0.4214468734962984 0
0.533415579412337 0.4531472038005922 0
0.4782284051316591 0.484847534104886 0
1 6 0 3
40
41
42
0.3913409005466874 0.4613606901285018 0
0.3596405702423937 0.4061735158478239 0
0.3279402399380998 0.350986341567146 0
1 7 0 3
43
44
45
0.351427083914484 0.2640988369821743 0
0.4066142581951618 0.2323985066778806 0
0.4618014324758397 0.2006981763735868 0
1 8 0 3
46
47
48
0.5486889370608115 0.224185020349971 0
0.5803892673651052 0.2793721946306489 0
0.612089597669399 0.3345593689113268 0
2 2 0 15
49
50
51
52
53
54
55
56
57
58
59
60
61
62
63
0.5454126195658334 0.3338397068031123 0
0.4208259358450462 0.4048872800684771 0
0.4627634928351756 0.2581804775209497 0
0.3905063742062693 0.3518841781203783 0
0.4486014983453028 0.3541722441117269 0
0.4808459073226019 0.4156844285191479 0
0.5195457085730975 0.2729329564527786 0
0.4113442809569557 0.295306164019117 0
0.5393641961663014 0.3964431834469146 0
0.5005902065599461 0.3612126552870633 0
0.4997950436563614 0.232603913968366 0
0.4402347939511375 0.4529417965101067 0
0.3598459775328791 0.3129927303866243 0
0.5807068426259892 0.3726943492063725 0
0.4802248909552975 0.3094164254436237 0
2 3 0 98
64
65
66
67
68
69
70
71
72
73
74
75
76
77
78
79
80
81
82
83
84
85
86
87
88
89
90
91
92
93
94
95
96
97
98
99
100
101
102
103
104
105
106
107
108
109
110
111
112
113
114
115
116
117
118
119
120
121
122
123
124
125
126
127
128
129
130
131
132
133
134
135
136
137
138
139
140
141
142
143
144
145
146
147
148
149
150
151
152
153
154
155
156
157
158
159
160
161
0.5929955127025619 0.4869639455632074 0
0.3590494327657506 0.5184441212088108 0
0.3952139374756348 0.573957222039602 0
0.2881391348973272 0.4075133511472923 0
0.6819497071796403 0.8928972870527319 0
0.6438348515742378 0.2777771814952871 0
0.3197719530184348 0.5780627471800142 0
0.3562217926359044 0.6447102036916434 0
0.4391422431540087 0.6381385348056776 0
0.8987129265181394 0.5598354304032688 0
0.2721171919991765 0.6463679471811603 0
0.4031224112294707 0.7188774273342479 0
0.4864994674270646 0.7124284032845777 0
0.2963441033852113 0.2271518433615941 0
0.8917468245269454 0.1874999999999998 0
0.2359543545597941 0.2638442894341546 0
0.2057389174083231 0.9008662162862124 0
0.2361396159713287 0.5587638598910082 0
0.5847304403456459 0.1705929832814752 0
0.5242623002220399 0.6319937967661486 0
0.5735379214689328 0.7064790934178988 0
0.6102475511894352 0.6275113389329836 0
0.6637755023290692 0.7016993246847215 0
0.233382554756417 0.1853831397395145 0
0.5345086489996841 0.7891048614617514 0
0.6988761819335827 0.6166137832398086 0
0.7618325958387677 0.6940325177816974 0
0.1072552204368479 0.4415675574920195 0
0.3949143600444239 0.163051758905141 0
0.1812924940228426 0.6434599102147915 0
0.8994906475104195 0.8146852750287898 0
0.2256318858105728 0.7244246964065151 0
0.1601625616207192 0.2271634204040228 0
0.2416389502232125 0.3432112046726679 0
0.3123891058930186 0.1582406482626618 0
0.4448728671031631 0.8833089966441711 0
0.7015935073735848 0.1003569212433604 0
0.478146179621678 0.5513722460804874 0
0.1416234011745756 0.5547355962371275 0
0.2059028831828341 0.4215167222082219 0
0.1524485240498962 0.1299319198156139 0
0.5595648370344167 0.5604364734659173 0
0.8799896988953231 0.6876736154936374 0
0.3217339500958096 0.8995877574145974 0
0.8124448184762355 0.1126038923150482 0
0.748574927230276 0.1992090722625099 0
0.8274120196162957 0.2820174107997458 0
0.5526197672182718 0.09272027530077864 0
0.4617830466321255 0.1039134436770839 0
0.6426278977844984 0.5495476113722338 0
0.7259922294000105 0.531858562402981 0
0.8948479187567703 0.4428712527651145 0
0.1249371212199751 0.728369553229159 0
0.09757240530023276 0.3116738350132134 0
0.2565911037283076 0.4761858745461017 0
0.5681739979767866 0.8907648428761881 0
0.6749253993484815 0.4742641370269311 0
0.7456864062294108 0.4479847575787971 0
0.8052985334357294 0.8821951788705047 0
0.7961075187456819 0.5990938801947269 0
0.7149713621488135 0.785216569130093 0
0.8112414798882679 0.504549371846968 0
0.326519279883265 0.4639603770363132 0
0.3713613233215945 0.8105299770957759 0
0.6757332577116922 0.3346996646997895 0
0.7158673800765809 0.2749478736058563 0
0.7606474571726238 0.362504978826395 0
0.35233778228646 0.2089883188378904 0
0.6629553980900328 0.1902086174907771 0
0.3185612143510333 0.7240554381826898 0
0.6228195233504877 0.7943603297705641 0
0.8431603800786968 0.3677281284877723 0
0.9177084073631061 0.3162003937858879 0
0.3386457397402982 0.08812230289649869 0
0.2734479636710505 0.8072375882585177 0
0.1895024448987788 0.4905539220748958 0
0.6041197788871666 0.2284271994496319 0
0.235310987406605 0.09361300178571486 0
0.6947976727082221 0.4029181286473233 0
0.07651449847670061 0.1816733886427217 0
0.1783850840661707 0.3033498508667537 0
0.8123165675658106 0.7727606312609445 0
0.5284701027805305 0.5073534806030181 0
0.4480729436161954 0.7828499331641048 0
0.9158383286006361 0.08502077846300959 0
0.1666208042934137 0.8140313718238552 0
0.07685761711504291 0.81532022812586 0
0.09051440071096417 0.6355248013097576 0
0.09381351638142182 0.9061642900890536 0
0.9084936490538902 0.90849364905389 0
0.07620533874270685 0.08463822506227209 0
0.1661509086418596 0.3642638340505753 0
0.6253798226055068 0.1107757594632783 0
0.300160892660559 0.5195340450690086 0
0.6347398557398832 0.4378791539559049 0
0.8114568757183875 0.4280943003738624 0
0.8214229865782837 0.2087869102271234 0
0.0593109853556929 0.5579066114942323 0
$EndNodes
$Elements
6 320 1 320
1 1 1 8
1 1 9 
2 9 10 
3 10 11 
4 11 12 
5 12 13 
6 13 14 
7 14 15 
8 15 2 
1 2 1 8
9 3 16 
10 16 17 
11 17 18 
12 18 19 
13 19 20 
14 20 21 
15 21 22 
16 22 1 
1 3 1 8
17 2 23 
18 23 24 
19 24 25 
20 25 26 
21 26 27 
22 27 28 
23 28 29 
24 29 4 
1 4 1 8
25 4 30 
26 30 31 
27 31 32 
28 32 33 
29 33 34 
30 34 35 
31 35 36 
32 36 3 
2 2 2 44
33 39 54 38 
34 39 60 54 
35 56 63 53 
36 52 56 53 
37 51 63 56 
38 42 52 41 
39 45 51 44 
40 48 49 47 
41 41 50 40 
42 41 52 50 
43 53 54 50 
44 52 53 50 
45 49 63 55 
46 58 63 49 
47 47 55 46 
48 44 56 43 
49 49 55 47 
50 51 56 44 
51 43 61 7 
52 46 59 8 
53 54 60 50 
54 6 60 39 
55 7 61 42 
56 40 60 6 
57 8 59 45 
58 5 62 48 
59 37 62 5 
60 54 57 38 
61 57 58 49 
62 49 62 57 
63 38 57 37 
64 55 59 46 
65 56 61 43 
66 53 58 54 
67 48 62 49 
68 42 61 52 
69 45 59 51 
70 50 60 40 
71 51 59 55 
72 52 61 56 
73 55 63 51 
74 54 58 57 
75 53 63 58 
76 57 62 37 
2 3 2 244
77 66 101 72 
78 88 119 99 
79 72 101 83 
80 90 123 106 
81 137 141 10 
82 9 141 104 
83 67 97 42 
84 98 141 137 
85 99 147 88 
86 117 143 96 
87 112 137 11 
88 42 97 7 
89 106 123 73 
90 119 134 68 
91 6 101 66 
92 10 141 9 
93 121 142 130 
94 101 105 83 
95 68 124 122 
96 110 129 109 
97 45 112 8 
98 12 112 11 
99 21 143 117 
100 120 158 142 
101 124 145 122 
102 11 137 10 
103 99 119 33 
104 69 132 129 
105 17 151 116 
106 142 158 5 
107 106 145 90 
108 27 106 73 
109 130 159 121 
110 108 109 100 
111 102 161 91 
112 78 136 110 
113 34 107 99 
114 13 111 12 
115 88 134 119 
116 92 112 45 
117 110 130 129 
118 80 138 107 
119 92 131 98 
120 67 103 97 
121 64 113 105 
122 13 156 111 
123 14 100 13 
124 68 134 124 
125 20 91 19 
126 73 115 26 
127 18 151 17 
128 120 142 121 
129 14 108 100 
130 24 78 23 
131 24 136 78 
132 20 117 91 
133 80 149 138 
134 27 73 26 
135 64 120 113 
136 127 133 75 
137 80 107 35 
138 94 106 28 
139 34 99 33 
140 91 139 102 
141 32 68 31 
142 107 127 99 
143 91 161 19 
144 36 80 35 
145 135 136 115 
146 115 136 25 
147 26 115 25 
148 28 106 27 
149 29 94 28 
150 73 125 115 
151 35 107 34 
152 21 117 20 
153 109 132 100 
154 69 140 132 
155 98 137 92 
156 113 114 89 
157 68 122 31 
158 129 132 109 
159 23 148 2 
160 83 105 85 
161 104 154 9 
162 113 120 114 
163 92 137 112 
164 32 119 68 
165 109 160 110 
166 15 108 14 
167 72 83 76 
168 33 119 32 
169 80 152 149 
170 85 113 89 
171 31 122 30 
172 103 139 91 
173 105 113 85 
174 83 85 84 
175 2 148 15 
176 94 145 106 
177 149 152 150 
178 81 139 118 
179 67 118 103 
180 100 156 13 
181 111 112 12 
182 135 159 130 
183 96 144 117 
184 120 121 114 
185 127 138 133 
186 91 155 103 
187 83 84 76 
188 78 160 108 
189 122 145 94 
190 105 146 64 
191 85 89 86 
192 101 146 105 
193 66 72 71 
194 89 123 90 
195 16 152 3 
196 37 64 38 
197 110 160 78 
198 85 86 84 
199 4 153 29 
200 30 153 4 
201 3 152 36 
202 39 101 6 
203 108 160 109 
204 72 76 75 
205 6 65 40 
206 40 126 41 
207 123 125 73 
208 74 95 93 
209 41 67 42 
210 90 124 86 
211 89 90 86 
212 114 123 89 
213 48 128 5 
214 118 157 81 
215 74 81 70 
216 117 155 91 
217 84 88 76 
218 78 148 23 
219 67 126 118 
220 47 69 48 
221 116 150 17 
222 110 135 130 
223 95 116 93 
224 64 158 120 
225 93 102 81 
226 7 77 43 
227 72 75 71 
228 6 66 65 
229 46 140 47 
230 114 125 123 
231 108 148 78 
232 121 125 114 
233 75 147 127 
234 7 97 79 
235 43 131 44 
236 102 139 81 
237 74 93 81 
238 66 71 70 
239 74 133 95 
240 82 156 132 
241 71 74 70 
242 44 92 45 
243 87 98 77 
244 65 126 40 
245 129 130 128 
246 66 70 65 
247 15 148 108 
248 127 147 99 
249 25 136 24 
250 1 154 22 
251 9 154 1 
252 41 126 67 
253 118 139 103 
254 103 155 97 
255 22 143 21 
256 8 82 46 
257 76 147 75 
258 7 79 77 
259 124 134 86 
260 138 149 95 
261 132 140 82 
262 38 146 39 
263 64 146 38 
264 122 153 30 
265 36 152 80 
266 81 157 70 
267 39 146 101 
268 86 134 84 
269 29 153 94 
270 110 136 135 
271 96 104 87 
272 17 150 16 
273 94 153 122 
274 75 133 71 
275 84 134 88 
276 69 128 48 
277 71 133 74 
278 37 158 64 
279 79 96 87 
280 128 142 5 
281 107 138 127 
282 47 140 69 
283 69 129 128 
284 19 161 18 
285 98 131 77 
286 116 151 93 
287 90 145 124 
288 79 87 77 
289 8 112 111 
290 96 143 104 
291 133 138 95 
292 77 131 43 
293 125 159 115 
294 88 147 76 
295 130 142 128 
296 95 149 116 
297 44 131 92 
298 82 140 46 
299 97 155 144 
300 93 151 102 
301 87 141 98 
302 132 156 100 
303 104 141 87 
304 5 158 37 
305 97 144 79 
306 79 144 96 
307 8 111 82 
308 143 154 104 
309 149 150 116 
310 65 157 126 
311 121 159 125 
312 70 157 65 
313 126 157 118 
314 150 152 16 
315 22 154 143 
316 115 159 135 
317 151 161 102 
318 111 156 82 
319 144 155 117 
320 18 161 151 
$EndElements
