$MeshFormat
4.1 0 8
$EndMeshFormat
$PhysicalNames
3
1 101 "outer_boundary"
2 1 "material_1"
2 2 "material_2"
$EndPhysicalNames
$Entities
8 8 2 0
1 0 0 0 0 
2 1 0 0 0 
3 0 1 0 0 
4 1 1 0 0 
5 0.9238680512851433 0.8668499613787597 0 0 
6 0.6700231600637098 0.9391154325517044 0 0 
7 0.5977576888907651 0.6852705413302709 0 0 
8 0.8516025801121986 0.6130050701573262 0 0 
1 -9.999999994736442e-08 -1e-07 -1e-07 1.0000001 1e-07 1e-07 1 101 2 1 -2 
2 -1e-07 -9.999999994736442e-08 -1e-07 1e-07 1.0000001 1e-07 1 101 2 3 -1 
3 0.9999999000000001 -9.999999994736442e-08 -1e-07 1.0000001 1.0000001 1e-07 1 101 2 2 -4 
4 -9.999999994736442e-08 0.9999999000000001 -1e-07 1.0000001 1.0000001 1e-07 1 101 2 4 -3 
5 0.6700230600637098 0.8668498613787597 -1e-07 0.9238681512851432 0.9391155325517043 1e-07 0 2 5 -6 
6 0.5977575888907651 0.6852704413302709 -1e-07 0.6700232600637097 0.9391155325517043 1e-07 0 2 6 -7 
7 0.5977575888907651 0.6130049701573262 -1e-07 0.8516026801121985 0.6852706413302708 1e-07 0 2 7 -8 
8 0.8516024801121986 0.6130049701573262 -1e-07 0.9238681512851432 0.8668500613787596 1e-07 0 2 8 -5 
2 0.5977575888907651 0.6130049701573262 -1e-07 0.9238681512851432 0.9391155325517043 1e-07 1 2 4 5 6 7 8 
3 -9.999999994736442e-08 -9.999999994736442e-08 -1e-07 1.0000001 1.0000001 1e-07 1 1 8 1 3 4 2 -5 -8 -7 -6 
$EndEntities
$Nodes
18 225 1 225
0 1 0 1
1
0 0 0
0 2 0 1
2
1 0 0
0 3 0 1
3
0 1 0
0 4 0 1
4
1 1 0
0 5 0 1
5
0.9238680512851433 0.8668499613787597 0
0 6 0 1
6
0.6700231600637098 0.9391154325517044 0
0 7 0 1
7
0.5977576888907651 0.6852705413302709 0
0 8 0 1
8
0.8516025801121986 0.6130050701573262 0
1 1 0 9
9
10
11
12
13
14
15
16
17
0.09999999999999996 0 0
0.1999999999999999 0 0
0.3000000000000001 0 0
0.4000000000000004 0 0
0.5000000000000003 0 0
0.5999999999999999 0 0
0.6999999999999995 0 0
0.7999999999999992 0 0
0.899999999999999 0 0
1 2 0 9
18
19
20
21
22
23
24
25
26
0 0.9 0
0 0.8 0
0 0.7 0
0 0.5999999999999996 0
0 0.4999999999999997 0
0 0.4000000000000001 0
0 0.3000000000000005 0
0 0.2000000000000008 0
0 0.100000000000001 0
1 3 0 9
27
28
29
30
31
32
33
34
35
1 0.09999999999999996 0
1 0.1999999999999999 0
1 0.3000000000000001 0
1 0.4000000000000004 0
1 0.5000000000000003 0
1 0.5999999999999999 0
1 0.6999999999999995 0
1 0.7999999999999992 0
1 0.899999999999999 0
1 4 0 9
36
37
38
39
40
41
42
43
44
0.9 1 0
0.8 1 0
0.7 1 0
0.5999999999999996 1 0
0.4999999999999997 1 0
0.4000000000000001 1 0
0.3000000000000005 1 0
0.2000000000000008 1 0
0.100000000000001 1 0
1 5 0 4
45
46
47
48
0.8730990730408565 0.8813030556133487 0
0.8223300947965697 0.8957561498479376 0
0.7715611165522831 0.9102092440825265 0
0.7207921383079966 0.9246623383171154 0
1 6 0 4
49
50
51
52
0.6555700658291208 0.8883464543074177 0
0.6411169715945318 0.8375774760631308 0
0.626663877359943 0.7868084978188443 0
0.612210783125354 0.7360395195745577 0
1 7 0 4
53
54
55
56
0.6485266671350518 0.6708174470956819 0
0.6992956453793386 0.656364352861093 0
0.7500646236236252 0.6419112586265041 0
0.8008336018679117 0.6274581643919152 0
1 8 0 4
57
58
59
60
0.8660556743467875 0.6637740484016129 0
0.8805087685813765 0.7145430266458997 0
0.8949618628159653 0.7653120048901862 0
0.9094149570505543 0.8160809831344729 0
2 2 0 24
61
62
63
64
65
66
67
68
69
70
71
72
73
74
75
76
77
78
79
80
81
82
83
84
0.6683627630960089 0.8045888852332285 0
0.8438895286901074 0.7519611270572413 0
0.7336331598782634 0.6915130157910301 0
0.7830766152340771 0.8620090991322091 0
0.8303610889925309 0.7015827956313653 0
0.7966488817782197 0.7373627614509257 0
0.8126125274386572 0.7888132636944536 0
0.7558336410474762 0.7774777560793763 0
0.6949885010135564 0.8455021753657883 0
0.8316224194845766 0.8422894566483112 0
0.6861804675047112 0.7065794840972441 0
0.6648867472777862 0.7528458292140073 0
0.8614372459892545 0.800786954097758 0
0.7848962051854054 0.6836378598918724 0
0.7360028516183985 0.8759469262848468 0
0.7195491471708071 0.7416015544336375 0
0.7456838946059139 0.8297407079591324 0
0.7162274575860379 0.7951754237522383 0
0.6455035597202419 0.7118556135471479 0
0.8250175078953215 0.6607509409868031 0
0.6966082322805868 0.8913695617222275 0
0.8761221804556665 0.8402648891618827 0
0.7577145722619654 0.7248860823645633 0
0.7851554636673354 0.8212011318369695 0
2 3 0 141
85
86
87
88
89
90
91
92
93
94
95
96
97
98
99
100
101
102
103
104
105
106
107
108
109
110
111
112
113
114
115
116
117
118
119
120
121
122
123
124
125
126
127
128
129
130
131
132
133
134
135
136
137
138
139
140
141
142
143
144
145
146
147
148
149
150
151
152
153
154
155
156
157
158
159
160
161
162
163
164
165
166
167
168
169
170
171
172
173
174
175
176
177
178
179
180
181
182
183
184
185
186
187
188
189
190
191
192
193
194
195
196
197
198
199
200
201
202
203
204
205
206
207
208
209
210
211
212
213
214
215
216
217
218
219
220
221
222
223
224
225
0.6109100091943428 0.632675728359068 0
0.7668528603011801 0.5886420816184145 0
0.5576046191452035 0.6475167841191861 0
0.5711400941816135 0.5922053830313202 0
0.5138509206763056 0.6080061627951787 0
0.5284230427985765 0.5478821424737306 0
0.4661051857632165 0.5652199193816401 0
0.4819161836346837 0.4999334449083587 0
0.5484781849116052 0.4830228436435954 0
0.4998321898811693 0.4312480097283951 0
0.5714897936022567 0.4136400566515346 0
0.4518583607786432 0.6301427603895667 0
0.4289960215024 0.4505697297445946 0
0.5706556058922629 0.7699136600863641 0
0.07779905248932439 0.7489479909133587 0
0.4469293658062526 0.3765143049167875 0
0.9196990398314782 0.2506115881513411 0
0.3718048031747125 0.3983291872907309 0
0.3528016423099852 0.4750861438693921 0
0.6552684304578549 0.07987020698967739 0
0.2511503220235245 0.07537034450017976 0
0.3489174875100668 0.9061227218128938 0
0.2928131968762175 0.4208847399239396 0
0.2728067642489362 0.5031318333322785 0
0.456489300702521 0.07897157896898777 0
0.3901744184234328 0.3194396238577206 0
0.4693200281023887 0.298020852261709 0
0.9133974596215564 0.4500000000000003 0
0.620629252590431 0.4675813133522477 0
0.6445609546239358 0.3966527324515652 0
0.08660254037844356 0.2500000000000007 0
0.6969118313344772 0.4519683349353489 0
0.719181827138003 0.3790944105166532 0
0.6667700074043508 0.3202798702982932 0
0.5973059033888284 0.8768547008519555 0
0.2148507881418003 0.4462520068522231 0
0.19695114392418 0.5316737458346827 0
0.2572199403245118 0.5888137973922372 0
0.2307355153410622 0.3613027067182341 0
0.7452877261223858 0.3013476642378057 0
0.6276144392509717 0.5787723126789794 0
0.1490252442455631 0.9078713760921712 0
0.8491485262174361 0.09223340173050876 0
0.4108554374457846 0.2388685510330849 0
0.3280564814244572 0.2602014008963187 0
0.4922010307044737 0.2196138031933547 0
0.4003625940690234 0.5844239386357407 0
0.3946591769031915 0.658725087500208 0
0.4414037965391475 0.6958541194417416 0
0.3701535783164094 0.7304262007772213 0
0.4402742288382823 0.7694500181454318 0
0.1749197648818562 0.6167040795445086 0
0.2346610777327945 0.6797340053069706 0
0.7776464218482497 0.4461618110895211 0
0.6901480583532611 0.2353427442820525 0
0.7701254286566216 0.2230646495906183 0
0.5503340489986304 0.7102598911105752 0
0.1553876718789713 0.3965465788418739 0
0.3488145987512773 0.1748381237480157 0
0.5460612615745801 0.279734541142713 0
0.5636990931329336 0.1920704720168315 0
0.9263532053444697 0.5534289737882556 0
0.8974265525798666 0.617563335782539 0
0.2614259005271915 0.1989596249375777 0
0.8548237729476689 0.4890868542046533 0
0.5140154318948609 0.7672753571190443 0
0.4909122096597132 0.8428069730536876 0
0.7350327748433496 0.5004292585126399 0
0.1004500368611584 0.5480886152072763 0
0.3542452387309334 0.8088844942238234 0
0.6668595126560577 0.523444938372687 0
0.9180586380367644 0.3493992931086979 0
0.448477151565664 0.9199222738813824 0
0.2895404350458016 0.7549228880849383 0
0.2740117844739804 0.8398277907189173 0
0.2122284503421169 0.7751806100309073 0
0.5589937124774852 0.09252361577855428 0
0.08616644905150944 0.6512375819173803 0
0.7505894679695583 0.08626221088754016 0
0.535478084624824 0.9194753546279222 0
0.1556740912658131 0.09293709285877438 0
0.08121637051526853 0.4427044847784386 0
0.8367484232786568 0.2999201575260741 0
0.9175484795485569 0.9207089053235675 0
0.6613944094867508 0.6196236750946557 0
0.1607802493984464 0.3037278349290709 0
0.8480777151408994 0.3989073473452794 0
0.07271765879290892 0.8471139047645107 0
0.08051427125080179 0.152817663460339 0
0.1668784302088075 0.2000383222515099 0
0.3534427582672331 0.08743179974995197 0
0.9244132864653164 0.1527662131512604 0
0.5200915702746136 0.3589196872681514 0
0.8166997462691737 0.5831058772382622 0
0.7124144478115264 0.6053649632124855 0
0.58839109923467 0.8246327564108197 0
0.15367522829388 0.7118122350085913 0
0.3101581300156265 0.3400057069238269 0
0.5938574210648759 0.5321514889254267 0
0.5953120208873324 0.338926222784904 0
0.6137194271474071 0.92518390324843 0
0.4097702126654896 0.5221792601187886 0
0.328439648713629 0.5578423841730055 0
0.922276469621538 0.6768166787720669 0
0.2453130409831397 0.9185687887003944 0
0.711524688089283 0.1541684454798445 0
0.9287805471671744 0.7269702915100075 0
0.5053197864187502 0.6632708029798136 0
0.2430057844859319 0.2773725994427564 0
0.8537399999718089 0.9407863387723029 0
0.8012649171042492 0.9416309497572639 0
0.9461556348169922 0.7781797472418852 0
0.3205870829780723 0.6489266575291877 0
0.7587236343929058 0.9553005064313812 0
0.08066447202852162 0.3488298164248975 0
0.4175536942397417 0.8497745990418861 0
0.4278489406182249 0.1573132326417777 0
0.861403166166517 0.5622958569587565 0
0.7877915751125006 0.3588759681427294 0
0.8505038899145503 0.1988896816286779 0
0.5493219986756122 0.8577470511190726 0
0.725817199904685 0.553584522913137 0
0.6788200018219983 0.5761580824543889 0
0.615699847760581 0.2531585606403178 0
0.5426592690714238 0.8124751595577977 0
0.7894717887626304 0.14965460230772 0
0.2033710190620955 0.8481035415761624 0
0.07393056565174683 0.07393056565174705 0
0.4998464155271277 0.1480985405199012 0
0.07320508075688797 0.9267949192431122 0
0.926794919243112 0.07320508075688781 0
0.9558877286305381 0.8322221383510231 0
0.7988765613754427 0.5255028312336791 0
0.4953473743899648 0.7140536497426093 0
0.2196034670530201 0.1441155001476955 0
0.6322989703795872 0.1565693377862835 0
0.1406266774452546 0.8028629182189636 0
0.9590014440660687 0.9526414420055567 0
0.1517187965619192 0.4749808296882673 0
0.9492112455091748 0.6295617976685721 0
0.2919261222909685 0.1390984657319631 0
$EndNodes
$Elements
6 448 1 448
1 1 1 10
1 1 9 
2 9 10 
3 10 11 
4 11 12 
5 12 13 
6 13 14 
7 14 15 
8 15 16 
9 16 17 
10 17 2 
1 2 1 10
11 3 18 
12 18 19 
13 19 20 
14 20 21 
15 21 22 
16 22 23 
17 23 24 
18 24 25 
19 25 26 
20 26 1 
1 3 1 10
21 2 27 
22 27 28 
23 28 29 
24 29 30 
25 30 31 
26 31 32 
27 32 33 
28 33 34 
29 34 35 
30 35 4 
1 4 1 10
31 4 36 
32 36 37 
33 37 38 
34 38 39 
35 39 40 
36 40 41 
37 41 42 
38 42 43 
39 43 44 
40 44 3 
2 2 2 66
41 76 78 72 
42 72 78 61 
43 66 74 65 
44 69 78 77 
45 67 73 70 
46 71 76 72 
47 69 77 75 
48 66 83 74 
49 70 84 67 
50 61 78 69 
51 62 67 66 
52 50 69 49 
53 58 65 57 
54 59 62 58 
55 51 61 50 
56 46 70 45 
57 54 71 53 
58 62 65 58 
59 61 69 50 
60 63 71 54 
61 62 66 65 
62 47 64 46 
63 64 70 46 
64 55 63 54 
65 67 68 66 
66 52 72 51 
67 60 73 59 
68 62 73 67 
69 56 74 55 
70 48 75 47 
71 55 74 63 
72 47 75 64 
73 59 73 62 
74 51 72 61 
75 63 76 71 
76 45 82 5 
77 49 81 6 
78 53 79 7 
79 57 80 8 
80 6 81 48 
81 8 80 56 
82 5 82 60 
83 7 79 52 
84 68 78 76 
85 64 84 70 
86 75 77 64 
87 67 84 68 
88 68 83 66 
89 74 83 63 
90 68 84 77 
91 76 83 68 
92 56 80 74 
93 48 81 75 
94 52 79 72 
95 60 82 73 
96 65 80 57 
97 71 79 53 
98 69 81 49 
99 70 82 45 
100 75 81 69 
101 72 79 71 
102 73 82 70 
103 74 80 65 
104 77 78 68 
105 63 83 76 
106 77 84 64 
2 3 2 342
107 98 141 52 
108 125 183 155 
109 158 197 134 
110 155 183 113 
111 6 48 38 
112 132 197 131 
113 23 199 166 
114 131 197 187 
115 135 218 150 
116 166 199 142 
117 138 171 149 
118 52 141 7 
119 146 224 147 
120 35 168 5 
121 151 205 164 
122 22 153 21 
123 151 164 157 
124 133 218 135 
125 164 185 39 
126 149 217 138 
127 38 198 37 
128 137 197 158 
129 158 160 137 
130 98 150 141 
131 39 185 6 
132 175 201 143 
133 134 197 132 
134 208 220 139 
135 22 166 153 
136 146 149 112 
137 138 217 152 
138 160 181 137 
139 31 146 112 
140 37 195 194 
141 186 187 103 
142 206 217 86 
143 149 171 112 
144 119 185 164 
145 109 201 175 
146 106 159 154 
147 161 220 145 
148 112 156 30 
149 145 220 208 
150 5 216 35 
151 131 187 186 
152 153 162 21 
153 40 164 39 
154 48 198 38 
155 150 151 135 
156 32 146 31 
157 174 193 170 
158 148 193 174 
159 165 174 173 
160 152 155 116 
161 145 213 161 
162 154 200 106 
163 35 216 34 
164 140 167 124 
165 106 189 159 
166 116 155 113 
167 32 224 146 
168 20 162 99 
169 31 112 30 
170 112 171 156 
171 147 202 146 
172 140 204 167 
173 138 152 116 
174 126 221 211 
175 104 161 14 
176 23 166 22 
177 8 202 147 
178 156 171 167 
179 29 156 101 
180 165 219 174 
181 106 157 41 
182 37 194 36 
183 152 217 206 
184 15 163 104 
185 176 204 127 
186 204 210 127 
187 164 205 119 
188 172 221 126 
189 21 162 20 
190 30 156 29 
191 41 157 40 
192 113 183 93 
193 33 196 191 
194 42 106 41 
195 157 164 40 
196 13 161 109 
197 4 222 35 
198 104 220 161 
199 20 99 19 
200 156 167 101 
201 155 207 125 
202 86 217 178 
203 15 104 14 
204 13 109 12 
205 29 101 28 
206 144 177 111 
207 96 192 133 
208 11 105 10 
209 127 163 16 
210 109 175 12 
211 105 165 10 
212 14 161 13 
213 34 196 33 
214 16 163 15 
215 11 175 105 
216 25 115 24 
217 44 126 43 
218 108 122 121 
219 17 127 16 
220 95 113 93 
221 42 189 106 
222 10 165 9 
223 130 144 111 
224 122 137 136 
225 114 116 113 
226 146 202 149 
227 157 200 151 
228 162 181 99 
229 96 133 132 
230 106 200 157 
231 99 172 19 
232 26 173 25 
233 35 222 168 
234 171 203 167 
235 122 136 121 
236 139 190 140 
237 19 172 18 
238 28 176 27 
239 101 176 28 
240 126 189 43 
241 103 187 108 
242 130 145 144 
243 115 174 170 
244 133 135 134 
245 25 173 115 
246 117 138 116 
247 178 217 202 
248 95 114 113 
249 139 220 190 
250 7 85 53 
251 110 111 100 
252 167 204 101 
253 128 130 111 
254 129 148 143 
255 120 123 107 
256 190 210 140 
257 97 103 102 
258 142 170 123 
259 103 108 107 
260 144 184 177 
261 108 121 120 
262 12 175 11 
263 159 160 158 
264 136 162 153 
265 53 169 54 
266 129 143 128 
267 24 199 23 
268 173 174 115 
269 120 142 123 
270 110 129 128 
271 187 197 122 
272 108 120 107 
273 136 153 121 
274 114 117 116 
275 92 97 94 
276 139 140 124 
277 110 128 111 
278 160 221 181 
279 103 107 102 
280 118 139 124 
281 54 179 55 
282 88 125 85 
283 94 95 93 
284 97 186 103 
285 137 181 136 
286 97 102 100 
287 118 124 117 
288 111 177 100 
289 114 118 117 
290 123 193 182 
291 1 212 26 
292 9 212 1 
293 92 93 90 
294 154 159 158 
295 133 134 132 
296 7 87 85 
297 142 199 170 
298 97 100 94 
299 102 110 100 
300 136 181 162 
301 108 187 122 
302 163 190 104 
303 55 86 56 
304 182 193 129 
305 92 94 93 
306 91 92 90 
307 152 206 155 
308 154 158 134 
309 3 214 44 
310 18 214 3 
311 123 182 107 
312 2 215 17 
313 27 215 2 
314 85 169 53 
315 89 96 91 
316 94 177 95 
317 51 98 52 
318 89 91 90 
319 135 154 134 
320 87 88 85 
321 89 90 88 
322 100 177 94 
323 87 89 88 
324 7 141 87 
325 170 199 115 
326 110 182 129 
327 192 218 133 
328 96 132 131 
329 56 178 8 
330 107 182 102 
331 169 179 54 
332 125 169 85 
333 50 180 51 
334 43 189 42 
335 181 221 99 
336 102 182 110 
337 96 131 91 
338 177 184 95 
339 95 184 114 
340 122 197 137 
341 138 203 171 
342 150 209 151 
343 114 184 118 
344 33 191 188 
345 143 201 128 
346 92 186 97 
347 93 183 90 
348 170 193 123 
349 49 119 50 
350 88 183 125 
351 166 223 153 
352 55 179 86 
353 167 203 124 
354 202 217 149 
355 129 193 148 
356 142 223 166 
357 115 199 24 
358 91 186 92 
359 130 213 145 
360 126 211 189 
361 90 183 88 
362 117 203 138 
363 145 208 144 
364 33 224 32 
365 98 209 150 
366 36 194 168 
367 153 223 121 
368 163 210 190 
369 8 147 57 
370 120 223 142 
371 131 186 91 
372 161 213 109 
373 175 225 105 
374 89 192 96 
375 86 178 56 
376 36 222 4 
377 135 200 154 
378 184 208 118 
379 105 219 165 
380 144 208 184 
381 57 188 58 
382 151 200 135 
383 127 210 163 
384 128 201 130 
385 6 185 49 
386 51 180 98 
387 87 192 89 
388 5 168 45 
389 45 194 46 
390 58 191 59 
391 168 222 36 
392 172 214 18 
393 176 215 27 
394 101 204 176 
395 188 224 33 
396 59 196 60 
397 26 212 173 
398 141 192 87 
399 46 195 47 
400 124 203 117 
401 143 225 175 
402 165 212 9 
403 47 198 48 
404 44 214 126 
405 17 215 127 
406 189 211 159 
407 118 208 139 
408 119 180 50 
409 178 202 8 
410 173 212 165 
411 126 214 172 
412 60 216 5 
413 127 215 176 
414 150 218 141 
415 159 211 160 
416 174 219 148 
417 99 221 172 
418 179 206 86 
419 119 205 180 
420 169 207 179 
421 206 207 155 
422 49 185 119 
423 148 225 143 
424 121 223 120 
425 147 188 57 
426 151 209 205 
427 125 207 169 
428 179 207 206 
429 180 209 98 
430 211 221 160 
431 109 213 201 
432 140 210 204 
433 188 191 58 
434 201 213 130 
435 168 194 45 
436 191 196 59 
437 205 209 180 
438 194 195 46 
439 190 220 104 
440 195 198 47 
441 196 216 60 
442 141 218 192 
443 219 225 148 
444 105 225 219 
445 147 224 188 
446 34 216 196 
447 37 198 195 
448 39 6 38 
$EndElements
