$MeshFormat
4.1 0 8
$EndMeshFormat
$PhysicalNames
3
1 101 "outer_boundary"
2 1 "material_1"
2 2 "material_2"
$EndPhysicalNames
$Entities
7 7 2 0
1 0 0 0 0 
2 1 0 0 0 
3 0 1 0 0 
4 1 1 0 0 
5 0.4894869270547941 0.2813624866958991 0 0 
6 0.7105191261243292 0.3880160066277172 0 0 
7 0.5076383689255771 0.5261087461103647 0 0 
1 -9.999999994736442e-08 -1e-07 -1e-07 1.0000001 1e-07 1e-07 1 101 2 1 -2 
2 -1e-07 -9.999999994736442e-08 -1e-07 1e-07 1.0000001 1e-07 1 101 2 3 -1 
3 0.9999999000000001 -9.999999994736442e-08 -1e-07 1.0000001 1.0000001 1e-07 1 101 2 2 -4 
4 -9.999999994736442e-08 0.9999999000000001 -1e-07 1.0000001 1.0000001 1e-07 1 101 2 4 -3 
5 0.4894868270547941 0.2813623866958991 -1e-07 0.7105192261243292 0.3880161066277172 1e-07 0 2 5 -6 
6 0.5076382689255772 0.3880159066277172 -1e-07 0.7105192261243292 0.5261088461103647 1e-07 0 2 6 -7 
7 0.4894868270547941 0.2813623866958991 -1e-07 0.5076384689255771 0.5261088461103647 1e-07 0 2 7 -5 
2 0.4894868270547941 0.2813623866958991 -1e-07 0.7105192261243292 0.5261088461103647 1e-07 1 2 3 5 6 7 
3 -9.999999994736442e-08 -9.999999994736442e-08 -1e-07 1.0000001 1.0000001 1e-07 1 1 7 1 3 4 2 -5 -7 -6 
$EndEntities
$Nodes
16 151 1 151
0 1 0 1
1
0 0 0
0 2 0 1
2
1 0 0
0 3 0 1
3
0 1 0
0 4 0 1
4
1 1 0
0 5 0 1
5
0.4894869270547941 0.2813624866958991 0
0 6 0 1
6
0.7105191261243292 0.3880160066277172 0
0 7 0 1
7
0.5076383689255771 0.5261087461103647 0
1 1 0 7
8
9
10
11
12
13
14
0.1249999999999999 0 0
0.2499999999999998 0 0
0.3749999999999993 0 0
0.4999999999999988 0 0
0.6249999999999988 0 0
0.7499999999999991 0 0
0.8749999999999997 0 0
1 2 0 7
15
16
17
18
19
20
21
0 0.8750000000000001 0
0 0.7500000000000002 0
0 0.6250000000000007 0
0 0.5000000000000012 0
0 0.3750000000000012 0
0 0.2500000000000009 0
0 0.1250000000000003 0
1 3 0 7
22
23
24
25
26
27
28
1 0.1249999999999999 0
1 0.2499999999999998 0
1 0.3749999999999993 0
1 0.4999999999999988 0
1 0.6249999999999988 0
1 0.7499999999999991 0
1 0.8749999999999997 0
1 4 0 7
29
30
31
32
33
34
35
0.8750000000000001 1 0
0.7500000000000002 1 0
0.6250000000000007 1 0
0.5000000000000012 1 0
0.3750000000000012 1 0
0.2500000000000009 1 0
0.1250000000000003 1 0
1 5 0 3
36
37
38
0.5447449768221778 0.3080258666788536 0
0.6000030265895614 0.334689246661808 0
0.6552610763569452 0.3613526266447626 0
1 6 0 3
39
40
41
0.6597989368246412 0.4225391914983791 0
0.6090787475249534 0.4570623763690408 0
0.5583585582252654 0.4915855612397027 0
1 7 0 3
42
43
44
0.5031005084578813 0.4649221812567484 0
0.4985626479901856 0.4037356164031322 0
0.4940247875224899 0.3425490515495158 0
2 2 0 3
45
46
47
0.5538206977575696 0.4303989963860864 0
0.6045408870572574 0.3958758115154244 0
0.5492828372898736 0.3692124315324701 0
2 3 0 104
48
49
50
51
52
53
54
55
56
57
58
59
60
61
62
63
64
65
66
67
68
69
70
71
72
73
74
75
76
77
78
79
80
81
82
83
84
85
86
87
88
89
90
91
92
93
94
95
96
97
98
99
100
101
102
103
104
105
106
107
108
109
110
111
112
113
114
115
116
117
118
119
120
121
122
123
124
125
126
127
128
129
130
131
132
133
134
135
136
137
138
139
140
141
142
143
144
145
146
147
148
149
150
151
0.5622816075328672 0.5645561468810772 0
0.4487020701569407 0.4988686871117319 0
0.4544138234818596 0.5659269477769905 0
0.4357353596825654 0.3177441688925511 0
0.3884569649356892 0.5345648063297195 0
0.3947650738430855 0.6107832125467872 0
0.6636223668972876 0.4826761415782104 0
0.7056579659410294 0.3224008625256881 0
0.6071863978789623 0.269628273854226 0
0.6865318493228262 0.8822264954879888 0
0.4681422012685622 0.6401581849004065 0
0.09895317319759678 0.306016586704609 0
0.3220946096489943 0.5761685904816251 0
0.329573674129754 0.6558655817770537 0
0.3190106027936617 0.4959045619060548 0
0.4312036110948928 0.2511557839468582 0
0.3671714716127688 0.2920361155727454 0
0.8926829168536701 0.6793595275175086 0
0.7687410684842292 0.3516306293138097 0
0.7656665193789071 0.4386790073404896 0
0.7634174352324172 0.2736884712834206 0
0.4419384446231911 0.8942243810008663 0
0.2438514802805495 0.5378771458724674 0
0.4885246862932514 0.2130334434745554 0
0.3500220407211901 0.2100712675532893 0
0.1930053153843238 0.8804050021694632 0
0.1038241003914987 0.6771131619593598 0
0.2769439860744251 0.2708421187934366 0
0.2470008746796682 0.4405929117752508 0
0.6834878873641332 0.1068665402526123 0
0.1874999999999998 0.1082531754730546 0
0.3784506142545219 0.3604931245338967 0
0.8361131747103795 0.3085437850269686 0
0.8297579680754563 0.2209560288225735 0
0.1705608984809133 0.4930154263106834 0
0.6846202522529174 0.2457460867030627 0
0.9109743775818 0.4382588075166785 0
0.4444212344629619 0.08933799955055399 0
0.3273896179476234 0.1091599685250442 0
0.5528454417262514 0.1025318975111039 0
0.8172126680507645 0.1032034722177064 0
0.8879948900460288 0.5498788003597567 0
0.7949790801751568 0.6203573915088684 0
0.7886911892643429 0.7254061136938419 0
0.7061044011681099 0.6672092671261259 0
0.717477917603742 0.5791777939999865 0
0.7855256078621171 0.5271019571636787 0
0.8767229193553583 0.7991617463224083 0
0.6336834008866643 0.6029081235033573 0
0.6149909243107926 0.7008532721365091 0
0.5588867834367776 0.8954417675927093 0
0.4986587755099427 0.819478350130399 0
0.3902047250879906 0.79278532977677 0
0.3217247222841009 0.8918719266994235 0
0.2826447619818937 0.7920141948698001 0
0.6156417974570295 0.1841231197758968 0
0.09777542265534805 0.190848911779559 0
0.6945128485492253 0.7652876773660471 0
0.8105111620799705 0.8982143252007552 0
0.5962412516262605 0.798552981646281 0
0.0958183179298 0.8067218993048269 0
0.1691463550333374 0.5922732606876402 0
0.5489192795532427 0.6349633440298721 0
0.4478424586904977 0.4382588012737939 0
0.1868777669910106 0.2332614325550311 0
0.2024595446819195 0.3521458027963323 0
0.2948048780183956 0.3505285365444671 0
0.443304598222802 0.3770722364201776 0
0.6136166079926491 0.5182489412226572 0
0.7038452526434807 0.4484670858588334 0
0.6505457438038832 0.3067634192779095 0
0.5424838716998319 0.2448195559934523 0
0.2520402608037063 0.622545052689408 0
0.5093831937491529 0.586634213442663 0
0.09924139418892242 0.4196739960197157 0
0.7477250694175678 0.1811399023505799 0
0.915226868078171 0.1718872236902193 0
0.4049673761730498 0.6911711030674496 0
0.3379578784188002 0.4207503098854489 0
0.2657466823468498 0.1863175925799712 0
0.5025048057845899 0.7169301201201189 0
0.3892248480180593 0.4664286411051192 0
0.1869908630795404 0.753367438523047 0
0.5428497397408369 0.1781996590887519 0
0.8990501229695658 0.2607932229654121 0
0.9135065187260606 0.3465064535623374 0
0.08668732374091198 0.5486465819125876 0
0.423345000292275 0.1741328735205618 0
0.2627462001019784 0.7043863023759295 0
0.8370695974763342 0.3912853917139807 0
0.9062308748022027 0.8984909014604319 0
0.08205508453106958 0.08482041745052277 0
0.7185858706546123 0.5075175372477584 0
0.7713939937143446 0.8140592716142083 0
0.09150635094610998 0.9084936490538902 0
0.1906201706410614 0.6696306296995111 0
0.3340273474949333 0.7272445023734005 0
0.8345804063283494 0.4676273284488265 0
0.4903972205031153 0.1514471746291055 0
0.669397232806991 0.538105707510394 0
0.1798156780078558 0.4263570342254955 0
0.3993560795209362 0.4126006226436872 0
0.9287983909204059 0.07175045981114359 0
0.6830949179876737 0.1847408762057218 0
$EndNodes
$Elements
6 300 1 300
1 1 1 8
1 1 8 
2 8 9 
3 9 10 
4 10 11 
5 11 12 
6 12 13 
7 13 14 
8 14 2 
1 2 1 8
9 3 15 
10 15 16 
11 16 17 
12 17 18 
13 18 19 
14 19 20 
15 20 21 
16 21 1 
1 3 1 8
17 2 22 
18 22 23 
19 23 24 
20 24 25 
21 25 26 
22 26 27 
23 27 28 
24 28 4 
1 4 1 8
25 4 29 
26 29 30 
27 30 31 
28 31 32 
29 32 33 
30 33 34 
31 34 35 
32 35 3 
2 2 2 16
33 41 7 42 
34 44 5 36 
35 38 6 39 
36 43 47 45 
37 45 47 46 
38 46 47 37 
39 42 45 41 
40 43 45 42 
41 41 45 40 
42 44 47 43 
43 38 46 37 
44 37 47 36 
45 45 46 40 
46 40 46 39 
47 36 47 44 
48 39 46 38 
2 3 2 252
49 125 128 100 
50 107 128 97 
51 56 103 83 
52 86 135 72 
53 75 114 113 
54 67 140 117 
55 100 128 99 
56 48 116 96 
57 85 135 86 
58 56 119 103 
59 73 102 101 
60 73 130 102 
61 75 113 112 
62 96 110 48 
63 78 127 112 
64 83 118 56 
65 65 90 89 
66 77 103 87 
67 99 128 107 
68 77 87 12 
69 73 101 34 
70 78 112 104 
71 94 140 67 
72 9 86 78 
73 28 95 27 
74 116 147 96 
75 74 134 109 
76 97 128 110 
77 98 107 57 
78 57 107 105 
79 110 121 48 
80 17 134 74 
81 72 127 86 
82 31 98 57 
83 92 93 90 
84 65 89 26 
85 79 114 64 
86 90 94 89 
87 34 101 33 
88 86 127 78 
89 69 99 98 
90 91 92 90 
91 92 96 93 
92 119 131 103 
93 23 132 124 
94 11 87 85 
95 113 114 76 
96 108 130 73 
97 65 91 90 
98 25 89 84 
99 114 126 76 
100 25 84 24 
101 75 127 72 
102 85 86 10 
103 13 88 77 
104 69 98 32 
105 11 85 10 
106 69 100 99 
107 23 124 22 
108 27 95 65 
109 28 138 95 
110 13 77 12 
111 29 138 4 
112 20 59 19 
113 31 57 30 
114 64 114 75 
115 9 78 8 
116 33 69 32 
117 87 146 85 
118 93 94 90 
119 81 123 88 
120 20 104 59 
121 12 87 11 
122 17 74 16 
123 82 134 122 
124 113 122 59 
125 32 98 31 
126 83 123 68 
127 94 145 89 
128 33 101 69 
129 122 134 18 
130 57 106 30 
131 27 65 26 
132 4 138 28 
133 10 86 9 
134 14 88 13 
135 23 133 132 
136 26 89 25 
137 88 124 81 
138 113 148 122 
139 35 73 34 
140 89 145 84 
141 105 141 57 
142 103 151 83 
143 21 104 20 
144 91 105 92 
145 74 108 16 
146 101 102 100 
147 68 123 81 
148 67 145 94 
149 30 106 29 
150 24 133 23 
151 92 105 97 
152 8 139 1 
153 99 107 98 
154 16 108 15 
155 105 107 97 
156 112 127 75 
157 19 122 18 
158 92 97 96 
159 104 112 59 
160 1 139 21 
161 65 95 91 
162 58 128 125 
163 14 150 88 
164 69 101 100 
165 96 147 93 
166 97 110 96 
167 88 123 77 
168 88 150 124 
169 124 132 81 
170 79 126 114 
171 112 113 59 
172 49 129 111 
173 60 62 52 
174 7 49 42 
175 44 51 5 
176 59 122 19 
177 51 79 64 
178 43 115 44 
179 42 111 43 
180 41 48 7 
181 76 126 62 
182 70 76 62 
183 40 116 41 
184 3 142 35 
185 15 142 3 
186 39 54 40 
187 38 55 6 
188 70 109 82 
189 52 129 49 
190 57 141 106 
191 37 118 38 
192 36 56 37 
193 84 133 24 
194 50 58 53 
195 70 82 76 
196 60 70 62 
197 93 140 94 
198 5 119 36 
199 53 61 60 
200 7 50 49 
201 51 115 79 
202 55 83 68 
203 44 115 51 
204 49 111 42 
205 18 134 17 
206 6 117 39 
207 53 60 52 
208 111 115 43 
209 78 139 8 
210 58 121 110 
211 63 71 5 
212 110 128 58 
213 95 141 91 
214 106 138 29 
215 74 130 108 
216 41 116 48 
217 106 141 95 
218 50 52 49 
219 64 75 72 
220 50 53 52 
221 62 129 52 
222 70 120 109 
223 68 81 80 
224 54 116 40 
225 100 144 125 
226 102 144 100 
227 51 63 5 
228 51 64 63 
229 55 118 83 
230 61 120 60 
231 55 66 6 
232 21 139 104 
233 38 118 55 
234 66 67 6 
235 71 119 5 
236 60 120 70 
237 104 139 78 
238 64 72 63 
239 56 118 37 
240 68 80 66 
241 108 142 15 
242 50 121 58 
243 76 148 113 
244 53 125 61 
245 58 125 53 
246 48 121 7 
247 95 138 106 
248 126 149 129 
249 35 142 73 
250 36 119 56 
251 103 131 87 
252 39 117 54 
253 7 121 50 
254 55 68 66 
255 81 132 80 
256 126 129 62 
257 79 149 126 
258 73 142 108 
259 109 134 82 
260 67 117 6 
261 2 150 14 
262 22 150 2 
263 122 148 82 
264 83 151 123 
265 109 143 74 
266 91 141 105 
267 77 151 103 
268 84 137 133 
269 133 137 80 
270 132 133 80 
271 61 136 120 
272 71 131 119 
273 80 137 66 
274 130 136 102 
275 61 144 136 
276 129 149 111 
277 63 135 71 
278 72 135 63 
279 137 145 67 
280 136 144 102 
281 66 137 67 
282 117 140 54 
283 82 148 76 
284 84 145 137 
285 123 151 77 
286 120 143 109 
287 135 146 71 
288 54 147 116 
289 125 144 61 
290 74 143 130 
291 111 149 115 
292 85 146 135 
293 140 147 54 
294 71 146 131 
295 124 150 22 
296 136 143 120 
297 115 149 79 
298 131 146 87 
299 130 143 136 
300 93 147 140 
$EndElements
