$MeshFormat
4.1 0 8
$EndMeshFormat
$PhysicalNames
3
1 101 "outer_boundary"
2 1 "material_1"
2 2 "material_2"
$EndPhysicalNames
$Entities
8 8 2 0
1 0 0 0 0 
2 1 0 0 0 
3 0 1 0 0 
4 1 1 0 0 
5 0.5601091198446003 0.4087838618303565 0 0 
6 0.3374266520592938 0.6036025360554138 0 0 
7 0.1426079778342365 0.3809200682701073 0 0 
8 0.365290445619543 0.18610139404505 0 0 
1 -9.999999994736442e-08 -1e-07 -1e-07 1.0000001 1e-07 1e-07 1 101 2 1 -2 
2 -1e-07 -9.999999994736442e-08 -1e-07 1e-07 1.0000001 1e-07 1 101 2 3 -1 
3 0.9999999000000001 -9.999999994736442e-08 -1e-07 1.0000001 1.0000001 1e-07 1 101 2 2 -4 
4 -9.999999994736442e-08 0.9999999000000001 -1e-07 1.0000001 1.0000001 1e-07 1 101 2 4 -3 
5 0.3374265520592938 0.4087837618303565 -1e-07 0.5601092198446003 0.6036026360554138 1e-07 0 2 5 -6 
6 0.1426078778342365 0.3809199682701073 -1e-07 0.3374267520592938 0.6036026360554138 1e-07 0 2 6 -7 
7 0.1426078778342365 0.18610129404505 -1e-07 0.3652905456195431 0.3809201682701073 1e-07 0 2 7 -8 
8 0.365290345619543 0.18610129404505 -1e-07 0.5601092198446003 0.4087839618303565 1e-07 0 2 8 -5 
2 0.1426078778342365 0.18610129404505 -1e-07 0.5601092198446003 0.6036026360554138 1e-07 1 2 4 5 6 7 8 
3 -9.999999994736442e-08 -9.999999994736442e-08 -1e-07 1.0000001 1.0000001 1e-07 1 1 8 1 3 4 2 -5 -8 -7 -6 
$EndEntities
$Nodes
18 179 1 179
0 1 0 1
1
0 0 0
0 2 0 1
2
1 0 0
0 3 0 1
3
0 1 0
0 4 0 1
4
1 1 0
0 5 0 1
5
0.5601091198446003 0.4087838618303565 0
0 6 0 1
6
0.3374266520592938 0.6036025360554138 0
0 7 0 1
7
0.1426079778342365 0.3809200682701073 0
0 8 0 1
8
0.365290445619543 0.18610139404505 0
1 1 0 7
9
10
11
12
13
14
15
0.1249999999999999 0 0
0.2499999999999998 0 0
0.3749999999999993 0 0
0.4999999999999988 0 0
0.6249999999999988 0 0
0.7499999999999991 0 0
0.8749999999999997 0 0
1 2 0 7
16
17
18
19
20
21
22
0 0.8750000000000001 0
0 0.7500000000000002 0
0 0.6250000000000007 0
0 0.5000000000000012 0
0 0.3750000000000012 0
0 0.2500000000000009 0
0 0.1250000000000003 0
1 3 0 7
23
24
25
26
27
28
29
1 0.1249999999999999 0
1 0.2499999999999998 0
1 0.3749999999999993 0
1 0.4999999999999988 0
1 0.6249999999999988 0
1 0.7499999999999991 0
1 0.8749999999999997 0
1 4 0 7
30
31
32
33
34
35
36
0.8750000000000001 1 0
0.7500000000000002 1 0
0.6250000000000007 1 0
0.5000000000000012 1 0
0.3750000000000012 1 0
0.2500000000000009 1 0
0.1250000000000003 1 0
1 5 0 4
37
38
39
40
0.5155726262875391 0.4477475966753679 0
0.471036132730478 0.4867113315203793 0
0.4264996391734167 0.5256750663653906 0
0.3819631456163552 0.5646388012104022 0
1 6 0 4
41
42
43
44
0.2984629172142824 0.5590660424983526 0
0.2594991823692711 0.5145295489412914 0
0.2205354475242596 0.4699930553842301 0
0.1815717126792481 0.4254565618271687 0
1 7 0 4
45
46
47
48
0.1871444713912978 0.3419563334250959 0
0.2316809649483589 0.3029925985800846 0
0.2762174585054202 0.2640288637350731 0
0.3207539520624816 0.2250651288900616 0
1 8 0 4
49
50
51
52
0.4042541804645544 0.2306378876021113 0
0.4432179153095658 0.2751743811591724 0
0.4821816501545772 0.3197108747162337 0
0.5211453849995887 0.3642473682732951 0
2 2 0 25
53
54
55
56
57
58
59
60
61
62
63
64
65
66
67
68
69
70
71
72
73
74
75
76
77
0.2821049279534081 0.3210234238013828 0
0.4148441621422613 0.4681520694994494 0
0.2743765462386518 0.4584006853585862 0
0.4246818715879366 0.3275453541189784 0
0.371415767102666 0.5073116790661771 0
0.3614980094706851 0.45310617559299 0
0.4078706698829049 0.4144177678844548 0
0.347537133345645 0.3904839944951938 0
0.2383145407106981 0.3554748198408645 0
0.4583444704229241 0.375682747171554 0
0.3317871867276752 0.2907355194497063 0
0.4611084619461308 0.4329026386776699 0
0.3888871533342943 0.2859044746862632 0
0.3177173563578214 0.4965763332307446 0
0.2425416497716839 0.4092041471772406 0
0.2954031021011132 0.4046808000790342 0
0.3698434128323644 0.3353715327769943 0
0.3243961580823803 0.3503495534063392 0
0.3415061945748364 0.5424761264214906 0
0.4989827102106771 0.4047043193148139 0
0.3612109031040004 0.2472278036789732 0
0.2037343874681594 0.3849996107856499 0
0.3172628775343568 0.4411440747363242 0
0.4017709739162552 0.3672103005054851 0
0.2827635033948079 0.3655295535220652 0
2 3 0 102
78
79
80
81
82
83
84
85
86
87
88
89
90
91
92
93
94
95
96
97
98
99
100
101
102
103
104
105
106
107
108
109
110
111
112
113
114
115
116
117
118
119
120
121
122
123
124
125
126
127
128
129
130
131
132
133
134
135
136
137
138
139
140
141
142
143
144
145
146
147
148
149
150
151
152
153
154
155
156
157
158
159
160
161
162
163
164
165
166
167
168
169
170
171
172
173
174
175
176
177
178
179
0.5270479637111093 0.5057991989137706 0
0.3946775619840902 0.6225983333496028 0
0.57903320037193 0.3515559652338653 0
0.6192598262382143 0.4018123923187033 0
0.6753233896399172 0.8872075149533272 0
0.6435146549774593 0.3303668303799679 0
0.3445923889422322 0.6627350796042746 0
0.4153173823655975 0.6871305434911865 0
0.4949470919842003 0.2703087377897023 0
0.8768174283128346 0.5627892509384094 0
0.6952413636168572 0.3883365898220053 0
0.6577211254062209 0.4577140631533522 0
0.7283267860282585 0.3107219452715013 0
0.6635363425170469 0.2498888976592858 0
0.2365982609568017 0.5774498920206579 0
0.2188881228932255 0.2434350566064789 0
0.3520449695576085 0.7443138249542585 0
0.2736219101291983 0.7087213478491525 0
0.4312404690551933 0.7634302313496635 0
0.492461412479284 0.7072650153731515 0
0.747788176778826 0.2288630053634679 0
0.4295849694282119 0.1732183403356586 0
0.7902557646072872 0.3694863744778077 0
0.5169084485832893 0.8020512039489121 0
0.5846102102689292 0.7384144564654787 0
0.1893209081054281 0.8888580633401261 0
0.3160504988584205 0.1598434436588243 0
0.1534697162421503 0.4894633849883703 0
0.8809713286243475 0.8066419581717265 0
0.5538800652446991 0.6499152214900068 0
0.6369038153962969 0.6654810520255445 0
0.5708083778958153 0.1044395120072589 0
0.3644648209291899 0.8265677335225 0
0.1110439151141972 0.6794614702014575 0
0.613266599445771 0.5811034316227235 0
0.7037732556775618 0.6079640906917971 0
0.7264968288168234 0.6923444219547008 0
0.1393065309945905 0.3252211358552195 0
0.169974241321003 0.09822350266772201 0
0.675917690407104 0.1632447830219893 0
0.905602894950466 0.1941697956163939 0
0.7632055619658196 0.130252192216027 0
0.3757214164127231 0.1186457006015812 0
0.5632808416515765 0.8981898434190443 0
0.1017220616228378 0.5711841053082091 0
0.8429916230834594 0.2775501372968154 0
0.4594412933952752 0.09489044986350004 0
0.8930368587023239 0.685841176784885 0
0.9013808335700056 0.4536326853719679 0
0.7997593975769006 0.4975332480782464 0
0.794781705571347 0.6396022216218823 0
0.4386197235953764 0.8853310166331696 0
0.09724704773603876 0.8073595163268305 0
0.4694581535587365 0.6379525446103352 0
0.1056054444472019 0.1748583567789805 0
0.8065873645450929 0.9002980353918146 0
0.7448844753087212 0.7920178837269038 0
0.1909864225577723 0.7552709849370602 0
0.273591811101864 0.8136180456903549 0
0.2104814344485511 0.6546177413195003 0
0.3135571140538796 0.0821367267206341 0
0.522939398512327 0.577653141595987 0
0.5742161638151544 0.4672519760776102 0
0.3194434849483833 0.9070781041920681 0
0.6497092560669263 0.7952576037933385 0
0.5106837894884296 0.168979315511108 0
0.5943044249618867 0.1936579854760122 0
0.5875972976360783 0.2741292918369169 0
0.2640653316410322 0.2005259580804207 0
0.1905146194712943 0.5357241443454082 0
0.2835305939583933 0.6276987732245586 0
0.4647575015615771 0.2205443709707536 0
0.4405519868763376 0.5814208904292937 0
0.1754220541615664 0.2824572654314089 0
0.1164261432846353 0.432318511899764 0
0.6227061489631602 0.5129238227212978 0
0.1708290139325224 0.596084424331059 0
0.53937222320747 0.3089888276888876 0
0.4776150242007337 0.5354519257649643 0
0.6984890534260211 0.5249720345638833 0
0.08011593715364096 0.07961637188934056 0
0.2014683025283902 0.1785887662493216 0
0.7423494194964602 0.4477643027749528 0
0.0840888767934842 0.4849454724570823 0
0.8080342394047126 0.7232895324520197 0
0.07987551333508291 0.3501773465492434 0
0.8736104584406461 0.09478722246415283 0
0.901197627048925 0.3554580139478828 0
0.0823135911682934 0.9142435159333913 0
0.1110080770786209 0.2645572693284748 0
0.6874999999999989 0.06941157945641502 0
0.9084936490538902 0.90849364905389 0
0.2510136549982553 0.132194489342765 0
0.1624784002218009 0.2287793428789329 0
0.571294935641818 0.5333238874475925 0
0.05607810668264052 0.4284882661812184 0
0.7702593411710766 0.5645829549801402 0
0.5396404563662489 0.2340824121818095 0
0.5838136183069946 0.8225492747163639 0
0.666373977749053 0.7299340709995015 0
0.8266397430438435 0.1851244705913714 0
0.8237258934112051 0.4327915226863726 0
$EndNodes
$Elements
6 356 1 356
1 1 1 8
1 1 9 
2 9 10 
3 10 11 
4 11 12 
5 12 13 
6 13 14 
7 14 15 
8 15 2 
1 2 1 8
9 3 16 
10 16 17 
11 17 18 
12 18 19 
13 19 20 
14 20 21 
15 21 22 
16 22 1 
1 3 1 8
17 2 23 
18 23 24 
19 24 25 
20 25 26 
21 26 27 
22 27 28 
23 28 29 
24 29 4 
1 4 1 8
25 4 30 
26 30 31 
27 31 32 
28 32 33 
29 33 34 
30 34 35 
31 35 36 
32 36 3 
2 2 2 68
33 57 66 58 
34 69 70 63 
35 62 64 59 
36 65 69 63 
37 66 75 58 
38 59 76 62 
39 61 77 67 
40 67 77 68 
41 63 70 53 
42 39 57 54 
43 39 54 38 
44 58 60 59 
45 57 58 54 
46 43 55 42 
47 47 53 46 
48 53 61 46 
49 51 56 50 
50 52 62 51 
51 48 63 47 
52 51 62 56 
53 47 63 53 
54 40 57 39 
55 46 61 45 
56 58 59 54 
57 42 66 41 
58 50 65 49 
59 38 64 37 
60 44 67 43 
61 59 64 54 
62 54 64 38 
63 55 66 42 
64 56 65 50 
65 43 67 55 
66 41 71 6 
67 37 72 5 
68 8 73 48 
69 49 73 8 
70 6 71 40 
71 5 72 52 
72 45 74 7 
73 7 74 44 
74 68 70 60 
75 62 76 56 
76 67 68 55 
77 56 69 65 
78 58 75 60 
79 60 76 59 
80 68 77 70 
81 55 75 66 
82 60 75 68 
83 69 76 60 
84 64 72 37 
85 66 71 41 
86 65 73 49 
87 44 74 67 
88 40 71 57 
89 52 72 62 
90 61 74 45 
91 48 73 63 
92 53 77 61 
93 67 74 61 
94 63 73 65 
95 57 71 66 
96 62 72 64 
97 60 70 69 
98 68 75 55 
99 56 76 69 
100 70 77 53 
2 3 2 256
101 24 123 118 
102 24 165 123 
103 94 136 95 
104 101 129 96 
105 105 147 122 
106 163 167 115 
107 23 164 2 
108 96 129 110 
109 21 167 163 
110 89 140 81 
111 2 164 15 
112 135 136 103 
113 110 136 94 
114 11 124 120 
115 117 144 109 
116 130 135 103 
117 109 168 117 
118 147 154 122 
119 95 148 84 
120 90 123 100 
121 121 129 101 
122 98 123 90 
123 87 174 127 
124 129 141 110 
125 165 179 100 
126 14 164 119 
127 81 140 5 
128 10 170 116 
129 123 165 100 
130 128 174 87 
131 137 148 95 
132 95 136 135 
133 125 128 87 
134 138 170 10 
135 122 161 105 
136 150 156 139 
137 12 124 11 
138 84 148 6 
139 34 141 129 
140 134 162 106 
141 89 153 140 
142 133 134 106 
143 109 124 12 
144 87 127 126 
145 79 131 85 
146 27 125 87 
147 103 141 35 
148 10 116 9 
149 136 141 103 
150 111 154 137 
151 13 109 12 
152 92 148 137 
153 107 139 112 
154 82 176 142 
155 101 176 121 
156 21 163 20 
157 120 138 11 
158 15 164 14 
159 131 150 139 
160 121 176 82 
161 87 126 26 
162 139 172 112 
163 116 159 132 
164 135 137 95 
165 32 121 82 
166 18 122 111 
167 85 131 97 
168 13 168 109 
169 122 154 111 
170 27 87 26 
171 19 122 18 
172 80 145 83 
173 18 111 17 
174 118 164 23 
175 36 103 35 
176 34 129 33 
177 32 82 31 
178 97 131 107 
179 19 161 122 
180 111 130 17 
181 33 129 121 
182 24 118 23 
183 106 125 28 
184 33 121 32 
185 26 126 25 
186 97 107 102 
187 157 160 127 
188 28 125 27 
189 104 120 8 
190 107 112 108 
191 119 168 14 
192 82 133 31 
193 29 106 28 
194 149 175 86 
195 17 130 16 
196 111 137 135 
197 153 157 112 
198 22 132 21 
199 137 154 92 
200 25 165 24 
201 79 150 131 
202 3 166 36 
203 109 143 124 
204 111 135 130 
205 82 134 133 
206 31 133 30 
207 83 145 91 
208 112 157 113 
209 125 162 128 
210 16 166 3 
211 107 108 102 
212 127 174 157 
213 131 139 107 
214 11 138 10 
215 152 163 7 
216 164 178 119 
217 110 141 136 
218 140 172 78 
219 106 162 125 
220 112 113 108 
221 118 178 164 
222 1 158 22 
223 134 177 114 
224 91 144 117 
225 9 158 1 
226 132 158 116 
227 37 78 38 
228 35 141 34 
229 82 142 134 
230 104 138 120 
231 80 155 145 
232 85 97 96 
233 127 179 126 
234 109 144 143 
235 97 102 101 
236 86 175 155 
237 91 145 144 
238 116 158 9 
239 132 167 21 
240 4 169 29 
241 30 169 4 
242 52 80 5 
243 40 79 6 
244 143 175 149 
245 39 150 40 
246 5 140 37 
247 153 172 140 
248 89 160 157 
249 88 89 81 
250 113 128 114 
251 159 171 132 
252 124 143 99 
253 83 91 90 
254 128 162 114 
255 50 86 51 
256 113 114 108 
257 126 179 165 
258 139 156 78 
259 91 117 98 
260 97 101 96 
261 6 148 41 
262 51 155 52 
263 20 173 19 
264 46 93 47 
265 36 166 103 
266 126 165 25 
267 91 98 90 
268 49 149 50 
269 114 162 134 
270 41 92 42 
271 80 81 5 
272 38 156 39 
273 143 149 99 
274 117 119 98 
275 94 95 84 
276 98 178 123 
277 79 84 6 
278 142 177 134 
279 90 100 88 
280 47 146 48 
281 117 168 119 
282 37 140 78 
283 45 151 46 
284 85 96 94 
285 85 94 84 
286 8 99 49 
287 42 147 43 
288 78 156 38 
289 79 85 84 
290 83 90 88 
291 144 175 143 
292 96 110 94 
293 48 104 8 
294 155 175 145 
295 142 176 102 
296 40 150 79 
297 103 166 130 
298 130 166 16 
299 83 88 81 
300 102 177 142 
301 39 156 150 
302 7 115 45 
303 80 83 81 
304 43 105 44 
305 44 152 7 
306 52 155 80 
307 133 169 30 
308 78 172 139 
309 22 158 132 
310 86 155 51 
311 29 169 106 
312 102 176 101 
313 14 168 13 
314 100 160 88 
315 88 160 89 
316 50 149 86 
317 106 169 133 
318 123 178 118 
319 108 177 102 
320 41 148 92 
321 92 154 147 
322 93 146 47 
323 8 120 99 
324 46 151 93 
325 89 157 153 
326 146 170 104 
327 104 170 138 
328 93 159 146 
329 99 149 49 
330 92 147 42 
331 152 173 163 
332 120 124 99 
333 159 170 146 
334 48 146 104 
335 113 174 128 
336 119 178 98 
337 115 151 45 
338 43 147 105 
339 7 163 115 
340 161 173 152 
341 105 161 152 
342 105 152 44 
343 114 177 108 
344 145 175 144 
345 115 167 151 
346 100 179 160 
347 19 173 161 
348 112 172 153 
349 160 179 127 
350 157 174 113 
351 93 171 159 
352 151 171 93 
353 116 170 159 
354 167 171 151 
355 163 173 20 
356 132 171 167 
$EndElements
