$MeshFormat
4.1 0 8
$EndMeshFormat
$PhysicalNames
3
1 101 "outer_boundary"
2 1 "material_1"
2 2 "material_2"
$EndPhysicalNames
$Entities
8 8 2 0
1 0 0 0 0 
2 1 0 0 0 
3 0 1 0 0 
4 1 1 0 0 
5 0.3607023370321299 0.410376498205798 0 0 
6 0.3884697973345852 0.5884541878436338 0 0 
7 0.2103921076967495 0.6162216481460889 0 0 
8 0.1826246473942943 0.4381439585082533 0 0 
1 -9.999999994736442e-08 -1e-07 -1e-07 1.0000001 1e-07 1e-07 1 101 2 1 -2 
2 -1e-07 -9.999999994736442e-08 -1e-07 1e-07 1.0000001 1e-07 1 101 2 3 -1 
3 0.9999999000000001 -9.999999994736442e-08 -1e-07 1.0000001 1.0000001 1e-07 1 101 2 2 -4 
4 -9.999999994736442e-08 0.9999999000000001 -1e-07 1.0000001 1.0000001 1e-07 1 101 2 4 -3 
5 0.3607022370321299 0.410376398205798 -1e-07 0.3884698973345852 0.5884542878436337 1e-07 0 2 5 -6 
6 0.2103920076967495 0.5884540878436338 -1e-07 0.3884698973345852 0.6162217481460889 1e-07 0 2 6 -7 
7 0.1826245473942943 0.4381438585082533 -1e-07 0.2103922076967495 0.6162217481460889 1e-07 0 2 7 -8 
8 0.1826245473942943 0.410376398205798 -1e-07 0.36070243703213 0.4381440585082533 1e-07 0 2 8 -5 
2 0.1826245473942943 0.410376398205798 -1e-07 0.3884698973345852 0.6162217481460889 1e-07 1 2 4 5 6 7 8 
3 -9.999999994736442e-08 -9.999999994736442e-08 -1e-07 1.0000001 1.0000001 1e-07 1 1 8 1 3 4 2 -5 -8 -7 -6 
$EndEntities
$Nodes
18 162 1 162
0 1 0 1
1
0 0 0
0 2 0 1
2
1 0 0
0 3 0 1
3
0 1 0
0 4 0 1
4
1 1 0
0 5 0 1
5
0.3607023370321299 0.410376498205798 0
0 6 0 1
6
0.3884697973345852 0.5884541878436338 0
0 7 0 1
7
0.2103921076967495 0.6162216481460889 0
0 8 0 1
8
0.1826246473942943 0.4381439585082533 0
1 1 0 7
9
10
11
12
13
14
15
0.1249999999999999 0 0
0.2499999999999998 0 0
0.3749999999999993 0 0
0.4999999999999988 0 0
0.6249999999999988 0 0
0.7499999999999991 0 0
0.8749999999999997 0 0
1 2 0 7
16
17
18
19
20
21
22
0 0.8750000000000001 0
0 0.7500000000000002 0
0 0.6250000000000007 0
0 0.5000000000000012 0
0 0.3750000000000012 0
0 0.2500000000000009 0
0 0.1250000000000003 0
1 3 0 7
23
24
25
26
27
28
29
1 0.1249999999999999 0
1 0.2499999999999998 0
1 0.3749999999999993 0
1 0.4999999999999988 0
1 0.6249999999999988 0
1 0.7499999999999991 0
1 0.8749999999999997 0
1 4 0 7
30
31
32
33
34
35
36
0.8750000000000001 1 0
0.7500000000000002 1 0
0.6250000000000007 1 0
0.5000000000000012 1 0
0.3750000000000012 1 0
0.2500000000000009 1 0
0.1250000000000003 1 0
1 5 0 2
37
38
0.3699581571329484 0.4697357280850766 0
0.3792139772337668 0.5290949579643555 0
1 6 0 2
39
40
0.3291105674553066 0.5977100079444522 0
0.2697513375760279 0.6069658280452706 0
1 7 0 2
41
42
0.2011362875959311 0.5568624182668104 0
0.1918804674951127 0.4975031883875316 0
1 8 0 2
43
44
0.2419838772735728 0.4288881384074348 0
0.3013431071528516 0.4196323183066164 0
2 2 0 8
45
46
47
48
49
50
51
52
0.3215548277126238 0.5076844464693326 0
0.2494550356727426 0.5189268885593791 0
0.2785201734308175 0.4683259554420007 0
0.2925460775168909 0.5582765871354946 0
0.3385894510636454 0.5520310499193837 0
0.2325049936652342 0.4745670964325033 0
0.32427919910788 0.4602568444767378 0
0.2468152456209995 0.5663413018751493 0
2 3 0 110
53
54
55
56
57
58
59
60
61
62
63
64
65
66
67
68
69
70
71
72
73
74
75
76
77
78
79
80
81
82
83
84
85
86
87
88
89
90
91
92
93
94
95
96
97
98
99
100
101
102
103
104
105
106
107
108
109
110
111
112
113
114
115
116
117
118
119
120
121
122
123
124
125
126
127
128
129
130
131
132
133
134
135
136
137
138
139
140
141
142
143
144
145
146
147
148
149
150
151
152
153
154
155
156
157
158
159
160
161
162
0.4199661277864128 0.4323068917520456 0
0.8966135182010045 0.6927818999072147 0
0.8942816401449047 0.3170940635516159 0
0.4043641857385964 0.3700542053021084 0
0.4730748159743667 0.3931361666232797 0
0.2589922342367801 0.3715986351008013 0
0.3686734387056963 0.6456103733147101 0
0.428993601841466 0.6327362110441762 0
0.250462090717247 0.6664354067975218 0
0.4614775926933531 0.321209095538555 0
0.5336813885069258 0.3478488091978058 0
0.5475741226659402 0.4244798725317845 0
0.3854882093974925 0.2981191273020747 0
0.4079719077532341 0.7011510134936683 0
0.4788321147287236 0.6878147611942154 0
0.6112124145201326 0.3781808523954012 0
0.6238545018196355 0.4635417068083067 0
0.5926051532880622 0.2742909115470415 0
0.6877276453938804 0.8862534752311412 0
0.4368135914355501 0.5605968364694941 0
0.1726759694112833 0.9122044871824069 0
0.4496411387319368 0.2412314338010288 0
0.3682386570766077 0.2137488094686867 0
0.100154044024121 0.1743755568229236 0
0.4512087347735606 0.7652164542788849 0
0.6979615012798817 0.4177328720143888 0
0.7033721264763646 0.506553378849476 0
0.6326812613921249 0.5469532695681039 0
0.3623332493063888 0.7681415450209059 0
0.1837892710565752 0.6689241985679216 0
0.7111521006520888 0.5949912323608437 0
0.5360278616278235 0.7453603741683328 0
0.789775404839542 0.544265996622975 0
0.6850339100123661 0.1128060939352286 0
0.228746780834248 0.7321020107398739 0
0.493434441005315 0.6050093005112387 0
0.1552867563008092 0.601936065043214 0
0.5543583915779897 0.6572462677209255 0
0.6225318950181631 0.7201931015866101 0
0.1516348625167116 0.7449213444589569 0
0.4337849212865317 0.1546801889596445 0
0.5260010949780407 0.1863193458302889 0
0.4159686448619753 0.8435152414151861 0
0.3144331989582673 0.2746918826353108 0
0.2895391112539633 0.1947075213979165 0
0.1358459564201682 0.4758393487880597 0
0.3410336321807084 0.8480266646770375 0
0.4940076781674435 0.531711934994793 0
0.1217592506968949 0.4104851549626135 0
0.1827074834962731 0.3689138825956136 0
0.1070435529391602 0.3328943224667642 0
0.1759913050048468 0.2887628769838109 0
0.1083518209965403 0.6576896729136692 0
0.8809375980886378 0.8139823942767525 0
0.7909508681095871 0.7409352385776387 0
0.8793925491182342 0.4492488577792723 0
0.7934935259279873 0.3740307640987206 0
0.7920433144830182 0.264476623459142 0
0.878674672014219 0.1908608341992226 0
0.296896082461004 0.7179535551176518 0
0.8074377818475607 0.09619834345584788 0
0.5662256477791985 0.9076739848594768 0
0.8970191361371147 0.5751081828431382 0
0.8110666245095262 0.9058408140953136 0
0.1763495380447079 0.09542032315199789 0
0.7984537761612593 0.6432547653455426 0
0.3302752812262036 0.3527969293506361 0
0.311096394422691 0.6552117136267143 0
0.4306222584203979 0.4969946580808312 0
0.5827379541757259 0.09656878718185169 0
0.6929407210616818 0.3234167364287791 0
0.6763624278189 0.2281206017237915 0
0.2828132656857918 0.7988506526129299 0
0.1426409688016967 0.5368361462953338 0
0.08415890698192308 0.5751025738926531 0
0.6073712579758388 0.8112761254832355 0
0.6966287982703252 0.7789619691536062 0
0.2020922881405895 0.8225921064163557 0
0.09774569163207608 0.8217708859063233 0
0.3557189525731717 0.1245866327368644 0
0.708123531224188 0.6874667395219561 0
0.4873577738993741 0.4623925881146966 0
0.6308959794588413 0.6294297564646849 0
0.5086444184399039 0.8314977601254503 0
0.5126812736396638 0.274179919182944 0
0.772799021528402 0.4583663738729666 0
0.762650136393128 0.1789065902166047 0
0.5621467340504762 0.5792278178857216 0
0.08556947265889808 0.08548529348597772 0
0.9064186847708642 0.09358131522913571 0
0.462629068878851 0.9166875630686873 0
0.06250428339734343 0.4574524583853031 0
0.9084936490538901 0.90849364905389 0
0.2253049543287716 0.3237100128387289 0
0.08257559223272554 0.9174244077672746 0
0.1940807732651419 0.1971465262633981 0
0.5579370119991657 0.5013845316505677 0
0.4923532114009033 0.09808446683355054 0
0.6091919343390841 0.1754116381521038 0
0.2454709513092681 0.264991458245237 0
0.2804805185315701 0.9053919277743192 0
0.2734480625228307 0.1019768339250295 0
0.4226004946714663 0.07446281323250536 0
0.3764705505821022 0.9074379224372193 0
0.08503002312022623 0.5090461054722702 0
0.07260209048453903 0.7228413734739271 0
0.3508500700687278 0.6969662947877824 0
0.7642408545207492 0.8263153660100986 0
0.2806300368553437 0.3212547901488857 0
0.1130863046896668 0.2519379427565483 0
$EndNodes
$Elements
6 322 1 322
1 1 1 8
1 1 9 
2 9 10 
3 10 11 
4 11 12 
5 12 13 
6 13 14 
7 14 15 
8 15 2 
1 2 1 8
9 3 16 
10 16 17 
11 17 18 
12 18 19 
13 19 20 
14 20 21 
15 21 22 
16 22 1 
1 3 1 8
17 2 23 
18 23 24 
19 24 25 
20 25 26 
21 26 27 
22 27 28 
23 28 29 
24 29 4 
1 4 1 8
25 4 30 
26 30 31 
27 31 32 
28 32 33 
29 33 34 
30 34 35 
31 35 36 
32 36 3 
2 2 2 26
33 46 47 45 
34 45 48 46 
35 38 45 37 
36 42 46 41 
37 44 47 43 
38 40 48 39 
39 6 49 38 
40 43 50 8 
41 8 50 42 
42 39 49 6 
43 5 51 44 
44 37 51 5 
45 7 52 40 
46 41 52 7 
47 38 49 45 
48 45 51 37 
49 42 50 46 
50 46 52 41 
51 48 52 46 
52 46 50 47 
53 47 51 45 
54 45 49 48 
55 44 51 47 
56 47 50 43 
57 48 49 39 
58 40 52 48 
2 3 2 264
59 108 115 85 
60 85 138 108 
61 109 123 110 
62 70 137 94 
63 125 153 130 
64 56 119 65 
65 43 102 58 
66 8 102 43 
67 65 119 96 
68 123 124 110 
69 78 123 109 
70 94 151 70 
71 132 154 11 
72 119 161 96 
73 99 153 125 
74 5 119 56 
75 6 72 60 
76 20 103 101 
77 26 115 108 
78 21 103 20 
79 11 154 10 
80 60 88 67 
81 72 88 60 
82 21 162 103 
83 17 131 16 
84 24 111 23 
85 25 108 55 
86 88 90 67 
87 101 144 20 
88 130 153 73 
89 106 107 54 
90 108 109 55 
91 32 114 71 
92 36 73 35 
93 28 106 54 
94 110 139 111 
95 72 121 100 
96 67 90 84 
97 115 118 85 
98 64 149 134 
99 90 140 135 
100 111 139 113 
101 134 149 100 
102 82 89 7 
103 33 114 32 
104 90 91 84 
105 28 54 27 
106 17 158 131 
107 25 55 24 
108 14 86 13 
109 26 108 25 
110 22 76 21 
111 55 111 24 
112 14 113 86 
113 54 118 115 
114 32 71 31 
115 121 134 100 
116 29 106 28 
117 105 158 18 
118 153 156 34 
119 109 110 55 
120 70 151 124 
121 135 140 80 
122 15 113 14 
123 108 138 109 
124 79 80 69 
125 124 139 110 
126 27 115 26 
127 107 118 54 
128 114 128 71 
129 124 151 86 
130 54 115 27 
131 71 116 31 
132 31 116 30 
133 35 153 34 
134 65 96 75 
135 81 125 112 
136 13 122 12 
137 106 160 107 
138 111 142 23 
139 109 138 78 
140 86 139 124 
141 19 127 18 
142 72 100 88 
143 79 83 80 
144 10 117 9 
145 110 111 55 
146 11 155 132 
147 34 143 33 
148 128 129 71 
149 107 133 118 
150 34 156 143 
151 2 142 15 
152 23 142 2 
153 5 53 37 
154 102 146 58 
155 18 158 17 
156 82 105 89 
157 85 118 83 
158 86 122 13 
159 78 79 69 
160 63 64 57 
161 104 162 148 
162 61 112 87 
163 9 141 1 
164 68 69 64 
165 116 160 106 
166 112 159 81 
167 53 134 121 
168 37 121 38 
169 1 141 22 
170 4 145 29 
171 30 145 4 
172 57 134 53 
173 79 85 83 
174 43 58 44 
175 128 136 84 
176 6 59 39 
177 39 120 40 
178 40 61 7 
179 118 133 83 
180 88 140 90 
181 68 78 69 
182 73 153 35 
183 44 119 5 
184 93 94 74 
185 38 72 6 
186 36 147 73 
187 63 68 64 
188 77 81 66 
189 18 127 105 
190 63 70 68 
191 96 97 75 
192 92 105 82 
193 95 99 81 
194 56 65 62 
195 122 150 12 
196 5 56 53 
197 76 162 21 
198 67 84 77 
199 99 125 81 
200 62 63 57 
201 65 75 74 
202 6 60 59 
203 53 121 37 
204 56 57 53 
205 60 67 66 
206 91 128 84 
207 101 102 8 
208 19 157 127 
209 78 138 79 
210 75 93 74 
211 103 104 102 
212 33 143 114 
213 56 62 57 
214 70 124 123 
215 65 74 62 
216 67 77 66 
217 77 95 81 
218 113 142 111 
219 112 125 87 
220 20 144 19 
221 113 139 86 
222 3 147 36 
223 16 147 3 
224 61 120 112 
225 94 137 74 
226 80 149 69 
227 7 89 41 
228 69 149 64 
229 90 135 91 
230 83 135 80 
231 68 123 78 
232 64 134 57 
233 59 120 39 
234 41 126 42 
235 58 119 44 
236 40 120 61 
237 12 155 11 
238 38 121 72 
239 81 159 66 
240 60 66 59 
241 42 98 8 
242 91 129 128 
243 61 87 82 
244 129 133 107 
245 70 123 68 
246 22 141 76 
247 94 150 122 
248 116 145 30 
249 99 156 153 
250 93 150 94 
251 15 142 113 
252 29 145 106 
253 73 147 131 
254 148 162 76 
255 131 158 92 
256 63 137 70 
257 114 136 128 
258 61 82 7 
259 91 133 129 
260 117 148 76 
261 87 92 82 
262 131 147 16 
263 125 130 87 
264 106 145 116 
265 73 131 130 
266 130 131 92 
267 105 127 89 
268 79 138 85 
269 75 132 93 
270 84 136 77 
271 129 160 71 
272 10 154 117 
273 76 141 117 
274 97 132 75 
275 62 137 63 
276 71 160 116 
277 98 101 8 
278 101 103 102 
279 86 151 122 
280 133 135 83 
281 100 140 88 
282 91 135 133 
283 74 137 62 
284 148 154 97 
285 77 136 95 
286 87 130 92 
287 104 146 102 
288 117 141 9 
289 96 152 97 
290 122 151 94 
291 148 152 104 
292 152 161 146 
293 89 126 41 
294 92 158 105 
295 150 155 12 
296 42 126 98 
297 117 154 148 
298 98 144 101 
299 89 127 126 
300 97 152 148 
301 59 159 120 
302 96 161 152 
303 136 143 95 
304 140 149 80 
305 95 156 99 
306 143 156 95 
307 66 159 59 
308 100 149 140 
309 114 143 136 
310 146 161 58 
311 120 159 112 
312 103 162 104 
313 107 160 129 
314 132 155 93 
315 97 154 132 
316 58 161 119 
317 93 155 150 
318 127 157 126 
319 98 157 144 
320 126 157 98 
321 104 152 146 
322 144 157 19 
$EndElements
