$MeshFormat
4.1 0 8
$EndMeshFormat
$PhysicalNames
3
1 101 "outer_boundary"
2 1 "material_1"
2 2 "material_2"
$EndPhysicalNames
$Entities
5 5 2 0
1 0 0 0 0 
2 1 0 0 0 
3 0 1 0 0 
4 1 1 0 0 
5 0.7785963050984468 0.355804382518 0 0 
1 -9.999999994736442e-08 -1e-07 -1e-07 1.0000001 1e-07 1e-07 1 101 2 1 -2 
2 -1e-07 -9.999999994736442e-08 -1e-07 1e-07 1.0000001 1e-07 1 101 2 3 -1 
3 0.9999999000000001 -9.999999994736442e-08 -1e-07 1.0000001 1.0000001 1e-07 1 101 2 2 -4 
4 -9.999999994736442e-08 0.9999999000000001 -1e-07 1.0000001 1.0000001 1e-07 1 101 2 4 -3 
5 0.3978653573484544 0.1654388586430037 -1e-07 0.7785964050984467 0.5461699063929961 1e-07 0 2 5 -5 
2 0.3978653573484544 0.1654388586430037 -1e-07 0.7785964050984467 0.5461699063929961 1e-07 1 2 1 5 
3 -9.999999994736442e-08 -9.999999994736442e-08 -1e-07 1.0000001 1.0000001 1e-07 1 1 5 1 3 4 2 -5 
$EndEntities
$Nodes
12 167 1 167
0 1 0 1
1
0 0 0
0 2 0 1
2
1 0 0
0 3 0 1
3
0 1 0
0 4 0 1
4
1 1 0
0 5 0 1
5
0.7785963050984468 0.355804382518 0
1 1 0 7
6
7
8
9
10
11
12
0.1249999999999999 0 0
0.2499999999999998 0 0
0.3749999999999993 0 0
0.4999999999999988 0 0
0.6249999999999988 0 0
0.7499999999999991 0 0
0.8749999999999997 0 0
1 2 0 7
13
14
15
16
17
18
19
0 0.8750000000000001 0
0 0.7500000000000002 0
0 0.6250000000000007 0
0 0.5000000000000012 0
0 0.3750000000000012 0
0 0.2500000000000009 0
0 0.1250000000000003 0
1 3 0 7
20
21
22
23
24
25
26
1 0.1249999999999999 0
1 0.2499999999999998 0
1 0.3749999999999993 0
1 0.4999999999999988 0
1 0.6249999999999988 0
1 0.7499999999999991 0
1 0.8749999999999997 0
1 4 0 7
27
28
29
30
31
32
33
0.8750000000000001 1 0
0.7500000000000002 1 0
0.6250000000000007 1 0
0.5000000000000012 1 0
0.3750000000000012 1 0
0.2500000000000009 1 0
0.1250000000000003 1 0
1 5 0 17
34
35
36
37
38
39
40
41
42
43
44
45
46
47
48
49
50
0.7671158652915662 0.4209131920759778 0
0.7340592563448802 0.4781689182975736 0
0.6834135931609487 0.5206656755959393 0
0.6212874901701364 0.5432777278555515 0
0.5551742722767647 0.5432777278555515 0
0.4930481692859525 0.5206656755959393 0
0.442402506102021 0.4781689182975738 0
0.4093458971553351 0.4209131920759782 0
0.3978654573484544 0.3558043825180003 0
0.4093458971553349 0.2906955729600224 0
0.4424025061020208 0.2334398467384264 0
0.4930481692859524 0.1909430894400606 0
0.5551742722767647 0.1683310371804484 0
0.6212874901701365 0.1683310371804484 0
0.683413593160949 0.1909430894400607 0
0.7340592563448805 0.2334398467384265 0
0.7671158652915663 0.2906955729600224 0
2 2 0 29
51
52
53
54
55
56
57
58
59
60
61
62
63
64
65
66
67
68
69
70
71
72
73
74
75
76
77
78
79
0.7024219661109997 0.2899096971257333 0
0.4749062096871019 0.4236130065077846 0
0.6698131971728453 0.4617406852454051 0
0.5362658125705391 0.227817266055953 0
0.7164702021076347 0.3784164347776121 0
0.5442468933532335 0.4801982160058202 0
0.4657297063736395 0.3301299171030224 0
0.6327679299770173 0.2334398467384264 0
0.6834135931609489 0.242370043613627 0
0.6485812602251728 0.2878182351414932 0
0.5818858287538498 0.2725474209639369 0
0.611437152010251 0.3375165082184387 0
0.5493459492991817 0.3301961792891415 0
0.5780338927971392 0.3872081621196001 0
0.6525585497447537 0.3991516118084837 0
0.6059595443824717 0.4516385340451579 0
0.5084988173583325 0.3799252898776365 0
0.5082024066266928 0.2820045833827589 0
0.6753416624843347 0.3401639950985432 0
0.6350114893198768 0.4949775455040222 0
0.5862632994564584 0.2122741924889285 0
0.7340592563448802 0.3300909054312169 0
0.4973249652701607 0.4668585534133359 0
0.4469263384910779 0.3818032157332022 0
0.708003414132336 0.4276781684410105 0
0.5405746398909113 0.4268866146414871 0
0.5908416790243841 0.5030758892325669 0
0.4575932835125186 0.2781419748800406 0
0.48982923667535 0.2385338691106228 0
2 3 0 88
80
81
82
83
84
85
86
87
88
89
90
91
92
93
94
95
96
97
98
99
100
101
102
103
104
105
106
107
108
109
110
111
112
113
114
115
116
117
118
119
120
121
122
123
124
125
126
127
128
129
130
131
132
133
134
135
136
137
138
139
140
141
142
143
144
145
146
147
148
149
150
151
152
153
154
155
156
157
158
159
160
161
162
163
164
165
166
167
0.4241143698938635 0.5426070366032544 0
0.6662669760501848 0.5909724475602073 0
0.3521903460621044 0.4033272873646816 0
0.3229613565453914 0.9055543291381571 0
0.5673785367481112 0.8883206310390239 0
0.3720723656978733 0.2369702723532749 0
0.1011559464987019 0.5508962766553243 0
0.1111394167140279 0.1798537479794743 0
0.88837291239185 0.6959889233680028 0
0.7995075560901751 0.2338247951025846 0
0.8039691510561111 0.4738787510334342 0
0.8133897489422981 0.8850750865613364 0
0.09967966044168819 0.813370287024121 0
0.5097308376810677 0.5940848573448 0
0.4345756751676932 0.6262660319771101 0
0.3605079148891867 0.5890427513559033 0
0.4965076206788054 0.6646528373115073 0
0.3671459685376836 0.6716188393776581 0
0.2881402886889702 0.6295595019925394 0
0.2836974945655328 0.5454369924996265 0
0.4176109195256841 0.1627792789002193 0
0.3306001736877631 0.1692791843632328 0
0.2923769173903308 0.245501886090864 0
0.8280312720698537 0.3976353130708791 0
0.7673819629527037 0.5368648842986263 0
0.8342940948343898 0.5380492746525527 0
0.7462945814141458 0.1689297726772054 0
0.2946544889408237 0.7204150209599128 0
0.8281136892439289 0.3134760840937819 0
0.6805800250765094 0.1098445844344634 0
0.3808148295763648 0.7582363516843196 0
0.5942469453261227 0.5995259065786421 0
0.6400160348717148 0.6609348272981534 0
0.717780040021083 0.6497066989568577 0
0.6879207889847154 0.7273900574681977 0
0.6071992604274857 0.7333899970933442 0
0.833576937541274 0.1647127513843261 0
0.219827711200964 0.6763338663814983 0
0.2309670541585908 0.1726031852801512 0
0.3797240580989965 0.4725714067678817 0
0.6524065900919905 0.8091153956297653 0
0.5026342247894505 0.1294739914596311 0
0.1909339464421669 0.2583473387701654 0
0.249416222131132 0.3281118881602441 0
0.1748217461109359 0.3435257264276319 0
0.2202662440651333 0.4160072248816233 0
0.109638285159897 0.4232181990316424 0
0.7764753691033126 0.7114159679748711 0
0.4399242090831784 0.9047266307678588 0
0.479045240345058 0.8019668747225062 0
0.3394701089864844 0.3192989541549452 0
0.5882308812234506 0.1110753109588525 0
0.8042295486044587 0.6174474450787926 0
0.8973622301284313 0.4629817325718611 0
0.882072411098378 0.2488548120522837 0
0.9048704209747116 0.8161396383568589 0
0.3010972008740111 0.460312495420503 0
0.2014624750364902 0.887378571965731 0
0.213337503608338 0.7789224421274321 0
0.1196289645186117 0.6821107790026637 0
0.2034019298805897 0.5802525808302699 0
0.1797469559003123 0.08628365679639977 0
0.4478116176672637 0.07581762031362205 0
0.9046792138139242 0.345461721408572 0
0.7019757940706428 0.9007543714054405 0
0.741855751108865 0.8026718416995893 0
0.2838438878642428 0.08771363085376077 0
0.7944621862723814 0.08834813387160467 0
0.9185261178141351 0.1677625692804241 0
0.1891913491546304 0.4960654956327228 0
0.5629893399694589 0.6633885021342125 0
0.4480541125228603 0.7084139203753216 0
0.09287127557193797 0.2897474284911996 0
0.3077524537139026 0.8053092964165172 0
0.9087674810284477 0.5865963229953597 0
0.5279164125928287 0.7297434616220189 0
0.5687645490617259 0.7965476623281573 0
0.9084936490538905 0.9084936490538904 0
0.09150635094610954 0.9084936490538905 0
0.903594206937965 0.09097057575605921 0
0.2842304116022136 0.3898834068194565 0
0.07753137666501186 0.07753137666501209 0
0.7296753340949305 0.5863006691263567 0
0.8232709476344999 0.7822645428966442 0
0.3785474277574922 0.8382926875169123 0
0.5363705276499773 0.06168970213781505 0
0.3709733197489906 0.09911794288616693 0
0.3494251433600233 0.5271456572316455 0
$EndNodes
$Elements
6 332 1 332
1 1 1 8
1 1 6 
2 6 7 
3 7 8 
4 8 9 
5 9 10 
6 10 11 
7 11 12 
8 12 2 
1 2 1 8
9 3 13 
10 13 14 
11 14 15 
12 15 16 
13 16 17 
14 17 18 
15 18 19 
16 19 1 
1 3 1 8
17 2 20 
18 20 21 
19 21 22 
20 22 23 
21 23 24 
22 24 25 
23 25 26 
24 26 4 
1 4 1 8
25 4 27 
26 27 28 
27 28 29 
28 29 30 
29 30 31 
30 31 32 
31 32 33 
32 33 3 
2 2 2 74
33 63 67 57 
34 57 68 63 
35 63 68 61 
36 61 68 54 
37 55 75 65 
38 65 75 53 
39 67 74 57 
40 65 66 64 
41 65 69 55 
42 34 55 5 
43 48 58 47 
44 36 53 35 
45 50 51 49 
46 39 56 38 
47 46 54 45 
48 43 57 42 
49 41 52 40 
50 53 66 65 
51 62 65 64 
52 62 64 63 
53 52 74 67 
54 62 63 61 
55 66 76 64 
56 56 76 66 
57 60 62 61 
58 60 69 62 
59 51 69 60 
60 54 71 61 
61 61 71 58 
62 51 72 69 
63 64 67 63 
64 52 76 73 
65 62 69 65 
66 66 77 56 
67 67 76 52 
68 69 72 55 
69 60 61 58 
70 37 70 36 
71 36 70 53 
72 53 70 66 
73 34 75 55 
74 55 72 5 
75 42 74 41 
76 50 72 51 
77 5 72 50 
78 58 71 47 
79 41 74 52 
80 53 75 35 
81 46 71 54 
82 48 59 58 
83 51 59 49 
84 35 75 34 
85 40 73 39 
86 57 74 42 
87 49 59 48 
88 52 73 40 
89 39 73 56 
90 47 71 46 
91 38 77 37 
92 43 78 57 
93 54 79 45 
94 56 77 38 
95 57 78 68 
96 68 79 54 
97 44 78 43 
98 45 79 44 
99 73 76 56 
100 64 76 67 
101 70 77 66 
102 37 77 70 
103 51 60 59 
104 59 60 58 
105 44 79 78 
106 78 79 68 
2 3 2 226
107 17 152 126 
108 23 154 133 
109 99 149 136 
110 138 139 117 
111 11 109 10 
112 11 147 109 
113 92 139 138 
114 111 150 93 
115 133 143 22 
116 109 131 10 
117 21 143 134 
118 120 144 84 
119 16 126 86 
120 100 121 45 
121 23 133 22 
122 93 150 96 
123 118 122 87 
124 136 149 125 
125 84 144 29 
126 82 160 130 
127 17 126 16 
128 139 140 117 
129 128 129 84 
130 138 153 137 
131 127 132 88 
132 137 153 83 
133 86 140 139 
134 20 159 2 
135 87 141 118 
136 30 128 84 
137 22 143 21 
138 14 139 92 
139 129 164 110 
140 110 151 129 
141 35 104 36 
142 102 130 123 
143 130 160 123 
144 126 149 86 
145 140 149 99 
146 85 130 102 
147 100 142 121 
148 44 100 45 
149 39 93 80 
150 93 94 80 
151 80 119 40 
152 2 159 12 
153 25 88 24 
154 81 111 37 
155 83 128 31 
156 16 86 15 
157 41 119 82 
158 81 112 111 
159 38 111 93 
160 109 147 106 
161 19 87 18 
162 30 84 29 
163 116 134 89 
164 88 163 127 
165 82 130 42 
166 32 83 31 
167 128 164 129 
168 104 162 36 
169 25 135 88 
170 119 136 82 
171 31 128 30 
172 43 130 85 
173 103 143 133 
174 113 132 127 
175 80 167 119 
176 28 91 27 
177 122 152 87 
178 132 154 88 
179 32 137 83 
180 151 155 129 
181 14 92 13 
182 98 140 99 
183 142 165 121 
184 7 146 141 
185 102 123 122 
186 84 156 120 
187 134 143 108 
188 141 146 118 
189 7 141 6 
190 144 145 91 
191 24 154 23 
192 26 135 25 
193 12 147 11 
194 134 148 21 
195 33 137 32 
196 36 162 81 
197 29 144 28 
198 12 159 147 
199 15 139 14 
200 86 139 15 
201 105 154 132 
202 123 125 124 
203 92 138 137 
204 18 152 17 
205 131 165 10 
206 8 146 7 
207 34 103 90 
208 124 152 122 
209 98 99 95 
210 8 166 146 
211 117 140 98 
212 135 163 88 
213 116 148 134 
214 49 106 89 
215 39 80 40 
216 94 95 80 
217 89 108 50 
218 93 96 94 
219 36 81 37 
220 103 133 90 
221 97 110 107 
222 123 124 122 
223 106 116 89 
224 5 108 103 
225 120 145 144 
226 38 93 39 
227 4 157 26 
228 27 157 4 
229 40 119 41 
230 9 142 8 
231 129 156 84 
232 41 82 42 
233 3 158 33 
234 13 158 3 
235 28 144 91 
236 37 111 38 
237 81 113 112 
238 85 102 101 
239 125 126 124 
240 88 154 24 
241 114 115 112 
242 89 134 108 
243 42 130 43 
244 102 122 118 
245 145 163 91 
246 21 148 20 
247 96 155 151 
248 96 151 94 
249 121 131 46 
250 43 85 44 
251 107 138 117 
252 83 164 128 
253 119 167 136 
254 108 143 103 
255 19 161 87 
256 87 152 18 
257 48 109 106 
258 107 117 98 
259 95 167 80 
260 94 151 97 
261 94 97 95 
262 97 98 95 
263 34 90 35 
264 97 107 98 
265 47 131 109 
266 114 120 115 
267 49 89 50 
268 113 114 112 
269 102 118 101 
270 148 159 20 
271 113 127 114 
272 105 132 104 
273 9 165 142 
274 90 133 105 
275 5 103 34 
276 113 162 132 
277 90 104 35 
278 10 165 9 
279 118 146 101 
280 48 106 49 
281 123 160 125 
282 50 108 5 
283 91 163 135 
284 45 121 46 
285 99 167 95 
286 46 131 47 
287 26 157 135 
288 87 161 141 
289 85 100 44 
290 147 159 116 
291 112 150 111 
292 86 149 140 
293 90 105 104 
294 107 153 138 
295 106 147 116 
296 97 151 110 
297 33 158 137 
298 47 109 48 
299 85 101 100 
300 91 157 27 
301 136 167 99 
302 1 161 19 
303 6 161 1 
304 135 157 91 
305 125 149 126 
306 92 158 13 
307 115 150 112 
308 114 145 120 
309 132 162 104 
310 127 145 114 
311 137 158 92 
312 125 160 136 
313 136 160 82 
314 100 166 142 
315 110 153 107 
316 101 166 100 
317 115 156 155 
318 142 166 8 
319 81 162 113 
320 120 156 115 
321 121 165 131 
322 155 156 129 
323 116 159 148 
324 150 155 96 
325 146 166 101 
326 141 161 6 
327 115 155 150 
328 127 163 145 
329 110 164 153 
330 153 164 83 
331 133 154 105 
332 126 152 124 
$EndElements
