$MeshFormat
4.1 0 8
$EndMeshFormat
$PhysicalNames
3
1 101 "outer_boundary"
2 1 "material_1"
2 2 "material_2"
$EndPhysicalNames
$Entities
5 5 2 0
1 0 0 0 0 
2 1 0 0 0 
3 0 1 0 0 
4 1 1 0 0 
5 0.7632359107819018 0.5843492773368577 0 0 
1 -9.999999994736442e-08 -1e-07 -1e-07 1.0000001 1e-07 1e-07 1 101 2 1 -2 
2 -1e-07 -9.999999994736442e-08 -1e-07 1e-07 1.0000001 1e-07 1 101 2 3 -1 
3 0.9999999000000001 -9.999999994736442e-08 -1e-07 1.0000001 1.0000001 1e-07 1 101 2 2 -4 
4 -9.999999994736442e-08 0.9999999000000001 -1e-07 1.0000001 1.0000001 1e-07 1 101 2 4 -3 
5 0.4793539547973105 0.442408249344562 -1e-07 0.7632360107819017 0.7262903053291533 1e-07 0 2 5 -5 
2 0.4793539547973105 0.442408249344562 -1e-07 0.7632360107819017 0.7262903053291533 1e-07 1 2 1 5 
3 -9.999999994736442e-08 -9.999999994736442e-08 -1e-07 1.0000001 1.0000001 1e-07 1 1 5 1 3 4 2 -5 
$EndEntities
$Nodes
12 242 1 242
0 1 0 1
1
0 0 0
0 2 0 1
2
1 0 0
0 3 0 1
3
0 1 0
0 4 0 1
4
1 1 0
0 5 0 1
5
0.7632359107819018 0.5843492773368577 0
1 1 0 9
6
7
8
9
10
11
12
13
14
0.09999999999999996 0 0
0.1999999999999999 0 0
0.3000000000000001 0 0
0.4000000000000004 0 0
0.5000000000000003 0 0
0.5999999999999999 0 0
0.6999999999999995 0 0
0.7999999999999992 0 0
0.899999999999999 0 0
1 2 0 9
15
16
17
18
19
20
21
22
23
0 0.9 0
0 0.8 0
0 0.7 0
0 0.5999999999999996 0
0 0.4999999999999997 0
0 0.4000000000000001 0
0 0.3000000000000005 0
0 0.2000000000000008 0
0 0.100000000000001 0
1 3 0 9
24
25
26
27
28
29
30
31
32
1 0.09999999999999996 0
1 0.1999999999999999 0
1 0.3000000000000001 0
1 0.4000000000000004 0
1 0.5000000000000003 0
1 0.5999999999999999 0
1 0.6999999999999995 0
1 0.7999999999999992 0
1 0.899999999999999 0
1 4 0 9
33
34
35
36
37
38
39
40
41
0.9 1 0
0.8 1 0
0.7 1 0
0.5999999999999996 1 0
0.4999999999999997 1 0
0.4000000000000001 1 0
0.3000000000000005 1 0
0.2000000000000008 1 0
0.100000000000001 1 0
1 5 0 16
42
43
44
45
46
47
48
49
50
51
52
53
54
55
56
57
0.7536509563583051 0.6356242546649454 0
0.726190594294488 0.6799742621804171 0
0.6845634986502879 0.7114095856164331 0
0.6343916393561537 0.7256847103538191 0
0.582451004021628 0.7208717016955942 0
0.5357564632616345 0.6976205831308534 0
0.5006143735491927 0.6590715470606603 0
0.4817708688290096 0.6104308544138777 0
0.4817708688290099 0.558267700259836 0
0.5006143735491936 0.5096270076130537 0
0.5357564632616356 0.4710779715428612 0
0.582451004021629 0.4478268529781209 0
0.6343916393561545 0.4430138443198964 0
0.6845634986502884 0.4572889690572826 0
0.7261905942944882 0.4887242924932985 0
0.7536509563583053 0.5330743000087701 0
2 2 0 26
58
59
60
61
62
63
64
65
66
67
68
69
70
71
72
73
74
75
76
77
78
79
80
81
82
83
0.6147254086708852 0.4863542175667271 0
0.612589509455548 0.6782962963363037 0
0.5223879631442663 0.5803071809147817 0
0.7140380006255085 0.5670126026977645 0
0.5515698629336039 0.5207864320110039 0
0.7015125421599674 0.6340178872782971 0
0.6786277540660521 0.5035197641244583 0
0.5515698629336033 0.6479121226627106 0
0.5195794504051424 0.5449444701619042 0
0.5783278329780631 0.4941065540610601 0
0.6511465706989714 0.6892667261051135 0
0.6501800033891645 0.6419152416122365 0
0.5974231703929381 0.6344434687489494 0
0.6269780872281606 0.5924816732311875 0
0.571003436047727 0.5942823923571415 0
0.5990955387725877 0.5393079355534741 0
0.658448448738492 0.5508639023343644 0
0.6784070121949202 0.59752406087539 0
0.574349092098165 0.6788490423994029 0
0.6511465706989721 0.4794318285686019 0
0.7285192292616135 0.6043929627579666 0
0.5254693009007598 0.6184008194818343 0
0.6854596401691659 0.671368543701473 0
0.7061911508165692 0.5286389723317312 0
0.6404797271215397 0.5142301376146816 0
0.5535131630449301 0.5567966716995754 0
2 3 0 159
84
85
86
87
88
89
90
91
92
93
94
95
96
97
98
99
100
101
102
103
104
105
106
107
108
109
110
111
112
113
114
115
116
117
118
119
120
121
122
123
124
125
126
127
128
129
130
131
132
133
134
135
136
137
138
139
140
141
142
143
144
145
146
147
148
149
150
151
152
153
154
155
156
157
158
159
160
161
162
163
164
165
166
167
168
169
170
171
172
173
174
175
176
177
178
179
180
181
182
183
184
185
186
187
188
189
190
191
192
193
194
195
196
197
198
199
200
201
202
203
204
205
206
207
208
209
210
211
212
213
214
215
216
217
218
219
220
221
222
223
224
225
226
227
228
229
230
231
232
233
234
235
236
237
238
239
240
241
242
0.4855842454757354 0.4556866566765011 0
0.4451819346768828 0.6463368292313849 0
0.6718401896679895 0.4067013019847713 0
0.08848719967723173 0.3504889958005387 0
0.3525097720263061 0.07657602790795015 0
0.09146645565695233 0.5616137238390905 0
0.07931337134818228 0.7515454548712244 0
0.5517200103473489 0.08359136642404352 0
0.7333360420160162 0.7332364046874794 0
0.7431749148476294 0.09527507155838627 0
0.5387778820225816 0.7521856107783575 0
0.3489624547238959 0.9247036206207099 0
0.7800442703238425 0.4861100649444792 0
0.9254215215986057 0.2504283701316023 0
0.8045113751433333 0.6193990694107976 0
0.6417298931132362 0.9284505659795528 0
0.912853479035926 0.752611304957264 0
0.07812394919694893 0.1433469645278376 0
0.4499473128261705 0.5072247523012289 0
0.4217298029399373 0.4594852299051747 0
0.4503518389563276 0.4059854849003935 0
0.3912971017434791 0.5117375583286311 0
0.3883830809389844 0.4093679594710911 0
0.4195066236996324 0.3535303009888998 0
0.3524199111961664 0.3549526522243295 0
0.4832369208338225 0.3520489833968251 0
0.3205009823246793 0.4161150143641034 0
0.4531028851632009 0.2952673847979664 0
0.5229119995319864 0.2953216673926517 0
0.2832372663113986 0.3588481254935904 0
0.3158145038017712 0.2912826566143571 0
0.2504499193066405 0.426520651077943 0
0.2301162348235247 0.2986018377824299 0
0.4870413809762543 0.2320950263553938 0
0.5603977613521638 0.2323594270088535 0
0.5979620437452772 0.2960904641991042 0
0.6346493235387898 0.2334280973286169 0
0.6848117698581293 0.7624455536805255 0
0.7412930647649554 0.7919747113360952 0
0.6402927882354372 0.7873892155094324 0
0.8321692130940423 0.9082309675372108 0
0.4917274271209145 0.7256028851161667 0
0.492077595404383 0.7856496321367951 0
0.4270083573061377 0.750594016913412 0
0.8103209951591059 0.5221102664280547 0
0.8403091332883653 0.4778357508972811 0
0.8020741548768417 0.4276526568078214 0
0.6731134118914095 0.2974363804994455 0
0.7081684716829768 0.2357395893226056 0
0.7422458164683856 0.3017946131369308 0
0.8010096712582143 0.6789657803266942 0
0.1549521083625323 0.9052727871884997 0
0.2741220780875427 0.2224406751701886 0
0.4339071669469057 0.5936804080351785 0
0.3903820710943448 0.6267453097195008 0
0.855646058844904 0.6581135607154875 0
0.2903928944192465 0.482420831552781 0
0.60448651420571 0.4029839606646457 0
0.3623866449185533 0.2166811623511312 0
0.2154308813203627 0.4945790496126198 0
0.2623464406863339 0.5588146270905326 0
0.8622949437655112 0.5371041160888861 0
0.548605841066764 0.8154054988234147 0
0.4969334589136342 0.8579381502529243 0
0.7759010909209365 0.2276009723601484 0
0.8697562810348678 0.4181182575786179 0
0.8351293743036704 0.3608954967981346 0
0.6726151940922334 0.1679475929326603 0
0.5439178784216148 0.4231081533211741 0
0.790545162350446 0.7440523700562324 0
0.1885983188542361 0.2252364184317968 0
0.2299909890893581 0.1477788073319105 0
0.4004990963145177 0.6858563698829364 0
0.3390072138397866 0.6623092326805854 0
0.3525626033338004 0.7299759467466636 0
0.2823996947201468 0.7027318210932311 0
0.292801430681297 0.7764349093373611 0
0.220803483966267 0.7478415648111019 0
0.2135120587222722 0.6701676639613284 0
0.1677462677560821 0.4216037541131018 0
0.8093996337350731 0.8190660166521242 0
0.7517234522562537 0.8615802462581619 0
0.2322112174958813 0.8319569079441794 0
0.3675192696209672 0.7989698847452344 0
0.7171402952394664 0.4124947021757399 0
0.3308544949144105 0.5986220155141949 0
0.5560544933598526 0.3604201455607421 0
0.5618458469270893 0.8817359129725493 0
0.181011850488647 0.5620066872857311 0
0.4490162381179211 0.08900712841130354 0
0.07892215228248678 0.6628879110798661 0
0.9198295303184923 0.3492905506074595 0
0.8879698556585277 0.8261899839446054 0
0.6890189030368215 0.8224978241284102 0
0.8491260510134178 0.0968514512448071 0
0.08945334198769928 0.2447461592380142 0
0.2582313890760196 0.9183746958687351 0
0.6444649008622814 0.0861093313962748 0
0.4386540209451081 0.9181152754681401 0
0.7048222922783393 0.3603303312280642 0
0.08152071715659903 0.4588019760153181 0
0.07698010784270271 0.8466716407223813 0
0.9265043898142447 0.1535393247812125 0
0.634713157524763 0.3539937640227955 0
0.5186275541261559 0.1635948095142424 0
0.1714457068233196 0.3451576606373983 0
0.4389993100943996 0.173327201663185 0
0.1544559836720868 0.08267890265216848 0
0.2753728232499339 0.6326753789406164 0
0.152861091272301 0.79965220539029 0
0.5970791240531622 0.1611717707674486 0
0.3874590433176238 0.2917876620234304 0
0.7981237887575708 0.1552926981665289 0
0.9225754013387204 0.6377899572805763 0
0.4346290989714497 0.8260193526575784 0
0.3132625538738065 0.8483148594590214 0
0.7667729090301127 0.3788601943894078 0
0.6234209385131227 0.841300727850236 0
0.3131984226402913 0.1496104104143819 0
0.8401146664590862 0.713000351463579 0
0.9054883058226988 0.4852157512795949 0
0.1492098309438425 0.7136063685130566 0
0.8581022201732234 0.593626149830277 0
0.9251605840122933 0.565342859783573 0
0.3831964791459332 0.5690765911560252 0
0.3363932773983559 0.5323557182608811 0
0.588242934652803 0.7722009921570838 0
0.3581161899607804 0.4685803853137771 0
0.1474352344757286 0.4997210381731723 0
0.2706060280023402 0.07470564456436402 0
0.7453541380322686 0.9361260654881098 0
0.4257978528940064 0.2418316874382214 0
0.5091466902783149 0.9198491354504912 0
0.848611355896058 0.7729349946922206 0
0.9247854521900674 0.9042966198288137 0
0.808293291635402 0.2945242270892402 0
0.4504553048895628 0.6967201328871073 0
0.8507709779713074 0.2107828690100545 0
0.9267949192431117 0.07320508075688797 0
0.7395966920602695 0.1763711848680659 0
0.07320508075688797 0.9267949192431122 0
0.07053927620399436 0.07068472266565157 0
0.1481245165600659 0.1687574504363455 0
0.1510283856886924 0.2841346454224258 0
0.3806054796270455 0.8632245985901368 0
0.8994137331115977 0.6931845546689409 0
0.9382885376632452 0.4270459914799586 0
0.1563732307851424 0.6289482113304832 0
0.7498862919544769 0.4506740511491785 0
0.5019468098671069 0.3993857822707543 0
0.3832220775594943 0.1410403861495904 0
0.2224526895138348 0.6052591624755026 0
0.7628313028954999 0.7017179311372708 0
0.4280237858982997 0.54799740201618 0
0.562544486063728 0.9460071228805187 0
0.806910189427128 0.5701724982461007 0
0.22422961101269 0.37126554303348 0
0.6958996045464794 0.8812120310399103 0
0.8720267120589744 0.2972430392968423 0
$EndNodes
$Elements
6 482 1 482
1 1 1 10
1 1 6 
2 6 7 
3 7 8 
4 8 9 
5 9 10 
6 10 11 
7 11 12 
8 12 13 
9 13 14 
10 14 2 
1 2 1 10
11 3 15 
12 15 16 
13 16 17 
14 17 18 
15 18 19 
16 19 20 
17 20 21 
18 21 22 
19 22 23 
20 23 1 
1 3 1 10
21 2 24 
22 24 25 
23 25 26 
24 26 27 
25 27 28 
26 28 29 
27 29 30 
28 30 31 
29 31 32 
30 32 4 
1 4 1 10
31 4 33 
32 33 34 
33 34 35 
34 35 36 
35 36 37 
36 37 38 
37 38 39 
38 39 40 
39 40 41 
40 41 3 
2 2 2 67
41 65 79 72 
42 72 79 60 
43 67 73 62 
44 58 73 67 
45 65 72 70 
46 74 81 61 
47 64 81 74 
48 61 75 74 
49 69 75 63 
50 73 83 62 
51 48 65 47 
52 46 59 45 
53 52 62 51 
54 50 60 49 
55 54 58 53 
56 5 61 57 
57 43 63 42 
58 56 64 55 
59 63 80 69 
60 72 73 71 
61 71 75 69 
62 70 72 71 
63 70 71 69 
64 73 74 71 
65 72 83 73 
66 61 78 75 
67 59 76 70 
68 70 76 65 
69 75 78 63 
70 59 70 69 
71 69 80 68 
72 74 75 71 
73 58 82 73 
74 59 69 68 
75 43 80 63 
76 65 76 47 
77 51 66 50 
78 48 79 65 
79 5 78 61 
80 52 67 62 
81 50 66 60 
82 61 81 57 
83 45 68 44 
84 47 76 46 
85 46 76 59 
86 49 79 48 
87 42 78 5 
88 60 79 49 
89 53 67 52 
90 63 78 42 
91 54 77 58 
92 55 77 54 
93 59 68 45 
94 64 77 55 
95 56 81 64 
96 62 66 51 
97 58 67 53 
98 57 81 56 
99 44 80 43 
100 73 82 74 
101 60 83 72 
102 74 82 64 
103 68 80 44 
104 77 82 58 
105 64 82 77 
106 66 83 60 
107 62 83 66 
2 3 2 375
108 124 165 164 
109 170 187 141 
110 119 187 170 
111 172 231 89 
112 151 181 93 
113 31 218 176 
114 135 193 166 
115 163 184 87 
116 127 158 156 
117 28 207 204 
118 204 207 145 
119 124 214 165 
120 166 180 135 
121 32 218 31 
122 89 231 174 
123 91 188 173 
124 93 223 151 
125 164 176 124 
126 87 189 163 
127 127 167 158 
128 179 226 154 
129 33 218 4 
130 31 176 100 
131 191 213 155 
132 188 190 173 
133 7 213 191 
134 119 170 112 
135 93 181 12 
136 47 125 48 
137 133 219 200 
138 87 184 20 
139 144 209 169 
140 44 121 45 
141 27 175 26 
142 185 193 135 
143 112 170 109 
144 146 210 201 
145 26 175 97 
146 201 210 123 
147 181 194 91 
148 102 103 84 
149 4 218 32 
150 156 220 127 
151 125 220 48 
152 148 221 219 
153 51 102 84 
154 84 152 52 
155 91 173 10 
156 85 138 137 
157 221 242 219 
158 85 137 49 
159 178 221 196 
160 54 141 86 
161 89 174 18 
162 139 206 197 
163 169 192 144 
164 53 152 141 
165 101 226 179 
166 152 170 141 
167 141 187 86 
168 182 198 147 
169 140 211 209 
170 121 123 45 
171 45 210 46 
172 135 180 40 
173 36 99 35 
174 99 241 214 
175 55 232 56 
176 209 211 105 
177 186 221 178 
178 183 187 131 
179 13 178 93 
180 133 183 131 
181 200 219 150 
182 31 100 30 
183 42 236 43 
184 21 179 87 
185 34 124 33 
186 151 194 181 
187 57 239 5 
188 9 173 88 
189 39 95 38 
190 17 174 90 
191 99 214 35 
192 84 233 152 
193 153 236 134 
194 100 229 30 
195 190 215 142 
196 170 233 109 
197 154 227 179 
198 11 91 10 
199 13 93 12 
200 133 200 183 
201 19 89 18 
202 17 90 16 
203 9 88 8 
204 29 207 28 
205 140 209 144 
206 21 87 20 
207 152 233 170 
208 48 220 85 
209 145 239 128 
210 34 214 124 
211 131 187 119 
212 10 173 9 
213 118 119 112 
214 18 174 17 
215 26 97 25 
216 101 179 22 
217 14 178 13 
218 50 237 102 
219 22 179 21 
220 204 230 28 
221 165 177 122 
222 86 187 183 
223 91 194 188 
224 120 131 119 
225 39 180 95 
226 137 237 50 
227 38 182 37 
228 41 135 40 
229 30 229 197 
230 95 182 38 
231 171 201 99 
232 158 167 160 
233 123 210 45 
234 200 232 168 
235 11 181 91 
236 90 185 16 
237 23 101 22 
238 12 181 11 
239 142 234 190 
240 140 144 143 
241 166 199 180 
242 206 207 197 
243 99 238 171 
244 27 230 175 
245 40 180 39 
246 20 184 19 
247 110 140 115 
248 157 192 169 
249 19 184 89 
250 168 232 55 
251 97 186 25 
252 25 186 24 
253 182 228 198 
254 16 185 15 
255 118 120 119 
256 175 242 97 
257 174 205 90 
258 103 104 84 
259 122 177 121 
260 132 133 131 
261 142 195 114 
262 124 218 33 
263 136 142 114 
264 102 105 103 
265 159 192 157 
266 178 196 93 
267 110 211 140 
268 206 239 145 
269 107 109 104 
270 134 236 42 
271 140 143 115 
272 179 227 87 
273 130 232 200 
274 161 162 159 
275 120 132 131 
276 144 172 143 
277 51 84 52 
278 85 156 138 
279 48 85 49 
280 111 112 109 
281 134 203 153 
282 128 239 57 
283 172 235 231 
284 8 213 7 
285 54 86 55 
286 177 241 201 
287 50 102 51 
288 117 118 112 
289 52 152 53 
290 7 191 6 
291 53 141 54 
292 154 155 136 
293 49 137 50 
294 157 169 138 
295 117 190 188 
296 28 230 27 
297 180 199 95 
298 36 238 99 
299 146 201 171 
300 106 110 108 
301 110 115 113 
302 2 222 14 
303 24 222 2 
304 113 114 108 
305 143 163 115 
306 6 225 1 
307 89 212 172 
308 3 224 41 
309 15 224 3 
310 116 154 136 
311 182 216 37 
312 43 92 44 
313 1 225 23 
314 116 136 114 
315 167 199 160 
316 106 107 104 
317 120 151 132 
318 107 111 109 
319 127 198 167 
320 46 94 47 
321 173 234 88 
322 103 106 104 
323 160 161 159 
324 56 96 57 
325 132 148 133 
326 111 117 112 
327 160 166 161 
328 164 217 176 
329 117 188 118 
330 110 113 108 
331 160 199 166 
332 113 116 114 
333 162 192 159 
334 155 226 191 
335 90 193 185 
336 126 198 127 
337 106 108 107 
338 158 160 159 
339 5 98 42 
340 104 233 84 
341 158 159 157 
342 126 127 125 
343 105 211 103 
344 208 209 105 
345 87 227 189 
346 155 213 202 
347 189 227 116 
348 96 130 129 
349 94 125 47 
350 166 193 161 
351 130 150 149 
352 86 168 55 
353 156 157 138 
354 163 212 184 
355 155 202 136 
356 30 197 29 
357 94 146 126 
358 103 211 106 
359 92 153 122 
360 164 165 122 
361 156 158 157 
362 176 217 100 
363 92 121 44 
364 118 194 120 
365 116 227 154 
366 150 175 149 
367 188 194 118 
368 201 241 99 
369 196 223 93 
370 88 213 8 
371 121 177 123 
372 147 198 126 
373 94 126 125 
374 146 171 147 
375 114 195 108 
376 147 216 182 
377 86 183 168 
378 120 194 151 
379 98 134 42 
380 96 128 57 
381 117 215 190 
382 153 164 122 
383 97 242 221 
384 138 208 137 
385 142 215 195 
386 202 213 88 
387 146 147 126 
388 193 205 161 
389 92 122 121 
390 107 195 111 
391 231 235 162 
392 108 195 107 
393 130 149 129 
394 136 202 142 
395 95 228 182 
396 127 220 125 
397 143 212 163 
398 129 145 128 
399 161 205 162 
400 169 208 138 
401 35 214 34 
402 163 240 115 
403 96 129 128 
404 130 200 150 
405 190 234 173 
406 189 240 163 
407 100 217 203 
408 186 222 24 
409 98 139 134 
410 184 212 89 
411 185 224 15 
412 177 201 123 
413 106 211 110 
414 196 221 148 
415 14 222 178 
416 116 240 189 
417 37 238 36 
418 174 231 205 
419 113 240 116 
420 96 232 130 
421 41 224 135 
422 90 205 193 
423 172 212 143 
424 178 222 186 
425 176 218 124 
426 109 233 104 
427 105 237 208 
428 97 221 186 
429 132 223 148 
430 183 200 168 
431 23 225 101 
432 135 224 185 
433 197 229 139 
434 98 206 139 
435 148 223 196 
436 46 210 94 
437 195 215 111 
438 203 229 100 
439 111 215 117 
440 94 210 146 
441 92 236 153 
442 169 209 208 
443 85 220 156 
444 165 241 177 
445 139 203 134 
446 167 228 199 
447 148 219 133 
448 149 204 129 
449 191 226 101 
450 129 204 145 
451 202 234 142 
452 154 226 155 
453 102 237 105 
454 175 230 149 
455 150 242 175 
456 151 223 132 
457 214 241 165 
458 101 225 191 
459 191 225 6 
460 144 235 172 
461 192 235 144 
462 145 207 206 
463 171 216 147 
464 197 207 29 
465 216 238 37 
466 153 217 164 
467 98 239 206 
468 162 235 192 
469 115 240 113 
470 199 228 95 
471 219 242 150 
472 56 232 96 
473 43 236 92 
474 205 231 162 
475 203 217 153 
476 198 228 167 
477 5 239 98 
478 208 237 137 
479 149 230 204 
480 88 234 202 
481 139 229 203 
482 171 238 216 
$EndElements
