$MeshFormat
4.1 0 8
$EndMeshFormat
$PhysicalNames
3
1 101 "outer_boundary"
2 1 "material_1"
2 2 "material_2"
$EndPhysicalNames
$Entities
5 5 2 0
1 0 0 0 0 
2 1 0 0 0 
3 0 1 0 0 
4 1 1 0 0 
5 0.8392915760865219 0.22345970129357 0 0 
1 -9.999999994736442e-08 -1e-07 -1e-07 1.0000001 1e-07 1e-07 1 101 2 1 -2 
2 -1e-07 -9.999999994736442e-08 -1e-07 1e-07 1.0000001 1e-07 1 101 2 3 -1 
3 0.9999999000000001 -9.999999994736442e-08 -1e-07 1.0000001 1.0000001 1e-07 1 101 2 2 -4 
4 -9.999999994736442e-08 0.9999999000000001 -1e-07 1.0000001 1.0000001 1e-07 1 101 2 4 -3 
5 0.6262868364288543 0.1169572814647362 -1e-07 0.8392916760865219 0.3299621211224039 1e-07 0 2 5 -5 
2 0.6262868364288543 0.1169572814647362 -1e-07 0.8392916760865219 0.3299621211224039 1e-07 1 2 1 5 
3 -9.999999994736442e-08 -9.999999994736442e-08 -1e-07 1.0000001 1.0000001 1e-07 1 1 5 1 3 4 2 -5 
$EndEntities
$Nodes
12 135 1 135
0 1 0 1
1
0 0 0
0 2 0 1
2
1 0 0
0 3 0 1
3
0 1 0
0 4 0 1
4
1 1 0
0 5 0 1
5
0.8392915760865219 0.22345970129357 0
1 1 0 7
6
7
8
9
10
11
12
0.1249999999999999 0 0
0.2499999999999998 0 0
0.3749999999999993 0 0
0.4999999999999988 0 0
0.6249999999999988 0 0
0.7499999999999991 0 0
0.8749999999999997 0 0
1 2 0 7
13
14
15
16
17
18
19
0 0.8750000000000001 0
0 0.7500000000000002 0
0 0.6250000000000007 0
0 0.5000000000000012 0
0 0.3750000000000012 0
0 0.2500000000000009 0
0 0.1250000000000003 0
1 3 0 7
20
21
22
23
24
25
26
1 0.1249999999999999 0
1 0.2499999999999998 0
1 0.3749999999999993 0
1 0.4999999999999988 0
1 0.6249999999999988 0
1 0.7499999999999991 0
1 0.8749999999999997 0
1 4 0 7
27
28
29
30
31
32
33
0.8750000000000001 1 0
0.7500000000000002 1 0
0.6250000000000007 1 0
0.5000000000000012 1 0
0.3750000000000012 1 0
0.2500000000000009 1 0
0.1250000000000003 1 0
1 5 0 9
34
35
36
37
38
39
40
41
42
0.8189514429395707 0.2860601942238947 0
0.7657002830251539 0.3247494265673329 0
0.6998782294902227 0.3247494265673331 0
0.6466270695758058 0.2860601942238951 0
0.6262869364288542 0.2234597012935704 0
0.6466270695758054 0.1608592083632455 0
0.6998782294902224 0.1221699760198071 0
0.7657002830251536 0.122169976019807 0
0.8189514429395706 0.1608592083632452 0
2 2 0 5
43
44
45
46
47
0.7046968832464866 0.2562737013372714 0
0.7515953778506389 0.1914712708009244 0
0.7596312498855897 0.267446746995499 0
0.6890570067516701 0.1927681373438446 0
0.7902926618931256 0.2252278844888299 0
2 3 0 88
48
49
50
51
52
53
54
55
56
57
58
59
60
61
62
63
64
65
66
67
68
69
70
71
72
73
74
75
76
77
78
79
80
81
82
83
84
85
86
87
88
89
90
91
92
93
94
95
96
97
98
99
100
101
102
103
104
105
106
107
108
109
110
111
112
113
114
115
116
117
118
119
120
121
122
123
124
125
126
127
128
129
130
131
132
133
134
135
0.432360501915701 0.8976650077784509 0
0.1060097949511757 0.4488965685141132 0
0.8932415840128483 0.6852918650588419 0
0.3201163795918778 0.09678941464279761 0
0.08721101701811806 0.6651573978095296 0
0.6857611578840457 0.8889638004962594 0
0.9028164860731109 0.427244045765973 0
0.1056564667127233 0.1880062047703635 0
0.188893166358629 0.9055002603924636 0
0.8872506517333858 0.1593569680588639 0
0.879576854934772 0.2804073387644816 0
0.9012407894404804 0.5604965835228688 0
0.7920546475825467 0.610373135405317 0
0.786018961963129 0.7323420421037707 0
0.693909248245514 0.6761789099963124 0
0.6879473424029847 0.5780204646501093 0
0.6054521208858987 0.6254471863618557 0
0.6060667307650923 0.5372464033464137 0
0.5226125937663232 0.5769449247753664 0
0.5342120743100237 0.4787077482396669 0
0.5822433858352407 0.2723750197803507 0
0.441405554951828 0.5285794311841057 0
0.4499897222837942 0.4356470972637523 0
0.4375378332831981 0.6264707131661653 0
0.3503234409524292 0.5770816209624156 0
0.718324030847419 0.3782242164497807 0
0.5630998574831004 0.2054794324865415 0
0.3475646791929533 0.6805288253837951 0
0.5034957539104072 0.2637187603868699 0
0.6397467914706785 0.3515216676624867 0
0.6005145482950869 0.7302057161521462 0
0.4741562433764089 0.1801992747923901 0
0.4053863852205577 0.2597942240936358 0
0.5567130944348828 0.3477257189219775 0
0.6662533022479857 0.4267601623082907 0
0.7367136393070139 0.4585237910521001 0
0.4375247486252221 0.7258246489898417 0
0.5717633891136152 0.1247056671663093 0
0.2598779022663469 0.6259520743731682 0
0.2726953280403607 0.5223361663779441 0
0.2530036346630153 0.7357525553258386 0
0.8011201167762769 0.383201457445202 0
0.1627489490485551 0.5670466408790632 0
0.1063734395451413 0.3135988393213476 0
0.2060759973816595 0.2492744881988154 0
0.205688021794553 0.366133803398079 0
0.5577517451950098 0.9028809552174628 0
0.3087753251221028 0.8996547047054781 0
0.879375978679404 0.8092401132519216 0
0.3021927520616405 0.3116549853126225 0
0.8205837533449678 0.0855811750077623 0
0.6413584777862968 0.08733857733983241 0
0.2860753540423825 0.4182467457979017 0
0.8099015356483072 0.9042309728897494 0
0.3575345225837553 0.794164636905802 0
0.8662211456073321 0.34260007208929 0
0.1986512069273363 0.115107508172774 0
0.8213384571667456 0.5004292164079471 0
0.132749451505777 0.7931638916399537 0
0.4678208909870482 0.3465816046543455 0
0.5172047140371744 0.6830276071958932 0
0.6875585163393947 0.7835537709640037 0
0.9155029259674947 0.08257279031281761 0
0.5881057680417071 0.4129654175920771 0
0.4150951474053917 0.09531772779640396 0
0.6776699905373922 0.4995687193986149 0
0.5002852788049064 0.8029405197234089 0
0.304778421040228 0.2061423327611788 0
0.3795790739506525 0.3658526862723159 0
0.3627115755091217 0.4833940327228654 0
0.905613444246921 0.9049735211813941 0
0.5171948831859209 0.4050185526638374 0
0.7484536411751054 0.5297085933860468 0
0.5008163254978735 0.09644090302982533 0
0.717086790607773 0.06954328406453486 0
0.09150635094610987 0.09150635094610998 0
0.08932852357288129 0.9147328304064835 0
0.9367496025600384 0.3220179889327824 0
0.2030163294687539 0.4618314430294729 0
0.6063742493036887 0.8217089525106562 0
0.06760127330729893 0.5625000000000009 0
0.2499407081554431 0.8262163675039766 0
0.382993245424237 0.1687281727513049 0
0.6144615731804403 0.4710496901770126 0
0.923811447552453 0.226706999508283 0
0.5677876384795566 0.06169702950719336 0
0.1791181909003625 0.6774145120055106 0
0.7658687631900349 0.8227396478652701 0
$EndNodes
$Elements
6 268 1 268
1 1 1 8
1 1 6 
2 6 7 
3 7 8 
4 8 9 
5 9 10 
6 10 11 
7 11 12 
8 12 2 
1 2 1 8
9 3 13 
10 13 14 
11 14 15 
12 15 16 
13 16 17 
14 17 18 
15 18 19 
16 19 1 
1 3 1 8
17 2 20 
18 20 21 
19 21 22 
20 22 23 
21 23 24 
22 24 25 
23 25 26 
24 26 4 
1 4 1 8
25 4 27 
26 27 28 
27 28 29 
28 29 30 
29 30 31 
30 31 32 
31 32 33 
32 33 3 
2 2 2 18
33 44 45 43 
34 38 46 43 
35 44 46 40 
36 43 46 44 
37 41 44 40 
38 38 43 37 
39 36 45 35 
40 43 45 36 
41 44 47 45 
42 40 46 39 
43 39 46 38 
44 42 44 41 
45 37 43 36 
46 5 47 42 
47 42 47 44 
48 34 47 5 
49 35 45 34 
50 45 47 34 
2 3 2 218
51 89 105 83 
52 34 89 35 
53 73 77 36 
54 106 134 88 
55 88 129 106 
56 37 77 68 
57 78 114 108 
58 84 114 102 
59 102 114 48 
60 38 74 39 
61 54 105 89 
62 73 82 77 
63 104 115 92 
64 108 114 84 
65 77 81 68 
66 23 59 54 
67 60 120 105 
68 60 105 59 
69 52 134 106 
70 34 103 89 
71 51 115 104 
72 74 85 39 
73 73 89 83 
74 103 125 54 
75 42 98 57 
76 55 104 92 
77 95 102 48 
78 23 54 22 
79 20 132 57 
80 62 63 60 
81 10 122 99 
82 68 81 76 
83 107 116 80 
84 90 128 49 
85 12 98 11 
86 59 105 54 
87 89 103 54 
88 50 60 59 
89 49 126 90 
90 91 93 49 
91 79 85 74 
92 64 65 63 
93 98 122 11 
94 99 122 40 
95 17 91 49 
96 41 122 98 
97 62 64 63 
98 31 95 48 
99 70 117 116 
100 50 59 24 
101 24 59 23 
102 106 129 56 
103 61 62 60 
104 111 131 67 
105 57 110 20 
106 92 93 91 
107 29 94 53 
108 17 49 16 
109 54 125 22 
110 31 48 30 
111 26 96 25 
112 81 107 76 
113 55 92 91 
114 48 94 30 
115 92 97 93 
116 80 116 97 
117 55 91 18 
118 56 95 32 
119 18 91 17 
120 76 107 80 
121 32 95 31 
122 64 66 65 
123 66 67 65 
124 50 61 60 
125 8 51 7 
126 52 128 90 
127 15 52 14 
128 78 127 114 
129 30 94 29 
130 116 117 100 
131 25 50 24 
132 29 53 28 
133 19 55 18 
134 33 56 32 
135 25 96 50 
136 97 100 93 
137 67 119 111 
138 11 122 10 
139 73 83 82 
140 9 112 8 
141 28 101 27 
142 86 87 72 
143 49 128 16 
144 79 121 85 
145 7 104 6 
146 14 106 13 
147 63 120 60 
148 87 126 100 
149 62 78 64 
150 69 70 67 
151 71 84 75 
152 2 110 12 
153 97 115 80 
154 53 101 28 
155 98 110 57 
156 57 132 5 
157 50 96 61 
158 51 104 7 
159 66 69 67 
160 86 90 87 
161 27 118 4 
162 52 106 14 
163 4 118 26 
164 9 121 112 
165 100 126 93 
166 5 132 58 
167 75 86 72 
168 15 128 52 
169 75 88 86 
170 20 110 2 
171 67 131 65 
172 71 75 72 
173 71 72 69 
174 35 73 36 
175 61 109 62 
176 84 102 75 
177 66 71 69 
178 36 77 37 
179 90 134 52 
180 75 102 88 
181 1 123 19 
182 6 123 1 
183 87 117 72 
184 3 124 33 
185 13 124 3 
186 71 108 84 
187 90 126 87 
188 39 99 40 
189 37 68 38 
190 100 117 87 
191 94 127 53 
192 96 135 61 
193 65 113 63 
194 62 109 78 
195 93 126 49 
196 82 111 77 
197 78 108 64 
198 21 132 20 
199 77 111 81 
200 8 112 51 
201 64 108 66 
202 101 135 96 
203 48 114 94 
204 66 108 71 
205 35 89 73 
206 85 99 39 
207 76 80 79 
208 92 115 97 
209 12 110 98 
210 69 117 70 
211 26 118 96 
212 42 57 5 
213 10 133 9 
214 22 125 21 
215 86 134 90 
216 76 79 74 
217 41 98 42 
218 5 58 34 
219 105 120 83 
220 111 119 81 
221 58 132 125 
222 97 116 100 
223 83 113 82 
224 68 74 38 
225 104 123 6 
226 101 118 27 
227 106 124 13 
228 56 129 95 
229 58 103 34 
230 70 116 107 
231 72 117 69 
232 68 76 74 
233 70 119 67 
234 19 123 55 
235 33 124 56 
236 40 122 41 
237 16 128 15 
238 96 118 101 
239 79 130 112 
240 95 129 102 
241 102 129 88 
242 83 120 113 
243 53 127 109 
244 81 119 107 
245 55 123 104 
246 56 124 106 
247 53 135 101 
248 115 130 80 
249 112 121 79 
250 80 130 79 
251 113 120 63 
252 114 127 94 
253 9 133 121 
254 109 127 78 
255 88 134 86 
256 125 132 21 
257 61 135 109 
258 109 135 53 
259 107 119 70 
260 121 133 85 
261 58 125 103 
262 112 130 51 
263 113 131 82 
264 51 130 115 
265 82 131 111 
266 65 131 113 
267 85 133 99 
268 99 133 10 
$EndElements
