$MeshFormat
4.1 0 8
$EndMeshFormat
$PhysicalNames
3
1 101 "outer_boundary"
2 1 "material_1"
2 2 "material_2"
$EndPhysicalNames
$Entities
8 8 2 0
1 0 0 0 0 
2 1 0 0 0 
3 0 1 0 0 
4 1 1 0 0 
5 0.560820137046195 0.4065585418388957 0 0 
6 0.7645297111159807 0.4807122533740497 0 0 
7 0.6903759995808266 0.6844218274438354 0 0 
8 0.486666425511041 0.6102681159086814 0 0 
1 -9.999999994736442e-08 -1e-07 -1e-07 1.0000001 1e-07 1e-07 1 101 2 1 -2 
2 -1e-07 -9.999999994736442e-08 -1e-07 1e-07 1.0000001 1e-07 1 101 2 3 -1 
3 0.9999999000000001 -9.999999994736442e-08 -1e-07 1.0000001 1.0000001 1e-07 1 101 2 2 -4 
4 -9.999999994736442e-08 0.9999999000000001 -1e-07 1.0000001 1.0000001 1e-07 1 101 2 4 -3 
5 0.5608200370461951 0.4065584418388957 -1e-07 0.7645298111159806 0.4807123533740497 1e-07 0 2 5 -6 
6 0.6903758995808267 0.4807121533740497 -1e-07 0.7645298111159806 0.6844219274438353 1e-07 0 2 6 -7 
7 0.486666325511041 0.6102680159086814 -1e-07 0.6903760995808266 0.6844219274438353 1e-07 0 2 7 -8 
8 0.486666325511041 0.4065584418388957 -1e-07 0.560820237046195 0.6102682159086813 1e-07 0 2 8 -5 
2 0.486666325511041 0.4065584418388957 -1e-07 0.7645298111159806 0.6844219274438353 1e-07 1 2 4 5 6 7 8 
3 -9.999999994736442e-08 -9.999999994736442e-08 -1e-07 1.0000001 1.0000001 1e-07 1 1 8 1 3 4 2 -5 -8 -7 -6 
$EndEntities
$Nodes
18 183 1 183
0 1 0 1
1
0 0 0
0 2 0 1
2
1 0 0
0 3 0 1
3
0 1 0
0 4 0 1
4
1 1 0
0 5 0 1
5
0.560820137046195 0.4065585418388957 0
0 6 0 1
6
0.7645297111159807 0.4807122533740497 0
0 7 0 1
7
0.6903759995808266 0.6844218274438354 0
0 8 0 1
8
0.486666425511041 0.6102681159086814 0
1 1 0 7
9
10
11
12
13
14
15
0.1249999999999999 0 0
0.2499999999999998 0 0
0.3749999999999993 0 0
0.4999999999999988 0 0
0.6249999999999988 0 0
0.7499999999999991 0 0
0.8749999999999997 0 0
1 2 0 7
16
17
18
19
20
21
22
0 0.8750000000000001 0
0 0.7500000000000002 0
0 0.6250000000000007 0
0 0.5000000000000012 0
0 0.3750000000000012 0
0 0.2500000000000009 0
0 0.1250000000000003 0
1 3 0 7
23
24
25
26
27
28
29
1 0.1249999999999999 0
1 0.2499999999999998 0
1 0.3749999999999993 0
1 0.4999999999999988 0
1 0.6249999999999988 0
1 0.7499999999999991 0
1 0.8749999999999997 0
1 4 0 7
30
31
32
33
34
35
36
0.8750000000000001 1 0
0.7500000000000002 1 0
0.6250000000000007 1 0
0.5000000000000012 1 0
0.3750000000000012 1 0
0.2500000000000009 1 0
0.1250000000000003 1 0
1 5 0 3
37
38
39
0.6117475305636413 0.4250969697226841 0
0.6626749240810877 0.4436353976064726 0
0.7136023175985342 0.4621738254902612 0
1 6 0 3
40
41
42
0.7459912832321922 0.531639646891496 0
0.7274528553484036 0.5825670404089425 0
0.7089144274646152 0.6334944339263889 0
1 7 0 3
43
44
45
0.6394486060633804 0.6658833995600469 0
0.5885212125459339 0.6473449716762584 0
0.5375938190284875 0.6288065437924699 0
1 8 0 3
46
47
48
0.5052048533948295 0.5593407223912351 0
0.523743281278618 0.5084133288737887 0
0.5422817091624065 0.4574859353563422 0
2 2 0 15
49
50
51
52
53
54
55
56
57
58
59
60
61
62
63
0.670528193945741 0.4951548890589522 0
0.6291107673258759 0.6100495351870401 0
0.5535703176942159 0.5517560892197628 0
0.6216347133659074 0.4774560132139705 0
0.6320355186325408 0.5258611266716422 0
0.6883487348347379 0.543932632564599 0
0.5742365242041649 0.597240071189813 0
0.577210449976796 0.5031978034836171 0
0.68074921266164 0.5958357946692343 0
0.6455318567687347 0.5684494492370927 0
0.7136772004607712 0.5044226218224896 0
0.5845305054946348 0.457411052494105 0
0.5375189361662503 0.5865577474602416 0
0.6668605827996514 0.6339874368932706 0
0.599104092464226 0.5589255398031056 0
2 3 0 120
64
65
66
67
68
69
70
71
72
73
74
75
76
77
78
79
80
81
82
83
84
85
86
87
88
89
90
91
92
93
94
95
96
97
98
99
100
101
102
103
104
105
106
107
108
109
110
111
112
113
114
115
116
117
118
119
120
121
122
123
124
125
126
127
128
129
130
131
132
133
134
135
136
137
138
139
140
141
142
143
144
145
146
147
148
149
150
151
152
153
154
155
156
157
158
159
160
161
162
163
164
165
166
167
168
169
170
171
172
173
174
175
176
177
178
179
180
181
182
183
0.5038451502688407 0.4155792454260578 0
0.4496861109602044 0.5664473236501955 0
0.4334637964578223 0.6239031085305697 0
0.7034974865239988 0.4074568353658475 0
0.3895751518303019 0.574745057883314 0
0.3647059318721764 0.6389247530502785 0
0.528982248502519 0.362207868391054 0
0.4611430250332221 0.3709706961024597 0
0.5506460300669895 0.6761046802381097 0
0.6458273115675995 0.7218823111299051 0
0.09580117630139573 0.3193483668907589 0
0.3158559225167139 0.5828892196621732 0
0.4865260078870757 0.3044588398140479 0
0.5607739740172764 0.3002589570956452 0
0.4104482456552273 0.3179967942080026 0
0.705628295590878 0.7432603358920817 0
0.2880957226930005 0.6569426248696384 0
0.4206377137807403 0.6871013583900626 0
0.3866816094571471 0.390262650880441 0
0.7691166623287751 0.6255888839411869 0
0.4397901451946545 0.2404638083190204 0
0.3521504362366832 0.2565599408555817 0
0.1839698434974099 0.8885099814741653 0
0.8033945931898965 0.5268520526707889 0
0.2362161428199229 0.5935362730713017 0
0.2659401245825805 0.514156702148846 0
0.6868882001124865 0.09113219858226385 0
0.6541769288747825 0.7834293684122465 0
0.9025114129585307 0.3066130636648868 0
0.8282216230035376 0.4621379249116743 0
0.899874390860433 0.8001049215150957 0
0.7222393992709224 0.8293341812880666 0
0.205401891677656 0.6771822515802448 0
0.4216270872109616 0.8976221769701233 0
0.1948472367129925 0.1099011250114114 0
0.2683396316721959 0.7411150083201048 0
0.4127763309628819 0.5196404598393215 0
0.1818954638135335 0.5319002306546884 0
0.2160652728427642 0.4425147201939132 0
0.3848811476193801 0.1696920675168392 0
0.4733118752895754 0.1620228566901957 0
0.7724200931489371 0.7554583735403553 0
0.6023385832985048 0.3717233392461545 0
0.6367109457950475 0.3005280440208905 0
0.5976567241796408 0.2328630862975806 0
0.6795315722066819 0.2351657832929258 0
0.7164698992547838 0.3037732638235445 0
0.7647673602006801 0.23911017959455 0
0.5909831320874339 0.7595991073014414 0
0.59481232430368 0.8315978570885227 0
0.5263192451905613 0.7952769383394908 0
0.8814597813537591 0.5181761252057028 0
0.7684014225147868 0.4262556552594114 0
0.1822024473772683 0.7732403300024093 0
0.8373897325789035 0.5944345167102756 0
0.9016635438970791 0.6807493040538852 0
0.3084152910887745 0.9022318445803618 0
0.360143371686413 0.8016601439778424 0
0.2871307967555689 0.1869710533905166 0
0.266814178991314 0.2747385753344073 0
0.9064260517317229 0.1997755161477374 0
0.7925844621051306 0.0902892207351777 0
0.1090094515820773 0.4457084139924825 0
0.8120597735987238 0.8241589240987495 0
0.9142488782791613 0.4357269839830916 0
0.3102300559774955 0.4333740827207633 0
0.1050627183401501 0.6907188412052356 0
0.5848880384487445 0.08560319343694878 0
0.1090219819859555 0.1990223695511836 0
0.4889080786858767 0.4668948826214788 0
0.4703696508020883 0.5178222761389253 0
0.6875000000000004 0.9122866725240886 0
0.5159656419513982 0.8736816912490522 0
0.4908411918225101 0.671736462313259 0
0.4718048845635376 0.7422504941162662 0
0.7445045325570152 0.6904891962922604 0
0.8127591575593482 0.6737137134849822 0
0.5979301598110706 0.700718602152788 0
0.6653297700761145 0.3571210094278985 0
0.3465628076762112 0.5208855416385597 0
0.3245870623577655 0.0904169903916997 0
0.8040599149415131 0.3119999573748518 0
0.7766690253356342 0.572216428124538 0
0.3268116894374183 0.3383364474392612 0
0.5194785218935768 0.2351155561528896 0
0.3526078660145662 0.7130686662011261 0
0.09355526889197252 0.5677620280746 0
0.3903097857138294 0.4620407373070657 0
0.892978848757541 0.9030366732342843 0
0.4218415373254707 0.0836336468055191 0
0.9241026115659483 0.5836719891939722 0
0.4434674439749773 0.4296935873627301 0
0.2081147884186275 0.2114529379961577 0
0.8444067097518968 0.3828736843382525 0
0.09029934535218131 0.8138451089376211 0
0.7488408447132715 0.3633936235082008 0
0.9024295954877013 0.09793046755211571 0
0.2485226211816339 0.3603361251047437 0
0.2521053749760902 0.8273166586373999 0
0.08890372911531236 0.9105585357407684 0
0.5356493078146415 0.7319857770952518 0
0.4515975091642904 0.8105265922086007 0
0.6005837287114345 0.9110367620806692 0
0.1704316539110356 0.3709078385750335 0
0.6388397191312918 0.1648408863483256 0
0.09150635094610948 0.09150635094610954 0
0.8407272371083817 0.7391301537924203 0
0.6491176589086695 0.4010067102738115 0
0.8413901516638962 0.2495868629381262 0
0.7252613750469584 0.1736552677793864 0
0.7899630036045313 0.9114694085241981 0
0.9152917502473973 0.3750534329965576 0
0.5541680005270491 0.1635703292809699 0
0.6556769337053634 0.8522462642214446 0
0.4113582690419095 0.7509214509787796 0
0.1831177334649938 0.2893010355753808 0
0.1653639796160743 0.6132446825951914 0
0.5015491467382005 0.08792779828861363 0
0.4411662580279307 0.4792183886539043 0
0.8221431660393482 0.1750579191245156 0
$EndNodes
$Elements
6 364 1 364
1 1 1 8
1 1 9 
2 9 10 
3 10 11 
4 11 12 
5 12 13 
6 13 14 
7 14 15 
8 15 2 
1 2 1 8
9 3 16 
10 16 17 
11 17 18 
12 18 19 
13 19 20 
14 20 21 
15 21 22 
16 22 1 
1 3 1 8
17 2 23 
18 23 24 
19 24 25 
20 25 26 
21 26 27 
22 27 28 
23 28 29 
24 29 4 
1 4 1 8
25 4 30 
26 30 31 
27 31 32 
28 32 33 
29 33 34 
30 34 35 
31 35 36 
32 36 3 
2 2 2 44
33 41 54 40 
34 54 59 40 
35 53 63 56 
36 53 56 52 
37 56 63 51 
38 38 52 37 
39 47 51 46 
40 44 50 43 
41 49 52 38 
42 49 53 52 
43 39 49 38 
44 49 54 53 
45 55 63 50 
46 50 63 58 
47 45 55 44 
48 48 56 47 
49 44 55 50 
50 47 56 51 
51 6 59 39 
52 37 60 5 
53 46 61 8 
54 40 59 6 
55 49 59 54 
56 8 61 45 
57 5 60 48 
58 43 62 7 
59 7 62 42 
60 41 57 54 
61 50 58 57 
62 57 62 50 
63 42 57 41 
64 45 61 55 
65 48 60 56 
66 54 58 53 
67 50 62 43 
68 39 59 49 
69 52 60 37 
70 51 61 46 
71 56 60 52 
72 55 61 51 
73 51 63 55 
74 57 58 54 
75 58 63 53 
76 42 62 57 
2 3 2 288
77 4 152 29 
78 119 140 118 
79 30 152 4 
80 42 139 7 
81 121 162 99 
82 83 139 42 
83 120 121 97 
84 126 150 19 
85 118 154 119 
86 74 126 20 
87 66 137 81 
88 101 150 126 
89 39 116 6 
90 99 149 121 
91 77 106 70 
92 67 116 39 
93 115 128 26 
94 98 144 122 
95 34 120 97 
96 26 154 115 
97 86 158 117 
98 94 119 28 
99 116 159 157 
100 72 164 137 
101 120 162 121 
102 70 106 5 
103 8 137 66 
104 29 152 94 
105 77 107 106 
106 105 170 127 
107 136 166 33 
108 137 138 81 
109 20 126 19 
110 74 167 126 
111 25 175 92 
112 25 92 24 
113 129 143 89 
114 10 144 98 
115 29 94 28 
116 118 140 83 
117 136 165 114 
118 92 124 24 
119 129 151 143 
120 28 119 27 
121 139 140 105 
122 86 120 35 
123 127 174 95 
124 14 90 13 
125 34 97 33 
126 95 174 135 
127 26 128 25 
128 128 175 25 
129 127 170 94 
130 14 125 90 
131 21 74 20 
132 36 86 35 
133 129 147 82 
134 33 166 32 
135 94 170 119 
136 157 159 145 
137 35 120 34 
138 83 140 139 
139 142 159 67 
140 117 162 86 
141 137 164 138 
142 90 131 13 
143 119 154 27 
144 18 130 17 
145 24 124 23 
146 21 132 74 
147 10 98 9 
148 13 131 12 
149 97 136 33 
150 135 177 95 
151 102 129 89 
152 15 125 14 
153 121 165 97 
154 122 156 98 
155 19 150 18 
156 97 165 136 
157 22 132 21 
158 109 110 107 
159 2 160 15 
160 117 158 130 
161 82 147 78 
162 23 160 2 
163 83 146 118 
164 130 158 17 
165 86 163 158 
166 82 151 129 
167 30 174 152 
168 85 123 122 
169 116 157 93 
170 31 174 30 
171 107 142 106 
172 141 164 72 
173 110 142 107 
174 132 179 74 
175 78 147 85 
176 16 163 3 
177 80 99 96 
178 3 163 36 
179 48 64 5 
180 101 102 89 
181 133 155 64 
182 131 181 12 
183 8 65 46 
184 92 172 124 
185 46 134 47 
186 32 135 31 
187 47 133 48 
188 140 170 105 
189 9 169 1 
190 1 169 22 
191 27 154 26 
192 88 89 75 
193 18 150 130 
194 111 145 110 
195 110 159 142 
196 68 100 65 
197 125 173 90 
198 103 104 84 
199 11 144 10 
200 86 162 120 
201 76 148 77 
202 71 82 78 
203 64 155 71 
204 44 72 45 
205 85 147 123 
206 43 141 44 
207 79 105 95 
208 101 126 102 
209 66 81 69 
210 93 157 128 
211 7 73 43 
212 77 108 107 
213 38 67 39 
214 79 139 105 
215 84 148 76 
216 124 183 160 
217 45 137 8 
218 108 109 107 
219 99 117 96 
220 12 153 11 
221 80 149 99 
222 67 159 116 
223 109 111 110 
224 113 114 112 
225 89 143 75 
226 7 139 79 
227 149 178 121 
228 117 130 96 
229 85 122 103 
230 161 179 123 
231 88 101 89 
232 80 96 88 
233 5 106 37 
234 91 112 73 
235 122 144 103 
236 69 80 75 
237 41 83 42 
238 115 118 87 
239 76 77 70 
240 80 88 75 
241 69 75 68 
242 64 70 5 
243 124 160 23 
244 48 133 64 
245 40 146 41 
246 65 134 46 
247 78 85 84 
248 156 179 132 
249 160 183 125 
250 99 162 117 
251 66 69 68 
252 47 134 133 
253 85 103 84 
254 90 168 131 
255 167 179 161 
256 112 164 141 
257 100 134 65 
258 7 79 73 
259 68 143 100 
260 64 71 70 
261 94 152 127 
262 15 160 125 
263 6 87 40 
264 17 158 16 
265 8 66 65 
266 36 163 86 
267 78 84 76 
268 71 78 76 
269 155 182 151 
270 66 68 65 
271 126 167 102 
272 71 76 70 
273 98 156 132 
274 104 148 84 
275 145 159 110 
276 113 136 114 
277 118 146 87 
278 123 156 122 
279 71 155 82 
280 77 148 108 
281 75 143 68 
282 112 141 73 
283 6 116 93 
284 81 149 69 
285 22 169 132 
286 103 153 104 
287 69 149 80 
288 129 161 147 
289 143 151 100 
290 91 113 112 
291 81 178 149 
292 44 141 72 
293 105 127 95 
294 98 169 9 
295 144 153 103 
296 151 182 100 
297 72 137 45 
298 73 141 43 
299 79 91 73 
300 114 165 138 
301 115 154 118 
302 132 169 98 
303 130 180 96 
304 114 164 112 
305 102 161 129 
306 79 95 91 
307 93 128 115 
308 82 155 151 
309 104 181 176 
310 67 171 142 
311 6 93 87 
312 92 157 145 
313 38 171 67 
314 37 171 38 
315 41 146 83 
316 142 171 106 
317 101 180 150 
318 88 180 101 
319 147 161 123 
320 106 171 37 
321 93 115 87 
322 150 180 130 
323 138 164 114 
324 87 146 40 
325 125 183 173 
326 152 174 127 
327 12 181 153 
328 176 181 131 
329 108 168 109 
330 119 170 140 
331 32 166 135 
332 11 153 144 
333 145 172 92 
334 111 172 145 
335 138 178 81 
336 113 166 136 
337 135 174 31 
338 158 163 16 
339 113 177 166 
340 133 182 155 
341 168 173 109 
342 91 177 113 
343 96 180 88 
344 109 173 111 
345 102 167 161 
346 168 176 131 
347 148 176 108 
348 108 176 168 
349 104 176 148 
350 123 179 156 
351 95 177 91 
352 165 178 138 
353 153 181 104 
354 134 182 133 
355 173 183 111 
356 90 173 168 
357 166 177 135 
358 157 175 128 
359 100 182 134 
360 92 175 157 
361 121 178 165 
362 172 183 124 
363 74 179 167 
364 111 183 172 
$EndElements
