$MeshFormat
4.1 0 8
$EndMeshFormat
$PhysicalNames
3
1 101 "outer_boundary"
2 1 "material_1"
2 2 "material_2"
$EndPhysicalNames
$Entities
5 5 2 0
1 0 0 0 0 
2 1 0 0 0 
3 0 1 0 0 
4 1 1 0 0 
5 0.7124120059014086 0.3462735055130747 0 0 
1 -9.999999994736442e-08 -1e-07 -1e-07 1.0000001 1e-07 1e-07 1 101 2 1 -2 
2 -1e-07 -9.999999994736442e-08 -1e-07 1e-07 1.0000001 1e-07 1 101 2 3 -1 
3 0.9999999000000001 -9.999999994736442e-08 -1e-07 1.0000001 1.0000001 1e-07 1 101 2 2 -4 
4 -9.999999994736442e-08 0.9999999000000001 -1e-07 1.0000001 1.0000001 1e-07 1 101 2 4 -3 
5 0.3771460439150278 0.1786404745198842 -1e-07 0.7124121059014086 0.5139065365062651 1e-07 0 2 5 -5 
2 0.3771460439150278 0.1786404745198842 -1e-07 0.7124121059014086 0.5139065365062651 1e-07 1 2 1 5 
3 -9.999999994736442e-08 -9.999999994736442e-08 -1e-07 1.0000001 1.0000001 1e-07 1 1 5 1 3 4 2 -5 
$EndEntities
$Nodes
12 170 1 170
0 1 0 1
1
0 0 0
0 2 0 1
2
1 0 0
0 3 0 1
3
0 1 0
0 4 0 1
4
1 1 0
0 5 0 1
5
0.7124120059014086 0.3462735055130747 0
1 1 0 7
6
7
8
9
10
11
12
0.1249999999999999 0 0
0.2499999999999998 0 0
0.3749999999999993 0 0
0.4999999999999988 0 0
0.6249999999999988 0 0
0.7499999999999991 0 0
0.8749999999999997 0 0
1 2 0 7
13
14
15
16
17
18
19
0 0.8750000000000001 0
0 0.7500000000000002 0
0 0.6250000000000007 0
0 0.5000000000000012 0
0 0.3750000000000012 0
0 0.2500000000000009 0
0 0.1250000000000003 0
1 3 0 7
20
21
22
23
24
25
26
1 0.1249999999999999 0
1 0.2499999999999998 0
1 0.3749999999999993 0
1 0.4999999999999988 0
1 0.6249999999999988 0
1 0.7499999999999991 0
1 0.8749999999999997 0
1 4 0 7
27
28
29
30
31
32
33
0.8750000000000001 1 0
0.7500000000000002 1 0
0.6250000000000007 1 0
0.5000000000000012 1 0
0.3750000000000012 1 0
0.2500000000000009 1 0
0.1250000000000003 1 0
1 5 0 15
34
35
36
37
38
39
40
41
42
43
44
45
46
47
48
0.6996517088277037 0.4104238509229692 0
0.6633134571636795 0.4648078877685364 0
0.6089294203181121 0.5011461394325605 0
0.5447790749082175 0.5139064365062651 0
0.4806287294983231 0.5011461394325599 0
0.426244692652756 0.4648078877685355 0
0.3899064409887322 0.4104238509229678 0
0.3771461439150278 0.3462735055130732 0
0.3899064409887332 0.2821231601031789 0
0.4262446926527577 0.2277391232576121 0
0.480628729498325 0.1914008715935886 0
0.5447790749082192 0.1786405745198842 0
0.6089294203181133 0.1914008715935894 0
0.6633134571636801 0.2277391232576134 0
0.6996517088277039 0.2821231601031806 0
2 2 0 25
49
50
51
52
53
54
55
56
57
58
59
60
61
62
63
64
65
66
67
68
69
70
71
72
73
0.605219039850602 0.2526422083359474 0
0.4849065601456968 0.4358790561319377 0
0.4471385066942255 0.2807932182965599 0
0.6343846255270815 0.4061460202755957 0
0.6521534667677105 0.3277203385079956 0
0.5221452260544336 0.2342696701422394 0
0.5728133656452009 0.4429485786210191 0
0.4390821212383951 0.3672979367923563 0
0.6504760285780415 0.2756490589777532 0
0.5909438214983775 0.3151719011685019 0
0.5512838076916849 0.2715451603104057 0
0.5227373659977002 0.3251367947120603 0
0.5512509072286841 0.3800128276919228 0
0.492218286397437 0.3806734891831239 0
0.6004580729817448 0.3687744296787127 0
0.4390821212383947 0.4168979520483955 0
0.6625677350469736 0.3716407387400766 0
0.6198602171635185 0.4537621565244279 0
0.5695790825362385 0.2215954477597098 0
0.521834235785215 0.4653705817657727 0
0.4201010171548535 0.3214734978850541 0
0.4751118930894133 0.2423690944626023 0
0.4711074210157546 0.3316193024285492 0
0.5246046710404467 0.4209769066787553 0
0.498254036757202 0.2809555400587361 0
2 3 0 97
74
75
76
77
78
79
80
81
82
83
84
85
86
87
88
89
90
91
92
93
94
95
96
97
98
99
100
101
102
103
104
105
106
107
108
109
110
111
112
113
114
115
116
117
118
119
120
121
122
123
124
125
126
127
128
129
130
131
132
133
134
135
136
137
138
139
140
141
142
143
144
145
146
147
148
149
150
151
152
153
154
155
156
157
158
159
160
161
162
163
164
165
166
167
168
169
170
0.4259404454900304 0.5323614186273888 0
0.574010890605286 0.5568597274640792 0
0.3088586172206031 0.9001685481130932 0
0.3246916063064935 0.3850049369109363 0
0.6889392271381236 0.9018108270071941 0
0.7325657773260843 0.4696581526010916 0
0.8961692099336049 0.6935117418204849 0
0.7249781646701254 0.2182349819479408 0
0.1128362348230272 0.5642025287266492 0
0.3554833574395724 0.2290680832143545 0
0.1065763634884559 0.1843700053534721 0
0.3683631422141445 0.4916212168027979 0
0.358966033100553 0.5656861849407033 0
0.427598499759077 0.6074438875505216 0
0.3534338310521661 0.6479577140215852 0
0.4262609814823328 0.6919220759907173 0
0.2986142721827597 0.5269853885979154 0
0.7672073316449008 0.2807400724397068 0
0.8008089111799048 0.3490171424657424 0
0.8036415847167859 0.2078410262538399 0
0.6675912878110536 0.1624720399569917 0
0.6914128225299825 0.5256149285540455 0
0.7674127404787251 0.5340752832852113 0
0.7286512299546208 0.6022198045190468 0
0.3318549984085409 0.3043647616837832 0
0.2609548534889466 0.3329171573462024 0
0.4057169054989456 0.1563444649450194 0
0.2801782455209141 0.2437355352317631 0
0.1207131255238248 0.8047136586631605 0
0.4999760992306684 0.6515665713343683 0
0.5021584599133402 0.7375013583473203 0
0.5777162425866511 0.6959823832722031 0
0.8079096795207956 0.4702298575516534 0
0.3484572948759172 0.7349813947696922 0
0.269773398178994 0.6867197034456315 0
0.8470629637199437 0.2841308104233375 0
0.8501153243039998 0.536966038911336 0
0.5825859576405742 0.7817234473560243 0
0.6509946705121643 0.7400116449153408 0
0.5039663514620121 0.8334169912480152 0
0.1907590018051064 0.2663979910466886 0
0.1762848575334835 0.3662704519716593 0
0.2462789432951503 0.4151081347643621 0
0.5975899256785969 0.1151571995691989 0
0.5016531607776078 0.1294648942702216 0
0.3093425749738802 0.1613418098450058 0
0.7460004113137855 0.1450521691075085 0
0.8352199716428302 0.1263799491595887 0
0.2546860106793268 0.7958790311695476 0
0.1691096668310913 0.4704586048585646 0
0.1017295751733697 0.6834758180489486 0
0.8830022149200236 0.365131491073902 0
0.8940874580884739 0.8123824810773475 0
0.8075510090637308 0.7573435336846821 0
0.2210900535423572 0.1727746214883897 0
0.5016531607776054 0.5630821167559276 0
0.80634405467755 0.8870024220047306 0
0.1917940173949776 0.9015424811666153 0
0.09361528269234348 0.3087883921394972 0
0.9052280908245183 0.1968666636238091 0
0.5923668487967267 0.876528949966678 0
0.9004082928152907 0.4605483400892308 0
0.6939562879796362 0.08267040853961899 0
0.4445512730556365 0.0715529103186105 0
0.1982554321009847 0.6376856065698969 0
0.4257337869681539 0.780002685653346 0
0.4189801685401774 0.9024392542056208 0
0.8134503797300749 0.6542281546747296 0
0.6496636755982543 0.6542986171550961 0
0.2841345551339893 0.6041401664121531 0
0.1661068372058526 0.08916158882253755 0
0.08807147332701476 0.4106919044651606 0
0.7640892408663883 0.4115316170606512 0
0.7284291157235742 0.7023157723111926 0
0.7202637294826 0.8057928789182601 0
0.1890315083313 0.7216947635794371 0
0.2540877047389855 0.0894900107970879 0
0.2159630277536921 0.5490796610396783 0
0.3397830763779078 0.07978819931762055 0
0.3101137350729302 0.4533581998453118 0
0.5447790749082199 0.06417120974000717 0
0.3513431756568357 0.82269418278226 0
0.9084936490538901 0.90849364905389 0
0.5627137077880593 0.6243304476382748 0
0.6404918524948763 0.5786750068491413 0
0.09150635094610954 0.9084936490538905 0
0.9172503821138386 0.08274961788616136 0
0.9077590959994333 0.5942430463174221 0
0.9334217335782304 0.3019652416437365 0
0.2436765222908893 0.4852859044645163 0
0.5223373234989531 0.9205223704822987 0
0.8289664343344848 0.4071088504444226 0
0.07662544741888122 0.0767466464876958 0
0.7800353341872501 0.07082050536134321 0
0.6463715668668878 0.8238249058342899 0
0.09930909806760901 0.4861806183200168 0
0.8134777540933709 0.5843464655415491 0
$EndNodes
$Elements
6 338 1 338
1 1 1 8
1 1 6 
2 6 7 
3 7 8 
4 8 9 
5 9 10 
6 10 11 
7 11 12 
8 12 2 
1 2 1 8
9 3 13 
10 13 14 
11 14 15 
12 15 16 
13 16 17 
14 17 18 
15 18 19 
16 19 1 
1 3 1 8
17 2 20 
18 20 21 
19 21 22 
20 22 23 
21 23 24 
22 24 25 
23 25 26 
24 26 4 
1 4 1 8
25 4 27 
26 27 28 
27 28 29 
28 29 30 
29 30 31 
30 31 32 
31 32 33 
32 33 3 
2 2 2 64
33 55 63 52 
34 61 63 55 
35 52 66 55 
36 53 58 57 
37 57 58 49 
38 37 55 36 
39 43 51 42 
40 39 50 38 
41 41 56 40 
42 47 49 46 
43 35 52 34 
44 45 54 44 
45 5 53 48 
46 55 72 61 
47 58 61 60 
48 53 63 58 
49 53 65 63 
50 50 64 62 
51 62 64 56 
52 58 59 49 
53 63 65 52 
54 61 62 60 
55 58 60 59 
56 48 57 47 
57 40 64 39 
58 34 65 5 
59 47 57 49 
60 39 64 50 
61 41 69 56 
62 5 65 53 
63 46 67 45 
64 53 57 48 
65 50 68 38 
66 42 69 41 
67 36 66 35 
68 38 68 37 
69 55 66 36 
70 51 69 42 
71 44 70 43 
72 43 70 51 
73 49 67 46 
74 37 68 55 
75 52 65 34 
76 56 64 40 
77 45 67 54 
78 35 66 52 
79 54 70 44 
80 58 63 61 
81 60 73 59 
82 62 72 50 
83 61 72 62 
84 59 67 49 
85 54 67 59 
86 51 73 71 
87 71 73 60 
88 59 73 54 
89 56 71 62 
90 62 71 60 
91 69 71 56 
92 51 71 69 
93 50 72 68 
94 68 72 55 
95 70 73 51 
96 54 73 70 
2 3 2 242
97 102 149 122 
98 100 118 44 
99 135 161 110 
100 122 131 102 
101 10 136 117 
102 99 101 98 
103 130 148 127 
104 84 128 114 
105 23 161 135 
106 126 130 127 
107 123 151 82 
108 117 154 10 
109 117 136 94 
110 99 114 101 
111 95 158 36 
112 74 129 87 
113 39 85 40 
114 35 95 36 
115 75 158 157 
116 100 137 118 
117 48 91 5 
118 36 158 75 
119 85 153 40 
120 114 132 84 
121 82 124 15 
122 76 131 122 
123 87 129 103 
124 38 129 74 
125 126 127 80 
126 75 129 37 
127 147 148 112 
128 43 100 44 
129 75 157 129 
130 29 164 134 
131 25 126 80 
132 137 154 118 
133 5 146 34 
134 123 163 151 
135 141 170 161 
136 157 158 142 
137 91 92 5 
138 127 148 147 
139 16 82 15 
140 22 135 125 
141 25 80 24 
142 19 84 18 
143 77 98 41 
144 29 78 28 
145 32 76 31 
146 14 124 102 
147 30 164 29 
148 114 128 101 
149 116 123 115 
150 121 167 12 
151 18 132 17 
152 77 99 98 
153 82 138 124 
154 15 124 14 
155 26 126 25 
156 21 133 20 
157 42 98 83 
158 99 116 115 
159 78 130 28 
160 23 135 22 
161 47 94 81 
162 84 132 18 
163 98 101 83 
164 7 144 6 
165 113 140 139 
166 7 150 144 
167 40 153 77 
168 29 134 78 
169 32 131 76 
170 14 102 13 
171 78 148 130 
172 140 155 139 
173 141 161 80 
174 28 130 27 
175 92 146 5 
176 129 157 103 
177 91 109 92 
178 87 103 89 
179 132 145 17 
180 33 131 32 
181 109 125 92 
182 31 140 30 
183 138 143 108 
184 82 151 138 
185 24 161 23 
186 46 117 94 
187 12 160 121 
188 94 120 81 
189 127 141 80 
190 99 115 114 
191 105 112 111 
192 103 105 104 
193 76 140 31 
194 45 118 117 
195 84 144 128 
196 17 145 16 
197 124 149 102 
198 82 169 123 
199 38 74 39 
200 36 75 37 
201 103 104 89 
202 119 152 100 
203 19 166 84 
204 133 160 20 
205 4 156 26 
206 27 156 4 
207 37 129 38 
208 115 145 132 
209 3 159 33 
210 13 159 3 
211 77 116 99 
212 40 77 41 
213 105 111 104 
214 107 108 88 
215 87 89 88 
216 9 154 137 
217 111 113 104 
218 11 136 10 
219 100 152 137 
220 81 120 93 
221 74 87 86 
222 47 81 48 
223 105 157 142 
224 8 152 7 
225 34 79 35 
226 105 142 112 
227 89 107 88 
228 122 155 76 
229 83 119 100 
230 16 169 82 
231 9 137 8 
232 74 85 39 
233 120 121 93 
234 111 134 113 
235 42 83 43 
236 96 97 95 
237 145 169 16 
238 41 98 42 
239 108 149 138 
240 101 119 83 
241 107 122 108 
242 84 166 144 
243 80 161 24 
244 12 167 11 
245 87 88 86 
246 115 132 114 
247 86 90 85 
248 46 94 47 
249 140 164 30 
250 138 151 143 
251 79 95 35 
252 79 106 96 
253 121 160 133 
254 74 86 85 
255 90 163 153 
256 133 162 109 
257 2 160 12 
258 20 160 2 
259 125 162 22 
260 81 91 48 
261 104 139 89 
262 79 96 95 
263 10 154 9 
264 89 139 107 
265 45 117 46 
266 123 145 115 
267 121 133 93 
268 21 162 133 
269 101 128 119 
270 44 118 45 
271 108 143 88 
272 161 170 110 
273 106 135 110 
274 93 133 109 
275 106 110 96 
276 130 156 27 
277 113 139 104 
278 94 136 120 
279 76 155 140 
280 93 109 91 
281 26 156 126 
282 141 147 97 
283 81 93 91 
284 97 158 95 
285 126 156 130 
286 7 152 150 
287 33 159 131 
288 83 100 43 
289 138 149 124 
290 127 147 141 
291 103 157 105 
292 153 163 116 
293 118 154 117 
294 22 162 21 
295 90 153 85 
296 112 168 111 
297 102 159 13 
298 144 150 128 
299 97 170 141 
300 88 143 86 
301 107 155 122 
302 86 143 90 
303 116 163 123 
304 131 159 102 
305 97 147 142 
306 142 158 97 
307 122 149 108 
308 106 165 135 
309 1 166 19 
310 6 166 1 
311 34 146 79 
312 77 153 116 
313 96 170 97 
314 128 150 119 
315 148 168 112 
316 79 146 106 
317 125 165 92 
318 113 164 140 
319 142 147 112 
320 135 165 125 
321 111 168 134 
322 109 162 125 
323 139 155 107 
324 143 151 90 
325 150 152 119 
326 134 164 113 
327 136 167 120 
328 134 168 78 
329 110 170 96 
330 120 167 121 
331 11 167 136 
332 137 152 8 
333 151 163 90 
334 144 166 6 
335 123 169 145 
336 78 168 148 
337 92 165 146 
338 146 165 106 
$EndElements
