$MeshFormat
4.1 0 8
$EndMeshFormat
$PhysicalNames
3
1 101 "outer_boundary"
2 1 "material_1"
2 2 "material_2"
$EndPhysicalNames
$Entities
5 5 2 0
1 0 0 0 0 
2 1 0 0 0 
3 0 1 0 0 
4 1 1 0 0 
5 0.7851606080783453 0.6287568113584461 0 0 
1 -9.999999994736442e-08 -1e-07 -1e-07 1.0000001 1e-07 1e-07 1 101 2 1 -2 
2 -1e-07 -9.999999994736442e-08 -1e-07 1e-07 1.0000001 1e-07 1 101 2 3 -1 
3 0.9999999000000001 -9.999999994736442e-08 -1e-07 1.0000001 1.0000001 1e-07 1 101 2 2 -4 
4 -9.999999994736442e-08 0.9999999000000001 -1e-07 1.0000001 1.0000001 1e-07 1 101 2 4 -3 
5 0.3752656037847966 0.4238092592116717 -1e-07 0.7851607080783453 0.8337043635052204 1e-07 0 2 5 -5 
2 0.3752656037847966 0.4238092592116717 -1e-07 0.7851607080783453 0.8337043635052204 1e-07 1 2 1 5 
3 -9.999999994736442e-08 -9.999999994736442e-08 -1e-07 1.0000001 1.0000001 1e-07 1 1 5 1 3 4 2 -5 
$EndEntities
$Nodes
12 167 1 167
0 1 0 1
1
0 0 0
0 2 0 1
2
1 0 0
0 3 0 1
3
0 1 0
0 4 0 1
4
1 1 0
0 5 0 1
5
0.7851606080783453 0.6287568113584461 0
1 1 0 7
6
7
8
9
10
11
12
0.1249999999999999 0 0
0.2499999999999998 0 0
0.3749999999999993 0 0
0.4999999999999988 0 0
0.6249999999999988 0 0
0.7499999999999991 0 0
0.8749999999999997 0 0
1 2 0 7
13
14
15
16
17
18
19
0 0.8750000000000001 0
0 0.7500000000000002 0
0 0.6250000000000007 0
0 0.5000000000000012 0
0 0.3750000000000012 0
0 0.2500000000000009 0
0 0.1250000000000003 0
1 3 0 7
20
21
22
23
24
25
26
1 0.1249999999999999 0
1 0.2499999999999998 0
1 0.3749999999999993 0
1 0.4999999999999988 0
1 0.6249999999999988 0
1 0.7499999999999991 0
1 0.8749999999999997 0
1 4 0 7
27
28
29
30
31
32
33
0.8750000000000001 1 0
0.7500000000000002 1 0
0.6250000000000007 1 0
0.5000000000000012 1 0
0.3750000000000012 1 0
0.2500000000000009 1 0
0.1250000000000003 1 0
1 5 0 18
34
35
36
37
38
39
40
41
42
43
44
45
46
47
48
49
50
51
0.7740559898146059 0.6953031402853559 0
0.7419454927181696 0.7546381419003521 0
0.6923087873951336 0.8003319481010391 0
0.6305247810600877 0.8274329259731172 0
0.5632887294770687 0.833004264049148 0
0.4978867021099289 0.816442221400376 0
0.4414060234409128 0.7795415523343658 0
0.3999672513918354 0.7263010169172944 0
0.3780609199030117 0.6624900532736254 0
0.3780609199030115 0.5950235694432681 0
0.3999672513918348 0.5312126057995988 0
0.4414060234409122 0.4779720703825269 0
0.4978867021099284 0.4410714013165163 0
0.5632887294770684 0.4245093586677443 0
0.6305247810600878 0.4300806967437749 0
0.6923087873951339 0.4571816746158533 0
0.74194549271817 0.5028754808165405 0
0.7740559898146059 0.5622104824315363 0
2 2 0 31
52
53
54
55
56
57
58
59
60
61
62
63
64
65
66
67
68
69
70
71
72
73
74
75
76
77
78
79
80
81
82
0.5049561667828939 0.7472132193191043 0
0.6775551430912541 0.5230152254861081 0
0.4667942935986429 0.5404793673871964 0
0.6775551430912538 0.7344983972307843 0
0.5951720234397893 0.7770948124095938 0
0.592081834961664 0.4855231564268153 0
0.7219774875671765 0.652413094306174 0
0.4381328179664596 0.6828978366231879 0
0.7219774875671766 0.5520377916321056 0
0.6770987786855138 0.5917196980919954 0
0.6252128250906945 0.543939321747682 0
0.6073214205873148 0.6123794393749855 0
0.5523054139208615 0.5649908579125285 0
0.5466404559643098 0.6330907274092462 0
0.5910781108640794 0.6751329361935573 0
0.5246817892289851 0.5021518555401423 0
0.6600740954078754 0.6710962207352862 0
0.4965240839768962 0.5953038888556524 0
0.5349886585396969 0.693000896426457 0
0.4416482390368276 0.5910571885341304 0
0.4856722114088083 0.6477252577245376 0
0.454735654022675 0.7264925498579221 0
0.6449633355917241 0.7763723523622256 0
0.6235102394926137 0.7260541488647198 0
0.5473644650714827 0.7801387065992431 0
0.6442354471876645 0.4846140992574117 0
0.7360540703425636 0.5974275755640515 0
0.717080454819062 0.7027000938039323 0
0.5661782773650926 0.7331057866354459 0
0.4176810690633767 0.6356161517615037 0
0.4864002407419028 0.6980177097561597 0
2 3 0 85
83
84
85
86
87
88
89
90
91
92
93
94
95
96
97
98
99
100
101
102
103
104
105
106
107
108
109
110
111
112
113
114
115
116
117
118
119
120
121
122
123
124
125
126
127
128
129
130
131
132
133
134
135
136
137
138
139
140
141
142
143
144
145
146
147
148
149
150
151
152
153
154
155
156
157
158
159
160
161
162
163
164
165
166
167
0.4346919610914821 0.4148708918396089 0
0.6775949943768793 0.3907521062502846 0
0.3356813844286606 0.7186621121671015 0
0.3376823896465638 0.5349538438035404 0
0.1194926901687263 0.3033080307822402 0
0.5624999999999989 0.1082531754730546 0
0.3051926586716497 0.1121501082667169 0
0.1063556197652895 0.804273956829775 0
0.0952789768786943 0.5687315308001009 0
0.8942868921525953 0.3274303096421852 0
0.7630244273555932 0.8191999789149753 0
0.808813117391603 0.4983406915737633 0
0.8171204958577043 0.09740365211806518 0
0.8372391103257747 0.671646857337628 0
0.301597142783479 0.8983766789702399 0
0.6050990741212561 0.3715237168446442 0
0.6607323899555124 0.3138609517063177 0
0.5835821339004237 0.2914335823354385 0
0.3784881306390528 0.4708196039987504 0
0.3552639186216379 0.3988196877738008 0
0.4166062536295378 0.33423188341644 0
0.2992937477988264 0.4694803139595428 0
0.3303606454453365 0.3134592850941996 0
0.3096420721854199 0.6585604163506663 0
0.259178945421828 0.6921594807102514 0
0.6444717099191637 0.2334946296277026 0
0.7224141444603199 0.2560191348179961 0
0.3985947646097043 0.2531357646968715 0
0.7533461613811596 0.4242390585218032 0
0.8507814018888811 0.5763023420619797 0
0.6896318651462638 0.8621359244230877 0
0.8091122887082186 0.7524254835397481 0
0.4413965989912485 0.8422423299113122 0
0.8451958482854214 0.8253382320419553 0
0.5155799442941941 0.3737140869335958 0
0.2668976210530792 0.5362483196873689 0
0.2163470315630777 0.4567985154821564 0
0.3805557541339269 0.7844572927218403 0
0.8438355844707833 0.4188569462696404 0
0.270374477217795 0.3863024072148956 0
0.2345896316853412 0.301562149069513 0
0.7977573705213208 0.357070680477778 0
0.1020796774715239 0.6920651068010927 0
0.2919362259704058 0.7932861464876051 0
0.4934072797437152 0.2798606126491603 0
0.4755281805651811 0.1909615863703275 0
0.5176495244213444 0.8763049668803553 0
0.2181024473664887 0.8518866498502313 0
0.6912087344505914 0.1067304174991794 0
0.602108761230455 0.8853667341474294 0
0.1034814999883996 0.1819709265639876 0
0.1098946444285603 0.4409069216291368 0
0.3054825525941677 0.2235487170238617 0
0.8949560605184136 0.4933075534023231 0
0.8882544252509096 0.1940958913512059 0
0.1773526199069306 0.6419520743166773 0
0.7832094667897582 0.9069349818932263 0
0.1799981140081609 0.09827577202533727 0
0.8889668072358072 0.7406088133494753 0
0.4223341065799836 0.09949714282450722 0
0.1853594872760878 0.7483746891039175 0
0.2048081744428064 0.2040272463752092 0
0.5637145853015502 0.2103728954123837 0
0.9200664581995708 0.6529558132801883 0
0.4477459054774867 0.9307517238620868 0
0.1901396950127001 0.3777756048355884 0
0.8077731245157704 0.2761366259807139 0
0.1372862774789524 0.9044047509392132 0
0.9264241651175209 0.8197334018094127 0
0.9049715800321168 0.904501102624099 0
0.7840411105300762 0.1920169907188248 0
0.9255525994808997 0.4198473937810231 0
0.7249463454165358 0.3349254429736488 0
0.09150635094610993 0.09150635094610998 0
0.90849364905389 0.09150635094610987 0
0.633669902289967 0.1690707951721093 0
0.2520508955135816 0.6108097902540105 0
0.6951611203300236 0.1914663935671624 0
0.3717966297881591 0.1710294814573183 0
0.5575469323281382 0.9403852727490065 0
0.1863036315573207 0.5425745253615751 0
0.3730386045594247 0.8748523619921806 0
0.6661275382754508 0.9329505680158795 0
0.3203991363674447 0.5996809988020799 0
0.9381815085094166 0.5620014969406451 0
$EndNodes
$Elements
6 332 1 332
1 1 1 8
1 1 6 
2 6 7 
3 7 8 
4 8 9 
5 9 10 
6 10 11 
7 11 12 
8 12 2 
1 2 1 8
9 3 13 
10 13 14 
11 14 15 
12 15 16 
13 16 17 
14 17 18 
15 18 19 
16 19 1 
1 3 1 8
17 2 20 
18 20 21 
19 21 22 
20 22 23 
21 23 24 
22 24 25 
23 25 26 
24 26 4 
1 4 1 8
25 4 27 
26 27 28 
27 28 29 
28 29 30 
29 30 31 
30 31 32 
31 32 33 
32 33 3 
2 2 2 79
33 64 67 57 
34 62 64 57 
35 54 67 64 
36 64 69 54 
37 47 67 46 
38 46 67 45 
39 57 67 47 
40 45 67 54 
41 68 79 55 
42 58 68 61 
43 55 75 68 
44 61 78 58 
45 58 79 68 
46 72 81 71 
47 68 75 66 
48 52 80 76 
49 69 72 71 
50 48 57 47 
51 50 53 49 
52 36 55 35 
53 40 52 39 
54 42 59 41 
55 45 54 44 
56 38 56 37 
57 34 58 5 
58 63 66 65 
59 63 65 64 
60 63 64 62 
61 61 68 63 
62 70 80 52 
63 44 71 43 
64 54 71 44 
65 61 63 62 
66 63 68 66 
67 60 78 61 
68 61 62 53 
69 59 81 72 
70 57 77 62 
71 62 77 53 
72 65 69 64 
73 66 70 65 
74 70 72 65 
75 60 61 53 
76 69 71 54 
77 5 78 51 
78 50 60 53 
79 59 73 41 
80 39 76 38 
81 49 77 48 
82 48 77 57 
83 34 79 58 
84 51 60 50 
85 40 73 52 
86 58 78 5 
87 37 74 36 
88 56 74 37 
89 55 79 35 
90 41 73 40 
91 35 79 34 
92 38 76 56 
93 36 74 55 
94 53 77 49 
95 52 76 39 
96 43 81 42 
97 76 80 56 
98 70 82 72 
99 42 81 59 
100 65 72 69 
101 52 82 70 
102 71 81 43 
103 66 80 70 
104 56 75 74 
105 74 75 55 
106 51 78 60 
107 75 80 66 
108 73 82 52 
109 56 80 75 
110 72 82 59 
111 59 82 73 
2 3 2 221
112 13 150 3 
113 3 150 33 
114 141 146 25 
115 98 117 100 
116 103 117 83 
117 87 144 123 
118 32 150 130 
119 32 130 97 
120 139 165 113 
121 31 164 147 
122 128 142 88 
123 97 164 31 
124 117 127 100 
125 103 127 117 
126 107 143 138 
127 121 124 92 
128 5 112 96 
129 84 155 111 
130 134 163 91 
131 126 143 107 
132 88 142 9 
133 113 132 37 
134 133 144 87 
135 101 104 102 
136 119 163 134 
137 16 134 91 
138 130 143 126 
139 25 146 24 
140 91 125 15 
141 135 144 89 
142 91 138 125 
143 123 148 87 
144 104 122 102 
145 89 144 140 
146 10 131 88 
147 92 154 121 
148 90 150 13 
149 18 133 87 
150 138 143 125 
151 33 150 32 
152 14 125 90 
153 32 97 31 
154 22 92 21 
155 111 155 124 
156 16 91 15 
157 14 90 13 
158 36 113 37 
159 110 127 103 
160 10 88 9 
161 28 165 139 
162 48 98 84 
163 153 160 131 
164 51 112 5 
165 42 166 43 
166 83 117 46 
167 18 87 17 
168 110 128 127 
169 101 102 83 
170 45 101 83 
171 95 131 11 
172 47 117 98 
173 127 145 100 
174 98 99 84 
175 92 137 21 
176 112 146 96 
177 120 164 126 
178 86 101 44 
179 15 125 14 
180 97 130 126 
181 131 158 88 
182 19 133 18 
183 4 152 26 
184 11 131 10 
185 90 143 130 
186 96 146 141 
187 87 134 17 
188 8 89 7 
189 84 111 49 
190 28 139 27 
191 86 104 101 
192 12 95 11 
193 102 122 105 
194 17 134 16 
195 41 120 85 
196 95 153 131 
197 126 164 97 
198 114 141 116 
199 88 145 128 
200 27 152 4 
201 138 159 107 
202 89 140 7 
203 21 137 20 
204 7 140 6 
205 9 142 8 
206 119 122 104 
207 128 145 127 
208 122 123 105 
209 147 164 115 
210 125 143 90 
211 115 120 40 
212 120 126 85 
213 139 152 27 
214 50 111 94 
215 111 121 94 
216 159 163 118 
217 92 149 137 
218 106 166 42 
219 110 161 128 
220 86 166 118 
221 128 161 142 
222 8 142 89 
223 138 163 159 
224 122 148 123 
225 113 165 132 
226 134 148 119 
227 39 129 115 
228 48 84 49 
229 45 83 46 
230 98 100 99 
231 1 156 19 
232 6 156 1 
233 102 103 83 
234 124 155 149 
235 105 135 110 
236 114 116 93 
237 22 154 92 
238 123 135 105 
239 47 98 48 
240 2 157 12 
241 20 157 2 
242 124 149 92 
243 35 114 93 
244 43 86 44 
245 41 85 42 
246 107 159 106 
247 86 118 104 
248 96 114 34 
249 149 153 137 
250 46 117 47 
251 85 126 107 
252 44 101 45 
253 149 155 109 
254 141 151 116 
255 111 124 121 
256 130 150 90 
257 87 148 134 
258 119 148 122 
259 96 141 114 
260 38 132 129 
261 132 165 162 
262 23 154 22 
263 49 111 50 
264 118 166 159 
265 129 162 147 
266 40 120 41 
267 136 154 23 
268 105 110 103 
269 85 106 42 
270 39 115 40 
271 108 109 99 
272 137 153 95 
273 50 94 51 
274 102 105 103 
275 129 147 115 
276 100 108 99 
277 35 93 36 
278 118 119 104 
279 5 96 34 
280 116 152 139 
281 140 144 133 
282 121 136 94 
283 29 165 28 
284 30 162 29 
285 31 147 30 
286 85 107 106 
287 116 139 93 
288 34 114 35 
289 38 129 39 
290 94 136 112 
291 37 132 38 
292 93 139 113 
293 123 144 135 
294 140 156 6 
295 19 156 133 
296 137 157 20 
297 91 163 138 
298 26 151 25 
299 133 156 140 
300 24 167 23 
301 100 145 108 
302 12 157 95 
303 93 113 36 
304 95 157 137 
305 94 112 51 
306 115 164 120 
307 25 151 141 
308 136 167 112 
309 112 167 146 
310 99 155 84 
311 89 161 135 
312 151 152 116 
313 109 155 99 
314 135 161 110 
315 142 161 89 
316 132 162 129 
317 121 154 136 
318 88 158 145 
319 162 165 29 
320 109 153 149 
321 26 152 151 
322 147 162 30 
323 118 163 119 
324 159 166 106 
325 108 160 109 
326 23 167 136 
327 43 166 86 
328 145 158 108 
329 158 160 108 
330 131 160 158 
331 109 160 153 
332 146 167 24 
$EndElements
