$MeshFormat
4.1 0 8
$EndMeshFormat
$PhysicalNames
3
1 101 "outer_boundary"
2 1 "material_1"
2 2 "material_2"
$EndPhysicalNames
$Entities
7 7 2 0
1 0 0 0 0 
2 1 0 0 0 
3 0 1 0 0 
4 1 1 0 0 
5 0.6152699827269048 0.1598560674076298 0 0 
6 0.7836802616811692 0.3633287518523551 0 0 
7 0.5232626084986901 0.4074399894628092 0 0 
1 -9.999999994736442e-08 -1e-07 -1e-07 1.0000001 1e-07 1e-07 1 101 2 1 -2 
2 -1e-07 -9.999999994736442e-08 -1e-07 1e-07 1.0000001 1e-07 1 101 2 3 -1 
3 0.9999999000000001 -9.999999994736442e-08 -1e-07 1.0000001 1.0000001 1e-07 1 101 2 2 -4 
4 -9.999999994736442e-08 0.9999999000000001 -1e-07 1.0000001 1.0000001 1e-07 1 101 2 4 -3 
5 0.6152698827269049 0.1598559674076298 -1e-07 0.7836803616811692 0.3633288518523551 1e-07 0 2 5 -6 
6 0.5232625084986902 0.3633286518523551 -1e-07 0.7836803616811692 0.4074400894628092 1e-07 0 2 6 -7 
7 0.5232625084986902 0.1598559674076298 -1e-07 0.6152700827269048 0.4074400894628092 1e-07 0 2 7 -5 
2 0.5232625084986902 0.1598559674076298 -1e-07 0.7836803616811692 0.4074400894628092 1e-07 1 2 3 5 6 7 
3 -9.999999994736442e-08 -9.999999994736442e-08 -1e-07 1.0000001 1.0000001 1e-07 1 1 7 1 3 4 2 -5 -7 -6 
$EndEntities
$Nodes
16 145 1 145
0 1 0 1
1
0 0 0
0 2 0 1
2
1 0 0
0 3 0 1
3
0 1 0
0 4 0 1
4
1 1 0
0 5 0 1
5
0.6152699827269048 0.1598560674076298 0
0 6 0 1
6
0.7836802616811692 0.3633287518523551 0
0 7 0 1
7
0.5232626084986901 0.4074399894628092 0
1 1 0 7
8
9
10
11
12
13
14
0.1249999999999999 0 0
0.2499999999999998 0 0
0.3749999999999993 0 0
0.4999999999999988 0 0
0.6249999999999988 0 0
0.7499999999999991 0 0
0.8749999999999997 0 0
1 2 0 7
15
16
17
18
19
20
21
0 0.8750000000000001 0
0 0.7500000000000002 0
0 0.6250000000000007 0
0 0.5000000000000012 0
0 0.3750000000000012 0
0 0.2500000000000009 0
0 0.1250000000000003 0
1 3 0 7
22
23
24
25
26
27
28
1 0.1249999999999999 0
1 0.2499999999999998 0
1 0.3749999999999993 0
1 0.4999999999999988 0
1 0.6249999999999988 0
1 0.7499999999999991 0
1 0.8749999999999997 0
1 4 0 7
29
30
31
32
33
34
35
0.8750000000000001 1 0
0.7500000000000002 1 0
0.6250000000000007 1 0
0.5000000000000012 1 0
0.3750000000000012 1 0
0.2500000000000009 1 0
0.1250000000000003 1 0
1 5 0 3
36
37
38
0.6573725524654709 0.2107242385188111 0
0.699475122204037 0.2615924096299924 0
0.7415776919426031 0.3124605807411738 0
1 6 0 3
39
40
41
0.7185758483855494 0.3743565612549686 0
0.6534714350899297 0.3853843706575822 0
0.5883670217943099 0.3964121800601957 0
1 7 0 3
42
43
44
0.5462644520557438 0.3455440089490144 0
0.5692662956127974 0.2836480284352195 0
0.5922681391698511 0.2217520479214246 0
2 2 0 3
45
46
47
0.6764732786469834 0.3234883901437873 0
0.6113688653513636 0.3345161995464008 0
0.6343707089084172 0.272620219032606 0
2 3 0 98
48
49
50
51
52
53
54
55
56
57
58
59
60
61
62
63
64
65
66
67
68
69
70
71
72
73
74
75
76
77
78
79
80
81
82
83
84
85
86
87
88
89
90
91
92
93
94
95
96
97
98
99
100
101
102
103
104
105
106
107
108
109
110
111
112
113
114
115
116
117
118
119
120
121
122
123
124
125
126
127
128
129
130
131
132
133
134
135
136
137
138
139
140
141
142
143
144
145
0.6309447789351837 0.4380255066025036 0
0.4801338698528458 0.3564748382830434 0
0.4575558749895386 0.4236905117924199 0
0.3138777924964114 0.8959484485391227 0
0.4084610502604037 0.365608735338827 0
0.3812520944794179 0.4364088980114724 0
0.4349536993213022 0.4972265352475118 0
0.6845481565989763 0.8769200283693374 0
0.7593780534074674 0.4298037814949431 0
0.3529173832264567 0.5122365875808788 0
0.5256705654106273 0.2322249676025361 0
0.4088632373025214 0.5739473669601828 0
0.3226985877108566 0.5944339790920783 0
0.3281049848573813 0.3749007607531509 0
0.3604334175276969 0.2973857430023537 0
0.7645795354996567 0.2505646002273789 0
0.8989108118914328 0.6879792762088743 0
0.4925928508937893 0.5568498997216251 0
0.4663829762058589 0.6391734928816125 0
0.5543161448971201 0.6178664722923988 0
0.2733573160911137 0.3070192385575397 0
0.5278948211323693 0.7066474599626236 0
0.6191128748754167 0.6835160907249076 0
0.2661282369110566 0.5234199261054782 0
0.2089502365859771 0.6053711547185759 0
0.3074111963683117 0.2194966523717271 0
0.4354566430446152 0.7256327702444165 0
0.2065332449493284 0.2318314477480748 0
0.8296443840256049 0.4156319568411847 0
0.8115665267848809 0.4931245182710374 0
0.6344543405109386 0.5943881585479597 0
0.1174381416390873 0.8029075428896773 0
0.4874980671237771 0.800557773641264 0
0.6803743960225246 0.1488282580050162 0
0.7163330945071849 0.6480460773760134 0
0.2895333543280625 0.6807153484880736 0
0.1322774783338045 0.4281194946805248 0
0.8573474638575949 0.3449381886676314 0
0.4374999999999991 0.1082531754730544 0
0.7302960555022613 0.500359298811235 0
0.8972819195837776 0.1746166100877517 0
0.2442096920958489 0.3910090535469084 0
0.6934238583177366 0.7549975898040717 0
0.8894021915733441 0.5699668201052454 0
0.1964734142035787 0.7087422542948394 0
0.3185625919420048 0.1094458333731981 0
0.7704377761658014 0.5693296733608457 0
0.1874999999999998 0.1079611496714193 0
0.543450374730326 0.09772540248716677 0
0.4051593374206321 0.2112214025910035 0
0.1027519280129748 0.5538212719951651 0
0.1052390372743117 0.3015677547532866 0
0.8114837637256962 0.9013978294048824 0
0.5533495474144833 0.8912678998279726 0
0.431046895015742 0.8954725264267158 0
0.8128358353725681 0.09613251130629719 0
0.5759367109238469 0.5322647849445059 0
0.8807707772263907 0.8096477433105063 0
0.2673190455903761 0.7895836948319026 0
0.1941902217786643 0.8994888892190988 0
0.5091035539263682 0.4786132038656967 0
0.7937630335831485 0.7271675542641902 0
0.5037381009007369 0.2945657460825802 0
0.09927438092750157 0.188890729899308 0
0.5505055449458616 0.1780108096828339 0
0.6955740048284959 0.4362525417687634 0
0.8054214518228391 0.3077371317081287 0
0.36957775315415 0.8054325226392781 0
0.8908583451132054 0.4773952662647176 0
0.3823054694210818 0.6562779268196746 0
0.5943045542437932 0.7856511403883628 0
0.7239184348359921 0.1985033539391999 0
0.3038104734078197 0.4494793653057131 0
0.4758686626915988 0.1784955629954124 0
0.09912629287439068 0.6651335305459678 0
0.8041059723882151 0.1874164554301824 0
0.6368328210074189 0.09294900652656785 0
0.8663746380417406 0.2630024381399343 0
0.6479076553466498 0.5016103045959182 0
0.4388005792313534 0.3056081816105843 0
0.9110458712510807 0.08886457257962815 0
0.5703195789310419 0.4542075020253081 0
0.1761575602836767 0.49930345202592 0
0.7130954997732237 0.07746771115134854 0
0.906456006791167 0.9063108257361359 0
0.7588099346562382 0.8167119960382966 0
0.4698474491309897 0.2444231721764233 0
0.8143297248999082 0.6456226428473794 0
0.1913090810588755 0.3249373078647421 0
0.09147791123810411 0.09147791123810417 0
0.9189560526894177 0.4064515821053332 0
0.09150635094610954 0.9084936490538905 0
0.7468660276785047 0.1416696579664088 0
0.930635771552708 0.3272686243756903 0
0.3519484215174806 0.7306997903019636 0
0.2550017583149112 0.1671837707911049 0
0.6988779476987537 0.5593316675666835 0
0.2245166882064413 0.4582662583329089 0
$EndNodes
$Elements
6 288 1 288
1 1 1 8
1 1 8 
2 8 9 
3 9 10 
4 10 11 
5 11 12 
6 12 13 
7 13 14 
8 14 2 
1 2 1 8
9 3 15 
10 15 16 
11 16 17 
12 17 18 
13 18 19 
14 19 20 
15 20 21 
16 21 1 
1 3 1 8
17 2 22 
18 22 23 
19 23 24 
20 24 25 
21 25 26 
22 26 27 
23 27 28 
24 28 4 
1 4 1 8
25 4 29 
26 29 30 
27 30 31 
28 31 32 
29 32 33 
30 33 34 
31 34 35 
32 35 3 
2 2 2 16
33 41 7 42 
34 44 5 36 
35 38 6 39 
36 46 47 45 
37 42 46 41 
38 43 47 46 
39 38 45 37 
40 43 46 42 
41 36 47 44 
42 45 47 37 
43 41 46 40 
44 40 45 39 
45 44 47 43 
46 40 46 45 
47 37 47 36 
48 39 45 38 
2 3 2 240
49 92 106 79 
50 123 125 63 
51 55 118 90 
52 101 118 55 
53 106 107 79 
54 84 136 89 
55 86 97 93 
56 72 122 98 
57 89 145 84 
58 91 94 77 
59 93 97 73 
60 126 129 48 
61 79 122 92 
62 98 130 72 
63 101 102 80 
64 16 122 79 
65 92 122 72 
66 104 129 126 
67 5 112 96 
68 7 108 50 
69 96 124 5 
70 102 115 80 
71 32 102 101 
72 50 108 54 
73 80 115 74 
74 84 145 130 
75 99 136 84 
76 113 126 48 
77 93 95 9 
78 91 135 94 
79 116 138 25 
80 88 125 123 
81 12 124 96 
82 72 130 71 
83 23 88 22 
84 11 86 10 
85 105 133 109 
86 19 99 84 
87 75 111 95 
88 86 93 10 
89 25 138 24 
90 87 126 113 
91 12 96 11 
92 23 125 88 
93 99 111 75 
94 11 96 86 
95 77 116 91 
96 90 133 55 
97 80 118 101 
98 112 121 96 
99 84 98 18 
100 64 91 26 
101 26 91 25 
102 51 107 106 
103 67 104 78 
104 105 109 64 
105 93 143 95 
106 97 127 62 
107 19 84 18 
108 31 55 30 
109 34 51 33 
110 55 100 30 
111 20 99 19 
112 54 108 65 
113 75 136 99 
114 31 101 55 
115 51 102 33 
116 27 64 26 
117 100 133 105 
118 9 95 8 
119 65 104 67 
120 18 98 17 
121 96 121 86 
122 32 101 31 
123 33 102 32 
124 16 79 15 
125 10 93 9 
126 88 123 103 
127 27 105 64 
128 30 100 29 
129 97 134 127 
130 82 144 94 
131 67 78 70 
132 65 108 104 
133 34 107 51 
134 91 116 25 
135 14 103 13 
136 28 105 27 
137 54 65 59 
138 17 122 16 
139 35 107 34 
140 21 111 20 
141 73 97 62 
142 51 115 102 
143 20 111 99 
144 77 87 56 
145 64 135 91 
146 86 121 97 
147 78 82 70 
148 50 54 53 
149 29 132 4 
150 94 135 82 
151 4 132 28 
152 40 48 41 
153 7 49 42 
154 2 128 14 
155 78 144 82 
156 65 67 66 
157 22 128 2 
158 95 143 75 
159 65 66 59 
160 54 59 57 
161 83 106 92 
162 7 129 108 
163 69 74 66 
164 39 113 40 
165 12 131 124 
166 42 110 43 
167 60 83 72 
168 1 137 21 
169 8 137 1 
170 3 139 35 
171 15 139 3 
172 98 122 17 
173 67 70 69 
174 82 109 90 
175 7 50 49 
176 13 131 12 
177 61 89 68 
178 43 58 44 
179 67 69 66 
180 23 141 125 
181 82 90 70 
182 6 56 39 
183 106 115 51 
184 83 92 72 
185 60 71 57 
186 69 80 74 
187 54 57 53 
188 37 63 38 
189 103 128 88 
190 59 60 57 
191 50 53 52 
192 108 129 104 
193 88 128 22 
194 60 72 71 
195 41 129 7 
196 61 62 52 
197 84 130 98 
198 68 73 62 
199 83 142 106 
200 50 52 49 
201 53 61 52 
202 104 126 78 
203 68 75 73 
204 87 113 56 
205 111 137 95 
206 40 113 48 
207 44 112 5 
208 36 119 37 
209 77 94 87 
210 49 110 42 
211 66 117 59 
212 60 117 83 
213 55 133 100 
214 61 68 62 
215 90 118 70 
216 38 114 6 
217 73 143 93 
218 74 117 66 
219 59 117 60 
220 70 118 69 
221 106 142 115 
222 69 118 80 
223 5 81 36 
224 61 120 89 
225 43 110 58 
226 56 113 39 
227 21 137 111 
228 82 135 109 
229 71 120 57 
230 103 131 13 
231 57 120 53 
232 53 120 61 
233 6 85 76 
234 76 77 56 
235 62 127 52 
236 100 132 29 
237 24 141 23 
238 95 137 8 
239 76 116 77 
240 35 139 107 
241 28 132 105 
242 58 112 44 
243 105 132 100 
244 48 129 41 
245 14 128 103 
246 37 119 63 
247 68 136 75 
248 79 139 15 
249 6 114 85 
250 6 76 56 
251 58 121 112 
252 63 114 38 
253 107 139 79 
254 52 127 49 
255 49 127 110 
256 119 123 63 
257 81 119 36 
258 109 133 90 
259 5 124 81 
260 109 135 64 
261 115 142 74 
262 114 125 85 
263 89 136 68 
264 110 134 58 
265 124 131 81 
266 94 144 87 
267 58 134 121 
268 75 143 73 
269 127 134 110 
270 87 144 126 
271 103 140 131 
272 125 141 85 
273 76 138 116 
274 117 142 83 
275 138 141 24 
276 74 142 117 
277 85 138 76 
278 85 141 138 
279 121 134 97 
280 130 145 71 
281 131 140 81 
282 119 140 123 
283 81 140 119 
284 120 145 89 
285 71 145 120 
286 123 140 103 
287 126 144 78 
288 63 125 114 
$EndElements
