$MeshFormat
4.1 0 8
$EndMeshFormat
$PhysicalNames
3
1 101 "outer_boundary"
2 1 "material_1"
2 2 "material_2"
$EndPhysicalNames
$Entities
5 5 2 0
1 0 0 0 0 
2 1 0 0 0 
3 0 1 0 0 
4 1 1 0 0 
5 0.6799999999999999 0.5 0 0 
1 -9.999999994736442e-08 -1e-07 -1e-07 1.0000001 1e-07 1e-07 1 101 2 1 -2 
2 -1e-07 -9.999999994736442e-08 -1e-07 1e-07 1.0000001 1e-07 1 101 2 3 -1 
3 0.9999999000000001 -9.999999994736442e-08 -1e-07 1.0000001 1.0000001 1e-07 1 101 2 2 -4 
4 -9.999999994736442e-08 0.9999999000000001 -1e-07 1.0000001 1.0000001 1e-07 1 101 2 4 -3 
5 0.3199999 0.3199999 -1e-07 0.6800000999999999 0.6800000999999999 1e-07 0 2 5 -5 
2 0.3199999 0.3199999 -1e-07 0.6800000999999999 0.6800000999999999 1e-07 1 2 1 5 
3 -9.999999994736442e-08 -9.999999994736442e-08 -1e-07 1.0000001 1.0000001 1e-07 1 1 5 1 3 4 2 -5 
$EndEntities
$Nodes
12 421 1 421
0 1 0 1
1
0 0 0
0 2 0 1
2
1 0 0
0 3 0 1
3
0 1 0
0 4 0 1
4
1 1 0
0 5 0 1
5
0.6799999999999999 0.5 0
1 1 0 12
6
7
8
9
10
11
12
13
14
15
16
17
0.07692307692307693 0 0
0.1538461538461539 0 0
0.2307692307692308 0 0
0.3076923076923077 0 0
0.3846153846153846 0 0
0.4615384615384615 0 0
0.5384615384615384 0 0
0.6153846153846154 0 0
0.6923076923076923 0 0
0.7692307692307692 0 0
0.8461538461538461 0 0
0.923076923076923 0 0
1 2 0 12
18
19
20
21
22
23
24
25
26
27
28
29
0 0.9230769230769231 0
0 0.8461538461538461 0
0 0.7692307692307693 0
0 0.6923076923076923 0
0 0.6153846153846154 0
0 0.5384615384615385 0
0 0.4615384615384616 0
0 0.3846153846153846 0
0 0.3076923076923077 0
0 0.2307692307692308 0
0 0.1538461538461539 0
0 0.07692307692307698 0
1 3 0 12
30
31
32
33
34
35
36
37
38
39
40
41
1 0.07692307692307693 0
1 0.1538461538461539 0
1 0.2307692307692308 0
1 0.3076923076923077 0
1 0.3846153846153846 0
1 0.4615384615384615 0
1 0.5384615384615384 0
1 0.6153846153846154 0
1 0.6923076923076923 0
1 0.7692307692307692 0
1 0.8461538461538461 0
1 0.923076923076923 0
1 4 0 12
42
43
44
45
46
47
48
49
50
51
52
53
0.9230769230769231 1 0
0.8461538461538461 1 0
0.7692307692307693 1 0
0.6923076923076923 1 0
0.6153846153846154 1 0
0.5384615384615385 1 0
0.4615384615384616 1 0
0.3846153846153846 1 0
0.3076923076923077 1 0
0.2307692307692308 1 0
0.1538461538461539 1 0
0.07692307692307698 1 0
1 5 0 28
54
55
56
57
58
59
60
61
62
63
64
65
66
67
68
69
70
71
72
73
74
75
76
77
78
79
80
81
0.6757917000278156 0.5386946792379843 0
0.6633635755407723 0.5755800382808475 0
0.643296751827016 0.6089313587348776 0
0.6165295312607292 0.6371891699229744 0
0.5843135193259625 0.659032168000284 0
0.5481551009352602 0.67343899865346 0
0.5097450035453757 0.6797360144932023 0
0.4708792406205029 0.6776287740574748 0
0.433375132038816 0.6672158095670226 0
0.3989863282347717 0.6489840196682406 0
0.3693208114538369 0.6237859025936167 0
0.3457657082898343 0.5927996942918645 0
0.3294224291870958 0.5574742754244771 0
0.3210551677122154 0.5194614233163103 0
0.3210551677122152 0.4805385766836913 0
0.3294224291870953 0.4425257245755244 0
0.3457657082898336 0.4072003057081368 0
0.3693208114538359 0.3762140974063845 0
0.3989863282347704 0.3510159803317603 0
0.4333751320388147 0.3327841904329779 0
0.4708792406205017 0.3223712259425254 0
0.5097450035453746 0.3202639855067977 0
0.5481551009352592 0.3265610013465397 0
0.5843135193259619 0.3409678319997157 0
0.6165295312607286 0.3628108300770252 0
0.6432967518270157 0.3910686412651221 0
0.6633635755407722 0.4244199617191522 0
0.6757917000278155 0.4613053207620156 0
2 2 0 75
82
83
84
85
86
87
88
89
90
91
92
93
94
95
96
97
98
99
100
101
102
103
104
105
106
107
108
109
110
111
112
113
114
115
116
117
118
119
120
121
122
123
124
125
126
127
128
129
130
131
132
133
134
135
136
137
138
139
140
141
142
143
144
145
146
147
148
149
150
151
152
153
154
155
156
0.6493514684013274 0.4869477783023687 0
0.3608258975345648 0.5284171471932468 0
0.5258997876374574 0.6422048055421046 0
0.4921370458321601 0.3549763437550649 0
0.3828852217201707 0.4105936546849573 0
0.4314862100118235 0.6302516358712068 0
0.6075688171363997 0.6033545823918463 0
0.6054411591996363 0.4001208286701795 0
0.3603324547168581 0.4668029423119041 0
0.5532127454949072 0.3639583720015063 0
0.3815019466996423 0.5919142911408021 0
0.4326609674400504 0.3734910474313773 0
0.6379235032224841 0.5474538574411554 0
0.3623773828609461 0.564330288887496 0
0.3968567198255499 0.5561871160278119 0
0.3970367235249104 0.5119049286933175 0
0.4299495884601352 0.5301958877194994 0
0.4275285964608847 0.4907022107953344 0
0.4618396146799367 0.5077387486492705 0
0.4589193542378381 0.4688889186682869 0
0.4937272976122453 0.4858510005561105 0
0.4966536561524791 0.5246028460659222 0
0.5287801391306928 0.5027897460147763 0
0.5259256217366737 0.4639818941865966 0
0.5316061225408133 0.5416201030134449 0
0.4995516117251295 0.563400781486597 0
0.560966403680646 0.4809299372653592 0
0.534712535221694 0.5792438419638992 0
0.5575484811355161 0.4433027141201367 0
0.5229626891372899 0.4254277291994779 0
0.4341602759884264 0.568828457139285 0
0.5681974430421118 0.556731181688744 0
0.5891840750595531 0.461958646494284 0
0.592297915421552 0.4985865485093387 0
0.425363898251406 0.453308174475348 0
0.4555104793489158 0.432349474157436 0
0.5042514946586735 0.6085505921567449 0
0.5638041355321916 0.5197507991760866 0
0.5998042187969073 0.5341818080411466 0
0.4908512015671501 0.4474578676791522 0
0.4880617673299378 0.4082481893070058 0
0.5226897579838489 0.3843165511984738 0
0.5620562605878551 0.4025793295951993 0
0.4649890768607841 0.5466806681446716 0
0.4696992451613891 0.585666411904149 0
0.4684439735510532 0.6227197300562775 0
0.4199433231599043 0.4139796843542469 0
0.5696862038541588 0.5942607915811986 0
0.3958075436302686 0.4755052231264056 0
0.4638696475943422 0.3778330828516486 0
0.4144986649044676 0.5950067174339022 0
0.5405199158588948 0.6115648641006095 0
0.6248944551467291 0.5134171437974169 0
0.569443095542579 0.629152356002567 0
0.6031839917067434 0.56962747276087 0
0.6443852748025229 0.4513509366343307 0
0.5843106431738178 0.3740874384687252 0
0.5251879307583099 0.3500152507616765 0
0.3622318865881548 0.4344706061027017 0
0.6305515167464215 0.4214497586167567 0
0.3476391160889482 0.5000000000000007 0
0.4007593304017463 0.3850588928417453 0
0.4909512869158605 0.6502464273393457 0
0.5917871548980483 0.4285725949552218 0
0.3937753785171481 0.4421209647550668 0
0.4584447939466715 0.3503316743865422 0
0.6539776073366228 0.51717359582758 0
0.4581163819424474 0.6508511587516377 0
0.6195762193360945 0.4763286465751378 0
0.4480436634228911 0.4021181593782531 0
0.3979861439510813 0.6200999959459162 0
0.4436576739234319 0.6004945904809641 0
0.6324548811157447 0.5812160772074079 0
0.3733456540070738 0.4947218118045387 0
0.6150968481685281 0.4479321166551462 0
2 3 0 265
157
158
159
160
161
162
163
164
165
166
167
168
169
170
171
172
173
174
175
176
177
178
179
180
181
182
183
184
185
186
187
188
189
190
191
192
193
194
195
196
197
198
199
200
201
202
203
204
205
206
207
208
209
210
211
212
213
214
215
216
217
218
219
220
221
222
223
224
225
226
227
228
229
230
231
232
233
234
235
236
237
238
239
240
241
242
243
244
245
246
247
248
249
250
251
252
253
254
255
256
257
258
259
260
261
262
263
264
265
266
267
268
269
270
271
272
273
274
275
276
277
278
279
280
281
282
283
284
285
286
287
288
289
290
291
292
293
294
295
296
297
298
299
300
301
302
303
304
305
306
307
308
309
310
311
312
313
314
315
316
317
318
319
320
321
322
323
324
325
326
327
328
329
330
331
332
333
334
335
336
337
338
339
340
341
342
343
344
345
346
347
348
349
350
351
352
353
354
355
356
357
358
359
360
361
362
363
364
365
366
367
368
369
370
371
372
373
374
375
376
377
378
379
380
381
382
383
384
385
386
387
388
389
390
391
392
393
394
395
396
397
398
399
400
401
402
403
404
405
406
407
408
409
410
411
412
413
414
415
416
417
418
419
420
421
0.6520593112725133 0.3496799382863787 0
0.6550148474987014 0.6452409383190583 0
0.3607576769177779 0.3387694834788675 0
0.3634400121673195 0.6635464484203907 0
0.3070013585999816 0.5892906797422817 0
0.3070013585999808 0.4107093202577199 0
0.5779320000359656 0.697745950750299 0
0.5787109914642812 0.3024503077861129 0
0.6997852850993236 0.5718838270711442 0
0.7011547246283779 0.4284730880792234 0
0.4366232353877508 0.7071436693746248 0
0.4399491392975016 0.2953364517684207 0
0.2871317798486488 0.5021322247043205 0
0.06130968327306163 0.2756479847098514 0
0.06466348107834852 0.736314179296844 0
0.7304805112881544 0.9267653175637423 0
0.731432014140222 0.06587418511865706 0
0.9420085989345172 0.2696680495062258 0
0.9415103920080666 0.7308372098254404 0
0.2681470285341788 0.0662970518118029 0
0.2692307692307693 0.9333826612473509 0
0.9380143700690229 0.5030521287211591 0
0.05865247675324126 0.5741183449698519 0
0.06174494719784651 0.431495803702958 0
0.4999999999999999 0.06661733875264914 0
0.5006571384109638 0.9372418689865298 0
0.8811721634682543 0.9359625854164081 0
0.1223950691410706 0.9309081125870665 0
0.07222462433871368 0.117674865320964 0
0.8897955562529085 0.06058172966149183 0
0.3320858007553971 0.6315916879882542 0
0.3217384979634216 0.6746302970910146 0
0.3568166816545978 0.7039260828917101 0
0.3132801523412807 0.7223779764920856 0
0.3550862863257598 0.7504531743794589 0
0.2754503774736364 0.6892172627972997 0
0.266068136421572 0.7415496774416928 0
0.226159678476792 0.7086608087783611 0
0.2162617182766597 0.7633517298870061 0
0.2362067112052711 0.6560910725795683 0
0.1857265018727823 0.6731271587625131 0
0.1969857360122642 0.6189003768097101 0
0.2662693741857803 0.798603353266804 0
0.2058420571103658 0.8225204953262766 0
0.1591974720807698 0.7848156733186398 0
0.1404191613877692 0.6367062121193414 0
0.1564617023741508 0.5795222311367207 0
0.2143928250354889 0.5668592828324198 0
0.1711447517331529 0.5298986627792178 0
0.3987213341062295 0.313727801529155 0
0.3568589060341918 0.2961043189992927 0
0.3197403989163582 0.3287712255447951 0
0.3095537489058283 0.280934067781075 0
0.3501117154526643 0.2488660506091522 0
0.2727828172747575 0.3160344511573049 0
0.2612813653939654 0.2639595224139849 0
0.2225024432051155 0.2993787182458382 0
0.2091242527555394 0.2451845411157505 0
0.2356953176314001 0.3499422022886325 0
0.1811223409750352 0.3352164601092701 0
0.1966134280390671 0.3868456557307773 0
0.2528412681197941 0.2078731084313937 0
0.1966189312415247 0.1874465310607253 0
0.3969985514056263 0.2703181601281864 0
0.448060923335565 0.2501826180630114 0
0.3948324465314882 0.2207696873831421 0
0.439673684466436 0.1938938200779867 0
0.4902815118400173 0.2132093955219909 0
0.3932106467417057 0.1633317077171246 0
0.482786144538395 0.161748540402411 0
0.5326907736525696 0.1834387225205685 0
0.5377996731726803 0.2379205915465685 0
0.5817565277028364 0.2057897878683257 0
0.5771207507601541 0.150124091253973 0
0.6267687426695638 0.1775243777978354 0
0.6303851425853122 0.2285028421321736 0
0.6758996767639156 0.2037532348245277 0
0.6793558813563759 0.260660344708939 0
0.7269351091838608 0.2274414139798219 0
0.7327919282124756 0.2812738935964947 0
0.7790535311157842 0.251214906653716 0
0.7815840231330038 0.3088260634506688 0
0.7759882771674487 0.1922743243554279 0
0.6303414145432751 0.1173865400367247 0
0.7329303749271682 0.3393001260307085 0
0.7818646544022303 0.3653542596268625 0
0.8322443629340336 0.3361049297589632 0
0.8319969077971364 0.3940571370157611 0
0.8304029824172163 0.2181471452452303 0
0.783022310438079 0.4205267489743865 0
0.8311821246228117 0.450895181728261 0
0.7863591123639051 0.4732716100409713 0
0.8317773699704394 0.5061424555114898 0
0.7779132234277846 0.5280222027350848 0
0.8303030343845288 0.5612321506243095 0
0.7756938548370542 0.5950252795788351 0
0.8298744919808545 0.6188928761502407 0
0.7817689674058907 0.6510082660211688 0
0.8309269941133058 0.6749095769109605 0
0.7808975563532294 0.7066539211404722 0
0.8312261557969711 0.7353024459011774 0
0.7787617529394406 0.7643544179862343 0
0.7289678581446027 0.7353684890173344 0
0.7258069470300109 0.7920658427352139 0
0.6812618378712321 0.7668440487546548 0
0.6755933145579528 0.8199393510957227 0
0.6280286803992772 0.7852820284709421 0
0.6240825839799001 0.8457463481717571 0
0.576078739131209 0.8182748280068172 0
0.833191447953492 0.7966639604827341 0
0.8823995531755928 0.646236813049814 0
0.8833979422365135 0.36972705494691 0
0.3436406842415483 0.1960167663675204 0
0.3408734723443033 0.1370139166339942 0
0.3884590185196489 0.1024080191913336 0
0.8251705088790553 0.1521879910190829 0
0.8882509894291258 0.1843271011694496 0
0.5734797894865089 0.8744464715797191 0
0.5240163267695352 0.8415681061047005 0
0.528539408123389 0.7856098409045049 0
0.4768339955243681 0.8149210916122875 0
0.6873827661201931 0.3804900261286515 0
0.6808177667023692 0.6093989724534791 0
0.6994841943135967 0.6477919924781104 0
0.6730325832161893 0.680414614954147 0
0.4884871983337175 0.7123411323057417 0
0.7113101005111826 0.4713622732391558 0
0.7280125403610479 0.5149572115955616 0
0.6209401506175943 0.3233427028752834 0
0.2926444224091758 0.456177552637351 0
0.2465199245211227 0.4799533871947254 0
0.2666457053008834 0.4242038402955646 0
0.2932168861598807 0.5457644444945156 0
0.534030377643208 0.7080219688716047 0
0.5584281501401551 0.7403264773013044 0
0.1493480748937389 0.2231583921779856 0
0.1385886762593712 0.3716178414639926 0
0.1653690778687316 0.4308420932321786 0
0.4597691779254908 0.7453971584769463 0
0.6209775515056484 0.9131354726326593 0
0.6078343886274868 0.7322693291490737 0
0.4841336757678071 0.2883017805199072 0
0.1433927928531379 0.850269757441527 0
0.6193381165231105 0.6760105537057597 0
0.7382131512147572 0.3954652463063542 0
0.408945503687091 0.7509716925258392 0
0.1974431473934717 0.8876111715712274 0
0.7256495000202829 0.6043965755103748 0
0.7258143458322025 0.853381811648412 0
0.2407974340344408 0.1335092909310103 0
0.1814749402845772 0.1329059962451218 0
0.6615736000278333 0.3085847540048209 0
0.4723735370053792 0.8803309705854091 0
0.4233988725466149 0.8391817512221139 0
0.4118546954974861 0.8900244909179484 0
0.357170293033336 0.8538050095818077 0
0.9350323167764374 0.4259342102682875 0
0.1009891255453969 0.799639769518061 0
0.2666938692724097 0.5792429817303353 0
0.3552728250068441 0.9284318755029544 0
0.2852855005469253 0.6309814140199212 0
0.06244585706266126 0.5009048636045312 0
0.07200589441996808 0.6497262103740566 0
0.07074962292652709 0.3566099593131082 0
0.5347601297544852 0.2830707895397298 0
0.122880188939012 0.3142064957703289 0
0.5635067561791597 0.0859230251019828 0
0.125916462970706 0.6949224310484783 0
0.221514237652739 0.4324265118445838 0
0.07668959442519718 0.2045931223161198 0
0.2537656256444137 0.5329879615749796 0
0.9323313367185789 0.5831976055659529 0
0.3313461186912651 0.3719831294841286 0
0.2870212436714937 0.3718549340824454 0
0.8157264384347287 0.07580412430523603 0
0.8080405830266498 0.9359746011110843 0
0.8414293625825593 0.8675185250465374 0
0.9268130061248903 0.8770971281222615 0
0.3962738960207036 0.685040116275147 0
0.7615532878784771 0.1315658463689664 0
0.6961304389232971 0.1183274588616703 0
0.5830121435136602 0.2544898315586885 0
0.8807561273394287 0.5353038811012816 0
0.3295189858640504 0.07894527962917069 0
0.0660795171340251 0.8716327308410727 0
0.6624451676509636 0.05926870028056891 0
0.4394915766802002 0.7872148898331899 0
0.2564918392499779 0.8605378106617297 0
0.3851186267567042 0.7973823163132102 0
0.3266257916228333 0.8013323073821105 0
0.5625930588681295 0.9361569514234129 0
0.9393185918141685 0.8017877429422861 0
0.1719019885586494 0.7285573359691915 0
0.1150903630512441 0.05829637266295107 0
0.9371492609660974 0.118446189567773 0
0.1144462531841415 0.5445030159141215 0
0.8308680804997152 0.2781778740313181 0
0.1667460869036004 0.2799898841882856 0
0.7754112314988701 0.8230654798710693 0
0.1884918436386585 0.0722019219584652 0
0.5260420027033101 0.1273861629021887 0
0.1384455578177042 0.1682605316781127 0
0.1271025321434819 0.4770146980714932 0
0.7354650417014775 0.5587560229214471 0
0.8847105470661584 0.3058019563680519 0
0.9408582341689377 0.3439064938995279 0
0.7332275701467303 0.6833089139218997 0
0.6306862063343763 0.2766322245270573 0
0.8799072816142197 0.4785947085684896 0
0.886146930798138 0.7010023794761631 0
0.3010716788532113 0.2296916364036601 0
0.6748512664432152 0.883820676218527 0
0.8711329087197968 0.5889726652983197 0
0.3066383163058686 0.8834375832313305 0
0.8859010418071197 0.7646865276042947 0
0.4345745969225597 0.06442904219295709 0
0.9437507051470369 0.6577483130751296 0
0.7445362728038987 0.4460766947431335 0
0.1910481654913599 0.47901846693596 0
0.7750448132852596 0.8832657888698314 0
0.2949749681130869 0.1700692198038958 0
0.4367104241741274 0.1337221456721224 0
0.5093246215398413 0.744267015337348 0
0.8723033146094238 0.4238416585055418 0
0.6898204619193026 0.3362018603479635 0
0.8855811925528351 0.2434803963441201 0
0.7174723047378742 0.1720697212514612 0
0.1940428221422973 0.9503486728668248 0
0.9504593320285624 0.1923076923076923 0
0.2948623777780121 0.1171669517619748 0
0.6721592914954333 0.9439557561988691 0
0.2399129284144719 0.610415025594391 0
0.8849541307465706 0.8218292483134355 0
0.8712185507923831 0.1182694271446067 0
0.6421527686794102 0.7081338541170841 0
0.743164817344711 0.6363062055020777 0
0.1245337060467742 0.7488498778302428 0
0.4404869391044964 0.943786047062749 0
0.4866934170730869 0.7739055141639859 0
0.5007595323064506 0.2526118938650781 0
0.05631160058222123 0.9436883994177787 0
0.9436883994177787 0.9436883994177787 0
0.3054659481794452 0.7628632977924303 0
0.05520570001199071 0.05517300004611286 0
0.9456862376425197 0.05426974835432902 0
0.5840253106348252 0.7746698074064668 0
0.7496262498935637 0.4867379984707814 0
0.5266164700656458 0.8934257370518444 0
0.1083970976238542 0.5969152029028184 0
0.6090748306066802 0.05402401766636084 0
0.1391454658261795 0.109867937573123 0
0.3026391228795592 0.8395432128247565 0
0.2466529655513585 0.3889429763333855 0
0.6871734350860897 0.7222938632287921 0
0.4815584538560186 0.1165217444509206 0
0.6985146558369758 0.30258525032029 0
0.1154992206531613 0.2627946977105401 0
0.04297741596696353 0.8061116706085378 0
0.3724991325187473 0.04986664588252232 0
0.2153742584851076 0.5177435522634605 0
0.1127109712791917 0.4135160791567462 0
0.647790252491028 0.7430953672703499 0
0.3884019866409657 0.7194246677288938 0
0.6686898216798298 0.1586027755892319 0
0.7043608943023442 0.5372562604145003 0
$EndNodes
$Elements
6 840 1 840
1 1 1 13
1 1 6 
2 6 7 
3 7 8 
4 8 9 
5 9 10 
6 10 11 
7 11 12 
8 12 13 
9 13 14 
10 14 15 
11 15 16 
12 16 17 
13 17 2 
1 2 1 13
14 3 18 
15 18 19 
16 19 20 
17 20 21 
18 21 22 
19 22 23 
20 23 24 
21 24 25 
22 25 26 
23 26 27 
24 27 28 
25 28 29 
26 29 1 
1 3 1 13
27 2 30 
28 30 31 
29 31 32 
30 32 33 
31 33 34 
32 34 35 
33 35 36 
34 36 37 
35 37 38 
36 38 39 
37 39 40 
38 40 41 
39 41 4 
1 4 1 13
40 4 42 
41 42 43 
42 43 44 
43 44 45 
44 45 46 
45 46 47 
46 47 48 
47 48 49 
48 49 50 
49 50 51 
50 51 52 
51 52 53 
52 53 3 
2 2 2 177
53 85 123 122 
54 122 131 85 
55 113 136 129 
56 84 135 59 
57 129 136 88 
58 84 144 118 
59 57 135 88 
60 118 144 127 
61 124 138 89 
62 89 145 124 
63 112 132 96 
64 59 135 58 
65 96 132 92 
66 83 97 96 
67 58 135 57 
68 133 135 84 
69 118 133 84 
70 120 136 113 
71 88 135 129 
72 97 98 96 
73 83 96 95 
74 98 112 96 
75 97 99 98 
76 91 124 123 
77 99 100 98 
78 128 143 93 
79 90 146 130 
80 99 101 100 
81 99 116 101 
82 101 102 100 
83 102 103 100 
84 116 117 101 
85 102 104 103 
86 104 106 103 
87 102 105 104 
88 105 108 104 
89 106 107 103 
90 105 110 108 
91 106 109 107 
92 105 111 110 
93 110 114 108 
94 109 118 107 
95 106 113 109 
96 114 115 108 
97 60 84 59 
98 77 91 76 
99 75 85 74 
100 73 93 72 
101 69 90 68 
102 63 87 62 
103 71 86 70 
104 5 82 81 
105 67 83 66 
106 79 89 78 
107 55 94 54 
108 65 92 64 
109 57 88 56 
110 104 119 106 
111 108 119 104 
112 115 119 108 
113 106 119 113 
114 115 120 119 
115 119 120 113 
116 105 121 111 
117 101 121 102 
118 117 121 101 
119 102 121 105 
120 122 123 111 
121 121 122 111 
122 117 122 121 
123 107 126 125 
124 123 124 111 
125 98 125 112 
126 107 125 103 
127 100 125 98 
128 125 126 112 
129 111 124 110 
130 103 125 100 
131 140 146 90 
132 91 138 124 
133 118 126 107 
134 118 127 126 
135 141 145 89 
136 97 130 99 
137 93 151 128 
138 141 156 145 
139 116 128 117 
140 85 139 123 
141 113 129 109 
142 83 155 97 
143 109 133 118 
144 99 130 116 
145 124 145 110 
146 117 151 122 
147 123 139 91 
148 128 146 86 
149 116 146 128 
150 120 134 94 
151 142 155 83 
152 95 96 92 
153 94 136 120 
154 122 151 131 
155 86 143 128 
156 134 150 82 
157 115 134 120 
158 79 141 89 
159 81 137 80 
160 77 138 91 
161 89 138 78 
162 80 141 79 
163 66 95 65 
164 69 140 90 
165 72 143 71 
166 68 142 67 
167 70 140 69 
168 86 140 70 
169 93 143 72 
170 75 139 85 
171 65 95 92 
172 83 95 66 
173 67 142 83 
174 82 137 81 
175 90 142 68 
176 78 138 77 
177 76 139 75 
178 60 144 84 
179 71 143 86 
180 61 144 60 
181 91 139 76 
182 110 145 114 
183 126 153 112 
184 73 147 93 
185 85 147 74 
186 129 133 109 
187 5 148 82 
188 94 148 54 
189 87 149 62 
190 63 152 87 
191 92 152 64 
192 88 154 56 
193 55 154 94 
194 115 150 134 
195 127 149 87 
196 74 147 73 
197 127 153 126 
198 87 153 127 
199 54 148 5 
200 82 150 137 
201 62 149 61 
202 82 148 134 
203 114 150 115 
204 64 152 63 
205 56 154 55 
206 97 155 130 
207 93 147 131 
208 131 147 85 
209 129 135 133 
210 130 146 116 
211 150 156 137 
212 112 153 132 
213 131 151 93 
214 144 149 127 
215 137 141 80 
216 128 151 117 
217 87 152 132 
218 132 152 92 
219 134 148 94 
220 94 154 136 
221 136 154 88 
222 145 156 114 
223 86 146 140 
224 61 149 144 
225 130 155 90 
226 132 153 87 
227 90 155 142 
228 137 156 141 
229 114 156 150 
2 3 2 611
230 306 356 176 
231 241 301 278 
232 278 381 241 
233 250 360 284 
234 210 220 207 
235 192 317 188 
236 299 303 184 
237 12 323 181 
238 307 356 306 
239 284 403 250 
240 252 392 304 
241 268 362 313 
242 220 222 221 
243 292 413 326 
244 321 338 164 
245 177 316 50 
246 12 406 323 
247 325 409 288 
248 302 345 191 
249 338 364 164 
250 331 390 272 
251 222 223 221 
252 246 301 242 
253 313 362 34 
254 326 358 292 
255 207 220 206 
256 164 364 285 
257 294 375 359 
258 316 394 49 
259 188 317 187 
260 228 338 321 
261 208 330 211 
262 196 317 192 
263 41 334 40 
264 267 369 328 
265 19 341 18 
266 328 373 267 
267 172 368 305 
268 73 206 168 
269 180 359 318 
270 287 288 286 
271 78 285 157 
272 254 392 252 
273 65 187 161 
274 210 222 220 
275 217 409 325 
276 46 347 296 
277 80 278 166 
278 315 388 204 
279 272 336 331 
280 180 417 359 
281 296 387 46 
282 69 286 162 
283 191 419 302 
284 311 394 316 
285 291 402 276 
286 202 324 319 
287 303 384 184 
288 242 301 241 
289 185 358 326 
290 363 410 281 
291 211 330 215 
292 333 355 266 
293 382 385 174 
294 325 375 294 
295 280 363 281 
296 287 325 288 
297 50 316 49 
298 360 421 284 
299 221 298 168 
300 177 370 316 
301 176 386 306 
302 303 344 177 
303 41 398 334 
304 320 322 293 
305 204 388 198 
306 293 417 320 
307 184 341 299 
308 343 345 302 
309 281 300 158 
310 167 419 335 
311 276 379 291 
312 204 327 315 
313 163 300 297 
314 273 385 382 
315 240 342 337 
316 329 330 208 
317 319 324 171 
318 359 375 205 
319 206 220 168 
320 285 308 157 
321 187 317 161 
322 307 407 356 
323 333 376 355 
324 186 390 331 
325 356 407 350 
326 341 397 18 
327 278 301 166 
328 366 373 175 
329 221 396 298 
330 286 288 162 
331 23 318 179 
332 179 319 22 
333 170 320 26 
334 177 384 303 
335 326 413 170 
336 246 374 301 
337 9 415 340 
338 319 405 202 
339 267 373 366 
340 312 408 346 
341 185 407 358 
342 161 317 315 
343 36 328 178 
344 170 322 320 
345 305 376 172 
346 288 330 162 
347 182 394 309 
348 7 356 350 
349 302 419 167 
350 27 326 170 
351 275 276 265 
352 178 365 313 
353 312 346 345 
354 309 394 311 
355 172 387 368 
356 15 331 173 
357 172 332 44 
358 72 206 73 
359 351 385 273 
360 64 187 65 
361 77 285 78 
362 180 318 24 
363 25 320 180 
364 21 319 171 
365 79 278 80 
366 279 304 280 
367 81 283 5 
368 337 342 173 
369 238 241 236 
370 331 336 173 
371 68 286 69 
372 178 313 35 
373 10 415 9 
374 276 402 265 
375 328 339 178 
376 260 261 259 
377 320 417 180 
378 315 327 289 
379 334 348 40 
380 48 182 47 
381 12 181 11 
382 13 406 12 
383 263 402 297 
384 247 248 246 
385 36 178 35 
386 250 403 248 
387 223 224 221 
388 227 228 224 
389 25 180 24 
390 23 179 22 
391 21 171 20 
392 27 170 26 
393 283 284 5 
394 293 322 216 
395 37 328 36 
396 159 329 208 
397 179 405 319 
398 308 364 234 
399 203 204 198 
400 314 414 171 
401 9 176 8 
402 51 177 50 
403 297 418 263 
404 33 174 32 
405 39 175 38 
406 304 360 252 
407 160 335 189 
408 9 340 176 
409 370 408 312 
410 248 374 246 
411 45 172 44 
412 15 173 14 
413 313 380 268 
414 258 259 256 
415 336 337 173 
416 244 246 242 
417 269 270 225 
418 318 352 179 
419 291 379 290 
420 249 250 248 
421 231 232 229 
422 282 379 295 
423 332 333 183 
424 232 338 229 
425 337 420 240 
426 365 380 313 
427 275 277 276 
428 24 318 23 
429 22 319 21 
430 26 320 25 
431 298 396 321 
432 232 364 338 
433 185 326 28 
434 37 373 328 
435 321 396 228 
436 300 391 297 
437 281 391 300 
438 222 269 225 
439 186 331 16 
440 43 332 183 
441 35 313 34 
442 262 263 261 
443 28 326 27 
444 175 373 38 
445 217 325 294 
446 233 234 232 
447 16 331 15 
448 44 332 43 
449 238 242 241 
450 227 229 228 
451 71 329 159 
452 258 260 259 
453 251 252 250 
454 273 390 351 
455 63 335 160 
456 158 300 57 
457 203 205 204 
458 56 279 158 
459 372 411 378 
460 248 403 374 
461 53 184 52 
462 162 329 70 
463 29 185 28 
464 167 335 62 
465 17 186 16 
466 162 330 329 
467 58 300 163 
468 43 183 42 
469 279 280 158 
470 165 279 55 
471 323 357 181 
472 256 363 254 
473 168 298 74 
474 61 282 167 
475 244 247 246 
476 76 321 164 
477 312 345 310 
478 51 384 177 
479 333 334 183 
480 367 377 269 
481 19 414 341 
482 161 289 66 
483 67 289 169 
484 163 290 59 
485 161 315 289 
486 5 421 54 
487 298 321 75 
488 174 385 32 
489 163 291 290 
490 165 304 279 
491 235 236 234 
492 264 265 263 
493 253 254 252 
494 14 342 13 
495 171 414 20 
496 259 410 363 
497 282 295 167 
498 225 378 223 
499 260 262 261 
500 223 378 226 
501 34 362 33 
502 60 290 282 
503 224 396 221 
504 194 196 192 
505 247 249 248 
506 274 275 265 
507 289 327 169 
508 211 215 213 
509 234 364 232 
510 231 233 232 
511 40 348 39 
512 47 347 46 
513 39 348 175 
514 344 370 177 
515 229 338 228 
516 182 347 47 
517 237 238 236 
518 11 372 10 
519 220 221 168 
520 249 251 250 
521 197 198 196 
522 317 388 315 
523 173 342 14 
524 255 256 254 
525 359 417 294 
526 199 399 346 
527 8 356 7 
528 171 393 314 
529 218 377 367 
530 222 225 223 
531 309 310 277 
532 332 376 333 
533 172 376 332 
534 288 409 330 
535 215 217 216 
536 311 312 310 
537 301 374 166 
538 226 227 224 
539 46 387 45 
540 49 394 48 
541 233 235 234 
542 322 354 216 
543 239 336 272 
544 217 294 293 
545 251 253 252 
546 257 258 256 
547 230 231 229 
548 184 384 52 
549 243 244 242 
550 239 383 336 
551 336 383 337 
552 262 264 263 
553 210 269 222 
554 327 416 287 
555 253 255 254 
556 63 160 64 
557 71 159 72 
558 202 203 198 
559 284 421 5 
560 259 363 256 
561 56 158 57 
562 78 157 79 
563 194 197 196 
564 372 378 271 
565 363 392 254 
566 73 168 74 
567 61 167 62 
568 235 237 236 
569 80 166 81 
570 54 165 55 
571 7 350 6 
572 252 360 250 
573 58 163 59 
574 76 164 77 
575 31 351 30 
576 163 297 291 
577 69 162 70 
578 65 161 66 
579 176 356 8 
580 67 169 68 
581 70 329 71 
582 241 412 236 
583 270 271 225 
584 157 381 278 
585 238 243 242 
586 57 300 58 
587 280 281 158 
588 62 335 63 
589 55 279 56 
590 200 303 299 
591 299 341 314 
592 74 298 75 
593 264 274 265 
594 193 199 195 
595 60 282 61 
596 257 266 258 
597 75 321 76 
598 214 218 212 
599 234 412 308 
600 272 273 245 
601 66 289 67 
602 215 216 213 
603 199 344 200 
604 255 257 256 
605 275 309 277 
606 59 290 60 
607 309 404 182 
608 285 364 308 
609 219 306 218 
610 299 314 201 
611 200 201 195 
612 223 226 224 
613 214 292 219 
614 304 392 280 
615 345 346 191 
616 227 230 229 
617 330 409 215 
618 6 400 1 
619 30 401 2 
620 190 192 188 
621 309 311 310 
622 290 379 282 
623 211 213 212 
624 311 316 312 
625 159 206 72 
626 260 305 262 
627 295 302 167 
628 159 208 207 
629 160 187 64 
630 181 372 11 
631 181 411 372 
632 324 393 171 
633 215 409 217 
634 193 194 192 
635 203 352 205 
636 209 210 207 
637 3 397 53 
638 18 397 3 
639 4 398 41 
640 42 398 4 
641 237 353 238 
642 197 202 198 
643 239 272 245 
644 1 400 29 
645 2 401 17 
646 165 360 304 
647 33 362 174 
648 197 324 202 
649 157 278 79 
650 208 211 209 
651 164 285 77 
652 239 245 237 
653 217 293 216 
654 165 421 360 
655 169 327 287 
656 269 377 270 
657 199 200 195 
658 295 395 343 
659 160 189 188 
660 219 307 306 
661 166 283 81 
662 243 268 244 
663 214 219 218 
664 200 344 303 
665 253 267 255 
666 235 239 237 
667 200 299 201 
668 310 343 277 
669 297 402 291 
670 334 398 183 
671 169 286 68 
672 213 214 212 
673 230 240 231 
674 210 367 269 
675 193 195 194 
676 238 353 243 
677 270 340 271 
678 196 388 317 
679 31 385 351 
680 379 395 295 
681 296 347 274 
682 190 193 192 
683 230 323 240 
684 189 191 190 
685 264 296 274 
686 249 339 251 
687 226 357 227 
688 211 212 209 
689 287 375 325 
690 266 389 333 
691 266 355 258 
692 159 207 206 
693 346 408 199 
694 341 414 314 
695 189 190 188 
696 228 396 224 
697 258 355 260 
698 208 209 207 
699 287 416 375 
700 160 188 187 
701 261 410 259 
702 245 353 237 
703 227 357 230 
704 308 381 157 
705 194 349 197 
706 201 349 195 
707 214 354 292 
708 218 367 212 
709 372 415 10 
710 316 370 312 
711 263 418 261 
712 38 373 37 
713 198 388 196 
714 260 355 305 
715 195 349 194 
716 374 403 283 
717 197 349 324 
718 169 287 286 
719 295 343 302 
720 213 354 214 
721 318 359 352 
722 216 354 213 
723 352 359 205 
724 45 387 172 
725 292 358 219 
726 273 382 245 
727 348 371 175 
728 48 394 182 
729 342 406 13 
730 310 345 343 
731 328 369 339 
732 240 406 342 
733 247 365 249 
734 230 357 323 
735 219 358 307 
736 166 374 283 
737 257 371 266 
738 189 419 191 
739 410 418 391 
740 255 366 257 
741 251 369 253 
742 353 361 243 
743 193 399 199 
744 236 412 234 
745 184 397 341 
746 368 387 296 
747 209 367 210 
748 268 380 244 
749 381 412 241 
750 265 402 263 
751 174 362 361 
752 277 395 276 
753 243 361 268 
754 306 377 218 
755 244 380 247 
756 204 416 327 
757 267 366 255 
758 361 362 268 
759 275 404 309 
760 253 369 267 
761 262 368 264 
762 305 368 262 
763 343 395 277 
764 333 389 334 
765 270 386 340 
766 205 416 204 
767 212 367 209 
768 314 393 201 
769 271 378 225 
770 249 365 339 
771 52 384 51 
772 264 368 296 
773 32 385 31 
774 339 365 178 
775 240 420 231 
776 339 369 251 
777 366 371 257 
778 355 376 305 
779 182 404 347 
780 323 406 240 
781 347 404 274 
782 203 405 352 
783 235 383 239 
784 281 410 391 
785 247 380 365 
786 170 413 322 
787 340 386 176 
788 346 399 191 
789 201 393 349 
790 53 397 184 
791 183 398 42 
792 233 383 235 
793 191 399 190 
794 29 400 185 
795 349 393 324 
796 17 401 186 
797 357 411 181 
798 377 386 270 
799 175 371 366 
800 280 392 363 
801 272 390 273 
802 20 414 19 
803 335 419 189 
804 353 382 361 
805 361 382 174 
806 245 382 353 
807 351 390 186 
808 334 389 348 
809 350 407 185 
810 352 405 179 
811 199 408 344 
812 354 413 292 
813 306 386 377 
814 274 404 275 
815 322 413 354 
816 185 400 350 
817 186 401 351 
818 350 400 6 
819 351 401 30 
820 283 403 284 
821 371 389 266 
822 348 389 371 
823 344 408 370 
824 190 399 193 
825 202 405 203 
826 233 420 383 
827 294 417 293 
828 271 415 372 
829 231 420 233 
830 340 415 271 
831 54 421 165 
832 261 418 410 
833 226 411 357 
834 358 407 307 
835 383 420 337 
836 375 416 205 
837 378 411 226 
838 308 412 381 
839 276 395 379 
840 391 418 297 
$EndElements
