$MeshFormat
4.1 0 8
$EndMeshFormat
$PhysicalNames
3
1 101 "outer_boundary"
2 1 "material_1"
2 2 "material_2"
$EndPhysicalNames
$Entities
7 7 2 0
1 0 0 0 0 
2 1 0 0 0 
3 0 1 0 0 
4 1 1 0 0 
5 0.3798700467835587 0.4554462987404527 0 0 
6 0.4545303482148523 0.1922841771142251 0 0 
7 0.6451052801413288 0.3885229556210429 0 0 
1 -9.999999994736442e-08 -1e-07 -1e-07 1.0000001 1e-07 1e-07 1 101 2 1 -2 
2 -1e-07 -9.999999994736442e-08 -1e-07 1e-07 1.0000001 1e-07 1 101 2 3 -1 
3 0.9999999000000001 -9.999999994736442e-08 -1e-07 1.0000001 1.0000001 1e-07 1 101 2 2 -4 
4 -9.999999994736442e-08 0.9999999000000001 -1e-07 1.0000001 1.0000001 1e-07 1 101 2 4 -3 
5 0.3798699467835587 0.1922840771142251 -1e-07 0.4545304482148523 0.4554463987404527 1e-07 0 2 5 -6 
6 0.4545302482148523 0.1922840771142251 -1e-07 0.6451053801413288 0.3885230556210429 1e-07 0 2 6 -7 
7 0.3798699467835587 0.3885228556210429 -1e-07 0.6451053801413288 0.4554463987404527 1e-07 0 2 7 -5 
2 0.3798699467835587 0.1922840771142251 -1e-07 0.6451053801413288 0.4554463987404527 1e-07 1 2 3 5 6 7 
3 -9.999999994736442e-08 -9.999999994736442e-08 -1e-07 1.0000001 1.0000001 1e-07 1 1 7 1 3 4 2 -5 -7 -6 
$EndEntities
$Nodes
16 216 1 216
0 1 0 1
1
0 0 0
0 2 0 1
2
1 0 0
0 3 0 1
3
0 1 0
0 4 0 1
4
1 1 0
0 5 0 1
5
0.3798700467835587 0.4554462987404527 0
0 6 0 1
6
0.4545303482148523 0.1922841771142251 0
0 7 0 1
7
0.6451052801413288 0.3885229556210429 0
1 1 0 9
8
9
10
11
12
13
14
15
16
0.09999999999999996 0 0
0.1999999999999999 0 0
0.3000000000000001 0 0
0.4000000000000004 0 0
0.5000000000000003 0 0
0.5999999999999999 0 0
0.6999999999999995 0 0
0.7999999999999992 0 0
0.899999999999999 0 0
1 2 0 9
17
18
19
20
21
22
23
24
25
0 0.9 0
0 0.8 0
0 0.7 0
0 0.5999999999999996 0
0 0.4999999999999997 0
0 0.4000000000000001 0
0 0.3000000000000005 0
0 0.2000000000000008 0
0 0.100000000000001 0
1 3 0 9
26
27
28
29
30
31
32
33
34
1 0.09999999999999996 0
1 0.1999999999999999 0
1 0.3000000000000001 0
1 0.4000000000000004 0
1 0.5000000000000003 0
1 0.5999999999999999 0
1 0.6999999999999995 0
1 0.7999999999999992 0
1 0.899999999999999 0
1 4 0 9
35
36
37
38
39
40
41
42
43
0.9 1 0
0.8 1 0
0.7 1 0
0.5999999999999996 1 0
0.4999999999999997 1 0
0.4000000000000001 1 0
0.3000000000000005 1 0
0.2000000000000008 1 0
0.100000000000001 1 0
1 5 0 4
44
45
46
47
0.3948021070698174 0.4028138744152071 0
0.4097341673560762 0.3501814500899615 0
0.4246662276423349 0.2975490257647158 0
0.4395982879285937 0.2449166014394702 0
1 6 0 4
48
49
50
51
0.4926453346001476 0.2315319328155887 0
0.530760320985443 0.2707796885169523 0
0.5688753073707384 0.310027444218316 0
0.6069902937560339 0.3492751999196796 0
1 7 0 4
52
53
54
55
0.5920582334697747 0.4019076242449249 0
0.5390111867982206 0.4152922928688069 0
0.4859641401266664 0.4286769614926889 0
0.4329170934551123 0.4420616301165708 0
2 2 0 6
56
57
58
59
60
61
0.5008962004129254 0.3760445371674434 0
0.477713274313889 0.2841643571408341 0
0.5539432470844795 0.3626598685435614 0
0.4478491537413714 0.3894292057913252 0
0.5158282606991843 0.3234121128421978 0
0.4627812140276302 0.3367967814660796 0
2 3 0 155
62
63
64
65
66
67
68
69
70
71
72
73
74
75
76
77
78
79
80
81
82
83
84
85
86
87
88
89
90
91
92
93
94
95
96
97
98
99
100
101
102
103
104
105
106
107
108
109
110
111
112
113
114
115
116
117
118
119
120
121
122
123
124
125
126
127
128
129
130
131
132
133
134
135
136
137
138
139
140
141
142
143
144
145
146
147
148
149
150
151
152
153
154
155
156
157
158
159
160
161
162
163
164
165
166
167
168
169
170
171
172
173
174
175
176
177
178
179
180
181
182
183
184
185
186
187
188
189
190
191
192
193
194
195
196
197
198
199
200
201
202
203
204
205
206
207
208
209
210
211
212
213
214
215
216
0.6269508470425047 0.4425616326539872 0
0.478303790029055 0.4789266853455519 0
0.6374155023235708 0.9012971653214749 0
0.3572304374237766 0.9164116548054406 0
0.664956502109914 0.3403772665332683 0
0.3716191809707808 0.3109336943885978 0
0.08552938044723252 0.6452539734607532 0
0.9186308407255976 0.6429166485941765 0
0.6856613508360043 0.4296458835136256 0
0.6665355274791118 0.4884008568461674 0
0.340175440114743 0.4147026152464661 0
0.3239455139561144 0.4706276852739779 0
0.397858873973874 0.2062534827291383 0
0.5838073676569973 0.2573950198930703 0
0.3661664597629137 0.5132824612814155 0
0.2812209053577239 0.4276311109779239 0
0.0780168804393091 0.2484235113225655 0
0.3062141749573967 0.5303510904268601 0
0.3532651784197411 0.5764357598777143 0
0.7300377100868685 0.4722673855294835 0
0.7139248693156011 0.5371009245453854 0
0.6442017033452476 0.5517669157043518 0
0.6939481454291649 0.6049942110436095 0
0.6223357250248567 0.6194578617186139 0
0.7480951841685337 0.4047658505472942 0
0.7462378879255607 0.08405990954625531 0
0.917648383430795 0.2535696754672036 0
0.67236027957078 0.6765035309876908 0
0.597402039498515 0.6912720081656103 0
0.2880529964168395 0.5939645570810598 0
0.3372682184959048 0.6430540701751224 0
0.2326571794878665 0.5409676880873782 0
0.5490579121824981 0.6326392011167459 0
0.5216849709752415 0.7052734892463571 0
0.5071806765391829 0.1792555794803731 0
0.25 0.08660254037844389 0
0.2675711582343322 0.6653702293484594 0
0.782154233188175 0.5197039687942027 0
0.3203983811397568 0.7173611394331476 0
0.2452203541206399 0.7405834591444052 0
0.1540695614868038 0.9066884785478868 0
0.9235465735154311 0.8488056204921122 0
0.09017699736811313 0.4528537560820244 0
0.7631459799025577 0.6548269971449282 0
0.727573391211761 0.7363477378339759 0
0.4036422188479425 0.615423168465963 0
0.5706648870735882 0.7663577970901052 0
0.4955593081357443 0.7835285572323514 0
0.4154902267559916 0.1493698619481499 0
0.9074866685255414 0.4543090106736692 0
0.2989975986408295 0.3687514993698512 0
0.2310567537128146 0.3806952856864967 0
0.2526620520152628 0.3163821147713016 0
0.352230650268803 0.1635230944643534 0
0.8147702815635136 0.7344703039193143 0
0.7818317189213582 0.8154073081471003 0
0.2149797313126113 0.4495484039211184 0
0.3402819693992549 0.2229329096091976 0
0.1862772743937376 0.3289371338375402 0
0.2141927711171614 0.2472447698130016 0
0.5453363424336735 0.8458076864894521 0
0.276537776758905 0.1790804029424415 0
0.3044098276583549 0.7936371279968431 0
0.4495348024878005 0.732038326280725 0
0.4574181982620239 0.8648604335371016 0
0.5591900050186397 0.08810560851788635 0
0.2235017689104937 0.8305556693806719 0
0.1767586818081842 0.7642100394758653 0
0.6535059776429892 0.08231971961800738 0
0.7004519385531494 0.1601736628408064 0
0.7859277538289556 0.1586212856789623 0
0.7426389151806906 0.2250559032322822 0
0.6218847253014508 0.155768249345263 0
0.6521893441170787 0.2266491723314618 0
0.8409463668363253 0.09169727151508394 0
0.08316324434972427 0.5524443387598775 0
0.1632612010956868 0.5971224494613889 0
0.09271907576663402 0.3434973479216911 0
0.9182031583347876 0.5542568837582119 0
0.8360149767413196 0.5966983504454142 0
0.694420016974614 0.8188446888950787 0
0.7429918416914909 0.9085272824504331 0
0.9161840079246808 0.3494682517560215 0
0.8439485152993935 0.311070355007162 0
0.8315681599074958 0.3993458467500712 0
0.3755002335633426 0.09574399887334101 0
0.1531339617936847 0.08155284662508766 0
0.255361581600152 0.9197995200330051 0
0.9086105140269792 0.7414594338304668 0
0.09394326305069656 0.1540569257994751 0
0.9152432150162663 0.1531969421219824 0
0.2002193867587532 0.1599392099552562 0
0.4642588040333304 0.07837021603147837 0
0.5733687589674998 0.5654588523337292 0
0.5053822010275895 0.576931054465561 0
0.1595037757051088 0.5164437509898313 0
0.5257794877608405 0.5190691036754979 0
0.5933183589052465 0.4992499523274228 0
0.4715414849073981 0.6451258007934346 0
0.4124369892600236 0.5539632959049658 0
0.3761505800708804 0.762220056966969 0
0.4251661725111369 0.4956459993372286 0
0.8473941408263383 0.8999424074986698 0
0.1802027488601453 0.6808390271881186 0
0.356687120684522 0.3635661187138435 0
0.6292475992249804 0.294627402501799 0
0.5451907447467277 0.2186295562646962 0
0.07605551834749713 0.8502797989236865 0
0.3865512412570399 0.2583012700633524 0
0.760950709455632 0.5857060582852162 0
0.6468706486250142 0.7526181010354085 0
0.6970574625548719 0.2874710707961791 0
0.7259933630306248 0.3443218890841038 0
0.8378932914053538 0.4662444585133076 0
0.09552510330545894 0.7532552590000581 0
0.1499394192454543 0.3983500143942524 0
0.2718035010143426 0.4838251957374517 0
0.8401872640675581 0.2215082436390878 0
0.5748679576150482 0.4445327910082899 0
0.2903500575469298 0.2587910773429166 0
0.5369250051213412 0.9268548065587473 0
0.5255711826007702 0.4638187494998449 0
0.4722900781670836 0.1455973707092941 0
0.6189414794860921 0.8169850877663039 0
0.7691900924000294 0.2947965269071529 0
0.3146298567112906 0.3125005187147387 0
0.1470504273080804 0.217370628323541 0
0.3902941884797391 0.6843696156466341 0
0.7837504606483623 0.352916757482936 0
0.07617689450134202 0.07513056948543106 0
0.2267623445915203 0.6142410386989074 0
0.5582316357739854 0.1629890493133068 0
0.8470864640162667 0.5316172928360113 0
0.3712438434543248 0.8345584936013837 0
0.4503147281614283 0.941625378980258 0
0.3144359485900953 0.1171479789337198 0
0.9258950662941118 0.07101611395974194 0
0.07179583250763644 0.9282574630101577 0
0.8565939324129761 0.8000617221579316 0
0.4665548383621964 0.5363808075762128 0
0.1476052779080788 0.8264865632956826 0
0.9267949192431122 0.926794919243112 0
0.5922607635192479 0.2042862094295597 0
0.6929319820841706 0.3804622026783444 0
0.847498576410447 0.6691212340666352 0
0.1436512858049845 0.277094678243668 0
0.4521695828624631 0.5916183752813545 0
0.7844820491264942 0.4518547726014074 0
0.1536499809078219 0.4542989813468066 0
0.3009261289438249 0.8607493001064869 0
0.3215831501696524 0.06046516618315367 0
0.8455761499372763 0.1562559357387791 0
0.3406864611770591 0.2726918940237606 0
0.4299813464821548 0.7954411735237061 0
0.5160311029524607 0.1298072974611339 0
$EndNodes
$Elements
6 430 1 430
1 1 1 10
1 1 8 
2 8 9 
3 9 10 
4 10 11 
5 11 12 
6 12 13 
7 13 14 
8 14 15 
9 15 16 
10 16 2 
1 2 1 10
11 3 17 
12 17 18 
13 18 19 
14 19 20 
15 20 21 
16 21 22 
17 22 23 
18 23 24 
19 24 25 
20 25 1 
1 3 1 10
21 2 26 
22 26 27 
23 27 28 
24 28 29 
25 29 30 
26 30 31 
27 31 32 
28 32 33 
29 33 34 
30 34 4 
1 4 1 10
31 4 35 
32 35 36 
33 36 37 
34 37 38 
35 38 39 
36 39 40 
37 40 41 
38 41 42 
39 42 43 
40 43 3 
2 2 2 25
41 6 48 47 
42 5 44 55 
43 7 52 51 
44 45 61 59 
45 47 57 46 
46 48 57 47 
47 46 61 45 
48 51 58 50 
49 54 56 53 
50 52 58 51 
51 59 61 56 
52 45 59 44 
53 50 60 49 
54 56 58 53 
55 53 58 52 
56 49 57 48 
57 58 60 50 
58 49 60 57 
59 56 60 58 
60 44 59 55 
61 54 59 56 
62 55 59 54 
63 57 61 46 
64 60 61 57 
65 56 61 60 
2 3 2 365
66 117 200 164 
67 123 181 121 
68 122 185 64 
69 121 153 123 
70 118 178 93 
71 37 143 36 
72 117 164 143 
73 93 157 118 
74 165 176 68 
75 130 134 127 
76 64 182 122 
77 64 143 37 
78 65 195 126 
79 129 176 165 
80 105 171 141 
81 97 197 123 
82 179 186 133 
83 126 196 65 
84 135 167 75 
85 128 149 102 
86 129 202 176 
87 159 183 180 
88 160 189 107 
89 141 206 105 
90 13 130 127 
91 148 153 151 
92 123 153 97 
93 176 202 169 
94 134 193 127 
95 153 188 151 
96 11 154 147 
97 71 159 62 
98 116 206 150 
99 131 135 134 
100 138 165 68 
101 158 183 159 
102 111 146 144 
103 135 173 167 
104 125 189 160 
105 83 159 71 
106 143 164 36 
107 69 141 140 
108 104 157 137 
109 138 157 93 
110 102 202 128 
111 142 143 64 
112 87 131 130 
113 118 177 113 
114 122 182 126 
115 104 137 21 
116 131 134 130 
117 147 154 110 
118 22 139 104 
119 167 173 66 
120 16 136 15 
121 111 144 29 
122 69 140 31 
123 182 196 126 
124 133 135 131 
125 75 204 135 
126 18 176 169 
127 139 207 120 
128 163 201 161 
129 132 179 133 
130 120 177 139 
131 137 138 68 
132 111 194 175 
133 13 127 12 
134 155 159 83 
135 145 186 179 
136 150 200 116 
137 87 130 14 
138 144 145 88 
139 140 194 111 
140 150 206 69 
141 113 177 120 
142 144 146 145 
143 32 150 69 
144 26 198 2 
145 102 149 42 
146 132 133 131 
147 20 137 68 
148 146 209 86 
149 10 97 9 
150 78 139 23 
151 30 140 111 
152 125 160 95 
153 94 156 155 
154 94 155 85 
155 28 144 88 
156 97 148 9 
157 164 200 103 
158 15 87 14 
159 14 130 13 
160 20 68 19 
161 141 171 99 
162 135 204 134 
163 22 104 21 
164 30 111 29 
165 24 78 23 
166 63 201 163 
167 100 189 162 
168 32 69 31 
169 85 155 83 
170 127 154 12 
171 93 192 138 
172 28 88 27 
173 86 190 146 
174 15 136 87 
175 87 132 131 
176 64 185 142 
177 24 151 78 
178 41 65 40 
179 156 158 155 
180 2 198 16 
181 139 177 104 
182 41 149 65 
183 97 153 148 
184 88 152 27 
185 38 64 37 
186 88 179 152 
187 21 137 20 
188 23 139 22 
189 29 144 28 
190 137 157 138 
191 31 140 30 
192 111 175 146 
193 12 154 11 
194 103 150 33 
195 43 102 42 
196 33 150 32 
197 147 212 11 
198 158 159 155 
199 104 210 157 
200 9 148 8 
201 90 94 85 
202 16 198 136 
203 42 149 41 
204 105 206 116 
205 162 189 125 
206 25 151 24 
207 27 152 26 
208 109 125 95 
209 34 103 33 
210 195 215 126 
211 38 182 64 
212 99 194 141 
213 78 207 139 
214 121 188 153 
215 65 196 40 
216 94 160 156 
217 36 164 35 
218 95 160 94 
219 159 180 62 
220 154 184 110 
221 90 95 94 
222 80 161 107 
223 133 173 135 
224 80 107 92 
225 76 161 80 
226 179 213 152 
227 117 142 106 
228 201 208 161 
229 1 191 25 
230 19 176 18 
231 8 191 1 
232 101 165 98 
233 63 183 158 
234 54 63 55 
235 157 210 118 
236 128 129 101 
237 82 83 71 
238 117 143 142 
239 100 162 124 
240 18 169 17 
241 84 85 83 
242 89 90 85 
243 173 174 66 
244 108 109 95 
245 87 136 132 
246 122 126 109 
247 74 119 115 
248 7 62 52 
249 146 190 145 
250 45 67 46 
251 129 165 101 
252 44 166 45 
253 5 72 44 
254 51 66 7 
255 84 89 85 
256 124 128 101 
257 90 108 95 
258 55 163 5 
259 108 122 109 
260 50 167 51 
261 100 124 101 
262 68 176 19 
263 151 188 78 
264 49 75 50 
265 166 187 67 
266 84 105 89 
267 91 93 79 
268 92 100 98 
269 17 199 3 
270 116 117 106 
271 80 92 91 
272 142 172 106 
273 77 112 72 
274 46 170 47 
275 5 76 73 
276 82 84 83 
277 181 214 187 
278 145 179 88 
279 3 199 43 
280 105 116 106 
281 4 203 34 
282 35 203 4 
283 100 101 98 
284 120 121 114 
285 48 168 49 
286 11 212 10 
287 105 106 89 
288 76 80 79 
289 5 73 72 
290 76 163 161 
291 116 200 117 
292 70 86 81 
293 81 82 71 
294 47 74 6 
295 92 98 91 
296 113 114 112 
297 80 91 79 
298 6 96 48 
299 109 215 125 
300 81 99 82 
301 125 215 162 
302 7 70 62 
303 63 163 55 
304 141 194 140 
305 70 71 62 
306 90 172 108 
307 113 120 114 
308 89 172 90 
309 119 123 115 
310 77 118 113 
311 138 192 165 
312 128 211 149 
313 77 113 112 
314 45 166 67 
315 70 81 71 
316 82 171 84 
317 72 166 44 
318 10 212 97 
319 165 192 98 
320 173 186 174 
321 52 180 53 
322 73 77 72 
323 76 79 73 
324 5 163 76 
325 158 201 63 
326 127 216 154 
327 54 183 63 
328 84 171 105 
329 51 167 66 
330 53 183 54 
331 112 187 166 
332 112 166 72 
333 106 172 89 
334 99 171 82 
335 67 170 46 
336 62 180 52 
337 92 189 100 
338 75 167 50 
339 74 170 119 
340 69 206 141 
341 152 198 26 
342 39 196 182 
343 39 182 38 
344 142 185 172 
345 172 185 108 
346 118 210 177 
347 93 178 79 
348 175 209 146 
349 152 213 136 
350 181 187 114 
351 49 168 75 
352 119 181 123 
353 193 216 127 
354 151 191 148 
355 74 115 110 
356 121 181 114 
357 119 214 181 
358 47 170 74 
359 180 183 53 
360 148 191 8 
361 133 186 173 
362 96 168 48 
363 136 198 152 
364 74 110 6 
365 149 211 65 
366 124 211 128 
367 91 192 93 
368 115 147 110 
369 25 191 151 
370 103 200 150 
371 77 178 118 
372 156 208 201 
373 70 205 86 
374 164 203 35 
375 108 185 122 
376 43 199 102 
377 40 196 39 
378 79 178 73 
379 114 187 112 
380 86 205 174 
381 73 178 77 
382 156 201 158 
383 66 205 7 
384 169 202 102 
385 145 190 186 
386 174 205 66 
387 107 189 92 
388 34 203 103 
389 174 190 86 
390 81 209 99 
391 99 209 175 
392 160 208 156 
393 115 197 147 
394 107 208 160 
395 103 203 164 
396 98 192 91 
397 162 195 124 
398 102 199 169 
399 175 194 99 
400 161 208 107 
401 6 184 96 
402 123 197 115 
403 128 202 129 
404 169 199 17 
405 186 190 174 
406 126 215 109 
407 162 215 195 
408 154 216 184 
409 7 205 70 
410 110 184 6 
411 136 213 132 
412 120 207 121 
413 96 193 168 
414 177 210 104 
415 86 209 81 
416 168 204 75 
417 193 204 168 
418 121 207 188 
419 132 213 179 
420 187 214 67 
421 67 214 170 
422 197 212 147 
423 188 207 78 
424 97 212 197 
425 96 216 193 
426 195 211 124 
427 65 211 195 
428 170 214 119 
429 134 204 193 
430 184 216 96 
$EndElements
