$MeshFormat
4.1 0 8
$EndMeshFormat
$PhysicalNames
3
1 101 "outer_boundary"
2 1 "material_1"
2 2 "material_2"
$EndPhysicalNames
$Entities
5 5 2 0
1 0 0 0 0 
2 1 0 0 0 
3 0 1 0 0 
4 1 1 0 0 
5 0.8250008846341153 0.5339863076774527 0 0 
1 -9.999999994736442e-08 -1e-07 -1e-07 1.0000001 1e-07 1e-07 1 101 2 1 -2 
2 -1e-07 -9.999999994736442e-08 -1e-07 1e-07 1.0000001 1e-07 1 101 2 3 -1 
3 0.9999999000000001 -9.999999994736442e-08 -1e-07 1.0000001 1.0000001 1e-07 1 101 2 2 -4 
4 -9.999999994736442e-08 0.9999999000000001 -1e-07 1.0000001 1.0000001 1e-07 1 101 2 4 -3 
5 0.5215929653202559 0.382282298020523 -1e-07 0.8250009846341152 0.6856903173343823 1e-07 0 2 5 -5 
2 0.5215929653202559 0.382282298020523 -1e-07 0.8250009846341152 0.6856903173343823 1e-07 1 2 1 5 
3 -9.999999994736442e-08 -9.999999994736442e-08 -1e-07 1.0000001 1.0000001 1e-07 1 1 5 1 3 4 2 -5 
$EndEntities
$Nodes
12 155 1 155
0 1 0 1
1
0 0 0
0 2 0 1
2
1 0 0
0 3 0 1
3
0 1 0
0 4 0 1
4
1 1 0
0 5 0 1
5
0.8250008846341153 0.5339863076774527 0
1 1 0 7
6
7
8
9
10
11
12
0.1249999999999999 0 0
0.2499999999999998 0 0
0.3749999999999993 0 0
0.4999999999999988 0 0
0.6249999999999988 0 0
0.7499999999999991 0 0
0.8749999999999997 0 0
1 2 0 7
13
14
15
16
17
18
19
0 0.8750000000000001 0
0 0.7500000000000002 0
0 0.6250000000000007 0
0 0.5000000000000012 0
0 0.3750000000000012 0
0 0.2500000000000009 0
0 0.1250000000000003 0
1 3 0 7
20
21
22
23
24
25
26
1 0.1249999999999999 0
1 0.2499999999999998 0
1 0.3749999999999993 0
1 0.4999999999999988 0
1 0.6249999999999988 0
1 0.7499999999999991 0
1 0.8749999999999997 0
1 4 0 7
27
28
29
30
31
32
33
0.8750000000000001 1 0
0.7500000000000002 1 0
0.6250000000000007 1 0
0.5000000000000012 1 0
0.3750000000000012 1 0
0.2500000000000009 1 0
0.1250000000000003 1 0
1 5 0 13
34
35
36
37
38
39
40
41
42
43
44
45
46
0.8099774747171603 0.5998081672381537 0
0.7678828155503796 0.6525932002607262 0
0.7070542706388696 0.6818866835891032 0
0.6395396793155008 0.6818866835891031 0
0.5787111344039908 0.6525932002607258 0
0.5366164752372103 0.5998081672381528 0
0.5215930653202558 0.5339863076774516 0
0.5366164752372113 0.4681644481167506 0
0.5787111344039924 0.4153794150941784 0
0.6395396793155024 0.386085931765802 0
0.7070542706388708 0.3860859317658024 0
0.7678828155503803 0.4153794150941796 0
0.8099774747171604 0.468164448116752 0
2 2 0 17
47
48
49
50
51
52
53
54
55
56
57
58
59
60
61
62
63
0.7604857771717395 0.5140860325366522 0
0.5938553076759614 0.5531038288729639 0
0.7142962103866251 0.6101241783575877 0
0.6732969749771862 0.4445552829779637 0
0.6033769843577497 0.4782269758075443 0
0.6344943075874565 0.6145608767563041 0
0.6237311932636076 0.4310619014113721 0
0.659980901334394 0.5117709905155251 0
0.7139392289566272 0.484638468106517 0
0.7123589670197014 0.5434922302768077 0
0.7602875938509798 0.5713485435312425 0
0.6650468704432779 0.5717898187815037 0
0.7573831637806865 0.4642230493881206 0
0.6728557551146346 0.6406014279761064 0
0.5638604581477946 0.5083703901186776 0
0.5859193062261547 0.6050165182820366 0
0.7229072190123255 0.4372028640437908 0
2 3 0 92
64
65
66
67
68
69
70
71
72
73
74
75
76
77
78
79
80
81
82
83
84
85
86
87
88
89
90
91
92
93
94
95
96
97
98
99
100
101
102
103
104
105
106
107
108
109
110
111
112
113
114
115
116
117
118
119
120
121
122
123
124
125
126
127
128
129
130
131
132
133
134
135
136
137
138
139
140
141
142
143
144
145
146
147
148
149
150
151
152
153
154
155
0.518204918025622 0.4078729828038363 0
0.4675084600964903 0.5712503028483071 0
0.1173669634822009 0.3146877900185918 0
0.1064889810300669 0.689404695977518 0
0.673296974977187 0.3276165805536407 0
0.7689656898947367 0.7153573254605634 0
0.5721916222717682 0.7189862118136739 0
0.4275147133711843 0.1067276221200902 0
0.3148794043865606 0.9006350147881468 0
0.8086133103575111 0.109792255899239 0
0.4710480391912922 0.4826990906334034 0
0.4046567036514727 0.5353866564156884 0
0.3955380905105903 0.4514484656322491 0
0.3242337042976132 0.5067207709525072 0
0.4004512497253646 0.6123777733210832 0
0.3203051203686308 0.4146465448126138 0
0.2450502563800968 0.4656442697620198 0
0.7499346074467472 0.3329425624030554 0
0.5837565061320374 0.3480536082613799 0
0.6227514075098881 0.2606492239593951 0
0.5064335088076281 0.3247461392959012 0
0.8320524826869636 0.6638488091314846 0
0.6996753520703505 0.7475588758486922 0
0.7689154619508627 0.7960273796765094 0
0.5168164703611614 0.675517518852439 0
0.5007807074878878 0.7480340370381112 0
0.5611254996865865 0.8020878017253028 0
0.8238601855699399 0.355647476593507 0
0.2539950503433761 0.5551234608038162 0
0.1857585253212929 0.09687719193781347 0
0.4776804971690581 0.827477145189313 0
0.4155756180971143 0.7655841363253202 0
0.6944628313248988 0.8322515631922492 0
0.8089011216643399 0.2721145061486852 0
0.7200351394387177 0.2460790588214254 0
0.6502053083121125 0.1827025070489369 0
0.5653747421712841 0.1945654151527791 0
0.1663464012443557 0.5208556567159472 0
0.3891281026518355 0.3653797451266913 0
0.3132788584206208 0.322542020105856 0
0.3852723264491254 0.2729356601829279 0
0.3094683268789141 0.226581076043559 0
0.8418522905786259 0.7496212855875772 0
0.8418033515625958 0.8274731603878529 0
0.8842218618586378 0.5917283811490115 0
0.8744925821795362 0.4880647232575525 0
0.3130511443932098 0.1102156525624803 0
0.2244988002612072 0.2817166358274632 0
0.1035412894283273 0.8090432510796823 0
0.2000449236977263 0.7546419582118893 0
0.9021532988098411 0.3096082227634254 0
0.8791197638703308 0.2073844104331906 0
0.7890332526591457 0.8991852567767579 0
0.5537675060454607 0.9025547801306658 0
0.155913905910296 0.4186469165178752 0
0.9010387217544363 0.3975029434051703 0
0.1958064910905872 0.884385766918562 0
0.1207109538388087 0.1929342423037456 0
0.5939291017824553 0.1006381820760404 0
0.2046924443050641 0.6356736067612765 0
0.2800872181591433 0.6980072017500586 0
0.6916883072318998 0.09360396011851491 0
0.2294023174705088 0.3696473628407366 0
0.9129331324382801 0.694527409507946 0
0.3079990661023306 0.7895766676586828 0
0.4266087700034056 0.9089797470785135 0
0.09362648762770343 0.5815908153575924 0
0.3204341034672918 0.6076518785661199 0
0.3854790052182417 0.1847262909335687 0
0.4712556413190462 0.2248637306032625 0
0.7915066604732365 0.1926153939655476 0
0.6304900781688987 0.772972758995164 0
0.379917124336823 0.6904805488548644 0
0.6713681790622988 0.9148428363169393 0
0.9125466148455683 0.08843533326648589 0
0.9190512202066241 0.7906696319326194 0
0.2306975501386865 0.1816649597350123 0
0.9088773598064073 0.9074647636949287 0
0.09353597944433706 0.9058350996450757 0
0.4538722609410376 0.7036233129582362 0
0.08317735895647105 0.4792186777182835 0
0.09150635094610948 0.09150635094610954 0
0.5441663787171293 0.2660272138741144 0
0.4516336132151881 0.3967037599920705 0
0.8354503559542905 0.4249518012934323 0
0.936626306779782 0.5427679242204057 0
0.5116148397287937 0.1253589899904345 0
0.4577640488920042 0.6403758068624876 0
0.7295447102417318 0.1659678296039157 0
0.6222428188576287 0.8449419480720641 0
0.3756909038316142 0.8344541816671992 0
0.4407446384885647 0.3169258070401707 0
$EndNodes
$Elements
6 308 1 308
1 1 1 8
1 1 6 
2 6 7 
3 7 8 
4 8 9 
5 9 10 
6 10 11 
7 11 12 
8 12 2 
1 2 1 8
9 3 13 
10 13 14 
11 14 15 
12 15 16 
13 16 17 
14 17 18 
15 18 19 
16 19 1 
1 3 1 8
17 2 20 
18 20 21 
19 21 22 
20 22 23 
21 23 24 
22 24 25 
23 25 26 
24 26 4 
1 4 1 8
25 4 27 
26 27 28 
27 28 29 
28 29 30 
29 30 31 
30 31 32 
31 32 33 
32 33 3 
2 2 2 46
33 51 54 48 
34 54 58 48 
35 48 58 52 
36 50 54 51 
37 49 57 35 
38 35 57 34 
39 51 53 50 
40 52 62 48 
41 48 61 51 
42 5 57 47 
43 34 57 5 
44 38 52 37 
45 5 47 46 
46 42 51 41 
47 40 48 39 
48 44 50 43 
49 36 49 35 
50 49 60 58 
51 58 60 52 
52 56 57 49 
53 49 58 56 
54 50 55 54 
55 46 59 45 
56 47 59 46 
57 39 62 38 
58 41 61 40 
59 36 60 49 
60 37 60 36 
61 48 62 39 
62 43 53 42 
63 42 53 51 
64 38 62 52 
65 52 60 37 
66 50 53 43 
67 51 61 41 
68 40 61 48 
69 45 63 44 
70 44 63 50 
71 47 57 56 
72 47 56 55 
73 55 56 54 
74 56 58 54 
75 50 63 55 
76 55 59 47 
77 55 63 59 
78 59 63 45 
2 3 2 230
79 83 98 68 
80 109 119 23 
81 66 118 17 
82 75 131 77 
83 118 144 17 
84 108 127 85 
85 24 127 108 
86 78 131 75 
87 111 126 66 
88 113 128 120 
89 66 126 118 
90 66 121 111 
91 128 136 95 
92 23 149 109 
93 83 99 98 
94 116 141 27 
95 44 81 45 
96 121 140 111 
97 21 115 20 
98 124 136 128 
99 30 129 117 
100 117 129 94 
101 107 141 116 
102 36 86 37 
103 113 120 112 
104 64 147 84 
105 115 138 20 
106 117 153 137 
107 108 149 24 
108 92 123 101 
109 28 116 27 
110 2 138 12 
111 65 74 40 
112 123 130 101 
113 86 135 37 
114 41 74 64 
115 120 128 72 
116 65 75 74 
117 23 119 22 
118 64 82 42 
119 122 150 9 
120 43 82 68 
121 68 98 81 
122 81 91 45 
123 64 84 82 
124 70 88 38 
125 82 83 68 
126 20 138 2 
127 22 114 21 
128 35 85 69 
129 10 122 9 
130 84 155 133 
131 70 89 88 
132 117 137 29 
133 147 155 84 
134 74 147 64 
135 77 131 92 
136 123 131 124 
137 92 131 123 
138 7 110 93 
139 12 73 11 
140 133 146 84 
141 114 115 21 
142 30 117 29 
143 39 151 65 
144 9 71 8 
145 10 125 122 
146 22 119 114 
147 71 110 8 
148 15 67 14 
149 37 135 70 
150 67 113 112 
151 18 66 17 
152 67 112 14 
153 105 140 110 
154 34 108 85 
155 9 150 71 
156 32 72 31 
157 85 106 69 
158 88 151 39 
159 8 110 7 
160 110 140 93 
161 122 125 99 
162 7 93 6 
163 83 100 99 
164 32 120 72 
165 14 112 13 
166 18 121 66 
167 33 120 32 
168 95 154 128 
169 5 109 108 
170 11 125 10 
171 46 148 109 
172 67 130 123 
173 123 124 113 
174 19 121 18 
175 31 129 30 
176 109 148 119 
177 12 138 73 
178 17 144 16 
179 110 132 105 
180 79 102 76 
181 16 130 15 
182 69 106 87 
183 73 125 11 
184 75 76 74 
185 67 123 113 
186 84 146 82 
187 71 150 133 
188 82 146 83 
189 71 133 132 
190 3 142 33 
191 13 142 3 
192 115 134 73 
193 39 65 40 
194 25 127 24 
195 103 104 102 
196 65 78 75 
197 94 154 95 
198 77 92 80 
199 106 107 87 
200 41 64 42 
201 71 132 110 
202 26 141 139 
203 43 68 44 
204 6 145 1 
205 1 145 19 
206 40 74 41 
207 78 136 131 
208 103 111 105 
209 4 141 26 
210 27 141 4 
211 79 103 102 
212 101 118 80 
213 16 144 130 
214 70 90 89 
215 35 69 36 
216 129 154 94 
217 139 141 107 
218 37 70 38 
219 77 79 76 
220 81 98 97 
221 103 105 104 
222 114 119 91 
223 42 82 43 
224 92 101 80 
225 76 147 74 
226 94 95 89 
227 87 116 96 
228 75 77 76 
229 38 88 39 
230 124 128 113 
231 93 140 121 
232 77 80 79 
233 73 138 115 
234 72 129 31 
235 68 81 44 
236 15 130 67 
237 107 116 87 
238 100 122 99 
239 26 139 25 
240 34 85 35 
241 133 155 104 
242 81 97 91 
243 24 149 23 
244 118 126 80 
245 69 86 36 
246 79 126 103 
247 103 126 111 
248 97 115 114 
249 90 117 94 
250 5 108 34 
251 80 126 79 
252 90 94 89 
253 85 127 106 
254 46 109 5 
255 78 151 136 
256 73 152 125 
257 87 96 86 
258 131 136 124 
259 97 114 91 
260 119 148 91 
261 69 87 86 
262 96 135 86 
263 133 150 100 
264 112 142 13 
265 29 137 28 
266 134 152 73 
267 19 145 121 
268 130 144 101 
269 33 142 120 
270 83 146 100 
271 120 142 112 
272 102 147 76 
273 109 149 108 
274 136 151 143 
275 102 155 147 
276 105 132 104 
277 132 133 104 
278 93 145 6 
279 97 134 115 
280 95 143 89 
281 116 137 96 
282 121 145 93 
283 89 143 88 
284 70 135 90 
285 98 134 97 
286 100 146 133 
287 104 155 102 
288 125 152 99 
289 111 140 105 
290 137 153 96 
291 99 152 98 
292 91 148 45 
293 45 148 46 
294 28 137 116 
295 106 139 107 
296 96 153 135 
297 101 144 118 
298 127 139 106 
299 65 151 78 
300 90 153 117 
301 100 150 122 
302 135 153 90 
303 25 139 127 
304 72 154 129 
305 136 143 95 
306 128 154 72 
307 98 152 134 
308 143 151 88 
$EndElements
