$MeshFormat
4.1 0 8
$EndMeshFormat
$PhysicalNames
3
1 101 "outer_boundary"
2 1 "material_1"
2 2 "material_2"
$EndPhysicalNames
$Entities
8 8 2 0
1 0 0 0 0 
2 1 0 0 0 
3 0 1 0 0 
4 1 1 0 0 
5 0.2546258167751163 0.1144324961438505 0 0 
6 0.3212667892542018 0.2839075580242518 0 0 
7 0.1517917273738006 0.3505485305033373 0 0 
8 0.08515075489471505 0.181073468622936 0 0 
1 -9.999999994736442e-08 -1e-07 -1e-07 1.0000001 1e-07 1e-07 1 101 2 1 -2 
2 -1e-07 -9.999999994736442e-08 -1e-07 1e-07 1.0000001 1e-07 1 101 2 3 -1 
3 0.9999999000000001 -9.999999994736442e-08 -1e-07 1.0000001 1.0000001 1e-07 1 101 2 2 -4 
4 -9.999999994736442e-08 0.9999999000000001 -1e-07 1.0000001 1.0000001 1e-07 1 101 2 4 -3 
5 0.2546257167751163 0.1144323961438505 -1e-07 0.3212668892542018 0.2839076580242518 1e-07 0 2 5 -6 
6 0.1517916273738006 0.2839074580242518 -1e-07 0.3212668892542018 0.3505486305033373 1e-07 0 2 6 -7 
7 0.08515065489471504 0.181073368622936 -1e-07 0.1517918273738006 0.3505486305033373 1e-07 0 2 7 -8 
8 0.08515065489471504 0.1144323961438505 -1e-07 0.2546259167751163 0.181073568622936 1e-07 0 2 8 -5 
2 0.08515065489471504 0.1144323961438505 -1e-07 0.3212668892542018 0.3505486305033373 1e-07 1 2 4 5 6 7 8 
3 -9.999999994736442e-08 -9.999999994736442e-08 -1e-07 1.0000001 1.0000001 1e-07 1 1 8 1 3 4 2 -5 -8 -7 -6 
$EndEntities
$Nodes
18 227 1 227
0 1 0 1
1
0 0 0
0 2 0 1
2
1 0 0
0 3 0 1
3
0 1 0
0 4 0 1
4
1 1 0
0 5 0 1
5
0.2546258167751163 0.1144324961438505 0
0 6 0 1
6
0.3212667892542018 0.2839075580242518 0
0 7 0 1
7
0.1517917273738006 0.3505485305033373 0
0 8 0 1
8
0.08515075489471505 0.181073468622936 0
1 1 0 9
9
10
11
12
13
14
15
16
17
0.09999999999999996 0 0
0.1999999999999999 0 0
0.3000000000000001 0 0
0.4000000000000004 0 0
0.5000000000000003 0 0
0.5999999999999999 0 0
0.6999999999999995 0 0
0.7999999999999992 0 0
0.899999999999999 0 0
1 2 0 9
18
19
20
21
22
23
24
25
26
0 0.9 0
0 0.8 0
0 0.7 0
0 0.5999999999999996 0
0 0.4999999999999997 0
0 0.4000000000000001 0
0 0.3000000000000005 0
0 0.2000000000000008 0
0 0.100000000000001 0
1 3 0 9
27
28
29
30
31
32
33
34
35
1 0.09999999999999996 0
1 0.1999999999999999 0
1 0.3000000000000001 0
1 0.4000000000000004 0
1 0.5000000000000003 0
1 0.5999999999999999 0
1 0.6999999999999995 0
1 0.7999999999999992 0
1 0.899999999999999 0
1 4 0 9
36
37
38
39
40
41
42
43
44
0.9 1 0
0.8 1 0
0.7 1 0
0.5999999999999996 1 0
0.4999999999999997 1 0
0.4000000000000001 1 0
0.3000000000000005 1 0
0.2000000000000008 1 0
0.100000000000001 1 0
1 5 0 3
45
46
47
0.2712860598948877 0.1568012616139508 0
0.2879463030146591 0.1991700270840512 0
0.3046065461344304 0.2415387925541515 0
1 6 0 3
48
49
50
0.2788980237841015 0.3005678011440232 0
0.2365292583140012 0.3172280442637945 0
0.1941604928439009 0.3338882873835659 0
1 7 0 3
51
52
53
0.1351314842540292 0.308179765033237 0
0.1184712411342578 0.2658109995631366 0
0.1018109980144864 0.2234422340930363 0
1 8 0 3
54
55
56
0.1275195203648154 0.1644132255031646 0
0.1698882858349157 0.1477529823833932 0
0.212257051305016 0.1310927392636219 0
2 2 0 14
57
58
59
60
61
62
63
64
65
66
67
68
69
70
0.2471276597923356 0.1908842615110098 0
0.1625455323728319 0.2728747558435759 0
0.1610654103272721 0.1929473165015267 0
0.238991902652698 0.2664617642195082 0
0.1439125607747306 0.2320187465250633 0
0.1911060887244506 0.2361438864414608 0
0.2060085770008358 0.1828842158580617 0
0.2002694612882593 0.2890629717920894 0
0.263589439705804 0.2311443423663959 0
0.2293647335752248 0.2215036940792873 0
0.1283629883029208 0.1998934131708968 0
0.2358058722271555 0.1576447295520563 0
0.2814705403062472 0.2647240516616661 0
0.1706116719217614 0.3073362970951314 0
2 3 0 157
71
72
73
74
75
76
77
78
79
80
81
82
83
84
85
86
87
88
89
90
91
92
93
94
95
96
97
98
99
100
101
102
103
104
105
106
107
108
109
110
111
112
113
114
115
116
117
118
119
120
121
122
123
124
125
126
127
128
129
130
131
132
133
134
135
136
137
138
139
140
141
142
143
144
145
146
147
148
149
150
151
152
153
154
155
156
157
158
159
160
161
162
163
164
165
166
167
168
169
170
171
172
173
174
175
176
177
178
179
180
181
182
183
184
185
186
187
188
189
190
191
192
193
194
195
196
197
198
199
200
201
202
203
204
205
206
207
208
209
210
211
212
213
214
215
216
217
218
219
220
221
222
223
224
225
226
227
0.3143818111936449 0.3302302106850052 0
0.1902550935440501 0.3815232112547222 0
0.3572808781447519 0.3103555338083964 0
0.3514487545248131 0.3607563228792318 0
0.3989855386470331 0.3427885010686326 0
0.3920901679758502 0.3962011496323498 0
0.4435546081743427 0.3757632468909746 0
0.4357503392468955 0.4333568287052867 0
0.4938714178436834 0.4094551412715655 0
0.4827971387929293 0.4745151192119993 0
0.3844393933807435 0.4489119150360225 0
0.5460077716485602 0.4508537549295814 0
0.5333486827962994 0.5201149275571382 0
0.34328333975046 0.9107491056068386 0
0.5536426051419739 0.38411876689182 0
0.6024671796279564 0.4938769219011101 0
0.5916948605673755 0.5669783621234339 0
0.08446277982036249 0.6529153400067889 0
0.9188438787105895 0.2568143987316697 0
0.7465957054761111 0.9113550621805059 0
0.5188294279061236 0.5932915677819861 0
0.4102514236958666 0.2816372380944578 0
0.6627261755773357 0.5388683563401034 0
0.6731752766351486 0.462564371906121 0
0.579716249323684 0.6433033687420111 0
0.6379846872371406 0.07992449264714246 0
0.3329688517986366 0.2059262160441543 0
0.505614124389945 0.6696430005472137 0
0.5669562017784696 0.7231100499157309 0
0.6442531206722042 0.694262285409898 0
0.4457004225805863 0.6172139156467292 0
0.7377561790955811 0.5095072727036266 0
0.7476976837354475 0.4282559481613269 0
0.4299294082954419 0.6960316336448977 0
0.3682418181425062 0.6425139197548433 0
0.9266809218651351 0.7517634021795599 0
0.3016745423466707 0.382178125488055 0
0.1405609746763078 0.3948895896716222 0
0.1864075140636118 0.4362235956041951 0
0.3510956546948282 0.7263841829880054 0
0.3065068400188184 0.1090486156124086 0
0.4555121099311083 0.0842659223873809 0
0.2925299748481116 0.6700129344543065 0
0.2704242595930313 0.7594351157737015 0
0.09350149566475363 0.8494249304846446 0
0.3074376267330901 0.5889305930266426 0
0.548963400815778 0.9010280890283591 0
0.6305793924311665 0.7758918324777416 0
0.7119425609732036 0.7470565698410503 0
0.6813574752226818 0.3807142919467787 0
0.7569757662390412 0.3451099864553075 0
0.6887125144296429 0.2955624579365744 0
0.8165255516929297 0.478282853423233 0
0.806099672146539 0.5608830438190344 0
0.843987785920111 0.09097433869333343 0
0.4157539245802699 0.7794266033623994 0
0.7657805911127498 0.258993214704021 0
0.1277117970123879 0.4572753090571514 0
0.1809924081986045 0.502473836974883 0
0.2438551453889797 0.4736751505008922 0
0.1342757093249187 0.1193906767191871 0
0.2238544195142416 0.6303703494315386 0
0.1071235914769263 0.3498056143011256 0
0.1036580136702078 0.5185513274721013 0
0.7003525798316338 0.2251228551738682 0
0.6161279524405081 0.2402174909342768 0
0.7234356793526646 0.6627113412439696 0
0.788517133580575 0.7239995839191369 0
0.8879650160317932 0.5309432217217611 0
0.8744052200042712 0.621554332242452 0
0.7750106780502514 0.8217225807881197 0
0.5544398885957279 0.8033643932362292 0
0.546533669236248 0.0805063140436918 0
0.4982795557432222 0.1558770908234172 0
0.4247785682950405 0.1600209481228174 0
0.4535269645016813 0.2220008296314196 0
0.372638137692605 0.1046728311492241 0
0.7772346447891669 0.1708605235155933 0
0.9084293640398049 0.4426341930338146 0
0.579800019605384 0.1553280457334575 0
0.2190132402651191 0.08607019047964443 0
0.08522406507602892 0.74923903663793 0
0.1600010335681808 0.6955329096537283 0
0.1812265172327936 0.7801656453571264 0
0.2561651558389659 0.8445062626983127 0
0.4451902844665058 0.9148202818981238 0
0.6509581910707001 0.9160943330248333 0
0.8376143542071709 0.3050856754450632 0
0.6155298489051642 0.3349813791838089 0
0.5466313747641229 0.3010989641432865 0
0.3867660670741314 0.5570333321436428 0
0.3124971325895534 0.50873618463654 0
0.2450200085588497 0.4025773519563323 0
0.8464486406216898 0.9045482737764134 0
0.338001267027288 0.8144512699140722 0
0.07343592476986105 0.261472570972448 0
0.465521391802092 0.5424126888749485 0
0.4964577684498244 0.3431880816032191 0
0.3936649950137487 0.2225702379580622 0
0.7355218035119344 0.08272714773474266 0
0.2698821158280099 0.3474177331777437 0
0.925936813679482 0.8469423456877965 0
0.9167117905309909 0.3504289891690652 0
0.910202915759629 0.1569718529890752 0
0.08077575705480194 0.3999242846441654 0
0.8306590850742308 0.3916329409479684 0
0.6878594192357264 0.8370202955110886 0
0.4916371523173922 0.7488779951007312 0
0.2910328603907391 0.4366004378706887 0
0.6532434685329653 0.6149164345172884 0
0.149453644137798 0.9277942220556508 0
0.2271693938177623 0.3565269256072316 0
0.6120300261969142 0.4178515811265367 0
0.163897468953513 0.05894458421392845 0
0.3533399140069393 0.2576559294139124 0
0.316308608678865 0.1635574505740542 0
0.343205231220283 0.4110479066640508 0
0.2801842266825948 0.06963653185276136 0
0.4794222609208968 0.2829504750294278 0
0.09663661767217196 0.1390886645294493 0
0.08764955298284482 0.07979550247625267 0
0.04232867105268956 0.1516292874283562 0
0.2394901080665447 0.546100504515608 0
0.7283112639239893 0.5868898078008949 0
0.1798663511366965 0.108650234611955 0
0.05045439145529196 0.2196029268527964 0
0.07975581861127334 0.3048561482918676 0
0.4256866116624817 0.4923072709081958 0
0.527488375434676 0.2235975831325092 0
0.1610115119498198 0.5695671850996341 0
0.8395471812159271 0.2209166183898943 0
0.2439860799794104 0.9276776826996453 0
0.04771026602237444 0.3464369156706798 0
0.4762917084573286 0.8338282615802453 0
0.4037041048563705 0.8506551044723358 0
0.7979747926928857 0.6397782722772964 0
0.6129774476960503 0.8487908969049257 0
0.3680718322957792 0.1713495367696625 0
0.06168151595939159 0.4581474670468928 0
0.9259507799861277 0.9259507799861275 0
0.07173854996746271 0.9285865202815461 0
0.926794919243112 0.07320508075688781 0
0.9322256967556768 0.657763694301874 0
0.8551039748842943 0.7944970310374497 0
0.4457343199775927 0.3252655085373424 0
0.3394544660271553 0.04730230693392246 0
0.6539237031251894 0.1546035315523862 0
0.07129283389074914 0.5827373102652085 0
0.1481896675568699 0.6334809348309395 0
0.8624846232971396 0.6982260526596281 0
0.3415810959150195 0.4618503669412681 0
0.2256072409512718 0.7071033909340803 0
0.9370888446677283 0.582451965033329 0
0.2408675376601631 0.03797030700535892 0
0.8430432524514494 0.1584625332893094 0
0.3720617178013552 0.4966785500948209 0
0.1820113393073518 0.8617655838030776 0
$EndNodes
$Elements
6 452 1 452
1 1 1 10
1 1 9 
2 9 10 
3 10 11 
4 11 12 
5 12 13 
6 13 14 
7 14 15 
8 15 16 
9 16 17 
10 17 2 
1 2 1 10
11 3 18 
12 18 19 
13 19 20 
14 20 21 
15 21 22 
16 22 23 
17 23 24 
18 24 25 
19 25 26 
20 26 1 
1 3 1 10
21 2 27 
22 27 28 
23 28 29 
24 29 30 
25 30 31 
26 31 32 
27 32 33 
28 33 34 
29 34 35 
30 35 4 
1 4 1 10
31 4 36 
32 36 37 
33 37 38 
34 38 39 
35 39 40 
36 40 41 
37 41 42 
38 42 43 
39 43 44 
40 44 3 
2 2 2 42
41 60 64 62 
42 59 63 62 
43 62 66 60 
44 63 66 62 
45 62 64 58 
46 59 62 61 
47 57 66 63 
48 52 58 51 
49 55 59 54 
50 49 60 48 
51 46 57 45 
52 60 66 65 
53 47 65 46 
54 53 61 52 
55 56 63 55 
56 50 64 49 
57 61 62 58 
58 52 61 58 
59 55 63 59 
60 46 65 57 
61 49 64 60 
62 7 70 50 
63 48 69 6 
64 51 70 7 
65 54 67 8 
66 8 67 53 
67 5 68 56 
68 6 69 47 
69 45 68 5 
70 53 67 61 
71 47 69 65 
72 50 70 64 
73 56 68 63 
74 57 68 45 
75 59 67 54 
76 58 70 51 
77 60 69 48 
78 65 69 60 
79 61 67 59 
80 64 70 58 
81 63 68 57 
82 65 66 57 
2 3 2 370
83 147 186 111 
84 135 217 148 
85 148 217 170 
86 141 164 90 
87 85 168 160 
88 163 171 107 
89 85 160 159 
90 163 182 171 
91 147 208 186 
92 1 191 26 
93 73 185 92 
94 141 214 164 
95 24 196 166 
96 130 179 162 
97 139 149 31 
98 9 191 1 
99 155 165 84 
100 92 169 146 
101 120 183 159 
102 117 204 142 
103 6 185 73 
104 156 204 117 
105 162 193 130 
106 22 209 134 
107 159 183 85 
108 84 202 155 
109 154 222 114 
110 190 192 191 
111 31 149 30 
112 134 218 22 
113 114 155 154 
114 112 147 12 
115 179 221 162 
116 136 199 150 
117 107 179 163 
118 146 189 92 
119 92 185 169 
120 144 145 112 
121 148 170 125 
122 25 196 24 
123 144 146 145 
124 96 150 143 
125 96 143 14 
126 189 199 160 
127 153 222 154 
128 146 199 189 
129 31 223 139 
130 143 144 112 
131 90 177 141 
132 91 167 83 
133 125 225 148 
134 83 167 80 
135 77 168 79 
136 170 217 96 
137 145 147 112 
138 166 197 24 
139 13 112 12 
140 13 143 112 
141 153 219 132 
142 200 219 218 
143 160 199 136 
144 111 216 147 
145 132 222 153 
146 116 161 105 
147 116 162 161 
148 84 156 41 
149 89 173 158 
150 125 170 16 
151 138 220 214 
152 19 152 115 
153 117 157 39 
154 146 169 145 
155 173 176 158 
156 200 218 134 
157 152 154 115 
158 149 173 30 
159 88 153 152 
160 164 214 172 
161 159 160 136 
162 126 165 110 
163 150 217 136 
164 149 176 173 
165 188 216 111 
166 105 161 101 
167 147 216 12 
168 116 193 162 
169 110 165 114 
170 21 88 20 
171 88 152 20 
172 29 173 89 
173 122 136 135 
174 108 133 7 
175 122 159 136 
176 40 156 117 
177 79 168 85 
178 15 96 14 
179 113 116 105 
180 101 167 91 
181 38 157 90 
182 14 143 13 
183 143 150 144 
184 29 89 28 
185 42 84 41 
186 114 165 155 
187 40 117 39 
188 38 90 37 
189 94 183 120 
190 142 207 117 
191 120 159 122 
192 90 164 37 
193 161 167 101 
194 41 156 40 
195 19 115 18 
196 39 157 38 
197 191 192 26 
198 153 154 152 
199 20 152 19 
200 34 106 33 
201 97 208 169 
202 17 125 16 
203 157 177 90 
204 161 198 167 
205 113 132 116 
206 37 164 36 
207 168 189 160 
208 136 217 135 
209 145 208 147 
210 100 180 137 
211 94 120 103 
212 193 200 129 
213 98 101 91 
214 109 163 130 
215 169 185 97 
216 35 172 34 
217 16 170 15 
218 26 192 25 
219 15 170 96 
220 89 174 28 
221 28 174 27 
222 100 137 119 
223 89 201 174 
224 42 202 84 
225 120 122 121 
226 104 105 101 
227 150 199 144 
228 214 220 106 
229 34 172 106 
230 22 218 21 
231 120 121 103 
232 98 104 101 
233 130 193 129 
234 138 214 141 
235 122 135 127 
236 110 113 105 
237 95 100 99 
238 161 226 198 
239 6 71 48 
240 87 91 83 
241 127 158 121 
242 137 138 119 
243 138 141 119 
244 109 130 129 
245 123 124 102 
246 104 126 110 
247 95 98 91 
248 86 94 93 
249 118 142 99 
250 123 149 139 
251 139 140 124 
252 122 127 121 
253 135 148 127 
254 110 114 113 
255 94 103 102 
256 104 110 105 
257 100 119 118 
258 30 173 29 
259 100 118 99 
260 95 99 98 
261 44 181 43 
262 87 95 91 
263 184 224 151 
264 72 163 109 
265 151 188 5 
266 32 223 31 
267 48 171 49 
268 123 139 124 
269 103 123 102 
270 94 102 93 
271 119 177 118 
272 4 210 35 
273 36 210 4 
274 121 176 103 
275 33 213 32 
276 86 93 87 
277 141 177 119 
278 6 73 71 
279 117 207 157 
280 86 87 83 
281 95 180 100 
282 158 201 89 
283 158 176 121 
284 79 85 82 
285 123 176 149 
286 3 211 44 
287 142 178 99 
288 98 178 104 
289 82 86 83 
290 82 83 80 
291 104 178 126 
292 79 82 80 
293 2 212 17 
294 27 212 2 
295 18 211 3 
296 103 176 123 
297 77 215 168 
298 124 206 194 
299 79 80 78 
300 99 178 98 
301 74 107 71 
302 181 227 202 
303 181 202 43 
304 73 75 74 
305 49 182 50 
306 75 77 76 
307 87 180 95 
308 77 79 78 
309 73 74 71 
310 77 78 76 
311 75 76 74 
312 180 194 137 
313 93 180 87 
314 86 183 94 
315 108 175 133 
316 124 194 102 
317 218 219 88 
318 71 171 48 
319 107 187 179 
320 163 179 130 
321 197 203 24 
322 47 185 6 
323 84 205 156 
324 167 198 80 
325 11 224 10 
326 78 81 76 
327 132 193 116 
328 201 225 174 
329 194 206 137 
330 213 223 32 
331 50 72 7 
332 73 92 75 
333 128 175 108 
334 156 205 204 
335 127 201 158 
336 132 200 193 
337 46 97 47 
338 154 227 115 
339 82 183 86 
340 113 222 132 
341 134 209 128 
342 72 182 163 
343 10 184 9 
344 93 194 180 
345 169 208 145 
346 85 183 82 
347 45 186 46 
348 23 209 22 
349 102 194 93 
350 96 217 150 
351 8 196 192 
352 129 134 128 
353 171 182 49 
354 107 171 71 
355 177 207 118 
356 144 199 146 
357 165 205 84 
358 80 198 78 
359 157 207 177 
360 202 227 155 
361 5 111 45 
362 162 226 161 
363 21 218 88 
364 43 202 42 
365 126 205 165 
366 109 129 128 
367 54 131 55 
368 24 203 23 
369 175 209 23 
370 7 133 51 
371 76 187 74 
372 88 219 153 
373 12 216 11 
374 148 201 127 
375 81 187 76 
376 140 206 124 
377 74 187 107 
378 115 227 181 
379 55 195 56 
380 78 198 81 
381 51 197 52 
382 131 191 184 
383 50 182 72 
384 174 212 27 
385 137 206 138 
386 72 109 108 
387 184 195 131 
388 35 210 172 
389 155 227 154 
390 164 210 36 
391 8 190 54 
392 106 213 33 
393 115 211 18 
394 56 151 5 
395 109 128 108 
396 129 200 134 
397 17 212 125 
398 97 185 47 
399 52 166 53 
400 128 209 175 
401 72 108 7 
402 118 207 142 
403 53 196 8 
404 172 210 164 
405 184 191 9 
406 151 195 184 
407 142 204 178 
408 125 212 174 
409 178 204 126 
410 46 186 97 
411 204 205 126 
412 172 214 106 
413 189 215 92 
414 92 215 75 
415 181 211 115 
416 111 186 45 
417 44 211 181 
418 168 215 189 
419 132 219 200 
420 175 203 133 
421 75 215 77 
422 140 223 213 
423 174 225 125 
424 5 188 111 
425 114 222 113 
426 133 203 197 
427 139 223 140 
428 23 203 175 
429 10 224 184 
430 186 208 97 
431 192 196 25 
432 131 195 55 
433 133 197 51 
434 151 224 188 
435 54 190 131 
436 140 220 206 
437 81 226 221 
438 221 226 162 
439 206 220 138 
440 188 224 11 
441 190 191 131 
442 56 195 151 
443 187 221 179 
444 8 192 190 
445 52 197 166 
446 166 196 53 
447 11 216 188 
448 106 220 213 
449 198 226 81 
450 81 221 187 
451 148 225 201 
452 213 220 140 
$EndElements
