$MeshFormat
4.1 0 8
$EndMeshFormat
$PhysicalNames
3
1 101 "outer_boundary"
2 1 "material_1"
2 2 "material_2"
$EndPhysicalNames
$Entities
5 5 2 0
1 0 0 0 0 
2 1 0 0 0 
3 0 1 0 0 
4 1 1 0 0 
5 0.8284962330292003 0.6746509306119746 0 0 
1 -9.999999994736442e-08 -1e-07 -1e-07 1.0000001 1e-07 1e-07 1 101 2 1 -2 
2 -1e-07 -9.999999994736442e-08 -1e-07 1e-07 1.0000001 1e-07 1 101 2 3 -1 
3 0.9999999000000001 -9.999999994736442e-08 -1e-07 1.0000001 1.0000001 1e-07 1 101 2 2 -4 
4 -9.999999994736442e-08 0.9999999000000001 -1e-07 1.0000001 1.0000001 1e-07 1 101 2 4 -3 
5 0.3969645819047639 0.4588850550497564 -1e-07 0.8284963330292002 0.8904168061741927 1e-07 0 2 5 -5 
2 0.3969645819047639 0.4588850550497564 -1e-07 0.8284963330292002 0.8904168061741927 1e-07 1 2 1 5 
3 -9.999999994736442e-08 -9.999999994736442e-08 -1e-07 1.0000001 1.0000001 1e-07 1 1 5 1 3 4 2 -5 
$EndEntities
$Nodes
12 174 1 174
0 1 0 1
1
0 0 0
0 2 0 1
2
1 0 0
0 3 0 1
3
0 1 0
0 4 0 1
4
1 1 0
0 5 0 1
5
0.8284962330292003 0.6746509306119746 0
1 1 0 7
6
7
8
9
10
11
12
0.1249999999999999 0 0
0.2499999999999998 0 0
0.3749999999999993 0 0
0.4999999999999988 0 0
0.6249999999999988 0 0
0.7499999999999991 0 0
0.8749999999999997 0 0
1 2 0 7
13
14
15
16
17
18
19
0 0.8750000000000001 0
0 0.7500000000000002 0
0 0.6250000000000007 0
0 0.5000000000000012 0
0 0.3750000000000012 0
0 0.2500000000000009 0
0 0.1250000000000003 0
1 3 0 7
20
21
22
23
24
25
26
1 0.1249999999999999 0
1 0.2499999999999998 0
1 0.3749999999999993 0
1 0.4999999999999988 0
1 0.6249999999999988 0
1 0.7499999999999991 0
1 0.8749999999999997 0
1 4 0 7
27
28
29
30
31
32
33
0.8750000000000001 1 0
0.7500000000000002 1 0
0.6250000000000007 1 0
0.5000000000000012 1 0
0.3750000000000012 1 0
0.2500000000000009 1 0
0.1250000000000003 1 0
1 5 0 19
34
35
36
37
38
39
40
41
42
43
44
45
46
47
48
49
50
51
52
0.8179359043089073 0.7413262220651907 0
0.7872886367013072 0.8014748714368942 0
0.7395543982919015 0.8492091098462998 0
0.679405748920198 0.8798563774538999 0
0.6127304574669817 0.8904167061741928 0
0.5460551660137655 0.8798563774538997 0
0.485906516642062 0.8492091098462994 0
0.4381722782326564 0.8014748714368936 0
0.4075250106250566 0.7413262220651901 0
0.3969646819047639 0.6746509306119737 0
0.4075250106250571 0.6079756391587576 0
0.4381722782326573 0.5478269897870545 0
0.4859065166420634 0.5000927513776486 0
0.5460551660137666 0.4694454837700491 0
0.612730457466983 0.4588851550497564 0
0.6794057489201989 0.4694454837700496 0
0.7395543982919021 0.5000927513776496 0
0.7872886367013074 0.5478269897870552 0
0.8179359043089074 0.6079756391587587 0
2 2 0 34
53
54
55
56
57
58
59
60
61
62
63
64
65
66
67
68
69
70
71
72
73
74
75
76
77
78
79
80
81
82
83
84
85
86
0.474938902788075 0.6044426267776677 0
0.754037779237045 0.7474424480802963 0
0.6829387613012889 0.5368593759330673 0
0.5423850275879767 0.8093387115914044 0
0.5425221536326761 0.5368593759330668 0
0.7505220121458895 0.6044426267776684 0
0.4576119814108945 0.6992212260371591 0
0.6783115394832679 0.8026275204362205 0
0.5859132716947573 0.5053338833232639 0
0.6074880860095906 0.5605543408403438 0
0.5391984076934978 0.6027923532878043 0
0.6020477724343368 0.6342459525021846 0
0.5489378927046157 0.6727898194680327 0
0.6040356328567776 0.7031842127127585 0
0.6581643702833168 0.6695206514149887 0
0.6601165040816876 0.7340171321716342 0
0.6045671142684991 0.7802305849521632 0
0.6780389287101027 0.6004591446528129 0
0.5504214246472697 0.7407955864233657 0
0.4843939055130039 0.763876168312005 0
0.6306209956773351 0.8395018322032621 0
0.7096188382455207 0.7068420291677029 0
0.7672763528085855 0.6925689534635606 0
0.7178850117669987 0.6483993553634916 0
0.4948234184492616 0.5569829590870123 0
0.6336952650785638 0.5062156477832962 0
0.4434134101782716 0.6478337448397485 0
0.7276685474300981 0.5579361777056506 0
0.7333280818569757 0.7937772409867098 0
0.4953849841571581 0.6545636031584084 0
0.5087350994451115 0.7057674507837233 0
0.7808485606773485 0.6421951792237816 0
0.7070825485808994 0.7569412741685128 0
0.5814361947620083 0.8427347032225565 0
2 3 0 88
87
88
89
90
91
92
93
94
95
96
97
98
99
100
101
102
103
104
105
106
107
108
109
110
111
112
113
114
115
116
117
118
119
120
121
122
123
124
125
126
127
128
129
130
131
132
133
134
135
136
137
138
139
140
141
142
143
144
145
146
147
148
149
150
151
152
153
154
155
156
157
158
159
160
161
162
163
164
165
166
167
168
169
170
171
172
173
174
0.4258470911908597 0.4768438668533283 0
0.6503861204789237 0.4075694101707495 0
0.32113503298012 0.1226837202856971 0
0.3431397117516273 0.6362350534137307 0
0.5617530541165432 0.09183244257670758 0
0.09603202566454883 0.4431317341479701 0
0.3707583860696383 0.7979418590558031 0
0.8920258567076607 0.3175986537692905 0
0.1014249557132373 0.8247608356957198 0
0.8047605805894529 0.4826208074895045 0
0.8145592699275361 0.09058526474930018 0
0.1091405130773748 0.1941421229304778 0
0.5742548475528126 0.4077504611169956 0
0.6096369383696834 0.3342885702302634 0
0.5286516449212817 0.3410570044044305 0
0.6911813743122782 0.3365291077877551 0
0.6480747455808459 0.2588543046760675 0
0.3551887914954837 0.565575054614729 0
0.2766945659985777 0.5826504231529477 0
0.303551109978494 0.4995368595590002 0
0.2732184257127511 0.6665688384037253 0
0.1921657552654135 0.6108861723300767 0
0.8511295626125472 0.5486141593204651 0
0.8562189740004726 0.7959076771155702 0
0.4235624521747224 0.8634104174743914 0
0.8773319960845845 0.7163156900778971 0
0.806496054257658 0.8618748770866096 0
0.7340471633646143 0.2596478595124528 0
0.4894395290231539 0.432678859214631 0
0.4460625677303273 0.3553173107633217 0
0.4741416774264126 0.2730380155637194 0
0.3872464310172829 0.289649693352776 0
0.3649551455172651 0.369470922267886 0
0.2981922044747539 0.3096738369278526 0
0.6872598859268757 0.1763318243225407 0
0.7367596425885006 0.4292338816733688 0
0.3437572144840768 0.871833733661226 0
0.284155564966396 0.8059370994490891 0
0.4152544428543963 0.2013505580924908 0
0.8891293827795698 0.482737716290087 0
0.2730810319874523 0.4098897058273057 0
0.2068728636582343 0.3237070023881721 0
0.1952417503048986 0.7020987497278377 0
0.7837401416682495 0.3344363461058815 0
0.2303056248925174 0.2198201995907234 0
0.8758047727758145 0.6312873285148572 0
0.0989700241339021 0.5552607663240896 0
0.3445023500616936 0.7171340892826698 0
0.8952858449660663 0.1936297632095818 0
0.1976424586534362 0.5009946268389655 0
0.1878479203160203 0.1046920656255014 0
0.1708352574043898 0.9039676584567775 0
0.4456501019355533 0.1015990198545506 0
0.1006104293271692 0.6627173190808437 0
0.5608151952669611 0.2637006039711122 0
0.09244889378730986 0.3125000000000011 0
0.3275472441081366 0.2234443084161672 0
0.5713613186595056 0.9380108336420604 0
0.8902483948928844 0.8663090045301562 0
0.4910495042000421 0.9118697147116493 0
0.9340451757743082 0.5685184264105023 0
0.7360213859108112 0.916623002009318 0
0.5102070925401913 0.1854598284730609 0
0.4177885866663384 0.4159377987109526 0
0.3585054173012292 0.4459990629073886 0
0.6875565903176013 0.09032916751220754 0
0.07945204262352551 0.9207456988304994 0
0.2011206155242997 0.7979276380184197 0
0.8270378744054481 0.2510856760756295 0
0.8378718281445957 0.4056298695223034 0
0.8128498962023301 0.9460780035130554 0
0.6624198184929162 0.9374844865465785 0
0.1830136764319947 0.4096510857380243 0
0.2596477413140078 0.7379332829763483 0
0.6036280836412811 0.1812383307797843 0
0.90849364905389 0.09150635094610987 0
0.09150635094610987 0.09150635094610998 0
0.9278420758812176 0.7796972170559328 0
0.7733725393115206 0.1781780375650748 0
0.9358373367526541 0.6784697770098645 0
0.1189954061981724 0.7433744278184196 0
0.258885722707772 0.8872692403794433 0
0.3762529376397448 0.5071563667443001 0
0.157749115617381 0.2623267532796871 0
0.4194115717101961 0.9407315498532453 0
0.9229511138143012 0.407895694741865 0
0.9318043675080807 0.9406503967194172 0
0.3129082268386569 0.9424979978542802 0
$EndNodes
$Elements
6 346 1 346
1 1 1 8
1 1 6 
2 6 7 
3 7 8 
4 8 9 
5 9 10 
6 10 11 
7 11 12 
8 12 2 
1 2 1 8
9 3 13 
10 13 14 
11 14 15 
12 15 16 
13 16 17 
14 17 18 
15 18 19 
16 19 1 
1 3 1 8
17 2 20 
18 20 21 
19 21 22 
20 22 23 
21 23 24 
22 24 25 
23 25 26 
24 26 4 
1 4 1 8
25 4 27 
26 27 28 
27 28 29 
28 29 30 
29 30 31 
30 31 32 
31 32 33 
32 33 3 
2 2 2 86
33 59 72 42 
34 70 80 58 
35 60 69 68 
36 58 76 70 
37 42 72 41 
38 55 70 62 
39 62 78 55 
40 55 80 70 
41 60 73 69 
42 56 71 69 
43 59 83 72 
44 69 86 56 
45 68 85 60 
46 40 72 56 
47 41 72 40 
48 37 73 60 
49 38 73 37 
50 73 86 69 
51 62 70 64 
52 66 71 65 
53 52 58 51 
54 43 59 42 
55 35 54 34 
56 50 55 49 
57 45 53 44 
58 47 57 46 
59 40 56 39 
60 37 60 36 
61 69 71 66 
62 68 69 66 
63 67 68 66 
64 64 70 67 
65 64 67 66 
66 64 66 65 
67 64 65 63 
68 62 64 63 
69 34 75 5 
70 54 75 34 
71 56 72 71 
72 61 78 62 
73 76 84 75 
74 62 63 57 
75 53 77 63 
76 63 77 57 
77 74 76 75 
78 70 76 67 
79 65 82 63 
80 63 82 53 
81 67 74 68 
82 58 84 76 
83 72 83 71 
84 61 62 57 
85 74 75 54 
86 46 77 45 
87 48 61 47 
88 53 79 44 
89 43 79 59 
90 45 77 53 
91 60 81 36 
92 58 80 51 
93 47 61 57 
94 49 78 48 
95 35 81 54 
96 50 80 55 
97 44 79 43 
98 36 81 35 
99 57 77 46 
100 51 80 50 
101 55 78 49 
102 39 86 38 
103 5 84 52 
104 71 83 65 
105 52 84 58 
106 56 86 39 
107 67 76 74 
108 38 86 73 
109 74 85 68 
110 54 85 74 
111 75 84 5 
112 79 82 59 
113 82 83 59 
114 60 85 81 
115 48 78 61 
116 53 82 79 
117 65 83 82 
118 81 85 54 
2 3 2 228
119 108 136 105 
120 105 136 106 
121 106 136 127 
122 89 139 125 
123 99 115 101 
124 131 137 89 
125 115 116 101 
126 89 143 131 
127 127 151 106 
128 102 122 88 
129 140 167 14 
130 125 143 89 
131 109 132 52 
132 126 147 109 
133 124 134 93 
134 8 139 89 
135 15 140 14 
136 133 136 108 
137 128 159 142 
138 94 156 130 
139 145 157 113 
140 126 172 23 
141 142 159 92 
142 136 159 127 
143 102 130 122 
144 98 137 131 
145 113 148 36 
146 152 161 91 
147 23 147 126 
148 124 160 134 
149 44 104 45 
150 145 173 157 
151 121 161 152 
152 130 155 94 
153 90 134 107 
154 129 160 154 
155 22 94 21 
156 92 133 16 
157 51 109 52 
158 101 141 100 
159 104 169 45 
160 97 165 152 
161 48 99 88 
162 10 91 9 
163 14 95 13 
164 152 165 121 
165 17 92 16 
166 35 113 36 
167 99 100 88 
168 47 115 99 
169 94 172 156 
170 87 115 46 
171 8 89 7 
172 17 142 92 
173 94 135 21 
174 16 133 15 
175 114 155 130 
176 88 122 49 
177 43 134 90 
178 12 97 11 
179 10 152 91 
180 92 136 133 
181 114 130 102 
182 19 98 18 
183 23 172 22 
184 119 151 127 
185 50 122 96 
186 131 170 98 
187 89 137 7 
188 100 141 103 
189 109 147 132 
190 108 140 133 
191 133 140 15 
192 29 158 28 
193 98 142 18 
194 93 134 42 
195 21 135 20 
196 9 139 8 
197 30 144 29 
198 122 156 96 
199 7 137 6 
200 154 160 124 
201 116 119 118 
202 97 152 11 
203 45 169 87 
204 91 139 9 
205 171 174 123 
206 33 138 32 
207 116 117 101 
208 119 127 120 
209 91 149 139 
210 99 101 100 
211 22 172 94 
212 154 167 129 
213 14 167 95 
214 41 111 93 
215 135 165 97 
216 48 88 49 
217 3 153 33 
218 47 99 48 
219 87 150 115 
220 45 87 46 
221 111 123 93 
222 13 153 3 
223 46 115 47 
224 119 120 118 
225 43 90 44 
226 2 162 12 
227 20 162 2 
228 111 171 123 
229 151 169 106 
230 116 118 117 
231 1 163 19 
232 6 163 1 
233 155 165 135 
234 130 156 122 
235 28 158 148 
236 34 112 110 
237 113 157 148 
238 18 142 17 
239 42 134 43 
240 50 96 51 
241 128 131 120 
242 127 128 120 
243 26 164 25 
244 147 166 132 
245 139 149 125 
246 145 164 26 
247 49 122 50 
248 100 102 88 
249 123 124 93 
250 168 174 32 
251 90 107 105 
252 117 141 101 
253 138 168 32 
254 118 125 117 
255 90 104 44 
256 41 93 42 
257 105 106 104 
258 115 150 116 
259 5 132 112 
260 107 129 108 
261 157 173 27 
262 103 121 114 
263 98 170 142 
264 103 114 102 
265 34 110 35 
266 90 105 104 
267 107 108 105 
268 91 161 149 
269 95 154 138 
270 129 140 108 
271 116 150 119 
272 120 143 118 
273 28 157 27 
274 100 103 102 
275 131 143 120 
276 94 155 135 
277 40 111 41 
278 118 143 125 
279 95 153 13 
280 40 146 111 
281 5 112 34 
282 52 132 5 
283 31 171 30 
284 25 166 24 
285 96 109 51 
286 107 160 129 
287 112 166 164 
288 24 147 23 
289 149 161 141 
290 156 172 126 
291 135 162 20 
292 134 160 107 
293 138 153 95 
294 11 152 10 
295 32 174 31 
296 148 158 37 
297 137 163 6 
298 38 158 144 
299 110 113 35 
300 95 167 154 
301 12 162 97 
302 36 148 37 
303 96 126 109 
304 19 163 98 
305 38 144 39 
306 97 162 135 
307 144 146 39 
308 141 161 103 
309 103 161 121 
310 27 173 4 
311 37 158 38 
312 4 173 26 
313 39 146 40 
314 98 163 137 
315 31 174 171 
316 106 169 104 
317 112 164 110 
318 125 149 117 
319 33 153 138 
320 127 159 128 
321 110 145 113 
322 117 149 141 
323 92 159 136 
324 142 170 128 
325 124 168 154 
326 110 164 145 
327 132 166 112 
328 96 156 126 
329 87 151 150 
330 24 166 147 
331 121 165 114 
332 30 146 144 
333 164 166 25 
334 150 151 119 
335 146 171 111 
336 114 165 155 
337 128 170 131 
338 30 171 146 
339 129 167 140 
340 123 168 124 
341 144 158 29 
342 154 168 138 
343 26 173 145 
344 87 169 151 
345 148 157 28 
346 123 174 168 
$EndElements
