$MeshFormat
4.1 0 8
$EndMeshFormat
$PhysicalNames
3
1 101 "outer_boundary"
2 1 "material_1"
2 2 "material_2"
$EndPhysicalNames
$Entities
5 5 2 0
1 0 0 0 0 
2 1 0 0 0 
3 0 1 0 0 
4 1 1 0 0 
5 0.8607724588272201 0.7651966406417074 0 0 
1 -9.999999994736442e-08 -1e-07 -1e-07 1.0000001 1e-07 1e-07 1 101 2 1 -2 
2 -1e-07 -9.999999994736442e-08 -1e-07 1e-07 1.0000001 1e-07 1 101 2 3 -1 
3 0.9999999000000001 -9.999999994736442e-08 -1e-07 1.0000001 1.0000001 1e-07 1 101 2 2 -4 
4 -9.999999994736442e-08 0.9999999000000001 -1e-07 1.0000001 1.0000001 1e-07 1 101 2 4 -3 
5 0.6487583192813363 0.6591895208687656 -1e-07 0.86077255882722 0.8712037604146493 1e-07 0 2 5 -5 
2 0.6487583192813363 0.6591895208687656 -1e-07 0.86077255882722 0.8712037604146493 1e-07 1 2 1 5 
3 -9.999999994736442e-08 -9.999999994736442e-08 -1e-07 1.0000001 1.0000001 1e-07 1 1 5 1 3 4 2 -5 
$EndEntities
$Nodes
12 130 1 130
0 1 0 1
1
0 0 0
0 2 0 1
2
1 0 0
0 3 0 1
3
0 1 0
0 4 0 1
4
1 1 0
0 5 0 1
5
0.8607724588272201 0.7651966406417074 0
1 1 0 7
6
7
8
9
10
11
12
0.1249999999999999 0 0
0.2499999999999998 0 0
0.3749999999999993 0 0
0.4999999999999988 0 0
0.6249999999999988 0 0
0.7499999999999991 0 0
0.8749999999999997 0 0
1 2 0 7
13
14
15
16
17
18
19
0 0.8750000000000001 0
0 0.7500000000000002 0
0 0.6250000000000007 0
0 0.5000000000000012 0
0 0.3750000000000012 0
0 0.2500000000000009 0
0 0.1250000000000003 0
1 3 0 7
20
21
22
23
24
25
26
1 0.1249999999999999 0
1 0.2499999999999998 0
1 0.3749999999999993 0
1 0.4999999999999988 0
1 0.6249999999999988 0
1 0.7499999999999991 0
1 0.8749999999999997 0
1 4 0 7
27
28
29
30
31
32
33
0.8750000000000001 1 0
0.7500000000000002 1 0
0.6250000000000007 1 0
0.5000000000000012 1 0
0.3750000000000012 1 0
0.2500000000000009 1 0
0.1250000000000003 1 0
1 5 0 9
34
35
36
37
38
39
40
41
42
0.8405269195736292 0.8275060035037194 0
0.7875234096871582 0.8660153075697932 0
0.7220074684213977 0.8660153075697929 0
0.6690039585349268 0.8275060035037189 0
0.6487584192813363 0.7651966406417069 0
0.6690039585349274 0.7028872777796952 0
0.7220074684213985 0.6643779737136217 0
0.7875234096871587 0.6643779737136219 0
0.8405269195736295 0.7028872777796958 0
2 2 0 5
43
44
45
46
47
0.7944689204234057 0.7486963845826726 0
0.7186997335896109 0.7731601483266277 0
0.7881489942340774 0.8041357019997435 0
0.7391629355502034 0.7143581194131814 0
0.7387523700130928 0.8201751500543109 0
2 3 0 83
48
49
50
51
52
53
54
55
56
57
58
59
60
61
62
63
64
65
66
67
68
69
70
71
72
73
74
75
76
77
78
79
80
81
82
83
84
85
86
87
88
89
90
91
92
93
94
95
96
97
98
99
100
101
102
103
104
105
106
107
108
109
110
111
112
113
114
115
116
117
118
119
120
121
122
123
124
125
126
127
128
129
130
0.4375797607132946 0.1015659352007187 0
0.104251145891069 0.5652738394305972 0
0.6900907244114947 0.1231648524786926 0
0.3175865473246471 0.894065891102908 0
0.1005627988740991 0.3263714395145496 0
0.8917468245269456 0.4374999999999991 0
0.8515979465781958 0.6415831114499148 0
0.7913315923458371 0.5880527069062078 0
0.1225055888823 0.8026689689766898 0
0.1895297797592231 0.1041736650674713 0
0.8862950767850708 0.1948871071407111 0
0.5569188591731682 0.9050508327295657 0
0.8570245443696727 0.5720827453558474 0
0.8120638776397546 0.5028543888608571 0
0.8015176598027206 0.399051748484984 0
0.7159773951345503 0.4574825094447768 0
0.7074083644478696 0.3605941859225542 0
0.6275814679106171 0.4172084502360511 0
0.6342477404149421 0.5130427179085529 0
0.5503525697870661 0.4718842877988129 0
0.6045325099269551 0.7228835267518365 0
0.5407663602773805 0.3776549987375315 0
0.4594893996584279 0.433212207045545 0
0.4735297766132235 0.5316062183778281 0
0.3776353273617705 0.4929122273001081 0
0.4073929024939106 0.5935260069390816 0
0.3646438586484806 0.3891850151919274 0
0.2834099644935354 0.4508075518264796 0
0.6210482318767552 0.649016108730982 0
0.5500862902272935 0.6647409752327478 0
0.5303160320960115 0.7449462709515723 0
0.2685940730232593 0.3437899029629012 0
0.3569832916074458 0.2863280804445276 0
0.7890459990848895 0.3014779360903737 0
0.6954646772842114 0.2575574899894663 0
0.667005236837699 0.9014966235396336 0
0.4392915851042961 0.9032281372642 0
0.385778387336246 0.809812184900723 0
0.2586040063494628 0.8023257780515607 0
0.4622739906120486 0.6770928453817584 0
0.5697839000953118 0.5782610446936081 0
0.2572414363736497 0.2163925000955014 0
0.9046111803325495 0.8138844733796381 0
0.100263716503337 0.4484923870386422 0
0.5969075460341486 0.8133177668463649 0
0.847375200233673 0.8926630415881798 0
0.1056686312485423 0.6812299955640158 0
0.2061421403930794 0.6215961734491399 0
0.5597551679128645 0.1064809885275282 0
0.4915554031477034 0.1896137791578681 0
0.3140151119695616 0.1008998726499813 0
0.7230410039460151 0.5416475417295233 0
0.3348120334549743 0.6930417745759299 0
0.9070783353137473 0.7110957917775413 0
0.8986705940673677 0.3244923206239083 0
0.4489658766119808 0.3381167300117588 0
0.1942004155837534 0.9012590478641749 0
0.7746792955131332 0.1937077659542892 0
0.6192694179217314 0.3175947194879972 0
0.1148955854462991 0.1990908885759922 0
0.3015292003108168 0.5614481886060964 0
0.6009541252881555 0.211027734943854 0
0.1992628239884874 0.5129184418329807 0
0.8142449325034729 0.1003925378770921 0
0.5018178063889438 0.8261444698065212 0
0.6518897319390493 0.583084783938713 0
0.4953538959131759 0.6076588680191706 0
0.3772785064181773 0.1862441021282643 0
0.7690890915369279 0.9215237315724401 0
0.5223955568209165 0.2813038976632324 0
0.1927137337640103 0.3995085581414151 0
0.2055464800656718 0.7201725381234672 0
0.7290081019228746 0.6089251427567048 0
0.9230289574055618 0.5931737488787282 0
0.09150635094610954 0.9084936490538905 0
0.09150635094610948 0.09150635094610954 0
0.90940449831114 0.09059550168885983 0
0.9253972761132445 0.9163095029935635 0
0.4541113881653555 0.7594382167703475 0
0.1913364414694494 0.2960472792913331 0
0.6777064477037034 0.6371716953862374 0
0.4328621576785478 0.2538154236403848 0
0.904115720040778 0.5177389389247953 0
$EndNodes
$Elements
6 258 1 258
1 1 1 8
1 1 6 
2 6 7 
3 7 8 
4 8 9 
5 9 10 
6 10 11 
7 11 12 
8 12 2 
1 2 1 8
9 3 13 
10 13 14 
11 14 15 
12 15 16 
13 16 17 
14 17 18 
15 18 19 
16 19 1 
1 3 1 8
17 2 20 
18 20 21 
19 21 22 
20 22 23 
21 23 24 
22 24 25 
23 25 26 
24 26 4 
1 4 1 8
25 4 27 
26 27 28 
27 28 29 
28 29 30 
29 30 31 
30 31 32 
31 32 33 
32 33 3 
2 2 2 18
33 43 45 44 
34 39 46 44 
35 43 46 41 
36 44 46 43 
37 42 43 41 
38 39 44 38 
39 5 45 43 
40 34 45 5 
41 45 47 44 
42 40 46 39 
43 41 46 40 
44 5 43 42 
45 38 44 37 
46 44 47 37 
47 37 47 36 
48 36 47 35 
49 35 45 34 
50 35 47 45 
2 3 2 208
51 95 108 100 
52 58 102 81 
53 67 88 71 
54 56 119 86 
55 86 104 56 
56 87 126 100 
57 81 105 58 
58 66 88 67 
59 82 109 50 
60 68 92 78 
61 38 92 68 
62 50 105 82 
63 89 107 57 
64 87 100 73 
65 29 83 28 
66 100 108 73 
67 61 130 60 
68 100 119 95 
69 59 83 29 
70 57 98 89 
71 89 127 107 
72 83 92 37 
73 51 85 84 
74 92 112 78 
75 61 62 53 
76 53 130 61 
77 59 92 83 
78 62 102 53 
79 28 116 27 
80 100 126 85 
81 51 84 31 
82 81 102 62 
83 88 114 71 
84 101 121 24 
85 30 59 29 
86 27 125 4 
87 25 101 24 
88 90 93 34 
89 54 101 42 
90 30 84 59 
91 121 130 23 
92 36 116 83 
93 21 102 58 
94 61 63 62 
95 86 119 100 
96 5 101 90 
97 98 115 89 
98 85 112 84 
99 26 90 25 
100 96 97 48 
101 90 101 25 
102 55 99 61 
103 23 53 22 
104 61 99 63 
105 93 116 35 
106 16 91 49 
107 73 114 87 
108 49 95 94 
109 49 94 15 
110 9 96 48 
111 48 98 8 
112 63 99 66 
113 63 66 65 
114 54 121 101 
115 40 120 41 
116 51 104 86 
117 97 115 48 
118 16 49 15 
119 9 48 8 
120 59 112 92 
121 85 126 112 
122 51 86 85 
123 91 110 49 
124 52 91 17 
125 31 84 30 
126 24 121 23 
127 50 96 10 
128 14 94 56 
129 7 98 57 
130 17 91 16 
131 93 125 27 
132 15 94 14 
133 10 96 9 
134 8 98 7 
135 86 100 85 
136 50 111 105 
137 53 102 22 
138 32 51 31 
139 50 109 96 
140 18 52 17 
141 89 115 80 
142 11 50 10 
143 14 56 13 
144 7 57 6 
145 21 58 20 
146 66 67 65 
147 4 125 26 
148 63 65 64 
149 52 118 91 
150 97 129 115 
151 22 102 21 
152 23 130 53 
153 67 71 70 
154 63 64 62 
155 66 113 88 
156 41 120 55 
157 106 109 82 
158 33 104 32 
159 19 107 18 
160 106 117 109 
161 94 119 56 
162 79 80 74 
163 84 112 59 
164 11 111 50 
165 71 72 70 
166 32 104 51 
167 71 73 72 
168 18 107 52 
169 71 114 73 
170 79 89 80 
171 107 127 52 
172 67 70 69 
173 72 75 74 
174 49 110 95 
175 72 74 70 
176 75 79 74 
177 80 103 74 
178 55 120 99 
179 96 109 97 
180 67 69 65 
181 70 103 69 
182 64 82 81 
183 52 127 118 
184 74 103 70 
185 3 122 33 
186 13 122 3 
187 6 123 1 
188 1 123 19 
189 95 110 108 
190 72 108 75 
191 64 81 62 
192 2 124 12 
193 20 124 2 
194 105 111 58 
195 91 118 110 
196 73 108 72 
197 38 68 39 
198 55 61 60 
199 65 106 64 
200 39 128 40 
201 69 106 65 
202 82 105 81 
203 48 115 98 
204 120 128 113 
205 64 106 82 
206 77 88 76 
207 12 111 11 
208 99 113 66 
209 68 76 39 
210 88 113 76 
211 26 125 90 
212 37 92 38 
213 41 55 54 
214 68 78 77 
215 99 120 113 
216 90 125 93 
217 68 77 76 
218 103 129 117 
219 103 117 69 
220 108 110 75 
221 41 54 42 
222 36 83 37 
223 109 117 97 
224 78 87 77 
225 76 128 39 
226 5 90 34 
227 55 60 54 
228 110 118 75 
229 34 93 35 
230 95 119 94 
231 33 122 104 
232 19 123 107 
233 42 101 5 
234 60 130 121 
235 111 124 58 
236 77 114 88 
237 87 114 77 
238 117 129 97 
239 35 116 36 
240 58 124 20 
241 56 122 13 
242 57 123 6 
243 75 118 79 
244 104 122 56 
245 107 123 57 
246 69 117 106 
247 118 127 79 
248 112 126 78 
249 79 127 89 
250 60 121 54 
251 80 129 103 
252 78 126 87 
253 40 128 120 
254 12 124 111 
255 113 128 76 
256 115 129 80 
257 27 116 93 
258 83 116 28 
$EndElements
