$MeshFormat
4.1 0 8
$EndMeshFormat
$PhysicalNames
3
1 101 "outer_boundary"
2 1 "material_1"
2 2 "material_2"
$EndPhysicalNames
$Entities
7 7 2 0
1 0 0 0 0 
2 1 0 0 0 
3 0 1 0 0 
4 1 1 0 0 
5 0.5077701376773582 0.6320977314356379 0 0 
6 0.6662585428129851 0.5026888792045979 0 0 
7 0.6990856937518387 0.7046482903728509 0 0 
1 -9.999999994736442e-08 -1e-07 -1e-07 1.0000001 1e-07 1e-07 1 101 2 1 -2 
2 -1e-07 -9.999999994736442e-08 -1e-07 1e-07 1.0000001 1e-07 1 101 2 3 -1 
3 0.9999999000000001 -9.999999994736442e-08 -1e-07 1.0000001 1.0000001 1e-07 1 101 2 2 -4 
4 -9.999999994736442e-08 0.9999999000000001 -1e-07 1.0000001 1.0000001 1e-07 1 101 2 4 -3 
5 0.5077700376773583 0.502688779204598 -1e-07 0.6662586428129851 0.6320978314356378 1e-07 0 2 5 -6 
6 0.6662584428129852 0.502688779204598 -1e-07 0.6990857937518387 0.7046483903728509 1e-07 0 2 6 -7 
7 0.5077700376773583 0.6320976314356379 -1e-07 0.6990857937518387 0.7046483903728509 1e-07 0 2 7 -5 
2 0.5077700376773583 0.502688779204598 -1e-07 0.6990857937518387 0.7046483903728509 1e-07 1 2 3 5 6 7 
3 -9.999999994736442e-08 -9.999999994736442e-08 -1e-07 1.0000001 1.0000001 1e-07 1 1 7 1 3 4 2 -5 -7 -6 
$EndEntities
$Nodes
16 136 1 136
0 1 0 1
1
0 0 0
0 2 0 1
2
1 0 0
0 3 0 1
3
0 1 0
0 4 0 1
4
1 1 0
0 5 0 1
5
0.5077701376773582 0.6320977314356379 0
0 6 0 1
6
0.6662585428129851 0.5026888792045979 0
0 7 0 1
7
0.6990856937518387 0.7046482903728509 0
1 1 0 7
8
9
10
11
12
13
14
0.1249999999999999 0 0
0.2499999999999998 0 0
0.3749999999999993 0 0
0.4999999999999988 0 0
0.6249999999999988 0 0
0.7499999999999991 0 0
0.8749999999999997 0 0
1 2 0 7
15
16
17
18
19
20
21
0 0.8750000000000001 0
0 0.7500000000000002 0
0 0.6250000000000007 0
0 0.5000000000000012 0
0 0.3750000000000012 0
0 0.2500000000000009 0
0 0.1250000000000003 0
1 3 0 7
22
23
24
25
26
27
28
1 0.1249999999999999 0
1 0.2499999999999998 0
1 0.3749999999999993 0
1 0.4999999999999988 0
1 0.6249999999999988 0
1 0.7499999999999991 0
1 0.8749999999999997 0
1 4 0 7
29
30
31
32
33
34
35
0.8750000000000001 1 0
0.7500000000000002 1 0
0.6250000000000007 1 0
0.5000000000000012 1 0
0.3750000000000012 1 0
0.2500000000000009 1 0
0.1250000000000003 1 0
1 5 0 2
36
37
0.5605996060559005 0.5889614473586245 0
0.6134290744344428 0.5458251632816112 0
1 6 0 2
38
39
0.6772009264592697 0.5700086829273489 0
0.6881433101055542 0.6373284866500999 0
1 7 0 2
40
41
0.6353138417270119 0.6804647707271132 0
0.5715419897021852 0.6562812510813756 0
2 2 0 1
42
0.6243714580807274 0.6131449670043623 0
2 3 0 94
43
44
45
46
47
48
49
50
51
52
53
54
55
56
57
58
59
60
61
62
63
64
65
66
67
68
69
70
71
72
73
74
75
76
77
78
79
80
81
82
83
84
85
86
87
88
89
90
91
92
93
94
95
96
97
98
99
100
101
102
103
104
105
106
107
108
109
110
111
112
113
114
115
116
117
118
119
120
121
122
123
124
125
126
127
128
129
130
131
132
133
134
135
136
0.4962709103235864 0.5622147506583465 0
0.321630373966605 0.1014749216046233 0
0.4394519877305808 0.6077989557038267 0
0.4267806313964633 0.5316498242523552 0
0.5607027677375004 0.09578232491811589 0
0.602721511144706 0.4768618554309045 0
0.6565454095297688 0.4307250812873847 0
0.3644531392356046 0.5827303231933642 0
0.3501910657081818 0.498546236010995 0
0.587216432849011 0.4033936812116813 0
0.4529551468439936 0.6770683274651674 0
0.5874493797591542 0.7143774071901785 0
0.6468886939371083 0.3523558187853076 0
0.7306374108753447 0.4547265161398615 0
0.7424164299957363 0.5983548548785539 0
0.2814918020735726 0.5553097292763289 0
0.2987875707487325 0.6446817884225158 0
0.2664299927245006 0.4645281482984006 0
0.3390687148611605 0.4072537212209262 0
0.2542169624726967 0.3719249431884654 0
0.5694498985394312 0.3244662665259683 0
0.8957280230013747 0.8043126234320248 0
0.8960431416874467 0.31300385889631 0
0.1897391336386952 0.9023225438309737 0
0.4411606166634603 0.89799051391708 0
0.6375705697203127 0.2681022458351751 0
0.3322807729042403 0.2965603503008575 0
0.2257530636581831 0.2861218798436929 0
0.6963573667235371 0.8988223695258326 0
0.8050956671311572 0.1153995073141543 0
0.2064604381877839 0.6160265927732582 0
0.5011823630342099 0.3946294145939469 0
0.4925999257532404 0.2974079063088417 0
0.7188294411071073 0.3016522842612879 0
0.1939571578768051 0.4298647309018657 0
0.219759157734979 0.7168576452435365 0
0.3245812993075207 0.7484592676865462 0
0.8904421230142994 0.5718275713824805 0
0.09794805703658882 0.1789244293839332 0
0.7098655692194435 0.2014363021545069 0
0.4889925262945466 0.4850820432188852 0
0.8999329614256401 0.6930863543602865 0
0.8134349744747341 0.7534593858088221 0
0.7998335444841602 0.8486582717086254 0
0.564692459317198 0.885847155756099 0
0.4982597515272056 0.7997891680340975 0
0.8993178620764213 0.4415863765792917 0
0.7961330395614692 0.3775472447418694 0
0.7192489321752206 0.7842754983562357 0
0.6383954608517775 0.8209337005244365 0
0.112536621475106 0.6810911938976789 0
0.4395074707014665 0.09857651032348497 0
0.3821207387590736 0.1930602998122678 0
0.3194450294515122 0.8803534325941276 0
0.8092170239926731 0.6540648573346703 0
0.8043580662861238 0.2489348665531027 0
0.1101239948746313 0.2957970038123538 0
0.09874491401146879 0.5640403552812572 0
0.8137077590407407 0.500773115882288 0
0.1936297632095818 0.1047141550339337 0
0.1193484432112499 0.804994692061982 0
0.9018476663089382 0.190361275777604 0
0.6788218671113926 0.09836055256702236 0
0.4150713242132112 0.3531675213641427 0
0.5509729058743703 0.5186465433533577 0
0.5004478611386628 0.1908452096419494 0
0.6462562253732964 0.7477845744498641 0
0.5219452036360629 0.7156072946151377 0
0.730030394837812 0.5268723988503357 0
0.4162402236103641 0.4474226260010146 0
0.4084872919302682 0.7991713722605891 0
0.2518820104281376 0.8118860773745284 0
0.1976915727701684 0.524624345016603 0
0.7098067990021597 0.3834013890431422 0
0.384319179700469 0.6546598911614683 0
0.6077767472894647 0.1832720495898923 0
0.8946868136110926 0.9100596712690562 0
0.7386983127744645 0.6627252193625808 0
0.8027572922930484 0.5731767646504458 0
0.1108834356162828 0.4342960932882772 0
0.5615690004882223 0.2528187355803654 0
0.2823464170730085 0.1954437586879657 0
0.408112123411032 0.7242114262278254 0
0.5462171478393687 0.4557227075617551 0
0.09150635094610993 0.09150635094610998 0
0.9095248166042652 0.08848931064706211 0
0.09150635094610998 0.9084936490538902 0
0.4146857481181051 0.2722606825458372 0
0.4657476570705775 0.742234440624834 0
0.1907052515297233 0.1995436954804622 0
0.5761664134107825 0.7807232167616356 0
0.7546291060265202 0.7192296075767287 0
0.1789869228997198 0.363600930206931 0
0.8015709075972619 0.931759225350127 0
$EndNodes
$Elements
6 270 1 270
1 1 1 8
1 1 8 
2 8 9 
3 9 10 
4 10 11 
5 11 12 
6 12 13 
7 13 14 
8 14 2 
1 2 1 8
9 3 15 
10 15 16 
11 16 17 
12 17 18 
13 18 19 
14 19 20 
15 20 21 
16 21 1 
1 3 1 8
17 2 22 
18 22 23 
19 23 24 
20 24 25 
21 25 26 
22 26 27 
23 27 28 
24 28 4 
1 4 1 8
25 4 29 
26 29 30 
27 30 31 
28 31 32 
29 32 33 
30 33 34 
31 34 35 
32 35 3 
2 2 2 9
33 41 5 36 
34 39 7 40 
35 37 6 38 
36 38 42 37 
37 36 42 41 
38 37 42 36 
39 40 42 39 
40 39 42 38 
41 41 42 40 
2 3 2 229
42 79 113 96 
43 90 101 56 
44 76 98 90 
45 84 97 80 
46 100 122 115 
47 115 122 77 
48 97 121 80 
49 83 112 74 
50 82 105 72 
51 72 98 82 
52 78 114 103 
53 96 114 79 
54 90 98 65 
55 4 119 28 
56 99 132 70 
57 26 84 80 
58 89 90 65 
59 31 87 71 
60 87 92 71 
61 64 85 84 
62 17 93 16 
63 29 119 4 
64 24 89 65 
65 78 103 93 
66 74 126 83 
67 89 101 90 
68 67 88 87 
69 91 109 7 
70 81 132 99 
71 74 112 106 
72 96 113 67 
73 72 105 13 
74 72 104 98 
75 71 91 86 
76 94 95 44 
77 64 84 27 
78 56 116 90 
79 10 94 44 
80 90 116 76 
81 93 103 16 
82 33 96 67 
83 98 104 65 
84 70 135 99 
85 80 89 25 
86 7 134 91 
87 108 130 95 
88 67 87 32 
89 31 71 30 
90 75 130 108 
91 65 104 23 
92 103 114 66 
93 28 64 27 
94 18 122 100 
95 26 80 25 
96 54 133 110 
97 110 133 88 
98 85 97 84 
99 17 100 93 
100 111 121 57 
101 94 108 95 
102 33 67 32 
103 24 65 23 
104 47 94 11 
105 99 135 122 
106 64 86 85 
107 27 84 26 
108 69 124 95 
109 12 47 11 
110 32 87 31 
111 80 101 89 
112 86 91 85 
113 88 131 110 
114 28 119 64 
115 71 92 91 
116 25 89 24 
117 81 99 20 
118 59 117 79 
119 10 44 9 
120 66 96 34 
121 18 100 17 
122 88 133 87 
123 34 96 33 
124 118 123 108 
125 122 135 77 
126 21 81 20 
127 11 94 10 
128 101 121 111 
129 20 99 19 
130 16 103 15 
131 14 72 13 
132 92 109 91 
133 44 124 102 
134 86 136 71 
135 101 111 56 
136 35 66 34 
137 44 102 9 
138 47 118 108 
139 99 122 19 
140 67 113 88 
141 13 105 12 
142 9 102 8 
143 70 124 69 
144 12 105 47 
145 87 133 92 
146 47 108 94 
147 46 112 83 
148 59 79 78 
149 124 132 102 
150 23 104 22 
151 91 134 85 
152 97 120 57 
153 60 61 51 
154 117 125 79 
155 51 112 46 
156 62 69 61 
157 71 136 30 
158 22 128 2 
159 5 43 36 
160 69 106 61 
161 36 107 37 
162 37 48 6 
163 93 100 73 
164 52 74 63 
165 46 83 43 
166 95 130 69 
167 60 62 61 
168 57 121 97 
169 2 128 14 
170 74 106 75 
171 1 127 21 
172 8 127 1 
173 62 70 69 
174 106 112 61 
175 85 134 97 
176 3 129 35 
177 15 129 3 
178 68 76 55 
179 61 112 51 
180 48 49 6 
181 40 54 41 
182 60 77 62 
183 109 133 54 
184 5 45 43 
185 50 59 58 
186 74 75 63 
187 38 57 39 
188 58 60 51 
189 7 109 40 
190 59 78 73 
191 41 110 5 
192 52 55 49 
193 63 68 55 
194 5 53 45 
195 82 98 76 
196 50 51 46 
197 78 93 73 
198 66 114 96 
199 50 58 51 
200 45 50 46 
201 6 111 38 
202 52 63 55 
203 43 107 36 
204 45 46 43 
205 59 73 58 
206 48 52 49 
207 68 82 76 
208 49 56 6 
209 37 107 48 
210 103 129 15 
211 100 115 73 
212 83 107 43 
213 52 126 74 
214 79 114 78 
215 82 118 105 
216 60 115 77 
217 76 116 55 
218 50 117 59 
219 39 120 7 
220 108 123 75 
221 95 124 44 
222 58 115 60 
223 5 110 53 
224 68 118 82 
225 102 127 8 
226 40 109 54 
227 92 133 109 
228 73 115 58 
229 105 118 47 
230 54 110 41 
231 113 131 88 
232 21 127 81 
233 55 116 49 
234 19 122 18 
235 66 129 103 
236 38 111 57 
237 80 121 101 
238 81 127 102 
239 56 111 6 
240 75 123 63 
241 14 128 72 
242 62 135 70 
243 64 119 86 
244 45 117 50 
245 30 136 29 
246 35 129 66 
247 57 120 39 
248 68 123 118 
249 53 117 45 
250 97 134 120 
251 49 116 56 
252 102 132 81 
253 107 126 48 
254 72 128 104 
255 104 128 22 
256 63 123 68 
257 69 130 106 
258 48 126 52 
259 125 131 113 
260 83 126 107 
261 106 130 75 
262 79 125 113 
263 53 125 117 
264 77 135 62 
265 53 131 125 
266 70 132 124 
267 29 136 119 
268 120 134 7 
269 110 131 53 
270 119 136 86 
$EndElements
