$MeshFormat
4.1 0 8
$EndMeshFormat
$PhysicalNames
3
1 101 "outer_boundary"
2 1 "material_1"
2 2 "material_2"
$EndPhysicalNames
$Entities
5 5 2 0
1 0 0 0 0 
2 1 0 0 0 
3 0 1 0 0 
4 1 1 0 0 
5 0.5605182248419998 0.2077178178043539 0 0 
1 -9.999999994736442e-08 -1e-07 -1e-07 1.0000001 1e-07 1e-07 1 101 2 1 -2 
2 -1e-07 -9.999999994736442e-08 -1e-07 1e-07 1.0000001 1e-07 1 101 2 3 -1 
3 0.9999999000000001 -9.999999994736442e-08 -1e-07 1.0000001 1.0000001 1e-07 1 101 2 2 -4 
4 -9.999999994736442e-08 0.9999999000000001 -1e-07 1.0000001 1.0000001 1e-07 1 101 2 4 -3 
5 0.3376710468604112 0.0962941788135597 -1e-07 0.5605183248419997 0.3191414567951482 1e-07 0 2 5 -5 
2 0.3376710468604112 0.0962941788135597 -1e-07 0.5605183248419997 0.3191414567951482 1e-07 1 2 1 5 
3 -9.999999994736442e-08 -9.999999994736442e-08 -1e-07 1.0000001 1.0000001 1e-07 1 1 5 1 3 4 2 -5 
$EndEntities
$Nodes
12 131 1 131
0 1 0 1
1
0 0 0
0 2 0 1
2
1 0 0
0 3 0 1
3
0 1 0
0 4 0 1
4
1 1 0
0 5 0 1
5
0.5605182248419998 0.2077178178043539 0
1 1 0 7
6
7
8
9
10
11
12
0.1249999999999999 0 0
0.2499999999999998 0 0
0.3749999999999993 0 0
0.4999999999999988 0 0
0.6249999999999988 0 0
0.7499999999999991 0 0
0.8749999999999997 0 0
1 2 0 7
13
14
15
16
17
18
19
0 0.8750000000000001 0
0 0.7500000000000002 0
0 0.6250000000000007 0
0 0.5000000000000012 0
0 0.3750000000000012 0
0 0.2500000000000009 0
0 0.1250000000000003 0
1 3 0 7
20
21
22
23
24
25
26
1 0.1249999999999999 0
1 0.2499999999999998 0
1 0.3749999999999993 0
1 0.4999999999999988 0
1 0.6249999999999988 0
1 0.7499999999999991 0
1 0.8749999999999997 0
1 4 0 7
27
28
29
30
31
32
33
0.8750000000000001 1 0
0.7500000000000002 1 0
0.6250000000000007 1 0
0.5000000000000012 1 0
0.3750000000000012 1 0
0.2500000000000009 1 0
0.1250000000000003 1 0
1 5 0 9
34
35
36
37
38
39
40
41
42
0.5392382224681577 0.2732109307813781 0
0.4835264529727606 0.3136879006302159 0
0.4146629187296506 0.313687900630216 0
0.3589511492342534 0.2732109307813783 0
0.3376711468604112 0.207717817804354 0
0.3589511492342533 0.1422247048273299 0
0.4146629187296505 0.101747734978492 0
0.4835264529727604 0.1017477349784919 0
0.5392382224681576 0.1422247048273296 0
2 2 0 5
43
44
45
46
47
0.4051384896405846 0.197219332354744 0
0.4846833209977555 0.2232280791013912 0
0.4447641105270766 0.1539808325884257 0
0.4309533573562803 0.2605880959862777 0
0.4966782177204734 0.170859772507673 0
2 3 0 84
48
49
50
51
52
53
54
55
56
57
58
59
60
61
62
63
64
65
66
67
68
69
70
71
72
73
74
75
76
77
78
79
80
81
82
83
84
85
86
87
88
89
90
91
92
93
94
95
96
97
98
99
100
101
102
103
104
105
106
107
108
109
110
111
112
113
114
115
116
117
118
119
120
121
122
123
124
125
126
127
128
129
130
131
0.5726854173508797 0.8899141808853728 0
0.8974807626267692 0.5670474265271056 0
0.1033937455199749 0.5554193355703283 0
0.3157889151968645 0.8772043595928665 0
0.8762351274506264 0.3198649005157341 0
0.1128678220437611 0.3063718623878257 0
0.8955873262775091 0.8070479620214858 0
0.2792481288239344 0.1502379526295123 0
0.2641828199640998 0.2264447762315918 0
0.197431742617317 0.1643357037071688 0
0.8003127833301842 0.110292790549723 0
0.1197397514191 0.8028292564979982 0
0.1045877786106019 0.4311513464043292 0
0.2003371007052295 0.4917293198910593 0
0.203761063834954 0.6037014381552008 0
0.2950116364482995 0.5431129954330964 0
0.3012231137826831 0.6461754344375836 0
0.3876347890977917 0.5903146707836655 0
0.3945427817836474 0.6909824573506169 0
0.4789975109714686 0.6313971422877096 0
0.4695324835576842 0.5373207199887914 0
0.5599348072260588 0.5745561726310545 0
0.5519091892757568 0.4747970772182677 0
0.6391307955046216 0.517545036640939 0
0.6499599095678192 0.6155883232430716 0
0.6368532731549079 0.4263016160262421 0
0.6065969232661059 0.2588933969412064 0
0.2916405956921693 0.4506451886890716 0
0.6265406136385252 0.1902987726203502 0
0.6892056604500432 0.2628418615125286 0
0.7185738123556089 0.463993329961082 0
0.4328359626112308 0.3751273362323441 0
0.4887285779470718 0.7328336800985068 0
0.3611566930330421 0.342461512088404 0
0.5580619517207491 0.3317568591626178 0
0.7087979877305759 0.3702770605910939 0
0.7986317713656144 0.4056535259874194 0
0.2177178248597631 0.7069500775923756 0
0.3685389633179167 0.4158228238302591 0
0.201546709203054 0.3899581483566902 0
0.4078149645496246 0.7952112823375541 0
0.1004827853560671 0.1975257629816751 0
0.6224407532167193 0.1088085542174751 0
0.8946242626010498 0.6883713976323718 0
0.790146730452192 0.752442969027711 0
0.785547652055081 0.6302788369649288 0
0.7989953196361952 0.8844746808922697 0
0.6831307543028642 0.8094850818020607 0
0.704861155228609 0.1655533905670746 0
0.7892530633565731 0.2298358424341258 0
0.8917700871845163 0.190913165750804 0
0.6293051458227198 0.3393241746763369 0
0.2931473253959518 0.3009160971200228 0
0.1056133057407938 0.6767540319668981 0
0.8993906084800966 0.4507394221689366 0
0.2189636921353565 0.2992853490055484 0
0.5438629101136704 0.07175643009218946 0
0.3112540278013432 0.07799642573576138 0
0.188940674183122 0.898827055226598 0
0.8057953173129129 0.5074054595034176 0
0.4493401430476013 0.8985827343027212 0
0.573955894905964 0.674238806890658 0
0.5833136247533294 0.779243819318572 0
0.4530901550491219 0.452380237100676 0
0.3775747705271639 0.4982661059709267 0
0.7198014973592087 0.5469621972626878 0
0.3114494379515399 0.7534931129209717 0
0.5132389461029996 0.4047244097333418 0
0.6939180998432742 0.7078539123563437 0
0.7829977748638658 0.3216409831842524 0
0.2871592135955443 0.3720224405207108 0
0.685962298257988 0.9167747887159405 0
0.7005229383551022 0.07693094706685455 0
0.2307273207220778 0.8078607723661619 0
0.09731497724610394 0.09731497724610411 0
0.2042187624449084 0.07939626762722718 0
0.4634104563632159 0.05505038000983453 0
0.90849364905389 0.09150635094610987 0
0.505923790567911 0.8231031242371128 0
0.9084936490538902 0.90849364905389 0
0.09150635094610954 0.9084936490538905 0
0.1744534121004567 0.2332589563846503 0
0.5749116259391721 0.396376598229746 0
0.3134881103636791 0.2520724054843367 0
$EndNodes
$Elements
6 260 1 260
1 1 1 8
1 1 6 
2 6 7 
3 7 8 
4 8 9 
5 9 10 
6 10 11 
7 11 12 
8 12 2 
1 2 1 8
9 3 13 
10 13 14 
11 14 15 
12 15 16 
13 16 17 
14 17 18 
15 18 19 
16 19 1 
1 3 1 8
17 2 20 
18 20 21 
19 21 22 
20 22 23 
21 23 24 
22 24 25 
23 25 26 
24 26 4 
1 4 1 8
25 4 27 
26 27 28 
27 28 29 
28 29 30 
29 30 31 
30 31 32 
31 32 33 
32 33 3 
2 2 2 18
33 43 45 44 
34 35 46 44 
35 43 46 37 
36 44 46 43 
37 35 44 34 
38 38 43 37 
39 40 45 39 
40 39 45 43 
41 45 47 44 
42 36 46 35 
43 37 46 36 
44 34 44 5 
45 39 43 38 
46 44 47 5 
47 5 47 42 
48 42 47 41 
49 41 45 40 
50 41 47 45 
2 3 2 210
51 42 76 5 
52 83 99 77 
53 79 81 36 
54 77 117 83 
55 74 82 34 
56 55 123 105 
57 40 105 8 
58 52 102 84 
59 39 105 40 
60 79 86 81 
61 52 117 97 
62 57 123 55 
63 61 87 75 
64 35 115 79 
65 59 101 85 
66 82 115 35 
67 74 99 82 
68 86 112 75 
69 97 98 52 
70 28 94 27 
71 60 61 50 
72 75 112 63 
73 9 124 8 
74 60 87 61 
75 100 118 103 
76 93 116 72 
77 85 121 59 
78 51 114 88 
79 22 102 52 
80 86 118 81 
81 77 99 74 
82 72 113 93 
83 84 117 52 
84 109 116 110 
85 42 90 76 
86 95 119 48 
87 48 110 95 
88 97 117 77 
89 58 97 96 
90 94 127 27 
91 16 60 50 
92 89 122 57 
93 51 121 114 
94 53 87 60 
95 75 118 86 
96 88 108 51 
97 91 93 49 
98 93 107 49 
99 103 118 87 
100 21 98 20 
101 58 98 97 
102 62 101 50 
103 41 124 104 
104 61 75 63 
105 8 124 40 
106 87 118 75 
107 51 108 31 
108 85 101 62 
109 53 60 17 
110 90 96 76 
111 68 111 70 
112 61 62 50 
113 24 91 49 
114 122 123 57 
115 61 63 62 
116 18 53 17 
117 72 116 109 
118 14 101 59 
119 8 105 7 
120 53 103 87 
121 52 98 21 
122 22 52 21 
123 68 70 69 
124 16 50 15 
125 92 93 91 
126 10 104 9 
127 111 115 70 
128 24 49 23 
129 18 89 53 
130 65 68 67 
131 70 73 71 
132 54 92 91 
133 30 48 29 
134 17 60 16 
135 110 116 95 
136 54 91 25 
137 93 113 107 
138 25 91 24 
139 94 95 92 
140 19 89 18 
141 12 58 11 
142 63 65 64 
143 50 101 15 
144 48 119 29 
145 92 116 93 
146 32 51 31 
147 68 69 67 
148 6 122 1 
149 1 122 19 
150 63 64 62 
151 73 83 78 
152 26 54 25 
153 54 94 92 
154 14 59 13 
155 96 120 58 
156 70 71 69 
157 63 112 65 
158 23 102 22 
159 15 101 14 
160 49 102 23 
161 102 107 84 
162 73 78 71 
163 98 125 20 
164 79 111 86 
165 105 123 7 
166 65 67 66 
167 31 108 30 
168 33 106 32 
169 57 129 89 
170 90 120 96 
171 65 66 64 
172 65 112 68 
173 32 106 51 
174 73 99 83 
175 53 129 103 
176 30 108 48 
177 67 80 66 
178 49 107 102 
179 36 81 37 
180 35 79 36 
181 80 88 66 
182 69 109 67 
183 64 85 62 
184 34 82 35 
185 83 84 78 
186 71 72 69 
187 28 119 94 
188 72 109 69 
189 5 74 34 
190 2 125 12 
191 20 125 2 
192 84 107 78 
193 90 104 10 
194 4 127 26 
195 27 127 4 
196 3 128 33 
197 13 128 3 
198 89 129 53 
199 58 120 11 
200 54 127 94 
201 67 109 80 
202 95 116 92 
203 79 115 111 
204 100 103 56 
205 19 122 89 
206 59 121 106 
207 111 112 86 
208 104 124 9 
209 70 130 73 
210 10 120 90 
211 66 114 64 
212 78 113 71 
213 109 110 80 
214 38 55 39 
215 81 100 37 
216 107 113 78 
217 106 121 51 
218 88 114 66 
219 103 129 56 
220 71 113 72 
221 99 130 82 
222 5 76 74 
223 64 114 85 
224 38 56 55 
225 11 120 10 
226 68 112 111 
227 96 97 77 
228 76 77 74 
229 94 119 95 
230 56 129 57 
231 29 119 28 
232 88 126 108 
233 76 96 77 
234 80 126 88 
235 56 57 55 
236 83 117 84 
237 7 123 6 
238 41 104 42 
239 42 104 90 
240 40 124 41 
241 12 125 58 
242 58 125 98 
243 33 128 106 
244 55 105 39 
245 26 127 54 
246 59 128 13 
247 48 126 110 
248 81 118 100 
249 73 130 99 
250 56 131 100 
251 106 128 59 
252 114 121 85 
253 108 126 48 
254 115 130 70 
255 110 126 80 
256 38 131 56 
257 37 131 38 
258 82 130 115 
259 100 131 37 
260 6 123 122 
$EndElements
