$MeshFormat
4.1 0 8
$EndMeshFormat
$PhysicalNames
3
1 101 "outer_boundary"
2 1 "material_1"
2 2 "material_2"
$EndPhysicalNames
$Entities
5 5 2 0
1 0 0 0 0 
2 1 0 0 0 
3 0 1 0 0 
4 1 1 0 0 
5 0.7127471994958148 0.6997181452600171 0 0 
1 -9.999999994736442e-08 -1e-07 -1e-07 1.0000001 1e-07 1e-07 1 101 2 1 -2 
2 -1e-07 -9.999999994736442e-08 -1e-07 1e-07 1.0000001 1e-07 1 101 2 3 -1 
3 0.9999999000000001 -9.999999994736442e-08 -1e-07 1.0000001 1.0000001 1e-07 1 101 2 2 -4 
4 -9.999999994736442e-08 0.9999999000000001 -1e-07 1.0000001 1.0000001 1e-07 1 101 2 4 -3 
5 0.4876808981726447 0.5871849445984322 -1e-07 0.7127472994958147 0.812251345921602 1e-07 0 2 5 -5 
2 0.4876808981726447 0.5871849445984322 -1e-07 0.7127472994958147 0.812251345921602 1e-07 1 2 1 5 
3 -9.999999994736442e-08 -9.999999994736442e-08 -1e-07 1.0000001 1.0000001 1e-07 1 1 5 1 3 4 2 -5 
$EndEntities
$Nodes
12 147 1 147
0 1 0 1
1
0 0 0
0 2 0 1
2
1 0 0
0 3 0 1
3
0 1 0
0 4 0 1
4
1 1 0
0 5 0 1
5
0.7127471994958148 0.6997181452600171 0
1 1 0 7
6
7
8
9
10
11
12
0.1249999999999999 0 0
0.2499999999999998 0 0
0.3749999999999993 0 0
0.4999999999999988 0 0
0.6249999999999988 0 0
0.7499999999999991 0 0
0.8749999999999997 0 0
1 2 0 7
13
14
15
16
17
18
19
0 0.8750000000000001 0
0 0.7500000000000002 0
0 0.6250000000000007 0
0 0.5000000000000012 0
0 0.3750000000000012 0
0 0.2500000000000009 0
0 0.1250000000000003 0
1 3 0 7
20
21
22
23
24
25
26
1 0.1249999999999999 0
1 0.2499999999999998 0
1 0.3749999999999993 0
1 0.4999999999999988 0
1 0.6249999999999988 0
1 0.7499999999999991 0
1 0.8749999999999997 0
1 4 0 7
27
28
29
30
31
32
33
0.8750000000000001 1 0
0.7500000000000002 1 0
0.6250000000000007 1 0
0.5000000000000012 1 0
0.3750000000000012 1 0
0.2500000000000009 1 0
0.1250000000000003 1 0
1 5 0 10
34
35
36
37
38
39
40
41
42
43
0.6948829673262351 0.7605581327925093 0
0.6469620383087049 0.8020818541582454 0
0.5841989688131854 0.8111058212161993 0
0.526520589941846 0.7847649881857753 0
0.4922393794503861 0.7314223834387 0
0.4922393794503858 0.6680139070813353 0
0.5265205899418451 0.6146713023342596 0
0.5841989688131846 0.5883304693038349 0
0.6469620383087045 0.5973544363617885 0
0.694882967326235 0.6388781577275247 0
2 2 0 8
44
45
46
47
48
49
50
51
0.5759951883429141 0.7495981711468286 0
0.6077143496710441 0.6404249448403283 0
0.6566180440470509 0.7162798378807456 0
0.5401561232311531 0.7141242789507761 0
0.6006398016102584 0.69909784353235 0
0.5585782021196452 0.654110457673814 0
0.6265495014080582 0.7564536101211464 0
0.6534685390319445 0.6654935946840012 0
2 3 0 96
52
53
54
55
56
57
58
59
60
61
62
63
64
65
66
67
68
69
70
71
72
73
74
75
76
77
78
79
80
81
82
83
84
85
86
87
88
89
90
91
92
93
94
95
96
97
98
99
100
101
102
103
104
105
106
107
108
109
110
111
112
113
114
115
116
117
118
119
120
121
122
123
124
125
126
127
128
129
130
131
132
133
134
135
136
137
138
139
140
141
142
143
144
145
146
147
0.5308728030771606 0.5500185631548071 0
0.4388518755535673 0.7120728968041747 0
0.683899374770813 0.1058410779853436 0
0.4511715213552756 0.1016417420765294 0
0.1082531754730546 0.4375000000000012 0
0.7075158517152227 0.5719541195457528 0
0.1082531754730544 0.6875000000000004 0
0.5818563715693446 0.5205399087498339 0
0.5334073364627575 0.4800688355746694 0
0.4720660847467373 0.5139035614712547 0
0.5998727283227626 0.4572823646504595 0
0.472666390622313 0.4361589410619476 0
0.463142441275458 0.7893270444599763 0
0.3890281502167217 0.7617279347104395 0
0.3605820062357869 0.6897580421113623 0
0.4025174874914422 0.4757279044906986 0
0.403548443424567 0.3869580911125299 0
0.7554734757350585 0.6229390184414313 0
0.4815159200832181 0.3496841623975261 0
0.8999474012083175 0.3148065897681716 0
0.7575641705423702 0.7570224763761401 0
0.7779686968760365 0.5441794356342314 0
0.3077933055566403 0.7523536503620658 0
0.1082531754730551 0.1875000000000006 0
0.3283902704892807 0.4294382758021784 0
0.3278250974296637 0.3367708973571556 0
0.3425778586681474 0.5232661952979772 0
0.7037567025457241 0.8201722129524225 0
0.7808355278854362 0.8306204628316479 0
0.4296688404079323 0.6351237820139586 0
0.2723272471148327 0.6658472737176651 0
0.185168870501831 0.9060174333262649 0
0.5339708395549607 0.844927924235618 0
0.3370132560373063 0.8295302100638446 0
0.4752135185443851 0.8820513873645612 0
0.7195084721143037 0.4951651165295153 0
0.789185709047586 0.4629541074186186 0
0.7175582858895853 0.4063463863261136 0
0.8384810287332294 0.7601075092499125 0
0.8368875183291242 0.6046111752959307 0
0.6228180669542445 0.8573514924343268 0
0.2320306273512695 0.3979422987161041 0
0.2436504258726706 0.2793337675868157 0
0.3302730565678246 0.2299228715581806 0
0.2274574572758595 0.1881278983575494 0
0.2153580613182287 0.7399884701598554 0
0.1034776114293003 0.5589336806242147 0
0.1988766695092956 0.5102788214288596 0
0.8789135326605664 0.8434174637638875 0
0.5664852835151507 0.1028745878996233 0
0.6253977195456242 0.2040538339036227 0
0.7477495952586148 0.1988781432576272 0
0.5207065917124151 0.197027058566131 0
0.68579471341384 0.2996893405205004 0
0.8095224929164047 0.0983000903771819 0
0.5714267362953975 0.2982093102699617 0
0.3523997468291549 0.6100679839810548 0
0.1225960609254322 0.3107696716440981 0
0.122411652267707 0.81116150340515 0
0.1993220081902246 0.6037356902042101 0
0.8930590340814463 0.4224419833586903 0
0.6939099963744095 0.9048835426781854 0
0.8811175467131256 0.1936695785127041 0
0.8060829630276405 0.3703653349210934 0
0.7989708294644564 0.688612105023673 0
0.9025694700980622 0.6818843000305337 0
0.816112476491741 0.916156211883959 0
0.5680677194171369 0.9233011251653001 0
0.4084212594646353 0.2965783131119397 0
0.4126083855239268 0.5560213801736049 0
0.5432804409802894 0.4028635818056912 0
0.6309209248503899 0.385805950504021 0
0.3205700448136435 0.1151866908430549 0
0.8656597177947143 0.5115547889569583 0
0.6475474904075822 0.5277411434028472 0
0.2727471010388512 0.5646957501557679 0
0.4773293471913313 0.5896254160382034 0
0.4225882784965455 0.2013941474502465 0
0.1872718688499498 0.09132678248852305 0
0.2418237925129883 0.8248601683557373 0
0.288862266397513 0.9111237161822726 0
0.7932189571690973 0.286332234731984 0
0.9210233412443802 0.584610052856684 0
0.3873927385562547 0.9098138104018415 0
0.08812324569431385 0.9135646818710829 0
0.9064257052476873 0.0935742947523126 0
0.08923217606863931 0.08931234722462111 0
0.9165542130360205 0.9212588534511472 0
0.4828150242678546 0.2715962851037348 0
0.9210461540842414 0.7721591656487157 0
0.4103580209260251 0.8344900774001327 0
0.6664183772586851 0.4514920624416099 0
0.1708341333175563 0.2447040837727799 0
0.270979075921452 0.4749785363048411 0
0.198815123024085 0.6742678585204328 0
0.7472230994516136 0.3406550662068898 0
$EndNodes
$Elements
6 292 1 292
1 1 1 8
1 1 6 
2 6 7 
3 7 8 
4 8 9 
5 9 10 
6 10 11 
7 11 12 
8 12 2 
1 2 1 8
9 3 13 
10 13 14 
11 14 15 
12 15 16 
13 16 17 
14 17 18 
15 18 19 
16 19 1 
1 3 1 8
17 2 20 
18 20 21 
19 21 22 
20 22 23 
21 23 24 
22 24 25 
23 25 26 
24 26 4 
1 4 1 8
25 4 27 
26 27 28 
27 28 29 
28 29 30 
29 30 31 
30 31 32 
31 32 33 
32 33 3 
2 2 2 25
33 38 47 37 
34 37 47 44 
35 37 44 36 
36 34 46 5 
37 42 45 41 
38 41 49 40 
39 45 49 41 
40 46 51 5 
41 43 51 42 
42 36 50 35 
43 44 50 36 
44 5 51 43 
45 34 50 46 
46 35 50 34 
47 42 51 45 
48 40 49 39 
49 39 47 38 
50 39 49 47 
51 48 51 46 
52 46 50 48 
53 45 51 48 
54 48 50 44 
55 47 48 44 
56 47 49 48 
57 48 49 45 
2 3 2 235
58 97 131 110 
59 84 119 86 
60 30 135 86 
61 93 99 56 
62 18 109 17 
63 75 109 18 
64 75 144 109 
65 113 119 92 
66 39 128 40 
67 80 118 113 
68 114 133 103 
69 110 131 83 
70 86 119 30 
71 106 114 103 
72 41 126 42 
73 43 69 5 
74 69 116 5 
75 56 109 93 
76 38 64 53 
77 97 110 58 
78 81 128 39 
79 89 123 105 
80 107 122 70 
81 124 129 95 
82 17 109 56 
83 59 126 41 
84 62 126 59 
85 98 111 58 
86 72 79 34 
87 66 81 53 
88 101 104 55 
89 31 135 30 
90 5 116 72 
91 67 121 78 
92 64 65 53 
93 111 146 58 
94 15 98 58 
95 107 123 122 
96 37 84 64 
97 66 108 81 
98 82 108 66 
99 58 146 97 
100 89 143 123 
101 100 141 26 
102 9 101 55 
103 133 147 105 
104 23 125 112 
105 79 92 35 
106 29 119 113 
107 75 130 96 
108 36 92 84 
109 56 99 98 
110 62 143 126 
111 102 107 104 
112 78 121 108 
113 55 129 124 
114 54 102 101 
115 12 106 11 
116 25 117 24 
117 99 145 127 
118 113 118 28 
119 105 107 102 
120 124 130 7 
121 72 80 79 
122 96 130 124 
123 93 145 99 
124 96 124 95 
125 127 145 78 
126 56 98 16 
127 103 133 105 
128 102 104 101 
129 54 101 10 
130 15 58 14 
131 105 147 89 
132 103 105 102 
133 99 127 111 
134 33 83 32 
135 23 134 125 
136 96 144 75 
137 17 56 16 
138 11 54 10 
139 9 55 8 
140 88 115 112 
141 84 86 64 
142 58 110 14 
143 82 127 108 
144 16 98 15 
145 11 106 54 
146 29 113 28 
147 99 111 98 
148 10 101 9 
149 54 103 102 
150 22 71 21 
151 23 112 22 
152 19 75 18 
153 14 110 13 
154 79 113 92 
155 93 109 94 
156 71 114 21 
157 61 121 67 
158 91 117 116 
159 22 112 71 
160 21 114 20 
161 91 134 117 
162 3 136 33 
163 26 141 25 
164 65 66 53 
165 123 143 62 
166 105 123 107 
167 92 119 84 
168 68 120 70 
169 13 136 3 
170 112 115 71 
171 8 124 7 
172 112 125 88 
173 67 78 76 
174 117 134 24 
175 32 132 31 
176 12 137 106 
177 104 129 55 
178 54 106 103 
179 70 140 107 
180 26 139 100 
181 94 95 77 
182 40 52 41 
183 77 120 68 
184 71 133 114 
185 2 137 12 
186 20 137 2 
187 28 118 27 
188 38 53 39 
189 55 124 8 
190 107 140 104 
191 111 127 82 
192 91 116 69 
193 68 70 63 
194 25 141 117 
195 6 138 1 
196 52 61 60 
197 1 138 19 
198 88 125 73 
199 108 121 81 
200 94 96 95 
201 132 135 31 
202 93 94 77 
203 72 90 80 
204 87 89 88 
205 108 127 78 
206 76 93 77 
207 74 82 66 
208 73 125 91 
209 42 57 43 
210 61 67 63 
211 76 77 68 
212 95 120 77 
213 57 87 73 
214 67 76 68 
215 52 59 41 
216 82 146 111 
217 60 62 59 
218 5 72 34 
219 30 119 29 
220 72 116 90 
221 61 63 60 
222 53 81 39 
223 67 68 63 
224 52 60 59 
225 70 122 63 
226 83 132 32 
227 89 115 88 
228 37 64 38 
229 65 74 66 
230 74 97 82 
231 33 136 83 
232 100 118 80 
233 87 88 73 
234 34 79 35 
235 122 123 62 
236 75 138 130 
237 36 84 37 
238 42 126 57 
239 4 139 26 
240 27 139 4 
241 7 130 6 
242 60 122 62 
243 24 134 23 
244 40 128 52 
245 35 92 36 
246 63 122 60 
247 57 69 43 
248 106 137 114 
249 65 85 74 
250 52 128 61 
251 90 100 80 
252 57 126 87 
253 110 136 13 
254 94 144 96 
255 83 136 110 
256 73 91 69 
257 76 145 93 
258 57 73 69 
259 121 128 81 
260 116 117 90 
261 114 137 20 
262 19 138 75 
263 131 132 83 
264 126 143 87 
265 97 146 82 
266 115 133 71 
267 100 139 118 
268 109 144 94 
269 61 128 121 
270 95 129 120 
271 87 143 89 
272 74 131 97 
273 129 140 120 
274 85 132 131 
275 135 142 86 
276 120 140 70 
277 125 134 91 
278 118 139 27 
279 85 131 74 
280 104 140 129 
281 85 135 132 
282 85 142 135 
283 64 142 65 
284 90 141 100 
285 78 145 76 
286 117 141 90 
287 86 142 64 
288 65 142 85 
289 115 147 133 
290 130 138 6 
291 89 147 115 
292 80 113 79 
$EndElements
