$MeshFormat
4.1 0 8
$EndMeshFormat
$PhysicalNames
3
1 101 "outer_boundary"
2 1 "material_1"
2 2 "material_2"
$EndPhysicalNames
$Entities
7 7 2 0
1 0 0 0 0 
2 1 0 0 0 
3 0 1 0 0 
4 1 1 0 0 
5 0.1996979391881538 0.3626701165448106 0 0 
6 0.4896259843308712 0.4733284573257049 0 0 
7 0.2488290275026224 0.6690843392984126 0 0 
1 -9.999999994736442e-08 -1e-07 -1e-07 1.0000001 1e-07 1e-07 1 101 2 1 -2 
2 -1e-07 -9.999999994736442e-08 -1e-07 1e-07 1.0000001 1e-07 1 101 2 3 -1 
3 0.9999999000000001 -9.999999994736442e-08 -1e-07 1.0000001 1.0000001 1e-07 1 101 2 2 -4 
4 -9.999999994736442e-08 0.9999999000000001 -1e-07 1.0000001 1.0000001 1e-07 1 101 2 4 -3 
5 0.1996978391881538 0.3626700165448106 -1e-07 0.4896260843308712 0.4733285573257049 1e-07 0 2 5 -6 
6 0.2488289275026224 0.4733283573257049 -1e-07 0.4896260843308712 0.6690844392984125 1e-07 0 2 6 -7 
7 0.1996978391881538 0.3626700165448106 -1e-07 0.2488291275026224 0.6690844392984125 1e-07 0 2 7 -5 
2 0.1996978391881538 0.3626700165448106 -1e-07 0.4896260843308712 0.6690844392984125 1e-07 1 2 3 5 6 7 
3 -9.999999994736442e-08 -9.999999994736442e-08 -1e-07 1.0000001 1.0000001 1e-07 1 1 7 1 3 4 2 -5 -7 -6 
$EndEntities
$Nodes
16 155 1 155
0 1 0 1
1
0 0 0
0 2 0 1
2
1 0 0
0 3 0 1
3
0 1 0
0 4 0 1
4
1 1 0
0 5 0 1
5
0.1996979391881538 0.3626701165448106 0
0 6 0 1
6
0.4896259843308712 0.4733284573257049 0
0 7 0 1
7
0.2488290275026224 0.6690843392984126 0
1 1 0 7
8
9
10
11
12
13
14
0.1249999999999999 0 0
0.2499999999999998 0 0
0.3749999999999993 0 0
0.4999999999999988 0 0
0.6249999999999988 0 0
0.7499999999999991 0 0
0.8749999999999997 0 0
1 2 0 7
15
16
17
18
19
20
21
0 0.8750000000000001 0
0 0.7500000000000002 0
0 0.6250000000000007 0
0 0.5000000000000012 0
0 0.3750000000000012 0
0 0.2500000000000009 0
0 0.1250000000000003 0
1 3 0 7
22
23
24
25
26
27
28
1 0.1249999999999999 0
1 0.2499999999999998 0
1 0.3749999999999993 0
1 0.4999999999999988 0
1 0.6249999999999988 0
1 0.7499999999999991 0
1 0.8749999999999997 0
1 4 0 7
29
30
31
32
33
34
35
0.8750000000000001 1 0
0.7500000000000002 1 0
0.6250000000000007 1 0
0.5000000000000012 1 0
0.3750000000000012 1 0
0.2500000000000009 1 0
0.1250000000000003 1 0
1 5 0 4
36
37
38
39
0.2576835482166972 0.3848017847009894 0
0.3156691572452408 0.4069334528571683 0
0.3736547662737843 0.4290651210133472 0
0.4316403753023279 0.4511967891695261 0
1 6 0 4
40
41
42
43
0.4414665929652214 0.5124796337202464 0
0.3933072015995717 0.551630810114788 0
0.3451478102339218 0.5907819865093296 0
0.296988418868272 0.6299331629038711 0
1 7 0 4
44
45
46
47
0.2390028098397287 0.6078014947476923 0
0.2291765921768349 0.5465186501969719 0
0.2193503745139412 0.4852358056462514 0
0.2095241568510475 0.4239529610955309 0
2 2 0 6
48
49
50
51
52
53
0.2773359835424847 0.5073674738024303 0
0.267509765879591 0.4460846292517098 0
0.2871622012053784 0.5686503183531507 0
0.383480983936678 0.4903479655640676 0
0.3254953749081345 0.4682162974078887 0
0.3353215925710282 0.5294991419586091 0
2 3 0 102
54
55
56
57
58
59
60
61
62
63
64
65
66
67
68
69
70
71
72
73
74
75
76
77
78
79
80
81
82
83
84
85
86
87
88
89
90
91
92
93
94
95
96
97
98
99
100
101
102
103
104
105
106
107
108
109
110
111
112
113
114
115
116
117
118
119
120
121
122
123
124
125
126
127
128
129
130
131
132
133
134
135
136
137
138
139
140
141
142
143
144
145
146
147
148
149
150
151
152
153
154
155
0.4989275300385536 0.5364647613956625 0
0.5524122277965781 0.4946343986131611 0
0.5616170689648348 0.5666774781612931 0
0.4763674206525322 0.4182379543928238 0
0.3568302501152331 0.6467096165309594 0
0.3714961104991268 0.3674060331568363 0
0.2513802837633736 0.3203894652231049 0
0.8798526413644001 0.3058439983367084 0
0.6218625317440375 0.5186164851614008 0
0.6345349609299831 0.5961096417961964 0
0.5675006594618356 0.6460901644870367 0
0.609610726375365 0.4432460404040781 0
0.6468656144149993 0.6803574727352013 0
0.5584397546431319 0.1022521975947265 0
0.7126183493194312 0.5388521101713544 0
0.5744186303159153 0.730629348279391 0
0.3150527762293076 0.8927544643622917 0
0.1046240095076199 0.8155202715014883 0
0.3122828397747636 0.1116719525832142 0
0.6640327154764265 0.7734683925251855 0
0.7310180959325097 0.7057730411203517 0
0.1838357457428252 0.2946932783228492 0
0.1859685563090523 0.6451790764231417 0
0.8124999999999993 0.1082531754730551 0
0.1698683113218385 0.52738544732602 0
0.4975906723171876 0.694057391494082 0
0.5070199923071935 0.8022302401391268 0
0.8950926038326107 0.5578349857854847 0
0.8106674703230072 0.8985231781343306 0
0.2435261276000055 0.248738873441997 0
0.1622283075045704 0.196147001498737 0
0.1489083845742589 0.4022233823695682 0
0.198481570748143 0.7139683101334917 0
0.262686689237383 0.7473868180977138 0
0.4271582469857007 0.7478862494262064 0
0.3133253654401764 0.2774679965097483 0
0.1200200908455948 0.6800955777132883 0
0.4205541359229191 0.8366246573126421 0
0.1238397371720092 0.5986071188948148 0
0.1971066411905079 0.793116550910937 0
0.4376320191725528 0.1017137593733235 0
0.4980767231919502 0.1965195346023851 0
0.6060675661827631 0.1991238235852487 0
0.550813333457746 0.2844874585731172 0
0.6494594784998854 0.2905713944253209 0
0.4569380075999797 0.2751731977006157 0
0.719745373934113 0.2039918875666715 0
0.7584963969121878 0.3001312513818716 0
0.381705110547181 0.1985471669272637 0
0.6795188590115959 0.8840184727983517 0
0.5648545243348769 0.8987553787004934 0
0.3384365687335396 0.7795140556778508 0
0.8943205958424181 0.4419579026854612 0
0.6899084645492451 0.3871910139853674 0
0.1977606179917715 0.09509717888411195 0
0.2004963073739564 0.8992502460877693 0
0.8051353194235489 0.4992437152642247 0
0.7940827825993899 0.6190121869525491 0
0.8992268138259695 0.6798497271588609 0
0.8841232167479334 0.8082045920653533 0
0.791818819935728 0.3964812532832062 0
0.8146891404874006 0.2145798746323384 0
0.6761863090209639 0.1017212129407808 0
0.5010748727826516 0.6109648164677877 0
0.4303200536649602 0.6497201521472578 0
0.4261246370431892 0.3901938093449631 0
0.3068146365311658 0.6912160074545917 0
0.3094246728160753 0.3445381656329468 0
0.7553648616653058 0.8077324736604405 0
0.09362765023524033 0.2887237818526528 0
0.5918789772015808 0.3625490704636921 0
0.1895712013638927 0.5850983575177281 0
0.5367983388815896 0.4224302482380731 0
0.1538328082939096 0.4683932258742735 0
0.08016017483414828 0.4423101059739612 0
0.08616426374438374 0.5283127853149244 0
0.3844728282895716 0.2985896612143158 0
0.4437756333365638 0.5778858362502703 0
0.679215087508458 0.4686334761579113 0
0.495206218400143 0.355336449949174 0
0.7075110077535167 0.6272916661589369 0
0.07118724204145255 0.1904473664993425 0
0.9061850659526823 0.1789347390963013 0
0.3017710510410872 0.2044844253768363 0
0.0860240633763153 0.9179541035178516 0
0.1421467383295455 0.3417904999616921 0
0.4773154732649423 0.8901495266509503 0
0.09631279096516304 0.09682993111898347 0
0.3938761897900501 0.603345680310521 0
0.2369723082038435 0.1703980700773983 0
0.3719119512061199 0.7030092162473732 0
0.5873282761370157 0.8119452996211938 0
0.9084936490538906 0.9084936490538905 0
0.3941487137597207 0.9131373571024892 0
0.8185850875268779 0.7312471343042246 0
0.2675953070430815 0.8252326161943517 0
0.1385204556417886 0.7476275328940865 0
0.9219746133830384 0.07886438383439542 0
0.09270773325112402 0.3728443221039819 0
0.07236996591707717 0.7354369542112269 0
0.4275228139643832 0.3342834109309327 0
0.7434419591189995 0.4549234061597552 0
$EndNodes
$Elements
6 308 1 308
1 1 1 8
1 1 8 
2 8 9 
3 9 10 
4 10 11 
5 11 12 
6 12 13 
7 13 14 
8 14 2 
1 2 1 8
9 3 15 
10 15 16 
11 16 17 
12 17 18 
13 18 19 
14 19 20 
15 20 21 
16 21 1 
1 3 1 8
17 2 22 
18 22 23 
19 23 24 
20 24 25 
21 25 26 
22 26 27 
23 27 28 
24 28 4 
1 4 1 8
25 4 29 
26 29 30 
27 30 31 
28 31 32 
29 32 33 
30 33 34 
31 34 35 
32 35 3 
2 2 2 25
33 6 40 39 
34 5 36 47 
35 44 43 7 
36 39 51 38 
37 48 53 50 
38 45 50 44 
39 40 51 39 
40 49 52 48 
41 43 50 42 
42 47 49 46 
43 46 49 48 
44 52 53 48 
45 41 51 40 
46 44 50 43 
47 51 53 52 
48 42 53 41 
49 48 50 45 
50 37 49 36 
51 37 52 49 
52 38 52 37 
53 46 48 45 
54 51 52 38 
55 36 49 47 
56 50 53 42 
57 41 53 51 
2 3 2 251
58 99 102 95 
59 61 114 101 
60 126 133 124 
61 17 92 90 
62 87 120 105 
63 61 136 23 
64 115 136 61 
65 99 130 102 
66 100 116 77 
67 120 144 105 
68 77 115 100 
69 90 153 17 
70 106 114 61 
71 101 115 61 
72 93 109 71 
73 57 133 126 
74 102 130 89 
75 95 102 94 
76 94 102 72 
77 84 141 108 
78 135 141 84 
79 104 140 80 
80 70 105 91 
81 110 111 68 
82 10 94 72 
83 103 145 73 
84 123 152 19 
85 119 133 57 
86 27 113 112 
87 80 145 104 
88 17 129 92 
89 67 95 94 
90 111 148 74 
91 24 106 61 
92 27 112 26 
93 80 140 91 
94 97 99 95 
95 121 130 59 
96 77 116 13 
97 96 97 95 
98 82 122 113 
99 65 124 107 
100 20 123 19 
101 88 118 79 
102 118 144 58 
103 16 71 15 
104 28 113 27 
105 104 145 103 
106 34 70 33 
107 67 94 11 
108 88 144 118 
109 67 116 96 
110 119 154 133 
111 122 148 113 
112 96 116 100 
113 89 137 102 
114 10 72 9 
115 72 108 9 
116 67 96 95 
117 31 104 103 
118 15 138 3 
119 81 106 25 
120 110 114 106 
121 81 110 106 
122 32 147 140 
123 100 115 101 
124 56 117 54 
125 12 67 11 
126 65 126 124 
127 73 122 103 
128 34 109 70 
129 91 147 70 
130 30 103 82 
131 32 104 31 
132 24 61 23 
133 78 125 92 
134 26 81 25 
135 11 94 10 
136 26 112 81 
137 101 107 98 
138 112 148 111 
139 96 98 97 
140 105 149 87 
141 30 82 29 
142 111 134 68 
143 81 111 110 
144 3 138 35 
145 25 106 24 
146 31 103 30 
147 89 130 121 
148 74 134 111 
149 124 133 97 
150 9 108 8 
151 35 109 34 
152 93 149 109 
153 78 129 127 
154 80 88 79 
155 14 77 13 
156 28 146 113 
157 33 147 32 
158 1 141 21 
159 109 138 71 
160 18 129 17 
161 107 124 98 
162 64 117 56 
163 68 155 110 
164 107 132 65 
165 12 116 67 
166 91 105 88 
167 69 79 64 
168 79 117 64 
169 23 136 22 
170 13 116 12 
171 8 141 1 
172 16 153 71 
173 19 128 18 
174 92 129 78 
175 101 114 107 
176 102 137 72 
177 97 133 99 
178 118 131 117 
179 81 112 111 
180 108 143 84 
181 100 101 98 
182 71 138 15 
183 17 153 16 
184 105 144 88 
185 98 124 97 
186 69 80 79 
187 118 142 131 
188 109 149 70 
189 103 122 82 
190 117 131 54 
191 6 54 40 
192 63 64 56 
193 80 91 88 
194 72 143 108 
195 96 100 98 
196 4 146 28 
197 29 146 4 
198 66 74 73 
199 79 118 117 
200 39 57 6 
201 83 89 60 
202 38 119 39 
203 127 129 128 
204 7 87 86 
205 42 58 43 
206 37 59 38 
207 113 146 82 
208 32 140 104 
209 70 147 33 
210 36 121 37 
211 71 150 93 
212 5 60 36 
213 132 155 68 
214 40 131 41 
215 55 65 62 
216 43 120 7 
217 74 122 73 
218 66 69 64 
219 6 55 54 
220 87 149 93 
221 63 66 64 
222 66 73 69 
223 35 138 109 
224 62 68 63 
225 62 63 56 
226 14 151 77 
227 55 56 54 
228 89 121 60 
229 137 143 72 
230 113 148 112 
231 7 76 44 
232 66 134 74 
233 58 142 118 
234 55 62 56 
235 7 120 87 
236 44 125 45 
237 54 131 40 
238 108 141 8 
239 45 78 46 
240 39 119 57 
241 59 119 38 
242 46 127 47 
243 63 134 66 
244 74 148 122 
245 7 86 76 
246 75 123 84 
247 55 126 65 
248 37 121 59 
249 47 85 5 
250 68 134 63 
251 139 152 123 
252 21 135 20 
253 90 92 76 
254 60 121 36 
255 58 120 43 
256 70 149 105 
257 6 126 55 
258 110 155 114 
259 82 146 29 
260 19 152 128 
261 123 135 84 
262 57 126 6 
263 65 132 62 
264 87 93 86 
265 42 142 58 
266 75 84 83 
267 114 155 107 
268 131 142 41 
269 77 136 115 
270 41 142 42 
271 69 145 80 
272 62 132 68 
273 75 83 60 
274 77 151 136 
275 59 154 119 
276 5 75 60 
277 130 154 59 
278 20 135 123 
279 86 90 76 
280 128 129 18 
281 92 125 76 
282 107 155 132 
283 2 151 14 
284 22 151 2 
285 83 137 89 
286 84 143 83 
287 76 125 44 
288 45 125 78 
289 73 145 69 
290 78 127 46 
291 75 139 123 
292 133 154 99 
293 47 127 85 
294 21 141 135 
295 127 128 85 
296 93 150 86 
297 58 144 120 
298 83 143 137 
299 85 139 5 
300 5 139 75 
301 140 147 91 
302 86 150 90 
303 99 154 130 
304 136 151 22 
305 71 153 150 
306 150 153 90 
307 128 152 85 
308 85 152 139 
$EndElements
