$MeshFormat
4.1 0 8
$EndMeshFormat
$PhysicalNames
3
1 101 "outer_boundary"
2 1 "material_1"
2 2 "material_2"
$EndPhysicalNames
$Entities
7 7 2 0
1 0 0 0 0 
2 1 0 0 0 
3 0 1 0 0 
4 1 1 0 0 
5 0.3582736390836675 0.5754543012542733 0 0 
6 0.5020261350971534 0.7213743877127272 0 0 
7 0.3037793852949678 0.7729076578886003 0 0 
1 -9.999999994736442e-08 -1e-07 -1e-07 1.0000001 1e-07 1e-07 1 101 2 1 -2 
2 -1e-07 -9.999999994736442e-08 -1e-07 1e-07 1.0000001 1e-07 1 101 2 3 -1 
3 0.9999999000000001 -9.999999994736442e-08 -1e-07 1.0000001 1.0000001 1e-07 1 101 2 2 -4 
4 -9.999999994736442e-08 0.9999999000000001 -1e-07 1.0000001 1.0000001 1e-07 1 101 2 4 -3 
5 0.3582735390836675 0.5754542012542734 -1e-07 0.5020262350971534 0.7213744877127272 1e-07 0 2 5 -6 
6 0.3037792852949678 0.7213742877127273 -1e-07 0.5020262350971534 0.7729077578886002 1e-07 0 2 6 -7 
7 0.3037792852949678 0.5754542012542734 -1e-07 0.3582737390836676 0.7729077578886002 1e-07 0 2 7 -5 
2 0.3037792852949678 0.5754542012542734 -1e-07 0.5020262350971534 0.7729077578886002 1e-07 1 2 3 5 6 7 
3 -9.999999994736442e-08 -9.999999994736442e-08 -1e-07 1.0000001 1.0000001 1e-07 1 1 7 1 3 4 2 -5 -7 -6 
$EndEntities
$Nodes
16 138 1 138
0 1 0 1
1
0 0 0
0 2 0 1
2
1 0 0
0 3 0 1
3
0 1 0
0 4 0 1
4
1 1 0
0 5 0 1
5
0.3582736390836675 0.5754543012542733 0
0 6 0 1
6
0.5020261350971534 0.7213743877127272 0
0 7 0 1
7
0.3037793852949678 0.7729076578886003 0
1 1 0 7
8
9
10
11
12
13
14
0.1249999999999999 0 0
0.2499999999999998 0 0
0.3749999999999993 0 0
0.4999999999999988 0 0
0.6249999999999988 0 0
0.7499999999999991 0 0
0.8749999999999997 0 0
1 2 0 7
15
16
17
18
19
20
21
0 0.8750000000000001 0
0 0.7500000000000002 0
0 0.6250000000000007 0
0 0.5000000000000012 0
0 0.3750000000000012 0
0 0.2500000000000009 0
0 0.1250000000000003 0
1 3 0 7
22
23
24
25
26
27
28
1 0.1249999999999999 0
1 0.2499999999999998 0
1 0.3749999999999993 0
1 0.4999999999999988 0
1 0.6249999999999988 0
1 0.7499999999999991 0
1 0.8749999999999997 0
1 4 0 7
29
30
31
32
33
34
35
0.8750000000000001 1 0
0.7500000000000002 1 0
0.6250000000000007 1 0
0.5000000000000012 1 0
0.3750000000000012 1 0
0.2500000000000009 1 0
0.1250000000000003 1 0
1 5 0 2
36
37
0.4061911377548296 0.624094330073758 0
0.4541086364259916 0.6727343588932427 0
1 6 0 2
38
39
0.4359438851630914 0.7385521444380183 0
0.3698616352290295 0.7557299011633093 0
1 7 0 2
40
41
0.3219441365578678 0.7070898723438245 0
0.3401088878207677 0.6412720867990488 0
2 2 0 1
42
0.3880263864919297 0.6899121156185336 0
2 3 0 96
43
44
45
46
47
48
49
50
51
52
53
54
55
56
57
58
59
60
61
62
63
64
65
66
67
68
69
70
71
72
73
74
75
76
77
78
79
80
81
82
83
84
85
86
87
88
89
90
91
92
93
94
95
96
97
98
99
100
101
102
103
104
105
106
107
108
109
110
111
112
113
114
115
116
117
118
119
120
121
122
123
124
125
126
127
128
129
130
131
132
133
134
135
136
137
138
0.4242189326671694 0.5575271649443027 0
0.3752280262592657 0.5056298563265947 0
0.4464133765371171 0.4862386036509074 0
0.894900810279959 0.3125326412689916 0
0.3938473384281023 0.4323571572170519 0
0.4718151561933668 0.411098519078728 0
0.5298686135630821 0.4845673075721472 0
0.9020924494751971 0.6939428397085887 0
0.5563669018765413 0.3907681349021906 0
0.6181475004262281 0.4561641081887592 0
0.4172771510678782 0.3536431216396397 0
0.2982260353335428 0.5943600098329516 0
0.3169296295438486 0.4540758650837166 0
0.6769014746611599 0.100120049489374 0
0.709428812972303 0.916046292524241 0
0.252277251445907 0.7209671501817607 0
0.521146676150519 0.652601085580983 0
0.573748807758055 0.7061460885015849 0
0.6429511305342696 0.3653244649974615 0
0.7196580311164282 0.4290700302715361 0
0.1054525675866297 0.3166903229808584 0
0.681307448441468 0.5297918109680995 0
0.3178261337213304 0.1035628878895151 0
0.2310949768383408 0.7962312572710105 0
0.5797748138635896 0.2971093107978252 0
0.4798628357627286 0.7783707575414545 0
0.7941650381115737 0.5142283853531356 0
0.119134127271359 0.5626462617693576 0
0.3601908246759608 0.8309826025371936 0
0.749266442988478 0.5972472885321917 0
0.1734565485658417 0.7373463200506047 0
0.6749812405308948 0.272351131405472 0
0.1525651064141226 0.8204517563000153 0
0.1988669872841585 0.655404007876452 0
0.591472609980308 0.6288514426390995 0
0.6497538167787018 0.6928338281369811 0
0.6339905760942788 0.7698658099808376 0
0.7146955848602541 0.7513742229442942 0
0.5349963750427392 0.5780103822047682 0
0.8944164679262046 0.5671239580056073 0
0.1050544453889203 0.4354047673570973 0
0.1978031557057301 0.3707266716833683 0
0.1976925998225756 0.2528601393127317 0
0.2182540910842359 0.474310346381848 0
0.27475999817589 0.3165957734102822 0
0.1033293888618719 0.1955043649987493 0
0.6175817332858373 0.1982538756799589 0
0.4989284898151041 0.2163589155030937 0
0.8837261279310257 0.4385080070776623 0
0.09673169670596898 0.6813028032025763 0
0.4375000000000012 0.9010907951005047 0
0.5519124785909836 0.897995638230906 0
0.8135248735261562 0.9104334350224326 0
0.88314242204135 0.8167849612579781 0
0.4374999999999991 0.1082531754730543 0
0.3892912682252891 0.1987893788268418 0
0.8024213987357189 0.1183626148901164 0
0.1952655879693832 0.1226778056615447 0
0.2187636740887126 0.8852662918207933 0
0.8995057164737001 0.191236810376155 0
0.785902580290736 0.2552000454107169 0
0.8021123470250503 0.3686998156100544 0
0.4709205537556342 0.6040063236490657 0
0.5564943407988224 0.1029390922002341 0
0.2740266378867059 0.6584498435243399 0
0.2227129112140989 0.5743462117181172 0
0.4294881359176945 0.8103758043101903 0
0.4955759591294024 0.3297466524467005 0
0.2982707220864432 0.5296960984329169 0
0.8020706089158717 0.7427202807347892 0
0.3211562900001292 0.9093657623158452 0
0.550404421756158 0.7975807692584747 0
0.2812491072619538 0.2032119339564667 0
0.6019256633373897 0.5407534726685651 0
0.2862555825338147 0.8389037772580639 0
0.09592219117704431 0.7628710235434638 0
0.4376332703652296 0.2725895142778343 0
0.6665205775966545 0.6117547661641236 0
0.9036664862357981 0.9058539834883436 0
0.7115576855008694 0.1888575433751277 0
0.1266324973515893 0.9126250352421088 0
0.4812835703131484 0.5420699564042382 0
0.3397788861727276 0.3750188061507961 0
0.08471899536625105 0.08863643413205891 0
0.8116261279750743 0.6567250820674009 0
0.6365622939060592 0.8690521336870132 0
0.90849364905389 0.09150635094610993 0
0.7452083817600843 0.8289253920735564 0
0.3657229320174259 0.2927458783617851 0
0.732322193185839 0.6754425780966301 0
0.2695051521364864 0.3981454925420022 0
0.4898335744055132 0.837082752888306 0
0.7251210658994758 0.3381290975390482 0
0.8030293610918713 0.4381482568482231 0
0.8159663157405359 0.5809021696845875 0
0.07297318021430632 0.8300505898885526 0
$EndNodes
$Elements
6 274 1 274
1 1 1 8
1 1 8 
2 8 9 
3 9 10 
4 10 11 
5 11 12 
6 12 13 
7 13 14 
8 14 2 
1 2 1 8
9 3 15 
10 15 16 
11 16 17 
12 17 18 
13 18 19 
14 19 20 
15 20 21 
16 21 1 
1 3 1 8
17 2 22 
18 22 23 
19 23 24 
20 24 25 
21 25 26 
22 26 27 
23 27 28 
24 28 4 
1 4 1 8
25 4 29 
26 29 30 
27 30 31 
28 31 32 
29 32 33 
30 33 34 
31 34 35 
32 35 3 
2 2 2 9
33 39 7 40 
34 41 5 36 
35 37 6 38 
36 41 42 40 
37 40 42 39 
38 39 42 38 
39 36 42 41 
40 37 42 36 
41 38 42 37 
2 3 2 233
42 100 115 85 
43 79 130 128 
44 80 130 79 
45 88 100 85 
46 55 111 86 
47 70 108 76 
48 15 123 3 
49 90 98 97 
50 94 134 114 
51 94 128 31 
52 86 111 108 
53 31 128 57 
54 76 92 70 
55 3 123 35 
56 107 108 54 
57 96 130 112 
58 71 109 93 
59 114 128 94 
60 83 86 70 
61 97 106 90 
62 108 111 54 
63 128 130 57 
64 101 113 34 
65 69 91 82 
66 95 130 96 
67 101 117 113 
68 81 124 49 
69 34 123 101 
70 49 116 81 
71 89 106 56 
72 18 83 70 
73 86 133 55 
74 91 104 46 
75 69 136 91 
76 115 131 87 
77 17 92 16 
78 90 119 98 
79 56 106 12 
80 102 103 99 
81 103 122 99 
82 76 108 107 
83 24 91 46 
84 82 137 69 
85 92 118 16 
86 90 106 89 
87 116 120 77 
88 63 84 83 
89 86 108 70 
90 21 88 20 
91 93 113 71 
92 97 98 65 
93 70 92 17 
94 35 123 34 
95 84 86 83 
96 91 136 104 
97 10 97 65 
98 31 57 30 
99 63 83 19 
100 18 70 17 
101 57 95 30 
102 93 94 32 
103 85 115 87 
104 114 134 68 
105 127 137 82 
106 13 99 56 
107 8 126 1 
108 98 131 115 
109 27 50 26 
110 50 82 26 
111 85 87 84 
112 20 63 19 
113 93 134 94 
114 82 91 25 
115 32 94 31 
116 81 116 77 
117 50 127 82 
118 25 91 24 
119 15 138 123 
120 19 83 18 
121 10 65 9 
122 27 96 50 
123 11 97 10 
124 13 56 12 
125 24 46 23 
126 20 88 63 
127 63 85 84 
128 33 93 32 
129 65 100 9 
130 1 126 21 
131 65 115 100 
132 14 99 13 
133 46 103 102 
134 26 82 25 
135 30 95 29 
136 28 96 27 
137 46 104 103 
138 9 100 8 
139 46 102 23 
140 99 122 56 
141 34 113 33 
142 84 133 86 
143 67 110 90 
144 23 102 22 
145 64 120 116 
146 56 122 89 
147 12 106 11 
148 21 126 88 
149 62 64 52 
150 69 72 64 
151 67 90 89 
152 79 128 114 
153 4 121 28 
154 103 135 74 
155 11 106 97 
156 29 121 4 
157 63 88 85 
158 59 81 77 
159 5 43 36 
160 36 105 37 
161 37 59 6 
162 62 69 64 
163 51 67 61 
164 48 49 45 
165 52 116 49 
166 109 134 93 
167 67 89 74 
168 61 62 52 
169 2 129 14 
170 22 129 2 
171 5 44 43 
172 67 74 61 
173 89 122 74 
174 41 54 5 
175 51 52 49 
176 48 51 49 
177 51 61 52 
178 73 76 58 
179 96 112 50 
180 40 107 41 
181 59 105 81 
182 80 132 112 
183 47 48 45 
184 44 47 45 
185 78 79 60 
186 47 53 48 
187 104 135 103 
188 44 45 43 
189 7 58 40 
190 44 55 47 
191 98 115 65 
192 43 105 36 
193 37 105 59 
194 6 68 38 
195 68 134 109 
196 38 109 39 
197 113 117 71 
198 51 110 67 
199 78 80 79 
200 39 71 7 
201 74 122 103 
202 62 135 104 
203 49 124 45 
204 57 130 95 
205 87 133 84 
206 66 101 75 
207 59 60 6 
208 33 113 93 
209 64 116 52 
210 96 121 95 
211 112 132 127 
212 48 110 51 
213 77 78 60 
214 59 77 60 
215 104 136 62 
216 53 110 48 
217 72 120 64 
218 100 126 8 
219 73 92 76 
220 112 130 80 
221 76 107 58 
222 5 111 44 
223 66 75 73 
224 95 121 29 
225 110 119 90 
226 41 107 54 
227 16 138 15 
228 28 121 96 
229 7 66 58 
230 58 107 40 
231 61 135 62 
232 102 129 22 
233 44 111 55 
234 66 73 58 
235 54 111 5 
236 88 126 100 
237 14 129 99 
238 47 125 53 
239 79 114 60 
240 125 131 53 
241 68 109 38 
242 99 129 102 
243 62 136 69 
244 43 124 105 
245 39 109 71 
246 60 114 6 
247 75 118 73 
248 73 118 92 
249 6 114 68 
250 77 120 78 
251 66 117 101 
252 45 124 43 
253 105 124 81 
254 53 119 110 
255 55 125 47 
256 101 123 75 
257 87 131 125 
258 71 117 7 
259 7 117 66 
260 69 137 72 
261 120 132 78 
262 118 138 16 
263 74 135 61 
264 78 132 80 
265 112 127 50 
266 123 138 75 
267 72 132 120 
268 119 131 98 
269 127 132 72 
270 125 133 87 
271 53 131 119 
272 72 137 127 
273 55 133 125 
274 75 138 118 
$EndElements
