$MeshFormat
4.1 0 8
$EndMeshFormat
$PhysicalNames
3
1 101 "outer_boundary"
2 1 "material_1"
2 2 "material_2"
$EndPhysicalNames
$Entities
7 7 2 0
1 0 0 0 0 
2 1 0 0 0 
3 0 1 0 0 
4 1 1 0 0 
5 0.62300591405713 0.7321503843317104 0 0 
6 0.6358737727987617 0.4339043717546705 0 0 
7 0.8877284668970756 0.5941712706057533 0 0 
1 -9.999999994736442e-08 -1e-07 -1e-07 1.0000001 1e-07 1e-07 1 101 2 1 -2 
2 -1e-07 -9.999999994736442e-08 -1e-07 1e-07 1.0000001 1e-07 1 101 2 3 -1 
3 0.9999999000000001 -9.999999994736442e-08 -1e-07 1.0000001 1.0000001 1e-07 1 101 2 2 -4 
4 -9.999999994736442e-08 0.9999999000000001 -1e-07 1.0000001 1.0000001 1e-07 1 101 2 4 -3 
5 0.6230058140571301 0.4339042717546705 -1e-07 0.6358738727987616 0.7321504843317104 1e-07 0 2 5 -6 
6 0.6358736727987617 0.4339042717546705 -1e-07 0.8877285668970756 0.5941713706057532 1e-07 0 2 6 -7 
7 0.6230058140571301 0.5941711706057533 -1e-07 0.8877285668970756 0.7321504843317104 1e-07 0 2 7 -5 
2 0.6230058140571301 0.4339042717546705 -1e-07 0.8877285668970756 0.7321504843317104 1e-07 1 2 3 5 6 7 
3 -9.999999994736442e-08 -9.999999994736442e-08 -1e-07 1.0000001 1.0000001 1e-07 1 1 7 1 3 4 2 -5 -7 -6 
$EndEntities
$Nodes
16 162 1 162
0 1 0 1
1
0 0 0
0 2 0 1
2
1 0 0
0 3 0 1
3
0 1 0
0 4 0 1
4
1 1 0
0 5 0 1
5
0.62300591405713 0.7321503843317104 0
0 6 0 1
6
0.6358737727987617 0.4339043717546705 0
0 7 0 1
7
0.8877284668970756 0.5941712706057533 0
1 1 0 7
8
9
10
11
12
13
14
0.1249999999999999 0 0
0.2499999999999998 0 0
0.3749999999999993 0 0
0.4999999999999988 0 0
0.6249999999999988 0 0
0.7499999999999991 0 0
0.8749999999999997 0 0
1 2 0 7
15
16
17
18
19
20
21
0 0.8750000000000001 0
0 0.7500000000000002 0
0 0.6250000000000007 0
0 0.5000000000000012 0
0 0.3750000000000012 0
0 0.2500000000000009 0
0 0.1250000000000003 0
1 3 0 7
22
23
24
25
26
27
28
1 0.1249999999999999 0
1 0.2499999999999998 0
1 0.3749999999999993 0
1 0.4999999999999988 0
1 0.6249999999999988 0
1 0.7499999999999991 0
1 0.8749999999999997 0
1 4 0 7
29
30
31
32
33
34
35
0.8750000000000001 1 0
0.7500000000000002 1 0
0.6250000000000007 1 0
0.5000000000000012 1 0
0.3750000000000012 1 0
0.2500000000000009 1 0
0.1250000000000003 1 0
1 5 0 4
36
37
38
39
0.6255794858054563 0.6725011818163026 0
0.6281530575537827 0.6128519793008947 0
0.630726629302109 0.5532027767854867 0
0.6333002010504354 0.4935535742700784 0
1 6 0 4
40
41
42
43
0.6862447116184244 0.465957751524887 0
0.7366156504380871 0.4980111312951034 0
0.7869865892577499 0.53006451106532 0
0.8373575280774129 0.5621178908355368 0
1 7 0 4
44
45
46
47
0.8347839563290866 0.6217670933509446 0
0.7818394457610977 0.6493629160961361 0
0.7288949351931084 0.6769587388413275 0
0.6759504246251191 0.7045545615865191 0
2 2 0 6
48
49
50
51
52
53
0.6810975681217718 0.5852561565557032 0
0.6836711398700981 0.525606954040295 0
0.7844130175094237 0.5897137135807281 0
0.6785239963734455 0.6449053590711111 0
0.7340420786897608 0.5576603338105116 0
0.7314685069414347 0.6173095363259196 0
2 3 0 109
54
55
56
57
58
59
60
61
62
63
64
65
66
67
68
69
70
71
72
73
74
75
76
77
78
79
80
81
82
83
84
85
86
87
88
89
90
91
92
93
94
95
96
97
98
99
100
101
102
103
104
105
106
107
108
109
110
111
112
113
114
115
116
117
118
119
120
121
122
123
124
125
126
127
128
129
130
131
132
133
134
135
136
137
138
139
140
141
142
143
144
145
146
147
148
149
150
151
152
153
154
155
156
157
158
159
160
161
162
0.5822727857466563 0.4621894939633935 0
0.5695524203247556 0.6976331597532398 0
0.09797743985958052 0.311183428279144 0
0.1082531754730544 0.5625000000000009 0
0.5837399660484905 0.3973580990859915 0
0.5225194834161624 0.4308997036038267 0
0.6888182833667508 0.4063085490094791 0
0.3325260289973424 0.8990721837923796 0
0.5257094042536775 0.3569495690189911 0
0.4586701395039786 0.3914343613157969 0
0.4575930802836136 0.4703857374474398 0
0.5931128205119599 0.3239210979901248 0
0.7792199315945703 0.708923974878037 0
0.3878803923190529 0.4295388673860172 0
0.3890304769743936 0.5118086199891978 0
0.3886581360791842 0.3479138204452086 0
0.8022883457813963 0.4618401194597453 0
0.5284308100461205 0.2764581947130026 0
0.6785953818472391 0.7693368779947577 0
0.5674132297929901 0.7651399182190959 0
0.5066098446205276 0.7258581031477713 0
0.5777821187341199 0.5807985995306781 0
0.6058068121411376 0.2417592348771846 0
0.3118290851776486 0.4700502380607477 0
0.3126916330879406 0.5578422382528181 0
0.3208484781317262 0.1014654433404649 0
0.814098177597824 0.09295099001374063 0
0.903513648315929 0.3123981172729939 0
0.5041952156727401 0.8032236289153024 0
0.4359366238691116 0.7613527781918614 0
0.4445156725041924 0.6796514345169975 0
0.3671143474546456 0.7132622763485256 0
0.8036177215150715 0.8985847823012603 0
0.1082531754730546 0.8125000000000002 0
0.5395943062178606 0.1900870887755897 0
0.4562308737335834 0.5485039992827004 0
0.6633118817989583 0.2925900501139775 0
0.8783974662496387 0.6564984428189248 0
0.5921566822437667 0.8423086719788884 0
0.4570106313231553 0.2273457806810006 0
0.6875842374333312 0.2048592017451041 0
0.7443328829553008 0.288927653111703 0
0.6820487985491196 0.9027894117827164 0
0.433382430354977 0.8462208376778986 0
0.8928343007934496 0.4371875752604628 0
0.9007827286116147 0.5271311940795109 0
0.4496363218475114 0.1132981884973623 0
0.2247657702776741 0.5195495916775515 0
0.2196884283361488 0.607393015578151 0
0.2347731675820536 0.4294432933094062 0
0.1247239553722408 0.6866022387594179 0
0.2015912592308378 0.7688600747353387 0
0.8111655413675284 0.368302885350878 0
0.08738651849349693 0.4361679179846779 0
0.1057641934329899 0.1878212174727197 0
0.1991194615170693 0.2565933957660915 0
0.7510003559190577 0.8191813936702349 0
0.8400034761686037 0.8034999656195685 0
0.8923408671216465 0.1886071600911662 0
0.513963225098091 0.6535127991477773 0
0.1984708956486519 0.8865781298132669 0
0.5276320613827906 0.514794203090465 0
0.1955831637022333 0.1148407340314633 0
0.3931845444510868 0.6100531199121407 0
0.5752085469857937 0.6404478020460861 0
0.6900556509747382 0.09916303021005157 0
0.7414030518637523 0.4348144162402812 0
0.7289967994152097 0.7388293282847845 0
0.3570473651571692 0.79425448129028 0
0.5903427592432222 0.5209077295280203 0
0.8440498985043248 0.5036682581401152 0
0.570868863209798 0.09452976783053874 0
0.8322667268907833 0.6841314872389721 0
0.891508553692376 0.7283281457892472 0
0.3120931578450299 0.3838753483449862 0
0.3005166119021497 0.2976838213028703 0
0.6384244840861737 0.3742113098506279 0
0.3058961617685535 0.646759123309897 0
0.4572463218949101 0.311901907254537 0
0.7434860202831663 0.3708832810580938 0
0.9462722772758875 0.5708365911029842 0
0.6272121119946522 0.7881240196147666 0
0.9072461559694744 0.8957050306770382 0
0.505472615794455 0.8804010238666717 0
0.374171601384732 0.1790473536653218 0
0.2892314678928664 0.1992597466270378 0
0.4634586017346794 0.6163514284885785 0
0.5161712807910132 0.5896109563511168 0
0.433841671851819 0.9324161966552956 0
0.2391466440797503 0.3398314057998608 0
0.5776774781338052 0.9277667889792514 0
0.2875477223608526 0.7312898817694627 0
0.9347132863185894 0.6646393430415878 0
0.6726281364132867 0.8297745801648775 0
0.09150635094610993 0.09150635094610998 0
0.09150635094610954 0.9084936490538905 0
0.90849364905389 0.09150635094610987 0
0.9277516371660908 0.8105066284171705 0
0.7784284174563701 0.1877301223054214 0
0.8256250472885505 0.7394948394711105 0
0.618781973995373 0.1660796646876938 0
0.2778772096818672 0.8165546486464055 0
0.3798609422463124 0.2636066370980607 0
0.1647334849379301 0.3712759468203668 0
0.7804439742035473 0.7643514731481659 0
0.6895797562800596 0.3495043675687246 0
0.160946019735006 0.4732904307727299 0
0.8259562714433549 0.2691931876264325 0
0.2278895054137267 0.6881808668304534 0
$EndNodes
$Elements
6 322 1 322
1 1 1 8
1 1 8 
2 8 9 
3 9 10 
4 10 11 
5 11 12 
6 12 13 
7 13 14 
8 14 2 
1 2 1 8
9 3 15 
10 15 16 
11 16 17 
12 17 18 
13 18 19 
14 19 20 
15 20 21 
16 21 1 
1 3 1 8
17 2 22 
18 22 23 
19 23 24 
20 24 25 
21 25 26 
22 26 27 
23 27 28 
24 28 4 
1 4 1 8
25 4 29 
26 29 30 
27 30 31 
28 31 32 
29 32 33 
30 33 34 
31 34 35 
32 35 3 
2 2 2 25
33 6 40 39 
34 5 36 47 
35 44 43 7 
36 41 52 49 
37 42 52 41 
38 49 52 48 
39 44 50 43 
40 38 49 48 
41 45 53 50 
42 45 50 44 
43 47 51 46 
44 41 49 40 
45 36 51 47 
46 48 53 51 
47 39 49 38 
48 43 50 42 
49 38 48 37 
50 48 51 37 
51 50 52 42 
52 40 49 39 
53 37 51 36 
54 46 53 45 
55 50 53 52 
56 51 53 46 
57 52 53 48 
2 3 2 265
58 92 147 96 
59 98 124 70 
60 70 106 98 
61 10 100 79 
62 115 123 75 
63 85 117 84 
64 106 133 95 
65 16 104 87 
66 25 99 98 
67 17 104 16 
68 11 100 10 
69 133 159 95 
70 75 141 115 
71 29 136 4 
72 11 125 100 
73 70 120 106 
74 101 102 57 
75 96 144 92 
76 95 161 106 
77 104 105 87 
78 57 160 101 
79 99 124 98 
80 4 136 28 
81 97 142 61 
82 85 131 117 
83 95 159 90 
84 108 116 109 
85 116 139 109 
86 100 138 79 
87 57 104 17 
88 102 104 57 
89 72 121 110 
90 100 125 88 
91 105 114 87 
92 61 122 97 
93 24 98 81 
94 98 106 81 
95 106 161 81 
96 30 96 86 
97 18 107 57 
98 96 110 86 
99 139 156 129 
100 24 81 23 
101 30 86 29 
102 120 133 106 
103 54 115 59 
104 105 155 114 
105 108 109 56 
106 107 160 57 
107 25 98 24 
108 20 108 56 
109 143 157 109 
110 34 61 33 
111 103 160 157 
112 138 156 139 
113 56 107 19 
114 31 96 30 
115 86 136 29 
116 81 112 23 
117 18 57 17 
118 20 56 19 
119 10 79 9 
120 109 157 56 
121 117 140 84 
122 74 113 55 
123 59 115 64 
124 34 114 61 
125 25 134 99 
126 19 107 18 
127 61 142 33 
128 21 108 20 
129 64 115 89 
130 134 146 7 
131 16 87 15 
132 110 147 72 
133 14 80 13 
134 64 89 68 
135 80 119 13 
136 118 141 75 
137 115 141 89 
138 79 116 9 
139 31 144 96 
140 135 147 92 
141 157 160 107 
142 35 114 34 
143 9 116 8 
144 23 112 22 
145 84 113 74 
146 112 161 152 
147 90 130 65 
148 79 139 116 
149 12 125 11 
150 104 162 105 
151 110 111 86 
152 112 152 80 
153 122 145 85 
154 113 118 55 
155 54 123 115 
156 83 84 74 
157 89 117 68 
158 145 162 131 
159 76 90 65 
160 131 162 102 
161 59 64 63 
162 119 152 94 
163 122 155 145 
164 80 152 119 
165 26 134 25 
166 113 141 118 
167 39 54 6 
168 5 55 36 
169 36 118 37 
170 37 75 38 
171 127 146 27 
172 101 103 77 
173 114 155 61 
174 38 123 39 
175 109 139 129 
176 13 119 12 
177 64 68 67 
178 1 148 21 
179 8 148 1 
180 27 146 26 
181 3 149 35 
182 15 149 3 
183 2 150 14 
184 22 150 2 
185 78 102 101 
186 94 95 90 
187 68 78 77 
188 71 93 88 
189 90 159 130 
190 68 117 78 
191 64 67 63 
192 6 60 40 
193 78 101 77 
194 68 77 67 
195 101 160 103 
196 137 144 32 
197 7 146 91 
198 59 63 62 
199 55 118 36 
200 45 66 46 
201 46 121 47 
202 76 94 90 
203 47 72 5 
204 121 158 110 
205 78 131 102 
206 83 85 84 
207 40 120 41 
208 39 123 54 
209 37 118 75 
210 67 69 63 
211 71 76 65 
212 62 65 58 
213 93 100 88 
214 75 123 38 
215 54 59 58 
216 54 58 6 
217 56 157 107 
218 82 83 74 
219 71 88 76 
220 110 158 111 
221 103 128 77 
222 41 70 42 
223 129 143 109 
224 42 124 43 
225 59 62 58 
226 43 99 7 
227 62 71 65 
228 44 126 45 
229 71 132 93 
230 81 161 112 
231 94 154 119 
232 73 74 55 
233 28 151 27 
234 32 142 137 
235 82 97 83 
236 102 162 104 
237 128 129 69 
238 5 73 55 
239 119 125 12 
240 128 143 129 
241 32 144 31 
242 83 122 85 
243 73 92 82 
244 103 143 128 
245 7 91 44 
246 112 150 22 
247 97 122 83 
248 77 128 67 
249 35 149 114 
250 116 148 8 
251 89 140 117 
252 73 82 74 
253 27 151 127 
254 21 148 108 
255 69 132 63 
256 111 136 86 
257 87 149 15 
258 117 131 78 
259 80 150 112 
260 67 128 69 
261 33 142 32 
262 60 120 40 
263 108 148 116 
264 14 150 80 
265 96 147 110 
266 114 149 87 
267 63 132 62 
268 66 121 46 
269 93 138 100 
270 47 121 72 
271 65 130 58 
272 58 130 6 
273 132 156 93 
274 125 154 88 
275 62 132 71 
276 6 130 60 
277 69 156 132 
278 41 120 70 
279 60 133 120 
280 45 126 66 
281 88 154 76 
282 84 140 113 
283 70 124 42 
284 43 124 99 
285 152 161 95 
286 119 154 125 
287 73 135 92 
288 61 155 122 
289 93 156 138 
290 145 155 105 
291 72 135 5 
292 82 137 97 
293 91 126 44 
294 5 135 73 
295 92 137 82 
296 91 127 126 
297 94 152 95 
298 26 146 134 
299 129 156 69 
300 85 145 131 
301 140 141 113 
302 76 154 94 
303 136 151 28 
304 89 141 140 
305 92 144 137 
306 99 134 7 
307 138 139 79 
308 137 142 97 
309 127 151 111 
310 111 153 127 
311 72 147 135 
312 60 159 133 
313 111 151 136 
314 103 157 143 
315 126 153 66 
316 66 158 121 
317 127 153 126 
318 130 159 60 
319 111 158 153 
320 91 146 127 
321 153 158 66 
322 105 162 145 
$EndElements
