$MeshFormat
4.1 0 8
$EndMeshFormat
$PhysicalNames
3
1 101 "outer_boundary"
2 1 "material_1"
2 2 "material_2"
$EndPhysicalNames
$Entities
7 7 2 0
1 0 0 0 0 
2 1 0 0 0 
3 0 1 0 0 
4 1 1 0 0 
5 0.1788125759447298 0.1846550634821308 0 0 
6 0.4502030953614279 0.3422556925357588 0 0 
7 0.1780216872402291 0.4984864621700593 0 0 
1 -9.999999994736442e-08 -1e-07 -1e-07 1.0000001 1e-07 1e-07 1 101 2 1 -2 
2 -1e-07 -9.999999994736442e-08 -1e-07 1e-07 1.0000001 1e-07 1 101 2 3 -1 
3 0.9999999000000001 -9.999999994736442e-08 -1e-07 1.0000001 1.0000001 1e-07 1 101 2 2 -4 
4 -9.999999994736442e-08 0.9999999000000001 -1e-07 1.0000001 1.0000001 1e-07 1 101 2 4 -3 
5 0.1788124759447298 0.1846549634821308 -1e-07 0.4502031953614279 0.3422557925357588 1e-07 0 2 5 -6 
6 0.1780215872402291 0.3422555925357588 -1e-07 0.4502031953614279 0.4984865621700593 1e-07 0 2 6 -7 
7 0.1780215872402291 0.1846549634821307 -1e-07 0.1788126759447298 0.4984865621700593 1e-07 0 2 7 -5 
2 0.1780215872402291 0.1846549634821307 -1e-07 0.4502031953614279 0.4984865621700593 1e-07 1 2 3 5 6 7 
3 -9.999999994736442e-08 -9.999999994736442e-08 -1e-07 1.0000001 1.0000001 1e-07 1 1 7 1 3 4 2 -5 -7 -6 
$EndEntities
$Nodes
16 154 1 154
0 1 0 1
1
0 0 0
0 2 0 1
2
1 0 0
0 3 0 1
3
0 1 0
0 4 0 1
4
1 1 0
0 5 0 1
5
0.1788125759447298 0.1846550634821308 0
0 6 0 1
6
0.4502030953614279 0.3422556925357588 0
0 7 0 1
7
0.1780216872402291 0.4984864621700593 0
1 1 0 7
8
9
10
11
12
13
14
0.1249999999999999 0 0
0.2499999999999998 0 0
0.3749999999999993 0 0
0.4999999999999988 0 0
0.6249999999999988 0 0
0.7499999999999991 0 0
0.8749999999999997 0 0
1 2 0 7
15
16
17
18
19
20
21
0 0.8750000000000001 0
0 0.7500000000000002 0
0 0.6250000000000007 0
0 0.5000000000000012 0
0 0.3750000000000012 0
0 0.2500000000000009 0
0 0.1250000000000003 0
1 3 0 7
22
23
24
25
26
27
28
1 0.1249999999999999 0
1 0.2499999999999998 0
1 0.3749999999999993 0
1 0.4999999999999988 0
1 0.6249999999999988 0
1 0.7499999999999991 0
1 0.8749999999999997 0
1 4 0 7
29
30
31
32
33
34
35
0.8750000000000001 1 0
0.7500000000000002 1 0
0.6250000000000007 1 0
0.5000000000000012 1 0
0.3750000000000012 1 0
0.2500000000000009 1 0
0.1250000000000003 1 0
1 5 0 4
36
37
38
39
0.2330906798280694 0.2161751892928564 0
0.2873687837114091 0.2476953151035819 0
0.3416468875947487 0.2792154409143076 0
0.3959249914780884 0.3107355667250332 0
1 6 0 4
40
41
42
43
0.3957668137371882 0.3735018464626189 0
0.3413305321129484 0.4047480003894789 0
0.2868942504887086 0.4359941543163391 0
0.2324579688644689 0.4672403082431992 0
1 7 0 4
44
45
46
47
0.1781798649811293 0.4357201824324736 0
0.1783380427220294 0.3729539026948878 0
0.1784962204629295 0.3101876229573021 0
0.1786543982038297 0.2474213432197164 0
2 2 0 6
48
49
50
51
52
53
0.2870524282296088 0.3732278745787533 0
0.2329325020871693 0.278941469030442 0
0.232616146605369 0.4044740285056134 0
0.3414887098538485 0.3419817206518933 0
0.2327743243462692 0.3417077487680277 0
0.287210605970509 0.3104615948411676 0
2 3 0 101
54
55
56
57
58
59
60
61
62
63
64
65
66
67
68
69
70
71
72
73
74
75
76
77
78
79
80
81
82
83
84
85
86
87
88
89
90
91
92
93
94
95
96
97
98
99
100
101
102
103
104
105
106
107
108
109
110
111
112
113
114
115
116
117
118
119
120
121
122
123
124
125
126
127
128
129
130
131
132
133
134
135
136
137
138
139
140
141
142
143
144
145
146
147
148
149
150
151
152
153
154
0.4508830659020941 0.4076707328954005 0
0.2894937491896751 0.5009842895721649 0
0.5085456115927802 0.374547158412296 0
0.5089731611607681 0.4455347409331493 0
0.6799323002840556 0.8889322353590395 0
0.5730821738641715 0.4084166492879215 0
0.5723300789110937 0.4837331513856309 0
0.441625460967904 0.8940625494914674 0
0.5018573067891399 0.5215413486387203 0
0.6470150229720526 0.4492836745470364 0
0.6350941771252077 0.5383552384140239 0
0.6424442931287888 0.3617218712360863 0
0.5067780863443694 0.3072548883853999 0
0.3960831692189885 0.2479692869874475 0
0.8785844796814855 0.6813564492347083 0
0.09169879208129078 0.6805603967249906 0
0.7272114748214532 0.4075984758517813 0
0.7180716830445375 0.3069475523432589 0
0.2837177730853818 0.1800941510346245 0
0.5549934054951704 0.09912403516087143 0
0.8124999999999993 0.1082531754730551 0
0.190038832060983 0.878093898630415 0
0.6305531794598417 0.2775052944576355 0
0.8144162077268624 0.3549554118310714 0
0.8023162382148011 0.4503528215122874 0
0.130747425686417 0.2083412610644835 0
0.1236519383185893 0.1520444703707357 0
0.1313109363908328 0.335175382337605 0
0.1301427311125679 0.4621310192514415 0
0.1029545275851755 0.5215678432172688 0
0.180864628816745 0.5693035150438647 0
0.7099963321450162 0.203361320630371 0
0.1770889396033413 0.09142282559747045 0
0.5612029560144514 0.8956772006852607 0
0.5015400103820926 0.7973113420886087 0
0.3965770766127173 0.7907350851651718 0
0.4466519256152114 0.7041424796531914 0
0.3520517071937679 0.6973217093962782 0
0.551564541428148 0.7041243661156459 0
0.3953035673357932 0.6211291907477746 0
0.314266499667924 0.6177392340354694 0
0.2628084151024748 0.6966051739795847 0
0.3178070310983121 0.8762149987845529 0
0.4967434696491193 0.6088607272881983 0
0.6129514716428467 0.7930173798719956 0
0.6569943573651236 0.6955873590654901 0
0.7217650597135276 0.778891479771104 0
0.8047501195215159 0.8752729069674455 0
0.7583189729307698 0.6856284417068643 0
0.4454682027375991 0.09513151600142666 0
0.5003375800788032 0.1981493750809064 0
0.6000934605783544 0.6179238714628019 0
0.89522513897997 0.5643350896180502 0
0.09197723870180713 0.8064996490832106 0
0.3438290361984143 0.0880781457080364 0
0.3507793748224812 0.5467962778084084 0
0.2525827823204768 0.8016519271938745 0
0.6730741952194463 0.1002752348346319 0
0.8164652370656507 0.2354297378928903 0
0.3954531465645997 0.4370215867713533 0
0.3411723543720482 0.4675142801270646 0
0.898778105403013 0.8062824739747423 0
0.2361385844635724 0.5307918435436613 0
0.4503612731023281 0.2794894127981732 0
0.9060960726656513 0.305821763783326 0
0.2260410556333906 0.1501569338991133 0
0.3418050653356488 0.216449161176722 0
0.6948713591841653 0.6091882191395425 0
0.7320070709675564 0.5144878196634723 0
0.430341338845011 0.5451807949970473 0
0.4021815237251077 0.1749053395477245 0
0.12421811657959 0.2786674971465765 0
0.1239017610977898 0.404200056621748 0
0.8905535790424954 0.4399790475228494 0
0.449492219436736 0.47795873006601 0
0.5700819077153613 0.3311978901113082 0
0.1782892478158732 0.7524672317654495 0
0.6046737990500823 0.1893594565088211 0
0.9085671223115044 0.1744877717711681 0
0.179772176611573 0.6500331320870345 0
0.8169997978506833 0.7538527822821642 0
0.3934476868081752 0.4948943339539768 0
0.1222880087946663 0.6089429538583785 0
0.05115713682416356 0.4354000715661476 0
0.05609954321994015 0.3133748130628964 0
0.898418005049033 0.9045810859410581 0
0.05914496192230273 0.1903672468382555 0
0.263946061114451 0.09509752378779368 0
0.07621002372395386 0.08249817873774895 0
0.795804736242355 0.5973973775463084 0
0.09150635094610998 0.9084936490538902 0
0.244526635045703 0.6034816439620592 0
0.5624849105296916 0.2606933809088142 0
0.5629810173961258 0.5518453882304374 0
0.2870409686378712 0.5599586577843526 0
0.05569313061460057 0.5754584554679407 0
0.9192134244623007 0.08154818944884457 0
0.8177372528997018 0.525203058820612 0
0.3367562655449613 0.155267080209304 0
0.4372408865313069 0.2251283536035629 0
0.3188250657261015 0.7689615310109419 0
$EndNodes
$Elements
6 306 1 306
1 1 1 8
1 1 8 
2 8 9 
3 9 10 
4 10 11 
5 11 12 
6 12 13 
7 13 14 
8 14 2 
1 2 1 8
9 3 15 
10 15 16 
11 16 17 
12 17 18 
13 18 19 
14 19 20 
15 20 21 
16 21 1 
1 3 1 8
17 2 22 
18 22 23 
19 23 24 
20 24 25 
21 25 26 
22 26 27 
23 27 28 
24 28 4 
1 4 1 8
25 4 29 
26 29 30 
27 30 31 
28 31 32 
29 32 33 
30 33 34 
31 34 35 
32 35 3 
2 2 2 25
33 5 36 47 
34 6 40 39 
35 44 43 7 
36 46 52 45 
37 50 52 48 
38 41 51 40 
39 42 50 48 
40 45 50 44 
41 49 52 46 
42 44 50 43 
43 36 49 47 
44 42 48 41 
45 43 50 42 
46 47 49 46 
47 49 53 52 
48 51 53 38 
49 37 49 36 
50 38 53 37 
51 39 51 38 
52 45 52 50 
53 52 53 48 
54 40 51 39 
55 48 51 41 
56 37 53 49 
57 48 53 51 
2 3 2 249
58 70 122 63 
59 85 111 74 
60 68 143 106 
61 30 101 29 
62 66 117 104 
63 102 143 68 
64 71 112 77 
65 141 152 72 
66 137 138 126 
67 85 131 111 
68 63 122 64 
69 85 112 71 
70 75 96 34 
71 74 112 85 
72 138 140 125 
73 119 141 72 
74 118 132 23 
75 118 127 77 
76 112 132 118 
77 101 139 29 
78 75 130 110 
79 9 86 8 
80 108 141 9 
81 9 141 86 
82 73 104 103 
83 74 111 13 
84 58 101 30 
85 107 130 75 
86 69 149 136 
87 76 131 85 
88 92 98 88 
89 104 146 66 
90 77 127 78 
91 75 110 96 
92 18 137 83 
93 34 96 33 
94 87 98 58 
95 88 98 87 
96 73 103 11 
97 31 87 58 
98 78 122 70 
99 106 151 127 
100 104 153 124 
101 91 94 93 
102 91 93 90 
103 97 123 62 
104 92 99 98 
105 55 114 109 
106 61 88 87 
107 117 153 104 
108 80 142 86 
109 127 151 78 
110 89 90 88 
111 10 108 9 
112 17 69 16 
113 12 73 11 
114 4 139 28 
115 89 91 90 
116 104 124 103 
117 108 152 141 
118 83 149 18 
119 11 103 10 
120 61 87 32 
121 61 89 88 
122 90 97 92 
123 97 105 92 
124 64 121 105 
125 93 97 90 
126 68 106 26 
127 33 61 32 
128 93 123 97 
129 92 105 99 
130 111 131 73 
131 29 139 4 
132 98 100 58 
133 69 107 16 
134 90 92 88 
135 33 96 61 
136 31 58 30 
137 27 68 26 
138 86 142 8 
139 94 109 93 
140 112 118 77 
141 106 127 25 
142 65 129 76 
143 100 101 58 
144 14 74 13 
145 103 108 10 
146 26 106 25 
147 32 87 31 
148 105 121 99 
149 35 75 34 
150 62 147 97 
151 12 111 73 
152 24 127 118 
153 17 149 69 
154 23 132 22 
155 16 107 15 
156 13 111 12 
157 99 102 100 
158 68 134 102 
159 99 100 98 
160 61 96 89 
161 28 115 27 
162 27 115 68 
163 91 95 94 
164 103 124 108 
165 124 152 108 
166 19 138 137 
167 65 76 71 
168 95 145 94 
169 129 146 76 
170 20 140 138 
171 6 54 40 
172 97 147 105 
173 114 135 109 
174 64 122 121 
175 77 78 70 
176 40 113 41 
177 41 114 42 
178 42 55 43 
179 60 62 57 
180 76 85 71 
181 54 128 113 
182 24 118 23 
183 3 144 35 
184 15 144 3 
185 99 121 102 
186 57 128 54 
187 133 145 95 
188 73 131 104 
189 140 142 80 
190 6 56 54 
191 59 65 63 
192 96 154 89 
193 100 134 101 
194 63 64 60 
195 95 154 110 
196 54 113 40 
197 38 67 39 
198 14 150 74 
199 43 116 7 
200 109 123 93 
201 59 63 60 
202 65 71 70 
203 71 77 70 
204 110 154 96 
205 7 84 83 
206 113 114 41 
207 59 60 57 
208 37 120 38 
209 65 70 63 
210 109 148 55 
211 42 114 55 
212 110 130 95 
213 56 57 54 
214 39 117 6 
215 56 59 57 
216 143 151 106 
217 36 72 37 
218 105 147 64 
219 6 66 56 
220 69 130 107 
221 25 127 24 
222 74 132 112 
223 19 137 18 
224 20 138 19 
225 21 140 20 
226 28 139 115 
227 62 128 57 
228 101 134 115 
229 18 149 17 
230 91 154 95 
231 55 116 43 
232 7 116 84 
233 5 119 36 
234 47 79 5 
235 46 125 47 
236 45 81 46 
237 44 126 45 
238 7 82 44 
239 107 144 15 
240 59 129 65 
241 80 86 5 
242 74 150 132 
243 35 144 75 
244 64 147 60 
245 123 128 62 
246 75 144 107 
247 115 134 68 
248 7 83 82 
249 66 146 129 
250 84 145 133 
251 102 134 100 
252 6 117 66 
253 38 120 67 
254 109 135 123 
255 67 117 39 
256 1 142 21 
257 8 142 1 
258 72 120 37 
259 130 133 95 
260 115 139 101 
261 56 129 59 
262 94 148 109 
263 79 80 5 
264 120 124 67 
265 89 154 91 
266 2 150 14 
267 22 150 2 
268 86 119 5 
269 66 129 56 
270 36 119 72 
271 69 133 130 
272 128 135 113 
273 55 148 116 
274 131 146 104 
275 21 142 140 
276 113 135 114 
277 122 143 121 
278 60 147 62 
279 84 136 83 
280 47 125 79 
281 81 125 46 
282 45 126 81 
283 82 126 44 
284 79 140 80 
285 82 137 126 
286 81 138 125 
287 133 136 84 
288 121 143 102 
289 123 135 128 
290 116 148 145 
291 86 141 119 
292 78 151 122 
293 76 146 131 
294 124 153 67 
295 116 145 84 
296 120 152 124 
297 136 149 83 
298 69 136 133 
299 67 153 117 
300 72 152 120 
301 132 150 22 
302 145 148 94 
303 122 151 143 
304 125 140 79 
305 126 138 81 
306 83 137 82 
$EndElements
