$MeshFormat
4.1 0 8
$EndMeshFormat
$PhysicalNames
3
1 101 "outer_boundary"
2 1 "material_1"
2 2 "material_2"
$EndPhysicalNames
$Entities
8 8 2 0
1 0 0 0 0 
2 1 0 0 0 
3 0 1 0 0 
4 1 1 0 0 
5 0.8400100388917643 0.3611839258947173 0 0 
6 0.6443729274438074 0.562351261263652 0 0 
7 0.4432055920748726 0.3667141498156951 0 0 
8 0.6388427035228296 0.1655468144467603 0 0 
1 -9.999999994736442e-08 -1e-07 -1e-07 1.0000001 1e-07 1e-07 1 101 2 1 -2 
2 -1e-07 -9.999999994736442e-08 -1e-07 1e-07 1.0000001 1e-07 1 101 2 3 -1 
3 0.9999999000000001 -9.999999994736442e-08 -1e-07 1.0000001 1.0000001 1e-07 1 101 2 2 -4 
4 -9.999999994736442e-08 0.9999999000000001 -1e-07 1.0000001 1.0000001 1e-07 1 101 2 4 -3 
5 0.6443728274438074 0.3611838258947173 -1e-07 0.8400101388917642 0.5623513612636519 1e-07 0 2 5 -6 
6 0.4432054920748726 0.3667140498156951 -1e-07 0.6443730274438073 0.5623513612636519 1e-07 0 2 6 -7 
7 0.4432054920748726 0.1655467144467603 -1e-07 0.6388428035228295 0.3667142498156951 1e-07 0 2 7 -8 
8 0.6388426035228296 0.1655467144467603 -1e-07 0.8400101388917642 0.3611840258947173 1e-07 0 2 8 -5 
2 0.4432054920748726 0.1655467144467603 -1e-07 0.8400101388917642 0.5623513612636519 1e-07 1 2 4 5 6 7 8 
3 -9.999999994736442e-08 -9.999999994736442e-08 -1e-07 1.0000001 1.0000001 1e-07 1 1 8 1 3 4 2 -5 -8 -7 -6 
$EndEntities
$Nodes
18 270 1 270
0 1 0 1
1
0 0 0
0 2 0 1
2
1 0 0
0 3 0 1
3
0 1 0
0 4 0 1
4
1 1 0
0 5 0 1
5
0.8400100388917643 0.3611839258947173 0
0 6 0 1
6
0.6443729274438074 0.562351261263652 0
0 7 0 1
7
0.4432055920748726 0.3667141498156951 0
0 8 0 1
8
0.6388427035228296 0.1655468144467603 0
1 1 0 9
9
10
11
12
13
14
15
16
17
0.09999999999999996 0 0
0.1999999999999999 0 0
0.3000000000000001 0 0
0.4000000000000004 0 0
0.5000000000000003 0 0
0.5999999999999999 0 0
0.6999999999999995 0 0
0.7999999999999992 0 0
0.899999999999999 0 0
1 2 0 9
18
19
20
21
22
23
24
25
26
0 0.9 0
0 0.8 0
0 0.7 0
0 0.5999999999999996 0
0 0.4999999999999997 0
0 0.4000000000000001 0
0 0.3000000000000005 0
0 0.2000000000000008 0
0 0.100000000000001 0
1 3 0 9
27
28
29
30
31
32
33
34
35
1 0.09999999999999996 0
1 0.1999999999999999 0
1 0.3000000000000001 0
1 0.4000000000000004 0
1 0.5000000000000003 0
1 0.5999999999999999 0
1 0.6999999999999995 0
1 0.7999999999999992 0
1 0.899999999999999 0
1 4 0 9
36
37
38
39
40
41
42
43
44
0.9 1 0
0.8 1 0
0.7 1 0
0.5999999999999996 1 0
0.4999999999999997 1 0
0.4000000000000001 1 0
0.3000000000000005 1 0
0.2000000000000008 1 0
0.100000000000001 1 0
1 5 0 5
45
46
47
48
49
0.8074038536504382 0.394711815122873 0
0.7747976684091121 0.4282397043510286 0
0.742191483167786 0.4617675935791845 0
0.7095852979264597 0.4952954828073403 0
0.6769791126851336 0.5288233720354961 0
1 6 0 5
50
51
52
53
54
0.6108450382156516 0.5297450760223259 0
0.577317148987496 0.4971388907809998 0
0.5437892597593402 0.4645327055396737 0
0.5102613705311844 0.4319265202983474 0
0.4767334813030285 0.3993203350570212 0
1 7 0 5
55
56
57
58
59
0.4758117773161987 0.3331862605875393 0
0.5084179625575248 0.2996583713593837 0
0.5410241477988509 0.2661304821312279 0
0.5736303330401772 0.232602592903072 0
0.6062365182815034 0.1990747036749162 0
1 8 0 5
60
61
62
63
64
0.6723705927509853 0.1981529996880864 0
0.705898481979141 0.2307591849294125 0
0.7394263712072967 0.2633653701707386 0
0.7729542604354526 0.2959715554120649 0
0.8064821496636084 0.3285777406533911 0
2 2 0 34
65
66
67
68
69
70
71
72
73
74
75
76
77
78
79
80
81
82
83
84
85
86
87
88
89
90
91
92
93
94
95
96
97
98
0.6972770855135442 0.4501735880326062 0
0.5873153294246725 0.2792435600028874 0
0.5605033189986334 0.4152176352621088 0
0.7298732464842368 0.3125471727470707 0
0.7625721172539361 0.3840078236265519 0
0.5249739729419213 0.3435345037400661 0
0.6231598423438849 0.4857570138800911 0
0.6615112536871083 0.2419370208175256 0
0.7296139151156438 0.416874144760271 0
0.6842161492052994 0.4052900432857864 0
0.6439284054246847 0.4411677023113795 0
0.6387803791265623 0.3938181839747933 0
0.6698954045133053 0.3607164362696057 0
0.6263909594774787 0.3494632214141962 0
0.658653653181698 0.31528856539307 0
0.5951945261366484 0.3804376869050514 0
0.5801465589984468 0.3355042348405214 0
0.7188399110265655 0.3639313307657039 0
0.5928629956743402 0.45367476504537 0
0.6906123972177768 0.2817307474452686 0
0.6180472021007093 0.2420510355226045 0
0.6660636289431235 0.4850710092951418 0
0.762873910453769 0.340467164919909 0
0.521585099475118 0.3885145362595014 0
0.5483755943442833 0.3048142304148173 0
0.6192962316473516 0.3116792528478056 0
0.5564806953101535 0.3726417194014498 0
0.6392393445432194 0.2786550303381937 0
0.6079005333456661 0.4178776433834764 0
0.6949491168304952 0.3293212354707096 0
0.6395174376707277 0.2139603170699647 0
0.6436981932959093 0.5139377586404477 0
0.7915965362685599 0.3618586600426153 0
0.491619094698077 0.366039415667797 0
2 3 0 172
99
100
101
102
103
104
105
106
107
108
109
110
111
112
113
114
115
116
117
118
119
120
121
122
123
124
125
126
127
128
129
130
131
132
133
134
135
136
137
138
139
140
141
142
143
144
145
146
147
148
149
150
151
152
153
154
155
156
157
158
159
160
161
162
163
164
165
166
167
168
169
170
171
172
173
174
175
176
177
178
179
180
181
182
183
184
185
186
187
188
189
190
191
192
193
194
195
196
197
198
199
200
201
202
203
204
205
206
207
208
209
210
211
212
213
214
215
216
217
218
219
220
221
222
223
224
225
226
227
228
229
230
231
232
233
234
235
236
237
238
239
240
241
242
243
244
245
246
247
248
249
250
251
252
253
254
255
256
257
258
259
260
261
262
263
264
265
266
267
268
269
270
0.4976040305387284 0.4808727964854483 0
0.597748190383687 0.5748097270463377 0
0.3500000000000003 0.9133974596215565 0
0.635082911600328 0.6079099179076197 0
0.5820447572112032 0.6235886880788115 0
0.4309893750465585 0.3199965179687958 0
0.3974683462204807 0.3582778967200113 0
0.0767621249960585 0.5460517422076839 0
0.3818842107786148 0.3019759263159268 0
0.3398086473439415 0.3444463634014438 0
0.3605591471520669 0.4026434829628051 0
0.6223715220598861 0.6624554435637178 0
0.7272785458947504 0.5515602624816152 0
0.5668167808751192 0.6795647025670974 0
0.5250442581025686 0.6342364992465198 0
0.3220002107987154 0.285177346809026 0
0.7949276220852095 0.4737132017597731 0
0.5210070321294601 0.2140834070301267 0
0.3705179933630507 0.2394277677492269 0
0.9157205215052588 0.7465596796524185 0
0.6106366489018025 0.7210439987926963 0
0.2962895494799389 0.3895761260836667 0
0.3175390920243654 0.449007568927844 0
0.5070505834261444 0.6961327500791135 0
0.462429773775866 0.6463834301854273 0
0.7552736705707498 0.220803797600578 0
0.8227897333605669 0.2787273347483725 0
0.08018533421026963 0.7509746769232164 0
0.676127951047235 0.6460368204595781 0
0.7563881670572208 0.9101950278412324 0
0.3042602287405853 0.2191676577314163 0
0.2536679133081295 0.2688013873476289 0
0.4421384491275013 0.7135249691308397 0
0.3948425075105079 0.6624036115484475 0
0.491313737680025 0.7640611248862992 0
0.4174520083989997 0.585261924395037 0
0.3456806531589664 0.609263901400417 0
0.3225283749238771 0.6794371365566002 0
0.5893941628214991 0.1529409070552966 0
0.2491166804103937 0.4376764040540306 0
0.231922026227481 0.2009087006146979 0
0.8539855955615412 0.4104591974417126 0
0.67908310321274 0.1482797776428951 0
0.2725283285101709 0.6222065136709478 0
0.9211469069186944 0.1428762957189424 0
0.08293359600843986 0.3527072688025685 0
0.3812076366480566 0.4615962490635516 0
0.4469312627054255 0.08409263915192311 0
0.9240651624073506 0.5609730848192042 0
0.2457694356045979 0.6964461613205506 0
0.5517823803022808 0.9094331136968831 0
0.2990474305992961 0.7591620686126521 0
0.1508743141206074 0.9249636566848529 0
0.425811361296613 0.7897446096964118 0
0.07831400293770047 0.1484667967233829 0
0.3576696401049939 0.1722673759465544 0
0.4226191011525692 0.1998788796474741 0
0.2217023849939626 0.776367995875781 0
0.2282711640634511 0.3730500682699709 0
0.6326881527488365 0.1185326821763912 0
0.1823653016267099 0.428363645530992 0
0.20407386908036 0.4993778297664364 0
0.1763455178366674 0.2526485774009237 0
0.1926242738054973 0.6361915650924768 0
0.8924335407026835 0.3721348709228863 0
0.5747728382458102 0.100734626452899 0
0.9042532801208567 0.4275268829959088 0
0.3050538734570994 0.5592970092174105 0
0.8716023621575022 0.3144590536843819 0
0.8722473139952158 0.2453201510693301 0
0.5376917466089913 0.1528993130543932 0
0.8066432873840853 0.2118901775701766 0
0.8541216364106001 0.4710766458862988 0
0.2520691634858864 0.07543087111596142 0
0.4317317519494609 0.4120532462432117 0
0.4789050682310155 0.8432448362418634 0
0.5524565330300881 0.8180672914161692 0
0.6200704816484555 0.8614250579431619 0
0.7594630707297418 0.07536716145725042 0
0.9197096664991959 0.6517957792186935 0
0.8401408267887281 0.6984319561493428 0
0.83447321881597 0.7837936969929244 0
0.7588900656194288 0.7320111221533288 0
0.7758894242226604 0.6510280446232038 0
0.8454092410465424 0.601533567298711 0
0.9066215764021277 0.840757894188935 0
0.8474584672887751 0.08514500332527564 0
0.4398115513971645 0.4708268818904127 0
0.4025001279406537 0.517062474212834 0
0.4603229050595576 0.5268391465140307 0
0.5158509431439544 0.5347020023377437 0
0.4873687709866911 0.5847074865150459 0
0.2759286417335011 0.8410071850627762 0
0.06945018264995695 0.4509236666409903 0
0.3569645351992692 0.08310441577262173 0
0.7719006635578992 0.5902475645980126 0
0.8140109937092027 0.5344911603492987 0
0.09596853606129718 0.6452379379487114 0
0.8513006309108716 0.9197040279555586 0
0.5431127374392002 0.5808219164115169 0
0.7593374434965472 0.8185265348736328 0
0.6911336177157213 0.7804980627342744 0
0.7964538733400288 0.1463725953255187 0
0.08284967882014488 0.2565001468927463 0
0.1532115985476398 0.08741664916501007 0
0.425692130583381 0.2611090624161353 0
0.4492000838294196 0.9210804845261739 0
0.6897642234197148 0.08834987247737719 0
0.6979578977402594 0.7115989000975464 0
0.09256981109483292 0.850268031149751 0
0.6831964375998467 0.5823171556636236 0
0.7549243943539763 0.5067693229327521 0
0.4969032922517657 0.2562853952949831 0
0.8170472752233802 0.4356401129123372 0
0.163617405552014 0.7171203041471526 0
0.7794174645916303 0.2541516471003861 0
0.5655919585763263 0.1903201847435609 0
0.4759554373707715 0.1648170863259856 0
0.6215041802794817 0.7916318300170141 0
0.2290985001532633 0.5642503448226058 0
0.5582964106987768 0.7450836162930649 0
0.3735156772451628 0.7394494740339124 0
0.2868910446199282 0.14902111508648 0
0.2500000000000007 0.9262513539587752 0
0.356469360886299 0.8171947157706748 0
0.5642595509470507 0.536414174482408 0
0.7173723221045529 0.1854200885018959 0
0.7256669035231554 0.6143264757745494 0
0.3410187212941009 0.5065032463066269 0
0.2741959633185514 0.3288093759577581 0
0.4641113015642692 0.2891885843310857 0
0.1554350532568555 0.1805717396153476 0
0.9357269678286935 0.3298755272900545 0
0.6890070663981062 0.8490836433407005 0
0.6678719164952394 0.9252675728299204 0
0.1583732189123891 0.3551471655906095 0
0.1553404546297736 0.5653166066482311 0
0.2740418127449382 0.4972849604119278 0
0.5143916461614518 0.09052653407933214 0
0.470628859316517 0.4394798982619987 0
0.919389248420003 0.4878651528477363 0
0.4096852603287555 0.1357406173360544 0
0.1894216034298939 0.8527269517423526 0
0.9337210748414937 0.06560425980884366 0
0.9153275752224459 0.2058325942883485 0
0.7345190906479112 0.1342477026482031 0
0.8563551943253759 0.1693113629694811 0
0.9277974678523114 0.9232641153287567 0
0.1494993078561946 0.7894915919676507 0
0.6328319231790595 0.05367191093952289 0
0.2041137151397884 0.3124256941196832 0
0.07320508075688792 0.07320508075688814 0
0.362341076849964 0.555477711106465 0
0.07320508075688797 0.9267949192431122 0
0.1352469806993228 0.4826710432630918 0
0.9377396565808158 0.3940682555743076 0
0.5509985920377122 0.04061553949079139 0
0.8209413383309536 0.8532032440204089 0
0.5404440084356278 0.5016487024207146 0
0.4631795289090986 0.2281449811269074 0
0.8705808223741479 0.5284056978697396 0
0.2115132787137883 0.1377967951919132 0
0.6517846271233978 0.6981457189107306 0
0.7662057664113063 0.5465075592834188 0
0.4132702587317151 0.8586344994205135 0
0.9289093188810651 0.2737163848759523 0
0.7215081410109412 0.6663910564361053 0
0.1381935386550379 0.3035147912109041 0
0.1242858348742608 0.4088972109057307 0
0.7620524488094655 0.1797468723292744 0
0.651829115867806 0.7495934316401145 0
0.9522764370243351 0.4418920582835907 0
$EndNodes
$Elements
6 538 1 538
1 1 1 10
1 1 9 
2 9 10 
3 10 11 
4 11 12 
5 12 13 
6 13 14 
7 14 15 
8 15 16 
9 16 17 
10 17 2 
1 2 1 10
11 3 18 
12 18 19 
13 19 20 
14 20 21 
15 21 22 
16 22 23 
17 23 24 
18 24 25 
19 25 26 
20 26 1 
1 3 1 10
21 2 27 
22 27 28 
23 28 29 
24 29 30 
25 30 31 
26 31 32 
27 32 33 
28 33 34 
29 34 35 
30 35 4 
1 4 1 10
31 4 36 
32 36 37 
33 37 38 
34 38 39 
35 39 40 
36 40 41 
37 41 42 
38 42 43 
39 43 44 
40 44 3 
2 2 2 90
41 71 83 75 
42 68 87 82 
43 83 93 75 
44 82 94 68 
45 70 89 81 
46 81 89 66 
47 66 90 81 
48 81 91 70 
49 85 92 66 
50 66 92 90 
51 82 87 69 
52 80 93 67 
53 84 94 79 
54 75 86 71 
55 67 91 80 
56 79 92 84 
57 67 93 83 
58 68 94 84 
59 46 73 69 
60 77 82 74 
61 78 79 77 
62 48 65 47 
63 76 77 74 
64 47 73 46 
65 65 73 47 
66 67 83 52 
67 68 84 62 
68 75 76 74 
69 58 66 57 
70 80 81 78 
71 61 84 72 
72 52 83 51 
73 62 84 61 
74 65 74 73 
75 46 69 45 
76 76 78 77 
77 74 82 73 
78 56 70 55 
79 73 82 69 
80 51 83 71 
81 53 67 52 
82 63 68 62 
83 76 80 78 
84 51 71 50 
85 61 72 60 
86 65 75 74 
87 84 92 72 
88 49 86 48 
89 59 85 58 
90 65 86 75 
91 54 88 53 
92 64 87 63 
93 88 91 67 
94 66 89 57 
95 56 89 70 
96 81 90 78 
97 53 88 67 
98 63 87 68 
99 58 85 66 
100 48 86 65 
101 77 94 82 
102 75 93 76 
103 50 96 6 
104 60 95 8 
105 45 97 5 
106 5 97 64 
107 7 98 54 
108 55 98 7 
109 8 95 59 
110 6 96 49 
111 57 89 56 
112 78 90 79 
113 72 92 85 
114 80 91 81 
115 70 91 88 
116 79 94 77 
117 76 93 80 
118 49 96 86 
119 64 97 87 
120 59 95 85 
121 54 98 88 
122 71 96 50 
123 69 97 45 
124 72 95 60 
125 70 98 55 
126 90 92 79 
127 88 98 70 
128 87 97 69 
129 86 96 71 
130 85 95 72 
2 3 2 408
131 146 237 216 
132 176 233 149 
133 105 173 109 
134 182 183 179 
135 187 188 134 
136 109 173 145 
137 216 240 146 
138 149 233 39 
139 111 226 209 
140 171 195 115 
141 102 209 127 
142 188 190 134 
143 178 183 147 
144 149 205 174 
145 182 194 183 
146 179 183 178 
147 7 173 105 
148 194 226 111 
149 170 245 168 
150 174 175 149 
151 32 178 147 
152 220 223 150 
153 173 186 145 
154 64 167 5 
155 168 245 243 
156 6 209 102 
157 134 190 123 
158 123 190 113 
159 125 167 64 
160 196 235 162 
161 40 205 149 
162 11 193 172 
163 124 268 170 
164 152 223 220 
165 99 188 186 
166 193 221 172 
167 169 215 116 
168 111 262 194 
169 153 230 202 
170 195 210 115 
171 162 213 196 
172 155 240 216 
173 118 179 178 
174 99 189 188 
175 202 230 161 
176 175 176 149 
177 217 219 119 
178 181 182 179 
179 144 192 23 
180 170 214 124 
181 35 184 34 
182 190 198 113 
183 153 202 25 
184 107 204 104 
185 106 235 196 
186 209 226 127 
187 181 265 182 
188 13 146 12 
189 32 147 31 
190 154 221 193 
191 175 219 217 
192 106 196 21 
193 207 265 181 
194 101 222 191 
195 118 178 33 
196 28 143 27 
197 115 212 171 
198 116 216 169 
199 28 264 243 
200 211 258 116 
201 16 177 15 
202 180 181 179 
203 146 193 12 
204 144 267 192 
205 22 192 106 
206 16 185 177 
207 36 246 4 
208 134 251 187 
209 200 232 217 
210 143 245 185 
211 8 158 141 
212 22 106 21 
213 33 178 32 
214 183 259 147 
215 195 259 183 
216 208 247 241 
217 38 128 37 
218 170 268 201 
219 185 201 177 
220 199 200 181 
221 177 206 15 
222 34 118 33 
223 40 149 39 
224 103 198 100 
225 27 242 2 
226 42 101 41 
227 24 144 23 
228 208 241 151 
229 11 172 10 
230 118 180 179 
231 128 197 37 
232 34 184 118 
233 20 196 126 
234 26 153 25 
235 30 254 231 
236 196 213 126 
237 117 204 107 
238 13 237 146 
239 23 192 22 
240 21 196 20 
241 4 246 35 
242 191 223 101 
243 155 204 117 
244 154 155 117 
245 109 145 121 
246 113 198 103 
247 42 222 101 
248 17 185 16 
249 12 193 11 
250 132 134 123 
251 194 195 183 
252 29 264 28 
253 2 242 17 
254 20 126 19 
255 171 259 195 
256 180 199 181 
257 116 258 216 
258 186 188 187 
259 172 203 10 
260 24 202 144 
261 125 168 167 
262 142 166 135 
263 37 197 36 
264 44 151 43 
265 217 232 176 
266 25 202 24 
267 150 223 191 
268 10 203 9 
269 35 246 184 
270 41 205 40 
271 133 219 175 
272 147 239 31 
273 189 198 190 
274 200 207 181 
275 195 262 210 
276 19 208 18 
277 158 206 141 
278 151 222 43 
279 253 267 159 
280 101 205 41 
281 175 217 176 
282 132 135 134 
283 39 233 38 
284 125 170 168 
285 133 175 174 
286 204 229 104 
287 186 238 99 
288 160 236 218 
289 243 245 143 
290 126 208 19 
291 189 190 188 
292 186 187 145 
293 229 258 211 
294 118 184 180 
295 30 231 29 
296 52 99 53 
297 185 242 143 
298 138 160 159 
299 6 100 50 
300 193 240 154 
301 173 238 186 
302 136 150 148 
303 150 191 156 
304 185 245 201 
305 112 113 103 
306 218 236 166 
307 28 243 143 
308 143 242 27 
309 203 230 153 
310 148 162 142 
311 136 142 135 
312 199 256 128 
313 1 250 26 
314 9 250 1 
315 54 173 7 
316 206 248 15 
317 136 220 150 
318 109 121 120 
319 122 123 113 
320 7 104 55 
321 198 224 100 
322 131 132 123 
323 201 245 170 
324 189 224 198 
325 150 156 148 
326 99 257 189 
327 160 253 159 
328 136 148 142 
329 3 252 44 
330 18 252 3 
331 50 224 51 
332 132 136 135 
333 105 109 108 
334 56 211 57 
335 146 240 193 
336 122 133 131 
337 128 256 197 
338 121 138 120 
339 114 130 129 
340 218 235 160 
341 145 227 121 
342 48 111 49 
343 57 116 58 
344 6 102 100 
345 49 209 6 
346 138 157 120 
347 162 218 142 
348 112 122 113 
349 122 131 123 
350 128 232 199 
351 194 262 195 
352 129 154 117 
353 182 226 194 
354 102 127 110 
355 151 241 222 
356 114 117 107 
357 43 222 42 
358 7 105 104 
359 47 210 48 
360 133 152 131 
361 130 161 139 
362 137 169 164 
363 133 174 152 
364 58 215 59 
365 110 112 103 
366 138 159 157 
367 55 229 56 
368 142 218 166 
369 102 103 100 
370 164 248 158 
371 130 139 129 
372 102 110 103 
373 46 115 47 
374 61 124 62 
375 110 119 112 
376 62 214 63 
377 204 258 229 
378 63 125 64 
379 192 267 253 
380 192 253 106 
381 109 120 108 
382 38 233 128 
383 166 251 135 
384 148 213 162 
385 45 212 46 
386 165 171 140 
387 138 236 160 
388 100 224 50 
389 197 256 184 
390 59 137 8 
391 114 129 117 
392 5 140 45 
393 164 255 248 
394 227 236 121 
395 156 213 148 
396 17 242 185 
397 132 220 136 
398 157 249 228 
399 125 214 170 
400 228 249 130 
401 60 225 61 
402 15 248 14 
403 131 220 132 
404 187 227 145 
405 197 246 36 
406 105 108 107 
407 201 244 177 
408 235 253 160 
409 105 107 104 
410 222 241 191 
411 137 215 169 
412 108 114 107 
413 206 244 141 
414 122 219 133 
415 99 238 53 
416 207 261 127 
417 14 255 13 
418 199 232 200 
419 8 141 60 
420 171 212 140 
421 152 220 131 
422 184 256 180 
423 114 228 130 
424 129 221 154 
425 104 229 55 
426 157 228 120 
427 112 219 122 
428 52 257 99 
429 135 251 134 
430 53 238 54 
431 203 250 9 
432 54 238 173 
433 57 211 116 
434 56 229 211 
435 31 270 30 
436 139 221 129 
437 184 246 197 
438 119 219 112 
439 26 250 153 
440 161 266 202 
441 111 209 49 
442 5 167 163 
443 127 265 207 
444 154 240 155 
445 161 230 139 
446 153 250 203 
447 48 210 111 
448 224 257 51 
449 116 215 58 
450 128 233 232 
451 159 234 157 
452 162 235 218 
453 203 260 230 
454 208 252 18 
455 137 158 8 
456 168 264 167 
457 172 260 203 
458 120 228 108 
459 166 236 227 
460 101 263 205 
461 189 257 224 
462 5 163 140 
463 115 210 47 
464 13 255 237 
465 152 263 223 
466 156 247 213 
467 191 241 156 
468 202 266 144 
469 213 247 126 
470 44 252 151 
471 124 214 62 
472 59 215 137 
473 63 214 125 
474 108 228 114 
475 46 212 115 
476 121 236 138 
477 140 212 45 
478 137 164 158 
479 205 263 174 
480 61 225 124 
481 223 263 101 
482 119 269 217 
483 174 263 152 
484 151 252 208 
485 127 261 110 
486 126 247 208 
487 163 165 140 
488 130 249 161 
489 232 233 176 
490 169 237 164 
491 51 257 52 
492 227 251 166 
493 155 258 204 
494 158 248 206 
495 167 231 163 
496 165 239 171 
497 141 225 60 
498 177 244 206 
499 167 264 231 
500 180 256 199 
501 139 260 221 
502 200 269 207 
503 187 251 227 
504 217 269 200 
505 141 244 225 
506 110 261 119 
507 234 249 157 
508 221 260 172 
509 106 253 235 
510 239 270 31 
511 241 247 156 
512 216 258 155 
513 239 259 171 
514 234 266 249 
515 249 266 161 
516 230 260 139 
517 248 255 14 
518 237 255 164 
519 243 264 168 
520 231 264 29 
521 182 265 226 
522 201 268 244 
523 207 269 261 
524 226 265 127 
525 210 262 111 
526 163 254 165 
527 244 268 225 
528 144 266 234 
529 231 254 163 
530 225 268 124 
531 234 267 144 
532 159 267 234 
533 147 259 239 
534 165 270 239 
535 261 269 119 
536 254 270 165 
537 30 270 254 
538 216 237 169 
$EndElements
