$MeshFormat
4.1 0 8
$EndMeshFormat
$PhysicalNames
3
1 101 "outer_boundary"
2 1 "material_1"
2 2 "material_2"
$EndPhysicalNames
$Entities
7 7 2 0
1 0 0 0 0 
2 1 0 0 0 
3 0 1 0 0 
4 1 1 0 0 
5 0.1528105599099389 0.6075527004979078 0 0 
6 0.391237223508771 0.5616004277840078 0 0 
7 0.3118197272412228 0.7910601117571129 0 0 
1 -9.999999994736442e-08 -1e-07 -1e-07 1.0000001 1e-07 1e-07 1 101 2 1 -2 
2 -1e-07 -9.999999994736442e-08 -1e-07 1e-07 1.0000001 1e-07 1 101 2 3 -1 
3 0.9999999000000001 -9.999999994736442e-08 -1e-07 1.0000001 1.0000001 1e-07 1 101 2 2 -4 
4 -9.999999994736442e-08 0.9999999000000001 -1e-07 1.0000001 1.0000001 1e-07 1 101 2 4 -3 
5 0.1528104599099389 0.5616003277840078 -1e-07 0.391237323508771 0.6075528004979077 1e-07 0 2 5 -6 
6 0.3118196272412228 0.5616003277840078 -1e-07 0.391237323508771 0.7910602117571128 1e-07 0 2 6 -7 
7 0.1528104599099389 0.6075526004979078 -1e-07 0.3118198272412228 0.7910602117571128 1e-07 0 2 7 -5 
2 0.1528104599099389 0.5616003277840078 -1e-07 0.391237323508771 0.7910602117571128 1e-07 1 2 3 5 6 7 
3 -9.999999994736442e-08 -9.999999994736442e-08 -1e-07 1.0000001 1.0000001 1e-07 1 1 7 1 3 4 2 -5 -7 -6 
$EndEntities
$Nodes
16 220 1 220
0 1 0 1
1
0 0 0
0 2 0 1
2
1 0 0
0 3 0 1
3
0 1 0
0 4 0 1
4
1 1 0
0 5 0 1
5
0.1528105599099389 0.6075527004979078 0
0 6 0 1
6
0.391237223508771 0.5616004277840078 0
0 7 0 1
7
0.3118197272412228 0.7910601117571129 0
1 1 0 9
8
9
10
11
12
13
14
15
16
0.09999999999999996 0 0
0.1999999999999999 0 0
0.3000000000000001 0 0
0.4000000000000004 0 0
0.5000000000000003 0 0
0.5999999999999999 0 0
0.6999999999999995 0 0
0.7999999999999992 0 0
0.899999999999999 0 0
1 2 0 9
17
18
19
20
21
22
23
24
25
0 0.9 0
0 0.8 0
0 0.7 0
0 0.5999999999999996 0
0 0.4999999999999997 0
0 0.4000000000000001 0
0 0.3000000000000005 0
0 0.2000000000000008 0
0 0.100000000000001 0
1 3 0 9
26
27
28
29
30
31
32
33
34
1 0.09999999999999996 0
1 0.1999999999999999 0
1 0.3000000000000001 0
1 0.4000000000000004 0
1 0.5000000000000003 0
1 0.5999999999999999 0
1 0.6999999999999995 0
1 0.7999999999999992 0
1 0.899999999999999 0
1 4 0 9
35
36
37
38
39
40
41
42
43
0.9 1 0
0.8 1 0
0.7 1 0
0.5999999999999996 1 0
0.4999999999999997 1 0
0.4000000000000001 1 0
0.3000000000000005 1 0
0.2000000000000008 1 0
0.100000000000001 1 0
1 5 0 4
44
45
46
47
0.2004958926297054 0.5983622459551278 0
0.2481812253494718 0.5891717914123478 0
0.2958665580692383 0.5799813368695678 0
0.3435518907890048 0.5707908823267878 0
1 6 0 4
48
49
50
51
0.3753537242552614 0.6074923645786288 0
0.3594702250017517 0.6533843013732499 0
0.343586725748242 0.699276238167871 0
0.3277032264947324 0.7451681749624921 0
1 7 0 4
52
53
54
55
0.280017893774966 0.7543586295052718 0
0.2482160603087092 0.7176571472534308 0
0.2164142268424524 0.6809556650015897 0
0.1846123933761956 0.6442541827497487 0
2 2 0 6
56
57
58
59
60
61
0.2640995595622188 0.6717652104588097 0
0.327668391535495 0.6166828191214089 0
0.2959013930284756 0.7084666927106509 0
0.2322977260959619 0.6350637282069688 0
0.2799830588157287 0.6258732736641888 0
0.3117848922819852 0.6625747559160299 0
2 3 0 159
62
63
64
65
66
67
68
69
70
71
72
73
74
75
76
77
78
79
80
81
82
83
84
85
86
87
88
89
90
91
92
93
94
95
96
97
98
99
100
101
102
103
104
105
106
107
108
109
110
111
112
113
114
115
116
117
118
119
120
121
122
123
124
125
126
127
128
129
130
131
132
133
134
135
136
137
138
139
140
141
142
143
144
145
146
147
148
149
150
151
152
153
154
155
156
157
158
159
160
161
162
163
164
165
166
167
168
169
170
171
172
173
174
175
176
177
178
179
180
181
182
183
184
185
186
187
188
189
190
191
192
193
194
195
196
197
198
199
200
201
202
203
204
205
206
207
208
209
210
211
212
213
214
215
216
217
218
219
220
0.4230390569750276 0.5983019100358488 0
0.4411194361406957 0.5507557478774538 0
0.3622537890771046 0.5254703506351142 0
0.4752732277768271 0.5907132839389188 0
0.4942677058667263 0.5387017192891707 0
0.3864152574975143 0.7352455519567744 0
0.5316380379076444 0.5823029896623512 0
0.5515306872820077 0.5268048546026234 0
0.5119964639745064 0.4826943406014823 0
0.5712249148479784 0.468793949357883 0
0.5908052746348776 0.5728886578543462 0
0.5284451452126102 0.4206072927686526 0
0.5960577852112251 0.4059355226457654 0
0.216379391883215 0.5524703091605067 0
0.5690497403091648 0.6318654551570296 0
0.3460097012286575 0.08568049740625777 0
0.6345965452889812 0.6239315482677084 0
0.550002483531996 0.3531994216382176 0
0.4889334493754339 0.3657453265483489 0
0.6193888811862397 0.3361834104485838 0
0.669366455076535 0.3937504159109082 0
0.6948372457685528 0.3198949599916985 0
0.08536764946363051 0.3600526336987194 0
0.6085250635520424 0.690125606328307 0
0.6825665176018731 0.6776267975134707 0
0.6959688017946799 0.6023600043180519 0
0.2274772749780465 0.7744765677067287 0
0.5671987174334777 0.2805271371786083 0
0.7460520814657207 0.38045944013067 0
0.6660803048453812 0.7664649949660777 0
0.5793961320799743 0.7631705940828869 0
0.7519385599969403 0.7354168087445988 0
0.7735520067496794 0.3043707746056892 0
0.1673779304354595 0.6913167295460402 0
0.4508207839344959 0.6498197330300385 0
0.7191657490581583 0.2406131961717965 0
0.4489990223660519 0.916525177000757 0
0.9141368905869738 0.5525641926007758 0
0.7980927820933282 0.2217460346179516 0
0.1500000000000009 0.9133974596215564 0
0.09194095717203921 0.1547179390537224 0
0.9027516327005065 0.8465650481624329 0
0.5561678361802687 0.07683244939135914 0
0.6256790085438275 0.8216836770404377 0
0.8314397471557067 0.3700856021990725 0
0.717137249197464 0.4498235146461443 0
0.7489100106642216 0.9093620057204612 0
0.7389828726340799 0.1556950108331373 0
0.8343826711471597 0.1360616511238685 0
0.6560845482810691 0.1800744844078814 0
0.5493473271901215 0.8322267117169746 0
0.5020471773244356 0.7719909795609219 0
0.08345002076641989 0.7493149182870602 0
0.07404924976569893 0.6698181613286572 0
0.0771011939446361 0.5402938141382807 0
0.07954804424703549 0.4506132251444405 0
0.1584685532178759 0.4088945558116784 0
0.1684217953500394 0.325755273431678 0
0.2331272553102915 0.3747525963020283 0
0.2445338500327115 0.296729301994488 0
0.3051263444016454 0.3454652608770933 0
0.3192121679782979 0.2670924972126367 0
0.2547667449559534 0.2138647748266809 0
0.2935804464357137 0.4196815370112263 0
0.3596358164660234 0.3927313223121111 0
0.1600379844715804 0.504539501109149 0
0.09463220976458481 0.2561991605323575 0
0.926537679398987 0.2473655869115452 0
0.2267597546986288 0.4487754117553819 0
0.2866569680850752 0.4861388525426121 0
0.08894580345773501 0.8482188001325233 0
0.15673870821441 0.7976907139333086 0
0.5312178242414485 0.7002905614549023 0
0.3326352177563449 0.1813057136075668 0
0.3960108888345836 0.2385248135308761 0
0.4245070815360233 0.1598402676075511 0
0.4969269444815508 0.2356561615651577 0
0.248901442335417 0.9226999147814308 0
0.3284785643252431 0.919992729296357 0
0.406637409755996 0.8425096506127868 0
0.345283730054818 0.4509734509008288 0
0.4120020422822603 0.4366251282425292 0
0.2526939644378021 0.128823059085568 0
0.6655314585590187 0.9290385122658866 0
0.4729748164016066 0.8405788390760855 0
0.4293446879652892 0.7809368526757805 0
0.4534877940411217 0.716756206979262 0
0.404864050774711 0.6874661817409087 0
0.3754500502459349 0.3195773639352246 0
0.4523937847374046 0.2985614411797711 0
0.2847870908985578 0.8533546670825531 0
0.2164765751262088 0.8481680097485714 0
0.9143029855692397 0.6480044647467169 0
0.8358428786795378 0.6032160048214346 0
0.8303277977966035 0.5171771635551599 0
0.8315778084702572 0.6942817286995253 0
0.8980000200468313 0.4462160512344887 0
0.9125858896994051 0.7457915136355088 0
0.8262654170732057 0.7835829908475118 0
0.180904697808369 0.1657553526067062 0
0.6534203985452491 0.08699294940643548 0
0.5273909065523802 0.9117199811128528 0
0.7483680735628996 0.8173638285789362 0
0.848291283771853 0.9228727912658836 0
0.312225842129116 0.5339501924991882 0
0.4467092980975336 0.4916634936437164 0
0.9176796923613459 0.3429170423969576 0
0.644291481909966 0.4627684833697062 0
0.6922361010249862 0.5207846592401429 0
0.6412246933819177 0.2611975981709418 0
0.3668053584660922 0.7888128354294834 0
0.4600213967647462 0.08046191846143252 0
0.4067780386584576 0.5183407731320075 0
0.1703217643733381 0.5668158513082352 0
0.2640647246029815 0.5432798546177268 0
0.2641157124038004 0.8042835971600476 0
0.1936105980599707 0.7340920308188166 0
0.1640131791070307 0.08205352538296651 0
0.7607981430525501 0.6444705659664348 0
0.6132982867545769 0.5176596319767494 0
0.5085564456127297 0.6359351924959029 0
0.1821745675770268 0.2460840779178243 0
0.4678192307881199 0.4292363401415488 0
0.9258027866508793 0.1589997982419426 0
0.1337947584431062 0.6548485310857848 0
0.7631776206124921 0.5636685723355538 0
0.7978081494981536 0.442960801312939 0
0.2311168035551159 0.5047939173492666 0
0.1451438912323771 0.7403770875333688 0
0.7591411836102958 0.07239921896536522 0
0.3486837831100502 0.8491557649827441 0
0.4027793132906043 0.6402776552858535 0
0.5885079124956616 0.2096918109017176 0
0.4207058278650633 0.3769536831912795 0
0.520897631464633 0.1498899696100029 0
0.8524720961781835 0.2807254766395889 0
0.06778916069154739 0.932323251950816 0
0.0932734591726051 0.6072779511448525 0
0.845698507829504 0.0574482064451457 0
0.1241819524167968 0.5696294747823542 0
0.9263657000490759 0.07270373230992433 0
0.6459036786095309 0.5674534854522557 0
0.9267949192431122 0.926794919243112 0
0.07255263433100473 0.07255263433100495 0
0.6043964244851575 0.8885576500216361 0
0.4860207119574489 0.6757004234900265 0
0.1206433462541488 0.7007944693870907 0
0.683320677628246 0.854989871677055 0
0.5981511833603235 0.1378565649521555 0
0.5110910759119726 0.3067378976220207 0
0.8149172835545373 0.8559493329150452 0
0.3317703274512019 0.495312323567783 0
0.250662059807033 0.05429207217769005 0
0.1530402716995887 0.85186874585899 0
0.86750404168019 0.2019173418470834 0
0.3899955724314946 0.9024862634020274 0
0.3883410802297973 0.4791520001901552 0
0.1374131080805049 0.2056891325276526 0
0.7612101315404129 0.4974886833305911 0
$EndNodes
$Elements
6 438 1 438
1 1 1 10
1 1 8 
2 8 9 
3 9 10 
4 10 11 
5 11 12 
6 12 13 
7 13 14 
8 14 15 
9 15 16 
10 16 2 
1 2 1 10
11 3 17 
12 17 18 
13 18 19 
14 19 20 
15 20 21 
16 21 22 
17 22 23 
18 23 24 
19 24 25 
20 25 1 
1 3 1 10
21 2 26 
22 26 27 
23 27 28 
24 28 29 
25 29 30 
26 30 31 
27 31 32 
28 32 33 
29 33 34 
30 34 4 
1 4 1 10
31 4 35 
32 35 36 
33 36 37 
34 37 38 
35 38 39 
36 39 40 
37 40 41 
38 41 42 
39 42 43 
40 43 3 
2 2 2 25
41 7 52 51 
42 5 44 55 
43 6 48 47 
44 45 60 59 
45 49 61 57 
46 45 59 44 
47 52 58 51 
48 59 60 56 
49 51 58 50 
50 54 56 53 
51 57 61 60 
52 46 60 45 
53 49 57 48 
54 56 58 53 
55 50 61 49 
56 47 57 46 
57 53 58 52 
58 58 61 50 
59 60 61 56 
60 48 57 47 
61 55 59 54 
62 44 59 55 
63 54 59 56 
64 56 61 58 
65 57 60 46 
2 3 2 373
66 158 188 106 
67 138 194 89 
68 88 153 133 
69 133 178 88 
70 93 164 91 
71 67 148 147 
72 127 201 116 
73 67 149 148 
74 106 168 158 
75 84 118 117 
76 164 209 91 
77 173 196 137 
78 137 196 138 
79 117 127 116 
80 89 211 138 
81 102 128 24 
82 102 219 128 
83 75 175 127 
84 88 177 153 
85 142 213 131 
86 175 201 127 
87 111 162 109 
88 24 128 23 
89 127 189 75 
90 148 149 96 
91 116 199 20 
92 162 191 109 
93 20 199 115 
94 87 187 180 
95 84 117 22 
96 180 187 155 
97 157 160 93 
98 161 179 144 
99 156 188 158 
100 118 127 117 
101 158 168 29 
102 118 130 127 
103 112 163 146 
104 179 214 144 
105 138 196 194 
106 91 209 105 
107 146 163 98 
108 49 149 50 
109 125 142 131 
110 148 207 134 
111 113 148 134 
112 19 115 114 
113 133 190 178 
114 101 153 139 
115 163 206 38 
116 152 177 7 
117 147 172 67 
118 167 218 143 
119 141 172 147 
120 38 206 145 
121 141 146 98 
122 130 189 127 
123 11 173 77 
124 101 139 42 
125 139 140 41 
126 103 160 159 
127 77 173 137 
128 151 195 150 
129 114 133 132 
130 96 207 148 
131 101 215 153 
132 85 134 76 
133 23 128 84 
134 103 159 33 
135 125 131 130 
136 80 195 151 
137 149 193 96 
138 160 164 93 
139 19 114 18 
140 50 149 67 
141 138 211 151 
142 113 134 92 
143 20 115 19 
144 140 217 40 
145 93 180 157 
146 41 140 40 
147 139 152 140 
148 134 182 76 
149 122 125 120 
150 114 132 18 
151 143 184 167 
152 119 120 118 
153 115 208 114 
154 92 134 85 
155 21 117 116 
156 84 119 118 
157 98 217 141 
158 7 192 152 
159 143 195 184 
160 43 101 42 
161 120 130 118 
162 135 144 77 
163 40 98 39 
164 30 158 29 
165 154 155 99 
166 147 148 113 
167 184 195 80 
168 112 113 92 
169 125 130 120 
170 77 137 135 
171 174 218 167 
172 42 139 41 
173 21 116 20 
174 122 126 125 
175 141 147 146 
176 33 159 32 
177 126 142 125 
178 31 154 99 
179 153 177 152 
180 23 84 22 
181 146 147 113 
182 155 156 99 
183 157 180 155 
184 22 117 21 
185 154 157 155 
186 122 150 126 
187 40 217 98 
188 104 196 173 
189 37 145 108 
190 3 198 43 
191 11 77 10 
192 103 212 160 
193 138 151 136 
194 112 146 113 
195 121 122 120 
196 13 104 12 
197 37 108 36 
198 31 99 30 
199 32 154 31 
200 109 191 110 
201 74 169 71 
202 99 158 30 
203 124 144 135 
204 14 191 162 
205 213 218 64 
206 110 202 185 
207 18 132 17 
208 38 145 37 
209 28 129 27 
210 126 143 142 
211 170 187 87 
212 191 200 110 
213 119 121 120 
214 200 202 110 
215 32 159 154 
216 73 184 80 
217 132 215 101 
218 34 103 33 
219 124 161 144 
220 98 163 39 
221 136 150 123 
222 141 217 192 
223 17 198 3 
224 25 102 24 
225 159 160 157 
226 135 136 123 
227 123 150 122 
228 136 151 150 
229 156 158 99 
230 14 162 13 
231 39 163 38 
232 137 138 136 
233 13 162 104 
234 129 185 27 
235 82 169 74 
236 29 168 28 
237 91 92 85 
238 108 165 36 
239 144 214 77 
240 12 173 11 
241 36 165 35 
242 97 171 111 
243 97 111 109 
244 154 159 157 
245 139 153 152 
246 121 123 122 
247 90 107 82 
248 114 190 133 
249 73 80 79 
250 170 181 169 
251 77 214 10 
252 102 179 161 
253 28 168 129 
254 105 112 92 
255 135 137 136 
256 141 192 172 
257 150 195 126 
258 84 128 119 
259 192 217 140 
260 83 97 94 
261 47 64 6 
262 81 82 74 
263 104 173 12 
264 152 192 140 
265 107 169 82 
266 172 192 7 
267 66 70 69 
268 109 110 100 
269 124 135 123 
270 6 62 48 
271 97 109 100 
272 107 170 169 
273 63 167 66 
274 83 90 82 
275 155 187 156 
276 83 94 90 
277 91 105 92 
278 94 106 90 
279 46 166 47 
280 6 63 62 
281 81 83 82 
282 101 198 132 
283 97 100 94 
284 63 66 65 
285 43 198 101 
286 121 124 123 
287 66 69 68 
288 65 96 62 
289 79 89 81 
290 78 87 86 
291 26 202 2 
292 70 73 71 
293 86 93 91 
294 79 81 74 
295 9 179 8 
296 50 67 51 
297 4 204 34 
298 35 204 4 
299 2 202 16 
300 49 193 149 
301 72 76 68 
302 45 176 46 
303 66 68 65 
304 1 205 25 
305 8 205 1 
306 70 71 69 
307 69 72 68 
308 96 193 62 
309 142 218 213 
310 63 65 62 
311 66 167 70 
312 86 91 85 
313 27 185 26 
314 83 171 97 
315 73 74 71 
316 73 79 74 
317 81 171 83 
318 151 211 80 
319 51 172 7 
320 165 212 103 
321 78 85 76 
322 78 86 85 
323 89 171 81 
324 134 207 182 
325 72 78 76 
326 5 175 44 
327 131 189 130 
328 169 181 71 
329 124 183 161 
330 170 220 187 
331 44 75 45 
332 133 215 132 
333 47 166 64 
334 52 88 53 
335 6 174 63 
336 105 209 206 
337 87 203 170 
338 70 184 73 
339 106 188 90 
340 145 209 108 
341 9 214 179 
342 63 174 167 
343 100 216 197 
344 86 180 93 
345 64 174 6 
346 53 178 54 
347 119 183 121 
348 7 177 52 
349 64 218 174 
350 128 183 119 
351 143 218 142 
352 87 180 86 
353 132 198 17 
354 90 188 107 
355 15 191 14 
356 106 197 168 
357 100 197 94 
358 166 176 131 
359 55 186 5 
360 76 182 68 
361 54 95 55 
362 46 176 166 
363 71 181 69 
364 69 181 72 
365 65 182 96 
366 170 203 181 
367 107 220 170 
368 80 211 79 
369 171 194 111 
370 121 183 124 
371 48 193 49 
372 15 200 191 
373 62 193 48 
374 68 182 65 
375 167 184 70 
376 206 209 145 
377 78 203 87 
378 67 172 51 
379 129 216 185 
380 108 209 164 
381 168 197 129 
382 116 201 199 
383 197 216 129 
384 75 176 45 
385 153 215 133 
386 126 195 143 
387 89 194 171 
388 165 204 35 
389 176 189 131 
390 94 197 106 
391 44 175 75 
392 108 212 165 
393 16 200 15 
394 164 212 108 
395 34 204 103 
396 25 205 102 
397 111 210 162 
398 88 178 53 
399 52 177 88 
400 112 206 163 
401 161 219 102 
402 10 214 9 
403 102 205 179 
404 103 204 165 
405 75 189 176 
406 162 210 104 
407 181 203 72 
408 178 190 95 
409 54 178 95 
410 95 186 55 
411 72 203 78 
412 5 201 175 
413 182 207 96 
414 160 212 164 
415 79 211 89 
416 110 216 100 
417 186 199 5 
418 105 206 112 
419 179 205 8 
420 185 202 26 
421 185 216 110 
422 131 213 166 
423 199 201 5 
424 187 220 156 
425 196 210 194 
426 166 213 64 
427 194 210 111 
428 183 219 161 
429 188 220 107 
430 156 220 188 
431 186 208 115 
432 115 199 186 
433 104 210 196 
434 190 208 95 
435 16 202 200 
436 128 219 183 
437 114 208 190 
438 95 208 186 
$EndElements
