$MeshFormat
4.1 0 8
$EndMeshFormat
$PhysicalNames
3
1 101 "outer_boundary"
2 1 "material_1"
2 2 "material_2"
$EndPhysicalNames
$Entities
7 7 2 0
1 0 0 0 0 
2 1 0 0 0 
3 0 1 0 0 
4 1 1 0 0 
5 0.3962805657346115 0.7713560732770115 0 0 
6 0.5373614558774684 0.4217858334598323 0 0 
7 0.7695577188947356 0.7187505882206576 0 0 
1 -9.999999994736442e-08 -1e-07 -1e-07 1.0000001 1e-07 1e-07 1 101 2 1 -2 
2 -1e-07 -9.999999994736442e-08 -1e-07 1e-07 1.0000001 1e-07 1 101 2 3 -1 
3 0.9999999000000001 -9.999999994736442e-08 -1e-07 1.0000001 1.0000001 1e-07 1 101 2 2 -4 
4 -9.999999994736442e-08 0.9999999000000001 -1e-07 1.0000001 1.0000001 1e-07 1 101 2 4 -3 
5 0.3962804657346115 0.4217857334598323 -1e-07 0.5373615558774684 0.7713561732770114 1e-07 0 2 5 -6 
6 0.5373613558774685 0.4217857334598323 -1e-07 0.7695578188947355 0.7187506882206576 1e-07 0 2 6 -7 
7 0.3962804657346115 0.7187504882206577 -1e-07 0.7695578188947355 0.7713561732770114 1e-07 0 2 7 -5 
2 0.3962804657346115 0.4217857334598323 -1e-07 0.7695578188947355 0.7713561732770114 1e-07 1 2 3 5 6 7 
3 -9.999999994736442e-08 -9.999999994736442e-08 -1e-07 1.0000001 1.0000001 1e-07 1 1 7 1 3 4 2 -5 -7 -6 
$EndEntities
$Nodes
16 162 1 162
0 1 0 1
1
0 0 0
0 2 0 1
2
1 0 0
0 3 0 1
3
0 1 0
0 4 0 1
4
1 1 0
0 5 0 1
5
0.3962805657346115 0.7713560732770115 0
0 6 0 1
6
0.5373614558774684 0.4217858334598323 0
0 7 0 1
7
0.7695577188947356 0.7187505882206576 0
1 1 0 7
8
9
10
11
12
13
14
0.1249999999999999 0 0
0.2499999999999998 0 0
0.3749999999999993 0 0
0.4999999999999988 0 0
0.6249999999999988 0 0
0.7499999999999991 0 0
0.8749999999999997 0 0
1 2 0 7
15
16
17
18
19
20
21
0 0.8750000000000001 0
0 0.7500000000000002 0
0 0.6250000000000007 0
0 0.5000000000000012 0
0 0.3750000000000012 0
0 0.2500000000000009 0
0 0.1250000000000003 0
1 3 0 7
22
23
24
25
26
27
28
1 0.1249999999999999 0
1 0.2499999999999998 0
1 0.3749999999999993 0
1 0.4999999999999988 0
1 0.6249999999999988 0
1 0.7499999999999991 0
1 0.8749999999999997 0
1 4 0 7
29
30
31
32
33
34
35
0.8750000000000001 1 0
0.7500000000000002 1 0
0.6250000000000007 1 0
0.5000000000000012 1 0
0.3750000000000012 1 0
0.2500000000000009 1 0
0.1250000000000003 1 0
1 5 0 5
36
37
38
39
40
0.4197940474250876 0.713094366640815 0
0.4433075291155638 0.6548326600046185 0
0.4668210108060398 0.5965709533684221 0
0.4903344924965159 0.5383092467322259 0
0.5138479741869921 0.4800475400960292 0
1 6 0 5
41
42
43
44
45
0.5760608330470129 0.4712799592533032 0
0.6147602102165574 0.5207740850467739 0
0.6534595873861018 0.5702682108402447 0
0.6921589645556461 0.6197623366337154 0
0.7308583417251907 0.6692564624271864 0
1 7 0 5
46
47
48
49
50
0.707344860034715 0.7275181690633833 0
0.6451320011746943 0.736285749906109 0
0.5829191423146738 0.7450533307488345 0
0.5207062834546533 0.7538209115915602 0
0.4584934245946325 0.7625884924342858 0
2 2 0 10
51
52
53
54
55
56
57
58
59
60
0.5290338696660605 0.5878033725256964 0
0.6064326240051497 0.6867916241126381 0
0.4820069062851086 0.7043267857980893 0
0.5525473513565367 0.5295416658894998 0
0.6686454828651702 0.6780240432699122 0
0.6299461056956256 0.6285299174764414 0
0.567733246835605 0.6372974983191672 0
0.5442197651451292 0.6955592049553637 0
0.5055203879755844 0.6460650791618928 0
0.5912467285260812 0.5790357916829706 0
2 3 0 102
61
62
63
64
65
66
67
68
69
70
71
72
73
74
75
76
77
78
79
80
81
82
83
84
85
86
87
88
89
90
91
92
93
94
95
96
97
98
99
100
101
102
103
104
105
106
107
108
109
110
111
112
113
114
115
116
117
118
119
120
121
122
123
124
125
126
127
128
129
130
131
132
133
134
135
136
137
138
139
140
141
142
143
144
145
146
147
148
149
150
151
152
153
154
155
156
157
158
159
160
161
162
0.4741846562085919 0.4312049564874219 0
0.5997155435989345 0.4129043914025514 0
0.4082015588488686 0.6000371457078464 0
0.6812076990397828 0.5089160920365681 0
0.3548899296862607 0.7185458525800115 0
0.4983688186066633 0.3667760980981574 0
0.4245751606062812 0.3797358660794131 0
0.4542353912467157 0.3056753929523677 0
0.3731403113500741 0.316199710782371 0
0.3433179470565177 0.3980361953951416 0
0.5334564146182127 0.2965682406077115 0
0.8936380343529415 0.3229579185753039 0
0.7558727787944466 0.6098211611999784 0
0.1070450494609791 0.5364934546050254 0
0.2850720651964458 0.3295316628751804 0
0.3280513681776698 0.7857216280919027 0
0.2796722887040546 0.7235165800052944 0
0.6816721315220634 0.09933154336225719 0
0.6875072999726541 0.7877419047439829 0
0.3181457009751554 0.2421431708508355 0
0.2470855361766559 0.8057999874460974 0
0.5522141579761733 0.8177286669586898 0
0.4892107143840488 0.2275394610641321 0
0.4369247430237264 0.8308640967094174 0
0.2558229962952717 0.4169112989925241 0
0.2218313169618529 0.2579440033891865 0
0.1842388130127153 0.7389707162100692 0
0.3162898230419393 0.4812876454458956 0
0.8132936315045964 0.8891872221890749 0
0.2270398019407176 0.6570761492397414 0
0.8866561208411572 0.5580497213552601 0
0.575506338035608 0.2191603370042062 0
0.6278397967340085 0.295049396753585 0
0.1714445933926883 0.8237742935548281 0
0.2578627233885837 0.1639956232006722 0
0.3606879041691952 0.1610294522687251 0
0.1563294792515821 0.1833689110584683 0
0.3106757988820855 0.8761060154776722 0
0.2203903809660284 0.5037731764734059 0
0.1592892959769525 0.4255823797478371 0
0.6994127014084791 0.9097356039599465 0
0.896724669435729 0.4429786613866786 0
0.8045578640812586 0.3853027867347478 0
0.7919062366363483 0.277115625128572 0
0.8052636127217044 0.479495960489696 0
0.872976390030926 0.2069153376674974 0
0.5202028149607687 0.1460382354293001 0
0.8917468245269451 0.687499999999999 0
0.8939249887024479 0.7969601054688181 0
0.7220217119808459 0.4408273340960695 0
0.7073252633639683 0.3465007696870025 0
0.1081771393757474 0.3101538037379827 0
0.8054346990773523 0.09921244693798015 0
0.5934825944344865 0.895503671518477 0
0.6622136315968989 0.2034672489879396 0
0.2848666912492606 0.573024385207054 0
0.3983594404199283 0.4521813287857646 0
0.1069918171551125 0.6683841542822383 0
0.3120474979922463 0.6563139578837206 0
0.4968674440728393 0.8775664989355254 0
0.3776311099130508 0.534841225735612 0
0.6434487339992772 0.4591556959984991 0
0.380493694864278 0.6574907537066483 0
0.7167421652608422 0.5607009914534125 0
0.7930712005852116 0.6604888815844607 0
0.4050266229361028 0.907436665364272 0
0.7461031968012399 0.7707428565504074 0
0.8013251876064853 0.7892078647540537 0
0.493041210624405 0.8085137333258957 0
0.6216185194842181 0.7945474565423051 0
0.6647967145021839 0.4009844387599397 0
0.4503323448563905 0.4935445228092911 0
0.5608651090775642 0.3634543859799734 0
0.2148131704455363 0.9046490301937588 0
0.206038562761254 0.3480246297485421 0
0.4064235397389842 0.2354408869696959 0
0.8235532555392461 0.6022376546479218 0
0.1925897577353708 0.08339778145393112 0
0.9138739964448211 0.9078225279194947 0
0.3746194303306837 0.8329775708297684 0
0.4386641033841731 0.5526606188706795 0
0.8299251840631652 0.7305814880055979 0
0.4374999999999991 0.07906839159348072 0
0.09428101002874123 0.09487605830701779 0
0.189388972438339 0.5779593032358575 0
0.7878798552428787 0.5522567152698401 0
0.7426230088492108 0.5084394186691172 0
0.6006966465655296 0.1462708827402115 0
0.7551690426163795 0.1927999906720583 0
0.9106822178216556 0.08622555692109546 0
0.3035896504594371 0.0787754536894964 0
0.1063368756251347 0.8979805865979118 0
0.7347119929059696 0.8321452046152126 0
0.09483534986427522 0.792351625107508 0
0.06886593869393126 0.4375000000000012 0
0.5630961855158676 0.06728626068767274 0
0.6673466216411615 0.8439347682759848 0
0.6267722449881153 0.3600765601781289 0
0.4430389012165363 0.162600082974432 0
0.7088907941895207 0.2629866062458315 0
0.3503833950147123 0.6037069352980912 0
0.06315889192188845 0.1875000000000006 0
$EndNodes
$Elements
6 322 1 322
1 1 1 8
1 1 8 
2 8 9 
3 9 10 
4 10 11 
5 11 12 
6 12 13 
7 13 14 
8 14 2 
1 2 1 8
9 3 15 
10 15 16 
11 16 17 
12 17 18 
13 18 19 
14 19 20 
15 20 21 
16 21 1 
1 3 1 8
17 2 22 
18 22 23 
19 23 24 
20 24 25 
21 25 26 
22 26 27 
23 27 28 
24 28 4 
1 4 1 8
25 4 29 
26 29 30 
27 30 31 
28 31 32 
29 32 33 
30 33 34 
31 34 35 
32 35 3 
2 2 2 36
33 5 36 50 
34 6 41 40 
35 45 7 46 
36 52 56 55 
37 55 56 44 
38 39 54 51 
39 58 59 57 
40 57 59 51 
41 52 57 56 
42 51 60 57 
43 54 60 51 
44 37 53 36 
45 43 60 42 
46 36 53 50 
47 53 59 58 
48 48 58 52 
49 50 53 49 
50 42 60 54 
51 40 54 39 
52 53 58 49 
53 57 60 56 
54 52 58 57 
55 39 51 38 
56 56 60 43 
57 37 59 53 
58 44 56 43 
59 45 55 44 
60 38 59 37 
61 41 54 40 
62 52 55 47 
63 46 55 45 
64 49 58 48 
65 51 59 38 
66 47 55 46 
67 48 52 47 
68 42 54 41 
2 3 2 254
69 120 129 82 
70 152 154 94 
71 74 100 99 
72 34 98 33 
73 118 145 90 
74 99 145 74 
75 15 154 152 
76 102 103 72 
77 114 120 82 
78 98 126 33 
79 89 128 109 
80 87 118 90 
81 137 146 91 
82 82 130 114 
83 26 108 91 
84 125 137 108 
85 108 137 91 
86 91 146 105 
87 89 153 128 
88 23 106 22 
89 86 112 97 
90 91 105 102 
91 64 122 110 
92 24 102 72 
93 15 152 3 
94 106 150 22 
95 102 105 103 
96 74 155 100 
97 32 120 114 
98 34 134 98 
99 3 152 35 
100 100 155 112 
101 30 101 89 
102 2 150 14 
103 112 162 97 
104 27 108 26 
105 105 110 103 
106 130 157 114 
107 91 102 25 
108 32 126 120 
109 61 117 67 
110 27 109 108 
111 30 89 29 
112 108 142 125 
113 104 149 106 
114 32 114 31 
115 111 158 93 
116 26 91 25 
117 72 106 23 
118 112 135 100 
119 88 121 116 
120 74 145 118 
121 103 104 72 
122 22 150 2 
123 109 142 108 
124 128 142 109 
125 120 126 84 
126 84 129 120 
127 24 72 23 
128 18 74 17 
129 31 101 30 
130 31 114 101 
131 96 151 143 
132 13 78 12 
133 29 139 4 
134 16 154 15 
135 101 153 89 
136 132 141 121 
137 33 126 32 
138 128 153 127 
139 122 131 110 
140 25 102 24 
141 67 117 70 
142 13 113 78 
143 148 156 78 
144 93 133 71 
145 20 112 19 
146 117 132 121 
147 70 117 88 
148 121 161 116 
149 28 109 27 
150 103 111 104 
151 88 116 99 
152 127 153 79 
153 153 157 79 
154 106 149 113 
155 70 88 85 
156 18 155 74 
157 4 139 28 
158 110 147 64 
159 116 119 90 
160 131 158 111 
161 93 160 111 
162 17 118 16 
163 74 118 17 
164 14 113 13 
165 78 156 12 
166 86 135 112 
167 143 151 10 
168 109 139 89 
169 93 158 133 
170 110 111 103 
171 90 145 116 
172 112 155 19 
173 92 93 71 
174 35 134 34 
175 61 132 117 
176 20 162 112 
177 88 99 85 
178 89 139 29 
179 116 145 99 
180 143 156 107 
181 96 136 80 
182 87 90 77 
183 8 144 1 
184 1 144 21 
185 90 119 77 
186 104 106 72 
187 95 96 80 
188 117 121 88 
189 40 61 6 
190 81 134 94 
191 6 62 41 
192 37 63 38 
193 92 115 93 
194 36 123 37 
195 77 119 65 
196 41 122 42 
197 87 154 118 
198 67 70 69 
199 5 65 36 
200 42 64 43 
201 70 85 75 
202 63 161 121 
203 98 134 81 
204 39 132 40 
205 43 124 44 
206 35 152 134 
207 86 97 95 
208 104 160 149 
209 75 80 69 
210 44 73 45 
211 99 100 85 
212 68 71 66 
213 86 95 80 
214 126 140 84 
215 83 92 71 
216 14 150 113 
217 75 86 80 
218 28 139 109 
219 119 123 65 
220 70 75 69 
221 7 127 46 
222 46 79 47 
223 110 131 111 
224 47 130 48 
225 48 82 49 
226 61 66 6 
227 121 141 63 
228 49 129 50 
229 118 154 16 
230 105 147 110 
231 45 125 7 
232 83 107 92 
233 114 157 101 
234 81 94 87 
235 50 84 5 
236 11 156 143 
237 94 154 87 
238 40 132 61 
239 67 69 68 
240 37 123 63 
241 62 122 41 
242 68 83 71 
243 61 67 66 
244 81 87 77 
245 65 123 36 
246 85 135 75 
247 113 149 78 
248 42 122 64 
249 67 68 66 
250 100 135 85 
251 115 160 93 
252 75 135 86 
253 64 124 43 
254 9 138 8 
255 38 141 39 
256 98 140 126 
257 11 143 10 
258 76 98 81 
259 62 131 122 
260 63 141 38 
261 10 151 9 
262 115 148 78 
263 113 150 106 
264 80 136 69 
265 96 159 136 
266 71 133 66 
267 39 141 132 
268 44 124 73 
269 5 76 65 
270 6 133 62 
271 78 149 115 
272 92 148 115 
273 116 161 119 
274 76 81 77 
275 123 161 63 
276 97 138 95 
277 76 77 65 
278 66 133 6 
279 7 128 127 
280 19 155 18 
281 46 127 79 
282 111 160 104 
283 73 125 45 
284 12 156 11 
285 149 160 115 
286 79 130 47 
287 69 136 68 
288 48 130 82 
289 68 136 83 
290 73 137 125 
291 82 129 49 
292 21 162 20 
293 50 129 84 
294 138 151 95 
295 95 151 96 
296 101 157 153 
297 107 148 92 
298 119 161 123 
299 76 140 98 
300 134 152 94 
301 136 159 83 
302 83 159 107 
303 64 147 124 
304 62 158 131 
305 9 151 138 
306 107 159 143 
307 125 142 7 
308 97 144 138 
309 138 144 8 
310 84 140 5 
311 124 146 73 
312 7 142 128 
313 5 140 76 
314 73 146 137 
315 133 158 62 
316 143 159 96 
317 79 157 130 
318 124 147 146 
319 97 162 144 
320 107 156 148 
321 144 162 21 
322 146 147 105 
$EndElements
