$MeshFormat
4.1 0 8
$EndMeshFormat
$PhysicalNames
3
1 101 "outer_boundary"
2 1 "material_1"
2 2 "material_2"
$EndPhysicalNames
$Entities
8 8 2 0
1 0 0 0 0 
2 1 0 0 0 
3 0 1 0 0 
4 1 1 0 0 
5 0.7631139586636303 0.1250882123031261 0 0 
6 0.8285468348488551 0.3768426398130432 0 0 
7 0.576792407338938 0.4422755159982679 0 0 
8 0.5113595311537132 0.1905210884883509 0 0 
1 -9.999999994736442e-08 -1e-07 -1e-07 1.0000001 1e-07 1e-07 1 101 2 1 -2 
2 -1e-07 -9.999999994736442e-08 -1e-07 1e-07 1.0000001 1e-07 1 101 2 3 -1 
3 0.9999999000000001 -9.999999994736442e-08 -1e-07 1.0000001 1.0000001 1e-07 1 101 2 2 -4 
4 -9.999999994736442e-08 0.9999999000000001 -1e-07 1.0000001 1.0000001 1e-07 1 101 2 4 -3 
5 0.7631138586636304 0.1250881123031261 -1e-07 0.828546934848855 0.3768427398130432 1e-07 0 2 5 -6 
6 0.576792307338938 0.3768425398130432 -1e-07 0.828546934848855 0.4422756159982679 1e-07 0 2 6 -7 
7 0.5113594311537133 0.1905209884883509 -1e-07 0.5767925073389379 0.4422756159982679 1e-07 0 2 7 -8 
8 0.5113594311537133 0.1250881123031261 -1e-07 0.7631140586636302 0.1905211884883509 1e-07 0 2 8 -5 
2 0.5113594311537133 0.1250881123031261 -1e-07 0.828546934848855 0.4422756159982679 1e-07 1 2 4 5 6 7 8 
3 -9.999999994736442e-08 -9.999999994736442e-08 -1e-07 1.0000001 1.0000001 1e-07 1 1 8 1 3 4 2 -5 -8 -7 -6 
$EndEntities
$Nodes
18 159 1 159
0 1 0 1
1
0 0 0
0 2 0 1
2
1 0 0
0 3 0 1
3
0 1 0
0 4 0 1
4
1 1 0
0 5 0 1
5
0.7631139586636303 0.1250882123031261 0
0 6 0 1
6
0.8285468348488551 0.3768426398130432 0
0 7 0 1
7
0.576792407338938 0.4422755159982679 0
0 8 0 1
8
0.5113595311537132 0.1905210884883509 0
1 1 0 7
9
10
11
12
13
14
15
0.1249999999999999 0 0
0.2499999999999998 0 0
0.3749999999999993 0 0
0.4999999999999988 0 0
0.6249999999999988 0 0
0.7499999999999991 0 0
0.8749999999999997 0 0
1 2 0 7
16
17
18
19
20
21
22
0 0.8750000000000001 0
0 0.7500000000000002 0
0 0.6250000000000007 0
0 0.5000000000000012 0
0 0.3750000000000012 0
0 0.2500000000000009 0
0 0.1250000000000003 0
1 3 0 7
23
24
25
26
27
28
29
1 0.1249999999999999 0
1 0.2499999999999998 0
1 0.3749999999999993 0
1 0.4999999999999988 0
1 0.6249999999999988 0
1 0.7499999999999991 0
1 0.8749999999999997 0
1 4 0 7
30
31
32
33
34
35
36
0.8750000000000001 1 0
0.7500000000000002 1 0
0.6250000000000007 1 0
0.5000000000000012 1 0
0.3750000000000012 1 0
0.2500000000000009 1 0
0.1250000000000003 1 0
1 5 0 3
37
38
39
0.7794721777099365 0.1880268191806052 0
0.7958303967562426 0.2509654260580842 0
0.8121886158025489 0.3139040329355637 0
1 6 0 3
40
41
42
0.765608227971376 0.3932008588593493 0
0.702669621093897 0.4095590779056554 0
0.6397310142164175 0.4259172969519617 0
1 7 0 3
43
44
45
0.5604341882926318 0.3793369091207888 0
0.5440759692463257 0.3163983022433098 0
0.5277177502000194 0.2534596953658304 0
1 8 0 3
46
47
48
0.5742981380311923 0.1741628694420447 0
0.6372367449086713 0.1578046503957386 0
0.7001753517861508 0.1414464313494324 0
2 2 0 14
49
50
51
52
53
54
55
56
57
58
59
60
61
62
0.6811069573846559 0.1979908523389454 0
0.7510412658233768 0.2991328932495916 0
0.6574752324909008 0.3645855108397859 0
0.6006455656747224 0.2708953346364811 0
0.7203241554940127 0.351777098641686 0
0.6759030282506291 0.3007312832417342 0
0.7248995980469446 0.2387641726929205 0
0.6070775450743492 0.334614294772858 0
0.6207708091461557 0.2128064038089073 0
0.6606651917006215 0.2442376093437977 0
0.7290147481349484 0.1831375177582821 0
0.5669583588411606 0.2203690783483229 0
0.7704975293936991 0.3427434292843612 0
0.6108916178676199 0.384226210543112 0
2 3 0 97
63
64
65
66
67
68
69
70
71
72
73
74
75
76
77
78
79
80
81
82
83
84
85
86
87
88
89
90
91
92
93
94
95
96
97
98
99
100
101
102
103
104
105
106
107
108
109
110
111
112
113
114
115
116
117
118
119
120
121
122
123
124
125
126
127
128
129
130
131
132
133
134
135
136
137
138
139
140
141
142
143
144
145
146
147
148
149
150
151
152
153
154
155
156
157
158
159
0.6224146253894619 0.4893012376271946 0
0.5569794466465323 0.5080918485567241 0
0.4987506703255388 0.3565938288562487 0
0.1082531754730544 0.6875000000000004 0
0.6067276016347665 0.5590265132515214 0
0.5347729710419432 0.5791249266795054 0
0.4616930454528259 0.2392259813168025 0
0.7534896274831314 0.4556692510042624 0
0.09068847089832327 0.4359691559629077 0
0.589910876272208 0.6353835861461918 0
0.5111600300880442 0.6552956266485079 0
0.4534947778659084 0.595172859805329 0
0.4209617560530276 0.685030494004147 0
0.6680123547604457 0.6120658976760136 0
0.6505523667070211 0.6977361973020096 0
0.3648072039197584 0.6109467673106138 0
0.3949622170934183 0.5270114984174925 0
0.3193412185883005 0.6979161271162628 0
0.7382012759371666 0.6703751774254099 0
0.4894195177444482 0.7440388534180133 0
0.1189436939834394 0.1865213187813212 0
0.2876420956256699 0.1043987536077362 0
0.3039170081723109 0.5401206161741978 0
0.3339000196199806 0.454073520798403 0
0.7151424683393861 0.7719112404313471 0
0.8966131514506579 0.5680714815120103 0
0.1862589701945881 0.8779065517884528 0
0.8323096222530666 0.1442983851218083 0
0.4493527827269342 0.1694071267756411 0
0.3887551539730185 0.2234696944384518 0
0.510303153656664 0.457632456270753 0
0.8143264748028556 0.7379629724427705 0
0.5936895242053438 0.7922382318091281 0
0.7558245665759319 0.5773447945368233 0
0.413406463744687 0.3000431998244956 0
0.334367271560146 0.2959074060731346 0
0.4361557951156055 0.9034319257190717 0
0.7870557403271884 0.8526725664267736 0
0.8585159387140947 0.2682680962420523 0
0.521005802694553 0.1314405536871894 0
0.2434231096988932 0.4667804924478332 0
0.207305354222387 0.559511368159808 0
0.9038549976225169 0.4628512759293022 0
0.2862127418247706 0.3779538443768485 0
0.5546730277533859 0.9034597412407691 0
0.09968964106604988 0.311826408110783 0
0.2016622867658026 0.2557472753702075 0
0.429295003300375 0.4463173014070754 0
0.3111645193855982 0.8925178646191678 0
0.2644918702042623 0.7834892893781599 0
0.1837246407953191 0.09276772553428592 0
0.6741109357951237 0.8946742243195615 0
0.8200399028901775 0.5060518800866974 0
0.09291134405141932 0.8080553138026851 0
0.3680425241984162 0.3728785338041419 0
0.3915166554993547 0.7909769456930965 0
0.2214152167894197 0.6873763067291381 0
0.8968133296721692 0.8029505889526696 0
0.8279865308673916 0.6394027472268954 0
0.4813904272884737 0.2990956320593416 0
0.4590533924985185 0.0850203849649237 0
0.65429818537602 0.09789785972418874 0
0.6862111442160175 0.4722573737619963 0
0.09401137912008439 0.5625000000000009 0
0.8065667935988228 0.07340868175564547 0
0.9035540815570919 0.08736552037874018 0
0.9091521395519473 0.1909294779269581 0
0.8385344213663951 0.2069458932121898 0
0.4799679282674735 0.5188918151894799 0
0.2963739050444243 0.2154891647587514 0
0.8766889276251184 0.3304918721792396 0
0.5926265310946626 0.1030982439779426 0
0.5669464630034131 0.7049384990647702 0
0.9089549312750593 0.6952599988832515 0
0.7165257149041036 0.07297353085539882 0
0.8269332419090119 0.4312618226425596 0
0.6707841824571326 0.5359016505699646 0
0.1818373224594279 0.3747103775298392 0
0.2685221750839361 0.6205435581335755 0
0.7331807046325951 0.5148376715659271 0
0.8688235941606643 0.9022043832754212 0
0.3760295549780941 0.1329641874242508 0
0.4389531123415266 0.3694952154269199 0
0.4990819114042401 0.830414065596853 0
0.09150635094610987 0.09150635094610998 0
0.09150635094610998 0.9084936490538902 0
0.8900598606380145 0.3929550301627032 0
0.9165760643990342 0.2775968885598546 0
0.1722868614389809 0.7544904622647708 0
0.4837839381111935 0.4052614386462378 0
0.1638233974466976 0.4839635175416694 0
0.5407894796289731 0.06201803483814927 0
0.1691902938554588 0.6270657118771601 0
0.2600907055309143 0.3039616136217562 0
0.8251160379460397 0.5727177258406065 0
0.9375751806083078 0.3365163034557867 0
0.2233442859647752 0.1725497858602991 0
$EndNodes
$Elements
6 316 1 316
1 1 1 8
1 1 9 
2 9 10 
3 10 11 
4 11 12 
5 12 13 
6 13 14 
7 14 15 
8 15 2 
1 2 1 8
9 3 16 
10 16 17 
11 17 18 
12 18 19 
13 19 20 
14 20 21 
15 21 22 
16 22 1 
1 3 1 8
17 2 23 
18 23 24 
19 24 25 
20 25 26 
21 26 27 
22 27 28 
23 28 29 
24 29 4 
1 4 1 8
25 4 30 
26 30 31 
27 31 32 
28 32 33 
29 33 34 
30 34 35 
31 35 36 
32 36 3 
2 2 2 42
33 54 56 52 
34 54 55 50 
35 52 58 54 
36 54 58 55 
37 51 56 54 
38 53 54 50 
39 55 58 49 
40 39 50 38 
41 42 51 41 
42 45 52 44 
43 48 49 47 
44 57 58 52 
45 41 53 40 
46 47 57 46 
47 38 55 37 
48 44 56 43 
49 51 54 53 
50 51 53 41 
51 49 57 47 
52 50 55 38 
53 52 56 44 
54 37 59 5 
55 43 62 7 
56 5 59 48 
57 7 62 42 
58 8 60 45 
59 40 61 6 
60 6 61 39 
61 46 60 8 
62 56 62 43 
63 55 59 37 
64 53 61 40 
65 57 60 46 
66 39 61 50 
67 48 59 49 
68 45 60 52 
69 42 62 51 
70 49 59 55 
71 50 61 53 
72 52 60 57 
73 51 62 56 
74 49 58 57 
2 3 2 242
75 82 135 95 
76 123 144 11 
77 31 114 100 
78 82 118 75 
79 100 143 31 
80 11 144 84 
81 93 131 110 
82 7 93 43 
83 95 146 82 
84 110 131 79 
85 93 152 43 
86 4 143 29 
87 75 118 80 
88 30 143 4 
89 43 152 65 
90 82 146 118 
91 88 136 121 
92 100 114 87 
93 27 136 88 
94 87 114 95 
95 80 118 112 
96 23 128 2 
97 31 143 30 
98 89 151 112 
99 91 102 8 
100 105 149 25 
101 88 105 26 
102 112 119 80 
103 20 108 71 
104 2 128 15 
105 27 88 26 
106 98 117 106 
107 115 142 70 
108 34 111 99 
109 26 105 25 
110 11 84 10 
111 83 109 108 
112 96 142 115 
113 13 137 124 
114 112 118 111 
115 107 146 95 
116 109 140 108 
117 76 139 96 
118 95 114 107 
119 116 151 89 
120 89 112 111 
121 79 131 74 
122 109 156 140 
123 99 107 33 
124 20 71 19 
125 34 99 33 
126 6 149 138 
127 84 113 10 
128 71 126 19 
129 18 66 17 
130 65 145 122 
131 83 108 21 
132 18 126 66 
133 86 110 79 
134 89 111 35 
135 124 134 13 
136 103 153 140 
137 111 118 99 
138 21 108 20 
139 118 146 99 
140 35 111 34 
141 33 107 32 
142 88 115 105 
143 110 152 93 
144 139 142 96 
145 32 114 31 
146 22 83 21 
147 36 89 35 
148 78 79 74 
149 66 116 17 
150 14 137 13 
151 107 114 32 
152 76 96 81 
153 97 117 98 
154 10 113 9 
155 91 123 102 
156 98 156 132 
157 103 140 106 
158 5 137 127 
159 17 116 16 
160 91 144 123 
161 122 145 97 
162 85 86 79 
163 24 129 23 
164 149 158 25 
165 129 150 101 
166 106 117 86 
167 138 149 105 
168 132 156 109 
169 103 106 86 
170 12 123 11 
171 29 143 120 
172 78 85 79 
173 86 117 110 
174 108 140 71 
175 115 138 105 
176 70 138 115 
177 29 120 28 
178 83 159 109 
179 101 130 129 
180 141 155 104 
181 42 63 7 
182 43 65 44 
183 115 157 96 
184 134 154 13 
185 15 127 14 
186 96 121 81 
187 73 74 68 
188 71 153 126 
189 85 103 86 
190 119 155 141 
191 64 93 7 
192 87 95 77 
193 24 158 150 
194 41 125 42 
195 19 126 18 
196 75 78 74 
197 63 64 7 
198 1 147 22 
199 9 147 1 
200 85 104 103 
201 3 148 36 
202 16 148 3 
203 126 155 66 
204 40 70 41 
205 44 122 45 
206 75 80 78 
207 140 153 71 
208 28 136 27 
209 106 156 98 
210 69 97 92 
211 67 68 64 
212 94 120 100 
213 73 82 75 
214 72 73 68 
215 119 141 80 
216 81 94 87 
217 94 100 87 
218 23 129 128 
219 81 87 77 
220 67 76 72 
221 113 159 83 
222 63 67 64 
223 45 69 8 
224 6 138 40 
225 67 72 68 
226 76 81 77 
227 73 75 74 
228 94 136 120 
229 97 98 92 
230 81 121 94 
231 42 125 63 
232 74 131 68 
233 76 77 72 
234 5 90 37 
235 95 135 77 
236 84 159 113 
237 99 146 107 
238 65 122 44 
239 69 122 97 
240 37 130 38 
241 25 158 24 
242 69 91 8 
243 70 125 41 
244 98 132 92 
245 24 150 129 
246 121 136 94 
247 68 131 64 
248 38 101 39 
249 80 141 78 
250 13 154 12 
251 120 136 28 
252 8 102 46 
253 73 135 82 
254 64 131 93 
255 66 155 119 
256 39 133 6 
257 140 156 106 
258 46 134 47 
259 97 145 117 
260 128 129 90 
261 113 147 9 
262 85 141 104 
263 126 153 104 
264 40 138 70 
265 119 151 66 
266 67 139 76 
267 72 135 73 
268 45 122 69 
269 127 137 14 
270 69 92 91 
271 116 148 16 
272 47 124 48 
273 104 155 126 
274 22 147 83 
275 83 147 113 
276 77 135 72 
277 129 130 90 
278 36 148 89 
279 117 145 110 
280 48 137 5 
281 66 151 116 
282 89 148 116 
283 63 139 67 
284 5 127 90 
285 112 151 119 
286 132 159 84 
287 123 154 102 
288 125 139 63 
289 132 144 92 
290 78 141 85 
291 90 130 37 
292 120 143 100 
293 109 159 132 
294 38 130 101 
295 15 128 127 
296 70 142 125 
297 92 144 91 
298 121 157 88 
299 127 128 90 
300 96 157 121 
301 101 133 39 
302 102 134 46 
303 104 153 103 
304 125 142 139 
305 84 144 132 
306 47 134 124 
307 88 157 115 
308 124 137 48 
309 133 149 6 
310 12 154 123 
311 101 150 133 
312 65 152 145 
313 102 154 134 
314 145 152 110 
315 150 158 133 
316 133 158 149 
$EndElements
