$MeshFormat
4.1 0 8
$EndMeshFormat
$PhysicalNames
3
1 101 "outer_boundary"
2 1 "material_1"
2 2 "material_2"
$EndPhysicalNames
$Entities
8 8 2 0
1 0 0 0 0 
2 1 0 0 0 
3 0 1 0 0 
4 1 1 0 0 
5 0.197611302456939 0.1322883651041101 0 0 
6 0.4100015469214483 0.2538802936659628 0 0 
7 0.2884096183595957 0.4662705381304721 0 0 
8 0.07601937389508634 0.3446786095686195 0 0 
1 -9.999999994736442e-08 -1e-07 -1e-07 1.0000001 1e-07 1e-07 1 101 2 1 -2 
2 -1e-07 -9.999999994736442e-08 -1e-07 1e-07 1.0000001 1e-07 1 101 2 3 -1 
3 0.9999999000000001 -9.999999994736442e-08 -1e-07 1.0000001 1.0000001 1e-07 1 101 2 2 -4 
4 -9.999999994736442e-08 0.9999999000000001 -1e-07 1.0000001 1.0000001 1e-07 1 101 2 4 -3 
5 0.197611202456939 0.1322882651041101 -1e-07 0.4100016469214483 0.2538803936659628 1e-07 0 2 5 -6 
6 0.2884095183595957 0.2538801936659628 -1e-07 0.4100016469214483 0.4662706381304721 1e-07 0 2 6 -7 
7 0.07601927389508634 0.3446785095686195 -1e-07 0.2884097183595957 0.4662706381304721 1e-07 0 2 7 -8 
8 0.07601927389508634 0.1322882651041101 -1e-07 0.197611402456939 0.3446787095686195 1e-07 0 2 8 -5 
2 0.07601927389508634 0.1322882651041101 -1e-07 0.4100016469214483 0.4662706381304721 1e-07 1 2 4 5 6 7 8 
3 -9.999999994736442e-08 -9.999999994736442e-08 -1e-07 1.0000001 1.0000001 1e-07 1 1 8 1 3 4 2 -5 -8 -7 -6 
$EndEntities
$Nodes
18 164 1 164
0 1 0 1
1
0 0 0
0 2 0 1
2
1 0 0
0 3 0 1
3
0 1 0
0 4 0 1
4
1 1 0
0 5 0 1
5
0.197611302456939 0.1322883651041101 0
0 6 0 1
6
0.4100015469214483 0.2538802936659628 0
0 7 0 1
7
0.2884096183595957 0.4662705381304721 0
0 8 0 1
8
0.07601937389508634 0.3446786095686195 0
1 1 0 7
9
10
11
12
13
14
15
0.1249999999999999 0 0
0.2499999999999998 0 0
0.3749999999999993 0 0
0.4999999999999988 0 0
0.6249999999999988 0 0
0.7499999999999991 0 0
0.8749999999999997 0 0
1 2 0 7
16
17
18
19
20
21
22
0 0.8750000000000001 0
0 0.7500000000000002 0
0 0.6250000000000007 0
0 0.5000000000000012 0
0 0.3750000000000012 0
0 0.2500000000000009 0
0 0.1250000000000003 0
1 3 0 7
23
24
25
26
27
28
29
1 0.1249999999999999 0
1 0.2499999999999998 0
1 0.3749999999999993 0
1 0.4999999999999988 0
1 0.6249999999999988 0
1 0.7499999999999991 0
1 0.8749999999999997 0
1 4 0 7
30
31
32
33
34
35
36
0.8750000000000001 1 0
0.7500000000000002 1 0
0.6250000000000007 1 0
0.5000000000000012 1 0
0.3750000000000012 1 0
0.2500000000000009 1 0
0.1250000000000003 1 0
1 5 0 3
37
38
39
0.2507088635730663 0.1626863472445733 0
0.3038064246891936 0.1930843293850364 0
0.356903985805321 0.2234823115254996 0
1 6 0 3
40
41
42
0.3796035647809852 0.3069778547820901 0
0.349205582640522 0.3600754158982175 0
0.3188076005000588 0.4131729770143448 0
1 7 0 3
43
44
45
0.2353120572434683 0.435872555990009 0
0.182214496127341 0.4054745738495458 0
0.1291169350112137 0.3750765917090827 0
1 8 0 3
46
47
48
0.1064173560355495 0.2915810484524922 0
0.1368153381760127 0.2384834873363648 0
0.1672133203164758 0.1853859262202375 0
2 2 0 15
49
50
51
52
53
54
55
56
57
58
59
60
61
62
63
0.1616785725338069 0.292425994891469 0
0.2345275177583442 0.3717744918818645 0
0.3026549847308474 0.2519058904917106 0
0.2516589734590751 0.2228322562110423 0
0.2539393466525212 0.2786780836226536 0
0.3131181322259145 0.309590315167673 0
0.1759396251940224 0.3469923451528431 0
0.1972973904565188 0.2429431735853284 0
0.2947021644453721 0.3658728789377015 0
0.2607798366378715 0.3286469785499595 0
0.1371423537644756 0.328061364448011 0
0.3488785670520591 0.2704975387865712 0
0.2142285475775474 0.1934113449734993 0
0.2719290037451159 0.4056501243371705 0
0.2109578759689529 0.3091410541370858 0
2 3 0 101
64
65
66
67
68
69
70
71
72
73
74
75
76
77
78
79
80
81
82
83
84
85
86
87
88
89
90
91
92
93
94
95
96
97
98
99
100
101
102
103
104
105
106
107
108
109
110
111
112
113
114
115
116
117
118
119
120
121
122
123
124
125
126
127
128
129
130
131
132
133
134
135
136
137
138
139
140
141
142
143
144
145
146
147
148
149
150
151
152
153
154
155
156
157
158
159
160
161
162
163
164
0.3521081763512719 0.4668401005324319 0
0.4424439579858417 0.3096098729624124 0
0.3199298756725343 0.5229146320054452 0
0.3888132290609171 0.5231829314734857 0
0.8976464775157541 0.5570344466919741 0
0.3525667518938547 0.5854651838208664 0
0.4275446287865033 0.5857487560869813 0
0.8866301853947907 0.3092702156654776 0
0.4650511289104813 0.5192629830978374 0
0.5087819361619784 0.5857127886557342 0
0.5488133596359139 0.5107605849145063 0
0.4706262220613354 0.2501680566050182 0
0.6851249706272182 0.9082194456546773 0
0.3889345256808741 0.6559329009897945 0
0.5964001825286724 0.5843583973457167 0
0.3063550904953142 0.6519189140712128 0
0.5114308269066493 0.3114705857361942 0
0.6356302833744139 0.50160175310942 0
0.5466689861855816 0.2415512794256859 0
0.5544649780556125 0.6622133272181955 0
0.6485084150522819 0.6637487141375844 0
0.2519128962826856 0.5104203503740027 0
0.4187717592669437 0.1961813411973877 0
0.3446520971222625 0.7310996714909135 0
0.5928632177463673 0.3101390633122261 0
0.6384827770484744 0.2349300894470903 0
0.2503042704884225 0.7290347630369698 0
0.6897023269206071 0.3207011203395254 0
0.7381846844434103 0.2260797033933288 0
0.8802232048271148 0.8125932273265409 0
0.1860627419661856 0.4879386749344204 0
0.1975660032605484 0.5642942153012526 0
0.4731425596944777 0.369067873852692 0
0.4435506359901896 0.9039218973586586 0
0.2920603073541732 0.8150717722405177 0
0.1904827529032237 0.8100531575555459 0
0.5949503646941851 0.7460383370826955 0
0.4366696800317363 0.7315293231495108 0
0.3047353011438935 0.1298888441455059 0
0.6951644562183292 0.7451696576020885 0
0.7559332028907182 0.6684562299026048 0
0.4938845128679656 0.1748411563049896 0
0.1470002185665474 0.1275670447317977 0
0.07968792033697603 0.4040921124833561 0
0.6849583526649139 0.1455558607947005 0
0.7953655124083638 0.147298240933573 0
0.15591542195974 0.7168870461706083 0
0.5875860292981339 0.4320580951679686 0
0.432170804048806 0.1020519570440783 0
0.8952716344364697 0.4381123250226772 0
0.7975761095354235 0.5047190805576957 0
0.784881508632173 0.3941172610895638 0
0.5625285734645952 0.9096078008709483 0
0.8779941916956704 0.677920187585928 0
0.100021854750059 0.5327331057807032 0
0.5775616026741215 0.1574566387823726 0
0.6767211273248648 0.418650181386434 0
0.8974093419516077 0.1913057100548641 0
0.8079656170750366 0.9091804691540486 0
0.3799904283758535 0.4129496212137079 0
0.4099582053736254 0.3613382360023433 0
0.495710483367444 0.4404813258348071 0
0.123501647056569 0.446521445820676 0
0.7080145838307286 0.5713036813508032 0
0.5092454489400161 0.8101811428988925 0
0.8053057599095566 0.7448944129098077 0
0.363191652202839 0.155798885805588 0
0.2499660834298963 0.09294939562043403 0
0.09967251235558794 0.1644194980332794 0
0.07563251030021795 0.2387068431370018 0
0.5420948610989448 0.08665141744778315 0
0.1877534421945622 0.06513507823968961 0
0.4719775479916362 0.6592054138371714 0
0.4204284049252276 0.4654473816288491 0
0.3941380710068627 0.8163455943329825 0
0.05161384804617075 0.2999933002316231 0
0.1228484163955201 0.6282653626844366 0
0.2199918555627579 0.6447032965456471 0
0.2747204121946158 0.5799527653530712 0
0.08903661511391564 0.7963516469769 0
0.1072420428498635 0.896909822905668 0
0.2172392266183434 0.9047174185935223 0
0.3286647068282618 0.9066761137542801 0
0.3627616382628758 0.09010453153601938 0
0.5406212546862601 0.3738567627054267 0
0.8838467041717711 0.0981587516174337 0
0.7930840494064952 0.2956174631716521 0
0.08699083587797074 0.07778791300750298 0
0.8070022524239431 0.5896557620315117 0
0.9084936490538902 0.90849364905389 0
0.6247305864464818 0.8315813802600107 0
0.514946857202064 0.7309035194494884 0
0.7497524325172895 0.8252730988178623 0
0.7152031967070418 0.48877859813203 0
0.06125660938651367 0.6877445549703092 0
0.6239522470027782 0.08555875255525797 0
0.4358460163473256 0.4098568877064799 0
0.308492604567333 0.06258855426039184 0
0.06271655742791638 0.4657435420598047 0
0.8198968512603086 0.2238676988076999 0
0.6232055503136278 0.3726332053927255 0
$EndNodes
$Elements
6 326 1 326
1 1 1 8
1 1 9 
2 9 10 
3 10 11 
4 11 12 
5 12 13 
6 13 14 
7 14 15 
8 15 2 
1 2 1 8
9 3 16 
10 16 17 
11 17 18 
12 18 19 
13 19 20 
14 20 21 
15 21 22 
16 22 1 
1 3 1 8
17 2 23 
18 23 24 
19 24 25 
20 25 26 
21 26 27 
22 27 28 
23 28 29 
24 29 4 
1 4 1 8
25 4 30 
26 30 31 
27 31 32 
28 32 33 
29 33 34 
30 34 35 
31 35 36 
32 36 3 
2 2 2 44
33 41 54 40 
34 54 60 40 
35 53 63 56 
36 53 56 52 
37 56 63 49 
38 47 49 46 
39 39 51 38 
40 51 53 52 
41 51 54 53 
42 44 50 43 
43 51 52 38 
44 38 52 37 
45 55 63 50 
46 50 63 58 
47 48 56 47 
48 45 55 44 
49 44 55 50 
50 47 56 49 
51 40 60 6 
52 8 59 45 
53 6 60 39 
54 46 59 8 
55 51 60 54 
56 37 61 5 
57 5 61 48 
58 43 62 7 
59 7 62 42 
60 41 57 54 
61 50 58 57 
62 57 62 50 
63 42 57 41 
64 45 59 55 
65 48 61 56 
66 54 58 53 
67 50 62 43 
68 49 59 46 
69 52 61 37 
70 39 60 51 
71 55 59 49 
72 56 61 52 
73 49 63 55 
74 57 58 54 
75 58 63 53 
76 42 62 57 
2 3 2 250
77 14 109 108 
78 14 149 109 
79 108 159 14 
80 21 139 20 
81 16 144 3 
82 107 162 20 
83 3 144 36 
84 15 149 14 
85 7 85 43 
86 132 151 106 
87 104 152 117 
88 118 140 18 
89 115 120 91 
90 19 118 18 
91 43 94 44 
92 127 157 114 
93 22 133 21 
94 115 157 120 
95 114 152 127 
96 117 129 104 
97 85 94 43 
98 12 112 11 
99 23 149 2 
100 20 139 8 
101 113 115 71 
102 144 145 36 
103 14 159 13 
104 36 145 35 
105 25 113 71 
106 20 162 19 
107 32 116 76 
108 2 149 15 
109 106 151 135 
110 114 157 115 
111 91 150 115 
112 6 86 75 
113 93 156 129 
114 100 154 128 
115 68 114 113 
116 27 117 68 
117 13 159 134 
118 122 156 93 
119 22 151 132 
120 114 115 113 
121 117 152 68 
122 97 116 33 
123 68 113 26 
124 44 126 45 
125 13 134 12 
126 25 71 24 
127 34 97 33 
128 8 107 20 
129 94 126 44 
130 112 147 11 
131 32 76 31 
132 27 68 26 
133 103 156 154 
134 93 117 28 
135 95 142 141 
136 26 113 25 
137 12 134 112 
138 33 116 32 
139 28 117 27 
140 29 93 28 
141 86 105 75 
142 76 122 31 
143 71 121 24 
144 85 142 95 
145 19 162 118 
146 24 121 23 
147 74 111 81 
148 31 122 30 
149 74 125 111 
150 89 119 108 
151 116 154 76 
152 75 105 82 
153 35 146 34 
154 127 152 104 
155 128 154 116 
156 128 155 100 
157 105 119 82 
158 128 138 101 
159 143 144 16 
160 92 150 91 
161 97 128 116 
162 42 64 7 
163 111 120 81 
164 106 135 5 
165 6 65 40 
166 82 119 89 
167 40 124 41 
168 84 104 103 
169 99 110 90 
170 41 123 42 
171 154 156 76 
172 103 154 100 
173 78 83 73 
174 115 150 71 
175 74 81 78 
176 84 100 83 
177 80 96 65 
178 72 137 125 
179 72 74 73 
180 67 72 70 
181 123 137 64 
182 141 142 79 
183 72 125 74 
184 4 153 29 
185 30 153 4 
186 64 137 67 
187 84 103 100 
188 93 129 117 
189 96 148 125 
190 108 109 92 
191 89 91 88 
192 78 84 83 
193 64 66 7 
194 74 78 73 
195 89 92 91 
196 77 101 87 
197 98 99 90 
198 86 130 112 
199 96 124 65 
200 89 108 92 
201 145 146 35 
202 121 149 23 
203 84 127 104 
204 42 123 64 
205 110 141 90 
206 65 124 40 
207 45 126 107 
208 64 67 66 
209 77 79 69 
210 72 73 70 
211 87 98 90 
212 137 160 125 
213 125 148 111 
214 41 124 123 
215 67 69 66 
216 71 163 121 
217 66 85 7 
218 17 143 16 
219 81 127 78 
220 34 146 97 
221 97 138 128 
222 10 135 9 
223 104 129 103 
224 87 90 79 
225 67 70 69 
226 95 141 140 
227 70 77 69 
228 11 161 10 
229 135 151 9 
230 77 87 79 
231 78 127 84 
232 39 86 6 
233 67 137 72 
234 82 89 88 
235 83 136 73 
236 82 88 80 
237 38 130 39 
238 87 138 98 
239 85 95 94 
240 140 141 110 
241 150 163 71 
242 6 75 65 
243 37 102 38 
244 125 160 96 
245 138 146 98 
246 68 152 114 
247 77 136 101 
248 101 138 87 
249 140 158 18 
250 83 155 136 
251 86 112 105 
252 45 107 8 
253 48 106 5 
254 47 132 48 
255 98 145 99 
256 99 143 110 
257 75 80 65 
258 118 126 94 
259 75 82 80 
260 122 153 30 
261 99 145 144 
262 79 142 69 
263 5 131 37 
264 81 157 127 
265 90 141 79 
266 73 136 70 
267 88 148 80 
268 97 146 138 
269 136 155 101 
270 143 158 110 
271 29 153 93 
272 46 133 47 
273 70 136 77 
274 109 149 121 
275 95 118 94 
276 1 151 22 
277 9 151 1 
278 105 134 119 
279 100 155 83 
280 18 158 17 
281 8 139 46 
282 76 156 122 
283 99 144 143 
284 93 153 122 
285 98 146 145 
286 69 142 66 
287 95 140 118 
288 131 135 10 
289 120 164 91 
290 91 164 88 
291 134 159 119 
292 80 148 96 
293 130 147 112 
294 121 163 109 
295 101 155 128 
296 88 164 148 
297 66 142 85 
298 119 159 108 
299 129 156 103 
300 17 158 143 
301 10 161 131 
302 112 134 105 
303 39 130 86 
304 120 157 81 
305 102 130 38 
306 148 164 111 
307 111 164 120 
308 109 163 92 
309 124 160 123 
310 5 135 131 
311 37 131 102 
312 123 160 137 
313 48 132 106 
314 102 147 130 
315 118 162 126 
316 147 161 11 
317 47 133 132 
318 96 160 124 
319 46 139 133 
320 126 162 107 
321 110 158 140 
322 92 163 150 
323 102 161 147 
324 133 139 21 
325 131 161 102 
326 132 133 22 
$EndElements
