$MeshFormat
4.1 0 8
$EndMeshFormat
$PhysicalNames
3
1 101 "outer_boundary"
2 1 "material_1"
2 2 "material_2"
$EndPhysicalNames
$Entities
8 8 2 0
1 0 0 0 0 
2 1 0 0 0 
3 0 1 0 0 
4 1 1 0 0 
5 0.2982211633885074 0.1337210756581096 0 0 
6 0.5298010123901841 0.20194497902909 0 0 
7 0.4615771090192036 0.4335248280307666 0 0 
8 0.229997260017527 0.3653009246597862 0 0 
1 -9.999999994736442e-08 -1e-07 -1e-07 1.0000001 1e-07 1e-07 1 101 2 1 -2 
2 -1e-07 -9.999999994736442e-08 -1e-07 1e-07 1.0000001 1e-07 1 101 2 3 -1 
3 0.9999999000000001 -9.999999994736442e-08 -1e-07 1.0000001 1.0000001 1e-07 1 101 2 2 -4 
4 -9.999999994736442e-08 0.9999999000000001 -1e-07 1.0000001 1.0000001 1e-07 1 101 2 4 -3 
5 0.2982210633885074 0.1337209756581096 -1e-07 0.529801112390184 0.20194507902909 1e-07 0 2 5 -6 
6 0.4615770090192036 0.20194487902909 -1e-07 0.529801112390184 0.4335249280307666 1e-07 0 2 6 -7 
7 0.229997160017527 0.3653008246597862 -1e-07 0.4615772090192036 0.4335249280307666 1e-07 0 2 7 -8 
8 0.229997160017527 0.1337209756581096 -1e-07 0.2982212633885074 0.3653010246597862 1e-07 0 2 8 -5 
2 0.229997160017527 0.1337209756581096 -1e-07 0.529801112390184 0.4335249280307666 1e-07 1 2 4 5 6 7 8 
3 -9.999999994736442e-08 -9.999999994736442e-08 -1e-07 1.0000001 1.0000001 1e-07 1 1 8 1 3 4 2 -5 -8 -7 -6 
$EndEntities
$Nodes
18 164 1 164
0 1 0 1
1
0 0 0
0 2 0 1
2
1 0 0
0 3 0 1
3
0 1 0
0 4 0 1
4
1 1 0
0 5 0 1
5
0.2982211633885074 0.1337210756581096 0
0 6 0 1
6
0.5298010123901841 0.20194497902909 0
0 7 0 1
7
0.4615771090192036 0.4335248280307666 0
0 8 0 1
8
0.229997260017527 0.3653009246597862 0
1 1 0 7
9
10
11
12
13
14
15
0.1249999999999999 0 0
0.2499999999999998 0 0
0.3749999999999993 0 0
0.4999999999999988 0 0
0.6249999999999988 0 0
0.7499999999999991 0 0
0.8749999999999997 0 0
1 2 0 7
16
17
18
19
20
21
22
0 0.8750000000000001 0
0 0.7500000000000002 0
0 0.6250000000000007 0
0 0.5000000000000012 0
0 0.3750000000000012 0
0 0.2500000000000009 0
0 0.1250000000000003 0
1 3 0 7
23
24
25
26
27
28
29
1 0.1249999999999999 0
1 0.2499999999999998 0
1 0.3749999999999993 0
1 0.4999999999999988 0
1 0.6249999999999988 0
1 0.7499999999999991 0
1 0.8749999999999997 0
1 4 0 7
30
31
32
33
34
35
36
0.8750000000000001 1 0
0.7500000000000002 1 0
0.6250000000000007 1 0
0.5000000000000012 1 0
0.3750000000000012 1 0
0.2500000000000009 1 0
0.1250000000000003 1 0
1 5 0 3
37
38
39
0.3561161256389265 0.1507770515008547 0
0.4140110878893455 0.1678330273435997 0
0.4719060501397647 0.1848890031863448 0
1 6 0 3
40
41
42
0.512745036547439 0.259839941279509 0
0.4956890607046939 0.3177349035299281 0
0.4786330848619488 0.3756298657803473 0
1 7 0 3
43
44
45
0.4036821467687846 0.4164688521880215 0
0.3457871845183655 0.3994128763452764 0
0.2878922222679463 0.3823569005025313 0
1 8 0 3
46
47
48
0.2470532358602721 0.3074059624093671 0
0.2641092117030172 0.2495110001589481 0
0.2811651875457623 0.1916160379085289 0
2 2 0 14
49
50
51
52
53
54
55
56
57
58
59
60
61
62
0.4370369162092511 0.3346607108396421 0
0.3313151222153559 0.3420345085650678 0
0.3308617570488545 0.2403339593607381 0
0.4297169188095754 0.2207694922017963 0
0.3874426364644553 0.3618721472790735 0
0.3764871475475647 0.3000316695603444 0
0.3055348109798638 0.2941071029578052 0
0.3746297657070944 0.2037294930022096 0
0.4450805037052696 0.274136052372765 0
0.3913552185636717 0.2478001332995707 0
0.4316808960391714 0.3786569332716206 0
0.4749331176310381 0.2318411920091222 0
0.328198799865829 0.1840355234860881 0
0.284865154776673 0.3354047116797539 0
2 3 0 102
63
64
65
66
67
68
69
70
71
72
73
74
75
76
77
78
79
80
81
82
83
84
85
86
87
88
89
90
91
92
93
94
95
96
97
98
99
100
101
102
103
104
105
106
107
108
109
110
111
112
113
114
115
116
117
118
119
120
121
122
123
124
125
126
127
128
129
130
131
132
133
134
135
136
137
138
139
140
141
142
143
144
145
146
147
148
149
150
151
152
153
154
155
156
157
158
159
160
161
162
163
164
0.3621356887244804 0.4652312324686572 0
0.5202436050005802 0.4193482552717079 0
0.5040055116567779 0.4836640638063737 0
0.5744633748051554 0.2488559970646196 0
0.5755975688816795 0.4623644607887897 0
0.5519478318809068 0.5380787607850757 0
0.3116058318766923 0.9013258637949351 0
0.2399531823130736 0.4348647066480614 0
0.6253628710471071 0.5177468512617961 0
0.6048492385372742 0.5981339937679493 0
0.6518772530924901 0.437611974024805 0
0.5226184627048626 0.6165690932571638 0
0.5791796131358166 0.6827798441845486 0
0.669593193401909 0.6632432926231433 0
0.7085748562684298 0.4964630927860973 0
0.7349946487423744 0.4096963157657965 0
0.1210801774746585 0.6767981644848496 0
0.2215679317836877 0.2055184069075727 0
0.4888956389057486 0.6995450416927129 0
0.4417971012461556 0.6328851118263479 0
0.5861628810907218 0.1819023888839721 0
0.6441933223541032 0.2333869488008695 0
0.8958407638983596 0.1743653076123041 0
0.6449091783402796 0.7493837943031114 0
0.7405095583623977 0.7270430446334343 0
0.1828336982169199 0.3296914473689297 0
0.1796501088937617 0.4055066662176059 0
0.1957319141704311 0.4836344910369102 0
0.3989389124601699 0.716892974983989 0
0.3518351266283619 0.6320383720262361 0
0.4573325613344897 0.7904200542492396 0
0.8040557036710035 0.475415461572699 0
0.8223698883133228 0.3809544997229961 0
0.3033464656283921 0.7321416333445854 0
0.6659939216247996 0.1564356267751482 0
0.6250546835529117 0.2999195196404694 0
0.7372027761433181 0.2282036193153929 0
0.7874376103572188 0.6343814793387081 0
0.5259259057637017 0.1450380315205712 0
0.4331362939625489 0.4938084514426569 0
0.8054539041740179 0.8886290251752302 0
0.3592851313503413 0.5420779937558003 0
0.3094200861111152 0.5124435189282273 0
0.8586741903631745 0.7283060332196105 0
0.5625000000000009 0.8917468245269456 0
0.09720456233703789 0.1872143625186264 0
0.242840723286305 0.6589450268676744 0
0.1054970407447441 0.5596607803124127 0
0.7548704895006954 0.1270942151506023 0
0.881622372598762 0.5554273327333344 0
0.1893245444385814 0.08054795154493277 0
0.3994525037591687 0.09889381635855876 0
0.6788886194858448 0.9045901424888264 0
0.1190357872273787 0.3691539913895814 0
0.2029288320504163 0.7518880214375281 0
0.1927492168035008 0.8841324974475444 0
0.1140907389849707 0.4608235900981683 0
0.6025199953999382 0.1039181432346387 0
0.7513470476293423 0.3228020758923555 0
0.4252920935105935 0.8987950626248462 0
0.8466183500642697 0.2713659379084845 0
0.9015016086670674 0.4425408180695245 0
0.531308650878312 0.3589716576743545 0
0.8969317328565811 0.8244182147412673 0
0.5543555566860704 0.3035583307708696 0
0.1015069264779452 0.8077934871592797 0
0.1186043900412413 0.2747482532632021 0
0.2368085649602765 0.1425498441597529 0
0.5911920866759821 0.3761210977706315 0
0.1996241182405177 0.2644614748385028 0
0.2981010897215539 0.4538167714380916 0
0.5597355756778191 0.7751367072427068 0
0.1976610968765935 0.5755103917158726 0
0.3606437046847265 0.8089744910520313 0
0.6740420552311907 0.3550344008430286 0
0.6941359345743097 0.5770164817860665 0
0.481410985662738 0.5541918278253001 0
0.09082003661923838 0.0914944679130551 0
0.3319196099909144 0.08480781744296806 0
0.4643212785015177 0.1207268883140861 0
0.2840767231078432 0.5749344495049346 0
0.2550129961185123 0.08339118981958599 0
0.9102051490018059 0.3487487452207353 0
0.6796768813050862 0.07748959703207781 0
0.2742548102087455 0.8156925014153249 0
0.8012701472293283 0.7957233277001285 0
0.7721444999053607 0.549890685379866 0
0.9111782080787585 0.08696029492367008 0
0.9076545869804235 0.9089780817678734 0
0.09008838671370867 0.9100987778343004 0
0.1665503136627983 0.1545364686611562 0
0.8115449741454801 0.1743749766052023 0
0.1607102632130566 0.2172957932378121 0
0.4522974253903286 0.05818167991312695 0
0.5283441008425807 0.07131079049707056 0
0.9132152899881636 0.650315527060631 0
0.7161046449904078 0.8170523364667355 0
0.6324276036988705 0.8275819610056652 0
0.6897866116940434 0.2840554219641136 0
0.825764314011339 0.07682074299724945 0
0.2488973449670087 0.5169975133665208 0
0.4204461136569266 0.5691142074836926 0
$EndNodes
$Elements
6 326 1 326
1 1 1 8
1 1 9 
2 9 10 
3 10 11 
4 11 12 
5 12 13 
6 13 14 
7 14 15 
8 15 2 
1 2 1 8
9 3 16 
10 16 17 
11 17 18 
12 18 19 
13 19 20 
14 20 21 
15 21 22 
16 22 1 
1 3 1 8
17 2 23 
18 23 24 
19 24 25 
20 25 26 
21 26 27 
22 27 28 
23 28 29 
24 29 4 
1 4 1 8
25 4 30 
26 30 31 
27 31 32 
28 32 33 
29 33 34 
30 34 35 
31 35 36 
32 36 3 
2 2 2 42
33 54 55 51 
34 54 57 49 
35 51 58 54 
36 54 58 57 
37 50 55 54 
38 53 54 49 
39 57 58 52 
40 42 49 41 
41 45 50 44 
42 39 52 38 
43 48 51 47 
44 56 58 51 
45 44 53 43 
46 47 55 46 
47 38 56 37 
48 41 57 40 
49 50 54 53 
50 50 53 44 
51 51 55 47 
52 52 56 38 
53 49 57 41 
54 8 62 45 
55 37 61 5 
56 5 61 48 
57 40 60 6 
58 46 62 8 
59 7 59 42 
60 6 60 39 
61 43 59 7 
62 53 59 43 
63 55 62 46 
64 56 61 37 
65 57 60 40 
66 45 62 50 
67 39 60 52 
68 48 61 51 
69 42 59 49 
70 49 59 53 
71 50 62 55 
72 51 61 56 
73 52 60 57 
74 52 58 56 
2 3 2 252
75 133 163 70 
76 104 164 92 
77 43 102 63 
78 79 135 109 
79 24 123 85 
80 107 122 93 
81 64 131 67 
82 92 143 104 
83 21 129 20 
84 24 145 123 
85 105 163 133 
86 125 131 64 
87 93 134 107 
88 7 102 43 
89 116 119 20 
90 106 158 28 
91 110 135 79 
92 28 126 106 
93 112 158 100 
94 141 144 10 
95 100 149 112 
96 104 143 105 
97 99 123 121 
98 127 131 125 
99 20 119 19 
100 100 158 106 
101 102 104 63 
102 92 164 82 
103 33 122 107 
104 110 119 90 
105 70 163 90 
106 90 135 110 
107 118 128 117 
108 99 154 123 
109 11 141 10 
110 109 117 79 
111 112 149 94 
112 154 162 85 
113 98 131 127 
114 19 119 110 
115 117 147 118 
116 107 115 32 
117 108 129 21 
118 18 110 79 
119 67 131 73 
120 94 124 112 
121 35 118 69 
122 22 108 21 
123 19 110 18 
124 24 85 23 
125 35 69 34 
126 27 112 26 
127 33 107 32 
128 31 115 103 
129 115 159 103 
130 8 89 88 
131 103 159 148 
132 18 79 17 
133 117 128 79 
134 31 103 30 
135 36 118 35 
136 6 101 83 
137 10 113 9 
138 32 115 31 
139 79 128 17 
140 26 124 25 
141 81 82 74 
142 114 141 11 
143 85 162 150 
144 120 157 13 
145 34 122 33 
146 131 137 73 
147 112 124 26 
148 82 139 74 
149 69 122 34 
150 91 92 82 
151 25 145 24 
152 73 137 78 
153 129 132 88 
154 122 136 93 
155 78 121 95 
156 69 136 122 
157 89 116 88 
158 81 91 82 
159 76 138 100 
160 104 105 63 
161 9 140 1 
162 1 140 22 
163 76 100 87 
164 5 144 141 
165 17 128 16 
166 111 162 154 
167 29 126 28 
168 111 146 14 
169 28 158 27 
170 118 147 69 
171 134 160 107 
172 107 160 115 
173 120 146 97 
174 101 120 83 
175 72 74 68 
176 42 64 7 
177 96 109 92 
178 2 150 15 
179 23 150 2 
180 65 139 102 
181 89 119 116 
182 75 81 74 
183 4 151 29 
184 91 96 92 
185 6 66 40 
186 13 157 12 
187 14 162 111 
188 40 127 41 
189 100 106 87 
190 16 152 3 
191 121 123 95 
192 43 63 44 
193 41 125 42 
194 30 151 4 
195 84 98 66 
196 68 139 65 
197 3 152 36 
198 67 73 71 
199 73 78 77 
200 10 144 113 
201 81 93 91 
202 72 76 75 
203 78 95 94 
204 76 87 86 
205 140 153 108 
206 83 120 97 
207 124 145 25 
208 72 75 74 
209 76 86 75 
210 98 127 66 
211 44 133 45 
212 116 129 88 
213 65 102 7 
214 11 156 114 
215 96 117 109 
216 22 140 108 
217 95 124 94 
218 78 94 77 
219 64 65 7 
220 47 80 48 
221 73 77 71 
222 13 146 120 
223 46 132 47 
224 71 72 68 
225 113 153 140 
226 82 164 139 
227 67 68 65 
228 8 88 46 
229 97 99 84 
230 45 70 8 
231 67 71 68 
232 42 125 64 
233 75 134 81 
234 74 139 68 
235 66 127 40 
236 78 137 121 
237 64 67 65 
238 81 134 93 
239 41 127 125 
240 98 137 131 
241 97 111 99 
242 105 133 63 
243 12 156 11 
244 48 130 5 
245 85 150 23 
246 113 140 9 
247 91 136 96 
248 86 134 75 
249 102 164 104 
250 72 138 76 
251 93 136 91 
252 109 143 92 
253 138 149 100 
254 63 133 44 
255 27 158 112 
256 39 101 6 
257 129 155 132 
258 14 146 13 
259 38 142 39 
260 103 151 30 
261 95 145 124 
262 71 138 72 
263 36 152 118 
264 77 138 71 
265 90 119 89 
266 103 148 126 
267 15 162 14 
268 139 164 102 
269 121 161 99 
270 6 83 66 
271 126 148 106 
272 37 114 38 
273 5 141 37 
274 70 90 89 
275 83 97 84 
276 123 154 85 
277 45 133 70 
278 47 132 80 
279 126 151 103 
280 83 84 66 
281 123 145 95 
282 135 143 109 
283 88 132 46 
284 69 147 136 
285 106 148 87 
286 136 147 96 
287 118 152 128 
288 97 146 111 
289 99 161 84 
290 80 130 48 
291 90 163 135 
292 70 89 8 
293 86 160 134 
294 29 151 126 
295 77 149 138 
296 98 161 137 
297 84 161 98 
298 128 152 16 
299 96 147 117 
300 94 149 77 
301 142 157 101 
302 130 144 5 
303 148 159 87 
304 111 154 99 
305 87 159 86 
306 143 163 105 
307 108 155 129 
308 39 142 101 
309 101 157 120 
310 114 142 38 
311 156 157 142 
312 80 153 130 
313 37 141 114 
314 135 163 143 
315 132 155 80 
316 113 144 130 
317 137 161 121 
318 114 156 142 
319 130 153 113 
320 159 160 86 
321 153 155 108 
322 150 162 15 
323 80 155 153 
324 115 160 159 
325 12 157 156 
326 20 129 116 
$EndElements
