$MeshFormat
4.1 0 8
$EndMeshFormat
$PhysicalNames
3
1 101 "outer_boundary"
2 1 "material_1"
2 2 "material_2"
$EndPhysicalNames
$Entities
8 8 2 0
1 0 0 0 0 
2 1 0 0 0 
3 0 1 0 0 
4 1 1 0 0 
5 0.5435737483054042 0.8460170581827086 0 0 
6 0.2455531550785126 0.8733810774533971 0 0 
7 0.2181891358078241 0.5753604842265055 0 0 
8 0.5162097290347156 0.547996464955817 0 0 
1 -9.999999994736442e-08 -1e-07 -1e-07 1.0000001 1e-07 1e-07 1 101 2 1 -2 
2 -1e-07 -9.999999994736442e-08 -1e-07 1e-07 1.0000001 1e-07 1 101 2 3 -1 
3 0.9999999000000001 -9.999999994736442e-08 -1e-07 1.0000001 1.0000001 1e-07 1 101 2 2 -4 
4 -9.999999994736442e-08 0.9999999000000001 -1e-07 1.0000001 1.0000001 1e-07 1 101 2 4 -3 
5 0.2455530550785126 0.8460169581827086 -1e-07 0.5435738483054041 0.8733811774533971 1e-07 0 2 5 -6 
6 0.2181890358078241 0.5753603842265056 -1e-07 0.2455532550785126 0.8733811774533971 1e-07 0 2 6 -7 
7 0.2181890358078241 0.5479963649558171 -1e-07 0.5162098290347156 0.5753605842265055 1e-07 0 2 7 -8 
8 0.5162096290347157 0.5479963649558171 -1e-07 0.5435738483054041 0.8460171581827085 1e-07 0 2 8 -5 
2 0.2181890358078241 0.5479963649558171 -1e-07 0.5435738483054041 0.8733811774533971 1e-07 1 2 4 5 6 7 8 
3 -9.999999994736442e-08 -9.999999994736442e-08 -1e-07 1.0000001 1.0000001 1e-07 1 1 8 1 3 4 2 -5 -8 -7 -6 
$EndEntities
$Nodes
18 176 1 176
0 1 0 1
1
0 0 0
0 2 0 1
2
1 0 0
0 3 0 1
3
0 1 0
0 4 0 1
4
1 1 0
0 5 0 1
5
0.5435737483054042 0.8460170581827086 0
0 6 0 1
6
0.2455531550785126 0.8733810774533971 0
0 7 0 1
7
0.2181891358078241 0.5753604842265055 0
0 8 0 1
8
0.5162097290347156 0.547996464955817 0
1 1 0 7
9
10
11
12
13
14
15
0.1249999999999999 0 0
0.2499999999999998 0 0
0.3749999999999993 0 0
0.4999999999999988 0 0
0.6249999999999988 0 0
0.7499999999999991 0 0
0.8749999999999997 0 0
1 2 0 7
16
17
18
19
20
21
22
0 0.8750000000000001 0
0 0.7500000000000002 0
0 0.6250000000000007 0
0 0.5000000000000012 0
0 0.3750000000000012 0
0 0.2500000000000009 0
0 0.1250000000000003 0
1 3 0 7
23
24
25
26
27
28
29
1 0.1249999999999999 0
1 0.2499999999999998 0
1 0.3749999999999993 0
1 0.4999999999999988 0
1 0.6249999999999988 0
1 0.7499999999999991 0
1 0.8749999999999997 0
1 4 0 7
30
31
32
33
34
35
36
0.8750000000000001 1 0
0.7500000000000002 1 0
0.6250000000000007 1 0
0.5000000000000012 1 0
0.3750000000000012 1 0
0.2500000000000009 1 0
0.1250000000000003 1 0
1 5 0 4
37
38
39
40
0.4839696296600258 0.8514898620368463 0
0.4243655110146475 0.856962665890984 0
0.3647613923692693 0.8624354697451216 0
0.305157273723891 0.8679082735992594 0
1 6 0 4
41
42
43
44
0.2400803512243749 0.8137769588080188 0
0.2346075473702372 0.7541728401626404 0
0.2291347435160995 0.6945687215172622 0
0.2236619396619618 0.6349646028718838 0
1 7 0 4
45
46
47
48
0.2777932544532024 0.5698876803723678 0
0.3373973730985808 0.5644148765182301 0
0.397001491743959 0.5589420726640925 0
0.4566056103893373 0.5534692688099547 0
1 8 0 4
49
50
51
52
0.5216825328888534 0.6076005836011953 0
0.5271553367429911 0.6672047022465737 0
0.5326281405971287 0.7268088208919519 0
0.5381009444512664 0.7864129395373303 0
2 2 0 24
53
54
55
56
57
58
59
60
61
62
63
64
65
66
67
68
69
70
71
72
73
74
75
76
0.4898831128197975 0.698260434395181 0
0.2834898263602476 0.7196311936723386 0
0.3934618186766943 0.810600957368059 0
0.3745343025822203 0.6099183100343682 0
0.2768926333190598 0.660385009544177 0
0.327211059581166 0.6844935273045604 0
0.3322173131144178 0.746141754849812 0
0.3867271881944061 0.7101520193371135 0
0.4687808306648684 0.6470898865423317 0
0.2878822145210382 0.7791929980799226 0
0.449498745931997 0.8037500049953263 0
0.3342355952128203 0.8104397550374433 0
0.4829190526583013 0.7566508842727349 0
0.4295061532733552 0.6045329215122146 0
0.3175523351180001 0.6227674248969604 0
0.4196482065942939 0.7577322962359991 0
0.4090707122770746 0.6539753537244943 0
0.4345748218420271 0.6987227512199264 0
0.4765828563270228 0.595636078625685 0
0.4959341346355362 0.8063901854750157 0
0.2851800277862054 0.8257414637835291 0
0.265828749477692 0.6149873569341984 0
0.3736156084708457 0.768366140092644 0
0.3632089733140789 0.6552852135708206 0
2 3 0 100
77
78
79
80
81
82
83
84
85
86
87
88
89
90
91
92
93
94
95
96
97
98
99
100
101
102
103
104
105
106
107
108
109
110
111
112
113
114
115
116
117
118
119
120
121
122
123
124
125
126
127
128
129
130
131
132
133
134
135
136
137
138
139
140
141
142
143
144
145
146
147
148
149
150
151
152
153
154
155
156
157
158
159
160
161
162
163
164
165
166
167
168
169
170
171
172
173
174
175
176
0.3070295036194761 0.5165382663433945 0
0.4807114200163525 0.4985590489311975 0
0.5469865688772499 0.4903483399089724 0
0.5819697612785123 0.6282657549657895 0
0.5030520768004249 0.4339301978529149 0
0.5807449537520472 0.4264066374540392 0
0.5889519497279017 0.7567421027739392 0
0.3139217681941375 0.09500650632386154 0
0.5346102804872124 0.3633915748880426 0
0.6177795052298013 0.3542473367218926 0
0.4523291648026755 0.3732325014704333 0
0.6655543395081632 0.4256130307713751 0
0.1049869601717523 0.2971782392428399 0
0.896911077756821 0.6861549265951931 0
0.7075948097776024 0.3473799799667034 0
0.4852448799789896 0.2944326179735698 0
0.3986764765218584 0.3080007558325042 0
0.6565625462383807 0.270221831155129 0
0.7504073578759026 0.2574674848361356 0
0.7645689835942533 0.4281548147258476 0
0.7102768181872571 0.5151254522617178 0
0.1741149891792836 0.7994371297523417 0
0.1665341754548923 0.6717522548138144 0
0.8119703288398905 0.8949745718542264 0
0.3700536782872614 0.3866609027706979 0
0.3117389726627766 0.3219006798058071 0
0.8086513045775153 0.5249037062356799 0
0.7669259834992866 0.6039296748246392 0
0.4316278483349277 0.2225234833741894 0
0.5648187028917417 0.1007204278747665 0
0.2865011912698591 0.399295156241163 0
0.5825307908512121 0.5523043731226505 0
0.7019780046330246 0.1928117466714106 0
0.8039245815456086 0.1648305941254095 0
0.6319733577509091 0.6014618271086651 0
0.6413568825597259 0.6652375301787483 0
0.1009506053472906 0.5603163352051435 0
0.09843578680925458 0.4576942879847162 0
0.9075260600478232 0.3052132871873771 0
0.2070226924451707 0.3315043386474009 0
0.2560249360377293 0.2617793074670071 0
0.1166528857886493 0.1833804143050328 0
0.4430940990019531 0.106807565559712 0
0.8830044992443572 0.4359264844411585 0
0.6995649456476654 0.8953835001916495 0
0.7592050539795133 0.8072890415651508 0
0.6525663661432383 0.7989614939009533 0
0.1610304076875033 0.5037338225111927 0
0.1992592480624233 0.437424314732023 0
0.1925869157780049 0.08919290441455802 0
0.4301313630434829 0.4433350128285425 0
0.8850814841778271 0.8053158167569689 0
0.899036165069881 0.5751255081740357 0
0.5265480789186179 0.2101663502509926 0
0.4546018854228175 0.9223027432602671 0
0.3524937818490723 0.4621245864440228 0
0.08517421900656919 0.8130927470005234 0
0.6952489596833991 0.7214524620685645 0
0.7898080406315573 0.6987735693285209 0
0.5815104195871392 0.6922671744016501 0
0.5847464667250328 0.812581483116525 0
0.6084041099706665 0.8778316197150795 0
0.0903785549516759 0.7162426753609261 0
0.1507551028327215 0.8719284177043281 0
0.2287013014009186 0.5181334006569559 0
0.5359248955598193 0.9162735471991503 0
0.806421708921508 0.3383525660679731 0
0.1753781851075443 0.7312653164855452 0
0.1641953550707941 0.6077075085589327 0
0.3424978011187695 0.9158595586846621 0
0.5707936502736884 0.2835646975367634 0
0.4158450271105536 0.5054251149095915 0
0.3370746392186134 0.2405330506515573 0
0.9100198595804787 0.1940773693642106 0
0.394261809663521 0.9114565621501854 0
0.1044117381649306 0.6362037547877635 0
0.6215050089955367 0.48687109790343 0
0.3619534354843283 0.5214889833758662 0
0.6986840223935191 0.6200784241737458 0
0.6956738323679434 0.1034801567345088 0
0.6135520413184004 0.1947628069768326 0
0.2682417792789192 0.4658628925854021 0
0.09861308181691691 0.09214109854532931 0
0.8322665143070123 0.6177774770316138 0
0.9084936490538905 0.9084936490538904 0
0.1817192151742234 0.2483531009964867 0
0.9094021030307597 0.09059789696924009 0
0.3730458428860625 0.1643646701167119 0
0.8068001033888621 0.07178172956583162 0
0.6319269155402808 0.7269321526647711 0
0.2784134861668098 0.9342093742237778 0
0.1998673928495702 0.9317318106570953 0
0.08849936577681888 0.9177565497054202 0
0.1993559732846017 0.8503629494083388 0
0.8370474711345779 0.2472976782909278 0
0.1294232507222588 0.763830780539458 0
0.2521857917399832 0.1741195022900446 0
0.1219409374977202 0.3797602361213963 0
0.1712781643394229 0.5562764773569385 0
0.6507666038662046 0.5492825830658485 0
$EndNodes
$Elements
6 350 1 350
1 1 1 8
1 1 9 
2 9 10 
3 10 11 
4 11 12 
5 12 13 
6 13 14 
7 14 15 
8 15 2 
1 2 1 8
9 3 16 
10 16 17 
11 17 18 
12 18 19 
13 19 20 
14 20 21 
15 21 22 
16 22 1 
1 3 1 8
17 2 23 
18 23 24 
19 24 25 
20 25 26 
21 26 27 
22 27 28 
23 28 29 
24 29 4 
1 4 1 8
25 4 30 
26 30 31 
27 31 32 
28 32 33 
29 33 34 
30 34 35 
31 35 36 
32 36 3 
2 2 2 66
33 68 70 65 
34 65 70 53 
35 57 67 58 
36 59 64 62 
37 61 70 69 
38 63 68 65 
39 61 69 66 
40 59 75 64 
41 67 76 58 
42 53 70 61 
43 38 63 37 
44 42 62 41 
45 44 57 43 
46 50 61 49 
47 58 59 54 
48 57 58 54 
49 43 57 54 
50 58 60 59 
51 43 54 42 
52 51 53 50 
53 53 61 50 
54 54 62 42 
55 47 56 46 
56 39 55 38 
57 59 62 54 
58 55 63 38 
59 46 67 45 
60 52 65 51 
61 40 64 39 
62 48 66 47 
63 39 64 55 
64 47 66 56 
65 56 67 46 
66 51 65 53 
67 55 68 63 
68 6 73 40 
69 41 73 6 
70 7 74 44 
71 8 71 48 
72 45 74 7 
73 37 72 5 
74 49 71 8 
75 5 72 52 
76 60 70 68 
77 66 69 56 
78 58 76 60 
79 60 75 59 
80 64 75 55 
81 56 76 67 
82 60 76 69 
83 68 75 60 
84 67 74 45 
85 48 71 66 
86 52 72 65 
87 40 73 64 
88 62 73 41 
89 44 74 57 
90 61 71 49 
91 63 72 37 
92 64 73 62 
93 65 72 63 
94 66 71 61 
95 57 74 67 
96 69 70 60 
97 55 75 68 
98 69 76 56 
2 3 2 252
99 122 135 128 
100 125 158 141 
101 49 108 80 
102 34 151 131 
103 134 155 135 
104 125 141 124 
105 135 155 104 
106 120 129 103 
107 8 108 49 
108 155 176 97 
109 32 138 121 
110 96 120 103 
111 96 143 120 
112 103 160 104 
113 32 142 138 
114 128 135 90 
115 26 129 120 
116 122 128 100 
117 119 130 105 
118 118 173 162 
119 156 157 106 
120 111 176 155 
121 104 155 97 
122 106 130 119 
123 108 111 80 
124 129 160 103 
125 121 122 100 
126 109 156 110 
127 83 166 123 
128 109 157 156 
129 31 121 100 
130 126 173 118 
131 98 140 133 
132 11 119 84 
133 133 172 98 
134 5 142 37 
135 156 165 110 
136 34 131 33 
137 21 118 89 
138 32 121 31 
139 104 160 135 
140 78 127 81 
141 19 114 113 
142 112 155 134 
143 20 174 114 
144 114 124 113 
145 101 132 107 
146 98 170 140 
147 123 137 83 
148 19 113 18 
149 18 152 139 
150 121 123 122 
151 21 89 20 
152 28 90 27 
153 89 174 20 
154 34 167 146 
155 149 173 164 
156 20 114 19 
157 99 144 139 
158 11 84 10 
159 7 175 141 
160 37 142 131 
161 148 154 132 
162 119 164 84 
163 81 127 87 
164 13 106 12 
165 120 143 115 
166 106 119 12 
167 132 158 107 
168 168 169 140 
169 22 118 21 
170 121 138 123 
171 28 128 90 
172 127 148 132 
173 77 158 132 
174 18 139 17 
175 87 127 101 
176 25 115 24 
177 84 126 10 
178 25 120 115 
179 87 101 93 
180 26 120 25 
181 12 119 11 
182 113 152 18 
183 31 100 30 
184 90 129 27 
185 33 142 32 
186 101 107 102 
187 123 138 137 
188 123 166 134 
189 116 174 89 
190 96 97 88 
191 103 104 97 
192 27 129 26 
193 10 126 9 
194 114 125 124 
195 97 153 88 
196 89 162 116 
197 13 156 106 
198 111 112 80 
199 29 128 28 
200 115 150 24 
201 1 159 22 
202 78 148 127 
203 9 159 1 
204 107 125 116 
205 96 103 97 
206 118 162 89 
207 101 102 93 
208 127 132 101 
209 117 173 149 
210 35 167 34 
211 40 167 6 
212 48 78 8 
213 97 176 153 
214 131 142 33 
215 107 158 125 
216 107 116 102 
217 81 87 85 
218 17 133 16 
219 49 80 50 
220 141 175 124 
221 50 136 51 
222 105 164 119 
223 51 83 52 
224 140 169 133 
225 4 161 29 
226 30 161 4 
227 87 93 92 
228 109 110 95 
229 110 163 150 
230 164 173 84 
231 86 88 82 
232 45 77 46 
233 47 148 48 
234 162 173 117 
235 2 163 15 
236 23 163 2 
237 105 130 92 
238 91 96 88 
239 112 136 80 
240 86 94 91 
241 79 153 108 
242 94 109 95 
243 125 174 116 
244 52 137 5 
245 86 91 88 
246 93 105 92 
247 94 95 91 
248 116 117 102 
249 139 152 99 
250 87 92 85 
251 110 165 163 
252 7 141 45 
253 79 108 8 
254 123 134 122 
255 82 153 79 
256 134 135 122 
257 36 169 168 
258 24 150 23 
259 78 79 8 
260 85 86 82 
261 81 85 82 
262 48 148 78 
263 115 171 150 
264 132 154 77 
265 80 136 50 
266 78 81 79 
267 51 136 83 
268 41 98 42 
269 116 162 117 
270 42 144 43 
271 81 82 79 
272 43 99 44 
273 44 145 7 
274 147 157 94 
275 90 160 129 
276 134 166 112 
277 168 170 6 
278 22 159 118 
279 130 157 147 
280 91 143 96 
281 130 147 92 
282 36 168 35 
283 106 157 130 
284 93 149 105 
285 86 147 94 
286 95 143 91 
287 46 154 47 
288 17 139 133 
289 145 152 113 
290 83 137 52 
291 102 149 93 
292 108 176 111 
293 29 161 128 
294 88 153 82 
295 47 154 148 
296 92 147 85 
297 77 154 46 
298 14 165 156 
299 85 147 86 
300 84 173 126 
301 126 159 9 
302 3 169 36 
303 16 169 3 
304 45 141 77 
305 117 149 102 
306 144 172 139 
307 137 138 5 
308 100 161 30 
309 14 156 13 
310 133 169 16 
311 118 159 126 
312 128 161 100 
313 37 131 38 
314 38 151 39 
315 124 175 113 
316 15 165 14 
317 111 155 112 
318 39 146 40 
319 135 160 90 
320 113 175 145 
321 153 176 108 
322 138 142 5 
323 139 172 133 
324 94 157 109 
325 95 171 143 
326 146 167 40 
327 114 174 125 
328 6 170 41 
329 98 144 42 
330 146 151 34 
331 43 144 99 
332 110 171 95 
333 99 145 44 
334 143 171 115 
335 99 152 145 
336 167 168 6 
337 150 171 110 
338 41 170 98 
339 141 158 77 
340 149 164 105 
341 150 163 23 
342 140 170 168 
343 112 166 136 
344 136 166 83 
345 131 151 38 
346 39 151 146 
347 163 165 15 
348 145 175 7 
349 98 172 144 
350 35 168 167 
$EndElements
