$MeshFormat
4.1 0 8
$EndMeshFormat
$PhysicalNames
3
1 101 "outer_boundary"
2 1 "material_1"
2 2 "material_2"
$EndPhysicalNames
$Entities
7 7 2 0
1 0 0 0 0 
2 1 0 0 0 
3 0 1 0 0 
4 1 1 0 0 
5 0.2075458841383319 0.4680772500274809 0 0 
6 0.2365264006580195 0.1224503649949318 0 0 
7 0.5213578050672468 0.3203616710320504 0 0 
1 -9.999999994736442e-08 -1e-07 -1e-07 1.0000001 1e-07 1e-07 1 101 2 1 -2 
2 -1e-07 -9.999999994736442e-08 -1e-07 1e-07 1.0000001 1e-07 1 101 2 3 -1 
3 0.9999999000000001 -9.999999994736442e-08 -1e-07 1.0000001 1.0000001 1e-07 1 101 2 2 -4 
4 -9.999999994736442e-08 0.9999999000000001 -1e-07 1.0000001 1.0000001 1e-07 1 101 2 4 -3 
5 0.2075457841383319 0.1224502649949318 -1e-07 0.2365265006580195 0.4680773500274809 1e-07 0 2 5 -6 
6 0.2365263006580195 0.1224502649949318 -1e-07 0.5213579050672468 0.3203617710320504 1e-07 0 2 6 -7 
7 0.2075457841383319 0.3203615710320504 -1e-07 0.5213579050672468 0.4680773500274809 1e-07 0 2 7 -5 
2 0.2075457841383319 0.1224502649949318 -1e-07 0.5213579050672468 0.4680773500274809 1e-07 1 2 3 5 6 7 
3 -9.999999994736442e-08 -9.999999994736442e-08 -1e-07 1.0000001 1.0000001 1e-07 1 1 7 1 3 4 2 -5 -7 -6 
$EndEntities
$Nodes
16 321 1 321
0 1 0 1
1
0 0 0
0 2 0 1
2
1 0 0
0 3 0 1
3
0 1 0
0 4 0 1
4
1 1 0
0 5 0 1
5
0.2075458841383319 0.4680772500274809 0
0 6 0 1
6
0.2365264006580195 0.1224503649949318 0
0 7 0 1
7
0.5213578050672468 0.3203616710320504 0
1 1 0 11
8
9
10
11
12
13
14
15
16
17
18
0.08333333333333318 0 0
0.1666666666666664 0 0
0.2499999999999997 0 0
0.333333333333333 0 0
0.4166666666666664 0 0
0.4999999999999998 0 0
0.5833333333333331 0 0
0.6666666666666665 0 0
0.7499999999999999 0 0
0.8333333333333331 0 0
0.9166666666666666 0 0
1 2 0 11
19
20
21
22
23
24
25
26
27
28
29
0 0.9166666666666669 0
0 0.8333333333333337 0
0 0.7500000000000003 0
0 0.666666666666667 0
0 0.5833333333333337 0
0 0.5000000000000002 0
0 0.4166666666666669 0
0 0.3333333333333335 0
0 0.2500000000000001 0
0 0.1666666666666669 0
0 0.08333333333333337 0
1 3 0 11
30
31
32
33
34
35
36
37
38
39
40
1 0.08333333333333318 0
1 0.1666666666666664 0
1 0.2499999999999997 0
1 0.333333333333333 0
1 0.4166666666666664 0
1 0.4999999999999998 0
1 0.5833333333333331 0
1 0.6666666666666665 0
1 0.7499999999999999 0
1 0.8333333333333331 0
1 0.9166666666666666 0
1 4 0 11
41
42
43
44
45
46
47
48
49
50
51
0.9166666666666669 1 0
0.8333333333333337 1 0
0.7500000000000003 1 0
0.666666666666667 1 0
0.5833333333333337 1 0
0.5000000000000002 1 0
0.4166666666666669 1 0
0.3333333333333335 1 0
0.2500000000000001 1 0
0.1666666666666669 1 0
0.08333333333333337 1 0
1 5 0 7
52
53
54
55
56
57
58
0.2111684487032928 0.4248738893984123 0
0.2147910132682538 0.3816705287693437 0
0.2184135778332147 0.3384671681402749 0
0.2220361423981757 0.2952638075112062 0
0.2256587069631367 0.2520604468821375 0
0.2292812715280976 0.2088570862530688 0
0.2329038360930586 0.1656537256240003 0
1 6 0 7
59
60
61
62
63
64
65
0.2721303262091729 0.1471892782495716 0
0.3077342517603263 0.1719281915042114 0
0.3433381773114798 0.1966671047588512 0
0.3789421028626333 0.2214060180134911 0
0.4145460284137868 0.246144931268131 0
0.4501499539649402 0.2708838445227709 0
0.4857538795160936 0.2956227577774106 0
1 7 0 7
66
67
68
69
70
71
72
0.4821313149511325 0.3388261184064792 0
0.4429048248350181 0.357290565780908 0
0.4036783347189037 0.3757550131553369 0
0.3644518446027892 0.3942194605297657 0
0.3252253544866748 0.4126839079041946 0
0.2859988643705603 0.4311483552786234 0
0.2467723742544461 0.4496128026530521 0
2 2 0 21
73
74
75
76
77
78
79
80
81
82
83
84
85
86
87
88
89
90
91
92
93
0.2576400679493291 0.3200027207658461 0
0.3753195382976723 0.2646093786425598 0
0.3041116871953654 0.2151315521332801 0
0.3680744091677502 0.351016099900697 0
0.2896214289355213 0.3879449946495547 0
0.4465273893999791 0.3140872051518394 0
0.268507761644212 0.1903926388786401 0
0.2503949388194071 0.4064094420239835 0
0.4073008992838646 0.3325516525262682 0
0.2612626325142901 0.2767993601367774 0
0.2968665580654435 0.3015382733914173 0
0.2932439935004825 0.344741634020486 0
0.3397156127465188 0.23987046538792 0
0.264885197079251 0.2335959995077087 0
0.3360930481815579 0.2830738260169886 0
0.2540175033843681 0.3632060813949148 0
0.4109234638488257 0.2893482918971996 0
0.3004891226304044 0.2583349127623487 0
0.3716969737327113 0.3078127392716284 0
0.3324704836165969 0.3262771866460572 0
0.3288479190516358 0.3694805472751259 0
2 3 0 228
94
95
96
97
98
99
100
101
102
103
104
105
106
107
108
109
110
111
112
113
114
115
116
117
118
119
120
121
122
123
124
125
126
127
128
129
130
131
132
133
134
135
136
137
138
139
140
141
142
143
144
145
146
147
148
149
150
151
152
153
154
155
156
157
158
159
160
161
162
163
164
165
166
167
168
169
170
171
172
173
174
175
176
177
178
179
180
181
182
183
184
185
186
187
188
189
190
191
192
193
194
195
196
197
198
199
200
201
202
203
204
205
206
207
208
209
210
211
212
213
214
215
216
217
218
219
220
221
222
223
224
225
226
227
228
229
230
231
232
233
234
235
236
237
238
239
240
241
242
243
244
245
246
247
248
249
250
251
252
253
254
255
256
257
258
259
260
261
262
263
264
265
266
267
268
269
270
271
272
273
274
275
276
277
278
279
280
281
282
283
284
285
286
287
288
289
290
291
292
293
294
295
296
297
298
299
300
301
302
303
304
305
306
307
308
309
310
311
312
313
314
315
316
317
318
319
320
321
0.5177035155679023 0.3648093084161271 0
0.36063125248801 0.4370021248028513 0
0.243326744343174 0.4935805692980354 0
0.6271968145562683 0.9281631850047648 0
0.559263792849042 0.345312797274332 0
0.5553370482915347 0.3930433813247819 0
0.931065456284249 0.6195372455715296 0
0.379294775499346 0.9286251147802627 0
0.6002081661854535 0.3713552090388286 0
0.5959458063363799 0.4231004490266503 0
0.6437756246933316 0.4002365282615231 0
0.6393765355130845 0.4543767663622191 0
0.5891716461329378 0.4771959110833911 0
0.6344508218337912 0.510770896773052 0
0.5789833264378007 0.5338546187639892 0
0.6286516427459833 0.5697657869265714 0
0.5703684251070308 0.5939560483990677 0
0.6459675298089449 0.348678403357883 0
0.07566635475424266 0.7098727582784667 0
0.5218773498107805 0.2808602285758933 0
0.687237997030143 0.4293266253459689 0
0.934059411577299 0.2061248661935352 0
0.6227355635875279 0.6317923070929368 0
0.5642292016057933 0.6569758638633514 0
0.5118180960817652 0.6183615105237175 0
0.9309875392324414 0.7872787544223255 0
0.4537725185299011 0.2276804838937023 0
0.3798025035955379 0.1725939754960172 0
0.2032449343488211 0.5122569339404893 0
0.24149545387613 0.5406758886446353 0
0.4388300065705534 0.4003606455497962 0
0.6851117368246401 0.5407063735997337 0
0.5054677834469337 0.6816199521577744 0
0.45388245330465 0.6434747717181606 0
0.7079489362093492 0.06352410838692529 0
0.2138619715068715 0.9313749108163336 0
0.4462773629827668 0.7068828053455951 0
0.3946977611627569 0.6682366066746015 0
0.6169057577885464 0.696129393988246 0
0.6777723482901117 0.6693526620235797 0
0.9362681605423533 0.3628041424343662 0
0.187935967990394 0.1406577848014189 0
0.1900547814119833 0.2273215336274976 0
0.4598486021042604 0.581936112160272 0
0.1972638932514214 0.5625658324080808 0
0.2394891878564154 0.5926332914359952 0
0.4980665855968849 0.7468049695654118 0
0.3868893084802229 0.7322072296452339 0
0.1789076953747847 0.3146009681092284 0
0.6713045962206616 0.7362691901814508 0
0.172469387669261 0.3999512749045233 0
0.2828997514087034 0.5683006544903272 0
0.7352610104450741 0.7072082157933449 0
0.7250329978662438 0.7865843083951691 0
0.5358341650283551 0.0681354485080598 0
0.1660197012896329 0.4916687379555373 0
0.3362815396698615 0.6958785498250413 0
0.3268294964812226 0.7571447930709641 0
0.2746016724614102 0.7199449768470584 0
0.1895177633957137 0.6161452042414259 0
0.5392070879742619 0.4934008285253964 0
0.3170902545767692 0.1336126382345159 0
0.2637615679909068 0.7835730469368729 0
0.7911122921348133 0.9308724409207479 0
0.143056962625119 0.5820173468093001 0
0.7410609407883941 0.6390723249508089 0
0.2103060541429403 0.7479644706688724 0
0.6076980730005817 0.7653813669625323 0
0.07025608604824052 0.1338573217892029 0
0.7996935276890448 0.6804195314239976 0
0.8063825040960779 0.605816881380333 0
0.8760381105718111 0.07812874486637383 0
0.3722185564634004 0.79820731770574 0
0.06958098032342308 0.8750304699875663 0
0.5129417398324592 0.410477176715595 0
0.07602506200432801 0.2933478272560456 0
0.1987848349963166 0.8114880457969993 0
0.06273745086040566 0.4528759723592029 0
0.1954101368413638 0.08862420171996177 0
0.3441421102633322 0.6290869934717358 0
0.3749999999999997 0.07216878364870322 0
0.06928239230688976 0.5366672902121192 0
0.1291602651487548 0.6467975943523567 0
0.4584589911245912 0.06720371147365312 0
0.4952232396077453 0.1301283740394641 0
0.565201149780972 0.1337405755498188 0
0.5252026006246931 0.1811866177769105 0
0.5887235580168332 0.1938016012036426 0
0.6280572999230665 0.147219800151523 0
0.6515539103811003 0.2076345312610795 0
0.6100472119971451 0.261456892258918 0
0.675569793156364 0.2658344487712086 0
0.7169104665780006 0.2187506976491537 0
0.7391209447063128 0.2808648379105003 0
0.783856918989128 0.2315142906212169 0
0.805229083609962 0.2977847087120709 0
0.7527765404180256 0.3514443187728787 0
0.7682873041843266 0.1690302822751695 0
0.8225881055371258 0.3654132092305579 0
0.7814029389579855 0.4147697547020301 0
0.8469524191108814 0.4329074684715619 0
0.7955224282433189 0.4745220832280312 0
0.8700640916781861 0.4979760217669138 0
0.8265467362601306 0.1841821068586586 0
0.07386395624252495 0.3752254887319981 0
0.141536406538061 0.7689619144634949 0
0.07865931018156125 0.2110019662829993 0
0.1356128634350022 0.1644748676252168 0
0.4218574556131476 0.1359035981263473 0
0.2368235700831697 0.6445465873939082 0
0.2580118201730327 0.8569788111640755 0
0.871058978880038 0.3224073849404899 0
0.403224814828708 0.6065747364272933 0
0.412215967289965 0.5477042587261332 0
0.4617333614084883 0.523762474289189 0
0.424062195877142 0.4927102248797712 0
0.3708072533077754 0.5130492254445367 0
0.4662883688770135 0.4726422556681713 0
0.1261758137183911 0.2504509669551563 0
0.3579960028720702 0.5713406953672835 0
0.5168287059028844 0.5490620614246 0
0.6199798463983381 0.06927039661541057 0
0.1205573630932008 0.337461342536899 0
0.1348845814318985 0.1055353718670841 0
0.7922051658255336 0.06914718576745538 0
0.7082265462404683 0.929490562436315 0
0.6760445244123117 0.8597658143483844 0
0.5974559076932727 0.8474202945412963 0
0.5472398683784543 0.9258875528583195 0
0.513435930662944 0.859462385420973 0
0.465137530276767 0.9278854240010763 0
0.4288924792767995 0.8511806588671466 0
0.7560962216072179 0.863597639543938 0
0.8029168914768484 0.8051075420919891 0
0.9307000706401521 0.7030263601836894 0
0.2946567825393672 0.930237510473841 0
0.2459900065734492 0.06846255233916232 0
0.8738555997556707 0.9331810526857981 0
0.8549569627384765 0.7397947078705975 0
0.743810411735058 0.5719088090588442 0
0.9328451506015834 0.5366655825790528 0
0.07936509156590366 0.6005976805509908 0
0.3214251050841364 0.4555097889161549 0
0.3996726018302956 0.4182822751771879 0
0.2825507836990646 0.4747871486844025 0
0.3217732335733267 0.4967924435367144 0
0.4778262972403078 0.3827964108638865 0
0.9394002663001507 0.1271210318917341 0
0.9230772498552251 0.4474192079746815 0
0.3334387947236191 0.8644462260823744 0
0.0677867935722124 0.7932973237320731 0
0.9205263714190226 0.8704519933699739 0
0.1305057638467609 0.9224073111983581 0
0.4182158368694746 0.1973197196595575 0
0.4603744122018407 0.1801893111596556 0
0.4924513436507758 0.2535567930797195 0
0.4363398496630436 0.7730962561116506 0
0.5574060606166811 0.7248429523766802 0
0.5501439305013593 0.4417175504437892 0
0.1189149895333619 0.4178251061561523 0
0.6030349013787064 0.321744370407515 0
0.6971022502756878 0.160328463425759 0
0.6831904406619524 0.6037663772754125 0
0.7410400940673272 0.5119346610372438 0
0.2853727351035508 0.6213012295386786 0
0.8634079592738813 0.2410503546212306 0
0.1873421015732517 0.1864405976572282 0
0.1816088207044109 0.2714424506301576 0
0.1661238599076717 0.4448110258204512 0
0.1756762729836896 0.357646170753109 0
0.309449575798572 0.06190181627442287 0
0.3624499704531443 0.1277919961850863 0
0.2833428089457503 0.1044922144602327 0
0.5613126308517697 0.2939557348781915 0
0.8678526750540425 0.5751173441827988 0
0.6914080374749776 0.3763414561216909 0
0.8651085327503405 0.6539520117688243 0
0.2822994450686716 0.5195507575456344 0
0.1590057913128289 0.705624973563524 0
0.1322379658109769 0.8404977391441977 0
0.6867141707120102 0.4835278698677318 0
0.5414963330038913 0.2395875516801964 0
0.5475913763073053 0.7965619430689452 0
0.1277105542998115 0.5259839945570742 0
0.6943422424372294 0.320691883522103 0
0.4344167043166231 0.4436962042515838 0
0.8332440775126222 0.8697651690710231 0
0.9341324183789286 0.2859533469204925 0
0.8044542548784346 0.5429398310004231 0
0.07477169671853456 0.0630531127993037 0
0.4730938952129233 0.427176708172659 0
0.7891514464996487 0.7422624408621969 0
0.392029890028727 0.4623260104843451 0
0.6602501465361201 0.7978841555243377 0
0.3533333468963951 0.4729359186369205 0
0.5062528441007668 0.4572628928060298 0
0.1439779083934005 0.04850428330191731 0
0.4851022616947645 0.8048136177308114 0
0.136654950979023 0.2934607110974974 0
0.8685263684758822 0.8144796333651818 0
0.3420830315394515 0.1605187812357364 0
0.1198376040113768 0.4707831100481988 0
0.1322963939044076 0.3776218766165363 0
0.9384956699784681 0.9384956699784681 0
0.9389957660359267 0.0610042339640734 0
0.0610042339640729 0.9389957660359269 0
0.3116846416339427 0.8119939443581352 0
0.7316464841857241 0.4046684817351974 0
0.1482638889809746 0.2116785880121664 0
0.8249634236416008 0.1237790824478167 0
0.1891366804286808 0.6667677472682112 0
0.7372606855327515 0.4531249126527006 0
0.4918487566309941 0.2133740125038057 0
0.1866804712667917 0.8725493636239928 0
0.289331984131868 0.6705451999048631 0
0.6673044071375116 0.108741357704514 0
0.6447427572682963 0.303133443563634 0
0.3192963300374321 0.5926774952284481 0
0.3217507035116307 0.5431678406196915 0
0.1674592091629612 0.5348985691340964 0
0.2004089436949759 0.04111820747220829 0
0.7466574949614548 0.1132289593812226 0
0.05571955509179571 0.6508619177512281 0
0.8836983758166492 0.1647701022132553 0
0.3294665219548471 0.09999348976059214 0
0.4966510915674068 0.498550324640054 0
0.8799889827851248 0.3861902826103315 0
0.2263034704790421 0.6974174496327872 0
$EndNodes
$Elements
6 640 1 640
1 1 1 12
1 1 8 
2 8 9 
3 9 10 
4 10 11 
5 11 12 
6 12 13 
7 13 14 
8 14 15 
9 15 16 
10 16 17 
11 17 18 
12 18 2 
1 2 1 12
13 3 19 
14 19 20 
15 20 21 
16 21 22 
17 22 23 
18 23 24 
19 24 25 
20 25 26 
21 26 27 
22 27 28 
23 28 29 
24 29 1 
1 3 1 12
25 2 30 
26 30 31 
27 31 32 
28 32 33 
29 33 34 
30 34 35 
31 35 36 
32 36 37 
33 37 38 
34 38 39 
35 39 40 
36 40 4 
1 4 1 12
37 4 41 
38 41 42 
39 42 43 
40 43 44 
41 44 45 
42 45 46 
43 46 47 
44 47 48 
45 48 49 
46 49 50 
47 50 51 
48 51 3 
2 2 2 64
49 5 52 72 
50 6 59 58 
51 65 7 66 
52 53 88 80 
53 66 78 65 
54 67 78 66 
55 71 77 70 
56 80 88 77 
57 62 85 61 
58 84 88 73 
59 55 73 54 
60 58 79 57 
61 65 78 64 
62 55 82 73 
63 59 79 58 
64 67 81 78 
65 71 80 77 
66 77 88 84 
67 61 75 60 
68 54 88 53 
69 60 79 59 
70 78 89 64 
71 83 84 73 
72 56 82 55 
73 69 76 68 
74 53 80 52 
75 79 86 57 
76 63 74 62 
77 92 93 84 
78 57 86 56 
79 64 89 63 
80 69 93 76 
81 82 83 73 
82 84 93 77 
83 81 91 89 
84 87 92 83 
85 74 85 62 
86 75 90 86 
87 76 93 92 
88 81 89 78 
89 73 88 54 
90 75 79 60 
91 61 85 75 
92 75 86 79 
93 83 92 84 
94 68 81 67 
95 76 91 81 
96 72 80 71 
97 85 90 75 
98 91 92 87 
99 76 81 68 
100 56 86 82 
101 70 93 69 
102 77 93 70 
103 74 87 85 
104 86 90 82 
105 87 90 85 
106 89 91 74 
107 74 91 87 
108 52 80 72 
109 76 92 91 
110 63 89 74 
111 82 90 83 
112 83 90 87 
2 3 2 528
113 101 243 225 
114 225 243 166 
115 202 247 121 
116 201 217 135 
117 135 260 201 
118 1 283 29 
119 148 178 177 
120 163 270 232 
121 162 201 200 
122 232 270 228 
123 267 275 184 
124 161 287 221 
125 8 283 1 
126 202 248 247 
127 220 287 147 
128 147 226 220 
129 101 225 224 
130 175 295 277 
131 113 275 267 
132 169 216 198 
133 176 272 112 
134 169 198 26 
135 148 177 13 
136 177 202 174 
137 162 200 28 
138 249 306 275 
139 110 214 108 
140 175 277 158 
141 136 261 212 
142 179 215 182 
143 148 215 179 
144 112 272 199 
145 134 281 33 
146 202 265 174 
147 249 275 113 
148 221 276 161 
149 171 295 175 
150 199 244 112 
151 205 281 134 
152 135 217 172 
153 121 265 202 
154 207 213 210 
155 10 264 230 
156 108 214 154 
157 201 302 200 
158 142 263 216 
159 196 242 234 
160 234 242 35 
161 206 207 137 
162 118 214 110 
163 101 224 47 
164 206 213 207 
165 178 202 177 
166 180 248 178 
167 179 180 178 
168 200 302 212 
169 127 206 137 
170 148 179 178 
171 12 177 174 
172 158 235 175 
173 221 287 220 
174 112 316 176 
175 251 276 140 
176 25 198 171 
177 128 215 15 
178 254 267 184 
179 115 281 259 
180 27 200 169 
181 159 256 233 
182 204 229 129 
183 46 224 222 
184 200 212 169 
185 12 174 11 
186 233 256 125 
187 166 250 225 
188 8 290 283 
189 169 292 216 
190 212 302 136 
191 171 175 24 
192 25 171 24 
193 222 224 223 
194 27 169 26 
195 29 283 162 
196 224 225 223 
197 29 162 28 
198 46 222 45 
199 194 320 242 
200 280 293 245 
201 194 242 196 
202 207 209 208 
203 207 208 137 
204 14 148 13 
205 231 280 245 
206 180 306 248 
207 165 317 303 
208 47 224 46 
209 212 292 169 
210 162 217 201 
211 210 286 209 
212 173 213 206 
213 97 220 219 
214 228 270 100 
215 232 285 163 
216 178 248 202 
217 16 218 128 
218 259 281 205 
219 9 290 8 
220 175 235 23 
221 127 137 118 
222 269 278 190 
223 173 206 131 
224 97 219 44 
225 131 206 127 
226 26 198 25 
227 14 215 148 
228 207 210 209 
229 144 262 253 
230 129 229 49 
231 100 270 268 
232 28 200 27 
233 241 317 165 
234 22 112 21 
235 161 276 251 
236 13 177 12 
237 209 211 208 
238 216 292 142 
239 210 288 286 
240 191 315 303 
241 150 173 131 
242 137 214 118 
243 112 244 21 
244 235 316 23 
245 97 221 220 
246 257 282 233 
247 11 264 10 
248 183 184 181 
249 179 181 180 
250 119 228 38 
251 219 226 157 
252 198 253 171 
253 34 134 33 
254 213 312 210 
255 48 101 47 
256 37 100 36 
257 16 128 15 
258 250 291 225 
259 32 115 31 
260 24 175 23 
261 119 232 228 
262 195 282 257 
263 125 257 233 
264 174 264 11 
265 100 268 234 
266 45 222 97 
267 226 280 157 
268 37 228 100 
269 45 97 44 
270 259 317 115 
271 43 219 157 
272 48 229 101 
273 275 306 180 
274 128 309 215 
275 220 226 219 
276 165 218 17 
277 210 312 239 
278 147 227 226 
279 222 223 221 
280 195 305 193 
281 260 302 201 
282 17 218 16 
283 191 303 197 
284 43 157 42 
285 183 185 184 
286 44 219 43 
287 108 154 106 
288 126 127 118 
289 15 215 14 
290 157 231 42 
291 227 280 226 
292 192 193 190 
293 50 129 49 
294 189 190 187 
295 204 243 229 
296 18 165 17 
297 130 131 127 
298 117 118 110 
299 49 229 48 
300 38 228 37 
301 196 282 195 
302 167 273 246 
303 20 167 19 
304 39 119 38 
305 97 222 221 
306 42 231 41 
307 154 252 106 
308 133 256 159 
309 216 296 198 
310 184 275 181 
311 36 234 35 
312 20 244 167 
313 273 307 246 
314 100 234 36 
315 141 150 131 
316 229 243 101 
317 208 214 137 
318 159 233 164 
319 133 159 146 
320 199 273 244 
321 194 195 193 
322 159 164 163 
323 35 242 34 
324 115 241 31 
325 99 252 168 
326 117 126 118 
327 189 192 190 
328 31 241 30 
329 242 320 134 
330 198 296 253 
331 34 242 134 
332 40 245 39 
333 244 273 167 
334 173 308 258 
335 126 130 127 
336 190 278 187 
337 51 246 50 
338 309 315 255 
339 130 141 131 
340 151 152 150 
341 150 308 173 
342 103 252 99 
343 268 270 164 
344 192 194 193 
345 105 106 103 
346 261 292 212 
347 23 316 22 
348 268 282 196 
349 182 183 181 
350 190 301 269 
351 186 187 185 
352 123 145 139 
353 159 163 146 
354 69 95 70 
355 209 279 211 
356 68 237 69 
357 72 96 5 
358 71 238 72 
359 70 236 71 
360 50 246 129 
361 7 94 66 
362 66 240 67 
363 143 161 132 
364 39 245 119 
365 67 124 68 
366 33 281 32 
367 156 160 152 
368 188 189 187 
369 141 151 150 
370 194 196 195 
371 21 244 20 
372 183 186 185 
373 109 110 108 
374 116 117 110 
375 197 317 259 
376 116 133 132 
377 243 300 166 
378 107 108 106 
379 161 251 132 
380 170 199 160 
381 99 168 94 
382 126 140 130 
383 133 146 143 
384 116 132 117 
385 146 147 143 
386 156 204 170 
387 257 305 195 
388 109 116 110 
389 151 156 152 
390 186 188 187 
391 107 125 109 
392 141 166 151 
393 189 205 192 
394 129 307 204 
395 107 109 108 
396 214 319 154 
397 276 291 140 
398 133 143 132 
399 105 107 106 
400 104 105 103 
401 156 170 160 
402 186 191 188 
403 262 295 253 
404 179 182 181 
405 183 255 186 
406 65 113 7 
407 106 252 103 
408 191 197 188 
409 145 258 139 
410 69 237 95 
411 123 271 145 
412 95 236 70 
413 4 297 40 
414 41 297 4 
415 182 255 183 
416 102 103 99 
417 64 249 65 
418 7 98 94 
419 72 238 96 
420 236 238 71 
421 176 316 235 
422 104 114 105 
423 124 237 68 
424 132 251 117 
425 117 251 126 
426 277 295 149 
427 63 120 64 
428 102 104 103 
429 94 240 66 
430 2 298 18 
431 30 298 2 
432 184 310 254 
433 67 240 124 
434 234 268 196 
435 102 111 104 
436 19 299 3 
437 3 299 51 
438 264 266 230 
439 96 122 5 
440 130 250 141 
441 225 291 223 
442 98 102 99 
443 62 247 63 
444 154 289 252 
445 188 259 189 
446 58 135 6 
447 126 251 140 
448 98 99 94 
449 223 276 221 
450 57 260 58 
451 116 256 133 
452 134 320 205 
453 56 136 57 
454 168 240 94 
455 55 261 56 
456 98 254 102 
457 208 319 214 
458 140 250 130 
459 54 142 55 
460 128 315 309 
461 263 296 216 
462 141 250 166 
463 61 121 62 
464 186 255 191 
465 236 239 238 
466 189 259 205 
467 53 263 54 
468 181 275 180 
469 266 318 155 
470 52 144 53 
471 125 274 257 
472 139 203 153 
473 308 321 203 
474 109 256 116 
475 245 293 119 
476 197 259 188 
477 164 270 163 
478 125 256 109 
479 153 158 138 
480 5 262 52 
481 139 258 203 
482 96 123 122 
483 239 288 210 
484 147 285 227 
485 199 272 160 
486 32 281 115 
487 123 139 138 
488 253 296 144 
489 107 274 125 
490 114 274 105 
491 153 176 158 
492 123 138 122 
493 105 274 107 
494 122 149 5 
495 139 153 138 
496 146 285 147 
497 157 280 231 
498 170 273 199 
499 176 235 158 
500 215 309 182 
501 218 315 128 
502 227 285 232 
503 59 155 60 
504 102 254 111 
505 147 287 143 
506 204 300 243 
507 193 301 190 
508 156 300 204 
509 65 249 113 
510 246 307 129 
511 104 269 114 
512 22 316 112 
513 187 278 185 
514 120 249 64 
515 283 290 217 
516 209 286 279 
517 217 290 172 
518 149 295 262 
519 7 267 98 
520 111 269 104 
521 303 315 218 
522 6 266 59 
523 152 321 308 
524 271 312 145 
525 238 271 96 
526 63 247 120 
527 185 310 184 
528 233 282 164 
529 10 314 9 
530 124 279 237 
531 136 302 260 
532 239 271 238 
533 204 307 170 
534 113 267 7 
535 58 260 135 
536 166 300 151 
537 205 320 192 
538 136 260 57 
539 121 247 62 
540 96 271 123 
541 247 248 120 
542 162 283 217 
543 232 293 227 
544 272 321 160 
545 56 261 136 
546 121 294 265 
547 142 261 55 
548 240 284 124 
549 98 267 254 
550 54 263 142 
551 173 311 213 
552 111 278 269 
553 144 263 53 
554 172 230 6 
555 304 321 272 
556 149 262 5 
557 239 312 271 
558 236 288 239 
559 164 282 268 
560 163 285 146 
561 165 303 218 
562 241 298 30 
563 52 262 144 
564 135 172 6 
565 264 318 266 
566 255 315 191 
567 158 313 138 
568 51 299 246 
569 40 297 245 
570 119 293 232 
571 174 318 264 
572 265 294 155 
573 153 304 176 
574 60 294 61 
575 143 287 161 
576 237 286 95 
577 231 297 41 
578 18 298 165 
579 252 289 168 
580 168 284 240 
581 279 286 237 
582 152 308 150 
583 167 299 19 
584 114 305 274 
585 61 294 121 
586 230 314 10 
587 258 308 203 
588 111 310 278 
589 258 311 173 
590 165 298 241 
591 95 288 236 
592 176 304 272 
593 223 291 276 
594 245 297 231 
595 160 321 152 
596 149 313 277 
597 154 319 289 
598 172 314 230 
599 230 266 6 
600 124 284 279 
601 246 299 167 
602 211 319 208 
603 286 288 95 
604 284 289 211 
605 115 317 241 
606 155 294 60 
607 140 291 250 
608 279 284 211 
609 151 300 156 
610 145 311 258 
611 59 266 155 
612 168 289 284 
613 278 310 185 
614 277 313 158 
615 274 305 257 
616 248 306 120 
617 145 312 311 
618 203 304 153 
619 253 295 171 
620 122 313 149 
621 227 293 280 
622 303 317 197 
623 311 312 213 
624 290 314 172 
625 182 309 255 
626 155 318 265 
627 192 320 194 
628 138 313 122 
629 170 307 273 
630 142 292 261 
631 269 301 114 
632 120 306 249 
633 193 305 301 
634 289 319 211 
635 144 296 263 
636 254 310 111 
637 301 305 114 
638 265 318 174 
639 203 321 304 
640 9 314 290 
$EndElements
