$MeshFormat
4.1 0 8
$EndMeshFormat
$PhysicalNames
3
1 101 "outer_boundary"
2 1 "material_1"
2 2 "material_2"
$EndPhysicalNames
$Entities
7 7 2 0
1 0 0 0 0 
2 1 0 0 0 
3 0 1 0 0 
4 1 1 0 0 
5 0.4907896522590514 0.3810166074036512 0 0 
6 0.8628040106063505 0.3459747091021133 0 0 
7 0.7071440055586636 0.6856695431542108 0 0 
1 -9.999999994736442e-08 -1e-07 -1e-07 1.0000001 1e-07 1e-07 1 101 2 1 -2 
2 -1e-07 -9.999999994736442e-08 -1e-07 1e-07 1.0000001 1e-07 1 101 2 3 -1 
3 0.9999999000000001 -9.999999994736442e-08 -1e-07 1.0000001 1.0000001 1e-07 1 101 2 2 -4 
4 -9.999999994736442e-08 0.9999999000000001 -1e-07 1.0000001 1.0000001 1e-07 1 101 2 4 -3 
5 0.4907895522590514 0.3459746091021133 -1e-07 0.8628041106063504 0.3810167074036512 1e-07 0 2 5 -6 
6 0.7071439055586637 0.3459746091021133 -1e-07 0.8628041106063504 0.6856696431542108 1e-07 0 2 6 -7 
7 0.4907895522590515 0.3810165074036512 -1e-07 0.7071441055586636 0.6856696431542108 1e-07 0 2 7 -5 
2 0.4907895522590514 0.3459746091021133 -1e-07 0.8628041106063504 0.6856696431542108 1e-07 1 2 3 5 6 7 
3 -9.999999994736442e-08 -9.999999994736442e-08 -1e-07 1.0000001 1.0000001 1e-07 1 1 7 1 3 4 2 -5 -7 -6 
$EndEntities
$Nodes
16 163 1 163
0 1 0 1
1
0 0 0
0 2 0 1
2
1 0 0
0 3 0 1
3
0 1 0
0 4 0 1
4
1 1 0
0 5 0 1
5
0.4907896522590514 0.3810166074036512 0
0 6 0 1
6
0.8628040106063505 0.3459747091021133 0
0 7 0 1
7
0.7071440055586636 0.6856695431542108 0
1 1 0 7
8
9
10
11
12
13
14
0.1249999999999999 0 0
0.2499999999999998 0 0
0.3749999999999993 0 0
0.4999999999999988 0 0
0.6249999999999988 0 0
0.7499999999999991 0 0
0.8749999999999997 0 0
1 2 0 7
15
16
17
18
19
20
21
0 0.8750000000000001 0
0 0.7500000000000002 0
0 0.6250000000000007 0
0 0.5000000000000012 0
0 0.3750000000000012 0
0 0.2500000000000009 0
0 0.1250000000000003 0
1 3 0 7
22
23
24
25
26
27
28
1 0.1249999999999999 0
1 0.2499999999999998 0
1 0.3749999999999993 0
1 0.4999999999999988 0
1 0.6249999999999988 0
1 0.7499999999999991 0
1 0.8749999999999997 0
1 4 0 7
29
30
31
32
33
34
35
0.8750000000000001 1 0
0.7500000000000002 1 0
0.6250000000000007 1 0
0.5000000000000012 1 0
0.3750000000000012 1 0
0.2500000000000009 1 0
0.1250000000000003 1 0
1 5 0 5
36
37
38
39
40
0.5527920453169346 0.3751762910200615 0
0.6147944383748178 0.3693359746364719 0
0.6767968314327008 0.3634956582528822 0
0.7387992244905837 0.3576553418692926 0
0.8008016175484669 0.3518150254857029 0
1 6 0 5
41
42
43
44
45
0.836860676431736 0.4025905147774628 0
0.8109173422571215 0.4592063204528125 0
0.7849740080825072 0.5158221261281619 0
0.7590306739078928 0.5724379318035112 0
0.7330873397332782 0.6290537374788608 0
1 7 0 5
46
47
48
49
50
0.671084946675395 0.6348940538624509 0
0.6350258877921262 0.5841185645706909 0
0.5989668289088577 0.5333430752789312 0
0.5629077700255891 0.4825675859871714 0
0.5268487111423203 0.4317920966954115 0
2 2 0 10
51
52
53
54
55
56
57
58
59
60
0.7128558903159694 0.414271147544642 0
0.6609692219667407 0.5275027588953414 0
0.5888511042002035 0.4259517803118218 0
0.7748582833738527 0.4084308311610525 0
0.6970282808500096 0.5782782481871012 0
0.7489149491992381 0.4650466368364019 0
0.686912556141355 0.4708869532199916 0
0.722971615024624 0.5216624425117515 0
0.624910163083472 0.4767272696035816 0
0.6508534972580864 0.4201114639282317 0
2 3 0 103
61
62
63
64
65
66
67
68
69
70
71
72
73
74
75
76
77
78
79
80
81
82
83
84
85
86
87
88
89
90
91
92
93
94
95
96
97
98
99
100
101
102
103
104
105
106
107
108
109
110
111
112
113
114
115
116
117
118
119
120
121
122
123
124
125
126
127
128
129
130
131
132
133
134
135
136
137
138
139
140
141
142
143
144
145
146
147
148
149
150
151
152
153
154
155
156
157
158
159
160
161
162
163
0.5369644358509748 0.5391833916625208 0
0.1005171249450558 0.6774804423274988 0
0.6411069700527789 0.6921646232359212 0
0.4655046850965908 0.4404126504085653 0
0.4264304329380285 0.3857769439016459 0
0.3982558971016368 0.453571765545169 0
0.3525783861907599 0.3899105415924907 0
0.5786160908706015 0.3172940847805045 0
0.7028155314342568 0.3076799567702259 0
0.827197635132553 0.2932945652188783 0
0.4519930937040836 0.3269285228037246 0
0.319028297121768 0.4636567661887446 0
0.3721722979437315 0.5288845750023318 0
0.4329993454371933 0.9101271348875728 0
0.6805676022537795 0.7496632408313026 0
0.2704430385554073 0.393616586164942 0
0.3084985461245319 0.3171206397907577 0
0.7550010445211153 0.7418602538070977 0
0.2287441411854171 0.4661572649615452 0
0.6074594692370469 0.7558086300244544 0
0.5665824580907932 0.6927320801834866 0
0.8010821397122403 0.6339435289112577 0
0.1855184664304022 0.1118875912423447 0
0.4470720040770314 0.102840162081738 0
0.2176296702537884 0.3191941498759681 0
0.6751364920481077 0.1078750509888486 0
0.1877313612107876 0.8942589200059039 0
0.7251476898254952 0.8171688851793992 0
0.8124119027915656 0.8057866446768585 0
0.527745021947274 0.7601004143869186 0
0.4829635987524584 0.6885559359440931 0
0.8469764011403901 0.5099818097445722 0
0.5766129214919268 0.8303688891761229 0
0.4391815252748624 0.7599192135529498 0
0.3929663461265697 0.6864401555302869 0
0.3463692599208283 0.7684839977879988 0
0.288190454345577 0.6733872041804477 0
0.2563429805556268 0.2240009531791646 0
0.3500973198618519 0.2439474963270223 0
0.1592034290459382 0.2336333856562124 0
0.8991477797308429 0.1885330038792215 0
0.3271854147185351 0.1244547138253369 0
0.8350941371559222 0.7139575651188567 0
0.440609417421034 0.6082262696331647 0
0.8944709996695996 0.2759668232964675 0
0.1175638899774629 0.4526715704934596 0
0.5608840910487337 0.1019590362692199 0
0.5102583956657895 0.1856805850901325 0
0.6116712741023635 0.200633777335357 0
0.7090768371920477 0.1986603662468675 0
0.7920023749476673 0.1520309955195056 0
0.2383423287174932 0.7901157979670268 0
0.1009109058101351 0.5690127830928527 0
0.3181224650162334 0.8842555516989912 0
0.2010247714370341 0.6204051724786337 0
0.5284703675518955 0.6198167583375442 0
0.8988630694896191 0.3967501983938732 0
0.356080338792452 0.6097180089004444 0
0.4536221961325468 0.5246295551764869 0
0.2787999927610339 0.5572469292813814 0
0.1125812164429548 0.8019179285634758 0
0.1271271649862477 0.3395130652236373 0
0.7763439647798855 0.8928462477656234 0
0.8901195223336308 0.8900505707324008 0
0.6618347255850202 0.8947593648372569 0
0.5149744591354074 0.3200932078192222 0
0.7648318620393996 0.3008691943192712 0
0.782272604420422 0.2390572805330137 0
0.6406782456958866 0.3120882156338326 0
0.6060720664384671 0.6378926713335169 0
0.9048444194816585 0.7879621056596936 0
0.7662817333362439 0.6808969256940567 0
0.8843432451154737 0.6384421452700735 0
0.8284426129195051 0.5727538952537745 0
0.5091695596496044 0.4837170559860312 0
0.1923015809916647 0.3942305273439105 0
0.8678030973093294 0.4441709878108055 0
0.08320096015414291 0.1749426646302037 0
0.3874393229044247 0.3311386155168712 0
0.868011239622776 0.09512209391768733 0
0.5810999173084642 0.5828708922366408 0
0.5437695398920449 0.2593130385652598 0
0.9175267094005248 0.549750657658954 0
0.6664045592556227 0.2566684880268968 0
0.6516568451959379 0.8103917278079869 0
0.5474434661412398 0.9107619406012941 0
0.4882138043332967 0.8293162547068123 0
0.9249316168815577 0.3400454704680554 0
0.4224071927457312 0.1962592179844191 0
0.4767074424778539 0.2612081123112278 0
0.6082279419633039 0.2691995208683701 0
0.842940186461953 0.232112721524023 0
0.1863596485012574 0.5385195132575222 0
0.09150635094610998 0.9084936490538902 0
0.9188298098528551 0.7098790507363945 0
0.1919991212264954 0.7056102275545719 0
0.4899166042391128 0.5729639937024291 0
0.4049772799964828 0.830420430526865 0
0.9333896038581529 0.4575724459826165 0
0.07564288878308584 0.07749093258798434 0
0.4177288743387891 0.271896392988653 0
0.7250802788683497 0.260587057179255 0
0.07390631083726579 0.2746178231020111 0
$EndNodes
$Elements
6 324 1 324
1 1 1 8
1 1 8 
2 8 9 
3 9 10 
4 10 11 
5 11 12 
6 12 13 
7 13 14 
8 14 2 
1 2 1 8
9 3 15 
10 15 16 
11 16 17 
12 17 18 
13 18 19 
14 19 20 
15 20 21 
16 21 1 
1 3 1 8
17 2 22 
18 22 23 
19 23 24 
20 24 25 
21 25 26 
22 26 27 
23 27 28 
24 28 4 
1 4 1 8
25 4 29 
26 29 30 
27 30 31 
28 31 32 
29 32 33 
30 33 34 
31 34 35 
32 35 3 
2 2 2 36
33 45 7 46 
34 6 41 40 
35 5 36 50 
36 57 58 52 
37 52 58 55 
38 55 58 44 
39 39 54 51 
40 37 53 36 
41 43 56 42 
42 53 60 59 
43 56 58 57 
44 42 56 54 
45 43 58 56 
46 54 56 51 
47 52 59 57 
48 36 53 50 
49 59 60 57 
50 40 54 39 
51 48 59 52 
52 45 55 44 
53 37 60 53 
54 44 58 43 
55 50 53 49 
56 52 55 47 
57 51 60 38 
58 47 55 46 
59 39 51 38 
60 48 52 47 
61 42 54 41 
62 49 59 48 
63 57 60 51 
64 56 57 51 
65 53 59 49 
66 38 60 37 
67 46 55 45 
68 41 54 40 
2 3 2 256
69 137 159 92 
70 125 146 93 
71 97 120 118 
72 4 124 28 
73 29 124 4 
74 83 102 98 
75 98 100 83 
76 22 140 2 
77 115 120 97 
78 73 119 104 
79 13 140 111 
80 111 152 128 
81 2 140 14 
82 64 119 66 
83 107 108 84 
84 84 102 10 
85 92 159 143 
86 31 146 125 
87 102 149 99 
88 84 149 102 
89 79 153 106 
90 96 114 112 
91 86 110 109 
92 112 114 87 
93 101 152 111 
94 104 118 73 
95 87 121 112 
96 86 109 107 
97 10 102 9 
98 23 105 101 
99 121 156 112 
100 11 107 84 
101 13 111 86 
102 66 119 73 
103 106 136 79 
104 107 109 108 
105 98 102 99 
106 14 140 13 
107 9 102 83 
108 101 140 22 
109 123 124 29 
110 113 115 62 
111 17 113 62 
112 103 132 82 
113 30 123 29 
114 93 145 125 
115 33 114 74 
116 23 101 22 
117 64 135 119 
118 26 143 25 
119 82 133 103 
120 86 107 12 
121 19 163 122 
122 13 86 12 
123 104 116 91 
124 106 113 18 
125 11 84 10 
126 33 74 32 
127 106 153 113 
128 19 106 18 
129 96 158 114 
130 143 159 25 
131 23 148 105 
132 17 62 16 
133 9 83 8 
134 87 114 34 
135 12 107 11 
136 109 142 108 
137 119 135 61 
138 111 128 110 
139 95 104 91 
140 34 114 33 
141 19 122 106 
142 100 138 83 
143 20 163 19 
144 73 120 72 
145 111 140 101 
146 72 120 79 
147 18 113 17 
148 62 156 121 
149 99 139 77 
150 82 134 133 
151 133 143 26 
152 116 130 81 
153 35 87 34 
154 62 121 16 
155 110 144 109 
156 91 116 81 
157 21 138 20 
158 124 131 28 
159 114 158 74 
160 86 111 110 
161 31 125 30 
162 28 131 27 
163 16 121 15 
164 116 141 130 
165 105 152 101 
166 32 146 31 
167 61 157 119 
168 95 118 104 
169 98 99 77 
170 97 118 95 
171 99 161 139 
172 97 156 115 
173 108 149 84 
174 61 141 116 
175 115 153 120 
176 30 125 123 
177 24 148 23 
178 96 97 95 
179 118 120 73 
180 26 155 133 
181 50 64 5 
182 138 163 20 
183 94 95 91 
184 78 103 89 
185 66 73 72 
186 104 157 116 
187 90 91 81 
188 48 61 49 
189 80 81 63 
190 3 154 35 
191 15 154 3 
192 46 130 47 
193 96 112 97 
194 120 153 79 
195 49 135 50 
196 94 96 95 
197 36 68 37 
198 37 129 38 
199 38 69 39 
200 85 98 77 
201 39 127 40 
202 7 63 46 
203 85 122 100 
204 40 70 6 
205 76 77 67 
206 64 65 5 
207 27 155 26 
208 90 94 91 
209 83 160 8 
210 123 125 88 
211 85 100 98 
212 116 157 61 
213 74 146 32 
214 5 126 36 
215 66 67 65 
216 80 90 81 
217 72 79 76 
218 66 72 67 
219 64 66 65 
220 72 76 67 
221 109 151 142 
222 65 71 5 
223 76 85 77 
224 50 135 64 
225 78 132 103 
226 44 82 45 
227 61 135 49 
228 103 131 89 
229 47 141 48 
230 119 157 104 
231 43 134 44 
232 125 145 88 
233 81 130 63 
234 25 159 24 
235 80 93 90 
236 89 124 123 
237 112 156 97 
238 113 153 115 
239 85 136 122 
240 134 143 133 
241 45 132 7 
242 42 92 43 
243 78 89 88 
244 7 75 63 
245 89 123 88 
246 75 80 63 
247 63 130 46 
248 48 141 61 
249 68 129 37 
250 38 129 69 
251 69 127 39 
252 77 139 67 
253 40 127 70 
254 130 141 47 
255 115 156 62 
256 138 160 83 
257 121 154 15 
258 7 78 75 
259 89 131 124 
260 41 137 42 
261 36 126 68 
262 70 105 6 
263 79 136 76 
264 122 136 106 
265 76 136 85 
266 71 126 5 
267 35 154 87 
268 127 128 70 
269 6 117 41 
270 78 88 75 
271 150 161 149 
272 87 154 121 
273 126 150 142 
274 71 150 126 
275 24 159 117 
276 126 142 68 
277 1 160 21 
278 8 160 1 
279 67 139 65 
280 117 148 24 
281 90 147 94 
282 80 145 93 
283 93 147 90 
284 146 147 93 
285 44 134 82 
286 65 139 71 
287 129 144 69 
288 149 161 99 
289 82 132 45 
290 7 132 78 
291 128 162 110 
292 92 134 43 
293 108 150 149 
294 75 145 80 
295 100 163 138 
296 68 151 129 
297 88 145 75 
298 147 158 94 
299 133 155 103 
300 94 158 96 
301 42 137 92 
302 142 151 68 
303 74 147 146 
304 92 143 134 
305 103 155 131 
306 127 162 128 
307 129 151 144 
308 122 163 100 
309 117 137 41 
310 128 152 70 
311 144 151 109 
312 131 155 27 
313 74 158 147 
314 105 148 6 
315 144 162 69 
316 70 152 105 
317 69 162 127 
318 21 160 138 
319 142 150 108 
320 6 148 117 
321 117 159 137 
322 139 161 71 
323 71 161 150 
324 110 162 144 
$EndElements
