$MeshFormat
4.1 0 8
$EndMeshFormat
$PhysicalNames
3
1 101 "outer_boundary"
2 1 "material_1"
2 2 "material_2"
$EndPhysicalNames
$Entities
5 5 2 0
1 0 0 0 0 
2 1 0 0 0 
3 0 1 0 0 
4 1 1 0 0 
5 0.9228782571618244 0.3593061420961427 0 0 
1 -9.999999994736442e-08 -1e-07 -1e-07 1.0000001 1e-07 1e-07 1 101 2 1 -2 
2 -1e-07 -9.999999994736442e-08 -1e-07 1e-07 1.0000001 1e-07 1 101 2 3 -1 
3 0.9999999000000001 -9.999999994736442e-08 -1e-07 1.0000001 1.0000001 1e-07 1 101 2 2 -4 
4 -9.999999994736442e-08 0.9999999000000001 -1e-07 1.0000001 1.0000001 1e-07 1 101 2 4 -3 
5 0.4683167410802539 0.1320253340553575 -1e-07 0.9228783571618243 0.5865869501369279 1e-07 0 2 5 -5 
2 0.4683167410802539 0.1320253340553575 -1e-07 0.9228783571618243 0.5865869501369279 1e-07 1 2 1 5 
3 -9.999999994736442e-08 -9.999999994736442e-08 -1e-07 1.0000001 1.0000001 1e-07 1 1 5 1 3 4 2 -5 
$EndEntities
$Nodes
12 255 1 255
0 1 0 1
1
0 0 0
0 2 0 1
2
1 0 0
0 3 0 1
3
0 1 0
0 4 0 1
4
1 1 0
0 5 0 1
5
0.9228782571618244 0.3593061420961427 0
1 1 0 9
6
7
8
9
10
11
12
13
14
0.09999999999999996 0 0
0.1999999999999999 0 0
0.3000000000000001 0 0
0.4000000000000004 0 0
0.5000000000000003 0 0
0.5999999999999999 0 0
0.6999999999999995 0 0
0.7999999999999992 0 0
0.899999999999999 0 0
1 2 0 9
15
16
17
18
19
20
21
22
23
0 0.9 0
0 0.8 0
0 0.7 0
0 0.5999999999999996 0
0 0.4999999999999997 0
0 0.4000000000000001 0
0 0.3000000000000005 0
0 0.2000000000000008 0
0 0.100000000000001 0
1 3 0 9
24
25
26
27
28
29
30
31
32
1 0.09999999999999996 0
1 0.1999999999999999 0
1 0.3000000000000001 0
1 0.4000000000000004 0
1 0.5000000000000003 0
1 0.5999999999999999 0
1 0.6999999999999995 0
1 0.7999999999999992 0
1 0.899999999999999 0
1 4 0 9
33
34
35
36
37
38
39
40
41
0.9 1 0
0.8 1 0
0.7 1 0
0.5999999999999996 1 0
0.4999999999999997 1 0
0.4000000000000001 1 0
0.3000000000000005 1 0
0.2000000000000008 1 0
0.100000000000001 1 0
1 5 0 25
42
43
44
45
46
47
48
49
50
51
52
53
54
55
56
57
58
59
60
61
62
63
64
65
66
0.9162738928520391 0.4136979757206696 0
0.8968446215704804 0.4649287536812099 0
0.865719601941505 0.5100211293789981 0
0.8247077069711057 0.5463544978425954 0
0.7761923989227896 0.5718172957633183 0
0.722993211154355 0.5849297178795191 0
0.6682018870877239 0.5849297178795192 0
0.6150026993192892 0.5718172957633185 0
0.5664873912709729 0.5463544978425957 0
0.5254754963005736 0.5100211293789985 0
0.4943504766715979 0.4649287536812102 0
0.4749212053900392 0.4136979757206699 0
0.4683168410802539 0.3593061420961428 0
0.4749212053900391 0.3049143084716159 0
0.4943504766715978 0.2536835305110755 0
0.5254754963005733 0.2085911548132872 0
0.5664873912709725 0.17225778634969 0
0.6150026993192887 0.1467949884289671 0
0.6682018870877234 0.1336825663127663 0
0.7229932111543543 0.1336825663127662 0
0.776192398922789 0.1467949884289669 0
0.8247077069711055 0.1722577863496898 0
0.8657196019415048 0.2085911548132871 0
0.8968446215704803 0.2536835305110752 0
0.916273892852039 0.3049143084716155 0
2 2 0 59
67
68
69
70
71
72
73
74
75
76
77
78
79
80
81
82
83
84
85
86
87
88
89
90
91
92
93
94
95
96
97
98
99
100
101
102
103
104
105
106
107
108
109
110
111
112
113
114
115
116
117
118
119
120
121
122
123
124
125
0.5761765680041157 0.2171985738149028 0
0.8152616300897702 0.4911261899551505 0
0.5502460400445283 0.4622445386761649 0
0.8135819660845188 0.2175426584339606 0
0.6974848177582758 0.1795615381038717 0
0.8724713653296747 0.3378297725520005 0
0.5187237329124035 0.3378297725520006 0
0.6919413133751433 0.5387690935767733 0
0.8631190283298434 0.4218875202184432 0
0.6127964751459065 0.5170704075606876 0
0.8714459419061579 0.2932265695223487 0
0.8266011539530842 0.3173731314959114 0
0.8322812307354501 0.3754333842393451 0
0.7802443548546667 0.346359385872813 0
0.7808986696882193 0.4003454617325172 0
0.7334503315847757 0.3755156154817583 0
0.7304021550546629 0.3207650350424447 0
0.6845359351500332 0.3508261553403914 0
0.6878805920709556 0.4054407089841155 0
0.6388445540797882 0.380996795255471 0
0.6811920654707004 0.2960948625541242 0
0.7270438396160392 0.2681020154009491 0
0.6424535000950656 0.4351716038468172 0
0.6931937293700674 0.4562064599915173 0
0.583398840388771 0.415449312311809 0
0.5845778692751954 0.3501073099162055 0
0.6778877222872745 0.2326350807673065 0
0.6366235298854153 0.2736802280939279 0
0.5417452635221152 0.3823126031098125 0
0.5630914285778716 0.3005401870712567 0
0.7775431911128394 0.2940563918236641 0
0.7369518130866231 0.4298240810661134 0
0.7403024541249877 0.4845175594617809 0
0.6384852171598435 0.325632869171811 0
0.6261639461768096 0.2221788626970613 0
0.7793352477753304 0.4564734114627286 0
0.6012956332950343 0.469144332511472 0
0.7761577962748818 0.5188576600900883 0
0.6564085227856041 0.4939416858526974 0
0.7706956343673425 0.2430263215601796 0
0.7286884891796434 0.2168522828487096 0
0.7753872341522295 0.1951197555293882 0
0.8317760158479897 0.2610713940229181 0
0.5182587338477922 0.2895890978539117 0
0.6489737053544855 0.1803747560541208 0
0.5206812120496089 0.4240901312271401 0
0.6488701795427334 0.5413056401265992 0
0.8814047548817664 0.3816309589653202 0
0.8518973193210804 0.4624736636076337 0
0.571260207211403 0.5009669811939838 0
0.54458069824989 0.2559850702206051 0
0.819242810270066 0.4281286851049995 0
0.7393204853295499 0.1743249703966173 0
0.7350731927475239 0.5328575590288351 0
0.5919622533320051 0.2619457976280833 0
0.5027103803049038 0.3827268846719249 0
0.6065608620251344 0.1877609934689484 0
0.7028519826329863 0.4982540274015308 0
0.6029480596460661 0.3023812783762569 0
2 3 0 130
126
127
128
129
130
131
132
133
134
135
136
137
138
139
140
141
142
143
144
145
146
147
148
149
150
151
152
153
154
155
156
157
158
159
160
161
162
163
164
165
166
167
168
169
170
171
172
173
174
175
176
177
178
179
180
181
182
183
184
185
186
187
188
189
190
191
192
193
194
195
196
197
198
199
200
201
202
203
204
205
206
207
208
209
210
211
212
213
214
215
216
217
218
219
220
221
222
223
224
225
226
227
228
229
230
231
232
233
234
235
236
237
238
239
240
241
242
243
244
245
246
247
248
249
250
251
252
253
254
255
0.4700525441297445 0.511504918556413 0
0.4257833505368976 0.394896132362848 0
0.5721237399016038 0.5988480822190329 0
0.3504149139337853 0.9087782560215494 0
0.6955975491210394 0.6323803964282074 0
0.09865972478387075 0.6561318286326152 0
0.4381899804976679 0.2648835448729006 0
0.09582406049906328 0.2596882703116201 0
0.09257180119457642 0.458768959285151 0
0.5496600842470278 0.911932066665838 0
0.7616537808986724 0.9215908504195234 0
0.9224074396449934 0.7505152875512786 0
0.2459245221069979 0.08514666480264921 0
0.8225014827977234 0.6011013860452263 0
0.5080796234208611 0.1556582621273598 0
0.1701637834683522 0.9044443616018897 0
0.8766792745508407 0.1549071276797834 0
0.4428543541068138 0.4551450835796055 0
0.4098311627362504 0.5092879115987612 0
0.4358736195174568 0.5649469529592166 0
0.3720669753074671 0.560879555453673 0
0.4019844001645461 0.6217113448707133 0
0.3473225010264682 0.4965877277899436 0
0.3302084934654896 0.6174804602828756 0
0.3614314367158927 0.683116337381663 0
0.4364519184179736 0.6860864388530969 0
0.2852919728194844 0.6786322946720211 0
0.2574825917461988 0.6073469236964064 0
0.3946103522423457 0.7511745495019158 0
0.4715344901469852 0.7536056056079656 0
0.5075566541020304 0.6904978158231178 0
0.5461757866578693 0.7557333566878393 0
0.583219154116566 0.6928851639421203 0
0.6204446985452938 0.7569764318959995 0
0.4685719892865478 0.2068290538129645 0
0.4028749599282702 0.2135573472430371 0
0.3801522954416735 0.2764863801012325 0
0.3314222052014885 0.2277027184190576 0
0.3112820018641726 0.293692839336989 0
0.2472356594536831 0.2330744710353885 0
0.2346423234826699 0.315631705811618 0
0.2982939873800786 0.3678989379610024 0
0.4362332980468392 0.1374843071811213 0
0.3581131912767608 0.1580626064564388 0
0.2137213618339572 0.3900500359013731 0
0.7629027652838326 0.6228399703541403 0
0.7330900559305811 0.6888352587753303 0
0.8239739146882403 0.6625907684213675 0
0.7947093784076156 0.7345630073290423 0
0.7309715340282319 0.7742606020348649 0
0.874772427397802 0.5612399373364584 0
0.429931676110765 0.8211961173033839 0
0.2014681793634767 0.671093207659981 0
0.2391799363947213 0.7428853937439281 0
0.1520932658483733 0.7405423529366506 0
0.5595953518521524 0.1179266934197785 0
0.921392089065016 0.5113727519656478 0
0.8218926647797185 0.1190811611128579 0
0.5116473642949821 0.5678857013517988 0
0.7608752134528403 0.07784153398929994 0
0.7890376264150454 0.7972344345854916 0
0.2673993492552429 0.4475616773518225 0
0.1858203749923668 0.4587917216532138 0
0.6324779948797175 0.618818819235302 0
0.1557917652591698 0.3334140540222434 0
0.17164568002769 0.5963836765225822 0
0.471842506106768 0.6253126095480586 0
0.6464209295498394 0.6813474696433914 0
0.3845930932908403 0.4408181672726355 0
0.6200206327510184 0.08205931519999021 0
0.916765028727383 0.6608034362163939 0
0.3432679262037163 0.8160685686417382 0
0.2665307616533099 0.8657038659684606 0
0.6566593094597484 0.9049941973948374 0
0.08512499241297061 0.5493900439639634 0
0.591923476277195 0.8296358555049033 0
0.6675330250288707 0.8084525583404771 0
0.4564025793877838 0.9101351686757053 0
0.3717973756899002 0.3800415798650226 0
0.9127268550413999 0.8488909559311265 0
0.4245143135578895 0.3263906780157581 0
0.08203303971208065 0.1527774458492764 0
0.1634842505151943 0.1913082368821007 0
0.246030101651436 0.524701612535755 0
0.8526950920821116 0.9218323009350378 0
0.20175162445526 0.8113900894416106 0
0.1122976236256729 0.8135967544328452 0
0.6936650881133413 0.08410192532424809 0
0.8833774423452465 0.08726000060957295 0
0.3756382107494018 0.0745251703606426 0
0.1547061972576949 0.09319197454199585 0
0.9223123796618549 0.203192861868461 0
0.4949167523276887 0.08814636938328674 0
0.3197086969713175 0.7453237835104023 0
0.5076046821379377 0.8303730284076059 0
0.3065579176008462 0.5527794841168437 0
0.9509264123807275 0.2624726769844962 0
0.07841275560739613 0.3640906531735736 0
0.2853564884180295 0.167401894038272 0
0.3243973013758942 0.4278246773621377 0
0.9509264123807275 0.4561396072077892 0
0.8522333960973147 0.7826437749023819 0
0.9437043675275762 0.1395026812221238 0
0.07310789687509733 0.7371932869391786 0
0.1419126375000104 0.4040008615389515 0
0.5389464781188424 0.63672008350249 0
0.1793956118419561 0.2666233476125942 0
0.1547929125683806 0.5225345401867926 0
0.9338603955689078 0.5756212684420889 0
0.8620178315131095 0.7182232548840929 0
0.9330843894247023 0.9341446513732327 0
0.2537866794954543 0.9383466767588323 0
0.2182964877127031 0.1499063935030561 0
0.313006482510238 0.09702726713160059 0
0.07320508075688797 0.0732050807568882 0
0.07666917110695443 0.8880104356777421 0
0.8167863797221209 0.8537325818149749 0
0.8743746498360113 0.612271359292307 0
0.552017546658596 0.05508991341695113 0
0.6763298716931399 0.7383845661582362 0
0.3572079947867429 0.3289020830560009 0
0.7371069425921148 0.8433775374316949 0
0.274087789135665 0.796274340261228 0
0.9460201556079206 0.05397984439207898 0
0.5946376593133138 0.6457239237084673 0
0.9580157124789181 0.325338625510451 0
0.8332290641155606 0.05683653914234615 0
0.6534214302160897 0.04154031013105958 0
0.4413121770768592 0.05529327132777356 0
0.2910838391741276 0.4956525513234961 0
$EndNodes
$Elements
6 508 1 508
1 1 1 10
1 1 6 
2 6 7 
3 7 8 
4 8 9 
5 9 10 
6 10 11 
7 11 12 
8 12 13 
9 13 14 
10 14 2 
1 2 1 10
11 3 15 
12 15 16 
13 16 17 
14 17 18 
15 18 19 
16 19 20 
17 20 21 
18 21 22 
19 22 23 
20 23 1 
1 3 1 10
21 2 24 
22 24 25 
23 25 26 
24 26 27 
25 27 28 
26 28 29 
27 29 30 
28 30 31 
29 31 32 
30 32 4 
1 4 1 10
31 4 33 
32 33 34 
33 34 35 
34 35 36 
35 36 37 
36 37 38 
37 38 39 
38 39 40 
39 40 41 
40 41 3 
2 2 2 142
41 69 112 91 
42 73 96 92 
43 91 112 95 
44 65 109 64 
45 92 95 73 
46 102 104 99 
47 68 104 102 
48 93 111 71 
49 74 113 105 
50 105 124 74 
51 101 111 93 
52 106 109 97 
53 64 109 70 
54 68 118 115 
55 102 118 68 
56 70 109 106 
57 91 103 69 
58 77 109 65 
59 79 114 75 
60 71 107 93 
61 75 118 79 
62 88 97 83 
63 83 97 80 
64 85 98 90 
65 98 99 90 
66 82 98 85 
67 92 100 86 
68 86 100 84 
69 87 100 94 
70 5 72 66 
71 52 69 51 
72 50 76 49 
73 64 70 63 
74 55 73 54 
75 43 75 42 
76 45 68 44 
77 61 71 60 
78 58 67 57 
79 48 74 47 
80 91 95 92 
81 91 92 86 
82 89 91 86 
83 85 90 89 
84 87 94 93 
85 87 93 88 
86 85 89 86 
87 84 100 87 
88 87 88 83 
89 85 86 84 
90 82 85 84 
91 84 87 83 
92 82 84 83 
93 81 98 82 
94 82 83 80 
95 81 82 80 
96 79 81 80 
97 80 97 78 
98 120 124 99 
99 79 80 78 
100 97 109 78 
101 101 121 67 
102 94 121 101 
103 103 105 76 
104 46 104 45 
105 45 104 68 
106 98 102 99 
107 72 79 78 
108 96 125 92 
109 94 101 93 
110 93 107 88 
111 104 120 99 
112 72 114 79 
113 73 110 96 
114 81 102 98 
115 105 113 76 
116 70 108 63 
117 63 108 62 
118 79 118 81 
119 76 116 103 
120 89 103 91 
121 92 125 100 
122 89 105 103 
123 117 121 96 
124 90 105 89 
125 88 106 97 
126 72 78 77 
127 110 117 96 
128 74 124 120 
129 107 108 106 
130 56 110 55 
131 55 110 73 
132 60 111 59 
133 71 111 60 
134 52 112 69 
135 53 112 52 
136 90 124 105 
137 48 113 74 
138 43 115 75 
139 51 116 50 
140 75 114 42 
141 76 113 49 
142 66 77 65 
143 50 116 76 
144 68 115 44 
145 42 114 5 
146 5 114 72 
147 49 113 48 
148 69 116 51 
149 72 77 66 
150 44 115 43 
151 57 117 56 
152 95 122 73 
153 62 119 61 
154 47 120 46 
155 67 117 57 
156 73 122 54 
157 58 123 67 
158 78 109 77 
159 61 119 71 
160 103 116 69 
161 115 118 75 
162 88 107 106 
163 106 108 70 
164 74 120 47 
165 67 123 101 
166 107 119 108 
167 54 122 53 
168 59 123 58 
169 99 124 90 
170 100 125 94 
171 67 121 117 
172 46 120 104 
173 81 118 102 
174 108 119 62 
175 56 117 110 
176 71 119 107 
177 112 122 95 
178 53 122 112 
179 101 123 111 
180 111 123 59 
181 94 125 121 
182 121 125 96 
2 3 2 326
183 178 180 131 
184 135 201 199 
185 185 213 12 
186 27 42 5 
187 177 203 129 
188 3 241 41 
189 129 197 177 
190 167 246 204 
191 131 191 178 
192 141 211 198 
193 201 202 199 
194 15 241 3 
195 198 237 141 
196 13 185 12 
197 203 220 135 
198 164 246 167 
199 13 252 185 
200 161 169 168 
201 190 223 133 
202 171 173 172 
203 47 171 130 
204 126 184 145 
205 177 220 203 
206 173 174 172 
207 215 239 8 
208 204 206 127 
209 161 168 160 
210 133 223 21 
211 131 200 191 
212 191 209 153 
213 184 192 145 
214 136 247 242 
215 5 251 27 
216 207 216 208 
217 148 194 144 
218 242 247 186 
219 158 193 159 
220 151 192 156 
221 9 215 8 
222 27 251 26 
223 216 238 208 
224 171 172 130 
225 57 160 140 
226 135 220 201 
227 181 244 195 
228 188 233 134 
229 144 194 143 
230 172 193 130 
231 191 233 209 
232 133 232 190 
233 159 245 202 
234 204 246 206 
235 148 225 194 
236 202 245 175 
237 135 199 36 
238 231 250 158 
239 169 215 168 
240 147 192 151 
241 214 252 14 
242 128 231 184 
243 172 245 193 
244 208 238 165 
245 31 205 137 
246 195 244 11 
247 193 250 189 
248 129 203 38 
249 18 200 131 
250 180 229 131 
251 173 243 196 
252 141 212 211 
253 156 231 158 
254 196 235 173 
255 207 208 133 
256 136 242 210 
257 159 202 201 
258 137 196 30 
259 46 171 47 
260 27 226 42 
261 212 241 16 
262 134 230 188 
263 35 199 136 
264 160 168 140 
265 22 207 133 
266 31 137 30 
267 158 250 193 
268 156 158 157 
269 175 247 202 
270 132 206 162 
271 148 255 225 
272 184 231 192 
273 193 245 159 
274 37 203 135 
275 35 136 34 
276 56 160 57 
277 134 200 19 
278 145 192 147 
279 126 144 143 
280 202 247 199 
281 37 135 36 
282 20 134 19 
283 181 195 59 
284 129 198 197 
285 30 196 29 
286 16 241 15 
287 151 156 155 
288 22 133 21 
289 199 247 136 
290 18 131 17 
291 143 194 127 
292 39 129 38 
293 32 205 31 
294 205 227 137 
295 51 184 126 
296 126 143 52 
297 53 143 127 
298 165 238 224 
299 134 233 200 
300 165 232 208 
301 128 184 50 
302 49 189 128 
303 36 199 35 
304 130 189 48 
305 136 210 34 
306 41 241 141 
307 130 193 189 
308 127 206 54 
309 11 253 195 
310 8 138 7 
311 38 203 37 
312 19 200 18 
313 23 207 22 
314 26 222 25 
315 208 232 133 
316 156 157 155 
317 55 206 132 
318 167 187 170 
319 41 141 40 
320 192 231 156 
321 58 181 59 
322 164 167 166 
323 28 226 27 
324 34 210 33 
325 14 252 13 
326 158 159 157 
327 187 209 188 
328 174 175 172 
329 4 236 32 
330 7 216 6 
331 209 233 188 
332 138 216 7 
333 186 247 175 
334 137 235 196 
335 39 237 129 
336 129 237 198 
337 28 234 182 
338 175 245 172 
339 147 151 150 
340 21 223 20 
341 8 239 138 
342 33 236 4 
343 167 170 166 
344 151 155 154 
345 187 188 170 
346 126 145 144 
347 141 241 212 
348 200 233 191 
349 51 126 52 
350 53 127 54 
351 152 153 149 
352 178 191 153 
353 196 234 29 
354 49 128 50 
355 47 130 48 
356 141 237 40 
357 45 176 139 
358 194 204 127 
359 50 184 51 
360 52 143 53 
361 151 154 150 
362 48 189 49 
363 16 229 212 
364 179 211 180 
365 152 179 178 
366 146 148 144 
367 164 166 165 
368 211 212 180 
369 179 180 178 
370 177 197 154 
371 55 132 56 
372 54 206 55 
373 155 177 154 
374 170 190 166 
375 132 162 161 
376 152 178 153 
377 1 240 23 
378 6 240 1 
379 45 139 46 
380 162 164 163 
381 215 254 168 
382 20 223 134 
383 145 147 146 
384 209 221 153 
385 147 150 149 
386 29 234 28 
387 159 201 157 
388 145 146 144 
389 150 152 149 
390 147 149 146 
391 174 186 175 
392 164 165 163 
393 168 254 218 
394 17 229 16 
395 162 246 164 
396 131 229 17 
397 153 221 149 
398 204 225 167 
399 139 171 46 
400 152 219 179 
401 138 239 224 
402 214 228 142 
403 179 248 211 
404 157 220 155 
405 155 220 177 
406 197 219 154 
407 154 219 150 
408 162 163 161 
409 211 248 198 
410 225 255 187 
411 132 160 56 
412 57 140 58 
413 205 242 227 
414 163 169 161 
415 189 250 128 
416 44 176 45 
417 150 219 152 
418 63 142 64 
419 146 221 148 
420 63 183 142 
421 201 220 157 
422 167 225 187 
423 138 238 216 
424 132 161 160 
425 196 243 234 
426 25 228 24 
427 183 214 142 
428 12 253 11 
429 25 222 217 
430 224 238 138 
431 149 221 146 
432 166 232 165 
433 139 173 171 
434 234 243 176 
435 59 195 60 
436 32 236 205 
437 61 185 62 
438 168 218 140 
439 62 183 63 
440 62 185 183 
441 188 230 170 
442 44 182 176 
443 195 213 60 
444 61 213 185 
445 60 213 61 
446 142 217 64 
447 142 228 217 
448 217 228 25 
449 194 225 204 
450 214 249 228 
451 212 229 180 
452 187 255 209 
453 11 244 10 
454 216 240 6 
455 65 222 66 
456 210 236 33 
457 165 224 163 
458 43 182 44 
459 64 217 65 
460 139 243 173 
461 183 252 214 
462 140 181 58 
463 210 242 205 
464 23 240 207 
465 173 235 174 
466 10 254 9 
467 42 226 43 
468 198 248 197 
469 140 218 181 
470 174 227 186 
471 205 236 210 
472 206 246 162 
473 40 237 39 
474 163 224 169 
475 176 243 139 
476 207 240 216 
477 217 222 65 
478 222 251 66 
479 170 230 190 
480 224 239 169 
481 43 226 182 
482 190 232 166 
483 218 254 10 
484 182 226 28 
485 190 230 223 
486 2 249 14 
487 24 249 2 
488 213 253 12 
489 182 234 176 
490 128 250 231 
491 10 244 218 
492 169 239 215 
493 66 251 5 
494 223 230 134 
495 14 249 214 
496 221 255 148 
497 219 248 179 
498 185 252 183 
499 197 248 219 
500 218 244 181 
501 195 253 213 
502 174 235 227 
503 228 249 24 
504 227 242 186 
505 9 254 215 
506 209 255 221 
507 26 251 222 
508 227 235 137 
$EndElements
