$MeshFormat
4.1 0 8
$EndMeshFormat
$PhysicalNames
3
1 101 "outer_boundary"
2 1 "material_1"
2 2 "material_2"
$EndPhysicalNames
$Entities
5 5 2 0
1 0 0 0 0 
2 1 0 0 0 
3 0 1 0 0 
4 1 1 0 0 
5 0.4518161601671205 0.3323941628507721 0 0 
1 -9.999999994736442e-08 -1e-07 -1e-07 1.0000001 1e-07 1e-07 1 101 2 1 -2 
2 -1e-07 -9.999999994736442e-08 -1e-07 1e-07 1.0000001 1e-07 1 101 2 3 -1 
3 0.9999999000000001 -9.999999994736442e-08 -1e-07 1.0000001 1.0000001 1e-07 1 101 2 2 -4 
4 -9.999999994736442e-08 0.9999999000000001 -1e-07 1.0000001 1.0000001 1e-07 1 101 2 4 -3 
5 0.1445721187522887 0.1787720921433562 -1e-07 0.4518162601671205 0.486016233558188 1e-07 0 2 5 -5 
2 0.1445721187522887 0.1787720921433562 -1e-07 0.4518162601671205 0.486016233558188 1e-07 1 2 1 5 
3 -9.999999994736442e-08 -9.999999994736442e-08 -1e-07 1.0000001 1.0000001 1e-07 1 1 5 1 3 4 2 -5 
$EndEntities
$Nodes
12 227 1 227
0 1 0 1
1
0 0 0
0 2 0 1
2
1 0 0
0 3 0 1
3
0 1 0
0 4 0 1
4
1 1 0
0 5 0 1
5
0.4518161601671205 0.3323941628507721 0
1 1 0 9
6
7
8
9
10
11
12
13
14
0.09999999999999996 0 0
0.1999999999999999 0 0
0.3000000000000001 0 0
0.4000000000000004 0 0
0.5000000000000003 0 0
0.5999999999999999 0 0
0.6999999999999995 0 0
0.7999999999999992 0 0
0.899999999999999 0 0
1 2 0 9
15
16
17
18
19
20
21
22
23
0 0.9 0
0 0.8 0
0 0.7 0
0 0.5999999999999996 0
0 0.4999999999999997 0
0 0.4000000000000001 0
0 0.3000000000000005 0
0 0.2000000000000008 0
0 0.100000000000001 0
1 3 0 9
24
25
26
27
28
29
30
31
32
1 0.09999999999999996 0
1 0.1999999999999999 0
1 0.3000000000000001 0
1 0.4000000000000004 0
1 0.5000000000000003 0
1 0.5999999999999999 0
1 0.6999999999999995 0
1 0.7999999999999992 0
1 0.899999999999999 0
1 4 0 9
33
34
35
36
37
38
39
40
41
0.9 1 0
0.8 1 0
0.7 1 0
0.5999999999999996 1 0
0.4999999999999997 1 0
0.4000000000000001 1 0
0.3000000000000005 1 0
0.2000000000000008 1 0
0.100000000000001 1 0
1 5 0 17
42
43
44
45
46
47
48
49
50
51
52
53
54
55
56
57
58
0.4425516217240523 0.3849359712900942 0
0.415875446461107 0.4311404621971275 0
0.3750051748134126 0.4654346920628231 0
0.3248703647226499 0.4836822706364495 0
0.2715180141967592 0.4836822706364495 0
0.2213832041059966 0.4654346920628231 0
0.1805129324583022 0.4311404621971274 0
0.1538367571953569 0.3849359712900941 0
0.1445722187522887 0.3323941628507722 0
0.1538367571953568 0.2798523544114502 0
0.1805129324583019 0.233647863504417 0
0.2213832041059961 0.1993536336387213 0
0.2715180141967586 0.1811060550650947 0
0.3248703647226492 0.1811060550650944 0
0.3750051748134119 0.1993536336387206 0
0.4158754464611064 0.233647863504416 0
0.4425516217240522 0.2798523544114495 0
2 2 0 29
59
60
61
62
63
64
65
66
67
68
69
70
71
72
73
74
75
76
77
78
79
80
81
82
83
84
85
86
87
0.2009289698633921 0.2762613671124502 0
0.3891992711981617 0.3849359712900942 0
0.3618019032814281 0.2479367160987803 0
0.22913070357523 0.4143034469127177 0
0.2618292667551015 0.230392539015348 0
0.1963693884260792 0.3513747518956762 0
0.2981941894597046 0.4374777797294162 0
0.400093061774065 0.314917034646784 0
0.339064461107399 0.4446843113297889 0
0.3339316805889543 0.3970492492672802 0
0.2719285166564405 0.3944882977170409 0
0.3044431345097183 0.348058463476587 0
0.2507764532690451 0.3471200639520176 0
0.2779669031715266 0.3077113574963608 0
0.3443286952421046 0.2994643975775037 0
0.3094672799769425 0.2565179371512957 0
0.361845791803021 0.3492716598940469 0
0.3339107797631279 0.2203390708869948 0
0.2486087865800143 0.2726590659958597 0
0.1947070288430513 0.3921425028904669 0
0.3718694833994085 0.424444649620089 0
0.3929301456965513 0.2751636732477867 0
0.2578887177032428 0.4418235899430035 0
0.2222899382821141 0.2420033227823393 0
0.41241918874283 0.3532192458340879 0
0.1815282186130426 0.3116447886882524 0
0.22602978665385 0.3111285658567695 0
0.2991535337586771 0.2135096141704449 0
0.2285648147652827 0.3785116044286788 0
2 3 0 140
88
89
90
91
92
93
94
95
96
97
98
99
100
101
102
103
104
105
106
107
108
109
110
111
112
113
114
115
116
117
118
119
120
121
122
123
124
125
126
127
128
129
130
131
132
133
134
135
136
137
138
139
140
141
142
143
144
145
146
147
148
149
150
151
152
153
154
155
156
157
158
159
160
161
162
163
164
165
166
167
168
169
170
171
172
173
174
175
176
177
178
179
180
181
182
183
184
185
186
187
188
189
190
191
192
193
194
195
196
197
198
199
200
201
202
203
204
205
206
207
208
209
210
211
212
213
214
215
216
217
218
219
220
221
222
223
224
225
226
227
0.425366063086243 0.4816678172950879 0
0.4893032866648665 0.3660783749723783 0
0.2911128422743947 0.531484305738632 0
0.9068208558760414 0.6534316727485538 0
0.5474673116097071 0.9149005750906201 0
0.9078555211356816 0.4465039439593947 0
0.3523184547047268 0.9178117765603203 0
0.6525071321917486 0.09936580925863264 0
0.9172473742486179 0.2485021825553191 0
0.07418572596048267 0.747546789630795 0
0.75 0.9133974596215562 0
0.4745844731603315 0.2359373007435723 0
0.1716785636553206 0.4900766568287969 0
0.1672390224392595 0.1834771772955639 0
0.3613831178367543 0.1456750015769268 0
0.3832360447857471 0.5174108811783029 0
0.4367281291761472 0.53996636610007 0
0.3926058335246519 0.5791121665968557 0
0.4503207638500797 0.6005071936783277 0
0.500771371627993 0.5478457213960355 0
0.5138917216973704 0.6226269947825445 0
0.5666914528840388 0.5771022249763135 0
0.5808858286922053 0.6477536135065315 0
0.4013176132349136 0.6426226479121286 0
0.6373578646187432 0.5988942296028997 0
0.6218982935874451 0.5269463746622038 0
0.6466142890731729 0.672408702387354 0
0.6933694649530523 0.5471873670016514 0
0.6757273818513766 0.4729651592150516 0
0.5242088390029914 0.6970892503218591 0
0.6091781972790657 0.4590685500077513 0
0.656958163005549 0.3997217608424682 0
0.7327312460967241 0.4189629319615386 0
0.7102304990224773 0.3421784701839913 0
0.6241212726412985 0.321909937609725 0
0.686689728624658 0.2647818348907247 0
0.6105396890988586 0.245501053904746 0
0.3454993859726485 0.6170062523113843 0
0.3488901233151959 0.6867056625107613 0
0.2800474979085091 0.6452871847767421 0
0.2905804609341968 0.7384774943538953 0
0.3693891134795362 0.7619984309600503 0
0.7843384864125059 0.3608616040410537 0
0.4691418975820311 0.435139856578318 0
0.4965959774568623 0.297568612385696 0
0.8459271364411867 0.09452248280409881 0
0.1500000000000009 0.9133974596215564 0
0.9093253945328424 0.8441021433073719 0
0.2272195558417239 0.1500467412847132 0
0.1279784244630433 0.2345531701667457 0
0.1258733114648539 0.4485937210656208 0
0.2307729666174343 0.5156846614169879 0
0.178965358298558 0.55540089863303 0
0.4161688036434252 0.1682439736056021 0
0.2974717029386492 0.1358337475048026 0
0.1638153196925712 0.1226747964393976 0
0.2198669652749365 0.7069760011142144 0
0.2319945901796135 0.7886551986380135 0
0.2465066814829946 0.5740334848445581 0
0.1037019471045944 0.3666883927164677 0
0.5465713649278546 0.3388301729824326 0
0.5266356431456264 0.4088750398774442 0
0.5125332631991324 0.475999308444831 0
0.1072495157842558 0.2986541773839543 0
0.1985061264407885 0.6276378595476877 0
0.1240137890247673 0.6050036629778326 0
0.6664371940437387 0.187620287444008 0
0.743432504255144 0.2051007587450183 0
0.58628382260311 0.1774864961288889 0
0.5328548023863386 0.2450859131644572 0
0.1003670917742075 0.5272394682803915 0
0.514028123501391 0.1781478742416578 0
0.5402248977720956 0.09601260506951487 0
0.4640399609890115 0.06835865871682106 0
0.2451763750422391 0.07950969728888985 0
0.8122270108300476 0.4435291527182283 0
0.3353239870874934 0.07834839641510905 0
0.4519370798624693 0.9172081627668832 0
0.5000309270969544 0.8387093866189698 0
0.5934346814283052 0.8345997525059798 0
0.6483715504159402 0.9150246766245212 0
0.6963767651538366 0.833226425771223 0
0.7984959712573048 0.8335406135521564 0
0.7487550862486753 0.7551617553735155 0
0.8415787357554606 0.7475668650908225 0
0.7921478382363604 0.6617068465888851 0
0.8474396877873868 0.5856629943486206 0
0.1076494167084027 0.1732793555149709 0
0.5863770028578295 0.3972335126564893 0
0.751220859770442 0.08114155478146179 0
0.9193053435117099 0.3450737732569015 0
0.2499771680051563 0.9176589703382474 0
0.4044925992279594 0.8395920503404436 0
0.4595298180518118 0.7544256437443497 0
0.6452293878268207 0.7569785460775981 0
0.1390998069260893 0.6910441299725592 0
0.711139662091091 0.6222599671442555 0
0.7553275313218666 0.4929684445232489 0
0.9214056076609732 0.1527347638782957 0
0.07464022507529278 0.847871716683513 0
0.8474360475055432 0.9196391892873661 0
0.2997331301684485 0.8379955376322328 0
0.8355160466224572 0.2011439732542389 0
0.9191165968595031 0.5486717372948899 0
0.8454030639672954 0.3048625408720669 0
0.08083208458587099 0.08550649125491017 0
0.4612526785143242 0.6675824612002128 0
0.7753346167912776 0.5693695720532387 0
0.06094582842999657 0.2460428213075171 0
0.5472022213081283 0.7694254444796149 0
0.9315449972328689 0.7490201362293494 0
0.4118107530763043 0.7083192874755041 0
0.5595046148636179 0.5113592440158832 0
0.3434275392495966 0.5541627528708553 0
0.06649223014802352 0.6542570050332791 0
0.7654620858714429 0.2813189663382358 0
0.1504505437343849 0.7994911316056147 0
0.06126112370806402 0.4202461676648474 0
0.5888281131806637 0.7087311113545915 0
0.8483231329490131 0.5085192662313132 0
0.4709974750112138 0.5030116836999473 0
0.571279433390099 0.2845492718844361 0
0.2115474872837694 0.8529250589622315 0
0.4079127267073176 0.1090719321200346 0
0.4678581146982597 0.1341402830254316 0
0.05552640250448515 0.3386052598454645 0
0.926794919243112 0.07320508075688781 0
0.07320508075688797 0.9267949192431122 0
0.9267949192431122 0.926794919243112 0
0.8551429426565531 0.3854827035826155 0
0.7820931231871611 0.1459759855589231 0
0.7087772526952241 0.6937031635143216 0
0.152902607822207 0.05253625061707634 0
0.3013187893776287 0.5843947961084344 0
0.7192264647585379 0.1459989439244337 0
0.4647741755763173 0.1850066543989584 0
0.04435985570012274 0.1529231247333169 0
0.5568628700871088 0.4527055719565456 0
0.05817462218939973 0.5773000272583004 0
0.078563144927916 0.4739125201197396 0
$EndNodes
$Elements
6 452 1 452
1 1 1 10
1 1 6 
2 6 7 
3 7 8 
4 8 9 
5 9 10 
6 10 11 
7 11 12 
8 12 13 
9 13 14 
10 14 2 
1 2 1 10
11 3 15 
12 15 16 
13 16 17 
14 17 18 
15 18 19 
16 19 20 
17 20 21 
18 21 22 
19 22 23 
20 23 1 
1 3 1 10
21 2 24 
22 24 25 
23 25 26 
24 26 27 
25 27 28 
26 28 29 
27 29 30 
28 30 31 
29 31 32 
30 32 4 
1 4 1 10
31 4 33 
32 33 34 
33 34 35 
34 35 36 
35 36 37 
36 37 38 
37 38 39 
38 39 40 
39 40 41 
40 41 3 
2 2 2 74
41 73 80 66 
42 61 80 73 
43 66 75 73 
44 68 75 60 
45 73 74 61 
46 60 79 68 
47 66 83 75 
48 72 77 74 
49 74 77 63 
50 72 85 77 
51 71 85 72 
52 75 83 60 
53 5 66 58 
54 54 63 53 
55 48 62 47 
56 57 61 56 
57 46 65 45 
58 52 59 51 
59 43 60 42 
60 50 64 49 
61 72 73 70 
62 71 72 70 
63 69 71 70 
64 72 74 73 
65 70 75 68 
66 69 70 68 
67 73 75 70 
68 68 79 67 
69 65 69 68 
70 69 81 62 
71 65 81 69 
72 64 85 71 
73 71 87 64 
74 74 76 61 
75 69 87 71 
76 56 76 55 
77 61 76 56 
78 65 68 67 
79 62 87 69 
80 63 86 74 
81 5 83 66 
82 45 67 44 
83 58 80 57 
84 49 78 48 
85 43 79 60 
86 48 78 62 
87 42 83 5 
88 47 81 46 
89 53 82 52 
90 66 80 58 
91 51 84 50 
92 62 81 47 
93 64 78 49 
94 59 84 51 
95 60 83 42 
96 44 79 43 
97 50 84 64 
98 63 82 53 
99 65 67 45 
100 57 80 61 
101 52 82 59 
102 46 81 65 
103 55 86 54 
104 77 85 59 
105 54 86 63 
106 74 86 76 
107 59 82 77 
108 77 82 63 
109 76 86 55 
110 67 79 44 
111 84 85 64 
112 59 85 84 
113 64 87 78 
114 78 87 62 
2 3 2 338
115 172 173 91 
116 95 160 11 
117 144 204 183 
118 124 157 156 
119 157 159 156 
120 180 189 129 
121 148 149 89 
122 127 152 146 
123 11 160 10 
124 170 172 135 
125 136 142 54 
126 6 193 1 
127 173 174 91 
128 143 220 162 
129 129 189 128 
130 1 193 23 
131 156 160 95 
132 103 201 45 
133 9 211 164 
134 148 176 149 
135 107 208 150 
136 138 147 49 
137 160 161 10 
138 181 194 117 
139 122 176 148 
140 146 221 127 
141 154 156 95 
142 185 207 195 
143 94 189 180 
144 145 204 144 
145 172 198 135 
146 144 152 127 
147 45 201 90 
148 150 200 107 
149 91 198 172 
150 148 209 122 
151 182 219 171 
152 139 146 140 
153 190 203 155 
154 161 211 9 
155 183 204 97 
156 44 103 45 
157 128 189 145 
158 131 208 88 
159 192 203 190 
160 174 191 91 
161 117 197 181 
162 135 188 170 
163 91 191 29 
164 167 169 168 
165 169 182 171 
166 184 195 173 
167 8 164 162 
168 146 152 140 
169 35 168 98 
170 136 162 142 
171 181 199 194 
172 168 169 98 
173 173 195 174 
174 100 158 138 
175 167 182 169 
176 114 219 182 
177 94 180 165 
178 89 149 131 
179 127 221 125 
180 43 131 88 
181 89 131 42 
182 9 164 8 
183 132 209 148 
184 56 141 57 
185 99 159 157 
186 129 181 180 
187 162 164 142 
188 94 165 38 
189 5 132 89 
190 157 209 132 
191 53 136 54 
192 140 158 100 
193 132 148 89 
194 12 177 95 
195 36 168 35 
196 195 207 174 
197 99 132 58 
198 165 166 92 
199 93 178 27 
200 186 190 133 
201 162 220 7 
202 39 179 94 
203 90 139 46 
204 204 210 134 
205 99 157 132 
206 8 162 7 
207 163 207 185 
208 48 138 49 
209 12 95 11 
210 176 225 149 
211 37 165 92 
212 90 146 139 
213 190 218 133 
214 141 223 57 
215 113 118 116 
216 180 181 166 
217 169 171 170 
218 113 200 118 
219 39 94 38 
220 187 204 134 
221 169 170 98 
222 28 93 27 
223 37 92 36 
224 167 197 182 
225 166 167 92 
226 10 161 9 
227 30 91 29 
228 150 208 131 
229 158 226 19 
230 133 177 13 
231 181 197 166 
232 26 178 96 
233 119 176 122 
234 178 217 192 
235 13 177 12 
236 165 180 166 
237 119 122 121 
238 38 165 37 
239 171 173 172 
240 95 222 154 
241 134 179 40 
242 92 168 36 
243 122 124 123 
244 40 179 39 
245 27 178 26 
246 178 192 96 
247 144 183 152 
248 124 156 154 
249 26 96 25 
250 137 196 175 
251 197 206 182 
252 138 205 147 
253 17 97 16 
254 192 217 130 
255 47 139 100 
256 35 98 34 
257 171 172 170 
258 109 113 112 
259 14 133 13 
260 41 134 40 
261 57 223 99 
262 179 189 94 
263 32 135 31 
264 189 210 145 
265 19 227 158 
266 196 224 175 
267 170 188 98 
268 30 198 91 
269 139 140 100 
270 118 225 176 
271 124 209 157 
272 118 119 116 
273 93 207 163 
274 52 137 101 
275 205 213 147 
276 113 116 115 
277 25 186 24 
278 16 187 15 
279 34 188 33 
280 205 227 19 
281 129 199 181 
282 122 123 121 
283 55 142 102 
284 200 225 118 
285 29 191 28 
286 167 168 92 
287 163 217 93 
288 158 227 138 
289 160 212 161 
290 113 115 112 
291 149 150 131 
292 96 186 25 
293 97 187 16 
294 135 198 31 
295 130 163 120 
296 43 88 44 
297 5 89 42 
298 118 176 119 
299 98 188 34 
300 173 219 184 
301 45 90 46 
302 20 205 19 
303 179 210 189 
304 107 200 109 
305 111 125 105 
306 177 222 95 
307 124 154 123 
308 151 213 196 
309 110 117 108 
310 42 131 43 
311 119 121 120 
312 99 223 159 
313 28 191 93 
314 109 112 110 
315 51 151 137 
316 126 129 128 
317 122 209 124 
318 104 107 106 
319 121 130 120 
320 57 99 58 
321 112 114 110 
322 6 220 193 
323 58 132 5 
324 88 103 44 
325 163 185 120 
326 119 120 116 
327 147 151 50 
328 137 175 101 
329 116 185 115 
330 142 164 102 
331 126 127 125 
332 111 126 125 
333 153 158 140 
334 107 109 108 
335 115 184 112 
336 104 105 103 
337 125 201 105 
338 2 214 14 
339 24 214 2 
340 104 106 105 
341 3 215 41 
342 15 215 3 
343 4 216 32 
344 33 216 4 
345 106 111 105 
346 109 110 108 
347 154 155 123 
348 152 153 140 
349 19 226 18 
350 93 217 178 
351 88 104 103 
352 112 184 114 
353 120 185 116 
354 166 197 167 
355 128 145 144 
356 107 108 106 
357 159 160 156 
358 128 144 127 
359 96 190 186 
360 17 202 97 
361 46 139 47 
362 126 128 127 
363 151 196 137 
364 52 101 53 
365 152 183 153 
366 22 196 21 
367 117 194 108 
368 182 206 114 
369 97 202 183 
370 109 200 113 
371 47 100 48 
372 126 199 129 
373 55 102 56 
374 18 202 17 
375 31 198 30 
376 96 192 190 
377 54 142 55 
378 121 203 130 
379 51 137 52 
380 171 219 173 
381 106 194 111 
382 104 208 107 
383 159 212 160 
384 115 195 184 
385 185 195 115 
386 21 213 20 
387 193 220 143 
388 108 194 106 
389 133 218 177 
390 20 213 205 
391 49 147 50 
392 114 206 110 
393 101 175 143 
394 130 203 192 
395 111 199 126 
396 50 151 51 
397 102 141 56 
398 175 193 143 
399 101 136 53 
400 155 203 123 
401 134 210 179 
402 194 199 111 
403 105 201 103 
404 22 224 196 
405 7 220 6 
406 101 143 136 
407 123 203 121 
408 183 202 153 
409 110 206 117 
410 186 214 24 
411 97 204 187 
412 187 215 15 
413 100 138 48 
414 23 224 22 
415 117 206 197 
416 191 207 93 
417 164 211 102 
418 188 216 33 
419 196 213 21 
420 14 214 133 
421 41 215 134 
422 32 216 135 
423 147 213 151 
424 174 207 191 
425 125 221 201 
426 88 208 104 
427 211 212 141 
428 133 214 186 
429 134 215 187 
430 135 216 188 
431 150 225 200 
432 155 218 190 
433 130 217 163 
434 90 221 146 
435 18 226 202 
436 184 219 114 
437 154 222 155 
438 145 210 204 
439 102 211 141 
440 202 226 153 
441 149 225 150 
442 153 226 158 
443 201 221 90 
444 161 212 211 
445 175 224 193 
446 193 224 23 
447 155 222 218 
448 212 223 141 
449 218 222 177 
450 159 223 212 
451 138 227 205 
452 143 162 136 
$EndElements
