$MeshFormat
4.1 0 8
$EndMeshFormat
$PhysicalNames
3
1 101 "outer_boundary"
2 1 "material_1"
2 2 "material_2"
$EndPhysicalNames
$Entities
7 7 2 0
1 0 0 0 0 
2 1 0 0 0 
3 0 1 0 0 
4 1 1 0 0 
5 0.5014699438553727 0.2254955291444997 0 0 
6 0.6565327670127947 0.09579898303272844 0 0 
7 0.6913218591499775 0.2949356001254755 0 0 
1 -9.999999994736442e-08 -1e-07 -1e-07 1.0000001 1e-07 1e-07 1 101 2 1 -2 
2 -1e-07 -9.999999994736442e-08 -1e-07 1e-07 1.0000001 1e-07 1 101 2 3 -1 
3 0.9999999000000001 -9.999999994736442e-08 -1e-07 1.0000001 1.0000001 1e-07 1 101 2 2 -4 
4 -9.999999994736442e-08 0.9999999000000001 -1e-07 1.0000001 1.0000001 1e-07 1 101 2 4 -3 
5 0.5014698438553727 0.09579888303272843 -1e-07 0.6565328670127947 0.2254956291444997 1e-07 0 2 5 -6 
6 0.6565326670127948 0.09579888303272843 -1e-07 0.6913219591499774 0.2949357001254755 1e-07 0 2 6 -7 
7 0.5014698438553727 0.2254954291444997 -1e-07 0.6913219591499774 0.2949357001254755 1e-07 0 2 7 -5 
2 0.5014698438553727 0.09579888303272843 -1e-07 0.6913219591499774 0.2949357001254755 1e-07 1 2 3 5 6 7 
3 -9.999999994736442e-08 -9.999999994736442e-08 -1e-07 1.0000001 1.0000001 1e-07 1 1 7 1 3 4 2 -5 -7 -6 
$EndEntities
$Nodes
16 138 1 138
0 1 0 1
1
0 0 0
0 2 0 1
2
1 0 0
0 3 0 1
3
0 1 0
0 4 0 1
4
1 1 0
0 5 0 1
5
0.5014699438553727 0.2254955291444997 0
0 6 0 1
6
0.6565327670127947 0.09579898303272844 0
0 7 0 1
7
0.6913218591499775 0.2949356001254755 0
1 1 0 7
8
9
10
11
12
13
14
0.1249999999999999 0 0
0.2499999999999998 0 0
0.3749999999999993 0 0
0.4999999999999988 0 0
0.6249999999999988 0 0
0.7499999999999991 0 0
0.8749999999999997 0 0
1 2 0 7
15
16
17
18
19
20
21
0 0.8750000000000001 0
0 0.7500000000000002 0
0 0.6250000000000007 0
0 0.5000000000000012 0
0 0.3750000000000012 0
0 0.2500000000000009 0
0 0.1250000000000003 0
1 3 0 7
22
23
24
25
26
27
28
1 0.1249999999999999 0
1 0.2499999999999998 0
1 0.3749999999999993 0
1 0.4999999999999988 0
1 0.6249999999999988 0
1 0.7499999999999991 0
1 0.8749999999999997 0
1 4 0 7
29
30
31
32
33
34
35
0.8750000000000001 1 0
0.7500000000000002 1 0
0.6250000000000007 1 0
0.5000000000000012 1 0
0.3750000000000012 1 0
0.2500000000000009 1 0
0.1250000000000003 1 0
1 5 0 2
36
37
0.5531575515745135 0.1822633471072425 0
0.6048451592936543 0.1390311650699853 0
1 6 0 2
38
39
0.6681291310585223 0.1621778553969776 0
0.67972549510425 0.2285567277612268 0
1 7 0 2
40
41
0.6280378873851091 0.2717889097984835 0
0.5647539156202406 0.2486422194714915 0
2 2 0 1
42
0.6164415233393816 0.2054100374342345 0
2 3 0 96
43
44
45
46
47
48
49
50
51
52
53
54
55
56
57
58
59
60
61
62
63
64
65
66
67
68
69
70
71
72
73
74
75
76
77
78
79
80
81
82
83
84
85
86
87
88
89
90
91
92
93
94
95
96
97
98
99
100
101
102
103
104
105
106
107
108
109
110
111
112
113
114
115
116
117
118
119
120
121
122
123
124
125
126
127
128
129
130
131
132
133
134
135
136
137
138
0.512351556895863 0.2920497865700314 0
0.438972569710083 0.9061835141054556 0
0.1011523742153255 0.5733017569295131 0
0.4466180381148719 0.2694798570396931 0
0.4570816583750389 0.341100471709869 0
0.8917468245269454 0.5624999999999988 0
0.3853750643369297 0.3161875258657631 0
0.3989637113714455 0.3951195900006563 0
0.4894448342401323 0.4172741355249067 0
0.4160167043796467 0.4799361260014143 0
0.5004718314812822 0.5087599451468197 0
0.6856661908719994 0.8929858437819995 0
0.3180144012342466 0.3679605680801659 0
0.4313842841384388 0.5705440638945054 0
0.5224931241661604 0.6009097677428747 0
0.5883473102232656 0.5400524350523588 0
0.7236125789248977 0.1875178639028871 0
0.3059577242552481 0.2802138580703164 0
0.6178627529108486 0.6284558062724073 0
0.6373439729360495 0.3402562429166405 0
0.7049549918882715 0.3637495959610608 0
0.7635257177088752 0.3157874238572329 0
0.3441576175561109 0.5427675112567656 0
0.3594603308272976 0.6380641258405779 0
0.1940397424127698 0.8909091141301912 0
0.4352390125270824 0.1987668695262322 0
0.230912426488351 0.3358038505329682 0
0.217886300567499 0.237734036905193 0
0.7783695838486869 0.4017616835951614 0
0.5599343756628176 0.6989982208268781 0
0.6910460774650304 0.559747013628882 0
0.716248791362385 0.6607800442446217 0
0.9049000698882059 0.8133207550726229 0
0.3025978663695106 0.1849557066752197 0
0.2477284895631513 0.4298008838554322 0
0.8940870591357047 0.1816240490701267 0
0.8423989181124829 0.3386435531349414 0
0.2688268719990666 0.6082610078059382 0
0.2826054050412292 0.7089195624522902 0
0.6402338542325551 0.4160646953470769 0
0.3843070345364922 0.7405030325490728 0
0.849896244139889 0.4166570981453585 0
0.1522894804239952 0.3985441599205611 0
0.2098266301719933 0.1153168361805265 0
0.1847118974348511 0.6598705541625699 0
0.5753262418256575 0.3832348738570662 0
0.8042400749893768 0.499214104369858 0
0.5297708476542896 0.1068122873192929 0
0.2963328235362955 0.8117036707438396 0
0.8090587051471945 0.08882292145341875 0
0.8878972373433458 0.6837467413180016 0
0.5619169794153385 0.8984949545836132 0
0.6157249604345878 0.7977721237872375 0
0.7280314815662843 0.7713720838606311 0
0.1171600943796159 0.1961501603969067 0
0.5730189603076942 0.3149685452173013 0
0.8106582887837934 0.8784777688198743 0
0.8226888652488753 0.2528183737922197 0
0.43475517157275 0.1018942881812452 0
0.1883559696669421 0.7619004835814819 0
0.4855496725474168 0.7900077181836889 0
0.7230960398052835 0.1219545682761253 0
0.7430094668691183 0.2517034180882186 0
0.7945140488817043 0.5959804172826232 0
0.4571881369797706 0.6731711548395996 0
0.3306214695652909 0.4554378742577352 0
0.1197080503099102 0.2988720346259386 0
0.490135170195723 0.1601396179098456 0
0.5932487952479266 0.07265229270573648 0
0.09296467967837341 0.8125000000000001 0
0.9107433737118241 0.2856231523351473 0
0.1724542994688845 0.492469675336681 0
0.7067143622195542 0.4699156579103754 0
0.3322723509261981 0.09197735057220724 0
0.9106882503041125 0.0888581126142286 0
0.374741113563044 0.2346063435243264 0
0.5690061165302014 0.4585216826157474 0
0.3165354098139458 0.9133697793361061 0
0.7920559126055855 0.1794446121860592 0
0.2587793601317877 0.5168450609524264 0
0.08496579987910347 0.6909968898611255 0
0.1026427423307589 0.09246299456283619 0
0.08517923082164103 0.4678631184373515 0
0.5214446503288772 0.3497255625758349 0
0.7963865843555483 0.6878486392185 0
0.0873465771306996 0.912441603196855 0
0.9084936490538902 0.90849364905389 0
0.6475604723873847 0.7114756557983551 0
0.9114871392472641 0.3742473761979217 0
0.7127375023930541 0.06131529455245449 0
0.3856885711662155 0.8285063564345967 0
0.6377526983735977 0.4827720153814904 0
0.1931208555013654 0.5712192284241592 0
0.3726589757746211 0.1580342439687337 0
0.912522377848258 0.4636606018151366 0
0.8247009888785035 0.7658728697470834 0
$EndNodes
$Elements
6 274 1 274
1 1 1 8
1 1 8 
2 8 9 
3 9 10 
4 10 11 
5 11 12 
6 12 13 
7 13 14 
8 14 2 
1 2 1 8
9 3 15 
10 15 16 
11 16 17 
12 17 18 
13 18 19 
14 19 20 
15 20 21 
16 21 1 
1 3 1 8
17 2 22 
18 22 23 
19 23 24 
20 24 25 
21 25 26 
22 26 27 
23 27 28 
24 28 4 
1 4 1 8
25 4 29 
26 29 30 
27 30 31 
28 31 32 
29 32 33 
30 33 34 
31 34 35 
32 35 3 
2 2 2 9
33 37 6 38 
34 39 7 40 
35 41 5 36 
36 37 42 36 
37 41 42 40 
38 36 42 41 
39 38 42 37 
40 39 42 38 
41 40 42 39 
2 3 2 233
42 19 109 85 
43 20 109 19 
44 83 107 103 
45 9 86 8 
46 86 124 8 
47 71 115 63 
48 9 116 86 
49 103 107 72 
50 85 125 19 
51 63 115 82 
52 102 123 87 
53 112 123 102 
54 93 106 48 
55 86 116 76 
56 97 109 20 
57 51 126 88 
58 11 111 90 
59 1 124 21 
60 88 119 51 
61 90 101 11 
62 104 121 59 
63 93 127 106 
64 104 132 92 
65 12 111 11 
66 89 137 48 
67 21 97 20 
68 26 93 48 
69 8 124 1 
70 95 103 72 
71 84 137 89 
72 89 106 73 
73 23 78 22 
74 91 120 67 
75 87 123 45 
76 48 106 89 
77 94 95 54 
78 73 115 89 
79 12 132 6 
80 26 48 25 
81 67 102 91 
82 101 110 68 
83 31 94 54 
84 24 131 113 
85 18 45 17 
86 6 111 12 
87 14 92 13 
88 24 137 131 
89 94 103 95 
90 33 44 32 
91 44 94 32 
92 75 93 27 
93 103 133 83 
94 27 93 26 
95 59 121 105 
96 89 115 71 
97 82 119 88 
98 74 127 96 
99 96 130 74 
100 92 121 104 
101 13 132 12 
102 78 121 92 
103 24 113 23 
104 95 96 54 
105 90 110 101 
106 31 54 30 
107 96 99 54 
108 32 94 31 
109 35 67 34 
110 28 75 27 
111 68 136 101 
112 45 135 87 
113 21 124 97 
114 45 123 17 
115 96 138 99 
116 25 137 24 
117 76 118 60 
118 33 120 44 
119 30 99 29 
120 44 103 94 
121 54 99 30 
122 66 83 81 
123 70 76 60 
124 58 73 61 
125 53 58 57 
126 10 116 9 
127 41 43 5 
128 2 117 14 
129 92 117 78 
130 92 132 13 
131 22 117 2 
132 67 120 34 
133 120 133 44 
134 95 130 96 
135 40 98 41 
136 56 65 52 
137 11 101 10 
138 73 106 74 
139 83 91 81 
140 105 121 100 
141 73 74 61 
142 58 61 57 
143 61 72 57 
144 53 56 52 
145 81 87 80 
146 7 62 40 
147 53 57 56 
148 67 112 102 
149 82 88 62 
150 15 128 3 
151 47 51 50 
152 66 81 80 
153 72 130 95 
154 23 113 78 
155 99 138 75 
156 55 77 69 
157 51 53 52 
158 66 80 65 
159 3 128 35 
160 51 119 53 
161 64 100 79 
162 70 86 76 
163 4 129 28 
164 29 129 4 
165 56 66 65 
166 82 134 119 
167 47 50 49 
168 51 52 50 
169 38 59 39 
170 66 107 83 
171 41 98 43 
172 81 102 87 
173 91 102 81 
174 84 89 71 
175 43 46 5 
176 70 97 86 
177 43 47 46 
178 50 55 49 
179 19 125 18 
180 78 117 22 
181 48 137 25 
182 69 70 60 
183 47 49 46 
184 16 112 15 
185 72 107 57 
186 77 85 69 
187 6 104 38 
188 7 63 62 
189 131 137 84 
190 39 105 7 
191 57 107 56 
192 88 98 62 
193 65 108 52 
194 62 98 40 
195 55 60 49 
196 56 107 66 
197 65 122 108 
198 16 123 112 
199 55 69 60 
200 7 64 63 
201 52 108 50 
202 64 105 100 
203 76 136 118 
204 70 109 97 
205 63 82 62 
206 55 108 77 
207 14 117 92 
208 18 125 45 
209 79 84 71 
210 69 109 70 
211 58 134 73 
212 50 108 55 
213 47 126 51 
214 64 79 71 
215 64 71 63 
216 44 133 103 
217 108 122 77 
218 85 109 69 
219 5 110 36 
220 36 90 37 
221 46 68 5 
222 53 119 58 
223 37 111 6 
224 61 130 72 
225 127 138 96 
226 34 120 33 
227 77 114 85 
228 75 138 93 
229 17 123 16 
230 91 133 120 
231 38 104 59 
232 59 105 39 
233 100 113 79 
234 7 105 64 
235 78 113 100 
236 99 129 29 
237 87 135 80 
238 35 128 67 
239 98 126 43 
240 80 122 65 
241 67 128 112 
242 28 129 75 
243 101 116 10 
244 60 118 49 
245 100 121 78 
246 43 126 47 
247 73 134 115 
248 75 129 99 
249 97 124 86 
250 49 118 46 
251 74 130 61 
252 68 110 5 
253 45 125 114 
254 77 122 114 
255 101 136 116 
256 106 127 74 
257 88 126 98 
258 83 133 91 
259 118 136 68 
260 36 110 90 
261 90 111 37 
262 114 125 85 
263 112 128 15 
264 46 118 68 
265 113 131 79 
266 115 134 82 
267 6 132 104 
268 79 131 84 
269 116 136 76 
270 93 138 127 
271 119 134 58 
272 122 135 114 
273 80 135 122 
274 114 135 45 
$EndElements
