$MeshFormat
4.1 0 8
$EndMeshFormat
$PhysicalNames
3
1 101 "outer_boundary"
2 1 "material_1"
2 2 "material_2"
$EndPhysicalNames
$Entities
7 7 2 0
1 0 0 0 0 
2 1 0 0 0 
3 0 1 0 0 
4 1 1 0 0 
5 0.347972320213124 0.9289708267369042 0 0 
6 0.2850043483237902 0.7178526128642261 0 0 
7 0.4993220706837927 0.7688798565196177 0 0 
1 -9.999999994736442e-08 -1e-07 -1e-07 1.0000001 1e-07 1e-07 1 101 2 1 -2 
2 -1e-07 -9.999999994736442e-08 -1e-07 1e-07 1.0000001 1e-07 1 101 2 3 -1 
3 0.9999999000000001 -9.999999994736442e-08 -1e-07 1.0000001 1.0000001 1e-07 1 101 2 2 -4 
4 -9.999999994736442e-08 0.9999999000000001 -1e-07 1.0000001 1.0000001 1e-07 1 101 2 4 -3 
5 0.2850042483237902 0.7178525128642261 -1e-07 0.347972420213124 0.9289709267369042 1e-07 0 2 5 -6 
6 0.2850042483237902 0.7178525128642261 -1e-07 0.4993221706837927 0.7688799565196176 1e-07 0 2 6 -7 
7 0.347972220213124 0.7688797565196177 -1e-07 0.4993221706837927 0.9289709267369042 1e-07 0 2 7 -5 
2 0.2850042483237902 0.7178525128642261 -1e-07 0.4993221706837927 0.9289709267369042 1e-07 1 2 3 5 6 7 
3 -9.999999994736442e-08 -9.999999994736442e-08 -1e-07 1.0000001 1.0000001 1e-07 1 1 7 1 3 4 2 -5 -7 -6 
$EndEntities
$Nodes
16 156 1 156
0 1 0 1
1
0 0 0
0 2 0 1
2
1 0 0
0 3 0 1
3
0 1 0
0 4 0 1
4
1 1 0
0 5 0 1
5
0.347972320213124 0.9289708267369042 0
0 6 0 1
6
0.2850043483237902 0.7178526128642261 0
0 7 0 1
7
0.4993220706837927 0.7688798565196177 0
1 1 0 7
8
9
10
11
12
13
14
0.1249999999999999 0 0
0.2499999999999998 0 0
0.3749999999999993 0 0
0.4999999999999988 0 0
0.6249999999999988 0 0
0.7499999999999991 0 0
0.8749999999999997 0 0
1 2 0 7
15
16
17
18
19
20
21
0 0.8750000000000001 0
0 0.7500000000000002 0
0 0.6250000000000007 0
0 0.5000000000000012 0
0 0.3750000000000012 0
0 0.2500000000000009 0
0 0.1250000000000003 0
1 3 0 7
22
23
24
25
26
27
28
1 0.1249999999999999 0
1 0.2499999999999998 0
1 0.3749999999999993 0
1 0.4999999999999988 0
1 0.6249999999999988 0
1 0.7499999999999991 0
1 0.8749999999999997 0
1 4 0 7
29
30
31
32
33
34
35
0.8750000000000001 1 0
0.7500000000000002 1 0
0.6250000000000007 1 0
0.5000000000000012 1 0
0.3750000000000012 1 0
0.2500000000000009 1 0
0.1250000000000003 1 0
1 5 0 3
36
37
38
0.3322303272407905 0.8761912732687347 0
0.3164883342684571 0.8234117198005652 0
0.3007463412961237 0.7706321663323956 0
1 6 0 3
39
40
41
0.3385837789137909 0.730609423778074 0
0.3921632095037915 0.7433662346919219 0
0.4457426400937921 0.7561230456057698 0
1 7 0 3
42
43
44
0.4614846330661255 0.8089025990739394 0
0.4236471954484584 0.8489253416282609 0
0.3858097578307912 0.8889480841825826 0
2 2 0 3
45
46
47
0.3543257718861243 0.7833889772462435 0
0.4079052024761249 0.7961457881600914 0
0.3700677648584578 0.8361685307144131 0
2 3 0 109
48
49
50
51
52
53
54
55
56
57
58
59
60
61
62
63
64
65
66
67
68
69
70
71
72
73
74
75
76
77
78
79
80
81
82
83
84
85
86
87
88
89
90
91
92
93
94
95
96
97
98
99
100
101
102
103
104
105
106
107
108
109
110
111
112
113
114
115
116
117
118
119
120
121
122
123
124
125
126
127
128
129
130
131
132
133
134
135
136
137
138
139
140
141
142
143
144
145
146
147
148
149
150
151
152
153
154
155
156
0.4830553903744704 0.7140668859004825 0
0.3250404541610647 0.6755573546769967 0
0.5594164807613755 0.1063085742981733 0
0.5404363802763313 0.7272412952422943 0
0.5227117864609684 0.6677396671787823 0
0.9076223824476998 0.4453638620841822 0
0.5864698461991539 0.6826165765378126 0
0.5676466695397093 0.6175352240002937 0
0.5002323257117697 0.603878757452023 0
0.5471595499290287 0.5476941802729806 0
0.4749447523305032 0.5322263201228895 0
0.320134094720177 0.1048760044609756 0
0.5241259906527964 0.4713509129649818 0
0.4415861794225663 0.456508278321317 0
0.6386422937097185 0.6325209401268197 0
0.2653652645048753 0.658826230813539 0
0.6572069248496575 0.7063616300825357 0
0.5520486142709227 0.7773471124748621 0
0.2609413404881972 0.8112417529177559 0
0.2244627108035243 0.7072690895670352 0
0.6023053668332445 0.4882538056750792 0
0.5804837117623871 0.4056167799233159 0
0.104194690023302 0.4275027382035796 0
0.3093424542921481 0.6124991040761565 0
0.7179816173615194 0.6498457861589179 0
0.7378452655480798 0.7351914707356204 0
0.1866096287242199 0.6305998775276209 0
0.667831273097482 0.4249086152619999 0
0.6426677947713759 0.3297810044238685 0
0.5488071995056533 0.3093694642844121 0
0.8171948100525865 0.09724491588342254 0
0.1013787409242412 0.1883985006181521 0
0.3686931739704266 0.6335192952175276 0
0.8025390602295933 0.6735410987972125 0
0.7707588985839141 0.5906727887008872 0
0.8267486593455121 0.7694915561013722 0
0.737429214237826 0.3580183760004227 0
0.3585405695180864 0.5655477388418979 0
0.2852718044507798 0.5415316146279791 0
0.4693326631607714 0.8617986321351061 0
0.1053079182085758 0.8116443750895612 0
0.6763003406168022 0.788971576042644 0
0.7120621891585205 0.2596294343547607 0
0.8115027879264326 0.2871691288500666 0
0.1459698168571626 0.7147979081311859 0
0.1917718332379911 0.8971860720271877 0
0.1073354826766806 0.5436126384665215 0
0.7579894183037345 0.455884433368197 0
0.3532032596615429 0.475603641564681 0
0.2614247540072139 0.4596170134548977 0
0.3237321039501246 0.3853068450621022 0
0.2113423184214098 0.3684583865153685 0
0.2992170803591359 0.2906984224301743 0
0.4002596210597285 0.3220710393597468 0
0.3873991690137518 0.2174242096454981 0
0.9140024176805422 0.5654000852255154 0
0.8197459186604754 0.8942779386038073 0
0.4393133585382494 0.1066200544164528 0
0.5001423023875549 0.2080444348499093 0
0.6934085010709159 0.1247430396468373 0
0.1026549878295919 0.3098795226073564 0
0.6087235634623742 0.2180281637061666 0
0.2842015937984205 0.9140300951476894 0
0.4258749169461774 0.9412374534841715 0
0.6931766481744854 0.5772723456896126 0
0.6892747799637851 0.8894252513621635 0
0.589292075978441 0.8930360165690339 0
0.1952452843532016 0.1149686520652319 0
0.4631357498314115 0.6576589491925418 0
0.4275630930499918 0.5958511977296687 0
0.4300006471214587 0.7033434921376003 0
0.376421216531458 0.6905866812237523 0
0.8988755423808994 0.6907933966685914 0
0.2118747916616428 0.5374816752189775 0
0.8922116858302112 0.1947544218884389 0
0.1990141776085981 0.2499175103070362 0
0.4809120141186993 0.3784963252156219 0
0.2539413927422642 0.7616216269685434 0
0.1985522227996858 0.8011125131613042 0
0.6207496972957538 0.5606635325370281 0
0.08765797333855607 0.9123144790991883 0
0.4415030207771624 0.8960171737874421 0
0.5268470521845592 0.8378526233546985 0
0.2748712189501777 0.8629751838971274 0
0.9051391625688882 0.3239174269737105 0
0.754877937501054 0.8229423591059979 0
0.912016955313925 0.8177157504784054 0
0.2842070854754205 0.1987947898119847 0
0.6036388631887288 0.7516235703668944 0
0.4074773857313301 0.5181485551591981 0
0.7852759948077334 0.1927081881247052 0
0.8242106208795987 0.3973494237289088 0
0.5099662028205825 0.9212024960224454 0
0.6755676555883368 0.5007046994573827 0
0.09150635094610987 0.09150635094610998 0
0.9142628329720865 0.08558783694290717 0
0.2516927887267332 0.5961877004528546 0
0.8249385235049718 0.5135091391004537 0
0.08545667398363327 0.6595901047949193 0
0.2278651824432123 0.8469764331235339 0
0.4728253507510796 0.2883125549664081 0
0.6062336210338731 0.8230426916950493 0
0.3987236253221047 0.3981590272013337 0
0.4119373299904168 0.6603136502139832 0
0.07841631578539138 0.7391789569173369 0
0.7417479276493182 0.5245808779166667 0
0.9267316114966636 0.9267316114966635 0
0.1792344073580499 0.467334490371869 0
0.8422228884759841 0.606783301698532 0
$EndNodes
$Elements
6 310 1 310
1 1 1 8
1 1 8 
2 8 9 
3 9 10 
4 10 11 
5 11 12 
6 12 13 
7 13 14 
8 14 2 
1 2 1 8
9 3 15 
10 15 16 
11 16 17 
12 17 18 
13 18 19 
14 19 20 
15 20 21 
16 21 1 
1 3 1 8
17 2 22 
18 22 23 
19 23 24 
20 24 25 
21 25 26 
22 26 27 
23 27 28 
24 28 4 
1 4 1 8
25 4 29 
26 29 30 
27 30 31 
28 31 32 
29 32 33 
30 33 34 
31 34 35 
32 35 3 
2 2 2 16
33 38 6 39 
34 44 5 36 
35 41 7 42 
36 39 45 38 
37 43 46 42 
38 45 47 37 
39 38 45 37 
40 40 46 45 
41 41 46 40 
42 46 47 45 
43 36 47 44 
44 43 47 46 
45 37 47 36 
46 40 45 39 
47 42 46 41 
48 44 47 43 
2 3 2 262
49 92 126 88 
50 90 109 107 
51 67 126 92 
52 129 140 111 
53 130 140 87 
54 33 111 32 
55 70 108 99 
56 107 138 90 
57 125 126 67 
58 94 121 74 
59 88 126 93 
60 93 131 110 
61 59 105 102 
62 99 155 70 
63 120 156 103 
64 126 147 93 
65 77 109 76 
66 74 146 94 
67 93 147 131 
68 31 140 114 
69 120 134 83 
70 26 120 103 
71 115 135 123 
72 27 134 120 
73 106 109 77 
74 114 140 130 
75 94 155 121 
76 122 132 91 
77 105 106 102 
78 93 110 34 
79 23 132 122 
80 107 109 50 
81 76 109 90 
82 121 144 74 
83 115 123 79 
84 16 88 15 
85 50 106 105 
86 108 123 99 
87 70 94 18 
88 146 152 16 
89 10 105 59 
90 31 114 113 
91 124 150 101 
92 113 149 89 
93 50 109 106 
94 101 148 124 
95 35 93 34 
96 114 149 113 
97 92 146 74 
98 65 149 130 
99 70 155 94 
100 130 149 114 
101 12 107 50 
102 18 94 17 
103 88 152 92 
104 19 108 70 
105 25 103 53 
106 96 150 61 
107 25 53 24 
108 50 105 11 
109 12 50 11 
110 32 140 31 
111 19 70 18 
112 30 104 29 
113 10 59 9 
114 93 128 88 
115 26 103 25 
116 111 140 32 
117 78 107 13 
118 79 108 20 
119 11 105 10 
120 13 107 12 
121 17 146 16 
122 20 108 19 
123 99 123 100 
124 106 148 102 
125 61 137 96 
126 21 79 20 
127 31 113 30 
128 14 78 13 
129 16 152 88 
130 59 135 115 
131 28 134 27 
132 100 101 98 
133 59 115 9 
134 104 133 83 
135 83 134 104 
136 139 145 95 
137 9 115 8 
138 78 138 107 
139 102 148 101 
140 85 117 80 
141 30 113 104 
142 85 137 117 
143 102 135 59 
144 77 148 106 
145 5 111 33 
146 3 128 35 
147 89 136 64 
148 15 128 3 
149 100 102 101 
150 84 95 75 
151 91 138 122 
152 53 145 139 
153 27 120 26 
154 69 77 76 
155 41 48 7 
156 24 132 23 
157 6 49 39 
158 98 150 96 
159 79 123 108 
160 39 119 40 
161 72 82 81 
162 52 56 55 
163 40 118 41 
164 23 122 22 
165 88 128 15 
166 99 100 98 
167 71 80 49 
168 72 112 82 
169 48 116 52 
170 94 146 17 
171 52 116 56 
172 90 91 84 
173 73 89 64 
174 22 143 2 
175 60 68 57 
176 89 133 113 
177 8 142 1 
178 1 142 21 
179 76 90 84 
180 124 148 77 
181 117 137 58 
182 2 143 14 
183 62 112 72 
184 80 119 49 
185 69 124 77 
186 56 57 55 
187 58 61 60 
188 95 141 75 
189 56 117 58 
190 76 84 75 
191 89 149 136 
192 86 121 97 
193 69 75 68 
194 69 76 75 
195 56 58 57 
196 116 117 56 
197 60 69 68 
198 97 99 98 
199 49 119 39 
200 35 128 93 
201 41 118 48 
202 48 51 7 
203 103 145 53 
204 97 98 96 
205 58 60 57 
206 52 55 54 
207 55 62 54 
208 53 132 24 
209 40 119 118 
210 37 66 38 
211 81 120 83 
212 81 83 73 
213 61 150 124 
214 52 54 51 
215 136 149 65 
216 48 118 116 
217 104 154 29 
218 61 124 60 
219 48 52 51 
220 72 81 73 
221 71 85 80 
222 60 124 69 
223 62 64 54 
224 72 73 64 
225 62 127 112 
226 86 96 85 
227 62 72 64 
228 122 138 78 
229 86 144 121 
230 71 86 85 
231 86 97 96 
232 68 127 57 
233 91 139 84 
234 38 125 6 
235 116 151 117 
236 123 135 100 
237 83 133 73 
238 51 65 7 
239 6 63 49 
240 57 127 55 
241 73 133 89 
242 68 141 127 
243 55 127 62 
244 36 131 37 
245 132 139 91 
246 127 141 112 
247 44 111 5 
248 117 151 80 
249 7 130 42 
250 115 142 8 
251 101 150 98 
252 113 133 104 
253 134 154 104 
254 100 135 102 
255 63 71 49 
256 43 129 44 
257 67 92 74 
258 21 142 79 
259 42 87 43 
260 81 156 120 
261 14 143 78 
262 4 154 28 
263 29 154 4 
264 6 67 63 
265 79 142 115 
266 67 74 63 
267 95 153 141 
268 58 137 61 
269 97 155 99 
270 5 110 36 
271 96 137 85 
272 64 136 54 
273 90 138 91 
274 66 125 38 
275 66 126 125 
276 84 139 95 
277 63 144 71 
278 54 136 51 
279 75 141 68 
280 74 144 63 
281 37 131 66 
282 78 143 122 
283 53 139 132 
284 122 143 22 
285 92 152 146 
286 145 156 82 
287 6 125 67 
288 65 130 7 
289 71 144 86 
290 51 136 65 
291 112 153 82 
292 82 156 81 
293 44 129 111 
294 103 156 145 
295 87 140 129 
296 42 130 87 
297 119 151 118 
298 121 155 97 
299 87 129 43 
300 110 131 36 
301 118 151 116 
302 82 153 145 
303 66 147 126 
304 80 151 119 
305 28 154 134 
306 145 153 95 
307 131 147 66 
308 141 153 112 
309 33 34 5 
310 34 110 5 
$EndElements
