$MeshFormat
4.1 0 8
$EndMeshFormat
$PhysicalNames
3
1 101 "outer_boundary"
2 1 "material_1"
2 2 "material_2"
$EndPhysicalNames
$Entities
5 5 2 0
1 0 0 0 0 
2 1 0 0 0 
3 0 1 0 0 
4 1 1 0 0 
5 0.47590367806082 0.5040405201540663 0 0 
1 -9.999999994736442e-08 -1e-07 -1e-07 1.0000001 1e-07 1e-07 1 101 2 1 -2 
2 -1e-07 -9.999999994736442e-08 -1e-07 1e-07 1.0000001 1e-07 1 101 2 3 -1 
3 0.9999999000000001 -9.999999994736442e-08 -1e-07 1.0000001 1.0000001 1e-07 1 101 2 2 -4 
4 -9.999999994736442e-08 0.9999999000000001 -1e-07 1.0000001 1.0000001 1e-07 1 101 2 4 -3 
5 0.1448615807981739 0.3385194215227433 -1e-07 0.47590377806082 0.6695616187853893 1e-07 0 2 5 -5 
2 0.1448615807981739 0.3385194215227433 -1e-07 0.47590377806082 0.6695616187853893 1e-07 1 2 1 5 
3 -9.999999994736442e-08 -9.999999994736442e-08 -1e-07 1.0000001 1.0000001 1e-07 1 1 5 1 3 4 2 -5 
$EndEntities
$Nodes
12 160 1 160
0 1 0 1
1
0 0 0
0 2 0 1
2
1 0 0
0 3 0 1
3
0 1 0
0 4 0 1
4
1 1 0
0 5 0 1
5
0.47590367806082 0.5040405201540663 0
1 1 0 7
6
7
8
9
10
11
12
0.1249999999999999 0 0
0.2499999999999998 0 0
0.3749999999999993 0 0
0.4999999999999988 0 0
0.6249999999999988 0 0
0.7499999999999991 0 0
0.8749999999999997 0 0
1 2 0 7
13
14
15
16
17
18
19
0 0.8750000000000001 0
0 0.7500000000000002 0
0 0.6250000000000007 0
0 0.5000000000000012 0
0 0.3750000000000012 0
0 0.2500000000000009 0
0 0.1250000000000003 0
1 3 0 7
20
21
22
23
24
25
26
1 0.1249999999999999 0
1 0.2499999999999998 0
1 0.3749999999999993 0
1 0.4999999999999988 0
1 0.6249999999999988 0
1 0.7499999999999991 0
1 0.8749999999999997 0
1 4 0 7
27
28
29
30
31
32
33
0.8750000000000001 1 0
0.7500000000000002 1 0
0.6250000000000007 1 0
0.5000000000000012 1 0
0.3750000000000012 1 0
0.2500000000000009 1 0
0.1250000000000003 1 0
1 5 0 14
34
35
36
37
38
39
40
41
42
43
44
45
46
47
0.4615936358736091 0.571363975495925 0
0.4211378456087975 0.6270465937947851 0
0.3615314809324875 0.6614603444860675 0
0.2930810238040365 0.668654777436139 0
0.2276221801138346 0.6473859098285608 0
0.1764733786108435 0.6013313220942796 0
0.1484787117472045 0.5384542708453474 0
0.1484787117472051 0.4696267694627823 0
0.1764733786108451 0.4067497182138508 0
0.2276221801138366 0.3606951304795706 0
0.2930810238040384 0.3394262628719935 0
0.361531480932489 0.3466206958220656 0
0.4211378456087982 0.3810344465133481 0
0.4615936358736094 0.4367170648122081 0
2 2 0 22
48
49
50
51
52
53
54
55
56
57
58
59
60
61
62
63
64
65
66
67
68
69
0.396340026082673 0.4432593215629149 0
0.2400099084152921 0.5824030712507231 0
0.230863139005602 0.4154669760236921 0
0.3931431787451583 0.5641695425458531 0
0.3210756906676774 0.4023033141209252 0
0.2080850764235146 0.5040405201540654 0
0.321642015064894 0.6120756553355675 0
0.4313635209451084 0.5297557918545707 0
0.3736060750548374 0.5040405201540663 0
0.3393931156636688 0.4573011881482751 0
0.3136497167524185 0.5139934504861966 0
0.2673303227536719 0.4576866764327121 0
0.3419389790558919 0.5586976344058495 0
0.2691852901148459 0.3926284520412919 0
0.3722244921706684 0.3969273584541979 0
0.4300507899896788 0.4802339201933593 0
0.2037163941302156 0.4515769107615669 0
0.3722244921706676 0.611153681853935 0
0.2721623372295463 0.6216706381280568 0
0.1973920651853343 0.5543471827861978 0
0.2560214411016113 0.5282437028265342 0
0.2909040662699424 0.569514025405488 0
2 3 0 91
70
71
72
73
74
75
76
77
78
79
80
81
82
83
84
85
86
87
88
89
90
91
92
93
94
95
96
97
98
99
100
101
102
103
104
105
106
107
108
109
110
111
112
113
114
115
116
117
118
119
120
121
122
123
124
125
126
127
128
129
130
131
132
133
134
135
136
137
138
139
140
141
142
143
144
145
146
147
148
149
150
151
152
153
154
155
156
157
158
159
160
0.5285546294953285 0.4579877108061425 0
0.4830058933281766 0.6392472203714983 0
0.8959759674303306 0.3074132980564833 0
0.8919621370901764 0.6785200994701948 0
0.4132140483851925 0.3071757361570079 0
0.2468656320432346 0.2939870864058051 0
0.2489833890952696 0.7160062572846471 0
0.6831388565389953 0.08898674252385674 0
0.6862650286943748 0.8980775112980669 0
0.438711828322185 0.9044406519621643 0
0.5402977206305845 0.52799134018668 0
0.5999077613229662 0.4775881548773915 0
0.618628422356421 0.5561518570411957 0
0.5826870764706525 0.3976132410549788 0
0.6825008698239223 0.4996435108060192 0
0.7014693339690354 0.5859211818564898 0
0.6394197308158458 0.6430509746721484 0
0.4448947642377069 0.690429357478042 0
0.3323027030200163 0.2898786640858457 0
0.3852793059775436 0.2308098353496634 0
0.4742366605534923 0.25620241686463 0
0.2877694588664653 0.2203063117186499 0
0.1622837998420517 0.3363674984550893 0
0.3308753308017881 0.7274466576252295 0
0.1640703145958909 0.70516110060299 0
0.1903173200726242 0.780641285143455 0
0.7718809450324557 0.5246687027460465 0
0.1961405618726062 0.222476966382299 0
0.7472339546319954 0.4320162589371516 0
0.7199535626034698 0.6780029397001391 0
0.5206761125373077 0.6971820058063096 0
0.6464094897931405 0.7393293703075767 0
0.4579085965904361 0.1672850586331908 0
0.5504592560275839 0.1996576415752229 0
0.3470618639977704 0.1513249271844525 0
0.8363797059407295 0.4594632863211443 0
0.4747812004365604 0.3282292515158038 0
0.5521777373358761 0.307178802828061 0
0.6420244122254639 0.3322325602979116 0
0.2824859277872496 0.7950055306191545 0
0.2214620918756661 0.8600510178931126 0
0.4694464800007728 0.7605451332477398 0
0.7420958708531387 0.7936920343972005 0
0.2407763781286123 0.1464504540769364 0
0.8677364678308594 0.5659683505124424 0
0.325620994653029 0.8945331957631397 0
0.5557642477211853 0.8956357129183142 0
0.1383679653563097 0.1507484641768024 0
0.1256627803354582 0.8548299097827747 0
0.09788770709897104 0.4171442972730394 0
0.8965508248043935 0.1906828429710031 0
0.8067469884317857 0.2352405495281149 0
0.8826111702546229 0.804681186211067 0
0.09901220349271489 0.5895959269607596 0
0.3882849022277969 0.8084334104392303 0
0.8068821073994239 0.1136163482586019 0
0.1052375117495584 0.2502947844843989 0
0.8074109531426711 0.9008240634933706 0
0.6343710131865717 0.2424766004414191 0
0.08470825373519086 0.6797448382305682 0
0.5671012350129848 0.7819653834649716 0
0.5529145331862942 0.6140926025008753 0
0.7927964854263719 0.6238275452110701 0
0.6624232360856158 0.4157757537365206 0
0.8001583446273959 0.3480333451898919 0
0.5506589344096336 0.0994926232037201 0
0.09877146681721904 0.502964252908386 0
0.07308180373811624 0.3257613160425059 0
0.4214359352521658 0.08215162704026768 0
0.722295181583727 0.2833244459726868 0
0.8058838452455559 0.7157447609979343 0
0.09412644478986065 0.774229522293298 0
0.9064530930283442 0.09400147885412558 0
0.3995279037159111 0.7379540860475459 0
0.7176816828266789 0.1866086824599205 0
0.3026845849763667 0.07461256792831028 0
0.5063827773562775 0.3927104107650261 0
0.7148270258308396 0.3622764728268325 0
0.9084936490538901 0.90849364905389 0
0.9097792003058652 0.4099607556850734 0
0.6395271744149648 0.8217400024772261 0
0.1885467772772124 0.0743772035640059 0
0.1609757514557512 0.9265640084911273 0
0.07892818558405068 0.9271419266566832 0
0.6272619485978927 0.1634444580408279 0
0.0744517352019855 0.07445173520198561 0
0.06040132050518077 0.1848389776285594 0
0.1467717173064719 0.6435324445910957 0
0.4908989053558198 0.8375099398822576 0
0.9203677062696944 0.5027852641494132 0
0.5908391443251209 0.697759071828334 0
$EndNodes
$Elements
6 318 1 318
1 1 1 8
1 1 6 
2 6 7 
3 7 8 
4 8 9 
5 9 10 
6 10 11 
7 11 12 
8 12 2 
1 2 1 8
9 3 13 
10 13 14 
11 14 15 
12 15 16 
13 16 17 
14 17 18 
15 18 19 
16 19 1 
1 3 1 8
17 2 20 
18 20 21 
19 21 22 
20 22 23 
21 23 24 
22 24 25 
23 25 26 
24 26 4 
1 4 1 8
25 4 27 
26 27 28 
27 28 29 
28 29 30 
29 30 31 
30 31 32 
31 32 33 
32 33 3 
2 2 2 57
33 53 64 59 
34 59 64 50 
35 59 61 52 
36 50 61 59 
37 59 68 53 
38 41 53 40 
39 47 48 46 
40 45 52 44 
41 39 49 38 
42 37 54 36 
43 43 50 42 
44 35 51 34 
45 57 59 52 
46 56 58 57 
47 52 62 57 
48 57 62 48 
49 56 60 58 
50 58 59 57 
51 56 57 48 
52 34 55 5 
53 48 63 56 
54 41 64 53 
55 56 63 55 
56 36 65 35 
57 37 66 54 
58 51 55 34 
59 35 65 51 
60 39 67 49 
61 44 61 43 
62 46 62 45 
63 38 66 37 
64 42 64 41 
65 43 61 50 
66 45 62 52 
67 51 56 55 
68 48 62 46 
69 40 67 39 
70 47 63 48 
71 52 61 44 
72 5 63 47 
73 50 64 42 
74 53 67 40 
75 49 66 38 
76 54 65 36 
77 51 60 56 
78 58 68 59 
79 53 68 67 
80 67 68 49 
81 51 65 60 
82 60 65 54 
83 49 69 66 
84 66 69 54 
85 58 69 68 
86 68 69 49 
87 55 63 5 
88 60 69 58 
89 54 69 60 
2 3 2 229
90 107 146 106 
91 92 97 75 
92 83 146 107 
93 119 136 16 
94 80 131 34 
95 122 127 112 
96 112 140 122 
97 102 138 135 
98 88 91 89 
99 114 159 24 
100 110 115 32 
101 73 114 24 
102 34 131 71 
103 16 123 15 
104 91 104 89 
105 31 115 79 
106 17 119 16 
107 13 141 118 
108 92 126 97 
109 32 115 31 
110 5 80 34 
111 121 125 120 
112 71 131 100 
113 35 87 36 
114 24 159 23 
115 93 124 109 
116 102 135 103 
117 112 127 78 
118 135 138 9 
119 121 144 125 
120 14 141 13 
121 46 146 47 
122 73 132 114 
123 131 160 100 
124 107 108 83 
125 87 143 36 
126 32 152 110 
127 29 116 78 
128 111 158 124 
129 37 93 76 
130 115 124 79 
131 45 88 74 
132 122 140 73 
133 75 88 44 
134 31 79 30 
135 79 116 30 
136 25 122 73 
137 43 92 75 
138 88 89 74 
139 109 124 115 
140 72 121 120 
141 75 91 88 
142 89 104 102 
143 22 72 21 
144 106 146 46 
145 93 109 76 
146 25 73 24 
147 72 120 21 
148 103 107 90 
149 134 149 105 
150 90 106 74 
151 90 107 106 
152 91 113 104 
153 11 77 10 
154 26 122 25 
155 98 134 105 
156 29 78 28 
157 30 116 29 
158 124 158 79 
159 97 126 117 
160 116 150 78 
161 11 125 77 
162 77 135 10 
163 21 120 20 
164 42 119 92 
165 86 160 131 
166 12 125 11 
167 103 128 107 
168 28 127 27 
169 36 143 93 
170 78 127 28 
171 73 140 132 
172 93 143 124 
173 78 150 112 
174 134 147 139 
175 38 157 39 
176 76 109 95 
177 108 133 83 
178 85 86 82 
179 23 149 22 
180 130 150 116 
181 134 139 121 
182 89 90 74 
183 2 142 12 
184 20 142 2 
185 72 149 134 
186 47 70 5 
187 41 136 119 
188 84 98 96 
189 109 110 95 
190 23 159 149 
191 86 131 82 
192 123 136 40 
193 79 158 116 
194 77 154 135 
195 72 134 121 
196 99 101 86 
197 34 71 35 
198 107 128 108 
199 123 129 15 
200 4 148 26 
201 27 148 4 
202 18 137 17 
203 124 143 111 
204 104 138 102 
205 45 74 46 
206 128 154 144 
207 43 75 44 
208 85 99 86 
209 37 76 38 
210 105 114 96 
211 98 105 96 
212 84 85 82 
213 36 93 37 
214 70 80 5 
215 70 83 81 
216 109 115 110 
217 9 138 8 
218 104 145 138 
219 81 82 80 
220 102 103 90 
221 84 96 85 
222 44 88 45 
223 81 84 82 
224 84 133 98 
225 17 137 119 
226 99 112 101 
227 95 141 94 
228 71 87 35 
229 116 158 130 
230 74 106 46 
231 94 141 129 
232 82 131 80 
233 70 81 80 
234 110 118 95 
235 42 92 43 
236 10 135 9 
237 125 144 77 
238 75 97 91 
239 112 150 101 
240 89 102 90 
241 126 137 18 
242 119 137 92 
243 94 157 38 
244 126 156 117 
245 118 153 13 
246 100 111 87 
247 113 145 104 
248 100 130 111 
249 15 129 14 
250 128 144 139 
251 114 132 96 
252 97 117 113 
253 138 145 8 
254 71 100 87 
255 85 132 99 
256 33 152 32 
257 108 147 133 
258 22 149 72 
259 96 132 85 
260 41 119 42 
261 76 94 38 
262 111 143 87 
263 39 123 40 
264 8 145 7 
265 83 133 81 
266 81 133 84 
267 92 137 126 
268 97 113 91 
269 76 95 94 
270 113 151 145 
271 127 148 27 
272 120 142 20 
273 40 136 41 
274 26 148 122 
275 12 142 125 
276 129 157 94 
277 133 147 98 
278 125 142 120 
279 3 153 33 
280 70 146 83 
281 123 157 129 
282 122 148 127 
283 13 153 3 
284 7 151 6 
285 19 156 18 
286 1 155 19 
287 6 155 1 
288 132 140 99 
289 135 154 103 
290 128 139 108 
291 100 160 130 
292 130 158 111 
293 99 140 112 
294 145 151 7 
295 101 160 86 
296 118 141 95 
297 98 147 134 
298 144 154 77 
299 47 146 70 
300 129 141 14 
301 130 160 101 
302 117 156 155 
303 117 151 113 
304 139 147 108 
305 101 150 130 
306 103 154 128 
307 117 155 151 
308 110 152 118 
309 105 159 114 
310 155 156 19 
311 139 144 121 
312 18 156 126 
313 151 155 6 
314 149 159 105 
315 39 157 123 
316 152 153 118 
317 33 153 152 
318 16 136 123 
$EndElements
