$MeshFormat
4.1 0 8
$EndMeshFormat
$PhysicalNames
3
1 101 "outer_boundary"
2 1 "material_1"
2 2 "material_2"
$EndPhysicalNames
$Entities
8 8 2 0
1 0 0 0 0 
2 1 0 0 0 
3 0 1 0 0 
4 1 1 0 0 
5 0.4539966996255673 0.1499811040464654 0 0 
6 0.6621809407558354 0.2501579878916237 0 0 
7 0.562004056910677 0.4583422290218919 0 0 
8 0.3538198157804089 0.3581653451767336 0 0 
1 -9.999999994736442e-08 -1e-07 -1e-07 1.0000001 1e-07 1e-07 1 101 2 1 -2 
2 -1e-07 -9.999999994736442e-08 -1e-07 1e-07 1.0000001 1e-07 1 101 2 3 -1 
3 0.9999999000000001 -9.999999994736442e-08 -1e-07 1.0000001 1.0000001 1e-07 1 101 2 2 -4 
4 -9.999999994736442e-08 0.9999999000000001 -1e-07 1.0000001 1.0000001 1e-07 1 101 2 4 -3 
5 0.4539965996255673 0.1499810040464654 -1e-07 0.6621810407558354 0.2501580878916237 1e-07 0 2 5 -6 
6 0.5620039569106771 0.2501578878916237 -1e-07 0.6621810407558354 0.4583423290218919 1e-07 0 2 6 -7 
7 0.3538197157804089 0.3581652451767336 -1e-07 0.562004156910677 0.4583423290218919 1e-07 0 2 7 -8 
8 0.3538197157804089 0.1499810040464654 -1e-07 0.4539967996255673 0.3581654451767336 1e-07 0 2 8 -5 
2 0.3538197157804089 0.1499810040464654 -1e-07 0.6621810407558354 0.4583423290218919 1e-07 1 2 4 5 6 7 8 
3 -9.999999994736442e-08 -9.999999994736442e-08 -1e-07 1.0000001 1.0000001 1e-07 1 1 8 1 3 4 2 -5 -8 -7 -6 
$EndEntities
$Nodes
18 169 1 169
0 1 0 1
1
0 0 0
0 2 0 1
2
1 0 0
0 3 0 1
3
0 1 0
0 4 0 1
4
1 1 0
0 5 0 1
5
0.4539966996255673 0.1499811040464654 0
0 6 0 1
6
0.6621809407558354 0.2501579878916237 0
0 7 0 1
7
0.562004056910677 0.4583422290218919 0
0 8 0 1
8
0.3538198157804089 0.3581653451767336 0
1 1 0 7
9
10
11
12
13
14
15
0.1249999999999999 0 0
0.2499999999999998 0 0
0.3749999999999993 0 0
0.4999999999999988 0 0
0.6249999999999988 0 0
0.7499999999999991 0 0
0.8749999999999997 0 0
1 2 0 7
16
17
18
19
20
21
22
0 0.8750000000000001 0
0 0.7500000000000002 0
0 0.6250000000000007 0
0 0.5000000000000012 0
0 0.3750000000000012 0
0 0.2500000000000009 0
0 0.1250000000000003 0
1 3 0 7
23
24
25
26
27
28
29
1 0.1249999999999999 0
1 0.2499999999999998 0
1 0.3749999999999993 0
1 0.4999999999999988 0
1 0.6249999999999988 0
1 0.7499999999999991 0
1 0.8749999999999997 0
1 4 0 7
30
31
32
33
34
35
36
0.8750000000000001 1 0
0.7500000000000002 1 0
0.6250000000000007 1 0
0.5000000000000012 1 0
0.3750000000000012 1 0
0.2500000000000009 1 0
0.1250000000000003 1 0
1 5 0 3
37
38
39
0.5060427599081342 0.1750253250077549 0
0.5580888201907011 0.2000695459690444 0
0.6101348804732682 0.225113766930334 0
1 6 0 3
40
41
42
0.6371367197945459 0.3022040481741907 0
0.6120924988332563 0.3542501084567575 0
0.5870482778719668 0.4062961687393246 0
1 7 0 3
43
44
45
0.5099579966281101 0.4332980080606024 0
0.4579119363455432 0.4082537870993129 0
0.4058658760629761 0.3832095661380233 0
1 8 0 3
46
47
48
0.3788640367416984 0.3061192848941667 0
0.403908257702988 0.2540732246115998 0
0.4289524786642776 0.2020271643290326 0
2 2 0 14
49
50
51
52
53
54
55
56
57
58
59
60
61
62
0.5540864013564279 0.3611829209618548 0
0.4683687485288952 0.2557089472850624 0
0.453099948124974 0.3518294242072391 0
0.5647516199522807 0.2524892051476297 0
0.5030474162928448 0.3792279738754589 0
0.5022453403791933 0.3191321625340703 0
0.57102480432089 0.3052622413982332 0
0.4361492394200345 0.3025855960148196 0
0.5153549130502553 0.2278934447394589 0
0.5243490852463029 0.2720972002208909 0
0.4102538184206862 0.3383986268957473 0
0.4745431199554259 0.2021271970815549 0
0.5422373386296908 0.4019082263816146 0
0.6057469381155581 0.2699247061726099 0
2 3 0 107
63
64
65
66
67
68
69
70
71
72
73
74
75
76
77
78
79
80
81
82
83
84
85
86
87
88
89
90
91
92
93
94
95
96
97
98
99
100
101
102
103
104
105
106
107
108
109
110
111
112
113
114
115
116
117
118
119
120
121
122
123
124
125
126
127
128
129
130
131
132
133
134
135
136
137
138
139
140
141
142
143
144
145
146
147
148
149
150
151
152
153
154
155
156
157
158
159
160
161
162
163
164
165
166
167
168
169
0.4629624431173785 0.4645281703232082 0
0.6227672472515855 0.45390639394904 0
0.592353868482885 0.5123746017969539 0
0.3027002633686216 0.898015177002395 0
0.3581952442338127 0.4191514677533999 0
0.677014384487182 0.3469822778278302 0
0.3463129368507439 0.2584073231824157 0
0.6616753672845224 0.5066321290996088 0
0.6319946624485366 0.5713861746623203 0
0.5547576811328657 0.5740733836370731 0
0.5977129998051868 0.6408803939574355 0
0.5138601424607953 0.6422530589358101 0
0.3029313525674791 0.387279137064124 0
0.3063839461334857 0.4558593032209738 0
0.6791636205902115 0.6349982939348484 0
0.5603569049928405 0.7168259007429748 0
0.1187571961953352 0.6670150319763274 0
0.2391351480989568 0.4271114163096147 0
0.2372680546320792 0.3507199093340989 0
0.8978006081381024 0.2010275222785496 0
0.8967779416131884 0.4376588583304594 0
0.1943941150339362 0.1032242203999587 0
0.4719240624560061 0.7188205799229879 0
0.4275392274052084 0.6405007921735627 0
0.6574986907908275 0.1876285790556764 0
0.2541659515311361 0.4993563145305326 0
0.3962682234640009 0.1529494890672629 0
0.8801328345799557 0.8134656931661508 0
0.717278513372319 0.2138452347215971 0
0.6909203310911597 0.8819671055365267 0
0.3809155595243422 0.7188948553916652 0
0.5164268142248376 0.7995355757170174 0
0.3367028099734378 0.6396948640629148 0
0.2871189919243501 0.718524760273199 0
0.561152370206792 0.1354999797655298 0
0.3788199917122222 0.559915667075003 0
0.1626338517705762 0.479213494011849 0
0.2381841417649203 0.6423880674413656 0
0.6890707514764048 0.4466481521410639 0
0.73487562245192 0.4992927765514338 0
0.7127410116309413 0.1434142105972842 0
0.7147913195725502 0.2851088167063695 0
0.7467086345104775 0.3522058043881129 0
0.7982384531583141 0.300461810559403 0
0.09900079595040151 0.3213532128448779 0
0.6329722341469999 0.1095024066426406 0
0.4327357674519028 0.8901591659299833 0
0.2952134106384492 0.09348608462205299 0
0.2543416204605767 0.1787264924411588 0
0.1536608520415721 0.2214964651598417 0
0.469663350193074 0.565175995658928 0
0.7973087969566091 0.173458433505613 0
0.6141070076215672 0.7940243358217565 0
0.8822189819725081 0.5614941351624287 0
0.8911675071709336 0.6877130015853137 0
0.7957884152824329 0.7355185193687848 0
0.791235588372891 0.6278980346532324 0
0.8926581832669386 0.3093184621921478 0
0.1042553065298795 0.5694245121315817 0
0.5631983200649116 0.8942810305008806 0
0.186186194101564 0.8974173215437166 0
0.3703440539427873 0.4841043808864267 0
0.8114029215134724 0.9050853262672101 0
0.5131273571164114 0.5063716850535459 0
0.4298538950681992 0.08330858844831512 0
0.5029203911241559 0.1009137151493861 0
0.118251811428758 0.8026027143067833 0
0.7530287209764246 0.4253248607326464 0
0.4101999746337922 0.4408048869902673 0
0.8144421244923761 0.4843285303225556 0
0.8198765936287572 0.3774419747221877 0
0.6489923073717013 0.3997636640587841 0
0.4274472242799974 0.7850059018740096 0
0.2862449583546598 0.5700919380088472 0
0.3117700116516526 0.322198458699869 0
0.2564017837119095 0.2629274789124915 0
0.3705817708053797 0.205771211770411 0
0.6058007819024523 0.1675184460780898 0
0.6493177901588952 0.7076311537130814 0
0.7767449065803078 0.09216468542859757 0
0.3352339177428981 0.7976193324083946 0
0.2375292073397942 0.8050308956459727 0
0.09171081861709424 0.4088477974485418 0
0.7017609067539478 0.5625795996446256 0
0.7054709155279338 0.7726804613292333 0
0.5659384027461526 0.06362375101144069 0
0.1708078963266559 0.3894250516151708 0
0.4241231009459423 0.5143852979691952 0
0.1987442113711863 0.7239390866180492 0
0.8911423852791697 0.09860844020212672 0
0.1880981207838343 0.567657894368273 0
0.09443892785608171 0.1243399290214667 0
0.6994916304716494 0.06901626053370452 0
0.7368012826927168 0.6885050784027751 0
0.1823913871918664 0.3026360987569087 0
0.09150635094610998 0.9084936490538901 0
0.3094323786942395 0.2086120547063016 0
0.9084936490538902 0.90849364905389 0
0.8319886457375614 0.2406585599180103 0
0.7813813779732273 0.5505226952096818 0
0.08949701177205871 0.4897990974957704 0
0.3316084030438305 0.1576077116643967 0
0.702962959764438 0.3941849518296875 0
0.7730652638152302 0.8231268750516131 0
0.7719211457594708 0.2427065710821986 0
0.3655887864428958 0.09747037476040554 0
0.3203217170014131 0.5127259124981385 0
$EndNodes
$Elements
6 336 1 336
1 1 1 8
1 1 9 
2 9 10 
3 10 11 
4 11 12 
5 12 13 
6 13 14 
7 14 15 
8 15 2 
1 2 1 8
9 3 16 
10 16 17 
11 17 18 
12 18 19 
13 19 20 
14 20 21 
15 21 22 
16 22 1 
1 3 1 8
17 2 23 
18 23 24 
19 24 25 
20 25 26 
21 26 27 
22 27 28 
23 28 29 
24 29 4 
1 4 1 8
25 4 30 
26 30 31 
27 31 32 
28 32 33 
29 33 34 
30 34 35 
31 35 36 
32 36 3 
2 2 2 42
33 54 56 50 
34 54 55 49 
35 50 58 54 
36 54 58 55 
37 51 56 54 
38 53 54 49 
39 55 58 52 
40 39 52 38 
41 48 50 47 
42 42 49 41 
43 45 51 44 
44 57 58 50 
45 41 55 40 
46 44 53 43 
47 47 56 46 
48 38 57 37 
49 51 54 53 
50 52 57 38 
51 49 55 41 
52 51 53 44 
53 50 56 47 
54 7 61 42 
55 5 60 48 
56 8 59 45 
57 37 60 5 
58 46 59 8 
59 40 62 6 
60 6 62 39 
61 43 61 7 
62 53 61 43 
63 57 60 37 
64 56 59 46 
65 55 62 40 
66 42 61 49 
67 39 62 52 
68 48 60 50 
69 45 59 51 
70 51 59 56 
71 50 60 57 
72 49 61 53 
73 52 62 55 
74 52 58 57 
2 3 2 262
75 21 154 112 
76 79 153 100 
77 21 112 107 
78 126 150 63 
79 120 161 82 
80 7 126 43 
81 23 152 2 
82 24 120 82 
83 40 104 68 
84 130 133 132 
85 43 126 63 
86 6 104 40 
87 94 122 109 
88 109 122 33 
89 2 152 15 
90 9 154 1 
91 121 153 79 
92 111 138 112 
93 77 146 119 
94 113 150 126 
95 100 151 79 
96 22 154 21 
97 81 137 75 
98 138 157 112 
99 1 154 22 
100 109 143 135 
101 118 119 117 
102 26 116 83 
103 117 119 116 
104 66 143 109 
105 137 138 69 
106 5 128 37 
107 12 128 127 
108 132 133 83 
109 110 111 84 
110 114 152 82 
111 65 126 7 
112 106 161 120 
113 74 113 72 
114 27 117 116 
115 136 153 88 
116 75 137 8 
117 33 122 32 
118 146 162 119 
119 12 127 11 
120 138 159 69 
121 98 113 86 
122 24 82 23 
123 10 110 84 
124 109 135 94 
125 118 156 119 
126 104 105 68 
127 26 83 25 
128 82 152 23 
129 86 113 74 
130 116 132 83 
131 129 151 144 
132 35 123 66 
133 90 118 117 
134 32 122 92 
135 37 128 97 
136 11 168 110 
137 113 126 72 
138 21 107 20 
139 10 84 9 
140 119 162 116 
141 11 110 10 
142 95 98 86 
143 27 116 26 
144 115 147 92 
145 66 109 34 
146 81 138 137 
147 100 153 136 
148 116 162 132 
149 92 122 115 
150 35 66 34 
151 119 156 77 
152 83 120 25 
153 32 92 31 
154 90 117 28 
155 110 164 111 
156 142 152 114 
157 28 117 27 
158 72 126 65 
159 18 121 79 
160 19 121 18 
161 15 142 14 
162 34 109 33 
163 18 79 17 
164 25 120 24 
165 84 154 9 
166 36 123 35 
167 15 152 142 
168 129 144 123 
169 29 90 28 
170 99 153 121 
171 92 125 31 
172 108 140 97 
173 123 144 66 
174 111 164 159 
175 120 133 106 
176 97 148 108 
177 111 112 84 
178 85 86 74 
179 90 166 118 
180 79 129 17 
181 17 129 16 
182 112 157 107 
183 82 161 114 
184 31 125 30 
185 20 145 19 
186 63 150 131 
187 93 95 86 
188 79 151 129 
189 108 148 13 
190 100 136 95 
191 13 155 108 
192 145 163 19 
193 95 136 98 
194 83 133 120 
195 98 150 113 
196 85 93 86 
197 96 100 95 
198 43 63 44 
199 67 124 76 
200 107 145 20 
201 44 131 45 
202 127 168 11 
203 125 166 90 
204 3 158 36 
205 16 158 3 
206 121 163 99 
207 71 72 65 
208 4 160 29 
209 30 160 4 
210 45 67 8 
211 78 115 94 
212 78 85 74 
213 73 74 72 
214 66 144 143 
215 42 64 7 
216 131 150 124 
217 41 134 42 
218 93 96 95 
219 141 156 147 
220 40 68 41 
221 88 153 99 
222 77 156 141 
223 64 101 70 
224 115 122 94 
225 147 166 92 
226 73 78 74 
227 78 94 85 
228 98 169 124 
229 71 77 73 
230 19 163 121 
231 91 104 6 
232 64 65 7 
233 85 135 93 
234 104 106 105 
235 71 73 72 
236 46 69 47 
237 101 130 102 
238 63 131 44 
239 39 87 6 
240 67 131 124 
241 8 137 46 
242 80 81 75 
243 70 71 65 
244 78 141 115 
245 128 148 97 
246 14 155 13 
247 38 140 39 
248 94 135 85 
249 76 88 80 
250 45 131 67 
251 13 148 12 
252 47 139 48 
253 124 150 98 
254 130 132 102 
255 64 70 65 
256 67 75 8 
257 105 133 130 
258 101 102 70 
259 67 76 75 
260 37 97 38 
261 88 99 80 
262 107 157 149 
263 87 91 6 
264 42 134 64 
265 76 80 75 
266 48 89 5 
267 68 134 41 
268 64 134 101 
269 106 133 105 
270 129 158 16 
271 107 149 145 
272 143 144 96 
273 87 108 103 
274 93 143 96 
275 73 141 78 
276 125 160 30 
277 77 141 73 
278 103 114 91 
279 36 158 123 
280 136 169 98 
281 135 143 93 
282 92 166 125 
283 111 159 138 
284 29 160 90 
285 71 146 77 
286 76 169 88 
287 123 158 129 
288 149 157 81 
289 96 151 100 
290 141 147 115 
291 90 160 125 
292 101 165 130 
293 144 151 96 
294 103 142 114 
295 127 128 5 
296 87 103 91 
297 70 146 71 
298 112 154 84 
299 46 137 69 
300 87 140 108 
301 80 149 81 
302 88 169 136 
303 105 165 68 
304 39 140 87 
305 102 146 70 
306 89 127 5 
307 69 139 47 
308 130 165 105 
309 145 149 99 
310 99 149 80 
311 132 162 102 
312 97 140 38 
313 81 157 138 
314 147 156 118 
315 104 167 106 
316 48 139 89 
317 91 167 104 
318 68 165 134 
319 12 148 128 
320 99 163 145 
321 114 167 91 
322 108 155 103 
323 124 169 76 
324 69 159 139 
325 134 165 101 
326 103 155 142 
327 102 162 146 
328 142 155 14 
329 118 166 147 
330 139 164 89 
331 159 164 139 
332 106 167 161 
333 89 168 127 
334 161 167 114 
335 110 168 164 
336 164 168 89 
$EndElements
