$MeshFormat
4.1 0 8
$EndMeshFormat
$PhysicalNames
3
1 101 "outer_boundary"
2 1 "material_1"
2 2 "material_2"
$EndPhysicalNames
$Entities
7 7 2 0
1 0 0 0 0 
2 1 0 0 0 
3 0 1 0 0 
4 1 1 0 0 
5 0.6040353899594711 0.8508816386856797 0 0 
6 0.5064659947534205 0.628888466528397 0 0 
7 0.7475024189113451 0.6553874777267149 0 0 
1 -9.999999994736442e-08 -1e-07 -1e-07 1.0000001 1e-07 1e-07 1 101 2 1 -2 
2 -1e-07 -9.999999994736442e-08 -1e-07 1e-07 1.0000001 1e-07 1 101 2 3 -1 
3 0.9999999000000001 -9.999999994736442e-08 -1e-07 1.0000001 1.0000001 1e-07 1 101 2 2 -4 
4 -9.999999994736442e-08 0.9999999000000001 -1e-07 1.0000001 1.0000001 1e-07 1 101 2 4 -3 
5 0.5064658947534205 0.6288883665283971 -1e-07 0.6040354899594711 0.8508817386856796 1e-07 0 2 5 -6 
6 0.5064658947534205 0.6288883665283971 -1e-07 0.747502518911345 0.6553875777267149 1e-07 0 2 6 -7 
7 0.6040352899594712 0.655387377726715 -1e-07 0.747502518911345 0.8508817386856796 1e-07 0 2 7 -5 
2 0.5064658947534205 0.6288883665283971 -1e-07 0.747502518911345 0.8508817386856796 1e-07 1 2 3 5 6 7 
3 -9.999999994736442e-08 -9.999999994736442e-08 -1e-07 1.0000001 1.0000001 1e-07 1 1 7 1 3 4 2 -5 -7 -6 
$EndEntities
$Nodes
16 153 1 153
0 1 0 1
1
0 0 0
0 2 0 1
2
1 0 0
0 3 0 1
3
0 1 0
0 4 0 1
4
1 1 0
0 5 0 1
5
0.6040353899594711 0.8508816386856797 0
0 6 0 1
6
0.5064659947534205 0.628888466528397 0
0 7 0 1
7
0.7475024189113451 0.6553874777267149 0
1 1 0 7
8
9
10
11
12
13
14
0.1249999999999999 0 0
0.2499999999999998 0 0
0.3749999999999993 0 0
0.4999999999999988 0 0
0.6249999999999988 0 0
0.7499999999999991 0 0
0.8749999999999997 0 0
1 2 0 7
15
16
17
18
19
20
21
0 0.8750000000000001 0
0 0.7500000000000002 0
0 0.6250000000000007 0
0 0.5000000000000012 0
0 0.3750000000000012 0
0 0.2500000000000009 0
0 0.1250000000000003 0
1 3 0 7
22
23
24
25
26
27
28
1 0.1249999999999999 0
1 0.2499999999999998 0
1 0.3749999999999993 0
1 0.4999999999999988 0
1 0.6249999999999988 0
1 0.7499999999999991 0
1 0.8749999999999997 0
1 4 0 7
29
30
31
32
33
34
35
0.8750000000000001 1 0
0.7500000000000002 1 0
0.6250000000000007 1 0
0.5000000000000012 1 0
0.3750000000000012 1 0
0.2500000000000009 1 0
0.1250000000000003 1 0
1 5 0 3
36
37
38
0.5796430411579584 0.7953833456463588 0
0.5552506923564458 0.7398850526070382 0
0.5308583435549331 0.6843867595677177 0
1 6 0 3
39
40
41
0.5667251007929017 0.6355132193279766 0
0.6269842068323829 0.642137972127556 0
0.687243312871864 0.6487627249271355 0
1 7 0 3
42
43
44
0.7116356616733764 0.7042610179664562 0
0.675768904435408 0.7531345582061973 0
0.6399021471974395 0.8020080984459386 0
2 2 0 3
45
46
47
0.6155097983959269 0.7465098054066177 0
0.6513765556338954 0.6976362651668767 0
0.5911174495944143 0.6910115123672971 0
2 3 0 106
48
49
50
51
52
53
54
55
56
57
58
59
60
61
62
63
64
65
66
67
68
69
70
71
72
73
74
75
76
77
78
79
80
81
82
83
84
85
86
87
88
89
90
91
92
93
94
95
96
97
98
99
100
101
102
103
104
105
106
107
108
109
110
111
112
113
114
115
116
117
118
119
120
121
122
123
124
125
126
127
128
129
130
131
132
133
134
135
136
137
138
139
140
141
142
143
144
145
146
147
148
149
150
151
152
153
0.6025918580308702 0.5866396790882353 0
0.4450686698621653 0.09801379289836054 0
0.4705992375154521 0.6777620067681381 0
0.4450670618037244 0.616461177845129 0
0.6883998460898275 0.102141131185145 0
0.4016765133428986 0.674040482458127 0
0.371352526913836 0.6089008827597825 0
0.4200168256640794 0.5475910346836306 0
0.721745278876452 0.5957722458724843 0
0.3420299993656591 0.5371914839183409 0
0.3901262665218516 0.4732726533287355 0
0.5180129575698663 0.7893611584525552 0
0.3239057022780943 0.6706579555211856 0
0.7360280104748891 0.7597593110057768 0
0.1059088864954822 0.3160698344996027 0
0.9012658028903252 0.3116526234022537 0
0.4733344892228125 0.4868075593870655 0
0.4439716499783167 0.4088098476382725 0
0.5305886386710427 0.4251372763634432 0
0.3551408605848367 0.3802886211265177 0
0.3703526508254853 0.7502239882978328 0
0.2741671431294237 0.7422833282516965 0
0.5007140363920172 0.3396347357799974 0
0.5909360919679556 0.3573947229599503 0
0.796789196637286 0.6035168018155893 0
0.761068944778457 0.5363886342170473 0
0.2434531483692769 0.6593627659417527 0
0.8205334297047593 0.6791120989545452 0
0.5608318440717451 0.2677792314492149 0
0.6584321464190933 0.2849363909800172 0
0.6264089650321878 0.456726261807769 0
0.1866428606487598 0.09675106547948398 0
0.6642944959989522 0.8575063914852592 0
0.8987068958427968 0.8161468066557515 0
0.3105635046853495 0.8253438356695797 0
0.2144942678436397 0.8188774061429115 0
0.8437055236555613 0.5414983958296712 0
0.8160780406909299 0.4582765771334865 0
0.6861906650218861 0.5288767853625607 0
0.1140920767623527 0.5639219626282977 0
0.4382623636058959 0.9139422204264475 0
0.4582324005129442 0.2645310461793339 0
0.1051104558075657 0.437701585488541 0
0.2151845017308391 0.4759638210484717 0
0.2058843207164143 0.3748861159980584 0
0.2078493063217807 0.2682078885200988 0
0.56827926142093 0.09571043258499723 0
0.3114380173418361 0.1117377899857562 0
0.09421225530505145 0.6833244632298416 0
0.8130220093392271 0.1219222822475393 0
0.726240633313108 0.2090678334945148 0
0.557634536766108 0.516977791128028 0
0.8177729734972046 0.8913314539262085 0
0.5383077754548182 0.9094542291477946 0
0.7216246764472333 0.4580137189424983 0
0.7602771385287654 0.3933993625242763 0
0.1157698749924212 0.1961696022549156 0
0.09942887811755635 0.8131087775879666 0
0.4989948003016689 0.5580223218966636 0
0.9077926977580417 0.1927994211272243 0
0.9063665554639357 0.7128221167758541 0
0.4934131422841525 0.7339540501068552 0
0.4506220029005662 0.7836384240677253 0
0.6628509640703513 0.5932644318878149 0
0.2856514359271505 0.3179580636815069 0
0.3034251362812815 0.2157853928236772 0
0.309930295283787 0.4638515996004646 0
0.9056810396279075 0.4167946708051214 0
0.5445970744890435 0.8365891748541862 0
0.7640444223101533 0.7141895451097311 0
0.8096152621287629 0.7723119930975884 0
0.8961250487167345 0.6196326067479152 0
0.6211800085116906 0.1907508848053913 0
0.7541106354160962 0.8324026660113137 0
0.6760347777747344 0.3798833635658259 0
0.4148033465343869 0.3289812202083207 0
0.694020838704557 0.8009622050308971 0
0.7129544517041486 0.9144105753046485 0
0.2949830082833508 0.5962402518692318 0
0.182772855191669 0.730288723754474 0
0.1690673215393331 0.9121864533517644 0
0.6276509952333604 0.9134452324256557 0
0.9089422395857558 0.9077166674609044 0
0.2589021155851131 0.8920554358045989 0
0.2171173732714013 0.5753064306712702 0
0.4373327093737109 0.7239237903397358 0
0.7474802017807139 0.3111978256488266 0
0.5077292072723183 0.1844391045641044 0
0.3927830592544344 0.1898492394673282 0
0.5464824581289939 0.58520829559386 0
0.6208267852435274 0.5231508533186899 0
0.3503854838572421 0.9038694838587384 0
0.4801111086425987 0.8440979976909385 0
0.3974252215859646 0.8353526928671281 0
0.9235221479750222 0.5498310701761239 0
0.90849364905389 0.09150635094610993 0
0.09150635094610948 0.09150635094610954 0
0.823974725264808 0.2567152701674428 0
0.355365797069642 0.2760715610326833 0
0.2721564300321049 0.5254009018247132 0
0.1657471613112629 0.6350622199818177 0
0.2743582828486055 0.4025896442910039 0
0.226594188914258 0.1807147759508679 0
0.07422765697797645 0.9248854045358266 0
0.8977973503898842 0.4932801427888803 0
0.8329198613618843 0.3645509793226124 0
$EndNodes
$Elements
6 304 1 304
1 1 1 8
1 1 8 
2 8 9 
3 9 10 
4 10 11 
5 11 12 
6 12 13 
7 13 14 
8 14 2 
1 2 1 8
9 3 15 
10 15 16 
11 16 17 
12 17 18 
13 18 19 
14 19 20 
15 20 21 
16 21 1 
1 3 1 8
17 2 22 
18 22 23 
19 23 24 
20 24 25 
21 25 26 
22 26 27 
23 27 28 
24 28 4 
1 4 1 8
25 4 29 
26 29 30 
27 30 31 
28 31 32 
29 32 33 
30 33 34 
31 34 35 
32 35 3 
2 2 2 16
33 44 5 36 
34 38 6 39 
35 41 7 42 
36 36 45 44 
37 46 47 40 
38 45 47 46 
39 44 45 43 
40 45 46 43 
41 43 46 42 
42 38 47 37 
43 37 45 36 
44 41 46 40 
45 37 47 45 
46 40 47 39 
47 39 47 38 
48 42 46 41 
2 3 2 256
49 108 118 75 
50 86 138 78 
51 100 121 118 
52 78 102 86 
53 75 118 117 
54 100 118 81 
55 91 149 114 
56 51 106 6 
57 92 149 91 
58 31 129 125 
59 55 106 51 
60 48 137 99 
61 90 91 87 
62 97 145 98 
63 81 118 108 
64 101 129 31 
65 90 92 91 
66 5 129 101 
67 128 131 34 
68 101 116 5 
69 80 124 121 
70 78 122 102 
71 107 145 97 
72 72 119 75 
73 18 90 87 
74 35 128 34 
75 33 88 32 
76 11 94 49 
77 89 136 135 
78 77 120 98 
79 99 138 48 
80 128 151 105 
81 28 81 27 
82 135 136 49 
83 62 92 90 
84 49 95 10 
85 78 99 66 
86 21 104 20 
87 105 151 15 
88 32 101 31 
89 97 98 52 
90 87 96 17 
91 131 139 34 
92 13 97 52 
93 31 125 30 
94 84 119 72 
95 98 120 52 
96 34 139 33 
97 62 90 19 
98 64 106 55 
99 88 101 32 
100 68 133 110 
101 66 99 64 
102 52 94 12 
103 18 87 17 
104 13 52 12 
105 11 49 10 
106 20 62 19 
107 94 135 49 
108 17 96 16 
109 9 95 79 
110 19 90 18 
111 67 146 123 
112 108 119 26 
113 62 93 92 
114 48 138 111 
115 12 94 11 
116 24 63 23 
117 27 108 26 
118 99 106 64 
119 110 141 68 
120 10 95 9 
121 112 146 67 
122 91 132 87 
123 14 97 13 
124 71 78 66 
125 20 104 62 
126 25 152 115 
127 16 105 15 
128 81 108 27 
129 9 79 8 
130 75 119 108 
131 121 125 80 
132 25 115 24 
133 49 136 95 
134 30 100 29 
135 96 105 16 
136 63 107 23 
137 23 107 22 
138 58 64 55 
139 145 153 134 
140 125 129 80 
141 142 152 25 
142 33 139 88 
143 56 86 73 
144 52 120 94 
145 65 66 64 
146 21 144 104 
147 62 104 93 
148 102 122 103 
149 111 138 86 
150 39 48 40 
151 70 89 76 
152 134 153 103 
153 29 130 4 
154 106 137 6 
155 93 112 92 
156 24 115 63 
157 4 130 28 
158 54 55 51 
159 58 65 64 
160 83 131 128 
161 76 77 71 
162 40 111 41 
163 78 138 99 
164 99 137 106 
165 2 143 14 
166 22 143 2 
167 98 134 77 
168 76 120 77 
169 8 144 1 
170 1 144 21 
171 123 146 89 
172 70 76 71 
173 114 147 91 
174 70 71 66 
175 69 74 60 
176 65 70 66 
177 38 50 6 
178 93 113 112 
179 77 134 122 
180 41 56 7 
181 83 128 105 
182 89 146 136 
183 122 134 103 
184 58 67 65 
185 37 109 38 
186 71 122 78 
187 81 130 100 
188 57 58 55 
189 95 136 113 
190 36 59 37 
191 87 148 96 
192 42 61 43 
193 50 51 6 
194 28 130 81 
195 105 127 83 
196 53 54 51 
197 73 102 85 
198 82 83 69 
199 77 122 71 
200 88 140 101 
201 6 137 39 
202 48 111 40 
203 57 114 58 
204 56 111 86 
205 54 57 55 
206 73 85 84 
207 85 153 115 
208 70 123 89 
209 86 102 73 
210 53 60 54 
211 53 68 60 
212 43 124 44 
213 7 117 42 
214 50 53 51 
215 26 142 25 
216 95 150 79 
217 102 103 85 
218 58 114 67 
219 96 127 105 
220 5 116 36 
221 76 135 120 
222 74 126 60 
223 140 141 110 
224 68 82 69 
225 41 111 56 
226 68 69 60 
227 44 80 5 
228 132 148 87 
229 65 123 70 
230 30 125 100 
231 119 142 26 
232 83 127 69 
233 67 123 65 
234 72 75 7 
235 115 152 85 
236 69 127 74 
237 56 73 72 
238 38 109 50 
239 118 121 61 
240 104 150 93 
241 73 84 72 
242 101 140 116 
243 59 109 37 
244 107 143 22 
245 68 141 82 
246 103 153 85 
247 113 150 95 
248 75 117 7 
249 79 150 104 
250 14 143 97 
251 104 144 79 
252 60 126 54 
253 100 130 29 
254 54 126 57 
255 127 148 74 
256 53 133 68 
257 82 131 83 
258 79 144 8 
259 120 135 94 
260 97 143 107 
261 56 72 7 
262 59 110 109 
263 89 135 76 
264 61 124 43 
265 42 117 61 
266 36 116 59 
267 63 145 107 
268 63 153 145 
269 39 137 48 
270 117 118 61 
271 88 141 140 
272 121 124 61 
273 113 146 112 
274 3 151 35 
275 15 151 3 
276 67 149 112 
277 74 132 126 
278 84 142 119 
279 44 124 80 
280 50 133 53 
281 80 129 5 
282 100 125 121 
283 96 148 127 
284 126 147 57 
285 112 149 92 
286 132 147 126 
287 109 133 50 
288 57 147 114 
289 110 133 109 
290 93 150 113 
291 82 139 131 
292 115 153 63 
293 136 146 113 
294 139 141 88 
295 59 140 110 
296 82 141 139 
297 116 140 59 
298 85 152 84 
299 114 149 67 
300 98 145 134 
301 74 148 132 
302 35 151 128 
303 91 147 132 
304 84 152 142 
$EndElements
