$MeshFormat
4.1 0 8
$EndMeshFormat
$PhysicalNames
3
1 101 "outer_boundary"
2 1 "material_1"
2 2 "material_2"
$EndPhysicalNames
$Entities
8 8 2 0
1 0 0 0 0 
2 1 0 0 0 
3 0 1 0 0 
4 1 1 0 0 
5 0.6838043001966763 0.335130692801732 0 0 
6 0.918921500815078 0.5676704926659695 0 0 
7 0.6863817009508404 0.8027876932843712 0 0 
8 0.4512645003324388 0.5702478934201336 0 0 
1 -9.999999994736442e-08 -1e-07 -1e-07 1.0000001 1e-07 1e-07 1 101 2 1 -2 
2 -1e-07 -9.999999994736442e-08 -1e-07 1e-07 1.0000001 1e-07 1 101 2 3 -1 
3 0.9999999000000001 -9.999999994736442e-08 -1e-07 1.0000001 1.0000001 1e-07 1 101 2 2 -4 
4 -9.999999994736442e-08 0.9999999000000001 -1e-07 1.0000001 1.0000001 1e-07 1 101 2 4 -3 
5 0.6838042001966763 0.335130592801732 -1e-07 0.9189216008150779 0.5676705926659694 1e-07 0 2 5 -6 
6 0.6863816009508404 0.5676703926659695 -1e-07 0.9189216008150779 0.8027877932843711 1e-07 0 2 6 -7 
7 0.4512644003324388 0.5702477934201337 -1e-07 0.6863818009508403 0.8027877932843711 1e-07 0 2 7 -8 
8 0.4512644003324388 0.335130592801732 -1e-07 0.6838044001966762 0.5702479934201335 1e-07 0 2 8 -5 
2 0.4512644003324388 0.335130592801732 -1e-07 0.9189216008150779 0.8027877932843711 1e-07 1 2 4 5 6 7 8 
3 -9.999999994736442e-08 -9.999999994736442e-08 -1e-07 1.0000001 1.0000001 1e-07 1 1 8 1 3 4 2 -5 -8 -7 -6 
$EndEntities
$Nodes
18 379 1 379
0 1 0 1
1
0 0 0
0 2 0 1
2
1 0 0
0 3 0 1
3
0 1 0
0 4 0 1
4
1 1 0
0 5 0 1
5
0.6838043001966763 0.335130692801732 0
0 6 0 1
6
0.918921500815078 0.5676704926659695 0
0 7 0 1
7
0.6863817009508404 0.8027876932843712 0
0 8 0 1
8
0.4512645003324388 0.5702478934201336 0
1 1 0 11
9
10
11
12
13
14
15
16
17
18
19
0.08333333333333318 0 0
0.1666666666666664 0 0
0.2499999999999997 0 0
0.333333333333333 0 0
0.4166666666666664 0 0
0.4999999999999998 0 0
0.5833333333333331 0 0
0.6666666666666665 0 0
0.7499999999999999 0 0
0.8333333333333331 0 0
0.9166666666666666 0 0
1 2 0 11
20
21
22
23
24
25
26
27
28
29
30
0 0.9166666666666669 0
0 0.8333333333333337 0
0 0.7500000000000003 0
0 0.666666666666667 0
0 0.5833333333333337 0
0 0.5000000000000002 0
0 0.4166666666666669 0
0 0.3333333333333335 0
0 0.2500000000000001 0
0 0.1666666666666669 0
0 0.08333333333333337 0
1 3 0 11
31
32
33
34
35
36
37
38
39
40
41
1 0.08333333333333318 0
1 0.1666666666666664 0
1 0.2499999999999997 0
1 0.333333333333333 0
1 0.4166666666666664 0
1 0.4999999999999998 0
1 0.5833333333333331 0
1 0.6666666666666665 0
1 0.7499999999999999 0
1 0.8333333333333331 0
1 0.9166666666666666 0
1 4 0 11
42
43
44
45
46
47
48
49
50
51
52
0.9166666666666669 1 0
0.8333333333333337 1 0
0.7500000000000003 1 0
0.666666666666667 1 0
0.5833333333333337 1 0
0.5000000000000002 1 0
0.4166666666666669 1 0
0.3333333333333335 1 0
0.2500000000000001 1 0
0.1666666666666669 1 0
0.08333333333333337 1 0
1 5 0 7
53
54
55
56
57
58
59
0.7131939502739765 0.3641981677847617 0
0.7425836003512768 0.3932656427677914 0
0.771973250428577 0.4223331177508212 0
0.8013629005058773 0.4514005927338509 0
0.8307525505831774 0.4804680677168806 0
0.8601422006604776 0.5095355426999102 0
0.8895318507377777 0.5386030176829398 0
1 6 0 7
60
61
62
63
64
65
66
0.8898540258320482 0.5970601427432697 0
0.8607865508490185 0.62644979282057 0
0.8317190758659888 0.6558394428978702 0
0.8026516008829589 0.6852290929751705 0
0.7735841258999293 0.7146187430524708 0
0.7445166509168997 0.7440083931297709 0
0.71544917593387 0.7733980432070711 0
1 7 0 7
67
68
69
70
71
72
73
0.6569920508735402 0.7737202183013414 0
0.6276024007962399 0.7446527433183117 0
0.5982127507189396 0.715585268335282 0
0.5688231006416394 0.6865177933522522 0
0.5394334505643392 0.6574503183692225 0
0.510043800487039 0.6283828433861929 0
0.4806541504097389 0.5993153684031632 0
1 8 0 7
74
75
76
77
78
79
80
0.4803319753154685 0.5408582433428334 0
0.5093994502984982 0.5114685932655331 0
0.538466925281528 0.4820789431882329 0
0.5675344002645577 0.4526892931109326 0
0.5966018752475873 0.4232996430336324 0
0.625669350230617 0.3939099929563322 0
0.6547368252136466 0.3645203428790321 0
2 2 0 66
81
82
83
84
85
86
87
88
89
90
91
92
93
94
95
96
97
98
99
100
101
102
103
104
105
106
107
108
109
110
111
112
113
114
115
116
117
118
119
120
121
122
123
124
125
126
127
128
129
130
131
132
133
134
135
136
137
138
139
140
141
142
143
144
145
146
0.7614949037080548 0.4623190388176133 0
0.5784528463483201 0.4925572899087551 0
0.6096408606251117 0.6753890622536483 0
0.7917331547991966 0.645361096177348 0
0.7332828133156513 0.7050415315891302 0
0.8195387053961709 0.5177683638988085 0
0.6391057101186342 0.4349441891089511 0
0.5565359445059165 0.6193604277856156 0
0.8503107846155368 0.5872659773463439 0
0.6640321483992127 0.7297607181497318 0
0.7032053275077206 0.4034632421000841 0
0.5203178963822607 0.5513365900633556 0
0.8208744097572731 0.6160854763206471 0
0.7807016201368442 0.6059905810774678 0
0.7517283856359729 0.6349656630731495 0
0.7406814129617074 0.5955899618725568 0
0.7115761319958575 0.6252122762051349 0
0.7008226676413319 0.5846204124182178 0
0.7276929741419393 0.5570352890539383 0
0.6889613807631035 0.5451587767354191 0
0.6606930724024743 0.5741537882303751 0
0.6497506806233676 0.5342877451879993 0
0.6782240526494322 0.5050600317192849 0
0.6208496631800133 0.563591460054548 0
0.6317585981352223 0.6034656220568471 0
0.6390200533475332 0.4943220656223142 0
0.5918035494652363 0.5929693625747369 0
0.5823461837674181 0.5541645388554879 0
0.6674489749142619 0.4658986994791362 0
0.711742721720481 0.475429998593269 0
0.6018632444183378 0.6319516691482424 0
0.6427079166157909 0.6433157060930815 0
0.6517511216062698 0.6858065098332493 0
0.6817489764474192 0.6579831707967145 0
0.6915168201282836 0.6973716873839378 0
0.8126795809963203 0.5786142702668664 0
0.7626099732138473 0.6749147544002325 0
0.6075203213313498 0.4631676398314548 0
0.7222493478256585 0.6654455764678813 0
0.6715512272063493 0.6147918293000618 0
0.7907619707076077 0.4909389096531656 0
0.7512529426678779 0.5020053735729676 0
0.7304298970885346 0.432481819177214 0
0.781138809182064 0.5263968053479233 0
0.5493853713652903 0.5219469399860553 0
0.6099525783645036 0.5237117156996143 0
0.8460877393466226 0.548838395398718 0
0.5207755195814204 0.5908974263797605 0
0.6655347137335234 0.4029592541548626 0
0.7066514372680183 0.7339376037468763 0
0.7712899546506453 0.5632570185760848 0
0.7172727592043807 0.5186040777335137 0
0.5568222279564354 0.5811204315551878 0
0.687768849314213 0.4364962979398106 0
0.5737861906501431 0.6521082584334603 0
0.6308916352090076 0.711935616504019 0
0.686145852412901 0.7599941076758017 0
0.6840401487346156 0.3779242784103015 0
0.4940580859410082 0.5700120448821943 0
0.8761279152065085 0.5679063412039088 0
0.7501341691307533 0.5325885633840121 0
0.6087364498479266 0.4934396777655348 0
0.579668974864897 0.522829327842835 0
0.6378039248309563 0.4640500276882348 0
0.5529799606867964 0.5498453674070435 0
0.8060011160048892 0.546583659029829 0
2 3 0 233
147
148
149
150
151
152
153
154
155
156
157
158
159
160
161
162
163
164
165
166
167
168
169
170
171
172
173
174
175
176
177
178
179
180
181
182
183
184
185
186
187
188
189
190
191
192
193
194
195
196
197
198
199
200
201
202
203
204
205
206
207
208
209
210
211
212
213
214
215
216
217
218
219
220
221
222
223
224
225
226
227
228
229
230
231
232
233
234
235
236
237
238
239
240
241
242
243
244
245
246
247
248
249
250
251
252
253
254
255
256
257
258
259
260
261
262
263
264
265
266
267
268
269
270
271
272
273
274
275
276
277
278
279
280
281
282
283
284
285
286
287
288
289
290
291
292
293
294
295
296
297
298
299
300
301
302
303
304
305
306
307
308
309
310
311
312
313
314
315
316
317
318
319
320
321
322
323
324
325
326
327
328
329
330
331
332
333
334
335
336
337
338
339
340
341
342
343
344
345
346
347
348
349
350
351
352
353
354
355
356
357
358
359
360
361
362
363
364
365
366
367
368
369
370
371
372
373
374
375
376
377
378
379
0.4917926767328333 0.4689507550733031 0
0.5913165446785416 0.3837915541729903 0
0.4411858047168438 0.612296957576947 0
0.4070046886676572 0.5817198826125898 0
0.3978879685377509 0.6267020765545723 0
0.06627140028056444 0.2958029233077773 0
0.5275955589241198 0.6939834896900543 0
0.3728665839524075 0.07180815903041171 0
0.3626778474611207 0.5922130606606706 0
0.3498420431083882 0.6403816548727752 0
0.7246705733303835 0.3243866322123113 0
0.3741728637921979 0.5462765438231995 0
0.3274729720247361 0.5551662138980122 0
0.3424543676100991 0.5056836211643911 0
0.6916802551684071 0.2948129011270122 0
0.7406202342910031 0.2810676710207561 0
0.2137957293928623 0.9315679702196751 0
0.2892754208427176 0.516686385144206 0
0.3042270758539996 0.4633935550401876 0
0.540535742133348 0.0666901590291874 0
0.6176408213838627 0.7841161693845358 0
0.7561483772272629 0.7845818510367957 0
0.3885255054078045 0.6764266780079415 0
0.3368032519768888 0.6922829171477167 0
0.8185145044399209 0.7278920296868525 0
0.3777264157779584 0.7297059124737786 0
0.2962696915462082 0.6532570361511151 0
0.7042101387561466 0.2445159702622585 0
0.6534643832802876 0.2623269020157048 0
0.7553149389229852 0.2296990873179654 0
0.779780834701423 0.3789481620735691 0
0.8438335665908686 0.4392994307560915 0
0.2484682879663982 0.4764372888877045 0
0.2676692140515216 0.4196418260652488 0
0.3244259468386664 0.4062604979058366 0
0.2856020018706626 0.3613153306550195 0
0.3461121263781922 0.3466684003505012 0
0.3014440709131624 0.2998618952578299 0
0.3650995560269903 0.2874127114021174 0
0.2813353468358614 0.7102210503541049 0
0.2402142774891657 0.5364055068131419 0
0.7940521516302127 0.2710064741660647 0
0.2145067282375503 0.07309961405956 0
0.4073900906832923 0.333438666322563 0
0.4267394746299509 0.2759156648390072 0
0.2370695061748214 0.6668446079197514 0
0.2204596161605248 0.7309135973798719 0
0.6656215694637683 0.206515843017599 0
0.6126624934048041 0.2235319198413063 0
0.4564500037564445 0.9269244845928208 0
0.815918151002369 0.2141826632667222 0
0.205158267216522 0.4308473427226504 0
0.3218779236159869 0.2371686063927219 0
0.2543943319676411 0.2511097783744462 0
0.2661874148044553 0.7761542293901582 0
0.8720194852586693 0.6666288304617225 0
0.4636191523577969 0.3221355492514519 0
0.7707770207151035 0.1721212536820321 0
0.8299659964874326 0.155810490567206 0
0.1758371589550757 0.6844171469437212 0
0.1565367438822999 0.757358383239159 0
0.4960583930654763 0.2679747095006121 0
0.4477150507314355 0.2202121318118881 0
0.3959011741354504 0.5016529544508044 0
0.6195309835050241 0.9290421740472277 0
0.7874369237643829 0.9305754832482942 0
0.6027618440511679 0.2801158642371669 0
0.07216878364870322 0.541666666666667 0
0.8544768202936301 0.2597292373438627 0
0.4493734143690242 0.3776688090973562 0
0.9340765065986354 0.7890136131791402 0
0.429408040638084 0.7119956140166319 0
0.4212405399281473 0.7658582320352421 0
0.6244274839671546 0.1672036177152043 0
0.56406258094065 0.1834820221404246 0
0.8948848433997281 0.5058914501954435 0
0.07031982220639282 0.8744225194063334 0
0.0754387305159705 0.1323642401294009 0
0.2759621249033404 0.1850041796390293 0
0.2053390470924437 0.2001485774219699 0
0.505702811644582 0.3653324350137431 0
0.9241842733344212 0.3707306293052269 0
0.3696790304950498 0.7972353907733334 0
0.7086707394764205 0.07490436037025272 0
0.8340059830750717 0.3133552435277696 0
0.4713983295598325 0.7498541163936925 0
0.4655216029548109 0.8028187059399344 0
0.5222074156989529 0.7883761383482562 0
0.1833616844799277 0.2674535855544554 0
0.5079990690883793 0.8440199466819839 0
0.1341280030546084 0.2079049901348642 0
0.1883610407268938 0.6212059330067849 0
0.1223836825988659 0.6433580047147873 0
0.3441792550524349 0.1796924553744192 0
0.9369373300006104 0.5997617605271535 0
0.927831216351297 0.1249999999999997 0
0.5631443012619775 0.8333672933298265 0
0.5531790658898138 0.8852307756971738 0
0.2999688258148119 0.117276588662828 0
0.4290940888347034 0.1266435695092238 0
0.9333095641389204 0.7144269210954051 0
0.7128180682639176 0.9304204792707135 0
0.7502300521722314 0.8678465396293472 0
0.8145305943742633 0.8605970632735389 0
0.6662092000136641 0.8770285442865606 0
0.8584529783889959 0.9288183918976819 0
0.6438183791298843 0.3246523460812097 0
0.4421942030361085 0.5238211164410652 0
0.4425223148968485 0.47990352817611 0
0.4064778828332561 0.4530828535456299 0
0.4929934068144172 0.4166521721111571 0
0.528930708019272 0.4047379184152946 0
0.8915928802849354 0.306574424618166 0
0.7842069926789155 0.1078224397802728 0
0.8511673553639765 0.09220702552700771 0
0.8965613467686806 0.1965084729785219 0
0.06240692209639165 0.6968901949585344 0
0.9326131341269801 0.8595908109652304 0
0.5865098987851135 0.3375088169663585 0
0.552572531209144 0.2960054347695072 0
0.8747109681440685 0.7492125264126441 0
0.6198725745699978 0.06368564261951909 0
0.6823798301683157 0.1484137849442407 0
0.1643797664832617 0.1364402523793743 0
0.4594634373570501 0.06700148874560308 0
0.5018313063389089 0.1358355756004243 0
0.3908877427764898 0.4015471525791473 0
0.07944859717088087 0.7785769534940732 0
0.1385300468641903 0.8350191558485081 0
0.8655290872542016 0.8130829811495304 0
0.3722472217477567 0.9291463677287755 0
0.292337225616371 0.9301586171269823 0
0.2585684986320014 0.8537965691697416 0
0.3351300107876716 0.8626621117722177 0
0.4012889014232163 0.8643002659471499 0
0.08231367373339044 0.4574139795549503 0
0.1414787887169365 0.513874108719544 0
0.06995586130242681 0.375207512737847 0
0.1406601875517363 0.3322550065040561 0
0.6098701855073111 0.8659481641949265 0
0.1423270598565578 0.4032221859049696 0
0.9482015805502106 0.4397242935919101 0
0.4343527929656693 0.6593965217833859 0
0.4783069917360302 0.6902901036646433 0
0.2503078956389892 0.6020782377531333 0
0.1320684466712653 0.9212258225807033 0
0.7783222998807808 0.3276758147074164 0
0.2051852691024684 0.8036362135969863 0
0.1277594898773564 0.06841572271643659 0
0.5055147208458146 0.2034305021558884 0
0.5582524833376087 0.7257924471267667 0
0.5884337851426089 0.7547682755081423 0
0.2325889856443058 0.3172381662798349 0
0.6487369984043991 0.8243256374587227 0
0.1440802532482272 0.5684548921911091 0
0.7287178413368827 0.8157715370497349 0
0.7874434858456472 0.7560237237369204 0
0.8037911182793256 0.8008371529592768 0
0.5556054272528428 0.2424234087741509 0
0.3859118722368859 0.2311469443172292 0
0.8120543232838625 0.4109974691193367 0
0.8598199133531229 0.3948799180900777 0
0.3111668409540135 0.6013440672011948 0
0.1936852030881105 0.3694163301161623 0
0.5787346790140455 0.1228127791701287 0
0.903424899436403 0.6370854391095473 0
0.8473441504520808 0.6987989198171319 0
0.3241861113515077 0.7522649538070783 0
0.5416310219929776 0.3379444262159853 0
0.4747038793250101 0.6423151126573701 0
0.3555143875699608 0.4565520643010691 0
0.7181713707731293 0.1901584022040719 0
0.9293998475356005 0.5276845715991775 0
0.8744061317751473 0.4744031105593305 0
0.06526267130514496 0.2178232924324441 0
0.7477102517075681 0.3576948839091699 0
0.5306170232949943 0.4408696127467301 0
0.2320312985062816 0.1423938424325523 0
0.5172461766656541 0.738013944137779 0
0.4732481240559514 0.505000447259769 0
0.05548645326541279 0.6250000000000003 0
0.4456745730704782 0.4329675450971173 0
0.6204101996075606 0.3608766106111846 0
0.5355157807229038 0.9396388698766444 0
0.1984815169043048 0.4968521353607637 0
0.6982450457542053 0.8440018916183167 0
0.8324690895264827 0.7667233670228812 0
0.9297679883547061 0.9288668997050176 0
0.5060167362073077 0.6624843735534967 0
0.9483686829721873 0.6509594033847538 0
0.5116108890231104 0.3158864917597109 0
0.8213431430935266 0.3626504155947338 0
0.8661892386282155 0.3496381262271948 0
0.9094803474821824 0.2543768127054647 0
0.9500238691653655 0.2920589627000525 0
0.7666260754480958 0.824013931535995 0
0.8947857734817128 0.4319353689007279 0
0.2836874813899244 0.5623360821619376 0
0.1908292942713384 0.8685753465544792 0
0.313385208218832 0.8079902227033782 0
0.8878272381688614 0.7011847538266963 0
0.2916666666666663 0.05048094276190607 0
0.9101554470595643 0.06358014735713058 0
0.6052499446456444 0.822303931129841 0
0.7335790044902122 0.1330985335918826 0
0.4582392502891803 0.8579452348568657 0
0.0610042339640729 0.9389957660359269 0
0.0610042339640734 0.06100423396407328 0
0.553309773102841 0.7598640043767608 0
0.9526188736252279 0.2148652893914329 0
0.7900551031264391 0.04842696765852583 0
0.9103428142507929 0.6754282541165 0
0.8742656777510733 0.8717937869722735 0
0.5022766339493443 0.8907518623410977 0
0.561179694896955 0.4137419990067237 0
0.1226925949693251 0.2704825113942795 0
0.9607534544445033 0.5570456271241307 0
0.9239320983789862 0.4811239986328048 0
0.5765437681479048 0.7910097538462175 0
0.6428170614391868 0.1154040369638691 0
0.1940170485078362 0.5619329409332411 0
0.7080684489260656 0.8801754441390341 0
0.4196224540496049 0.8146702330296365 0
0.5523161359683398 0.3754205469167589 0
0.1210829336418723 0.7105207707259924 0
0.4593925651614755 0.1732130306735065 0
0.3713759842709494 0.1306040903547492 0
0.2394662701806322 0.3789581249164275 0
0.157574375424968 0.4582339171521338 0
0.4073015181384197 0.1796505300762795 0
0.09852979319030231 0.5946198908931409 0
0.4117021163503318 0.5463667321481521 0
0.8786494083237997 0.1447012311517059 0
$EndNodes
$Elements
6 756 1 756
1 1 1 12
1 1 9 
2 9 10 
3 10 11 
4 11 12 
5 12 13 
6 13 14 
7 14 15 
8 15 16 
9 16 17 
10 17 18 
11 18 19 
12 19 2 
1 2 1 12
13 3 20 
14 20 21 
15 21 22 
16 22 23 
17 23 24 
18 24 25 
19 25 26 
20 26 27 
21 27 28 
22 28 29 
23 29 30 
24 30 1 
1 3 1 12
25 2 31 
26 31 32 
27 32 33 
28 33 34 
29 34 35 
30 35 36 
31 36 37 
32 37 38 
33 38 39 
34 39 40 
35 40 41 
36 41 4 
1 4 1 12
37 4 42 
38 42 43 
39 43 44 
40 44 45 
41 45 46 
42 46 47 
43 47 48 
44 48 49 
45 49 50 
46 50 51 
47 51 52 
48 52 3 
2 2 2 162
49 81 122 110 
50 107 111 88 
51 110 123 81 
52 129 134 87 
53 87 134 109 
54 111 135 88 
55 113 115 90 
56 55 123 54 
57 122 132 110 
58 115 119 85 
59 90 136 113 
60 112 113 83 
61 111 112 83 
62 114 120 97 
63 114 119 115 
64 81 123 55 
65 54 123 91 
66 116 127 89 
67 112 120 114 
68 97 119 114 
69 116 146 127 
70 88 133 107 
71 112 114 113 
72 92 133 128 
73 92 145 133 
74 114 115 113 
75 85 130 115 
76 70 83 69 
77 98 100 99 
78 58 86 57 
79 72 88 71 
80 56 81 55 
81 61 93 89 
82 84 93 62 
83 93 116 89 
84 95 96 94 
85 107 108 104 
86 105 112 111 
87 63 84 62 
88 64 117 63 
89 77 118 82 
90 61 89 60 
91 68 90 67 
92 97 98 96 
93 101 120 105 
94 79 87 78 
95 95 119 97 
96 56 121 81 
97 86 121 57 
98 85 117 64 
99 76 125 75 
100 121 124 122 
101 117 119 95 
102 77 82 76 
103 63 117 84 
104 105 107 104 
105 65 85 64 
106 84 95 94 
107 108 126 104 
108 87 118 78 
109 54 91 53 
110 75 92 74 
111 98 99 96 
112 102 103 100 
113 84 117 95 
114 94 116 93 
115 101 105 104 
116 102 106 103 
117 109 110 103 
118 105 111 107 
119 121 122 81 
120 57 121 56 
121 104 126 102 
122 75 125 92 
123 82 125 76 
124 86 124 121 
125 85 119 117 
126 78 118 77 
127 98 101 100 
128 102 126 106 
129 101 104 102 
130 95 97 96 
131 97 120 98 
132 105 120 112 
133 101 102 100 
134 84 94 93 
135 62 93 61 
136 106 109 103 
137 98 120 101 
138 80 129 79 
139 59 127 58 
140 73 128 72 
141 94 131 116 
142 99 131 96 
143 83 135 111 
144 100 132 99 
145 110 132 103 
146 66 130 65 
147 65 130 85 
148 113 136 83 
149 58 127 86 
150 72 128 88 
151 79 129 87 
152 115 130 90 
153 91 134 129 
154 88 135 71 
155 70 135 83 
156 110 134 123 
157 96 131 94 
158 83 136 69 
159 68 136 90 
160 109 134 110 
161 5 138 80 
162 8 139 73 
163 53 138 5 
164 67 137 7 
165 7 137 66 
166 60 140 6 
167 6 140 59 
168 74 139 8 
169 103 132 100 
170 131 146 116 
171 107 133 108 
172 127 146 86 
173 109 144 87 
174 99 141 131 
175 124 146 131 
176 123 134 91 
177 128 133 88 
178 132 141 99 
179 71 135 70 
180 131 141 124 
181 80 138 129 
182 73 139 128 
183 59 140 127 
184 69 136 68 
185 91 138 53 
186 89 140 60 
187 90 137 67 
188 92 139 74 
189 122 141 132 
190 66 137 130 
191 108 145 143 
192 124 141 122 
193 118 142 82 
194 108 143 126 
195 118 144 142 
196 82 143 125 
197 126 142 106 
198 87 144 118 
199 142 144 106 
200 142 143 82 
201 126 143 142 
202 106 144 109 
203 143 145 125 
204 125 145 92 
205 86 146 124 
206 128 139 92 
207 127 140 89 
208 129 138 91 
209 130 137 90 
210 133 145 108 
2 3 2 546
211 211 251 248 
212 161 253 175 
213 208 305 266 
214 216 328 273 
215 273 317 181 
216 224 270 237 
217 175 253 213 
218 31 349 2 
219 237 321 224 
220 256 317 273 
221 299 310 285 
222 273 328 256 
223 229 281 280 
224 197 262 215 
225 2 349 19 
226 235 299 285 
227 255 328 147 
228 293 338 177 
229 205 262 197 
230 147 328 257 
231 274 371 207 
232 286 300 251 
233 211 248 45 
234 211 330 244 
235 272 311 221 
236 244 286 211 
237 279 294 201 
238 296 305 208 
239 201 346 279 
240 5 253 161 
241 37 336 241 
242 171 313 267 
243 207 275 274 
244 245 324 189 
245 153 325 290 
246 257 323 147 
247 189 348 245 
248 253 265 213 
249 43 252 42 
250 277 281 196 
251 221 296 272 
252 275 345 292 
253 248 249 212 
254 210 255 254 
255 263 371 274 
256 275 292 223 
257 148 370 265 
258 154 271 246 
259 18 349 261 
260 250 304 276 
261 266 337 208 
262 331 367 283 
263 183 273 181 
264 290 325 232 
265 177 322 293 
266 231 338 293 
267 4 334 41 
268 300 332 251 
269 217 247 39 
270 230 268 16 
271 217 267 247 
272 252 334 42 
273 163 279 278 
274 264 276 217 
275 229 369 281 
276 281 352 196 
277 211 286 251 
278 280 281 277 
279 321 362 152 
280 44 248 212 
281 263 327 239 
282 7 332 300 
283 13 271 154 
284 254 378 210 
285 259 341 228 
286 242 356 262 
287 237 362 321 
288 36 364 288 
289 283 367 301 
290 147 326 255 
291 46 211 45 
292 308 339 228 
293 282 283 214 
294 35 228 34 
295 166 311 272 
296 227 258 257 
297 218 290 232 
298 227 257 216 
299 271 272 246 
300 163 278 50 
301 265 370 315 
302 203 227 216 
303 42 334 4 
304 228 343 308 
305 26 284 282 
306 282 375 283 
307 278 280 277 
308 40 217 39 
309 19 349 18 
310 203 216 190 
311 166 272 271 
312 267 333 171 
313 280 346 229 
314 48 277 196 
315 46 330 211 
316 319 364 36 
317 44 212 43 
318 287 375 282 
319 245 348 154 
320 25 282 214 
321 286 350 300 
322 230 357 260 
323 249 250 212 
324 39 247 38 
325 32 356 242 
326 279 280 278 
327 274 275 223 
328 212 252 43 
329 285 310 287 
330 258 323 257 
331 287 310 198 
332 269 366 230 
333 162 293 157 
334 15 268 166 
335 285 287 284 
336 230 366 268 
337 40 264 217 
338 228 339 259 
339 45 248 44 
340 270 295 189 
341 187 344 291 
342 190 273 183 
343 257 328 216 
344 250 342 304 
345 291 367 187 
346 355 365 234 
347 15 166 14 
348 239 371 263 
349 191 203 190 
350 152 285 284 
351 149 289 151 
352 284 287 282 
353 166 271 14 
354 49 278 277 
355 17 230 16 
356 21 274 223 
357 279 346 280 
358 152 284 27 
359 248 368 249 
360 185 190 183 
361 13 154 12 
362 36 288 35 
363 48 196 47 
364 49 277 48 
365 32 242 31 
366 51 163 50 
367 304 333 276 
368 343 364 320 
369 25 214 24 
370 242 349 31 
371 26 282 25 
372 35 288 228 
373 28 152 27 
374 228 341 34 
375 251 368 248 
376 23 263 22 
377 16 268 15 
378 263 274 22 
379 216 273 190 
380 264 359 276 
381 207 294 275 
382 283 301 214 
383 11 189 10 
384 289 316 290 
385 50 278 49 
386 27 284 26 
387 249 332 302 
388 201 294 193 
389 14 271 13 
390 234 365 243 
391 232 234 233 
392 196 330 47 
393 188 293 162 
394 249 342 250 
395 234 243 236 
396 154 373 245 
397 151 289 169 
398 21 223 20 
399 218 232 219 
400 185 191 190 
401 189 324 270 
402 22 274 21 
403 217 276 267 
404 38 336 37 
405 160 210 158 
406 30 224 29 
407 175 213 195 
408 191 208 203 
409 41 264 40 
410 169 289 218 
411 215 231 188 
412 169 218 172 
413 231 293 188 
414 289 290 218 
415 28 321 152 
416 247 336 38 
417 17 357 230 
418 224 295 270 
419 196 360 330 
420 180 181 165 
421 51 292 163 
422 214 327 24 
423 292 345 163 
424 193 294 207 
425 182 299 184 
426 192 291 173 
427 260 351 230 
428 240 306 199 
429 23 327 263 
430 243 286 244 
431 154 348 12 
432 261 357 18 
433 313 347 267 
434 52 292 51 
435 189 295 10 
436 182 183 181 
437 230 351 269 
438 238 291 192 
439 291 309 173 
440 210 256 255 
441 221 305 296 
442 200 235 226 
443 225 240 199 
444 184 185 183 
445 181 317 165 
446 246 373 154 
447 214 377 327 
448 265 266 213 
449 265 329 148 
450 206 238 192 
451 184 299 200 
452 224 321 29 
453 11 348 189 
454 10 295 9 
455 252 359 334 
456 316 335 290 
457 268 311 166 
458 187 367 331 
459 210 378 158 
460 160 317 210 
461 235 237 226 
462 186 201 193 
463 237 270 226 
464 75 147 76 
465 225 245 240 
466 253 329 265 
467 180 182 181 
468 255 326 254 
469 210 317 256 
470 78 148 79 
471 218 219 172 
472 36 363 319 
473 200 226 225 
474 234 236 233 
475 232 233 219 
476 8 254 74 
477 73 149 8 
478 155 158 150 
479 209 296 208 
480 182 184 183 
481 179 180 165 
482 250 252 212 
483 200 225 199 
484 262 340 215 
485 164 165 160 
486 184 199 185 
487 191 209 208 
488 200 299 235 
489 334 359 264 
490 206 239 238 
491 70 153 71 
492 159 160 158 
493 149 316 289 
494 215 259 231 
495 151 169 156 
496 293 322 157 
497 290 335 153 
498 227 370 258 
499 69 297 70 
500 184 200 199 
501 80 253 5 
502 276 333 267 
503 193 207 206 
504 195 221 220 
505 242 379 261 
506 68 298 69 
507 243 244 236 
508 6 363 241 
509 161 175 174 
510 239 301 238 
511 5 157 53 
512 232 325 234 
513 164 187 179 
514 72 316 73 
515 20 353 3 
516 3 353 52 
517 176 188 162 
518 67 167 68 
519 179 198 180 
520 164 179 165 
521 169 172 170 
522 1 354 30 
523 9 354 1 
524 175 195 194 
525 149 150 8 
526 193 206 192 
527 203 337 227 
528 159 164 160 
529 169 170 156 
530 54 177 55 
531 170 173 156 
532 205 379 262 
533 265 315 266 
534 238 367 291 
535 199 306 185 
536 65 168 66 
537 272 372 246 
538 220 269 194 
539 279 345 294 
540 41 334 264 
541 7 300 67 
542 155 159 158 
543 241 363 37 
544 195 305 221 
545 151 155 150 
546 151 156 155 
547 186 193 192 
548 186 192 173 
549 53 322 54 
550 195 220 194 
551 186 314 201 
552 64 303 65 
553 176 204 197 
554 270 324 226 
555 185 306 191 
556 213 305 195 
557 55 307 56 
558 219 229 172 
559 197 215 188 
560 66 302 7 
561 221 311 220 
562 170 186 173 
563 267 347 247 
564 266 305 213 
565 204 260 205 
566 5 161 157 
567 63 171 64 
568 204 205 197 
569 225 324 245 
570 288 343 228 
571 302 342 249 
572 149 151 150 
573 261 349 242 
574 260 261 205 
575 191 306 209 
576 175 194 174 
577 176 197 188 
578 56 178 57 
579 208 337 203 
580 165 317 160 
581 29 321 28 
582 174 176 162 
583 73 316 149 
584 161 174 162 
585 62 313 63 
586 147 323 76 
587 227 337 315 
588 76 323 77 
589 243 350 286 
590 70 297 153 
591 150 378 8 
592 8 378 254 
593 75 326 147 
594 37 363 36 
595 69 298 297 
596 161 162 157 
597 163 345 279 
598 296 372 272 
599 74 326 75 
600 61 202 62 
601 57 320 58 
602 254 326 74 
603 198 375 287 
604 288 364 343 
605 173 309 156 
606 167 298 68 
607 156 309 155 
608 226 324 225 
609 262 379 242 
610 60 312 61 
611 172 314 170 
612 240 376 306 
613 320 364 222 
614 148 329 79 
615 155 309 159 
616 318 351 204 
617 269 351 318 
618 24 327 23 
619 157 322 53 
620 340 356 341 
621 269 318 194 
622 170 314 186 
623 176 318 204 
624 229 314 172 
625 164 344 187 
626 245 373 240 
627 315 370 227 
628 78 361 148 
629 6 241 60 
630 67 300 167 
631 54 322 177 
632 58 222 59 
633 314 346 201 
634 79 329 80 
635 153 335 71 
636 291 344 309 
637 182 374 299 
638 373 376 240 
639 47 330 46 
640 80 329 253 
641 285 362 235 
642 179 331 198 
643 72 335 316 
644 361 370 148 
645 177 307 55 
646 260 357 261 
647 65 303 168 
648 206 371 239 
649 198 374 180 
650 168 302 66 
651 59 319 6 
652 194 318 174 
653 71 335 72 
654 174 318 176 
655 256 328 255 
656 294 345 275 
657 229 346 314 
658 52 353 292 
659 171 333 303 
660 297 325 153 
661 171 303 64 
662 34 341 33 
663 308 343 178 
664 178 343 320 
665 152 362 285 
666 12 348 11 
667 276 359 250 
668 33 356 32 
669 56 307 178 
670 223 353 20 
671 310 374 198 
672 323 361 77 
673 303 304 168 
674 30 354 224 
675 18 357 17 
676 187 331 179 
677 307 308 178 
678 303 333 304 
679 63 313 171 
680 246 376 373 
681 301 377 214 
682 295 354 9 
683 311 366 220 
684 330 360 244 
685 292 353 223 
686 341 356 33 
687 249 368 332 
688 259 339 231 
689 309 344 159 
690 219 369 229 
691 352 360 196 
692 209 372 296 
693 299 374 310 
694 178 320 57 
695 159 344 164 
696 235 362 237 
697 202 313 62 
698 77 361 78 
699 261 379 205 
700 224 354 295 
701 158 378 150 
702 302 332 7 
703 268 366 311 
704 204 351 260 
705 61 312 202 
706 215 340 259 
707 231 339 338 
708 315 337 266 
709 250 359 252 
710 258 361 323 
711 301 367 238 
712 241 336 312 
713 58 320 222 
714 236 352 233 
715 258 370 361 
716 241 312 60 
717 297 355 325 
718 300 350 167 
719 177 338 307 
720 340 341 259 
721 207 371 206 
722 307 338 308 
723 325 355 234 
724 222 319 59 
725 298 355 297 
726 244 360 236 
727 247 358 336 
728 180 374 182 
729 220 366 269 
730 168 342 302 
731 352 369 233 
732 233 369 219 
733 236 360 352 
734 304 342 168 
735 239 377 301 
736 202 347 313 
737 167 365 298 
738 319 363 6 
739 306 376 209 
740 350 365 167 
741 298 365 355 
742 327 377 239 
743 281 369 352 
744 338 339 308 
745 331 375 198 
746 262 356 340 
747 336 358 312 
748 312 358 202 
749 243 365 350 
750 202 358 347 
751 209 376 372 
752 283 375 331 
753 372 376 246 
754 332 368 251 
755 347 358 247 
756 222 364 319 
$EndElements
