$MeshFormat
4.1 0 8
$EndMeshFormat
$PhysicalNames
3
1 101 "outer_boundary"
2 1 "material_1"
2 2 "material_2"
$EndPhysicalNames
$Entities
7 7 2 0
1 0 0 0 0 
2 1 0 0 0 
3 0 1 0 0 
4 1 1 0 0 
5 0.5148627847648279 0.5258892297366212 0 0 
6 0.4443764984354004 0.1907472089702422 0 0 
7 0.7698611454594502 0.2972753047737238 0 0 
1 -9.999999994736442e-08 -1e-07 -1e-07 1.0000001 1e-07 1e-07 1 101 2 1 -2 
2 -1e-07 -9.999999994736442e-08 -1e-07 1e-07 1.0000001 1e-07 1 101 2 3 -1 
3 0.9999999000000001 -9.999999994736442e-08 -1e-07 1.0000001 1.0000001 1e-07 1 101 2 2 -4 
4 -9.999999994736442e-08 0.9999999000000001 -1e-07 1.0000001 1.0000001 1e-07 1 101 2 4 -3 
5 0.4443763984354004 0.1907471089702422 -1e-07 0.5148628847648279 0.5258893297366212 1e-07 0 2 5 -6 
6 0.4443763984354004 0.1907471089702422 -1e-07 0.7698612454594501 0.2972754047737238 1e-07 0 2 6 -7 
7 0.514862684764828 0.2972752047737238 -1e-07 0.7698612454594501 0.5258893297366212 1e-07 0 2 7 -5 
2 0.4443763984354004 0.1907471089702422 -1e-07 0.7698612454594501 0.5258893297366212 1e-07 1 2 3 5 6 7 
3 -9.999999994736442e-08 -9.999999994736442e-08 -1e-07 1.0000001 1.0000001 1e-07 1 1 7 1 3 4 2 -5 -7 -6 
$EndEntities
$Nodes
16 148 1 148
0 1 0 1
1
0 0 0
0 2 0 1
2
1 0 0
0 3 0 1
3
0 1 0
0 4 0 1
4
1 1 0
0 5 0 1
5
0.5148627847648279 0.5258892297366212 0
0 6 0 1
6
0.4443764984354004 0.1907472089702422 0
0 7 0 1
7
0.7698611454594502 0.2972753047737238 0
1 1 0 7
8
9
10
11
12
13
14
0.1249999999999999 0 0
0.2499999999999998 0 0
0.3749999999999993 0 0
0.4999999999999988 0 0
0.6249999999999988 0 0
0.7499999999999991 0 0
0.8749999999999997 0 0
1 2 0 7
15
16
17
18
19
20
21
0 0.8750000000000001 0
0 0.7500000000000002 0
0 0.6250000000000007 0
0 0.5000000000000012 0
0 0.3750000000000012 0
0 0.2500000000000009 0
0 0.1250000000000003 0
1 3 0 7
22
23
24
25
26
27
28
1 0.1249999999999999 0
1 0.2499999999999998 0
1 0.3749999999999993 0
1 0.4999999999999988 0
1 0.6249999999999988 0
1 0.7499999999999991 0
1 0.8749999999999997 0
1 4 0 7
29
30
31
32
33
34
35
0.8750000000000001 1 0
0.7500000000000002 1 0
0.6250000000000007 1 0
0.5000000000000012 1 0
0.3750000000000012 1 0
0.2500000000000009 1 0
0.1250000000000003 1 0
1 5 0 4
36
37
38
39
0.5007655274989424 0.4588608255833455 0
0.4866682702330569 0.3918324214300697 0
0.4725710129671714 0.3248040172767936 0
0.4584737557012858 0.2577756131235175 0
1 6 0 4
40
41
42
43
0.5094734278402103 0.2120528281309385 0
0.5745703572450201 0.2333584472916348 0
0.6396672866498304 0.2546640664523312 0
0.7047642160546406 0.2759696856130276 0
1 7 0 4
44
45
46
47
0.7188614733205257 0.3429980897663032 0
0.6678618011816013 0.3887208747588827 0
0.6168621290426768 0.4344436597514623 0
0.565862456903752 0.480166444744042 0
2 2 0 6
48
49
50
51
52
53
0.6027648717767913 0.3674152555981864 0
0.5517651996378667 0.413138040590766 0
0.5235706851060958 0.2790812322842142 0
0.6537645439157159 0.321692470605607 0
0.5886676145109058 0.3003868514449106 0
0.5376679423719813 0.3461096364374901 0
2 3 0 95
54
55
56
57
58
59
60
61
62
63
64
65
66
67
68
69
70
71
72
73
74
75
76
77
78
79
80
81
82
83
84
85
86
87
88
89
90
91
92
93
94
95
96
97
98
99
100
101
102
103
104
105
106
107
108
109
110
111
112
113
114
115
116
117
118
119
120
121
122
123
124
125
126
127
128
129
130
131
132
133
134
135
136
137
138
139
140
141
142
143
144
145
146
147
148
0.582861809228245 0.5479301914630211 0
0.4482486839221647 0.5030713941828681 0
0.4623662477774492 0.5765045031021706 0
0.4113228432211055 0.3078851649581329 0
0.6817880277011199 0.4561211716160671 0
0.3873591200641819 0.5492711107462176 0
0.4042974442600585 0.6322822290074064 0
0.4841108211379378 0.6561594984054071 0
0.8882241936573758 0.6912201445444783 0
0.3224179101169198 0.6058892925213298 0
0.3062798139950903 0.5159385101459142 0
0.34344127437286 0.6988903018384972 0
0.1059993590027146 0.3138683658635799 0
0.6824900184816634 0.8924129218165833 0
0.7851986100304316 0.3691425019475609 0
0.7579996363911299 0.2273001328138536 0
0.09307909523121349 0.8120911832247026 0
0.2340861086689454 0.5765225561683226 0
0.4418073052041536 0.8936814715172978 0
0.6230888916274965 0.1751434810780576 0
0.2174325696920997 0.4773849794472235 0
0.2947634848790662 0.4204993429233043 0
0.1810833721619461 0.09427185091153673 0
0.8424689564149659 0.32002566031931 0
0.8587185294228796 0.3977768279797267 0
0.4953761705743248 0.145024423977663 0
0.7980190648027469 0.4481493757836875 0
0.905240600499071 0.1934632776524344 0
0.1361686309778098 0.5414640454672526 0
0.1597922974650904 0.6456385839274471 0
0.4254005608811002 0.1182770738458505 0
0.3683597359010493 0.1719323688401138 0
0.1104612843661258 0.4290002548143401 0
0.8744373821077087 0.4866582304908305 0
0.7905917567615803 0.5370051145018766 0
0.5610103550129293 0.8944302572559359 0
0.622173134447803 0.7934416417356684 0
0.7312439784765976 0.7872978600664939 0
0.6747519203525363 0.7012248017975453 0
0.4999292400136083 0.79179031486284 0
0.8060070129779726 0.8807829220661917 0
0.2037733333161896 0.3702134367806909 0
0.2840768311553679 0.3226129306849612 0
0.2019073420782433 0.2684030036621178 0
0.383298341687354 0.7943246200513467 0
0.3231829874364868 0.8885853738371612 0
0.5760393081954144 0.6999893765848911 0
0.1888410529041659 0.8765971533761771 0
0.2784018996510332 0.7776776467092634 0
0.114881021710458 0.1891343260325384 0
0.2983245382701635 0.2238325713956389 0
0.6882893652566098 0.1016427926544078 0
0.795101839811686 0.08739912152003376 0
0.9019357073243288 0.8118107632508431 0
0.3737488449132302 0.4673088314588285 0
0.3687358371844303 0.3778197625629246 0
0.7770687311279759 0.6953875451187044 0
0.6223967736854961 0.6247312588596857 0
0.7128240390245458 0.6098319305924454 0
0.5679139753792204 0.09431286867466632 0
0.8897223256614317 0.5843228485754484 0
0.6309593863085621 0.5014720639047381 0
0.2930866680115381 0.09704488302364883 0
0.3933768262964759 0.2364699939628215 0
0.7012149086819786 0.5285316315648488 0
0.7316140302714431 0.4141674902523252 0
0.6930775743332073 0.1981341367298941 0
0.5540845645332544 0.171978409830592 0
0.5404396241315618 0.6052006763586328 0
0.2523061475050216 0.674592248300499 0
0.4372797847473806 0.7158293821474929 0
0.4353361475831283 0.4306116644101215 0
0.1756973947552801 0.7429351086381341 0
0.8317215611324197 0.2466124201863302 0
0.4349268222377785 0.3665906061276085 0
0.750296732823911 0.1580979985047472 0
0.898726281439613 0.09697936799633577 0
0.9225202186145987 0.3396785336726843 0
0.08536310526696045 0.6971549235721179 0
0.8984326821470736 0.2667311872354742 0
0.3482337360326843 0.2877875896645899 0
0.9075924367779322 0.9092414344200747 0
0.09150635094610959 0.9084936490538905 0
0.6474983092933867 0.5629580434019733 0
0.09150635094610948 0.09150635094610954 0
0.9348742349957544 0.4271084300464024 0
0.8201610954473553 0.172082640934837 0
0.8178131971132089 0.622159449274402 0
0.2178565884464698 0.1745373270050961 0
0.8204003878287955 0.7720929198812787 0
0.07626480674197217 0.6018515105933639 0
0.4831703002169791 0.07204933987417672 0
0.4993397885235852 0.7159421430001578 0
0.7406455576437737 0.476794956743761 0
0.3595955847315885 0.105467584497761 0
$EndNodes
$Elements
6 294 1 294
1 1 1 8
1 1 8 
2 8 9 
3 9 10 
4 10 11 
5 11 12 
6 12 13 
7 13 14 
8 14 2 
1 2 1 8
9 3 15 
10 15 16 
11 16 17 
12 17 18 
13 18 19 
14 19 20 
15 20 21 
16 21 1 
1 3 1 8
17 2 22 
18 22 23 
19 23 24 
20 24 25 
21 25 26 
22 26 27 
23 27 28 
24 28 4 
1 4 1 8
25 4 29 
26 29 30 
27 30 31 
28 31 32 
29 32 33 
30 33 34 
31 34 35 
32 35 3 
2 2 2 25
33 44 43 7 
34 6 40 39 
35 5 36 47 
36 47 49 46 
37 39 50 38 
38 38 53 37 
39 43 51 42 
40 52 53 50 
41 40 50 39 
42 42 52 41 
43 48 52 51 
44 44 51 43 
45 37 53 49 
46 50 53 38 
47 49 53 48 
48 36 49 47 
49 46 48 45 
50 46 49 48 
51 48 51 45 
52 51 52 42 
53 37 49 36 
54 41 52 50 
55 48 53 52 
56 45 51 44 
57 41 50 40 
2 3 2 237
58 104 116 85 
59 100 122 111 
60 105 120 73 
61 18 86 82 
62 61 122 100 
63 93 146 100 
64 98 102 65 
65 66 86 19 
66 101 126 102 
67 93 100 90 
68 19 86 18 
69 70 126 101 
70 25 114 87 
71 82 144 18 
72 73 113 105 
73 74 95 75 
74 104 142 116 
75 10 145 84 
76 89 93 90 
77 95 96 75 
78 89 90 67 
79 99 102 98 
80 111 122 54 
81 85 117 104 
82 66 95 86 
83 102 123 65 
84 34 101 99 
85 109 134 57 
86 34 99 33 
87 26 114 25 
88 95 97 96 
89 112 118 88 
90 30 94 29 
91 84 148 10 
92 105 129 120 
93 90 92 91 
94 96 109 75 
95 59 108 55 
96 72 93 89 
97 23 81 22 
98 35 101 34 
99 86 95 74 
100 31 89 67 
101 97 104 96 
102 101 102 99 
103 117 134 104 
104 90 100 92 
105 96 134 109 
106 92 112 110 
107 90 91 67 
108 20 66 19 
109 27 62 26 
110 22 130 2 
111 72 98 93 
112 72 89 32 
113 92 110 91 
114 88 141 112 
115 33 72 32 
116 64 108 59 
117 109 125 108 
118 16 70 15 
119 67 94 30 
120 102 126 123 
121 33 99 72 
122 12 113 11 
123 27 107 62 
124 31 67 30 
125 10 116 9 
126 75 108 64 
127 109 128 125 
128 74 75 64 
129 2 130 14 
130 66 97 95 
131 9 76 8 
132 32 89 31 
133 4 135 28 
134 14 106 13 
135 66 103 97 
136 62 114 26 
137 20 103 66 
138 10 148 116 
139 29 135 4 
140 13 106 105 
141 28 107 27 
142 112 141 110 
143 35 136 101 
144 113 145 11 
145 98 124 93 
146 113 121 79 
147 13 105 12 
148 100 111 92 
149 79 145 113 
150 21 103 20 
151 116 148 85 
152 75 109 108 
153 91 94 67 
154 73 121 113 
155 18 144 17 
156 72 99 98 
157 103 142 97 
158 108 125 55 
159 94 135 29 
160 118 147 88 
161 11 145 10 
162 87 88 80 
163 111 112 92 
164 9 116 76 
165 23 133 81 
166 5 55 36 
167 81 130 22 
168 47 54 5 
169 38 57 39 
170 71 83 82 
171 3 136 35 
172 15 136 3 
173 63 64 59 
174 46 115 47 
175 105 113 12 
176 71 74 64 
177 76 142 103 
178 8 138 1 
179 1 138 21 
180 78 80 68 
181 82 86 74 
182 36 125 37 
183 45 58 46 
184 6 85 84 
185 56 61 60 
186 87 139 25 
187 65 124 98 
188 39 117 6 
189 57 128 109 
190 44 119 45 
191 87 114 88 
192 123 126 83 
193 7 68 44 
194 24 131 23 
195 101 136 70 
196 106 129 105 
197 71 82 74 
198 5 56 55 
199 43 69 7 
200 63 71 64 
201 17 132 16 
202 88 147 80 
203 6 117 85 
204 60 65 63 
205 42 120 43 
206 124 146 93 
207 71 123 83 
208 41 73 42 
209 60 63 59 
210 56 60 59 
211 111 137 112 
212 54 137 111 
213 56 59 55 
214 91 143 94 
215 55 125 36 
216 47 115 54 
217 14 130 106 
218 40 121 41 
219 81 140 130 
220 16 132 70 
221 131 133 23 
222 107 143 62 
223 78 87 80 
224 104 134 96 
225 94 143 107 
226 80 119 68 
227 100 146 61 
228 62 143 110 
229 6 79 40 
230 57 117 39 
231 58 115 46 
232 56 122 61 
233 65 123 63 
234 61 124 60 
235 38 128 57 
236 58 118 115 
237 54 122 5 
238 63 123 71 
239 60 124 65 
240 45 119 58 
241 28 135 107 
242 130 140 106 
243 112 137 118 
244 21 138 103 
245 37 128 38 
246 5 122 56 
247 70 136 15 
248 125 128 37 
249 68 119 44 
250 110 141 62 
251 103 138 76 
252 116 142 76 
253 7 77 68 
254 77 78 68 
255 6 84 79 
256 76 138 8 
257 25 139 24 
258 43 120 69 
259 17 144 132 
260 107 135 94 
261 73 120 42 
262 41 121 73 
263 62 141 114 
264 77 131 78 
265 79 121 40 
266 70 132 126 
267 120 129 69 
268 69 127 7 
269 127 140 81 
270 110 143 91 
271 118 137 115 
272 81 133 127 
273 114 141 88 
274 61 146 124 
275 7 127 77 
276 126 132 83 
277 129 140 69 
278 97 142 104 
279 57 134 117 
280 69 140 127 
281 83 144 82 
282 115 137 54 
283 132 144 83 
284 78 139 87 
285 119 147 58 
286 131 139 78 
287 58 147 118 
288 77 133 131 
289 84 145 79 
290 127 133 77 
291 80 147 119 
292 85 148 84 
293 24 139 131 
294 106 140 129 
$EndElements
