$MeshFormat
4.1 0 8
$EndMeshFormat
$PhysicalNames
3
1 101 "outer_boundary"
2 1 "material_1"
2 2 "material_2"
$EndPhysicalNames
$Entities
8 8 2 0
1 0 0 0 0 
2 1 0 0 0 
3 0 1 0 0 
4 1 1 0 0 
5 0.7369020669964759 0.3086710280394899 0 0 
6 0.9262930761551953 0.5126942394535995 0 0 
7 0.7222698647410857 0.7020852486123189 0 0 
8 0.5328788555823663 0.4980620371982094 0 0 
1 -9.999999994736442e-08 -1e-07 -1e-07 1.0000001 1e-07 1e-07 1 101 2 1 -2 
2 -1e-07 -9.999999994736442e-08 -1e-07 1e-07 1.0000001 1e-07 1 101 2 3 -1 
3 0.9999999000000001 -9.999999994736442e-08 -1e-07 1.0000001 1.0000001 1e-07 1 101 2 2 -4 
4 -9.999999994736442e-08 0.9999999000000001 -1e-07 1.0000001 1.0000001 1e-07 1 101 2 4 -3 
5 0.7369019669964759 0.3086709280394899 -1e-07 0.9262931761551952 0.5126943394535994 1e-07 0 2 5 -6 
6 0.7222697647410857 0.5126941394535995 -1e-07 0.9262931761551952 0.7020853486123189 1e-07 0 2 6 -7 
7 0.5328787555823663 0.4980619371982094 -1e-07 0.7222699647410856 0.7020853486123189 1e-07 0 2 7 -8 
8 0.5328787555823663 0.3086709280394899 -1e-07 0.7369021669964758 0.4980621371982094 1e-07 0 2 8 -5 
2 0.5328787555823663 0.3086709280394899 -1e-07 0.9262931761551952 0.7020853486123189 1e-07 1 2 4 5 6 7 8 
3 -9.999999994736442e-08 -9.999999994736442e-08 -1e-07 1.0000001 1.0000001 1e-07 1 1 8 1 3 4 2 -5 -8 -7 -6 
$EndEntities
$Nodes
18 264 1 264
0 1 0 1
1
0 0 0
0 2 0 1
2
1 0 0
0 3 0 1
3
0 1 0
0 4 0 1
4
1 1 0
0 5 0 1
5
0.7369020669964759 0.3086710280394899 0
0 6 0 1
6
0.9262930761551953 0.5126942394535995 0
0 7 0 1
7
0.7222698647410857 0.7020852486123189 0
0 8 0 1
8
0.5328788555823663 0.4980620371982094 0
1 1 0 9
9
10
11
12
13
14
15
16
17
0.09999999999999996 0 0
0.1999999999999999 0 0
0.3000000000000001 0 0
0.4000000000000004 0 0
0.5000000000000003 0 0
0.5999999999999999 0 0
0.6999999999999995 0 0
0.7999999999999992 0 0
0.899999999999999 0 0
1 2 0 9
18
19
20
21
22
23
24
25
26
0 0.9 0
0 0.8 0
0 0.7 0
0 0.5999999999999996 0
0 0.4999999999999997 0
0 0.4000000000000001 0
0 0.3000000000000005 0
0 0.2000000000000008 0
0 0.100000000000001 0
1 3 0 9
27
28
29
30
31
32
33
34
35
1 0.09999999999999996 0
1 0.1999999999999999 0
1 0.3000000000000001 0
1 0.4000000000000004 0
1 0.5000000000000003 0
1 0.5999999999999999 0
1 0.6999999999999995 0
1 0.7999999999999992 0
1 0.899999999999999 0
1 4 0 9
36
37
38
39
40
41
42
43
44
0.9 1 0
0.8 1 0
0.7 1 0
0.5999999999999996 1 0
0.4999999999999997 1 0
0.4000000000000001 1 0
0.3000000000000005 1 0
0.2000000000000008 1 0
0.100000000000001 1 0
1 5 0 5
45
46
47
48
49
0.7684672351895958 0.3426748966085081 0
0.8000324033827158 0.3766787651775265 0
0.8315975715758357 0.4106826337465448 0
0.8631627397689557 0.4446865023155632 0
0.8947279079620756 0.4786903708845815 0
1 6 0 5
50
51
52
53
54
0.892289207586177 0.5442594076467194 0
0.8582853390171586 0.5758245758398394 0
0.8242814704481404 0.6073897440329593 0
0.790277601879122 0.6389549122260794 0
0.7562737333101037 0.6705200804191993 0
1 7 0 5
55
56
57
58
59
0.6907046965479657 0.6680813800433006 0
0.6591395283548458 0.6340775114742824 0
0.6275743601617259 0.600073642905264 0
0.5960091919686058 0.5660697743362457 0
0.564444023775486 0.5320659057672275 0
1 8 0 5
60
61
62
63
64
0.5668827241513845 0.4664968690050895 0
0.6008865927204028 0.4349317008119695 0
0.6348904612894212 0.4033665326188495 0
0.6688943298584396 0.3718013644257295 0
0.7028981984274578 0.3402361962326096 0
2 2 0 34
65
66
67
68
69
70
71
72
73
74
75
76
77
78
79
80
81
82
83
84
85
86
87
88
89
90
91
92
93
94
95
96
97
98
0.8138181993531616 0.5625773824521082 0
0.6468285753654953 0.4495793763744885 0
0.6765719897676621 0.5917328470189182 0
0.7823026905256079 0.426122410909343 0
0.8508176486449132 0.4898898683892828 0
0.6081183672796173 0.5223052019966928 0
0.7466912525192988 0.6258102177205948 0
0.7120280268477589 0.3892327098074326 0
0.7800471077345172 0.5938806761099854 0
0.7696048022634226 0.5485891491027934 0
0.8061162009409244 0.509459753024489 0
0.7592746921427381 0.5032625179132483 0
0.7257278365319351 0.533358611120801 0
0.7155700506181938 0.4899524649484658 0
0.6809326517592402 0.5211620561952112 0
0.7470089923515152 0.4597265933700188 0
0.7027919049193754 0.4437665171216509 0
0.8196976242165335 0.4591025532103452 0
0.6469140258887057 0.5520844168515898 0
0.7277879888591675 0.581974781929375 0
0.7035016513016884 0.6251057956192467 0
0.6092334122820176 0.4792011635280576 0
0.7567163323967263 0.3869086168593403 0
0.8491482326432519 0.5324250627058483 0
0.6782603154135247 0.4820450477695594 0
0.673086659656098 0.4115493000696302 0
0.7401695894081967 0.4211513696135571 0
0.6450478913314335 0.5010628771192666 0
0.7838481884578382 0.4731912205375729 0
0.6940132258787695 0.5574825713008164 0
0.7240551173206805 0.6540853822990824 0
0.5808787218956026 0.4998472897778042 0
0.735116814416881 0.3566708943527264 0
0.8782932098419589 0.5109089868740047 0
2 3 0 166
99
100
101
102
103
104
105
106
107
108
109
110
111
112
113
114
115
116
117
118
119
120
121
122
123
124
125
126
127
128
129
130
131
132
133
134
135
136
137
138
139
140
141
142
143
144
145
146
147
148
149
150
151
152
153
154
155
156
157
158
159
160
161
162
163
164
165
166
167
168
169
170
171
172
173
174
175
176
177
178
179
180
181
182
183
184
185
186
187
188
189
190
191
192
193
194
195
196
197
198
199
200
201
202
203
204
205
206
207
208
209
210
211
212
213
214
215
216
217
218
219
220
221
222
223
224
225
226
227
228
229
230
231
232
233
234
235
236
237
238
239
240
241
242
243
244
245
246
247
248
249
250
251
252
253
254
255
256
257
258
259
260
261
262
263
264
0.5185995296535264 0.5442926600624602 0
0.5152972586548594 0.4564978931577868 0
0.6112060773699405 0.6412312177812163 0
0.6243302910024541 0.3591906794409758 0
0.08873881927621941 0.3586221110014434 0
0.08832586193910585 0.6493097040601818 0
0.3427944645130988 0.9165821938171727 0
0.3502323775142279 0.0963218216496311 0
0.6900409293562135 0.2940987459066849 0
0.6820576414871085 0.7187025244944313 0
0.7697476037583695 0.7169674428756733 0
0.7298018270086302 0.2622228635447658 0
0.6763712830638915 0.2435810214735654 0
0.5523785769577002 0.9219216695239294 0
0.8175699720264493 0.3252308753323866 0
0.8561497363052583 0.9168042706414405 0
0.718522058312713 0.2027493075610824 0
0.7782897122314891 0.2263950457006156 0
0.5588585428921673 0.0932810813195814 0
0.4870847187472093 0.5066733482545311 0
0.4686314933583204 0.5572458416807585 0
0.4646528366656238 0.4565405778076693 0
0.4936455788614591 0.4042369336174234 0
0.4333881891156745 0.4063226036331546 0
0.4016962364503048 0.459481433120731 0
0.4662222393709389 0.3507541486919206 0
0.3989279871451717 0.3528528395978699 0
0.4330508857519303 0.2954616514841034 0
0.3631821330308219 0.2957494238526412 0
0.3276030373489114 0.3580612334488679 0
0.2871929770270525 0.2974111010563515 0
0.5020878460446884 0.2943984334927524 0
0.8313762704610255 0.6494831837593658 0
0.5065270847110217 0.5962418124813309 0
0.4514713587234765 0.6120136611986429 0
0.4955103034070818 0.6548570416043691 0
0.434379212886946 0.6722688015326348 0
0.3881362865126811 0.6262578786016417 0
0.3690871024642192 0.6913875959272824 0
0.3203754368296267 0.6400677549899365 0
0.2981220087929932 0.7114840000076865 0
0.4814944408758012 0.7171761998427612 0
0.7261512784331089 0.7481097141458963 0
0.6761374455729769 0.771637003103763 0
0.7226151018296818 0.810948765510044 0
0.468793417900794 0.2365564890391023 0
0.6344621239346876 0.7314720986868746 0
0.1637346344960116 0.9128636927143069 0
0.08660254037844362 0.1500000000000009 0
0.541254120309958 0.2346129743666446 0
0.2516603158524878 0.364876006431237 0
0.3418752369409487 0.5749649435315809 0
0.270475413003354 0.5870868809662027 0
0.294610849862196 0.4226368506744139 0
0.2146168421527087 0.4228867115057144 0
0.6591281633718028 0.1847980174509606 0
0.8832728638836046 0.3955257588336312 0
0.9099429420352469 0.1525533188378931 0
0.7669639654060675 0.1570193288746128 0
0.7821480096320841 0.7691617653990694 0
0.653642020770815 0.8346596134600659 0
0.3504451414591085 0.758200956091613 0
0.2755086079216886 0.7858624450196211 0
0.219301706542819 0.7292640222769513 0
0.2099704880105796 0.2981453619477469 0
0.2534736848976111 0.2225224751866912 0
0.9117121158540989 0.7457053258866002 0
0.5387224288063457 0.7001720009846016 0
0.527609063424696 0.7643889041305588 0
0.4664957070071259 0.782587403722958 0
0.6376572372408709 0.2841449258571712 0
0.7193981739704862 0.8733753657424015 0
0.9133320980745356 0.5946207915425397 0
0.8270607885010784 0.7294589067966877 0
0.6557073215423925 0.07588577005290431 0
0.9428200714449775 0.4517824547899583 0
0.5472174908751002 0.4039126022640354 0
0.783011214535574 0.8323619317316169 0
0.5057765223465901 0.1655389262861862 0
0.4190962960793294 0.1659130178986143 0
0.1930042096064123 0.8135765480543951 0
0.1359062220656257 0.7447635304280071 0
0.6499030441978331 0.9206564120163687 0
0.454050774241351 0.9086278020717683 0
0.2595988305573735 0.8682079321215911 0
0.300133122813696 0.5222861773088535 0
0.2214138700407994 0.5365987562879897 0
0.1912078056596984 0.608013632910527 0
0.135455053774813 0.5457914436880582 0
0.1616242391170876 0.2274993681937136 0
0.2015518314121412 0.1487031924760358 0
0.9136844962022725 0.845050481536463 0
0.5531267225339805 0.6350455003810208 0
0.5755819376957841 0.2930361741551272 0
0.5800338339678874 0.1749554615143998 0
0.8444250246137898 0.7876758192284739 0
0.4566467377627175 0.08367823082890763 0
0.3353095779625155 0.183635602844517 0
0.9133974596215562 0.2500000000000001 0
0.08493165979196576 0.4567883615511508 0
0.9237142259172491 0.3321308366060457 0
0.4336112857052541 0.5100224132973853 0
0.5208279479704808 0.8428080448218949 0
0.5841075698782842 0.8068915775066668 0
0.402742056496268 0.8510786563539844 0
0.8329032507833796 0.1821471987799858 0
0.8214682063077243 0.1068499389087739 0
0.3718042361930445 0.5161540980292938 0
0.9267577425256383 0.6621424428424549 0
0.7415874000550459 0.08055111875149645 0
0.5531136356329418 0.5791058579232093 0
0.5275283020832583 0.3486318613759269 0
0.1749174152259181 0.3629500231292693 0
0.6560122054492991 0.3278789675075358 0
0.08903142931618202 0.8354283843485459 0
0.6456520301700414 0.680989322297916 0
0.2452145842059197 0.6583721475838139 0
0.800611905124583 0.6841857103303561 0
0.8321604410884502 0.2658456926060891 0
0.0800112728439113 0.2614164102560897 0
0.2551880998691904 0.08028053271719782 0
0.5975479111077915 0.3893708782340266 0
0.1455736162740084 0.07820076915513918 0
0.777198542423515 0.2885067336386425 0
0.8711872755195267 0.6308818193800794 0
0.4183080164435868 0.7344634533297292 0
0.3907508576894861 0.2368295350221289 0
0.6116710959416991 0.2358547624696449 0
0.5963421133257002 0.6923712013073909 0
0.368749729230232 0.4089136990928433 0
0.8541427372588214 0.3588688634542754 0
0.4092549829056209 0.5661098060565505 0
0.8684972221954383 0.3105776282927252 0
0.9022978979477951 0.43112860123104 0
0.9463828763631816 0.5503148877285717 0
0.3362190927886398 0.8314624891034599 0
0.1628399115056262 0.6767695138681225 0
0.6944489550415185 0.1398437665652803 0
0.7849303325339312 0.9044191069135592 0
0.8700608189453918 0.6926577292583733 0
0.5882059975334389 0.6043051986653912 0
0.5804147196515791 0.3454528760343026 0
0.8918887354988216 0.07632277533859949 0
0.1704538841902665 0.4811926970360546 0
0.9339668465015061 0.9323709504355806 0
0.8444902193209032 0.8520997329029341 0
0.05995392821329792 0.5499999999999996 0
0.5854406394368735 0.7473741992220516 0
0.3259818461214974 0.247229627592466 0
0.3355207063614474 0.4646360906036123 0
0.07320508075688797 0.9267949192431122 0
0.05736985828833618 0.75 0
0.9304210118387253 0.4021135302921351 0
0.1423424828960185 0.3034902054850072 0
0.06863369195378261 0.06863369195378288 0
0.2500000000000007 0.9456771984901636 0
0.2791511143311373 0.1462927249748145 0
0.5921718319550227 0.8653874634657852 0
0.6147992782079974 0.3219407245990225 0
0.6265525117221917 0.1364897282312375 0
0.4073532854383801 0.7902781241615149 0
0.6267579599187274 0.7784068983958844 0
0.7300610202033984 0.9405934157210766 0
0.2577652216522498 0.4730228577729139 0
0.145369468961811 0.4207898021237569 0
0.4570936930145364 0.8382076733155992 0
$EndNodes
$Elements
6 526 1 526
1 1 1 10
1 1 9 
2 9 10 
3 10 11 
4 11 12 
5 12 13 
6 13 14 
7 14 15 
8 15 16 
9 16 17 
10 17 2 
1 2 1 10
11 3 18 
12 18 19 
13 19 20 
14 20 21 
15 21 22 
16 22 23 
17 23 24 
18 24 25 
19 25 26 
20 26 1 
1 3 1 10
21 2 27 
22 27 28 
23 28 29 
24 29 30 
25 30 31 
26 31 32 
27 32 33 
28 33 34 
29 34 35 
30 35 4 
1 4 1 10
31 4 36 
32 36 37 
33 37 38 
34 38 39 
35 39 40 
36 40 41 
37 41 42 
38 42 43 
39 43 44 
40 44 3 
2 2 2 90
41 75 82 69 
42 84 85 67 
43 75 93 82 
44 67 94 84 
45 81 90 72 
46 66 90 81 
47 81 89 66 
48 72 91 81 
49 66 92 86 
50 89 92 66 
51 71 85 84 
52 68 93 80 
53 79 94 83 
54 69 88 75 
55 80 91 68 
56 83 92 79 
57 83 94 67 
58 82 93 68 
59 53 73 52 
60 59 70 58 
61 74 84 77 
62 74 75 65 
63 74 76 75 
64 54 71 53 
65 52 73 65 
66 62 66 61 
67 58 83 57 
68 73 74 65 
69 74 77 76 
70 77 79 78 
71 78 81 80 
72 69 82 48 
73 52 65 51 
74 71 73 53 
75 48 82 47 
76 64 72 63 
77 47 68 46 
78 57 67 56 
79 71 84 73 
80 77 78 76 
81 78 80 76 
82 47 82 68 
83 57 83 67 
84 49 69 48 
85 70 83 58 
86 73 84 74 
87 70 92 83 
88 51 88 50 
89 56 85 55 
90 46 87 45 
91 75 88 65 
92 61 86 60 
93 68 91 87 
94 78 89 81 
95 62 90 66 
96 72 90 63 
97 67 85 56 
98 66 86 61 
99 65 88 51 
100 68 87 46 
101 84 94 77 
102 76 93 75 
103 7 95 54 
104 50 98 6 
105 6 98 49 
106 5 97 64 
107 45 97 5 
108 8 96 59 
109 55 95 7 
110 60 96 8 
111 63 90 62 
112 79 89 78 
113 86 92 70 
114 81 91 80 
115 87 91 72 
116 77 94 79 
117 80 93 76 
118 88 98 50 
119 87 97 45 
120 85 95 55 
121 86 96 60 
122 54 95 71 
123 59 96 70 
124 64 97 72 
125 49 98 69 
126 79 92 89 
127 72 97 87 
128 69 98 88 
129 70 96 86 
130 71 95 85 
2 3 2 396
131 104 187 186 
132 60 175 61 
133 106 195 178 
134 232 251 174 
135 148 226 192 
136 192 226 169 
137 27 241 2 
138 31 233 6 
139 178 196 106 
140 2 241 17 
141 197 204 156 
142 32 207 171 
143 19 213 18 
144 197 217 204 
145 113 222 217 
146 186 235 104 
147 177 195 117 
148 171 233 32 
149 100 175 60 
150 179 183 146 
151 8 118 100 
152 155 229 199 
153 101 227 191 
154 16 241 205 
155 121 210 175 
156 182 201 112 
157 31 174 30 
158 147 189 188 
159 118 120 100 
160 124 210 121 
161 213 249 18 
162 117 193 177 
163 32 233 31 
164 116 222 110 
165 187 245 198 
166 104 245 187 
167 198 242 187 
168 217 222 116 
169 28 197 156 
170 178 195 177 
171 112 181 39 
172 219 221 10 
173 105 182 41 
174 172 238 165 
175 12 195 106 
176 118 200 120 
177 7 141 108 
178 188 218 147 
179 30 251 199 
180 182 264 201 
181 39 181 38 
182 189 221 219 
183 165 194 172 
184 110 222 5 
185 175 240 220 
186 217 231 113 
187 105 203 182 
188 196 255 106 
189 6 174 31 
190 147 221 189 
191 191 227 166 
192 147 218 25 
193 190 194 165 
194 15 208 173 
195 229 231 199 
196 183 254 146 
197 204 205 156 
198 17 241 16 
199 14 173 117 
200 120 200 123 
201 205 208 16 
202 175 220 61 
203 193 226 148 
204 29 197 28 
205 208 236 173 
206 141 142 108 
207 174 251 30 
208 40 182 112 
209 180 250 104 
210 34 165 33 
211 156 241 27 
212 40 112 39 
213 207 223 171 
214 37 114 36 
215 14 117 13 
216 34 190 165 
217 117 258 193 
218 146 213 179 
219 148 192 130 
220 106 255 219 
221 145 214 108 
222 28 156 27 
223 210 240 175 
224 134 191 166 
225 104 235 180 
226 103 198 23 
227 206 230 150 
228 130 210 124 
229 117 195 13 
230 42 105 41 
231 12 106 11 
232 33 207 32 
233 169 257 192 
234 30 199 29 
235 15 173 14 
236 158 176 143 
237 105 254 183 
238 29 199 197 
239 178 225 196 
240 21 104 20 
241 24 103 23 
242 131 238 216 
243 141 158 143 
244 41 182 40 
245 19 250 213 
246 223 238 131 
247 145 227 214 
248 200 230 206 
249 165 207 33 
250 199 251 155 
251 23 198 22 
252 184 206 150 
253 35 190 34 
254 132 191 134 
255 183 234 105 
256 173 258 117 
257 13 195 12 
258 132 209 191 
259 198 245 22 
260 145 260 246 
261 36 243 4 
262 44 146 43 
263 26 147 25 
264 112 256 181 
265 128 152 149 
266 37 237 114 
267 16 208 15 
268 134 166 140 
269 181 261 38 
270 143 176 170 
271 158 194 176 
272 21 245 104 
273 121 175 100 
274 192 210 130 
275 42 254 105 
276 191 239 101 
277 184 262 248 
278 154 226 193 
279 128 228 152 
280 126 130 124 
281 196 247 164 
282 4 243 35 
283 120 121 100 
284 104 250 20 
285 167 202 201 
286 138 150 136 
287 216 238 172 
288 207 238 223 
289 242 262 185 
290 205 241 156 
291 144 148 130 
292 248 262 152 
293 142 145 108 
294 184 248 206 
295 190 244 194 
296 11 219 10 
297 25 218 24 
298 177 193 148 
299 151 184 150 
300 202 256 201 
301 152 153 149 
302 204 217 116 
303 246 260 202 
304 176 244 237 
305 153 262 242 
306 166 167 140 
307 106 219 11 
308 10 221 9 
309 150 230 136 
310 128 149 129 
311 125 128 127 
312 59 99 8 
313 24 218 103 
314 146 254 43 
315 201 256 112 
316 161 183 179 
317 200 206 123 
318 138 151 150 
319 167 246 202 
320 103 263 198 
321 188 189 164 
322 8 100 60 
323 179 180 162 
324 114 244 190 
325 161 162 139 
326 164 255 196 
327 123 228 122 
328 151 185 184 
329 151 186 185 
330 126 144 130 
331 135 136 133 
332 137 160 139 
333 58 209 59 
334 62 102 63 
335 199 231 197 
336 163 164 129 
337 137 138 136 
338 163 188 164 
339 209 239 191 
340 56 101 57 
341 63 212 64 
342 161 179 162 
343 149 163 129 
344 153 211 149 
345 122 228 125 
346 3 249 44 
347 18 249 3 
348 55 214 56 
349 64 107 5 
350 159 256 202 
351 160 161 139 
352 61 220 62 
353 107 169 111 
354 132 134 133 
355 186 187 185 
356 128 129 127 
357 215 235 186 
358 144 177 148 
359 179 213 180 
360 197 231 217 
361 7 108 55 
362 134 140 135 
363 167 201 168 
364 144 178 177 
365 162 235 215 
366 211 263 103 
367 114 243 36 
368 120 123 122 
369 99 132 119 
370 236 258 173 
371 149 211 163 
372 135 137 136 
373 125 126 124 
374 137 139 138 
375 167 168 140 
376 134 135 133 
377 125 127 126 
378 202 260 159 
379 120 122 121 
380 54 109 7 
381 133 230 119 
382 99 118 8 
383 176 237 170 
384 122 124 121 
385 141 143 142 
386 157 208 205 
387 37 261 237 
388 138 215 151 
389 109 172 158 
390 213 250 180 
391 190 243 114 
392 119 230 200 
393 122 125 124 
394 162 215 139 
395 132 133 119 
396 161 234 183 
397 151 215 186 
398 59 209 99 
399 125 228 128 
400 137 224 160 
401 53 216 54 
402 154 258 236 
403 45 113 46 
404 157 204 116 
405 139 215 138 
406 160 259 234 
407 237 244 114 
408 5 222 45 
409 126 225 144 
410 143 159 142 
411 127 225 126 
412 115 116 110 
413 1 253 26 
414 9 253 1 
415 107 110 5 
416 105 234 203 
417 99 119 118 
418 119 200 118 
419 62 220 102 
420 193 258 154 
421 52 131 53 
422 102 212 63 
423 107 212 169 
424 170 181 159 
425 136 230 133 
426 111 154 115 
427 144 225 178 
428 146 249 213 
429 157 205 204 
430 99 209 132 
431 169 226 111 
432 35 243 190 
433 170 261 181 
434 56 214 101 
435 168 224 140 
436 228 248 152 
437 64 212 107 
438 111 115 110 
439 143 170 159 
440 140 224 135 
441 165 238 207 
442 57 239 58 
443 194 244 176 
444 107 111 110 
445 38 261 37 
446 164 247 129 
447 234 259 203 
448 46 229 47 
449 225 247 196 
450 108 214 55 
451 135 224 137 
452 180 235 162 
453 214 227 101 
454 157 236 208 
455 58 239 209 
456 115 157 116 
457 109 158 141 
458 101 239 57 
459 188 252 218 
460 109 141 7 
461 163 252 188 
462 206 248 123 
463 172 194 158 
464 51 223 52 
465 111 226 154 
466 123 248 228 
467 181 256 159 
468 160 234 161 
469 203 264 182 
470 47 155 48 
471 22 245 21 
472 48 232 49 
473 26 253 147 
474 49 174 6 
475 44 249 146 
476 54 216 109 
477 20 250 19 
478 50 171 51 
479 113 231 229 
480 185 262 184 
481 109 216 172 
482 6 233 50 
483 127 247 225 
484 43 254 42 
485 198 263 242 
486 187 242 185 
487 166 246 167 
488 192 240 210 
489 154 236 115 
490 45 222 113 
491 131 216 53 
492 219 255 189 
493 115 236 157 
494 220 240 102 
495 103 252 211 
496 189 255 164 
497 218 252 103 
498 145 246 227 
499 152 262 153 
500 153 263 211 
501 129 247 127 
502 113 229 46 
503 147 253 221 
504 159 260 142 
505 102 257 212 
506 52 223 131 
507 211 252 163 
508 221 253 9 
509 47 229 155 
510 227 246 166 
511 224 259 160 
512 242 263 153 
513 212 257 169 
514 142 260 145 
515 155 232 48 
516 201 264 168 
517 168 264 259 
518 171 223 51 
519 49 232 174 
520 168 259 224 
521 50 233 171 
522 259 264 203 
523 240 257 102 
524 237 261 170 
525 192 257 240 
526 155 251 232 
$EndElements
