$MeshFormat
4.1 0 8
$EndMeshFormat
$PhysicalNames
3
1 101 "outer_boundary"
2 1 "material_1"
2 2 "material_2"
$EndPhysicalNames
$Entities
5 5 2 0
1 0 0 0 0 
2 1 0 0 0 
3 0 1 0 0 
4 1 1 0 0 
5 0.4731060252258265 0.1748552114083107 0 0 
1 -9.999999994736442e-08 -1e-07 -1e-07 1.0000001 1e-07 1e-07 1 101 2 1 -2 
2 -1e-07 -9.999999994736442e-08 -1e-07 1e-07 1.0000001 1e-07 1 101 2 3 -1 
3 0.9999999000000001 -9.999999994736442e-08 -1e-07 1.0000001 1.0000001 1e-07 1 101 2 2 -4 
4 -9.999999994736442e-08 0.9999999000000001 -1e-07 1.0000001 1.0000001 1e-07 1 101 2 4 -3 
5 0.2659947798274396 0.07129953870911729 -1e-07 0.4731061252258265 0.2784108841075041 1e-07 0 2 5 -5 
2 0.2659947798274396 0.07129953870911729 -1e-07 0.4731061252258265 0.2784108841075041 1e-07 1 2 1 5 
3 -9.999999994736442e-08 -9.999999994736442e-08 -1e-07 1.0000001 1.0000001 1e-07 1 1 5 1 3 4 2 -5 
$EndEntities
$Nodes
12 138 1 138
0 1 0 1
1
0 0 0
0 2 0 1
2
1 0 0
0 3 0 1
3
0 1 0
0 4 0 1
4
1 1 0
0 5 0 1
5
0.4731060252258265 0.1748552114083107 0
1 1 0 7
6
7
8
9
10
11
12
0.1249999999999999 0 0
0.2499999999999998 0 0
0.3749999999999993 0 0
0.4999999999999988 0 0
0.6249999999999988 0 0
0.7499999999999991 0 0
0.8749999999999997 0 0
1 2 0 7
13
14
15
16
17
18
19
0 0.8750000000000001 0
0 0.7500000000000002 0
0 0.6250000000000007 0
0 0.5000000000000012 0
0 0.3750000000000012 0
0 0.2500000000000009 0
0 0.1250000000000003 0
1 3 0 7
20
21
22
23
24
25
26
1 0.1249999999999999 0
1 0.2499999999999998 0
1 0.3749999999999993 0
1 0.4999999999999988 0
1 0.6249999999999988 0
1 0.7499999999999991 0
1 0.8749999999999997 0
1 4 0 7
27
28
29
30
31
32
33
0.8750000000000001 1 0
0.7500000000000002 1 0
0.6250000000000007 1 0
0.5000000000000012 1 0
0.3750000000000012 1 0
0.2500000000000009 1 0
0.1250000000000003 1 0
1 5 0 9
34
35
36
37
38
39
40
41
42
0.4533286707025108 0.2357236498335977 0
0.4015508843529141 0.2733424136225551 0
0.3375500207003519 0.2733424136225551 0
0.2857722343507553 0.2357236498335977 0
0.2659948798274396 0.1748552114083109 0
0.285772234350755 0.1139867729830241 0
0.3375500207003514 0.07636800919406649 0
0.4015508843529135 0.0763680091940661 0
0.4533286707025105 0.1139867729830233 0
2 2 0 5
43
44
45
46
47
0.3476467888869302 0.139017481310859 0
0.3934808891085742 0.2018574954338806 0
0.3208086367580453 0.1864604834721206 0
0.4110723380688672 0.1436359515282299 0
0.3506374632982626 0.2274997633959081 0
2 3 0 91
48
49
50
51
52
53
54
55
56
57
58
59
60
61
62
63
64
65
66
67
68
69
70
71
72
73
74
75
76
77
78
79
80
81
82
83
84
85
86
87
88
89
90
91
92
93
94
95
96
97
98
99
100
101
102
103
104
105
106
107
108
109
110
111
112
113
114
115
116
117
118
119
120
121
122
123
124
125
126
127
128
129
130
131
132
133
134
135
136
137
138
0.5586742415487131 0.892745601649042 0
0.8917468245269456 0.4374999999999991 0
0.1076099683739156 0.5747434785935585 0
0.3125000000000011 0.8917468245269451 0
0.9008034484357814 0.6857557598187184 0
0.6960147225583626 0.1041527457987378 0
0.0867821226454929 0.3200668336135893 0
0.8807535254511247 0.1863549736169154 0
0.2146293960634407 0.1390381712241954 0
0.1136158379948082 0.7999567161313812 0
0.809229122321848 0.9024875114622417 0
0.2223241430258567 0.2142435266957552 0
0.2472853591890375 0.2863613246326563 0
0.2997958292213134 0.3437724223427608 0
0.2252230098197467 0.3563466801434057 0
0.2808373329882518 0.4196838858233803 0
0.3504108998056735 0.3932299412275796 0
0.34070171388778 0.4769785551626211 0
0.4245311776165713 0.4349210214090528 0
0.4047484236575613 0.538029358046853 0
0.4926394111918782 0.5082192873742137 0
0.5161590773678224 0.4225960264013476 0
0.5882364803091906 0.4757524112424972 0
0.5654817048733546 0.5755614266814172 0
0.5989890937266631 0.373204622632846 0
0.515930961929156 0.2224171220577966 0
0.6657400288419488 0.5383633904084438 0
0.6415181323661918 0.6519709812196086 0
0.3164926434781586 0.5658617763264794 0
0.3828431481131559 0.6327703395009647 0
0.288670007805982 0.6606941079720944 0
0.5404130294415486 0.6844345601712682 0
0.5410821609882775 0.1566965801572023 0
0.5898486703258889 0.2151804528665225 0
0.4738406374904564 0.2995241821978614 0
0.1550968691574933 0.1841137892264133 0
0.3633404698710619 0.7325403084213137 0
0.1986601970466136 0.4308532476298837 0
0.722939369517872 0.6090929450239989 0
0.7240593679321774 0.7148480894626672 0
0.2613908925606026 0.7842142442997281 0
0.1832229372929586 0.6853689397524719 0
0.7811175669071473 0.5090810852929947 0
0.5506664304292164 0.2946994941206219 0
0.8932033879525902 0.309977158142336 0
0.7881601850385589 0.2610789484329894 0
0.7934602443770823 0.3726076332399461 0
0.6994169843946633 0.3205500012563167 0
0.899881329682689 0.5648080097447826 0
0.4366071920450613 0.8998689731228304 0
0.4768503348999849 0.7886615427285257 0
0.6240157637285354 0.7761031368800363 0
0.6777336398882545 0.8848404255151237 0
0.8129131204272806 0.09267054512771988 0
0.6878267330927825 0.4315931906788407 0
0.1028983267593672 0.4415270571432885 0
0.4066878038846208 0.3404807518733477 0
0.216600799533655 0.5873713383929742 0
0.6878945272066113 0.2148203467711892 0
0.1923355135835871 0.8974019056686575 0
0.8831369928206938 0.8117006110103417 0
0.4726413278374738 0.6063083037406424 0
0.2547440067230694 0.5000276462409518 0
0.602662342893727 0.09776176981309215 0
0.14069360339036 0.099871901261395 0
0.447217662032645 0.688943010912543 0
0.6229714758716649 0.2858783783279165 0
0.1699960756270889 0.2807003569168103 0
0.09757597353566821 0.2380382496855356 0
0.08096403377869621 0.6875000000000004 0
0.7488616000228772 0.8152207574140187 0
0.4704241971874615 0.3715869622988438 0
0.524053899660655 0.07840088854835986 0
0.8164963094875579 0.7318072862125464 0
0.9084936490538904 0.09150635094610948 0
0.3747572317498228 0.8239069683278245 0
0.09150635094610954 0.9084936490538905 0
0.9084936490538905 0.9084936490538904 0
0.352693310293178 0.3269156980454614 0
0.07595417722452391 0.1599206566955576 0
0.1761026596873241 0.5069045536001313 0
0.4507866909432154 0.05375113414508986 0
0.2918788385320886 0.04972479212479741 0
0.06235861726362157 0.06250000000000011 0
0.8190346524758749 0.6331102108918372 0
0.217995678722774 0.06710360626556866 0
0.6301983887967973 0.1528063824104536 0
0.1567119463796618 0.3658988350893955 0
0.5245548593367562 0.35463384955382 0
0.7731472161363877 0.1718155119495104 0
0.4955979672301149 0.137001083490686 0
$EndNodes
$Elements
6 274 1 274
1 1 1 8
1 1 6 
2 6 7 
3 7 8 
4 8 9 
5 9 10 
6 10 11 
7 11 12 
8 12 2 
1 2 1 8
9 3 13 
10 13 14 
11 14 15 
12 15 16 
13 16 17 
14 17 18 
15 18 19 
16 19 1 
1 3 1 8
17 2 20 
18 20 21 
19 21 22 
20 22 23 
21 23 24 
22 24 25 
23 25 26 
24 26 4 
1 4 1 8
25 4 27 
26 27 28 
27 28 29 
28 29 30 
29 30 31 
30 31 32 
31 32 33 
32 33 3 
2 2 2 18
33 44 45 43 
34 44 46 5 
35 41 46 43 
36 43 46 44 
37 34 44 5 
38 41 43 40 
39 43 45 39 
40 39 45 38 
41 44 47 45 
42 5 46 42 
43 42 46 41 
44 35 44 34 
45 40 43 39 
46 36 47 35 
47 35 47 44 
48 37 47 36 
49 38 45 37 
50 45 47 37 
2 3 2 224
51 90 94 49 
52 57 89 88 
53 36 60 37 
54 40 130 8 
55 88 107 57 
56 70 102 74 
57 36 61 60 
58 75 99 79 
59 49 96 90 
60 73 82 34 
61 104 119 66 
62 84 113 98 
63 64 104 66 
64 103 128 50 
65 16 103 50 
66 87 99 75 
67 98 123 84 
68 72 102 70 
69 51 107 88 
70 24 96 23 
71 8 130 7 
72 50 105 89 
73 38 59 56 
74 52 96 24 
75 40 8 41 
76 89 117 50 
77 9 129 8 
78 73 91 82 
79 23 96 49 
80 90 102 94 
81 74 102 90 
82 79 99 98 
83 90 132 86 
84 57 117 89 
85 8 129 41 
86 96 132 90 
87 85 128 103 
88 95 102 72 
89 94 95 93 
90 62 115 60 
91 49 94 92 
92 28 100 58 
93 92 94 93 
94 72 114 95 
95 49 92 22 
96 87 118 99 
97 18 54 17 
98 59 83 56 
99 88 123 51 
100 111 120 10 
101 11 53 10 
102 118 121 108 
103 29 100 28 
104 97 98 48 
105 92 93 55 
106 30 97 48 
107 81 91 73 
108 106 114 81 
109 62 135 115 
110 91 114 72 
111 58 118 108 
112 16 50 15 
113 11 101 53 
114 23 49 22 
115 59 115 83 
116 21 92 55 
117 99 118 100 
118 86 132 87 
119 30 48 29 
120 72 136 91 
121 98 99 48 
122 48 100 29 
123 51 97 31 
124 22 92 21 
125 21 55 20 
126 87 132 121 
127 54 103 17 
128 10 120 9 
129 31 97 30 
130 94 102 95 
131 32 51 31 
132 50 117 15 
133 25 52 24 
134 17 103 16 
135 14 57 13 
136 28 58 27 
137 84 123 88 
138 95 106 93 
139 97 123 98 
140 12 101 11 
141 66 119 69 
142 91 136 82 
143 93 137 55 
144 66 69 68 
145 61 64 63 
146 82 136 119 
147 99 100 48 
148 33 107 32 
149 81 114 91 
150 74 90 86 
151 26 108 25 
152 18 116 54 
153 75 79 71 
154 53 111 10 
155 52 132 96 
156 98 113 79 
157 32 107 51 
158 95 114 106 
159 78 105 76 
160 25 108 52 
161 69 72 70 
162 69 70 68 
163 14 117 57 
164 79 109 71 
165 35 126 36 
166 88 89 78 
167 61 63 62 
168 61 62 60 
169 86 87 75 
170 100 118 58 
171 89 105 78 
172 56 133 39 
173 55 137 101 
174 74 86 75 
175 74 75 71 
176 70 74 71 
177 70 71 68 
178 66 68 67 
179 36 126 61 
180 77 84 78 
181 64 66 65 
182 2 122 12 
183 20 122 2 
184 66 67 65 
185 84 88 78 
186 64 65 63 
187 34 82 35 
188 3 124 33 
189 13 124 3 
190 4 125 26 
191 27 125 4 
192 77 78 76 
193 67 77 76 
194 67 76 65 
195 81 134 106 
196 105 110 76 
197 80 120 111 
198 19 127 18 
199 18 127 116 
200 37 59 38 
201 5 73 34 
202 67 109 77 
203 68 109 67 
204 71 109 68 
205 39 133 130 
206 63 85 62 
207 111 134 80 
208 7 133 6 
209 79 113 109 
210 115 116 83 
211 82 104 35 
212 104 126 35 
213 5 80 73 
214 101 137 53 
215 103 135 85 
216 65 110 63 
217 109 113 77 
218 80 138 120 
219 37 60 59 
220 80 134 81 
221 38 56 39 
222 61 126 64 
223 12 122 101 
224 63 110 85 
225 77 113 84 
226 76 110 65 
227 83 112 56 
228 51 123 97 
229 101 122 55 
230 15 117 14 
231 120 138 42 
232 50 128 105 
233 55 122 20 
234 53 137 106 
235 80 81 73 
236 115 135 54 
237 54 135 103 
238 33 124 107 
239 26 125 108 
240 60 115 59 
241 1 131 19 
242 6 131 1 
243 85 135 62 
244 57 124 13 
245 58 125 27 
246 106 134 53 
247 69 136 72 
248 105 128 110 
249 64 126 104 
250 108 121 52 
251 41 129 42 
252 107 124 57 
253 83 127 112 
254 108 125 58 
255 82 119 104 
256 39 130 40 
257 110 128 85 
258 42 129 120 
259 5 138 80 
260 121 132 52 
261 127 131 112 
262 42 138 5 
263 106 137 93 
264 6 133 112 
265 87 121 118 
266 116 127 83 
267 53 134 111 
268 54 116 115 
269 112 133 56 
270 112 131 6 
271 19 131 127 
272 119 136 69 
273 120 129 9 
274 130 133 7 
$EndElements
