$MeshFormat
4.1 0 8
$EndMeshFormat
$PhysicalNames
3
1 101 "outer_boundary"
2 1 "material_1"
2 2 "material_2"
$EndPhysicalNames
$Entities
8 8 2 0
1 0 0 0 0 
2 1 0 0 0 
3 0 1 0 0 
4 1 1 0 0 
5 0.5664415940179659 0.2588208377518965 0 0 
6 0.4769769755253214 0.4507927017209591 0 0 
7 0.2850051115562588 0.3613280832283146 0 0 
8 0.3744697300489033 0.169356219259252 0 0 
1 -9.999999994736442e-08 -1e-07 -1e-07 1.0000001 1e-07 1e-07 1 101 2 1 -2 
2 -1e-07 -9.999999994736442e-08 -1e-07 1e-07 1.0000001 1e-07 1 101 2 3 -1 
3 0.9999999000000001 -9.999999994736442e-08 -1e-07 1.0000001 1.0000001 1e-07 1 101 2 2 -4 
4 -9.999999994736442e-08 0.9999999000000001 -1e-07 1.0000001 1.0000001 1e-07 1 101 2 4 -3 
5 0.4769768755253214 0.2588207377518965 -1e-07 0.5664416940179658 0.4507928017209591 1e-07 0 2 5 -6 
6 0.2850050115562588 0.3613279832283146 -1e-07 0.4769770755253214 0.4507928017209591 1e-07 0 2 6 -7 
7 0.2850050115562588 0.169356119259252 -1e-07 0.3744698300489033 0.3613281832283146 1e-07 0 2 7 -8 
8 0.3744696300489033 0.169356119259252 -1e-07 0.5664416940179658 0.2588209377518965 1e-07 0 2 8 -5 
2 0.2850050115562588 0.169356119259252 -1e-07 0.5664416940179658 0.4507928017209591 1e-07 1 2 4 5 6 7 8 
3 -9.999999994736442e-08 -9.999999994736442e-08 -1e-07 1.0000001 1.0000001 1e-07 1 1 8 1 3 4 2 -5 -8 -7 -6 
$EndEntities
$Nodes
18 180 1 180
0 1 0 1
1
0 0 0
0 2 0 1
2
1 0 0
0 3 0 1
3
0 1 0
0 4 0 1
4
1 1 0
0 5 0 1
5
0.5664415940179659 0.2588208377518965 0
0 6 0 1
6
0.4769769755253214 0.4507927017209591 0
0 7 0 1
7
0.2850051115562588 0.3613280832283146 0
0 8 0 1
8
0.3744697300489033 0.169356219259252 0
1 1 0 7
9
10
11
12
13
14
15
0.1249999999999999 0 0
0.2499999999999998 0 0
0.3749999999999993 0 0
0.4999999999999988 0 0
0.6249999999999988 0 0
0.7499999999999991 0 0
0.8749999999999997 0 0
1 2 0 7
16
17
18
19
20
21
22
0 0.8750000000000001 0
0 0.7500000000000002 0
0 0.6250000000000007 0
0 0.5000000000000012 0
0 0.3750000000000012 0
0 0.2500000000000009 0
0 0.1250000000000003 0
1 3 0 7
23
24
25
26
27
28
29
1 0.1249999999999999 0
1 0.2499999999999998 0
1 0.3749999999999993 0
1 0.4999999999999988 0
1 0.6249999999999988 0
1 0.7499999999999991 0
1 0.8749999999999997 0
1 4 0 7
30
31
32
33
34
35
36
0.8750000000000001 1 0
0.7500000000000002 1 0
0.6250000000000007 1 0
0.5000000000000012 1 0
0.3750000000000012 1 0
0.2500000000000009 1 0
0.1250000000000003 1 0
1 5 0 3
37
38
39
0.5440754393948047 0.3068138037441623 0
0.5217092847716436 0.3548067697364281 0
0.4993431301484824 0.4027997357286938 0
1 6 0 3
40
41
42
0.4289840095330556 0.4284265470977979 0
0.3809910435407898 0.4060603924746368 0
0.3329980775485242 0.3836942378514756 0
1 7 0 3
43
44
45
0.30737126617942 0.3133351172360488 0
0.3297374208025812 0.265342151243783 0
0.3521035754257423 0.2173491852515174 0
1 8 0 3
46
47
48
0.4224626960411691 0.1917223738824131 0
0.4704556620334349 0.2140885285055744 0
0.5184486280257006 0.2364546831287355 0
2 2 0 14
49
50
51
52
53
54
55
56
57
58
59
60
61
62
0.3585129660837455 0.3105090799523381 0
0.4831076201065224 0.3100391402760256 0
0.4294076746195121 0.2398107222031297 0
0.4238042783291583 0.3766994238167871 0
0.3753604931943994 0.357189167186085 0
0.4184485157974194 0.3228516802077638 0
0.388335365432851 0.2660145026324347 0
0.4755437125051102 0.260558344844405 0
0.4685755305416931 0.360118455687954 0
0.438968577692283 0.2798548780327518 0
0.5175233988100207 0.274537361949045 0
0.458216847567153 0.3992862506545998 0
0.3365115626226182 0.3425679552701462 0
0.3932298580070717 0.2208626703256113 0
2 3 0 118
63
64
65
66
67
68
69
70
71
72
73
74
75
76
77
78
79
80
81
82
83
84
85
86
87
88
89
90
91
92
93
94
95
96
97
98
99
100
101
102
103
104
105
106
107
108
109
110
111
112
113
114
115
116
117
118
119
120
121
122
123
124
125
126
127
128
129
130
131
132
133
134
135
136
137
138
139
140
141
142
143
144
145
146
147
148
149
150
151
152
153
154
155
156
157
158
159
160
161
162
163
164
165
166
167
168
169
170
171
172
173
174
175
176
177
178
179
180
0.4336108344405603 0.4811727521616432 0
0.4833582600446392 0.5063878655342876 0
0.5554281657110706 0.4038760350093973 0
0.4297650124161377 0.5417554191123007 0
0.2900287765173972 0.4183544689503167 0
0.4908685149232676 0.5692466887384074 0
0.436600252570616 0.6070446609883994 0
0.5004347962736644 0.6371400450630296 0
0.5589512102148517 0.5946238019924933 0
0.5968216444586499 0.3021869788366577 0
0.369235153904935 0.5794160254908909 0
0.3749987122752226 0.6514478191627928 0
0.5702474987103212 0.6703786049327249 0
0.2946939648146839 0.2111431826261265 0
0.2494853580083461 0.3251030442344384 0
0.6359183122742417 0.6252569882272718 0
0.6172894656638459 0.2485887728127179 0
0.6602641531729885 0.3008199362895309 0
0.2904695186558286 0.6069642807850009 0
0.3039995240420181 0.6981067417630938 0
0.6491391325652842 0.7091563203882545 0
0.6884285437955251 0.2358946663106715 0
0.5066067143876316 0.719326551447665 0
0.887441544510432 0.4379244373959268 0
0.7218346435816944 0.6566930962642591 0
0.2382329842687848 0.38937710617608 0
0.2403451471780114 0.4572978443972296 0
0.7356725680519474 0.7503777994236539 0
0.6194522579146204 0.5312145101629033 0
0.5669700998209423 0.2104043957828422 0
0.7353015202850469 0.3003698221938579 0
0.6887050680288487 0.3700928384179203 0
0.7700885329248054 0.2264443793011474 0
0.1247582116390821 0.8147644870857508 0
0.2251112910622775 0.6667037806862203 0
0.1807044053774233 0.3485327563681503 0
0.200204645607171 0.2717033892807578 0
0.4670240924725181 0.1587775620794225 0
0.3125000000000011 0.8917468245269451 0
0.5638973576675999 0.8824124706864105 0
0.8130195130341851 0.6820764654933333 0
0.8084230163801465 0.292730917953264 0
0.829721879695255 0.7811949545659258 0
0.7905731580377309 0.5872071294651995 0
0.1986467043251235 0.1108031957322692 0
0.2993744119551802 0.4833976710973081 0
0.5300894542253034 0.4659315163414655 0
0.3814332426905254 0.733653096544953 0
0.7168288434674249 0.1602474056431062 0
0.5913217068215327 0.4512985654479011 0
0.1720041283427964 0.4262325770960245 0
0.1757364602785764 0.5087349552983227 0
0.8142706347847306 0.162791048443893 0
0.2196149856832357 0.7482688445834669 0
0.2997397339528055 0.09497506863623689 0
0.7449543628689262 0.8574564291058137 0
0.1026827913941223 0.3062812035096529 0
0.1235425519565807 0.6818401548682613 0
0.4397807008304773 0.9020138142286478 0
0.1388614563425346 0.2106785249975995 0
0.5521601449178705 0.07864649448424621 0
0.6154251301183504 0.3940069639237383 0
0.660751893893756 0.4511166774544354 0
0.7440475115102212 0.4415096088041309 0
0.6319746296558648 0.1831648377118524 0
0.225252625372783 0.1969656903425711 0
0.7226697893918701 0.5160917652125808 0
0.1926522234236392 0.9077190445850086 0
0.09859459090607892 0.5621584365449326 0
0.6548888917007272 0.09398048945876286 0
0.90123276075447 0.5460698764965682 0
0.3877738087177557 0.4533741025713203 0
0.6553841717039728 0.8094128371794547 0
0.5744554898354889 0.3501799448289235 0
0.4965737393860126 0.8172982205983235 0
0.3791081294972432 0.08695160333127627 0
0.3376249024560288 0.4364404429153207 0
0.2677908801308309 0.2639320958272876 0
0.3217235249850582 0.1739830441667564 0
0.9102829784685709 0.200057166131176 0
0.09722370994901636 0.4721902369568359 0
0.1105230070126717 0.385647354786133 0
0.3118138134313867 0.7867887955408173 0
0.513821803118196 0.1837084780648904 0
0.8413668454949532 0.8986406911121704 0
0.4146586932567375 0.1385807699479735 0
0.4636708308369689 0.09115005043152552 0
0.7953934741235185 0.3744350042512457 0
0.36638958704518 0.5038045302907356 0
0.5355066165758817 0.5302578913324636 0
0.5736414357368037 0.7679975008721388 0
0.4418837414717101 0.6853866077938291 0
0.2513888911242598 0.5321092204017333 0
0.659311344674645 0.9061167356247914 0
0.8924827005992763 0.3080728913244059 0
0.9066999592981059 0.7120502741171096 0
0.09467048824075192 0.1269325143832951 0
0.1950648232523 0.5851852721461737 0
0.8917681318753079 0.09505962309374816 0
0.8067881779295019 0.4941188759594246 0
0.3988883711618339 0.8158680374993036 0
0.0986130818169188 0.907858901454671 0
0.9199393666958479 0.820654720004968 0
0.3476720097912629 0.127492436512171 0
0.3153715125370767 0.5411383456131338 0
0.6271342971228653 0.3434573324593541 0
0.7837927503046982 0.08534642777325174 0
0.2450420470858318 0.8319440544426856 0
0.6965345584199896 0.5863971069303087 0
0.2671187979447562 0.1532440247040379 0
0.4496274267974644 0.7612603237281153 0
0.572096766665828 0.4969158235935114 0
0.9266137282465281 0.9266137282465279 0
0.8410319492260088 0.234688832890335 0
0.8823050782248983 0.630480749114442 0
0.5101913416420707 0.1302679463269146 0
0.5716678184759452 0.1466954403049181 0
0.8084176770184184 0.436996981602682 0
$EndNodes
$Elements
6 358 1 358
1 1 1 8
1 1 9 
2 9 10 
3 10 11 
4 11 12 
5 12 13 
6 13 14 
7 14 15 
8 15 2 
1 2 1 8
9 3 16 
10 16 17 
11 17 18 
12 18 19 
13 19 20 
14 20 21 
15 21 22 
16 22 1 
1 3 1 8
17 2 23 
18 23 24 
19 24 25 
20 25 26 
21 26 27 
22 27 28 
23 28 29 
24 29 4 
1 4 1 8
25 4 30 
26 30 31 
27 31 32 
28 32 33 
29 33 34 
30 34 35 
31 35 36 
32 36 3 
2 2 2 42
33 50 57 54 
34 49 55 54 
35 54 58 50 
36 55 58 54 
37 54 57 52 
38 49 54 53 
39 51 58 55 
40 44 49 43 
41 47 51 46 
42 38 50 37 
43 41 52 40 
44 50 58 56 
45 48 56 47 
46 39 57 38 
47 42 53 41 
48 45 55 44 
49 53 54 52 
50 41 53 52 
51 44 55 49 
52 47 56 51 
53 38 57 50 
54 40 60 6 
55 5 59 48 
56 43 61 7 
57 37 59 5 
58 46 62 8 
59 6 60 39 
60 7 61 42 
61 8 62 45 
62 48 59 56 
63 39 60 57 
64 45 62 55 
65 42 61 53 
66 50 59 37 
67 52 60 40 
68 49 61 43 
69 51 62 46 
70 53 61 49 
71 55 62 51 
72 56 59 50 
73 57 60 52 
74 56 58 51 
2 3 2 284
75 119 144 20 
76 65 109 39 
77 157 176 142 
78 21 159 122 
79 96 120 116 
80 102 153 135 
81 137 153 102 
82 21 119 20 
83 76 140 128 
84 21 122 119 
85 116 120 97 
86 112 125 91 
87 66 151 63 
88 39 109 6 
89 120 160 97 
90 24 157 142 
91 9 159 1 
92 150 157 86 
93 91 174 112 
94 86 180 150 
95 11 149 138 
96 116 170 96 
97 63 151 134 
98 115 169 161 
99 128 140 99 
100 1 159 22 
101 161 169 15 
102 131 160 120 
103 81 160 155 
104 126 162 129 
105 155 167 81 
106 129 162 106 
107 22 159 21 
108 65 112 109 
109 104 176 157 
110 118 147 31 
111 104 157 150 
112 134 151 139 
113 125 129 91 
114 11 138 117 
115 33 121 102 
116 127 179 132 
117 31 156 118 
118 15 169 14 
119 20 144 143 
120 12 149 11 
121 11 117 10 
122 10 117 107 
123 96 170 130 
124 71 152 91 
125 10 107 9 
126 26 86 25 
127 7 88 77 
128 106 171 129 
129 103 158 105 
130 97 160 81 
131 158 165 105 
132 20 143 19 
133 101 121 34 
134 121 137 102 
135 23 161 2 
136 17 120 96 
137 139 151 108 
138 33 102 32 
139 35 101 34 
140 17 96 16 
141 14 169 132 
142 14 132 13 
143 107 159 9 
144 5 92 79 
145 19 143 131 
146 73 151 66 
147 113 144 98 
148 34 121 33 
149 152 174 91 
150 18 120 17 
151 19 131 18 
152 132 179 123 
153 2 161 15 
154 124 168 94 
155 94 125 124 
156 35 130 101 
157 85 153 137 
158 31 147 30 
159 13 123 12 
160 84 127 111 
161 131 143 114 
162 36 130 35 
163 88 98 77 
164 107 128 122 
165 71 91 78 
166 16 164 3 
167 26 133 86 
168 27 133 26 
169 27 177 133 
170 117 172 107 
171 18 131 120 
172 94 168 80 
173 25 157 24 
174 92 127 79 
175 99 140 77 
176 32 156 31 
177 123 149 12 
178 3 164 36 
179 87 106 103 
180 135 156 102 
181 65 124 112 
182 98 144 119 
183 94 126 125 
184 105 118 90 
185 79 127 84 
186 90 135 83 
187 126 129 125 
188 128 172 76 
189 101 163 121 
190 88 113 98 
191 6 63 40 
192 87 171 106 
193 38 65 39 
194 37 136 38 
195 68 71 70 
196 118 135 90 
197 5 72 37 
198 40 134 41 
199 8 166 148 
200 86 157 25 
201 103 105 90 
202 41 139 42 
203 127 132 111 
204 93 94 80 
205 114 160 131 
206 42 67 7 
207 67 108 89 
208 24 142 23 
209 6 109 64 
210 74 110 82 
211 6 64 63 
212 76 172 141 
213 78 87 83 
214 69 73 66 
215 87 103 90 
216 75 85 70 
217 71 78 75 
218 98 99 77 
219 122 159 107 
220 82 116 97 
221 122 128 99 
222 102 156 32 
223 67 139 108 
224 65 136 124 
225 158 177 27 
226 135 153 83 
227 87 90 83 
228 123 178 149 
229 64 68 66 
230 129 171 91 
231 68 70 69 
232 7 77 43 
233 78 83 75 
234 43 140 44 
235 105 165 147 
236 84 111 95 
237 44 76 45 
238 74 81 73 
239 138 149 148 
240 126 180 162 
241 105 147 118 
242 71 75 70 
243 68 69 66 
244 64 66 63 
245 69 74 73 
246 91 171 78 
247 82 97 81 
248 74 82 81 
249 145 163 101 
250 95 104 93 
251 13 132 123 
252 68 152 71 
253 111 115 95 
254 96 164 16 
255 63 134 40 
256 38 136 65 
257 45 141 8 
258 74 154 110 
259 72 136 37 
260 121 163 137 
261 84 95 93 
262 28 165 158 
263 82 145 116 
264 94 150 126 
265 134 139 41 
266 124 125 112 
267 165 175 147 
268 84 93 80 
269 28 158 27 
270 48 92 5 
271 110 145 82 
272 47 146 48 
273 42 139 67 
274 106 162 133 
275 46 100 47 
276 108 155 89 
277 93 150 94 
278 85 154 70 
279 163 173 137 
280 143 144 113 
281 36 164 130 
282 130 170 101 
283 79 80 72 
284 133 162 86 
285 114 143 113 
286 137 173 85 
287 119 122 99 
288 79 84 80 
289 130 164 96 
290 75 153 85 
291 117 166 141 
292 89 114 113 
293 64 152 68 
294 104 150 93 
295 83 153 75 
296 5 79 72 
297 8 148 46 
298 70 154 69 
299 29 165 28 
300 67 88 7 
301 98 119 99 
302 109 152 64 
303 115 161 142 
304 92 179 127 
305 142 176 115 
306 69 154 74 
307 142 161 23 
308 118 156 135 
309 4 175 29 
310 30 175 4 
311 77 140 43 
312 151 167 108 
313 44 140 76 
314 141 172 117 
315 89 113 88 
316 85 173 154 
317 107 172 128 
318 81 167 73 
319 89 155 114 
320 154 173 110 
321 67 89 88 
322 115 176 95 
323 73 167 151 
324 138 166 117 
325 132 169 111 
326 108 167 155 
327 76 141 45 
328 101 170 145 
329 133 177 106 
330 110 163 145 
331 80 168 72 
332 78 171 87 
333 162 180 86 
334 106 177 103 
335 112 174 109 
336 48 146 92 
337 148 166 138 
338 100 146 47 
339 29 175 165 
340 111 169 115 
341 155 160 114 
342 46 148 100 
343 148 149 100 
344 110 173 163 
345 95 176 104 
346 103 177 158 
347 145 170 116 
348 141 166 8 
349 136 168 124 
350 72 168 136 
351 147 175 30 
352 109 174 152 
353 150 180 126 
354 149 178 100 
355 100 178 146 
356 146 179 92 
357 178 179 146 
358 123 179 178 
$EndElements
