$MeshFormat
4.1 0 8
$EndMeshFormat
$PhysicalNames
3
1 101 "outer_boundary"
2 1 "material_1"
2 2 "material_2"
$EndPhysicalNames
$Entities
5 5 2 0
1 0 0 0 0 
2 1 0 0 0 
3 0 1 0 0 
4 1 1 0 0 
5 0.862909876333352 0.4317279514929216 0 0 
1 -9.999999994736442e-08 -1e-07 -1e-07 1.0000001 1e-07 1e-07 1 101 2 1 -2 
2 -1e-07 -9.999999994736442e-08 -1e-07 1e-07 1.0000001 1e-07 1 101 2 3 -1 
3 0.9999999000000001 -9.999999994736442e-08 -1e-07 1.0000001 1.0000001 1e-07 1 101 2 2 -4 
4 -9.999999994736442e-08 0.9999999000000001 -1e-07 1.0000001 1.0000001 1e-07 1 101 2 4 -3 
5 0.4814091779548174 0.2409775523036543 -1e-07 0.862909976333352 0.6224783506821889 1e-07 0 2 5 -5 
2 0.4814091779548174 0.2409775523036543 -1e-07 0.862909976333352 0.6224783506821889 1e-07 1 2 1 5 
3 -9.999999994736442e-08 -9.999999994736442e-08 -1e-07 1.0000001 1.0000001 1e-07 1 1 5 1 3 4 2 -5 
$EndEntities
$Nodes
12 164 1 164
0 1 0 1
1
0 0 0
0 2 0 1
2
1 0 0
0 3 0 1
3
0 1 0
0 4 0 1
4
1 1 0
0 5 0 1
5
0.862909876333352 0.4317279514929216 0
1 1 0 7
6
7
8
9
10
11
12
0.1249999999999999 0 0
0.2499999999999998 0 0
0.3749999999999993 0 0
0.4999999999999988 0 0
0.6249999999999988 0 0
0.7499999999999991 0 0
0.8749999999999997 0 0
1 2 0 7
13
14
15
16
17
18
19
0 0.8750000000000001 0
0 0.7500000000000002 0
0 0.6250000000000007 0
0 0.5000000000000012 0
0 0.3750000000000012 0
0 0.2500000000000009 0
0 0.1250000000000003 0
1 3 0 7
20
21
22
23
24
25
26
1 0.1249999999999999 0
1 0.2499999999999998 0
1 0.3749999999999993 0
1 0.4999999999999988 0
1 0.6249999999999988 0
1 0.7499999999999991 0
1 0.8749999999999997 0
1 4 0 7
27
28
29
30
31
32
33
0.8750000000000001 1 0
0.7500000000000002 1 0
0.6250000000000007 1 0
0.5000000000000012 1 0
0.3750000000000012 1 0
0.2500000000000009 1 0
0.1250000000000003 1 0
1 5 0 17
34
35
36
37
38
39
40
41
42
43
44
45
46
47
48
49
50
0.8514062257049435 0.4969683961610491 0
0.8182827838613054 0.5543398803557831 0
0.7675347267387183 0.5969225563703094 0
0.7052830189877226 0.6195803250239105 0
0.6390361353004465 0.6195803250239104 0
0.5767844275494508 0.5969225563703092 0
0.5260363704268638 0.5543398803557827 0
0.4929129285832258 0.4969683961610487 0
0.4814092779548174 0.4317279514929211 0
0.4929129285832261 0.3664875068247939 0
0.5260363704268641 0.30911602263006 0
0.5767844275494513 0.2665333466155338 0
0.6390361353004469 0.2438755779619328 0
0.7052830189877225 0.2438755779619328 0
0.767534726738718 0.2665333466155337 0
0.818282783861305 0.3091160226300598 0
0.8514062257049433 0.3664875068247936 0
2 2 0 29
51
52
53
54
55
56
57
58
59
60
61
62
63
64
65
66
67
68
69
70
71
72
73
74
75
76
77
78
79
0.6721887068385183 0.2996216786552057 0
0.6763647012652573 0.5661925209949019 0
0.5350603245668475 0.4126990684033736 0
0.802306886404017 0.4115058703471207 0
0.7560310761103097 0.331773791283661 0
0.5882880781778597 0.3317737912836611 0
0.5885054622196138 0.5251683821894905 0
0.78579975587669 0.4990964060203109 0
0.6214115200214977 0.2922988104674203 0
0.6433990059428197 0.3452955224579534 0
0.5967322179976148 0.3955213936681277 0
0.6679163873636278 0.4024276753878748 0
0.6304556108897998 0.4526413856138459 0
0.6938027535842345 0.4569408677123937 0
0.7395124560789823 0.3962370939672773 0
0.6552994842614709 0.5154019818415261 0
0.7212568575884224 0.5203116420201019 0
0.5680227229236965 0.464200263068962 0
0.7019340403455981 0.3481342434222461 0
0.7551433794214805 0.4567321242580861 0
0.7653076950180678 0.54638912725412 0
0.8134473844947276 0.4587167969955863 0
0.6243638272142272 0.5678387561743437 0
0.7935078856319115 0.3630240570105825 0
0.5466216987377197 0.361525184725873 0
0.7229076342666717 0.2922988104674202 0
0.7249438952903507 0.5706509467403287 0
0.5210947087984714 0.458364763619425 0
0.5393151211857949 0.5061824522164657 0
2 3 0 85
80
81
82
83
84
85
86
87
88
89
90
91
92
93
94
95
96
97
98
99
100
101
102
103
104
105
106
107
108
109
110
111
112
113
114
115
116
117
118
119
120
121
122
123
124
125
126
127
128
129
130
131
132
133
134
135
136
137
138
139
140
141
142
143
144
145
146
147
148
149
150
151
152
153
154
155
156
157
158
159
160
161
162
163
164
0.4593223757945544 0.5485727850610085 0
0.4270924102372349 0.391651977472863 0
0.5919558754114728 0.6622154892674307 0
0.1082531754730544 0.6875000000000004 0
0.7554397434096347 0.6604227658931895 0
0.1127641369860792 0.3038794785810637 0
0.3211868793053239 0.09712720265141206 0
0.5188711310700406 0.2382487914352687 0
0.4300915252579307 0.8837396179072415 0
0.700813627951318 0.9012814065545636 0
0.8243126380032383 0.2368533881277022 0
0.6661335949417351 0.1838758656551364 0
0.8931604566196732 0.7978338212144362 0
0.1974275326336856 0.8878495530994719 0
0.433242491591478 0.4784151651593783 0
0.3795787009940906 0.5411822637486033 0
0.4133157117268488 0.6143077546594048 0
0.3536592818788598 0.4653457467005477 0
0.3405480768238167 0.3810765116295823 0
0.2887752566676882 0.527582408479461 0
0.3936053167185239 0.3210947134660405 0
0.3117455018853962 0.2999096680225997 0
0.6724504391010939 0.6745806755352279 0
0.6186778242922143 0.7350380441230197 0
0.5397301393949107 0.720393936871417 0
0.5789445877986383 0.8040606080341337 0
0.8290490947072711 0.6201572129185609 0
0.5894511563749261 0.2036991332540079 0
0.7541078690446125 0.1815534622092212 0
0.7264186209939993 0.7404429084757376 0
0.2639558872227233 0.3584857670389595 0
0.8938694225453601 0.5581782480973996 0
0.5264190735907587 0.1598333529102485 0
0.4478519001070441 0.1992173993401612 0
0.5130419348871368 0.6212032659640809 0
0.832949824351271 0.1582839101853951 0
0.4559183260921682 0.6951401181346569 0
0.3675293258525006 0.6877338336209984 0
0.9016980469277487 0.303476102232466 0
0.412197492450568 0.7676403842875783 0
0.3199750519432182 0.7694995969428871 0
0.2702940571390209 0.6870034646509892 0
0.2237261101810769 0.2902372309010586 0
0.3170664368589125 0.9007108423585273 0
0.8188073335932915 0.7120709185934522 0
0.6146762086222946 0.1241164123708721 0
0.4413978730221629 0.09876496865931372 0
0.209001899433377 0.7640506568370702 0
0.1929024293313553 0.1051340814443186 0
0.1037106283812877 0.8094578716296887 0
0.1005425593249606 0.4327219489831549 0
0.1024916756249663 0.5557602263199564 0
0.1902205795343506 0.4905381720783493 0
0.099493513531969 0.1790307410870485 0
0.2059833951337918 0.5986156540027768 0
0.6992063466011853 0.09481226156080064 0
0.8063702367904182 0.8952858449660663 0
0.9090906116199037 0.1964837201823137 0
0.2844283782694635 0.1974188970180661 0
0.541272901611672 0.9040022954955618 0
0.3791222428793052 0.2435687040063296 0
0.452176965580308 0.2750023678132748 0
0.3205813236225096 0.6122092746433022 0
0.6652216121366917 0.812014359068708 0
0.907026509451291 0.6661547807144653 0
0.8002058117510497 0.7926619052007146 0
0.9136579334559392 0.474310627507448 0
0.9059344164843967 0.3902004376115257 0
0.2711722960055079 0.4466062916018909 0
0.9037549239041119 0.09764658551863964 0
0.493025828767648 0.7958294934550982 0
0.5414986310470428 0.07654294678808693 0
0.1826629136599887 0.2151400858063111 0
0.09464710705065532 0.09409881674625931 0
0.1870951723012034 0.3833566657084091 0
0.3754394380928294 0.1642013601385219 0
0.7975938024639895 0.08603369159345642 0
0.9084936490538902 0.90849364905389 0
0.09150635094610998 0.9084936490538902 0
0.3602108422517836 0.8317942297878267 0
0.198383131794811 0.6842924438727092 0
0.6222505458996641 0.8842717338305934 0
0.4583647983092314 0.3326705176414064 0
0.7403992273083261 0.8369783552632717 0
0.2715549815198153 0.8317270887828667 0
$EndNodes
$Elements
6 326 1 326
1 1 1 8
1 1 6 
2 6 7 
3 7 8 
4 8 9 
5 9 10 
6 10 11 
7 11 12 
8 12 2 
1 2 1 8
9 3 13 
10 13 14 
11 14 15 
12 15 16 
13 16 17 
14 17 18 
15 18 19 
16 19 1 
1 3 1 8
17 2 20 
18 20 21 
19 21 22 
20 22 23 
21 23 24 
22 24 25 
23 25 26 
24 26 4 
1 4 1 8
25 4 27 
26 27 28 
27 28 29 
28 29 30 
29 30 31 
30 31 32 
31 32 33 
32 33 3 
2 2 2 74
33 63 66 57 
34 57 68 63 
35 63 68 61 
36 61 68 53 
37 55 74 65 
38 65 74 54 
39 66 73 57 
40 65 69 55 
41 5 54 50 
42 45 56 44 
43 43 53 42 
44 38 52 37 
45 35 58 34 
46 40 57 39 
47 47 51 46 
48 49 55 48 
49 62 65 64 
50 62 64 63 
51 52 73 66 
52 62 63 61 
53 67 70 58 
54 60 62 61 
55 54 72 70 
56 64 70 67 
57 60 69 62 
58 54 70 65 
59 64 67 66 
60 51 69 60 
61 66 67 52 
62 53 75 61 
63 61 75 56 
64 51 76 69 
65 64 66 63 
66 62 69 65 
67 70 72 58 
68 69 76 55 
69 58 71 67 
70 60 61 56 
71 65 70 64 
72 36 71 35 
73 35 71 58 
74 5 72 54 
75 54 74 50 
76 46 59 45 
77 50 74 49 
78 34 72 5 
79 48 76 47 
80 55 76 48 
81 39 73 38 
82 38 73 52 
83 43 75 53 
84 58 72 34 
85 57 73 39 
86 51 59 46 
87 47 76 51 
88 44 75 43 
89 56 75 44 
90 45 59 56 
91 49 74 55 
92 37 77 36 
93 52 77 37 
94 53 78 42 
95 40 79 57 
96 68 78 53 
97 57 79 68 
98 42 78 41 
99 41 79 40 
100 67 77 52 
101 59 60 56 
102 51 60 59 
103 36 77 71 
104 71 77 67 
105 78 79 41 
106 68 79 78 
2 3 2 220
107 94 97 81 
108 104 114 82 
109 80 114 96 
110 124 144 92 
111 97 98 81 
112 104 116 114 
113 48 108 90 
114 22 147 118 
115 148 154 110 
116 114 116 96 
117 85 152 122 
118 126 155 86 
119 22 118 21 
120 24 111 23 
121 92 144 25 
122 132 154 148 
123 99 134 132 
124 8 126 86 
125 131 134 83 
126 99 142 134 
127 146 147 22 
128 86 138 128 
129 83 160 127 
130 24 144 111 
131 118 137 21 
132 138 152 128 
133 134 160 83 
134 133 152 85 
135 119 150 88 
136 15 131 83 
137 111 146 23 
138 127 129 83 
139 102 109 103 
140 108 115 90 
141 10 135 125 
142 90 137 118 
143 88 150 139 
144 104 150 116 
145 88 159 119 
146 9 126 8 
147 140 141 100 
148 84 124 109 
149 139 150 105 
150 97 148 98 
151 113 141 140 
152 134 142 121 
153 11 135 10 
154 109 143 103 
155 93 123 32 
156 47 108 48 
157 130 132 131 
158 96 142 95 
159 23 146 22 
160 43 162 44 
161 80 95 94 
162 112 125 107 
163 80 94 41 
164 42 94 81 
165 111 144 106 
166 40 114 80 
167 130 131 16 
168 85 130 17 
169 95 142 99 
170 31 88 30 
171 98 148 110 
172 82 114 39 
173 29 89 28 
174 31 123 88 
175 8 86 7 
176 86 128 7 
177 16 131 15 
178 98 100 81 
179 18 85 17 
180 15 83 14 
181 2 149 12 
182 116 150 119 
183 132 134 131 
184 92 145 124 
185 139 161 29 
186 18 133 85 
187 125 151 10 
188 130 154 132 
189 29 161 89 
190 17 130 16 
191 38 102 82 
192 124 145 109 
193 108 156 115 
194 89 136 28 
195 132 148 99 
196 83 129 14 
197 102 103 82 
198 93 129 127 
199 26 92 25 
200 87 107 45 
201 20 149 2 
202 115 156 149 
203 32 123 31 
204 7 128 6 
205 33 93 32 
206 149 156 12 
207 19 133 18 
208 14 129 13 
209 84 102 37 
210 122 154 85 
211 44 162 141 
212 84 109 102 
213 28 136 27 
214 30 139 29 
215 135 156 108 
216 25 144 24 
217 21 137 20 
218 87 112 107 
219 46 107 91 
220 87 141 113 
221 103 143 105 
222 112 151 125 
223 116 117 96 
224 88 139 30 
225 1 153 19 
226 6 153 1 
227 90 118 49 
228 93 164 123 
229 36 106 84 
230 103 104 82 
231 9 151 126 
232 120 121 117 
233 95 97 94 
234 40 80 41 
235 42 81 43 
236 107 125 91 
237 106 124 84 
238 80 96 95 
239 38 82 39 
240 4 157 26 
241 27 157 4 
242 41 94 42 
243 3 158 33 
244 13 158 3 
245 44 87 45 
246 39 114 40 
247 117 142 96 
248 110 154 122 
249 116 119 117 
250 120 127 121 
251 122 138 101 
252 35 111 106 
253 85 154 130 
254 98 110 101 
255 121 142 117 
256 12 156 11 
257 87 113 112 
258 98 101 100 
259 119 120 117 
260 95 99 97 
261 10 151 9 
262 37 102 38 
263 44 141 87 
264 36 84 37 
265 48 90 49 
266 118 147 50 
267 127 164 93 
268 46 91 47 
269 34 146 111 
270 123 159 88 
271 126 151 112 
272 115 137 90 
273 110 122 101 
274 128 152 133 
275 45 107 46 
276 91 135 108 
277 86 155 138 
278 136 145 92 
279 103 105 104 
280 101 140 100 
281 138 155 140 
282 109 163 143 
283 133 153 128 
284 138 140 101 
285 137 149 20 
286 5 147 146 
287 49 118 50 
288 125 135 91 
289 89 163 136 
290 99 148 97 
291 34 111 35 
292 35 106 36 
293 128 153 6 
294 145 163 109 
295 113 126 112 
296 100 162 81 
297 129 158 13 
298 121 160 134 
299 19 153 133 
300 136 157 27 
301 143 161 105 
302 91 108 47 
303 106 144 124 
304 11 156 135 
305 5 146 34 
306 26 157 92 
307 127 160 121 
308 50 147 5 
309 33 158 93 
310 92 157 136 
311 93 158 129 
312 115 149 137 
313 122 152 138 
314 105 150 104 
315 105 161 139 
316 140 155 113 
317 113 155 126 
318 119 159 120 
319 136 163 145 
320 81 162 43 
321 159 164 120 
322 120 164 127 
323 89 161 143 
324 141 162 100 
325 123 164 159 
326 143 163 89 
$EndElements
