$MeshFormat
4.1 0 8
$EndMeshFormat
$PhysicalNames
3
1 101 "outer_boundary"
2 1 "material_1"
2 2 "material_2"
$EndPhysicalNames
$Entities
8 8 2 0
1 0 0 0 0 
2 1 0 0 0 
3 0 1 0 0 
4 1 1 0 0 
5 0.6545749669825449 0.2754984428892 0 0 
6 0.7654456830610417 0.5914002475802493 0 0 
7 0.4495438783699923 0.7022709636587461 0 0 
8 0.3386731622914956 0.3863691589676967 0 0 
1 -9.999999994736442e-08 -1e-07 -1e-07 1.0000001 1e-07 1e-07 1 101 2 1 -2 
2 -1e-07 -9.999999994736442e-08 -1e-07 1e-07 1.0000001 1e-07 1 101 2 3 -1 
3 0.9999999000000001 -9.999999994736442e-08 -1e-07 1.0000001 1.0000001 1e-07 1 101 2 2 -4 
4 -9.999999994736442e-08 0.9999999000000001 -1e-07 1.0000001 1.0000001 1e-07 1 101 2 4 -3 
5 0.654574866982545 0.2754983428892 -1e-07 0.7654457830610416 0.5914003475802493 1e-07 0 2 5 -6 
6 0.4495437783699923 0.5914001475802494 -1e-07 0.7654457830610416 0.702271063658746 1e-07 0 2 6 -7 
7 0.3386730622914956 0.3863690589676967 -1e-07 0.4495439783699923 0.702271063658746 1e-07 0 2 7 -8 
8 0.3386730622914956 0.2754983428892 -1e-07 0.6545750669825449 0.3863692589676967 1e-07 0 2 8 -5 
2 0.3386730622914956 0.2754983428892 -1e-07 0.7654457830610416 0.702271063658746 1e-07 1 2 4 5 6 7 8 
3 -9.999999994736442e-08 -9.999999994736442e-08 -1e-07 1.0000001 1.0000001 1e-07 1 1 8 1 3 4 2 -5 -8 -7 -6 
$EndEntities
$Nodes
18 170 1 170
0 1 0 1
1
0 0 0
0 2 0 1
2
1 0 0
0 3 0 1
3
0 1 0
0 4 0 1
4
1 1 0
0 5 0 1
5
0.6545749669825449 0.2754984428892 0
0 6 0 1
6
0.7654456830610417 0.5914002475802493 0
0 7 0 1
7
0.4495438783699923 0.7022709636587461 0
0 8 0 1
8
0.3386731622914956 0.3863691589676967 0
1 1 0 7
9
10
11
12
13
14
15
0.1249999999999999 0 0
0.2499999999999998 0 0
0.3749999999999993 0 0
0.4999999999999988 0 0
0.6249999999999988 0 0
0.7499999999999991 0 0
0.8749999999999997 0 0
1 2 0 7
16
17
18
19
20
21
22
0 0.8750000000000001 0
0 0.7500000000000002 0
0 0.6250000000000007 0
0 0.5000000000000012 0
0 0.3750000000000012 0
0 0.2500000000000009 0
0 0.1250000000000003 0
1 3 0 7
23
24
25
26
27
28
29
1 0.1249999999999999 0
1 0.2499999999999998 0
1 0.3749999999999993 0
1 0.4999999999999988 0
1 0.6249999999999988 0
1 0.7499999999999991 0
1 0.8749999999999997 0
1 4 0 7
30
31
32
33
34
35
36
0.8750000000000001 1 0
0.7500000000000002 1 0
0.6250000000000007 1 0
0.5000000000000012 1 0
0.3750000000000012 1 0
0.2500000000000009 1 0
0.1250000000000003 1 0
1 5 0 4
37
38
39
40
0.6767491101982442 0.3386788038274099 0
0.6989232534139436 0.4018591647656197 0
0.721097396629643 0.4650395257038298 0
0.7432715398453424 0.5282198866420399 0
1 6 0 4
41
42
43
44
0.7022653221228318 0.6135743907959487 0
0.639084961184622 0.635748534011648 0
0.5759046002464119 0.6579226772273474 0
0.5127242393082018 0.6800968204430469 0
1 7 0 4
45
46
47
48
0.4273697351542929 0.6390906027205362 0
0.4051955919385936 0.5759102417823264 0
0.3830214487228942 0.5127298808441163 0
0.3608473055071948 0.4495495199059062 0
1 8 0 4
49
50
51
52
0.4018535232297055 0.3641950157519974 0
0.4650338841679152 0.342020872536298 0
0.5282142451061254 0.3198467293205987 0
0.5913946060443355 0.2976725861048992 0
2 2 0 24
53
54
55
56
57
58
59
60
61
62
63
64
65
66
67
68
69
70
71
72
73
74
75
76
0.4483449594755051 0.5247049487732888 0
0.6687274688462591 0.4507951679012018 0
0.591883101600313 0.5942321713323946 0
0.5183550538119475 0.3813923050537961 0
0.4254985850353579 0.4626059657207144 0
0.4866112740328219 0.4750108714863841 0
0.5077189540146426 0.5400027285923128 0
0.5582559131090231 0.4867099473173708 0
0.578548066058993 0.3622803748390007 0
0.5271525380623284 0.6093225758950569 0
0.6710770749257108 0.5126707540190932 0
0.4658907153024107 0.5881363712877928 0
0.6508576122207135 0.5742280739391659 0
0.459476113348433 0.4107437287507978 0
0.6344666188387883 0.3946378956299313 0
0.5696001029391131 0.4229858447391672 0
0.607015568178558 0.5334353773876914 0
0.612244098274249 0.4760659576331094 0
0.4795625131691012 0.6397871299632358 0
0.624556332183436 0.3379822765847103 0
0.4011569959870059 0.4163877937668056 0
0.7029618493655314 0.5613816127811404 0
0.5178234771742769 0.4335932769395888 0
0.5598682185739373 0.5534700490628086 0
2 3 0 94
77
78
79
80
81
82
83
84
85
86
87
88
89
90
91
92
93
94
95
96
97
98
99
100
101
102
103
104
105
106
107
108
109
110
111
112
113
114
115
116
117
118
119
120
121
122
123
124
125
126
127
128
129
130
131
132
133
134
135
136
137
138
139
140
141
142
143
144
145
146
147
148
149
150
151
152
153
154
155
156
157
158
159
160
161
162
163
164
165
166
167
168
169
170
0.387467898983529 0.7011953936618958 0
0.3393320144499982 0.5640168752977558 0
0.2922570476086092 0.4401896664083162 0
0.7523761462620737 0.6625686387806299 0
0.6252559712651444 0.6933324688913219 0
0.3399091452757429 0.3243068155947365 0
0.4774206933050703 0.2762180033356885 0
0.7174428113968423 0.276621110983769 0
0.5038614284728828 0.7491878505283113 0
0.1082531754730544 0.6875000000000004 0
0.5999258728385044 0.2282600580292882 0
0.2736663479049901 0.3701116882935339 0
0.2646641087354231 0.2895736144069512 0
0.3456610167185628 0.2500561165311763 0
0.4285384203061778 0.7647922696887055 0
0.3497534828628555 0.7670779749295189 0
0.7654997125815914 0.4139744703142449 0
0.6760150229597722 0.2121243977078374 0
0.7563232237880333 0.209818336707906 0
0.8125000000000002 0.8917468245269454 0
0.2114338431165204 0.4283771644861915 0
0.3026068184174601 0.7002407929162137 0
0.2580925060932101 0.7788742703742031 0
0.8136244579450485 0.2817392717139777 0
0.8131850003928466 0.5532595354204284 0
0.266120573591638 0.1918005330010415 0
0.820327263385062 0.6318629821438024 0
0.8089126413415547 0.7165172175889534 0
0.1894959398563763 0.3433013708886488 0
0.489903886767309 0.8247223294757399 0
0.8447415789796051 0.1999962136523247 0
0.4377608611025185 0.1101161048547322 0
0.243384078956809 0.5003387606867438 0
0.1581640024445234 0.4961184938189602 0
0.6106507096243874 0.1515034953047218 0
0.5713316119195777 0.7989965737331273 0
0.3975524582342283 0.8391359358970937 0
0.735696036283577 0.7402712912791043 0
0.5185021352487877 0.191224349321918 0
0.2039767126606511 0.569011395036946 0
0.1068370904766979 0.1869602297254913 0
0.9033681353818093 0.4165483032965177 0
0.2027932812409912 0.8748902273860359 0
0.7171725531283211 0.1310449423321393 0
0.5603390012915757 0.9005286171436883 0
0.6465180356139593 0.8481847666379071 0
0.9001749851406948 0.5844197523027503 0
0.9012661694179913 0.6820282530367852 0
0.8693537283019737 0.7865921013973052 0
0.09764540099312391 0.8114829260985605 0
0.3185379839020753 0.09836901531654751 0
0.9011391958457027 0.3287680643276396 0
0.2180467506379531 0.7015989496460109 0
0.102712577112949 0.5732110622458363 0
0.1874999999999998 0.1000801578602786 0
0.3007044145296487 0.9185797243159282 0
0.3585170939985104 0.6328498365440449 0
0.2733450302432652 0.6221907970509388 0
0.1857612994884218 0.2564357812023414 0
0.09860147334082137 0.3056032337798515 0
0.1231294599788697 0.4061724498601228 0
0.4089492694767707 0.2968967046544586 0
0.4266781712909137 0.2148659405483025 0
0.3163442898725609 0.5039595396739482 0
0.7482818217885745 0.3455221001098887 0
0.8174515851957771 0.3602597790543107 0
0.5635177911092568 0.7237255464279567 0
0.541249340443115 0.2562826369584132 0
0.6898785129856768 0.6793772599965582 0
0.7907786134497999 0.4826258990796167 0
0.5573103034282518 0.08863792542130355 0
0.7879548194162953 0.8044100880363757 0
0.450742509083243 0.9142380251766301 0
0.8100303462806986 0.09812500512644673 0
0.9052004396712225 0.1165327805642251 0
0.7145405717081992 0.9030746091065531 0
0.6499082951533285 0.7561077319207121 0
0.9054887396360009 0.8748502251947727 0
0.09030505051885446 0.9042210790831862 0
0.08738921841480307 0.0872449371197378 0
0.3671018264664284 0.1677299831991733 0
0.1786001165481527 0.7735124565070427 0
0.6519882159419685 0.07656200588582862 0
0.8728913611958206 0.497966609420396 0
0.7069235516350718 0.8104096973961303 0
0.912194722246052 0.2251888348328281 0
0.8299978815609597 0.4342750122330172 0
0.3138850459749987 0.8378230520926009 0
0.2752764252366569 0.5519034735492665 0
0.07802414882375658 0.4753958397570127 0
0.1857634066218632 0.1816150581817775 0
0.1745300976526093 0.6382995035952521 0
0.6329984030983453 0.9182007173675416 0
0.3718412653440004 0.9212838368585146 0
$EndNodes
$Elements
6 338 1 338
1 1 1 8
1 1 9 
2 9 10 
3 10 11 
4 11 12 
5 12 13 
6 13 14 
7 14 15 
8 15 2 
1 2 1 8
9 3 16 
10 16 17 
11 17 18 
12 18 19 
13 19 20 
14 20 21 
15 21 22 
16 22 1 
1 3 1 8
17 2 23 
18 23 24 
19 24 25 
20 25 26 
21 26 27 
22 27 28 
23 28 29 
24 29 4 
1 4 1 8
25 4 30 
26 30 31 
27 31 32 
28 32 33 
29 33 34 
30 34 35 
31 35 36 
32 36 3 
2 2 2 66
33 67 70 68 
34 54 70 67 
35 57 66 58 
36 69 70 63 
37 62 64 59 
38 67 68 61 
39 65 69 63 
40 66 75 58 
41 59 76 62 
42 63 70 54 
43 52 61 51 
44 44 62 43 
45 51 61 56 
46 48 57 47 
47 47 57 53 
48 39 54 38 
49 43 62 55 
50 47 53 46 
51 51 56 50 
52 57 58 53 
53 43 55 42 
54 58 59 53 
55 40 63 39 
56 39 63 54 
57 58 60 59 
58 59 64 53 
59 46 64 45 
60 38 67 37 
61 50 66 49 
62 42 65 41 
63 53 64 46 
64 55 65 42 
65 56 66 50 
66 54 67 38 
67 61 68 56 
68 45 71 7 
69 49 73 8 
70 5 72 52 
71 6 74 40 
72 37 72 5 
73 7 71 44 
74 8 73 48 
75 41 74 6 
76 68 70 60 
77 62 76 55 
78 55 69 65 
79 60 76 59 
80 58 75 60 
81 56 75 66 
82 69 76 60 
83 60 75 68 
84 64 71 45 
85 66 73 49 
86 67 72 37 
87 65 74 41 
88 44 71 62 
89 40 74 63 
90 48 73 57 
91 52 72 61 
92 61 72 67 
93 63 74 65 
94 57 73 66 
95 62 71 64 
96 60 70 69 
97 68 75 56 
98 55 76 69 
2 3 2 240
99 115 139 108 
100 99 164 119 
101 95 150 107 
102 83 139 115 
103 120 150 95 
104 129 168 134 
105 134 168 116 
106 28 154 125 
107 119 164 132 
108 30 154 4 
109 115 144 83 
110 2 151 15 
111 129 134 98 
112 119 158 99 
113 121 169 32 
114 102 131 127 
115 123 160 26 
116 81 153 143 
117 4 154 29 
118 33 121 32 
119 29 154 28 
120 23 151 2 
121 8 88 82 
122 27 123 26 
123 7 91 77 
124 23 162 151 
125 27 124 123 
126 5 94 84 
127 91 92 77 
128 143 153 112 
129 120 159 14 
130 127 131 10 
131 98 133 77 
132 88 89 82 
133 26 118 25 
134 94 95 84 
135 24 162 23 
136 101 103 6 
137 152 161 148 
138 14 150 120 
139 110 137 97 
140 108 147 115 
141 28 124 27 
142 26 160 118 
143 97 137 105 
144 137 166 20 
145 98 134 133 
146 18 130 86 
147 18 86 17 
148 33 149 121 
149 12 108 11 
150 31 96 30 
151 86 126 17 
152 28 125 124 
153 36 119 35 
154 90 138 82 
155 102 157 90 
156 118 128 25 
157 88 105 89 
158 100 141 84 
159 22 117 21 
160 118 163 142 
161 108 127 11 
162 118 142 128 
163 100 162 128 
164 96 148 125 
165 127 157 102 
166 96 152 148 
167 145 153 81 
168 117 136 21 
169 19 130 18 
170 106 113 91 
171 101 123 103 
172 25 128 24 
173 139 157 108 
174 20 166 19 
175 11 127 10 
176 17 126 16 
177 96 154 30 
178 111 120 94 
179 35 132 34 
180 129 158 86 
181 123 124 103 
182 13 147 12 
183 92 98 77 
184 107 162 100 
185 106 149 113 
186 105 135 89 
187 3 155 36 
188 128 142 100 
189 21 136 20 
190 90 139 138 
191 119 132 35 
192 132 170 34 
193 32 152 31 
194 86 158 126 
195 121 149 106 
196 32 169 152 
197 100 142 141 
198 102 167 131 
199 16 155 3 
200 151 162 107 
201 95 100 84 
202 13 159 147 
203 135 136 117 
204 12 147 108 
205 10 131 9 
206 116 165 134 
207 114 153 145 
208 125 154 96 
209 150 151 107 
210 136 137 20 
211 89 90 82 
212 7 77 45 
213 9 156 1 
214 105 137 136 
215 45 133 46 
216 104 114 80 
217 46 78 47 
218 130 168 86 
219 1 156 22 
220 128 162 24 
221 109 116 110 
222 14 159 13 
223 8 82 49 
224 47 140 48 
225 48 79 8 
226 34 149 33 
227 49 138 50 
228 126 158 119 
229 146 163 160 
230 147 159 111 
231 79 109 97 
232 5 84 37 
233 50 83 51 
234 112 122 121 
235 42 81 43 
236 37 141 38 
237 43 143 44 
238 15 151 150 
239 85 112 106 
240 44 85 7 
241 51 144 52 
242 87 115 111 
243 38 93 39 
244 99 129 98 
245 41 145 42 
246 31 152 96 
247 91 113 92 
248 39 146 40 
249 52 87 5 
250 6 80 41 
251 15 150 14 
252 94 120 95 
253 112 153 122 
254 146 160 101 
255 40 101 6 
256 104 148 114 
257 116 130 110 
258 19 166 130 
259 89 135 102 
260 105 136 135 
261 36 155 119 
262 95 107 100 
263 92 99 98 
264 111 159 120 
265 77 133 45 
266 46 133 78 
267 79 140 109 
268 108 157 127 
269 109 110 97 
270 109 165 116 
271 89 102 90 
272 78 140 47 
273 114 145 80 
274 79 88 8 
275 112 121 106 
276 48 140 79 
277 82 138 49 
278 124 125 104 
279 125 148 104 
280 115 147 111 
281 85 143 112 
282 87 144 115 
283 133 134 78 
284 50 138 83 
285 85 91 7 
286 126 155 16 
287 119 155 126 
288 22 156 117 
289 79 97 88 
290 84 141 37 
291 103 124 104 
292 97 105 88 
293 81 143 43 
294 83 144 51 
295 87 94 5 
296 42 145 81 
297 44 143 85 
298 38 141 93 
299 131 167 117 
300 116 168 130 
301 113 170 164 
302 85 106 91 
303 103 104 80 
304 52 144 87 
305 93 146 39 
306 6 103 80 
307 87 111 94 
308 80 145 41 
309 122 161 152 
310 117 156 131 
311 138 139 83 
312 141 142 93 
313 40 146 101 
314 86 168 129 
315 34 170 149 
316 131 156 9 
317 164 170 132 
318 110 166 137 
319 101 160 123 
320 90 157 139 
321 99 158 129 
322 78 165 140 
323 148 161 114 
324 113 164 92 
325 160 163 118 
326 130 166 110 
327 117 167 135 
328 92 164 99 
329 149 170 113 
330 152 169 122 
331 134 165 78 
332 122 169 121 
333 142 163 93 
334 140 165 109 
335 135 167 102 
336 93 163 146 
337 114 161 153 
338 153 161 122 
$EndElements
