$MeshFormat
4.1 0 8
$EndMeshFormat
$PhysicalNames
3
1 101 "outer_boundary"
2 1 "material_1"
2 2 "material_2"
$EndPhysicalNames
$Entities
5 5 2 0
1 0 0 0 0 
2 1 0 0 0 
3 0 1 0 0 
4 1 1 0 0 
5 0.9089227164151598 0.3455401367028216 0 0 
1 -9.999999994736442e-08 -1e-07 -1e-07 1.0000001 1e-07 1e-07 1 101 2 1 -2 
2 -1e-07 -9.999999994736442e-08 -1e-07 1e-07 1.0000001 1e-07 1 101 2 3 -1 
3 0.9999999000000001 -9.999999994736442e-08 -1e-07 1.0000001 1.0000001 1e-07 1 101 2 2 -4 
4 -9.999999994736442e-08 0.9999999000000001 -1e-07 1.0000001 1.0000001 1e-07 1 101 2 4 -3 
5 0.4647535440501531 0.1234555005203183 -1e-07 0.9089228164151597 0.5676247728853249 1e-07 0 2 5 -5 
2 0.4647535440501531 0.1234555005203183 -1e-07 0.9089228164151597 0.5676247728853249 1e-07 1 2 1 5 
3 -9.999999994736442e-08 -9.999999994736442e-08 -1e-07 1.0000001 1.0000001 1e-07 1 1 5 1 3 4 2 -5 
$EndEntities
$Nodes
12 260 1 260
0 1 0 1
1
0 0 0
0 2 0 1
2
1 0 0
0 3 0 1
3
0 1 0
0 4 0 1
4
1 1 0
0 5 0 1
5
0.9089227164151598 0.3455401367028216 0
1 1 0 9
6
7
8
9
10
11
12
13
14
0.09999999999999996 0 0
0.1999999999999999 0 0
0.3000000000000001 0 0
0.4000000000000004 0 0
0.5000000000000003 0 0
0.5999999999999999 0 0
0.6999999999999995 0 0
0.7999999999999992 0 0
0.899999999999999 0 0
1 2 0 9
15
16
17
18
19
20
21
22
23
0 0.9 0
0 0.8 0
0 0.7 0
0 0.5999999999999996 0
0 0.4999999999999997 0
0 0.4000000000000001 0
0 0.3000000000000005 0
0 0.2000000000000008 0
0 0.100000000000001 0
1 3 0 9
24
25
26
27
28
29
30
31
32
1 0.09999999999999996 0
1 0.1999999999999999 0
1 0.3000000000000001 0
1 0.4000000000000004 0
1 0.5000000000000003 0
1 0.5999999999999999 0
1 0.6999999999999995 0
1 0.7999999999999992 0
1 0.899999999999999 0
1 4 0 9
33
34
35
36
37
38
39
40
41
0.9 1 0
0.8 1 0
0.7 1 0
0.5999999999999996 1 0
0.4999999999999997 1 0
0.4000000000000001 1 0
0.3000000000000005 1 0
0.2000000000000008 1 0
0.100000000000001 1 0
1 5 0 25
42
43
44
45
46
47
48
49
50
51
52
53
54
55
56
57
58
59
60
61
62
63
64
65
66
0.902469343415918 0.3986884450073316 0
0.8834842709998523 0.4487479668194237 0
0.8530708425678539 0.4928094246903373 0
0.8129965760320763 0.5283121268454979 0
0.7655904420995469 0.553192785282719 0
0.7136075129601386 0.5660054265711431 0
0.6600688475051742 0.5660054265711431 0
0.6080859183657659 0.553192785282719 0
0.5606797844332364 0.5283121268454978 0
0.5206055178974588 0.4928094246903372 0
0.4901920894654604 0.4487479668194235 0
0.4712070170493948 0.3986884450073316 0
0.4647536440501531 0.3455401367028216 0
0.4712070170493948 0.2923918283983116 0
0.4901920894654606 0.2423323065862195 0
0.5206055178974589 0.1982708487153058 0
0.5606797844332363 0.1627681465601455 0
0.6080859183657659 0.1378874881229243 0
0.6600688475051741 0.1250748468345002 0
0.7136075129601386 0.1250748468345002 0
0.765590442099547 0.1378874881229243 0
0.8129965760320765 0.1627681465601455 0
0.8530708425678539 0.1982708487153059 0
0.8834842709998523 0.2423323065862195 0
0.902469343415918 0.2923918283983117 0
2 2 0 58
67
68
69
70
71
72
73
74
75
76
77
78
79
80
81
82
83
84
85
86
87
88
89
90
91
92
93
94
95
96
97
98
99
100
101
102
103
104
105
106
107
108
109
110
111
112
113
114
115
116
117
118
119
120
121
122
123
124
0.8596682447556658 0.3245547675080065 0
0.518058687611394 0.371003746561544 0
0.7247236639449324 0.5117508297508929 0
0.6429093006003266 0.1782060258777969 0
0.7654778654838328 0.1975678878270602 0
0.5448902058686229 0.2446243826103317 0
0.8285788642850432 0.4443737239895729 0
0.6077601074925312 0.5007591595914185 0
0.8301192149398642 0.2466403792890531 0
0.5382561231294456 0.445238758104198 0
0.8571858942202106 0.2799965765774032 0
0.8076986473700909 0.2940231225288415 0
0.8103956514271691 0.3487304649894096 0
0.7620553267459044 0.3243054463271084 0
0.7637180824598144 0.3753384378296761 0
0.7172886648303126 0.3490232385076967 0
0.7157193140047852 0.2981823578183576 0
0.6709043411748151 0.3224666538248781 0
0.6713369846503984 0.3754155074748889 0
0.6248826496887367 0.3487869549305039 0
0.6254130517964398 0.2962857012759804 0
0.6266529681549263 0.4017764807390922 0
0.6719058259510052 0.4284243871074302 0
0.5816528941738544 0.3211857957404789 0
0.7808589291758261 0.2451606823534108 0
0.5761296168855509 0.3735029401826736 0
0.6712579201419643 0.2693176801262175 0
0.6248483720307283 0.2416118871180166 0
0.7244584297196611 0.2422990791171674 0
0.7203611773678514 0.1799498153228798 0
0.7177054453927868 0.4021424269194521 0
0.7673276078813076 0.4337234450366209 0
0.7177321960072568 0.4556048614698953 0
0.6702800695052461 0.4842908183533744 0
0.858187695146684 0.3722081944703712 0
0.6265613728620201 0.453133305038196 0
0.8106835734156486 0.3988474936845085 0
0.7936798646554082 0.4813899098370814 0
0.6752553697113961 0.214864098957402 0
0.5983783179167053 0.1976207532748031 0
0.5820496482508807 0.2745465203332724 0
0.5306440274741488 0.2907525182745084 0
0.6469829586863126 0.5270350273418465 0
0.5848563450588924 0.4282830749318342 0
0.5142068310309929 0.4139406815246978 0
0.809175042874472 0.2079383248694514 0
0.5731198751455975 0.4747559748669136 0
0.5051715776536225 0.3273125609222206 0
0.6847289648182135 0.5309916317727936 0
0.5605664127589992 0.2088735018628581 0
0.5423313607597141 0.3367515123362851 0
0.8582917023462198 0.4151930333032127 0
0.5483068685021163 0.406288311938133 0
0.769004939635472 0.5109750035392995 0
0.7526480821450242 0.4791289687992003 0
0.6805577330406863 0.1602352517648165 0
0.7572193140089155 0.2817174243158128 0
0.5821465913651873 0.2334554090398564 0
2 3 0 136
125
126
127
128
129
130
131
132
133
134
135
136
137
138
139
140
141
142
143
144
145
146
147
148
149
150
151
152
153
154
155
156
157
158
159
160
161
162
163
164
165
166
167
168
169
170
171
172
173
174
175
176
177
178
179
180
181
182
183
184
185
186
187
188
189
190
191
192
193
194
195
196
197
198
199
200
201
202
203
204
205
206
207
208
209
210
211
212
213
214
215
216
217
218
219
220
221
222
223
224
225
226
227
228
229
230
231
232
233
234
235
236
237
238
239
240
241
242
243
244
245
246
247
248
249
250
251
252
253
254
255
256
257
258
259
260
0.5124370548078105 0.5464366486428989 0
0.437962054647393 0.4426450864155687 0
0.4164607055950981 0.3079129198013495 0
0.6229813100901175 0.6046176431247851 0
0.08705454879633845 0.6688376412437586 0
0.7540162968485831 0.604479019501293 0
0.3565935371157296 0.9287554520144792 0
0.07653751534901765 0.4523720505786324 0
0.08029021030814143 0.2493182650111389 0
0.5499999999999996 0.9133974596215564 0
0.7347843021350364 0.9225307208063633 0
0.4634785680060904 0.1956173076613668 0
0.9133974596215564 0.7499999999999993 0
0.2499390132971702 0.08714250449453792 0
0.1574229298599085 0.9163575284008787 0
0.8636116541986381 0.5450008497813389 0
0.8633385901272944 0.1417398455458775 0
0.5521767493135394 0.1091789101170166 0
0.4200544978608685 0.383989023604948 0
0.3680758540531003 0.3523928466608369 0
0.3780865926553046 0.4217928218980542 0
0.314106018205814 0.3988657963858411 0
0.3270713455424482 0.4665671411159127 0
0.3040754395816543 0.3313553121288653 0
0.3929498355899489 0.4847838510089812 0
0.3446888076568825 0.5345893292400277 0
0.2787834165422662 0.5175941560171282 0
0.2990168816450286 0.5879682715575212 0
0.3808201951977022 0.6004718970460146 0
0.3245564894962063 0.6582316482679024 0
0.3985950257764679 0.6723863148767317 0
0.2491021912515248 0.3802177864115755 0
0.348821821584498 0.7310502118384142 0
0.2699192225510812 0.7172789111556508 0
0.426182194521547 0.7434875613104902 0
0.4792880364236699 0.6790191996613973 0
0.5030797682186923 0.7541012038282856 0
0.2333447547552195 0.3098657634526746 0
0.2883392316786205 0.2606266977876099 0
0.226298504508539 0.5735655134008331 0
0.5473980069607651 0.6993754884011025 0
0.5764443044508405 0.7658024904730494 0
0.6161131842020701 0.7091943825345708 0
0.6489072639573846 0.7772125148797367 0
0.6915593291459792 0.7202602845529045 0
0.4508511235157435 0.8178272746799455 0
0.2170448992152497 0.2345702765088313 0
0.7237673956546551 0.7873314895904113 0
0.778897048070043 0.720274394621171 0
0.8009005026066107 0.8017510345097034 0
0.1797885760698235 0.3618256721313559 0
0.1998457565155592 0.4371938213770311 0
0.2964294426149878 0.7910546558692713 0
0.2125079253702971 0.7772699647461909 0
0.5639898284367613 0.5803102080672582 0
0.8108937247801788 0.5807392206603865 0
0.8658265043694452 0.6107357566684465 0
0.6898731287191053 0.6099279062863464 0
0.4979770136286935 0.1458987171251075 0
0.4333167754774723 0.1386511579415792 0
0.4035950212089069 0.1980742587513655 0
0.3551487733323591 0.1454216616092088 0
0.9096438928621337 0.4976113558083808 0
0.6175256681649965 0.09069686146818062 0
0.9099330861143327 0.1919322150114624 0
0.8105282468741032 0.1013745722247753 0
0.7460940636944072 0.07384098494133079 0
0.7998877136438008 0.6436272579746397 0
0.5074878559095588 0.6053739392932131 0
0.4557731396391544 0.5731995312902877 0
0.6797400757738652 0.8487376410981102 0
0.3515875222319159 0.2870928037678584 0
0.1842848653868349 0.6984513610731186 0
0.1289331172626584 0.7630461789564771 0
0.4541775555420667 0.9132602361460194 0
0.2375808628545693 0.8572981687117709 0
0.09129558844183094 0.3521762519397356 0
0.0914662187641459 0.5578363615069227 0
0.4612609736168788 0.5029344381222963 0
0.2745488730409044 0.1820795993018101 0
0.9253483707876026 0.8494027053336139 0
0.09233995728963407 0.1522224367629622 0
0.8588534706160955 0.6838710803186719 0
0.7275380775624268 0.6590408512019885 0
0.4391217233551599 0.2467091318897707 0
0.8384891453421649 0.8938901036327601 0
0.1954497730631118 0.155388296820963 0
0.9397993599219125 0.4379893157812511 0
0.9409606001486371 0.2567096339394166 0
0.8742087413116806 0.06890562863810129 0
0.5307591807574794 0.8253395264270903 0
0.6848345051638153 0.07819985260654583 0
0.478019300676304 0.07397137990871744 0
0.9299577286488032 0.6528425183607657 0
0.575037269350344 0.6403349109481278 0
0.08102545964235974 0.8439056740511995 0
0.2441028003997608 0.6427170199844299 0
0.3760432408929994 0.8021273040773493 0
0.9281732966798366 0.5676984134364886 0
0.1517481832270143 0.07812143420136691 0
0.6033292131922132 0.8421754737923909 0
0.1485704227485808 0.4912420713026578 0
0.1582738984557134 0.2863891223726208 0
0.6416371763350021 0.9215467857059461 0
0.6509949489470497 0.655676244275577 0
0.1605408388108747 0.6208064144515538 0
0.4034489258094026 0.5458605675485043 0
0.3438360600497858 0.2195368652263107 0
0.9299513442728033 0.1236379441287077 0
0.4004789519912542 0.08116184983171593 0
0.4429098927178971 0.6316203547835851 0
0.3293556025550621 0.07072835344180783 0
0.8418417427584345 0.7497842721465691 0
0.2627142877238013 0.4439391701727846 0
0.1634940589979586 0.8315755029733034 0
0.1486797476663701 0.2155776794953032 0
0.9327675032259535 0.9286585617932747 0
0.256925632836439 0.9328702112545845 0
0.2137469512599354 0.5040141300372872 0
0.07173403136584527 0.07191721611535024 0
0.3935027138785699 0.8626136766235476 0
0.9501780533524516 0.3659698918553184 0
0.06944310308068891 0.9306529693984696 0
0.5631327807670736 0.0516283665202642 0
0.7555362843024664 0.8508481979274697 0
0.1396054111596943 0.4144298861965439 0
0.9405061426664334 0.3121222981791737 0
0.8668016564286123 0.8033926367857225 0
0.5273027921610844 0.6560258845759601 0
0.9480104226761505 0.05198957732384912 0
0.05477422513570868 0.7513426433908493 0
0.3195125716988825 0.8624532447585004 0
0.637549080204462 0.04583077412068182 0
0.302159069409095 0.1238348876492216 0
0.3909202064881733 0.2518651958873309 0
0.167594510733401 0.5526520838008332 0
$EndNodes
$Elements
6 518 1 518
1 1 1 10
1 1 6 
2 6 7 
3 7 8 
4 8 9 
5 9 10 
6 10 11 
7 11 12 
8 12 13 
9 13 14 
10 14 2 
1 2 1 10
11 3 15 
12 15 16 
13 16 17 
14 17 18 
15 18 19 
16 19 20 
17 20 21 
18 21 22 
19 22 23 
20 23 1 
1 3 1 10
21 2 24 
22 24 25 
23 25 26 
24 26 27 
25 27 28 
26 28 29 
27 29 30 
28 30 31 
29 31 32 
30 32 4 
1 4 1 10
31 4 33 
32 33 34 
33 34 35 
34 35 36 
35 36 37 
36 37 38 
37 38 39 
38 39 40 
39 40 41 
40 41 3 
2 2 2 140
41 91 95 71 
42 56 108 55 
43 95 96 71 
44 62 96 61 
45 71 96 62 
46 72 108 56 
47 102 113 110 
48 73 104 98 
49 74 113 102 
50 69 100 99 
51 44 104 73 
52 45 104 44 
53 70 105 94 
54 94 106 70 
55 74 102 100 
56 98 103 73 
57 100 109 74 
58 108 114 55 
59 69 115 100 
60 5 101 67 
61 42 101 5 
62 92 119 68 
63 68 117 92 
64 67 79 78 
65 59 106 58 
66 70 106 59 
67 71 112 91 
68 79 80 78 
69 91 123 95 
70 79 81 80 
71 81 82 80 
72 82 83 80 
73 82 84 83 
74 82 85 84 
75 85 86 84 
76 85 88 86 
77 86 87 84 
78 86 90 87 
79 85 89 88 
80 63 71 62 
81 54 68 53 
82 52 76 51 
83 57 72 56 
84 5 67 66 
85 47 69 46 
86 50 74 49 
87 60 70 59 
88 44 73 43 
89 65 75 64 
90 88 92 86 
91 86 92 90 
92 81 97 82 
93 84 93 83 
94 93 95 83 
95 87 94 93 
96 87 93 84 
97 82 97 85 
98 81 98 97 
99 85 97 89 
100 99 100 89 
101 95 105 96 
102 98 99 97 
103 97 99 89 
104 67 101 79 
105 100 102 89 
106 99 121 69 
107 94 105 93 
108 81 103 98 
109 78 91 75 
110 67 78 77 
111 105 122 96 
112 70 122 105 
113 110 113 76 
114 87 107 94 
115 89 102 88 
116 88 110 92 
117 91 112 75 
118 79 103 81 
119 101 103 79 
120 93 105 95 
121 95 123 83 
122 96 122 61 
123 80 123 78 
124 78 123 91 
125 104 121 98 
126 49 109 48 
127 74 109 49 
128 92 117 90 
129 98 121 99 
130 90 107 87 
131 77 78 75 
132 101 118 103 
133 103 118 73 
134 45 120 104 
135 68 119 111 
136 90 108 107 
137 107 108 72 
138 66 77 65 
139 64 112 63 
140 52 111 76 
141 63 112 71 
142 75 112 64 
143 65 77 75 
144 67 77 66 
145 68 111 53 
146 76 113 51 
147 51 113 50 
148 50 113 74 
149 53 111 52 
150 55 114 54 
151 54 114 68 
152 48 115 47 
153 102 110 88 
154 58 116 57 
155 43 118 42 
156 46 120 45 
157 61 122 60 
158 47 115 69 
159 100 115 109 
160 42 118 101 
161 110 119 92 
162 106 116 58 
163 107 124 94 
164 57 116 72 
165 73 118 43 
166 69 120 46 
167 60 122 70 
168 83 123 80 
169 94 124 106 
170 109 115 48 
171 90 117 108 
172 72 124 107 
173 76 119 110 
174 108 117 114 
175 114 117 68 
176 111 119 76 
177 116 124 72 
178 106 124 116 
179 69 121 120 
180 120 121 104 
2 3 2 338
181 210 249 174 
182 190 191 13 
183 174 252 210 
184 143 145 144 
185 192 207 173 
186 170 215 199 
187 13 214 190 
188 194 231 203 
189 199 215 134 
190 145 146 144 
191 197 198 129 
192 54 143 127 
193 208 229 182 
194 186 232 204 
195 153 231 194 
196 169 229 208 
197 48 182 128 
198 194 235 153 
199 135 228 195 
200 203 231 149 
201 149 150 147 
202 194 203 125 
203 145 149 147 
204 183 217 142 
205 143 144 127 
206 35 228 135 
207 189 233 25 
208 219 229 167 
209 242 256 131 
210 207 237 173 
211 13 191 12 
212 200 256 242 
213 217 248 142 
214 198 255 129 
215 173 208 192 
216 163 196 148 
217 135 249 210 
218 191 216 12 
219 128 229 219 
220 204 258 186 
221 210 252 205 
222 165 219 167 
223 179 219 193 
224 182 229 128 
225 20 201 132 
226 185 232 186 
227 131 199 38 
228 31 205 137 
229 193 253 160 
230 132 202 19 
231 127 259 209 
232 206 224 211 
233 160 235 193 
234 129 230 197 
235 58 183 142 
236 53 143 54 
237 148 196 144 
238 126 203 149 
239 207 218 137 
240 25 233 24 
241 10 217 9 
242 201 227 175 
243 47 182 48 
244 14 214 13 
245 181 223 218 
246 217 234 9 
247 22 206 133 
248 137 218 30 
249 133 227 201 
250 31 137 30 
251 225 228 134 
252 202 230 129 
253 160 165 161 
254 37 199 134 
255 133 201 21 
256 28 223 187 
257 18 202 129 
258 196 259 127 
259 37 134 36 
260 35 135 34 
261 22 133 21 
262 187 212 28 
263 20 132 19 
264 39 131 38 
265 25 213 189 
266 215 225 134 
267 219 253 193 
268 167 229 169 
269 18 129 17 
270 155 160 159 
271 32 205 31 
272 52 203 126 
273 211 240 206 
274 165 167 166 
275 125 203 51 
276 179 193 125 
277 50 179 125 
278 19 202 18 
279 21 201 20 
280 8 138 7 
281 128 179 49 
282 38 199 37 
283 23 206 22 
284 145 147 146 
285 128 219 179 
286 135 210 34 
287 57 183 58 
288 181 207 192 
289 132 226 202 
290 136 209 185 
291 146 148 144 
292 181 192 180 
293 200 242 139 
294 169 208 173 
295 167 169 168 
296 160 161 159 
297 138 224 7 
298 188 216 60 
299 127 209 55 
300 41 139 40 
301 204 211 138 
302 150 153 152 
303 221 230 164 
304 34 210 33 
305 201 250 132 
306 165 166 161 
307 59 188 60 
308 202 260 230 
309 189 213 65 
310 26 213 25 
311 211 224 138 
312 163 232 196 
313 197 230 221 
314 246 251 26 
315 153 235 155 
316 39 242 131 
317 64 189 65 
318 144 196 127 
319 218 223 29 
320 36 228 35 
321 150 151 147 
322 29 223 28 
323 129 255 17 
324 169 173 172 
325 195 228 225 
326 153 155 154 
327 167 168 166 
328 28 212 27 
329 175 250 201 
330 178 197 158 
331 131 245 199 
332 56 209 136 
333 155 159 157 
334 46 180 130 
335 193 194 125 
336 151 238 147 
337 180 192 130 
338 138 258 204 
339 139 239 200 
340 169 172 168 
341 220 255 198 
342 153 154 152 
343 178 198 197 
344 52 126 53 
345 54 127 55 
346 50 125 51 
347 162 163 148 
348 195 249 135 
349 27 246 26 
350 140 223 181 
351 48 128 49 
352 161 170 159 
353 51 203 52 
354 193 235 194 
355 150 152 151 
356 9 236 8 
357 139 242 40 
358 205 252 137 
359 16 220 15 
360 49 179 50 
361 156 176 175 
362 177 200 178 
363 155 157 154 
364 30 218 29 
365 149 231 150 
366 6 244 1 
367 134 228 36 
368 204 232 163 
369 4 241 32 
370 33 241 4 
371 10 248 217 
372 140 181 180 
373 177 178 158 
374 126 149 145 
375 46 130 47 
376 199 245 170 
377 1 244 23 
378 126 143 53 
379 157 158 154 
380 206 240 133 
381 15 247 3 
382 197 221 158 
383 7 224 6 
384 146 156 148 
385 157 177 158 
386 156 162 148 
387 171 204 163 
388 3 247 41 
389 152 164 151 
390 173 174 172 
391 166 215 161 
392 226 250 176 
393 151 243 238 
394 136 185 184 
395 55 209 56 
396 159 222 157 
397 170 222 159 
398 172 195 168 
399 147 238 146 
400 140 180 45 
401 130 182 47 
402 192 208 130 
403 156 175 162 
404 171 211 204 
405 162 171 163 
406 234 236 9 
407 126 145 143 
408 56 136 57 
409 161 215 170 
410 181 218 207 
411 150 231 153 
412 157 222 177 
413 155 235 160 
414 16 255 220 
415 160 253 165 
416 45 180 46 
417 137 237 207 
418 154 221 152 
419 146 238 156 
420 152 221 164 
421 185 186 184 
422 44 140 45 
423 58 142 59 
424 168 225 166 
425 63 141 64 
426 130 208 182 
427 158 221 154 
428 200 239 178 
429 63 190 141 
430 8 236 138 
431 44 187 140 
432 12 257 11 
433 175 227 162 
434 190 214 141 
435 132 250 226 
436 166 225 215 
437 195 225 168 
438 187 223 140 
439 162 227 171 
440 177 256 200 
441 62 190 63 
442 61 191 62 
443 11 248 10 
444 210 241 33 
445 198 239 220 
446 164 243 151 
447 136 183 57 
448 62 191 190 
449 43 187 44 
450 32 241 205 
451 205 241 210 
452 60 216 61 
453 65 213 66 
454 61 216 191 
455 136 184 183 
456 156 238 176 
457 133 240 227 
458 184 217 183 
459 23 244 206 
460 206 244 224 
461 142 188 59 
462 40 242 39 
463 172 249 195 
464 178 239 198 
465 5 246 42 
466 41 247 139 
467 141 189 64 
468 42 212 43 
469 186 234 184 
470 17 255 16 
471 227 240 171 
472 43 212 187 
473 220 239 139 
474 176 243 226 
475 173 237 174 
476 164 260 243 
477 213 251 66 
478 66 251 5 
479 2 254 14 
480 24 254 2 
481 216 257 12 
482 171 240 211 
483 226 260 202 
484 238 243 176 
485 26 251 213 
486 214 233 141 
487 184 234 217 
488 14 254 214 
489 42 246 212 
490 186 236 234 
491 5 251 246 
492 139 247 220 
493 220 247 15 
494 209 259 185 
495 224 244 6 
496 170 245 222 
497 141 233 189 
498 174 249 172 
499 188 257 216 
500 176 250 175 
501 214 254 233 
502 248 257 188 
503 137 252 237 
504 230 260 164 
505 243 260 226 
506 142 248 188 
507 222 256 177 
508 232 259 196 
509 245 256 222 
510 131 256 245 
511 212 246 27 
512 165 253 219 
513 185 259 232 
514 186 258 236 
515 233 254 24 
516 237 252 174 
517 236 258 138 
518 11 257 248 
$EndElements
