$MeshFormat
4.1 0 8
$EndMeshFormat
$PhysicalNames
3
1 101 "outer_boundary"
2 1 "material_1"
2 2 "material_2"
$EndPhysicalNames
$Entities
8 8 2 0
1 0 0 0 0 
2 1 0 0 0 
3 0 1 0 0 
4 1 1 0 0 
5 0.5778646168537824 0.2928718298379729 0 0 
6 0.462050714939161 0.5519824460370594 0 0 
7 0.2029400987400745 0.4361685441224379 0 0 
8 0.318754000654696 0.1770579279233514 0 0 
1 -9.999999994736442e-08 -1e-07 -1e-07 1.0000001 1e-07 1e-07 1 101 2 1 -2 
2 -1e-07 -9.999999994736442e-08 -1e-07 1e-07 1.0000001 1e-07 1 101 2 3 -1 
3 0.9999999000000001 -9.999999994736442e-08 -1e-07 1.0000001 1.0000001 1e-07 1 101 2 2 -4 
4 -9.999999994736442e-08 0.9999999000000001 -1e-07 1.0000001 1.0000001 1e-07 1 101 2 4 -3 
5 0.462050614939161 0.2928717298379729 -1e-07 0.5778647168537824 0.5519825460370593 1e-07 0 2 5 -6 
6 0.2029399987400745 0.4361684441224379 -1e-07 0.462050814939161 0.5519825460370593 1e-07 0 2 6 -7 
7 0.2029399987400745 0.1770578279233514 -1e-07 0.318754100654696 0.4361686441224379 1e-07 0 2 7 -8 
8 0.318753900654696 0.1770578279233514 -1e-07 0.5778647168537824 0.2928719298379729 1e-07 0 2 8 -5 
2 0.2029399987400745 0.1770578279233514 -1e-07 0.5778647168537824 0.5519825460370593 1e-07 1 2 4 5 6 7 8 
3 -9.999999994736442e-08 -9.999999994736442e-08 -1e-07 1.0000001 1.0000001 1e-07 1 1 8 1 3 4 2 -5 -8 -7 -6 
$EndEntities
$Nodes
18 268 1 268
0 1 0 1
1
0 0 0
0 2 0 1
2
1 0 0
0 3 0 1
3
0 1 0
0 4 0 1
4
1 1 0
0 5 0 1
5
0.5778646168537824 0.2928718298379729 0
0 6 0 1
6
0.462050714939161 0.5519824460370594 0
0 7 0 1
7
0.2029400987400745 0.4361685441224379 0
0 8 0 1
8
0.318754000654696 0.1770579279233514 0
1 1 0 9
9
10
11
12
13
14
15
16
17
0.09999999999999996 0 0
0.1999999999999999 0 0
0.3000000000000001 0 0
0.4000000000000004 0 0
0.5000000000000003 0 0
0.5999999999999999 0 0
0.6999999999999995 0 0
0.7999999999999992 0 0
0.899999999999999 0 0
1 2 0 9
18
19
20
21
22
23
24
25
26
0 0.9 0
0 0.8 0
0 0.7 0
0 0.5999999999999996 0
0 0.4999999999999997 0
0 0.4000000000000001 0
0 0.3000000000000005 0
0 0.2000000000000008 0
0 0.100000000000001 0
1 3 0 9
27
28
29
30
31
32
33
34
35
1 0.09999999999999996 0
1 0.1999999999999999 0
1 0.3000000000000001 0
1 0.4000000000000004 0
1 0.5000000000000003 0
1 0.5999999999999999 0
1 0.6999999999999995 0
1 0.7999999999999992 0
1 0.899999999999999 0
1 4 0 9
36
37
38
39
40
41
42
43
44
0.9 1 0
0.8 1 0
0.7 1 0
0.5999999999999996 1 0
0.4999999999999997 1 0
0.4000000000000001 1 0
0.3000000000000005 1 0
0.2000000000000008 1 0
0.100000000000001 1 0
1 5 0 5
45
46
47
48
49
0.5585622998680122 0.3360569325378206 0
0.539259982882242 0.3792420352376683 0
0.5199576658964717 0.422427137937516 0
0.5006553489107015 0.4656122406373639 0
0.4813530319249312 0.5087973433372116 0
1 6 0 5
50
51
52
53
54
0.4188656122393133 0.5326801290512891 0
0.3756805095394656 0.5133778120655189 0
0.3324954068396179 0.4940754950797487 0
0.28931030413977 0.4747731780939784 0
0.2461252014399223 0.4554708611082082 0
1 7 0 5
55
56
57
58
59
0.2222424157258447 0.3929834414225902 0
0.2415447327116149 0.3497983387227425 0
0.2608470496973852 0.3066132360228947 0
0.2801493666831555 0.2634281333230469 0
0.2994516836689257 0.2202430306231992 0
1 8 0 5
60
61
62
63
64
0.3619391033545437 0.1963602449091216 0
0.4051242060543913 0.2156625618948918 0
0.4483093087542391 0.2349648788806621 0
0.491494411454087 0.2542671958664324 0
0.5346795141539347 0.2735695128522027 0
2 2 0 35
65
66
67
68
69
70
71
72
73
74
75
76
77
78
79
80
81
82
83
84
85
86
87
88
89
90
91
92
93
94
95
96
97
98
99
0.446736745445438 0.2841023247874199 0
0.288228525332231 0.349251635595041 0
0.3703602207203632 0.4663732766743273 0
0.4867617418453793 0.3846059458571241 0
0.3254209385224222 0.2564758717119626 0
0.2842454064457746 0.4286358729170424 0
0.4533201749392234 0.472072694272859 0
0.3275137060952035 0.4471848186543986 0
0.3658364204649678 0.4193110192694399 0
0.4171187915950958 0.4379466716047222 0
0.4042368487742725 0.3915284655633095 0
0.3626123774848704 0.3720685443869937 0
0.3974001673670147 0.3446817765879772 0
0.3577134471235787 0.3255420503137633 0
0.3956947814274401 0.2987898145064213 0
0.4425456969857732 0.3637802280530865 0
0.3137493601796289 0.3055212242526352 0
0.4937077492012073 0.306163097948032 0
0.3178250433358758 0.3934055374321734 0
0.4699432227144672 0.4309661423587894 0
0.4127491637670331 0.4874836568695092 0
0.5117878600008289 0.3435973930107002 0
0.2676679335426708 0.3878360847526605 0
0.3662016142653113 0.2390856737309903 0
0.4056595119523827 0.2592297506812868 0
0.459074052399262 0.3246701675798761 0
0.3595468678789693 0.2820939751565499 0
0.328025750691237 0.3491577983961213 0
0.4418456130999317 0.4031321638431511 0
0.2486840647838264 0.418685131553453 0
0.4445673023701762 0.5062384799933074 0
0.5321206508100305 0.3103552424069577 0
0.3361158129929278 0.2224837365819513 0
0.4257835816258007 0.3199670275156831 0
0.4789624456575936 0.3506258094334391 0
2 3 0 169
100
101
102
103
104
105
106
107
108
109
110
111
112
113
114
115
116
117
118
119
120
121
122
123
124
125
126
127
128
129
130
131
132
133
134
135
136
137
138
139
140
141
142
143
144
145
146
147
148
149
150
151
152
153
154
155
156
157
158
159
160
161
162
163
164
165
166
167
168
169
170
171
172
173
174
175
176
177
178
179
180
181
182
183
184
185
186
187
188
189
190
191
192
193
194
195
196
197
198
199
200
201
202
203
204
205
206
207
208
209
210
211
212
213
214
215
216
217
218
219
220
221
222
223
224
225
226
227
228
229
230
231
232
233
234
235
236
237
238
239
240
241
242
243
244
245
246
247
248
249
250
251
252
253
254
255
256
257
258
259
260
261
262
263
264
265
266
267
268
0.5091012694351542 0.5471061915487123 0
0.3436455954727797 0.5426776343669221 0
0.566365539229533 0.4187931108408279 0
0.487593443420157 0.5914717230034452 0
0.5458275404921447 0.5857491677277764 0
0.5198233058985083 0.6404408280652121 0
0.5819644997200968 0.6332181513085454 0
0.4581763099753935 0.640537393944419 0
0.2500000000000007 0.9133974596215564 0
0.9127386959681669 0.3527172813924161 0
0.913194738489685 0.7470381884375732 0
0.6058726245095638 0.3320231156310836 0
0.6242100957354304 0.2844577116367545 0
0.2471979350975081 0.5072408577613076 0
0.6075902550347063 0.5708719925394371 0
0.5540281596720785 0.6931738509719607 0
0.6228203504842691 0.6849382651790251 0
0.6595896415720359 0.3315337321586754 0
0.6841775493101705 0.2764146083199674 0
0.247383746285734 0.2215832806333133 0
0.213796495201392 0.3114894905112418 0
0.9261600114398831 0.5471677029188087 0
0.5257496484705875 0.2311215167551285 0
0.6427303956496238 0.2273050833023305 0
0.7111363222359681 0.2161271427212488 0
0.08002794419304471 0.6554345739887985 0
0.5926900508009397 0.7489545986679178 0
0.5208073081564035 0.7559604847393493 0
0.6657937954749249 0.7422500355185492 0
0.6957299590671309 0.6729762587672632 0
0.4471203503421336 0.1837542695232595 0
0.7212412965820734 0.3260757925497525 0
0.6928734547385345 0.3846421809711439 0
0.1726459697958593 0.3944514110707349 0
0.9133974596215562 0.1499999999999999 0
0.08310060043530348 0.152580012422421 0
0.7596095253081945 0.3803695926930708 0
0.7286945330028141 0.4414066637519192 0
0.7520227536468772 0.9299340893051525 0
0.1507356133040954 0.4429911308706169 0
0.567046341455002 0.8207089130317649 0
0.4879090631020805 0.8276209060468835 0
0.3570628488661968 0.1493096904131285 0
0.7431963665591483 0.7338848028706189 0
0.7726649926688892 0.6597189936664785 0
0.718589005228593 0.6060759105784915 0
0.4492714865015806 0.7602619569509574 0
0.4054973882251215 0.8276357411740443 0
0.3698296099356638 0.7499473946958385 0
0.6615276583941649 0.1516003964143691 0
0.79731978636319 0.4376221687875252 0
0.7408996399808774 0.1497970403994576 0
0.7851322211926659 0.2056082183056258 0
0.0947666162890009 0.8487096495551387 0
0.5500000000000002 0.08660254037844345 0
0.3144013838124521 0.1284321976585557 0
0.6542161289470808 0.441785728754969 0
0.7919374536147206 0.3227469404192843 0
0.4237418667276603 0.5797306835472823 0
0.3994764003118635 0.6386613253424841 0
0.1175183945226798 0.3976336282354093 0
0.1889614438981465 0.486682383527452 0
0.20583986452108 0.5436268913916232 0
0.1440766158752317 0.5306827978953466 0
0.2592189694185258 0.5640303083922301 0
0.2165563996756747 0.6022945122561638 0
0.2804286624912537 0.625759457826857 0
0.231479379874567 0.6719942265393393 0
0.2679113407633706 0.1586858275054518 0
0.2070432528808227 0.1777675405078766 0
0.1995537030761418 0.2295127165413505 0
0.2089453673281448 0.1003812713598493 0
0.6034148372400687 0.1837520971423996 0
0.7924908311324599 0.5778608974265638 0
0.851756016908745 0.6524276146959509 0
0.6945923654705397 0.4997527275552783 0
0.3260740619022577 0.8292382013095091 0
0.284036663103311 0.7569634211751648 0
0.1491327925405928 0.3412637644633649 0
0.720750088378718 0.8024313617935894 0
0.7919941307727999 0.7936108694928609 0
0.4487060645661006 0.908735495563793 0
0.6324257200665593 0.5088262340699293 0
0.5384111436671978 0.9058356668489584 0
0.6178702340546705 0.8883570860981516 0
0.911390585259767 0.2550518563027269 0
0.34904367202509 0.07634166786106111 0
0.4562290211598234 0.07902894303523905 0
0.9234878578224365 0.4545195401957451 0
0.08245776995704168 0.7497998743112726 0
0.1652037904973014 0.7926483260163205 0
0.08336606256057977 0.2537014075781641 0
0.3143506427000113 0.6885413432337308 0
0.09232397637769829 0.4578734960206696 0
0.8199437536659409 0.1379357952578574 0
0.908708818950176 0.8506439755843631 0
0.3560534587473003 0.9151369895122945 0
0.3669929371538466 0.5907747367401281 0
0.635503186679206 0.07500451150070242 0
0.6342322296923947 0.3804729006876409 0
0.49127324494802 0.1435486691049535 0
0.1504744203421837 0.9244865060251082 0
0.8477534061908851 0.9289370268676423 0
0.1541159902470645 0.7047825032066274 0
0.7665453933340551 0.5019369908066266 0
0.8444912050709827 0.5023921215509406 0
0.0744431996875034 0.3426792817894813 0
0.5233818307037473 0.5019306199172614 0
0.1489225866840988 0.2052148536891664 0
0.5477059034066947 0.4607359861490168 0
0.6723876251925116 0.5582392038489014 0
0.2955127463848725 0.524749612023674 0
0.2431918649465263 0.8281086866442082 0
0.2330988121871623 0.2683043878113939 0
0.4911524602304679 0.2037315814125041 0
0.5788024150738811 0.2382586728387682 0
0.8227599986167263 0.7311134115272468 0
0.4276177472190086 0.6943415786578894 0
0.4005435503514906 0.1681280871836114 0
0.6498469491212179 0.6210532970369439 0
0.597598291647465 0.4626903066676137 0
0.1998724811950607 0.3579972892381348 0
0.08021288866407972 0.5719869868707014 0
0.5851792557625688 0.3775312562019963 0
0.1479639672851616 0.06107293102137268 0
0.5662329729694959 0.519701499802821 0
0.4900469970319659 0.6991635383227501 0
0.2720499986369843 0.07182719945529459 0
0.1627395635642849 0.2769237711350145 0
0.8298592766630217 0.373623238676957 0
0.770048727995745 0.07474027487509527 0
0.7557886574557123 0.2684194991145002 0
0.8261232928254727 0.2618213224162811 0
0.214378562196974 0.7415658473144423 0
0.642273117673245 0.8116571898094626 0
0.1533782223424189 0.629791472238693 0
0.8495818923551701 0.06324079545938588 0
0.3409265717571826 0.6352029618969713 0
0.07508301083812419 0.07394134255978291 0
0.9329134297005176 0.6470699988280141 0
0.4414671551627127 0.1343524274268261 0
0.5466900419488651 0.1730171564597731 0
0.3128522076007533 0.5811098267634691 0
0.9268318506057567 0.07326904775338056 0
0.3718754757222973 0.6823642703331723 0
0.8519369557825763 0.2005798850615199 0
0.3857853042266131 0.5518481991542281 0
0.1488565625254081 0.1292399291051246 0
0.926794919243112 0.9267949192431117 0
0.07320508075688781 0.9267949192431124 0
0.3999225462030385 0.11514303632834 0
0.6718762367153525 0.9371064638300213 0
0.7015958426099986 0.0902284446379249 0
0.8518798749623877 0.7983793745878955 0
0.08928954123246408 0.5130820970736059 0
0.7958959505746394 0.8568036262431981 0
0.7289210440716318 0.5487731460431723 0
0.160012798215697 0.5756765321305056 0
0.8556370864683513 0.3157887823958023 0
0.8615793643775596 0.4241748701207168 0
0.1833633503015957 0.8592754326002388 0
0.1330774381375272 0.4862623810775382 0
0.1174204045882402 0.3036420562415062 0
0.606782858393667 0.4185994422769367 0
0.4012988098469881 0.06762841180616008 0
0.05813652850883277 0.4099061164965955 0
0.700114730173917 0.8710483028465958 0
0.5986936670024375 0.1297968923590211 0
0.8625552979593414 0.5858311389338656 0
$EndNodes
$Elements
6 534 1 534
1 1 1 10
1 1 9 
2 9 10 
3 10 11 
4 11 12 
5 12 13 
6 13 14 
7 14 15 
8 15 16 
9 16 17 
10 17 2 
1 2 1 10
11 3 18 
12 18 19 
13 19 20 
14 20 21 
15 21 22 
16 22 23 
17 23 24 
18 24 25 
19 25 26 
20 26 1 
1 3 1 10
21 2 27 
22 27 28 
23 28 29 
24 29 30 
25 30 31 
26 31 32 
27 32 33 
28 33 34 
29 34 35 
30 35 4 
1 4 1 10
31 4 36 
32 36 37 
33 37 38 
34 38 39 
35 39 40 
36 40 41 
37 41 42 
38 42 43 
39 43 44 
40 44 3 
2 2 2 92
41 74 84 71 
42 83 87 66 
43 66 92 83 
44 74 93 84 
45 89 91 88 
46 79 91 89 
47 79 89 65 
48 65 98 79 
49 70 87 83 
50 78 92 81 
51 68 93 80 
52 71 85 74 
53 81 91 78 
54 84 93 68 
55 81 92 66 
56 57 66 56 
57 70 83 72 
58 53 72 52 
59 69 81 58 
60 71 84 48 
61 63 65 62 
62 52 67 51 
63 73 74 67 
64 73 83 76 
65 49 71 48 
66 52 72 67 
67 77 80 75 
68 47 68 46 
69 70 72 53 
70 48 84 47 
71 54 70 53 
72 58 81 57 
73 57 81 66 
74 73 76 75 
75 72 73 67 
76 73 75 74 
77 76 77 75 
78 78 79 77 
79 59 69 58 
80 72 83 73 
81 63 82 65 
82 76 78 77 
83 64 82 63 
84 47 84 68 
85 86 99 82 
86 82 99 90 
87 69 91 81 
88 80 99 68 
89 56 87 55 
90 46 86 45 
91 51 85 50 
92 74 85 67 
93 65 89 62 
94 66 87 56 
95 67 85 51 
96 68 86 46 
97 61 88 60 
98 83 92 76 
99 75 93 74 
100 7 94 54 
101 5 96 64 
102 6 95 49 
103 55 94 7 
104 45 96 5 
105 50 95 6 
106 77 98 80 
107 61 89 88 
108 8 97 59 
109 60 97 8 
110 62 89 61 
111 82 90 65 
112 80 98 90 
113 88 91 69 
114 78 91 79 
115 76 92 78 
116 80 93 75 
117 90 98 65 
118 86 96 45 
119 87 94 55 
120 85 95 50 
121 59 97 69 
122 49 95 71 
123 54 94 70 
124 64 96 82 
125 79 98 77 
126 71 95 85 
127 70 94 87 
128 82 96 86 
129 69 97 88 
130 88 97 60 
131 68 99 86 
132 90 99 80 
2 3 2 402
133 167 192 177 
134 170 228 208 
135 220 225 209 
136 176 196 108 
137 208 228 191 
138 10 227 171 
139 100 225 104 
140 107 158 103 
141 183 184 39 
142 171 224 10 
143 209 225 207 
144 113 161 54 
145 41 181 40 
146 110 216 174 
147 119 168 59 
148 54 161 7 
149 168 227 155 
150 184 251 39 
151 122 241 215 
152 59 168 8 
153 207 225 100 
154 174 239 110 
155 140 183 141 
156 166 192 167 
157 123 215 172 
158 177 233 167 
159 181 183 40 
160 108 212 176 
161 12 186 11 
162 107 159 158 
163 191 262 206 
164 112 215 123 
165 103 158 6 
166 141 183 181 
167 22 265 193 
168 222 257 235 
169 255 266 179 
170 114 225 182 
171 148 244 217 
172 154 187 13 
173 41 196 181 
174 186 227 11 
175 147 196 176 
176 148 217 146 
177 215 241 172 
178 108 196 42 
179 5 215 112 
180 12 264 186 
181 189 190 153 
182 200 214 130 
183 163 257 222 
184 171 227 168 
185 28 185 134 
186 191 206 24 
187 121 188 31 
188 231 232 157 
189 135 191 25 
190 195 255 253 
191 152 232 231 
192 181 196 147 
193 154 200 187 
194 182 210 114 
195 117 199 111 
196 120 221 178 
197 155 227 186 
198 204 205 173 
199 121 205 188 
200 14 154 13 
201 113 162 161 
202 19 189 153 
203 120 228 213 
204 187 264 12 
205 140 184 183 
206 154 241 200 
207 202 255 195 
208 189 203 190 
209 26 135 25 
210 194 236 134 
211 135 208 191 
212 13 187 12 
213 182 225 220 
214 21 125 20 
215 138 266 255 
216 167 235 165 
217 125 189 20 
218 109 185 29 
219 119 169 168 
220 30 188 109 
221 104 225 114 
222 34 195 110 
223 30 109 29 
224 40 183 39 
225 25 191 24 
226 180 255 179 
227 177 192 148 
228 203 235 167 
229 222 235 125 
230 228 262 191 
231 238 247 135 
232 43 108 42 
233 175 182 156 
234 212 233 177 
235 28 134 27 
236 132 199 117 
237 32 121 31 
238 156 199 132 
239 34 110 33 
240 23 265 22 
241 38 138 37 
242 14 198 154 
243 159 197 158 
244 137 156 132 
245 29 185 28 
246 31 188 30 
247 154 267 241 
248 35 195 34 
249 24 206 23 
250 224 247 238 
251 213 228 170 
252 185 245 134 
253 193 254 22 
254 106 219 116 
255 20 189 19 
256 22 254 222 
257 19 153 18 
258 129 145 144 
259 141 146 127 
260 190 233 212 
261 237 242 197 
262 178 228 120 
263 42 196 41 
264 43 201 108 
265 114 219 106 
266 125 203 189 
267 22 222 21 
268 15 198 14 
269 130 240 200 
270 147 148 146 
271 166 237 192 
272 138 202 37 
273 32 239 121 
274 110 239 33 
275 182 220 156 
276 113 164 162 
277 176 177 148 
278 173 256 204 
279 37 202 36 
280 137 175 156 
281 44 201 43 
282 199 223 111 
283 239 268 121 
284 203 233 190 
285 146 226 127 
286 123 172 149 
287 109 259 229 
288 145 173 144 
289 119 170 169 
290 236 243 134 
291 129 219 145 
292 16 230 15 
293 141 147 146 
294 200 241 214 
295 188 259 109 
296 105 226 107 
297 21 222 125 
298 115 226 105 
299 145 219 210 
300 205 268 173 
301 147 176 148 
302 101 242 211 
303 230 252 15 
304 107 217 159 
305 39 251 38 
306 9 238 1 
307 15 252 198 
308 192 244 148 
309 166 242 237 
310 197 242 101 
311 190 260 153 
312 49 100 6 
313 116 129 128 
314 1 238 26 
315 129 144 143 
316 214 241 122 
317 151 152 124 
318 131 132 117 
319 46 102 47 
320 176 212 177 
321 47 209 48 
322 206 265 23 
323 48 207 49 
324 109 258 185 
325 172 267 149 
326 11 227 10 
327 5 111 45 
328 137 204 175 
329 173 174 144 
330 126 127 115 
331 143 179 128 
332 2 243 17 
333 116 219 129 
334 45 223 46 
335 27 243 2 
336 140 141 127 
337 104 114 106 
338 175 210 182 
339 4 248 35 
340 36 248 4 
341 164 166 165 
342 167 233 203 
343 136 137 132 
344 143 180 179 
345 51 101 52 
346 149 267 198 
347 129 143 128 
348 3 249 44 
349 18 249 3 
350 210 219 114 
351 217 226 146 
352 52 211 53 
353 6 158 50 
354 141 181 147 
355 105 107 103 
356 58 119 59 
357 151 194 152 
358 145 256 173 
359 110 253 216 
360 10 224 9 
361 63 122 64 
362 136 150 137 
363 126 140 127 
364 100 103 6 
365 144 216 143 
366 116 128 126 
367 57 213 58 
368 162 163 161 
369 53 113 54 
370 166 167 165 
371 174 216 144 
372 106 116 115 
373 150 204 137 
374 62 214 63 
375 116 126 115 
376 56 120 57 
377 26 238 135 
378 49 207 100 
379 143 216 180 
380 131 136 132 
381 64 215 5 
382 61 130 62 
383 164 165 162 
384 107 226 217 
385 102 209 47 
386 211 242 164 
387 140 234 184 
388 118 131 117 
389 106 115 105 
390 149 151 124 
391 48 209 207 
392 174 268 239 
393 127 226 115 
394 198 252 149 
395 150 205 204 
396 153 260 201 
397 55 221 56 
398 152 231 124 
399 100 104 103 
400 104 106 105 
401 131 157 136 
402 113 211 164 
403 46 223 102 
404 104 105 103 
405 7 161 139 
406 60 218 61 
407 123 149 124 
408 111 223 45 
409 241 267 172 
410 160 178 133 
411 7 133 55 
412 112 123 118 
413 101 246 197 
414 170 208 169 
415 198 267 154 
416 195 253 110 
417 8 142 60 
418 134 245 194 
419 112 117 111 
420 119 213 170 
421 5 112 111 
422 179 234 128 
423 8 168 155 
424 220 263 156 
425 151 230 194 
426 123 124 118 
427 102 220 209 
428 112 118 117 
429 197 246 158 
430 169 171 168 
431 156 263 199 
432 205 259 188 
433 229 258 109 
434 101 211 52 
435 208 247 169 
436 134 243 27 
437 33 239 32 
438 125 235 203 
439 126 234 140 
440 171 247 224 
441 159 237 197 
442 17 236 16 
443 38 251 138 
444 128 234 126 
445 201 260 108 
446 121 268 205 
447 178 221 133 
448 202 248 36 
449 185 258 232 
450 7 139 133 
451 53 211 113 
452 210 256 145 
453 44 249 201 
454 160 206 178 
455 58 213 119 
456 136 229 150 
457 169 247 171 
458 35 248 195 
459 135 247 208 
460 149 252 151 
461 131 231 157 
462 216 253 180 
463 63 214 122 
464 164 242 166 
465 200 240 187 
466 8 155 142 
467 51 246 101 
468 120 213 57 
469 122 215 64 
470 153 249 18 
471 195 248 202 
472 157 229 136 
473 130 214 62 
474 158 246 50 
475 139 193 160 
476 118 231 131 
477 50 246 51 
478 56 221 120 
479 175 256 210 
480 253 255 180 
481 230 236 194 
482 124 231 118 
483 201 249 153 
484 232 245 185 
485 61 218 130 
486 222 254 163 
487 179 266 234 
488 138 255 202 
489 139 160 133 
490 150 259 205 
491 133 221 55 
492 108 260 212 
493 142 218 60 
494 155 186 142 
495 240 250 187 
496 194 245 152 
497 218 240 130 
498 224 238 9 
499 223 263 102 
500 217 244 159 
501 212 260 190 
502 232 258 157 
503 16 236 230 
504 234 266 184 
505 204 256 175 
506 152 245 232 
507 139 261 193 
508 151 252 230 
509 173 268 174 
510 235 257 165 
511 165 257 162 
512 157 258 229 
513 199 263 223 
514 159 244 237 
515 162 257 163 
516 250 264 187 
517 163 261 161 
518 17 243 236 
519 160 265 206 
520 102 263 220 
521 206 262 178 
522 186 250 142 
523 237 244 192 
524 229 259 150 
525 193 265 160 
526 251 266 138 
527 142 250 218 
528 161 261 139 
529 218 250 240 
530 193 261 254 
531 178 262 228 
532 254 261 163 
533 184 266 251 
534 186 264 250 
$EndElements
